<?xml version="1.0" encoding="utf-8"?>
<!-- Generator: Adobe Illustrator 25.2.3, SVG Export Plug-In . SVG Version: 6.00 Build 0)  -->
<svg version="1.1" id="Layer_1" xmlns="http://www.w3.org/2000/svg" xmlns:xlink="http://www.w3.org/1999/xlink" x="0px" y="0px"
	 viewBox="0 0 117.16 57.37" style="enable-background:new 0 0 117.16 57.37;" xml:space="preserve">
<style type="text/css">
	.st0{fill-opacity:0.15;}
	.st1{fill:#D3AA24;}
	.st2{fill:#C4A422;}
	.st3{fill:#B79A1D;}
	.st4{fill:#4A6605;}
</style>
<g>
	<path class="st0" d="M117.06,30.85c-0.54-3.47,0.54-7.27-2.49-9.86c-1.24-1.06-2.73-1.34-4.22-1.58c-0.45-1.28-1.37-2.37-2.59-3.14
		c-0.54-0.34-1.12-0.64-1.72-0.92c-0.14-0.1-0.27-0.21-0.41-0.31c-1.51-1.05-2.48-2.28-3.84-3.47c-1.17-1.03-2.56-1.58-3.99-2.06
		c-0.28-0.18-0.58-0.35-0.89-0.49c-0.64-0.28-1.32-0.43-2.01-0.5c-0.86-0.32-1.7-0.68-2.54-1.04c-0.61-0.58-2.23-1.94-3.38-2.47
		c-0.45-0.92-1.19-1.79-2.03-2.29c-1.37-0.82-2.63-0.58-4.05-0.53c-0.15-0.11-0.36-0.25-0.65-0.46c-0.39-0.27-0.79-0.45-1.22-0.64
		c-1-0.46-2.08-0.73-3.18-0.79c-1.61-0.08-3.2,0.25-4.69,0.84c-0.41,0-0.82,0.02-1.24,0.05c-1.63,0.12-3.55,0.95-5.19,0.78
		c-1.22-0.97-2.74-1.47-4.28-1.45c-0.52-0.18-1.06-0.33-1.62-0.4c-4.42-0.55-8.8,0.86-13.01,2c-1.22,0.33-2.45,0.65-3.67,0.97
		c-0.12-0.08-0.23-0.15-0.33-0.2c-3.4-1.93-6.7-0.44-8.96,2.1c-1.53-0.04-3.11,0.43-4.56,1.28c-0.36,0.22-0.88,0.74-1.38,1.02
		c-0.18,0.06-0.36,0.12-0.54,0.18c-0.56,0.03-1.58-0.72-2.11-0.85c-1.66-0.43-3.38-0.26-4.93,0.43c-2.07,0.93-3.57,2.8-4.06,4.95
		c-1.52,0.66-3.03,1.34-4.42,2.16c-0.28,0.16-0.55,0.34-0.81,0.53c-0.76,0.26-1.33,0.67-1.71,1.19c-1.98-0.92-4.04-1.32-6.03-0.3
		c-3.84,1.98-2.09,5.45-2.83,8.63c-0.86,3.71-2.92,6.98,0.15,10.41c0.51,0.57,1.11,1.03,1.77,1.4c-0.76,1.57-0.85,3.44,0.01,5.04
		c1.08,2.02,3.1,2.76,5.01,3.76c2.09,1.1,4.1,2.38,5.92,3.88c3.57,2.94,6.64,6.15,11.63,6.01c1.52-0.04,3.07-0.35,4.62-0.79
		c1.23,0.43,2.55,0.51,3.87,0.21c0.89-0.2,1.74-0.56,2.55-0.98c0.36-0.19,1.09-0.84,1.63-1.09c0.62,0.87,1.43,1.54,2.52,1.93
		c0.31,0.11,0.62,0.18,0.93,0.23c0.05,0.04,0.09,0.07,0.13,0.1c1.92,1.27,4.02,1.91,6.3,2.18c3.48,0.41,6.91,0.07,10.37,0.64
		c2.06,0.34,3.98,0.37,5.91-0.55c0.42-0.2,0.86-0.58,1.28-0.74c0.26-0.1,0.52-0.16,0.8-0.2c1.67,0.47,3.59,0.1,5.21-0.38
		c2.24-0.66,4.17-1.78,5.85-3.23c2.04,1.09,4.4,1.31,6.56-0.19c0.21-0.14,0.4-0.3,0.58-0.47c1.31-0.43,2.53-1.11,3.61-2.21
		c0.11-0.11,0.63-0.7,0.99-1.16c0.15-0.02,0.31-0.05,0.5-0.09c1.1-0.2,2.08-0.62,2.98-1.21c2.48,0.29,4.93-0.78,6.06-3.32
		c0.16-0.35,0.27-0.71,0.35-1.07c0.77,0.16,1.62,0.21,2.38,0.12c0.55-0.07,1.06-0.21,1.53-0.41c1.27,0.82,2.86,0.96,4.34,0.14
		c1.49-0.82,2.74-1.87,3.79-3.09C115.72,38.68,117.64,34.57,117.06,30.85z"/>
	<path class="st0" d="M106.98,22.34c-2.06-0.61-1.63-0.21-2.88-1.94c-1.2-1.66-2.6-2.67-4.48-3.43c-0.5-0.2-1.49-0.69-1.48-0.68
		c-0.05-0.07-0.53-1.6-0.88-2.09c-1.17-1.65-2.7-2.1-4.4-3c-1.24-0.66-1.83-1.94-3.07-2.69c-1.98-1.19-3.8-0.73-5.93-0.57
		c-0.2,0.01-0.31,0.04-0.38,0.07C83.21,7.77,83,7.33,82.78,7.07c-0.55-0.63-1.13-1.24-1.85-1.69c-1.91-1.19-4.15-1.11-6.28-0.67
		c-1.99,0.42-3.92,1.24-5.7,2.22c-0.07,0.04-0.15,0.08-0.22,0.11c-0.04-0.06-0.07-0.12-0.11-0.17c-2.09-3.31-6.58-3.84-10.03-2.71
		c-2.19,0.72-3.59,1.86-5.92,1.41c-2.29-0.44-4.48-0.39-6.35,1.2c-0.36,0.31-0.76,0.78-1.04,1.18c-0.8-0.48-2.44-0.58-3.2-0.66
		c-2.68-0.31-5.04,0.31-7.48,1.37c-0.44,0.19-0.85,0.56-1.18,1c-1.45,0.04-2.91,0.03-4.37-0.08c-1.88-0.14-4-0.8-5.84-0.17
		c-2.14,0.73-3.51,2.62-3.7,4.84c-0.07,0.83-0.01,1.71,0.2,2.53c0.04,0.16,0.09,0.36,0.14,0.58c-0.14-0.02-0.29-0.03-0.43-0.05
		c-0.87-0.08-1.71-0.14-2.58-0.07c-1.92,0.14-3.82,0.61-5.51,1.56c-2.35,1.31-4.62,2.93-5.16,5.8c-2.52,1.88-2.54,5.82-0.3,8.25
		c-0.07,0.81,0.05,1.63,0.38,2.33c-0.33,1.11-0.12,2.41,0.35,3.4c1.16,2.46,3.59,2.69,5.44,4.33c2.24,1.98,4.01,3.79,6.84,4.97
		c1.86,0.78,3.81,1.26,5.8,1.55c3.29,1.92,7.23,2.4,10.77,0.43c0.12-0.07,0.23-0.15,0.34-0.22c1.81,1.08,4.73,0.68,5.94-1.36
		c0.24,0.17,0.5,0.32,0.77,0.42c1.03,0.37,2.09,0.4,3.16,0.33c1.4-0.1,1-0.09,2.04,0.53c1.06,0.64,1.7,1.55,2.96,1.91
		c2,0.58,4-0.55,5.79-0.14c2.12,0.49,3.53,2,5.88,2c2.15,0,3.39-0.92,4.69-2.15c1.57,0.02,3.08,0.22,4.71-0.37
		c1.32-0.48,2.15-1.43,3.35-2.03c0.53-0.27,0.87-0.37,1.8-0.43c2.22-0.15,4.5-0.52,6.46-1.63c0.95-0.54,1.68-1.46,2.61-1.98
		c0.81-0.45,1.46-0.36,2.43-0.45c2.32-0.2,4.56-0.79,6.65-1.83c0.9-0.45,1.78-0.96,2.54-1.63c0.28-0.24,0.53-0.5,0.77-0.78
		c0.1,0.03,0.2,0.06,0.32,0.09c1.71,0.96,4.25,0.87,5.93-0.08c1.27-0.72,1.67-1.73,2.06-2.79c0.33,0.02,0.66,0.02,0.95-0.03
		c0.83-0.15,1.63-0.41,2.35-0.86c1.77-1.09,2.92-3.02,3.27-5.03C113.98,27.2,110.87,23.5,106.98,22.34z"/>
	<path class="st1" d="M104.99,34.67c-0.13,0.89-0.64,1.69-1.62,2.23c-2.07,1.14-4.09-0.15-6.16-0.68c0.33,4.05-4.03,6.52-8,5.02
		c-0.59-0.23-1.47-0.84-2.08-0.82c-1.94,0.05-1.56,1.31-2.37,2.18c-0.66,0.72-1.18,1.27-2.11,1.64c-1.42,0.55-2.91,0.41-4.18-0.24
		c-0.97,2.3-2.73,4.37-5.55,3.72c-0.52-0.12-0.89-0.41-1.35-0.61c-1.27-0.53-1.34-0.38-2.63,0.65c-1.29,1.04-2.45,2.18-4.07,2.67
		c-1.43,0.42-2.79,0.36-4.05-0.47c-0.6-0.39-1.05-1.23-1.66-1.52c-1.75-0.84-2.6,0.48-3.87,1.13c-2.13,1.1-4.85,0.72-5.21-1.99
		c-0.15-1.07,0.59-1.32-0.55-1.25c-0.69,0.05-1.6,1.13-2.43,1.3c-1.07,0.22-2.23,0.01-2.98-0.83c-0.28-0.31-0.44-0.71-0.59-1.09
		c-0.55-1.48,0.13-1.25-0.89-0.93c-0.09,0.04-0.2,0.07-0.32,0.1c-0.02,0.01-0.05,0.01-0.08,0.02c-2,0.46-3.98,2.02-6.03,2.59
		c-1.4,0.39-4.12,1.35-5.56,0.65c-0.34-0.16-0.56-0.57-0.84-0.71c-1.58-0.77-2.41-1.12-4.09-1.35c-3.8-0.53-7.15-2.21-10.07-4.65
		c-0.36-0.3-0.42-0.74-0.3-1.13c0.04-0.12,0.09-0.24,0.16-0.35c-1.76-0.24-3.5-0.57-5.24-1.01c-1.09-0.28-1.09-1.64-0.29-2.22
		c0.67-0.48,1.33-0.96,2-1.44c-2.73-1.4-4.92-3.46-6.5-6.24c-0.27-0.47-0.19-1.08,0.19-1.47c1.88-1.93,4.07-3.23,6.63-3.9
		c-0.15-0.87-0.29-1.73-0.42-2.61c-0.13-0.78,0.32-1.52,1.17-1.53L19,19.46c0.9-0.01,1.81-0.03,2.71-0.05c0.22,0,4.21-0.07,3.02-1.1
		c-0.54-0.47-0.47-1.08-0.12-1.51c-1.6-1.46-3.89-4.25-1.56-5.6c1.32-0.77,3.98-0.1,5.5-0.05c2.47,0.08,4.94,0.16,7.41,0.25
		c0.14-0.68,0.52-1.3,1.22-1.76c1.58-1.05,3.04-0.17,4.67,0.08c2.78,0.42,2.94-1.55,4.78-2.32c0.12-0.05,0.25-0.1,0.39-0.13
		c1.26-0.35,2.19,0.78,3.26,0.96c0.23,0.04,0.46,0.04,0.71-0.03c0.19-0.05,0.36-0.16,0.53-0.28c0.7-0.53,1.23-1.53,2.17-1.75
		c0.86-0.21,1.33,0.14,2.07,0.44c0.45,0.18,0.83,0.32,1.17,0.4c0.32,0.08,0.61,0.11,0.89,0.08c0.59-0.04,1.16-0.31,1.97-0.85
		c0.61-0.41,1.28-0.89,2.01-1.08c1.1-0.29,2.17-0.12,3.07,0.6c0.17,0.14,0.31,0.29,0.43,0.45c0.05,0.08,0.11,0.16,0.16,0.24
		c0.52,0.9,0.58,2.05,1.29,2.75c1.61,1.56,6.03-1.09,7.61-1.72c1.31-0.52,3.14-1.67,4.63-1.3c1.34,0.34,1.03,1.33,1.83,2.04
		c0.72,0.64,2.19,0.03,3.12,0.95c1.03,1.01,1.12,2.24,1.8,3.13c0.28,0.38,0.67,0.7,1.28,0.92c0.17,0.06,0.36,0.12,0.57,0.16
		c2.03,0.43,6.34-1.78,7.02,1.76c0.15,0.79-0.38,1.32-0.34,2.02c0.06,1.01,0.24,0.72,1.37,0.75c1.35,0.04,2.83,0.15,3.95,1
		c1.29,0.99,1.88,2.72,1.36,4.13c0.03,0.03,0.06,0.06,0.09,0.09c0.33,0.35,0.46,0.88,0.78,1.21c1.31,1.35,1.47,0.84,2.56,1.1
		c2.03,0.5,4.21,0.61,5.49,2.53C112.43,31.78,108.54,34.67,104.99,34.67z"/>
	<path class="st2" d="M48.46,8.27c-0.72-0.21-1.38-0.59-1.93-1.09c0.12-0.05,0.25-0.1,0.39-0.13c1.27-0.36,2.21,0.78,3.29,0.97
		C49.7,8.33,49.07,8.45,48.46,8.27z"/>
	<path class="st2" d="M54.95,7.42c-1.07,0.04-2.29,0.3-3.49,0.28c0.7-0.53,1.24-1.54,2.19-1.77c0.87-0.21,1.34,0.14,2.09,0.44
		c0.45,0.18,0.83,0.32,1.18,0.4c-0.09,0-0.2,0-0.29-0.01C56.17,7.15,55.58,7.39,54.95,7.42z"/>
	<path class="st2" d="M105.11,34.69c-0.13,0.89-0.64,1.7-1.62,2.24c-2.07,1.14-4.1-0.15-6.17-0.69c0.33,4.07-4.03,6.54-8.02,5.04
		c-0.59-0.23-1.47-0.84-2.08-0.82c-1.95,0.05-1.56,1.31-2.37,2.19c-0.66,0.72-1.19,1.27-2.12,1.64c-1.42,0.55-2.91,0.41-4.18-0.24
		c-0.97,2.31-2.73,4.39-5.56,3.73c-0.52-0.12-0.89-0.41-1.35-0.61c-1.27-0.54-1.34-0.38-2.64,0.66c-1.29,1.04-2.45,2.19-4.08,2.68
		c-1.43,0.43-2.8,0.36-4.06-0.47c-0.6-0.4-1.05-1.23-1.67-1.52c-1.76-0.84-2.6,0.48-3.88,1.14c-2.13,1.1-4.86,0.72-5.22-1.99
		c-0.15-1.08,0.59-1.33-0.55-1.25c-0.69,0.05-1.61,1.14-2.43,1.31c-1.07,0.22-2.23,0.01-2.99-0.83c-0.28-0.31-0.44-0.71-0.59-1.09
		c-0.55-1.48,0.13-1.25-0.89-0.93c-0.09,0.05-0.2,0.09-0.32,0.1c-0.02,0.01-0.05,0.01-0.08,0.02c-2,0.46-3.98,2.03-6.05,2.6
		c-1.4,0.4-4.12,1.35-5.57,0.66c-0.34-0.16-0.57-0.57-0.84-0.71c-1.59-0.77-2.41-1.12-4.09-1.35c-3.81-0.54-7.16-2.21-10.09-4.67
		c-0.36-0.3-0.43-0.74-0.3-1.14c0.56-0.13,1.14-0.07,1.68,0.16c1.11-0.86,2.76-0.95,4.14,0.22c0.09,0.08,0.2,0.15,0.31,0.21
		c0.36-0.23,0.81-0.35,1.33-0.3c1.05,0.11,2.06,0.29,3.07,0.51c0.32,0.07,0.63,0.13,0.95,0.21c0.32,0.07,0.63,0.15,0.95,0.23
		c0.99,0.24,1.6,0.86,1.9,1.62c1.38-0.63,3.34-1.16,4.11-0.68c0.36-0.12,0.74-0.19,1.14-0.19c0.23,0.02,0.44,0.05,0.67,0.08
		c0.78-0.41,1.78-0.53,2.65-0.29c0.77-1.1,1.87-1.93,3.44-2.23c2.88-0.55,5.17,1.01,7.09,2.93c0.43-0.22,0.89-0.42,1.41-0.6
		c1.25-0.43,2.99,0.29,3.58,1.46c0.3,0.61,0.56,1.27,0.76,1.92c1.03-0.33,2.06-0.63,3.08-0.82c2.39-0.45,3.87,1.08,6.08,1.07
		c2.4-0.01,3.12-2.18,5.02-3.16c0.78-0.4,5.12-0.95,4.69,0.4c0.39-1.24,1.65-2.43,3.04-2.31c0.35,0.03,0.71,0.02,1.05-0.02
		c0.58-0.07,1.14-0.23,1.69-0.46c2.29-0.92,4.42-2.91,6.58-3.73c1.51-0.58,2.95-0.72,4.54-0.42c0.13,0.02,0.26,0.05,0.38,0.08h0.01
		c0.64,0.15,1.15,0.3,1.7,0.27c0.32-0.01,0.66-0.09,1.06-0.27c0.01-0.01,0.02-0.01,0.04-0.02c0.44-0.21,0.85-0.45,1.24-0.72
		c1.6-1.08,2.96-2.5,4.91-3.09c1.14-0.35,2.57-0.14,3.54-0.69c0.45-0.26,0.92-0.78,1.37-1.39c-0.23-0.17-0.46-0.32-0.73-0.42
		c0-0.01-0.01-0.01-0.01-0.01c-0.1-0.05-0.21-0.09-0.32-0.13c-0.24-0.08-0.49-0.13-0.75-0.15c-1.72-0.13-3.15,0.07-4.46-1.37
		c-1.15-1.26-1.8-3.1-2.57-4.59c-0.51-1-1.64-4.38-2.7-4.81c-0.33-0.13-1.89,0.19-2.32,0.11c-0.83-0.17-1.71-0.61-2.32-1.18
		c-0.47-0.43-0.84-1.09-1.09-1.67c-0.04-0.09-0.1-0.23-0.16-0.4c-0.09,0-0.18,0-0.27,0.01c-0.78,0.05-1.4,0.08-2.18-0.07
		c-1.31-0.26-2.48-0.87-3.28-1.96c-0.32-0.34-0.53-0.75-0.64-1.22c-0.06-0.12-0.11-0.22-0.15-0.31c-0.5,0.07-1.68,0.05-1.82,0.06
		c-2.29,0.06-4.23,0.83-6.43,1.28c-3.1,0.63-5.83-0.55-7.53-3.2c-0.54-0.84-0.87-2.34-1.58-3.12c0.26,0.4-0.91,0.25-1.44,0.3
		c-0.77,0.08-1.48,0.17-2.26,0.04c-0.62-0.11-1.17-0.3-1.65-0.55c0.59-0.04,1.16-0.31,1.98-0.85c0.61-0.41,1.28-0.89,2.01-1.09
		c1.1-0.29,2.18-0.12,3.07,0.6c0.17,0.14,0.31,0.29,0.43,0.46c0.05,0.08,0.11,0.16,0.16,0.24c0.52,0.91,0.58,2.06,1.3,2.76
		c1.62,1.56,6.05-1.09,7.63-1.73c1.31-0.52,3.14-1.68,4.64-1.3c1.34,0.34,1.03,1.34,1.83,2.05c0.72,0.64,2.19,0.03,3.13,0.95
		c1.03,1.02,1.13,2.24,1.8,3.14c0.28,0.38,0.67,0.71,1.28,0.92c0.17,0.06,0.36,0.12,0.57,0.16c2.03,0.43,6.35-1.78,7.04,1.77
		c0.15,0.8-0.38,1.33-0.34,2.03c0.06,1.01,0.24,0.72,1.37,0.75c1.36,0.04,2.83,0.15,3.95,1c1.3,1,1.88,2.72,1.36,4.15
		c0.03,0.03,0.06,0.06,0.09,0.09c0.33,0.35,0.46,0.89,0.78,1.22c1.31,1.35,1.47,0.84,2.57,1.1c2.03,0.5,4.22,0.61,5.5,2.54
		C112.56,31.79,108.67,34.69,105.11,34.69z"/>
	<path class="st3" d="M47.19,13.2c-0.06-0.21-0.22-0.34-0.4-0.41c-0.49-0.37-1.22-0.08-1.63,0.35c-0.38,0.39-0.66,0.89-0.73,1.43
		c-0.06,0.41,0.1,0.83,0.54,0.95c0.42,0.12,0.82-0.14,0.95-0.54c0.02-0.05,0.02-0.07,0.02-0.08c0.01-0.01,0.02-0.03,0.04-0.06
		c0,0,0.13-0.21,0.07-0.12c0.05-0.06,0.1-0.11,0.15-0.16c0.02-0.02,0.05-0.04,0.07-0.06c0,0,0.01-0.01,0.03-0.02
		c0.31-0.21,0.7-0.45,0.8-0.83C47.17,13.51,47.23,13.36,47.19,13.2z"/>
	<path class="st3" d="M50.62,14.66c-0.02-0.06-0.05-0.11-0.07-0.17c0-0.01-0.01-0.02-0.01-0.03c0,0,0,0.01,0,0.01c0,0,0,0,0-0.01
		c0,0,0,0.01,0,0.01l0.01,0.09c-0.01-0.09-0.02-0.18-0.04-0.27c0.01-0.05,0.01-0.12,0.01-0.13c0.07-0.64-0.63-1.12-1.2-1.04
		c-0.65,0.09-1.02,0.7-0.88,1.33c0.15,0.71,0.96,1.54,1.74,1.18C50.56,15.45,50.73,15.05,50.62,14.66z"/>
	<path class="st3" d="M52.29,17.33c-1.17,0-1.18,1.82,0,1.82C53.47,19.15,53.47,17.33,52.29,17.33z"/>
	<path class="st3" d="M50.25,24.39c-1.03,0-1.03,1.59,0,1.59C51.28,25.98,51.28,24.39,50.25,24.39z"/>
	<path class="st3" d="M37.8,25.1c-0.64,0-0.64,0.99,0,0.99C38.43,26.09,38.43,25.1,37.8,25.1z"/>
	<path class="st3" d="M33.71,20.15c-0.43,0-0.43,0.67,0,0.67C34.15,20.82,34.15,20.15,33.71,20.15z"/>
	<path class="st3" d="M35.75,14.14c-0.55,0-0.55,0.85,0,0.85C36.3,14.99,36.3,14.14,35.75,14.14z"/>
	<path class="st3" d="M28.77,15.3c0.07,0.21,0.12,0.39,0.32,0.51c0.08,0.05,0.19,0.05,0.27,0c0.19-0.12,0.24-0.31,0.32-0.51
		C29.93,14.55,28.5,14.55,28.77,15.3z"/>
	<path class="st3" d="M29.83,21.82c-1.17,0-1.18,1.82,0,1.82C31,23.65,31.01,21.82,29.83,21.82z"/>
	<path class="st3" d="M25.54,24.48c-1.17,0-1.18,1.82,0,1.82C26.72,26.3,26.72,24.48,25.54,24.48z"/>
	<path class="st3" d="M19.21,23.54c-1.06,0-1.06,1.65,0,1.65C20.27,25.19,20.28,23.54,19.21,23.54z"/>
	<path class="st3" d="M12.88,25.1c-0.37,0-0.37,0.57,0,0.57C13.25,25.68,13.25,25.1,12.88,25.1z"/>
	<path class="st3" d="M16.56,33.53c-0.04,0-0.04,0.06,0,0.06C16.6,33.59,16.6,33.53,16.56,33.53z"/>
	<path class="st3" d="M24.32,33.46c-1.17,0-1.18,1.82,0,1.82C25.49,35.29,25.49,33.46,24.32,33.46z"/>
	<path class="st3" d="M30.24,32.91c-0.04,0-0.04,0.06,0,0.06C30.28,32.98,30.28,32.91,30.24,32.91z"/>
	<path class="st3" d="M33.51,36.39c-0.04,0-0.04,0.06,0,0.06C33.55,36.45,33.55,36.39,33.51,36.39z"/>
	<path class="st3" d="M35.96,28.36c-0.65,0-0.65,1.01,0,1.01C36.6,29.36,36.61,28.36,35.96,28.36z"/>
	<path class="st3" d="M40.04,26.31c-1.17,0-1.18,1.82,0,1.82C41.22,28.14,41.22,26.31,40.04,26.31z"/>
	<path class="st3" d="M44.13,33.87c-1.17,0-1.18,1.82,0,1.82C45.3,35.69,45.3,33.87,44.13,33.87z"/>
	<path class="st3" d="M50.54,37.86c-0.02-0.11-0.04-0.22-0.07-0.33c-0.06-0.3-0.42-0.38-0.65-0.27c-0.12,0.06-0.23,0.11-0.35,0.17
		c-0.54,0.26-0.42,1.08,0.09,1.29C50.14,38.94,50.66,38.43,50.54,37.86z"/>
	<path class="st3" d="M54.74,31.83c-1.17,0-1.18,1.82,0,1.82C55.92,33.65,55.92,31.83,54.74,31.83z"/>
	<path class="st3" d="M59.85,24.89c-1.17,0-1.18,1.82,0,1.82C61.02,26.71,61.03,24.89,59.85,24.89z"/>
	<path class="st3" d="M62.1,25.63c-1.01,0-1.01,1.57,0,1.57C63.1,27.19,63.11,25.63,62.1,25.63z"/>
	<path class="st3" d="M60.24,12c-0.11-0.3-0.45-0.4-0.7-0.18c-0.27,0.23-0.35,0.63-0.48,0.95c-0.13,0.33,0.17,0.69,0.49,0.73
		c0.38,0.05,0.62-0.23,0.67-0.58C60.26,12.63,60.35,12.3,60.24,12z"/>
	<path class="st3" d="M65.98,9.18c-0.1,0-0.1,0.16,0,0.16C66.08,9.33,66.08,9.18,65.98,9.18z"/>
	<path class="st3" d="M75.78,16.96c-1.13,0-1.13,1.75,0,1.75C76.91,18.71,76.91,16.96,75.78,16.96z"/>
	<path class="st3" d="M78.36,24.08c-0.14,0.14-0.2,0.27-0.25,0.46c-0.03,0.13,0.14,0.26,0.24,0.14c0.14-0.17,0.21-0.29,0.23-0.51
		C78.6,24.06,78.44,24.01,78.36,24.08z"/>
	<path class="st3" d="M80.48,17.77c-0.34,0-0.34,0.53,0,0.53C80.82,18.3,80.82,17.77,80.48,17.77z"/>
	<path class="st3" d="M83.74,18.82c-0.04,0-0.04,0.06,0,0.06C83.78,18.88,83.78,18.82,83.74,18.82z"/>
	<path class="st3" d="M87.62,24.27c-1.17,0-1.18,1.82,0,1.82C88.8,26.1,88.8,24.27,87.62,24.27z"/>
	<circle class="st3" cx="92.73" cy="31.31" r="0.89"/>
	<path class="st3" d="M75.37,31.6c-0.49,0-0.96,0.43-0.94,0.94c0.02,0.51,0.41,0.94,0.94,0.94c0.49,0,0.96-0.43,0.94-0.94
		C76.29,32.03,75.9,31.6,75.37,31.6z"/>
	<path class="st3" d="M68.22,38.34c-0.68,0-0.68,1.06,0,1.06C68.91,39.4,68.91,38.34,68.22,38.34z"/>
	<path class="st3" d="M68.63,25.71c-0.37,0-0.37,0.57,0,0.57C69,26.29,69,25.71,68.63,25.71z"/>
	<path class="st3" d="M69.65,23.11c-0.04,0-0.04,0.06,0,0.06C69.69,23.17,69.69,23.11,69.65,23.11z"/>
	<path class="st3" d="M68.84,11.88c-0.04,0-0.04,0.06,0,0.06C68.87,11.94,68.88,11.88,68.84,11.88z"/>
	<path class="st3" d="M65.52,6.2c-0.12-0.02-0.18-0.14-0.16-0.25C65.41,6.04,65.47,6.12,65.52,6.2z"/>
	<path class="st3" d="M69.3,11.03c-0.18-0.2-0.42-0.19-0.67-0.22c-0.63-0.08-0.63,1.06,0,0.98c0.25-0.03,0.49-0.02,0.67-0.22
		C69.44,11.41,69.45,11.19,69.3,11.03z"/>
	<path class="st3" d="M81.1,10.42c-0.2-0.07-0.41-0.08-0.62-0.1c-0.74-0.09-0.74,1.23,0,1.15c0.21-0.02,0.42-0.03,0.62-0.1
		C81.56,11.19,81.56,10.59,81.1,10.42z"/>
	<path class="st3" d="M87.28,13.05c-0.04,0.41-0.34,0.8-0.88,0.8c-1.02,0-1.15-1.36-0.42-1.73C86.27,12.5,86.66,12.83,87.28,13.05z"
		/>
	<path class="st3" d="M89.05,15.49c-1.17,0-1.18,1.82,0,1.82C90.23,17.32,90.23,15.49,89.05,15.49z"/>
	<path class="st3" d="M94.16,18.41c-0.04,0-0.04,0.06,0,0.06C94.2,18.48,94.2,18.41,94.16,18.41z"/>
	<path class="st3" d="M97.02,22.03c-0.38,0-0.38,0.59,0,0.59C97.4,22.62,97.4,22.03,97.02,22.03z"/>
	<path class="st3" d="M102.75,26.44c-0.12-0.47-0.74-0.62-1.08-0.29c-0.34,0.34-0.19,0.96,0.29,1.08c0.18,0.05,0.31,0.12,0.5,0.12
		c0.23,0,0.42-0.19,0.42-0.42C102.87,26.75,102.79,26.62,102.75,26.44z"/>
	<path class="st3" d="M103.76,29.8c-0.63,0-0.63,0.98,0,0.98C104.38,30.78,104.39,29.8,103.76,29.8z"/>
	<path class="st3" d="M99.5,35.04c-0.3-0.13-0.58,0-0.76,0.25c-0.01,0.01-0.02,0.03-0.03,0.04c-0.1,0.14-0.1,0.4,0,0.53
		c0.01,0.01,0.02,0.03,0.03,0.04c0.16,0.22,0.4,0.36,0.69,0.28c0.26-0.07,0.45-0.32,0.45-0.59C99.87,35.35,99.72,35.14,99.5,35.04z"
		/>
	<path class="st3" d="M94.57,35.5c-1.17,0-1.18,1.82,0,1.82C95.74,37.33,95.74,35.5,94.57,35.5z"/>
	<path class="st3" d="M91.71,35.71c-1.17,0-1.18,1.82,0,1.82C92.88,37.53,92.88,35.71,91.71,35.71z"/>
	<path class="st3" d="M88.44,39.45c-0.04,0-0.04,0.06,0,0.06C88.48,39.51,88.48,39.45,88.44,39.45z"/>
	<path class="st3" d="M83.95,39.24c-0.04,0-0.04,0.06,0,0.06C83.99,39.31,83.99,39.24,83.95,39.24z"/>
	<path class="st3" d="M78.43,39.79c-1.17,0-1.18,1.82,0,1.82C79.61,41.62,79.61,39.79,78.43,39.79z"/>
	<path class="st3" d="M77,43.01c-0.44,0-0.44,0.69,0,0.69C77.45,43.7,77.45,43.01,77,43.01z"/>
	<path class="st3" d="M74.55,44.55c-0.04,0-0.04,0.06,0,0.06C74.59,44.62,74.59,44.55,74.55,44.55z"/>
	<path class="st3" d="M71.9,45.98c-0.04,0-0.04,0.06,0,0.06C71.94,46.04,71.94,45.98,71.9,45.98z"/>
	<path class="st3" d="M82,40.58c-0.03-0.01-0.05-0.02-0.08-0.04c-0.28-0.13-0.64,0.02-0.64,0.37c0,0.35,0.35,0.49,0.64,0.37
		c0.03-0.01,0.05-0.02,0.08-0.04C82.25,41.13,82.25,40.69,82,40.58z"/>
	<path class="st3" d="M85.17,38.81c-0.86,0-0.86,1.34,0,1.34C86.03,40.15,86.03,38.81,85.17,38.81z"/>
	<path class="st3" d="M62.5,47.17c-0.62,0-0.62,0.96,0,0.96C63.12,48.13,63.13,47.17,62.5,47.17z"/>
	<path class="st3" d="M55.56,46.82c-0.55,0-0.55,0.85,0,0.85C56.11,47.66,56.11,46.82,55.56,46.82z"/>
	<path class="st3" d="M49.44,45.04c-0.47,0-0.47,0.73,0,0.73C49.91,45.77,49.91,45.04,49.44,45.04z"/>
	<path class="st3" d="M46.58,44.15c-0.04,0-0.04,0.06,0,0.06C46.62,44.21,46.62,44.15,46.58,44.15z"/>
	<path class="st3" d="M42.5,44.98c-0.09,0.06-0.2,0.09-0.32,0.1c-0.03,0.01-0.06,0.01-0.1,0.01c-1.18,0-1.17-1.83,0-1.83
		C43.09,43.26,43.23,44.61,42.5,44.98z"/>
	<path class="st3" d="M35.34,45.98c-0.04,0-0.04,0.06,0,0.06C35.38,46.04,35.38,45.98,35.34,45.98z"/>
	<path class="st3" d="M30.24,43.89c-0.07,0-0.14,0.01-0.2,0.01c-0.08,0.01-0.08,0.12,0,0.13c0.07,0,0.14,0.01,0.2,0.01
		C30.34,44.06,30.34,43.89,30.24,43.89z"/>
	<path class="st3" d="M25.54,42.92c-0.04,0-0.04,0.06,0,0.06C25.58,42.98,25.58,42.92,25.54,42.92z"/>
	<path class="st3" d="M22.28,41.78c-0.19,0-0.19,0.3,0,0.3C22.47,42.08,22.47,41.78,22.28,41.78z"/>
	<path class="st3" d="M20.44,41.9c-0.04,0-0.04,0.06,0,0.06C20.48,41.96,20.48,41.9,20.44,41.9z"/>
	<path class="st3" d="M25.95,41.18c-0.97,0-0.97,1.51,0,1.51C26.92,42.68,26.92,41.18,25.95,41.18z"/>
	<path class="st3" d="M29.13,43.51c-0.16,0-0.32,0.03-0.47,0.07c-0.41,0.09-0.58,0.6-0.38,0.94c0.21,0.37,0.7,0.4,1,0.13
		c0.12-0.11,0.22-0.21,0.31-0.34C29.83,43.98,29.5,43.51,29.13,43.51z"/>
	<path class="st3" d="M30.36,37.93c-0.02-0.02-0.04-0.03-0.06-0.05c-0.3-0.25-0.64-0.25-0.94,0c-0.02,0.02-0.04,0.03-0.06,0.05
		c-0.53,0.42-0.07,1.27,0.53,1.27C30.43,39.2,30.88,38.35,30.36,37.93z"/>
	<path class="st3" d="M15.54,32.67c-0.88,0-0.88,1.36,0,1.36C16.41,34.03,16.42,32.67,15.54,32.67z"/>
	<path class="st3" d="M8.8,28.73c-0.69,0-0.69,1.08,0,1.08C9.49,29.81,9.49,28.73,8.8,28.73z"/>
	<path class="st3" d="M60.26,35.53c-0.62,0-0.62,0.96,0,0.96C60.88,36.49,60.88,35.53,60.26,35.53z"/>
	<path class="st3" d="M62.3,43.24c-0.67,0-0.68,1.05,0,1.05C62.98,44.29,62.98,43.24,62.3,43.24z"/>
	<path class="st3" d="M81.91,29.44c-0.57,0-0.57,0.89,0,0.89C82.48,30.33,82.48,29.44,81.91,29.44z"/>
	<path class="st3" d="M68.61,17.55c-0.13-0.08-0.26-0.14-0.4-0.2c-0.44-0.16-0.9,0.25-0.9,0.69c0,0.44,0.46,0.84,0.9,0.69
		c0.15-0.05,0.27-0.11,0.4-0.19C68.98,18.3,68.98,17.78,68.61,17.55z"/>
	<path class="st4" d="M104.8,25.41c-1.1-0.27-1.27,0.25-2.58-1.11c-0.32-0.34-0.45-0.88-0.78-1.23c-0.03-0.03-0.06-0.06-0.09-0.09
		c0.52-1.44-0.07-3.18-1.37-4.18c-1.13-0.86-2.62-0.97-3.98-1.01c-1.14-0.03-1.32,0.25-1.38-0.76c-0.04-0.7,0.5-1.23,0.34-2.04
		c-0.69-3.58-5.04-1.35-7.09-1.78c-2.73-0.58-2.07-2.67-3.68-4.25c-0.95-0.93-2.42-0.32-3.15-0.96c-0.8-0.71-0.5-1.72-1.84-2.06
		c-1.51-0.38-3.36,0.78-4.68,1.31c-1.59,0.63-6.05,3.32-7.68,1.74c-0.93-0.9-0.76-2.57-1.9-3.48c-0.9-0.72-1.99-0.9-3.1-0.6
		c-0.73,0.19-1.41,0.69-2.02,1.09c-1.65,1.1-2.33,1.09-4.07,0.38c-0.74-0.3-1.22-0.65-2.09-0.44c-1.17,0.28-1.72,1.77-2.72,2.06
		c-1.4,0.41-2.47-1.37-4-0.94c-2.24,0.63-2.23,2.93-5.22,2.48c-1.65-0.25-3.12-1.15-4.71-0.09c-0.71,0.47-1.09,1.09-1.23,1.78
		c-2.49-0.08-4.99-0.17-7.48-0.25c-1.53-0.05-4.21-0.72-5.55,0.05c-2.35,1.36-0.04,4.19,1.58,5.66c-0.35,0.43-0.42,1.05,0.12,1.53
		c1.27,1.1-3.29,1.12-3.05,1.12c-0.91,0.02-1.82,0.03-2.73,0.05l-6.01,0.11c-0.86,0.02-1.31,0.77-1.18,1.55
		c0.14,0.88,0.29,1.76,0.43,2.63c-2.58,0.67-4.79,1.98-6.69,3.94C4.81,28,4.73,28.61,5,29.09c1.59,2.8,3.8,4.89,6.56,6.3
		c-0.67,0.48-1.34,0.97-2.02,1.45c-0.81,0.58-0.8,1.96,0.29,2.24c1.76,0.45,3.51,0.78,5.29,1.02c-0.3,0.47-0.35,1.1,0.14,1.51
		c2.95,2.47,6.33,4.16,10.16,4.69c1.69,0.24,2.52,0.59,4.12,1.36c0.28,0.14,0.51,0.55,0.85,0.71c1.45,0.7,4.19-0.26,5.61-0.66
		c2.07-0.58,4.07-2.16,6.08-2.62c1.61-0.37,0.69-0.83,1.31,0.82c0.15,0.39,0.32,0.79,0.59,1.1c0.76,0.85,1.93,1.06,3.01,0.84
		c0.83-0.17,1.76-1.27,2.45-1.32c1.15-0.08,0.4,0.18,0.55,1.26c0.37,2.73,3.11,3.11,5.26,2.01c1.29-0.66,2.14-1.99,3.91-1.15
		c0.61,0.29,1.07,1.14,1.67,1.53c1.27,0.83,2.65,0.91,4.09,0.47c1.64-0.49,2.81-1.65,4.11-2.7c1.3-1.05,1.38-1.2,2.66-0.66
		c0.46,0.19,0.83,0.49,1.36,0.61c2.85,0.66,4.63-1.44,5.6-3.76c1.28,0.66,2.78,0.8,4.21,0.24c0.94-0.37,1.47-0.93,2.13-1.65
		c0.82-0.88,0.43-2.15,2.39-2.21c0.61-0.02,1.5,0.6,2.1,0.83c4.01,1.52,8.41-0.97,8.07-5.07c2.08,0.54,4.12,1.84,6.22,0.69
		c0.98-0.54,1.5-1.35,1.63-2.25c3.59,0,7.51-2.92,4.93-6.78C109.05,26.02,106.84,25.9,104.8,25.41z M106.92,30.75
		c-0.37,1.69-1.22,2.15-2.54,1.39c-1.13-0.34-1.78,0.89-1.38,1.8c0.87,2.01-4.27,0.1-4.53,0.02c-0.87-0.26-1.59-0.35-2.49-0.32
		c-0.73,0.02-1.48,0.78-1.18,1.55c0.62,1.6,0.21,3.58-1.68,4.21c-1.1,0.36-2.25-0.13-3.24-0.51c-1.19-0.46-2.38-1.08-3.7-0.82
		c-0.94,0.19-1.5,0.67-2.11,1.38c-0.53,0.62-0.62,1.56-1.22,2.13c-1.15,1.1-2.92,0.81-3.94-0.26c-0.63-0.67-1.82-0.33-2.05,0.54
		c-0.33,1.26-1.02,3.93-2.91,3.73c-1.19-0.13-1-0.93-1.85-1.24c-0.72-0.26-1.21-0.2-1.92,0.01c-1.22,0.36-2.22,1.4-3.19,2.17
		c-0.87,0.69-1.92,1.79-3.11,1.92c-1.87,0.21-2.38-1.19-3.56-1.98c-0.82-0.56-1.68-0.82-2.69-0.66c-1.59,0.25-2.66,2.02-4.22,1.46
		c-1.61-0.59-0.38-1.36-1.17-2.65c-0.43-0.69-1.25-1.05-2.04-1.01c-1.48,0.08-2.15,1.56-3.65,1.18c-1.58-0.39-0.74-1.43-1.83-2.38
		c-1.99-1.75-5.6,1.62-7.36,2.29c-1.59,0.61-4.67,1.83-6.2,0.88c-1.02-0.63-1.38-1.19-2.69-1.45c-1.82-0.36-3.67-0.31-5.47-0.88
		c-1.76-0.56-3.36-1.4-4.83-2.47c0.24-0.17,0.48-0.34,0.71-0.51c0.99-0.71,0.64-2.19-0.62-2.28c-1.75-0.12-3.47-0.36-5.17-0.7
		c0.51-0.37,1.02-0.73,1.53-1.1c0.87-0.63,0.74-1.87-0.29-2.24c-2.85-1.02-5.08-2.82-6.71-5.29c1.72-1.54,3.61-2.44,5.97-2.87
		c0.7-0.13,0.95-0.9,0.86-1.51c-0.13-0.79-0.26-1.58-0.39-2.38c2.07-0.04,4.15-0.08,6.22-0.11c1.53-0.03,3.44,0.21,4.86-0.47
		c1.74-0.82,2.6-2.9,1.42-4.41c0.29-0.53,0.28-1.28-0.32-1.75c-0.7-0.49-1.25-1.11-1.67-1.84c0.11,0,0.23-0.01,0.36-0.01
		c1.27,0.16,2.61,0.09,3.89,0.13c2.73,0.09,5.46,0.18,8.18,0.27c0.81,0.03,1.37-0.8,1.18-1.55c-0.34-1.33,4.01,0.05,4.41,0.09
		c0.46,0.05,0.96,0.08,1.42-0.03c0.71-0.16,1.27-0.5,1.81-0.97c0.42-0.36,0.94-1.46,1.42-1.59c1.06-0.28,2.17,1.31,3.46,1.12
		c1.34-0.2,1.72-1.45,2.82-1.91c1.46-0.61,0.31-0.24,1.41,0.28c0.56,0.26,0.96,0.65,1.59,0.76c1.57,0.29,2.94-0.67,4.14-1.53
		c0.42-0.3,0.85-0.59,1.27-0.89c1.24-0.35,1.94,0.04,2.1,1.15c0.37,0.53,0.45,1.28,0.84,1.84c0.73,1.06,1.69,1.55,2.98,1.59
		c1.95,0.06,3.93-1.14,5.7-1.84c0.78-0.31,3.48-1.91,4.25-1.69c1.45,0.4,0.37,0.51,1.16,1.28c1.2,1.18,1.63,0.37,2.95,0.88
		c1.2,0.46,1.8,3,2.84,3.95c1.06,0.98,2.4,1.6,3.87,1.49c0.7-0.05,1.51-0.64,2.16-0.62c2.65,0.08,1.16,0.83,1.08,2.09
		c-0.07,1.11,0.32,1.94,1.4,2.41c0.89,0.38,8.09,0.36,5.39,2.58c-0.89,0.73-0.09,2.03,0.87,2.09c0.38,0.03,0.88,1.39,1.14,1.68
		c0.57,0.64,1.16,0.96,1.99,1.18c0.99,0.26,2.05,0.22,3.05,0.48c0.6,0.16,1.27,0.22,1.76,0.65
		C108.61,29.05,108.44,29.74,106.92,30.75z"/>
</g>
</svg>
