<?xml version="1.0" encoding="utf-8"?>
<!-- Generator: Adobe Illustrator 25.2.3, SVG Export Plug-In . SVG Version: 6.00 Build 0)  -->
<svg version="1.1" id="Layer_1" xmlns="http://www.w3.org/2000/svg" xmlns:xlink="http://www.w3.org/1999/xlink" x="0px" y="0px"
	 viewBox="0 0 208.91 156.39" style="enable-background:new 0 0 208.91 159.39;" xml:space="preserve">
<style type="text/css">
	.st0{fill:#D6AD29;}
	.st1{fill:#B79D1D;}
	.st2{fill:#A5B508;}
	.st3{fill:#557507;}
	.st4{fill:#C6A028;}
	.st5{fill:#E2BD23;}
</style>
<g>
	<path class="st0" d="M0,139.58L0,70.6c1.01-0.03,2.01-0.07,2.97-0.12c5.2-0.31,10.24-0.94,15.3-2.19
		c7.23-1.77,14.65-4.15,21.68-7.06c0.11-0.87,0.51-1.69,1.3-2.32c2.7-2.13,5.27-4.41,7.69-6.84c1.08-1.07,2.13-2.19,3.14-3.33
		c2.28-2.55,4.39-5.25,6.31-8.09c0.69-1.02,1.35-2.06,1.97-3.1c0.9-1.49,1.74-3,2.53-4.53c0.42-0.81,0.82-1.62,1.21-2.44
		c0.27-0.57,0.54-1.14,0.8-1.72c1.8-3.93,3.35-7.98,4.83-12.09C69.98,11.18,70.1,5.59,70.05,0l68.11,0
		c0.09,1.19,0.14,2.37,0.33,3.44c0.73,4.07,2.19,8.01,3.8,11.81c2.92,6.86,6.35,13.59,7.99,20.88c2.05,1.17,3.3,3.26,4.56,5.27
		c0.63,1.01,1.29,2,1.98,2.97c2.6,3.68,5.62,7.05,9.21,9.81c4.81,3.69,10.31,6.56,15.61,9.46c5.17,2.84,10.59,5.33,16.54,5.75
		c0.91,0.06,1.65,0.33,2.27,0.74c2.81,0.18,5.62,0.29,8.44,0.32v69.23c-0.29,0.09-0.59,0.15-0.88,0.23
		c-0.24-0.2-0.56-0.34-0.96-0.34H0z"/>
	<path class="st1" d="M135.39,0l9.71,0c-0.28,1.92-0.83,3.8,0.51,5.4c1.01,1.21,1.21,1.47,0.88,2.82c0,0.01-0.01,0.01-0.01,0.01
		c-0.04,0.15-0.08,0.32-0.13,0.51c-0.25,0.87-0.36,1.46-0.23,2.1c0,0,0,0.01,0,0.01c0.07,0.32,0.19,0.64,0.38,1.04
		c0.27,0.54,0.74,0.97,0.99,1.53c0.48,1.05,0.55,2.16,0.51,3.3c-0.04,1.27-0.34,2.34-0.06,3.33c-0.01,0.01-0.01,0.01,0,0.01
		c0.06,0.17,0.12,0.32,0.2,0.48c0.01,0.02,0.02,0.04,0.02,0.06c0.15,0.29,0.37,0.56,0.67,0.85c0.81,0.77,2.31,1.08,2.98,1.98
		c1.55,2.07-1.48,4.7-0.06,6.94c0.06,0.08,0.12,0.16,0.18,0.24c0.39,0.45,0.96,0.73,1.56,0.97c0.7,0.29,1.45,0.54,2,0.99
		c0.6,0.49,1.02,1.1,1.35,1.79c0.02,0.03,0.03,0.07,0.05,0.1c0.67,1.42,0.74,3.04,1.43,4.45c0.6,1.21,1.3,2.45,1.97,3.63
		c0.59,1.04,1.38,1.97,2.29,2.85c0.74,0.73,1.56,1.42,2.38,2.09c0.62,0.51,1.25,1.01,1.85,1.51c0,0.01,0.01,0.01,0.01,0.01
		c0.02,0.01,0.04,0.03,0.06,0.04c0.1,0.04,0.2,0.09,0.3,0.13c0.01,0.01,0.01,0.01,0.02,0.01c1.55,0.77,2.65,1.86,3.98,3.05
		c0.54,0.48,1.1,0.89,1.68,1.26c1.75,1.1,3.66,1.84,5.42,3.03c0.36,0.25,0.7,0.54,1.03,0.85c0,0.01,0,0.01,0.01,0.01
		c0.68,0.64,1.32,1.32,2.1,1.78c1.39,0.82,3.02,0.78,4.56,0.97c0.09,0.01,0.18,0.02,0.26,0.04c0.01,0,0.01,0,0.01,0
		c1.55,0.22,2.87,0.7,4.21,1.42c0.01,0.01,0.01,0.01,0.01,0.01c0.21,0.12,0.42,0.23,0.64,0.36c1.03,0.59,2.05,1.3,3.2,1.62
		c1.53,0.42,3.04,0.04,4.59,0.16c1.16,0.09,2.22,0.46,3.34,0.68c0.96,0.19,1.8,0.18,2.62,0.11c0.01,0,0.01,0,0.01,0
		c0.79-0.06,1.56-0.18,2.43-0.21c0.62-0.03,1.12-0.18,1.53,0.01c0.03,0.01,0.06-0.02,0.09,0v7.96c-0.98,0.09-1.98,2.13-2.9,1.78
		c-0.51-0.19-1.01-0.77-1.48-0.91c-0.89-0.27-1.34,0.18-2.33,0.32c-0.86,0.12-1.79-0.04-2.49-0.58c-0.5-0.4-0.75-1.37-1.34-1.51
		c-0.44-0.11-1.35,0.46-1.8,0.52c-1.42,0.2-1.66-0.43-2.79-0.97c-1.14-0.55-2.44,0.15-3.75-0.18c-0.91-0.23-1.35-0.7-2.1-1.19
		c-1.13-0.74-1.72-0.91-3.13-0.81c-1.39,0.09-2.46,0.09-3.68-0.76c-1.95-1.37-1.23-3.23-4.22-3.3c-1.79-0.04-3.09,0.89-4.83-0.04
		c-2.93-1.56-2.63-5.65-6.08-6.55c-1.5-0.39-2.92-0.24-4.03-1.53c-0.29-0.34-0.41-0.76-0.65-1.12c-0.23-1-0.89-1.69-1.98-2.08
		c-0.31-0.04-0.61-0.08-0.92-0.12c-0.58-0.28-1.1-0.59-1.57-0.94c-0.1-0.07-0.19-0.15-0.28-0.23c-1.34-1.1-2.07-2.56-1.78-4.52
		c-0.09-0.21-0.13-0.46-0.07-0.74c0.19-1.02-2.55-3.28-3.24-3.68c-0.85-0.5-1.87-0.64-2.66-1.23c-1.07-0.79-1.62-1.93-1.82-3.22
		c-0.21-1.38,0.42-2.6-0.59-3.85c-0.38-0.47-1.07-0.77-1.53-1.18c-1.02-0.88-1.7-1.76-1.75-3.14c-0.02-0.75,0.47-1.54,0.41-2.22
		c-0.14-1.63-1.21-1.5-2.16-2.38c-1.15-1.07-1.68-2.54-1.65-4.09c0.03-2.41,2.11-4.83,0.27-7.04c-1.17-1.42-2.85-1.8-3.75-3.55
		c-0.19-0.36-0.26-0.88,0-1.24c2.09-2.83-0.7-3.77-1.51-6.19C134.3,2.57,135.27,1.28,135.39,0z"/>
	<path class="st1" d="M0,72.9l0-9.19c0.72,0.32,1.61,1.75,2.52,1.98c0.02,0.01,0.06,0.02,0.09,0.02h0.01
		c0.83,0.21,1.67,0.33,2.41,0.28c0.02-0.02,0.04-0.05,0.06-0.07c0.29-0.34,0.8-0.42,1.23-0.29c1.37-0.7,2.35-2.11,3.82-2.75
		c1.64-0.71,1.87-0.1,3.12,0.47c0,0,0,0,0.01,0c0.07,0.02,0.14,0.06,0.21,0.09c0.19,0.52,0.49,0.6,0.9,0.24
		c0.35-0.06,0.63-0.23,0.85-0.51c0.45-0.29,0.81-0.73,1.29-1c0.14-0.09,0.28-0.15,0.42-0.21c0.72-0.34,1.48-0.45,2.27-0.62
		c0.24-0.06,0.44-0.12,0.63-0.21c0.01-0.01,0.01-0.01,0.01-0.01c0.55-0.24,0.93-0.59,1.54-0.78c0.37-0.12,0.75-0.19,1.11-0.25
		c0.01,0,0.01,0,0.02-0.01h0.02c0.44-0.08,0.86-0.15,1.26-0.29c0.01,0,0.01,0,0.02-0.01c0.5-0.17,0.94-0.47,1.32-1.05
		c0.08-0.24,0.25-0.47,0.53-0.63c2.02-1.19,3.97-0.61,6.08-1.29c1.5-0.48,1.87-1.68,2.63-2.6c0.28-0.34,0.61-0.64,1.07-0.85
		c0.55-0.26,0.98-0.26,1.37-0.25c0.17,0.01,0.34,0.02,0.5,0.02c0.03-0.04,0.06-0.09,0.09-0.13c0.56-0.72,1.13-1.23,1.83-1.76
		c-0.01-0.1-0.01-0.19-0.01-0.29v-0.01c0.01-0.1,0.04-0.2,0.12-0.29c0.69-0.87,1.44-1.02,2.34-1c0.1-0.15,0.2-0.31,0.28-0.47
		c0.33-0.7,0.2-1.36,0.78-2c1.04-1.12,2.51-0.82,3.83-0.97h0.01c0.01,0,0.01,0,0.01,0c0.81-0.1,1.57-0.36,2.13-1.23
		c0.18-0.27,0.31-0.57,0.39-0.88c0.01-0.02,0.02-0.05,0.02-0.07c0.18-0.62,0.23-1.3,0.3-1.98c0,0,0-0.01,0-0.01
		c0-0.01,0-0.01,0-0.01c0.12-1.15,0.32-2.26,1.32-2.99c0.59-0.42,1.19-0.34,1.81-0.59c1.09-0.42,0.6,0.07,0.95-0.8v-0.01
		c0.03-0.06,0.06-0.12,0.09-0.19c0.49-1.08,1.15-1.84,1.58-2.73c0.31-0.63,0.28-1.23,0.8-1.81c0.26-0.29,0.65-0.44,0.95-0.66
		c0.07-0.05,0.14-0.1,0.2-0.17c0.65-0.67,1.04-1.56,1.15-2.54c0.17-1.51,0.13-1.61,1.19-2.57c0.01-0.01,0.01-0.01,0.01-0.01
		c0.07-0.06,0.13-0.11,0.2-0.18c0.18-0.16,0.36-0.26,0.53-0.32c0.54-0.22,0.92-0.17,0.72-1.35c0,0,0-0.01,0-0.01
		c-0.01-0.07-0.03-0.17-0.05-0.25c-0.09-0.44-0.59-0.93-0.79-1.34c-0.18-0.39-0.29-0.75-0.37-1.13c-0.39-0.34-0.55-0.88-0.16-1.42
		c0.04-0.07,0.09-0.13,0.15-0.19c1.24-1.64,2.81-2.24,3.74-3.86c0.04-0.07,0.09-0.13,0.12-0.21c0.21-0.39,0.37-0.83,0.5-1.35
		c0.21-0.88,0.42-1.75,0.64-2.62v-0.01c0-0.01,0-0.02,0.01-0.02l0.09-0.33c0-0.01,0-0.01,0.01-0.02c0.2-0.77,0.4-1.53,0.63-2.29
		c-0.06-0.03-0.12-0.07-0.17-0.11c-0.62-0.41-1.04-1.02-1.18-1.94c-0.03-0.18-0.04-0.34-0.04-0.5c0-0.01,0-0.01,0-0.01
		c0.01-0.55,0.19-1.02,0.31-1.61c0.15-0.71,0.24-1.3,0.29-1.88c0-0.01,0-0.01,0-0.01c0.05-0.61,0.05-1.24,0.01-2.02
		C64.63,1.31,64.62,0.61,64.82,0l9.31,0c0.14,1.41,1.04,2.82,0.81,4.14c-0.15,0.85-0.56,0.96-0.36,1.8
		c0.09,0.36,0.62,0.75,0.78,1.12c0.58,1.34-0.1,1.65-0.5,2.77c-0.29,0.81-0.07,3.33-0.67,4.19c-0.26,0.37-0.74,0.47-1.07,0.74
		c-1.04,0-1.53,0.67-1.48,2.01c0.05,0.17,0.08,0.34,0.09,0.53c0.02,0.03,0.04,0.07,0.06,0.1c0.1,0.15,0.19,0.29,0.28,0.45
		c0.36,1,1.36,1.89,0.81,3.03c-0.2,0.41-0.65,0.56-0.89,0.86c-0.76,0.92-0.93,1.32-0.93,1.67c0,0.35,0.18,0.66,0.12,1.4
		c-0.13,1.69-0.91,2.07-1.92,3.3c0.01,0.35-0.11,0.7-0.41,0.98c-0.04,0.03-0.08,0.07-0.13,0.1c-1.44,1.04-1.38,2.87-1.51,4.54
		c-0.03,0.5-0.09,0.97-0.2,1.42c-0.23,0.86-0.56,1.54-1.05,2.16c-0.26,0.34-0.57,0.64-0.93,0.96c-0.38,0.32-1.23,0.67-1.68,1.04
		c-0.1,0.08-0.18,0.17-0.23,0.25c-0.4,0.74,0.27,2.13,0.15,2.93c-0.13,0.94-0.52,1.59-1.23,2.22c-1.34,1.19-3.19,0.99-3.79,2.99
		c-0.36,1.18,0.07,2.24-0.79,3.29c-0.93,1.13-1.82,0.67-2.98,1.05c-2.54,0.83-2.55,2.92-3.55,4.94c-1.43,2.89-3.61,2.81-6.44,3.31
		c-2.17,0.39-4.23,1.37-5.88,2.85c-1.14,1.02-1.95,2.14-3.45,2.65c-0.86,0.29-1.71,0.26-2.54,0.7c-1.15,0.59-1.42,1.35-2.13,2.36
		c-0.69,0.97-1.38,1.76-2.54,2.17c-1.46,0.52-2.84,0.06-4.34,0.17c-1.7,0.13-2.84,1.27-4.53,1.28c-0.21,0.01-0.4-0.04-0.55-0.12
		c-0.46,0.23-0.89,0.36-1.46,0.45c-1.42,0.21-2.24,0.53-3.52,1.15c-1.56,0.77-1.69,0.43-3.25-0.07c-1.72-0.55-1.27-0.17-2.47,0.5
		C7,74.82,6.47,75.07,5.5,75.15C3.56,75.32,1.82,73.06,0,72.9z"/>
	<path class="st2" d="M143.63,4.28c0.01-0.12,0.01-0.25,0.01-0.39c0-0.01,0-0.01,0-0.01c0.01-0.97-0.01-2.53,0.18-3.88l13.02,0v5.44
		c0,0.07,0.01,0.13,0.01,0.19c0.09,0.83,0.15,0.34,0.27,0.87c0.12,0.48,0.33,0.89,0.37,1.42c0.1,1.49,0.38,3.54-0.28,5.04
		c-0.09,0.21-0.23,0.43-0.37,0.66c-0.65,0.99-1.56,2.05-0.29,2.6c0.1,0.04,0.2,0.07,0.29,0.09c0.61,0.1,1.27-0.16,1.87,0.21
		c1.42,0.87,0.52,1.83,0.64,2.95c0.14,0.14,0.25,0.34,0.29,0.59c0.25,1.46,2.22,1.91,2.78,3.27c0.25,0.59,0.09,1.02,0.19,1.6
		c0.02,0.15,0.02,0.25,0.02,0.33c0.05,0.03,0.1,0.06,0.15,0.09c1.2,0.73,1.81,0.97,2.16,2.42c-0.04,0.32-0.09,0.66-0.13,0.99
		c0.28,0.81,0.74,1.44,1.38,1.9c0.45,0.5,1.03,0.79,1.4,1.39c0.41,0.67,0.55,1.28,0.43,2.06c0,0.22-0.06,0.42-0.17,0.61
		c-0.18,0.21-0.29,0.38-0.32,0.5c0.04,0.08,0.08,0.17,0.12,0.25c0.15,0.04,0.44,0,0.87-0.13c1.18,0.58,1.78,0.68,2.54,1.89
		c0.59,0.94,0.77,2.05,1.3,2.99c0.69,1.21,1.38,1.02,2.68,1.05c1.13,0.03,2.3,0.17,3.09,1.08c0.55,0.62,0.39,1.27,0.75,1.91
		c0.86,1.56,1.1,0.96,2.29,1.3c1.5,0.43,1.72,0.8,2.82,1.89c1.5,1.48,2.52,1.72,4.45,1.77c0.64,0.01,1.26-0.03,1.86,0.24
		c0.53,0.25,0.81,0.77,1.26,1.05c0.03,0.57,0.29,0.72,0.77,0.44c0.4-0.2,0.81-0.34,1.24-0.42c1.18-0.15,1.71,0.27,2.49,1.06
		c0.16,0.31,0.31,0.62,0.43,0.94c0.78,0.77,1.57,0.87,2.36,0.32c0.79-0.09,1.45-0.48,2.28-0.42c0.74,0.06,1.32,0.53,2,0.61
		c2.95,0.36,2.36-0.37,3.94-1.65c0.7-0.57,1.25-0.67,1.83-0.69v13.64c-0.03-0.01-0.06,0.01-0.09,0c-1.31-0.18-2.63,0.19-3.96,0.21
		c-0.01,0-0.01,0-0.01,0c-0.86,0.02-1.71-0.01-2.57-0.2c-2.29-0.5-4.59-0.84-6.87-1.37c-1.64-0.38-3.3-0.85-4.96-1.37
		c-0.01,0-0.01,0-0.01-0.01c-1.41-0.43-2.82-0.91-4.21-1.42c-0.01,0-0.01,0-0.01,0c-1.79-0.64-3.55-1.31-5.25-1.98
		c-0.59-0.23-1.14-0.51-1.68-0.82c-0.01,0-0.01,0-0.01-0.01c-1.04-0.59-2.02-1.27-3.07-1.84c-1.23-0.66-2.33-1.28-3.38-2.05
		c-0.51-0.37-1.01-0.77-1.51-1.23c-1.01-0.94-1.89-1.86-3.11-2.55c-0.34-0.2-0.7-0.36-1.05-0.53c-0.01-0.01-0.01-0.01-0.02-0.01
		c-0.12-0.06-0.24-0.12-0.36-0.18c0,0-0.01,0-0.01-0.01c-0.32-0.17-0.64-0.35-0.93-0.58c-0.38-0.29-0.69-0.6-0.93-0.93
		c-0.32-0.42-0.53-0.89-0.67-1.43c-0.56-0.2-1.15-0.4-1.71-0.66c-1.15-0.51-2.21-1.2-2.77-2.3c-1.21-2.33-1.65-4.99-2.96-7.32
		c-0.06-0.11-0.12-0.21-0.19-0.32c-1.22-2.02-3.38-3.06-4.72-4.83c-0.06-0.08-0.12-0.16-0.18-0.24c-0.07-0.1-0.15-0.2-0.22-0.31
		c-0.38-0.63-0.64-1.43-0.59-2.18c0.06-1.06,1.14-2.37,0.99-3.38c-0.25-1.61-2.31-1.94-3.21-3.03c-0.22-0.26-0.4-0.55-0.55-0.86
		c-0.01-0.02-0.02-0.04-0.02-0.06c-0.07-0.15-0.14-0.31-0.2-0.48c-0.01,0-0.01-0.01,0-0.01c-0.13-0.34-0.22-0.69-0.29-1.05
		c-0.28-1.32-0.21-2.68-0.49-4c-0.28-1.32-0.95-2.57-1.04-3.92c-0.01-0.08-0.01-0.16-0.01-0.23c0-0.01,0-0.01,0-0.01
		c0.01-0.89,0.36-1.73,0.37-2.61c0,0,0.01-0.01,0.01-0.01c0-0.21-0.02-0.43-0.06-0.65c-0.32-1.52-0.6-0.69-1.59-1.36
		c-0.42-0.29-0.67-0.63-0.8-1.01c-0.05-0.04-0.09-0.07-0.13-0.12V5.08C143.72,4.89,143.61,4.62,143.63,4.28z"/>
	<path class="st2" d="M0,64.33l0-13.42c0.79-0.07,1.58-0.09,2.33,0.07c0.8,0.17,1.24,0.74,1.89,1.04c2.03,0.9,2.47-0.2,4.23-0.55
		c1.04-0.21,1.8,0.13,2.78,0.35c1.35,0.3,3.81,0.58,5.21,0.31c2.32-0.45,1.77-1.84,3.06-3.16c1.19-1.2,2.82-1.26,4.38-1.04
		c0.09-0.15,0.17-0.31,0.25-0.46c0.26-0.5,0.7-0.66,1.13-0.59c0.2-0.07,0.45-0.06,0.72,0.04c-0.49-0.18,0.37-1.3,0.98-1.66
		c1.18-0.72,2.34,0.1,3.42-0.28c1.53-0.53,1.04-2.48,2.03-3.43c0.87-0.85,1.64-0.52,2.68-0.73c1.89-0.38,1.1-1.46,1.82-2.82
		c0.56-1.07,1.32-1.13,2.32-1.56c1.07-0.46,1.45,0.77,2.2-1.3c0.17-0.47-0.1-1.25,0.02-1.78c0.21-0.92,0.59-1.59,1.42-2.05
		c0.46-0.25,0.84-0.23,1.32-0.37c1.81-0.55,1.98-0.64,2.19-2.49c0.17-1.56-0.86-3.57-0.17-5.07c0.48-1.05,1.37-1,2.22-1.62
		c2.16-1.58,0.53-4.09,1.35-6.03c0.51-1.22,1.59-1.85,2-3.14c0.45-1.39-0.25-2.49,0.08-3.87c0.1-0.43,0.48-0.8,0.58-1.19
		c0.48-1.85-0.2-2.55-0.71-3.98C51.31,2.39,52.48,1.21,52.38,0L65.3,0c0.04,0.34,0.04,0.71,0,1.1c0.01,0.22-0.01,0.43-0.09,0.63
		C65.08,2.46,64.87,3.24,64.66,4c0,0.01,0,0.01,0,0.01c-0.37,1.32-0.73,2.59-0.61,3.49c0,0.01,0,0.01,0,0.01
		c0.07,0.48,0.28,0.85,0.69,1.07c0.57,0.29,0.69,0.86,0.53,1.37c-0.09,0.29-0.28,0.56-0.53,0.74c-0.69,0.52-1.03,1.02-1.18,1.52
		c0.01,0.03,0.02,0.07,0.03,0.1c0.16,0.61,0.15,1.21,0.04,1.76c0.16,0.76,0.34,1.54,0.03,2.4c-0.03,0.08-0.07,0.16-0.1,0.23
		c-0.04,0.07-0.08,0.14-0.12,0.21c-0.62,0.92-1.84,1.15-2.63,1.98c-0.56,0.59-0.94,1.21-1.11,1.87c-0.02,0.06-0.03,0.12-0.04,0.17
		c0.29,0.35,0.41,0.85,0.18,1.37c-0.02,0.04-0.04,0.09-0.06,0.13c0.04,0.12,0.07,0.23,0.13,0.35c0.24,0.51,0.83,0.81,0.99,1.46
		c0.07,0.31,0.08,0.58,0.04,0.85c0,0.01,0,0.01,0,0.01c-0.09,0.51-0.35,0.94-0.72,1.35c-0.01,0.01-0.02,0.02-0.03,0.04
		c-0.19,0.21-0.44,0.34-0.7,0.47c0,0,0,0-0.01,0.01c-0.23,0.12-0.47,0.23-0.66,0.4c-3.4,3.06-0.55,1.57-1.25,3.52
		c-0.15,0.43-0.36,0.81-0.57,1.23c-0.02,0.04-0.04,0.08-0.06,0.12c-0.56,1.08-1.04,2.24-1.48,3.37c-0.38,0.99-1.07,1.62-1.93,2.02
		v0.01c-1.04,0.5-2.32,0.67-3.57,0.8c-0.07,0.23-0.21,0.4-0.37,0.54c-0.2,0.95-0.12,2.02-0.15,3.04c0,0.01,0,0.01,0,0.01
		c0,0.01,0,0.01,0,0.01c-0.02,0.69-0.08,1.37-0.3,1.98c-0.01,0.02-0.02,0.05-0.02,0.07c-0.1,0.26-0.24,0.51-0.42,0.75
		c-0.49,0.66-1.26,1.07-2.1,1.35c-0.01,0-0.01,0-0.01,0h-0.01c-0.78,0.26-1.62,0.4-2.32,0.51c-2.68,0.42-0.96,1.15-1.93,2.89
		c-0.63,1.12-1.96,1.08-3.11,1.34v0.01c-0.81,0.17-1.53,0.49-1.84,1.45c-0.1,0.33-0.31,0.57-0.57,0.71
		c-0.18,0.1-0.39,0.17-0.61,0.19c-0.3,0.19-0.6,0.37-0.9,0.56c-0.22,0.26-0.58,0.37-0.93,0.35c-0.2-0.01-0.39-0.06-0.56-0.16
		c-0.26-0.15-1.61,1.79-1.86,2c-0.69,0.56-1.29,0.81-2.14,0.98c-0.97,0.19-2.08-0.32-3.01-0.08c-1.42,0.36-1.41,1.2-2.18,2.1
		c-0.3,0.35-0.56,0.58-0.82,0.74c-0.01,0.01-0.01,0.01-0.02,0.01c-0.4,0.24-0.79,0.29-1.26,0.29H22.5
		c-0.01,0.01-0.01,0.01-0.02,0.01c-0.32,0.01-0.7-0.01-1.15,0.02c-1.48,0.09-0.41-0.36-1.34,0.82c-0.05,0.06-0.1,0.13-0.17,0.19
		c0,0.01-0.01,0.01-0.01,0.01c-0.28,0.31-0.62,0.59-0.99,0.74c-0.49,0.21-1.06,0.12-1.57,0.16c-0.11-0.03-0.23-0.06-0.34-0.07
		c-0.7-0.12-1.39,0.01-2.06,0.39c-0.23,0.32-0.5,0.59-0.81,0.81c-0.26,0.1-0.53,0.17-0.8,0.21c-0.01,0-0.01,0-0.01,0
		c-0.34,0.06-0.69,0.07-1.04,0.05c-0.68-0.21-1.37-0.39-2.08-0.52c-0.05-0.01-0.1-0.02-0.15-0.03c-0.88,0.1-1.52,0.52-1.9,1.24
		C7,64.97,6.12,65.69,4.59,65.36c-1.14-0.25-1.7-1.19-2.95-1.26C1.07,64.08,0.55,64.24,0,64.33z"/>
	<path class="st3" d="M0,64.45L0,62c0.29,0.04,0.58,1.15,0.88,1.23c0-0.01,0.01-0.02,0.01-0.03c0.36-0.87,1.3-1.19,2.05-0.54
		c1.83,1.58,2.38,1.61,3.93-0.21c0.45-0.53,0.55-0.81,1.21-1.02c1.36-0.44,3.29,0.23,4.8,0.95c0.32-0.59,0.8-1.09,1.53-1.43
		c1.87-0.88,3.96,1.05,4.64-1.86c0.19-0.81,1.12-1.08,1.8-0.74c1.25,1.04,2.54,0.98,3.85-0.18c0.04-0.35,0.14-0.69,0.29-1
		c0.47-0.64,0.53-1.08,1.31-1.46c1.52-0.74,6,1.61,5.89-1.68c-0.03-0.76,0.81-1.44,1.55-1.18c2.51,0.87,2.23-2,3.78-2.91
		c1.03-0.61,2.4-0.69,3.67-0.63c-0.38-1.33-0.85-2.56,0.55-3.69c2.07-1.68,6.64,0.51,6.81-3.04c0.09-1.93-0.6-3.36,1.18-4.91
		c1.07-0.94,2.44-1.18,3.75-0.91c0.34-1.25,0.02-2.88,0.89-4.06c0.54-0.72,1.21-1.24,1.98-1.58c-0.31-0.84-0.34-1.76,0.02-2.68
		c0.51-1.29,3.63-2.43,3.21-3.72c-0.41-1.24-2.35-1.26-2.19-3.12c0.19-2.17,3.34-3.8,4.8-5.02c0.13-0.12,0.28-0.19,0.42-0.23
		c-0.01-1.04-0.73-3.63-0.47-4.39c0.34-1.02,1.04-1.73,1.79-2.41c-0.46-0.21-1.05-0.41-1.17-0.46c-0.61-0.27-0.74-1.15-0.43-1.68
		c1.31-2.33,1.4-4.86,1.16-7.41l2.43,0c0.21,2.55,0.11,5.04-0.88,7.41c0.86,0.39,1.56,0.82,1.81,1.89c0.1,0.42,0.01,0.89-0.31,1.19
		c-0.64,0.59-1.43,1.13-1.72,1.86c-0.01,0.01-0.01,0.01-0.01,0.02c-0.04,0.1-0.07,0.21-0.09,0.33c-0.01,0.01-0.01,0.01-0.01,0.02
		v0.01c-0.04,0.26-0.02,0.54,0.09,0.86c0.24,0.71,0.81,1.05,0.92,1.87c0.19,1.53-0.7,2.76-1.98,3.42c-0.25,0.13-0.5,0.17-0.72,0.14
		c-0.77,0.58-1.59,1.18-2.17,1.87c-0.87,1.04-0.67,0.86-0.01,1.72c0.57,0.75,1.42,0.94,1.75,1.95c0.28,0.83,0.09,1.67-0.4,2.37
		c-0.64,0.94-4.69,2.4-3.05,4.06c0.58,0.59,0.41,1.91-0.54,2.05c-3.71,0.53-1.88,3.85-3.39,5.81c-0.31,0.4-0.85,0.79-1.38,0.56
		c-1.34-0.8-2.35-0.07-3.01,2.21c0.14,0.29,0.25,0.6,0.34,0.92c0,0.47,0.17,0.88,0.1,1.38c-0.13,0.94-0.72,1.73-1.47,2.3
		c-1.22,0.93-2.58,0.85-4.01,1.02c-0.66-0.17-1.24-0.02-1.72,0.45c-0.81,0.17-0.97,0.55-0.45,1.16c-0.03,0.43,0.31,1.32,0.34,1.78
		c0.04,0.61-0.6,1.29-1.23,1.23c-1.71-0.17-3.15-0.4-4.14,1.28c-0.36,0.61-0.23,1.24-0.83,1.8c-0.88,0.82-2.11,0.86-3.26,0.64
		c-0.25,0.93-0.78,1.75-1.68,2.31c-0.65,0.41-1.38,0.6-2.15,0.62c-0.73,0.01-2.02-0.76-2.65-0.57c-1.32,0.41-1.49,2.79-3.06,3.44
		c-1.34,0.55-2.66,0.26-3.91-0.26c-0.29,0.76-0.69,1.47-1.35,1.94c-0.94,0.67-4.75,0.29-4.85,1.07c-0.11,0.9-0.96,1.56-1.84,1.06
		c-1.81-1.03-3.51-1.95-4.93-0.2c-0.53,0.66-0.94,1.52-1.71,1.93c-1.36,0.72-2.63-0.18-3.72-1.19H2.6
		c-0.02-0.02-0.04-0.04-0.06-0.06c-0.01,0.01-0.02,0.02-0.03,0.03c-0.28,0.29-0.67,0.45-1.11,0.27C0.93,65.77,0.47,64.54,0,64.45z"
		/>
	<path class="st3" d="M143.71,0l2.38,0c-0.36,2.23-0.62,5.12,1.74,5.5c0.83,0.13,1.06,1.17,0.73,1.8c-0.78,1.5-2.13,1.72-1.28,3.54
		c0.79,1.7,1.42,3.08,1.6,5c0.1,1.04,0.1,2.09,0.16,3.13c0.04,0.58-0.05,1.37,0.31,1.86c0.62,0.85,0.09,0.23,0.9,0.5
		c1.19,0.38,2.17,0.11,2.79,1.51c0.54,1.21-0.01,2.29-0.46,3.41c-0.59,1.47-0.95,2.99,0.34,4.27c0.67,0.66,1.69,0.77,2.48,1.2
		c0.62,0.34,1.08,0.67,1.43,1.08c0.34,0.42,0.58,0.92,0.77,1.61c0.39,1.44,0.31,2.5,1.26,3.73c0.39,0.5,0.85,0.97,1.13,1.54
		c0.64,1.29,0.06,3.01,1.06,3.8c1.02,0.8,2.17,0.32,3.06,1.48c0.7,0.91,0.64,1.44,1.64,2.27c1.02,0.86,1.19,0.65,2.3,1.03
		c1.11,0.39,1.92,1.16,2.69,2.02c0.56,0.62,1.01,1.39,1.64,1.95c1.12,1,2.46,1.16,3.84,1.59c1.54,0.47,2.63,1.25,3.75,2.38
		c1.45,1.48,2.96,1.6,4.93,1.68c0.43,0.02,0.86-0.01,1.3,0.07c1.71,0.34,3.56,1.49,4.99,2.4c1.58,1.01,2.93,2.12,5.02,1.79
		c0.45-0.07,0.8-0.45,1.28-0.51c1.34-0.15,2.06,0.78,3.18,1.28c2.65,1.19,5.49-1.31,8.25-0.91v2.51c-2.22-0.77-4.72,1.42-7.03,1.23
		c-1.82-0.15-3.12-1.62-4.77-1.26c-1.64,0.36-2.52,0.85-4.23-0.03c-2.6-1.34-5.01-4.23-8.17-3.99c-1.89,0.14-2.87,0.53-4.59-0.72
		c-0.85-0.61-1.46-1.45-2.22-2.16c-1.16-1.08-2.32-1.32-3.77-1.75c-1.81-0.53-2.95-1.29-4.2-2.69c-0.56-0.62-1-1.38-1.64-1.91
		c-0.97-0.8-1.92-0.69-3.04-0.99c-1.45-0.4-1.68-1.19-2.5-2.27c-0.74-0.97,0.13-0.5-1.15-1.27c-0.99-0.59-0.62-0.26-1.19-0.48
		c-0.67-0.27-1.07-0.25-1.61-0.75c-1.13-1.09-0.53-2.4-0.78-3.74c-0.17-0.87-0.66-1.59-1.19-2.3c-0.58-0.79-1.19-1.57-1.42-2.54
		c-0.36-1.59-0.53-2.36-2.09-3.35c-0.5-0.31-1.07-0.45-1.57-0.82c-1.07-0.81-1.78-2-2.08-3.3c-0.45-1.92,0.57-2.73,0.8-4.42
		c0.25-1.85-1.9-0.89-2.93-1.93c-0.89-0.9-0.85-2.5-0.93-3.66c-0.16-2.32,0.1-4.94-1.19-7c-0.73-1.17-1.96-2.06-1.45-3.62
		c0.24-0.74,0.85-1.16,1.42-1.61c-0.75-0.51-1.23-1.24-1.49-2.1V5.08c-0.13-0.37-0.21-0.77-0.26-1.19c0-0.01,0-0.01,0-0.01
		C143.47,2.63,143.57,1.26,143.71,0z"/>
	<path class="st4" d="M192.69,117.21c0.25,0.42,0.59,0.76,1.01,1.01c0.17,0.12,0.29,0.17,0.5,0.26c0.34,0.14,0.77,0.27,1.15,0.23
		c0.71-0.08,1.41-0.24,1.91-0.79c0.14-0.18,0.28-0.36,0.42-0.55c0.24-0.42,0.37-0.88,0.37-1.36c0.06-0.55-0.17-1.2-0.5-1.65
		c-0.25-0.42-0.59-0.76-1.01-1.01c-0.44-0.26-0.92-0.38-1.43-0.39c-0.75,0.03-1.46,0.29-2,0.83c-0.51,0.51-0.83,1.27-0.83,2
		C192.3,116.3,192.43,116.77,192.69,117.21z"/>
	<path class="st4" d="M191.76,126.61c3.68,0,3.69-5.72,0-5.72C188.07,120.89,188.07,126.61,191.76,126.61z"/>
	<path class="st4" d="M179.1,124.76c0.47,0.47,1.25,0.83,1.93,0.8c0.71-0.03,1.44-0.26,1.93-0.8c0.46-0.5,0.88-1.23,0.8-1.93
		c-0.06-0.55-0.08-1.12-0.3-1.64c-0.21-0.5-0.41-0.8-0.78-1.24c-0.35-0.42-1.11-0.71-1.65-0.68c-0.59,0.03-1.25,0.22-1.65,0.68
		c-0.37,0.43-0.57,0.74-0.78,1.24c-0.22,0.52-0.24,1.08-0.3,1.64C178.23,123.48,178.66,124.32,179.1,124.76z"/>
	<path class="st4" d="M175.21,99.5c3.08,0,3.08-4.79,0-4.79C172.13,94.71,172.13,99.5,175.21,99.5z"/>
	<path class="st4" d="M185.93,90.91c2.28,0,2.28-3.54,0-3.54C183.66,87.37,183.65,90.91,185.93,90.91z"/>
	<path class="st4" d="M182.43,103.37c0.44,0.44,1.26,0.74,1.87,0.5c0.42-0.17,0.82-0.33,1.2-0.59c0.62-0.42,1.11-1.09,1.08-1.88
		c-0.03-0.58-0.22-1.12-0.64-1.54c-0.39-0.39-0.98-0.64-1.54-0.64c-0.81,0-1.44,0.43-1.88,1.08c-0.26,0.38-0.42,0.78-0.59,1.2
		C181.68,102.11,181.98,102.92,182.43,103.37z"/>
	<path class="st4" d="M164.49,115.49c2.77,0,2.78-4.31,0-4.31C161.72,111.18,161.72,115.49,164.49,115.49z"/>
	<path class="st4" d="M158.06,88.95c3.31,0,3.32-5.15,0-5.15C154.75,83.81,154.74,88.95,158.06,88.95z"/>
	<path class="st4" d="M144.28,77.63c4.11,0,4.12-6.39,0-6.39C140.16,71.24,140.16,77.63,144.28,77.63z"/>
	<path class="st4" d="M198.19,84.89c2.18,0,3.03-2.05,2.58-3.66c0.5-0.77,0.15-2.08-1.05-2.08c-0.32,0-0.58,0.1-0.78,0.25
		c-0.23-0.06-0.48-0.1-0.75-0.1C194.58,79.29,194.58,84.89,198.19,84.89z"/>
	<path class="st4" d="M197.47,105.34c0.94,0,1.39-0.77,1.34-1.51c3.13-0.01,3.13-4.88-0.01-4.88c-2.17,0-2.84,2.34-2.01,3.78
		C195.73,103.33,195.95,105.34,197.47,105.34z"/>
	<path class="st4" d="M159.59,138.7c3.87,0,3.87-6.01,0-6.01C155.73,132.7,155.72,138.7,159.59,138.7z"/>
	<path class="st4" d="M171.54,133.97c3.3,0,3.3-5.12,0-5.12C168.24,128.85,168.24,133.97,171.54,133.97z"/>
	<path class="st4" d="M144.28,120.18c2.89,0,2.9-4.5,0-4.5C141.38,115.68,141.38,120.18,144.28,120.18z"/>
	<path class="st4" d="M146.73,104.53c2.46,0,2.47-3.83,0-3.83C144.26,100.7,144.26,104.53,146.73,104.53z"/>
	<path class="st4" d="M132.64,96.57c3.65,0,3.66-5.67,0-5.67C128.99,90.9,128.98,96.57,132.64,96.57z"/>
	<path class="st4" d="M172.46,80.98c3.7,0,3.7-5.74,0-5.74C168.76,75.24,168.76,80.98,172.46,80.98z"/>
	<path class="st4" d="M151.32,68.27c2.71,0,2.71-4.21,0-4.21C148.61,64.06,148.61,68.27,151.32,68.27z"/>
	<path class="st4" d="M144.58,53.24c2.68,0,2.68-4.16,0-4.16C141.9,49.07,141.9,53.24,144.58,53.24z"/>
	<path class="st4" d="M129.27,53.44c4.13,0,4.13-6.41,0-6.41C125.14,47.03,125.13,53.44,129.27,53.44z"/>
	<path class="st4" d="M129.57,43.59c4.07,0,4.07-6.32,0-6.32C125.51,37.28,125.5,43.59,129.57,43.59z"/>
	<path class="st4" d="M136.31,33.08c3.54,0,3.55-5.5,0-5.5C132.77,27.57,132.76,33.08,136.31,33.08z"/>
	<path class="st4" d="M127.07,24.05c0.48,0.59,1.21,0.98,2.2,0.98c2.01,0,2.97-1.64,2.87-3.2c1.88-0.22,1.82-3.25-0.21-3.25
		c-0.66,0-1.12,0.32-1.36,0.77c-0.37-0.17-0.8-0.27-1.29-0.27c-1.68,0-2.63,1.15-2.83,2.43C125.52,22.16,125.73,23.92,127.07,24.05z
		"/>
	<path class="st4" d="M128.65,13.6c3.71,0,3.72-5.77,0-5.77C124.94,7.84,124.94,13.6,128.65,13.6z"/>
	<path class="st4" d="M108.74,16.58c3.99,0,3.99-6.2,0-6.2C104.75,10.38,104.75,16.58,108.74,16.58z"/>
	<path class="st4" d="M104.45,19.85c3.08,0,3.08-4.79,0-4.79C101.37,15.07,101.37,19.85,104.45,19.85z"/>
	<path class="st4" d="M112.73,33.61c3.83,0,3.84-5.96,0-5.96C108.89,27.65,108.88,33.61,112.73,33.61z"/>
	<path class="st4" d="M112.52,26.03c0.27,0,0.48-0.1,0.63-0.25c0.3,0.75,0.97,1.33,2.03,1.33c2.96,0,2.96-4.59,0-4.59
		c-1.27,0-2,0.86-2.17,1.83c-0.13-0.08-0.29-0.14-0.48-0.14C111.35,24.21,111.35,26.03,112.52,26.03z"/>
	<path class="st4" d="M120.08,9.49c1.28,0,2.5-1.12,2.44-2.44c-0.06-1.32-1.07-2.44-2.44-2.44c-1.28,0-2.5,1.12-2.44,2.44
		C117.69,8.37,118.71,9.49,120.08,9.49z"/>
	<path class="st4" d="M98.63,8.8c3.05,0,3.05-4.74,0-4.74C95.59,4.06,95.58,8.8,98.63,8.8z"/>
	<path class="st4" d="M87.61,13.53c3.62,0,3.62-5.62,0-5.62C83.99,7.91,83.98,13.53,87.61,13.53z"/>
	<path class="st4" d="M78.72,10.25c3.34,0,3.35-5.19,0-5.19C75.38,5.06,75.38,10.25,78.72,10.25z"/>
	<path class="st4" d="M72.6,23.75c4.16,0,4.16-6.46,0-6.46C68.44,17.29,68.43,23.75,72.6,23.75z"/>
	<path class="st4" d="M69.23,38.64c3.6,0,3.61-5.6,0-5.6C65.62,33.04,65.62,38.64,69.23,38.64z"/>
	<path class="st4" d="M81.79,49.29c3.91,0,3.92-6.08,0-6.08C77.88,43.21,77.87,49.29,81.79,49.29z"/>
	<path class="st4" d="M90.67,33.75c3.22,0,3.22-5,0-5C87.45,28.74,87.45,33.75,90.67,33.75z"/>
	<path class="st4" d="M95.57,25.98c3.08,0,3.08-4.79,0-4.79C92.49,21.19,92.49,25.98,95.57,25.98z"/>
	<path class="st4" d="M106.13,47.07c-1.2,0.6-0.98,2.8,0.67,2.8c1.22,0,1.65-1.21,1.31-2.08c0,0,0.01,0,0.01,0
		c3.96,0,3.96-6.15,0-6.15C105.02,41.65,104.35,45.45,106.13,47.07z"/>
	<path class="st4" d="M100.47,59.59c3.76,0,3.76-5.84,0-5.84C96.72,53.75,96.71,59.59,100.47,59.59z"/>
	<path class="st4" d="M81.17,59.04c3.83,0,3.84-5.96,0-5.96C77.34,53.08,77.33,59.04,81.17,59.04z"/>
	<path class="st4" d="M115.18,63.3c3.4,0,3.41-5.29,0-5.29C111.77,58.01,111.77,63.3,115.18,63.3z"/>
	<path class="st4" d="M105.37,89.03c3.02,0,3.02-4.69,0-4.69C102.36,84.34,102.35,89.03,105.37,89.03z"/>
	<path class="st4" d="M94.35,84.82c3.11,0,3.12-4.83,0-4.83C91.24,79.98,91.23,84.82,94.35,84.82z"/>
	<path class="st4" d="M70.15,75.79c3.33,0,3.33-5.17,0-5.17C66.82,70.63,66.82,75.79,70.15,75.79z"/>
	<path class="st4" d="M63.05,71.73c-0.05-0.01-0.1-0.02-0.16-0.02c-1.52,0-1.53,2.37,0,2.37c1.37,0,1.51-1.91,0.41-2.3
		c0.13,0.02,0.26,0.04,0.41,0.04c2.96,0,2.96-4.59,0-4.59C61,67.24,60.78,71.1,63.05,71.73z"/>
	<path class="st4" d="M68.62,58c3.3,0,3.3-5.12,0-5.12C65.32,52.88,65.31,58,68.62,58z"/>
	<path class="st4" d="M63.41,61.58c3.96,0,3.96-6.15,0-6.15C59.45,55.43,59.44,61.58,63.41,61.58z"/>
	<path class="st4" d="M119.46,75.45c4.07,0,4.07-6.32,0-6.32C115.4,69.13,115.39,75.45,119.46,75.45z"/>
	<path class="st4" d="M118.55,88.88c4.4,0,4.41-6.84,0-6.84C114.14,82.04,114.13,88.88,118.55,88.88z"/>
	<path class="st4" d="M100.78,115.08c4.22,0,4.23-6.56,0-6.56C96.56,108.53,96.55,115.08,100.78,115.08z"/>
	<path class="st4" d="M86.99,104.43c3.51,0,3.52-5.46,0-5.46C83.48,98.97,83.48,104.43,86.99,104.43z"/>
	<path class="st4" d="M77.5,91.29c3.96,0,3.96-6.15,0-6.15C73.54,85.14,73.53,91.29,77.5,91.29z"/>
	<path class="st4" d="M68.31,95.81c3.46,0,3.47-5.38,0-5.38C64.84,90.43,64.84,95.81,68.31,95.81z"/>
	<path class="st4" d="M66.47,109.54c3,0,3.01-4.67,0-4.67C63.47,104.88,63.46,109.54,66.47,109.54z"/>
	<path class="st4" d="M58.81,112.8c4.03,0,4.04-6.27,0-6.27C54.78,106.53,54.77,112.8,58.81,112.8z"/>
	<path class="st4" d="M58.81,95.93c3.62,0,3.62-5.62,0-5.62C55.19,90.31,55.19,95.93,58.81,95.93z"/>
	<path class="st4" d="M60.96,81.33c3.74,0,3.75-5.82,0-5.82C57.22,75.51,57.21,81.33,60.96,81.33z"/>
	<path class="st4" d="M51.16,68.18c4.17,0,4.18-6.49,0-6.49C46.98,61.7,46.98,68.18,51.16,68.18z"/>
	<path class="st4" d="M40.43,71.44c3.63,0,3.64-5.65,0-5.65C36.8,65.79,36.79,71.44,40.43,71.44z"/>
	<path class="st4" d="M34.31,80.11c3.36,0,3.36-5.22,0-5.22C30.95,74.89,30.95,80.11,34.31,80.11z"/>
	<path class="st4" d="M34.31,91.49c3.42,0,3.42-5.31,0-5.31C30.89,86.18,30.88,91.49,34.31,91.49z"/>
	<path class="st4" d="M24.51,87.09c4.07,0,4.07-6.32,0-6.32C20.44,80.77,20.43,87.09,24.51,87.09z"/>
	<path class="st4" d="M13.78,81.32c2.94,0,2.95-4.57,0-4.57C10.84,76.74,10.84,81.32,13.78,81.32z"/>
	<path class="st4" d="M3.06,87.61c1.97,0,1.97-3.06,0-3.06C1.09,84.54,1.09,87.61,3.06,87.61z"/>
	<path class="st4" d="M8.88,104.98c2.65,0,2.65-4.12,0-4.12C6.23,100.86,6.23,104.98,8.88,104.98z"/>
	<path class="st4" d="M12.87,108.34c1.61,0,2.46-1.18,2.55-2.43c0.61-0.82,0.28-2.3-1-2.4c-0.4-0.3-0.92-0.48-1.55-0.48
		C9.45,103.02,9.44,108.34,12.87,108.34z"/>
	<path class="st4" d="M9.19,117.11c3.28,0,3.29-5.1,0-5.1C5.91,112.01,5.9,117.11,9.19,117.11z"/>
	<path class="st4" d="M6.13,124.52c3.36,0,3.36-5.22,0-5.22C2.77,119.31,2.76,124.52,6.13,124.52z"/>
	<path class="st4" d="M13.78,131.53c3.7,0,3.7-5.74,0-5.74C10.09,125.78,10.08,131.53,13.78,131.53z"/>
	<path class="st4" d="M25.12,130.12c3.06,0,3.07-4.76,0-4.76C22.05,125.35,22.05,130.12,25.12,130.12z"/>
	<path class="st4" d="M28.49,117.84c3.82,0,3.83-5.93,0-5.93C24.67,111.9,24.66,117.84,28.49,117.84z"/>
	<path class="st4" d="M37.98,110.4c1,0,1.5-0.77,1.5-1.55c0.27,0.13,0.58,0.2,0.95,0.2c2.66,0,2.76-3.95,0.32-4.28
		c-0.07-0.53-0.45-1.01-1.14-1.01c-1.1,0-1.41,1.22-0.93,1.92c-0.29,0.48-0.39,1.09-0.29,1.65c-0.13-0.03-0.26-0.05-0.41-0.05
		C35.98,107.29,35.98,110.4,37.98,110.4z"/>
	<path class="st4" d="M43.5,103.4c2.59,0,2.59-4.02,0-4.02C40.91,99.38,40.91,103.4,43.5,103.4z"/>
	<path class="st4" d="M26.64,104.16c0.6,0.55,1.33,0.89,2.16,0.89c0.78,0,1.6-0.34,2.16-0.89c0.53-0.53,0.93-1.4,0.89-2.16
		c-0.04-0.79-0.29-1.61-0.89-2.16c-0.6-0.55-1.33-0.89-2.16-0.89c-0.78,0-1.6,0.34-2.16,0.89c-0.53,0.53-0.93,1.4-0.89,2.16
		C25.78,102.79,26.04,103.61,26.64,104.16z"/>
	<path class="st4" d="M36.76,132.21c3.79,0,3.79-5.89,0-5.89C32.97,126.32,32.96,132.21,36.76,132.21z"/>
	<path class="st4" d="M45.68,139.58c0.26-1.46-0.56-3.14-2.49-3.14c-1.92,0-2.74,1.68-2.49,3.14H45.68z"/>
	<path class="st4" d="M57.59,139.58c0.73-1.13,0.22-3.05-1.54-3.05c-1.75,0-2.26,1.92-1.54,3.05H57.59z"/>
	<path class="st4" d="M57.59,131.07c2.09,0,3.06-1.75,2.91-3.37c2.64-1,2.29-5.64-1.07-5.64c-1.96,0-2.89,1.58-2.81,3.1
		C53.72,126.07,54.04,131.07,57.59,131.07z"/>
	<path class="st4" d="M75.66,126.55c3.99,0,3.99-6.2,0-6.2C71.67,120.35,71.67,126.55,75.66,126.55z"/>
	<path class="st4" d="M88.22,126.9c4.05,0,4.06-6.29,0-6.29C84.17,120.61,84.16,126.9,88.22,126.9z"/>
	<path class="st4" d="M116.9,112.1c0.13,0.48,0.38,0.89,0.72,1.24c0.35,0.35,0.77,0.59,1.24,0.72c0.5,0.13,1,0.13,1.5,0
		c0.06-0.01,0.12-0.02,0.19-0.03c0.98-0.17,1.8-1.14,2.06-2.06c0.28-1.01-0.01-2.12-0.76-2.86c-0.74-0.74-1.85-1.04-2.86-0.76
		c-0.92,0.25-1.89,1.07-2.06,2.06c-0.01,0.06-0.02,0.12-0.03,0.19C116.77,111.1,116.77,111.6,116.9,112.1z"/>
	<path class="st4" d="M122.06,104.36c-0.42,0.52-0.2,1.52,0.67,1.52c0.91,0,1.11-1.09,0.61-1.58c3.41-0.79,3.14-6.51-0.82-6.51
		C118.44,97.78,118.28,103.89,122.06,104.36z"/>
	<path class="st4" d="M126.51,131.88c4.16,0,4.16-6.46,0-6.46C122.35,125.42,122.34,131.88,126.51,131.88z"/>
	<path class="st4" d="M137.23,127.1c3.91,0,3.92-6.08,0-6.08C133.32,121.02,133.31,127.1,137.23,127.1z"/>
	<path class="st4" d="M142.74,133.37c2.91,0,2.92-4.52,0-4.52C139.83,128.84,139.83,133.37,142.74,133.37z"/>
	<path class="st4" d="M141.58,139.58c-0.51-0.55-1.24-0.91-2.21-0.91c-0.97,0-1.7,0.37-2.2,0.91H141.58z"/>
	<path class="st4" d="M119.77,134.86c3.65,0,3.66-5.67,0-5.67C116.12,129.19,116.11,134.86,119.77,134.86z"/>
	<path class="st4" d="M104.06,139.58c0.43-1.66-0.45-3.7-2.67-3.7c-2.21,0-3.1,2.05-2.67,3.7H104.06z"/>
	<path class="st4" d="M98.02,132.98c3.2,0,3.21-4.98,0-4.98C94.82,128,94.81,132.98,98.02,132.98z"/>
	<path class="st4" d="M86.75,139.58c-0.29-0.52-0.81-0.91-1.59-0.91c-0.25,0-0.48,0.05-0.68,0.12c-0.21-1.05-1-1.96-2.39-1.96
		c-1.72,0-2.53,1.41-2.43,2.74H86.75z"/>
	<path class="st4" d="M104.88,121.09c1,1.71,3.64,1.77,4.63,0c0.46-0.82,0.58-1.87,0.09-2.71c-0.21-0.37-0.57-0.7-0.93-0.92
		c-0.5-0.3-0.91-0.33-1.48-0.4c-0.48,0-0.93,0.12-1.35,0.37c-0.4,0.24-0.72,0.56-0.96,0.96C104.4,119.22,104.4,120.27,104.88,121.09
		z"/>
	<path class="st4" d="M183.79,112.37c2.69,0,2.7-4.19,0-4.19C181.1,108.18,181.09,112.37,183.79,112.37z"/>
	<path class="st4" d="M94.04,73.2c3.93,0,3.93-6.1,0-6.1C90.11,67.1,90.11,73.2,94.04,73.2z"/>
	<path class="st4" d="M81.48,73.2c3.93,0,3.93-6.1,0-6.1C77.55,67.1,77.55,73.2,81.48,73.2z"/>
	<path class="st5" d="M163.37,100.54c4.56,0,4.57-7.08,0-7.08C158.81,93.46,158.8,100.54,163.37,100.54z"/>
	<path class="st5" d="M155.41,116.57c2.26,0,3.12-2.19,2.56-3.84c0.63-0.12,1.23-0.42,1.68-0.86c0.54-0.54,0.95-1.44,0.92-2.22
		c-0.04-0.81-0.3-1.65-0.92-2.22c-0.61-0.56-1.37-0.92-2.22-0.92c-0.8,0-1.65,0.35-2.22,0.92c-0.54,0.54-0.95,1.44-0.92,2.22
		c0.02,0.47,0.13,0.95,0.33,1.38C151.8,111.78,152.05,116.57,155.41,116.57z"/>
	<path class="st5" d="M159.08,127.88c4,0,4.01-6.22,0-6.22C155.08,121.66,155.07,127.88,159.08,127.88z"/>
	<path class="st5" d="M159.69,133.66c1.97,0,1.97-3.06,0-3.06C157.72,130.59,157.72,133.66,159.69,133.66z"/>
	<path class="st5" d="M169.9,134.77c0.1,0,0.2-0.01,0.29-0.01c-0.13,0.11-0.24,0.24-0.35,0.37c-0.19,0.22-0.08,0.63,0.25,0.61
		c0.18-0.01,0.37-0.02,0.55-0.05c0.01,0,0.12-0.02,0.18-0.04c0.37,0.18,0.78,0.17,1.12-0.08c0.36-0.28,0.49-0.76,0.31-1.18
		c-0.07-0.16-0.18-0.29-0.3-0.39c1.69-1.65,1.01-5.32-2.04-5.32C165.98,128.67,165.97,134.77,169.9,134.77z"/>
	<path class="st5" d="M186.04,132.39c4.02,0,4.03-6.25,0-6.25C182.02,126.14,182.01,132.39,186.04,132.39z"/>
	<path class="st5" d="M192.78,130.92c3.71,0,3.72-5.77,0-5.77C189.07,125.16,189.06,130.92,192.78,130.92z"/>
	<path class="st5" d="M198.9,131.43c3.57,0,3.58-5.55,0-5.55C195.33,125.88,195.32,131.43,198.9,131.43z"/>
	<path class="st5" d="M183.79,102.41c3.8,0,3.81-5.91,0-5.91C179.99,96.5,179.98,102.41,183.79,102.41z"/>
	<path class="st5" d="M191.76,90.46c3.4,0,3.41-5.29,0-5.29C188.35,85.17,188.35,90.46,191.76,90.46z"/>
	<path class="st5" d="M180.32,78.23c3.7,0,3.7-5.74,0-5.74C176.62,72.48,176.62,78.23,180.32,78.23z"/>
	<path class="st5" d="M168.68,78.8c4.17,0,4.18-6.49,0-6.49C164.51,72.32,164.5,78.8,168.68,78.8z"/>
	<path class="st5" d="M159.29,69.09c3.23,0,3.24-5.03,0-5.03C156.05,64.06,156.05,69.09,159.29,69.09z"/>
	<path class="st5" d="M145.6,94.48c3.06,0,3.84-3.53,2.35-5.34c3.13-1.06,2.76-6.5-1.13-6.5c-3.24,0-4.04,3.79-2.4,5.66
		C141.54,89.38,141.92,94.48,145.6,94.48z"/>
	<path class="st5" d="M132.74,102.74c4.23,0,4.24-6.58,0-6.58C128.5,96.16,128.5,102.74,132.74,102.74z"/>
	<path class="st5" d="M137.43,114.43c3.24,0,3.49-4.64,0.74-5.35c0.58-0.73,0.27-2.12-0.95-2.12c-1.28,0-1.56,1.54-0.85,2.23
		C133.97,110.16,134.32,114.43,137.43,114.43z"/>
	<path class="st5" d="M158.41,139.58c-0.47-0.6-1.19-1-2.19-1c-0.99,0-1.71,0.41-2.18,1H158.41z"/>
	<path class="st5" d="M146.43,139.58c-0.5-0.72-1.32-1.22-2.47-1.22c-1.14,0-1.96,0.5-2.46,1.22H146.43z"/>
	<path class="st5" d="M131.49,139.58h2.09c2.94-0.98,2.6-6.08-1.04-6.08C128.9,133.49,128.55,138.6,131.49,139.58z"/>
	<path class="st5" d="M73.68,139.58c-0.22-0.26-0.54-0.43-0.98-0.43c-0.44,0-0.76,0.17-0.98,0.43H73.68z"/>
	<path class="st5" d="M78.98,139.58c0.8-1.66,0.01-4.13-2.4-4.13c-2.4,0-3.19,2.47-2.4,4.13H78.98z"/>
	<path class="st5" d="M91.82,139.58h3.01c2.43-1.33,1.93-5.88-1.51-5.88C89.9,133.7,89.39,138.25,91.82,139.58z"/>
	<path class="st5" d="M91.28,126.29c3.26,0,3.27-5.07,0-5.07C88.02,121.22,88.01,126.29,91.28,126.29z"/>
	<path class="st5" d="M114.15,123.65c1.97,0,1.97-3.06,0-3.06C112.18,120.59,112.18,123.65,114.15,123.65z"/>
	<path class="st5" d="M108.23,116.58c3.13,0,3.13-4.86,0-4.86C105.11,111.73,105.1,116.58,108.23,116.58z"/>
	<path class="st5" d="M101.08,110.99c1.97,0,1.97-3.06,0-3.06C99.11,107.93,99.11,110.99,101.08,110.99z"/>
	<path class="st5" d="M106.39,100.03c1.7,0,2.28-1.74,1.74-2.93c0.46,0.45,1.1,0.75,1.94,0.75c3.73,0,3.73-5.79,0-5.79
		c-2.52,0-3.34,2.65-2.44,4.37c-0.31-0.26-0.72-0.42-1.24-0.42C103.81,96.01,103.8,100.03,106.39,100.03z"/>
	<path class="st5" d="M126.2,119.22c3.63,0,3.64-5.65,0-5.65C122.57,113.58,122.56,119.22,126.2,119.22z"/>
	<path class="st5" d="M112.73,75.51c3.62,0,3.62-5.62,0-5.62C109.11,69.89,109.1,75.51,112.73,75.51z"/>
	<path class="st5" d="M127.02,78.42c3.42,0,3.42-5.31,0-5.31C123.6,73.11,123.6,78.42,127.02,78.42z"/>
	<path class="st5" d="M132.94,75.52c3.63,0,3.64-5.65,0-5.65C129.31,69.88,129.3,75.52,132.94,75.52z"/>
	<path class="st5" d="M134.17,62.86c3.37,0,3.38-5.24,0-5.24C130.79,57.62,130.79,62.86,134.17,62.86z"/>
	<path class="st5" d="M141.52,54.47c3.08,0,3.08-4.79,0-4.79C138.44,49.68,138.43,54.47,141.52,54.47z"/>
	<path class="st5" d="M129.27,44.34c2.93,0,2.93-4.55,0-4.55C126.34,39.79,126.34,44.34,129.27,44.34z"/>
	<path class="st5" d="M127.22,30.63c3.42,0,3.42-5.31,0-5.31C123.81,25.32,123.8,30.63,127.22,30.63z"/>
	<path class="st5" d="M121.91,23.98c3.26,0,3.27-5.07,0-5.07C118.65,18.91,118.64,23.98,121.91,23.98z"/>
	<path class="st5" d="M122.32,17.27c3.83,0,3.84-5.96,0-5.96C118.49,11.32,118.48,17.27,122.32,17.27z"/>
	<path class="st5" d="M126.41,11.09c2.97,0,2.98-4.62,0-4.62C123.44,6.47,123.43,11.09,126.41,11.09z"/>
	<path class="st5" d="M105.99,16.18c3.74,0,3.75-5.82,0-5.82C102.24,10.37,102.24,16.18,105.99,16.18z"/>
	<path class="st5" d="M96.39,13.58c3.02,0,3.02-4.69,0-4.69C93.37,8.89,93.36,13.58,96.39,13.58z"/>
	<path class="st5" d="M83.52,20.72c3.02,0,3.02-4.69,0-4.69C80.5,16.03,80.5,20.72,83.52,20.72z"/>
	<path class="st5" d="M75.35,31.14c4.33,0,4.33-6.72,0-6.72C71.03,24.41,71.02,31.14,75.35,31.14z"/>
	<path class="st5" d="M75.35,43.1c4.48,0,4.49-6.96,0-6.96c-0.01,0-0.01,0-0.02,0c-0.08-0.66-0.55-1.27-1.41-1.27
		c-1.38,0-1.76,1.55-1.13,2.41C71.17,39.25,72.02,43.1,75.35,43.1z"/>
	<path class="st5" d="M95.16,36.18c3.99,0,3.99-6.2,0-6.2C91.17,29.98,91.17,36.18,95.16,36.18z"/>
	<path class="st5" d="M105.99,38.78c3.65,0,3.66-5.67,0-5.67C102.34,33.11,102.33,38.78,105.99,38.78z"/>
	<path class="st5" d="M100.68,53.17c2.73,0,2.73-4.24,0-4.24C97.95,48.94,97.95,53.17,100.68,53.17z"/>
	<path class="st5" d="M101.49,70.63c3.91,0,3.92-6.08,0-6.08C97.58,64.55,97.58,70.63,101.49,70.63z"/>
	<path class="st5" d="M93.53,71.19c3.57,0,3.58-5.55,0-5.55C89.96,65.64,89.95,71.19,93.53,71.19z"/>
	<path class="st5" d="M82.3,60.75c1.97,0,1.97-3.06,0-3.06C80.33,57.69,80.32,60.75,82.3,60.75z"/>
	<path class="st5" d="M59.02,67.95c2.3,0,3.24-2.12,2.81-3.85c3.77-0.16,3.72-6.09-0.16-6.09c-2.34,0-3.29,2.17-2.84,3.92
		C55.14,62.12,55.19,67.95,59.02,67.95z"/>
	<path class="st5" d="M70.25,73.82c2.23,0,2.24-3.47,0-3.47C68.02,70.35,68.01,73.82,70.25,73.82z"/>
	<path class="st5" d="M79.23,74.78c3.73,0,3.73-5.79,0-5.79C75.51,68.99,75.5,74.78,79.23,74.78z"/>
	<path class="st5" d="M88.83,88.94c3.82,0,3.83-5.93,0-5.93C85.01,83.01,85.01,88.94,88.83,88.94z"/>
	<path class="st5" d="M75.35,105.42c4.27,0,4.27-6.63,0-6.63C71.09,98.79,71.08,105.42,75.35,105.42z"/>
	<path class="st5" d="M76.38,115.49c3.82,0,3.83-5.93,0-5.93C72.56,109.55,72.55,115.49,76.38,115.49z"/>
	<path class="st5" d="M50.64,79.14c0.13,0,0.25-0.01,0.37-0.04c0.25,1.38,1.29,2.59,3.1,2.59c4.22,0,4.23-6.56,0-6.56
		c-1.02,0-1.78,0.38-2.31,0.96c-0.28-0.27-0.66-0.45-1.16-0.45C48.4,75.65,48.4,79.14,50.64,79.14z"/>
	<path class="st5" d="M56.36,94.2c3.5,0,3.5-5.43,0-5.43C52.87,88.77,52.86,94.2,56.36,94.2z"/>
	<path class="st5" d="M40.43,94.58c3.45,0,3.45-5.36,0-5.36C36.98,89.22,36.98,94.58,40.43,94.58z"/>
	<path class="st5" d="M34.72,80.71c2.16,0,2.16-3.35,0-3.35C32.56,77.35,32.56,80.71,34.72,80.71z"/>
	<path class="st5" d="M23.89,85.54c4.17,0,4.18-6.49,0-6.49C19.72,79.05,19.71,85.54,23.89,85.54z"/>
	<path class="st5" d="M8.58,91.07c2.83,0,3.75-2.97,2.76-4.89c0.49-0.01,0.98-0.13,1.44-0.4c0.33-0.19,0.61-0.44,0.83-0.72
		c0.03,0,0.05,0.02,0.08,0.02c0.72,0,0.88-0.85,0.49-1.25c0.02-0.09,0.04-0.18,0.05-0.27c0.13-0.95-0.15-1.87-0.84-2.56
		c-0.38-0.38-0.83-0.64-1.35-0.78c-0.54-0.15-1.08-0.15-1.62,0c-1.46,0.22-2.98,1.08-3.19,2.66c-0.09,0.69,0.1,1.31,0.49,1.81
		C4.41,85.49,4.69,91.07,8.58,91.07z"/>
	<path class="st5" d="M6.74,103.57c4.25,0,4.26-6.6,0-6.6C2.49,96.97,2.48,103.57,6.74,103.57z"/>
	<path class="st5" d="M4.7,121.69c3.91,0,3.92-6.08,0-6.08C0.79,115.61,0.78,121.69,4.7,121.69z"/>
	<path class="st5" d="M6.33,134.43c3.5,0,3.5-5.43,0-5.43C2.84,129,2.83,134.43,6.33,134.43z"/>
	<path class="st5" d="M22.26,129.96c4.05,0,4.06-6.29,0-6.29C18.21,123.67,18.2,129.96,22.26,129.96z"/>
	<path class="st5" d="M31.65,122.68c3.88,0,3.89-6.03,0-6.03C27.77,116.65,27.77,122.68,31.65,122.68z"/>
	<path class="st5" d="M26.08,109.92c0.35,0.96,1.18,1.72,2.51,1.72c3.6,0,3.61-5.6,0-5.6c-1.33,0-2.16,0.76-2.51,1.72
		C25.2,108.14,25.2,109.55,26.08,109.92z"/>
	<path class="st5" d="M50.85,108.77c4.37,0,4.38-6.8,0-6.8C46.48,101.98,46.47,108.77,50.85,108.77z"/>
	<path class="st5" d="M50.85,119.66c3.4,0,3.41-5.29,0-5.29C47.45,114.37,47.44,119.66,50.85,119.66z"/>
	<path class="st5" d="M44.71,129.52c-2.56,1.61-1.95,6.54,1.85,6.54c4.33,0,4.52-6.42,0.57-6.99c0.49-0.97,0.03-2.45-1.39-2.45
		C44.07,126.61,43.73,128.66,44.71,129.52z"/>
	<path class="st5" d="M55.2,139.58c-0.41-0.99-1.32-1.76-2.72-1.76c-1.4,0-2.3,0.77-2.71,1.76H55.2z"/>
	<path class="st5" d="M66.37,130.12c3.73,0,3.73-5.79,0-5.79C62.64,124.33,62.64,130.12,66.37,130.12z"/>
	<path class="st5" d="M114.91,139.58c0.36-0.51,0.61-1.16,0.58-1.76c-0.07-1.61-1.31-2.98-2.98-2.98c-0.76,0-1.57,0.33-2.11,0.87
		c-0.52,0.52-0.91,1.36-0.87,2.11c0.03,0.65,0.26,1.26,0.62,1.76H114.91z"/>
	<g>
		<path class="st5" d="M203.74,111.23c-0.01,0.02-0.01,0.03-0.02,0.05C203.71,111.3,203.71,111.3,203.74,111.23z"/>
		<path class="st5" d="M201.72,110.77c0.02,0.06,0.04,0.12,0.05,0.19c0.02,0.12,0.03,0.12,0.03,0.01c0.01,0.12,0.03,0.23,0.05,0.35
			c0.02,0.04,0.03,0.07,0.04,0.1c0.07,0.65,0.87,0.94,1.36,0.49c0.03-0.03,0.05-0.04,0.06-0.05c0.03-0.03,0.08-0.06,0.15-0.11
			c0.14-0.14,0.2-0.29,0.27-0.46c0.02-0.06,0.09-0.26,0.1-0.32c0.03-0.16,0.04-0.31,0.03-0.47c-0.05-0.65-0.54-1.16-1.23-1.06
			C202,109.5,201.53,110.14,201.72,110.77z"/>
	</g>
	<path class="st5" d="M202.55,123.51c0.17,0.45,0.7,0.64,1.08,0.29c0.11-0.11,0.23-0.22,0.34-0.32c0.02-0.01,0.07-0.05,0.09-0.07
		c0.08-0.04,0.21-0.11,0.02-0.04c0.36-0.15,0.65-0.36,0.76-0.76c0.09-0.34,0.02-0.68-0.2-0.95c-0.49-0.63-1.37-0.52-1.8,0.11
		C202.53,122.27,202.34,122.94,202.55,123.51z"/>
	<path class="st5" d="M199.11,124.49c1.21,0,1.21-1.88,0-1.88C197.9,122.61,197.89,124.49,199.11,124.49z"/>
	<path class="st5" d="M182.97,104.75c1.3,0,1.3-2.02,0-2.02C181.67,102.73,181.67,104.75,182.97,104.75z"/>
	<path class="st5" d="M177.46,103.83c0.91,0,0.91-1.41,0-1.41C176.55,102.42,176.55,103.83,177.46,103.83z"/>
	<path class="st5" d="M177.87,113.26c0.68,0,0.68-1.06,0-1.06C177.18,112.19,177.18,113.26,177.87,113.26z"/>
	<path class="st5" d="M177.46,119.06c0.79,0,0.8-1.23,0-1.23C176.67,117.83,176.66,119.06,177.46,119.06z"/>
	<path class="st5" d="M177.46,127.18c0.21,0,0.21-0.33,0-0.33C177.25,126.85,177.25,127.18,177.46,127.18z"/>
	<path class="st5" d="M176.31,130.29c0.15,0.44,0.27,0.87,0.37,1.33c0.08,0.36,0.65,0.36,0.73,0c0.1-0.46,0.22-0.89,0.37-1.33
		c0.16-0.48-0.27-0.97-0.74-0.97C176.58,129.31,176.15,129.81,176.31,130.29z"/>
	<path class="st5" d="M162.55,139.36c1.42,0,1.43-2.21,0-2.21C161.13,137.15,161.13,139.36,162.55,139.36z"/>
	<path class="st5" d="M159.69,136.56c0.45,0,0.45-0.7,0-0.7C159.24,135.86,159.24,136.56,159.69,136.56z"/>
	<path class="st5" d="M168.07,117.2c1.55,0,1.55-2.41,0-2.41C166.51,114.79,166.51,117.2,168.07,117.2z"/>
	<path class="st5" d="M183.18,88.06c1.38,0,1.38-2.14,0-2.14C181.8,85.92,181.8,88.06,183.18,88.06z"/>
	<path class="st5" d="M185.83,81.14c1.4,0,1.41-2.18,0-2.18C184.43,78.96,184.43,81.14,185.83,81.14z"/>
	<path class="st5" d="M185.22,74.98c0.04,0,0.04-0.06,0-0.06C185.18,74.92,185.18,74.98,185.22,74.98z"/>
	<path class="st5" d="M160.71,71.5c0.04,0,0.04-0.06,0-0.06C160.68,71.44,160.68,71.5,160.71,71.5z"/>
	<path class="st5" d="M159.29,95.37c2.11,0,2.11-3.27,0-3.27C157.18,92.1,157.18,95.37,159.29,95.37z"/>
	<path class="st5" d="M150.91,96.66c1.4,0,1.41-2.18,0-2.18C149.51,94.48,149.51,96.66,150.91,96.66z"/>
	<path class="st5" d="M148.26,76.55c1.54,0,1.55-2.4,0-2.4C146.71,74.16,146.71,76.55,148.26,76.55z"/>
	<path class="st5" d="M145.6,68.98c1,0,1-1.55,0-1.55C144.61,67.43,144.6,68.98,145.6,68.98z"/>
	<path class="st5" d="M146.01,56.87c1.71,0,1.71-2.66,0-2.66C144.3,54.22,144.3,56.87,146.01,56.87z"/>
	<path class="st5" d="M149.89,57.76c1.53,0,1.54-2.38,0-2.38C148.36,55.37,148.36,57.76,149.89,57.76z"/>
	<path class="st5" d="M144.58,61.5c0.04,0,0.04-0.06,0-0.06C144.54,61.44,144.54,61.5,144.58,61.5z"/>
	<path class="st5" d="M131.1,61.91c0.04,0,0.04-0.06,0-0.06C131.06,61.85,131.06,61.91,131.1,61.91z"/>
	<path class="st5" d="M125.39,55.98c0.04,0,0.04-0.06,0-0.06C125.35,55.92,125.35,55.98,125.39,55.98z"/>
	<path class="st5" d="M117.63,57.48c1.7,0,1.7-2.64,0-2.64C115.93,54.84,115.92,57.48,117.63,57.48z"/>
	<path class="st5" d="M109.87,59.83c1.3,0,1.3-2.02,0-2.02C108.56,57.8,108.56,59.83,109.87,59.83z"/>
	<path class="st5" d="M119.87,59.25c1.61,0,1.61-2.5,0-2.5C118.26,56.75,118.26,59.25,119.87,59.25z"/>
	<path class="st5" d="M127.63,63.85c1.23,0,1.23-1.91,0-1.91C126.4,61.94,126.4,63.85,127.63,63.85z"/>
	<path class="st5" d="M122.73,62.73c1.63,0,1.63-2.53,0-2.53C121.11,60.2,121.1,62.73,122.73,62.73z"/>
	<path class="st5" d="M121.51,49.51c1.69,0,1.69-2.63,0-2.63C119.82,46.88,119.81,49.51,121.51,49.51z"/>
	<path class="st5" d="M125.59,41c1.52,0,1.52-2.35,0-2.35C124.08,38.64,124.07,41,125.59,41z"/>
	<path class="st5" d="M132.13,36.1c1,0,1-1.55,0-1.55C131.13,34.55,131.13,36.1,132.13,36.1z"/>
	<path class="st5" d="M140.91,42.91c1.61,0,1.61-2.5,0-2.5C139.3,40.41,139.3,42.91,140.91,42.91z"/>
	<path class="st5" d="M137.64,36.81c1.64,0,1.65-2.56,0-2.56C135.99,34.25,135.99,36.81,137.64,36.81z"/>
	<path class="st5" d="M131.1,27.94c1.79,0,1.8-2.79,0-2.79C129.31,25.15,129.31,27.94,131.1,27.94z"/>
	<path class="st5" d="M128.65,17.68c0.8,0,1.28-0.51,1.43-1.11c1.17-0.2,1.1-2.12-0.2-2.12c-0.28,0-0.51,0.09-0.67,0.24
		c-0.16-0.06-0.34-0.1-0.55-0.1C126.67,14.59,126.66,17.68,128.65,17.68z"/>
	<path class="st5" d="M113.13,18.05c1.94,0,1.94-3.02,0-3.02C111.19,15.03,111.19,18.05,113.13,18.05z"/>
	<path class="st5" d="M104.76,23.77c1.41,0,1.42-2.2,0-2.2C103.35,21.57,103.34,23.77,104.76,23.77z"/>
	<path class="st5" d="M108.23,28.44c1.13,0,1.13-1.75,0-1.75C107.11,26.69,107.1,28.44,108.23,28.44z"/>
	<path class="st5" d="M90.87,22.39c2.01,0,2.02-3.13,0-3.13C88.86,19.26,88.86,22.39,90.87,22.39z"/>
	<path class="st5" d="M88.42,18.33c1.52,0,1.52-2.35,0-2.35C86.91,15.98,86.91,18.33,88.42,18.33z"/>
	<path class="st5" d="M77.6,23.61c2,0,2.01-3.12,0-3.12C75.6,20.5,75.59,23.61,77.6,23.61z"/>
	<path class="st5" d="M65.55,46.22c1.92,0,1.92-2.99,0-2.99C63.63,43.23,63.63,46.22,65.55,46.22z"/>
	<path class="st5" d="M63.31,50.37c1.76,0,1.76-2.73,0-2.73C61.55,47.65,61.55,50.37,63.31,50.37z"/>
	<path class="st5" d="M60.45,53.86c1.52,0,1.52-2.35,0-2.35C58.93,51.51,58.93,53.86,60.45,53.86z"/>
	<path class="st5" d="M78.83,55.73c0.77,0,0.77-1.19,0-1.19C78.06,54.54,78.06,55.73,78.83,55.73z"/>
	<path class="st5" d="M90.47,51.66c1.84,0,1.84-2.86,0-2.86C88.63,48.81,88.62,51.66,90.47,51.66z"/>
	<path class="st5" d="M92.3,59.06c1.64,0,1.64-2.54,0-2.54C90.67,56.52,90.67,59.06,92.3,59.06z"/>
	<path class="st5" d="M88.63,69.28c1.64,0,1.65-2.56,0-2.56C86.98,66.72,86.98,69.28,88.63,69.28z"/>
	<path class="st5" d="M100.27,74.38c1.64,0,1.64-2.54,0-2.54C98.63,71.84,98.63,74.38,100.27,74.38z"/>
	<path class="st5" d="M104.96,79.61c1.79,0,1.8-2.79,0-2.79C103.17,76.82,103.17,79.61,104.96,79.61z"/>
	<path class="st5" d="M92.92,90.25c2.09,0,2.09-3.25,0-3.25C90.83,87.01,90.82,90.25,92.92,90.25z"/>
	<path class="st5" d="M88.83,90.41c0.71,0,0.71-1.11,0-1.11C88.12,89.3,88.12,90.41,88.83,90.41z"/>
	<path class="st5" d="M71.88,78.49c1.15,0,1.15-1.78,0-1.78C70.74,76.71,70.74,78.49,71.88,78.49z"/>
	<path class="st5" d="M67.19,71.83c1.52,0,1.52-2.35,0-2.35C65.67,69.48,65.67,71.83,67.19,71.83z"/>
	<path class="st5" d="M60.65,73.55c0.04,0,0.04-0.06,0-0.06C60.61,73.49,60.61,73.55,60.65,73.55z"/>
	<path class="st5" d="M135.39,83.25c0.96,0,0.96-1.49,0-1.49C134.43,81.75,134.43,83.25,135.39,83.25z"/>
	<path class="st5" d="M121.89,93.37c-0.59,0.52-0.38,1.77,0.64,1.77c1.28,0,1.29-2,0-2c-0.01,0-0.02,0-0.03,0
		c0.47-0.47,0.28-1.51-0.59-1.51C120.81,91.64,120.8,93.35,121.89,93.37z"/>
	<path class="st5" d="M117.63,98.78c1.51,0,1.51-2.34,0-2.34C116.12,96.44,116.12,98.78,117.63,98.78z"/>
	<path class="st5" d="M110.63,102.65c0.25,0.89,1.55,1.37,2.21,0.58c0.14-0.16,0.25-0.32,0.34-0.48c0.19-0.25,0.31-0.52,0.22-0.86
		c-0.09-0.33-0.33-0.5-0.62-0.62c-0.16-0.1-0.33-0.18-0.52-0.25C111.29,100.66,110.38,101.74,110.63,102.65z"/>
	<path class="st5" d="M134.5,88.23c0.18,0.41,0.76,0.48,1.11,0.29c0.52-0.29,0.83-0.77,1.16-1.24c0.51-0.72-0.02-1.77-0.81-1.98
		c-0.85-0.23-1.69,0.43-1.71,1.3C134.25,87.17,134.26,87.69,134.5,88.23z"/>
	<path class="st5" d="M140.7,112.16c0.59,0,0.59-0.92,0-0.92C140.11,111.24,140.11,112.16,140.7,112.16z"/>
	<path class="st5" d="M149.07,113.63c1.43,0,1.43-2.23,0-2.23C147.64,111.41,147.64,113.63,149.07,113.63z"/>
	<path class="st5" d="M141.93,121.78c1.4,0,1.41-2.18,0-2.18C140.52,119.6,140.52,121.78,141.93,121.78z"/>
	<path class="st5" d="M133.55,126.22c1.34,0,1.34-2.08,0-2.08C132.21,124.14,132.21,126.22,133.55,126.22z"/>
	<path class="st5" d="M129.88,130.3c1.6,0,1.6-2.48,0-2.48C128.28,127.82,128.28,130.3,129.88,130.3z"/>
	<path class="st5" d="M138.78,139.58h1.39c0.52-0.55,0.29-1.71-0.69-1.71C138.5,137.87,138.27,139.03,138.78,139.58z"/>
	<path class="st5" d="M46.34,139.58h1.67c1.12-0.72,0.85-2.89-0.83-2.89C45.49,136.69,45.22,138.85,46.34,139.58z"/>
	<path class="st5" d="M59.02,129.1c1.63,0,1.63-2.53,0-2.53C57.39,126.57,57.39,129.1,59.02,129.1z"/>
	<path class="st5" d="M75.35,129.48c0.8,0,0.81-1.25,0-1.25C74.55,128.23,74.55,129.48,75.35,129.48z"/>
	<path class="st5" d="M81.48,132.99c1.9,0,1.91-2.96,0-2.96C79.58,130.03,79.57,132.99,81.48,132.99z"/>
	<path class="st5" d="M81.48,124.61c2.15,0,2.16-3.35,0-3.35C79.33,121.26,79.32,124.61,81.48,124.61z"/>
	<path class="st5" d="M82.3,115.09c2,0,2-3.1,0-3.1C80.3,111.99,80.3,115.09,82.3,115.09z"/>
	<path class="st5" d="M97,114.14c1.03,0,1.04-1.61,0-1.61C95.97,112.53,95.96,114.14,97,114.14z"/>
	<path class="st5" d="M107.62,128.53c1.94,0,1.94-3.02,0-3.02C105.68,125.51,105.68,128.53,107.62,128.53z"/>
	<path class="st5" d="M102.31,130.22c1.76,0,1.76-2.73,0-2.73C100.55,127.49,100.55,130.22,102.31,130.22z"/>
	<path class="st5" d="M71.68,102.34c0.04,0,0.04-0.06,0-0.06C71.64,102.28,71.64,102.34,71.68,102.34z"/>
	<path class="st5" d="M65.55,107.1c2.23,0,2.23-3.46,0-3.46C63.33,103.64,63.32,107.1,65.55,107.1z"/>
	<path class="st5" d="M97.2,98.89c0.85,0,0.85-1.32,0-1.32C96.35,97.57,96.35,98.89,97.2,98.89z"/>
	<path class="st5" d="M95.98,106.27c2.2,0,2.2-3.42,0-3.42C93.78,102.85,93.78,106.27,95.98,106.27z"/>
	<path class="st5" d="M65.14,91.06c1.28,0,1.29-2,0-2C63.86,89.06,63.86,91.06,65.14,91.06z"/>
	<path class="st5" d="M61.26,81.42c0.98,0,0.98-1.52,0-1.52C60.28,79.9,60.28,81.42,61.26,81.42z"/>
	<path class="st5" d="M58.61,70.8c0.45,0,0.45-0.7,0-0.7C58.16,70.1,58.16,70.8,58.61,70.8z"/>
	<path class="st5" d="M42.88,85.7c1.49,0,1.49-2.31,0-2.31C41.4,83.39,41.39,85.7,42.88,85.7z"/>
	<path class="st5" d="M38.6,80.08c2.14,0,2.15-3.33,0-3.33C36.45,76.75,36.45,80.08,38.6,80.08z"/>
	<path class="st5" d="M31.86,80.83c1.52,0,1.53-2.37,0-2.37C30.33,78.46,30.33,80.83,31.86,80.83z"/>
	<path class="st5" d="M28.79,92.86c2.03,0,2.04-3.16,0-3.16C26.76,89.7,26.76,92.86,28.79,92.86z"/>
	<path class="st5" d="M25.93,97.46c2.16,0,2.17-3.36,0-3.36C23.77,94.1,23.77,97.46,25.93,97.46z"/>
	<path class="st5" d="M19.2,97.37c0.95,0,1.39-0.77,1.34-1.51c0.09,0.02,0.19,0.04,0.3,0.04c1.48,0,1.48-2.3,0-2.3
		c-0.71,0-1.08,0.53-1.1,1.08c-0.16-0.06-0.33-0.1-0.53-0.1C17.4,94.59,17.4,97.37,19.2,97.37z"/>
	<path class="st5" d="M15.93,103.81c1.67,0,1.68-2.6,0-2.6C14.26,101.21,14.25,103.81,15.93,103.81z"/>
	<path class="st5" d="M21.44,110.7c0.81,0,0.81-1.26,0-1.26C20.63,109.44,20.63,110.7,21.44,110.7z"/>
	<path class="st5" d="M19.6,121.1c1.84,0,1.84-2.86,0-2.86C17.77,118.24,17.76,121.1,19.6,121.1z"/>
	<path class="st5" d="M17.15,125.47c1.95,0,1.95-3.03,0-3.03C15.2,122.44,15.2,125.47,17.15,125.47z"/>
	<path class="st5" d="M35.74,116.38c2.07,0,2.07-3.22,0-3.22C33.67,113.16,33.66,116.38,35.74,116.38z"/>
	<path class="st5" d="M45.74,116.44c1.1,0,1.1-1.71,0-1.71C44.64,114.73,44.64,116.44,45.74,116.44z"/>
	<path class="st5" d="M43.91,125.75c2.04,0,2.05-3.17,0-3.17C41.86,122.57,41.86,125.75,43.91,125.75z"/>
	<path class="st5" d="M57.79,118.89c1.1,0,1.1-1.71,0-1.71C56.69,117.18,56.69,118.89,57.79,118.89z"/>
	<path class="st5" d="M61.88,114.19c1.62,0,1.62-2.51,0-2.51C60.26,111.67,60.26,114.19,61.88,114.19z"/>
	<path class="st5" d="M64.12,117.16c1.51,0,1.51-2.34,0-2.34C62.62,114.82,62.61,117.16,64.12,117.16z"/>
	<path class="st5" d="M23.89,100.81c1.49,0,1.49-2.31,0-2.31C22.41,98.5,22.4,100.81,23.89,100.81z"/>
	<path class="st5" d="M32.92,127.21c-1.4,0.53-1.21,3,0.57,3c1.87,0,1.99-2.72,0.35-3.07c1.04-0.5,0.85-2.4-0.56-2.4
		C31.79,124.74,31.67,126.86,32.92,127.21z"/>
	<path class="st5" d="M26.34,130.62c1.74,0,1.74-2.7,0-2.7C24.61,127.92,24.6,130.62,26.34,130.62z"/>
	<path class="st5" d="M31.04,131.97c1.38,0,1.38-2.14,0-2.14C29.66,129.83,29.66,131.97,31.04,131.97z"/>
	<path class="st5" d="M49.01,123.11c2.06,0,2.06-3.2,0-3.2C46.95,119.91,46.95,123.11,49.01,123.11z"/>
	<path class="st5" d="M54.12,130.87c1.8,0,1.8-2.8,0-2.8C52.31,128.07,52.31,130.87,54.12,130.87z"/>
	<path class="st5" d="M26.55,115.74c0.46,0,0.46-0.72,0-0.72C26.09,115.02,26.08,115.74,26.55,115.74z"/>
	<path class="st5" d="M19.6,102.76c1.37,0,1.37-2.13,0-2.13C18.24,100.64,18.23,102.76,19.6,102.76z"/>
	<path class="st5" d="M12.25,95.61c1.37,0,1.37-2.13,0-2.13C10.89,93.49,10.88,95.61,12.25,95.61z"/>
	<path class="st5" d="M17.97,82.53c0.04,0,0.04-0.06,0-0.06C17.93,82.47,17.93,82.53,17.97,82.53z"/>
	<path class="st5" d="M23.89,77.29c1.97,0,1.97-3.06,0-3.06C21.92,74.23,21.92,77.29,23.89,77.29z"/>
	<path class="st5" d="M30.02,77.39c1.57,0,1.57-2.44,0-2.44C28.45,74.95,28.45,77.39,30.02,77.39z"/>
	<path class="st5" d="M15.11,100.33c2.18,0,2.18-3.39,0-3.39C12.93,96.94,12.93,100.33,15.11,100.33z"/>
	<path class="st5" d="M14.91,113.73c1.56,0,1.56-2.43,0-2.43C13.35,111.31,13.34,113.73,14.91,113.73z"/>
	<path class="st5" d="M15.52,117.04c0.04,0,0.04-0.06,0-0.06C15.48,116.98,15.48,117.04,15.52,117.04z"/>
	<path class="st4" d="M33.49,102.21c0.3,0,0.54-0.1,0.71-0.26c0.16,0.64,0.67,1.19,1.53,1.19c2.13,0,2.13-3.3,0-3.3
		c-0.61,0-1.04,0.28-1.3,0.66c-0.17-0.32-0.48-0.55-0.95-0.55C32.04,99.96,32.04,102.21,33.49,102.21z"/>
	<path class="st4" d="M32.67,107.65c1.88,0,1.88-2.91,0-2.91C30.8,104.73,30.8,107.65,32.67,107.65z"/>
	<path class="st4" d="M41.05,120.23c0.46,0,0.46-0.72,0-0.72C40.58,119.51,40.58,120.23,41.05,120.23z"/>
	<path class="st4" d="M45.34,122.42c0.12,0,0.12-0.19,0-0.19C45.21,122.23,45.21,122.42,45.34,122.42z"/>
	<path class="st4" d="M43.91,127.93c0.91,0,0.91-1.41,0-1.41C43,126.52,43,127.93,43.91,127.93z"/>
	<path class="st4" d="M28.59,130.9c1.84,0,1.84-2.86,0-2.86C26.75,128.04,26.75,130.9,28.59,130.9z"/>
	<path class="st4" d="M22.67,124.07c1.99,0,1.99-3.09,0-3.09C20.68,120.98,20.68,124.07,22.67,124.07z"/>
	<path class="st4" d="M12.25,122.49c2.05,0,2.05-3.19,0-3.19C10.2,119.3,10.2,122.49,12.25,122.49z"/>
	<path class="st4" d="M16.54,91.73c1.88,0,1.89-2.93,0-2.93C14.66,88.8,14.65,91.73,16.54,91.73z"/>
	<path class="st4" d="M27.36,85.79c1.61,0,1.61-2.5,0-2.5C25.76,83.29,25.75,85.79,27.36,85.79z"/>
	<path class="st4" d="M49.62,80.8c1.49,0,1.49-2.31,0-2.31C48.14,78.49,48.13,80.8,49.62,80.8z"/>
	<path class="st4" d="M69.64,65.34c1.57,0,1.57-2.44,0-2.44C68.07,62.9,68.06,65.34,69.64,65.34z"/>
	<path class="st4" d="M77.4,61.84c1.01,0,1.01-1.57,0-1.57C76.39,60.28,76.39,61.84,77.4,61.84z"/>
	<path class="st4" d="M80.46,73.89c2.06,0,2.06-3.2,0-3.2C78.4,70.69,78.4,73.89,80.46,73.89z"/>
	<path class="st4" d="M80.66,82.72c1.33,0,1.33-2.07,0-2.07C79.33,80.65,79.33,82.72,80.66,82.72z"/>
	<path class="st4" d="M83.11,85.19c2.14,0,2.15-3.33,0-3.33C80.97,81.86,80.97,85.19,83.11,85.19z"/>
	<path class="st4" d="M96.59,51.65c0.24,0,0.24-0.37,0-0.37C96.35,51.27,96.35,51.65,96.59,51.65z"/>
	<path class="st4" d="M113.75,48.73c1.75,0,1.75-2.71,0-2.71C112,46.02,112,48.73,113.75,48.73z"/>
	<path class="st4" d="M94.75,46.74c2.07,0,2.07-3.22,0-3.22C92.68,43.52,92.68,46.74,94.75,46.74z"/>
	<path class="st4" d="M92.51,44.45c1.76,0,1.76-2.73,0-2.73C90.75,41.72,90.75,44.45,92.51,44.45z"/>
	<path class="st4" d="M92.3,36.1c2.3,0,2.3-3.58,0-3.58C90,32.52,90,36.1,92.3,36.1z"/>
	<path class="st4" d="M95.57,29.38c1.81,0,1.81-2.81,0-2.81C93.76,26.57,93.76,29.38,95.57,29.38z"/>
	<path class="st4" d="M102.92,22.94c1.66,0,1.67-2.58,0-2.58C101.26,20.35,101.26,22.94,102.92,22.94z"/>
	<path class="st4" d="M129.88,26.6c2.17,0,2.17-3.37,0-3.37C127.71,23.23,127.7,26.6,129.88,26.6z"/>
	<path class="st4" d="M140.09,44.35c1.63,0,1.63-2.53,0-2.53C138.46,41.83,138.46,44.35,140.09,44.35z"/>
	<path class="st4" d="M142.74,53.79c1.42,0,1.43-2.21,0-2.21C141.32,51.58,141.32,53.79,142.74,53.79z"/>
	<path class="st4" d="M147.65,47.11c0.02,0,0.03-0.01,0.04-0.01c0.05,0.46,0.38,0.89,0.98,0.89c1.32,0,1.32-2.05,0-2.05
		c-0.27,0-0.48,0.09-0.64,0.22c-0.09-0.09-0.21-0.16-0.38-0.16C146.93,46.01,146.93,47.11,147.65,47.11z"/>
	<path class="st4" d="M146.01,45.24c1.19,0,1.19-1.85,0-1.85C144.82,43.39,144.82,45.24,146.01,45.24z"/>
	<path class="st4" d="M137.43,37.46c1.69,0,1.69-2.63,0-2.63C135.74,34.83,135.74,37.46,137.43,37.46z"/>
	<path class="st4" d="M163.78,64.17c1.64,0,1.64-2.54,0-2.54C162.14,61.63,162.14,64.17,163.78,64.17z"/>
	<path class="st4" d="M168.47,66.58c1.58,0,1.58-2.46,0-2.46C166.89,64.12,166.89,66.58,168.47,66.58z"/>
	<path class="st4" d="M174.4,70.59c1.76,0,1.76-2.73,0-2.73C172.64,67.86,172.64,70.59,174.4,70.59z"/>
	<path class="st4" d="M181.54,72.85c0.45,0,0.45-0.7,0-0.7C181.09,72.14,181.09,72.85,181.54,72.85z"/>
	<path class="st4" d="M190.12,76.64c1.4,0,1.4-2.17,0-2.17C188.73,74.47,188.72,76.64,190.12,76.64z"/>
	<path class="st4" d="M195.23,76.81c0.04,0,0.04-0.06,0-0.06C195.19,76.75,195.19,76.81,195.23,76.81z"/>
	<path class="st4" d="M201.56,88.87c1.36,0,1.36-2.11,0-2.11C200.2,86.76,200.2,88.87,201.56,88.87z"/>
	<path class="st4" d="M201.76,96.18c2.1,0,2.1-3.26,0-3.26C199.66,92.92,199.66,96.18,201.76,96.18z"/>
	<path class="st4" d="M200.33,116.72c1.46,0,1.46-2.27,0-2.27C198.87,114.45,198.87,116.72,200.33,116.72z"/>
	<path class="st4" d="M200.74,121.77c1.91,0,1.92-2.97,0-2.97C198.83,118.79,198.82,121.77,200.74,121.77z"/>
	<path class="st4" d="M192.37,113.41c1.93,0,1.93-3,0-3C190.44,110.41,190.43,113.41,192.37,113.41z"/>
	<path class="st4" d="M187.26,101.45c2.04,0,2.05-3.17,0-3.17C185.22,98.27,185.22,101.45,187.26,101.45z"/>
	<path class="st4" d="M179.71,98.58c1.77,0,1.78-2.76,0-2.76C177.93,95.83,177.93,98.58,179.71,98.58z"/>
	<path class="st4" d="M170.31,106.43c0.04,0,0.04-0.06,0-0.06C170.27,106.36,170.27,106.43,170.31,106.43z"/>
	<path class="st4" d="M171.95,106.22c0.04,0,0.04-0.06,0-0.06C171.91,106.16,171.91,106.22,171.95,106.22z"/>
	<path class="st4" d="M171.13,105.61c0.04,0,0.04-0.06,0-0.06C171.09,105.55,171.09,105.61,171.13,105.61z"/>
	<path class="st4" d="M169.5,101.32c0.04,0,0.04-0.06,0-0.06C169.46,101.26,169.46,101.32,169.5,101.32z"/>
	<path class="st4" d="M171.95,89.25c1.33,0,1.33-2.07,0-2.07C170.62,87.19,170.61,89.25,171.95,89.25z"/>
	<path class="st4" d="M170.52,87.04c1.9,0,1.91-2.96,0-2.96C168.61,84.09,168.61,87.04,170.52,87.04z"/>
	<path class="st4" d="M162.35,91.91c2.12,0,2.12-3.29,0-3.29C160.23,88.62,160.23,91.91,162.35,91.91z"/>
	<path class="st4" d="M170.11,104.22c1.93,0,1.93-3,0-3C168.18,101.22,168.17,104.22,170.11,104.22z"/>
	<path class="st4" d="M173.17,109.11c1.91,0,1.92-2.97,0-2.97C171.26,106.13,171.26,109.11,173.17,109.11z"/>
	<path class="st4" d="M169.29,109.59c2,0,2.01-3.12,0-3.12C167.29,106.47,167.28,109.59,169.29,109.59z"/>
	<path class="st4" d="M158.26,101.27c2.08,0,2.08-3.23,0-3.23C156.19,98.04,156.18,101.27,158.26,101.27z"/>
	<path class="st4" d="M152.34,99.84c2.08,0,2.08-3.23,0-3.23C150.26,96.61,150.26,99.84,152.34,99.84z"/>
	<path class="st4" d="M152.75,105.23c1.91,0,1.92-2.97,0-2.97C150.84,102.25,150.83,105.23,152.75,105.23z"/>
	<path class="st4" d="M157.24,117.98c1.77,0,1.78-2.76,0-2.76C155.47,115.23,155.47,117.98,157.24,117.98z"/>
	<path class="st4" d="M156.02,126.83c1.86,0,1.86-2.89,0-2.89C154.16,123.94,154.16,126.83,156.02,126.83z"/>
	<path class="st4" d="M150.3,131.65c0.98,0,1.48-0.75,1.51-1.51c0.82-0.74,0.53-2.47-0.89-2.47c-0.73,0-1.16,0.46-1.3,1
		C148.32,129.28,148.55,131.65,150.3,131.65z"/>
	<path class="st4" d="M169.29,125.44c0.6,0,0.6-0.93,0-0.93C168.69,124.51,168.69,125.44,169.29,125.44z"/>
	<path class="st4" d="M166.23,127.02c2.1,0,2.1-3.26,0-3.26C164.13,123.76,164.13,127.02,166.23,127.02z"/>
	<path class="st4" d="M160.2,139.58c0.05-0.83-0.46-1.69-1.53-1.69c-1.07,0-1.57,0.86-1.53,1.69H160.2z"/>
	<path class="st4" d="M122.53,128.89c0.04,0,0.04-0.06,0-0.06C122.49,128.83,122.49,128.89,122.53,128.89z"/>
	<path class="st4" d="M114.15,125.82c1.87,0,1.87-2.9,0-2.9C112.29,122.91,112.29,125.82,114.15,125.82z"/>
	<path class="st4" d="M112.73,130.73c2.14,0,2.15-3.33,0-3.33C110.58,127.4,110.58,130.73,112.73,130.73z"/>
	<path class="st4" d="M117.01,103.89c1.77,0,1.78-2.76,0-2.76C115.24,101.14,115.24,103.89,117.01,103.89z"/>
	<path class="st4" d="M102.51,103.77c1.35,0,1.35-2.1,0-2.1C101.17,101.67,101.16,103.77,102.51,103.77z"/>
	<path class="st4" d="M93.53,114.39c2.14,0,2.15-3.33,0-3.33C91.39,111.06,91.38,114.39,93.53,114.39z"/>
	<path class="st4" d="M95.78,120.45c2.05,0,2.05-3.19,0-3.19C93.72,117.26,93.72,120.45,95.78,120.45z"/>
	<path class="st4" d="M87.4,113.25c2,0,2-3.1,0-3.1C85.41,110.15,85.4,113.25,87.4,113.25z"/>
	<path class="st4" d="M79.44,136.24c2.14,0,2.15-3.33,0-3.33C77.3,132.91,77.29,136.24,79.44,136.24z"/>
	<path class="st2" d="M0,155.61l0-11.28c1.7-0.1,3.47,0.02,5.04,0.44c1.05,0.29,1.9,0.78,2.83,1.3c0.96,0.54,0.94,0.74,2.23,1.05
		c1.86,0.44,0.9,0.28,2-0.5c0.04-0.02,0.07-0.06,0.11-0.08c0.4-0.29,0.74-0.56,1.05-0.79c0,0,0-0.01,0.01-0.01h0.01
		c0.69-0.51,1.33-0.85,2.55-0.88c1.98-0.06,4.4,0.36,6.28,1c2.01,0.69,3.34,2.08,5.16,1.81c0.01,0.01,0.01,0.01,0.01,0
		c0.47-0.07,0.98-0.25,1.54-0.59c0.7-0.42,1.38-0.93,2.09-1.35c0.01,0,0.01,0,0.01,0c0.58-0.34,1.18-0.62,1.84-0.78
		c1.45-0.34,2.71,0.05,3.97,0.76c0.63,0.36,1.35,1.09,2.08,1.42c0.18,0.08,0.36,0.13,0.53,0.15c1.11,0.12,1.7-0.69,2.61-1.1
		c1.54-0.69,3.26-0.47,4.93-0.2c0.55,0.09,1.09,0.18,1.62,0.25c0.39,0.05,0.77,0.1,1.16,0.15c0.8,0.11,1.61,0.21,2.41,0.32
		c1.41,0.18,2.81,0.34,4.23,0.44c0.36,0.02,0.71,0.04,1.06,0.05h0.02c1.05,0.04,2.06,0,3.08-0.1c0.01,0,0.03-0.01,0.04-0.01h0.03
		c1.68-0.17,3.33-0.52,5.02-1.07c1.86-0.61,3.7-1.23,5.68-1.02c0.85,0.09,1.64,0.31,2.43,0.57h0.01c1,0.33,1.98,0.73,3,1
		c0.01,0.01,0.01,0.01,0.02,0.01c0.88,0.23,1.76,0.38,2.73,0.31c2.37-0.18,4.58-1.25,6.96-1.45c2.14-0.18,4.1,0.34,6.13,0.99
		c1.32,0.43,2.56,0.75,3.81,0.93c0.91,0.13,1.84,0.18,2.81,0.15c0.02,0.01,0.03,0,0.04,0c0.58-0.02,1.18-0.07,1.8-0.15
		c2-0.27,4.01-0.4,6.02-0.45c1.59-0.04,3.19-0.04,4.78-0.01c1.75,0.02,3.5,0.07,5.25,0.09c0,0,0.01,0,0.01,0
		c0.09,0.01,0.19,0.01,0.28,0.01c0.13,0,0.25,0.02,0.35,0.06c0,0,0.01,0,0.01,0c0.11,0.04,0.21,0.09,0.3,0.15
		c4.31-0.62,7.43-3.01,11.88-1.13c1.06,0.45,2.05,1,3.04,1.45l0.01,0.01h0.01c1.34,0.61,2.71,1.02,4.35,0.72
		c1.35-0.25,2.63-0.74,3.96-0.94c0,0,0.01,0,0.01,0h0.01c0.64-0.1,1.29-0.13,1.96-0.04c0.72,0.1,1.35,0.41,2.06,0.55
		c2.02,0.41,2.56-0.36,4.25-0.97c0.57-0.2,1.08-0.35,1.57-0.41h0.01c0.81-0.1,1.57-0.01,2.52,0.35c0.77,0.29,1.46,0.8,2.21,1.14
		c0.18,0.09,0.37,0.16,0.56,0.21c0.17,0.05,0.33,0.09,0.48,0.11c1.14,0.18,1.62-0.39,2.68-1.02c1.68-1.01,3.06-0.96,5.01-0.86
		c0.67,0.04,1.35,0.01,2.04-0.04h0.03c0.2-0.01,0.4-0.03,0.6-0.06c0,0,0,0,0.01,0s0.01,0,0.01,0c3.42-0.37,6.93-1.42,10.25-0.58
		c1.42,0.36,2.3,1.26,3.93,0.83c0.52-0.13,1.56-0.73,2.08-0.91c1.62-0.55,3.34-0.75,5.05-0.62c0,0,0.01,0,0.01,0h0.01
		c0.35,0.02,0.7,0.06,1.05,0.12c0.36,0.06,0.7,0.14,1.02,0.21c0.01,0,0.01,0,0.01,0c0.81,0.2,1.53,0.34,2.45-0.16
		c0.29-0.16,0.49-0.41,0.73-0.64c0.01-0.01,0.01-0.01,0.01-0.01c0.15-0.13,0.3-0.26,0.5-0.34c1.39-0.59,2.49,0.13,3.76,0.58
		c3.23,1.13,4.47-0.61,7.35-1.03c1.23-0.18,2.38-0.07,3.5,0.23v11.7l-7.19,1.23c-1.74-0.69-3.08-0.42-4.91-0.07
		c-0.13,0.02-0.27,0.05-0.4,0.07c-1.57,0.29-3.09,0.44-4.71,0.2c-0.43-0.06-0.84-0.13-1.23-0.2c-1.61-0.28-2.97-0.53-4.55,0
		c-0.33,0.11-0.67,0.25-1.02,0.44c-2.78,1.46-4.59,1.69-7.53,0.51c-1.3-0.53-2.31-0.86-3.3-0.95c-0.37-0.04-0.74-0.04-1.11,0
		c-0.78,0.07-1.61,0.31-2.63,0.72c-1.4,0.56-2.71,1.11-4.25,1.14c-2.11,0.02-4.12-1.04-6.22-0.96c-1.9,0.07-3.48,1.35-5.37,1.51
		c-2.67,0.23-4.81-1.45-7.15-2.41c-0.91-0.37-1.84-0.64-2.86-0.65c-1.35-0.01-2.65,0.27-3.93,0.65c-2.65,0.77-5.22,1.94-8.06,1.77
		c-4.92-0.3-8.69-2.94-13.69-0.88c-0.21,0.09-0.41,0.11-0.58,0.09c-1.21,0.64-2.54,0.6-3.9,0.14c-0.95-0.32-1.75-0.84-2.7-1.12
		c-0.12-0.04-0.24-0.07-0.37-0.1c-0.96-0.21-1.77-0.13-2.57,0.1c-0.74,0.21-1.46,0.55-2.26,0.91c-4.21,1.89-7.39,1.27-11.77,0.44
		c-3-0.57-5.3-0.09-8.18,0.66c-1.61,0.42-3.25,0.74-4.91,0.43c-1.83-0.33-3.33-1.4-5.02-2.13c-0.31-0.13-0.61-0.24-0.91-0.31
		c-1.05-0.28-2.02-0.22-2.99,0c-0.96,0.21-1.91,0.59-2.93,0.96c-1.56,0.57-3.13,1.02-4.8,0.72c-0.69-0.13-1.3-0.41-1.95-0.66
		c-1.54-0.58-2.74-0.51-4.37-0.26c-1.78,0.28-3.23,0.07-4.98-0.39c-2.84-0.74-5.11-0.21-7.92,0.38c-3.15,0.67-5.61,0.06-8.36-0.75
		c-0.83-0.25-1.68-0.5-2.59-0.75c-2.63-0.72-4.91,0.13-7.27,0.75c-1.49,0.39-3.02,0.69-4.69,0.44c-0.69-0.1-1.37-0.26-2.05-0.44
		c-1.67-0.43-3.3-0.99-5.01-1.18c-2.54-0.29-5.01,0.28-7.47,0.86c-0.45,0.11-0.91,0.21-1.35,0.32L0,155.61z"/>
	<path class="st1" d="M0,143.97l0-10.11c1.59-0.21,3.21,0.12,4.79,0.11H4.8c0.67,0,1.34,0.03,1.99,0.11
		c0.26,0.03,0.51,0.06,0.75,0.09c1.49,0.15,2.52,0.09,3.97-0.81c0.62-0.38,1.17-0.7,1.93-0.73c0.88-0.02,1.33,0.48,2.08,0.7
		c1.92,0.59,2.74,0.24,4.42-0.39c1.99-0.74,3.77-0.01,5.61,0.79c2.07,0.91,3.61,1.25,5.72,0.49c1.25-0.45,2.42-1.08,3.71-1.41
		c2-0.49,3.64-0.07,5.5,0.71c1.15,0.48,2.14,0.94,3.19,0.93c0.57-0.01,1.16-0.16,1.8-0.53c0.9-0.52,1.68-1.08,2.73-1.29
		c0.62-0.12,1.21-0.13,1.76-0.05c0.75,0.1,1.45,0.36,2.12,0.73c0.23,0.13,0.45,0.27,0.67,0.42c0.13,0,0.28,0.02,0.44,0.08
		c2.73,1.05,4.48,0.31,6.95-0.85c1.21-0.57,2.34-0.92,3.69-0.7c1.09,0.17,2,0.73,2.99,1.18c1.24,0.55,2.32,0.97,3.69,0.95
		c1.27-0.02,2.03-0.55,3.2-0.87c1.45-0.4,2.93-0.24,4.42,0.04c0.96,0.18,1.91,0.39,2.86,0.53c1.08,0.16,2.17,0.22,3.25-0.01
		c2.95-0.62,3.73,0.42,6.29,1.52c0.09,0.04,0.18,0.08,0.27,0.12c0.01,0,0.01,0.01,0.01,0.01c0.15-0.01,0.31,0.02,0.48,0.09
		c0.94,0.39,2.11-1.08,3.08-1.96c0.26-0.23,0.5-0.42,0.72-0.52c0.81-0.37,1.68-0.45,2.55-0.39c0,0,0,0,0.01,0
		c0.04,0.01,0.09,0.01,0.13,0.01c0.01,0,0.02,0,0.04,0.01c0.11,0.01,0.23,0.02,0.34,0.04c1.4,0.18,2.53,0.85,3.85,1.28
		c2.18,0.71,3.9,0.17,6.06-0.18c3.1-0.5,6.26,0.22,9.38-0.1c0.09-0.01,0.18-0.02,0.27-0.02c1.46-0.15,2.87-0.32,4.28-0.26
		c1.17,0.05,2.33,0.26,3.49,0.77c1.56,0.69,2.66,1.48,4.07,1.5c0.56,0.01,1.18-0.12,1.89-0.42c0.94-0.4,1.78-1.07,2.76-1.4
		c0.07-0.02,0.13-0.04,0.2-0.06c2.8-0.85,4.53,0.79,7.18,1.45c2.95,0.74,5.64-1.68,8.62-1.24c1.23,0.18,2.73,1.41,3.96,1.13
		c1.13-0.26,1.44-0.97,2.65-0.98h0.09c0.06,0,0.1,0.01,0.16,0.02h0.02c2.43-0.46,3.36,1.12,5.36,1.73c0.14,0.04,0.29,0.09,0.45,0.12
		c1.32,0.28,2.46-0.75,3.67-1.11c1.07-0.32,2.17-0.3,3.27-0.2c0.02,0,0.05,0.01,0.07,0.01h0.01c0.77,0.08,1.51,0.21,2.24,0.29
		c0.93,0.1,1.85,0.13,2.82-0.12c1.09-0.28,2.04-0.81,3.18-0.85c0.83-0.03,1.5,0.17,2.25,0.5c1.71,0.75,2.86,0.75,4.49-0.04
		c1.86-0.88,3.05-1.04,5.04-0.34c1.12,0.39,2.3,1.24,3.52,1.21c1.3-0.03,2.36-1.14,3.56-1.55c2.13-0.74,3.7,0.67,5.76,0.59
		c2.15-0.09,4.08-0.51,6.12-0.65v9.89c-0.56,0.21-1.13,1.31-1.76,1.27c-1.27-0.09-2.39-0.81-3.75-0.57c-1.19,0.21-2,0.78-3.29,0.67
		c-0.99-0.08-1.89-0.43-2.83-0.75c-1.35-0.44-2.38-0.39-3.49-0.12c0,0,0,0-0.01,0.01c-0.48,0.11-0.97,0.26-1.51,0.43
		c-0.57,0.18-1.11,0.32-1.67,0.36c0,0,0,0-0.01,0c-0.37,0.02-0.75,0.01-1.15-0.09c-0.32-0.07-0.62-0.16-0.91-0.25h-0.01
		c-0.01,0-0.01,0-0.01,0c-1.05-0.3-2.02-0.6-3.25-0.39c-1.61,0.27-3.23,1.05-4.77,1.57c-0.39,0.13-0.72,0.06-0.97-0.11
		c-0.69-0.17-1.39-0.68-2.11-1.05c-1.34-0.7-2.02,0.02-3.34,0.12c-0.54,0.04-0.98-0.12-1.51-0.18c-1.73-0.2-1.81-0.15-3.13,0.55
		c-0.84,0.45-1.56,0.67-2.22,0.77c-0.01,0-0.01,0-0.01,0s-0.01,0-0.01,0c-0.2,0.02-0.4,0.04-0.6,0.06h-0.03
		c-1.15,0.04-2.27-0.22-3.84-0.31c-1.91-0.1-2.84,1.27-4.48,1.78c-0.47,0.15-0.94,0.21-1.4,0.21c-0.35,0.01-0.7-0.02-1.04-0.09
		c-0.38-0.06-0.76-0.15-1.14-0.27c-0.59-0.18-1.16-0.45-1.73-0.69c-0.69-0.28-1.28-0.45-1.85-0.53h-0.01
		c-1.07-0.16-2.03,0.01-3.29,0.37c-0.87,0.26-1.5,0.76-2.47,0.66c-1.51-0.15-1.87-0.8-3.55-0.33c-0.18,0.05-0.36,0.1-0.53,0.17
		h-0.01c-0.01,0-0.01,0-0.01,0c-1.53,0.5-3.03,1.26-4.61,1.53c-1.83,0.31-2.71-0.4-3.71-1.31h-0.01l-0.01-0.01
		c-0.42-0.39-0.86-0.81-1.41-1.21c-3.36-2.44-7.68-1.37-11.3-0.12c-0.81,0.7-1.64,0.89-2.51,0.86c-0.01,0-0.01,0-0.01,0
		c-0.21-0.01-0.42-0.03-0.63-0.06c-0.01,0-0.01,0-0.01,0c-0.63-0.09-1.29-0.27-1.98-0.43c-1.23-0.3-2.25,0.01-3.27,0.35
		c-1.19,0.4-2.36,0.85-3.85,0.4c-0.32-0.1-0.62-0.24-0.93-0.39c-0.33-0.16-0.66-0.32-1.04-0.42c-1.37-0.38-2.32,0.01-3.64,0.36
		c-1.07,0.29-2.06,0.57-3.14,0.67c-0.01,0-0.02,0.01-0.04,0c-0.27,0.03-0.55,0.04-0.83,0.04c-0.69,0-1.34-0.07-1.97-0.19
		c-1.78-0.35-3.37-1.15-4.96-2.16c-3.81-2.43-7.42,0.56-11.3,1.32c-1.26,0.25-2.33,0.26-3.37,0.07c-0.01,0.01-0.02,0-0.02-0.01
		c-0.98-0.17-1.94-0.52-3-1h-0.01c-0.01-0.01-0.02-0.01-0.04-0.02c-3.71-1.66-7.93,0.32-11.7,1.23c-0.47,0.12-0.93,0.22-1.39,0.31
		H60.5c-0.01,0-0.03,0.01-0.04,0.01c-0.86,0.16-1.71,0.24-2.62,0.16c-0.15-0.01-0.3-0.03-0.45-0.06h-0.02
		c-1.79-0.26-3.43-1.05-5.29-0.7c-0.09,0.01-0.18,0.03-0.27,0.06c-0.42,0.1-0.77,0-1.03-0.21c-0.37,0.02-0.75,0.05-1.11,0.05
		c-0.89,0.02-1.78-0.05-2.78-0.4c-0.14-0.05-0.29-0.11-0.43-0.17c-2.18-0.93-3.32-0.48-5.31,0.57c-0.74,0.39-1.49,0.72-2.32,0.75
		c-0.13,0.01-0.26,0.01-0.4-0.01c-0.83-0.07-1.47-0.45-2.14-0.89c-0.32-0.21-0.63-0.57-0.96-0.74c-1.33-0.69-2.46-0.43-3.79,0
		c-0.2,0.06-0.4,0.14-0.6,0.24c0,0,0,0-0.01,0c-1.14,0.52-2.38,1.42-3.63,1.94c-0.01,0.01-0.01,0.01-0.01,0
		c-0.82,0.35-1.65,0.53-2.46,0.33c-1.2-0.29-2.01-1.54-3.17-1.91c-1.53-0.5-3.33,0.06-4.91,0.03c-0.96-0.02-2.42-0.58-3.46-0.37
		h-0.01c-0.01,0-0.01,0.01-0.01,0.01c-0.18,0.03-0.34,0.09-0.48,0.17c-0.23,0.13-0.4,0.37-0.57,0.62c-0.22,0.33-0.45,0.69-0.82,0.89
		c-1.53,0.8-2.36-0.17-3.56-0.94C5.79,145.18,2.76,143.89,0,143.97z"/>
	<path class="st3" d="M0,144.58l0-2.45c1.79-0.12,3.58,1.1,5.39,1.38c1.26,0.2,2.68,0.4,3.77,1.11c1.08,0.71,2.27,1.48,2.96-0.14
		c0.28-0.65,0.85-0.75,1.35-0.55c2.78,0.06,5.81-0.19,8.53,0.28c1.76,0.31,3.06,2.52,4.8,2.31c1.97-0.25,3.41-2.49,5.32-3.09
		c1.49-0.47,2.84-0.2,4.17,0.55c0.72,0.4,1.32,1.08,2.06,1.43c1.74,0.81,2.49-0.25,3.79-1.09c1.05-0.68,2.03-0.74,3.21-0.28
		c1.23,0.48,1.82,1.38,3.29,1.57c1.1,0.13,2.32-0.25,3.4-0.37c0.02,0,0.03-0.01,0.05-0.01c2.31-0.23,3.93,0.62,6.14,1.04
		c4.2,0.8,7.72-2.79,11.81-3.23c1.69-0.18,3.12,0.21,4.65,0.85c1.62,0.67,2.89,1.46,4.72,1.45c1.68-0.01,3.07-0.69,4.59-1.27
		c1.78-0.69,3.56-1.35,5.5-0.89c2.66,0.64,4.64,2.43,7.54,2.58c2.52,0.13,4.55-1.1,6.95-1.3c1.75-0.15,6.05,2.62,7.04,1.22
		c0.31-0.44,0.76-0.58,1.18-0.53c0.92-0.71,1.61-0.6,2.74-0.28c2.04,0.58-0.85,0.72,2.18,0.64c1.4-0.04,1.17-0.09,2.19-0.53
		c1-0.43,1.87-1.04,2.93-1.36c1.92-0.57,3.99-0.61,5.94-0.13c2.26,0.55,3.79,2.11,5.86,3.01c3.01,1.3,4.56-0.91,7.34-1.15
		c2.14-0.19,3.55,1.4,5.69,0.34c1.2-0.6,1.88-1.29,3.32-1.2c1.23,0.07,2.36,0.67,3.45,1.18c0.98,0.45,1.92,1.08,3.01,1.04
		c0.09,0,0.17-0.01,0.26-0.02c1.21-0.18,1.59-1.07,2.56-1.74c0.92-0.64,1.83-0.81,2.93-0.58c0.9,0.19,1.72,0.91,2.6,1.06
		c1.08,0.18,1.78-0.5,2.73-0.77c2.06-0.57,3.91,0.13,5.95-0.84c1.19-0.56,2.16-1.32,3.52-0.77c0.51,0.21,0.78,0.62,1.19,0.96
		c0.21,0.17,0.29,0.69,0.53,0.8c0.98,0.47,2.7-0.09,3.54-0.51c1.55-0.77,2.63-1.7,4.5-1.45c1.6,0.21,3.09,1.64,4.66,1.2
		c1.27-0.36,1.89-1.39,3.35-1.32c1.24,0.06,2.13,0.79,3.25,1.17c2.14,0.72,2.49-0.91,4.4-1.04c0.74-0.06,1.34,0.23,2.05,0.4
		c1.4,0.33,2.69-0.88,4.03-1.12v2.45c-0.6,0.1-1.21,1.45-1.83,1.44c-1.15-0.01-2.25-0.53-3.35-0.55c-1.5-0.03-2.33,1.39-3.9,1.36
		c-1.57-0.02-2.67-1.3-4.12-1.53c-1.61-0.25-2.65,1.5-4.33,1.43c-2.24-0.09-3.82-1.95-6.11-1.14c-1.56,0.56-2.65,1.89-4.36,2.16
		c-1.45,0.23-2.33-0.22-3.42-1.09c-0.99-0.78-1.13-1.15-2.36-0.74c-0.73,0.24-1.28,0.78-2.05,0.97c-0.88,0.22-1.69,0.08-2.57,0.08
		c-1.34,0-2.41,0.56-3.65,0.83c-1.26,0.28-2.13,0.02-3.33-0.47c-2.65-1.09-2.89,0.79-5.02,1.64c-0.53,0.21-1.09,0.29-1.65,0.27
		c-0.37-0.01-0.74-0.07-1.11-0.15c-1.58-0.37-2.89-1.49-4.44-1.9c-2.16-0.58-2.74,1.04-4.56,1.51c-2.11,0.55-3.89-1.15-6.04-0.71
		c-1.63,0.33-2.89,1.44-4.62,1.49c-1.85,0.06-3.42-0.95-4.93-1.89c-2.43-1.52-4.89-2.46-7.78-1.73c-2.1,0.53-3.77,2.22-5.93,2.54
		c-0.37,0.05-4.12-1.01-3.66-1.4c-0.3,0.25-0.64,0.34-0.95,0.3c-0.74,0.88-1.65,1.32-2.9,1.32c-0.69,0.01-1.31-0.2-1.95-0.42
		c-1.97-0.7-3.33-1.29-5.56-0.84c-2.37,0.48-4.28,1.08-6.76,0.72c-2.55-0.37-5.04-2.51-7.48-2.6c-2.68-0.1-5.1,1.98-7.76,2.26
		c-2.29,0.24-4.13-0.47-6.18-1.34c-2.86-1.21-4.73-0.99-7.53,0.2c-1.9,0.8-3.76,1.81-5.82,2.16c-2.29,0.38-3.82-0.43-5.99-0.94
		c-0.96-0.22-1.89-0.17-2.82-0.06c-1.45,0.17-2.87,0.49-4.34,0.2c-0.83-0.16-1.35-0.58-2.11-0.85c-0.64-0.59-1.43-0.79-2.36-0.58
		c-0.36,0.37-0.73,0.74-1.11,1.08c-1.12,0.85-2.27,1.13-3.62,0.69c-1.45-0.47-2.4-1.87-3.8-2.37c-2.87-1-4.78,2.36-7.3,2.97
		c-1.95,0.46-2.7-0.25-4.25-1.18c-2.71-1.63-6.14-1.29-9.3-1.32c-0.86,1.56-2.34,2.78-4.23,1.85c-1.77-0.88-2.62-1.98-4.77-2.32
		C3.25,145.67,1.63,144.47,0,144.58z"/>
</g>
</svg>
