<?xml version="1.0" encoding="utf-8"?>
<!-- Generator: Adobe Illustrator 25.2.3, SVG Export Plug-In . SVG Version: 6.00 Build 0)  -->
<svg version="1.1" id="Layer_1" xmlns="http://www.w3.org/2000/svg" xmlns:xlink="http://www.w3.org/1999/xlink" x="0px" y="0px"
	 viewBox="0 0 156 156" style="enable-background:new 0 0 156 156;" xml:space="preserve">
<style type="text/css">
	.st0{fill:#D6AD29;}
	.st1{fill:#A5B508;}
	.st2{fill:#B79D1D;}
	.st3{fill:#557507;}
	.st4{fill:#C6A028;}
	.st5{fill:#E2BD23;}
</style>
<g>
	<path class="st0" d="M156.42,15.29v73.2c-19.1-0.16-36.97,9.5-49.04,24.03c0,0,0,0-0.01,0.01c-1.76,2.11-3.39,4.33-4.88,6.64
		c0,0.01,0,0.01-0.01,0.01c-0.39,0.59-0.76,1.19-1.12,1.79c-1.28,2.11-2.45,4.29-3.48,6.52v0.01c-1.09,2.33-2.04,4.72-2.84,7.15
		c-1.3,3.95-2.22,8.02-2.7,12.17c0.01,0.01,0,0.01,0,0.01c-0.06,0.5-0.12,0.98-0.15,1.48c0,0,0,0,0,0.01
		c-0.21,2.26-0.29,4.54-0.23,6.83c0.01,0.23,0.01,0.46,0.02,0.69c0.01,0.01,0.01,0.01,0,0.02c0.01,0.18,0.01,0.37,0.02,0.56h-78.2
		c0.92-16.45,3.95-32.79,9.41-48.35c4.16-11.89,9.69-23.37,16.45-34.02c1.14-1.82,2.33-3.61,3.57-5.38
		c0.14-0.22,0.29-0.43,0.45-0.66c0.14-0.2,0.28-0.39,0.42-0.59c1.11-1.56,2.27-3.07,3.48-4.54c0.36-0.45,0.73-0.88,1.09-1.32
		c0.66-0.77,1.33-1.53,2-2.28c1.89-2.09,3.88-4.08,5.93-6c0.92-0.87,1.86-1.71,2.81-2.55c2.08-1.82,4.22-3.59,6.41-5.3
		c0.91-0.71,1.83-1.41,2.75-2.1c1.54-1.16,3.1-2.29,4.67-3.4c1.38-0.98,2.76-1.94,4.16-2.89c0.15-0.1,0.3-0.2,0.45-0.31
		c1.74-1.18,3.5-2.33,5.29-3.45c2.35-1.46,4.74-2.87,7.18-4.22c2.14-1.18,4.32-2.31,6.52-3.39c0.88-0.43,1.77-0.85,2.65-1.26
		c2.27-1.05,4.57-2.03,6.89-2.95c1.27-0.5,2.54-0.98,3.83-1.44c2.89-1.02,5.8-1.94,8.75-2.72c1.13-0.3,2.27-0.58,3.4-0.84
		c1.88-0.43,3.77-0.81,5.67-1.13c2.15-0.37,4.32-0.66,6.49-0.86c1.72-0.17,3.44-0.28,5.17-0.34
		C145.23,13.93,150.84,14.28,156.42,15.29z"/>
	<path class="st1" d="M156.42,85.33v18.98c-2.15,0.31-4.56-0.4-6.28-1.46c-0.12-0.06-0.22-0.12-0.32-0.2
		c-0.42-0.15-0.83-0.38-1.22-0.72c-0.9-0.78-1.32-1.15-2.24-1.38c-0.09,0.23-0.18,0.45-0.28,0.67c-0.62,1.26-1.55,2.22-2.83,2.8
		c-1.39,0.64-2.98,0.76-4.48,0.43c-0.84-0.19-2.01-1.21-2.47-0.39c-0.5,0.87-1.43,1.26-2.35,1.24c-1.15,1.21-2.56,2.31-3.82,3.29
		c-0.95,0.73-1.96,1.38-3.13,1.69c-0.61,0.09-1.2,0.18-1.8,0.25c-0.21-0.01-0.38-0.02-0.51-0.02c0.04,0.09-1.46,1.56-1.85,1.77
		c-1.16,0.63-2.26,0.57-3.48,0.86c-2.51,0.6-4.2,3.42-5.01,5.85V119c-0.04,0.57-0.24,1.16-0.67,1.75c-0.02,0.04,0.15,2.03,0.07,2.46
		c-0.18,0.88-0.51,1.64-1.06,2.36c-0.96,1.23-2.65,1.65-3.53,2.83c-1.07,1.44-1.39,3.75-2.08,5.54c0.34,1.03,0.32,2.17-0.25,3.13
		c-0.95,1.6-2.08,3.01-3.53,4.18c-0.94,0.76-2.77,1.35-2.75,2.78c0.02,1.3,1.75,2.47,2.36,3.62c0.83,1.54,1.04,3.25,1.02,4.97v0.04
		c0.34,0.41,0.57,0.94,0.63,1.6c0.03,0.36,0.06,0.72,0.09,1.07c0.03,0.41,0.13,0.78,0.01,1.1h-15.1c-0.77-1.78-0.65-4.22-0.73-5.98
		c-0.01-0.38,0.03-0.72,0.12-1.04c-0.42-2.14-0.28-3.87,0.68-5.58c-0.65-4.42,0.64-8.65,1.96-12.85c1.17-3.69,2.51-7.65,5.09-10.61
		c0.89-1.76,1.9-3.45,3.01-5.12c1.78-2.68,3.61-5.78,6.92-6.61c0.04-0.01,0.08-0.01,0.12-0.02c2.21-2.72,4.52-5.37,7.21-7.63
		c3.4-2.87,7.34-4.59,11.41-6.28c0.77-0.32,1.47-0.34,2.07-0.16c1.77-1.11,3.55-2.2,5.28-3.36c2.64-1.78,5.26-3.25,8.11-4.21
		c0.01-0.01,0.02-0.01,0.02-0.01c1.57-0.54,3.22-0.92,4.97-1.13c1.11-0.13,2.15,0.43,2.89,1.26c1.36-0.56,2.71-1.14,4.1-1.58
		C154.15,85.06,155.39,85.03,156.42,85.33z"/>
	<path class="st2" d="M156.42,82.89v9.46c-2.48,0.43-5,0.94-7.45,1.02c-1.49,0.05-2.51-0.51-3.91-0.7
		c-1.93-0.27-1.54,0.67-2.81,1.47c-2.06,1.29-4.66-0.06-6.88,0.77c-1.47,0.55-2.19,2.12-3.36,3.1c-0.92,0.77-1.96,1.33-3.01,1.89
		c-0.57,0.3-1.12,0.22-1.54-0.05c-1.44,1.68-3.44,3.09-5.39,3.91c-1.19,0.5-2.63,0.43-3.75,0.95c-1.29,0.59-1.98,2.16-2.92,3.23
		c-0.88,1-1.5,1.6-2.06,2.82c-0.35,0.77-0.94,1.34-1.63,1.82c-2.9,2-6.18,1.42-7.4,5.45c-0.84,2.78-2.72,4.06-4.08,6.52
		c-1.52,2.76-0.78,6.21-2.35,9c-0.87,1.54-2.35,2.68-2.94,4.39c-0.56,1.62-0.49,3.6-0.64,5.3c-0.12,1.44-0.18,2.91-0.45,4.33
		c-0.39,2.07-1.82,4.18-1.49,6.36c0.09,0.53-0.12,0.96-0.44,1.25c-0.03,0.03-0.07,0.06-0.1,0.09c0.05,0.2,0.09,0.4,0.13,0.61
		c0.01,0.01,0.01,0.01,0,0.02c0.04,0.18,0.07,0.37,0.1,0.56h-9.03c-0.04-0.09-0.06-0.19-0.06-0.29c0-0.04,0.01-0.09,0.01-0.12
		c-0.42-1.15-0.56-2.39-0.12-3.59c0.6-1.61,1.47-2.6,1.63-4.45c0.08-0.89-0.04-1.76,0.17-2.63c0.17-0.69,0.51-1.21,0.81-1.83
		c0.93-1.98,0.65-2.96,0.81-4.94c0.14-1.73,0.8-2.41,1.53-3.81c0.93-1.78,0.37-3.94,1.5-5.67c0.41-0.62,1.14-0.88,1.53-1.41
		c0.78-1.08,0.58-2.25,0.95-3.44c0.42-1.37,1.17-2.01,2.08-2.94c0.5-0.5,0.3-0.12,0.65-0.73c0.4-0.7,0.52-1.89,0.89-2.69
		c0.11-0.24,0.27-0.4,0.45-0.51c0.05-2.06,2.51-2.78,3.19-4.82c0.31-0.94,0.16-1.64,1-2.36c0.88-0.77,2.33-0.6,3.15-1.35
		c1.75-1.6,1.03-4.19,3.52-5.36c1.29-0.61,1.58,0.09,3.17-0.94c0.53-0.34,0.9-0.92,1.41-1.3c0.93-0.7,1.64-0.73,2.66-1.1
		c1.34-0.49,1.82-1.76,2.95-2.53c1.41-0.95,2.47-1.35,3.64-2.63c0.73-0.79,1.42-1.5,2.45-1.87c1.63-0.58,2.4-0.92,3.6-2.3
		c0.84-0.94,1.67-1.66,2.92-2c0.41-0.11,1.26-0.01,1.59-0.2c0.77-0.45,0.43-0.73,0.97-1.29c1.93-2.01,5.26-1.2,7.76-0.89
		c0.43,0.05,0.75,0.25,0.97,0.52c0.01-0.01,0.02-0.01,0.02-0.01c0.4-0.18,0.76-0.39,1.09-0.66c0.41-0.34,0.65-0.81,1.12-1.1
		c1.32-0.83,3.06-0.4,4.52-0.81C150.74,83.49,153.34,82.78,156.42,82.89z"/>
	<path class="st1" d="M156.42-0.33v17.57c-0.5-0.01-1-0.05-1.54-0.13c-0.97-0.15-1.69-0.66-2.51-1.15
		c-0.06-0.04-0.11-0.08-0.17-0.12c-0.78,0.4-1.74,0.51-2.85,0.14c-5.48-1.84-10.98,0.45-16.39,1.49c-1.39,0.26-2.66-0.19-3.59-0.99
		c-4.61,1.26-9.11,2.76-13.92,3.19c-0.27,0.02-0.54,0.04-0.82,0.06c-0.25,0.12-0.5,0.24-0.75,0.37c-0.01,0.01-0.03,0.02-0.04,0.02
		c-2.27,1.24-4.59,2.38-6.98,3.41c-0.58,0.25-1.15,0.35-1.69,0.33c-0.27,0.44-0.67,0.83-1.24,1.09c-5.97,2.84-11.4,6.73-16.81,10.49
		c-0.68,0.47-1.4,0.58-2.07,0.43c-1.8,1.16-3.65,2.24-5.53,3.24c-1.4,1.34-2.7,2.77-3.86,3.86c-2.94,2.76-5.92,5.46-9.19,7.83
		c-0.1,0.65-0.44,1.3-1.12,1.87c-2.96,2.55-5.8,5.23-8.48,8.06c-0.59,0.77-1.19,1.52-1.8,2.27c-0.62,0.77-1.25,1.51-1.9,2.25
		c-0.83,0.94-1.67,1.87-2.55,2.77c-3.2,4.18-6.07,8.63-9.87,12.3c-0.49,0.47-1.06,0.77-1.64,0.92c-1.2,2.93-2.53,5.79-4.08,8.56
		c-0.1,0.19-0.22,0.36-0.34,0.51c-2.62,5.08-5.1,10.23-7.5,15.43c-0.23,0.5-0.54,0.88-0.9,1.16c-1.42,6.19-4.38,12.05-5.91,18.22
		c-0.84,3.39-1.8,6.85-2.63,10.33c-0.03,0.21-0.08,0.42-0.15,0.62c-0.22,0.94-0.43,1.88-0.62,2.83c-0.56,5.1-1,10.21-0.86,15.31
		c0.02,0.91-0.23,1.63-0.65,2.19H-0.03c-0.01-0.04-0.01-0.09-0.01-0.13c-0.01-0.24-0.01-0.47-0.01-0.71
		c-0.01-0.02-0.01-0.04-0.02-0.06c-0.1-0.3-0.18-0.61-0.2-0.9c-0.17-1.9-0.3-4.07,0.2-5.98c0.08-0.31,0.18-0.61,0.29-0.91
		c0.66-1.67,2.37-2.33,3.09-3.78c0.84-1.67-0.2-5.05-0.45-6.74c-0.31-2.15-0.74-4.32-0.9-6.48c-0.16-2.04,0.1-4.18,1.34-5.87
		c0.3-0.4,1.96-1.92,3.3-2.54c-0.48-0.69-0.89-1.43-1.15-2.23c-0.65-2.03-0.6-4.22,0.21-6.18c0.26-0.66,0.64-1.25,1.1-1.73
		c-0.02-2.4,0.53-4.76,1.4-7.06c0.53-1.4,1.2-2.5,2.35-3.45c0.99-0.83,3.11-1.52,3.64-2.79c0.46-1.11,0-2.76,0.3-3.97
		c0.31-1.26,0.92-2.45,1.86-3.36c0.86-0.83,2.16-1.11,2.98-1.89c0.95-0.89,0.76-2.34,0.83-3.64c0.33-5.86-1.79-13.66,2.67-18.39
		c2.37-2.52,5.18-2.61,8.35-3.2c2.85-0.53,3.86-2.96,5.02-5.37c0.39-0.81,0.93-1.35,1.53-1.66c0.54-4.86,4.14-10.71,7.88-13.39
		c2.17-1.55,5-1.38,6.88-3.44c1.69-1.85,2.04-4.49,3.38-6.55c3.4-5.26,9.27-3.88,14.05-6.62c2.44-1.4,3.88-3.98,5.92-5.85
		c2.24-2.06,4.72-3.21,7.73-3.48c1.89-3.1,4.34-5.63,8.19-6.03c0.89-0.1,2.37,0.2,3.17-0.14c0.83-0.36,1.37-1.4,2-2
		c1.58-1.51,3.52-2.47,5.66-2.9c1.99-0.39,4.68,0.11,6.33-0.68c2.17-1.04,3.84-3.03,6.14-4c2.64-1.13,4.71-0.67,7.41-0.1
		c2.37,0.5,4.46,0.39,6.77-0.36c0.76-0.24,1.45-0.26,2.06-0.12c3.44-3.01,10.52-1.62,14.59-1.69c2.16-0.04,4.38-0.28,6.57-0.4
		c1.14-0.07,2.28-0.1,3.4-0.04c0.17,0.01,0.33,0.02,0.49,0.04C156.36-0.34,156.39-0.34,156.42-0.33z"/>
	<path class="st2" d="M156.42,11.33v9.73c-1,0.12-2.03,0.09-2.96,0.03c-1.38-0.09-2.73-0.37-3.98-0.98c-0.7-0.34-1.5-1.18-2.28-1.57
		c-0.79,0.26-1.66,0.28-2.5-0.04c-0.09,0.11-0.25,0.23-0.48,0.37c-0.2,0.17-0.39,0.33-0.59,0.5c-0.79,0.64-1.53,1.11-2.46,1.53
		c-1.67,0.75-3.46,1.05-5.28,0.88c-1.16-0.1-3.36-1.14-4.26-0.72c-1.41,0.65-2.26,2.11-3.84,2.65c-1.75,0.6-3.18,0.05-4.92,0.21
		c-1.38,0.12-2.37,1.3-3.71,1.86c-1.72,0.71-3.3,0.54-5.1,0.61c-1.82,0.07-2.41,1.32-4.09,1.93c-0.89,0.32-1.77,0.39-2.71,0.31
		c-0.21-0.02-1.54-0.34-1.32-0.4c-0.45,0.12-1.58,1.41-1.97,1.68c-0.72,0.5-1.49,0.92-2.33,1.19c-1.28,0.41-3.21,0.11-4.35,0.77
		c-1.2,0.68-1.75,2.49-3,3.31c-1.19,0.78-2.53,1.04-3.92,1.2c-0.47,0.06-1.69-0.04-2.12,0.25c-0.28,0.18-0.9,1.51-1.17,1.79
		c-1.82,1.88-4.41,1.78-6.57,2.98c-0.01,0.01-0.02,0.01-0.03,0.02c-0.39,0.68-1.01,1.26-1.89,1.62c-2.33,0.93-2.85,4.04-4.58,5.62
		c-1.14,1.03-2.1,0.85-3.39,1.34c-0.98,0.37-0.94,0.78-1.54,1.75c-0.6,0.97-1.3,1.81-2.29,2.39c-0.52,0.3-1.02,0.47-1.6,0.6
		c-0.24,0.04-0.5,0.07-0.75,0.1c-0.07,0.29-0.16,0.61-0.18,0.67c-0.2,0.5-0.51,0.96-0.86,1.37c-0.76,0.89-1.74,1.45-2.87,1.73
		c-0.44,0.11-1.04,0.06-1.55,0.12c-0.03,0.09-0.07,0.23-0.1,0.43c-0.16,0.92-0.98,2.09-1.64,2.72c-0.64,0.6-1.43,0.82-2.16,1.13
		c-0.31,0.13-0.6,0.28-0.87,0.48c-0.58,0.43-0.78,1.09-1.03,1.77c-0.1,0.27-0.2,0.53-0.34,0.79c-0.54,1.02-1.04,1.65-1.38,2.72
		c-0.34,1.06-0.51,1.97-1.24,2.86c-0.73,0.91-1.64,1.16-2.54,1.78c-0.4,0.28-0.5,0.35-0.76,0.59c-0.31,0.29-0.59,0.62-0.88,0.94
		c0.18,0.99-0.09,2.05-1.08,2.92c-0.51,0.45-1.05,0.97-1.71,1.22c-0.22,1.04-1.05,2.9-1.17,3.07c-0.42,0.62-1.8,2.31-2.7,2.28
		c0.08,0.52,0.06,1.04-0.06,1.56c-0.28,1.32-1.2,2.51-2.45,3.04c-0.09,0.04-1.31,0.34-1.29,0.31c-0.05,0.08,0.15,1.53,0.12,1.77
		c-0.25,2.07-1.36,3.19-2.89,3.76c-0.03,0.26-0.07,0.52-0.1,0.78c-0.13,0.94-0.34,1.55-0.89,2.29c0,0-0.81,0.96-1.09,1.05
		c0.07,0.55,0.34,1.3,0.37,1.65c0.11,1.57-0.23,3.01-1.22,4.24c-0.42,0.51-1.09,0.85-1.48,1.36c-0.24,0.31-0.43,0.8-0.62,1.26
		c0.18,0.59,0.18,1.28-0.07,2.04c-0.4,1.23-0.97,1.97-1.77,2.96c-0.25,0.24-0.51,0.48-0.76,0.72l0.44-0.06
		c0.02,0.53,0.32,1.12,0.42,1.66c0.4,2.27,0.03,4.7-1.8,6.26c-0.21,0.19-0.84,0.53-1.39,0.78c0.01,0.14,0.01,0.29,0.04,0.47
		c0.11,0.84,0.17,1.57,0.04,2.41c-0.18,1.23-0.66,2.17-1.45,3.13c-0.15,0.19-0.62,0.54-0.86,0.83c0.23,0.01,0.55,1.02,0.57,1.08
		c0.75,2.69-0.43,5.88-1.27,8.4c-0.45,1.33-1.02,2.74-1.05,4.16c-0.03,1.46,0.71,2.2,1.29,3.45c0.6,1.29,0.79,2.62,0.45,4.01
		c-0.04,0.16-0.23,0.93-0.37,1.24c0.18,0.18,0.46,0.66,0.53,0.75c0.94,1.41,1.36,3.05,0.89,4.59h-9.77
		c-0.06-0.3-0.09-0.58-0.12-0.86c-0.17-1.33-0.24-2.65-0.26-3.96c-0.17-1.27-0.04-2.65,0.06-3.58c0.03-0.22,0.1-0.42,0.19-0.58
		c0.04-0.27,0.09-0.53,0.16-0.81c0.1-0.41,0.32-0.67,0.59-0.81c-0.02-0.21-0.05-0.42-0.06-0.63c-0.09-0.32-0.17-0.64-0.22-1
		c-0.31-2.17,0.09-4.29,0.69-6.36c-0.01-0.2-0.03-0.39-0.06-0.59c-0.43-3.04-0.49-5.52,1.22-8.1c-0.02-0.09-0.04-0.21-0.04-0.38
		c-0.02-0.8,0.45-0.99,0.6-1.73c0.15-0.77-0.27-1.03,0.04-1.63c0.07-0.13,0.19-0.3,0.43-0.62c0.17-0.23,0.33-0.45,0.51-0.66
		c0.28-0.17,0.45-0.37,0.48-0.58c0.03-0.16-0.01-0.32-0.1-0.5c0-0.01,0-0.01,0-0.01c-0.04-0.07-0.1-0.15-0.16-0.23
		c0.05-1.76-0.17-3.36,0.59-4.77c0.15-0.28,0.86-0.59,1.14-1.37c0.18-0.48,0.17-0.94,0.13-1.26c0.2-0.47,0.49-1.24,0.71-2.23
		c0.44-2,0.15-2.63,0.75-3.7c0.1-0.17,0.29-0.37,0.51-0.58c0-0.02,0-0.03,0.01-0.05c0.32-0.99,0.64-1.97,0.99-2.93
		c0.19-0.78,0.51-1.54,0.92-2.25c0.72-1.58,1.61-3.08,2.79-4.46c0.01,0,0.01,0,0.01-0.01c-0.09-0.91-0.09-1.73,0.24-2.61
		c0.21-0.56,0.72-1,1.11-1.44c0.17-0.58,0.37-1.16,0.6-1.72c0.01-0.59-0.02-1.22,0.19-1.78c0.39-1.02,0.97-1.66,1.69-2.09
		c0.24-0.45,0.5-0.91,0.75-1.35c0.03-0.18,0.06-0.32,0.07-0.39c0.18-0.77,0.48-1.5,0.91-2.17c0.32-0.49,0.66-0.86,1.02-1.15
		c0.64-1.16,1.28-2.32,1.93-3.48c0.04-0.11,0.09-0.22,0.15-0.33c0.04-0.07,0.1-0.15,0.15-0.22c0.59-1.1,1.18-2.19,1.74-3.31
		c0.27-0.53,0.72-0.72,1.16-0.67c0.32-1.37,1.18-2.39,2.19-3.5c1.83-2.03,3.34-4.18,4.8-6.5c1.6-2.54,3.29-4.93,5.4-6.94
		c0.33-0.48,0.73-0.92,1.22-1.31c0.18-0.13,0.56-0.34,0.97-0.53c0.37-0.27,0.75-0.53,1.16-0.78c0.26-0.16,0.51-0.21,0.74-0.21
		c0.31-0.61,0.48-1.37,0.79-2.02c0.09-0.13,0.17-0.28,0.24-0.43c0.02-0.04,0.06-0.09,0.09-0.13c0.61-0.8,1.42-1.41,2.34-1.79
		c0.03-1.16,0.61-1.82,1.7-2.45c1.22-0.7,2.37-1.22,3.42-1.94c0.06-0.04,0.1-0.07,0.15-0.11c0.01,0,0.01-0.01,0.01-0.01
		c0.61-0.43,1.19-0.94,1.73-1.6c0.97-1.2,1.79-2.33,3.08-3.26c1.27-0.91,2.7-1.33,4.05-2.09c0.13-0.07,0.28-0.12,0.43-0.17
		c1.01-1.41,2.15-2.53,3.48-3.42c1.58-1.57,4.06-2.35,6.08-3.34c2.13-1.05,3.39-3.34,5.35-4.72c1.71-1.21,3.85-1.63,5.89-2
		c0.1-0.02,0.2-0.02,0.3-0.02c0.02-0.03,0.05-0.07,0.08-0.1c0.69-0.77,1.45-1.34,2.38-1.79c0.76-0.38,1.61-0.51,2.46-0.62
		c0.31-0.3,0.63-0.59,0.98-0.88c1.01-0.81,1.99-0.64,3.17-0.67c0.56,0.01,1.82-0.04,3.1-0.85c0.76-0.48,1.25-1.04,1.54-1.45
		c0.03-0.15,0.06-0.31,0.08-0.39c0.29-1.5,1.93-2.56,3.37-2.57c1.52-0.01,3.79-0.25,5.7,0.07c0.16-0.19,0.33-0.36,0.51-0.5
		c0.18-0.14,0.36-0.24,0.55-0.34c0.09-0.12,0.25-0.26,0.48-0.34c0.27-0.09,0.49-0.02,0.61,0c0.77,0.1,1.19-1.52,2.66-2.31
		c0.39-0.21,0.77-0.42,1.26-0.37c1,0.1,1.25,1.15,2.19,1.46c0.48,0.16,1.24,0.17,2.45-0.61c0.07-0.12,0.19-0.29,0.37-0.46
		c0.33-0.32,0.6-0.3,1.06-0.66c0.69-0.51,1.25-0.87,2.05-1.21c2.04-0.85,4.22-0.67,4.22-0.67c1.45,0.12,1.26,0.47,2.68,0.55
		c0.57,0.03,1.76,0.08,3.07-0.43c0.61-0.23,0.87-0.12,2.22-1.3c2.62-2.3,5.32-1.67,8.41-0.65
		C151.69,10.91,154.07,10.75,156.42,11.33z"/>
	<path class="st3" d="M156.42,10.56v2.45c-1.86-0.04-3.53,0.23-5.31-0.43c-2.18-0.8-6-3.05-8.45-2.05c-1.49,0.61-1.8,2.57-3,3.6
		c-0.19,0.16-0.4,0.3-0.64,0.4c-1.34,0.6-3,0.22-4.38-0.03c-0.05-0.01-0.1-0.02-0.15-0.03c-1.11-0.21-2.25-0.55-3.4-0.52
		c-1.42,0.02-2.26,0.59-3.08,1.38c-0.33,0.32-0.66,0.67-1.02,1.04c-0.73,0.75-1.36,1.29-2.49,1.15c-0.94-0.11-1.58-0.63-2.15-1.06
		c-0.84-0.63-1.55-1.05-2.89,0.34c-0.18,0.2-0.35,0.36-0.51,0.5c-0.57,0.54-1.03,0.84-1.69,1.25c-0.08,0.25-0.26,0.47-0.59,0.62
		c-0.4,0.18-0.81,0.35-1.22,0.5c-0.53,0.19-1.07,0.34-1.61,0.45c-0.72,0.14-1.45,0.21-2.21,0.18c-0.46-0.02-0.95-0.15-1.43-0.28
		c-0.51-0.13-1.02-0.26-1.48-0.25c-2.23,0.06-2,0.65-2.35,1.69c-0.05,0.18-0.13,0.37-0.24,0.58c-1.37,2.6-4.21,1.97-6.65,2.36
		c-0.84,0.13-1.63,0.39-2.29,0.94c-0.12,0.1-0.24,0.21-0.36,0.32c-1.06,0.95-1.83,1.97-3.2,2.6c-1.07,0.49-2.19,0.64-3.31,0.78
		c-0.97,0.12-1.93,0.21-2.87,0.5c-2.09,0.64-3.18,2.19-4.3,3.72c-0.91,1.23-1.83,2.45-3.31,3.18c-0.79,0.39-1.61,0.48-2.42,0.58
		c-1,0.1-1.97,0.2-2.88,0.85c-0.81,0.58-1.06,1.3-1.28,2.05c-0.22,0.71-0.42,1.43-1.05,2.09c-1.02,1.07-2.29,0.94-3.57,1.3
		c-0.02,0.01-0.04,0.01-0.05,0.02c-1.52,0.43-2.23,1.19-2.75,2.1c-0.53,0.92-0.85,2.03-1.6,3.16c-0.76,1.15-1.79,2.08-3.2,2.24
		c-0.51,0.06-1-0.11-1.51-0.1h-0.1c-2.22,0.06-2.16,0.83-2.81,2.55c-0.04,0.1-0.07,0.2-0.12,0.31c-0.54,1.37-1.05,2.84-2.11,3.9
		c-0.86,0.86-2.42,1.21-3.7,1.79c-1.04,0.47-1.88,1.1-2,2.28c-0.01,0.05-0.01,0.1-0.01,0.15c-0.03,0.7-0.54,1.09-1.08,1.16
		c-0.45,0.61-0.52,1.62-0.95,2.24c-0.52,0.74-1.31,1.13-1.97,1.72c-0.2,0.18-0.39,0.38-0.56,0.58c-0.33,0.39-0.61,0.81-0.86,1.24
		c-0.9,1.55-1.48,3.33-2.74,4.65c-0.26,0.27-0.54,0.51-0.83,0.73c-0.55,0.42-1.15,0.78-1.75,1.18c-1.68,1.11-2.15,2.32-2.59,4.24
		c-0.45,1.97-1.09,3.3-2.56,4.68c-1.64,1.56-2.22,2.61-2.86,4.65c-0.3,0.95-0.67,1.73-1.25,2.52c-1.14,1.54-2.4,2.47-2.82,4.45
		c-0.26,1.25-0.07,2.57-0.37,3.82c-0.23,0.94-0.62,1.73-1.22,2.47c-1.13,1.41-2.07,2.25-2.2,4.26c-0.07,1.11,0.12,1.86-0.46,2.91
		c-0.81,1.49-1.96,2.36-2.28,4.19c-0.07,0.41-0.29,0.66-0.57,0.79c-1.02,1.93,0.14,4.01-1.07,5.78c-0.27,0.4-0.78,0.57-1.04,0.94
		c-0.6,0.84-0.73,1.48-0.65,2.09c0,0,0,0.01,0,0.01c0.02,0.17,0.06,0.34,0.1,0.5c0.13,0.51,0.37,1.04,0.52,1.68
		c0.31,1.3,0.43,2.66-0.2,3.89c-0.29,0.58-0.81,0.91-1.12,1.43c-0.95,1.59-0.92,2.8-0.48,4.53c0.46,1.81-0.02,3.05-0.38,4.78
		c-0.48,2.31,0.62,4.75-0.41,6.96c-0.21,0.45-0.61,0.79-0.83,1.22c-0.49,0.97-0.32,1.76-0.11,2.96c0.32,1.85,0.21,3.54,0.17,5.42
		h-2.39c0.06-1.08,0.27-2.24,0.15-3.28c-0.13-1.15-0.68-2.04-0.87-3.13c-0.26-1.46,0.18-2.24,0.89-3.34
		c1.25-1.95,0.79-2.88,0.75-5.06c-0.02-0.99,0.07-1.47,0.28-2.41c0.43-1.95,0.44-2.9-0.06-4.83c-0.18-0.69-0.41-1.37-0.38-2.08
		c0.07-1.74,1.06-2.18,1.91-3.49c1.8-2.77-0.44-4.31-0.26-7.02c0.13-2.09,2-2.25,2.4-4.19c0.13-0.64-0.15-1.49-0.04-2.19
		c0.17-1.05,0.58-1.88,1.16-2.75c0.07-0.1,0.14-0.18,0.21-0.25c0.31-1.3,0.89-2.09,1.51-3.29c0.87-1.69,0.57-3.34,0.99-5.04
		c0.24-0.98,0.9-1.69,1.58-2.38c1.41-1.45,2.02-2.63,2.18-4.71c0.2-2.61,0.83-4.09,2.49-6.08c1.39-1.67,1.66-2.98,2.36-4.93
		c0.33-0.92,0.75-1.7,1.42-2.39c1.32-1.37,2.67-1.95,3.23-3.96c0.29-1.03,0.4-2.11,0.82-3.11c1.17-2.82,4.12-3.28,5.73-5.67
		c1.41-2.08,2.02-4.22,3.86-6.01c0.87-0.85,1.44-1.66,2.03-2.7c0.38-0.67,0.59-1.08,1.12-1.47c0.21-1.13,0.7-2.11,1.69-2.88
		c1.87-1.46,3.99-1.07,5.32-3.09c0.09-0.13,0.17-0.28,0.24-0.43c0.02-0.04,0.05-0.09,0.07-0.14c0.77-1.6,1.08-3.86,2.39-5.17
		c1.03-1.03,1.94-0.72,3.26-0.8c3.97-0.23,3.12-2.79,4.9-5.18c0.97-1.3,2.11-1.71,3.66-2.03c1.59-0.32,2.25-0.12,3.03-1.83
		c0.31-0.67,0.23-1.49,0.59-2.16c0.69-1.32,1.75-1.9,3.16-2.18c2.69-0.51,4.32-0.1,6.15-2.58c0.95-1.29,1.72-2.68,3.03-3.65
		c1.5-1.12,3.28-1.43,5.09-1.69c2.85-0.4,4.43-1.26,6.55-3.23c1.06-0.99,2.13-1.65,3.6-1.85c1.16-0.15,2.76,0.39,3.84-0.09
		c1.58-0.69,1.07-1.67,1.72-2.84c0.62-1.11,1.55-1.68,2.83-1.74c2.73-0.13,4.65,1.13,7.35,0.21c0.09-0.13,0.21-0.24,0.37-0.34
		c1.03-0.65,1.5-0.68,2.32-1.78c0.35-0.46,0.56-0.96,1.07-1.33c1.21-0.86,2.67-0.76,3.96-0.21c1.04,0.44,1.49,1.49,2.74,0.99
		c0.62-0.24,1.35-1.58,1.99-2.02c1.41-0.97,3.04-1.19,4.72-1.08c2.72,0.2,4.85,1.78,6.98-0.66c1.28-1.46,1.64-2.55,3.86-2.87
		c1.86-0.26,4.03,0.32,5.79,0.86c1.04,0.31,1.94,0.83,2.95,1.2C153.37,10.75,154.61,10.52,156.42,10.56z"/>
	<path class="st3" d="M156.42,90.75v2.4c-1.12-0.09-2.33-0.21-3.29,0.01c-1.07,0.23-1.8,1.22-2.81,1.49
		c-0.95,0.25-2.17-0.16-3.06-0.43c-1.78-0.55-2.61-1.09-3.94,0.34c-1.3,1.39-1.58,1.5-3.64,1.4c-1.31-0.07-2.96-0.32-4.23,0.07
		c-1.5,0.47-1.8,1.64-2.56,2.79c-0.53,0.8-1.08,1.07-2,1.21c-1.76,0.26-2.69-0.23-4,1.35c-1.35,1.63-1.88,2.87-4.1,3.52
		c-1.03,0.31-2.02,0.25-3.07,0.4c-0.77,0.12-1.77,0.01-2.27,0.85c-0.16,0.26,0.07,0.75-0.05,1.05c-0.32,0.75-0.42,1.18-1.13,1.65
		c-0.24,0.16-0.81,0.23-1.27,0.37c-0.1,0.29-0.34,0.53-0.73,0.63c0,0.01-0.01,0.02-0.01,0.04c0.42,0.17-0.06,2.53-0.26,2.82
		c-0.42,0.64-1.17,1.03-1.88,1.25c-2.04,0.61-4.14,0.65-5.79,2.19c-1.55,1.45-0.99,3.08-1.59,4.81c-0.37,1.07-0.92,1.43-1.75,2.07
		c-1.1,0.85-2.5,1.27-2.73,3.07c-0.1,0.81,0.13,1.67,0.12,2.49c-0.04,3-1.59,5.27-3.36,7.56c-0.12,0.14-0.24,0.24-0.37,0.31
		c-0.01,0.02-0.02,0.04-0.04,0.05c-1.48,1.49-0.95,2.68-1.23,4.47c-0.21,1.29-0.9,2.12-0.87,3.57c0.02,1.09,0.51,2.12,0.55,3.2
		c0.06,1.46-0.46,2.03-1.2,3.16c-1.09,1.67-0.44,3.54-0.29,5.51h-2.51c-0.23-1.8-1.22-4.16-0.37-5.77c0.22-0.42,0.61-0.64,0.84-1
		c0.32-0.51,0.53-0.95,0.66-1.33c0-0.01,0-0.01,0-0.01c0.18-0.56,0.2-1.02,0.15-1.48c0,0,0.01-0.01,0-0.01
		c-0.06-0.65-0.25-1.31-0.27-2.27c-0.04-1.96,0.55-4.04,0.75-5.96c0.2-1.95,0.73-2.47,2.06-3.82c0.06-0.05,0.1-0.09,0.16-0.13
		c0.05-0.04,0.1-0.07,0.16-0.1c0.03-0.05,0.05-0.09,0.09-0.13c1.74-2.25,2.6-3.96,2.6-6.83v-0.1c-0.01-1.42-0.18-2.77,0.43-4.1
		c0.52-1.15,1.29-1.59,2.29-2.24c0.26-0.06,0.51-0.12,0.77-0.18c0.04-0.01,0.08-0.02,0.12-0.03c0.5-0.55,0.83-1.13,1.01-1.76
		c0.01-0.01,0.01-0.01,0.01-0.01c0.11-0.4,0.16-0.83,0.14-1.27c0.1-0.43,0.13-0.88,0.29-1.31c0.66-1.74,2.56-3.2,4.46-4.06
		c0.01-0.01,0.01-0.01,0.01-0.01c0.72-0.32,1.42-0.56,2.07-0.7c1.19-0.24,1.89-0.29,2.32-1.67c0.11-0.36-0.06-0.83,0.08-1.23
		c0.09-0.24,0.19-0.44,0.32-0.62c0.21-0.42,0.53-0.73,1.03-1.01c1.51-0.83,1.28-0.29,1.89-2.01c0.7-1.93,2.21-2.33,4.13-2.42
		c1.94-0.09,3.77-0.16,5.03-1.82c0.71-0.94,0.97-2.09,1.98-2.8c0.94-0.67,1.87-0.51,2.92-0.66c2.11-0.31,1.63-1.02,2.65-2.32
		c1.38-1.73,3.89-1.83,5.91-1.82c1.63,0.01,2.76,0.54,3.62-0.82c0.51-0.8,0.59-1.35,1.56-1.76c0.89-0.38,1.73-0.17,2.62,0.07
		c1.95,0.51,2.94,1.4,4.99,0.6C152.52,90.74,154.35,90.71,156.42,90.75z"/>
	<path class="st4" d="M38.26,141.14c-0.1-0.2-0.24-0.4-0.4-0.58c-0.14-0.18-0.3-0.34-0.49-0.46c-0.47-0.36-1.07-0.62-1.68-0.6
		c-0.49,0.02-0.96,0.15-1.4,0.38c-0.26,0.14-0.46,0.33-0.63,0.54c-0.22,0.21-0.41,0.46-0.54,0.72c-0.27,0.46-0.4,0.97-0.41,1.5
		c0,0.54,0.14,1.04,0.41,1.5c0.53,0.91,1.52,1.47,2.57,1.47s2.04-0.57,2.57-1.47c0.27-0.46,0.4-0.97,0.41-1.5
		C38.67,142.1,38.53,141.6,38.26,141.14z"/>
	<path class="st4" d="M38.38,127.26c-0.23-0.4-0.6-0.69-1.02-0.87c-0.36-0.15-0.71-0.2-1.1-0.15c-0.5,0.07-0.83,0.27-1.22,0.59
		c-0.48,0.38-0.73,0.97-0.96,1.52c-0.24,0.55-0.38,1.06-0.22,1.67c0.14,0.5,0.53,1.05,0.99,1.29c1.09,0.58,2.28,0.23,2.96-0.78
		c0.14-0.2,0.29-0.41,0.41-0.62c0.3-0.49,0.4-1.02,0.46-1.58C38.71,128.01,38.55,127.55,38.38,127.26z"/>
	<path class="st4" d="M52.81,139.72c-2.57,0-2.57,3.99,0,3.99C55.38,143.72,55.38,139.72,52.81,139.72z"/>
	<path class="st4" d="M61.67,124.55c-2,0-2,3.11,0,3.11C63.67,127.66,63.67,124.55,61.67,124.55z"/>
	<path class="st4" d="M77.26,127.79c-2.17,0-2.17,3.37,0,3.37C79.43,131.16,79.43,127.79,77.26,127.79z"/>
	<path class="st4" d="M80.62,123.12c-2.66,0-2.66,4.14,0,4.14C83.28,127.26,83.28,123.12,80.62,123.12z"/>
	<path class="st4" d="M68.09,144.54c-3.86,0-3.86,6,0,6C71.95,150.54,71.95,144.54,68.09,144.54z"/>
	<path class="st4" d="M65.95,111.78c-3.46,0-3.46,5.38,0,5.38C69.41,117.16,69.41,111.78,65.95,111.78z"/>
	<path class="st4" d="M47.92,105.08c-3.01,0-3.02,4.69,0,4.69C50.93,109.77,50.94,105.08,47.92,105.08z"/>
	<path class="st4" d="M49.45,92.13c-3.92,0-3.92,6.1,0,6.1C53.37,98.23,53.37,92.13,49.45,92.13z"/>
	<path class="st4" d="M55.56,89.67c-1.97,0-1.97,3.06,0,3.06C57.53,92.73,57.53,89.67,55.56,89.67z"/>
	<path class="st4" d="M61.67,81.43c-1.86,0-2.6,1.72-2.25,3.12c-3.34,0.12-3.32,5.37,0.11,5.37c2.15,0,2.97-2.09,2.44-3.66
		C64.78,85.94,64.69,81.43,61.67,81.43z"/>
	<path class="st4" d="M48.53,148.01c-2.93,0-2.94,4.57,0,4.57C51.47,152.58,51.47,148.01,48.53,148.01z"/>
	<path class="st4" d="M48.56,123.28c-0.29-1.04-1.36-1.95-2.48-1.89c-0.3,0.02-0.6,0.06-0.9,0.11c-0.69,0.12-1.44,0.87-1.56,1.56
		c-0.05,0.3-0.09,0.6-0.11,0.9c-0.02,0.43,0.15,0.92,0.35,1.3c0.26,0.49,0.73,0.84,1.23,1.05c0.91,0.38,2.11,0.23,2.8-0.53
		C48.51,125.11,48.81,124.17,48.56,123.28z"/>
	<path class="st4" d="M32.64,109.1c-3.36,0-3.37,5.24,0,5.24C36,114.33,36.01,109.1,32.64,109.1z"/>
	<path class="st4" d="M64.73,73.77c-3.52,0-3.52,5.48,0,5.48C68.25,79.24,68.25,73.77,64.73,73.77z"/>
	<path class="st4" d="M80.01,82.21c-2.5,0-2.51,3.9,0,3.9C82.51,86.11,82.52,82.21,80.01,82.21z"/>
	<path class="st4" d="M84.6,69.47c-3.53,0-3.54,5.5,0,5.5C88.13,74.97,88.13,69.47,84.6,69.47z"/>
	<path class="st4" d="M80.62,55.68c-1.97,0-1.97,3.06,0,3.06C82.59,58.75,82.59,55.68,80.62,55.68z"/>
	<path class="st4" d="M90.71,48.94c-2.37,0-2.37,3.68,0,3.68C93.07,52.63,93.08,48.94,90.71,48.94z"/>
	<path class="st4" d="M100.18,47.43c-3.92,0-3.92,6.1,0,6.1C104.1,53.53,104.11,47.43,100.18,47.43z"/>
	<path class="st4" d="M120.35,33.03h-0.61c-0.8,0-1.57,0.7-1.53,1.53c0.04,0.83,0.67,1.53,1.53,1.53h0.61c0.8,0,1.57-0.7,1.53-1.53
		C121.84,33.73,121.21,33.03,120.35,33.03z"/>
	<path class="st4" d="M140.22,41.29c-1.97,0-1.97,3.06,0,3.06C142.19,44.36,142.19,41.29,140.22,41.29z"/>
	<path class="st4" d="M146.03,31.26c-2.66,0-2.66,4.14,0,4.14C148.68,35.4,148.69,31.26,146.03,31.26z"/>
	<path class="st4" d="M150.61,22.51c-4.07,0-4.08,6.34,0,6.34C154.68,28.85,154.69,22.51,150.61,22.51z"/>
	<path class="st4" d="M146.33,44.91c-3.57,0-3.96,4.95-1.17,6.03c0.09,0.39,0.45,0.68,0.88,0.7c0.36,0.02,0.72,0.05,1.07-0.07
		c0.26-0.09,0.45-0.36,0.4-0.63C150.29,49.85,149.91,44.91,146.33,44.91z"/>
	<path class="st4" d="M144.8,57.42c-3.27,0-3.28,5.1,0,5.1C148.08,62.52,148.08,57.42,144.8,57.42z"/>
	<path class="st4" d="M132.88,61.82c-3.92,0-3.92,6.1,0,6.1C136.8,67.92,136.81,61.82,132.88,61.82z"/>
	<path class="st4" d="M126.16,36.07c-2.78,0-2.79,4.33,0,4.33C128.94,40.4,128.95,36.07,126.16,36.07z"/>
	<path class="st4" d="M126.77,28.51c-3.84,0-3.85,5.98,0,5.98C130.61,34.49,130.62,28.51,126.77,28.51z"/>
	<path class="st4" d="M98.96,36.57c-4.1,0-4.11,6.39,0,6.39C103.06,42.96,103.07,36.57,98.96,36.57z"/>
	<path class="st4" d="M111.8,53.35c-3.78,0-3.79,5.88,0,5.88C115.58,59.24,115.58,53.35,111.8,53.35z"/>
	<path class="st4" d="M115.16,60.18c-2.49,0-2.49,3.88,0,3.88C117.65,64.05,117.65,60.18,115.16,60.18z"/>
	<path class="st4" d="M109.66,76.05c-3.73,0-3.74,5.81,0,5.81C113.39,81.86,113.4,76.05,109.66,76.05z"/>
	<path class="st4" d="M96.21,79.85c-3.96,0-3.97,6.17,0,6.17C100.17,86.02,100.18,79.85,96.21,79.85z"/>
	<path class="st4" d="M95.9,91.33c-4.16,0-4.17,6.48,0,6.48C100.07,97.81,100.07,91.33,95.9,91.33z"/>
	<path class="st4" d="M90.1,110.12c-2.84,0-2.85,4.43,0,4.43C92.94,114.54,92.94,110.12,90.1,110.12z"/>
	<path class="st4" d="M91.32,102.39c-4.12,0-4.12,6.41,0,6.41C95.44,108.8,95.44,102.39,91.32,102.39z"/>
	<path class="st4" d="M114.24,85.34c-3.99,0-4,6.22,0,6.22C118.24,91.56,118.24,85.34,114.24,85.34z"/>
	<path class="st4" d="M125.24,77.94c-3.66,0-3.66,5.69,0,5.69C128.9,83.64,128.91,77.94,125.24,77.94z"/>
	<path class="st4" d="M135.94,70.54c-3.73,0-3.74,5.81,0,5.81C139.67,76.35,139.68,70.54,135.94,70.54z"/>
	<path class="st4" d="M144.8,71.76c-3.73,0-3.74,5.81,0,5.81C148.54,77.57,148.54,71.76,144.8,71.76z"/>
	<path class="st4" d="M151.53,66.57c-3.72,0-3.72,5.79,0,5.79C155.25,72.36,155.25,66.57,151.53,66.57z"/>
	<path class="st4" d="M102.93,61.32c-3.78,0-3.79,5.88,0,5.88C106.71,67.2,106.72,61.32,102.93,61.32z"/>
	<path class="st4" d="M65.03,62.25c-3.36,0-3.37,5.24,0,5.24C68.4,67.49,68.41,62.25,65.03,62.25z"/>
	<path class="st4" d="M72.98,138.26c-2.87,0-2.88,4.47,0,4.47C75.85,142.73,75.86,138.26,72.98,138.26z"/>
	<path class="st5" d="M130.13,41.41c-3,0-3,4.66,0,4.66C133.13,46.08,133.13,41.41,130.13,41.41z"/>
	<path class="st5" d="M134.41,30.47c-3.29,0-3.29,5.12,0,5.12C137.7,35.59,137.71,30.47,134.41,30.47z"/>
	<path class="st5" d="M141.66,32.96c0.34-0.59,0.07-1.55-0.83-1.55c-0.89,0-1.17,0.96-0.83,1.55c-1.08,0.72-0.81,2.82,0.83,2.82
		C142.46,35.78,142.74,33.68,141.66,32.96z"/>
	<path class="st5" d="M139.61,56.6c-1.97,0-1.97,3.06,0,3.06C141.57,59.66,141.58,56.6,139.61,56.6z"/>
	<path class="st5" d="M126.77,46.89c-2.64,0-2.65,4.11,0,4.11C129.41,51.01,129.42,46.89,126.77,46.89z"/>
	<path class="st5" d="M114.55,36.4c-1.97,0-1.97,3.06,0,3.06C116.51,39.46,116.52,36.4,114.55,36.4z"/>
	<path class="st5" d="M107.82,39.16c-3.92,0-3.92,6.1,0,6.1C111.74,45.26,111.75,39.16,107.82,39.16z"/>
	<path class="st5" d="M105.68,56.36c-3.86,0-3.86,6,0,6C109.54,62.36,109.55,56.36,105.68,56.36z"/>
	<path class="st5" d="M91.62,44.88c-2.87,0-2.88,4.47,0,4.47C94.5,49.35,94.5,44.88,91.62,44.88z"/>
	<path class="st5" d="M80.93,52.3c-2.78,0-2.79,4.33,0,4.33C83.71,56.62,83.71,52.3,80.93,52.3z"/>
	<path class="st5" d="M80.32,69.46c-3.93,0-3.94,6.12,0,6.12C84.25,75.59,84.26,69.46,80.32,69.46z"/>
	<path class="st5" d="M76.34,76.89c-3.44,0-3.45,5.36,0,5.36C79.78,82.25,79.79,76.89,76.34,76.89z"/>
	<path class="st5" d="M54.34,76.62c-3,0-3,4.66,0,4.66C57.33,81.29,57.34,76.62,54.34,76.62z"/>
	<path class="st5" d="M50.98,87.99c-2.95,0-2.95,4.59,0,4.59C53.93,92.58,53.93,87.99,50.98,87.99z"/>
	<path class="st5" d="M54.34,104.4c-3.89,0-3.89,6.05,0,6.05C58.23,110.45,58.23,104.4,54.34,104.4z"/>
	<path class="st5" d="M70.54,112c-3.96,0-3.97,6.17,0,6.17C74.5,118.17,74.51,112,70.54,112z"/>
	<path class="st5" d="M81.23,110.49c-1.97,0-1.97,3.06,0,3.06C83.2,113.55,83.2,110.49,81.23,110.49z"/>
	<path class="st5" d="M79.71,123.35c-1.97,0-1.97,3.06,0,3.06C81.67,126.41,81.67,123.35,79.71,123.35z"/>
	<path class="st5" d="M76.18,135.84c-0.19-0.34-0.54-0.59-1.06-0.59c-0.25,0-0.45,0.06-0.62,0.16c-4.17,0.01-4.17,6.51,0.01,6.51
		C78.03,141.91,78.59,137.3,76.18,135.84z"/>
	<path class="st5" d="M75.73,147.68c-3.75,0-3.75,5.84,0,5.84C79.48,153.52,79.49,147.68,75.73,147.68z"/>
	<path class="st5" d="M61.37,146.74c-3.78,0-3.79,5.88,0,5.88C65.15,152.62,65.15,146.74,61.37,146.74z"/>
	<path class="st5" d="M51.59,137.7c-2.81,0-2.82,4.38,0,4.38C54.4,142.07,54.4,137.7,51.59,137.7z"/>
	<path class="st5" d="M39.42,135.72c-0.09,0.03-0.19,0.06-0.28,0.09c-0.81,0.27-1.5,1.03-1.46,1.93c0.04,0.91,0.6,1.64,1.46,1.93
		c0.09,0.03,0.19,0.06,0.28,0.09c1.3,0.43,2.64-0.71,2.64-2.02C42.06,136.43,40.72,135.29,39.42,135.72z"/>
	<path class="st5" d="M32.94,137.77c-3.1,0-3.11,4.83,0,4.83C36.05,142.61,36.05,137.77,32.94,137.77z"/>
	<path class="st5" d="M30.19,143.25c-1.97,0-1.97,3.06,0,3.06C32.16,146.31,32.16,143.25,30.19,143.25z"/>
	<path class="st5" d="M27.75,138.16c-2.61,0-2.62,4.07,0,4.07C30.36,142.22,30.36,138.16,27.75,138.16z"/>
	<path class="st5" d="M34.33,120.12c-0.61-0.56-1.56-0.61-2.16,0c-0.1,0.1-0.2,0.2-0.31,0.31c-0.57,0.57-0.61,1.61,0,2.17
		c0.3,0.28,0.68,0.43,1.06,0.44c-0.01,0.02-0.01,0.04,0.02,0.04c0.03,0,0.03-0.02,0.02-0.04c0.38,0,0.76-0.14,1.06-0.44l0.31-0.31
		C34.9,121.72,34.94,120.68,34.33,120.12z"/>
	<path class="st5" d="M50.98,124.56c-4.35,0-4.36,6.77,0,6.77C55.32,131.33,55.33,124.56,50.98,124.56z"/>
	<path class="st5" d="M64.42,132.21c-2.78,0-2.79,4.33,0,4.33C67.2,136.54,67.21,132.21,64.42,132.21z"/>
	<path class="st5" d="M69.92,97.33c-3.53,0-3.54,5.5,0,5.5c0.09,0,0.17-0.02,0.25-0.03c-0.78,0.06-0.77,1.3,0.05,1.3
		c0.83,0,0.84-1.28,0.02-1.3C73.44,102.46,73.35,97.33,69.92,97.33z"/>
	<path class="st5" d="M81.23,88.62c-4.44,0-4.5,6.81-0.18,7c0.2,0.35,0.57,0.6,1.1,0.6c0.87,0,1.3-0.69,1.29-1.37
		C85.54,93.03,84.81,88.62,81.23,88.62z"/>
	<path class="st5" d="M113.63,86.66c-4.26,0-4.26,6.63,0,6.63C117.89,93.29,117.89,86.66,113.63,86.66z"/>
	<path class="st5" d="M115.77,65.56c-2.96,0-4.03,2.95-3.2,5.07c-3.12,1-2.77,6.4,1.06,6.4c2.58,0,3.58-2.46,3-4.36
		C120.37,71.83,120.09,65.56,115.77,65.56z"/>
	<path class="st5" d="M71.76,57.98c-2.95,0-2.95,4.59,0,4.59C74.71,62.57,74.71,57.98,71.76,57.98z"/>
	<path class="st5" d="M147.86,36.02c-4.03,0-4.03,6.27,0,6.27C151.89,42.28,151.89,36.02,147.86,36.02z"/>
	<path class="st5" d="M136.55,60.75c-3.72,0-3.72,5.79,0,5.79C140.27,66.54,140.28,60.75,136.55,60.75z"/>
	<path class="st5" d="M120.35,45.1c-1,0-1.01,1.56,0,1.56C121.36,46.67,121.36,45.1,120.35,45.1z"/>
	<path class="st5" d="M117.6,52.32c-1.17,0-1.17,1.82,0,1.82C118.77,54.15,118.78,52.32,117.6,52.32z"/>
	<path class="st5" d="M123.72,61.17c-0.04,0-0.04,0.06,0,0.06C123.75,61.23,123.75,61.17,123.72,61.17z"/>
	<path class="st5" d="M117.91,63.65c-1.17,0-1.17,1.82,0,1.82C119.08,65.48,119.08,63.65,117.91,63.65z"/>
	<path class="st5" d="M97.13,50.49c-1.17,0-1.17,1.82,0,1.82C98.3,52.31,98.3,50.49,97.13,50.49z"/>
	<path class="st5" d="M84.9,66.39c-1.19,0-1.19,1.85,0,1.85C86.09,68.25,86.09,66.39,84.9,66.39z"/>
	<path class="st5" d="M91.32,83.25c-1.17,0-1.17,1.82,0,1.82C92.49,85.07,92.49,83.25,91.32,83.25z"/>
	<path class="st5" d="M86.12,70.35c-0.04,0-0.04,0.06,0,0.06C86.16,70.41,86.16,70.35,86.12,70.35z"/>
	<path class="st5" d="M91.01,62.08c-0.04,0-0.04,0.06,0,0.06C91.05,62.14,91.05,62.08,91.01,62.08z"/>
	<path class="st5" d="M98.96,71.31c-1.17,0-1.17,1.82,0,1.82C100.13,73.13,100.13,71.31,98.96,71.31z"/>
	<path class="st5" d="M92.54,78.31c-0.04,0-0.04,0.06,0,0.06C92.58,78.37,92.58,78.31,92.54,78.31z"/>
	<path class="st5" d="M81.84,65.15c-0.04,0-0.04,0.06,0,0.06C81.88,65.21,81.88,65.15,81.84,65.15z"/>
	<path class="st5" d="M67.48,68.82c-0.04,0-0.04,0.06,0,0.06C67.52,68.88,67.52,68.82,67.48,68.82z"/>
	<path class="st5" d="M60.14,82.6c-0.04,0-0.04,0.06,0,0.06C60.18,82.66,60.18,82.6,60.14,82.6z"/>
	<path class="st5" d="M61.98,98.21c-0.04,0-0.04,0.06,0,0.06C62.02,98.27,62.02,98.21,61.98,98.21z"/>
	<path class="st5" d="M68.7,104.95c-0.04,0-0.04,0.06,0,0.06C68.74,105.01,68.74,104.95,68.7,104.95z"/>
	<path class="st5" d="M60.76,85.05c-0.04,0-0.04,0.06,0,0.06C60.8,85.11,60.8,85.05,60.76,85.05z"/>
	<path class="st5" d="M51.26,80.32l-0.1-0.59c-0.08-0.49-0.91-0.49-0.99,0l-0.1,0.59c-0.06,0.39,0.17,0.78,0.59,0.78
		C51.1,81.1,51.33,80.71,51.26,80.32z"/>
	<path class="st5" d="M48.84,79.23c-0.04,0-0.04,0.06,0,0.06C48.88,79.29,48.88,79.23,48.84,79.23z"/>
	<path class="st5" d="M40.89,99.44c-0.04,0-0.04,0.06,0,0.06C40.93,99.5,40.93,99.44,40.89,99.44z"/>
	<path class="st5" d="M43.03,110.15c-0.04,0-0.04,0.06,0,0.06C43.07,110.22,43.07,110.15,43.03,110.15z"/>
	<path class="st5" d="M44.56,119.95c-0.04,0-0.04,0.06,0,0.06C44.6,120.01,44.6,119.95,44.56,119.95z"/>
	<path class="st5" d="M32.94,125.77c-0.04,0-0.04,0.06,0,0.06C32.98,125.83,32.98,125.77,32.94,125.77z"/>
	<path class="st5" d="M40.28,132.2c-0.04,0-0.04,0.06,0,0.06C40.32,132.26,40.32,132.2,40.28,132.2z"/>
	<path class="st5" d="M54.64,138.32c-0.04,0-0.04,0.06,0,0.06C54.68,138.38,54.68,138.32,54.64,138.32z"/>
	<path class="st5" d="M42.72,117.5c-0.04,0-0.04,0.06,0,0.06C42.76,117.56,42.76,117.5,42.72,117.5z"/>
	<path class="st5" d="M43.95,108.93c-0.04,0-0.04,0.06,0,0.06C43.99,108.99,43.99,108.93,43.95,108.93z"/>
	<path class="st5" d="M44.25,110.46c-0.04,0-0.04,0.06,0,0.06C44.29,110.52,44.29,110.46,44.25,110.46z"/>
	<path class="st5" d="M63.81,122.74c-1.17,0-1.17,1.82,0,1.82C64.98,124.57,64.99,122.74,63.81,122.74z"/>
	<path class="st5" d="M75.12,125.77c-0.04,0-0.04,0.06,0,0.06C75.16,125.83,75.16,125.77,75.12,125.77z"/>
	<path class="st5" d="M84.06,121.21c0-0.1-0.16-0.1-0.16,0c0,0.2-0.01,0.41-0.01,0.61c0,0.12,0.19,0.12,0.19,0
		C84.07,121.62,84.07,121.41,84.06,121.21z"/>
	<path class="st5" d="M80.01,128.83c-0.04,0-0.04,0.06,0,0.06C80.05,128.89,80.05,128.83,80.01,128.83z"/>
	<path class="st5" d="M65.65,136.49c-0.04,0-0.04,0.06,0,0.06C65.69,136.55,65.69,136.49,65.65,136.49z"/>
	<path class="st5" d="M54.34,142.03c-1.17,0-1.17,1.82,0,1.82C55.51,143.86,55.51,142.03,54.34,142.03z"/>
	<path class="st5" d="M48.84,144.45c-0.04,0-0.04,0.06,0,0.06C48.88,144.51,48.88,144.45,48.84,144.45z"/>
	<path class="st5" d="M39.36,146.93c-1.17,0-1.17,1.82,0,1.82C40.53,148.76,40.53,146.93,39.36,146.93z"/>
	<path class="st5" d="M33.86,153.02c-0.04,0-0.04,0.06,0,0.06C33.9,153.08,33.9,153.02,33.86,153.02z"/>
	<path class="st5" d="M28.05,152.1c-0.04,0-0.04,0.06,0,0.06C28.09,152.16,28.09,152.1,28.05,152.1z"/>
	<path class="st5" d="M27.75,145.1c-1.17,0-1.17,1.82,0,1.82C28.92,146.92,28.92,145.1,27.75,145.1z"/>
	<path class="st5" d="M36.31,125.77c-0.04,0-0.04,0.06,0,0.06C36.35,125.83,36.35,125.77,36.31,125.77z"/>
	<path class="st5" d="M34.8,118.43c-0.03-0.03-0.07,0.02-0.04,0.04c0.2,0.2,0.41,0.41,0.61,0.61c0.03,0.03,0.07-0.02,0.04-0.04
		L34.8,118.43z"/>
	<path class="st5" d="M53.12,111.07c-0.04,0-0.04,0.06,0,0.06C53.15,111.13,53.15,111.07,53.12,111.07z"/>
	<path class="st5" d="M92.85,85.14c-0.7,0-0.7,1.09,0,1.09C93.55,86.24,93.55,85.14,92.85,85.14z"/>
	<path class="st5" d="M101.71,95.46c-0.04,0-0.04,0.06,0,0.06C101.75,95.52,101.75,95.46,101.71,95.46z"/>
	<path class="st5" d="M101.4,94.23c-0.04,0-0.04,0.06,0,0.06C101.44,94.29,101.44,94.23,101.4,94.23z"/>
	<path class="st5" d="M105.07,90.02c-0.73,0-0.73,1.13,0,1.13C105.8,91.16,105.8,90.02,105.07,90.02z"/>
	<path class="st5" d="M95.45,73.91c-0.14-0.28-0.29-0.56-0.43-0.85c-0.17-0.33-0.61-0.45-0.93-0.31c-0.36,0.16-0.5,0.5-0.43,0.88
		c0.06,0.32,0.11,0.64,0.17,0.96c0.09,0.53,0.75,0.76,1.2,0.58C95.53,74.96,95.69,74.39,95.45,73.91z"/>
	<path class="st5" d="M89.18,65.76c-0.04,0-0.04,0.06,0,0.06C89.22,65.82,89.22,65.76,89.18,65.76z"/>
	<path class="st5" d="M94.68,55.39c-1.17,0-1.17,1.82,0,1.82C95.85,57.21,95.85,55.39,94.68,55.39z"/>
	<path class="st5" d="M87.35,66.98c-0.04,0-0.04,0.06,0,0.06C87.39,67.04,87.39,66.98,87.35,66.98z"/>
	<path class="st5" d="M100.18,57.96c-0.62,0-0.62,0.96,0,0.96C100.8,58.92,100.8,57.96,100.18,57.96z"/>
	<path class="st5" d="M122.8,53.23c-1.59,0-1.59,2.47,0,2.47C124.38,55.69,124.39,53.23,122.8,53.23z"/>
	<path class="st5" d="M135.63,56.3c-1.17,0-1.17,1.82,0,1.82C136.81,58.13,136.81,56.3,135.63,56.3z"/>
	<path class="st5" d="M144.8,48.31c-0.04,0-0.04,0.06,0,0.06C144.84,48.37,144.84,48.31,144.8,48.31z"/>
	<path class="st5" d="M136.55,27.79c-0.04,0-0.04,0.06,0,0.06C136.59,27.85,136.59,27.79,136.55,27.79z"/>
	<path class="st5" d="M132.58,26.26c-0.04,0-0.04,0.06,0,0.06C132.62,26.32,132.62,26.26,132.58,26.26z"/>
	<path class="st4" d="M143.58,64.85c-1.21,0-1.21,1.88,0,1.88C144.79,66.73,144.79,64.85,143.58,64.85z"/>
	<path class="st4" d="M141.14,55.07c-1.58,0-1.58,2.45,0,2.45C142.71,57.52,142.71,55.07,141.14,55.07z"/>
	<path class="st4" d="M136.86,46.8c-1.17,0-1.47,1.34-0.92,2.05c-0.17-0.1-0.37-0.17-0.61-0.17c-1.53,0-1.53,2.38,0,2.38
		c1.13,0,1.42-1.29,0.89-1.97c0.17,0.11,0.38,0.18,0.64,0.18C138.44,49.26,138.45,46.8,136.86,46.8z"/>
	<path class="st4" d="M127.69,51.62c-1.29,0-1.29,2.01,0,2.01C128.98,53.63,128.98,51.62,127.69,51.62z"/>
	<path class="st4" d="M120.35,65.76c-0.04,0-0.04,0.06,0,0.06C120.39,65.82,120.39,65.76,120.35,65.76z"/>
	<path class="st4" d="M109.96,44.65c-0.41,0-0.42,0.65,0,0.65C110.38,45.29,110.38,44.65,109.96,44.65z"/>
	<path class="st4" d="M78.51,49.55c-0.02-0.04-0.07,0-0.05,0.03c0.1,0.2,0.2,0.41,0.31,0.61c0.02,0.04,0.07,0,0.05-0.03
		C78.71,49.95,78.61,49.75,78.51,49.55z"/>
	<path class="st4" d="M74.19,52.9c-0.31,0.2-0.61,0.41-0.92,0.61c-0.03,0.02,0,0.07,0.03,0.05c0.31-0.2,0.61-0.41,0.92-0.61
		C74.25,52.93,74.22,52.88,74.19,52.9z"/>
	<path class="st4" d="M61.06,63.31c-0.04,0-0.04,0.06,0,0.06C61.1,63.37,61.1,63.31,61.06,63.31z"/>
	<path class="st4" d="M53.7,71.59l-0.92,1.84c-0.02,0.04,0.04,0.07,0.05,0.03l0.92-1.84C53.77,71.59,53.72,71.56,53.7,71.59z"/>
	<path class="st4" d="M72.06,52.59c-0.04,0-0.04,0.06,0,0.06C72.1,52.65,72.1,52.59,72.06,52.59z"/>
	<path class="st4" d="M77.87,48.31c-0.04,0-0.04,0.06,0,0.06C77.91,48.37,77.91,48.31,77.87,48.31z"/>
	<path class="st4" d="M83.98,45.14c-0.96,0-0.96,1.49,0,1.49C84.94,46.63,84.94,45.14,83.98,45.14z"/>
	<path class="st4" d="M71.45,57.76c-1.66,0-1.66,2.58,0,2.58C73.11,60.34,73.12,57.76,71.45,57.76z"/>
	<path class="st4" d="M66.96,57.31c-0.62-0.09-1.15,0-1.56,0.53c-0.54,0.7-0.35,1.73,0.42,2.18c0.71,0.42,1.59,0.14,2.03-0.53
		C68.32,58.76,67.89,57.45,66.96,57.31z"/>
	<path class="st4" d="M58.25,68.3c-0.49-0.53-1.59-0.46-1.9,0.25c-0.21,0.48-0.23,0.92,0.09,1.35c0.44,0.57,1.29,0.64,1.81,0.12
		C58.73,69.54,58.69,68.78,58.25,68.3z"/>
	<path class="st4" d="M51.89,77.73c-1.58,0-1.58,2.45,0,2.45C53.47,80.18,53.47,77.73,51.89,77.73z"/>
	<path class="st4" d="M45.17,87.88c-1.12,0-1.13,1.75,0,1.75C46.29,89.63,46.3,87.88,45.17,87.88z"/>
	<path class="st4" d="M36.92,100.18c-0.75,0-1.47,0.66-1.43,1.44c0.03,0.78,0.63,1.44,1.43,1.44c0.75,0,1.47-0.66,1.43-1.44
		C38.32,100.83,37.72,100.18,36.92,100.18z"/>
	<path class="st4" d="M36.51,104.99c-0.22-0.45-0.58-0.83-1.12-0.83c-0.85,0-1.4,0.96-0.97,1.7c0.4,0.69,1.56,0.78,1.94,0
		C36.51,105.55,36.67,105.33,36.51,104.99z"/>
	<path class="st4" d="M39.97,110.8c-1.96,0-1.97,3.06,0,3.06C41.94,113.86,41.94,110.8,39.97,110.8z"/>
	<path class="st4" d="M31.72,117.54c-1.57,0-1.57,2.44,0,2.44C33.29,119.98,33.29,117.54,31.72,117.54z"/>
	<path class="st4" d="M27.14,126.15c-1.51,0-1.51,2.35,0,2.35C28.65,128.51,28.65,126.15,27.14,126.15z"/>
	<path class="st4" d="M28.36,131.81c-1.71,0-1.72,2.67,0,2.67C30.07,134.48,30.08,131.81,28.36,131.81z"/>
	<path class="st4" d="M26.22,137.78c-1.12,0-1.13,1.75,0,1.75C27.34,139.53,27.35,137.78,26.22,137.78z"/>
	<path class="st4" d="M61.98,143.04c-1.46,0-1.46,2.27,0,2.27C63.44,145.3,63.44,143.04,61.98,143.04z"/>
	<path class="st4" d="M74.81,140.84c-1.53,0-1.53,2.38,0,2.38C76.35,143.22,76.35,140.84,74.81,140.84z"/>
	<path class="st4" d="M82.15,123.94c-1.6,0-1.61,2.5,0,2.5C83.75,126.44,83.76,123.94,82.15,123.94z"/>
	<path class="st4" d="M89.49,117.19c-1.62,0-1.63,2.53,0,2.53C91.11,119.71,91.11,117.19,89.49,117.19z"/>
	<path class="st4" d="M94.99,108.57c-1.68,0-1.68,2.61,0,2.61C96.66,111.18,96.67,108.57,94.99,108.57z"/>
	<path class="st4" d="M78.79,101.24c-2.06,0-2.06,3.2,0,3.2C80.84,104.44,80.85,101.24,78.79,101.24z"/>
	<path class="st4" d="M74.51,101.87c-2.03,0-2.03,3.16,0,3.16C76.54,105.03,76.54,101.87,74.51,101.87z"/>
	<path class="st4" d="M59.97,106.25c-0.2-0.48-0.63-0.81-1.15-0.88c-0.6-0.08-1.14,0.2-1.47,0.71c-0.01,0.02-0.02,0.04-0.04,0.05
		c0.01-0.02-0.05,0.06-0.18,0.24c-0.06,0.11-0.1,0.21-0.13,0.32c-0.23,0.43-0.02,0.91,0.35,1.16c0.25,0.22,0.58,0.29,0.89,0.4
		c0.47,0.17,1.09-0.04,1.44-0.38C60.08,107.44,60.19,106.79,59.97,106.25z"/>
	<path class="st4" d="M53.73,118.29c-0.88,0-1.73,0.78-1.69,1.69c0.04,0.92,0.74,1.69,1.69,1.69c0.88,0,1.73-0.78,1.69-1.69
		C55.38,119.06,54.67,118.29,53.73,118.29z"/>
	<path class="st4" d="M45.78,113.23c-1.98,0-1.99,3.09,0,3.09C47.76,116.32,47.77,113.23,45.78,113.23z"/>
	<path class="st4" d="M111.49,87.76c-2.06,0-2.06,3.2,0,3.2C113.55,90.96,113.55,87.76,111.49,87.76z"/>
	<path class="st4" d="M128.61,85.78c-1.85,0-1.86,2.88,0,2.88C130.46,88.66,130.46,85.78,128.61,85.78z"/>
	<path class="st4" d="M149.69,72.85c-1.95,0-1.95,3.03,0,3.03C151.64,75.88,151.64,72.85,149.69,72.85z"/>
	<path class="st4" d="M153.06,52.65c-1.94,0-1.94,3.01,0,3.01C154.99,55.66,154.99,52.65,153.06,52.65z"/>
	<path class="st4" d="M152.75,42.92c-1.84,0-1.85,2.87,0,2.87C154.59,45.79,154.6,42.92,152.75,42.92z"/>
</g>
</svg>
