<?xml version="1.0" encoding="utf-8"?>
<!-- Generator: Adobe Illustrator 25.2.3, SVG Export Plug-In . SVG Version: 6.00 Build 0)  -->
<svg version="1.1" id="Layer_1" xmlns="http://www.w3.org/2000/svg" xmlns:xlink="http://www.w3.org/1999/xlink" x="0px" y="0px"
	 viewBox="0 0 104.79 156.83" style="enable-background:new 0 0 104.79 156.83;" xml:space="preserve">
<style type="text/css">
	.st0{fill:#A5B508;}
	.st1{fill:#D6AD29;}
	.st2{fill:#B79D1D;}
	.st3{fill:#557507;}
	.st4{fill:#C6A028;}
	.st5{fill:#E2BD23;}
</style>
<g>
	<path class="st0" d="M88.61,0h16.15c0.07,2.74-0.89,5.29-2.58,7.41c-0.31,0.38-0.64,0.73-0.96,1.09c0.04,0.11,0.1,0.25,0.2,0.42
		c0.62,1.19,0.96,2.49,0.86,3.84c-0.11,1.58-0.94,2.67-1.42,4.12c-0.5,1.49,0.12,2.19,0.46,3.74c0.47,2.1,0.42,4.18-0.42,6.07
		c0.3,0.47,0.48,1,0.47,1.56c-0.02,1.23-0.2,2.08-0.74,3.18c-0.26,0.55-1.01,1.4-1,2.02c0.02,1.29,1.74,2.7,2.13,3.97
		c0.53,1.71,0.35,3.52-0.27,5.18c-0.48,1.29-2.28,3.29-1.56,4.64c0.43,0.8,0.48,1.56,0.28,2.21c0.44,0.69,0.63,1.54,0.38,2.44
		c-0.39,1.39-0.51,1.73,0.07,3.05c0.47,1.06,1.05,1.96,1.3,3.12c0.48,2.24-0.32,3.92-0.88,6.02c-0.31,1.2,0.4,2.84,0.07,4.62
		c-0.39,2.06-2.68,4.01-1.15,5.93c0.28,0.35,0.44,0.74,0.53,1.13c0.7,0.43,1.26,1.09,1.49,1.94c0.51,1.84,0.37,3.45-0.07,5.29
		c-0.06,0.26-0.32,1.57-0.48,1.94c0.14,0.32,0.35,0.94,0.37,1.05c0.34,1.35,0.24,2.78-0.1,4.12c-0.36,1.38-1.08,2.29-0.7,3.12
		c0.61,1.37,1.54,2.17,1.79,3.74c0.26,1.65-0.25,3.38-0.35,5.04c-0.15,2.41-1.04,4.58-1.32,6.91c0.83,0.62,1.38,1.62,1.3,3
		c-0.2,3.14-1.48,5.57-2.81,8.36c-0.63,1.32-1.16,2.52-0.68,3.95c0.39,1.13,1.02,2.12,1.31,3.3c0.67,2.73,1.02,5.97,0.12,8.67
		c-0.4,1.19-1.21,2.22-1.58,3.39c-0.42,1.31-0.11,2.83,0.39,4.16c0.61,0.45,1.1,1.14,1.33,2.13c0.81,3.44,3.28,6.24,3.95,9.66
		c0.01,0.04,0.01,0.08,0.01,0.12c0.22,0.4,0.22,0.8,0.28,1.2H87.75c-0.36-0.91-0.57-1.91-0.63-2.92c-0.04-0.66-0.05-1.33-0.04-2
		c0.01-0.73,0.04-1.46,0.09-2.19c0.02-0.22,0.03-0.43,0.05-0.66c-0.56-2.96,0.01-6.33,0.23-9.18c0.06-0.85,0.1-1.7,0.13-2.54
		c-0.1-1.84-0.19-3.7-0.04-5.48c-0.06-1.33-0.14-2.66-0.25-4c-0.33-4.06-0.57-8.1-0.54-12.17c0.03-3.37-0.42-7.6,0.61-10.94
		c-0.03-0.63-0.06-1.26-0.1-1.89c-0.37-5.31-1-10.59-1.23-15.9c-0.51-0.75-0.75-1.75-0.5-2.94c0.8-3.92,0.21-8.06,0.37-12.03
		c0.17-4.34,0.7-8.67,1.12-13c0.04-0.36,0.12-0.69,0.26-0.98c0.18-7.27-0.24-14.56,1.05-21.74c-0.01-0.07-0.02-0.13-0.02-0.2
		c-0.43-7.22-0.79-14.44-1.03-21.66c-0.05-1.51,0.64-2.57,1.61-3.16C88.63,7.53,88.5,3.76,88.61,0z"/>
	<path class="st1" d="M14.23,0h75.29c0.06,14.86,0.06,29.71,0.08,44.56c0,0.01,0,0.01,0,0.01c0,0.88,0.01,1.78,0.01,2.66v0.15
		c0.04,18.29,0.06,36.56,0.09,54.85c0,0.01,0,0.01,0,0.01c-0.01,0.7,0,1.4,0,2.1v0.31c0,1.61,0.01,3.23,0.01,4.85
		c0.01,10.1,0.02,20.19,0.04,30.29c0,0.01,0,0.01,0,0.01c0.01,0.93,0.01,1.86,0.01,2.79c0,0.43,0.01,0.88,0.02,1.33v0.01
		c0.11,3.97,0.59,8.82-0.39,12.92H15.14c-0.75-10.7-0.44-21.5-0.51-32.21c-0.14-21.56-0.23-43.13-0.28-64.7
		c-0.01-2.1-0.01-4.19-0.01-6.29c0,0,0,0,0-0.01C14.3,38.6,14.27,23.58,14.24,8.56c0-0.94,0-1.87-0.01-2.8c0-0.01,0-0.01,0-0.01
		C14.23,3.84,14.23,1.92,14.23,0z"/>
	<path class="st2" d="M83.25,0h9.2c-0.05,3.38,0.32,6.08,0.7,7.96c0.71,3.59,1.57,5.01,0.78,7.02c-0.23,0.6-0.83,2-1.29,3.99
		c-0.47,1.98,0.14,2.75,0.8,4.49c0.8,2.14,0.18,4.19-0.47,6.3c-0.09,0.3-0.25,0.53-0.46,0.7c0.39,1.73,1.32,3.39,1.36,5.22
		c0.04,1.81-0.37,3.59-1.04,5.27c-1.16,2.99-2.35,4.85-0.92,7.95c1.79,3.87,1.45,3.79,1.5,4.82c0.03,0.73-0.1,0.75-1.49,5.71
		c-0.58,2.04-0.6,2.2-0.61,2.45c-0.11,1.98,0.81,2.48,1.46,5.22c0.24,0.99,0.61,2.59,0.37,4.58c-0.22,1.91-0.61,3.06-0.61,3.06
		c-0.41,1.22-0.78,1.67-0.61,2.45c0.07,0.3,0.25,0.79,0.16,1.48c-0.03,0.27-0.1,0.49-0.15,0.64c1.38,2.57,1.31,5.37,0.88,8.42
		c-0.25,1.73-0.39,3.19,0.36,4.78c0.42,0.92,0.85,1.72,0.94,2.75c0.12,1.45-0.48,2.65-1.28,3.82c-0.95,1.37-2.69,3.31-3.12,5.26
		c-0.02,0.05-0.02,0.1-0.04,0.15c0.01,0.06,0.02,0.1,0.04,0.16c0.19,0.83,0.37,1.65,0.5,2.47c0.85,1.32,2.25,2.28,2.85,3.88
		c0.67,1.77,0.71,3.72,0.3,5.56c-0.51,2.28-3.52,5.95-1.57,8.03c0.48,0.51,0.51,1.25,0.22,1.81c0.12,0.31,0.22,0.66,0.31,1.04
		c0.2,0.8,0.26,1.53,0.26,2.34c0.01,1.39,0.25,2.65,0.32,4.01c0.1,1.94-0.93,3.2-1.57,4.94c-1.21,3.27,0.88,4.69,1.47,7.6
		c0.51,2.51-0.55,4.97-0.23,7.49c0.11,0.84,0.45,1.94,0.62,3.01h-9.97c-0.04-1.09,0.22-2.11,0.47-3.23c0.15-0.68,0.29-1.4,0.37-2.19
		c0.12-1.21-0.18-2.41-0.17-3.63c0-0.35,0.02-0.7,0.09-1.05c0.35-1.92,0.94-3.39,0.6-5.42c-0.21-1.31-0.5-2.52-0.37-3.87
		c0.13-1.32,0.86-2.49,1.03-3.78c0.26-1.89-1-3.89-1.32-5.73c-0.26-1.49-0.28-2.95-0.15-4.46c0.03-0.4,0.2-0.72,0.43-0.95
		c-0.33-2.18,0.47-4.27-0.09-6.38c-0.52-1.98-0.15-2.96,0.36-4.9c0.73-2.79-0.42-5.65-0.51-8.48c-0.08-2.47,0.83-5.16,0.34-7.56
		C83.85,93.08,83,91.25,83.06,89c0.01-0.28,0.03-0.55,0.08-0.83v-0.01c0.07-0.45,0.17-0.91,0.3-1.37c0,0,0,0,0-0.01
		c0.52-1.85,1.34-3.72,1-5.46c-0.42-2.16-1.24-3.82-1.26-6.1c-0.01-2.52,0.5-5.05,1-7.52c0.06-0.28,0.17-0.5,0.3-0.67
		c0.18-2.27-1.41-4.43-1.13-6.75c0.12-0.97,0.51-1.7,0.93-2.57c0.89-1.89,1.17-3.09,0.78-5.15c-0.42-2.22-1.11-4.37-0.74-6.66
		c0.46-2.81,2.06-4.62,0.66-7.45c-2.32-4.64-1.49-8.17,0.18-12.85c0.72-2.02,0.78-3.43-0.07-5.47c-0.45-1.1-0.85-2.17-1.07-3.35
		c-0.45-2.36-0.26-4.68,0.36-6.99c0.01-0.02,0.02-0.04,0.02-0.06c0.21-2.65-0.58-4.91-0.94-7.53C83.39,1.58,83.27,0.79,83.25,0z"/>
	<path class="st0" d="M0.03,0H15.1c0.07,0.28,0.12,0.58,0.14,0.89c0.07,1.05,0.1,2.08,0.05,3.1c0.25,14.03,0.23,28.07,0.29,42.11
		c0.06,14.76-1.22,29.95,0.73,44.63c0.47,0.69,0.78,1.53,0.88,2.47c0.57,5.5,0.2,10.31-0.94,15.7c-1.05,4.98-0.93,10.18-1,15.25
		c-0.08,5.21-0.01,10.45,0.63,15.63c0.68,5.51,2.24,10.64,1.1,16.22c-0.06,0.31-0.15,0.58-0.27,0.84H0.04
		c-0.01-0.03-0.01-0.06-0.01-0.09c-0.04-0.29-0.04-0.59,0-0.89c0.01-0.09,0.02-0.18,0.04-0.28c0.42-2.15,1.34-4.23,3-5.62
		c-0.97-2-2.07-4.01-2.14-6.3c-0.07-2.48,1.12-4.69,0.88-7.18c-0.24-2.4-1.23-4.65-1.18-7.08c0.04-2.38,1.43-4.14,2.04-6.34
		c0.69-2.49-0.02-4.37-0.55-6.74c-0.48-2.13,0.6-3.9,0.35-5.87c-0.24-1.96-1.7-3.39-1.67-5.6c0.02-0.89,0.28-1.63,0.69-2.21
		c-1.23-2.72,1.11-5.81,1.03-8.79c-0.06-2.38-1.4-4.25-1.14-6.76c0.2-1.89,1.13-3.39,1.73-5.15c0.74-2.19,0.07-4.05-0.15-6.27
		c-0.23-2.39,0.32-4.74-0.26-7.08c-0.95-3.79-1.04-7.04,1.02-10.15c0.04-0.4,0.14-0.81,0.34-1.24c1.65-3.65,0.53-5.62-1.16-8.88
		c-1.88-3.63-1.09-6.35-0.05-10c0.47-1.64-0.67-2.48-1.18-4.08c-0.59-1.85-0.5-3.71,0.06-5.56c0.58-1.92,1.16-2.89,0.7-4.88
		c-0.42-1.82-0.99-3.58-0.98-5.47c0.01-1.86,0.98-3.53,1.04-5.31c0.06-1.72-1.07-3.45-1.67-5.01C0.49,7.27,0.22,6.44,0.03,5.58V0z"
		/>
	<path class="st2" d="M11.69,0h10.12c-0.12,2.43-0.96,4.72-1.53,7.12c-0.81,3.35-0.64,5.96-0.09,9.31c0.43,2.66-0.06,4.99-0.53,7.59
		c-0.33,1.87-0.28,3.39,0.29,5.19c0.36,1.12,0.58,2.11,0.53,3.3c-0.07,1.38-0.53,2.67-0.74,4.02c-0.29,1.78,0.1,3.25,0.59,4.94
		c0.69,2.38,0.91,4.37,0.13,6.76c-0.48,1.48-1.15,2.83-1.01,4.42c0.1,1.09,0.58,2.08,0.64,3.19c0.17,2.77-1.8,5.64-0.11,8.2
		c1.87,2.86-1.14,6.05-0.32,9.26c0.41,1.62,1.3,3.09,1.38,4.8c0.09,2.25-1.1,4.1-0.66,6.4c0.28,1.48,0.77,2.9,0.56,4.42
		c-0.1,0.72-0.47,1.29-0.6,1.97c-0.41,2.07,0.18,2.73,0.51,4.57c0.29,1.68-0.2,2.92-0.56,4.55c-0.43,1.97,0.42,3.68,0.04,5.52
		c0.06,0.08,0.1,0.17,0.13,0.26c0.42,1.18-0.18,1.92-0.11,3.12c0.08,1.19,0.49,2.21,0.26,3.43c-0.27,1.48-1.6,2.8-1.46,4.36
		c0.07,0.87,0.39,1.52,0.53,2.31c0.34,0.14,0.64,0.43,0.79,0.94c0.5,1.68,0.43,2.71,0.04,4.36c-0.29,1.2-0.55,2.19-0.2,3.55
		c0.18,0.71,0.48,1.25,0.5,2c0.06,1.56-0.81,2.87-1.23,4.31c-0.57,1.91,0.37,3.14,0.74,4.9c0.8,3.82-2.04,7.47-1.81,11.24
		c0.13,2.21,2.11,2.96,2.9,4.76c0.26,0.59,0.38,1.18,0.39,1.77h-9.56c-0.33-1.41-1.05-2.61-1.24-4.21
		c-0.19-1.63,0.89-2.36,1.27-3.83c0.62-2.37-1.58-3.93-1.9-6.05c-0.14-0.96,0.23-1.7,0.55-2.57c0.5-1.34,1.08-2.43,0.77-3.94
		c-0.19-0.89-0.78-1.59-1.06-2.42c-0.4-1.21-0.35-1.89,0.09-3.04c0.74-1.92,1.57-3.22,1.68-5.36c0.1-2.04-0.21-4.09-0.55-6.1
		c-0.29-1.68-0.74-3.41-0.81-5.13c-0.08-1.91,0.59-3.75,0.34-5.64c-0.44-3.29-2.33-5.83-1.5-9.29c0.41-1.7,1.27-3.25,1.76-4.93
		c0.51-1.81,0.47-3.61,0.29-5.45c-0.4-1.21-0.86-2.39-1.12-3.65c-0.29-1.41,0.06-2.53,0.53-3.65c0.04-0.81,0.16-1.62,0.37-2.44
		c-0.53-1.72-0.33-3.27,0.07-5.03c0.63-2.81,0.88-4.92-0.34-7.57c-0.55-1.21-1.07-2.32-0.88-3.69c0.24-1.84,1.75-2.8,2.44-4.4
		c1.67-3.83-2.33-8.28-1.4-12.49c0.49-2.22,1.37-3.96,1.21-6.32c-0.16-2.49-0.75-5.12-1.34-7.54c-0.45-1.84-1.72-3.97-1.65-5.91
		c0.07-1.9,1.48-3.53,1.93-5.33c0.75-3.01-1.16-4.11-1.57-6.71c-0.24-1.52,0.29-2.86,0.96-4.2c1.31-2.59,1.59-3.97,1.05-6.89
		C12.02,2.11,11.74,1.04,11.69,0z"/>
	<path class="st3" d="M10.97,0c0.82,0,1.63,0,2.45,0c-0.31,0.75-0.01,2.05,0.09,3.68c0.05,0.83,0.23,1.53,0.41,2.08c0,0,0,0,0,0.01
		c0.04,0.1,0.07,0.21,0.1,0.32c0.28,1,0.2,1.72-0.09,2.48c-0.15,0.39-0.36,0.78-0.6,1.24c-0.64,1.16-1.47,2.33-1.76,3.65
		c-0.31,0.7-0.33,1.43-0.07,2.21c0.32,0.16,0.62,0.36,0.89,0.58c0.78,1.03,1.37,1.54,0.96,2.89c0.13,0.18,0.21,0.4,0.22,0.69
		c0.04,1.49-0.42,2.55-1.26,3.78c-0.5,0.72-1.64,1.81-1.72,2.7c-0.09,0.98,1.08,2,1.51,2.75c1.62,2.88,1.16,6.74,1.3,9.92
		c0.09,1.88,0.29,3.82,0.04,5.69c-0.28,2.05-1.43,3.82-0.8,5.92c0.32,1.08,0.89,2.06,1.38,3.04c0,0.01,0,0.01,0,0.01
		c0.62,1.23,1.13,2.48,0.94,3.97c-0.11,0.89-0.47,1.64-0.93,2.32c-1.32,2.02-3.39,3.46-1.97,6.38c0.59,1.22,1.3,2.37,1.38,3.76
		c0.11,1.85-0.78,3.57-0.71,5.41c0.06,1.49,0.36,2.83,0.07,4.33c-0.33,1.76-1.21,3.47-1.29,5.26c-0.1,2.16,1.39,3.38,1.92,5.3
		c0.42,1.5,0.21,2.97-0.33,4.4c-0.03,0.07-0.07,0.15-0.11,0.21l-1.95,5.52c-0.75,2.1,0.06,3.34,0.91,5.21
		c1.15,2.51,0.73,4.77,0.23,7.36c-0.43,2.26,0.66,3.51,1.2,5.55c0.38,1.44,0.4,3.01,0.43,4.48c0.07,2.59-0.01,5.29-1.08,7.69
		c-0.62,1.38-1.49,1.75-0.96,2.99c0.37,0.87,1.07,1.17,1.26,2.24c0.52,2.98-2.52,5.38-1.19,8.3c0.88,1.93,2.62,3.19,1.73,5.52
		c-0.45,1.19-0.77,1.02-0.82,2.42c-0.04,1.08,0.2,1.42,0.44,2.4c0.19,0.74,0.23,1.45,0.2,2.16h-2.47c-0.01-1.66-0.83-2.54-1.04-4.21
		c-0.15-1.18,0.35-1.67,0.77-2.69c1.21-2.96-1.58-4-1.76-6.86c-0.07-1.16,0.34-2.18,0.77-3.23c0.34-0.85,1.07-1.96,0.99-2.9
		c-0.08-0.87-1.02-1.49-1.41-2.18c-1.1-1.94,0.03-2.65,0.98-4.36c1.59-2.89,1.68-7.95,0.81-11.12c-0.35-1.27-1.17-2.3-1.42-3.6
		c-0.29-1.5,0.17-2.8,0.47-4.25c0.42-2.04,0.22-3.85-0.89-5.67c-0.63-1.04-1.34-1.75-1.33-3.03c0.02-2.74,1.97-6.1,2.87-8.67
		c0.02-0.06,0.06-0.12,0.09-0.17c1.11-3.38-2.14-5.81-1.73-9.32c0.21-1.87,1.08-3.58,1.36-5.43c0.28-1.84-0.4-3.6-0.13-5.44
		c0.32-2.22,0.9-3.61-0.17-5.8c-0.51-1.06-1.16-2.11-1.26-3.32c-0.23-2.95,2.32-3.99,3.31-6.4c1.19-2.9-2.03-5.68-2.29-8.6
		c-0.14-1.58,0.57-2.87,0.93-4.36c0.48-2.03,0.2-4.22,0.11-6.28c-0.09-1.99-0.01-4.08-0.28-6.05c-0.33-2.38-1.75-3.06-2.4-4.99
		c-1.13-3.36,2.93-5.05,2.84-8.12c0-0.02,0.01-0.05,0.01-0.07c-0.25-0.26-0.36-0.63-0.19-1.08c0.06-0.18-2.14-2.27-2.27-3.03
		c-0.27-1.56,0.77-3.58,1.39-4.93c0.87-1.88,1.64-2.55,1.53-3.9c-0.08-0.95-0.45-0.85-0.52-1.89c-0.08-1.24,0.42-1.81,0.61-3.68
		C11.72,0.7,10.97,0.28,10.97,0z"/>
	<path class="st3" d="M91.16,0h2.51c-0.16,1.65-0.25,3.39-0.38,5.04c-0.18,2.17,0.94,3.44,1.42,5.43c1.02,4.28-3.53,7.33-1.49,11.62
		c1.49,3.13,0.85,4.63,0.01,7.87c-0.75,2.87,2.14,5.43,0.77,8.13c0.05,0.18,0.07,0.38,0.02,0.6c-0.48,2.41-2.45,4.74-2.51,7.18
		c-0.06,2.55,2.44,4.38,2.85,6.84c0.3,1.81-0.36,3.44-1.09,5.04c-0.63,1.37-1.53,2.73-1.54,4.31c-0.01,1.4,0.75,2.7,1.24,3.96
		c0.75,1.95,1.08,3.74,0.76,5.83c-0.23,1.5-0.86,2.81-1.24,4.25c-0.51,1.97-0.4,2.81,0.58,4.4c0.99,1.6,1.1,3.16,0.73,4.99
		c-0.36,1.75-1.37,3.41-0.91,5.28c0.32,1.3,1.27,2.43,2.07,3.47c0.36,0.46,0.29,0.92,0.01,1.25c0.4,2.65-0.93,4.56-2.6,6.62
		c-1.64,2.03-2.68,4.34-0.59,6.36c0.78,0.75,1.68,1.37,2.29,2.29c1.4,2.13,0.89,4.58-0.07,6.78c-0.88,2-2.25,3.81-1.74,6.08
		c0.29,1.32,1.27,2.36,1.36,3.75c0.09,1.34-0.8,2.44-0.66,3.79c0.14,1.29,0.86,2.29,0.75,3.66c-0.24,2.84-3.24,5.71-1.86,8.53
		c1.21,2.49,2.74,3.42,1.75,6.35c-0.21,0.61-0.62,1.21-0.71,1.86c-0.16,1.24,0.62,2.6,0.77,3.84c0.06,0.49,0.07,0.97,0.02,1.43
		h-2.53c0.09-1.53-0.58-2.71-0.72-4.34c-0.1-1.16,0.37-1.99,0.65-3.07c0.56-2.25-0.34-3.04-1.35-4.83
		c-0.13-0.22-0.24-0.45-0.34-0.68v-0.01c-0.29-0.69-0.44-1.41-0.42-2.17c0.02-0.67,0.17-1.32,0.39-1.95c0,0,0,0,0-0.01
		c0.73-2.06,2.17-3.96,1.86-6.18c-0.17-1.16-0.88-2.13-0.78-3.35c0.13-1.6,0.86-2.4,0.15-4.05c-1.06-2.47-1.3-4.13-0.25-6.72
		c0.64-1.57,1.96-3.25,2.03-4.97c0.09-2.03-0.99-3.03-2.35-4.3c-0.25-0.23-0.48-0.47-0.7-0.72c-1.12-1.25-1.79-2.7-1.42-4.5
		c0.2-0.98,0.75-1.88,1.42-2.76c0,0,0,0,0-0.01c1.57-2.07,3.73-4.01,3.19-6.51c-0.06-0.23-0.04-0.44,0.02-0.62
		c-1.31-1.76-2.39-3.63-2.21-5.92c0.11-1.35,0.68-2.59,0.98-3.9c0.43-1.92-0.2-2.87-1.07-4.47c-1.07-1.94-0.84-3.32-0.12-5.35
		c1.32-3.73,1.42-6.29-0.01-9.94c-0.89-2.25-1.05-4.16-0.17-6.44c0.43-1.1,1.06-2.11,1.48-3.21c0.81-2.13,0.4-3.4-0.72-5.36
		c-0.64-1.12-1.21-2.14-1.46-3.27c-0.17-0.74-0.21-1.51-0.06-2.37c0.02-0.1,0.04-0.19,0.06-0.29c0-0.01,0-0.01,0-0.01
		c0.45-2.1,1.72-3.92,2.29-5.99c-0.23-0.33-0.27-0.76,0.04-1.19c0.94-1.3-1.04-4.16-1.08-5.73c-0.03-1.23,0.42-2.4,0.78-3.55
		c0.32-1.02,0.8-2.26,0.55-3.36c-0.25-1.07-1.19-2.05-1.55-3.11c-0.34-1-0.4-1.98-0.21-3.02c0.39-2.07,1.94-3.83,2.18-5.9
		c0.28-2.31-1.28-3.55-1.62-5.65c-0.21-1.3,0.36-2.46,0.38-3.74C91.01,2.16,91.15,1.11,91.16,0z"/>
	<path class="st4" d="M35.01,148.56c0,3.87,6.01,3.87,6.01,0C41.01,144.7,35.01,144.69,35.01,148.56z"/>
	<path class="st4" d="M29.45,147.65c0,2.74,4.26,2.75,4.26,0C33.71,144.9,29.45,144.9,29.45,147.65z"/>
	<path class="st4" d="M29.01,132.02c0,3.7,5.74,3.7,5.74,0C34.76,128.33,29.01,128.32,29.01,132.02z"/>
	<path class="st4" d="M48.17,128.35c0,3.88,6.03,3.89,6.03,0C54.2,124.47,48.17,124.46,48.17,128.35z"/>
	<path class="st4" d="M65,139.37c0,4.3,6.68,4.3,6.68,0C71.67,135.08,65,135.07,65,139.37z"/>
	<path class="st4" d="M46.18,146.73c0,3.68,5.72,3.69,5.72,0C51.9,143.05,46.18,143.04,46.18,146.73z"/>
	<path class="st4" d="M68.57,150.1c0,2.85,4.43,2.85,4.43,0C73,147.25,68.57,147.24,68.57,150.1z"/>
	<path class="st4" d="M81.21,150.71c0,3.93,6.1,3.93,6.1,0C87.32,146.78,81.21,146.78,81.21,150.71z"/>
	<path class="st4" d="M77.39,132.02c0,4.11,6.39,4.12,6.39,0C83.78,127.91,77.39,127.9,77.39,132.02z"/>
	<path class="st4" d="M74.47,119.65c-0.51,0.19-0.9,0.64-0.9,1.34c0,0.7,0.4,1.15,0.9,1.34c1.21,2.5,5.79,2.06,5.79-1.34
		C80.26,117.6,75.68,117.15,74.47,119.65z"/>
	<path class="st4" d="M61.97,111.5c0,3.46,5.38,3.47,5.38,0C67.35,108.04,61.97,108.03,61.97,111.5z"/>
	<path class="st4" d="M35.43,114.26c0,3.71,5.77,3.72,5.77,0C41.2,110.55,35.43,110.54,35.43,114.26z"/>
	<path class="st4" d="M33.19,106.6c0,3.83,5.96,3.84,5.96,0C39.15,102.76,33.19,102.76,33.19,106.6z"/>
	<path class="st4" d="M31.8,92.81c0,4.05,6.29,4.06,6.29,0C38.09,88.76,31.8,88.76,31.8,92.81z"/>
	<path class="st4" d="M29.16,80.56c0,3.9,6.05,3.9,6.05,0C35.22,76.67,29.16,76.66,29.16,80.56z"/>
	<path class="st4" d="M26.01,89.75c0,3.62,5.62,3.62,5.62,0C31.63,86.13,26.01,86.13,26.01,89.75z"/>
	<path class="st4" d="M26.08,102c0,3.93,6.1,3.93,6.1,0C32.18,98.08,26.08,98.07,26.08,102z"/>
	<path class="st4" d="M56.85,92.81c0,4.14,6.44,4.15,6.44,0C63.28,88.67,56.85,88.67,56.85,92.81z"/>
	<path class="st4" d="M71.36,100.78c0,3.6,5.6,3.61,5.6,0C76.96,97.18,71.36,97.17,71.36,100.78z"/>
	<path class="st4" d="M66.94,82.4c0,4.16,6.46,4.16,6.46,0C73.41,78.24,66.94,78.24,66.94,82.4z"/>
	<path class="st4" d="M43.5,97.72c0,2.79,4.33,2.79,4.33,0C47.83,94.93,43.5,94.92,43.5,97.72z"/>
	<path class="st4" d="M37.15,67.08c0,4.65,7.23,4.66,7.23,0C44.38,62.43,37.15,62.43,37.15,67.08z"/>
	<path class="st4" d="M63.33,71.07c0,3.3,5.12,3.3,5.12,0C68.45,67.77,63.33,67.77,63.33,71.07z"/>
	<path class="st4" d="M69.94,60.96c0,2.66,4.14,2.67,4.14,0C74.08,58.29,69.94,58.29,69.94,60.96z"/>
	<path class="st4" d="M75.38,43.5c0,1.32,1.38,1.75,2.28,1.3c0.08,1.72,2.79,1.7,2.79-0.08c0-1.17-1.18-1.58-2.01-1.22c0,0,0,0,0,0
		C78.44,41.53,75.38,41.52,75.38,43.5z"/>
	<path class="st4" d="M53.62,44.72c0,3.96,6.15,3.96,6.15,0C59.77,40.77,53.62,40.76,53.62,44.72z"/>
	<path class="st4" d="M37.95,41.36c-1.96-1.1-5.09-0.19-5.09,2.75c0,4.27,6.63,4.27,6.63,0c0-0.44-0.07-0.84-0.2-1.19
		c0.64-0.02,1.26-0.44,1.26-1.27C40.55,40.07,38.24,39.97,37.95,41.36z"/>
	<path class="st4" d="M22.82,39.52c0,2.2,3.42,2.21,3.42,0C26.24,37.31,22.82,37.31,22.82,39.52z"/>
	<path class="st4" d="M31.88,32.78c0,1.97,3.06,1.97,3.06,0C34.95,30.8,31.88,30.8,31.88,32.78z"/>
	<path class="st4" d="M33.38,21.44c0,3.99,6.2,3.99,6.2,0C39.58,17.45,33.38,17.45,33.38,21.44z"/>
	<path class="st4" d="M25.26,59.12c0,4.19,6.51,4.2,6.51,0C31.77,54.93,25.26,54.92,25.26,59.12z"/>
	<path class="st4" d="M50.14,19.6c0,4.5,6.99,4.5,6.99,0C57.13,15.11,50.14,15.1,50.14,19.6z"/>
	<path class="st4" d="M65.72,30.02c0,3.76,5.84,3.76,5.84,0C71.56,26.26,65.72,26.26,65.72,30.02z"/>
	<path class="st4" d="M77.98,18.57c-0.82-0.77-2.55-0.43-2.55,1.03c0,1.02,0.85,1.49,1.63,1.42c0.21,3.96,6.45,3.9,6.45-0.2
		C83.51,17.66,79.76,16.91,77.98,18.57z"/>
	<path class="st4" d="M69.81,7.28c-0.6-1-2.51-0.78-2.51,0.69c0,1.6,2.28,1.72,2.64,0.38c0.95,3.39,6.73,3.07,6.73-0.99
		C76.67,2.96,69.89,2.93,69.81,7.28z"/>
	<path class="st4" d="M54.8,2.14c0,0.08,0.01,0.15,0.02,0.23c-1.92-0.45-4.24,0.59-4.24,3.14c0,4.33,6.72,4.33,6.72,0
		c0-0.93-0.31-1.66-0.8-2.19c0.48-0.14,0.87-0.53,0.87-1.18C57.37,0.49,54.8,0.49,54.8,2.14z"/>
	<path class="st4" d="M35.16,10.72c0,3.28,5.1,3.29,5.1,0C40.25,7.44,35.16,7.44,35.16,10.72z"/>
	<path class="st4" d="M22.5,10.11c0,3.8,5.91,3.81,5.91,0C28.41,6.31,22.5,6.3,22.5,10.11z"/>
	<path class="st5" d="M25.17,144.58c0,2.73,4.24,2.73,4.24,0C29.41,141.86,25.17,141.85,25.17,144.58z"/>
	<path class="st5" d="M24,150.1c0,3.05,4.74,3.05,4.74,0C28.74,147.05,24,147.04,24,150.1z"/>
	<path class="st5" d="M49.26,149.79c0,4.05,6.29,4.06,6.29,0C55.55,145.74,49.26,145.73,49.26,149.79z"/>
	<path class="st5" d="M64.97,149.48v0.61c0,0.8,0.7,1.57,1.53,1.53c0.83-0.04,1.53-0.67,1.53-1.53v-0.61c0-0.8-0.7-1.57-1.53-1.53
		C65.67,147.99,64.97,148.62,64.97,149.48z"/>
	<path class="st5" d="M58.56,138.15c0,3.91,6.08,3.92,6.08,0C64.64,134.24,58.56,134.23,58.56,138.15z"/>
	<path class="st5" d="M46.2,130.19c0,2.46,3.83,2.47,3.83,0C50.03,127.72,46.2,127.72,46.2,130.19z"/>
	<path class="st5" d="M59.76,122.22c0,1.97,3.06,1.97,3.06,0C62.82,120.25,59.76,120.25,59.76,122.22z"/>
	<path class="st5" d="M25.1,124.06c0,4.39,6.82,4.4,6.82,0C31.93,119.67,25.1,119.66,25.1,124.06z"/>
	<path class="st5" d="M41.32,106.9c0,4.02,6.25,4.03,6.25,0C47.57,102.89,41.32,102.88,41.32,106.9z"/>
	<path class="st5" d="M68.03,112.11c0,1.97,3.06,1.97,3.06,0C71.09,110.14,68.03,110.14,68.03,112.11z"/>
	<path class="st5" d="M78.38,130.49c0,3.23,5.03,3.24,5.03,0C83.41,127.26,78.38,127.25,78.38,130.49z"/>
	<path class="st5" d="M73.89,97.15c-0.05,0.06-0.09,0.11-0.14,0.17c-0.3,0.38-0.55,0.74-0.7,1.2c-0.19,0.58-0.09,1.23,0.14,1.78
		c0.4,0.96,1.41,1.73,2.49,1.68c0.95-0.04,1.86-0.51,2.36-1.35c0.31-0.53,0.4-1.14,0.32-1.74c0-0.25-0.06-0.48-0.19-0.69
		c-0.11-0.34-0.3-0.63-0.56-0.88c-0.05-0.06-0.09-0.11-0.14-0.17c-0.36-0.46-1.23-0.77-1.79-0.74
		C75.06,96.43,74.3,96.63,73.89,97.15z"/>
	<path class="st5" d="M68.05,84.24c0,3.91,6.08,3.92,6.08,0C74.13,80.33,68.05,80.32,68.05,84.24z"/>
	<path class="st5" d="M49.28,91.28c0,4.02,6.25,4.03,6.25,0C55.53,87.26,49.28,87.26,49.28,91.28z"/>
	<path class="st5" d="M44.54,74.74c0,3.82,5.93,3.83,5.93,0C50.47,70.92,44.54,70.92,44.54,74.74z"/>
	<path class="st5" d="M56.7,73.52c0,1.97,3.06,1.97,3.06,0C59.76,71.55,56.7,71.54,56.7,73.52z"/>
	<path class="st5" d="M58.76,56.8c-0.15-0.75-1-1.37-1.75-1.34c-0.59,0.03-1.22,0.34-1.55,0.85c-0.47,0.2-0.83,0.62-0.83,1.28
		c0,0.78,0.5,1.23,1.09,1.36c0.36,0.32,0.8,0.52,1.29,0.52c0.23,0,0.46-0.05,0.67-0.13c-0.04,0.22-0.07,0.46-0.07,0.71
		c0,4.34,6.75,4.35,6.75,0c0-3.15-3.55-4.02-5.5-2.59c-0.01-0.12-0.02-0.24-0.04-0.36C58.79,56.99,58.78,56.89,58.76,56.8z"/>
	<path class="st5" d="M47.2,52.07c0,1.97,3.06,1.97,3.06,0C50.26,50.1,47.2,50.1,47.2,52.07z"/>
	<path class="st5" d="M27.91,70.76c0,1.37,0.74,2.26,1.7,2.67c-0.45,0.22-0.8,0.65-0.8,1.31c0,1.97,3.06,1.97,3.06,0
		c0-0.47-0.18-0.82-0.44-1.07c1.35-0.18,2.57-1.15,2.57-2.91C34.02,66.83,27.91,66.83,27.91,70.76z"/>
	<path class="st5" d="M66.11,68.92c0,4.05,6.29,4.06,6.29,0C72.4,64.87,66.11,64.87,66.11,68.92z"/>
	<path class="st5" d="M77.6,63.1c0,3.85,5.98,3.86,5.98,0C83.58,59.25,77.6,59.25,77.6,63.1z"/>
	<path class="st5" d="M75.11,40.13c0,3.9,6.05,3.9,6.05,0C81.17,36.23,75.11,36.23,75.11,40.13z"/>
	<path class="st5" d="M70.49,34.61c0,0.45,0.08,0.84,0.22,1.19c-0.83-0.3-1.95,0.12-1.95,1.26c0,1.81,2.81,1.81,2.81,0
		c0-0.05-0.01-0.1-0.01-0.15c1.75,1.34,5.03,0.58,5.03-2.3C76.6,30.69,70.49,30.68,70.49,34.61z"/>
	<path class="st5" d="M54.81,37.98c0,3.22,5,3.22,5,0C59.81,34.77,54.81,34.76,54.81,37.98z"/>
	<path class="st5" d="M45.66,26.65c0,4.34,6.75,4.35,6.75,0C52.41,22.31,45.66,22.3,45.66,26.65z"/>
	<path class="st5" d="M32.81,32.1c-1.76-0.49-3.98,0.45-3.98,2.82c0,2.63,2.74,3.5,4.54,2.61c2.07,1.16,5.38,0.19,5.38-2.91
		C38.76,31.21,34.78,30.37,32.81,32.1z"/>
	<path class="st5" d="M43.46,15.62c0,4.42,6.87,4.43,6.87,0c0-0.31-0.04-0.6-0.1-0.86c0.2,0.02,0.42-0.1,0.42-0.36
		c0-0.37-0.42-0.46-0.64-0.28C48.65,11.28,43.46,11.77,43.46,15.62z"/>
	<path class="st5" d="M29.08,11.03c0,1.28,0.64,2.15,1.51,2.61c-0.69,0.03-1.35,0.48-1.35,1.37c0,1.83,2.84,1.83,2.84,0
		c0-0.45-0.17-0.79-0.44-1.02c1.71,0.26,3.66-0.72,3.66-2.96C35.3,7.02,29.08,7.02,29.08,11.03z"/>
	<path class="st5" d="M65.2,13.17c0,2.46,3.83,2.47,3.83,0C69.03,10.71,65.2,10.7,65.2,13.17z"/>
	<path class="st5" d="M73.21,15.62c0,3.19,4.95,3.19,4.95,0C78.16,12.43,73.21,12.43,73.21,15.62z"/>
	<path class="st5" d="M54.88,11.03c0,3.53,5.48,3.53,5.48,0C60.36,7.5,54.88,7.5,54.88,11.03z"/>
	<path class="st5" d="M30.47,2.76c0,2.22,3.45,2.22,3.45,0C33.91,0.54,30.47,0.54,30.47,2.76z"/>
	<path class="st5" d="M29.67,154.69c0,1.28,1.98,1.28,1.98,0C31.65,153.42,29.67,153.41,29.67,154.69z"/>
	<path class="st5" d="M34.3,151.32c0,0.04,0.06,0.04,0.06,0C34.37,151.28,34.3,151.28,34.3,151.32z"/>
	<path class="st5" d="M47.48,153.77c0,0.04,0.06,0.04,0.06,0C47.54,153.73,47.48,153.73,47.48,153.77z"/>
	<path class="st5" d="M52.38,154.69c0,0.04,0.06,0.04,0.06,0C52.44,154.65,52.38,154.65,52.38,154.69z"/>
	<path class="st5" d="M51.46,155.92c0,0.04,0.06,0.04,0.06,0C51.52,155.88,51.46,155.88,51.46,155.92z"/>
	<path class="st5" d="M68.31,155.61c0,0.04,0.06,0.04,0.06,0C68.37,155.57,68.31,155.57,68.31,155.61z"/>
	<path class="st5" d="M67.39,146.73c0,0.04,0.06,0.04,0.06,0C67.45,146.69,67.39,146.69,67.39,146.73z"/>
	<path class="st5" d="M64.63,143.66c0,0.04,0.06,0.04,0.06,0C64.69,143.62,64.63,143.62,64.63,143.66z"/>
	<path class="st5" d="M56.05,141.52c0,0.04,0.06,0.04,0.06,0C56.11,141.48,56.05,141.48,56.05,141.52z"/>
	<path class="st5" d="M57.65,152.24c0,0.74,1.15,0.74,1.15,0C58.8,151.5,57.65,151.5,57.65,152.24z"/>
	<path class="st5" d="M59.62,152.59c-0.61-0.03-1.24,0.69-0.99,1.3c0.05,0.12,0.1,0.23,0.16,0.33c0.01,0.04,0.05,0.12,0.12,0.27
		c0.14,0.22,0.33,0.37,0.53,0.53c0.58,0.49,1.4,0.51,1.9-0.13c0.46-0.6,0.3-1.47-0.36-1.87c-0.12-0.07-0.25-0.16-0.38-0.23
		c-0.2-0.1-0.37-0.14-0.56-0.15C59.91,152.62,59.77,152.6,59.62,152.59z"/>
	<path class="st5" d="M57.7,145.81c0,1.47,2.28,1.47,2.28,0C59.98,144.34,57.7,144.34,57.7,145.81z"/>
	<path class="st5" d="M60.9,130.8c-0.04,0.71,0.04,1.43,0.08,2.14c0.05,0.79,0.75,1.4,1.55,1.18c0.78-0.21,1.11-1.11,0.73-1.8
		c-0.34-0.63-0.66-1.28-1.07-1.88C61.81,129.88,60.94,130.09,60.9,130.8z"/>
	<path class="st5" d="M56.36,127.73c0,0.04,0.06,0.04,0.06,0C56.42,127.7,56.36,127.7,56.36,127.73z"/>
	<path class="st5" d="M50.23,123.45c0,0.04,0.06,0.04,0.06,0C50.29,123.41,50.23,123.41,50.23,123.45z"/>
	<path class="st5" d="M56.36,116.71c0,0.04,0.06,0.04,0.06,0C56.42,116.67,56.36,116.67,56.36,116.71z"/>
	<path class="st5" d="M59.12,110.58c0,0.04,0.06,0.04,0.06,0C59.18,110.54,59.12,110.54,59.12,110.58z"/>
	<path class="st5" d="M58.78,105.99c0,0.87,1.35,0.87,1.35,0C60.13,105.12,58.78,105.12,58.78,105.99z"/>
	<path class="st5" d="M47.05,118.71c-0.06,0.13-0.12,0.25-0.18,0.38c-0.33,0.68,0.33,1.34,1.01,1.01c0.13-0.06,0.25-0.12,0.38-0.18
		c0.52-0.25,0.56-1.01,0.18-1.39C48.06,118.15,47.3,118.19,47.05,118.71z"/>
	<path class="st5" d="M41.4,124.65c0.19,0.22,0.37,0.45,0.56,0.67c0.4,0.48,1.16-0.28,0.68-0.68c-0.22-0.19-0.45-0.37-0.67-0.56
		C41.57,123.75,41.07,124.25,41.4,124.65z"/>
	<path class="st5" d="M67.43,101.7c0,1.96,3.04,1.96,3.04,0C70.47,99.74,67.43,99.74,67.43,101.7z"/>
	<path class="st5" d="M71.25,94.65c0,2.16,3.36,2.17,3.36,0C74.61,92.49,71.25,92.49,71.25,94.65z"/>
	<path class="st5" d="M75.98,86.08c0,1.2,1.87,1.2,1.87,0C77.85,84.87,75.98,84.87,75.98,86.08z"/>
	<path class="st5" d="M81.3,87.3c0,1.45,2.25,1.45,2.25,0C83.55,85.85,81.3,85.85,81.3,87.3z"/>
	<path class="st5" d="M79.95,91.28c0,2,3.12,2.01,3.12,0C83.07,89.28,79.95,89.27,79.95,91.28z"/>
	<path class="st5" d="M78.82,98.33c0,1.88,2.93,1.89,2.93,0C81.75,96.44,78.82,96.44,78.82,98.33z"/>
	<path class="st5" d="M64.26,88.53c0,1.7,2.64,1.7,2.64,0C66.9,86.83,64.26,86.82,64.26,88.53z"/>
	<path class="st5" d="M50.11,78.42c0,0.59,0.92,0.59,0.92,0C51.03,77.83,50.11,77.83,50.11,78.42z"/>
	<path class="st5" d="M40.99,77.5c0,1.69,2.63,1.69,2.63,0C43.61,75.81,40.99,75.8,40.99,77.5z"/>
	<path class="st5" d="M43.27,88.22c0,1.9,2.96,1.91,2.96,0C46.23,86.32,43.27,86.31,43.27,88.22z"/>
	<path class="st5" d="M47.88,68.92c0,1.88,2.93,1.89,2.93,0C50.81,67.04,47.88,67.03,47.88,68.92z"/>
	<path class="st5" d="M54.13,52.07c0,2.12,3.29,2.12,3.29,0C57.42,49.96,54.13,49.95,54.13,52.07z"/>
	<path class="st5" d="M38.31,48.7c0,1.58,2.46,1.58,2.46,0C40.77,47.12,38.31,47.12,38.31,48.7z"/>
	<path class="st5" d="M30.7,53.3c0,1.92,2.99,1.92,2.99,0C33.68,51.38,30.7,51.37,30.7,53.3z"/>
	<path class="st5" d="M32.56,45.34c0,1.88,2.93,1.89,2.93,0C35.49,43.45,32.56,43.45,32.56,45.34z"/>
	<path class="st5" d="M44.72,40.74c0,0.04,0.06,0.04,0.06,0C44.78,40.7,44.72,40.7,44.72,40.74z"/>
	<path class="st5" d="M63.1,37.37c0,0.04,0.06,0.04,0.06,0C63.16,37.33,63.1,37.33,63.1,37.37z"/>
	<path class="st5" d="M69.68,51.16c0,1.82,2.83,1.82,2.83,0C72.51,49.33,69.68,49.33,69.68,51.16z"/>
	<path class="st5" d="M69.3,41.97c0,1.52,2.37,1.53,2.37,0C71.67,40.44,69.3,40.44,69.3,41.97z"/>
	<path class="st5" d="M70.33,26.65c0,0.98,1.52,0.98,1.52,0C71.85,25.67,70.33,25.67,70.33,26.65z"/>
	<path class="st5" d="M67.74,16.23c-0.31,0.02-0.64,0.16-0.79,0.45c-0.19,0.38-0.22,0.74-0.07,1.13c0.02,0.05,0.04,0.1,0.06,0.15
		c0,0.04-0.01,0.07-0.01,0.11c0,1.8,2.8,1.8,2.8,0c0-0.64-0.35-1.05-0.81-1.23C68.6,16.5,68.24,16.2,67.74,16.23z"/>
	<path class="st5" d="M58.82,24.51c0,2,3.1,2,3.1,0C61.92,22.51,58.82,22.51,58.82,24.51z"/>
	<path class="st5" d="M61.22,21.44c0,2.06,3.2,2.06,3.2,0C64.42,19.38,61.22,19.38,61.22,21.44z"/>
	<path class="st5" d="M33.42,14.95c-0.07,0-0.07,0.11,0,0.11c0.2,0,0.41,0.01,0.61,0.01c0.09,0,0.09-0.15,0-0.14
		C33.82,14.94,33.62,14.95,33.42,14.95z"/>
	<path class="st5" d="M30.36,22.36c0,1.17,1.82,1.18,1.82,0C32.18,21.19,30.36,21.19,30.36,22.36z"/>
	<path class="st5" d="M27.14,25.73c0,1.38,2.14,1.38,2.14,0C29.28,24.35,27.14,24.35,27.14,25.73z"/>
	<path class="st5" d="M37.91,6.74c0,1.71,2.66,1.71,2.66,0C40.56,5.03,37.91,5.03,37.91,6.74z"/>
	<path class="st5" d="M46.55,5.82c0,2.01,3.13,2.02,3.13,0C49.68,3.81,46.55,3.8,46.55,5.82z"/>
	<path class="st5" d="M47.88,1.53c0,1.09,1.69,1.09,1.69,0C49.58,0.44,47.88,0.44,47.88,1.53z"/>
	<path class="st5" d="M62.49,1.84c0,0.04,0.06,0.04,0.06,0C62.55,1.8,62.49,1.8,62.49,1.84z"/>
	<path class="st5" d="M72.93,3.58c-0.13,0.01-0.13,0.19,0,0.2c0.1,0.01,0.2,0.01,0.31,0.02c0.16,0.01,0.16-0.26,0-0.24
		C73.14,3.56,73.03,3.57,72.93,3.58z"/>
	<path class="st5" d="M76.3,7.09c-0.34,0.03-0.34,0.5,0,0.53c0.2,0.02,0.41,0.03,0.61,0.05c0.41,0.03,0.41-0.67,0-0.63
		C76.71,7.05,76.5,7.07,76.3,7.09z"/>
	<path class="st5" d="M74.13,6.74c0,0.04,0.06,0.04,0.06,0C74.19,6.7,74.13,6.7,74.13,6.74z"/>
	<path class="st5" d="M74.45,5.21c0,0.65,0.57,1.26,1.23,1.23c0.67-0.03,1.23-0.54,1.23-1.23c0-0.65-0.57-1.26-1.23-1.23
		C75.02,4,74.45,4.52,74.45,5.21z"/>
	<path class="st5" d="M79.33,4.42c-0.23,0.12-0.46,0.24-0.68,0.37c-0.45,0.26-0.75,0.74-0.6,1.27c0.14,0.53,0.65,0.78,1.16,0.79
		c0.26,0,0.52-0.01,0.78-0.02c0.83-0.03,1.47-0.81,1.25-1.64C81,4.37,80.06,4.03,79.33,4.42z"/>
	<path class="st5" d="M26.83,109.97c0,0.56,0.49,1.1,1.07,1.07c0.58-0.03,1.07-0.47,1.07-1.07c0-0.56-0.49-1.1-1.07-1.07
		C27.32,108.92,26.83,109.37,26.83,109.97z"/>
	<circle class="st4" cx="34.03" cy="135.39" r="0.88"/>
	<path class="st4" d="M35.96,139.99c0,1.85,2.87,1.85,2.87,0C38.83,138.14,35.96,138.14,35.96,139.99z"/>
	<path class="st4" d="M25.51,137.54c-0.21,0.76,0.38,1.51,1.16,1.53c0.47,0.01,0.94,0.08,1.34-0.18c0.11-0.05,0.21-0.11,0.3-0.2
		c0.19-0.17,0.27-0.49,0.19-0.73c-0.04-0.12-0.09-0.22-0.16-0.32c-0.21-0.42-0.66-0.6-1.07-0.82
		C26.6,136.45,25.72,136.78,25.51,137.54z"/>
	<path class="st4" d="M53.93,131.72c0,1.98,3.07,1.98,3.07,0C57.01,129.74,53.93,129.74,53.93,131.72z"/>
	<path class="st4" d="M75.04,137.23c0,1.63,2.53,1.63,2.53,0C77.56,135.6,75.04,135.6,75.04,137.23z"/>
	<path class="st4" d="M77.47,105.37c0,1.64,2.56,1.65,2.56,0C80.03,103.73,77.47,103.73,77.47,105.37z"/>
	<path class="st4" d="M73.26,107.52c0,1.54,2.4,1.55,2.4,0C75.66,105.97,73.26,105.97,73.26,107.52z"/>
	<path class="st4" d="M55.3,117.32c0,1.79,2.79,1.8,2.79,0C58.09,115.53,55.3,115.52,55.3,117.32z"/>
	<path class="st4" d="M50.62,109.36c0,1.91,2.97,1.92,2.97,0C53.59,107.44,50.62,107.44,50.62,109.36z"/>
	<path class="st4" d="M58.99,81.48c0,1.78,2.77,1.79,2.77,0C61.76,79.7,58.99,79.69,58.99,81.48z"/>
	<path class="st4" d="M51.56,83.62c0,1.88,2.93,1.89,2.93,0C54.49,81.74,51.56,81.74,51.56,83.62z"/>
	<path class="st4" d="M55.57,73.21c0,1.85,2.87,1.85,2.87,0C58.44,71.36,55.57,71.36,55.57,73.21z"/>
	<path class="st4" d="M68.65,72.6c0,1.57,2.44,1.57,2.44,0C71.09,71.03,68.65,71.02,68.65,72.6z"/>
	<path class="st4" d="M75.25,58.81c0,1.75,2.71,1.75,2.71,0C77.96,57.07,75.25,57.06,75.25,58.81z"/>
	<path class="st4" d="M26.78,10.72c0,1.84,2.86,1.84,2.86,0C29.64,8.88,26.78,8.88,26.78,10.72z"/>
	<path class="st4" d="M52.78,48.7c0,1.49,2.31,1.49,2.31,0C55.1,47.22,52.78,47.21,52.78,48.7z"/>
	<path class="st4" d="M56.1,53.61c0,1.95,3.03,1.95,3.03,0C59.13,51.66,56.1,51.65,56.1,53.61z"/>
	<path class="st4" d="M50.01,66.78c0,1.9,2.96,1.91,2.96,0C52.97,64.87,50.01,64.87,50.01,66.78z"/>
	<path class="st4" d="M48.37,61.26c0,1.64,2.56,1.65,2.56,0C50.93,59.62,48.37,59.62,48.37,61.26z"/>
	<path class="st4" d="M45.1,58.51c0,1.91,2.97,1.92,2.97,0C48.07,56.59,45.1,56.59,45.1,58.51z"/>
</g>
</svg>
