<?xml version="1.0" encoding="utf-8"?>
<!-- Generator: Adobe Illustrator 25.2.3, SVG Export Plug-In . SVG Version: 6.00 Build 0)  -->
<svg version="1.1" id="Layer_1" xmlns="http://www.w3.org/2000/svg" xmlns:xlink="http://www.w3.org/1999/xlink" x="0px" y="0px"
	 viewBox="0 0 208.91 156.39" style="enable-background:new 0 0 208.91 159.39;" xml:space="preserve">
<style type="text/css">
	.st0{fill:#D6AD29;}
	.st1{fill:#B79D1D;}
	.st2{fill:#A5B508;}
	.st3{fill:#557507;}
	.st4{fill:#C6A028;}
	.st5{fill:#E2BD23;}
</style>
<g>
	<path class="st0" d="M208.91,19.81v68.98c-1.01,0.03-2.01,0.07-2.97,0.12c-5.2,0.31-10.24,0.94-15.3,2.19
		c-7.23,1.77-14.65,4.15-21.68,7.06c-0.11,0.87-0.51,1.69-1.3,2.32c-2.7,2.13-5.27,4.41-7.69,6.84c-1.08,1.07-2.13,2.19-3.14,3.33
		c-2.28,2.55-4.39,5.25-6.31,8.09c-0.69,1.02-1.35,2.06-1.97,3.1c-0.9,1.49-1.74,3-2.53,4.53c-0.42,0.81-0.82,1.62-1.21,2.44
		c-0.27,0.57-0.54,1.14-0.8,1.72c-1.8,3.93-3.35,7.98-4.83,12.09c-0.26,5.59-0.38,11.17-0.33,16.77H70.75
		c-0.09-1.19-0.14-2.37-0.33-3.44c-0.73-4.07-2.19-8.01-3.8-11.81c-2.92-6.86-6.35-13.59-7.99-20.88c-2.05-1.17-3.3-3.26-4.56-5.27
		c-0.63-1.01-1.29-2-1.98-2.97c-2.6-3.68-5.62-7.05-9.21-9.81c-4.81-3.69-10.31-6.56-15.61-9.46c-5.17-2.84-10.59-5.33-16.54-5.75
		c-0.91-0.06-1.65-0.33-2.27-0.74C5.63,89.09,2.82,88.97,0,88.94V19.71c0.29-0.09,0.59-0.15,0.88-0.23c0.24,0.2,0.56,0.34,0.96,0.34
		H208.91z"/>
	<path class="st1" d="M73.52,159.39h-9.71c0.28-1.92,0.83-3.8-0.51-5.4c-1.01-1.21-1.21-1.47-0.88-2.82c0-0.01,0.01-0.01,0.01-0.01
		c0.04-0.15,0.08-0.32,0.13-0.51c0.25-0.87,0.36-1.46,0.23-2.1c0,0,0-0.01,0-0.01c-0.07-0.32-0.19-0.64-0.38-1.04
		c-0.27-0.54-0.74-0.97-0.99-1.53c-0.48-1.05-0.55-2.16-0.51-3.3c0.04-1.27,0.34-2.34,0.06-3.33c0.01-0.01,0.01-0.01,0-0.01
		c-0.06-0.17-0.12-0.32-0.2-0.48c-0.01-0.02-0.02-0.04-0.02-0.06c-0.15-0.29-0.37-0.56-0.67-0.85c-0.81-0.77-2.31-1.08-2.98-1.98
		c-1.55-2.07,1.48-4.7,0.06-6.94c-0.06-0.08-0.12-0.16-0.18-0.24c-0.39-0.45-0.96-0.73-1.56-0.97c-0.7-0.29-1.45-0.54-2-0.99
		c-0.6-0.49-1.02-1.1-1.35-1.79c-0.02-0.03-0.03-0.07-0.05-0.1c-0.67-1.42-0.74-3.04-1.43-4.45c-0.6-1.21-1.3-2.45-1.97-3.63
		c-0.59-1.04-1.38-1.97-2.29-2.85c-0.74-0.73-1.56-1.42-2.38-2.09c-0.62-0.51-1.25-1.01-1.85-1.51c0-0.01-0.01-0.01-0.01-0.01
		c-0.02-0.01-0.04-0.03-0.06-0.04c-0.1-0.04-0.2-0.09-0.3-0.13c-0.01-0.01-0.01-0.01-0.02-0.01c-1.55-0.77-2.65-1.86-3.98-3.05
		c-0.54-0.48-1.1-0.89-1.68-1.26c-1.75-1.1-3.66-1.84-5.42-3.03c-0.36-0.25-0.7-0.54-1.03-0.85c0-0.01,0-0.01-0.01-0.01
		c-0.68-0.64-1.32-1.32-2.1-1.78c-1.39-0.82-3.02-0.78-4.56-0.97c-0.09-0.01-0.18-0.02-0.26-0.04c-0.01,0-0.01,0-0.01,0
		c-1.55-0.22-2.87-0.7-4.21-1.42c-0.01-0.01-0.01-0.01-0.01-0.01c-0.21-0.12-0.42-0.23-0.64-0.36c-1.03-0.59-2.05-1.3-3.2-1.62
		c-1.53-0.42-3.04-0.04-4.59-0.16c-1.16-0.09-2.22-0.46-3.34-0.68c-0.96-0.19-1.8-0.18-2.62-0.11c-0.01,0-0.01,0-0.01,0
		c-0.79,0.06-1.56,0.18-2.43,0.21C1,95.1,0.5,95.25,0.09,95.06c-0.03-0.01-0.06,0.02-0.09,0V87.1c0.98-0.09,1.98-2.13,2.9-1.78
		c0.51,0.19,1.01,0.77,1.48,0.91c0.89,0.27,1.34-0.18,2.33-0.32c0.86-0.12,1.79,0.04,2.49,0.58c0.5,0.4,0.75,1.37,1.34,1.51
		c0.44,0.11,1.35-0.46,1.8-0.52c1.42-0.2,1.66,0.43,2.79,0.97c1.14,0.55,2.44-0.15,3.75,0.18c0.91,0.23,1.35,0.7,2.1,1.19
		c1.13,0.74,1.72,0.91,3.13,0.81c1.39-0.09,2.46-0.09,3.68,0.76c1.95,1.37,1.23,3.23,4.22,3.3c1.79,0.04,3.09-0.89,4.83,0.04
		c2.93,1.56,2.63,5.65,6.08,6.55c1.5,0.39,2.92,0.24,4.03,1.53c0.29,0.34,0.41,0.76,0.65,1.12c0.23,1,0.89,1.69,1.98,2.08
		c0.31,0.04,0.61,0.08,0.92,0.12c0.58,0.28,1.1,0.59,1.57,0.94c0.1,0.07,0.19,0.15,0.28,0.23c1.34,1.1,2.07,2.56,1.78,4.52
		c0.09,0.21,0.13,0.46,0.07,0.74c-0.19,1.02,2.55,3.28,3.24,3.68c0.85,0.5,1.87,0.64,2.66,1.23c1.07,0.79,1.62,1.93,1.82,3.22
		c0.21,1.38-0.42,2.6,0.59,3.85c0.38,0.47,1.07,0.77,1.53,1.18c1.02,0.88,1.7,1.76,1.75,3.14c0.02,0.75-0.47,1.54-0.41,2.22
		c0.14,1.63,1.21,1.5,2.16,2.38c1.15,1.07,1.68,2.54,1.65,4.09c-0.03,2.41-2.11,4.83-0.27,7.04c1.17,1.42,2.85,1.8,3.75,3.55
		c0.19,0.36,0.26,0.88,0,1.24c-2.09,2.83,0.7,3.77,1.51,6.19C74.61,156.82,73.64,158.11,73.52,159.39z"/>
	<path class="st1" d="M208.91,86.49v9.19c-0.72-0.32-1.61-1.75-2.52-1.98c-0.02-0.01-0.06-0.02-0.09-0.02h-0.01
		c-0.83-0.21-1.67-0.33-2.41-0.28c-0.02,0.02-0.04,0.05-0.06,0.07c-0.29,0.34-0.8,0.42-1.23,0.29c-1.37,0.7-2.35,2.11-3.82,2.75
		c-1.64,0.71-1.87,0.1-3.12-0.47c0,0,0,0-0.01,0c-0.07-0.02-0.14-0.06-0.21-0.09c-0.19-0.52-0.49-0.6-0.9-0.24
		c-0.35,0.06-0.63,0.23-0.85,0.51c-0.45,0.29-0.81,0.73-1.29,1c-0.14,0.09-0.28,0.15-0.42,0.21c-0.72,0.34-1.48,0.45-2.27,0.62
		c-0.24,0.06-0.44,0.12-0.63,0.21c-0.01,0.01-0.01,0.01-0.01,0.01c-0.55,0.24-0.93,0.59-1.54,0.78c-0.37,0.12-0.75,0.19-1.11,0.25
		c-0.01,0-0.01,0-0.02,0.01h-0.02c-0.44,0.08-0.86,0.15-1.26,0.29c-0.01,0-0.01,0-0.02,0.01c-0.5,0.17-0.94,0.47-1.32,1.05
		c-0.08,0.24-0.25,0.47-0.53,0.63c-2.02,1.19-3.97,0.61-6.08,1.29c-1.5,0.48-1.87,1.68-2.63,2.6c-0.28,0.34-0.61,0.64-1.07,0.85
		c-0.55,0.26-0.98,0.26-1.37,0.25c-0.17-0.01-0.34-0.02-0.5-0.02c-0.03,0.04-0.06,0.09-0.09,0.13c-0.56,0.72-1.13,1.23-1.83,1.76
		c0.01,0.1,0.01,0.19,0.01,0.29v0.01c-0.01,0.1-0.04,0.2-0.12,0.29c-0.69,0.87-1.44,1.02-2.34,1c-0.1,0.15-0.2,0.31-0.28,0.47
		c-0.33,0.7-0.2,1.36-0.78,2c-1.04,1.12-2.51,0.82-3.83,0.97h-0.01c-0.01,0-0.01,0-0.01,0c-0.81,0.1-1.57,0.36-2.13,1.23
		c-0.18,0.27-0.31,0.57-0.39,0.88c-0.01,0.02-0.02,0.05-0.02,0.07c-0.18,0.62-0.23,1.3-0.3,1.98c0,0,0,0.01,0,0.01
		c0,0.01,0,0.01,0,0.01c-0.12,1.15-0.32,2.26-1.32,2.99c-0.59,0.42-1.19,0.34-1.81,0.59c-1.09,0.42-0.6-0.07-0.95,0.8v0.01
		c-0.03,0.06-0.06,0.12-0.09,0.19c-0.49,1.08-1.15,1.84-1.58,2.73c-0.31,0.63-0.28,1.23-0.8,1.81c-0.26,0.29-0.65,0.44-0.95,0.66
		c-0.07,0.05-0.14,0.1-0.2,0.17c-0.65,0.67-1.04,1.56-1.15,2.54c-0.17,1.51-0.13,1.61-1.19,2.57c-0.01,0.01-0.01,0.01-0.01,0.01
		c-0.07,0.06-0.13,0.11-0.2,0.18c-0.18,0.16-0.36,0.26-0.53,0.32c-0.54,0.22-0.92,0.17-0.72,1.35c0,0,0,0.01,0,0.01
		c0.01,0.07,0.03,0.17,0.05,0.25c0.09,0.44,0.59,0.93,0.79,1.34c0.18,0.39,0.29,0.75,0.37,1.13c0.39,0.34,0.55,0.88,0.16,1.42
		c-0.04,0.07-0.09,0.13-0.15,0.19c-1.24,1.64-2.81,2.24-3.74,3.86c-0.04,0.07-0.09,0.13-0.12,0.21c-0.21,0.39-0.37,0.83-0.5,1.35
		c-0.21,0.88-0.42,1.75-0.64,2.62v0.01c0,0.01,0,0.02-0.01,0.02l-0.09,0.33c0,0.01,0,0.01-0.01,0.02c-0.2,0.77-0.4,1.53-0.63,2.29
		c0.06,0.03,0.12,0.07,0.17,0.11c0.62,0.41,1.04,1.02,1.18,1.94c0.03,0.18,0.04,0.34,0.04,0.5c0,0.01,0,0.01,0,0.01
		c-0.01,0.55-0.19,1.02-0.31,1.61c-0.15,0.71-0.24,1.3-0.29,1.88c0,0.01,0,0.01,0,0.01c-0.05,0.61-0.05,1.24-0.01,2.02
		c0.03,0.67,0.04,1.38-0.15,1.98h-9.31c-0.14-1.41-1.04-2.82-0.81-4.14c0.15-0.85,0.56-0.96,0.36-1.8
		c-0.09-0.36-0.62-0.75-0.78-1.12c-0.58-1.34,0.1-1.65,0.5-2.77c0.29-0.81,0.07-3.33,0.67-4.19c0.26-0.37,0.74-0.47,1.07-0.74
		c1.04,0,1.53-0.67,1.48-2.01c-0.05-0.17-0.08-0.34-0.09-0.53c-0.02-0.03-0.04-0.07-0.06-0.1c-0.1-0.15-0.19-0.29-0.28-0.45
		c-0.36-1-1.36-1.89-0.81-3.03c0.2-0.41,0.65-0.56,0.89-0.86c0.76-0.92,0.93-1.32,0.93-1.67c0-0.35-0.18-0.66-0.12-1.4
		c0.13-1.69,0.91-2.07,1.92-3.3c-0.01-0.35,0.11-0.7,0.41-0.98c0.04-0.03,0.08-0.07,0.13-0.1c1.44-1.04,1.38-2.87,1.51-4.54
		c0.03-0.5,0.09-0.97,0.2-1.42c0.23-0.86,0.56-1.54,1.05-2.16c0.26-0.34,0.57-0.64,0.93-0.96c0.38-0.32,1.23-0.67,1.68-1.04
		c0.1-0.08,0.18-0.17,0.23-0.25c0.4-0.74-0.27-2.13-0.15-2.93c0.13-0.94,0.52-1.59,1.23-2.22c1.34-1.19,3.19-0.99,3.79-2.99
		c0.36-1.18-0.07-2.24,0.79-3.29c0.93-1.13,1.82-0.67,2.98-1.05c2.54-0.83,2.55-2.92,3.55-4.94c1.43-2.89,3.61-2.81,6.44-3.31
		c2.17-0.39,4.23-1.37,5.88-2.85c1.14-1.02,1.95-2.14,3.45-2.65c0.86-0.29,1.71-0.26,2.54-0.7c1.15-0.59,1.42-1.35,2.13-2.36
		c0.69-0.97,1.38-1.76,2.54-2.17c1.46-0.52,2.84-0.06,4.34-0.17c1.7-0.13,2.84-1.27,4.53-1.28c0.21-0.01,0.4,0.04,0.55,0.12
		c0.46-0.23,0.89-0.36,1.46-0.45c1.42-0.21,2.24-0.53,3.52-1.15c1.56-0.77,1.69-0.43,3.25,0.07c1.72,0.55,1.27,0.17,2.48-0.5
		c0.83-0.47,1.37-0.72,2.34-0.8C205.35,84.07,207.09,86.33,208.91,86.49z"/>
	<path class="st2" d="M65.28,155.11c-0.01,0.12-0.01,0.25-0.01,0.39c0,0.01,0,0.01,0,0.01c-0.01,0.97,0.01,2.53-0.18,3.88H52.07
		v-5.44c0-0.07-0.01-0.13-0.01-0.19c-0.09-0.83-0.15-0.34-0.27-0.87c-0.12-0.48-0.33-0.89-0.37-1.42c-0.1-1.49-0.38-3.54,0.28-5.04
		c0.09-0.21,0.23-0.43,0.37-0.66c0.65-0.99,1.56-2.05,0.29-2.6c-0.1-0.04-0.2-0.07-0.29-0.09c-0.61-0.1-1.27,0.16-1.87-0.21
		c-1.42-0.87-0.52-1.83-0.64-2.95c-0.14-0.14-0.25-0.34-0.29-0.59c-0.25-1.46-2.22-1.91-2.78-3.27c-0.25-0.59-0.09-1.02-0.19-1.6
		c-0.02-0.15-0.02-0.25-0.02-0.33c-0.05-0.03-0.1-0.06-0.15-0.09c-1.2-0.73-1.81-0.97-2.16-2.42c0.04-0.32,0.09-0.66,0.13-0.99
		c-0.28-0.81-0.74-1.44-1.38-1.9c-0.45-0.5-1.03-0.79-1.4-1.39c-0.41-0.67-0.55-1.28-0.43-2.06c0-0.22,0.06-0.42,0.17-0.61
		c0.18-0.21,0.29-0.38,0.32-0.5c-0.04-0.08-0.08-0.17-0.12-0.25c-0.15-0.04-0.44,0-0.87,0.13c-1.18-0.58-1.78-0.68-2.54-1.89
		c-0.59-0.94-0.77-2.05-1.3-2.99c-0.69-1.21-1.38-1.02-2.68-1.05c-1.13-0.03-2.3-0.17-3.09-1.08c-0.55-0.62-0.39-1.27-0.75-1.91
		c-0.86-1.56-1.1-0.96-2.29-1.3c-1.5-0.43-1.72-0.8-2.82-1.89c-1.5-1.48-2.52-1.72-4.45-1.77c-0.64-0.01-1.26,0.03-1.86-0.24
		c-0.53-0.25-0.81-0.77-1.26-1.05c-0.03-0.57-0.29-0.72-0.77-0.44c-0.4,0.2-0.81,0.34-1.24,0.42c-1.18,0.15-1.71-0.27-2.49-1.06
		c-0.16-0.31-0.31-0.62-0.43-0.94c-0.78-0.77-1.57-0.87-2.36-0.32c-0.79,0.09-1.45,0.48-2.28,0.42c-0.74-0.06-1.32-0.53-2-0.61
		c-2.95-0.36-2.36,0.37-3.94,1.65c-0.7,0.57-1.25,0.67-1.83,0.69V95.06c0.03,0.01,0.06-0.01,0.09,0c1.31,0.18,2.63-0.19,3.96-0.21
		c0.01,0,0.01,0,0.01,0c0.86-0.02,1.71,0.01,2.57,0.2c2.29,0.5,4.59,0.84,6.87,1.37c1.64,0.38,3.3,0.85,4.96,1.37
		c0.01,0,0.01,0,0.01,0.01c1.41,0.43,2.82,0.91,4.21,1.42c0.01,0,0.01,0,0.01,0c1.79,0.64,3.55,1.31,5.25,1.98
		c0.59,0.23,1.14,0.51,1.68,0.82c0.01,0,0.01,0,0.01,0.01c1.04,0.59,2.02,1.27,3.07,1.84c1.23,0.66,2.33,1.28,3.38,2.05
		c0.51,0.37,1.01,0.77,1.51,1.23c1.01,0.94,1.89,1.86,3.11,2.55c0.34,0.2,0.7,0.36,1.05,0.53c0.01,0.01,0.01,0.01,0.02,0.01
		c0.12,0.06,0.24,0.12,0.36,0.18c0,0,0.01,0,0.01,0.01c0.32,0.17,0.64,0.35,0.93,0.58c0.38,0.29,0.69,0.6,0.93,0.93
		c0.32,0.42,0.53,0.89,0.67,1.43c0.56,0.2,1.15,0.4,1.71,0.66c1.15,0.51,2.21,1.2,2.77,2.3c1.21,2.33,1.65,4.99,2.96,7.32
		c0.06,0.11,0.12,0.21,0.19,0.32c1.22,2.02,3.38,3.06,4.72,4.83c0.06,0.08,0.12,0.16,0.18,0.24c0.07,0.1,0.15,0.2,0.22,0.31
		c0.38,0.63,0.64,1.43,0.59,2.18c-0.06,1.06-1.14,2.37-0.99,3.38c0.25,1.61,2.31,1.94,3.21,3.03c0.22,0.26,0.4,0.55,0.55,0.86
		c0.01,0.02,0.02,0.04,0.02,0.06c0.07,0.15,0.14,0.31,0.2,0.48c0.01,0,0.01,0.01,0,0.01c0.13,0.34,0.22,0.69,0.29,1.05
		c0.28,1.32,0.21,2.68,0.49,4c0.28,1.32,0.95,2.57,1.04,3.92c0.01,0.08,0.01,0.16,0.01,0.23c0,0.01,0,0.01,0,0.01
		c-0.01,0.89-0.36,1.73-0.37,2.61c0,0-0.01,0.01-0.01,0.01c0,0.21,0.02,0.43,0.06,0.65c0.32,1.52,0.6,0.69,1.59,1.36
		c0.42,0.29,0.67,0.63,0.8,1.01c0.05,0.04,0.09,0.07,0.13,0.12v0.01C65.19,154.5,65.29,154.77,65.28,155.11z"/>
	<path class="st2" d="M208.91,95.06v13.42c-0.79,0.07-1.58,0.09-2.33-0.07c-0.8-0.17-1.24-0.74-1.89-1.04
		c-2.03-0.9-2.48,0.2-4.23,0.55c-1.04,0.21-1.8-0.13-2.78-0.35c-1.35-0.3-3.81-0.58-5.21-0.31c-2.32,0.45-1.77,1.84-3.06,3.16
		c-1.19,1.2-2.82,1.26-4.38,1.04c-0.09,0.15-0.17,0.31-0.25,0.46c-0.26,0.5-0.7,0.66-1.13,0.59c-0.2,0.07-0.45,0.06-0.72-0.04
		c0.49,0.18-0.37,1.3-0.98,1.66c-1.18,0.72-2.34-0.1-3.42,0.28c-1.53,0.53-1.04,2.48-2.03,3.43c-0.87,0.85-1.64,0.52-2.68,0.73
		c-1.89,0.38-1.1,1.46-1.82,2.82c-0.56,1.07-1.32,1.13-2.32,1.56c-1.07,0.46-1.45-0.77-2.2,1.3c-0.17,0.47,0.1,1.25-0.02,1.78
		c-0.21,0.92-0.59,1.59-1.42,2.05c-0.46,0.25-0.84,0.23-1.32,0.37c-1.81,0.55-1.98,0.64-2.19,2.49c-0.17,1.56,0.86,3.57,0.17,5.07
		c-0.48,1.05-1.37,1-2.22,1.62c-2.16,1.58-0.53,4.09-1.35,6.03c-0.51,1.22-1.59,1.85-2,3.14c-0.45,1.39,0.25,2.49-0.08,3.87
		c-0.1,0.43-0.48,0.8-0.58,1.19c-0.48,1.85,0.2,2.55,0.71,3.98c0.42,1.17-0.75,2.35-0.64,3.56h-12.92c-0.04-0.34-0.04-0.71,0-1.1
		c-0.01-0.22,0.01-0.43,0.09-0.63c0.13-0.74,0.34-1.51,0.55-2.27c0-0.01,0-0.01,0-0.01c0.37-1.32,0.73-2.59,0.61-3.49
		c0-0.01,0-0.01,0-0.01c-0.07-0.48-0.28-0.85-0.69-1.07c-0.57-0.29-0.69-0.86-0.53-1.37c0.09-0.29,0.28-0.56,0.53-0.74
		c0.69-0.52,1.03-1.02,1.18-1.52c-0.01-0.03-0.02-0.07-0.03-0.1c-0.16-0.61-0.15-1.21-0.04-1.76c-0.16-0.76-0.34-1.54-0.03-2.4
		c0.03-0.08,0.07-0.16,0.1-0.23s0.08-0.14,0.12-0.21c0.62-0.92,1.84-1.15,2.63-1.98c0.56-0.59,0.94-1.21,1.11-1.87
		c0.02-0.06,0.03-0.12,0.04-0.17c-0.29-0.35-0.41-0.85-0.18-1.37c0.02-0.04,0.04-0.09,0.06-0.13c-0.04-0.12-0.07-0.23-0.13-0.35
		c-0.24-0.51-0.83-0.81-0.99-1.46c-0.07-0.31-0.08-0.58-0.04-0.85c0-0.01,0-0.01,0-0.01c0.09-0.51,0.35-0.94,0.72-1.35
		c0.01-0.01,0.02-0.02,0.03-0.04c0.19-0.21,0.44-0.34,0.7-0.47c0,0,0,0,0.01-0.01c0.23-0.12,0.47-0.23,0.66-0.4
		c3.4-3.06,0.55-1.57,1.25-3.52c0.15-0.43,0.36-0.81,0.57-1.23c0.02-0.04,0.04-0.08,0.06-0.12c0.56-1.08,1.04-2.24,1.48-3.37
		c0.38-0.99,1.07-1.62,1.93-2.02v-0.01c1.04-0.5,2.32-0.67,3.57-0.8c0.07-0.23,0.21-0.4,0.37-0.54c0.2-0.95,0.12-2.02,0.15-3.04
		c0-0.01,0-0.01,0-0.01c0-0.01,0-0.01,0-0.01c0.02-0.69,0.08-1.37,0.3-1.98c0.01-0.02,0.02-0.05,0.02-0.07
		c0.1-0.26,0.24-0.51,0.42-0.75c0.49-0.66,1.26-1.07,2.1-1.35c0.01,0,0.01,0,0.01,0h0.01c0.78-0.26,1.62-0.4,2.32-0.51
		c2.68-0.42,0.96-1.15,1.93-2.89c0.63-1.12,1.96-1.08,3.11-1.34v-0.01c0.81-0.17,1.53-0.49,1.84-1.45c0.1-0.33,0.31-0.57,0.57-0.71
		c0.18-0.1,0.39-0.17,0.61-0.19c0.3-0.19,0.6-0.37,0.9-0.56c0.22-0.26,0.58-0.37,0.93-0.35c0.2,0.01,0.39,0.06,0.56,0.16
		c0.26,0.15,1.61-1.79,1.86-2c0.69-0.56,1.29-0.81,2.14-0.98c0.97-0.19,2.08,0.32,3.01,0.08c1.42-0.36,1.41-1.2,2.18-2.1
		c0.3-0.35,0.56-0.58,0.82-0.74c0.01-0.01,0.01-0.01,0.02-0.01c0.4-0.24,0.79-0.29,1.26-0.29h0.02c0.01-0.01,0.01-0.01,0.02-0.01
		c0.32-0.01,0.7,0.01,1.15-0.02c1.48-0.09,0.41,0.36,1.34-0.82c0.05-0.06,0.1-0.13,0.17-0.19c0-0.01,0.01-0.01,0.01-0.01
		c0.28-0.31,0.62-0.59,0.99-0.74c0.49-0.21,1.06-0.12,1.57-0.16c0.11,0.03,0.23,0.06,0.34,0.07c0.7,0.12,1.39-0.01,2.06-0.39
		c0.23-0.32,0.5-0.59,0.81-0.81c0.26-0.1,0.53-0.17,0.8-0.21c0.01,0,0.01,0,0.01,0c0.34-0.06,0.69-0.07,1.04-0.05
		c0.68,0.21,1.37,0.39,2.08,0.52c0.05,0.01,0.1,0.02,0.15,0.03c0.88-0.1,1.52-0.52,1.9-1.24c1.08-0.87,1.95-1.59,3.49-1.26
		c1.14,0.25,1.7,1.19,2.95,1.26C207.84,95.32,208.36,95.15,208.91,95.06z"/>
	<path class="st3" d="M208.91,94.94v2.45c-0.29-0.04-0.58-1.15-0.88-1.23c0,0.01-0.01,0.02-0.01,0.03c-0.36,0.87-1.3,1.19-2.05,0.54
		c-1.83-1.58-2.38-1.61-3.93,0.21c-0.45,0.53-0.55,0.81-1.21,1.02c-1.36,0.44-3.29-0.23-4.8-0.95c-0.32,0.59-0.8,1.09-1.53,1.43
		c-1.87,0.88-3.96-1.05-4.64,1.86c-0.19,0.81-1.12,1.08-1.8,0.74c-1.25-1.04-2.54-0.98-3.85,0.18c-0.04,0.35-0.14,0.69-0.29,1
		c-0.47,0.64-0.53,1.08-1.31,1.46c-1.52,0.74-6-1.61-5.89,1.68c0.03,0.76-0.81,1.44-1.55,1.18c-2.51-0.87-2.23,2-3.78,2.91
		c-1.03,0.61-2.4,0.69-3.67,0.63c0.38,1.33,0.85,2.56-0.55,3.69c-2.07,1.68-6.64-0.51-6.81,3.04c-0.09,1.93,0.6,3.36-1.18,4.91
		c-1.07,0.94-2.44,1.18-3.75,0.91c-0.34,1.25-0.02,2.88-0.89,4.06c-0.54,0.72-1.21,1.24-1.98,1.58c0.31,0.84,0.34,1.76-0.02,2.68
		c-0.51,1.29-3.63,2.43-3.21,3.72c0.41,1.24,2.35,1.26,2.19,3.12c-0.19,2.17-3.34,3.8-4.8,5.02c-0.13,0.12-0.28,0.19-0.42,0.23
		c0.01,1.04,0.73,3.63,0.47,4.39c-0.34,1.02-1.04,1.73-1.79,2.41c0.46,0.21,1.05,0.41,1.17,0.46c0.61,0.27,0.74,1.15,0.43,1.68
		c-1.31,2.33-1.4,4.86-1.16,7.41H143c-0.21-2.55-0.11-5.04,0.88-7.41c-0.86-0.39-1.56-0.82-1.81-1.89c-0.1-0.42-0.01-0.89,0.31-1.19
		c0.64-0.59,1.43-1.13,1.72-1.86c0.01-0.01,0.01-0.01,0.01-0.02c0.04-0.1,0.07-0.21,0.09-0.33c0.01-0.01,0.01-0.01,0.01-0.02v-0.01
		c0.04-0.26,0.02-0.54-0.09-0.86c-0.24-0.71-0.81-1.05-0.92-1.87c-0.19-1.53,0.7-2.76,1.98-3.42c0.25-0.13,0.5-0.17,0.72-0.14
		c0.77-0.58,1.59-1.18,2.17-1.87c0.87-1.04,0.67-0.86,0.01-1.72c-0.57-0.75-1.42-0.94-1.75-1.95c-0.28-0.83-0.09-1.67,0.4-2.37
		c0.64-0.94,4.69-2.4,3.05-4.06c-0.58-0.59-0.41-1.91,0.54-2.05c3.71-0.53,1.88-3.85,3.39-5.81c0.31-0.4,0.85-0.79,1.38-0.56
		c1.34,0.8,2.35,0.07,3.01-2.21c-0.14-0.29-0.25-0.6-0.34-0.92c0-0.47-0.17-0.88-0.1-1.38c0.13-0.94,0.72-1.73,1.47-2.3
		c1.22-0.93,2.58-0.85,4.01-1.02c0.66,0.17,1.24,0.02,1.72-0.45c0.81-0.17,0.97-0.55,0.45-1.16c0.03-0.43-0.31-1.32-0.34-1.78
		c-0.04-0.61,0.6-1.29,1.23-1.23c1.71,0.17,3.15,0.4,4.14-1.28c0.36-0.61,0.23-1.24,0.83-1.8c0.88-0.82,2.11-0.86,3.26-0.64
		c0.25-0.93,0.78-1.75,1.68-2.31c0.65-0.41,1.38-0.6,2.15-0.62c0.73-0.01,2.02,0.76,2.65,0.57c1.32-0.41,1.49-2.79,3.06-3.44
		c1.34-0.55,2.66-0.26,3.91,0.26c0.29-0.76,0.69-1.47,1.35-1.94c0.94-0.67,4.75-0.29,4.85-1.07c0.11-0.9,0.96-1.56,1.84-1.06
		c1.81,1.03,3.51,1.95,4.93,0.2c0.53-0.66,0.94-1.52,1.71-1.93c1.36-0.72,2.63,0.18,3.72,1.19h0.01c0.02,0.02,0.04,0.04,0.06,0.06
		c0.01-0.01,0.02-0.02,0.03-0.03c0.28-0.29,0.67-0.45,1.11-0.27C207.98,93.62,208.44,94.85,208.91,94.94z"/>
	<path class="st3" d="M65.2,159.39h-2.38c0.36-2.23,0.62-5.12-1.74-5.5c-0.83-0.13-1.06-1.17-0.73-1.8c0.78-1.5,2.13-1.72,1.28-3.54
		c-0.79-1.7-1.42-3.08-1.6-5c-0.1-1.04-0.1-2.09-0.16-3.13c-0.04-0.58,0.05-1.37-0.31-1.86c-0.62-0.85-0.09-0.23-0.9-0.5
		c-1.19-0.38-2.17-0.11-2.79-1.51c-0.54-1.21,0.01-2.29,0.46-3.41c0.59-1.47,0.95-2.99-0.34-4.27c-0.67-0.66-1.69-0.77-2.47-1.2
		c-0.62-0.34-1.08-0.67-1.43-1.08c-0.34-0.42-0.58-0.92-0.77-1.61c-0.39-1.44-0.31-2.5-1.26-3.73c-0.39-0.5-0.85-0.97-1.13-1.54
		c-0.64-1.29-0.06-3.01-1.06-3.8c-1.02-0.8-2.17-0.32-3.06-1.48c-0.7-0.91-0.64-1.44-1.64-2.27c-1.02-0.86-1.19-0.65-2.3-1.03
		c-1.11-0.39-1.92-1.16-2.69-2.02c-0.56-0.62-1.01-1.39-1.64-1.95c-1.12-1-2.46-1.16-3.84-1.59c-1.54-0.47-2.63-1.25-3.75-2.38
		c-1.45-1.48-2.96-1.6-4.93-1.68c-0.43-0.02-0.86,0.01-1.3-0.07c-1.71-0.34-3.56-1.49-4.99-2.4c-1.58-1.01-2.93-2.12-5.02-1.79
		c-0.45,0.07-0.8,0.45-1.28,0.51c-1.34,0.15-2.06-0.78-3.18-1.28C5.61,95.29,2.76,97.79,0,97.39v-2.51
		c2.22,0.77,4.72-1.42,7.03-1.23c1.82,0.15,3.12,1.62,4.77,1.26c1.64-0.36,2.52-0.85,4.23,0.03c2.6,1.34,5.01,4.23,8.17,3.99
		c1.89-0.14,2.87-0.53,4.59,0.72c0.85,0.61,1.46,1.45,2.22,2.16c1.16,1.08,2.32,1.32,3.77,1.75c1.81,0.53,2.95,1.29,4.2,2.69
		c0.56,0.62,1,1.38,1.64,1.91c0.97,0.8,1.92,0.69,3.04,0.99c1.45,0.4,1.68,1.19,2.5,2.27c0.74,0.97-0.13,0.5,1.15,1.27
		c0.99,0.59,0.62,0.26,1.19,0.48c0.67,0.27,1.07,0.25,1.61,0.75c1.13,1.09,0.53,2.4,0.78,3.74c0.17,0.87,0.66,1.59,1.19,2.3
		c0.58,0.79,1.19,1.57,1.42,2.54c0.36,1.59,0.53,2.36,2.09,3.35c0.5,0.31,1.07,0.45,1.57,0.82c1.07,0.81,1.78,2,2.08,3.3
		c0.45,1.92-0.57,2.73-0.8,4.42c-0.25,1.85,1.9,0.89,2.93,1.93c0.89,0.9,0.85,2.5,0.93,3.66c0.16,2.32-0.1,4.94,1.19,7
		c0.73,1.17,1.96,2.06,1.45,3.62c-0.24,0.74-0.85,1.16-1.42,1.61c0.75,0.51,1.23,1.24,1.49,2.1v0.01c0.13,0.37,0.21,0.77,0.26,1.19
		c0,0.01,0,0.01,0,0.01C65.44,156.76,65.34,158.14,65.2,159.39z"/>
	<path class="st4" d="M16.22,42.18c-0.25-0.42-0.59-0.76-1.01-1.01c-0.17-0.12-0.29-0.17-0.5-0.26c-0.34-0.14-0.77-0.27-1.15-0.23
		c-0.71,0.08-1.41,0.24-1.91,0.79c-0.14,0.18-0.28,0.36-0.42,0.55c-0.24,0.42-0.37,0.88-0.37,1.36c-0.06,0.55,0.17,1.2,0.5,1.65
		c0.25,0.42,0.59,0.76,1.01,1.01c0.44,0.26,0.92,0.38,1.43,0.39c0.75-0.03,1.46-0.29,2-0.83c0.51-0.51,0.83-1.27,0.83-2
		C16.61,43.09,16.48,42.62,16.22,42.18z"/>
	<path class="st4" d="M17.15,32.78c-3.68,0-3.69,5.72,0,5.72C20.83,38.5,20.84,32.78,17.15,32.78z"/>
	<path class="st4" d="M29.8,34.63c-0.47-0.47-1.25-0.83-1.93-0.8c-0.71,0.03-1.44,0.26-1.93,0.8c-0.46,0.5-0.88,1.23-0.8,1.93
		c0.06,0.55,0.08,1.12,0.3,1.64c0.21,0.5,0.41,0.8,0.78,1.24c0.35,0.42,1.11,0.71,1.65,0.68c0.59-0.03,1.25-0.22,1.65-0.68
		c0.37-0.43,0.57-0.74,0.78-1.24c0.22-0.52,0.24-1.08,0.3-1.64C30.68,35.91,30.24,35.07,29.8,34.63z"/>
	<path class="st4" d="M33.69,59.9c-3.08,0-3.08,4.79,0,4.79C36.77,64.68,36.78,59.9,33.69,59.9z"/>
	<path class="st4" d="M22.97,68.48c-2.28,0-2.28,3.54,0,3.54C25.25,72.02,25.26,68.48,22.97,68.48z"/>
	<path class="st4" d="M26.48,56.03c-0.44-0.44-1.26-0.74-1.87-0.5c-0.42,0.17-0.82,0.33-1.2,0.59c-0.62,0.42-1.11,1.09-1.08,1.88
		c0.03,0.58,0.22,1.12,0.64,1.54c0.39,0.39,0.98,0.64,1.54,0.64c0.81,0,1.44-0.43,1.88-1.08c0.26-0.38,0.42-0.78,0.59-1.2
		C27.22,57.28,26.92,56.47,26.48,56.03z"/>
	<path class="st4" d="M44.42,43.9c-2.77,0-2.78,4.31,0,4.31C47.19,48.21,47.19,43.9,44.42,43.9z"/>
	<path class="st4" d="M50.85,70.44c-3.31,0-3.32,5.15,0,5.15C54.16,75.58,54.16,70.44,50.85,70.44z"/>
	<path class="st4" d="M64.63,81.76c-4.11,0-4.12,6.39,0,6.39C68.74,88.15,68.75,81.76,64.63,81.76z"/>
	<path class="st4" d="M10.72,74.5c-2.18,0-3.03,2.05-2.58,3.66c-0.5,0.77-0.15,2.08,1.05,2.08c0.32,0,0.58-0.1,0.78-0.25
		c0.23,0.06,0.48,0.1,0.75,0.1C14.32,80.1,14.33,74.5,10.72,74.5z"/>
	<path class="st4" d="M11.44,54.05c-0.94,0-1.39,0.77-1.34,1.51c-3.13,0.01-3.13,4.88,0.01,4.88c2.17,0,2.84-2.34,2.01-3.78
		C13.18,56.06,12.96,54.05,11.44,54.05z"/>
	<path class="st4" d="M49.32,20.69c-3.87,0-3.87,6.01,0,6.01C53.18,26.7,53.19,20.69,49.32,20.69z"/>
	<path class="st4" d="M37.37,25.42c-3.3,0-3.3,5.12,0,5.12C40.67,30.54,40.67,25.42,37.37,25.42z"/>
	<path class="st4" d="M64.63,39.21c-2.89,0-2.9,4.5,0,4.5C67.53,43.71,67.53,39.21,64.63,39.21z"/>
	<path class="st4" d="M62.18,54.86c-2.46,0-2.47,3.83,0,3.83C64.65,58.69,64.65,54.86,62.18,54.86z"/>
	<path class="st4" d="M76.27,62.82c-3.65,0-3.66,5.67,0,5.67C79.92,68.49,79.93,62.82,76.27,62.82z"/>
	<path class="st4" d="M36.45,78.41c-3.7,0-3.7,5.74,0,5.74C40.15,84.15,40.15,78.41,36.45,78.41z"/>
	<path class="st4" d="M57.59,91.12c-2.71,0-2.71,4.21,0,4.21C60.3,95.33,60.3,91.12,57.59,91.12z"/>
	<path class="st4" d="M64.33,106.15c-2.68,0-2.68,4.16,0,4.16C67.01,110.32,67.01,106.15,64.33,106.15z"/>
	<path class="st4" d="M79.64,105.95c-4.13,0-4.13,6.41,0,6.41C83.77,112.36,83.78,105.95,79.64,105.95z"/>
	<path class="st4" d="M79.34,115.8c-4.07,0-4.07,6.32,0,6.32C83.4,122.12,83.41,115.8,79.34,115.8z"/>
	<path class="st4" d="M72.6,126.31c-3.54,0-3.55,5.5,0,5.5C76.14,131.82,76.14,126.31,72.6,126.31z"/>
	<path class="st4" d="M81.84,135.34c-0.48-0.59-1.21-0.98-2.2-0.98c-2.01,0-2.97,1.64-2.87,3.2c-1.88,0.22-1.82,3.25,0.21,3.25
		c0.66,0,1.12-0.32,1.36-0.77c0.37,0.17,0.8,0.27,1.29,0.27c1.68,0,2.63-1.15,2.83-2.43C83.39,137.23,83.18,135.47,81.84,135.34z"/>
	<path class="st4" d="M80.26,145.79c-3.71,0-3.72,5.77,0,5.77C83.97,151.55,83.97,145.79,80.26,145.79z"/>
	<path class="st4" d="M100.17,142.81c-3.99,0-3.99,6.2,0,6.2C104.15,149.01,104.16,142.81,100.17,142.81z"/>
	<path class="st4" d="M104.45,139.54c-3.08,0-3.08,4.79,0,4.79C107.53,144.32,107.54,139.54,104.45,139.54z"/>
	<path class="st4" d="M96.18,125.78c-3.83,0-3.84,5.96,0,5.96C100.02,131.74,100.02,125.78,96.18,125.78z"/>
	<path class="st4" d="M96.39,133.36c-0.27,0-0.48,0.1-0.63,0.25c-0.3-0.75-0.97-1.33-2.03-1.33c-2.96,0-2.96,4.59,0,4.59
		c1.27,0,2-0.86,2.17-1.83c0.13,0.08,0.29,0.14,0.48,0.14C97.56,135.18,97.56,133.36,96.39,133.36z"/>
	<path class="st4" d="M88.83,149.9c-1.28,0-2.5,1.12-2.44,2.44c0.06,1.32,1.07,2.44,2.44,2.44c1.28,0,2.5-1.12,2.44-2.44
		C91.21,151.02,90.2,149.9,88.83,149.9z"/>
	<path class="st4" d="M110.27,150.59c-3.05,0-3.05,4.74,0,4.74C113.32,155.33,113.33,150.59,110.27,150.59z"/>
	<path class="st4" d="M121.3,145.86c-3.62,0-3.62,5.62,0,5.62C124.92,151.48,124.93,145.86,121.3,145.86z"/>
	<path class="st4" d="M130.19,149.14c-3.34,0-3.35,5.19,0,5.19C133.53,154.33,133.53,149.14,130.19,149.14z"/>
	<path class="st4" d="M136.31,135.64c-4.16,0-4.16,6.46,0,6.46C140.47,142.1,140.48,135.64,136.31,135.64z"/>
	<path class="st4" d="M139.68,120.75c-3.6,0-3.61,5.6,0,5.6C143.28,126.35,143.29,120.75,139.68,120.75z"/>
	<path class="st4" d="M127.12,110.1c-3.91,0-3.92,6.08,0,6.08C131.03,116.18,131.04,110.1,127.12,110.1z"/>
	<path class="st4" d="M118.24,125.65c-3.22,0-3.22,5,0,5C121.46,130.65,121.46,125.65,118.24,125.65z"/>
	<path class="st4" d="M113.34,133.41c-3.08,0-3.08,4.79,0,4.79C116.42,138.2,116.42,133.41,113.34,133.41z"/>
	<path class="st4" d="M102.78,112.32c1.2-0.6,0.98-2.8-0.67-2.8c-1.22,0-1.65,1.21-1.31,2.08c0,0-0.01,0-0.01,0
		c-3.96,0-3.96,6.15,0,6.15C103.89,117.74,104.56,113.94,102.78,112.32z"/>
	<path class="st4" d="M108.44,99.8c-3.76,0-3.76,5.84,0,5.84C112.19,105.64,112.2,99.8,108.44,99.8z"/>
	<path class="st4" d="M127.73,100.36c-3.83,0-3.84,5.96,0,5.96C131.57,106.31,131.58,100.36,127.73,100.36z"/>
	<path class="st4" d="M93.73,96.1c-3.4,0-3.41,5.29,0,5.29C97.14,101.38,97.14,96.1,93.73,96.1z"/>
	<path class="st4" d="M103.54,70.36c-3.02,0-3.02,4.69,0,4.69C106.55,75.05,106.56,70.36,103.54,70.36z"/>
	<path class="st4" d="M114.56,74.57c-3.11,0-3.12,4.83,0,4.83C117.67,79.41,117.68,74.57,114.56,74.57z"/>
	<path class="st4" d="M138.76,83.6c-3.33,0-3.33,5.17,0,5.17C142.09,88.77,142.09,83.6,138.76,83.6z"/>
	<path class="st4" d="M145.86,87.66c0.05,0.01,0.1,0.02,0.16,0.02c1.52,0,1.53-2.37,0-2.37c-1.37,0-1.51,1.91-0.41,2.3
		c-0.13-0.02-0.26-0.04-0.41-0.04c-2.96,0-2.96,4.59,0,4.59C147.91,92.15,148.13,88.29,145.86,87.66z"/>
	<path class="st4" d="M140.29,101.39c-3.3,0-3.3,5.12,0,5.12C143.59,106.51,143.59,101.39,140.29,101.39z"/>
	<path class="st4" d="M145.5,97.81c-3.96,0-3.96,6.15,0,6.15C149.46,103.96,149.47,97.81,145.5,97.81z"/>
	<path class="st4" d="M89.44,83.94c-4.07,0-4.07,6.32,0,6.32C93.51,90.26,93.52,83.94,89.44,83.94z"/>
	<path class="st4" d="M90.36,70.51c-4.4,0-4.41,6.84,0,6.84C94.77,77.35,94.78,70.51,90.36,70.51z"/>
	<path class="st4" d="M108.13,44.31c-4.22,0-4.23,6.56,0,6.56C112.35,50.86,112.36,44.31,108.13,44.31z"/>
	<path class="st4" d="M121.91,54.97c-3.51,0-3.52,5.46,0,5.46C125.43,60.42,125.43,54.97,121.91,54.97z"/>
	<path class="st4" d="M131.41,68.1c-3.96,0-3.96,6.15,0,6.15C135.37,74.25,135.37,68.1,131.41,68.1z"/>
	<path class="st4" d="M140.6,63.58c-3.46,0-3.47,5.38,0,5.38C144.06,68.96,144.07,63.58,140.6,63.58z"/>
	<path class="st4" d="M142.44,49.85c-3,0-3.01,4.67,0,4.67C145.44,54.51,145.45,49.85,142.44,49.85z"/>
	<path class="st4" d="M150.1,46.59c-4.03,0-4.04,6.27,0,6.27C154.13,52.86,154.14,46.59,150.1,46.59z"/>
	<path class="st4" d="M150.1,63.46c-3.62,0-3.62,5.62,0,5.62C153.71,69.08,153.72,63.46,150.1,63.46z"/>
	<path class="st4" d="M147.95,78.07c-3.74,0-3.75,5.82,0,5.82C151.69,83.88,151.7,78.07,147.95,78.07z"/>
	<path class="st4" d="M157.75,91.21c-4.17,0-4.18,6.49,0,6.49C161.93,97.69,161.93,91.21,157.75,91.21z"/>
	<path class="st4" d="M168.47,87.95c-3.63,0-3.64,5.65,0,5.65C172.11,93.6,172.11,87.95,168.47,87.95z"/>
	<path class="st4" d="M174.6,79.28c-3.36,0-3.36,5.22,0,5.22C177.96,84.5,177.96,79.28,174.6,79.28z"/>
	<path class="st4" d="M174.6,67.9c-3.42,0-3.42,5.31,0,5.31C178.02,73.22,178.03,67.9,174.6,67.9z"/>
	<path class="st4" d="M184.4,72.3c-4.07,0-4.07,6.32,0,6.32C188.47,78.62,188.48,72.3,184.4,72.3z"/>
	<path class="st4" d="M195.12,78.08c-2.94,0-2.95,4.57,0,4.57C198.07,82.65,198.07,78.08,195.12,78.08z"/>
	<path class="st4" d="M205.85,71.78c-1.97,0-1.97,3.06,0,3.06C207.82,74.85,207.82,71.78,205.85,71.78z"/>
	<path class="st4" d="M200.03,54.41c-2.65,0-2.65,4.12,0,4.12C202.67,58.53,202.68,54.41,200.03,54.41z"/>
	<path class="st4" d="M196.04,51.06c-1.61,0-2.46,1.18-2.55,2.43c-0.61,0.82-0.28,2.3,1,2.4c0.4,0.3,0.92,0.48,1.55,0.48
		C199.46,56.37,199.47,51.06,196.04,51.06z"/>
	<path class="st4" d="M199.72,42.28c-3.28,0-3.29,5.1,0,5.1C203,47.38,203,42.28,199.72,42.28z"/>
	<path class="st4" d="M202.78,34.87c-3.36,0-3.36,5.22,0,5.22C206.14,40.09,206.14,34.87,202.78,34.87z"/>
	<path class="st4" d="M195.12,27.87c-3.7,0-3.7,5.74,0,5.74C198.82,33.61,198.83,27.87,195.12,27.87z"/>
	<path class="st4" d="M183.79,29.28c-3.06,0-3.07,4.76,0,4.76C186.86,34.04,186.86,29.28,183.79,29.28z"/>
	<path class="st4" d="M180.42,41.55c-3.82,0-3.83,5.93,0,5.93C184.24,47.49,184.25,41.55,180.42,41.55z"/>
	<path class="st4" d="M170.93,48.99c-1,0-1.5,0.77-1.5,1.55c-0.27-0.13-0.58-0.2-0.95-0.2c-2.66,0-2.76,3.95-0.32,4.28
		c0.07,0.53,0.45,1.01,1.14,1.01c1.1,0,1.41-1.22,0.93-1.92c0.29-0.48,0.39-1.09,0.29-1.65c0.13,0.03,0.26,0.05,0.41,0.05
		C172.93,52.1,172.93,48.99,170.93,48.99z"/>
	<path class="st4" d="M165.41,55.99c-2.59,0-2.59,4.02,0,4.02C168,60.01,168,55.99,165.41,55.99z"/>
	<path class="st4" d="M182.27,55.23c-0.6-0.55-1.33-0.89-2.16-0.89c-0.78,0-1.6,0.34-2.16,0.89c-0.53,0.53-0.93,1.4-0.89,2.16
		c0.04,0.79,0.29,1.61,0.89,2.16c0.6,0.55,1.33,0.89,2.16,0.89c0.78,0,1.6-0.34,2.16-0.89c0.53-0.53,0.93-1.4,0.89-2.16
		C183.13,56.6,182.87,55.78,182.27,55.23z"/>
	<path class="st4" d="M172.15,27.18c-3.79,0-3.79,5.89,0,5.89C175.94,33.07,175.94,27.18,172.15,27.18z"/>
	<path class="st4" d="M163.23,19.81c-0.26,1.46,0.56,3.14,2.49,3.14c1.92,0,2.74-1.68,2.49-3.14H163.23z"/>
	<path class="st4" d="M151.32,19.81c-0.73,1.13-0.22,3.05,1.54,3.05c1.75,0,2.26-1.92,1.54-3.05H151.32z"/>
	<path class="st4" d="M151.32,28.32c-2.09,0-3.06,1.75-2.91,3.37c-2.64,1-2.29,5.64,1.07,5.64c1.96,0,2.89-1.58,2.81-3.1
		C155.18,33.32,154.87,28.32,151.32,28.32z"/>
	<path class="st4" d="M133.25,32.85c-3.99,0-3.99,6.2,0,6.2C137.24,39.04,137.24,32.85,133.25,32.85z"/>
	<path class="st4" d="M120.69,32.49c-4.05,0-4.06,6.29,0,6.29C124.74,38.79,124.75,32.49,120.69,32.49z"/>
	<path class="st4" d="M92.01,47.3c-0.13-0.48-0.38-0.89-0.72-1.24c-0.35-0.35-0.77-0.59-1.24-0.72c-0.5-0.13-1-0.13-1.5,0
		c-0.06,0.01-0.12,0.02-0.19,0.03c-0.98,0.17-1.8,1.14-2.06,2.06c-0.28,1.01,0.01,2.12,0.76,2.86c0.74,0.74,1.85,1.04,2.86,0.76
		c0.92-0.25,1.89-1.07,2.06-2.06c0.01-0.06,0.02-0.12,0.03-0.19C92.14,48.29,92.14,47.8,92.01,47.3z"/>
	<path class="st4" d="M86.85,55.04c0.42-0.52,0.2-1.52-0.67-1.52c-0.91,0-1.11,1.09-0.61,1.58c-3.41,0.79-3.14,6.51,0.82,6.51
		C90.47,61.61,90.63,55.5,86.85,55.04z"/>
	<path class="st4" d="M82.4,27.51c-4.16,0-4.16,6.46,0,6.46C86.56,33.97,86.56,27.51,82.4,27.51z"/>
	<path class="st4" d="M71.68,32.29c-3.91,0-3.92,6.08,0,6.08C75.59,38.37,75.6,32.29,71.68,32.29z"/>
	<path class="st4" d="M66.16,26.03c-2.91,0-2.92,4.52,0,4.52C69.07,30.55,69.08,26.03,66.16,26.03z"/>
	<path class="st4" d="M67.33,19.81c0.51,0.55,1.24,0.91,2.21,0.91c0.97,0,1.7-0.37,2.2-0.91H67.33z"/>
	<path class="st4" d="M89.14,24.53c-3.65,0-3.66,5.67,0,5.67C92.79,30.2,92.79,24.53,89.14,24.53z"/>
	<path class="st4" d="M104.85,19.81c-0.43,1.66,0.45,3.7,2.67,3.7c2.21,0,3.1-2.05,2.67-3.7H104.85z"/>
	<path class="st4" d="M110.89,26.41c-3.2,0-3.21,4.98,0,4.98C114.09,31.39,114.1,26.41,110.89,26.41z"/>
	<path class="st4" d="M122.16,19.81c0.29,0.52,0.81,0.91,1.59,0.91c0.25,0,0.48-0.05,0.68-0.12c0.21,1.05,1,1.96,2.39,1.96
		c1.72,0,2.53-1.41,2.43-2.74H122.16z"/>
	<path class="st4" d="M104.03,38.3c-1-1.71-3.64-1.77-4.63,0c-0.46,0.82-0.58,1.87-0.09,2.71c0.21,0.37,0.57,0.7,0.93,0.92
		c0.5,0.3,0.91,0.33,1.48,0.4c0.48,0,0.93-0.12,1.35-0.37c0.4-0.24,0.72-0.56,0.96-0.96C104.51,40.18,104.51,39.12,104.03,38.3z"/>
	<path class="st4" d="M25.12,47.02c-2.69,0-2.7,4.19,0,4.19C27.81,51.21,27.82,47.02,25.12,47.02z"/>
	<path class="st4" d="M114.87,86.19c-3.93,0-3.93,6.1,0,6.1C118.8,92.3,118.8,86.19,114.87,86.19z"/>
	<path class="st4" d="M127.43,86.19c-3.93,0-3.93,6.1,0,6.1C131.35,92.3,131.36,86.19,127.43,86.19z"/>
	<path class="st5" d="M45.54,58.85c-4.56,0-4.57,7.08,0,7.08C50.1,65.93,50.1,58.85,45.54,58.85z"/>
	<path class="st5" d="M53.5,42.82c-2.26,0-3.12,2.19-2.56,3.84c-0.63,0.12-1.23,0.42-1.68,0.86c-0.54,0.54-0.95,1.44-0.92,2.22
		c0.04,0.81,0.3,1.65,0.92,2.22c0.61,0.56,1.37,0.92,2.22,0.92c0.8,0,1.65-0.35,2.22-0.92c0.54-0.54,0.95-1.44,0.92-2.22
		c-0.02-0.47-0.13-0.95-0.33-1.38C57.11,47.61,56.86,42.82,53.5,42.82z"/>
	<path class="st5" d="M49.83,31.51c-4,0-4.01,6.22,0,6.22C53.83,37.73,53.84,31.51,49.83,31.51z"/>
	<path class="st5" d="M49.22,25.73c-1.97,0-1.97,3.06,0,3.06C51.19,28.8,51.19,25.73,49.22,25.73z"/>
	<path class="st5" d="M39,24.62c-0.1,0-0.2,0.01-0.29,0.01c0.13-0.11,0.24-0.24,0.35-0.37c0.19-0.22,0.08-0.63-0.25-0.61
		c-0.18,0.01-0.37,0.02-0.55,0.05c-0.01,0-0.12,0.02-0.18,0.04c-0.37-0.18-0.78-0.17-1.12,0.08c-0.36,0.28-0.49,0.76-0.31,1.18
		c0.07,0.16,0.18,0.29,0.3,0.39c-1.69,1.65-1.01,5.32,2.04,5.32C42.93,30.73,42.94,24.62,39,24.62z"/>
	<path class="st5" d="M22.87,27c-4.02,0-4.03,6.25,0,6.25C26.89,33.25,26.9,27,22.87,27z"/>
	<path class="st5" d="M16.13,28.47c-3.71,0-3.72,5.77,0,5.77C19.84,34.23,19.85,28.47,16.13,28.47z"/>
	<path class="st5" d="M10.01,27.96c-3.57,0-3.58,5.55,0,5.55C13.58,33.51,13.58,27.96,10.01,27.96z"/>
	<path class="st5" d="M25.12,56.98c-3.8,0-3.81,5.91,0,5.91C28.92,62.9,28.93,56.98,25.12,56.98z"/>
	<path class="st5" d="M17.15,68.94c-3.4,0-3.41,5.29,0,5.29C20.56,74.22,20.56,68.94,17.15,68.94z"/>
	<path class="st5" d="M28.59,81.17c-3.7,0-3.7,5.74,0,5.74C32.29,86.91,32.29,81.17,28.59,81.17z"/>
	<path class="st5" d="M40.23,80.59c-4.17,0-4.18,6.49,0,6.49C44.4,87.08,44.41,80.59,40.23,80.59z"/>
	<path class="st5" d="M49.62,90.31c-3.23,0-3.24,5.03,0,5.03C52.86,95.33,52.86,90.31,49.62,90.31z"/>
	<path class="st5" d="M63.31,64.91c-3.06,0-3.84,3.53-2.35,5.34c-3.13,1.06-2.76,6.5,1.13,6.5c3.24,0,4.04-3.79,2.4-5.66
		C67.37,70.01,66.99,64.91,63.31,64.91z"/>
	<path class="st5" d="M76.17,56.65c-4.23,0-4.24,6.58,0,6.58C80.41,63.23,80.41,56.65,76.17,56.65z"/>
	<path class="st5" d="M71.47,44.96c-3.24,0-3.49,4.64-0.74,5.35c-0.58,0.73-0.27,2.12,0.95,2.12c1.28,0,1.56-1.54,0.85-2.23
		C74.93,49.24,74.59,44.96,71.47,44.96z"/>
	<path class="st5" d="M50.5,19.81c0.47,0.6,1.19,1,2.19,1c0.99,0,1.71-0.41,2.18-1H50.5z"/>
	<path class="st5" d="M62.47,19.81c0.5,0.72,1.32,1.22,2.47,1.22c1.14,0,1.96-0.5,2.46-1.22H62.47z"/>
	<path class="st5" d="M77.42,19.81h-2.09c-2.94,0.98-2.6,6.08,1.04,6.08C80.01,25.9,80.36,20.79,77.42,19.81z"/>
	<path class="st5" d="M135.23,19.81c0.22,0.26,0.54,0.43,0.98,0.43c0.44,0,0.76-0.17,0.98-0.43H135.23z"/>
	<path class="st5" d="M129.93,19.81c-0.8,1.66-0.01,4.13,2.4,4.13c2.4,0,3.19-2.47,2.4-4.13H129.93z"/>
	<path class="st5" d="M117.09,19.81h-3.01c-2.43,1.33-1.93,5.88,1.51,5.88C119.01,25.69,119.52,21.15,117.09,19.81z"/>
	<path class="st5" d="M117.63,33.1c-3.26,0-3.27,5.07,0,5.07C120.89,38.18,120.9,33.1,117.63,33.1z"/>
	<path class="st5" d="M94.75,35.74c-1.97,0-1.97,3.06,0,3.06C96.73,38.8,96.73,35.74,94.75,35.74z"/>
	<path class="st5" d="M100.68,42.81c-3.13,0-3.13,4.86,0,4.86C103.8,47.67,103.81,42.81,100.68,42.81z"/>
	<path class="st5" d="M107.82,48.4c-1.97,0-1.97,3.06,0,3.06C109.79,51.47,109.8,48.4,107.82,48.4z"/>
	<path class="st5" d="M102.51,59.36c-1.7,0-2.28,1.74-1.74,2.93c-0.46-0.45-1.1-0.75-1.94-0.75c-3.73,0-3.73,5.79,0,5.79
		c2.52,0,3.34-2.65,2.44-4.37c0.31,0.26,0.72,0.42,1.24,0.42C105.1,63.38,105.11,59.36,102.51,59.36z"/>
	<path class="st5" d="M82.71,40.17c-3.63,0-3.64,5.65,0,5.65C86.34,45.81,86.35,40.17,82.71,40.17z"/>
	<path class="st5" d="M96.18,83.88c-3.62,0-3.62,5.62,0,5.62C99.8,89.5,99.81,83.88,96.18,83.88z"/>
	<path class="st5" d="M81.89,80.97c-3.42,0-3.42,5.31,0,5.31C85.31,86.28,85.31,80.97,81.89,80.97z"/>
	<path class="st5" d="M75.97,83.87c-3.63,0-3.64,5.65,0,5.65C79.6,89.52,79.61,83.87,75.97,83.87z"/>
	<path class="st5" d="M74.74,96.53c-3.37,0-3.38,5.24,0,5.24C78.11,101.77,78.12,96.53,74.74,96.53z"/>
	<path class="st5" d="M67.39,104.92c-3.08,0-3.08,4.79,0,4.79C70.47,109.71,70.47,104.92,67.39,104.92z"/>
	<path class="st5" d="M79.64,115.05c-2.93,0-2.93,4.55,0,4.55C82.57,119.6,82.57,115.05,79.64,115.05z"/>
	<path class="st5" d="M81.68,128.76c-3.42,0-3.42,5.31,0,5.31C85.1,134.07,85.11,128.76,81.68,128.76z"/>
	<path class="st5" d="M86.99,135.41c-3.26,0-3.27,5.07,0,5.07C90.26,140.49,90.26,135.41,86.99,135.41z"/>
	<path class="st5" d="M86.59,142.12c-3.83,0-3.84,5.96,0,5.96C90.42,148.08,90.43,142.12,86.59,142.12z"/>
	<path class="st5" d="M82.5,148.3c-2.97,0-2.98,4.62,0,4.62C85.47,152.92,85.48,148.3,82.5,148.3z"/>
	<path class="st5" d="M102.92,143.21c-3.74,0-3.75,5.82,0,5.82C106.66,149.03,106.67,143.21,102.92,143.21z"/>
	<path class="st5" d="M112.52,145.81c-3.02,0-3.02,4.69,0,4.69C115.54,150.5,115.54,145.81,112.52,145.81z"/>
	<path class="st5" d="M125.39,138.67c-3.02,0-3.02,4.69,0,4.69C128.4,143.36,128.41,138.67,125.39,138.67z"/>
	<path class="st5" d="M133.55,128.26c-4.33,0-4.33,6.72,0,6.72C137.88,134.98,137.89,128.26,133.55,128.26z"/>
	<path class="st5" d="M133.55,116.29c-4.48,0-4.49,6.96,0,6.96c0.01,0,0.01,0,0.02,0c0.08,0.66,0.55,1.27,1.41,1.27
		c1.38,0,1.76-1.55,1.13-2.41C137.74,120.14,136.89,116.29,133.55,116.29z"/>
	<path class="st5" d="M113.75,123.21c-3.99,0-3.99,6.2,0,6.2C117.73,129.41,117.74,123.21,113.75,123.21z"/>
	<path class="st5" d="M102.92,120.61c-3.65,0-3.66,5.67,0,5.67C106.57,126.29,106.58,120.61,102.92,120.61z"/>
	<path class="st5" d="M108.23,106.22c-2.73,0-2.73,4.24,0,4.24C110.96,110.46,110.96,106.22,108.23,106.22z"/>
	<path class="st5" d="M107.42,88.76c-3.91,0-3.92,6.08,0,6.08C111.33,94.84,111.33,88.76,107.42,88.76z"/>
	<path class="st5" d="M115.38,88.2c-3.57,0-3.58,5.55,0,5.55C118.95,93.76,118.96,88.2,115.38,88.2z"/>
	<path class="st5" d="M126.61,98.64c-1.97,0-1.97,3.06,0,3.06C128.58,101.7,128.59,98.64,126.61,98.64z"/>
	<path class="st5" d="M149.89,91.44c-2.3,0-3.24,2.12-2.81,3.85c-3.77,0.16-3.72,6.09,0.16,6.09c2.34,0,3.29-2.17,2.84-3.92
		C153.77,97.27,153.72,91.44,149.89,91.44z"/>
	<path class="st5" d="M138.66,85.57c-2.23,0-2.24,3.47,0,3.47C140.89,89.04,140.9,85.57,138.66,85.57z"/>
	<path class="st5" d="M129.67,84.61c-3.73,0-3.73,5.79,0,5.79C133.4,90.4,133.41,84.61,129.67,84.61z"/>
	<path class="st5" d="M120.08,70.45c-3.82,0-3.83,5.93,0,5.93C123.9,76.39,123.9,70.45,120.08,70.45z"/>
	<path class="st5" d="M133.55,53.97c-4.27,0-4.27,6.63,0,6.63C137.82,60.6,137.83,53.97,133.55,53.97z"/>
	<path class="st5" d="M132.53,43.9c-3.82,0-3.83,5.93,0,5.93C136.35,49.84,136.36,43.9,132.53,43.9z"/>
	<path class="st5" d="M158.26,80.25c-0.13,0-0.25,0.01-0.37,0.04c-0.25-1.38-1.29-2.59-3.1-2.59c-4.22,0-4.23,6.56,0,6.56
		c1.02,0,1.78-0.38,2.31-0.96c0.28,0.27,0.66,0.45,1.16,0.45C160.51,83.74,160.51,80.25,158.26,80.25z"/>
	<path class="st5" d="M152.55,65.19c-3.5,0-3.5,5.43,0,5.43C156.04,70.62,156.05,65.19,152.55,65.19z"/>
	<path class="st5" d="M168.47,64.82c-3.45,0-3.45,5.36,0,5.36C171.92,70.18,171.93,64.82,168.47,64.82z"/>
	<path class="st5" d="M174.19,78.69c-2.16,0-2.16,3.35,0,3.35C176.35,82.04,176.35,78.69,174.19,78.69z"/>
	<path class="st5" d="M185.02,73.85c-4.17,0-4.18,6.49,0,6.49C189.19,80.34,189.2,73.85,185.02,73.85z"/>
	<path class="st5" d="M200.33,68.33c-2.83,0-3.75,2.97-2.76,4.89c-0.49,0.01-0.98,0.13-1.44,0.4c-0.33,0.19-0.61,0.44-0.83,0.72
		c-0.03,0-0.05-0.02-0.08-0.02c-0.72,0-0.88,0.85-0.49,1.25c-0.02,0.09-0.04,0.18-0.05,0.27c-0.13,0.95,0.15,1.87,0.84,2.56
		c0.38,0.38,0.83,0.64,1.35,0.78c0.54,0.15,1.08,0.15,1.62,0c1.46-0.22,2.98-1.08,3.19-2.66c0.09-0.69-0.1-1.31-0.49-1.81
		C204.5,73.9,204.21,68.33,200.33,68.33z"/>
	<path class="st5" d="M202.17,55.82c-4.25,0-4.26,6.6,0,6.6C206.42,62.43,206.43,55.82,202.17,55.82z"/>
	<path class="st5" d="M204.21,37.7c-3.91,0-3.92,6.08,0,6.08C208.12,43.78,208.13,37.7,204.21,37.7z"/>
	<path class="st5" d="M202.58,24.96c-3.5,0-3.5,5.43,0,5.43C206.07,30.39,206.08,24.96,202.58,24.96z"/>
	<path class="st5" d="M186.65,29.43c-4.05,0-4.06,6.29,0,6.29C190.7,35.72,190.71,29.43,186.65,29.43z"/>
	<path class="st5" d="M177.26,36.71c-3.88,0-3.89,6.03,0,6.03C181.14,42.74,181.14,36.71,177.26,36.71z"/>
	<path class="st5" d="M182.83,49.47c-0.35-0.96-1.18-1.72-2.51-1.72c-3.6,0-3.61,5.6,0,5.6c1.33,0,2.16-0.76,2.51-1.72
		C183.71,51.25,183.71,49.84,182.83,49.47z"/>
	<path class="st5" d="M158.06,50.62c-4.37,0-4.38,6.8,0,6.8C162.43,57.42,162.44,50.62,158.06,50.62z"/>
	<path class="st5" d="M158.06,39.73c-3.4,0-3.41,5.29,0,5.29C161.46,45.02,161.47,39.73,158.06,39.73z"/>
	<path class="st5" d="M164.2,29.88c2.56-1.61,1.95-6.54-1.85-6.54c-4.33,0-4.52,6.42-0.57,6.99c-0.49,0.97-0.03,2.45,1.39,2.45
		C164.84,32.78,165.18,30.73,164.2,29.88z"/>
	<path class="st5" d="M153.7,19.81c0.41,0.99,1.32,1.76,2.72,1.76c1.4,0,2.3-0.77,2.71-1.76H153.7z"/>
	<path class="st5" d="M142.54,29.27c-3.73,0-3.73,5.79,0,5.79C146.27,35.06,146.27,29.27,142.54,29.27z"/>
	<path class="st5" d="M94,19.81c-0.36,0.51-0.61,1.16-0.58,1.76c0.07,1.61,1.31,2.98,2.98,2.98c0.76,0,1.57-0.33,2.11-0.87
		c0.52-0.52,0.91-1.36,0.87-2.11c-0.03-0.65-0.26-1.26-0.62-1.76H94z"/>
	<g>
		<path class="st5" d="M5.17,48.17c0.01-0.02,0.01-0.03,0.02-0.05C5.2,48.09,5.2,48.09,5.17,48.17z"/>
		<path class="st5" d="M7.18,48.62c-0.02-0.06-0.04-0.12-0.05-0.19c-0.02-0.12-0.03-0.12-0.03-0.01c-0.01-0.12-0.03-0.23-0.05-0.35
			c-0.02-0.04-0.03-0.07-0.04-0.1c-0.07-0.65-0.87-0.94-1.36-0.49c-0.03,0.03-0.05,0.04-0.06,0.05c-0.03,0.03-0.08,0.06-0.15,0.11
			c-0.14,0.14-0.2,0.29-0.27,0.46c-0.02,0.06-0.09,0.26-0.1,0.32c-0.03,0.16-0.04,0.31-0.03,0.47c0.05,0.65,0.54,1.16,1.23,1.06
			C6.91,49.89,7.38,49.25,7.18,48.62z"/>
	</g>
	<path class="st5" d="M6.35,35.88c-0.17-0.45-0.7-0.64-1.08-0.29c-0.11,0.11-0.23,0.22-0.34,0.32c-0.02,0.01-0.07,0.05-0.09,0.07
		c-0.08,0.04-0.21,0.11-0.02,0.04c-0.36,0.15-0.65,0.36-0.76,0.76c-0.09,0.34-0.02,0.68,0.2,0.95c0.49,0.63,1.37,0.52,1.8-0.11
		C6.37,37.12,6.57,36.45,6.35,35.88z"/>
	<path class="st5" d="M9.8,34.9c-1.21,0-1.21,1.88,0,1.88C11.01,36.78,11.01,34.9,9.8,34.9z"/>
	<path class="st5" d="M25.93,54.64c-1.3,0-1.3,2.02,0,2.02C27.24,56.66,27.24,54.64,25.93,54.64z"/>
	<path class="st5" d="M31.45,55.56c-0.91,0-0.91,1.41,0,1.41C32.35,56.97,32.36,55.56,31.45,55.56z"/>
	<path class="st5" d="M31.04,46.13c-0.68,0-0.68,1.06,0,1.06C31.72,47.2,31.73,46.13,31.04,46.13z"/>
	<path class="st5" d="M31.45,40.33c-0.79,0-0.8,1.23,0,1.23C32.24,41.57,32.24,40.33,31.45,40.33z"/>
	<path class="st5" d="M31.45,32.21c-0.21,0-0.21,0.33,0,0.33C31.66,32.54,31.66,32.21,31.45,32.21z"/>
	<path class="st5" d="M32.6,29.1c-0.15-0.44-0.27-0.87-0.37-1.33c-0.08-0.36-0.65-0.36-0.73,0c-0.1,0.46-0.22,0.89-0.37,1.33
		c-0.16,0.48,0.27,0.97,0.74,0.97C32.33,30.08,32.76,29.58,32.6,29.1z"/>
	<path class="st5" d="M46.36,20.03c-1.42,0-1.43,2.21,0,2.21C47.78,22.25,47.78,20.03,46.36,20.03z"/>
	<path class="st5" d="M49.22,22.83c-0.45,0-0.45,0.7,0,0.7C49.67,23.53,49.67,22.83,49.22,22.83z"/>
	<path class="st5" d="M40.84,42.19c-1.55,0-1.55,2.41,0,2.41C42.39,44.6,42.4,42.19,40.84,42.19z"/>
	<path class="st5" d="M25.73,71.33c-1.38,0-1.38,2.14,0,2.14C27.11,73.47,27.11,71.33,25.73,71.33z"/>
	<path class="st5" d="M23.08,78.25c-1.4,0-1.41,2.18,0,2.18C24.48,80.43,24.48,78.25,23.08,78.25z"/>
	<path class="st5" d="M23.69,84.41c-0.04,0-0.04,0.06,0,0.06C23.73,84.48,23.73,84.41,23.69,84.41z"/>
	<path class="st5" d="M48.19,87.89c-0.04,0-0.04,0.06,0,0.06C48.23,87.95,48.23,87.89,48.19,87.89z"/>
	<path class="st5" d="M49.62,64.02c-2.11,0-2.11,3.27,0,3.27C51.73,67.29,51.73,64.02,49.62,64.02z"/>
	<path class="st5" d="M58,62.73c-1.4,0-1.41,2.18,0,2.18C59.4,64.91,59.4,62.73,58,62.73z"/>
	<path class="st5" d="M60.65,82.84c-1.54,0-1.55,2.4,0,2.4C62.19,85.24,62.2,82.84,60.65,82.84z"/>
	<path class="st5" d="M63.31,90.41c-1,0-1,1.55,0,1.55C64.3,91.96,64.31,90.41,63.31,90.41z"/>
	<path class="st5" d="M62.9,102.52c-1.71,0-1.71,2.66,0,2.66C64.61,105.17,64.61,102.52,62.9,102.52z"/>
	<path class="st5" d="M59.02,101.63c-1.53,0-1.54,2.38,0,2.38C60.55,104.02,60.55,101.63,59.02,101.63z"/>
	<path class="st5" d="M64.33,97.89c-0.04,0-0.04,0.06,0,0.06C64.37,97.95,64.37,97.89,64.33,97.89z"/>
	<path class="st5" d="M77.8,97.48c-0.04,0-0.04,0.06,0,0.06C77.84,97.55,77.84,97.48,77.8,97.48z"/>
	<path class="st5" d="M83.52,103.41c-0.04,0-0.04,0.06,0,0.06C83.56,103.47,83.56,103.41,83.52,103.41z"/>
	<path class="st5" d="M91.28,101.91c-1.7,0-1.7,2.64,0,2.64C92.98,104.55,92.99,101.91,91.28,101.91z"/>
	<path class="st5" d="M99.04,99.57c-1.3,0-1.3,2.02,0,2.02C100.35,101.59,100.35,99.57,99.04,99.57z"/>
	<path class="st5" d="M89.04,100.15c-1.61,0-1.61,2.5,0,2.5C90.64,102.64,90.65,100.15,89.04,100.15z"/>
	<path class="st5" d="M81.28,95.54c-1.23,0-1.23,1.91,0,1.91C82.51,97.45,82.51,95.54,81.28,95.54z"/>
	<path class="st5" d="M86.18,96.66c-1.63,0-1.63,2.53,0,2.53C87.8,99.19,87.81,96.66,86.18,96.66z"/>
	<path class="st5" d="M87.4,109.88c-1.69,0-1.69,2.63,0,2.63C89.09,112.51,89.1,109.88,87.4,109.88z"/>
	<path class="st5" d="M83.32,118.39c-1.52,0-1.52,2.35,0,2.35C84.83,120.75,84.84,118.39,83.32,118.39z"/>
	<path class="st5" d="M76.78,123.29c-1,0-1,1.55,0,1.55C77.78,124.84,77.78,123.29,76.78,123.29z"/>
	<path class="st5" d="M68,116.48c-1.61,0-1.61,2.5,0,2.5C69.61,118.98,69.61,116.48,68,116.48z"/>
	<path class="st5" d="M71.27,122.58c-1.64,0-1.65,2.56,0,2.56C72.91,125.14,72.92,122.58,71.27,122.58z"/>
	<path class="st5" d="M77.8,131.45c-1.79,0-1.8,2.79,0,2.79C79.6,134.24,79.6,131.45,77.8,131.45z"/>
	<path class="st5" d="M80.26,141.71c-0.8,0-1.28,0.51-1.43,1.11c-1.17,0.2-1.1,2.12,0.2,2.12c0.28,0,0.51-0.09,0.67-0.24
		c0.16,0.06,0.34,0.1,0.55,0.1C82.24,144.8,82.25,141.71,80.26,141.71z"/>
	<path class="st5" d="M95.78,141.34c-1.94,0-1.94,3.02,0,3.02C97.72,144.36,97.72,141.34,95.78,141.34z"/>
	<path class="st5" d="M104.15,135.63c-1.41,0-1.42,2.2,0,2.2C105.56,137.82,105.56,135.63,104.15,135.63z"/>
	<path class="st5" d="M100.68,130.95c-1.13,0-1.13,1.75,0,1.75C101.8,132.7,101.81,130.95,100.68,130.95z"/>
	<path class="st5" d="M118.03,137c-2.01,0-2.02,3.13,0,3.13C120.05,140.13,120.05,137,118.03,137z"/>
	<path class="st5" d="M120.49,141.06c-1.52,0-1.52,2.35,0,2.35C122,143.41,122,141.06,120.49,141.06z"/>
	<path class="st5" d="M131.31,135.78c-2,0-2.01,3.12,0,3.12C133.31,138.89,133.32,135.78,131.31,135.78z"/>
	<path class="st5" d="M143.36,113.18c-1.92,0-1.92,2.99,0,2.99C145.28,116.16,145.28,113.18,143.36,113.18z"/>
	<path class="st5" d="M145.6,109.02c-1.76,0-1.76,2.73,0,2.73C147.36,111.74,147.36,109.02,145.6,109.02z"/>
	<path class="st5" d="M148.46,105.53c-1.52,0-1.52,2.35,0,2.35C149.98,107.88,149.98,105.53,148.46,105.53z"/>
	<path class="st5" d="M130.08,103.66c-0.77,0-0.77,1.19,0,1.19C130.85,104.85,130.85,103.66,130.08,103.66z"/>
	<path class="st5" d="M118.44,107.73c-1.84,0-1.84,2.86,0,2.86C120.28,110.58,120.28,107.73,118.44,107.73z"/>
	<path class="st5" d="M116.61,100.33c-1.64,0-1.64,2.54,0,2.54C118.24,102.87,118.24,100.33,116.61,100.33z"/>
	<path class="st5" d="M120.28,90.11c-1.64,0-1.65,2.56,0,2.56C121.93,92.67,121.93,90.11,120.28,90.11z"/>
	<path class="st5" d="M108.64,85.01c-1.64,0-1.64,2.54,0,2.54C110.28,87.55,110.28,85.01,108.64,85.01z"/>
	<path class="st5" d="M103.94,79.79c-1.79,0-1.8,2.79,0,2.79C105.74,82.57,105.74,79.79,103.94,79.79z"/>
	<path class="st5" d="M115.99,69.14c-2.09,0-2.09,3.25,0,3.25C118.08,72.39,118.08,69.14,115.99,69.14z"/>
	<path class="st5" d="M120.08,68.99c-0.71,0-0.71,1.11,0,1.11C120.79,70.09,120.79,68.99,120.08,68.99z"/>
	<path class="st5" d="M137.03,80.9c-1.15,0-1.15,1.78,0,1.78C138.17,82.68,138.17,80.9,137.03,80.9z"/>
	<path class="st5" d="M141.72,87.56c-1.52,0-1.52,2.35,0,2.35C143.24,89.91,143.24,87.56,141.72,87.56z"/>
	<path class="st5" d="M148.26,85.84c-0.04,0-0.04,0.06,0,0.06C148.3,85.91,148.3,85.84,148.26,85.84z"/>
	<path class="st5" d="M73.52,76.14c-0.96,0-0.96,1.49,0,1.49C74.48,77.64,74.48,76.14,73.52,76.14z"/>
	<path class="st5" d="M87.02,66.02c0.59-0.52,0.38-1.77-0.64-1.77c-1.28,0-1.29,2,0,2c0.01,0,0.02,0,0.03,0
		c-0.47,0.47-0.28,1.51,0.59,1.51C88.1,67.75,88.11,66.04,87.02,66.02z"/>
	<path class="st5" d="M91.28,60.61c-1.51,0-1.51,2.34,0,2.34C92.79,62.95,92.79,60.61,91.28,60.61z"/>
	<path class="st5" d="M98.28,56.74c-0.25-0.89-1.55-1.37-2.21-0.58c-0.14,0.16-0.25,0.32-0.34,0.48c-0.19,0.25-0.31,0.52-0.22,0.86
		c0.09,0.33,0.33,0.5,0.62,0.62c0.16,0.1,0.33,0.18,0.52,0.25C97.62,58.73,98.53,57.65,98.28,56.74z"/>
	<path class="st5" d="M74.41,71.17c-0.18-0.41-0.76-0.48-1.11-0.29c-0.52,0.29-0.83,0.77-1.16,1.24c-0.51,0.72,0.02,1.77,0.81,1.98
		c0.85,0.23,1.69-0.43,1.71-1.3C74.66,72.22,74.65,71.7,74.41,71.17z"/>
	<path class="st5" d="M68.21,47.23c-0.59,0-0.59,0.92,0,0.92C68.8,48.15,68.8,47.23,68.21,47.23z"/>
	<path class="st5" d="M59.83,45.76c-1.43,0-1.43,2.23,0,2.23C61.27,47.98,61.27,45.76,59.83,45.76z"/>
	<path class="st5" d="M66.98,37.61c-1.4,0-1.41,2.18,0,2.18C68.39,39.79,68.39,37.61,66.98,37.61z"/>
	<path class="st5" d="M75.35,33.17c-1.34,0-1.34,2.08,0,2.08C76.69,35.25,76.7,33.17,75.35,33.17z"/>
	<path class="st5" d="M79.03,29.09c-1.6,0-1.6,2.48,0,2.48C80.63,31.57,80.63,29.09,79.03,29.09z"/>
	<path class="st5" d="M70.12,19.81h-1.39c-0.52,0.55-0.29,1.71,0.69,1.71C70.41,21.52,70.64,20.36,70.12,19.81z"/>
	<path class="st5" d="M162.57,19.81h-1.67c-1.12,0.72-0.85,2.89,0.83,2.89C163.41,22.7,163.69,20.54,162.57,19.81z"/>
	<path class="st5" d="M149.89,30.29c-1.63,0-1.63,2.53,0,2.53C151.52,32.82,151.52,30.29,149.89,30.29z"/>
	<path class="st5" d="M133.55,29.91c-0.8,0-0.81,1.25,0,1.25C134.36,31.16,134.36,29.91,133.55,29.91z"/>
	<path class="st5" d="M127.43,26.4c-1.9,0-1.91,2.96,0,2.96C129.33,29.36,129.33,26.4,127.43,26.4z"/>
	<path class="st5" d="M127.43,34.78c-2.15,0-2.16,3.35,0,3.35C129.58,38.13,129.58,34.78,127.43,34.78z"/>
	<path class="st5" d="M126.61,44.3c-2,0-2,3.1,0,3.1C128.61,47.4,128.61,44.3,126.61,44.3z"/>
	<path class="st5" d="M111.91,45.25c-1.03,0-1.04,1.61,0,1.61C112.94,46.86,112.94,45.25,111.91,45.25z"/>
	<path class="st5" d="M101.29,30.86c-1.94,0-1.94,3.02,0,3.02C103.23,33.88,103.23,30.86,101.29,30.86z"/>
	<path class="st5" d="M106.6,29.17c-1.76,0-1.76,2.73,0,2.73C108.35,31.9,108.36,29.17,106.6,29.17z"/>
	<path class="st5" d="M137.23,57.05c-0.04,0-0.04,0.06,0,0.06C137.27,57.11,137.27,57.05,137.23,57.05z"/>
	<path class="st5" d="M143.36,52.29c-2.23,0-2.23,3.46,0,3.46C145.58,55.75,145.59,52.29,143.36,52.29z"/>
	<path class="st5" d="M111.7,60.5c-0.85,0-0.85,1.32,0,1.32C112.55,61.83,112.56,60.5,111.7,60.5z"/>
	<path class="st5" d="M112.93,53.13c-2.2,0-2.2,3.42,0,3.42C115.13,56.54,115.13,53.13,112.93,53.13z"/>
	<path class="st5" d="M143.77,68.34c-1.28,0-1.29,2,0,2C145.05,70.33,145.05,68.34,143.77,68.34z"/>
	<path class="st5" d="M147.65,77.97c-0.98,0-0.98,1.52,0,1.52C148.62,79.49,148.63,77.97,147.65,77.97z"/>
	<path class="st5" d="M150.3,88.59c-0.45,0-0.45,0.7,0,0.7C150.75,89.29,150.75,88.59,150.3,88.59z"/>
	<path class="st5" d="M166.02,73.69c-1.49,0-1.49,2.31,0,2.31C167.51,76,167.51,73.69,166.02,73.69z"/>
	<path class="st5" d="M170.31,79.31c-2.14,0-2.15,3.33,0,3.33C172.46,82.64,172.46,79.31,170.31,79.31z"/>
	<path class="st5" d="M177.05,78.56c-1.52,0-1.53,2.37,0,2.37C178.58,80.93,178.58,78.56,177.05,78.56z"/>
	<path class="st5" d="M180.11,66.53c-2.03,0-2.04,3.16,0,3.16C182.15,69.69,182.15,66.53,180.11,66.53z"/>
	<path class="st5" d="M182.97,61.94c-2.16,0-2.17,3.36,0,3.36C185.14,65.3,185.14,61.94,182.97,61.94z"/>
	<path class="st5" d="M189.71,62.02c-0.95,0-1.39,0.77-1.34,1.51c-0.09-0.02-0.19-0.04-0.3-0.04c-1.48,0-1.48,2.3,0,2.3
		c0.71,0,1.08-0.53,1.1-1.08c0.16,0.06,0.33,0.1,0.53,0.1C191.51,64.8,191.51,62.02,189.71,62.02z"/>
	<path class="st5" d="M192.98,55.58c-1.67,0-1.68,2.6,0,2.6C194.65,58.18,194.66,55.58,192.98,55.58z"/>
	<path class="st5" d="M187.47,48.69c-0.81,0-0.81,1.26,0,1.26C188.28,49.95,188.28,48.69,187.47,48.69z"/>
	<path class="st5" d="M189.3,38.29c-1.84,0-1.84,2.86,0,2.86C191.14,41.15,191.15,38.29,189.3,38.29z"/>
	<path class="st5" d="M191.76,33.92c-1.95,0-1.95,3.03,0,3.03C193.7,36.95,193.71,33.92,191.76,33.92z"/>
	<path class="st5" d="M173.17,43.02c-2.07,0-2.07,3.22,0,3.22C175.24,46.23,175.24,43.02,173.17,43.02z"/>
	<path class="st5" d="M163.17,42.95c-1.1,0-1.1,1.71,0,1.71C164.26,44.66,164.27,42.95,163.17,42.95z"/>
	<path class="st5" d="M165,33.64c-2.04,0-2.05,3.17,0,3.17C167.05,36.82,167.05,33.64,165,33.64z"/>
	<path class="st5" d="M151.12,40.5c-1.1,0-1.1,1.71,0,1.71C152.22,42.21,152.22,40.5,151.12,40.5z"/>
	<path class="st5" d="M147.03,45.21c-1.62,0-1.62,2.51,0,2.51C148.65,47.72,148.65,45.21,147.03,45.21z"/>
	<path class="st5" d="M144.79,42.23c-1.51,0-1.51,2.34,0,2.34C146.29,44.57,146.29,42.23,144.79,42.23z"/>
	<path class="st5" d="M185.02,58.58c-1.49,0-1.49,2.31,0,2.31C186.5,60.89,186.51,58.58,185.02,58.58z"/>
	<path class="st5" d="M175.99,32.18c1.4-0.53,1.21-3-0.57-3c-1.87,0-1.99,2.72-0.35,3.07c-1.04,0.5-0.85,2.4,0.56,2.4
		C177.11,34.66,177.24,32.53,175.99,32.18z"/>
	<path class="st5" d="M182.57,28.78c-1.74,0-1.74,2.7,0,2.7C184.3,31.47,184.31,28.78,182.57,28.78z"/>
	<path class="st5" d="M177.87,27.42c-1.38,0-1.38,2.14,0,2.14C179.25,29.56,179.25,27.42,177.87,27.42z"/>
	<path class="st5" d="M159.9,36.28c-2.06,0-2.06,3.2,0,3.2C161.96,39.49,161.96,36.28,159.9,36.28z"/>
	<path class="st5" d="M154.79,28.52c-1.8,0-1.8,2.8,0,2.8C156.59,31.32,156.6,28.52,154.79,28.52z"/>
	<path class="st5" d="M182.36,43.65c-0.46,0-0.46,0.72,0,0.72C182.82,44.37,182.82,43.65,182.36,43.65z"/>
	<path class="st5" d="M189.3,56.63c-1.37,0-1.37,2.13,0,2.13C190.67,58.76,190.67,56.63,189.3,56.63z"/>
	<path class="st5" d="M196.66,63.78c-1.37,0-1.37,2.13,0,2.13C198.02,65.9,198.03,63.78,196.66,63.78z"/>
	<path class="st5" d="M190.94,76.86c-0.04,0-0.04,0.06,0,0.06C190.98,76.92,190.98,76.86,190.94,76.86z"/>
	<path class="st5" d="M185.02,82.1c-1.97,0-1.97,3.06,0,3.06C186.98,85.16,186.99,82.1,185.02,82.1z"/>
	<path class="st5" d="M178.89,82c-1.57,0-1.57,2.44,0,2.44C180.46,84.44,180.46,82,178.89,82z"/>
	<path class="st5" d="M193.8,59.06c-2.18,0-2.18,3.39,0,3.39C195.98,62.45,195.98,59.06,193.8,59.06z"/>
	<path class="st5" d="M194,45.66c-1.56,0-1.56,2.43,0,2.43C195.56,48.08,195.57,45.66,194,45.66z"/>
	<path class="st5" d="M193.39,42.35c-0.04,0-0.04,0.06,0,0.06C193.43,42.41,193.43,42.35,193.39,42.35z"/>
	<path class="st4" d="M175.42,57.18c-0.3,0-0.54,0.1-0.71,0.26c-0.16-0.64-0.67-1.19-1.53-1.19c-2.13,0-2.13,3.3,0,3.3
		c0.61,0,1.04-0.28,1.3-0.66c0.17,0.32,0.48,0.55,0.95,0.55C176.87,59.43,176.87,57.18,175.42,57.18z"/>
	<path class="st4" d="M176.23,51.74c-1.88,0-1.88,2.91,0,2.91C178.11,54.66,178.11,51.74,176.23,51.74z"/>
	<path class="st4" d="M167.86,39.16c-0.46,0-0.46,0.72,0,0.72C168.32,39.88,168.33,39.16,167.86,39.16z"/>
	<path class="st4" d="M163.57,36.97c-0.12,0-0.12,0.19,0,0.19C163.69,37.16,163.69,36.97,163.57,36.97z"/>
	<path class="st4" d="M165,31.46c-0.91,0-0.91,1.41,0,1.41C165.91,32.87,165.91,31.46,165,31.46z"/>
	<path class="st4" d="M180.32,28.49c-1.84,0-1.84,2.86,0,2.86C182.16,31.35,182.16,28.49,180.32,28.49z"/>
	<path class="st4" d="M186.24,35.32c-1.99,0-1.99,3.09,0,3.09C188.23,38.41,188.23,35.32,186.24,35.32z"/>
	<path class="st4" d="M196.66,36.9c-2.05,0-2.05,3.19,0,3.19C198.71,40.09,198.71,36.9,196.66,36.9z"/>
	<path class="st4" d="M192.37,67.66c-1.88,0-1.89,2.93,0,2.93C194.25,70.59,194.26,67.66,192.37,67.66z"/>
	<path class="st4" d="M181.54,73.6c-1.61,0-1.61,2.5,0,2.5C183.15,76.1,183.15,73.6,181.54,73.6z"/>
	<path class="st4" d="M159.29,78.59c-1.49,0-1.49,2.31,0,2.31C160.77,80.9,160.78,78.59,159.29,78.59z"/>
	<path class="st4" d="M139.27,94.05c-1.57,0-1.57,2.44,0,2.44C140.84,96.49,140.85,94.05,139.27,94.05z"/>
	<path class="st4" d="M131.51,97.55c-1.01,0-1.01,1.57,0,1.57C132.52,99.11,132.52,97.55,131.51,97.55z"/>
	<path class="st4" d="M128.45,85.5c-2.06,0-2.06,3.2,0,3.2C130.51,88.7,130.51,85.5,128.45,85.5z"/>
	<path class="st4" d="M128.25,76.67c-1.33,0-1.33,2.07,0,2.07C129.58,78.74,129.58,76.67,128.25,76.67z"/>
	<path class="st4" d="M125.79,74.2c-2.14,0-2.15,3.33,0,3.33C127.94,77.53,127.94,74.2,125.79,74.2z"/>
	<path class="st4" d="M112.32,107.74c-0.24,0-0.24,0.37,0,0.37C112.56,108.12,112.56,107.74,112.32,107.74z"/>
	<path class="st4" d="M95.16,110.66c-1.75,0-1.75,2.71,0,2.71C96.91,113.37,96.91,110.66,95.16,110.66z"/>
	<path class="st4" d="M114.15,112.65c-2.07,0-2.07,3.22,0,3.22C116.22,115.87,116.23,112.65,114.15,112.65z"/>
	<path class="st4" d="M116.4,114.94c-1.76,0-1.76,2.73,0,2.73C118.16,117.67,118.16,114.94,116.4,114.94z"/>
	<path class="st4" d="M116.61,123.3c-2.3,0-2.3,3.58,0,3.58C118.91,126.87,118.91,123.3,116.61,123.3z"/>
	<path class="st4" d="M113.34,130.01c-1.81,0-1.81,2.81,0,2.81C115.15,132.82,115.15,130.01,113.34,130.01z"/>
	<path class="st4" d="M105.99,136.45c-1.66,0-1.67,2.58,0,2.58C107.65,139.04,107.65,136.45,105.99,136.45z"/>
	<path class="st4" d="M79.03,132.79c-2.17,0-2.17,3.37,0,3.37C81.2,136.16,81.2,132.79,79.03,132.79z"/>
	<path class="st4" d="M68.82,115.04c-1.63,0-1.63,2.53,0,2.53C70.45,117.57,70.45,115.04,68.82,115.04z"/>
	<path class="st4" d="M66.16,105.6c-1.42,0-1.43,2.21,0,2.21C67.59,107.81,67.59,105.6,66.16,105.6z"/>
	<path class="st4" d="M61.26,112.28c-0.02,0-0.03,0.01-0.04,0.01c-0.05-0.46-0.38-0.89-0.98-0.89c-1.32,0-1.32,2.05,0,2.05
		c0.27,0,0.48-0.09,0.64-0.22c0.09,0.09,0.21,0.16,0.38,0.16C61.98,113.38,61.98,112.28,61.26,112.28z"/>
	<path class="st4" d="M62.9,114.15c-1.19,0-1.19,1.85,0,1.85C64.09,116,64.09,114.15,62.9,114.15z"/>
	<path class="st4" d="M71.47,121.93c-1.69,0-1.69,2.63,0,2.63C73.16,124.56,73.17,121.93,71.47,121.93z"/>
	<path class="st4" d="M45.13,95.22c-1.64,0-1.64,2.54,0,2.54C46.77,97.76,46.77,95.22,45.13,95.22z"/>
	<path class="st4" d="M40.43,92.82c-1.58,0-1.58,2.46,0,2.46C42.01,95.27,42.02,92.82,40.43,92.82z"/>
	<path class="st4" d="M34.51,88.8c-1.76,0-1.76,2.73,0,2.73C36.27,91.53,36.27,88.8,34.51,88.8z"/>
	<path class="st4" d="M27.36,86.54c-0.45,0-0.45,0.7,0,0.7C27.82,87.25,27.82,86.54,27.36,86.54z"/>
	<path class="st4" d="M18.79,82.75c-1.4,0-1.4,2.17,0,2.17C20.18,84.92,20.18,82.75,18.79,82.75z"/>
	<path class="st4" d="M13.68,82.58c-0.04,0-0.04,0.06,0,0.06C13.72,82.64,13.72,82.58,13.68,82.58z"/>
	<path class="st4" d="M7.35,70.52c-1.36,0-1.36,2.11,0,2.11C8.71,72.64,8.71,70.52,7.35,70.52z"/>
	<path class="st4" d="M7.15,63.21c-2.1,0-2.1,3.26,0,3.26C9.24,66.47,9.25,63.21,7.15,63.21z"/>
	<path class="st4" d="M8.58,42.67c-1.46,0-1.46,2.27,0,2.27C10.04,44.94,10.04,42.67,8.58,42.67z"/>
	<path class="st4" d="M8.17,37.62c-1.91,0-1.92,2.97,0,2.97C10.08,40.6,10.08,37.62,8.17,37.62z"/>
	<path class="st4" d="M16.54,45.98c-1.93,0-1.93,3,0,3C18.47,48.98,18.48,45.98,16.54,45.98z"/>
	<path class="st4" d="M21.65,57.94c-2.04,0-2.05,3.17,0,3.17C23.69,61.12,23.69,57.94,21.65,57.94z"/>
	<path class="st4" d="M29.2,60.81c-1.77,0-1.78,2.76,0,2.76C30.98,63.56,30.98,60.81,29.2,60.81z"/>
	<path class="st4" d="M38.6,52.97c-0.04,0-0.04,0.06,0,0.06C38.64,53.03,38.64,52.97,38.6,52.97z"/>
	<path class="st4" d="M36.96,53.17c-0.04,0-0.04,0.06,0,0.06C37,53.23,37,53.17,36.96,53.17z"/>
	<path class="st4" d="M37.78,53.78c-0.04,0-0.04,0.06,0,0.06C37.82,53.84,37.82,53.78,37.78,53.78z"/>
	<path class="st4" d="M39.41,58.07c-0.04,0-0.04,0.06,0,0.06C39.45,58.13,39.45,58.07,39.41,58.07z"/>
	<path class="st4" d="M36.96,70.14c-1.33,0-1.33,2.07,0,2.07C38.29,72.21,38.29,70.14,36.96,70.14z"/>
	<path class="st4" d="M38.39,72.35c-1.9,0-1.91,2.96,0,2.96C40.3,75.31,40.3,72.35,38.39,72.35z"/>
	<path class="st4" d="M46.56,67.49c-2.12,0-2.12,3.29,0,3.29C48.68,70.77,48.68,67.49,46.56,67.49z"/>
	<path class="st4" d="M38.8,55.17c-1.93,0-1.93,3,0,3C40.73,58.17,40.73,55.17,38.8,55.17z"/>
	<path class="st4" d="M35.74,50.29c-1.91,0-1.92,2.97,0,2.97C37.65,53.26,37.65,50.29,35.74,50.29z"/>
	<path class="st4" d="M39.62,49.81c-2,0-2.01,3.12,0,3.12C41.62,52.92,41.63,49.81,39.62,49.81z"/>
	<path class="st4" d="M50.64,58.12c-2.08,0-2.08,3.23,0,3.23C52.72,61.35,52.73,58.12,50.64,58.12z"/>
	<path class="st4" d="M56.57,59.55c-2.08,0-2.08,3.23,0,3.23C58.65,62.78,58.65,59.55,56.57,59.55z"/>
	<path class="st4" d="M56.16,54.17c-1.91,0-1.92,2.97,0,2.97C58.07,57.14,58.07,54.17,56.16,54.17z"/>
	<path class="st4" d="M51.67,41.41c-1.77,0-1.78,2.76,0,2.76C53.44,44.16,53.44,41.41,51.67,41.41z"/>
	<path class="st4" d="M52.89,32.56c-1.86,0-1.86,2.89,0,2.89C54.75,35.45,54.75,32.56,52.89,32.56z"/>
	<path class="st4" d="M58.61,27.74c-0.98,0-1.48,0.75-1.51,1.51c-0.82,0.74-0.53,2.47,0.89,2.47c0.73,0,1.16-0.46,1.3-1
		C60.59,30.11,60.36,27.74,58.61,27.74z"/>
	<path class="st4" d="M39.62,33.95c-0.6,0-0.6,0.93,0,0.93C40.22,34.88,40.22,33.95,39.62,33.95z"/>
	<path class="st4" d="M42.68,32.38c-2.1,0-2.1,3.26,0,3.26C44.78,35.63,44.78,32.38,42.68,32.38z"/>
	<path class="st4" d="M48.71,19.81c-0.05,0.83,0.46,1.69,1.53,1.69c1.07,0,1.57-0.86,1.53-1.69H48.71z"/>
	<path class="st4" d="M86.38,30.5c-0.04,0-0.04,0.06,0,0.06C86.42,30.56,86.42,30.5,86.38,30.5z"/>
	<path class="st4" d="M94.75,33.58c-1.87,0-1.87,2.9,0,2.9C96.62,36.48,96.62,33.58,94.75,33.58z"/>
	<path class="st4" d="M96.18,28.66c-2.14,0-2.15,3.33,0,3.33C98.33,31.99,98.33,28.66,96.18,28.66z"/>
	<path class="st4" d="M91.9,55.5c-1.77,0-1.78,2.76,0,2.76C93.67,58.26,93.67,55.5,91.9,55.5z"/>
	<path class="st4" d="M106.39,55.62c-1.35,0-1.35,2.1,0,2.1C107.74,57.72,107.75,55.62,106.39,55.62z"/>
	<path class="st4" d="M115.38,45c-2.14,0-2.15,3.33,0,3.33C117.52,48.33,117.53,45,115.38,45z"/>
	<path class="st4" d="M113.13,38.95c-2.05,0-2.05,3.19,0,3.19C115.18,42.13,115.19,38.95,113.13,38.95z"/>
	<path class="st4" d="M121.51,46.14c-2,0-2,3.1,0,3.1C123.5,49.24,123.51,46.14,121.51,46.14z"/>
	<path class="st4" d="M129.47,23.15c-2.14,0-2.15,3.33,0,3.33C131.61,26.48,131.62,23.15,129.47,23.15z"/>
	<path class="st2" d="M208.91,3.78v11.28c-1.7,0.1-3.47-0.02-5.04-0.44c-1.05-0.29-1.9-0.78-2.83-1.3
		c-0.96-0.54-0.94-0.74-2.23-1.05c-1.86-0.44-0.9-0.28-2,0.5c-0.04,0.02-0.07,0.06-0.11,0.08c-0.4,0.29-0.74,0.56-1.05,0.79
		c0,0,0,0.01-0.01,0.01h-0.01c-0.69,0.51-1.33,0.85-2.55,0.88c-1.98,0.06-4.4-0.36-6.28-1c-2.01-0.69-3.34-2.08-5.16-1.81
		c-0.01-0.01-0.01-0.01-0.01,0c-0.47,0.07-0.98,0.25-1.54,0.59c-0.7,0.42-1.38,0.93-2.09,1.35c-0.01,0-0.01,0-0.01,0
		c-0.58,0.34-1.18,0.62-1.84,0.78c-1.45,0.34-2.71-0.05-3.97-0.76c-0.63-0.36-1.35-1.09-2.08-1.42c-0.18-0.08-0.36-0.13-0.53-0.15
		c-1.11-0.12-1.7,0.69-2.61,1.1c-1.54,0.69-3.26,0.47-4.93,0.2c-0.55-0.09-1.09-0.18-1.62-0.25c-0.39-0.05-0.77-0.1-1.16-0.15
		c-0.8-0.11-1.61-0.21-2.41-0.32c-1.41-0.18-2.81-0.34-4.23-0.44c-0.36-0.02-0.71-0.04-1.06-0.05h-0.02c-1.05-0.04-2.06,0-3.08,0.1
		c-0.01,0-0.03,0.01-0.04,0.01h-0.03c-1.68,0.17-3.33,0.52-5.02,1.07c-1.86,0.61-3.7,1.23-5.68,1.02c-0.85-0.09-1.64-0.31-2.43-0.57
		h-0.01c-1-0.33-1.98-0.73-3-1c-0.01-0.01-0.01-0.01-0.02-0.01c-0.88-0.23-1.76-0.38-2.73-0.31c-2.37,0.18-4.58,1.25-6.96,1.45
		c-2.14,0.18-4.1-0.34-6.13-0.99c-1.32-0.43-2.56-0.75-3.81-0.93c-0.91-0.13-1.84-0.18-2.81-0.15c-0.02-0.01-0.03,0-0.04,0
		c-0.58,0.02-1.18,0.07-1.8,0.15c-2,0.27-4.01,0.4-6.02,0.45c-1.59,0.04-3.19,0.04-4.78,0.01c-1.75-0.02-3.5-0.07-5.25-0.09
		c0,0-0.01,0-0.01,0c-0.09-0.01-0.19-0.01-0.28-0.01c-0.13,0-0.25-0.02-0.35-0.06c0,0-0.01,0-0.01,0c-0.11-0.04-0.21-0.09-0.3-0.15
		c-4.31,0.62-7.43,3.01-11.88,1.13c-1.06-0.45-2.05-1-3.04-1.45l-0.01-0.01h-0.01c-1.34-0.61-2.71-1.02-4.35-0.72
		c-1.35,0.25-2.63,0.74-3.96,0.94c0,0-0.01,0-0.01,0h-0.01c-0.64,0.1-1.29,0.13-1.96,0.04c-0.72-0.1-1.35-0.41-2.06-0.55
		c-2.02-0.41-2.56,0.36-4.25,0.97c-0.57,0.2-1.08,0.35-1.57,0.41h-0.01c-0.81,0.1-1.57,0.01-2.52-0.35
		c-0.77-0.29-1.46-0.8-2.21-1.14c-0.18-0.09-0.37-0.16-0.56-0.21c-0.17-0.05-0.33-0.09-0.48-0.11c-1.14-0.18-1.62,0.39-2.68,1.02
		c-1.68,1.01-3.06,0.96-5.01,0.86c-0.67-0.04-1.35-0.01-2.04,0.04h-0.03c-0.2,0.01-0.4,0.03-0.6,0.06c0,0,0,0-0.01,0
		c-0.01,0-0.01,0-0.01,0c-3.42,0.37-6.93,1.42-10.25,0.58c-1.42-0.36-2.3-1.26-3.93-0.83c-0.52,0.13-1.56,0.73-2.08,0.91
		c-1.62,0.55-3.34,0.75-5.05,0.62c0,0-0.01,0-0.01,0h-0.01c-0.35-0.02-0.7-0.06-1.05-0.12c-0.36-0.06-0.7-0.14-1.02-0.21
		c-0.01,0-0.01,0-0.01,0c-0.81-0.2-1.53-0.34-2.45,0.16c-0.29,0.16-0.49,0.41-0.73,0.64c-0.01,0.01-0.01,0.01-0.01,0.01
		c-0.15,0.13-0.3,0.26-0.5,0.34c-1.39,0.59-2.49-0.13-3.76-0.58c-3.23-1.13-4.47,0.61-7.35,1.03c-1.23,0.18-2.38,0.07-3.5-0.23V3.78
		l7.19-1.23c1.74,0.69,3.08,0.42,4.91,0.07c0.13-0.02,0.27-0.05,0.4-0.07c1.57-0.29,3.09-0.44,4.71-0.2
		c0.43,0.06,0.84,0.13,1.23,0.2c1.61,0.28,2.97,0.53,4.55,0c0.33-0.11,0.67-0.25,1.02-0.44c2.78-1.46,4.59-1.69,7.53-0.51
		c1.3,0.53,2.31,0.86,3.3,0.95c0.37,0.04,0.74,0.04,1.11,0c0.78-0.07,1.61-0.31,2.63-0.72c1.4-0.56,2.71-1.11,4.25-1.14
		c2.11-0.02,4.12,1.04,6.22,0.96c1.9-0.07,3.48-1.35,5.37-1.51c2.67-0.23,4.81,1.45,7.15,2.41c0.91,0.37,1.84,0.64,2.86,0.65
		c1.35,0.01,2.65-0.27,3.93-0.65c2.65-0.77,5.22-1.94,8.06-1.77c4.92,0.3,8.69,2.94,13.69,0.88c0.21-0.09,0.41-0.11,0.58-0.09
		c1.21-0.64,2.54-0.6,3.9-0.14c0.95,0.32,1.75,0.84,2.7,1.12c0.12,0.04,0.24,0.07,0.37,0.1c0.96,0.21,1.77,0.13,2.57-0.1
		c0.74-0.21,1.46-0.55,2.26-0.91c4.21-1.89,7.39-1.27,11.77-0.44c3,0.57,5.3,0.09,8.18-0.66c1.61-0.42,3.25-0.74,4.91-0.43
		c1.83,0.33,3.33,1.4,5.02,2.13c0.31,0.13,0.61,0.24,0.91,0.31c1.05,0.28,2.02,0.22,2.99,0c0.96-0.21,1.91-0.59,2.93-0.96
		c1.56-0.57,3.13-1.02,4.8-0.72c0.69,0.13,1.3,0.41,1.95,0.66c1.54,0.58,2.74,0.51,4.37,0.26c1.78-0.28,3.23-0.07,4.98,0.39
		c2.84,0.74,5.11,0.21,7.92-0.38c3.15-0.67,5.61-0.06,8.36,0.75c0.83,0.25,1.68,0.5,2.59,0.75c2.63,0.72,4.91-0.13,7.27-0.75
		c1.49-0.39,3.02-0.69,4.69-0.44c0.69,0.1,1.37,0.26,2.05,0.44c1.67,0.43,3.3,0.99,5.01,1.18c2.54,0.29,5.01-0.28,7.47-0.86
		c0.45-0.11,0.91-0.21,1.35-0.32L208.91,3.78z"/>
	<path class="st1" d="M208.91,15.42v10.11c-1.59,0.21-3.21-0.12-4.79-0.11h-0.01c-0.67,0-1.34-0.03-1.99-0.11
		c-0.26-0.03-0.51-0.06-0.75-0.09c-1.49-0.15-2.52-0.09-3.97,0.81c-0.62,0.38-1.17,0.7-1.93,0.73c-0.88,0.02-1.33-0.48-2.08-0.7
		c-1.92-0.59-2.74-0.24-4.42,0.39c-1.99,0.74-3.77,0.01-5.61-0.79c-2.07-0.91-3.61-1.25-5.72-0.49c-1.25,0.45-2.42,1.08-3.71,1.41
		c-2,0.49-3.64,0.07-5.5-0.71c-1.15-0.48-2.14-0.94-3.19-0.93c-0.57,0.01-1.16,0.16-1.8,0.53c-0.9,0.52-1.68,1.08-2.73,1.29
		c-0.62,0.12-1.21,0.13-1.76,0.05c-0.75-0.1-1.45-0.36-2.12-0.73c-0.23-0.13-0.45-0.27-0.67-0.42c-0.13,0-0.28-0.02-0.44-0.08
		c-2.73-1.05-4.48-0.31-6.95,0.85c-1.21,0.57-2.34,0.92-3.69,0.7c-1.09-0.17-2-0.73-2.99-1.18c-1.24-0.55-2.32-0.97-3.69-0.95
		c-1.27,0.02-2.03,0.55-3.2,0.87c-1.45,0.4-2.93,0.24-4.42-0.04c-0.96-0.18-1.91-0.39-2.86-0.53c-1.08-0.16-2.17-0.22-3.25,0.01
		c-2.95,0.62-3.73-0.42-6.29-1.52c-0.09-0.04-0.18-0.08-0.27-0.12c-0.01,0-0.01-0.01-0.01-0.01c-0.15,0.01-0.31-0.02-0.48-0.09
		c-0.94-0.39-2.11,1.08-3.08,1.96c-0.26,0.23-0.5,0.42-0.72,0.52c-0.81,0.37-1.68,0.45-2.55,0.39c0,0,0,0-0.01,0
		c-0.04-0.01-0.09-0.01-0.13-0.01c-0.01,0-0.02,0-0.04-0.01c-0.11-0.01-0.23-0.02-0.34-0.04c-1.4-0.18-2.53-0.85-3.85-1.28
		c-2.18-0.71-3.9-0.17-6.06,0.18c-3.1,0.5-6.26-0.22-9.38,0.1c-0.09,0.01-0.18,0.02-0.27,0.02c-1.46,0.15-2.87,0.32-4.28,0.26
		c-1.17-0.05-2.33-0.26-3.49-0.77c-1.56-0.69-2.66-1.48-4.07-1.5c-0.56-0.01-1.18,0.12-1.89,0.42c-0.94,0.4-1.78,1.07-2.76,1.4
		c-0.07,0.02-0.13,0.04-0.2,0.06c-2.8,0.85-4.53-0.79-7.18-1.45c-2.95-0.74-5.64,1.68-8.62,1.24c-1.23-0.18-2.73-1.41-3.96-1.13
		c-1.13,0.26-1.44,0.97-2.65,0.98h-0.09c-0.06,0-0.1-0.01-0.16-0.02h-0.02c-2.43,0.46-3.36-1.12-5.36-1.73
		c-0.14-0.04-0.29-0.09-0.45-0.12c-1.32-0.28-2.46,0.75-3.67,1.12c-1.07,0.32-2.17,0.3-3.27,0.2c-0.02,0-0.05-0.01-0.07-0.01h-0.01
		c-0.77-0.08-1.51-0.21-2.24-0.29c-0.93-0.1-1.85-0.13-2.82,0.12c-1.09,0.28-2.04,0.81-3.18,0.85c-0.83,0.03-1.5-0.17-2.25-0.5
		c-1.71-0.75-2.86-0.75-4.49,0.04c-1.86,0.88-3.05,1.04-5.04,0.34c-1.12-0.39-2.3-1.24-3.52-1.21c-1.3,0.03-2.36,1.14-3.56,1.55
		c-2.13,0.74-3.7-0.67-5.76-0.59C3.97,24.75,2.04,25.18,0,25.32v-9.89c0.56-0.21,1.13-1.31,1.76-1.27c1.27,0.09,2.39,0.81,3.75,0.57
		c1.19-0.21,2-0.78,3.29-0.67c0.99,0.08,1.89,0.43,2.83,0.75c1.35,0.44,2.38,0.39,3.49,0.12c0,0,0,0,0.01-0.01
		c0.48-0.11,0.97-0.26,1.51-0.43c0.57-0.18,1.11-0.32,1.67-0.36c0,0,0,0,0.01,0c0.37-0.02,0.75-0.01,1.15,0.09
		c0.32,0.07,0.62,0.16,0.91,0.25h0.01c0.01,0,0.01,0,0.01,0c1.05,0.3,2.02,0.6,3.25,0.39c1.61-0.27,3.23-1.05,4.77-1.57
		c0.39-0.13,0.72-0.06,0.97,0.11c0.69,0.17,1.39,0.68,2.11,1.05c1.34,0.7,2.02-0.02,3.34-0.12c0.54-0.04,0.98,0.12,1.51,0.18
		c1.73,0.2,1.81,0.15,3.13-0.55c0.84-0.45,1.56-0.67,2.22-0.77c0.01,0,0.01,0,0.01,0c0.01,0,0.01,0,0.01,0
		c0.2-0.02,0.4-0.04,0.6-0.06h0.03c1.15-0.04,2.27,0.22,3.84,0.31c1.91,0.1,2.84-1.27,4.48-1.78c0.47-0.15,0.94-0.21,1.4-0.21
		c0.35-0.01,0.7,0.02,1.04,0.09c0.38,0.06,0.76,0.15,1.14,0.27c0.59,0.18,1.16,0.45,1.73,0.69c0.69,0.28,1.28,0.45,1.85,0.53h0.01
		c1.07,0.16,2.03-0.01,3.29-0.37c0.87-0.26,1.5-0.76,2.47-0.66c1.51,0.15,1.87,0.8,3.55,0.33c0.18-0.05,0.36-0.1,0.53-0.17h0.01
		c0.01,0,0.01,0,0.01,0c1.53-0.5,3.03-1.26,4.61-1.53c1.83-0.31,2.71,0.4,3.71,1.31h0.01l0.01,0.01c0.42,0.39,0.86,0.81,1.41,1.21
		c3.36,2.44,7.68,1.37,11.3,0.12c0.81-0.7,1.64-0.89,2.51-0.86c0.01,0,0.01,0,0.01,0c0.21,0.01,0.42,0.03,0.63,0.06
		c0.01,0,0.01,0,0.01,0c0.63,0.09,1.29,0.27,1.98,0.43c1.23,0.3,2.25-0.01,3.27-0.35c1.19-0.4,2.36-0.85,3.85-0.4
		c0.32,0.1,0.62,0.24,0.93,0.39c0.33,0.16,0.66,0.32,1.04,0.42c1.37,0.38,2.32-0.01,3.64-0.36c1.07-0.29,2.06-0.57,3.14-0.67
		c0.01,0,0.02-0.01,0.04,0c0.27-0.03,0.55-0.04,0.83-0.04c0.69,0,1.34,0.07,1.97,0.19c1.78,0.35,3.37,1.15,4.96,2.16
		c3.81,2.43,7.42-0.56,11.3-1.32c1.26-0.25,2.33-0.26,3.37-0.07c0.01-0.01,0.02,0,0.02,0.01c0.98,0.17,1.94,0.52,3,1h0.01
		c0.01,0.01,0.02,0.01,0.04,0.02c3.71,1.66,7.93-0.32,11.7-1.23c0.47-0.12,0.93-0.22,1.39-0.31h0.03c0.01,0,0.03-0.01,0.04-0.01
		c0.86-0.16,1.71-0.24,2.62-0.16c0.15,0.01,0.3,0.03,0.45,0.06h0.02c1.79,0.26,3.43,1.05,5.29,0.7c0.09-0.01,0.18-0.03,0.27-0.06
		c0.42-0.1,0.77,0,1.03,0.21c0.37-0.02,0.75-0.05,1.11-0.05c0.89-0.02,1.78,0.05,2.78,0.4c0.14,0.05,0.29,0.11,0.43,0.17
		c2.18,0.93,3.32,0.48,5.31-0.57c0.74-0.39,1.49-0.72,2.32-0.75c0.13-0.01,0.26-0.01,0.4,0.01c0.83,0.07,1.47,0.45,2.14,0.89
		c0.32,0.21,0.63,0.57,0.96,0.74c1.33,0.69,2.46,0.43,3.79,0c0.2-0.06,0.4-0.14,0.6-0.24c0,0,0,0,0.01,0
		c1.14-0.52,2.38-1.42,3.63-1.94c0.01-0.01,0.01-0.01,0.01,0c0.82-0.35,1.65-0.53,2.46-0.33c1.2,0.29,2.01,1.54,3.17,1.91
		c1.53,0.5,3.33-0.06,4.91-0.03c0.96,0.02,2.42,0.58,3.46,0.37h0.01c0.01,0,0.01-0.01,0.01-0.01c0.18-0.03,0.34-0.09,0.48-0.17
		c0.23-0.13,0.4-0.37,0.57-0.62c0.22-0.33,0.45-0.69,0.82-0.89c1.53-0.8,2.36,0.17,3.56,0.94C203.12,14.21,206.15,15.5,208.91,15.42
		z"/>
	<path class="st3" d="M208.91,14.81v2.45c-1.79,0.12-3.58-1.1-5.39-1.38c-1.26-0.2-2.68-0.4-3.77-1.12
		c-1.08-0.71-2.27-1.48-2.96,0.14c-0.28,0.65-0.85,0.75-1.35,0.55c-2.78-0.06-5.81,0.19-8.53-0.28c-1.76-0.31-3.06-2.52-4.8-2.31
		c-1.97,0.25-3.41,2.49-5.32,3.09c-1.49,0.47-2.84,0.2-4.17-0.55c-0.72-0.4-1.32-1.08-2.06-1.43c-1.74-0.81-2.49,0.25-3.79,1.09
		c-1.05,0.68-2.03,0.74-3.21,0.28c-1.23-0.48-1.82-1.38-3.29-1.57c-1.1-0.13-2.32,0.25-3.4,0.37c-0.02,0-0.03,0.01-0.05,0.01
		c-2.31,0.23-3.93-0.62-6.14-1.04c-4.2-0.8-7.72,2.79-11.81,3.23c-1.69,0.18-3.12-0.21-4.65-0.85c-1.62-0.67-2.89-1.46-4.72-1.45
		c-1.68,0.01-3.07,0.69-4.59,1.27c-1.78,0.69-3.56,1.35-5.5,0.89c-2.66-0.64-4.64-2.43-7.54-2.58c-2.52-0.13-4.55,1.1-6.95,1.3
		c-1.75,0.15-6.05-2.62-7.04-1.22c-0.31,0.44-0.76,0.58-1.18,0.53c-0.92,0.71-1.61,0.6-2.74,0.28c-2.04-0.58,0.85-0.72-2.18-0.64
		c-1.4,0.04-1.17,0.09-2.19,0.53c-1,0.43-1.87,1.04-2.93,1.36c-1.92,0.57-3.99,0.61-5.94,0.13c-2.26-0.55-3.79-2.11-5.86-3.01
		c-3.01-1.3-4.56,0.91-7.34,1.15c-2.14,0.19-3.55-1.4-5.69-0.34c-1.2,0.6-1.88,1.29-3.32,1.2c-1.23-0.07-2.36-0.67-3.45-1.18
		c-0.98-0.45-1.92-1.08-3.01-1.04c-0.09,0-0.17,0.01-0.26,0.02c-1.21,0.18-1.59,1.07-2.56,1.74c-0.92,0.64-1.83,0.81-2.93,0.58
		c-0.9-0.19-1.72-0.91-2.6-1.06c-1.08-0.18-1.78,0.5-2.73,0.77c-2.06,0.57-3.91-0.13-5.95,0.84c-1.19,0.56-2.16,1.32-3.52,0.77
		c-0.51-0.21-0.78-0.62-1.19-0.96c-0.21-0.17-0.29-0.69-0.53-0.8c-0.98-0.47-2.7,0.09-3.54,0.51c-1.55,0.77-2.63,1.7-4.5,1.45
		c-1.6-0.21-3.09-1.64-4.66-1.2c-1.27,0.36-1.89,1.39-3.35,1.32c-1.24-0.06-2.13-0.79-3.25-1.17c-2.14-0.72-2.49,0.91-4.4,1.04
		c-0.74,0.06-1.34-0.23-2.05-0.4c-1.4-0.33-2.69,0.88-4.03,1.12v-2.45c0.6-0.1,1.21-1.45,1.83-1.44c1.15,0.01,2.25,0.53,3.35,0.55
		c1.5,0.03,2.33-1.39,3.9-1.36c1.57,0.02,2.67,1.3,4.12,1.53c1.61,0.25,2.65-1.5,4.33-1.43c2.24,0.09,3.82,1.95,6.11,1.14
		c1.56-0.56,2.65-1.89,4.36-2.16c1.45-0.23,2.33,0.22,3.42,1.09c0.99,0.78,1.13,1.15,2.36,0.74c0.73-0.24,1.28-0.78,2.05-0.97
		c0.88-0.22,1.69-0.08,2.57-0.08c1.34,0,2.41-0.56,3.65-0.83c1.26-0.28,2.13-0.02,3.33,0.47c2.65,1.09,2.89-0.79,5.02-1.64
		c0.53-0.21,1.09-0.29,1.65-0.27c0.37,0.01,0.74,0.07,1.11,0.15c1.58,0.37,2.89,1.49,4.44,1.9c2.16,0.58,2.74-1.04,4.56-1.51
		c2.11-0.55,3.89,1.15,6.04,0.71c1.63-0.33,2.89-1.44,4.62-1.49c1.85-0.06,3.42,0.95,4.93,1.89c2.43,1.52,4.89,2.46,7.78,1.73
		c2.1-0.53,3.77-2.22,5.93-2.54c0.37-0.05,4.12,1.01,3.66,1.4c0.3-0.25,0.64-0.34,0.95-0.3c0.74-0.88,1.65-1.32,2.9-1.32
		c0.69-0.01,1.31,0.2,1.95,0.42c1.97,0.7,3.33,1.29,5.56,0.84c2.37-0.48,4.28-1.08,6.76-0.72c2.55,0.37,5.04,2.51,7.48,2.6
		c2.68,0.1,5.1-1.98,7.76-2.26c2.29-0.24,4.13,0.47,6.18,1.34c2.86,1.21,4.73,0.99,7.53-0.2c1.9-0.8,3.76-1.81,5.82-2.16
		c2.29-0.38,3.82,0.43,5.99,0.94c0.96,0.22,1.89,0.17,2.82,0.06c1.45-0.17,2.87-0.49,4.34-0.2c0.83,0.16,1.35,0.58,2.11,0.85
		c0.64,0.59,1.43,0.79,2.36,0.58c0.36-0.37,0.73-0.74,1.11-1.08c1.12-0.85,2.27-1.13,3.62-0.69c1.45,0.47,2.4,1.87,3.8,2.37
		c2.87,1,4.78-2.36,7.3-2.97c1.95-0.46,2.7,0.25,4.25,1.18c2.71,1.63,6.14,1.29,9.3,1.32c0.86-1.56,2.34-2.78,4.23-1.85
		c1.77,0.88,2.62,1.98,4.77,2.32C205.66,13.72,207.28,14.92,208.91,14.81z"/>
</g>
</svg>
