<?xml version="1.0" encoding="utf-8"?>
<!-- Generator: Adobe Illustrator 25.2.3, SVG Export Plug-In . SVG Version: 6.00 Build 0)  -->
<svg version="1.1" id="Layer_1" xmlns="http://www.w3.org/2000/svg" xmlns:xlink="http://www.w3.org/1999/xlink" x="0px" y="0px"
	 viewBox="0 0 156.83 156.83" style="enable-background:new 0 0 156.83 156.83;" xml:space="preserve">
<style type="text/css">
	.st0{fill:#D6AD29;}
	.st1{fill:#A5B508;}
	.st2{fill:#B79D1D;}
	.st3{fill:#557507;}
	.st4{fill:#C6A028;}
	.st5{fill:#E2BD23;}
</style>
<g>
	<path class="st0" d="M141.13,156.83h-73.2c0.16-19.1-9.5-36.97-24.03-49.04c0,0,0,0-0.01-0.01c-2.11-1.76-4.33-3.39-6.64-4.88
		c-0.01,0-0.01,0-0.01-0.01c-0.59-0.39-1.19-0.76-1.79-1.12c-2.11-1.28-4.29-2.45-6.52-3.48h-0.01c-2.33-1.09-4.72-2.04-7.15-2.84
		c-3.95-1.3-8.02-2.22-12.17-2.7c-0.01,0.01-0.01,0-0.01,0c-0.5-0.06-0.98-0.12-1.48-0.15c0,0,0,0-0.01,0
		c-2.26-0.21-4.54-0.29-6.83-0.23c-0.23,0.01-0.46,0.01-0.69,0.02c-0.01,0.01-0.01,0.01-0.02,0C0.37,92.39,0.18,92.4,0,92.41V14.2
		c16.45,0.92,32.79,3.95,48.35,9.41c11.89,4.16,23.37,9.69,34.02,16.45c1.82,1.14,3.61,2.33,5.38,3.57
		c0.22,0.14,0.43,0.29,0.66,0.45c0.2,0.14,0.39,0.28,0.59,0.42c1.56,1.11,3.07,2.27,4.54,3.48c0.45,0.36,0.88,0.73,1.32,1.09
		c0.77,0.66,1.53,1.33,2.28,2c2.09,1.89,4.08,3.88,6,5.93c0.87,0.92,1.71,1.86,2.55,2.81c1.82,2.08,3.59,4.22,5.3,6.41
		c0.71,0.91,1.41,1.83,2.1,2.75c1.16,1.54,2.29,3.1,3.4,4.67c0.98,1.38,1.94,2.76,2.89,4.16c0.1,0.15,0.2,0.3,0.31,0.45
		c1.18,1.74,2.33,3.5,3.45,5.29c1.46,2.35,2.87,4.74,4.22,7.18c1.18,2.14,2.31,4.32,3.39,6.52c0.43,0.88,0.85,1.77,1.26,2.65
		c1.05,2.27,2.03,4.57,2.95,6.89c0.5,1.27,0.98,2.54,1.44,3.83c1.02,2.89,1.94,5.8,2.72,8.75c0.3,1.13,0.58,2.27,0.84,3.4
		c0.43,1.88,0.81,3.77,1.13,5.67c0.37,2.15,0.66,4.32,0.86,6.49c0.17,1.72,0.28,3.44,0.34,5.17
		C142.49,145.65,142.13,151.25,141.13,156.83z"/>
	<path class="st1" d="M71.09,156.83H52.11c-0.31-2.15,0.4-4.56,1.46-6.28c0.06-0.12,0.12-0.22,0.2-0.32
		c0.15-0.42,0.38-0.83,0.72-1.22c0.78-0.9,1.15-1.32,1.38-2.24c-0.23-0.09-0.45-0.18-0.67-0.28c-1.26-0.62-2.22-1.55-2.8-2.83
		c-0.64-1.39-0.76-2.98-0.43-4.48c0.19-0.84,1.21-2.01,0.39-2.47c-0.87-0.5-1.26-1.43-1.24-2.35c-1.21-1.15-2.31-2.56-3.29-3.82
		c-0.73-0.95-1.38-1.96-1.69-3.13c-0.09-0.61-0.18-1.2-0.25-1.8c0.01-0.21,0.02-0.38,0.02-0.51c-0.09,0.04-1.56-1.46-1.77-1.85
		c-0.63-1.16-0.57-2.26-0.86-3.48c-0.6-2.51-3.42-4.2-5.85-5.01h-0.01c-0.57-0.04-1.16-0.24-1.75-0.67
		c-0.04-0.02-2.03,0.15-2.46,0.07c-0.88-0.18-1.64-0.51-2.36-1.06c-1.23-0.96-1.65-2.65-2.83-3.53c-1.44-1.07-3.75-1.39-5.54-2.08
		c-1.03,0.34-2.17,0.32-3.13-0.25c-1.6-0.95-3.01-2.08-4.18-3.53c-0.76-0.94-1.35-2.77-2.78-2.75c-1.3,0.02-2.47,1.75-3.62,2.36
		c-1.54,0.83-3.25,1.04-4.97,1.02H3.77c-0.41,0.34-0.94,0.57-1.6,0.63c-0.36,0.03-0.72,0.06-1.07,0.09
		c-0.41,0.03-0.78,0.13-1.1,0.01v-15.1c1.78-0.77,4.22-0.65,5.98-0.73c0.38-0.01,0.72,0.03,1.04,0.12c2.14-0.42,3.87-0.28,5.58,0.68
		c4.42-0.65,8.65,0.64,12.85,1.96c3.69,1.17,7.65,2.51,10.61,5.09c1.76,0.89,3.45,1.9,5.12,3.01c2.68,1.78,5.78,3.61,6.61,6.92
		c0.01,0.04,0.01,0.08,0.02,0.12c2.72,2.21,5.37,4.52,7.63,7.21c2.87,3.4,4.59,7.34,6.28,11.41c0.32,0.77,0.34,1.47,0.16,2.07
		c1.11,1.77,2.2,3.55,3.36,5.28c1.78,2.64,3.25,5.26,4.21,8.11c0.01,0.01,0.01,0.02,0.01,0.02c0.54,1.57,0.92,3.22,1.13,4.97
		c0.13,1.11-0.43,2.15-1.26,2.89c0.56,1.36,1.14,2.71,1.58,4.1C71.36,154.57,71.38,155.81,71.09,156.83z"/>
	<path class="st2" d="M73.53,156.83h-9.46c-0.43-2.48-0.94-5-1.02-7.45c-0.05-1.49,0.51-2.51,0.7-3.91
		c0.27-1.93-0.67-1.54-1.47-2.81c-1.29-2.06,0.06-4.66-0.77-6.88c-0.55-1.47-2.12-2.19-3.1-3.36c-0.77-0.92-1.33-1.96-1.89-3.01
		c-0.3-0.57-0.22-1.12,0.05-1.54c-1.68-1.44-3.09-3.44-3.91-5.39c-0.5-1.19-0.43-2.63-0.95-3.75c-0.59-1.29-2.16-1.98-3.23-2.92
		c-1-0.88-1.6-1.5-2.82-2.06c-0.77-0.35-1.34-0.94-1.82-1.63c-2-2.9-1.42-6.18-5.45-7.4c-2.78-0.84-4.06-2.72-6.52-4.08
		c-2.76-1.52-6.21-0.78-9-2.35c-1.54-0.87-2.68-2.35-4.39-2.94c-1.62-0.56-3.6-0.49-5.3-0.64c-1.44-0.12-2.91-0.18-4.33-0.45
		C6.81,93.9,4.7,92.46,2.52,92.8c-0.53,0.09-0.96-0.12-1.25-0.44c-0.03-0.03-0.06-0.07-0.09-0.1c-0.2,0.05-0.4,0.09-0.61,0.13
		c-0.01,0.01-0.01,0.01-0.02,0c-0.18,0.04-0.37,0.07-0.56,0.1v-9.03c0.09-0.04,0.19-0.06,0.29-0.06c0.04,0,0.09,0.01,0.12,0.01
		c1.15-0.42,2.39-0.56,3.59-0.12c1.61,0.6,2.6,1.47,4.45,1.63c0.89,0.08,1.76-0.04,2.63,0.17c0.69,0.17,1.21,0.51,1.83,0.81
		c1.98,0.93,2.96,0.65,4.94,0.81c1.73,0.14,2.41,0.8,3.81,1.53c1.78,0.93,3.94,0.37,5.67,1.5c0.62,0.41,0.88,1.14,1.41,1.53
		c1.08,0.78,2.25,0.58,3.44,0.95c1.37,0.42,2.01,1.17,2.94,2.08c0.5,0.5,0.12,0.3,0.73,0.65c0.7,0.4,1.89,0.52,2.69,0.89
		c0.24,0.11,0.4,0.27,0.51,0.45c2.06,0.05,2.78,2.51,4.82,3.19c0.94,0.31,1.64,0.16,2.36,1c0.77,0.88,0.6,2.33,1.35,3.15
		c1.6,1.75,4.19,1.03,5.36,3.52c0.61,1.29-0.09,1.58,0.94,3.17c0.34,0.53,0.92,0.9,1.3,1.41c0.7,0.93,0.73,1.64,1.1,2.66
		c0.49,1.34,1.76,1.82,2.53,2.95c0.95,1.41,1.35,2.47,2.63,3.64c0.79,0.73,1.5,1.42,1.87,2.45c0.58,1.63,0.92,2.4,2.3,3.6
		c0.94,0.84,1.66,1.67,2,2.92c0.11,0.41,0.01,1.26,0.2,1.59c0.45,0.77,0.73,0.43,1.29,0.97c2.01,1.93,1.2,5.26,0.89,7.76
		c-0.05,0.43-0.25,0.75-0.52,0.97c0.01,0.01,0.01,0.02,0.01,0.02c0.18,0.4,0.39,0.76,0.66,1.09c0.34,0.41,0.81,0.65,1.1,1.12
		c0.83,1.32,0.4,3.06,0.81,4.52C72.93,151.16,73.64,153.76,73.53,156.83z"/>
	<path class="st1" d="M156.75,156.83h-17.57c0.01-0.5,0.05-1,0.13-1.54c0.15-0.97,0.66-1.69,1.15-2.51
		c0.04-0.06,0.08-0.11,0.12-0.17c-0.4-0.78-0.51-1.74-0.14-2.85c1.84-5.48-0.45-10.98-1.49-16.39c-0.26-1.39,0.19-2.66,0.99-3.59
		c-1.26-4.61-2.76-9.11-3.19-13.92c-0.02-0.27-0.04-0.54-0.06-0.82c-0.12-0.25-0.24-0.5-0.37-0.75c-0.01-0.01-0.02-0.03-0.02-0.04
		c-1.24-2.27-2.38-4.59-3.41-6.98c-0.25-0.58-0.35-1.15-0.33-1.69c-0.44-0.27-0.83-0.67-1.09-1.24c-2.84-5.97-6.73-11.4-10.49-16.81
		c-0.47-0.68-0.58-1.4-0.43-2.07c-1.16-1.8-2.24-3.65-3.24-5.53c-1.34-1.4-2.77-2.7-3.86-3.86c-2.76-2.94-5.46-5.92-7.83-9.19
		c-0.65-0.1-1.3-0.44-1.87-1.12c-2.55-2.96-5.23-5.8-8.06-8.48c-0.77-0.59-1.52-1.19-2.27-1.8c-0.77-0.62-1.51-1.25-2.25-1.9
		c-0.94-0.83-1.87-1.67-2.77-2.55c-4.18-3.2-8.63-6.07-12.3-9.87c-0.47-0.49-0.77-1.06-0.92-1.64c-2.93-1.2-5.79-2.53-8.56-4.08
		c-0.19-0.1-0.36-0.22-0.51-0.34c-5.08-2.62-10.23-5.1-15.43-7.5c-0.5-0.23-0.88-0.54-1.16-0.9c-6.19-1.42-12.05-4.38-18.22-5.91
		c-3.39-0.84-6.85-1.8-10.33-2.63c-0.21-0.03-0.42-0.08-0.62-0.15c-0.94-0.22-1.88-0.43-2.83-0.62c-5.1-0.56-10.21-1-15.31-0.86
		C1.29,16.53,0.56,16.28,0,15.86V0.38c0.04-0.01,0.09-0.01,0.13-0.01C0.37,0.37,0.6,0.37,0.84,0.37c0.02-0.01,0.04-0.01,0.06-0.02
		c0.3-0.1,0.61-0.18,0.9-0.2c1.9-0.17,4.07-0.3,5.98,0.2c0.31,0.08,0.61,0.18,0.91,0.29c1.67,0.66,2.33,2.37,3.78,3.09
		c1.67,0.84,5.05-0.2,6.74-0.45c2.15-0.31,4.32-0.74,6.48-0.9c2.04-0.16,4.18,0.1,5.87,1.34c0.4,0.3,1.92,1.96,2.54,3.3
		c0.69-0.48,1.43-0.89,2.23-1.15c2.03-0.65,4.22-0.6,6.18,0.21c0.66,0.26,1.25,0.64,1.73,1.1c2.4-0.02,4.76,0.53,7.06,1.4
		c1.4,0.53,2.5,1.2,3.45,2.35c0.83,0.99,1.52,3.11,2.79,3.64c1.11,0.46,2.76,0,3.97,0.3c1.26,0.31,2.45,0.92,3.36,1.86
		c0.83,0.86,1.11,2.16,1.89,2.98c0.89,0.95,2.34,0.76,3.64,0.83c5.86,0.33,13.66-1.79,18.39,2.67c2.52,2.37,2.61,5.18,3.2,8.35
		c0.53,2.85,2.96,3.86,5.37,5.02c0.81,0.39,1.35,0.93,1.66,1.53c4.86,0.54,10.71,4.14,13.39,7.88c1.55,2.17,1.38,5,3.44,6.88
		c1.85,1.69,4.49,2.04,6.55,3.38c5.26,3.4,3.88,9.27,6.62,14.05c1.4,2.44,3.98,3.88,5.85,5.92c2.06,2.24,3.21,4.72,3.48,7.73
		c3.1,1.89,5.63,4.34,6.03,8.19c0.1,0.89-0.2,2.37,0.14,3.17c0.36,0.83,1.4,1.37,2,2c1.51,1.58,2.47,3.52,2.9,5.66
		c0.39,1.99-0.11,4.68,0.68,6.33c1.04,2.17,3.03,3.84,4,6.14c1.13,2.64,0.67,4.71,0.1,7.41c-0.5,2.37-0.39,4.46,0.36,6.77
		c0.24,0.76,0.26,1.45,0.12,2.06c3.01,3.44,1.62,10.52,1.69,14.59c0.04,2.16,0.28,4.38,0.4,6.57c0.07,1.14,0.1,2.28,0.04,3.4
		c-0.01,0.17-0.02,0.33-0.04,0.49C156.76,156.77,156.76,156.8,156.75,156.83z"/>
	<path class="st2" d="M145.09,156.83h-9.73c-0.12-1-0.09-2.03-0.03-2.96c0.09-1.38,0.37-2.73,0.98-3.98c0.34-0.7,1.18-1.5,1.57-2.28
		c-0.26-0.79-0.28-1.66,0.04-2.5c-0.11-0.09-0.23-0.25-0.37-0.48c-0.17-0.2-0.33-0.39-0.5-0.59c-0.64-0.79-1.11-1.53-1.53-2.46
		c-0.75-1.67-1.05-3.46-0.88-5.28c0.1-1.16,1.14-3.36,0.72-4.26c-0.65-1.41-2.11-2.26-2.65-3.84c-0.6-1.75-0.05-3.18-0.21-4.92
		c-0.12-1.38-1.3-2.37-1.86-3.71c-0.71-1.72-0.54-3.3-0.61-5.1c-0.07-1.82-1.32-2.41-1.93-4.09c-0.32-0.89-0.39-1.77-0.31-2.71
		c0.02-0.21,0.34-1.54,0.4-1.32c-0.12-0.45-1.41-1.58-1.68-1.97c-0.5-0.72-0.92-1.49-1.19-2.33c-0.41-1.28-0.11-3.21-0.77-4.35
		c-0.68-1.2-2.49-1.75-3.31-3c-0.78-1.19-1.04-2.53-1.2-3.92c-0.06-0.47,0.04-1.69-0.25-2.12c-0.18-0.28-1.51-0.9-1.79-1.17
		c-1.88-1.82-1.78-4.41-2.98-6.57c-0.01-0.01-0.01-0.02-0.02-0.03c-0.68-0.39-1.26-1.01-1.62-1.89c-0.93-2.33-4.04-2.85-5.62-4.58
		c-1.03-1.14-0.85-2.1-1.34-3.39c-0.37-0.98-0.78-0.94-1.75-1.54c-0.97-0.6-1.81-1.3-2.39-2.29c-0.3-0.52-0.47-1.02-0.6-1.6
		c-0.04-0.24-0.07-0.5-0.1-0.75c-0.29-0.07-0.61-0.16-0.67-0.18c-0.5-0.2-0.96-0.51-1.37-0.86c-0.89-0.76-1.45-1.74-1.73-2.87
		c-0.11-0.44-0.06-1.04-0.12-1.55c-0.09-0.03-0.23-0.07-0.43-0.1c-0.92-0.16-2.09-0.98-2.72-1.64c-0.6-0.64-0.82-1.43-1.13-2.16
		c-0.13-0.31-0.28-0.6-0.48-0.87c-0.43-0.58-1.09-0.78-1.77-1.03c-0.27-0.1-0.53-0.2-0.79-0.34c-1.02-0.54-1.65-1.04-2.72-1.38
		c-1.06-0.34-1.97-0.51-2.86-1.24c-0.91-0.73-1.16-1.64-1.78-2.54c-0.28-0.4-0.35-0.5-0.59-0.76c-0.29-0.31-0.62-0.59-0.94-0.88
		c-0.99,0.18-2.05-0.09-2.92-1.08c-0.45-0.51-0.97-1.05-1.22-1.71c-1.04-0.22-2.9-1.05-3.07-1.17c-0.62-0.42-2.31-1.8-2.28-2.7
		c-0.52,0.08-1.04,0.06-1.56-0.06c-1.32-0.28-2.51-1.2-3.04-2.45c-0.04-0.09-0.34-1.31-0.31-1.29c-0.08-0.05-1.53,0.15-1.77,0.12
		c-2.07-0.25-3.19-1.36-3.76-2.89c-0.26-0.03-0.52-0.07-0.78-0.1c-0.94-0.13-1.55-0.34-2.29-0.89c0,0-0.96-0.81-1.05-1.09
		c-0.55,0.07-1.3,0.34-1.65,0.37c-1.57,0.11-3.01-0.23-4.24-1.22c-0.51-0.42-0.85-1.09-1.36-1.48c-0.31-0.24-0.8-0.43-1.26-0.62
		c-0.59,0.18-1.28,0.18-2.04-0.07c-1.23-0.4-1.97-0.97-2.96-1.77c-0.24-0.25-0.48-0.51-0.72-0.76l0.06,0.44
		c-0.53,0.02-1.12,0.32-1.66,0.42c-2.27,0.4-4.7,0.03-6.26-1.8c-0.19-0.21-0.53-0.84-0.78-1.39c-0.14,0.01-0.29,0.01-0.47,0.04
		c-0.84,0.11-1.57,0.17-2.41,0.04c-1.23-0.18-2.17-0.66-3.13-1.45c-0.19-0.15-0.54-0.62-0.83-0.86c-0.01,0.23-1.02,0.55-1.08,0.57
		c-2.69,0.75-5.88-0.43-8.4-1.27c-1.33-0.45-2.74-1.02-4.16-1.05c-1.46-0.03-2.2,0.71-3.45,1.29c-1.29,0.6-2.62,0.79-4.01,0.45
		c-0.16-0.04-0.93-0.23-1.24-0.37c-0.18,0.18-0.66,0.46-0.75,0.53C3.17,22.1,1.54,22.52,0,22.05v-9.77c0.3-0.06,0.58-0.09,0.86-0.12
		C2.19,12,3.5,11.92,4.82,11.91c1.27-0.17,2.65-0.04,3.58,0.06c0.22,0.03,0.42,0.1,0.58,0.19c0.27,0.04,0.53,0.09,0.81,0.16
		c0.41,0.1,0.67,0.32,0.81,0.59c0.21-0.02,0.42-0.05,0.63-0.06c0.32-0.09,0.64-0.17,1-0.22c2.17-0.31,4.29,0.09,6.36,0.69
		c0.2-0.01,0.39-0.03,0.59-0.06c3.04-0.43,5.52-0.49,8.1,1.22c0.09-0.02,0.21-0.04,0.38-0.04c0.8-0.02,0.99,0.45,1.73,0.6
		c0.77,0.15,1.03-0.27,1.63,0.04c0.13,0.07,0.3,0.19,0.62,0.43c0.23,0.17,0.45,0.33,0.66,0.51c0.17,0.28,0.37,0.45,0.58,0.48
		c0.16,0.03,0.32-0.01,0.5-0.1c0.01,0,0.01,0,0.01,0c0.07-0.04,0.15-0.1,0.23-0.16c1.76,0.05,3.36-0.17,4.77,0.59
		c0.28,0.15,0.59,0.86,1.37,1.14c0.48,0.18,0.94,0.17,1.26,0.13c0.47,0.2,1.24,0.49,2.23,0.71c2,0.44,2.63,0.15,3.7,0.75
		c0.17,0.1,0.37,0.29,0.58,0.51c0.02,0,0.03,0,0.05,0.01c0.99,0.32,1.97,0.64,2.93,0.99c0.78,0.19,1.54,0.51,2.25,0.92
		c1.58,0.72,3.08,1.61,4.46,2.79c0,0.01,0,0.01,0.01,0.01c0.91-0.09,1.73-0.09,2.61,0.24c0.56,0.21,1,0.72,1.44,1.11
		c0.58,0.17,1.16,0.37,1.72,0.6c0.59,0.01,1.22-0.02,1.78,0.19c1.02,0.39,1.66,0.97,2.09,1.69c0.45,0.24,0.91,0.5,1.35,0.75
		c0.18,0.03,0.32,0.06,0.39,0.07c0.77,0.18,1.5,0.48,2.17,0.91c0.49,0.32,0.86,0.66,1.15,1.02c1.16,0.64,2.32,1.28,3.48,1.93
		c0.11,0.04,0.22,0.09,0.33,0.15c0.07,0.04,0.15,0.1,0.22,0.15c1.1,0.59,2.19,1.18,3.31,1.74c0.53,0.27,0.72,0.72,0.67,1.16
		c1.37,0.32,2.39,1.18,3.5,2.19c2.03,1.83,4.18,3.34,6.5,4.8c2.54,1.6,4.93,3.29,6.94,5.4c0.48,0.33,0.92,0.73,1.31,1.22
		c0.13,0.18,0.34,0.56,0.53,0.97c0.27,0.37,0.53,0.75,0.78,1.16c0.16,0.26,0.21,0.51,0.21,0.74c0.61,0.31,1.37,0.48,2.02,0.79
		c0.13,0.09,0.28,0.17,0.43,0.24c0.04,0.02,0.09,0.06,0.13,0.09c0.8,0.61,1.41,1.42,1.79,2.34c1.16,0.03,1.82,0.61,2.45,1.7
		c0.7,1.22,1.22,2.37,1.94,3.42c0.04,0.06,0.07,0.1,0.11,0.15c0,0.01,0.01,0.01,0.01,0.01c0.43,0.61,0.94,1.19,1.6,1.73
		c1.2,0.97,2.33,1.79,3.26,3.08c0.91,1.27,1.33,2.7,2.09,4.05c0.07,0.13,0.12,0.28,0.17,0.43c1.41,1.01,2.53,2.15,3.42,3.48
		c1.57,1.58,2.35,4.06,3.34,6.08c1.05,2.13,3.34,3.39,4.72,5.35c1.21,1.71,1.63,3.85,2,5.89c0.02,0.1,0.02,0.2,0.02,0.3
		c0.03,0.02,0.07,0.05,0.1,0.08c0.77,0.69,1.34,1.45,1.79,2.38c0.38,0.76,0.51,1.61,0.62,2.46c0.3,0.31,0.59,0.63,0.88,0.98
		c0.81,1.01,0.64,1.99,0.67,3.17c-0.01,0.56,0.04,1.82,0.85,3.1c0.48,0.76,1.04,1.25,1.45,1.54c0.15,0.03,0.31,0.06,0.39,0.08
		c1.5,0.29,2.56,1.93,2.57,3.37c0.01,1.52,0.25,3.79-0.07,5.7c0.19,0.16,0.36,0.33,0.5,0.51c0.14,0.18,0.24,0.36,0.34,0.55
		c0.12,0.09,0.26,0.25,0.34,0.48c0.09,0.27,0.02,0.49,0,0.61c-0.1,0.77,1.52,1.19,2.31,2.66c0.21,0.39,0.42,0.77,0.37,1.26
		c-0.1,1-1.15,1.25-1.46,2.19c-0.16,0.48-0.17,1.24,0.61,2.45c0.12,0.07,0.29,0.19,0.46,0.37c0.32,0.33,0.3,0.6,0.66,1.06
		c0.51,0.69,0.87,1.25,1.21,2.05c0.85,2.04,0.67,4.22,0.67,4.22c-0.12,1.45-0.47,1.26-0.54,2.68c-0.03,0.57-0.08,1.76,0.43,3.07
		c0.23,0.61,0.12,0.87,1.3,2.22c2.3,2.62,1.67,5.32,0.65,8.41C145.51,152.11,145.67,154.49,145.09,156.83z"/>
	<path class="st3" d="M145.86,156.83h-2.45c0.04-1.86-0.23-3.53,0.43-5.31c0.8-2.18,3.05-6,2.05-8.45c-0.61-1.49-2.57-1.8-3.6-3
		c-0.16-0.19-0.3-0.4-0.4-0.64c-0.6-1.34-0.22-3,0.03-4.38c0.01-0.05,0.02-0.1,0.03-0.15c0.21-1.11,0.54-2.25,0.52-3.4
		c-0.02-1.42-0.59-2.26-1.38-3.08c-0.32-0.33-0.67-0.66-1.04-1.02c-0.75-0.73-1.29-1.36-1.15-2.49c0.11-0.94,0.63-1.58,1.06-2.15
		c0.63-0.84,1.05-1.55-0.34-2.89c-0.2-0.18-0.36-0.35-0.5-0.51c-0.54-0.57-0.84-1.03-1.25-1.69c-0.25-0.08-0.47-0.26-0.62-0.59
		c-0.18-0.4-0.35-0.81-0.5-1.22c-0.19-0.53-0.34-1.07-0.45-1.61c-0.14-0.72-0.21-1.45-0.18-2.21c0.02-0.46,0.15-0.95,0.28-1.43
		c0.13-0.51,0.26-1.02,0.25-1.48c-0.06-2.23-0.65-2-1.69-2.35c-0.18-0.05-0.37-0.13-0.58-0.24c-2.6-1.37-1.97-4.21-2.36-6.65
		c-0.13-0.84-0.39-1.63-0.94-2.29c-0.1-0.12-0.21-0.24-0.32-0.36c-0.95-1.06-1.97-1.83-2.6-3.2c-0.49-1.07-0.64-2.19-0.78-3.31
		c-0.12-0.97-0.21-1.93-0.5-2.87c-0.64-2.09-2.19-3.18-3.72-4.3c-1.23-0.91-2.45-1.83-3.18-3.31c-0.39-0.79-0.48-1.61-0.58-2.42
		c-0.1-1-0.2-1.97-0.85-2.88c-0.58-0.81-1.3-1.06-2.05-1.28c-0.71-0.22-1.43-0.42-2.09-1.05c-1.07-1.02-0.94-2.29-1.3-3.57
		c-0.01-0.02-0.01-0.04-0.02-0.05c-0.43-1.52-1.19-2.23-2.1-2.75c-0.92-0.53-2.03-0.85-3.16-1.6c-1.15-0.76-2.08-1.79-2.24-3.2
		c-0.06-0.51,0.11-1,0.1-1.51v-0.1c-0.06-2.22-0.83-2.16-2.55-2.81c-0.1-0.04-0.2-0.07-0.31-0.12c-1.37-0.54-2.84-1.05-3.9-2.11
		c-0.86-0.86-1.21-2.42-1.79-3.7c-0.47-1.04-1.1-1.88-2.28-2c-0.05-0.01-0.1-0.01-0.15-0.01c-0.7-0.03-1.09-0.54-1.16-1.08
		c-0.61-0.45-1.62-0.52-2.24-0.95c-0.74-0.52-1.13-1.31-1.72-1.97c-0.18-0.2-0.38-0.39-0.58-0.56c-0.39-0.33-0.81-0.61-1.24-0.86
		c-1.55-0.9-3.33-1.48-4.65-2.74c-0.27-0.26-0.51-0.54-0.73-0.83c-0.42-0.55-0.78-1.15-1.18-1.75c-1.11-1.68-2.32-2.15-4.24-2.59
		c-1.97-0.45-3.3-1.09-4.68-2.56c-1.56-1.64-2.61-2.22-4.65-2.86c-0.95-0.3-1.73-0.67-2.52-1.25c-1.54-1.14-2.47-2.4-4.45-2.82
		c-1.25-0.26-2.57-0.07-3.82-0.37c-0.94-0.23-1.73-0.62-2.47-1.22c-1.41-1.13-2.25-2.07-4.26-2.2c-1.11-0.07-1.86,0.12-2.91-0.46
		c-1.49-0.81-2.36-1.96-4.19-2.28c-0.41-0.07-0.66-0.29-0.79-0.57c-1.93-1.02-4.01,0.14-5.78-1.07c-0.4-0.27-0.57-0.78-0.94-1.04
		c-0.84-0.6-1.48-0.73-2.09-0.65c0,0-0.01,0-0.01,0c-0.17,0.02-0.34,0.06-0.5,0.1c-0.51,0.13-1.04,0.37-1.68,0.52
		c-1.3,0.31-2.66,0.43-3.89-0.2c-0.58-0.29-0.91-0.81-1.43-1.12c-1.59-0.95-2.8-0.92-4.53-0.48c-1.81,0.46-3.05-0.02-4.78-0.38
		c-2.31-0.48-4.75,0.62-6.96-0.41c-0.45-0.21-0.79-0.61-1.22-0.83c-0.97-0.49-1.76-0.32-2.96-0.11C3.57,13.81,1.88,13.7,0,13.66
		v-2.39c1.08,0.06,2.24,0.27,3.28,0.15c1.15-0.13,2.04-0.68,3.13-0.87c1.46-0.26,2.24,0.18,3.34,0.89c1.95,1.25,2.88,0.79,5.06,0.75
		c0.99-0.02,1.47,0.07,2.41,0.28c1.95,0.43,2.9,0.44,4.83-0.06c0.69-0.18,1.37-0.41,2.08-0.38c1.74,0.07,2.18,1.06,3.49,1.91
		c2.77,1.8,4.31-0.44,7.02-0.26c2.09,0.13,2.25,2,4.19,2.4c0.64,0.13,1.49-0.15,2.19-0.04c1.05,0.17,1.88,0.58,2.75,1.16
		c0.1,0.07,0.18,0.14,0.25,0.21c1.3,0.31,2.09,0.89,3.29,1.51c1.69,0.87,3.34,0.57,5.04,0.99c0.98,0.24,1.69,0.9,2.38,1.58
		c1.45,1.41,2.63,2.02,4.71,2.18c2.61,0.2,4.09,0.83,6.08,2.49c1.67,1.39,2.98,1.66,4.93,2.36c0.92,0.33,1.7,0.75,2.39,1.42
		c1.37,1.32,1.95,2.67,3.96,3.23c1.03,0.29,2.11,0.4,3.11,0.82c2.82,1.17,3.28,4.12,5.67,5.73c2.08,1.41,4.22,2.02,6.01,3.86
		c0.85,0.87,1.66,1.44,2.7,2.03c0.67,0.38,1.08,0.59,1.47,1.12c1.13,0.21,2.11,0.7,2.88,1.69c1.46,1.87,1.07,3.99,3.09,5.32
		c0.13,0.09,0.28,0.17,0.43,0.24c0.04,0.02,0.09,0.05,0.14,0.07c1.6,0.77,3.86,1.08,5.17,2.39c1.03,1.03,0.72,1.94,0.8,3.26
		c0.23,3.97,2.79,3.12,5.18,4.9c1.3,0.97,1.71,2.11,2.03,3.66c0.32,1.59,0.12,2.25,1.83,3.03c0.67,0.31,1.49,0.23,2.16,0.59
		c1.32,0.69,1.9,1.75,2.18,3.16c0.51,2.69,0.1,4.32,2.58,6.15c1.29,0.95,2.68,1.72,3.65,3.03c1.12,1.5,1.43,3.28,1.69,5.09
		c0.4,2.85,1.26,4.43,3.23,6.55c0.99,1.06,1.65,2.13,1.85,3.6c0.15,1.16-0.39,2.76,0.09,3.84c0.69,1.58,1.67,1.07,2.84,1.72
		c1.11,0.62,1.68,1.55,1.74,2.83c0.13,2.73-1.13,4.65-0.21,7.35c0.13,0.09,0.24,0.21,0.34,0.37c0.65,1.03,0.68,1.5,1.78,2.32
		c0.46,0.35,0.96,0.56,1.33,1.07c0.86,1.21,0.76,2.67,0.21,3.96c-0.44,1.04-1.49,1.49-0.99,2.74c0.24,0.62,1.58,1.35,2.02,1.99
		c0.97,1.41,1.19,3.04,1.08,4.72c-0.2,2.72-1.78,4.85,0.66,6.98c1.46,1.28,2.55,1.64,2.87,3.86c0.26,1.86-0.32,4.03-0.86,5.79
		c-0.31,1.04-0.83,1.94-1.2,2.95C145.67,153.78,145.9,155.03,145.86,156.83z"/>
	<path class="st3" d="M65.66,156.83h-2.4c0.09-1.12,0.21-2.33-0.01-3.29c-0.23-1.07-1.22-1.8-1.49-2.81
		c-0.25-0.95,0.16-2.17,0.43-3.06c0.55-1.78,1.09-2.61-0.34-3.94c-1.39-1.3-1.5-1.58-1.4-3.64c0.07-1.31,0.32-2.96-0.07-4.23
		c-0.47-1.5-1.64-1.8-2.79-2.56c-0.8-0.53-1.07-1.08-1.21-2c-0.26-1.76,0.23-2.69-1.35-4c-1.63-1.35-2.87-1.88-3.52-4.1
		c-0.31-1.03-0.25-2.02-0.4-3.07c-0.12-0.77-0.01-1.77-0.85-2.27c-0.26-0.16-0.75,0.07-1.05-0.05c-0.75-0.32-1.18-0.42-1.65-1.13
		c-0.16-0.24-0.23-0.81-0.37-1.27c-0.29-0.1-0.53-0.34-0.63-0.73c-0.01,0-0.02-0.01-0.04-0.01c-0.17,0.42-2.53-0.06-2.82-0.26
		c-0.64-0.42-1.03-1.17-1.25-1.88c-0.61-2.04-0.65-4.14-2.19-5.79c-1.45-1.55-3.08-0.99-4.81-1.59c-1.07-0.37-1.43-0.92-2.07-1.75
		c-0.85-1.1-1.27-2.5-3.07-2.73c-0.81-0.1-1.67,0.13-2.49,0.12c-3-0.04-5.27-1.59-7.56-3.36c-0.14-0.12-0.24-0.24-0.31-0.37
		c-0.02-0.01-0.04-0.02-0.05-0.04c-1.49-1.48-2.68-0.95-4.47-1.23c-1.29-0.21-2.12-0.9-3.57-0.87c-1.09,0.02-2.12,0.51-3.2,0.55
		c-1.46,0.06-2.03-0.46-3.16-1.2C3.83,93.17,1.97,93.83,0,93.98v-2.51c1.8-0.23,4.16-1.22,5.77-0.37c0.42,0.22,0.64,0.61,1,0.84
		c0.51,0.32,0.95,0.53,1.33,0.66c0.01,0,0.01,0,0.01,0c0.56,0.18,1.02,0.2,1.48,0.15c0,0,0.01,0.01,0.01,0
		c0.65-0.06,1.31-0.25,2.27-0.27c1.96-0.04,4.04,0.55,5.96,0.75c1.95,0.2,2.47,0.73,3.82,2.06c0.05,0.06,0.09,0.1,0.13,0.16
		c0.04,0.05,0.07,0.1,0.1,0.16c0.05,0.03,0.09,0.05,0.13,0.09c2.25,1.74,3.96,2.6,6.83,2.6h0.1c1.42-0.01,2.77-0.18,4.1,0.43
		c1.15,0.52,1.59,1.29,2.24,2.29c0.06,0.26,0.12,0.51,0.18,0.77c0.01,0.04,0.02,0.08,0.03,0.12c0.55,0.5,1.13,0.83,1.76,1.01
		c0.01,0.01,0.01,0.01,0.01,0.01c0.4,0.11,0.83,0.16,1.27,0.14c0.43,0.1,0.88,0.13,1.31,0.29c1.74,0.66,3.2,2.56,4.06,4.46
		c0.01,0.01,0.01,0.01,0.01,0.01c0.32,0.72,0.56,1.42,0.7,2.07c0.24,1.19,0.29,1.89,1.67,2.32c0.36,0.11,0.83-0.06,1.23,0.08
		c0.24,0.09,0.44,0.19,0.62,0.32c0.42,0.21,0.73,0.53,1.01,1.03c0.83,1.51,0.29,1.28,2.01,1.89c1.93,0.7,2.33,2.21,2.42,4.13
		c0.09,1.94,0.16,3.77,1.82,5.03c0.94,0.71,2.09,0.97,2.8,1.98c0.67,0.94,0.51,1.87,0.66,2.92c0.31,2.11,1.02,1.63,2.32,2.65
		c1.73,1.38,1.83,3.89,1.82,5.91c-0.01,1.63-0.54,2.76,0.82,3.62c0.8,0.51,1.35,0.59,1.76,1.56c0.38,0.89,0.17,1.73-0.07,2.62
		c-0.51,1.95-1.4,2.94-0.6,4.99C65.68,152.93,65.71,154.76,65.66,156.83z"/>
	<path class="st4" d="M15.28,38.68c0.2-0.1,0.4-0.24,0.58-0.4c0.18-0.14,0.34-0.3,0.46-0.49c0.36-0.47,0.62-1.07,0.6-1.68
		c-0.02-0.49-0.15-0.96-0.38-1.4c-0.14-0.26-0.33-0.46-0.54-0.63c-0.21-0.22-0.46-0.41-0.72-0.54c-0.46-0.27-0.97-0.4-1.5-0.41
		c-0.54,0-1.04,0.14-1.5,0.41c-0.91,0.53-1.47,1.52-1.47,2.57s0.57,2.04,1.47,2.57c0.46,0.27,0.97,0.4,1.5,0.41
		C14.32,39.08,14.82,38.95,15.28,38.68z"/>
	<path class="st4" d="M29.15,38.8c0.4-0.23,0.69-0.6,0.87-1.02c0.15-0.36,0.2-0.71,0.15-1.1c-0.07-0.5-0.27-0.83-0.59-1.22
		c-0.38-0.48-0.97-0.73-1.52-0.96c-0.55-0.24-1.06-0.38-1.67-0.22c-0.5,0.14-1.05,0.53-1.29,0.99c-0.58,1.09-0.23,2.28,0.78,2.96
		c0.2,0.14,0.41,0.29,0.62,0.41c0.49,0.3,1.02,0.4,1.58,0.46C28.41,39.13,28.87,38.97,29.15,38.8z"/>
	<path class="st4" d="M16.69,53.23c0-2.57-3.99-2.57-3.99,0C12.7,55.79,16.69,55.8,16.69,53.23z"/>
	<path class="st4" d="M31.87,62.09c0-2-3.11-2-3.11,0C28.76,64.09,31.87,64.09,31.87,62.09z"/>
	<path class="st4" d="M28.63,77.68c0-2.17-3.37-2.17-3.37,0C25.26,79.84,28.63,79.85,28.63,77.68z"/>
	<path class="st4" d="M33.3,81.04c0-2.66-4.14-2.66-4.14,0C29.16,83.7,33.3,83.7,33.3,81.04z"/>
	<path class="st4" d="M11.88,68.51c0-3.86-6-3.86-6,0C5.88,72.36,11.88,72.37,11.88,68.51z"/>
	<path class="st4" d="M44.64,66.37c0-3.46-5.38-3.46-5.38,0C39.26,69.83,44.64,69.83,44.64,66.37z"/>
	<path class="st4" d="M51.33,48.34c0-3.01-4.69-3.02-4.69,0C46.64,51.35,51.33,51.35,51.33,48.34z"/>
	<path class="st4" d="M64.29,49.87c0-3.92-6.1-3.92-6.1,0C58.19,53.78,64.29,53.79,64.29,49.87z"/>
	<path class="st4" d="M66.75,55.98c0-1.97-3.06-1.97-3.06,0C63.69,57.94,66.75,57.95,66.75,55.98z"/>
	<path class="st4" d="M74.99,62.09c0-1.86-1.72-2.6-3.12-2.25c-0.12-3.34-5.37-3.32-5.37,0.11c0,2.15,2.09,2.97,3.66,2.44
		C70.47,65.2,74.99,65.11,74.99,62.09z"/>
	<path class="st4" d="M8.41,48.95c0-2.93-4.57-2.94-4.57,0C3.84,51.88,8.41,51.89,8.41,48.95z"/>
	<path class="st4" d="M33.14,48.98c1.04-0.29,1.95-1.36,1.89-2.48c-0.02-0.3-0.06-0.6-0.11-0.9c-0.12-0.69-0.87-1.44-1.56-1.56
		c-0.3-0.05-0.6-0.09-0.9-0.11c-0.43-0.02-0.92,0.15-1.3,0.35c-0.49,0.26-0.84,0.73-1.05,1.23c-0.38,0.91-0.23,2.11,0.53,2.8
		C31.3,48.93,32.25,49.22,33.14,48.98z"/>
	<path class="st4" d="M47.32,33.06c0-3.36-5.24-3.37-5.24,0C42.08,36.42,47.32,36.43,47.32,33.06z"/>
	<path class="st4" d="M82.65,65.15c0-3.52-5.48-3.52-5.48,0C77.17,68.66,82.65,68.67,82.65,65.15z"/>
	<path class="st4" d="M74.21,80.43c0-2.5-3.9-2.51-3.9,0C70.31,82.93,74.21,82.94,74.21,80.43z"/>
	<path class="st4" d="M86.95,85.01c0-3.53-5.5-3.54-5.5,0C81.45,88.55,86.95,88.55,86.95,85.01z"/>
	<path class="st4" d="M100.73,81.04c0-1.97-3.06-1.97-3.06,0C97.67,83.01,100.73,83.01,100.73,81.04z"/>
	<path class="st4" d="M107.47,91.12c0-2.37-3.68-2.37-3.68,0C103.79,93.49,107.47,93.49,107.47,91.12z"/>
	<path class="st4" d="M108.99,100.6c0-3.92-6.1-3.92-6.1,0C102.89,104.52,108.99,104.52,108.99,100.6z"/>
	<path class="st4" d="M123.39,120.77v-0.61c0-0.8-0.7-1.57-1.53-1.53c-0.83,0.04-1.53,0.67-1.53,1.53v0.61c0,0.8,0.7,1.57,1.53,1.53
		C122.69,122.26,123.39,121.63,123.39,120.77z"/>
	<path class="st4" d="M115.12,140.64c0-1.97-3.06-1.97-3.06,0C112.06,142.6,115.12,142.61,115.12,140.64z"/>
	<path class="st4" d="M125.15,146.44c0-2.66-4.14-2.66-4.14,0C121.01,149.1,125.15,149.11,125.15,146.44z"/>
	<path class="st4" d="M133.91,151.03c0-4.07-6.34-4.08-6.34,0C127.57,155.1,133.91,155.11,133.91,151.03z"/>
	<path class="st4" d="M111.51,146.75c0-3.57-4.95-3.96-6.03-1.17c-0.39,0.09-0.68,0.45-0.7,0.88c-0.02,0.36-0.05,0.72,0.07,1.07
		c0.09,0.26,0.36,0.45,0.63,0.4C106.57,150.71,111.51,150.32,111.51,146.75z"/>
	<path class="st4" d="M98.99,145.22c0-3.27-5.1-3.28-5.1,0C93.9,148.49,98.99,148.5,98.99,145.22z"/>
	<path class="st4" d="M94.6,133.3c0-3.92-6.1-3.92-6.1,0C88.5,137.22,94.6,137.23,94.6,133.3z"/>
	<path class="st4" d="M120.35,126.58c0-2.78-4.33-2.79-4.33,0C116.02,129.36,120.35,129.36,120.35,126.58z"/>
	<path class="st4" d="M127.91,127.19c0-3.84-5.98-3.85-5.98,0C121.93,131.03,127.91,131.04,127.91,127.19z"/>
	<path class="st4" d="M119.85,99.38c0-4.1-6.39-4.11-6.39,0C113.46,103.48,119.85,103.49,119.85,99.38z"/>
	<path class="st4" d="M103.06,112.21c0-3.78-5.88-3.79-5.88,0C97.18,115.99,103.06,116,103.06,112.21z"/>
	<path class="st4" d="M96.24,115.58c0-2.49-3.88-2.49-3.88,0C92.37,118.06,96.24,118.07,96.24,115.58z"/>
	<path class="st4" d="M80.37,110.07c0-3.73-5.81-3.74-5.81,0C74.56,113.81,80.37,113.81,80.37,110.07z"/>
	<path class="st4" d="M76.57,96.63c0-3.96-6.17-3.97-6.17,0C70.4,100.59,76.57,100.6,76.57,96.63z"/>
	<path class="st4" d="M65.09,96.32c0-4.16-6.48-4.17-6.48,0C58.61,100.48,65.09,100.49,65.09,96.32z"/>
	<path class="st4" d="M46.3,90.51c0-2.84-4.43-2.85-4.43,0C41.88,93.36,46.3,93.36,46.3,90.51z"/>
	<path class="st4" d="M54.03,91.74c0-4.12-6.41-4.12-6.41,0C47.62,95.85,54.03,95.86,54.03,91.74z"/>
	<path class="st4" d="M71.08,114.66c0-3.99-6.22-4-6.22,0C64.86,118.65,71.08,118.66,71.08,114.66z"/>
	<path class="st4" d="M78.47,125.66c0-3.66-5.69-3.66-5.69,0C72.78,129.32,78.47,129.32,78.47,125.66z"/>
	<path class="st4" d="M85.88,136.36c0-3.73-5.81-3.74-5.81,0C80.07,140.09,85.88,140.1,85.88,136.36z"/>
	<path class="st4" d="M84.66,145.22c0-3.73-5.81-3.74-5.81,0C78.84,148.95,84.66,148.96,84.66,145.22z"/>
	<path class="st4" d="M89.85,151.94c0-3.72-5.79-3.72-5.79,0C84.06,155.66,89.85,155.67,89.85,151.94z"/>
	<path class="st4" d="M95.1,103.35c0-3.78-5.88-3.79-5.88,0C89.22,107.13,95.1,107.14,95.1,103.35z"/>
	<path class="st4" d="M94.17,65.45c0-3.36-5.24-3.37-5.24,0C88.93,68.82,94.17,68.82,94.17,65.45z"/>
	<path class="st4" d="M18.16,73.4c0-2.87-4.47-2.88-4.47,0C13.68,76.27,18.16,76.28,18.16,73.4z"/>
	<path class="st5" d="M115.01,130.55c0-3-4.66-3-4.66,0C110.34,133.55,115.01,133.55,115.01,130.55z"/>
	<path class="st5" d="M125.95,134.83c0-3.29-5.12-3.29-5.12,0C120.83,138.12,125.95,138.12,125.95,134.83z"/>
	<path class="st5" d="M123.46,142.08c0.59,0.34,1.55,0.07,1.55-0.83c0-0.89-0.96-1.17-1.55-0.83c-0.72-1.08-2.82-0.81-2.82,0.83
		C120.63,142.88,122.74,143.16,123.46,142.08z"/>
	<path class="st5" d="M99.81,140.03c0-1.97-3.06-1.97-3.06,0C96.75,141.99,99.81,142,99.81,140.03z"/>
	<path class="st5" d="M109.53,127.19c0-2.64-4.11-2.65-4.11,0C105.41,129.83,109.53,129.84,109.53,127.19z"/>
	<path class="st5" d="M120.02,114.96c0-1.97-3.06-1.97-3.06,0C116.96,116.93,120.02,116.93,120.02,114.96z"/>
	<path class="st5" d="M117.25,108.24c0-3.92-6.1-3.92-6.1,0C111.15,112.16,117.25,112.16,117.25,108.24z"/>
	<path class="st5" d="M100.06,106.1c0-3.86-6-3.86-6,0C94.06,109.96,100.06,109.96,100.06,106.1z"/>
	<path class="st5" d="M111.54,92.04c0-2.87-4.47-2.88-4.47,0C107.07,94.91,111.54,94.92,111.54,92.04z"/>
	<path class="st5" d="M104.12,81.34c0-2.78-4.33-2.79-4.33,0C99.79,84.13,104.12,84.13,104.12,81.34z"/>
	<path class="st5" d="M86.95,80.73c0-3.93-6.12-3.94-6.12,0C80.83,84.67,86.95,84.67,86.95,80.73z"/>
	<path class="st5" d="M79.53,76.76c0-3.44-5.36-3.45-5.36,0C74.17,80.2,79.53,80.21,79.53,76.76z"/>
	<path class="st5" d="M79.8,54.76c0-3-4.66-3-4.66,0C75.13,57.75,79.8,57.76,79.8,54.76z"/>
	<path class="st5" d="M68.43,51.39c0-2.95-4.59-2.95-4.59,0C63.84,54.34,68.43,54.35,68.43,51.39z"/>
	<path class="st5" d="M52.01,54.76c0-3.89-6.05-3.89-6.05,0C45.96,58.64,52.01,58.65,52.01,54.76z"/>
	<path class="st5" d="M44.42,70.95c0-3.96-6.17-3.97-6.17,0C38.25,74.92,44.42,74.92,44.42,70.95z"/>
	<path class="st5" d="M45.93,81.65c0-1.97-3.06-1.97-3.06,0C42.87,83.62,45.93,83.62,45.93,81.65z"/>
	<path class="st5" d="M33.07,80.12c0-1.97-3.06-1.97-3.06,0C30.01,82.09,33.07,82.09,33.07,80.12z"/>
	<path class="st5" d="M20.58,76.59c0.34-0.19,0.59-0.54,0.59-1.06c0-0.25-0.06-0.45-0.16-0.62c-0.01-4.17-6.51-4.17-6.51,0.01
		C14.51,78.45,19.12,79.01,20.58,76.59z"/>
	<path class="st5" d="M8.74,76.15c0-3.75-5.84-3.75-5.84,0C2.9,79.9,8.74,79.9,8.74,76.15z"/>
	<path class="st5" d="M9.68,61.78c0-3.78-5.88-3.79-5.88,0C3.79,65.56,9.68,65.57,9.68,61.78z"/>
	<path class="st5" d="M18.72,52c0-2.81-4.38-2.82-4.38,0C14.34,54.82,18.72,54.82,18.72,52z"/>
	<path class="st5" d="M20.7,39.84c-0.03-0.09-0.06-0.19-0.09-0.28c-0.27-0.81-1.03-1.5-1.93-1.46c-0.91,0.04-1.64,0.6-1.93,1.46
		c-0.03,0.09-0.06,0.19-0.09,0.28c-0.43,1.3,0.71,2.64,2.02,2.64C19.98,42.48,21.12,41.14,20.7,39.84z"/>
	<path class="st5" d="M18.64,33.36c0-3.1-4.83-3.11-4.83,0C13.81,36.46,18.64,36.47,18.64,33.36z"/>
	<path class="st5" d="M13.17,30.61c0-1.97-3.06-1.97-3.06,0C10.1,32.58,13.17,32.58,13.17,30.61z"/>
	<path class="st5" d="M18.26,28.17c0-2.61-4.07-2.62-4.07,0C14.19,30.78,18.26,30.78,18.26,28.17z"/>
	<path class="st5" d="M36.29,34.75c0.56-0.61,0.61-1.56,0-2.16c-0.1-0.1-0.2-0.2-0.31-0.31c-0.57-0.57-1.61-0.61-2.17,0
		c-0.28,0.3-0.43,0.68-0.44,1.06c-0.02-0.01-0.04-0.01-0.04,0.02c0,0.03,0.02,0.03,0.04,0.02c0,0.38,0.14,0.76,0.44,1.06l0.31,0.31
		C34.7,35.31,35.73,35.36,36.29,34.75z"/>
	<path class="st5" d="M31.86,51.39c0-4.35-6.77-4.36-6.77,0C25.09,55.74,31.86,55.75,31.86,51.39z"/>
	<path class="st5" d="M24.21,64.84c0-2.78-4.33-2.79-4.33,0C19.88,67.62,24.21,67.63,24.21,64.84z"/>
	<path class="st5" d="M59.09,70.34c0-3.53-5.5-3.54-5.5,0c0,0.09,0.02,0.17,0.03,0.25c-0.06-0.78-1.3-0.77-1.3,0.05
		c0,0.83,1.28,0.84,1.3,0.02C53.95,73.86,59.09,73.77,59.09,70.34z"/>
	<path class="st5" d="M67.8,81.65c0-4.44-6.81-4.5-7-0.18c-0.35,0.2-0.6,0.57-0.6,1.1c0,0.87,0.69,1.3,1.37,1.29
		C63.39,85.96,67.8,85.23,67.8,81.65z"/>
	<path class="st5" d="M69.75,114.05c0-4.26-6.63-4.26-6.63,0C63.13,118.3,69.75,118.31,69.75,114.05z"/>
	<path class="st5" d="M90.86,116.19c0-2.96-2.95-4.03-5.07-3.2c-1-3.12-6.4-2.77-6.4,1.06c0,2.58,2.46,3.58,4.36,3
		C84.59,120.79,90.86,120.51,90.86,116.19z"/>
	<path class="st5" d="M98.44,72.18c0-2.95-4.59-2.95-4.59,0C93.84,75.13,98.44,75.13,98.44,72.18z"/>
	<path class="st5" d="M120.4,148.28c0-4.03-6.27-4.03-6.27,0C114.13,152.3,120.4,152.31,120.4,148.28z"/>
	<path class="st5" d="M95.67,136.97c0-3.72-5.79-3.72-5.79,0C89.88,140.69,95.67,140.69,95.67,136.97z"/>
	<path class="st5" d="M111.31,120.77c0-1-1.56-1.01-1.56,0C109.75,121.78,111.31,121.78,111.31,120.77z"/>
	<path class="st5" d="M104.09,118.02c0-1.17-1.82-1.17-1.82,0C102.27,119.19,104.09,119.19,104.09,118.02z"/>
	<path class="st5" d="M95.25,124.13c0-0.04-0.06-0.04-0.06,0C95.19,124.17,95.25,124.17,95.25,124.13z"/>
	<path class="st5" d="M92.76,118.33c0-1.17-1.82-1.17-1.82,0C90.94,119.5,92.76,119.5,92.76,118.33z"/>
	<path class="st5" d="M105.93,97.54c0-1.17-1.82-1.17-1.82,0C104.11,98.71,105.93,98.72,105.93,97.54z"/>
	<path class="st5" d="M90.02,85.32c0-1.19-1.85-1.19-1.85,0C88.17,86.51,90.02,86.51,90.02,85.32z"/>
	<path class="st5" d="M73.17,91.74c0-1.17-1.82-1.17-1.82,0C71.35,92.91,73.17,92.91,73.17,91.74z"/>
	<path class="st5" d="M86.07,86.54c0-0.04-0.06-0.04-0.06,0C86.01,86.58,86.07,86.58,86.07,86.54z"/>
	<path class="st5" d="M94.33,91.43c0-0.04-0.06-0.04-0.06,0C94.27,91.47,94.33,91.47,94.33,91.43z"/>
	<path class="st5" d="M85.11,99.38c0-1.17-1.82-1.17-1.82,0C83.29,100.55,85.11,100.55,85.11,99.38z"/>
	<path class="st5" d="M78.11,92.96c0-0.04-0.06-0.04-0.06,0C78.04,93,78.11,93,78.11,92.96z"/>
	<path class="st5" d="M91.27,82.26c0-0.04-0.06-0.04-0.06,0C91.21,82.3,91.27,82.3,91.27,82.26z"/>
	<path class="st5" d="M87.6,67.9c0-0.04-0.06-0.04-0.06,0C87.54,67.94,87.6,67.94,87.6,67.9z"/>
	<path class="st5" d="M73.82,60.56c0-0.04-0.06-0.04-0.06,0C73.76,60.6,73.82,60.6,73.82,60.56z"/>
	<path class="st5" d="M58.2,62.4c0-0.04-0.06-0.04-0.06,0C58.14,62.44,58.2,62.44,58.2,62.4z"/>
	<path class="st5" d="M51.47,69.12c0-0.04-0.06-0.04-0.06,0C51.41,69.16,51.47,69.16,51.47,69.12z"/>
	<path class="st5" d="M71.37,61.17c0-0.04-0.06-0.04-0.06,0C71.31,61.21,71.37,61.21,71.37,61.17z"/>
	<path class="st5" d="M76.1,51.68l0.59-0.1c0.49-0.08,0.49-0.91,0-0.99l-0.59-0.1c-0.39-0.06-0.78,0.17-0.78,0.59
		C75.32,51.51,75.71,51.75,76.1,51.68z"/>
	<path class="st5" d="M77.19,49.25c0-0.04-0.06-0.04-0.06,0C77.13,49.29,77.19,49.29,77.19,49.25z"/>
	<path class="st5" d="M56.98,41.31c0-0.04-0.06-0.04-0.06,0C56.92,41.35,56.98,41.35,56.98,41.31z"/>
	<path class="st5" d="M46.26,43.45c0-0.04-0.06-0.04-0.06,0C46.2,43.49,46.26,43.49,46.26,43.45z"/>
	<path class="st5" d="M36.47,44.98c0-0.04-0.06-0.04-0.06,0C36.4,45.01,36.47,45.01,36.47,44.98z"/>
	<path class="st5" d="M30.65,33.36c0-0.04-0.06-0.04-0.06,0C30.59,33.4,30.65,33.4,30.65,33.36z"/>
	<path class="st5" d="M24.22,40.7c0-0.04-0.06-0.04-0.06,0C24.16,40.74,24.22,40.74,24.22,40.7z"/>
	<path class="st5" d="M18.1,55.06c0-0.04-0.06-0.04-0.06,0C18.03,55.1,18.1,55.1,18.1,55.06z"/>
	<path class="st5" d="M38.92,43.14c0-0.04-0.06-0.04-0.06,0C38.85,43.18,38.92,43.18,38.92,43.14z"/>
	<path class="st5" d="M47.49,44.36c0-0.04-0.06-0.04-0.06,0C47.43,44.4,47.49,44.4,47.49,44.36z"/>
	<path class="st5" d="M45.96,44.67c0-0.04-0.06-0.04-0.06,0C45.9,44.71,45.96,44.71,45.96,44.67z"/>
	<path class="st5" d="M33.67,64.23c0-1.17-1.82-1.17-1.82,0C31.85,65.4,33.67,65.4,33.67,64.23z"/>
	<path class="st5" d="M30.65,75.54c0-0.04-0.06-0.04-0.06,0C30.59,75.58,30.65,75.58,30.65,75.54z"/>
	<path class="st5" d="M35.21,84.48c0.1,0,0.1-0.16,0-0.16c-0.2,0-0.41-0.01-0.61-0.01c-0.12,0-0.12,0.19,0,0.19
		C34.8,84.49,35.01,84.48,35.21,84.48z"/>
	<path class="st5" d="M27.59,80.43c0-0.04-0.06-0.04-0.06,0C27.53,80.47,27.59,80.47,27.59,80.43z"/>
	<path class="st5" d="M19.93,66.06c0-0.04-0.06-0.04-0.06,0C19.87,66.1,19.93,66.1,19.93,66.06z"/>
	<path class="st5" d="M14.38,54.76c0-1.17-1.82-1.17-1.82,0C12.56,55.93,14.38,55.93,14.38,54.76z"/>
	<path class="st5" d="M11.97,49.25c0-0.04-0.06-0.04-0.06,0C11.91,49.29,11.97,49.29,11.97,49.25z"/>
	<path class="st5" d="M9.48,39.78c0-1.17-1.82-1.17-1.82,0C7.66,40.95,9.48,40.95,9.48,39.78z"/>
	<path class="st5" d="M3.4,34.28c0-0.04-0.06-0.04-0.06,0C3.34,34.32,3.4,34.32,3.4,34.28z"/>
	<path class="st5" d="M4.32,28.47c0-0.04-0.06-0.04-0.06,0C4.26,28.51,4.32,28.51,4.32,28.47z"/>
	<path class="st5" d="M11.32,28.17c0-1.17-1.82-1.17-1.82,0C9.5,29.34,11.32,29.34,11.32,28.17z"/>
	<path class="st5" d="M30.65,36.72c0-0.04-0.06-0.04-0.06,0C30.59,36.76,30.65,36.76,30.65,36.72z"/>
	<path class="st5" d="M37.99,35.22c0.03-0.03-0.02-0.07-0.04-0.04c-0.2,0.2-0.41,0.41-0.61,0.61c-0.03,0.03,0.02,0.07,0.04,0.04
		L37.99,35.22z"/>
	<path class="st5" d="M45.35,53.53c0-0.04-0.06-0.04-0.06,0C45.28,53.57,45.35,53.57,45.35,53.53z"/>
	<path class="st5" d="M71.27,93.26c0-0.7-1.09-0.7-1.09,0C70.18,93.96,71.27,93.97,71.27,93.26z"/>
	<path class="st5" d="M60.96,102.13c0-0.04-0.06-0.04-0.06,0C60.9,102.17,60.96,102.17,60.96,102.13z"/>
	<path class="st5" d="M62.18,101.82c0-0.04-0.06-0.04-0.06,0C62.12,101.86,62.18,101.86,62.18,101.82z"/>
	<path class="st5" d="M66.4,105.49c0-0.73-1.13-0.73-1.13,0C65.26,106.22,66.4,106.22,66.4,105.49z"/>
	<path class="st5" d="M82.51,95.87c0.28-0.14,0.56-0.29,0.85-0.43c0.33-0.17,0.45-0.61,0.31-0.93c-0.16-0.36-0.5-0.5-0.88-0.43
		c-0.32,0.06-0.64,0.11-0.96,0.17c-0.53,0.09-0.76,0.75-0.58,1.2C81.46,95.95,82.03,96.11,82.51,95.87z"/>
	<path class="st5" d="M90.66,89.6c0-0.04-0.06-0.04-0.06,0C90.6,89.64,90.66,89.64,90.66,89.6z"/>
	<path class="st5" d="M101.03,95.1c0-1.17-1.82-1.17-1.82,0C99.21,96.27,101.03,96.27,101.03,95.1z"/>
	<path class="st5" d="M89.43,87.76c0-0.04-0.06-0.04-0.06,0C89.37,87.8,89.43,87.8,89.43,87.76z"/>
	<path class="st5" d="M98.46,100.6c0-0.62-0.96-0.62-0.96,0C97.5,101.22,98.46,101.22,98.46,100.6z"/>
	<path class="st5" d="M103.19,123.22c0-1.59-2.47-1.59-2.47,0C100.72,124.8,103.19,124.8,103.19,123.22z"/>
	<path class="st5" d="M100.11,136.05c0-1.17-1.82-1.17-1.82,0C98.29,137.22,100.11,137.22,100.11,136.05z"/>
	<path class="st5" d="M108.11,145.22c0-0.04-0.06-0.04-0.06,0C108.05,145.26,108.11,145.26,108.11,145.22z"/>
	<path class="st5" d="M128.63,136.97c0-0.04-0.06-0.04-0.06,0C128.56,137.01,128.63,137.01,128.63,136.97z"/>
	<path class="st5" d="M130.16,133c0-0.04-0.06-0.04-0.06,0C130.1,133.04,130.16,133.04,130.16,133z"/>
	<path class="st4" d="M91.57,144c0-1.21-1.88-1.21-1.88,0C89.69,145.21,91.57,145.21,91.57,144z"/>
	<path class="st4" d="M101.35,141.55c0-1.58-2.45-1.58-2.45,0C98.89,143.13,101.35,143.13,101.35,141.55z"/>
	<path class="st4" d="M109.62,137.27c0-1.17-1.34-1.47-2.05-0.92c0.1-0.17,0.17-0.37,0.17-0.61c0-1.53-2.38-1.53-2.38,0
		c0,1.13,1.29,1.42,1.97,0.89c-0.11,0.17-0.18,0.38-0.18,0.64C107.15,138.86,109.62,138.86,109.62,137.27z"/>
	<path class="st4" d="M104.8,128.11c0-1.29-2.01-1.29-2.01,0C102.79,129.4,104.8,129.4,104.8,128.11z"/>
	<path class="st4" d="M90.66,120.77c0-0.04-0.06-0.04-0.06,0C90.6,120.81,90.66,120.81,90.66,120.77z"/>
	<path class="st4" d="M111.77,110.38c0-0.41-0.65-0.42-0.65,0C111.13,110.79,111.77,110.79,111.77,110.38z"/>
	<path class="st4" d="M106.87,78.93c0.04-0.02,0-0.07-0.03-0.05c-0.2,0.1-0.41,0.2-0.61,0.31c-0.04,0.02,0,0.07,0.03,0.05
		C106.46,79.13,106.67,79.03,106.87,78.93z"/>
	<path class="st4" d="M103.51,74.61c-0.2-0.31-0.41-0.61-0.61-0.92c-0.02-0.03-0.07,0-0.05,0.03c0.2,0.31,0.41,0.61,0.61,0.92
		C103.48,74.67,103.54,74.64,103.51,74.61z"/>
	<path class="st4" d="M93.11,61.48c0-0.04-0.06-0.04-0.06,0C93.05,61.52,93.11,61.52,93.11,61.48z"/>
	<path class="st4" d="M84.83,54.12l-1.84-0.92c-0.04-0.02-0.07,0.04-0.03,0.05l1.84,0.92C84.83,54.19,84.86,54.14,84.83,54.12z"/>
	<path class="st4" d="M103.83,72.48c0-0.04-0.06-0.04-0.06,0C103.76,72.52,103.83,72.52,103.83,72.48z"/>
	<path class="st4" d="M108.11,78.29c0-0.04-0.06-0.04-0.06,0C108.05,78.33,108.11,78.33,108.11,78.29z"/>
	<path class="st4" d="M111.28,84.4c0-0.96-1.49-0.96-1.49,0C109.78,85.36,111.28,85.36,111.28,84.4z"/>
	<path class="st4" d="M98.66,71.87c0-1.66-2.58-1.66-2.58,0C96.07,73.53,98.66,73.53,98.66,71.87z"/>
	<path class="st4" d="M99.1,67.37c0.09-0.62,0-1.15-0.53-1.56c-0.7-0.54-1.73-0.35-2.18,0.42c-0.42,0.71-0.14,1.59,0.53,2.03
		C97.66,68.74,98.96,68.31,99.1,67.37z"/>
	<path class="st4" d="M88.12,58.67c0.53-0.49,0.46-1.59-0.25-1.9c-0.48-0.21-0.92-0.23-1.35,0.09c-0.57,0.44-0.64,1.29-0.12,1.81
		C86.88,59.14,87.63,59.11,88.12,58.67z"/>
	<path class="st4" d="M78.69,52.31c0-1.58-2.45-1.58-2.45,0C76.24,53.89,78.69,53.89,78.69,52.31z"/>
	<path class="st4" d="M68.54,45.59c0-1.12-1.75-1.13-1.75,0C66.79,46.71,68.54,46.71,68.54,45.59z"/>
	<path class="st4" d="M56.24,37.33c0-0.75-0.66-1.47-1.44-1.43c-0.78,0.03-1.44,0.63-1.44,1.43c0,0.75,0.66,1.47,1.44,1.43
		C55.58,38.73,56.24,38.14,56.24,37.33z"/>
	<path class="st4" d="M51.43,36.92c0.45-0.22,0.83-0.58,0.83-1.12c0-0.85-0.96-1.4-1.7-0.97c-0.69,0.4-0.78,1.56,0,1.94
		C50.86,36.92,51.09,37.09,51.43,36.92z"/>
	<path class="st4" d="M45.62,40.39c0-1.96-3.06-1.97-3.06,0C42.56,42.35,45.62,42.36,45.62,40.39z"/>
	<path class="st4" d="M38.88,32.14c0-1.57-2.44-1.57-2.44,0C36.44,33.71,38.88,33.71,38.88,32.14z"/>
	<path class="st4" d="M30.26,27.55c0-1.51-2.35-1.51-2.35,0C27.91,29.07,30.26,29.07,30.26,27.55z"/>
	<path class="st4" d="M24.6,28.78c0-1.71-2.67-1.72-2.67,0C21.93,30.49,24.6,30.49,24.6,28.78z"/>
	<path class="st4" d="M18.63,26.64c0-1.12-1.75-1.13-1.75,0C16.88,27.76,18.63,27.76,18.63,26.64z"/>
	<path class="st4" d="M13.38,62.4c0-1.46-2.27-1.46-2.27,0C11.11,63.85,13.38,63.85,13.38,62.4z"/>
	<path class="st4" d="M15.58,75.23c0-1.53-2.38-1.53-2.38,0C13.2,76.76,15.58,76.77,15.58,75.23z"/>
	<path class="st4" d="M32.48,82.57c0-1.6-2.5-1.61-2.5,0C29.98,84.17,32.48,84.17,32.48,82.57z"/>
	<path class="st4" d="M39.23,89.9c0-1.62-2.53-1.63-2.53,0C36.7,91.52,39.23,91.53,39.23,89.9z"/>
	<path class="st4" d="M47.85,95.4c0-1.68-2.61-1.68-2.61,0C45.23,97.08,47.85,97.08,47.85,95.4z"/>
	<path class="st4" d="M55.18,79.21c0-2.06-3.2-2.06-3.2,0C51.98,81.26,55.18,81.26,55.18,79.21z"/>
	<path class="st4" d="M54.55,74.93c0-2.03-3.16-2.03-3.16,0C51.39,76.95,54.55,76.96,54.55,74.93z"/>
	<path class="st4" d="M50.17,60.38c0.48-0.2,0.81-0.63,0.88-1.15c0.08-0.6-0.2-1.14-0.71-1.47c-0.02-0.01-0.04-0.02-0.05-0.04
		c0.02,0.01-0.06-0.05-0.24-0.18c-0.11-0.06-0.21-0.1-0.32-0.13c-0.43-0.23-0.91-0.02-1.16,0.35c-0.22,0.25-0.29,0.58-0.4,0.89
		c-0.17,0.47,0.04,1.09,0.38,1.44C48.98,60.5,49.63,60.61,50.17,60.38z"/>
	<path class="st4" d="M38.13,54.14c0-0.88-0.78-1.73-1.69-1.69c-0.92,0.04-1.69,0.74-1.69,1.69c0,0.88,0.78,1.73,1.69,1.69
		C37.35,55.79,38.13,55.09,38.13,54.14z"/>
	<path class="st4" d="M43.18,46.2c0-1.98-3.09-1.99-3.09,0C40.1,48.18,43.18,48.18,43.18,46.2z"/>
	<path class="st4" d="M68.65,111.91c0-2.06-3.2-2.06-3.2,0C65.45,113.96,68.65,113.97,68.65,111.91z"/>
	<path class="st4" d="M70.64,129.02c0-1.85-2.88-1.86-2.88,0C67.75,130.88,70.64,130.88,70.64,129.02z"/>
	<path class="st4" d="M83.57,150.11c0-1.95-3.03-1.95-3.03,0C80.54,152.06,83.57,152.06,83.57,150.11z"/>
	<path class="st4" d="M103.77,153.47c0-1.94-3.01-1.94-3.01,0C100.76,155.41,103.77,155.41,103.77,153.47z"/>
	<path class="st4" d="M113.5,153.17c0-1.84-2.87-1.85-2.87,0C110.63,155.01,113.5,155.01,113.5,153.17z"/>
</g>
</svg>
