<?xml version="1.0" encoding="utf-8"?>
<!-- Generator: Adobe Illustrator 25.2.3, SVG Export Plug-In . SVG Version: 6.00 Build 0)  -->
<svg version="1.1" id="Layer_1" xmlns="http://www.w3.org/2000/svg" xmlns:xlink="http://www.w3.org/1999/xlink" x="0px" y="0px"
	 viewBox="0 0 156.83 156.83" style="enable-background:new 0 0 156.83 156.83;" xml:space="preserve">
<style type="text/css">
	.st0{fill:#D6AD29;}
	.st1{fill:#A5B508;}
	.st2{fill:#B79D1D;}
	.st3{fill:#557507;}
	.st4{fill:#C6A028;}
	.st5{fill:#E2BD23;}
</style>
<g>
	<path class="st0" d="M0,141.13v-73.2c19.1,0.16,36.97-9.5,49.04-24.03c0,0,0,0,0.01-0.01c1.76-2.11,3.39-4.33,4.88-6.64
		c0-0.01,0-0.01,0.01-0.01c0.39-0.59,0.76-1.19,1.12-1.79c1.28-2.11,2.45-4.29,3.48-6.52v-0.01c1.09-2.33,2.04-4.72,2.84-7.15
		c1.3-3.95,2.22-8.02,2.7-12.17c-0.01-0.01,0-0.01,0-0.01c0.06-0.5,0.12-0.98,0.15-1.48c0,0,0,0,0-0.01
		c0.21-2.26,0.29-4.54,0.23-6.83c-0.01-0.23-0.01-0.46-0.02-0.69c-0.01-0.01-0.01-0.01,0-0.02C64.44,0.37,64.44,0.18,64.43,0h78.2
		c-0.92,16.45-3.95,32.79-9.41,48.35c-4.16,11.89-9.69,23.37-16.45,34.02c-1.14,1.82-2.33,3.61-3.57,5.38
		c-0.14,0.22-0.29,0.43-0.45,0.66c-0.14,0.2-0.28,0.39-0.42,0.59c-1.11,1.56-2.27,3.07-3.48,4.54c-0.36,0.45-0.73,0.88-1.09,1.32
		c-0.66,0.77-1.33,1.53-2,2.28c-1.89,2.09-3.88,4.08-5.93,6c-0.92,0.87-1.86,1.71-2.81,2.55c-2.08,1.82-4.22,3.59-6.41,5.3
		c-0.91,0.71-1.83,1.41-2.75,2.1c-1.54,1.16-3.1,2.29-4.67,3.4c-1.38,0.98-2.76,1.94-4.16,2.89c-0.15,0.1-0.3,0.2-0.45,0.31
		c-1.74,1.18-3.5,2.33-5.29,3.45c-2.35,1.46-4.74,2.87-7.18,4.22c-2.14,1.18-4.32,2.31-6.52,3.39c-0.88,0.43-1.77,0.85-2.65,1.26
		c-2.27,1.05-4.57,2.03-6.89,2.95c-1.27,0.5-2.54,0.98-3.83,1.44c-2.89,1.02-5.8,1.94-8.75,2.72c-1.13,0.3-2.27,0.58-3.4,0.84
		c-1.88,0.43-3.77,0.81-5.67,1.13c-2.15,0.37-4.32,0.66-6.49,0.86c-1.72,0.17-3.44,0.28-5.17,0.34
		C11.19,142.49,5.58,142.13,0,141.13z"/>
	<path class="st1" d="M0,71.09V52.11c2.15-0.31,4.56,0.4,6.28,1.46c0.12,0.06,0.22,0.12,0.32,0.2c0.42,0.15,0.83,0.38,1.22,0.72
		c0.9,0.78,1.32,1.15,2.24,1.38c0.09-0.23,0.18-0.45,0.28-0.67c0.62-1.26,1.55-2.22,2.83-2.8c1.39-0.64,2.98-0.76,4.48-0.43
		c0.84,0.19,2.01,1.21,2.47,0.39c0.5-0.87,1.43-1.26,2.35-1.24c1.15-1.21,2.56-2.31,3.82-3.29c0.95-0.73,1.96-1.38,3.13-1.69
		c0.61-0.09,1.2-0.18,1.8-0.25c0.21,0.01,0.38,0.02,0.51,0.02c-0.04-0.09,1.46-1.56,1.85-1.77c1.16-0.63,2.26-0.57,3.48-0.86
		c2.51-0.6,4.2-3.42,5.01-5.85v-0.01c0.04-0.57,0.24-1.16,0.67-1.75c0.02-0.04-0.15-2.03-0.07-2.46c0.18-0.88,0.51-1.64,1.06-2.36
		c0.96-1.23,2.65-1.65,3.53-2.83c1.07-1.44,1.39-3.75,2.08-5.54c-0.34-1.03-0.32-2.17,0.25-3.13c0.95-1.6,2.08-3.01,3.53-4.18
		c0.94-0.76,2.77-1.35,2.75-2.78c-0.02-1.3-1.75-2.47-2.36-3.62c-0.83-1.54-1.04-3.25-1.02-4.97V3.77c-0.34-0.41-0.57-0.94-0.63-1.6
		c-0.03-0.36-0.06-0.72-0.09-1.07c-0.03-0.41-0.13-0.78-0.01-1.1h15.1c0.77,1.78,0.65,4.22,0.73,5.98c0.01,0.38-0.03,0.72-0.12,1.04
		c0.42,2.14,0.28,3.87-0.68,5.58c0.65,4.42-0.64,8.65-1.96,12.85c-1.17,3.69-2.51,7.65-5.09,10.61c-0.89,1.76-1.9,3.45-3.01,5.12
		c-1.78,2.68-3.61,5.78-6.92,6.61c-0.04,0.01-0.08,0.01-0.12,0.02c-2.21,2.72-4.52,5.37-7.21,7.63c-3.4,2.87-7.34,4.59-11.41,6.28
		c-0.77,0.32-1.47,0.34-2.07,0.16c-1.77,1.11-3.55,2.2-5.28,3.36c-2.64,1.78-5.26,3.25-8.11,4.21c-0.01,0.01-0.02,0.01-0.02,0.01
		c-1.57,0.54-3.22,0.92-4.97,1.13c-1.11,0.13-2.15-0.43-2.89-1.26c-1.36,0.56-2.71,1.14-4.1,1.58C2.27,71.36,1.03,71.38,0,71.09z"/>
	<path class="st2" d="M0,73.53v-9.46c2.48-0.43,5-0.94,7.45-1.02c1.49-0.05,2.51,0.51,3.91,0.7c1.93,0.27,1.54-0.67,2.81-1.47
		c2.06-1.29,4.66,0.06,6.88-0.77c1.47-0.55,2.19-2.12,3.36-3.1c0.92-0.77,1.96-1.33,3.01-1.89c0.57-0.3,1.12-0.22,1.54,0.05
		c1.44-1.68,3.44-3.09,5.39-3.91c1.19-0.5,2.63-0.43,3.75-0.95c1.29-0.59,1.98-2.16,2.92-3.23c0.88-1,1.5-1.6,2.06-2.82
		c0.35-0.77,0.94-1.34,1.63-1.82c2.9-2,6.18-1.42,7.4-5.45c0.84-2.78,2.72-4.06,4.08-6.52c1.52-2.76,0.78-6.21,2.35-9
		c0.87-1.54,2.35-2.68,2.94-4.39c0.56-1.62,0.49-3.6,0.64-5.3c0.12-1.44,0.18-2.91,0.45-4.33c0.39-2.07,1.82-4.18,1.49-6.36
		c-0.09-0.53,0.12-0.96,0.44-1.25c0.03-0.03,0.07-0.06,0.1-0.09c-0.05-0.2-0.09-0.4-0.13-0.61c-0.01-0.01-0.01-0.01,0-0.02
		c-0.04-0.18-0.07-0.37-0.1-0.56h9.03c0.04,0.09,0.06,0.19,0.06,0.29c0,0.04-0.01,0.09-0.01,0.12c0.42,1.15,0.56,2.39,0.12,3.59
		c-0.6,1.61-1.47,2.6-1.63,4.45c-0.08,0.89,0.04,1.76-0.17,2.63c-0.17,0.69-0.51,1.21-0.81,1.83c-0.93,1.98-0.65,2.96-0.81,4.94
		c-0.14,1.73-0.8,2.41-1.53,3.81c-0.93,1.78-0.37,3.94-1.5,5.67c-0.41,0.62-1.14,0.88-1.53,1.41c-0.78,1.08-0.58,2.25-0.95,3.44
		c-0.42,1.37-1.17,2.01-2.08,2.94c-0.5,0.5-0.3,0.12-0.65,0.73c-0.4,0.7-0.52,1.89-0.89,2.69c-0.11,0.24-0.27,0.4-0.45,0.51
		c-0.05,2.06-2.51,2.78-3.19,4.82c-0.31,0.94-0.16,1.64-1,2.36c-0.88,0.77-2.33,0.6-3.15,1.35c-1.75,1.6-1.03,4.19-3.52,5.36
		c-1.29,0.61-1.58-0.09-3.17,0.94c-0.53,0.34-0.9,0.92-1.41,1.3c-0.93,0.7-1.64,0.73-2.66,1.1c-1.34,0.49-1.82,1.76-2.95,2.53
		c-1.41,0.95-2.47,1.35-3.64,2.63c-0.73,0.79-1.42,1.5-2.45,1.87c-1.63,0.58-2.4,0.92-3.6,2.3c-0.84,0.94-1.67,1.66-2.92,2
		c-0.41,0.11-1.26,0.01-1.59,0.2c-0.77,0.45-0.43,0.73-0.97,1.29c-1.93,2.01-5.26,1.2-7.76,0.89c-0.43-0.05-0.75-0.25-0.97-0.52
		c-0.01,0.01-0.02,0.01-0.02,0.01c-0.4,0.18-0.76,0.39-1.09,0.66c-0.41,0.34-0.65,0.81-1.12,1.1c-1.32,0.83-3.06,0.4-4.52,0.81
		C5.68,72.93,3.07,73.64,0,73.53z"/>
	<path class="st1" d="M0,156.75v-17.57c0.5,0.01,1,0.05,1.54,0.13c0.97,0.15,1.69,0.66,2.51,1.15c0.06,0.04,0.11,0.08,0.17,0.12
		c0.78-0.4,1.74-0.51,2.85-0.14c5.48,1.84,10.98-0.45,16.39-1.49c1.39-0.26,2.66,0.19,3.59,0.99c4.61-1.26,9.11-2.76,13.92-3.19
		c0.27-0.02,0.54-0.04,0.82-0.06c0.25-0.12,0.5-0.24,0.75-0.37c0.01-0.01,0.03-0.02,0.04-0.02c2.27-1.24,4.59-2.38,6.98-3.41
		c0.58-0.25,1.15-0.35,1.69-0.33c0.27-0.44,0.67-0.83,1.24-1.09c5.97-2.84,11.4-6.73,16.81-10.49c0.68-0.47,1.4-0.58,2.07-0.43
		c1.8-1.16,3.65-2.24,5.53-3.24c1.4-1.34,2.7-2.77,3.86-3.86c2.94-2.76,5.92-5.46,9.19-7.83c0.1-0.65,0.44-1.3,1.12-1.87
		c2.96-2.55,5.8-5.23,8.48-8.06c0.59-0.77,1.19-1.52,1.8-2.27c0.62-0.77,1.25-1.51,1.9-2.25c0.83-0.94,1.67-1.87,2.55-2.77
		c3.2-4.18,6.07-8.63,9.87-12.3c0.49-0.47,1.06-0.77,1.64-0.92c1.2-2.93,2.53-5.79,4.08-8.56c0.1-0.19,0.22-0.36,0.34-0.51
		c2.62-5.08,5.1-10.23,7.5-15.43c0.23-0.5,0.54-0.88,0.9-1.16c1.42-6.19,4.38-12.05,5.91-18.22c0.84-3.39,1.8-6.85,2.63-10.33
		c0.03-0.21,0.08-0.42,0.15-0.62c0.22-0.94,0.43-1.88,0.62-2.83c0.56-5.1,1-10.21,0.86-15.31c-0.02-0.91,0.23-1.63,0.65-2.19h15.48
		c0.01,0.04,0.01,0.09,0.01,0.13c0.01,0.24,0.01,0.47,0.01,0.71c0.01,0.02,0.01,0.04,0.02,0.06c0.1,0.3,0.18,0.61,0.2,0.9
		c0.17,1.9,0.3,4.07-0.2,5.98c-0.08,0.31-0.18,0.61-0.29,0.91c-0.66,1.67-2.37,2.33-3.09,3.78c-0.84,1.67,0.2,5.05,0.45,6.74
		c0.31,2.15,0.74,4.32,0.9,6.48c0.16,2.04-0.1,4.18-1.34,5.87c-0.3,0.4-1.96,1.92-3.3,2.54c0.48,0.69,0.89,1.43,1.15,2.23
		c0.65,2.03,0.6,4.22-0.21,6.18c-0.26,0.66-0.64,1.25-1.1,1.73c0.02,2.4-0.53,4.76-1.4,7.06c-0.53,1.4-1.2,2.5-2.35,3.45
		c-0.99,0.83-3.11,1.52-3.64,2.79c-0.46,1.11,0,2.76-0.3,3.97c-0.31,1.26-0.92,2.45-1.86,3.36c-0.86,0.83-2.16,1.11-2.98,1.89
		c-0.95,0.89-0.76,2.34-0.83,3.64c-0.33,5.86,1.79,13.66-2.67,18.39c-2.37,2.52-5.18,2.61-8.35,3.2c-2.85,0.53-3.86,2.96-5.02,5.37
		c-0.39,0.81-0.93,1.35-1.53,1.66c-0.54,4.86-4.14,10.71-7.88,13.39c-2.17,1.55-5,1.38-6.88,3.44c-1.69,1.85-2.04,4.49-3.38,6.55
		c-3.4,5.26-9.27,3.88-14.05,6.62c-2.44,1.4-3.88,3.98-5.92,5.85c-2.24,2.06-4.72,3.21-7.73,3.48c-1.89,3.1-4.34,5.63-8.19,6.03
		c-0.89,0.1-2.37-0.2-3.17,0.14c-0.83,0.36-1.37,1.4-2,2c-1.58,1.51-3.52,2.47-5.66,2.9c-1.99,0.39-4.68-0.11-6.33,0.68
		c-2.17,1.04-3.84,3.03-6.14,4c-2.64,1.13-4.71,0.67-7.41,0.1c-2.37-0.5-4.46-0.39-6.77,0.36c-0.76,0.24-1.45,0.26-2.06,0.12
		c-3.44,3.01-10.52,1.62-14.59,1.69c-2.16,0.04-4.38,0.28-6.57,0.4c-1.14,0.07-2.28,0.1-3.4,0.04c-0.17-0.01-0.33-0.02-0.49-0.04
		C0.06,156.76,0.03,156.76,0,156.75z"/>
	<path class="st2" d="M0,145.09v-9.73c1-0.12,2.03-0.09,2.96-0.03c1.38,0.09,2.73,0.37,3.98,0.98c0.7,0.34,1.5,1.18,2.28,1.57
		c0.79-0.26,1.66-0.28,2.5,0.04c0.09-0.11,0.25-0.23,0.48-0.37c0.2-0.17,0.39-0.33,0.59-0.5c0.79-0.64,1.53-1.11,2.46-1.53
		c1.67-0.75,3.46-1.05,5.28-0.88c1.16,0.1,3.36,1.14,4.26,0.72c1.41-0.65,2.26-2.11,3.84-2.65c1.75-0.6,3.18-0.05,4.92-0.21
		c1.38-0.12,2.37-1.3,3.71-1.86c1.72-0.71,3.3-0.54,5.1-0.61c1.82-0.07,2.41-1.32,4.09-1.93c0.89-0.32,1.77-0.39,2.71-0.31
		c0.21,0.02,1.54,0.34,1.32,0.4c0.45-0.12,1.58-1.41,1.97-1.68c0.72-0.5,1.49-0.92,2.33-1.19c1.28-0.41,3.21-0.11,4.35-0.77
		c1.2-0.68,1.75-2.49,3-3.31c1.19-0.78,2.53-1.04,3.92-1.2c0.47-0.06,1.69,0.04,2.12-0.25c0.28-0.18,0.9-1.51,1.17-1.79
		c1.82-1.88,4.41-1.78,6.57-2.98c0.01-0.01,0.02-0.01,0.03-0.02c0.39-0.68,1.01-1.26,1.89-1.62c2.33-0.93,2.85-4.04,4.58-5.62
		c1.14-1.03,2.1-0.85,3.39-1.34c0.98-0.37,0.94-0.78,1.54-1.75c0.6-0.97,1.3-1.81,2.29-2.39c0.52-0.3,1.02-0.47,1.6-0.6
		c0.24-0.04,0.5-0.07,0.75-0.1c0.07-0.29,0.16-0.61,0.18-0.67c0.2-0.5,0.51-0.96,0.86-1.37c0.76-0.89,1.74-1.45,2.87-1.73
		c0.44-0.11,1.04-0.06,1.55-0.12c0.03-0.09,0.07-0.23,0.1-0.43c0.16-0.92,0.98-2.09,1.64-2.72c0.64-0.6,1.43-0.82,2.16-1.13
		c0.31-0.13,0.6-0.28,0.87-0.48c0.58-0.43,0.78-1.09,1.03-1.77c0.1-0.27,0.2-0.53,0.34-0.79c0.54-1.02,1.04-1.65,1.38-2.72
		c0.34-1.06,0.51-1.97,1.24-2.86c0.73-0.91,1.64-1.16,2.54-1.78c0.4-0.28,0.5-0.35,0.76-0.59c0.31-0.29,0.59-0.62,0.88-0.94
		c-0.18-0.99,0.09-2.05,1.08-2.92c0.51-0.45,1.05-0.97,1.71-1.22c0.22-1.04,1.05-2.9,1.17-3.07c0.42-0.62,1.8-2.31,2.7-2.28
		c-0.08-0.52-0.06-1.04,0.06-1.56c0.28-1.32,1.2-2.51,2.45-3.04c0.09-0.04,1.31-0.34,1.29-0.31c0.05-0.08-0.15-1.53-0.12-1.77
		c0.25-2.07,1.36-3.19,2.89-3.76c0.03-0.26,0.07-0.52,0.1-0.78c0.13-0.94,0.34-1.55,0.89-2.29c0,0,0.81-0.96,1.09-1.05
		c-0.07-0.55-0.34-1.3-0.37-1.65c-0.11-1.57,0.23-3.01,1.22-4.24c0.42-0.51,1.09-0.85,1.48-1.36c0.24-0.31,0.43-0.8,0.62-1.26
		c-0.18-0.59-0.18-1.28,0.07-2.04c0.4-1.23,0.97-1.97,1.77-2.96c0.25-0.24,0.51-0.48,0.76-0.72l-0.44,0.06
		c-0.02-0.53-0.32-1.12-0.42-1.66c-0.4-2.27-0.03-4.7,1.8-6.26c0.21-0.19,0.84-0.53,1.39-0.78c-0.01-0.14-0.01-0.29-0.04-0.47
		c-0.11-0.84-0.17-1.57-0.04-2.41c0.18-1.23,0.66-2.17,1.45-3.13c0.15-0.19,0.62-0.54,0.86-0.83c-0.23-0.01-0.55-1.02-0.57-1.08
		c-0.75-2.69,0.43-5.88,1.27-8.4c0.45-1.33,1.02-2.74,1.05-4.16c0.03-1.46-0.71-2.2-1.29-3.45c-0.6-1.29-0.79-2.62-0.45-4.01
		c0.04-0.16,0.23-0.93,0.37-1.24c-0.18-0.18-0.46-0.66-0.53-0.75c-0.94-1.41-1.36-3.05-0.89-4.59h9.77c0.06,0.3,0.09,0.58,0.12,0.86
		c0.17,1.33,0.24,2.65,0.26,3.96c0.17,1.27,0.04,2.65-0.06,3.58c-0.03,0.22-0.1,0.42-0.19,0.58c-0.04,0.27-0.09,0.53-0.16,0.81
		c-0.1,0.41-0.32,0.67-0.59,0.81c0.02,0.21,0.05,0.42,0.06,0.63c0.09,0.32,0.17,0.64,0.22,1c0.31,2.17-0.09,4.29-0.69,6.36
		c0.01,0.2,0.03,0.39,0.06,0.59c0.43,3.04,0.49,5.52-1.22,8.1c0.02,0.09,0.04,0.21,0.04,0.38c0.02,0.8-0.45,0.99-0.6,1.73
		c-0.15,0.77,0.27,1.03-0.04,1.63c-0.07,0.13-0.19,0.3-0.43,0.62c-0.17,0.23-0.33,0.45-0.51,0.66c-0.28,0.17-0.45,0.37-0.48,0.58
		c-0.03,0.16,0.01,0.32,0.1,0.5c0,0.01,0,0.01,0,0.01c0.04,0.07,0.1,0.15,0.16,0.23c-0.05,1.76,0.17,3.36-0.59,4.77
		c-0.15,0.28-0.86,0.59-1.14,1.37c-0.18,0.48-0.17,0.94-0.13,1.26c-0.2,0.47-0.49,1.24-0.71,2.23c-0.44,2-0.15,2.63-0.75,3.7
		c-0.1,0.17-0.29,0.37-0.51,0.58c0,0.02,0,0.03-0.01,0.05c-0.32,0.99-0.64,1.97-0.99,2.93c-0.19,0.78-0.51,1.54-0.92,2.25
		c-0.72,1.58-1.61,3.08-2.79,4.46c-0.01,0-0.01,0-0.01,0.01c0.09,0.91,0.09,1.73-0.24,2.61c-0.21,0.56-0.72,1-1.11,1.44
		c-0.17,0.58-0.37,1.16-0.6,1.72c-0.01,0.59,0.02,1.22-0.19,1.78c-0.39,1.02-0.97,1.66-1.69,2.09c-0.24,0.45-0.5,0.91-0.75,1.35
		c-0.03,0.18-0.06,0.32-0.07,0.39c-0.18,0.77-0.48,1.5-0.91,2.17c-0.32,0.49-0.66,0.86-1.02,1.15c-0.64,1.16-1.28,2.32-1.93,3.48
		c-0.04,0.11-0.09,0.22-0.15,0.33c-0.04,0.07-0.1,0.15-0.15,0.22c-0.59,1.1-1.18,2.19-1.74,3.31c-0.27,0.53-0.72,0.72-1.16,0.67
		c-0.32,1.37-1.18,2.39-2.19,3.5c-1.83,2.03-3.34,4.18-4.8,6.5c-1.6,2.54-3.29,4.93-5.4,6.94c-0.33,0.48-0.73,0.92-1.22,1.31
		c-0.18,0.13-0.56,0.34-0.97,0.53c-0.37,0.27-0.75,0.53-1.16,0.78c-0.26,0.16-0.51,0.21-0.74,0.21c-0.31,0.61-0.48,1.37-0.79,2.02
		c-0.09,0.13-0.17,0.28-0.24,0.43c-0.02,0.04-0.06,0.09-0.09,0.13c-0.61,0.8-1.42,1.41-2.34,1.79c-0.03,1.16-0.61,1.82-1.7,2.45
		c-1.22,0.7-2.37,1.22-3.42,1.94c-0.06,0.04-0.1,0.07-0.15,0.11c-0.01,0-0.01,0.01-0.01,0.01c-0.61,0.43-1.19,0.94-1.73,1.6
		c-0.97,1.2-1.79,2.33-3.08,3.26c-1.27,0.91-2.7,1.33-4.05,2.09c-0.13,0.07-0.28,0.12-0.43,0.17c-1.01,1.41-2.15,2.53-3.48,3.42
		c-1.58,1.57-4.06,2.35-6.08,3.34c-2.13,1.05-3.39,3.34-5.35,4.72c-1.71,1.21-3.85,1.63-5.89,2c-0.1,0.02-0.2,0.02-0.3,0.02
		c-0.02,0.03-0.05,0.07-0.08,0.1c-0.69,0.77-1.45,1.34-2.38,1.79c-0.76,0.38-1.61,0.51-2.46,0.62c-0.31,0.3-0.63,0.59-0.98,0.88
		c-1.01,0.81-1.99,0.64-3.17,0.67c-0.56-0.01-1.82,0.04-3.1,0.85c-0.76,0.48-1.25,1.04-1.54,1.45c-0.03,0.15-0.06,0.31-0.08,0.39
		c-0.29,1.5-1.93,2.56-3.37,2.57c-1.52,0.01-3.79,0.25-5.7-0.07c-0.16,0.19-0.33,0.36-0.51,0.5c-0.18,0.14-0.36,0.24-0.55,0.34
		c-0.09,0.12-0.25,0.26-0.48,0.34c-0.27,0.09-0.49,0.02-0.61,0c-0.77-0.1-1.19,1.52-2.66,2.31c-0.39,0.21-0.77,0.42-1.26,0.37
		c-1-0.1-1.25-1.15-2.19-1.46c-0.48-0.16-1.24-0.17-2.45,0.61c-0.07,0.12-0.19,0.29-0.37,0.46c-0.33,0.32-0.6,0.3-1.06,0.66
		c-0.69,0.51-1.25,0.87-2.05,1.21c-2.04,0.85-4.22,0.67-4.22,0.67c-1.45-0.12-1.26-0.47-2.68-0.54c-0.57-0.03-1.76-0.08-3.07,0.43
		c-0.61,0.23-0.87,0.12-2.22,1.3c-2.62,2.3-5.32,1.67-8.41,0.65C4.72,145.51,2.35,145.67,0,145.09z"/>
	<path class="st3" d="M0,145.86v-2.45c1.86,0.04,3.53-0.23,5.31,0.43c2.18,0.8,6,3.05,8.45,2.05c1.49-0.61,1.8-2.57,3-3.6
		c0.19-0.16,0.4-0.3,0.64-0.4c1.34-0.6,3-0.22,4.38,0.03c0.05,0.01,0.1,0.02,0.15,0.03c1.11,0.21,2.25,0.54,3.4,0.52
		c1.42-0.02,2.26-0.59,3.08-1.38c0.33-0.32,0.66-0.67,1.02-1.04c0.73-0.75,1.36-1.29,2.49-1.15c0.94,0.11,1.58,0.63,2.15,1.06
		c0.84,0.63,1.55,1.05,2.89-0.34c0.18-0.2,0.35-0.36,0.51-0.5c0.57-0.54,1.03-0.84,1.69-1.25c0.08-0.25,0.26-0.47,0.59-0.62
		c0.4-0.18,0.81-0.35,1.22-0.5c0.53-0.19,1.07-0.34,1.61-0.45c0.72-0.14,1.45-0.21,2.21-0.18c0.46,0.02,0.95,0.15,1.43,0.28
		c0.51,0.13,1.02,0.26,1.48,0.25c2.23-0.06,2-0.65,2.35-1.69c0.05-0.18,0.13-0.37,0.24-0.58c1.37-2.6,4.21-1.97,6.65-2.36
		c0.84-0.13,1.63-0.39,2.29-0.94c0.12-0.1,0.24-0.21,0.36-0.32c1.06-0.95,1.83-1.97,3.2-2.6c1.07-0.49,2.19-0.64,3.31-0.78
		c0.97-0.12,1.93-0.21,2.87-0.5c2.09-0.64,3.18-2.19,4.3-3.72c0.91-1.23,1.83-2.45,3.31-3.18c0.79-0.39,1.61-0.48,2.42-0.58
		c1-0.1,1.97-0.2,2.88-0.85c0.81-0.58,1.06-1.3,1.28-2.05c0.22-0.71,0.42-1.43,1.05-2.09c1.02-1.07,2.29-0.94,3.57-1.3
		c0.02-0.01,0.04-0.01,0.05-0.02c1.52-0.43,2.23-1.19,2.75-2.1c0.53-0.92,0.85-2.03,1.6-3.16c0.76-1.15,1.79-2.08,3.2-2.24
		c0.51-0.06,1,0.11,1.51,0.1h0.1c2.22-0.06,2.16-0.83,2.81-2.55c0.04-0.1,0.07-0.2,0.12-0.31c0.54-1.37,1.05-2.84,2.11-3.9
		c0.86-0.86,2.42-1.21,3.7-1.79c1.04-0.47,1.88-1.1,2-2.28c0.01-0.05,0.01-0.1,0.01-0.15c0.03-0.7,0.54-1.09,1.08-1.16
		c0.45-0.61,0.52-1.62,0.95-2.24c0.52-0.74,1.31-1.13,1.97-1.72c0.2-0.18,0.39-0.38,0.56-0.58c0.33-0.39,0.61-0.81,0.86-1.24
		c0.9-1.55,1.48-3.33,2.74-4.65c0.26-0.27,0.54-0.51,0.83-0.73c0.55-0.42,1.15-0.78,1.75-1.18c1.68-1.11,2.15-2.32,2.59-4.24
		c0.45-1.97,1.09-3.3,2.56-4.68c1.64-1.56,2.22-2.61,2.86-4.65c0.3-0.95,0.67-1.73,1.25-2.52c1.14-1.54,2.4-2.47,2.82-4.45
		c0.26-1.25,0.07-2.57,0.37-3.82c0.23-0.94,0.62-1.73,1.22-2.47c1.13-1.41,2.07-2.25,2.2-4.26c0.07-1.11-0.12-1.86,0.46-2.91
		c0.81-1.49,1.96-2.36,2.28-4.19c0.07-0.41,0.29-0.66,0.57-0.79c1.02-1.93-0.14-4.01,1.07-5.78c0.27-0.4,0.78-0.57,1.04-0.94
		c0.6-0.84,0.73-1.48,0.65-2.09c0,0,0-0.01,0-0.01c-0.02-0.17-0.06-0.34-0.1-0.5c-0.13-0.51-0.37-1.04-0.52-1.68
		c-0.31-1.3-0.43-2.66,0.2-3.89c0.29-0.58,0.81-0.91,1.12-1.43c0.95-1.59,0.92-2.8,0.48-4.53c-0.46-1.81,0.02-3.05,0.38-4.78
		c0.48-2.31-0.62-4.75,0.41-6.96c0.21-0.45,0.61-0.79,0.83-1.22c0.49-0.97,0.32-1.76,0.11-2.96c-0.32-1.85-0.21-3.54-0.17-5.42h2.39
		c-0.06,1.08-0.27,2.24-0.15,3.28c0.13,1.15,0.68,2.04,0.87,3.13c0.26,1.46-0.18,2.24-0.89,3.34c-1.25,1.95-0.79,2.88-0.75,5.06
		c0.02,0.99-0.07,1.47-0.28,2.41c-0.43,1.95-0.44,2.9,0.06,4.83c0.18,0.69,0.41,1.37,0.38,2.08c-0.07,1.74-1.06,2.18-1.91,3.49
		c-1.8,2.77,0.44,4.31,0.26,7.02c-0.13,2.09-2,2.25-2.4,4.19c-0.13,0.64,0.15,1.49,0.04,2.19c-0.17,1.05-0.58,1.88-1.16,2.75
		c-0.07,0.1-0.14,0.18-0.21,0.25c-0.31,1.3-0.89,2.09-1.51,3.29c-0.87,1.69-0.57,3.34-0.99,5.04c-0.24,0.98-0.9,1.69-1.58,2.38
		c-1.41,1.45-2.02,2.63-2.18,4.71c-0.2,2.61-0.83,4.09-2.49,6.08c-1.39,1.67-1.66,2.98-2.36,4.93c-0.33,0.92-0.75,1.7-1.42,2.39
		c-1.32,1.37-2.67,1.95-3.23,3.96c-0.29,1.03-0.4,2.11-0.82,3.11c-1.17,2.82-4.12,3.28-5.73,5.67c-1.41,2.08-2.02,4.22-3.86,6.01
		c-0.87,0.85-1.44,1.66-2.03,2.7c-0.38,0.67-0.59,1.08-1.12,1.47c-0.21,1.13-0.7,2.11-1.69,2.88c-1.87,1.46-3.99,1.07-5.32,3.09
		c-0.09,0.13-0.17,0.28-0.24,0.43c-0.02,0.04-0.05,0.09-0.07,0.14c-0.77,1.6-1.08,3.86-2.39,5.17c-1.03,1.03-1.94,0.72-3.26,0.8
		c-3.97,0.23-3.12,2.79-4.9,5.18c-0.97,1.3-2.11,1.71-3.66,2.03c-1.59,0.32-2.25,0.12-3.03,1.83c-0.31,0.67-0.23,1.49-0.59,2.16
		c-0.69,1.32-1.75,1.9-3.16,2.18c-2.69,0.51-4.32,0.1-6.15,2.58c-0.95,1.29-1.72,2.68-3.03,3.65c-1.5,1.12-3.28,1.43-5.09,1.69
		c-2.85,0.4-4.43,1.26-6.55,3.23c-1.06,0.99-2.13,1.65-3.6,1.85c-1.16,0.15-2.76-0.39-3.84,0.09c-1.58,0.69-1.07,1.67-1.72,2.84
		c-0.62,1.11-1.55,1.68-2.83,1.74c-2.73,0.13-4.65-1.13-7.35-0.21c-0.09,0.13-0.21,0.24-0.37,0.34c-1.03,0.65-1.5,0.68-2.32,1.78
		c-0.35,0.46-0.56,0.96-1.07,1.33c-1.21,0.86-2.67,0.76-3.96,0.21c-1.04-0.44-1.49-1.49-2.74-0.99c-0.62,0.24-1.35,1.58-1.99,2.02
		c-1.41,0.97-3.04,1.19-4.72,1.08c-2.72-0.2-4.85-1.78-6.98,0.66c-1.28,1.46-1.64,2.55-3.86,2.87c-1.86,0.26-4.03-0.32-5.79-0.86
		c-1.04-0.31-1.94-0.83-2.95-1.2C3.05,145.67,1.8,145.9,0,145.86z"/>
	<path class="st3" d="M0,65.66v-2.4c1.12,0.09,2.33,0.21,3.29-0.01c1.07-0.23,1.8-1.22,2.81-1.49c0.95-0.25,2.17,0.16,3.06,0.43
		c1.78,0.55,2.61,1.09,3.94-0.34c1.3-1.39,1.58-1.5,3.64-1.4c1.31,0.07,2.96,0.32,4.23-0.07c1.5-0.47,1.8-1.64,2.56-2.79
		c0.53-0.8,1.08-1.07,2-1.21c1.76-0.26,2.69,0.23,4-1.35c1.35-1.63,1.88-2.87,4.1-3.52c1.03-0.31,2.02-0.25,3.07-0.4
		c0.77-0.12,1.77-0.01,2.27-0.85c0.16-0.26-0.07-0.75,0.05-1.05c0.32-0.75,0.42-1.18,1.13-1.65c0.24-0.16,0.81-0.23,1.27-0.37
		c0.1-0.29,0.34-0.53,0.73-0.63c0-0.01,0.01-0.02,0.01-0.04c-0.42-0.17,0.06-2.53,0.26-2.82c0.42-0.64,1.17-1.03,1.88-1.25
		c2.04-0.61,4.14-0.65,5.79-2.19c1.55-1.45,0.99-3.08,1.59-4.81c0.37-1.07,0.92-1.43,1.75-2.07c1.1-0.85,2.5-1.27,2.73-3.07
		c0.1-0.81-0.13-1.67-0.12-2.49c0.04-3,1.59-5.27,3.36-7.56c0.12-0.14,0.24-0.24,0.37-0.31c0.01-0.02,0.02-0.04,0.04-0.05
		c1.48-1.49,0.95-2.68,1.23-4.47c0.21-1.29,0.9-2.12,0.87-3.57c-0.02-1.09-0.51-2.12-0.55-3.2c-0.06-1.46,0.46-2.03,1.2-3.16
		c1.09-1.67,0.44-3.54,0.29-5.51h2.51c0.23,1.8,1.22,4.16,0.37,5.77c-0.22,0.42-0.61,0.64-0.84,1c-0.32,0.51-0.53,0.95-0.66,1.33
		c0,0.01,0,0.01,0,0.01c-0.18,0.56-0.2,1.02-0.15,1.48c0,0-0.01,0.01,0,0.01c0.06,0.65,0.25,1.31,0.27,2.27
		c0.04,1.96-0.55,4.04-0.75,5.96c-0.2,1.95-0.73,2.47-2.06,3.82c-0.06,0.05-0.1,0.09-0.16,0.13c-0.05,0.04-0.1,0.07-0.16,0.1
		c-0.03,0.05-0.05,0.09-0.09,0.13c-1.74,2.25-2.6,3.96-2.6,6.83v0.1c0.01,1.42,0.18,2.77-0.43,4.1c-0.52,1.15-1.29,1.59-2.29,2.24
		c-0.26,0.06-0.51,0.12-0.77,0.18c-0.04,0.01-0.08,0.02-0.12,0.03c-0.5,0.55-0.83,1.13-1.01,1.76c-0.01,0.01-0.01,0.01-0.01,0.01
		c-0.11,0.4-0.16,0.83-0.14,1.27c-0.1,0.43-0.13,0.88-0.29,1.31c-0.66,1.74-2.56,3.2-4.46,4.06c-0.01,0.01-0.01,0.01-0.01,0.01
		c-0.72,0.32-1.42,0.56-2.07,0.7c-1.19,0.24-1.89,0.29-2.32,1.67c-0.11,0.36,0.06,0.83-0.08,1.23c-0.09,0.24-0.19,0.44-0.32,0.62
		c-0.21,0.42-0.53,0.73-1.03,1.01c-1.51,0.83-1.28,0.29-1.89,2.01c-0.7,1.93-2.21,2.33-4.13,2.42c-1.94,0.09-3.77,0.16-5.03,1.82
		c-0.71,0.94-0.97,2.09-1.98,2.8c-0.94,0.67-1.87,0.51-2.92,0.66c-2.11,0.31-1.63,1.02-2.65,2.32c-1.38,1.73-3.89,1.83-5.91,1.82
		c-1.63-0.01-2.76-0.54-3.62,0.82c-0.51,0.8-0.59,1.35-1.56,1.76c-0.89,0.38-1.73,0.17-2.62-0.07c-1.95-0.51-2.94-1.4-4.99-0.6
		C3.9,65.68,2.07,65.71,0,65.66z"/>
	<path class="st4" d="M118.16,15.28c0.1,0.2,0.24,0.4,0.4,0.58c0.14,0.18,0.3,0.34,0.49,0.46c0.47,0.36,1.07,0.62,1.68,0.6
		c0.49-0.02,0.96-0.15,1.4-0.38c0.26-0.14,0.46-0.33,0.63-0.54c0.22-0.21,0.41-0.46,0.54-0.72c0.27-0.46,0.4-0.97,0.41-1.5
		c0-0.54-0.14-1.04-0.41-1.5c-0.53-0.91-1.52-1.47-2.57-1.47s-2.04,0.57-2.57,1.47c-0.27,0.46-0.4,0.97-0.41,1.5
		C117.75,14.32,117.89,14.82,118.16,15.28z"/>
	<path class="st4" d="M118.03,29.15c0.23,0.4,0.6,0.69,1.02,0.87c0.36,0.15,0.71,0.2,1.1,0.15c0.5-0.07,0.83-0.27,1.22-0.59
		c0.48-0.38,0.73-0.97,0.96-1.52c0.24-0.55,0.38-1.06,0.22-1.67c-0.14-0.5-0.53-1.05-0.99-1.29c-1.09-0.58-2.28-0.23-2.96,0.78
		c-0.14,0.2-0.29,0.41-0.41,0.62c-0.3,0.49-0.4,1.02-0.46,1.58C117.71,28.41,117.87,28.87,118.03,29.15z"/>
	<path class="st4" d="M103.61,16.69c2.57,0,2.57-3.99,0-3.99C101.04,12.7,101.04,16.69,103.61,16.69z"/>
	<path class="st4" d="M94.74,31.87c2,0,2-3.11,0-3.11C92.75,28.76,92.74,31.87,94.74,31.87z"/>
	<path class="st4" d="M79.16,28.63c2.17,0,2.17-3.37,0-3.37C76.99,25.26,76.99,28.63,79.16,28.63z"/>
	<path class="st4" d="M75.8,33.3c2.66,0,2.66-4.14,0-4.14C73.14,29.16,73.13,33.3,75.8,33.3z"/>
	<path class="st4" d="M88.33,11.88c3.86,0,3.86-6,0-6C84.47,5.88,84.46,11.88,88.33,11.88z"/>
	<path class="st4" d="M90.47,44.64c3.46,0,3.46-5.38,0-5.38C87.01,39.26,87,44.64,90.47,44.64z"/>
	<path class="st4" d="M108.5,51.33c3.01,0,3.02-4.69,0-4.69C105.49,46.64,105.48,51.33,108.5,51.33z"/>
	<path class="st4" d="M106.97,64.29c3.92,0,3.92-6.1,0-6.1C103.05,58.19,103.05,64.29,106.97,64.29z"/>
	<path class="st4" d="M100.86,66.75c1.97,0,1.97-3.06,0-3.06C98.89,63.69,98.89,66.75,100.86,66.75z"/>
	<path class="st4" d="M94.74,74.99c1.86,0,2.6-1.72,2.25-3.12c3.34-0.12,3.32-5.37-0.11-5.37c-2.15,0-2.97,2.09-2.44,3.66
		C91.64,70.47,91.73,74.99,94.74,74.99z"/>
	<path class="st4" d="M107.89,8.41c2.93,0,2.94-4.57,0-4.57C104.95,3.84,104.95,8.41,107.89,8.41z"/>
	<path class="st4" d="M107.86,33.14c0.29,1.04,1.36,1.95,2.48,1.89c0.3-0.02,0.6-0.06,0.9-0.11c0.69-0.12,1.44-0.87,1.56-1.56
		c0.05-0.3,0.09-0.6,0.11-0.9c0.02-0.43-0.15-0.92-0.35-1.3c-0.26-0.49-0.73-0.84-1.23-1.05c-0.91-0.38-2.11-0.23-2.8,0.53
		C107.9,31.3,107.61,32.25,107.86,33.14z"/>
	<path class="st4" d="M123.78,47.32c3.36,0,3.37-5.24,0-5.24C120.41,42.08,120.41,47.32,123.78,47.32z"/>
	<path class="st4" d="M91.69,82.65c3.52,0,3.52-5.48,0-5.48C88.17,77.17,88.16,82.65,91.69,82.65z"/>
	<path class="st4" d="M76.41,74.21c2.5,0,2.51-3.9,0-3.9C73.9,70.31,73.9,74.21,76.41,74.21z"/>
	<path class="st4" d="M71.82,86.95c3.53,0,3.54-5.5,0-5.5C68.29,81.45,68.28,86.95,71.82,86.95z"/>
	<path class="st4" d="M75.8,100.73c1.97,0,1.97-3.06,0-3.06C73.83,97.67,73.83,100.73,75.8,100.73z"/>
	<path class="st4" d="M65.71,107.47c2.37,0,2.37-3.68,0-3.68C63.34,103.79,63.34,107.47,65.71,107.47z"/>
	<path class="st4" d="M56.24,108.99c3.92,0,3.92-6.1,0-6.1C52.32,102.89,52.31,108.99,56.24,108.99z"/>
	<path class="st4" d="M36.06,123.39h0.61c0.8,0,1.57-0.7,1.53-1.53c-0.04-0.83-0.67-1.53-1.53-1.53h-0.61c-0.8,0-1.57,0.7-1.53,1.53
		C34.57,122.69,35.21,123.39,36.06,123.39z"/>
	<path class="st4" d="M16.2,115.12c1.97,0,1.97-3.06,0-3.06C14.23,112.06,14.23,115.12,16.2,115.12z"/>
	<path class="st4" d="M10.39,125.15c2.66,0,2.66-4.14,0-4.14C7.73,121.01,7.73,125.15,10.39,125.15z"/>
	<path class="st4" d="M5.81,133.91c4.07,0,4.08-6.34,0-6.34C1.74,127.57,1.73,133.91,5.81,133.91z"/>
	<path class="st4" d="M10.09,111.51c3.57,0,3.96-4.95,1.17-6.03c-0.09-0.39-0.45-0.68-0.88-0.7c-0.36-0.02-0.72-0.05-1.07,0.07
		c-0.26,0.09-0.45,0.36-0.4,0.63C6.13,106.57,6.51,111.51,10.09,111.51z"/>
	<path class="st4" d="M11.61,98.99c3.27,0,3.28-5.1,0-5.1C8.34,93.9,8.34,98.99,11.61,98.99z"/>
	<path class="st4" d="M23.53,94.6c3.92,0,3.92-6.1,0-6.1C19.62,88.5,19.61,94.6,23.53,94.6z"/>
	<path class="st4" d="M30.26,120.35c2.78,0,2.79-4.33,0-4.33C27.48,116.02,27.47,120.35,30.26,120.35z"/>
	<path class="st4" d="M29.65,127.91c3.84,0,3.85-5.98,0-5.98C25.8,121.93,25.8,127.91,29.65,127.91z"/>
	<path class="st4" d="M57.46,119.85c4.1,0,4.11-6.39,0-6.39C53.36,113.46,53.35,119.85,57.46,119.85z"/>
	<path class="st4" d="M44.62,103.06c3.78,0,3.79-5.88,0-5.88C40.84,97.18,40.84,103.06,44.62,103.06z"/>
	<path class="st4" d="M41.26,96.24c2.49,0,2.49-3.88,0-3.88C38.77,92.37,38.77,96.24,41.26,96.24z"/>
	<path class="st4" d="M46.76,80.37c3.73,0,3.74-5.81,0-5.81C43.03,74.56,43.02,80.37,46.76,80.37z"/>
	<path class="st4" d="M60.21,76.57c3.96,0,3.97-6.17,0-6.17C56.24,70.4,56.24,76.57,60.21,76.57z"/>
	<path class="st4" d="M60.51,65.09c4.16,0,4.17-6.48,0-6.48C56.35,58.61,56.34,65.09,60.51,65.09z"/>
	<path class="st4" d="M66.32,46.3c2.84,0,2.85-4.43,0-4.43C63.48,41.88,63.47,46.3,66.32,46.3z"/>
	<path class="st4" d="M65.1,54.03c4.12,0,4.12-6.41,0-6.41C60.98,47.62,60.97,54.03,65.1,54.03z"/>
	<path class="st4" d="M42.18,71.08c3.99,0,4-6.22,0-6.22C38.18,64.86,38.18,71.08,42.18,71.08z"/>
	<path class="st4" d="M31.17,78.47c3.66,0,3.66-5.69,0-5.69C27.52,72.78,27.51,78.47,31.17,78.47z"/>
	<path class="st4" d="M20.48,85.88c3.73,0,3.74-5.81,0-5.81C16.74,80.07,16.74,85.88,20.48,85.88z"/>
	<path class="st4" d="M11.61,84.66c3.73,0,3.74-5.81,0-5.81C7.88,78.84,7.87,84.66,11.61,84.66z"/>
	<path class="st4" d="M4.89,89.85c3.72,0,3.72-5.79,0-5.79C1.17,84.06,1.17,89.85,4.89,89.85z"/>
	<path class="st4" d="M53.48,95.1c3.78,0,3.79-5.88,0-5.88C49.71,89.22,49.7,95.1,53.48,95.1z"/>
	<path class="st4" d="M91.38,94.17c3.36,0,3.37-5.24,0-5.24C88.02,88.93,88.01,94.17,91.38,94.17z"/>
	<path class="st4" d="M83.44,18.16c2.87,0,2.88-4.47,0-4.47C80.56,13.68,80.56,18.16,83.44,18.16z"/>
	<path class="st5" d="M26.28,115.01c3,0,3-4.66,0-4.66C23.29,110.34,23.28,115.01,26.28,115.01z"/>
	<path class="st5" d="M22.01,125.95c3.29,0,3.29-5.12,0-5.12C18.72,120.83,18.71,125.95,22.01,125.95z"/>
	<path class="st5" d="M14.76,123.46c-0.34,0.59-0.07,1.55,0.83,1.55c0.89,0,1.17-0.96,0.83-1.55c1.08-0.72,0.81-2.82-0.83-2.82
		C13.95,120.63,13.68,122.74,14.76,123.46z"/>
	<path class="st5" d="M16.81,99.81c1.97,0,1.97-3.06,0-3.06C14.84,96.75,14.84,99.81,16.81,99.81z"/>
	<path class="st5" d="M29.65,109.53c2.64,0,2.65-4.11,0-4.11C27,105.41,27,109.53,29.65,109.53z"/>
	<path class="st5" d="M41.87,120.02c1.97,0,1.97-3.06,0-3.06C39.9,116.96,39.9,120.02,41.87,120.02z"/>
	<path class="st5" d="M48.59,117.25c3.92,0,3.92-6.1,0-6.1C44.68,111.15,44.67,117.25,48.59,117.25z"/>
	<path class="st5" d="M50.73,100.06c3.86,0,3.86-6,0-6C46.88,94.06,46.87,100.06,50.73,100.06z"/>
	<path class="st5" d="M64.79,111.54c2.87,0,2.88-4.47,0-4.47C61.92,107.07,61.92,111.54,64.79,111.54z"/>
	<path class="st5" d="M75.49,104.12c2.78,0,2.79-4.33,0-4.33C72.71,99.79,72.7,104.12,75.49,104.12z"/>
	<path class="st5" d="M76.1,86.95c3.93,0,3.94-6.12,0-6.12C72.17,80.83,72.16,86.95,76.1,86.95z"/>
	<path class="st5" d="M80.07,79.53c3.44,0,3.45-5.36,0-5.36C76.63,74.17,76.63,79.53,80.07,79.53z"/>
	<path class="st5" d="M102.08,79.8c3,0,3-4.66,0-4.66C99.08,75.13,99.08,79.8,102.08,79.8z"/>
	<path class="st5" d="M105.44,68.43c2.95,0,2.95-4.59,0-4.59C102.49,63.84,102.49,68.43,105.44,68.43z"/>
	<path class="st5" d="M102.08,52.01c3.89,0,3.89-6.05,0-6.05C98.19,45.96,98.19,52.01,102.08,52.01z"/>
	<path class="st5" d="M85.88,44.42c3.96,0,3.97-6.17,0-6.17C81.92,38.25,81.91,44.42,85.88,44.42z"/>
	<path class="st5" d="M75.18,45.93c1.97,0,1.97-3.06,0-3.06C73.22,42.87,73.21,45.93,75.18,45.93z"/>
	<path class="st5" d="M76.71,33.07c1.97,0,1.97-3.06,0-3.06C74.75,30.01,74.74,33.07,76.71,33.07z"/>
	<path class="st5" d="M80.24,20.58c0.19,0.34,0.54,0.59,1.06,0.59c0.25,0,0.45-0.06,0.62-0.16c4.17-0.01,4.17-6.51-0.01-6.51
		C78.39,14.51,77.83,19.12,80.24,20.58z"/>
	<path class="st5" d="M80.69,8.74c3.75,0,3.75-5.84,0-5.84C76.94,2.9,76.93,8.74,80.69,8.74z"/>
	<path class="st5" d="M95.05,9.68c3.78,0,3.79-5.88,0-5.88C91.27,3.79,91.26,9.68,95.05,9.68z"/>
	<path class="st5" d="M104.83,18.72c2.81,0,2.82-4.38,0-4.38C102.02,14.34,102.01,18.72,104.83,18.72z"/>
	<path class="st5" d="M117,20.7c0.09-0.03,0.19-0.06,0.28-0.09c0.81-0.27,1.5-1.03,1.46-1.93c-0.04-0.91-0.6-1.64-1.46-1.93
		c-0.09-0.03-0.19-0.06-0.28-0.09c-1.3-0.43-2.64,0.71-2.64,2.02C114.35,19.98,115.7,21.12,117,20.7z"/>
	<path class="st5" d="M123.47,18.64c3.1,0,3.11-4.83,0-4.83C120.37,13.81,120.36,18.64,123.47,18.64z"/>
	<path class="st5" d="M126.22,13.17c1.97,0,1.97-3.06,0-3.06C124.26,10.1,124.25,13.17,126.22,13.17z"/>
	<path class="st5" d="M128.67,18.26c2.61,0,2.62-4.07,0-4.07C126.06,14.19,126.05,18.26,128.67,18.26z"/>
	<path class="st5" d="M122.09,36.29c0.61,0.56,1.56,0.61,2.16,0c0.1-0.1,0.2-0.2,0.31-0.31c0.57-0.57,0.61-1.61,0-2.17
		c-0.3-0.28-0.68-0.43-1.06-0.44c0.01-0.02,0.01-0.04-0.02-0.04c-0.03,0-0.03,0.02-0.02,0.04c-0.38,0-0.76,0.14-1.06,0.44
		l-0.31,0.31C121.52,34.7,121.48,35.73,122.09,36.29z"/>
	<path class="st5" d="M105.44,31.86c4.35,0,4.36-6.77,0-6.77C101.09,25.09,101.09,31.86,105.44,31.86z"/>
	<path class="st5" d="M91.99,24.21c2.78,0,2.79-4.33,0-4.33C89.21,19.88,89.21,24.21,91.99,24.21z"/>
	<path class="st5" d="M86.49,59.09c3.53,0,3.54-5.5,0-5.5c-0.09,0-0.17,0.02-0.25,0.03c0.78-0.06,0.77-1.3-0.05-1.3
		c-0.83,0-0.84,1.28-0.02,1.3C82.97,53.95,83.07,59.09,86.49,59.09z"/>
	<path class="st5" d="M75.18,67.8c4.44,0,4.5-6.81,0.18-7c-0.2-0.35-0.57-0.6-1.1-0.6c-0.87,0-1.3,0.69-1.29,1.37
		C70.87,63.39,71.61,67.8,75.18,67.8z"/>
	<path class="st5" d="M42.79,69.75c4.26,0,4.26-6.63,0-6.63C38.53,63.13,38.52,69.75,42.79,69.75z"/>
	<path class="st5" d="M40.65,90.86c2.96,0,4.03-2.95,3.2-5.07c3.12-1,2.77-6.4-1.06-6.4c-2.58,0-3.58,2.46-3,4.36
		C36.04,84.59,36.32,90.86,40.65,90.86z"/>
	<path class="st5" d="M84.66,98.44c2.95,0,2.95-4.59,0-4.59C81.71,93.84,81.7,98.44,84.66,98.44z"/>
	<path class="st5" d="M8.56,120.4c4.03,0,4.03-6.27,0-6.27C4.53,114.13,4.53,120.4,8.56,120.4z"/>
	<path class="st5" d="M19.87,95.67c3.72,0,3.72-5.79,0-5.79C16.15,89.88,16.14,95.67,19.87,95.67z"/>
	<path class="st5" d="M36.06,111.31c1,0,1.01-1.56,0-1.56C35.06,109.75,35.06,111.31,36.06,111.31z"/>
	<path class="st5" d="M38.81,104.09c1.17,0,1.17-1.82,0-1.82C37.64,102.27,37.64,104.09,38.81,104.09z"/>
	<path class="st5" d="M32.7,95.25c0.04,0,0.04-0.06,0-0.06C32.66,95.19,32.66,95.25,32.7,95.25z"/>
	<path class="st5" d="M38.51,92.76c1.17,0,1.17-1.82,0-1.82C37.34,90.94,37.34,92.76,38.51,92.76z"/>
	<path class="st5" d="M59.29,105.93c1.17,0,1.17-1.82,0-1.82C58.12,104.11,58.12,105.93,59.29,105.93z"/>
	<path class="st5" d="M71.52,90.02c1.19,0,1.19-1.85,0-1.85C70.33,88.17,70.33,90.02,71.52,90.02z"/>
	<path class="st5" d="M65.1,73.17c1.17,0,1.17-1.82,0-1.82C63.93,71.35,63.93,73.17,65.1,73.17z"/>
	<path class="st5" d="M70.29,86.07c0.04,0,0.04-0.06,0-0.06C70.25,86.01,70.25,86.07,70.29,86.07z"/>
	<path class="st5" d="M65.4,94.33c0.04,0,0.04-0.06,0-0.06C65.36,94.27,65.36,94.33,65.4,94.33z"/>
	<path class="st5" d="M57.46,85.11c1.17,0,1.17-1.82,0-1.82C56.29,83.29,56.29,85.11,57.46,85.11z"/>
	<path class="st5" d="M63.88,78.11c0.04,0,0.04-0.06,0-0.06C63.84,78.04,63.84,78.11,63.88,78.11z"/>
	<path class="st5" d="M74.57,91.27c0.04,0,0.04-0.06,0-0.06C74.53,91.21,74.53,91.27,74.57,91.27z"/>
	<path class="st5" d="M88.94,87.6c0.04,0,0.04-0.06,0-0.06C88.9,87.54,88.9,87.6,88.94,87.6z"/>
	<path class="st5" d="M96.27,73.82c0.04,0,0.04-0.06,0-0.06C96.23,73.76,96.23,73.82,96.27,73.82z"/>
	<path class="st5" d="M94.44,58.2c0.04,0,0.04-0.06,0-0.06C94.4,58.14,94.4,58.2,94.44,58.2z"/>
	<path class="st5" d="M87.71,51.47c0.04,0,0.04-0.06,0-0.06C87.68,51.41,87.68,51.47,87.71,51.47z"/>
	<path class="st5" d="M95.66,71.37c0.04,0,0.04-0.06,0-0.06C95.62,71.31,95.62,71.37,95.66,71.37z"/>
	<path class="st5" d="M105.15,76.1l0.1,0.59c0.08,0.49,0.91,0.49,0.99,0l0.1-0.59c0.06-0.39-0.17-0.78-0.59-0.78
		C105.32,75.32,105.09,75.71,105.15,76.1z"/>
	<path class="st5" d="M107.58,77.19c0.04,0,0.04-0.06,0-0.06C107.54,77.13,107.54,77.19,107.58,77.19z"/>
	<path class="st5" d="M115.53,56.98c0.04,0,0.04-0.06,0-0.06C115.49,56.92,115.49,56.98,115.53,56.98z"/>
	<path class="st5" d="M113.39,46.26c0.04,0,0.04-0.06,0-0.06C113.35,46.2,113.35,46.26,113.39,46.26z"/>
	<path class="st5" d="M111.86,36.47c0.04,0,0.04-0.06,0-0.06C111.82,36.4,111.82,36.47,111.86,36.47z"/>
	<path class="st5" d="M123.47,30.65c0.04,0,0.04-0.06,0-0.06C123.43,30.59,123.43,30.65,123.47,30.65z"/>
	<path class="st5" d="M116.14,24.22c0.04,0,0.04-0.06,0-0.06C116.1,24.16,116.1,24.22,116.14,24.22z"/>
	<path class="st5" d="M101.77,18.1c0.04,0,0.04-0.06,0-0.06C101.73,18.03,101.73,18.1,101.77,18.1z"/>
	<path class="st5" d="M113.69,38.92c0.04,0,0.04-0.06,0-0.06C113.65,38.85,113.65,38.92,113.69,38.92z"/>
	<path class="st5" d="M112.47,47.49c0.04,0,0.04-0.06,0-0.06C112.43,47.43,112.43,47.49,112.47,47.49z"/>
	<path class="st5" d="M112.17,45.96c0.04,0,0.04-0.06,0-0.06C112.13,45.9,112.13,45.96,112.17,45.96z"/>
	<path class="st5" d="M92.6,33.67c1.17,0,1.17-1.82,0-1.82C91.43,31.85,91.43,33.67,92.6,33.67z"/>
	<path class="st5" d="M81.3,30.65c0.04,0,0.04-0.06,0-0.06C81.26,30.59,81.26,30.65,81.3,30.65z"/>
	<path class="st5" d="M72.35,35.21c0,0.1,0.16,0.1,0.16,0c0-0.2,0.01-0.41,0.01-0.61c0-0.12-0.19-0.12-0.19,0
		C72.35,34.8,72.35,35.01,72.35,35.21z"/>
	<path class="st5" d="M76.41,27.59c0.04,0,0.04-0.06,0-0.06C76.37,27.53,76.37,27.59,76.41,27.59z"/>
	<path class="st5" d="M90.77,19.93c0.04,0,0.04-0.06,0-0.06C90.73,19.87,90.73,19.93,90.77,19.93z"/>
	<path class="st5" d="M102.08,14.38c1.17,0,1.17-1.82,0-1.82C100.91,12.56,100.91,14.38,102.08,14.38z"/>
	<path class="st5" d="M107.58,11.97c0.04,0,0.04-0.06,0-0.06C107.54,11.91,107.54,11.97,107.58,11.97z"/>
	<path class="st5" d="M117.06,9.48c1.17,0,1.17-1.82,0-1.82C115.88,7.66,115.88,9.48,117.06,9.48z"/>
	<path class="st5" d="M122.56,3.4c0.04,0,0.04-0.06,0-0.06C122.52,3.34,122.52,3.4,122.56,3.4z"/>
	<path class="st5" d="M128.36,4.32c0.04,0,0.04-0.06,0-0.06C128.32,4.26,128.32,4.32,128.36,4.32z"/>
	<path class="st5" d="M128.67,11.32c1.17,0,1.17-1.82,0-1.82C127.5,9.5,127.5,11.32,128.67,11.32z"/>
	<path class="st5" d="M120.11,30.65c0.04,0,0.04-0.06,0-0.06C120.07,30.59,120.07,30.65,120.11,30.65z"/>
	<path class="st5" d="M121.62,37.99c0.03,0.03,0.07-0.02,0.04-0.04c-0.2-0.2-0.41-0.41-0.61-0.61c-0.03-0.03-0.07,0.02-0.04,0.04
		L121.62,37.99z"/>
	<path class="st5" d="M103.3,45.35c0.04,0,0.04-0.06,0-0.06C103.26,45.28,103.26,45.35,103.3,45.35z"/>
	<path class="st5" d="M63.57,71.27c0.7,0,0.7-1.09,0-1.09C62.87,70.18,62.87,71.27,63.57,71.27z"/>
	<path class="st5" d="M54.71,60.96c0.04,0,0.04-0.06,0-0.06C54.67,60.9,54.67,60.96,54.71,60.96z"/>
	<path class="st5" d="M55.01,62.18c0.04,0,0.04-0.06,0-0.06C54.97,62.12,54.97,62.18,55.01,62.18z"/>
	<path class="st5" d="M51.35,66.4c0.73,0,0.73-1.13,0-1.13C50.62,65.26,50.62,66.4,51.35,66.4z"/>
	<path class="st5" d="M60.97,82.51c0.14,0.28,0.29,0.56,0.43,0.85c0.17,0.33,0.61,0.45,0.93,0.31c0.36-0.16,0.5-0.5,0.43-0.88
		c-0.06-0.32-0.11-0.64-0.17-0.96c-0.09-0.53-0.75-0.76-1.2-0.58C60.89,81.46,60.73,82.03,60.97,82.51z"/>
	<path class="st5" d="M67.24,90.66c0.04,0,0.04-0.06,0-0.06C67.2,90.6,67.2,90.66,67.24,90.66z"/>
	<path class="st5" d="M61.74,101.03c1.17,0,1.17-1.82,0-1.82C60.57,99.21,60.56,101.03,61.74,101.03z"/>
	<path class="st5" d="M69.07,89.43c0.04,0,0.04-0.06,0-0.06C69.03,89.37,69.03,89.43,69.07,89.43z"/>
	<path class="st5" d="M56.24,98.46c0.62,0,0.62-0.96,0-0.96C55.62,97.5,55.62,98.46,56.24,98.46z"/>
	<path class="st5" d="M33.62,103.19c1.59,0,1.59-2.47,0-2.47C32.03,100.72,32.03,103.19,33.62,103.19z"/>
	<path class="st5" d="M20.78,100.11c1.17,0,1.17-1.82,0-1.82C19.61,98.29,19.61,100.11,20.78,100.11z"/>
	<path class="st5" d="M11.61,108.11c0.04,0,0.04-0.06,0-0.06C11.57,108.05,11.57,108.11,11.61,108.11z"/>
	<path class="st5" d="M19.87,128.63c0.04,0,0.04-0.06,0-0.06C19.83,128.56,19.83,128.63,19.87,128.63z"/>
	<path class="st5" d="M23.84,130.16c0.04,0,0.04-0.06,0-0.06C23.8,130.1,23.8,130.16,23.84,130.16z"/>
	<path class="st4" d="M12.84,91.57c1.21,0,1.21-1.88,0-1.88C11.63,89.69,11.63,91.57,12.84,91.57z"/>
	<path class="st4" d="M15.28,101.35c1.58,0,1.58-2.45,0-2.45C13.71,98.89,13.7,101.35,15.28,101.35z"/>
	<path class="st4" d="M19.56,109.62c1.17,0,1.47-1.34,0.92-2.05c0.17,0.1,0.37,0.17,0.61,0.17c1.53,0,1.53-2.38,0-2.38
		c-1.13,0-1.42,1.29-0.89,1.97c-0.17-0.11-0.38-0.18-0.64-0.18C17.97,107.15,17.97,109.62,19.56,109.62z"/>
	<path class="st4" d="M28.73,104.8c1.29,0,1.29-2.01,0-2.01C27.44,102.79,27.44,104.8,28.73,104.8z"/>
	<path class="st4" d="M36.06,90.66c0.04,0,0.04-0.06,0-0.06C36.02,90.6,36.02,90.66,36.06,90.66z"/>
	<path class="st4" d="M46.46,111.77c0.41,0,0.42-0.65,0-0.65C46.04,111.13,46.04,111.77,46.46,111.77z"/>
	<path class="st4" d="M77.91,106.87c0.02,0.04,0.07,0,0.05-0.03c-0.1-0.2-0.2-0.41-0.31-0.61c-0.02-0.04-0.07,0-0.05,0.03
		C77.7,106.46,77.81,106.67,77.91,106.87z"/>
	<path class="st4" d="M82.23,103.51c0.31-0.2,0.61-0.41,0.92-0.61c0.03-0.02,0-0.07-0.03-0.05c-0.31,0.2-0.61,0.41-0.92,0.61
		C82.17,103.48,82.2,103.54,82.23,103.51z"/>
	<path class="st4" d="M95.36,93.11c0.04,0,0.04-0.06,0-0.06C95.32,93.05,95.32,93.11,95.36,93.11z"/>
	<path class="st4" d="M102.72,84.83l0.92-1.84c0.02-0.04-0.04-0.07-0.05-0.03l-0.92,1.84C102.65,84.83,102.7,84.86,102.72,84.83z"/>
	<path class="st4" d="M84.35,103.83c0.04,0,0.04-0.06,0-0.06C84.31,103.76,84.31,103.83,84.35,103.83z"/>
	<path class="st4" d="M78.55,108.11c0.04,0,0.04-0.06,0-0.06C78.51,108.05,78.51,108.11,78.55,108.11z"/>
	<path class="st4" d="M72.43,111.28c0.96,0,0.96-1.49,0-1.49C71.47,109.78,71.47,111.28,72.43,111.28z"/>
	<path class="st4" d="M84.96,98.66c1.66,0,1.66-2.58,0-2.58C83.31,96.07,83.3,98.66,84.96,98.66z"/>
	<path class="st4" d="M89.46,99.1c0.62,0.09,1.15,0,1.56-0.53c0.54-0.7,0.35-1.73-0.42-2.18c-0.71-0.42-1.59-0.14-2.03,0.53
		C88.1,97.66,88.52,98.96,89.46,99.1z"/>
	<path class="st4" d="M98.17,88.12c0.49,0.53,1.59,0.46,1.9-0.25c0.21-0.48,0.23-0.92-0.09-1.35c-0.44-0.57-1.29-0.64-1.81-0.12
		C97.69,86.88,97.72,87.63,98.17,88.12z"/>
	<path class="st4" d="M104.52,78.69c1.58,0,1.58-2.45,0-2.45C102.95,76.24,102.95,78.69,104.52,78.69z"/>
	<path class="st4" d="M111.25,68.54c1.12,0,1.13-1.75,0-1.75C110.12,66.79,110.12,68.54,111.25,68.54z"/>
	<path class="st4" d="M119.5,56.24c0.75,0,1.47-0.66,1.43-1.44c-0.03-0.78-0.63-1.44-1.43-1.44c-0.75,0-1.47,0.66-1.43,1.44
		C118.1,55.58,118.7,56.24,119.5,56.24z"/>
	<path class="st4" d="M119.91,51.43c0.22,0.45,0.58,0.83,1.12,0.83c0.85,0,1.4-0.96,0.97-1.7c-0.4-0.69-1.56-0.78-1.94,0
		C119.91,50.86,119.75,51.09,119.91,51.43z"/>
	<path class="st4" d="M116.44,45.62c1.96,0,1.97-3.06,0-3.06C114.48,42.56,114.48,45.62,116.44,45.62z"/>
	<path class="st4" d="M124.7,38.88c1.57,0,1.57-2.44,0-2.44C123.13,36.44,123.13,38.88,124.7,38.88z"/>
	<path class="st4" d="M129.28,30.26c1.51,0,1.51-2.35,0-2.35C127.77,27.91,127.77,30.26,129.28,30.26z"/>
	<path class="st4" d="M128.06,24.6c1.71,0,1.72-2.67,0-2.67C126.34,21.93,126.34,24.6,128.06,24.6z"/>
	<path class="st4" d="M130.2,18.63c1.12,0,1.13-1.75,0-1.75C129.07,16.88,129.07,18.63,130.2,18.63z"/>
	<path class="st4" d="M94.44,13.38c1.46,0,1.46-2.27,0-2.27C92.98,11.11,92.98,13.38,94.44,13.38z"/>
	<path class="st4" d="M81.6,15.58c1.53,0,1.53-2.38,0-2.38C80.07,13.2,80.07,15.58,81.6,15.58z"/>
	<path class="st4" d="M74.27,32.48c1.6,0,1.61-2.5,0-2.5C72.66,29.98,72.66,32.48,74.27,32.48z"/>
	<path class="st4" d="M66.93,39.23c1.62,0,1.63-2.53,0-2.53C65.31,36.7,65.31,39.23,66.93,39.23z"/>
	<path class="st4" d="M61.43,47.85c1.68,0,1.68-2.61,0-2.61C59.75,45.23,59.75,47.85,61.43,47.85z"/>
	<path class="st4" d="M77.63,55.18c2.06,0,2.06-3.2,0-3.2C75.57,51.98,75.57,55.18,77.63,55.18z"/>
	<path class="st4" d="M81.91,54.55c2.03,0,2.03-3.16,0-3.16C79.88,51.39,79.88,54.55,81.91,54.55z"/>
	<path class="st4" d="M96.45,50.17c0.2,0.48,0.63,0.81,1.15,0.88c0.6,0.08,1.14-0.2,1.47-0.71c0.01-0.02,0.02-0.04,0.04-0.05
		c-0.01,0.02,0.05-0.06,0.18-0.24c0.06-0.11,0.1-0.21,0.13-0.32c0.23-0.43,0.02-0.91-0.35-1.16c-0.25-0.22-0.58-0.29-0.89-0.4
		c-0.47-0.17-1.09,0.04-1.44,0.38C96.34,48.98,96.22,49.63,96.45,50.17z"/>
	<path class="st4" d="M102.69,38.13c0.88,0,1.73-0.78,1.69-1.69c-0.04-0.92-0.74-1.69-1.69-1.69c-0.88,0-1.73,0.78-1.69,1.69
		C101.04,37.35,101.74,38.13,102.69,38.13z"/>
	<path class="st4" d="M110.64,43.18c1.98,0,1.99-3.09,0-3.09C108.66,40.1,108.65,43.18,110.64,43.18z"/>
	<path class="st4" d="M44.93,68.65c2.06,0,2.06-3.2,0-3.2C42.87,65.45,42.87,68.65,44.93,68.65z"/>
	<path class="st4" d="M27.81,70.64c1.85,0,1.86-2.88,0-2.88C25.96,67.75,25.96,70.64,27.81,70.64z"/>
	<path class="st4" d="M6.72,83.57c1.95,0,1.95-3.03,0-3.03C4.78,80.54,4.78,83.57,6.72,83.57z"/>
	<path class="st4" d="M3.36,103.77c1.94,0,1.94-3.01,0-3.01C1.43,100.76,1.42,103.77,3.36,103.77z"/>
	<path class="st4" d="M3.67,113.5c1.84,0,1.85-2.87,0-2.87C1.82,110.63,1.82,113.5,3.67,113.5z"/>
</g>
</svg>
