<?xml version="1.0" encoding="utf-8"?>
<!-- Generator: Adobe Illustrator 25.2.3, SVG Export Plug-In . SVG Version: 6.00 Build 0)  -->
<svg version="1.1" id="Layer_1" xmlns="http://www.w3.org/2000/svg" xmlns:xlink="http://www.w3.org/1999/xlink" x="0px" y="0px"
	 viewBox="0 0 104 156" style="enable-background:new 0 0 104 156;" xml:space="preserve">
<style type="text/css">
	.st0{fill:#A5B508;}
	.st1{fill:#D6AD29;}
	.st2{fill:#B79D1D;}
	.st3{fill:#557507;}
	.st4{fill:#C6A028;}
	.st5{fill:#E2BD23;}
</style>
<g>
	<path class="st0" d="M88.21-0.42h16.15c0.07,2.74-0.89,5.29-2.58,7.41c-0.31,0.38-0.64,0.73-0.96,1.09c0.04,0.11,0.1,0.25,0.2,0.42
		c0.62,1.19,0.96,2.49,0.86,3.84c-0.11,1.58-0.94,2.67-1.42,4.12c-0.5,1.49,0.12,2.19,0.46,3.74c0.47,2.1,0.42,4.18-0.42,6.07
		c0.3,0.47,0.48,1,0.47,1.56c-0.02,1.23-0.2,2.08-0.74,3.18c-0.26,0.55-1.01,1.4-1,2.02c0.02,1.29,1.74,2.7,2.13,3.97
		c0.53,1.71,0.35,3.52-0.27,5.18c-0.48,1.29-2.28,3.29-1.56,4.64c0.43,0.8,0.48,1.56,0.28,2.21c0.44,0.69,0.63,1.54,0.38,2.44
		c-0.39,1.39-0.51,1.73,0.07,3.05c0.47,1.06,1.05,1.96,1.3,3.12c0.48,2.24-0.32,3.92-0.88,6.02c-0.31,1.2,0.4,2.84,0.07,4.62
		c-0.39,2.06-2.68,4.01-1.15,5.93c0.28,0.35,0.44,0.74,0.53,1.13c0.7,0.43,1.26,1.09,1.49,1.94c0.51,1.84,0.37,3.45-0.07,5.29
		c-0.06,0.26-0.32,1.57-0.48,1.94c0.14,0.32,0.35,0.94,0.37,1.05c0.34,1.35,0.24,2.78-0.1,4.12c-0.36,1.38-1.08,2.29-0.7,3.12
		c0.61,1.37,1.54,2.17,1.79,3.74c0.26,1.65-0.25,3.38-0.35,5.04c-0.15,2.41-1.04,4.58-1.32,6.91c0.83,0.62,1.38,1.62,1.3,3
		c-0.2,3.14-1.48,5.57-2.81,8.36c-0.63,1.32-1.16,2.52-0.68,3.95c0.39,1.13,1.02,2.12,1.31,3.3c0.67,2.73,1.02,5.97,0.12,8.67
		c-0.4,1.19-1.21,2.22-1.58,3.39c-0.42,1.31-0.11,2.83,0.39,4.16c0.61,0.45,1.1,1.14,1.33,2.13c0.81,3.44,3.28,6.24,3.95,9.66
		c0.01,0.04,0.01,0.08,0.01,0.12c0.22,0.4,0.22,0.8,0.28,1.2H87.36c-0.36-0.91-0.57-1.91-0.63-2.92c-0.04-0.66-0.05-1.33-0.04-2
		c0.01-0.73,0.04-1.46,0.09-2.19c0.02-0.22,0.03-0.43,0.05-0.66c-0.56-2.96,0.01-6.33,0.23-9.18c0.06-0.85,0.1-1.7,0.13-2.54
		c-0.1-1.84-0.19-3.7-0.04-5.48c-0.06-1.33-0.14-2.66-0.25-4c-0.33-4.06-0.57-8.1-0.54-12.17c0.03-3.37-0.42-7.6,0.61-10.94
		c-0.03-0.63-0.06-1.26-0.1-1.89c-0.37-5.31-1-10.59-1.23-15.9c-0.51-0.75-0.75-1.75-0.5-2.94c0.8-3.92,0.21-8.06,0.37-12.03
		c0.17-4.34,0.7-8.67,1.11-13c0.04-0.36,0.12-0.69,0.26-0.98c0.18-7.27-0.24-14.56,1.05-21.74c-0.01-0.07-0.02-0.13-0.02-0.2
		c-0.43-7.22-0.79-14.44-1.03-21.66c-0.05-1.51,0.64-2.57,1.61-3.16C88.24,7.11,88.11,3.34,88.21-0.42z"/>
	<path class="st1" d="M13.83-0.42h75.29c0.06,14.86,0.06,29.71,0.08,44.56c0,0.01,0,0.01,0,0.01c0,0.88,0.01,1.78,0.01,2.66v0.15
		c0.04,18.29,0.06,36.56,0.09,54.85c0,0.01,0,0.01,0,0.01c-0.01,0.7,0,1.4,0,2.1v0.31c0,1.61,0.01,3.23,0.01,4.85
		c0.01,10.1,0.02,20.19,0.04,30.29c0,0.01,0,0.01,0,0.01c0.01,0.93,0.01,1.86,0.01,2.79c0,0.43,0.01,0.88,0.02,1.33v0.01
		c0.11,3.97,0.59,8.82-0.39,12.92H14.74c-0.75-10.7-0.44-21.5-0.51-32.21c-0.14-21.56-0.23-43.13-0.28-64.7
		c-0.01-2.1-0.01-4.19-0.01-6.29c0,0,0,0,0-0.01c-0.04-15.02-0.06-30.04-0.09-45.07c0-0.94,0-1.87-0.01-2.8c0-0.01,0-0.01,0-0.01
		C13.84,3.42,13.83,1.5,13.83-0.42z"/>
	<path class="st2" d="M82.86-0.42h9.2c-0.05,3.38,0.32,6.08,0.7,7.96c0.71,3.59,1.57,5.01,0.78,7.02c-0.23,0.6-0.83,2-1.29,3.99
		c-0.47,1.98,0.14,2.75,0.8,4.49c0.8,2.14,0.18,4.19-0.47,6.3c-0.09,0.3-0.25,0.53-0.46,0.7c0.39,1.73,1.32,3.39,1.36,5.22
		c0.04,1.81-0.37,3.59-1.04,5.27c-1.16,2.99-2.35,4.85-0.92,7.95c1.79,3.87,1.45,3.79,1.5,4.82c0.03,0.73-0.1,0.75-1.49,5.71
		c-0.58,2.04-0.6,2.2-0.61,2.45c-0.11,1.98,0.81,2.48,1.46,5.22c0.24,0.99,0.61,2.59,0.37,4.58c-0.22,1.91-0.61,3.06-0.61,3.06
		c-0.41,1.22-0.78,1.67-0.61,2.45c0.07,0.3,0.25,0.79,0.16,1.48c-0.03,0.27-0.1,0.49-0.15,0.64c1.38,2.57,1.31,5.37,0.88,8.42
		c-0.25,1.73-0.39,3.19,0.36,4.78c0.42,0.92,0.85,1.72,0.94,2.75c0.12,1.45-0.48,2.65-1.28,3.82c-0.95,1.37-2.69,3.31-3.12,5.26
		c-0.02,0.05-0.02,0.1-0.04,0.15c0.01,0.06,0.02,0.1,0.04,0.16c0.19,0.83,0.37,1.65,0.5,2.47c0.85,1.32,2.25,2.28,2.85,3.88
		c0.67,1.77,0.71,3.72,0.3,5.56c-0.51,2.28-3.52,5.95-1.57,8.03c0.48,0.51,0.51,1.25,0.22,1.81c0.12,0.31,0.22,0.66,0.31,1.04
		c0.2,0.8,0.26,1.53,0.26,2.34c0.01,1.39,0.25,2.65,0.32,4.01c0.1,1.94-0.93,3.2-1.57,4.94c-1.21,3.27,0.88,4.69,1.47,7.6
		c0.51,2.51-0.55,4.97-0.23,7.49c0.11,0.84,0.45,1.94,0.62,3.01h-9.97c-0.04-1.09,0.22-2.11,0.47-3.23c0.15-0.68,0.29-1.4,0.37-2.19
		c0.12-1.21-0.18-2.41-0.17-3.63c0-0.35,0.02-0.7,0.09-1.05c0.35-1.92,0.94-3.39,0.6-5.42c-0.21-1.31-0.5-2.52-0.37-3.87
		c0.13-1.32,0.86-2.49,1.03-3.78c0.26-1.89-1-3.89-1.32-5.73c-0.26-1.49-0.28-2.95-0.15-4.46c0.03-0.4,0.2-0.72,0.43-0.95
		c-0.33-2.18,0.47-4.27-0.09-6.38c-0.52-1.98-0.15-2.96,0.36-4.9c0.73-2.79-0.42-5.65-0.51-8.48c-0.08-2.47,0.83-5.16,0.34-7.56
		c-0.43-2.14-1.28-3.97-1.23-6.22c0.01-0.28,0.03-0.55,0.08-0.83v-0.01c0.07-0.45,0.17-0.91,0.3-1.37c0,0,0,0,0-0.01
		c0.52-1.85,1.34-3.72,1-5.46c-0.42-2.16-1.24-3.82-1.26-6.1c-0.01-2.52,0.5-5.05,1-7.52c0.06-0.28,0.17-0.5,0.3-0.67
		c0.18-2.27-1.41-4.43-1.13-6.75c0.12-0.97,0.51-1.7,0.93-2.57c0.89-1.89,1.17-3.09,0.78-5.15c-0.42-2.22-1.11-4.37-0.74-6.66
		c0.46-2.81,2.06-4.62,0.66-7.45c-2.32-4.64-1.49-8.17,0.18-12.85c0.72-2.02,0.78-3.43-0.07-5.47c-0.45-1.1-0.85-2.17-1.07-3.35
		c-0.45-2.36-0.26-4.68,0.36-6.99c0.01-0.02,0.02-0.04,0.02-0.06c0.21-2.65-0.58-4.91-0.94-7.53C82.99,1.16,82.87,0.37,82.86-0.42z"
		/>
	<path class="st0" d="M-0.37-0.42h15.08c0.07,0.28,0.12,0.58,0.14,0.89c0.07,1.05,0.1,2.08,0.05,3.1
		c0.25,14.03,0.23,28.07,0.29,42.11c0.06,14.76-1.22,29.95,0.73,44.63c0.47,0.69,0.78,1.53,0.88,2.47c0.57,5.5,0.2,10.31-0.94,15.7
		c-1.05,4.98-0.93,10.18-1,15.25c-0.08,5.21-0.01,10.45,0.63,15.63c0.68,5.51,2.24,10.64,1.1,16.22c-0.06,0.31-0.15,0.58-0.27,0.84
		H-0.35c-0.01-0.03-0.01-0.06-0.01-0.09c-0.04-0.29-0.04-0.59,0-0.89c0.01-0.09,0.02-0.18,0.04-0.28c0.42-2.15,1.34-4.23,3-5.62
		c-0.97-2-2.07-4.01-2.14-6.3c-0.07-2.48,1.12-4.69,0.88-7.18c-0.24-2.4-1.23-4.65-1.18-7.08c0.04-2.38,1.43-4.14,2.04-6.34
		c0.69-2.49-0.02-4.37-0.55-6.74c-0.48-2.13,0.6-3.9,0.35-5.87c-0.24-1.96-1.7-3.39-1.67-5.6c0.02-0.89,0.28-1.63,0.69-2.21
		c-1.23-2.72,1.11-5.81,1.03-8.79c-0.06-2.38-1.4-4.25-1.14-6.76c0.2-1.89,1.13-3.39,1.73-5.15c0.74-2.19,0.07-4.05-0.15-6.27
		c-0.23-2.39,0.32-4.74-0.26-7.08c-0.95-3.79-1.04-7.04,1.02-10.15c0.04-0.4,0.14-0.81,0.34-1.24c1.65-3.65,0.53-5.62-1.16-8.88
		c-1.88-3.63-1.09-6.35-0.05-10c0.47-1.64-0.67-2.48-1.18-4.08c-0.59-1.85-0.5-3.71,0.06-5.56c0.58-1.92,1.16-2.89,0.7-4.88
		c-0.42-1.82-0.99-3.58-0.98-5.47c0.01-1.86,0.98-3.53,1.04-5.31C2.13,10.89,1,9.16,0.39,7.6C0.1,6.85-0.17,6.02-0.37,5.16V-0.42z"
		/>
	<path class="st2" d="M11.3-0.42h10.12c-0.12,2.43-0.96,4.72-1.53,7.12c-0.81,3.35-0.64,5.96-0.09,9.31
		c0.43,2.66-0.06,4.99-0.53,7.59c-0.33,1.87-0.28,3.39,0.29,5.19c0.36,1.12,0.58,2.11,0.53,3.3c-0.07,1.38-0.53,2.67-0.74,4.02
		c-0.29,1.78,0.1,3.25,0.59,4.94c0.69,2.38,0.91,4.37,0.13,6.76c-0.48,1.48-1.15,2.83-1.01,4.42c0.1,1.09,0.58,2.08,0.64,3.19
		c0.17,2.77-1.8,5.64-0.11,8.2c1.87,2.86-1.14,6.05-0.32,9.26c0.41,1.62,1.3,3.09,1.38,4.8c0.09,2.25-1.1,4.1-0.66,6.4
		c0.28,1.48,0.77,2.9,0.56,4.42c-0.1,0.72-0.47,1.29-0.6,1.97c-0.41,2.07,0.18,2.73,0.51,4.57c0.29,1.68-0.2,2.92-0.56,4.55
		c-0.43,1.97,0.42,3.68,0.04,5.52c0.06,0.08,0.1,0.17,0.13,0.26c0.42,1.18-0.18,1.92-0.11,3.12c0.08,1.19,0.49,2.21,0.26,3.43
		c-0.27,1.48-1.6,2.8-1.46,4.36c0.07,0.87,0.39,1.52,0.53,2.31c0.34,0.14,0.64,0.43,0.79,0.94c0.5,1.68,0.43,2.71,0.04,4.36
		c-0.29,1.2-0.55,2.19-0.2,3.55c0.18,0.71,0.48,1.25,0.5,2c0.06,1.56-0.81,2.87-1.23,4.31c-0.57,1.91,0.37,3.14,0.74,4.9
		c0.8,3.82-2.04,7.47-1.81,11.24c0.13,2.21,2.11,2.96,2.9,4.76c0.26,0.59,0.38,1.18,0.39,1.77h-9.56c-0.33-1.41-1.05-2.61-1.24-4.21
		c-0.19-1.63,0.89-2.36,1.27-3.83c0.62-2.37-1.58-3.93-1.9-6.05c-0.14-0.96,0.23-1.7,0.55-2.57c0.5-1.34,1.08-2.43,0.77-3.94
		c-0.19-0.89-0.78-1.59-1.06-2.42c-0.4-1.21-0.35-1.89,0.09-3.04c0.74-1.92,1.57-3.22,1.68-5.36c0.1-2.04-0.21-4.09-0.55-6.1
		c-0.29-1.68-0.74-3.41-0.81-5.13c-0.08-1.91,0.59-3.75,0.34-5.64c-0.44-3.29-2.33-5.83-1.5-9.29c0.41-1.7,1.27-3.25,1.76-4.93
		c0.51-1.81,0.47-3.61,0.29-5.45c-0.4-1.21-0.86-2.39-1.12-3.65c-0.29-1.41,0.06-2.53,0.53-3.65c0.04-0.81,0.16-1.62,0.37-2.44
		c-0.53-1.72-0.33-3.27,0.07-5.03c0.63-2.81,0.88-4.92-0.34-7.57c-0.55-1.21-1.07-2.32-0.88-3.69c0.24-1.84,1.75-2.8,2.44-4.4
		c1.67-3.83-2.33-8.28-1.4-12.49c0.49-2.22,1.37-3.96,1.21-6.32c-0.16-2.49-0.75-5.12-1.34-7.54c-0.45-1.84-1.72-3.97-1.65-5.91
		c0.07-1.9,1.48-3.53,1.93-5.33c0.75-3.01-1.16-4.11-1.57-6.71c-0.24-1.52,0.29-2.86,0.96-4.2c1.31-2.59,1.59-3.97,1.05-6.89
		C11.62,1.7,11.35,0.62,11.3-0.42z"/>
	<path class="st3" d="M10.57-0.42c0.82,0,1.63,0,2.45,0c-0.31,0.75-0.01,2.05,0.09,3.68c0.05,0.83,0.23,1.53,0.41,2.08
		c0,0,0,0,0,0.01c0.04,0.1,0.07,0.21,0.1,0.32c0.28,1,0.2,1.72-0.09,2.48c-0.15,0.39-0.36,0.78-0.6,1.24
		c-0.64,1.16-1.47,2.33-1.76,3.65c-0.31,0.7-0.33,1.43-0.07,2.21c0.32,0.16,0.62,0.36,0.89,0.58c0.78,1.03,1.37,1.54,0.96,2.89
		c0.13,0.18,0.21,0.4,0.22,0.69c0.04,1.49-0.42,2.55-1.26,3.78c-0.5,0.72-1.64,1.81-1.72,2.7c-0.09,0.98,1.08,2,1.51,2.75
		c1.62,2.88,1.16,6.74,1.3,9.92c0.09,1.88,0.29,3.82,0.04,5.69c-0.28,2.05-1.43,3.82-0.8,5.92c0.32,1.08,0.89,2.06,1.38,3.04
		c0,0.01,0,0.01,0,0.01c0.62,1.23,1.13,2.48,0.94,3.97c-0.11,0.89-0.47,1.64-0.93,2.32c-1.32,2.02-3.39,3.46-1.97,6.38
		c0.59,1.22,1.3,2.37,1.38,3.76c0.11,1.85-0.78,3.57-0.71,5.41c0.06,1.49,0.36,2.83,0.07,4.33c-0.33,1.76-1.21,3.47-1.29,5.26
		c-0.1,2.16,1.39,3.38,1.92,5.3c0.42,1.5,0.21,2.97-0.33,4.4c-0.03,0.07-0.07,0.15-0.11,0.21l-1.95,5.52
		c-0.75,2.1,0.06,3.34,0.91,5.21c1.15,2.51,0.73,4.77,0.23,7.36c-0.43,2.26,0.66,3.51,1.2,5.55c0.38,1.44,0.4,3.01,0.43,4.48
		c0.07,2.59-0.01,5.29-1.08,7.69c-0.62,1.38-1.49,1.75-0.96,2.99c0.37,0.87,1.07,1.17,1.26,2.24c0.52,2.98-2.52,5.38-1.19,8.3
		c0.88,1.93,2.62,3.19,1.73,5.52c-0.45,1.19-0.77,1.02-0.82,2.42c-0.04,1.08,0.2,1.42,0.44,2.4c0.19,0.74,0.23,1.45,0.2,2.16h-2.47
		c-0.01-1.66-0.83-2.54-1.04-4.21c-0.15-1.18,0.35-1.67,0.77-2.69c1.21-2.96-1.58-4-1.76-6.86c-0.07-1.16,0.34-2.18,0.77-3.23
		c0.34-0.85,1.07-1.96,0.99-2.9c-0.08-0.87-1.02-1.49-1.41-2.18c-1.1-1.94,0.03-2.65,0.98-4.36c1.59-2.89,1.68-7.95,0.81-11.12
		c-0.35-1.27-1.17-2.3-1.42-3.6c-0.29-1.5,0.17-2.8,0.47-4.25c0.42-2.04,0.22-3.85-0.89-5.67c-0.63-1.04-1.34-1.75-1.33-3.03
		c0.02-2.74,1.97-6.1,2.87-8.67c0.02-0.06,0.06-0.12,0.09-0.17c1.11-3.38-2.14-5.81-1.73-9.32c0.21-1.87,1.08-3.58,1.36-5.43
		c0.28-1.84-0.4-3.6-0.13-5.44c0.32-2.22,0.9-3.61-0.17-5.8c-0.51-1.06-1.16-2.11-1.26-3.32c-0.23-2.95,2.32-3.99,3.31-6.4
		c1.19-2.9-2.03-5.68-2.29-8.6c-0.14-1.58,0.57-2.87,0.93-4.36c0.48-2.03,0.2-4.22,0.11-6.28c-0.09-1.99-0.01-4.08-0.28-6.05
		c-0.33-2.38-1.75-3.06-2.4-4.99c-1.13-3.36,2.93-5.05,2.84-8.12c0-0.02,0.01-0.05,0.01-0.07c-0.25-0.26-0.36-0.63-0.19-1.08
		c0.06-0.18-2.14-2.27-2.27-3.03c-0.27-1.56,0.77-3.58,1.39-4.93c0.87-1.88,1.64-2.55,1.53-3.9c-0.08-0.95-0.45-0.85-0.52-1.89
		c-0.08-1.24,0.42-1.81,0.61-3.68C11.33,0.29,10.57-0.14,10.57-0.42z"/>
	<path class="st3" d="M90.77-0.42h2.51c-0.16,1.65-0.25,3.39-0.38,5.04c-0.18,2.17,0.94,3.44,1.42,5.43
		c1.02,4.28-3.53,7.33-1.49,11.62c1.49,3.13,0.85,4.63,0.01,7.87c-0.75,2.87,2.14,5.43,0.77,8.13c0.05,0.18,0.07,0.38,0.02,0.6
		c-0.48,2.41-2.45,4.74-2.51,7.18c-0.06,2.55,2.44,4.38,2.85,6.84c0.3,1.81-0.36,3.44-1.09,5.04c-0.63,1.37-1.53,2.73-1.54,4.31
		c-0.01,1.4,0.75,2.7,1.24,3.96c0.75,1.95,1.08,3.74,0.76,5.83c-0.23,1.5-0.86,2.81-1.24,4.25c-0.51,1.97-0.4,2.81,0.58,4.4
		c0.99,1.6,1.1,3.16,0.73,4.99c-0.36,1.75-1.37,3.41-0.91,5.28c0.32,1.3,1.27,2.43,2.07,3.47c0.36,0.46,0.29,0.92,0.01,1.25
		c0.4,2.65-0.93,4.56-2.6,6.62c-1.64,2.03-2.68,4.34-0.59,6.36c0.78,0.75,1.68,1.37,2.29,2.29c1.4,2.13,0.89,4.58-0.07,6.78
		c-0.88,2-2.25,3.81-1.74,6.08c0.29,1.32,1.27,2.36,1.36,3.75c0.09,1.34-0.8,2.44-0.66,3.79c0.14,1.29,0.86,2.29,0.75,3.66
		c-0.24,2.84-3.24,5.71-1.86,8.53c1.21,2.49,2.74,3.42,1.75,6.35c-0.21,0.61-0.62,1.21-0.71,1.86c-0.16,1.24,0.62,2.6,0.77,3.84
		c0.06,0.49,0.07,0.97,0.02,1.43h-2.53c0.09-1.53-0.58-2.71-0.72-4.34c-0.1-1.16,0.37-1.99,0.65-3.07c0.56-2.25-0.34-3.04-1.35-4.83
		c-0.13-0.22-0.24-0.45-0.34-0.68v-0.01c-0.29-0.69-0.44-1.41-0.42-2.17c0.02-0.67,0.17-1.32,0.39-1.95c0,0,0,0,0-0.01
		c0.73-2.06,2.17-3.96,1.86-6.18c-0.17-1.16-0.88-2.13-0.78-3.35c0.13-1.6,0.86-2.4,0.15-4.05c-1.06-2.47-1.3-4.13-0.25-6.72
		c0.64-1.57,1.96-3.25,2.03-4.97c0.09-2.03-0.99-3.03-2.35-4.3c-0.25-0.23-0.48-0.47-0.7-0.72c-1.12-1.25-1.79-2.7-1.42-4.5
		c0.2-0.98,0.75-1.88,1.42-2.76c0,0,0,0,0-0.01c1.57-2.07,3.73-4.01,3.19-6.51c-0.06-0.23-0.04-0.44,0.02-0.62
		c-1.31-1.76-2.39-3.63-2.21-5.92c0.11-1.35,0.68-2.59,0.98-3.9c0.43-1.92-0.2-2.87-1.07-4.47c-1.07-1.94-0.84-3.32-0.12-5.35
		c1.32-3.73,1.42-6.29-0.01-9.94c-0.89-2.25-1.05-4.16-0.17-6.44c0.43-1.1,1.06-2.11,1.48-3.21c0.81-2.13,0.4-3.4-0.72-5.36
		c-0.64-1.12-1.21-2.14-1.46-3.27c-0.17-0.74-0.21-1.51-0.06-2.37c0.02-0.1,0.04-0.19,0.06-0.29c0-0.01,0-0.01,0-0.01
		c0.45-2.1,1.72-3.92,2.29-5.99c-0.23-0.33-0.27-0.76,0.04-1.19c0.94-1.3-1.04-4.16-1.08-5.73c-0.03-1.23,0.42-2.4,0.78-3.55
		c0.32-1.02,0.8-2.26,0.55-3.36c-0.25-1.07-1.19-2.05-1.55-3.11c-0.34-1-0.4-1.98-0.21-3.02c0.39-2.07,1.94-3.83,2.18-5.9
		c0.28-2.31-1.28-3.55-1.62-5.65c-0.21-1.3,0.36-2.46,0.38-3.74C90.61,1.75,90.75,0.69,90.77-0.42z"/>
	<path class="st4" d="M34.61,148.15c0,3.87,6.01,3.87,6.01,0C40.62,144.28,34.61,144.28,34.61,148.15z"/>
	<path class="st4" d="M29.05,147.23c0,2.74,4.26,2.75,4.26,0C33.31,144.49,29.05,144.48,29.05,147.23z"/>
	<path class="st4" d="M28.62,131.61c0,3.7,5.74,3.7,5.74,0C34.36,127.91,28.62,127.9,28.62,131.61z"/>
	<path class="st4" d="M47.77,127.93c0,3.88,6.03,3.89,6.03,0C53.8,124.05,47.77,124.04,47.77,127.93z"/>
	<path class="st4" d="M64.6,138.96c0,4.3,6.68,4.3,6.68,0C71.28,134.66,64.6,134.65,64.6,138.96z"/>
	<path class="st4" d="M45.78,146.31c0,3.68,5.72,3.69,5.72,0C51.5,142.63,45.78,142.62,45.78,146.31z"/>
	<path class="st4" d="M68.18,149.68c0,2.85,4.43,2.85,4.43,0C72.61,146.83,68.18,146.82,68.18,149.68z"/>
	<path class="st4" d="M80.82,150.29c0,3.93,6.1,3.93,6.1,0C86.92,146.36,80.82,146.36,80.82,150.29z"/>
	<path class="st4" d="M77,131.61c0,4.11,6.39,4.12,6.39,0C83.39,127.49,77,127.49,77,131.61z"/>
	<path class="st4" d="M74.08,119.23c-0.51,0.19-0.9,0.64-0.9,1.34c0,0.7,0.4,1.15,0.9,1.34c1.21,2.5,5.79,2.06,5.79-1.34
		C79.86,117.18,75.29,116.73,74.08,119.23z"/>
	<path class="st4" d="M61.57,111.08c0,3.46,5.38,3.47,5.38,0C66.96,107.62,61.57,107.61,61.57,111.08z"/>
	<path class="st4" d="M35.04,113.84c0,3.71,5.77,3.72,5.77,0C40.81,110.13,35.04,110.12,35.04,113.84z"/>
	<path class="st4" d="M32.8,106.18c0,3.83,5.96,3.84,5.96,0C38.76,102.35,32.8,102.34,32.8,106.18z"/>
	<path class="st4" d="M31.41,92.4c0,4.05,6.29,4.06,6.29,0C37.7,88.35,31.41,88.34,31.41,92.4z"/>
	<path class="st4" d="M28.77,80.14c0,3.9,6.05,3.9,6.05,0C34.82,76.25,28.77,76.24,28.77,80.14z"/>
	<path class="st4" d="M25.62,89.33c0,3.62,5.62,3.62,5.62,0C31.24,85.72,25.62,85.71,25.62,89.33z"/>
	<path class="st4" d="M25.68,101.59c0,3.93,6.1,3.93,6.1,0C31.78,97.66,25.68,97.65,25.68,101.59z"/>
	<path class="st4" d="M56.45,92.4c0,4.14,6.44,4.15,6.44,0C62.89,88.25,56.45,88.25,56.45,92.4z"/>
	<path class="st4" d="M70.96,100.36c0,3.6,5.6,3.61,5.6,0C76.56,96.76,70.96,96.75,70.96,100.36z"/>
	<path class="st4" d="M66.55,81.98c0,4.16,6.46,4.16,6.46,0C73.01,77.82,66.55,77.82,66.55,81.98z"/>
	<path class="st4" d="M43.11,97.3c0,2.79,4.33,2.79,4.33,0C47.44,94.51,43.11,94.51,43.11,97.3z"/>
	<path class="st4" d="M36.76,66.67c0,4.65,7.23,4.66,7.23,0C43.99,62.02,36.76,62.01,36.76,66.67z"/>
	<path class="st4" d="M62.93,70.65c0,3.3,5.12,3.3,5.12,0C68.05,67.35,62.93,67.35,62.93,70.65z"/>
	<path class="st4" d="M69.55,60.54c0,2.66,4.14,2.67,4.14,0C73.69,57.88,69.55,57.87,69.55,60.54z"/>
	<path class="st4" d="M74.99,43.08c0,1.32,1.38,1.75,2.28,1.3c0.08,1.72,2.79,1.7,2.79-0.08c0-1.17-1.18-1.58-2.01-1.22c0,0,0,0,0,0
		C78.05,41.11,74.99,41.11,74.99,43.08z"/>
	<path class="st4" d="M53.23,44.31c0,3.96,6.15,3.96,6.15,0C59.38,40.35,53.23,40.34,53.23,44.31z"/>
	<path class="st4" d="M37.56,40.94c-1.96-1.1-5.09-0.19-5.09,2.75c0,4.27,6.63,4.27,6.63,0c0-0.44-0.07-0.84-0.2-1.19
		c0.64-0.02,1.26-0.44,1.26-1.27C40.16,39.66,37.85,39.56,37.56,40.94z"/>
	<path class="st4" d="M22.43,39.1c0,2.2,3.42,2.21,3.42,0C25.85,36.9,22.43,36.89,22.43,39.1z"/>
	<path class="st4" d="M31.49,32.36c0,1.97,3.06,1.97,3.06,0C34.55,30.39,31.49,30.38,31.49,32.36z"/>
	<path class="st4" d="M32.99,21.02c0,3.99,6.2,3.99,6.2,0C39.18,17.04,32.99,17.03,32.99,21.02z"/>
	<path class="st4" d="M24.87,58.7c0,4.19,6.51,4.2,6.51,0C31.38,54.51,24.87,54.51,24.87,58.7z"/>
	<path class="st4" d="M49.75,19.19c0,4.5,6.99,4.5,6.99,0C56.73,14.69,49.75,14.68,49.75,19.19z"/>
	<path class="st4" d="M65.33,29.6c0,3.76,5.84,3.76,5.84,0C71.17,25.84,65.33,25.84,65.33,29.6z"/>
	<path class="st4" d="M77.58,18.15c-0.82-0.77-2.55-0.43-2.55,1.03c0,1.02,0.85,1.49,1.63,1.42c0.21,3.96,6.45,3.9,6.45-0.2
		C83.12,17.24,79.37,16.49,77.58,18.15z"/>
	<path class="st4" d="M69.41,6.86c-0.6-1-2.51-0.78-2.51,0.69c0,1.6,2.28,1.72,2.64,0.38c0.95,3.39,6.73,3.07,6.73-0.99
		C76.28,2.54,69.49,2.51,69.41,6.86z"/>
	<path class="st4" d="M54.4,1.73c0,0.08,0.01,0.15,0.02,0.23c-1.92-0.45-4.24,0.59-4.24,3.14c0,4.33,6.72,4.33,6.72,0
		c0-0.93-0.31-1.66-0.8-2.19c0.48-0.14,0.87-0.53,0.87-1.18C56.97,0.07,54.4,0.07,54.4,1.73z"/>
	<path class="st4" d="M34.76,10.3c0,3.28,5.1,3.29,5.1,0C39.86,7.02,34.76,7.02,34.76,10.3z"/>
	<path class="st4" d="M22.1,9.69c0,3.8,5.91,3.81,5.91,0C28.01,5.89,22.1,5.88,22.1,9.69z"/>
	<path class="st5" d="M24.78,144.16c0,2.73,4.24,2.73,4.24,0C29.01,141.44,24.78,141.43,24.78,144.16z"/>
	<path class="st5" d="M23.61,149.68c0,3.05,4.74,3.05,4.74,0C28.35,146.63,23.61,146.62,23.61,149.68z"/>
	<path class="st5" d="M48.87,149.37c0,4.05,6.29,4.06,6.29,0C55.16,145.32,48.87,145.32,48.87,149.37z"/>
	<path class="st5" d="M64.57,149.07v0.61c0,0.8,0.7,1.57,1.53,1.53c0.83-0.04,1.53-0.67,1.53-1.53v-0.61c0-0.8-0.7-1.57-1.53-1.53
		C65.27,147.57,64.57,148.21,64.57,149.07z"/>
	<path class="st5" d="M58.16,137.73c0,3.91,6.08,3.92,6.08,0C64.24,133.82,58.16,133.81,58.16,137.73z"/>
	<path class="st5" d="M45.81,129.77c0,2.46,3.83,2.47,3.83,0C49.64,127.3,45.81,127.3,45.81,129.77z"/>
	<path class="st5" d="M59.37,121.8c0,1.97,3.06,1.97,3.06,0C62.43,119.83,59.37,119.83,59.37,121.8z"/>
	<path class="st5" d="M24.71,123.64c0,4.39,6.82,4.4,6.82,0C31.53,119.25,24.71,119.25,24.71,123.64z"/>
	<path class="st5" d="M40.93,106.49c0,4.02,6.25,4.03,6.25,0C47.17,102.47,40.93,102.46,40.93,106.49z"/>
	<path class="st5" d="M67.64,111.69c0,1.97,3.06,1.97,3.06,0C70.7,109.72,67.64,109.72,67.64,111.69z"/>
	<path class="st5" d="M77.99,130.07c0,3.23,5.03,3.24,5.03,0C83.01,126.84,77.99,126.84,77.99,130.07z"/>
	<path class="st5" d="M73.5,96.73c-0.05,0.06-0.09,0.11-0.14,0.17c-0.3,0.38-0.55,0.74-0.7,1.2c-0.19,0.58-0.09,1.23,0.14,1.78
		c0.4,0.96,1.41,1.73,2.49,1.68c0.95-0.04,1.86-0.51,2.36-1.35c0.31-0.53,0.4-1.14,0.32-1.74c0-0.25-0.06-0.48-0.19-0.69
		c-0.11-0.34-0.3-0.63-0.56-0.88c-0.05-0.06-0.09-0.11-0.14-0.17c-0.36-0.46-1.23-0.77-1.79-0.74
		C74.67,96.01,73.91,96.21,73.5,96.73z"/>
	<path class="st5" d="M67.66,83.82c0,3.91,6.08,3.92,6.08,0C73.74,79.91,67.66,79.9,67.66,83.82z"/>
	<path class="st5" d="M48.89,90.87c0,4.02,6.25,4.03,6.25,0C55.14,86.85,48.89,86.84,48.89,90.87z"/>
	<path class="st5" d="M44.15,74.32c0,3.82,5.93,3.83,5.93,0C50.08,70.51,44.15,70.5,44.15,74.32z"/>
	<path class="st5" d="M56.3,73.1c0,1.97,3.06,1.97,3.06,0C59.37,71.13,56.3,71.12,56.3,73.1z"/>
	<path class="st5" d="M58.36,56.38c-0.15-0.75-1-1.37-1.75-1.34c-0.59,0.03-1.22,0.34-1.55,0.85c-0.47,0.2-0.83,0.62-0.83,1.28
		c0,0.78,0.5,1.23,1.09,1.36c0.36,0.32,0.8,0.52,1.29,0.52c0.23,0,0.46-0.05,0.67-0.13c-0.04,0.22-0.07,0.46-0.07,0.71
		c0,4.34,6.75,4.35,6.75,0c0-3.15-3.55-4.02-5.5-2.59c-0.01-0.12-0.02-0.24-0.04-0.36C58.4,56.57,58.38,56.48,58.36,56.38z"/>
	<path class="st5" d="M46.81,51.66c0,1.97,3.06,1.97,3.06,0C49.87,49.69,46.81,49.68,46.81,51.66z"/>
	<path class="st5" d="M27.52,70.34c0,1.37,0.74,2.26,1.7,2.67c-0.45,0.22-0.8,0.65-0.8,1.31c0,1.97,3.06,1.97,3.06,0
		c0-0.47-0.18-0.82-0.44-1.07c1.35-0.18,2.57-1.15,2.57-2.91C33.62,66.42,27.52,66.41,27.52,70.34z"/>
	<path class="st5" d="M65.71,68.5c0,4.05,6.29,4.06,6.29,0C72.01,64.45,65.71,64.45,65.71,68.5z"/>
	<path class="st5" d="M77.2,62.68c0,3.85,5.98,3.86,5.98,0C83.19,58.83,77.2,58.83,77.2,62.68z"/>
	<path class="st5" d="M74.72,39.71c0,3.9,6.05,3.9,6.05,0C80.77,35.81,74.72,35.81,74.72,39.71z"/>
	<path class="st5" d="M70.1,34.2c0,0.45,0.08,0.84,0.22,1.19c-0.83-0.3-1.95,0.12-1.95,1.26c0,1.81,2.81,1.81,2.81,0
		c0-0.05-0.01-0.1-0.01-0.15c1.75,1.34,5.03,0.58,5.03-2.3C76.2,30.27,70.1,30.26,70.1,34.2z"/>
	<path class="st5" d="M54.41,37.57c0,3.22,5,3.22,5,0C59.42,34.35,54.41,34.34,54.41,37.57z"/>
	<path class="st5" d="M45.27,26.23c0,4.34,6.75,4.35,6.75,0C52.02,21.89,45.27,21.88,45.27,26.23z"/>
	<path class="st5" d="M32.42,31.68c-1.76-0.49-3.98,0.45-3.98,2.82c0,2.63,2.74,3.5,4.54,2.61c2.07,1.16,5.38,0.19,5.38-2.91
		C38.37,30.8,34.38,29.96,32.42,31.68z"/>
	<path class="st5" d="M43.07,15.2c0,4.42,6.87,4.43,6.87,0c0-0.31-0.04-0.6-0.1-0.86c0.2,0.02,0.42-0.1,0.42-0.36
		c0-0.37-0.42-0.46-0.64-0.28C48.26,10.86,43.07,11.36,43.07,15.2z"/>
	<path class="st5" d="M28.69,10.61c0,1.28,0.64,2.15,1.51,2.61c-0.69,0.03-1.35,0.48-1.35,1.37c0,1.83,2.84,1.83,2.84,0
		c0-0.45-0.17-0.79-0.44-1.02c1.71,0.26,3.66-0.72,3.66-2.96C34.91,6.61,28.69,6.6,28.69,10.61z"/>
	<path class="st5" d="M64.8,12.75c0,2.46,3.83,2.47,3.83,0C68.63,10.29,64.8,10.29,64.8,12.75z"/>
	<path class="st5" d="M72.82,15.2c0,3.19,4.95,3.19,4.95,0C77.77,12.02,72.82,12.01,72.82,15.2z"/>
	<path class="st5" d="M54.48,10.61c0,3.53,5.48,3.53,5.48,0C59.96,7.08,54.48,7.08,54.48,10.61z"/>
	<path class="st5" d="M30.07,2.34c0,2.22,3.45,2.22,3.45,0C33.52,0.12,30.07,0.12,30.07,2.34z"/>
	<path class="st5" d="M29.27,154.27c0,1.28,1.98,1.28,1.98,0C31.26,153,29.27,153,29.27,154.27z"/>
	<path class="st5" d="M33.91,150.9c0,0.04,0.06,0.04,0.06,0C33.97,150.86,33.91,150.86,33.91,150.9z"/>
	<path class="st5" d="M47.08,153.35c0,0.04,0.06,0.04,0.06,0C47.14,153.31,47.08,153.31,47.08,153.35z"/>
	<path class="st5" d="M51.98,154.27c0,0.04,0.06,0.04,0.06,0C52.04,154.23,51.98,154.23,51.98,154.27z"/>
	<path class="st5" d="M51.06,155.5c0,0.04,0.06,0.04,0.06,0C51.13,155.46,51.06,155.46,51.06,155.5z"/>
	<path class="st5" d="M67.91,155.19c0,0.04,0.06,0.04,0.06,0C67.97,155.15,67.91,155.15,67.91,155.19z"/>
	<path class="st5" d="M66.99,146.31c0,0.04,0.06,0.04,0.06,0C67.05,146.27,66.99,146.27,66.99,146.31z"/>
	<path class="st5" d="M64.24,143.25c0,0.04,0.06,0.04,0.06,0C64.3,143.21,64.24,143.21,64.24,143.25z"/>
	<path class="st5" d="M55.66,141.1c0,0.04,0.06,0.04,0.06,0C55.72,141.06,55.66,141.06,55.66,141.1z"/>
	<path class="st5" d="M57.26,151.82c0,0.74,1.15,0.74,1.15,0C58.41,151.08,57.26,151.08,57.26,151.82z"/>
	<path class="st5" d="M59.22,152.17c-0.61-0.03-1.24,0.69-0.99,1.3c0.05,0.12,0.1,0.23,0.16,0.33c0.01,0.04,0.05,0.12,0.12,0.27
		c0.14,0.22,0.33,0.37,0.53,0.53c0.58,0.49,1.4,0.51,1.9-0.13c0.46-0.6,0.3-1.47-0.36-1.87c-0.12-0.07-0.25-0.16-0.38-0.23
		c-0.2-0.1-0.37-0.14-0.56-0.15C59.51,152.21,59.37,152.18,59.22,152.17z"/>
	<path class="st5" d="M57.3,145.39c0,1.47,2.28,1.47,2.28,0C59.59,143.92,57.3,143.92,57.3,145.39z"/>
	<path class="st5" d="M60.51,130.38c-0.04,0.71,0.04,1.43,0.08,2.14c0.05,0.79,0.75,1.4,1.55,1.18c0.78-0.21,1.11-1.11,0.73-1.8
		c-0.34-0.63-0.66-1.28-1.07-1.88C61.41,129.46,60.54,129.67,60.51,130.38z"/>
	<path class="st5" d="M55.97,127.32c0,0.04,0.06,0.04,0.06,0C56.03,127.28,55.97,127.28,55.97,127.32z"/>
	<path class="st5" d="M49.84,123.03c0,0.04,0.06,0.04,0.06,0C49.9,122.99,49.84,122.99,49.84,123.03z"/>
	<path class="st5" d="M55.97,116.29c0,0.04,0.06,0.04,0.06,0C56.03,116.25,55.97,116.25,55.97,116.29z"/>
	<path class="st5" d="M58.72,110.16c0,0.04,0.06,0.04,0.06,0C58.78,110.12,58.72,110.12,58.72,110.16z"/>
	<path class="st5" d="M58.38,105.57c0,0.87,1.35,0.87,1.35,0C59.73,104.7,58.38,104.7,58.38,105.57z"/>
	<path class="st5" d="M46.66,118.29c-0.06,0.13-0.12,0.25-0.18,0.38c-0.33,0.68,0.33,1.34,1.01,1.01c0.13-0.06,0.25-0.12,0.38-0.18
		c0.52-0.25,0.56-1.01,0.18-1.39C47.67,117.74,46.91,117.78,46.66,118.29z"/>
	<path class="st5" d="M41.01,124.23c0.19,0.22,0.37,0.45,0.56,0.67c0.4,0.48,1.16-0.28,0.68-0.68c-0.22-0.19-0.45-0.37-0.67-0.56
		C41.18,123.33,40.68,123.83,41.01,124.23z"/>
	<path class="st5" d="M67.03,101.28c0,1.96,3.04,1.96,3.04,0C70.08,99.32,67.03,99.32,67.03,101.28z"/>
	<path class="st5" d="M70.86,94.23c0,2.16,3.36,2.17,3.36,0C74.22,92.07,70.86,92.07,70.86,94.23z"/>
	<path class="st5" d="M75.59,85.66c0,1.2,1.87,1.2,1.87,0C77.45,84.46,75.59,84.45,75.59,85.66z"/>
	<path class="st5" d="M80.91,86.88c0,1.45,2.25,1.45,2.25,0C83.16,85.43,80.91,85.43,80.91,86.88z"/>
	<path class="st5" d="M79.56,90.87c0,2,3.12,2.01,3.12,0C82.67,88.86,79.56,88.86,79.56,90.87z"/>
	<path class="st5" d="M78.42,97.91c0,1.88,2.93,1.89,2.93,0C81.35,96.03,78.42,96.02,78.42,97.91z"/>
	<path class="st5" d="M63.86,88.11c0,1.7,2.64,1.7,2.64,0C66.51,86.41,63.86,86.41,63.86,88.11z"/>
	<path class="st5" d="M49.72,78c0,0.59,0.92,0.59,0.92,0C50.64,77.41,49.72,77.41,49.72,78z"/>
	<path class="st5" d="M40.59,77.08c0,1.69,2.63,1.69,2.63,0C43.22,75.39,40.59,75.39,40.59,77.08z"/>
	<path class="st5" d="M42.88,87.8c0,1.9,2.96,1.91,2.96,0C45.83,85.9,42.88,85.9,42.88,87.8z"/>
	<path class="st5" d="M47.49,68.5c0,1.88,2.93,1.89,2.93,0C50.42,66.62,47.49,66.62,47.49,68.5z"/>
	<path class="st5" d="M53.74,51.66c0,2.12,3.29,2.12,3.29,0C57.03,49.54,53.74,49.54,53.74,51.66z"/>
	<path class="st5" d="M37.92,48.29c0,1.58,2.46,1.58,2.46,0C40.38,46.71,37.92,46.7,37.92,48.29z"/>
	<path class="st5" d="M30.3,52.88c0,1.92,2.99,1.92,2.99,0C33.29,50.96,30.3,50.96,30.3,52.88z"/>
	<path class="st5" d="M32.17,44.92c0,1.88,2.93,1.89,2.93,0C35.1,43.03,32.17,43.03,32.17,44.92z"/>
	<path class="st5" d="M44.33,40.32c0,0.04,0.06,0.04,0.06,0C44.39,40.28,44.33,40.28,44.33,40.32z"/>
	<path class="st5" d="M62.7,36.95c0,0.04,0.06,0.04,0.06,0C62.77,36.91,62.7,36.91,62.7,36.95z"/>
	<path class="st5" d="M69.28,50.74c0,1.82,2.83,1.82,2.83,0C72.11,48.92,69.28,48.91,69.28,50.74z"/>
	<path class="st5" d="M68.9,41.55c0,1.52,2.37,1.53,2.37,0C71.27,40.02,68.9,40.02,68.9,41.55z"/>
	<path class="st5" d="M69.94,26.23c0,0.98,1.52,0.98,1.52,0C71.46,25.25,69.94,25.25,69.94,26.23z"/>
	<path class="st5" d="M67.35,15.81c-0.31,0.02-0.64,0.16-0.79,0.45c-0.19,0.38-0.22,0.74-0.07,1.13c0.02,0.05,0.04,0.1,0.06,0.15
		c0,0.04-0.01,0.07-0.01,0.11c0,1.8,2.8,1.8,2.8,0c0-0.64-0.35-1.05-0.81-1.23C68.21,16.09,67.85,15.78,67.35,15.81z"/>
	<path class="st5" d="M58.43,24.09c0,2,3.1,2,3.1,0C61.53,22.09,58.43,22.09,58.43,24.09z"/>
	<path class="st5" d="M60.83,21.02c0,2.06,3.2,2.06,3.2,0C64.03,18.96,60.83,18.96,60.83,21.02z"/>
	<path class="st5" d="M33.02,14.53c-0.07,0-0.07,0.11,0,0.11c0.2,0,0.41,0.01,0.61,0.01c0.09,0,0.09-0.15,0-0.14
		C33.43,14.53,33.23,14.53,33.02,14.53z"/>
	<path class="st5" d="M29.97,21.94c0,1.17,1.82,1.18,1.82,0C31.79,20.77,29.97,20.77,29.97,21.94z"/>
	<path class="st5" d="M26.74,25.31c0,1.38,2.14,1.38,2.14,0C28.88,23.94,26.74,23.93,26.74,25.31z"/>
	<path class="st5" d="M37.51,6.32c0,1.71,2.66,1.71,2.66,0C40.17,4.61,37.51,4.61,37.51,6.32z"/>
	<path class="st5" d="M46.16,5.4c0,2.01,3.13,2.02,3.13,0C49.29,3.39,46.16,3.39,46.16,5.4z"/>
	<path class="st5" d="M47.49,1.11c0,1.09,1.69,1.09,1.69,0C49.19,0.02,47.49,0.02,47.49,1.11z"/>
	<path class="st5" d="M62.09,1.42c0,0.04,0.06,0.04,0.06,0C62.15,1.38,62.09,1.38,62.09,1.42z"/>
	<path class="st5" d="M72.54,3.16c-0.13,0.01-0.13,0.19,0,0.2c0.1,0.01,0.2,0.01,0.31,0.02c0.16,0.01,0.16-0.26,0-0.24
		C72.74,3.14,72.64,3.15,72.54,3.16z"/>
	<path class="st5" d="M75.91,6.67c-0.34,0.03-0.34,0.5,0,0.53c0.2,0.02,0.41,0.03,0.61,0.05c0.41,0.03,0.41-0.67,0-0.63
		C76.31,6.64,76.11,6.65,75.91,6.67z"/>
	<path class="st5" d="M73.73,6.32c0,0.04,0.06,0.04,0.06,0C73.79,6.28,73.73,6.28,73.73,6.32z"/>
	<path class="st5" d="M74.06,4.79c0,0.65,0.57,1.26,1.23,1.23c0.67-0.03,1.23-0.54,1.23-1.23c0-0.65-0.57-1.26-1.23-1.23
		C74.62,3.59,74.06,4.1,74.06,4.79z"/>
	<path class="st5" d="M78.94,4c-0.23,0.12-0.46,0.24-0.68,0.37c-0.45,0.26-0.75,0.74-0.6,1.27c0.14,0.53,0.65,0.78,1.16,0.79
		c0.26,0,0.52-0.01,0.78-0.02c0.83-0.03,1.47-0.81,1.25-1.64C80.61,3.95,79.67,3.61,78.94,4z"/>
	<path class="st5" d="M26.44,109.55c0,0.56,0.49,1.1,1.07,1.07c0.58-0.03,1.07-0.47,1.07-1.07c0-0.56-0.49-1.1-1.07-1.07
		C26.93,108.51,26.44,108.95,26.44,109.55z"/>
	<circle class="st4" cx="33.63" cy="134.98" r="0.88"/>
	<path class="st4" d="M35.57,139.57c0,1.85,2.87,1.85,2.87,0C38.44,137.72,35.57,137.72,35.57,139.57z"/>
	<path class="st4" d="M25.11,137.13c-0.21,0.76,0.38,1.51,1.16,1.53c0.47,0.01,0.94,0.08,1.34-0.18c0.11-0.05,0.21-0.11,0.3-0.2
		c0.19-0.17,0.27-0.49,0.19-0.73c-0.04-0.12-0.09-0.22-0.16-0.32c-0.21-0.42-0.66-0.6-1.07-0.82
		C26.21,136.03,25.32,136.37,25.11,137.13z"/>
	<path class="st4" d="M53.54,131.3c0,1.98,3.07,1.98,3.07,0C56.61,129.32,53.54,129.32,53.54,131.3z"/>
	<path class="st4" d="M74.64,136.81c0,1.63,2.53,1.63,2.53,0C77.17,135.19,74.64,135.18,74.64,136.81z"/>
	<path class="st4" d="M77.08,104.96c0,1.64,2.56,1.65,2.56,0C79.64,103.31,77.08,103.31,77.08,104.96z"/>
	<path class="st4" d="M72.87,107.1c0,1.54,2.4,1.55,2.4,0C75.27,105.56,72.87,105.55,72.87,107.1z"/>
	<path class="st4" d="M54.91,116.9c0,1.79,2.79,1.8,2.79,0C57.7,115.11,54.91,115.11,54.91,116.9z"/>
	<path class="st4" d="M50.22,108.94c0,1.91,2.97,1.92,2.97,0C53.19,107.03,50.22,107.02,50.22,108.94z"/>
	<path class="st4" d="M58.59,81.06c0,1.78,2.77,1.79,2.77,0C61.36,79.28,58.59,79.28,58.59,81.06z"/>
	<path class="st4" d="M51.16,83.21c0,1.88,2.93,1.89,2.93,0C54.09,81.32,51.16,81.32,51.16,83.21z"/>
	<path class="st4" d="M55.17,72.79c0,1.85,2.87,1.85,2.87,0C58.04,70.94,55.17,70.94,55.17,72.79z"/>
	<path class="st4" d="M68.25,72.18c0,1.57,2.44,1.57,2.44,0C70.69,70.61,68.25,70.61,68.25,72.18z"/>
	<path class="st4" d="M74.86,58.4c0,1.75,2.71,1.75,2.71,0C77.57,56.65,74.86,56.65,74.86,58.4z"/>
	<path class="st4" d="M26.39,10.3c0,1.84,2.86,1.84,2.86,0C29.24,8.47,26.39,8.46,26.39,10.3z"/>
	<path class="st4" d="M52.39,48.29c0,1.49,2.31,1.49,2.31,0C54.7,46.8,52.39,46.8,52.39,48.29z"/>
	<path class="st4" d="M55.71,53.19c0,1.95,3.03,1.95,3.03,0C58.74,51.24,55.71,51.24,55.71,53.19z"/>
	<path class="st4" d="M49.62,66.36c0,1.9,2.96,1.91,2.96,0C52.57,64.46,49.62,64.45,49.62,66.36z"/>
	<path class="st4" d="M47.98,60.85c0,1.64,2.56,1.65,2.56,0C50.53,59.2,47.98,59.2,47.98,60.85z"/>
	<path class="st4" d="M44.71,58.09c0,1.91,2.97,1.92,2.97,0C47.68,56.18,44.71,56.17,44.71,58.09z"/>
</g>
</svg>
