<?xml version="1.0" encoding="utf-8"?>
<!-- Generator: Adobe Illustrator 25.2.3, SVG Export Plug-In . SVG Version: 6.00 Build 0)  -->
<svg version="1.1" id="Layer_1" xmlns="http://www.w3.org/2000/svg" xmlns:xlink="http://www.w3.org/1999/xlink" x="0px" y="0px"
	 viewBox="0 0 156.83 156.83" style="enable-background:new 0 0 156.83 156.83;" xml:space="preserve">
<style type="text/css">
	.st0{fill:#D6AD29;}
	.st1{fill:#A5B508;}
	.st2{fill:#B79D1D;}
	.st3{fill:#557507;}
	.st4{fill:#C6A028;}
	.st5{fill:#E2BD23;}
</style>
<g>
	<path class="st0" d="M15.7,0h73.2c-0.16,19.1,9.5,36.97,24.03,49.04c0,0,0,0,0.01,0.01c2.11,1.76,4.33,3.39,6.64,4.88
		c0.01,0,0.01,0,0.01,0.01c0.59,0.39,1.19,0.76,1.79,1.12c2.11,1.28,4.29,2.45,6.52,3.48h0.01c2.33,1.09,4.72,2.04,7.15,2.84
		c3.95,1.3,8.02,2.22,12.17,2.7c0.01-0.01,0.01,0,0.01,0c0.5,0.06,0.98,0.12,1.48,0.15c0,0,0,0,0.01,0
		c2.26,0.21,4.54,0.29,6.83,0.23c0.23-0.01,0.46-0.01,0.69-0.02c0.01-0.01,0.01-0.01,0.02,0c0.18-0.01,0.37-0.01,0.56-0.02v78.2
		c-16.45-0.92-32.79-3.95-48.35-9.41c-11.89-4.16-23.37-9.69-34.02-16.45c-1.82-1.14-3.61-2.33-5.38-3.57
		c-0.22-0.14-0.43-0.29-0.66-0.45c-0.2-0.14-0.39-0.28-0.59-0.42c-1.56-1.11-3.07-2.27-4.54-3.48c-0.45-0.36-0.88-0.73-1.32-1.09
		c-0.77-0.66-1.53-1.33-2.28-2c-2.09-1.89-4.08-3.88-6-5.93c-0.87-0.92-1.71-1.86-2.55-2.81c-1.82-2.08-3.59-4.22-5.3-6.41
		c-0.71-0.91-1.41-1.83-2.1-2.75c-1.16-1.54-2.29-3.1-3.4-4.67c-0.98-1.38-1.94-2.76-2.89-4.16c-0.1-0.15-0.2-0.3-0.31-0.45
		c-1.18-1.74-2.33-3.5-3.45-5.29c-1.46-2.35-2.87-4.74-4.22-7.18c-1.18-2.14-2.31-4.32-3.39-6.52c-0.43-0.88-0.85-1.77-1.26-2.65
		c-1.05-2.27-2.03-4.57-2.95-6.89c-0.5-1.27-0.98-2.54-1.44-3.83c-1.02-2.89-1.94-5.8-2.72-8.75c-0.3-1.13-0.58-2.27-0.84-3.4
		c-0.43-1.88-0.81-3.77-1.13-5.67c-0.37-2.15-0.66-4.32-0.86-6.49c-0.17-1.72-0.28-3.44-0.34-5.17C14.35,11.19,14.7,5.58,15.7,0z"/>
	<path class="st1" d="M85.75,0h18.98c0.31,2.15-0.4,4.56-1.46,6.28c-0.06,0.12-0.12,0.22-0.2,0.32c-0.15,0.42-0.38,0.83-0.72,1.22
		c-0.78,0.9-1.15,1.32-1.38,2.24c0.23,0.09,0.45,0.18,0.67,0.28c1.26,0.62,2.22,1.55,2.8,2.83c0.64,1.39,0.76,2.98,0.43,4.48
		c-0.19,0.84-1.21,2.01-0.39,2.47c0.87,0.5,1.26,1.43,1.24,2.35c1.21,1.15,2.31,2.56,3.29,3.82c0.73,0.95,1.38,1.96,1.69,3.13
		c0.09,0.61,0.18,1.2,0.25,1.8c-0.01,0.21-0.02,0.38-0.02,0.51c0.09-0.04,1.56,1.46,1.77,1.85c0.63,1.16,0.57,2.26,0.86,3.48
		c0.6,2.51,3.42,4.2,5.85,5.01h0.01c0.57,0.04,1.16,0.24,1.75,0.67c0.04,0.02,2.03-0.15,2.46-0.07c0.88,0.18,1.64,0.51,2.36,1.06
		c1.23,0.96,1.65,2.65,2.83,3.53c1.44,1.07,3.75,1.39,5.54,2.08c1.03-0.34,2.17-0.32,3.13,0.25c1.6,0.95,3.01,2.08,4.18,3.53
		c0.76,0.94,1.35,2.77,2.78,2.75c1.3-0.02,2.47-1.75,3.62-2.36c1.54-0.83,3.25-1.04,4.97-1.02h0.04c0.41-0.34,0.94-0.57,1.6-0.63
		c0.36-0.03,0.72-0.06,1.07-0.09c0.41-0.03,0.78-0.13,1.1-0.01v15.1c-1.78,0.77-4.22,0.65-5.98,0.73c-0.38,0.01-0.72-0.03-1.04-0.12
		c-2.14,0.42-3.87,0.28-5.58-0.68c-4.42,0.65-8.65-0.64-12.85-1.96c-3.69-1.17-7.65-2.51-10.61-5.09c-1.76-0.89-3.45-1.9-5.12-3.01
		c-2.68-1.78-5.78-3.61-6.61-6.92c-0.01-0.04-0.01-0.08-0.02-0.12c-2.72-2.21-5.37-4.52-7.63-7.21c-2.87-3.4-4.59-7.34-6.28-11.41
		c-0.32-0.77-0.34-1.47-0.16-2.07c-1.11-1.77-2.2-3.55-3.36-5.28c-1.78-2.64-3.25-5.26-4.21-8.11c-0.01-0.01-0.01-0.02-0.01-0.02
		c-0.54-1.57-0.92-3.22-1.13-4.97c-0.13-1.11,0.43-2.15,1.26-2.89c-0.56-1.36-1.14-2.71-1.58-4.1C85.48,2.27,85.45,1.03,85.75,0z"/>
	<path class="st2" d="M83.31,0h9.46c0.43,2.48,0.94,5,1.02,7.45c0.05,1.49-0.51,2.51-0.7,3.91c-0.27,1.93,0.67,1.54,1.47,2.81
		c1.29,2.06-0.06,4.66,0.77,6.88c0.55,1.47,2.12,2.19,3.1,3.36c0.77,0.92,1.33,1.96,1.89,3.01c0.3,0.57,0.22,1.12-0.05,1.54
		c1.68,1.44,3.09,3.44,3.91,5.39c0.5,1.19,0.43,2.63,0.95,3.75c0.59,1.29,2.16,1.98,3.23,2.92c1,0.88,1.6,1.5,2.82,2.06
		c0.77,0.35,1.34,0.94,1.82,1.63c2,2.9,1.42,6.18,5.45,7.4c2.78,0.84,4.06,2.72,6.52,4.08c2.76,1.52,6.21,0.78,9,2.35
		c1.54,0.87,2.68,2.35,4.39,2.94c1.62,0.56,3.6,0.49,5.3,0.64c1.44,0.12,2.91,0.18,4.33,0.45c2.07,0.39,4.18,1.82,6.36,1.49
		c0.53-0.09,0.96,0.12,1.25,0.44c0.03,0.03,0.06,0.07,0.09,0.1c0.2-0.05,0.4-0.09,0.61-0.13c0.01-0.01,0.01-0.01,0.02,0
		c0.18-0.04,0.37-0.07,0.56-0.1v9.03c-0.09,0.04-0.19,0.06-0.29,0.06c-0.04,0-0.09-0.01-0.12-0.01c-1.15,0.42-2.39,0.56-3.59,0.12
		c-1.61-0.6-2.6-1.47-4.45-1.63c-0.89-0.08-1.76,0.04-2.63-0.17c-0.69-0.17-1.21-0.51-1.83-0.81c-1.98-0.93-2.96-0.65-4.94-0.81
		c-1.73-0.14-2.41-0.8-3.81-1.53c-1.78-0.93-3.94-0.37-5.67-1.5c-0.62-0.41-0.88-1.14-1.41-1.53c-1.08-0.78-2.25-0.58-3.44-0.95
		c-1.37-0.42-2.01-1.17-2.94-2.08c-0.5-0.5-0.12-0.3-0.73-0.65c-0.7-0.4-1.89-0.52-2.69-0.89c-0.24-0.11-0.4-0.27-0.51-0.45
		c-2.06-0.05-2.78-2.51-4.82-3.19c-0.94-0.31-1.64-0.16-2.36-1c-0.77-0.88-0.6-2.33-1.35-3.15c-1.6-1.75-4.19-1.03-5.36-3.52
		c-0.61-1.29,0.09-1.58-0.94-3.17c-0.34-0.53-0.92-0.9-1.3-1.41c-0.7-0.93-0.73-1.64-1.1-2.66c-0.49-1.34-1.76-1.82-2.53-2.95
		c-0.95-1.41-1.35-2.47-2.63-3.64c-0.79-0.73-1.5-1.42-1.87-2.45c-0.58-1.63-0.92-2.4-2.3-3.6c-0.94-0.84-1.66-1.67-2-2.92
		c-0.11-0.41-0.01-1.26-0.2-1.59c-0.45-0.77-0.73-0.43-1.29-0.97c-2.01-1.93-1.2-5.26-0.89-7.76c0.05-0.43,0.25-0.75,0.52-0.97
		c-0.01-0.01-0.01-0.02-0.01-0.02c-0.18-0.4-0.39-0.76-0.66-1.09c-0.34-0.41-0.81-0.65-1.1-1.12c-0.83-1.32-0.4-3.06-0.81-4.52
		C83.9,5.68,83.2,3.07,83.31,0z"/>
	<path class="st1" d="M0.09,0h17.57c-0.01,0.5-0.05,1-0.13,1.54c-0.15,0.97-0.66,1.69-1.15,2.51c-0.04,0.06-0.08,0.11-0.12,0.17
		c0.4,0.78,0.51,1.74,0.14,2.85c-1.84,5.48,0.45,10.98,1.49,16.39c0.26,1.39-0.19,2.66-0.99,3.59c1.26,4.61,2.76,9.11,3.19,13.92
		c0.02,0.27,0.04,0.54,0.06,0.82c0.12,0.25,0.24,0.5,0.37,0.75c0.01,0.01,0.02,0.03,0.02,0.04c1.24,2.27,2.38,4.59,3.41,6.98
		c0.25,0.58,0.35,1.15,0.33,1.69c0.44,0.27,0.83,0.67,1.09,1.24c2.84,5.97,6.73,11.4,10.49,16.81c0.47,0.68,0.58,1.4,0.43,2.07
		c1.16,1.8,2.24,3.65,3.24,5.53c1.34,1.4,2.77,2.7,3.86,3.86c2.76,2.94,5.46,5.92,7.83,9.19c0.65,0.1,1.3,0.44,1.87,1.12
		c2.55,2.96,5.23,5.8,8.06,8.48c0.77,0.59,1.52,1.19,2.27,1.8c0.77,0.62,1.51,1.25,2.25,1.9c0.94,0.83,1.87,1.67,2.77,2.55
		c4.18,3.2,8.63,6.07,12.3,9.87c0.47,0.49,0.77,1.06,0.92,1.64c2.93,1.2,5.79,2.53,8.56,4.08c0.19,0.1,0.36,0.22,0.51,0.34
		c5.08,2.62,10.23,5.1,15.43,7.5c0.5,0.23,0.88,0.54,1.16,0.9c6.19,1.42,12.05,4.38,18.22,5.91c3.39,0.84,6.85,1.8,10.33,2.63
		c0.21,0.03,0.42,0.08,0.62,0.15c0.94,0.22,1.88,0.43,2.83,0.62c5.1,0.56,10.21,1,15.31,0.86c0.91-0.02,1.63,0.23,2.19,0.65v15.48
		c-0.04,0.01-0.09,0.01-0.13,0.01c-0.24,0.01-0.47,0.01-0.71,0.01c-0.02,0.01-0.04,0.01-0.06,0.02c-0.3,0.1-0.61,0.18-0.9,0.2
		c-1.9,0.17-4.07,0.3-5.98-0.2c-0.31-0.08-0.61-0.18-0.91-0.29c-1.67-0.66-2.33-2.37-3.78-3.09c-1.67-0.84-5.05,0.2-6.74,0.45
		c-2.15,0.31-4.32,0.74-6.48,0.9c-2.04,0.16-4.18-0.1-5.87-1.34c-0.4-0.3-1.92-1.96-2.54-3.3c-0.69,0.48-1.43,0.89-2.23,1.15
		c-2.03,0.65-4.22,0.6-6.18-0.21c-0.66-0.26-1.25-0.64-1.73-1.1c-2.4,0.02-4.76-0.53-7.06-1.4c-1.4-0.53-2.5-1.2-3.45-2.35
		c-0.83-0.99-1.52-3.11-2.79-3.64c-1.11-0.46-2.76,0-3.97-0.3c-1.26-0.31-2.45-0.92-3.36-1.86c-0.83-0.86-1.11-2.16-1.89-2.98
		c-0.89-0.95-2.34-0.76-3.64-0.83c-5.86-0.33-13.66,1.79-18.39-2.67c-2.52-2.37-2.61-5.18-3.2-8.35c-0.53-2.85-2.96-3.86-5.37-5.02
		c-0.81-0.39-1.35-0.93-1.66-1.53c-4.86-0.54-10.71-4.14-13.39-7.88c-1.55-2.17-1.38-5-3.44-6.88c-1.85-1.69-4.49-2.04-6.55-3.38
		c-5.26-3.4-3.88-9.27-6.62-14.05c-1.4-2.44-3.98-3.88-5.85-5.92c-2.06-2.24-3.21-4.72-3.48-7.73c-3.1-1.89-5.63-4.34-6.03-8.19
		c-0.1-0.89,0.2-2.37-0.14-3.17c-0.36-0.83-1.4-1.37-2-2C8.8,57.93,7.84,56,7.42,53.86c-0.39-1.99,0.11-4.68-0.68-6.33
		c-1.04-2.17-3.03-3.84-4-6.14c-1.13-2.64-0.67-4.71-0.1-7.41c0.5-2.37,0.39-4.46-0.36-6.77c-0.24-0.76-0.26-1.45-0.12-2.06
		c-3.01-3.44-1.62-10.52-1.69-14.59c-0.04-2.16-0.28-4.38-0.4-6.57C0,2.84-0.03,1.71,0.03,0.58c0.01-0.17,0.02-0.33,0.04-0.49
		C0.08,0.06,0.08,0.03,0.09,0z"/>
	<path class="st2" d="M11.75,0h9.73c0.12,1,0.09,2.03,0.03,2.96c-0.09,1.38-0.37,2.73-0.98,3.98c-0.34,0.7-1.18,1.5-1.57,2.28
		c0.26,0.79,0.28,1.66-0.04,2.5c0.11,0.09,0.23,0.25,0.37,0.48c0.17,0.2,0.33,0.39,0.5,0.59c0.64,0.79,1.11,1.53,1.53,2.46
		c0.75,1.67,1.05,3.46,0.88,5.28c-0.1,1.16-1.14,3.36-0.72,4.26c0.65,1.41,2.11,2.26,2.65,3.84c0.6,1.75,0.05,3.18,0.21,4.92
		c0.12,1.38,1.3,2.37,1.86,3.71c0.71,1.72,0.54,3.3,0.61,5.1c0.07,1.82,1.32,2.41,1.93,4.09c0.32,0.89,0.39,1.77,0.31,2.71
		c-0.02,0.21-0.34,1.54-0.4,1.32c0.12,0.45,1.41,1.58,1.68,1.97c0.5,0.72,0.92,1.49,1.19,2.33c0.41,1.28,0.11,3.21,0.77,4.35
		c0.68,1.2,2.49,1.75,3.31,3c0.78,1.19,1.04,2.53,1.2,3.92c0.06,0.47-0.04,1.69,0.25,2.12c0.18,0.28,1.51,0.9,1.79,1.17
		c1.88,1.82,1.78,4.41,2.98,6.57c0.01,0.01,0.01,0.02,0.02,0.03c0.68,0.39,1.26,1.01,1.62,1.89c0.93,2.33,4.04,2.85,5.62,4.58
		c1.03,1.14,0.85,2.1,1.34,3.39c0.37,0.98,0.78,0.94,1.75,1.54c0.97,0.6,1.81,1.3,2.39,2.29c0.3,0.52,0.47,1.02,0.6,1.6
		c0.04,0.24,0.07,0.5,0.1,0.75c0.29,0.07,0.61,0.16,0.67,0.18c0.5,0.2,0.96,0.51,1.37,0.86c0.89,0.76,1.45,1.74,1.73,2.87
		c0.11,0.44,0.06,1.04,0.12,1.55c0.09,0.03,0.23,0.07,0.43,0.1c0.92,0.16,2.09,0.98,2.72,1.64c0.6,0.64,0.82,1.43,1.13,2.16
		c0.13,0.31,0.28,0.6,0.48,0.87c0.43,0.58,1.09,0.78,1.77,1.03c0.27,0.1,0.53,0.2,0.79,0.34c1.02,0.54,1.65,1.04,2.72,1.38
		c1.06,0.34,1.97,0.51,2.86,1.24c0.91,0.73,1.16,1.64,1.78,2.54c0.28,0.4,0.35,0.5,0.59,0.76c0.29,0.31,0.62,0.59,0.94,0.88
		c0.99-0.18,2.05,0.09,2.92,1.08c0.45,0.51,0.97,1.05,1.22,1.71c1.04,0.22,2.9,1.05,3.07,1.17c0.62,0.42,2.31,1.8,2.28,2.7
		c0.52-0.08,1.04-0.06,1.56,0.06c1.32,0.28,2.51,1.2,3.04,2.45c0.04,0.09,0.34,1.31,0.31,1.29c0.08,0.05,1.53-0.15,1.77-0.12
		c2.07,0.25,3.19,1.36,3.76,2.89c0.26,0.03,0.52,0.07,0.78,0.1c0.94,0.13,1.55,0.34,2.29,0.89c0,0,0.96,0.81,1.05,1.09
		c0.55-0.07,1.3-0.34,1.65-0.37c1.57-0.11,3.01,0.23,4.24,1.22c0.51,0.42,0.85,1.09,1.36,1.48c0.31,0.24,0.8,0.43,1.26,0.62
		c0.59-0.18,1.28-0.18,2.04,0.07c1.23,0.4,1.97,0.97,2.96,1.77c0.24,0.25,0.48,0.51,0.72,0.76l-0.06-0.44
		c0.53-0.02,1.12-0.32,1.66-0.42c2.27-0.4,4.7-0.03,6.26,1.8c0.19,0.21,0.53,0.84,0.78,1.39c0.14-0.01,0.29-0.01,0.47-0.04
		c0.84-0.11,1.57-0.17,2.41-0.04c1.23,0.18,2.17,0.66,3.13,1.45c0.19,0.15,0.54,0.62,0.83,0.86c0.01-0.23,1.02-0.55,1.08-0.57
		c2.69-0.75,5.88,0.43,8.4,1.27c1.33,0.45,2.74,1.02,4.16,1.05c1.46,0.03,2.2-0.71,3.45-1.29c1.29-0.6,2.62-0.79,4.01-0.45
		c0.16,0.04,0.93,0.23,1.24,0.37c0.18-0.18,0.66-0.46,0.75-0.53c1.41-0.94,3.05-1.36,4.59-0.89v9.77c-0.3,0.06-0.58,0.09-0.86,0.12
		c-1.33,0.17-2.65,0.24-3.96,0.26c-1.27,0.17-2.65,0.04-3.58-0.06c-0.22-0.03-0.42-0.1-0.58-0.19c-0.27-0.04-0.53-0.09-0.81-0.16
		c-0.41-0.1-0.67-0.32-0.81-0.59c-0.21,0.02-0.42,0.05-0.63,0.06c-0.32,0.09-0.64,0.17-1,0.22c-2.17,0.31-4.29-0.09-6.36-0.69
		c-0.2,0.01-0.39,0.03-0.59,0.06c-3.04,0.43-5.52,0.49-8.1-1.22c-0.09,0.02-0.21,0.04-0.38,0.04c-0.8,0.02-0.99-0.45-1.73-0.6
		c-0.77-0.15-1.03,0.27-1.63-0.04c-0.13-0.07-0.3-0.19-0.62-0.43c-0.23-0.17-0.45-0.33-0.66-0.51c-0.17-0.28-0.37-0.45-0.58-0.48
		c-0.16-0.03-0.32,0.01-0.5,0.1c-0.01,0-0.01,0-0.01,0c-0.07,0.04-0.15,0.1-0.23,0.16c-1.76-0.05-3.36,0.17-4.77-0.59
		c-0.28-0.15-0.59-0.86-1.37-1.14c-0.48-0.18-0.94-0.17-1.26-0.13c-0.47-0.2-1.24-0.49-2.23-0.71c-2-0.44-2.63-0.15-3.7-0.75
		c-0.17-0.1-0.37-0.29-0.58-0.51c-0.02,0-0.03,0-0.05-0.01c-0.99-0.32-1.97-0.64-2.93-0.99c-0.78-0.19-1.54-0.51-2.25-0.92
		c-1.58-0.72-3.08-1.61-4.46-2.79c0-0.01,0-0.01-0.01-0.01c-0.91,0.09-1.73,0.09-2.61-0.24c-0.56-0.21-1-0.72-1.44-1.11
		c-0.58-0.17-1.16-0.37-1.72-0.6c-0.59-0.01-1.22,0.02-1.78-0.19c-1.02-0.39-1.66-0.97-2.09-1.69c-0.45-0.24-0.91-0.5-1.35-0.75
		c-0.18-0.03-0.32-0.06-0.39-0.07c-0.77-0.18-1.5-0.48-2.17-0.91c-0.49-0.32-0.86-0.66-1.15-1.02c-1.16-0.64-2.32-1.28-3.48-1.93
		c-0.11-0.04-0.22-0.09-0.33-0.15c-0.07-0.04-0.15-0.1-0.22-0.15c-1.1-0.59-2.19-1.18-3.31-1.74c-0.53-0.27-0.72-0.72-0.67-1.16
		c-1.37-0.32-2.39-1.18-3.5-2.19c-2.03-1.83-4.18-3.34-6.5-4.8c-2.54-1.6-4.93-3.29-6.94-5.4c-0.48-0.33-0.92-0.73-1.31-1.22
		c-0.13-0.18-0.34-0.56-0.53-0.97c-0.27-0.37-0.53-0.75-0.78-1.16c-0.16-0.26-0.21-0.51-0.21-0.74c-0.61-0.31-1.37-0.48-2.02-0.79
		c-0.13-0.09-0.28-0.17-0.43-0.24c-0.04-0.02-0.09-0.06-0.13-0.09c-0.8-0.61-1.41-1.42-1.79-2.34c-1.16-0.03-1.82-0.61-2.45-1.7
		c-0.7-1.22-1.22-2.37-1.94-3.42c-0.04-0.06-0.07-0.1-0.11-0.15c0-0.01-0.01-0.01-0.01-0.01c-0.43-0.61-0.94-1.19-1.6-1.73
		c-1.2-0.97-2.33-1.79-3.26-3.08c-0.91-1.27-1.33-2.7-2.09-4.05c-0.07-0.13-0.12-0.28-0.17-0.43c-1.41-1.01-2.53-2.15-3.42-3.48
		c-1.57-1.58-2.35-4.06-3.34-6.08c-1.05-2.13-3.34-3.39-4.72-5.35c-1.21-1.71-1.63-3.85-2-5.89c-0.02-0.1-0.02-0.2-0.02-0.3
		c-0.03-0.02-0.07-0.05-0.1-0.08c-0.77-0.69-1.34-1.45-1.79-2.38c-0.38-0.76-0.51-1.61-0.62-2.46c-0.3-0.31-0.59-0.63-0.88-0.98
		c-0.81-1.01-0.64-1.99-0.67-3.17c0.01-0.56-0.04-1.82-0.85-3.1c-0.48-0.76-1.04-1.25-1.45-1.54c-0.15-0.03-0.31-0.06-0.39-0.08
		c-1.5-0.29-2.56-1.93-2.57-3.37c-0.01-1.52-0.25-3.79,0.07-5.7c-0.19-0.16-0.36-0.33-0.5-0.51c-0.14-0.18-0.24-0.36-0.34-0.55
		c-0.12-0.09-0.26-0.25-0.34-0.48c-0.09-0.27-0.02-0.49,0-0.61c0.1-0.77-1.52-1.19-2.31-2.66c-0.21-0.39-0.42-0.77-0.37-1.26
		c0.1-1,1.15-1.25,1.46-2.19c0.16-0.48,0.17-1.24-0.61-2.45c-0.12-0.07-0.29-0.19-0.46-0.37c-0.32-0.33-0.3-0.6-0.66-1.06
		c-0.51-0.69-0.87-1.25-1.21-2.05c-0.85-2.04-0.67-4.22-0.67-4.22c0.12-1.45,0.47-1.26,0.55-2.68c0.03-0.57,0.08-1.76-0.43-3.07
		c-0.23-0.61-0.12-0.87-1.3-2.22c-2.3-2.62-1.67-5.32-0.65-8.41C11.33,4.72,11.17,2.35,11.75,0z"/>
	<path class="st3" d="M10.98,0h2.45C13.38,1.86,13.65,3.53,13,5.31c-0.8,2.18-3.05,6-2.05,8.45c0.61,1.49,2.57,1.8,3.6,3
		c0.16,0.19,0.3,0.4,0.4,0.64c0.6,1.34,0.22,3-0.03,4.38c-0.01,0.05-0.02,0.1-0.03,0.15c-0.21,1.11-0.55,2.25-0.52,3.4
		c0.02,1.42,0.59,2.26,1.38,3.08c0.32,0.33,0.67,0.66,1.04,1.02c0.75,0.73,1.29,1.36,1.15,2.49c-0.11,0.94-0.63,1.58-1.06,2.15
		c-0.63,0.84-1.05,1.55,0.34,2.89c0.2,0.18,0.36,0.35,0.5,0.51c0.54,0.57,0.84,1.03,1.25,1.69c0.25,0.08,0.47,0.26,0.62,0.59
		c0.18,0.4,0.35,0.81,0.5,1.22c0.19,0.53,0.34,1.07,0.45,1.61c0.14,0.72,0.21,1.45,0.18,2.21c-0.02,0.46-0.15,0.95-0.28,1.43
		c-0.13,0.51-0.26,1.02-0.25,1.48c0.06,2.23,0.65,2,1.69,2.35c0.18,0.05,0.37,0.13,0.58,0.24c2.6,1.37,1.97,4.21,2.36,6.65
		c0.13,0.84,0.39,1.63,0.94,2.29c0.1,0.12,0.21,0.24,0.32,0.36c0.95,1.06,1.97,1.83,2.6,3.2c0.49,1.07,0.64,2.19,0.78,3.31
		c0.12,0.97,0.21,1.93,0.5,2.87c0.64,2.09,2.19,3.18,3.72,4.3c1.23,0.91,2.45,1.83,3.18,3.31c0.39,0.79,0.48,1.61,0.58,2.42
		c0.1,1,0.2,1.97,0.85,2.88c0.58,0.81,1.3,1.06,2.05,1.28c0.71,0.22,1.43,0.42,2.09,1.05c1.07,1.02,0.94,2.29,1.3,3.57
		c0.01,0.02,0.01,0.04,0.02,0.05c0.43,1.52,1.19,2.23,2.1,2.75c0.92,0.53,2.03,0.85,3.16,1.6c1.15,0.76,2.08,1.79,2.24,3.2
		c0.06,0.51-0.11,1-0.1,1.51v0.1c0.06,2.22,0.83,2.16,2.55,2.81c0.1,0.04,0.2,0.07,0.31,0.12c1.37,0.54,2.84,1.05,3.9,2.11
		c0.86,0.86,1.21,2.42,1.79,3.7c0.47,1.04,1.1,1.88,2.28,2c0.05,0.01,0.1,0.01,0.15,0.01c0.7,0.03,1.09,0.54,1.16,1.08
		c0.61,0.45,1.62,0.52,2.24,0.95c0.74,0.52,1.13,1.31,1.72,1.97c0.18,0.2,0.38,0.39,0.58,0.56c0.39,0.33,0.81,0.61,1.24,0.86
		c1.55,0.9,3.33,1.48,4.65,2.74c0.27,0.26,0.51,0.54,0.73,0.83c0.42,0.55,0.78,1.15,1.18,1.75c1.11,1.68,2.32,2.15,4.24,2.59
		c1.97,0.45,3.3,1.09,4.68,2.56c1.56,1.64,2.61,2.22,4.65,2.86c0.95,0.3,1.73,0.67,2.52,1.25c1.54,1.14,2.47,2.4,4.45,2.82
		c1.25,0.26,2.57,0.07,3.82,0.37c0.94,0.23,1.73,0.62,2.47,1.22c1.41,1.13,2.25,2.07,4.26,2.2c1.11,0.07,1.86-0.12,2.91,0.46
		c1.49,0.81,2.36,1.96,4.19,2.28c0.41,0.07,0.66,0.29,0.79,0.57c1.93,1.02,4.01-0.14,5.78,1.07c0.4,0.27,0.57,0.78,0.94,1.04
		c0.84,0.6,1.48,0.73,2.09,0.65c0,0,0.01,0,0.01,0c0.17-0.02,0.34-0.06,0.5-0.1c0.51-0.13,1.04-0.37,1.68-0.52
		c1.3-0.31,2.66-0.43,3.89,0.2c0.58,0.29,0.91,0.81,1.43,1.12c1.59,0.95,2.8,0.92,4.53,0.48c1.81-0.46,3.05,0.02,4.78,0.38
		c2.31,0.48,4.75-0.62,6.96,0.41c0.45,0.21,0.79,0.61,1.22,0.83c0.97,0.49,1.76,0.32,2.96,0.11c1.85-0.32,3.54-0.21,5.42-0.17v2.39
		c-1.08-0.06-2.24-0.27-3.28-0.15c-1.15,0.13-2.04,0.68-3.13,0.87c-1.46,0.26-2.24-0.18-3.34-0.89c-1.95-1.25-2.88-0.79-5.06-0.75
		c-0.99,0.02-1.47-0.07-2.41-0.28c-1.95-0.43-2.9-0.44-4.83,0.06c-0.69,0.18-1.37,0.41-2.08,0.38c-1.74-0.07-2.18-1.06-3.49-1.91
		c-2.77-1.8-4.31,0.44-7.02,0.26c-2.09-0.13-2.25-2-4.19-2.4c-0.64-0.13-1.49,0.15-2.19,0.04c-1.05-0.17-1.88-0.58-2.75-1.16
		c-0.1-0.07-0.18-0.14-0.25-0.21c-1.3-0.31-2.09-0.89-3.29-1.51c-1.69-0.87-3.34-0.57-5.04-0.99c-0.98-0.24-1.69-0.9-2.38-1.58
		c-1.45-1.41-2.63-2.02-4.71-2.18c-2.61-0.2-4.09-0.83-6.08-2.49c-1.67-1.39-2.98-1.66-4.93-2.36c-0.92-0.33-1.7-0.75-2.39-1.42
		c-1.37-1.32-1.95-2.67-3.96-3.23c-1.03-0.29-2.11-0.4-3.11-0.82c-2.82-1.17-3.28-4.12-5.67-5.73c-2.08-1.41-4.22-2.02-6.01-3.86
		c-0.85-0.87-1.66-1.44-2.7-2.03c-0.67-0.38-1.08-0.59-1.47-1.12c-1.13-0.21-2.11-0.7-2.88-1.69c-1.46-1.87-1.07-3.99-3.09-5.32
		c-0.13-0.09-0.28-0.17-0.43-0.24c-0.04-0.02-0.09-0.05-0.14-0.07c-1.6-0.77-3.86-1.08-5.17-2.39c-1.03-1.03-0.72-1.94-0.8-3.26
		c-0.23-3.97-2.79-3.12-5.18-4.9c-1.3-0.97-1.71-2.11-2.03-3.66c-0.32-1.59-0.12-2.25-1.83-3.03c-0.67-0.31-1.49-0.23-2.16-0.59
		c-1.32-0.69-1.9-1.75-2.18-3.16c-0.51-2.69-0.1-4.32-2.58-6.15c-1.29-0.95-2.68-1.72-3.65-3.03c-1.12-1.5-1.43-3.28-1.69-5.09
		c-0.4-2.85-1.26-4.43-3.23-6.55c-0.99-1.06-1.65-2.13-1.85-3.6c-0.15-1.16,0.39-2.76-0.09-3.84c-0.69-1.58-1.67-1.07-2.84-1.72
		c-1.11-0.62-1.68-1.55-1.74-2.83c-0.13-2.73,1.13-4.65,0.21-7.35c-0.13-0.09-0.24-0.21-0.34-0.37c-0.65-1.03-0.68-1.5-1.78-2.32
		c-0.46-0.35-0.96-0.56-1.33-1.07c-0.86-1.21-0.76-2.67-0.21-3.96c0.44-1.04,1.49-1.49,0.99-2.74c-0.24-0.62-1.58-1.35-2.02-1.99
		c-0.97-1.41-1.19-3.04-1.08-4.72c0.2-2.72,1.78-4.85-0.66-6.98c-1.46-1.28-2.55-1.64-2.87-3.86c-0.26-1.86,0.32-4.03,0.86-5.79
		c0.31-1.04,0.83-1.94,1.2-2.95C11.17,3.05,10.93,1.8,10.98,0z"/>
	<path class="st3" d="M91.17,0h2.4c-0.09,1.12-0.21,2.33,0.01,3.29c0.23,1.07,1.22,1.8,1.49,2.81c0.25,0.95-0.16,2.17-0.43,3.06
		c-0.55,1.78-1.09,2.61,0.34,3.94c1.39,1.3,1.5,1.58,1.4,3.64c-0.07,1.31-0.32,2.96,0.07,4.23c0.47,1.5,1.64,1.8,2.79,2.56
		c0.8,0.53,1.07,1.08,1.21,2c0.26,1.76-0.23,2.69,1.35,4c1.63,1.35,2.87,1.88,3.52,4.1c0.31,1.03,0.25,2.02,0.4,3.07
		c0.12,0.77,0.01,1.77,0.85,2.27c0.26,0.16,0.75-0.07,1.05,0.05c0.75,0.32,1.18,0.42,1.65,1.13c0.16,0.24,0.23,0.81,0.37,1.27
		c0.29,0.1,0.53,0.34,0.63,0.73c0.01,0,0.02,0.01,0.04,0.01c0.17-0.42,2.53,0.06,2.82,0.26c0.64,0.42,1.03,1.17,1.25,1.88
		c0.61,2.04,0.65,4.14,2.19,5.79c1.45,1.55,3.08,0.99,4.81,1.59c1.07,0.37,1.43,0.92,2.07,1.75c0.85,1.1,1.27,2.5,3.07,2.73
		c0.81,0.1,1.67-0.13,2.49-0.12c3,0.04,5.27,1.59,7.56,3.36c0.14,0.12,0.24,0.24,0.31,0.37c0.02,0.01,0.04,0.02,0.05,0.04
		c1.49,1.48,2.68,0.95,4.47,1.23c1.29,0.21,2.12,0.9,3.57,0.87c1.09-0.02,2.12-0.51,3.2-0.55c1.46-0.06,2.03,0.46,3.16,1.2
		c1.67,1.09,3.54,0.44,5.51,0.29v2.51c-1.8,0.23-4.16,1.22-5.77,0.37c-0.42-0.22-0.64-0.61-1-0.84c-0.51-0.32-0.95-0.53-1.33-0.66
		c-0.01,0-0.01,0-0.01,0c-0.56-0.18-1.02-0.2-1.48-0.15c0,0-0.01-0.01-0.01,0c-0.65,0.06-1.31,0.25-2.27,0.27
		c-1.96,0.04-4.04-0.55-5.96-0.75c-1.95-0.2-2.47-0.73-3.82-2.06c-0.05-0.06-0.09-0.1-0.13-0.16c-0.04-0.05-0.07-0.1-0.1-0.16
		c-0.05-0.03-0.09-0.05-0.13-0.09c-2.25-1.74-3.96-2.6-6.83-2.6h-0.1c-1.42,0.01-2.77,0.18-4.1-0.43c-1.15-0.52-1.59-1.29-2.24-2.29
		c-0.06-0.26-0.12-0.51-0.18-0.77c-0.01-0.04-0.02-0.08-0.03-0.12c-0.55-0.5-1.13-0.83-1.76-1.01c-0.01-0.01-0.01-0.01-0.01-0.01
		c-0.4-0.11-0.83-0.16-1.27-0.14c-0.43-0.1-0.88-0.13-1.31-0.29c-1.74-0.66-3.2-2.56-4.06-4.46c-0.01-0.01-0.01-0.01-0.01-0.01
		c-0.32-0.72-0.56-1.42-0.7-2.07c-0.24-1.19-0.29-1.89-1.67-2.32c-0.36-0.11-0.83,0.06-1.23-0.08c-0.24-0.09-0.44-0.19-0.62-0.32
		c-0.42-0.21-0.73-0.53-1.01-1.03c-0.83-1.51-0.29-1.28-2.01-1.89c-1.93-0.7-2.33-2.21-2.42-4.13c-0.09-1.94-0.16-3.77-1.82-5.03
		c-0.94-0.71-2.09-0.97-2.8-1.98c-0.67-0.94-0.51-1.87-0.66-2.92c-0.31-2.11-1.02-1.63-2.32-2.65c-1.73-1.38-1.83-3.89-1.82-5.91
		c0.01-1.63,0.54-2.76-0.82-3.62c-0.8-0.51-1.35-0.59-1.76-1.56c-0.38-0.89-0.17-1.73,0.07-2.62c0.51-1.95,1.4-2.94,0.6-4.99
		C91.15,3.9,91.13,2.07,91.17,0z"/>
	<path class="st4" d="M141.55,118.16c-0.2,0.1-0.4,0.24-0.58,0.4c-0.18,0.14-0.34,0.3-0.46,0.49c-0.36,0.47-0.62,1.07-0.6,1.68
		c0.02,0.49,0.15,0.96,0.38,1.4c0.14,0.26,0.33,0.46,0.54,0.63c0.21,0.22,0.46,0.41,0.72,0.54c0.46,0.27,0.97,0.4,1.5,0.41
		c0.54,0,1.04-0.14,1.5-0.41c0.91-0.53,1.47-1.52,1.47-2.57s-0.57-2.04-1.47-2.57c-0.46-0.27-0.97-0.4-1.5-0.41
		C142.52,117.75,142.02,117.89,141.55,118.16z"/>
	<path class="st4" d="M127.68,118.03c-0.4,0.23-0.69,0.6-0.87,1.02c-0.15,0.36-0.2,0.71-0.15,1.1c0.07,0.5,0.27,0.83,0.59,1.22
		c0.38,0.48,0.97,0.73,1.52,0.96c0.55,0.24,1.06,0.38,1.67,0.22c0.5-0.14,1.05-0.53,1.29-0.99c0.58-1.09,0.23-2.28-0.78-2.96
		c-0.2-0.14-0.41-0.29-0.62-0.41c-0.49-0.3-1.02-0.4-1.58-0.46C128.42,117.71,127.97,117.87,127.68,118.03z"/>
	<path class="st4" d="M140.14,103.61c0,2.57,3.99,2.57,3.99,0C144.14,101.04,140.14,101.04,140.14,103.61z"/>
	<path class="st4" d="M124.97,94.74c0,2,3.11,2,3.11,0C128.08,92.75,124.97,92.74,124.97,94.74z"/>
	<path class="st4" d="M128.2,79.16c0,2.17,3.37,2.17,3.37,0C131.58,76.99,128.2,76.99,128.2,79.16z"/>
	<path class="st4" d="M123.54,75.8c0,2.66,4.14,2.66,4.14,0C127.67,73.14,123.54,73.13,123.54,75.8z"/>
	<path class="st4" d="M144.95,88.33c0,3.86,6,3.86,6,0C150.96,84.47,144.95,84.46,144.95,88.33z"/>
	<path class="st4" d="M112.2,90.47c0,3.46,5.38,3.46,5.38,0C117.58,87.01,112.2,87,112.2,90.47z"/>
	<path class="st4" d="M105.5,108.5c0,3.01,4.69,3.02,4.69,0C110.19,105.49,105.5,105.48,105.5,108.5z"/>
	<path class="st4" d="M92.55,106.97c0,3.92,6.1,3.92,6.1,0C98.65,103.05,92.55,103.05,92.55,106.97z"/>
	<path class="st4" d="M90.09,100.86c0,1.97,3.06,1.97,3.06,0C93.15,98.89,90.09,98.89,90.09,100.86z"/>
	<path class="st4" d="M81.84,94.74c0,1.86,1.72,2.6,3.12,2.25c0.12,3.34,5.37,3.32,5.37-0.11c0-2.15-2.09-2.97-3.66-2.44
		C86.36,91.64,81.84,91.73,81.84,94.74z"/>
	<path class="st4" d="M148.43,107.89c0,2.93,4.57,2.94,4.57,0C153,104.95,148.43,104.95,148.43,107.89z"/>
	<path class="st4" d="M123.7,107.86c-1.04,0.29-1.95,1.36-1.89,2.48c0.02,0.3,0.06,0.6,0.11,0.9c0.12,0.69,0.87,1.44,1.56,1.56
		c0.3,0.05,0.6,0.09,0.9,0.11c0.43,0.02,0.92-0.15,1.3-0.35c0.49-0.26,0.84-0.73,1.05-1.23c0.38-0.91,0.23-2.11-0.53-2.8
		C125.53,107.9,124.59,107.61,123.7,107.86z"/>
	<path class="st4" d="M109.51,123.78c0,3.36,5.24,3.37,5.24,0C114.75,120.41,109.51,120.41,109.51,123.78z"/>
	<path class="st4" d="M74.18,91.69c0,3.52,5.48,3.52,5.48,0C79.66,88.17,74.18,88.16,74.18,91.69z"/>
	<path class="st4" d="M82.63,76.41c0,2.5,3.9,2.51,3.9,0C86.53,73.9,82.63,73.9,82.63,76.41z"/>
	<path class="st4" d="M69.88,71.82c0,3.53,5.5,3.54,5.5,0C75.39,68.29,69.88,68.28,69.88,71.82z"/>
	<path class="st4" d="M56.1,75.8c0,1.97,3.06,1.97,3.06,0C59.16,73.83,56.1,73.83,56.1,75.8z"/>
	<path class="st4" d="M49.36,65.71c0,2.37,3.68,2.37,3.68,0C53.05,63.34,49.36,63.34,49.36,65.71z"/>
	<path class="st4" d="M47.85,56.24c0,3.92,6.1,3.92,6.1,0C53.95,52.32,47.85,52.31,47.85,56.24z"/>
	<path class="st4" d="M33.44,36.06v0.61c0,0.8,0.7,1.57,1.53,1.53c0.83-0.04,1.53-0.67,1.53-1.53v-0.61c0-0.8-0.7-1.57-1.53-1.53
		C34.15,34.57,33.44,35.21,33.44,36.06z"/>
	<path class="st4" d="M41.71,16.2c0,1.97,3.06,1.97,3.06,0C44.77,14.23,41.71,14.23,41.71,16.2z"/>
	<path class="st4" d="M31.68,10.39c0,2.66,4.14,2.66,4.14,0C35.82,7.73,31.68,7.73,31.68,10.39z"/>
	<path class="st4" d="M22.93,5.81c0,4.07,6.34,4.08,6.34,0C29.27,1.74,22.93,1.73,22.93,5.81z"/>
	<path class="st4" d="M45.33,10.09c0,3.57,4.95,3.96,6.03,1.17c0.39-0.09,0.68-0.45,0.7-0.88c0.02-0.36,0.05-0.72-0.07-1.07
		c-0.09-0.26-0.36-0.45-0.63-0.4C50.27,6.13,45.33,6.51,45.33,10.09z"/>
	<path class="st4" d="M57.84,11.61c0,3.27,5.1,3.28,5.1,0C62.94,8.34,57.84,8.34,57.84,11.61z"/>
	<path class="st4" d="M62.24,23.53c0,3.92,6.1,3.92,6.1,0C68.34,19.62,62.24,19.61,62.24,23.53z"/>
	<path class="st4" d="M36.49,30.26c0,2.78,4.33,2.79,4.33,0C40.81,27.48,36.49,27.47,36.49,30.26z"/>
	<path class="st4" d="M28.92,29.65c0,3.84,5.98,3.85,5.98,0C34.9,25.8,28.92,25.8,28.92,29.65z"/>
	<path class="st4" d="M36.99,57.46c0,4.1,6.39,4.11,6.39,0C43.37,53.36,36.99,53.35,36.99,57.46z"/>
	<path class="st4" d="M53.77,44.62c0,3.78,5.88,3.79,5.88,0C59.66,40.84,53.77,40.84,53.77,44.62z"/>
	<path class="st4" d="M60.59,41.26c0,2.49,3.88,2.49,3.88,0C64.47,38.77,60.59,38.77,60.59,41.26z"/>
	<path class="st4" d="M76.47,46.76c0,3.73,5.81,3.74,5.81,0C82.28,43.03,76.47,43.02,76.47,46.76z"/>
	<path class="st4" d="M80.27,60.21c0,3.96,6.17,3.97,6.17,0C86.44,56.24,80.27,56.24,80.27,60.21z"/>
	<path class="st4" d="M91.75,60.51c0,4.16,6.48,4.17,6.48,0C98.23,56.35,91.75,56.34,91.75,60.51z"/>
	<path class="st4" d="M110.53,66.32c0,2.84,4.43,2.85,4.43,0C114.96,63.48,110.53,63.47,110.53,66.32z"/>
	<path class="st4" d="M102.8,65.1c0,4.12,6.41,4.12,6.41,0C109.21,60.98,102.8,60.97,102.8,65.1z"/>
	<path class="st4" d="M85.75,42.18c0,3.99,6.22,4,6.22,0C91.97,38.18,85.75,38.18,85.75,42.18z"/>
	<path class="st4" d="M78.36,31.17c0,3.66,5.69,3.66,5.69,0C84.06,27.52,78.36,27.51,78.36,31.17z"/>
	<path class="st4" d="M70.95,20.48c0,3.73,5.81,3.74,5.81,0C76.77,16.74,70.95,16.74,70.95,20.48z"/>
	<path class="st4" d="M72.18,11.61c0,3.73,5.81,3.74,5.81,0C77.99,7.88,72.18,7.87,72.18,11.61z"/>
	<path class="st4" d="M66.99,4.89c0,3.72,5.79,3.72,5.79,0C72.77,1.17,66.99,1.17,66.99,4.89z"/>
	<path class="st4" d="M61.73,53.48c0,3.78,5.88,3.79,5.88,0C67.62,49.71,61.73,49.7,61.73,53.48z"/>
	<path class="st4" d="M62.67,91.38c0,3.36,5.24,3.37,5.24,0C67.91,88.02,62.67,88.01,62.67,91.38z"/>
	<path class="st4" d="M138.68,83.44c0,2.87,4.47,2.88,4.47,0C143.15,80.56,138.68,80.56,138.68,83.44z"/>
	<path class="st5" d="M41.83,26.28c0,3,4.66,3,4.66,0C46.49,23.29,41.83,23.28,41.83,26.28z"/>
	<path class="st5" d="M30.89,22.01c0,3.29,5.12,3.29,5.12,0C36,18.72,30.89,18.71,30.89,22.01z"/>
	<path class="st5" d="M33.38,14.76c-0.59-0.34-1.55-0.07-1.55,0.83c0,0.89,0.96,1.17,1.55,0.83c0.72,1.08,2.82,0.81,2.82-0.83
		C36.2,13.95,34.09,13.68,33.38,14.76z"/>
	<path class="st5" d="M57.02,16.81c0,1.97,3.06,1.97,3.06,0C60.08,14.84,57.02,14.84,57.02,16.81z"/>
	<path class="st5" d="M47.31,29.65c0,2.64,4.11,2.65,4.11,0C51.42,27,47.31,27,47.31,29.65z"/>
	<path class="st5" d="M36.81,41.87c0,1.97,3.06,1.97,3.06,0C39.87,39.9,36.81,39.9,36.81,41.87z"/>
	<path class="st5" d="M39.58,48.59c0,3.92,6.1,3.92,6.1,0C45.68,44.68,39.58,44.67,39.58,48.59z"/>
	<path class="st5" d="M56.77,50.73c0,3.86,6,3.86,6,0C62.78,46.88,56.77,46.87,56.77,50.73z"/>
	<path class="st5" d="M45.29,64.79c0,2.87,4.47,2.88,4.47,0C49.77,61.92,45.29,61.92,45.29,64.79z"/>
	<path class="st5" d="M52.71,75.49c0,2.78,4.33,2.79,4.33,0C57.04,72.71,52.71,72.7,52.71,75.49z"/>
	<path class="st5" d="M69.88,76.1c0,3.93,6.12,3.94,6.12,0C76,72.17,69.88,72.16,69.88,76.1z"/>
	<path class="st5" d="M77.3,80.07c0,3.44,5.36,3.45,5.36,0C82.66,76.63,77.3,76.63,77.3,80.07z"/>
	<path class="st5" d="M77.04,102.08c0,3,4.66,3,4.66,0C81.7,99.08,77.04,99.08,77.04,102.08z"/>
	<path class="st5" d="M88.4,105.44c0,2.95,4.59,2.95,4.59,0C93,102.49,88.4,102.49,88.4,105.44z"/>
	<path class="st5" d="M104.82,102.08c0,3.89,6.05,3.89,6.05,0C110.87,98.19,104.82,98.19,104.82,102.08z"/>
	<path class="st5" d="M112.41,85.88c0,3.96,6.17,3.97,6.17,0C118.59,81.92,112.41,81.91,112.41,85.88z"/>
	<path class="st5" d="M110.91,75.18c0,1.97,3.06,1.97,3.06,0C113.97,73.22,110.91,73.21,110.91,75.18z"/>
	<path class="st5" d="M123.77,76.71c0,1.97,3.06,1.97,3.06,0C126.83,74.75,123.77,74.74,123.77,76.71z"/>
	<path class="st5" d="M136.26,80.24c-0.34,0.19-0.59,0.54-0.59,1.06c0,0.25,0.06,0.45,0.16,0.62c0.01,4.17,6.51,4.17,6.51-0.01
		C142.33,78.39,137.71,77.83,136.26,80.24z"/>
	<path class="st5" d="M148.1,80.69c0,3.75,5.84,3.75,5.84,0C153.94,76.94,148.1,76.93,148.1,80.69z"/>
	<path class="st5" d="M147.16,95.05c0,3.78,5.88,3.79,5.88,0C153.04,91.27,147.16,91.26,147.16,95.05z"/>
	<path class="st5" d="M138.11,104.83c0,2.81,4.38,2.82,4.38,0C142.49,102.02,138.11,102.01,138.11,104.83z"/>
	<path class="st5" d="M136.14,117c0.03,0.09,0.06,0.19,0.09,0.28c0.27,0.81,1.03,1.5,1.93,1.46c0.91-0.04,1.64-0.6,1.93-1.46
		c0.03-0.09,0.06-0.19,0.09-0.28c0.43-1.3-0.71-2.64-2.02-2.64C136.85,114.35,135.71,115.7,136.14,117z"/>
	<path class="st5" d="M138.19,123.47c0,3.1,4.83,3.11,4.83,0C143.02,120.37,138.19,120.36,138.19,123.47z"/>
	<path class="st5" d="M143.67,126.22c0,1.97,3.06,1.97,3.06,0C146.73,124.26,143.67,124.25,143.67,126.22z"/>
	<path class="st5" d="M138.57,128.67c0,2.61,4.07,2.62,4.07,0C142.64,126.06,138.57,126.05,138.57,128.67z"/>
	<path class="st5" d="M120.54,122.09c-0.56,0.61-0.61,1.56,0,2.16c0.1,0.1,0.2,0.2,0.31,0.31c0.57,0.57,1.61,0.61,2.17,0
		c0.28-0.3,0.43-0.68,0.44-1.06c0.02,0.01,0.04,0.01,0.04-0.02c0-0.03-0.02-0.03-0.04-0.02c0-0.38-0.14-0.76-0.44-1.06l-0.31-0.31
		C122.14,121.52,121.1,121.48,120.54,122.09z"/>
	<path class="st5" d="M124.98,105.44c0,4.35,6.77,4.36,6.77,0C131.74,101.09,124.98,101.09,124.98,105.44z"/>
	<path class="st5" d="M132.63,91.99c0,2.78,4.33,2.79,4.33,0C136.95,89.21,132.63,89.21,132.63,91.99z"/>
	<path class="st5" d="M97.75,86.49c0,3.53,5.5,3.54,5.5,0c0-0.09-0.02-0.17-0.03-0.25c0.06,0.78,1.3,0.77,1.3-0.05
		c0-0.83-1.28-0.84-1.3-0.02C102.88,82.97,97.75,83.07,97.75,86.49z"/>
	<path class="st5" d="M89.03,75.18c0,4.44,6.81,4.5,7,0.18c0.35-0.2,0.6-0.57,0.6-1.1c0-0.87-0.69-1.3-1.37-1.29
		C93.45,70.87,89.03,71.61,89.03,75.18z"/>
	<path class="st5" d="M87.08,42.79c0,4.26,6.63,4.26,6.63,0C93.71,38.53,87.08,38.52,87.08,42.79z"/>
	<path class="st5" d="M65.97,40.65c0,2.96,2.95,4.03,5.07,3.2c1,3.12,6.4,2.77,6.4-1.06c0-2.58-2.46-3.58-4.36-3
		C72.25,36.04,65.97,36.32,65.97,40.65z"/>
	<path class="st5" d="M58.4,84.66c0,2.95,4.59,2.95,4.59,0C62.99,81.71,58.4,81.7,58.4,84.66z"/>
	<path class="st5" d="M36.43,8.56c0,4.03,6.27,4.03,6.27,0C42.7,4.53,36.43,4.53,36.43,8.56z"/>
	<path class="st5" d="M61.17,19.87c0,3.72,5.79,3.72,5.79,0C66.96,16.15,61.17,16.14,61.17,19.87z"/>
	<path class="st5" d="M45.52,36.06c0,1,1.56,1.01,1.56,0C47.09,35.06,45.52,35.06,45.52,36.06z"/>
	<path class="st5" d="M52.74,38.81c0,1.17,1.82,1.17,1.82,0C54.56,37.64,52.74,37.64,52.74,38.81z"/>
	<path class="st5" d="M61.58,32.7c0,0.04,0.06,0.04,0.06,0C61.64,32.66,61.58,32.66,61.58,32.7z"/>
	<path class="st5" d="M64.07,38.51c0,1.17,1.82,1.17,1.82,0C65.89,37.34,64.07,37.34,64.07,38.51z"/>
	<path class="st5" d="M50.9,59.29c0,1.17,1.82,1.17,1.82,0C52.73,58.12,50.9,58.12,50.9,59.29z"/>
	<path class="st5" d="M66.81,71.52c0,1.19,1.85,1.19,1.85,0C68.66,70.33,66.81,70.33,66.81,71.52z"/>
	<path class="st5" d="M83.67,65.1c0,1.17,1.82,1.17,1.82,0C85.49,63.93,83.67,63.93,83.67,65.1z"/>
	<path class="st5" d="M70.77,70.29c0,0.04,0.06,0.04,0.06,0C70.83,70.25,70.77,70.25,70.77,70.29z"/>
	<path class="st5" d="M62.5,65.4c0,0.04,0.06,0.04,0.06,0C62.56,65.36,62.5,65.36,62.5,65.4z"/>
	<path class="st5" d="M71.72,57.46c0,1.17,1.82,1.17,1.82,0C73.55,56.29,71.72,56.29,71.72,57.46z"/>
	<path class="st5" d="M78.73,63.88c0,0.04,0.06,0.04,0.06,0C78.79,63.84,78.73,63.84,78.73,63.88z"/>
	<path class="st5" d="M65.56,74.57c0,0.04,0.06,0.04,0.06,0C65.62,74.53,65.56,74.53,65.56,74.57z"/>
	<path class="st5" d="M69.24,88.94c0,0.04,0.06,0.04,0.06,0C69.3,88.9,69.24,88.9,69.24,88.94z"/>
	<path class="st5" d="M83.02,96.27c0,0.04,0.06,0.04,0.06,0C83.08,96.23,83.02,96.23,83.02,96.27z"/>
	<path class="st5" d="M98.63,94.44c0,0.04,0.06,0.04,0.06,0C98.69,94.4,98.63,94.4,98.63,94.44z"/>
	<path class="st5" d="M105.37,87.71c0,0.04,0.06,0.04,0.06,0C105.43,87.68,105.37,87.68,105.37,87.71z"/>
	<path class="st5" d="M85.46,95.66c0,0.04,0.06,0.04,0.06,0C85.53,95.62,85.46,95.62,85.46,95.66z"/>
	<path class="st5" d="M80.74,105.15l-0.59,0.1c-0.49,0.08-0.49,0.91,0,0.99l0.59,0.1c0.39,0.06,0.78-0.17,0.78-0.59
		C81.52,105.32,81.13,105.09,80.74,105.15z"/>
	<path class="st5" d="M79.65,107.58c0,0.04,0.06,0.04,0.06,0C79.71,107.54,79.65,107.54,79.65,107.58z"/>
	<path class="st5" d="M99.85,115.53c0,0.04,0.06,0.04,0.06,0C99.92,115.49,99.85,115.49,99.85,115.53z"/>
	<path class="st5" d="M110.57,113.39c0,0.04,0.06,0.04,0.06,0C110.63,113.35,110.57,113.35,110.57,113.39z"/>
	<path class="st5" d="M120.37,111.86c0,0.04,0.06,0.04,0.06,0C120.43,111.82,120.37,111.82,120.37,111.86z"/>
	<path class="st5" d="M126.19,123.47c0,0.04,0.06,0.04,0.06,0C126.25,123.43,126.19,123.43,126.19,123.47z"/>
	<path class="st5" d="M132.62,116.14c0,0.04,0.06,0.04,0.06,0C132.68,116.1,132.62,116.1,132.62,116.14z"/>
	<path class="st5" d="M138.74,101.77c0,0.04,0.06,0.04,0.06,0C138.8,101.73,138.74,101.73,138.74,101.77z"/>
	<path class="st5" d="M117.92,113.69c0,0.04,0.06,0.04,0.06,0C117.98,113.65,117.92,113.65,117.92,113.69z"/>
	<path class="st5" d="M109.35,112.47c0,0.04,0.06,0.04,0.06,0C109.41,112.43,109.35,112.43,109.35,112.47z"/>
	<path class="st5" d="M110.88,112.17c0,0.04,0.06,0.04,0.06,0C110.94,112.13,110.88,112.13,110.88,112.17z"/>
	<path class="st5" d="M123.16,92.6c0,1.17,1.82,1.17,1.82,0C124.99,91.43,123.16,91.43,123.16,92.6z"/>
	<path class="st5" d="M126.19,81.3c0,0.04,0.06,0.04,0.06,0C126.25,81.26,126.19,81.26,126.19,81.3z"/>
	<path class="st5" d="M121.62,72.35c-0.1,0-0.1,0.16,0,0.16c0.2,0,0.41,0.01,0.61,0.01c0.12,0,0.12-0.19,0-0.19
		C122.03,72.35,121.83,72.35,121.62,72.35z"/>
	<path class="st5" d="M129.25,76.41c0,0.04,0.06,0.04,0.06,0C129.31,76.37,129.25,76.37,129.25,76.41z"/>
	<path class="st5" d="M136.9,90.77c0,0.04,0.06,0.04,0.06,0C136.96,90.73,136.9,90.73,136.9,90.77z"/>
	<path class="st5" d="M142.45,102.08c0,1.17,1.82,1.17,1.82,0C144.27,100.91,142.45,100.91,142.45,102.08z"/>
	<path class="st5" d="M144.86,107.58c0,0.04,0.06,0.04,0.06,0C144.92,107.54,144.86,107.54,144.86,107.58z"/>
	<path class="st5" d="M147.35,117.06c0,1.17,1.82,1.17,1.82,0C149.17,115.88,147.35,115.88,147.35,117.06z"/>
	<path class="st5" d="M153.44,122.56c0,0.04,0.06,0.04,0.06,0C153.5,122.52,153.44,122.52,153.44,122.56z"/>
	<path class="st5" d="M152.52,128.36c0,0.04,0.06,0.04,0.06,0C152.58,128.32,152.52,128.32,152.52,128.36z"/>
	<path class="st5" d="M145.51,128.67c0,1.17,1.82,1.17,1.82,0C147.34,127.5,145.51,127.5,145.51,128.67z"/>
	<path class="st5" d="M126.19,120.11c0,0.04,0.06,0.04,0.06,0C126.25,120.07,126.19,120.07,126.19,120.11z"/>
	<path class="st5" d="M118.85,121.62c-0.03,0.03,0.02,0.07,0.04,0.04c0.2-0.2,0.41-0.41,0.61-0.61c0.03-0.03-0.02-0.07-0.04-0.04
		L118.85,121.62z"/>
	<path class="st5" d="M111.49,103.3c0,0.04,0.06,0.04,0.06,0C111.55,103.26,111.49,103.26,111.49,103.3z"/>
	<path class="st5" d="M85.56,63.57c0,0.7,1.09,0.7,1.09,0C86.65,62.87,85.56,62.87,85.56,63.57z"/>
	<path class="st5" d="M95.87,54.71c0,0.04,0.06,0.04,0.06,0C95.94,54.67,95.87,54.67,95.87,54.71z"/>
	<path class="st5" d="M94.65,55.01c0,0.04,0.06,0.04,0.06,0C94.71,54.97,94.65,54.97,94.65,55.01z"/>
	<path class="st5" d="M90.44,51.35c0,0.73,1.13,0.73,1.13,0C91.57,50.62,90.44,50.62,90.44,51.35z"/>
	<path class="st5" d="M74.33,60.97c-0.28,0.14-0.56,0.29-0.85,0.43c-0.33,0.17-0.45,0.61-0.31,0.93c0.16,0.36,0.5,0.5,0.88,0.43
		c0.32-0.06,0.64-0.11,0.96-0.17c0.53-0.09,0.76-0.75,0.58-1.2C75.38,60.89,74.81,60.73,74.33,60.97z"/>
	<path class="st5" d="M66.18,67.24c0,0.04,0.06,0.04,0.06,0C66.24,67.2,66.18,67.2,66.18,67.24z"/>
	<path class="st5" d="M55.8,61.74c0,1.17,1.82,1.17,1.82,0C57.63,60.57,55.8,60.56,55.8,61.74z"/>
	<path class="st5" d="M67.4,69.07c0,0.04,0.06,0.04,0.06,0C67.46,69.03,67.4,69.03,67.4,69.07z"/>
	<path class="st5" d="M58.38,56.24c0,0.62,0.96,0.62,0.96,0C59.34,55.62,58.38,55.62,58.38,56.24z"/>
	<path class="st5" d="M53.64,33.62c0,1.59,2.47,1.59,2.47,0C56.11,32.03,53.64,32.03,53.64,33.62z"/>
	<path class="st5" d="M56.72,20.78c0,1.17,1.82,1.17,1.82,0C58.54,19.61,56.72,19.61,56.72,20.78z"/>
	<path class="st5" d="M48.72,11.61c0,0.04,0.06,0.04,0.06,0C48.78,11.57,48.72,11.57,48.72,11.61z"/>
	<path class="st5" d="M28.21,19.87c0,0.04,0.06,0.04,0.06,0C28.27,19.83,28.21,19.83,28.21,19.87z"/>
	<path class="st5" d="M26.68,23.84c0,0.04,0.06,0.04,0.06,0C26.74,23.8,26.68,23.8,26.68,23.84z"/>
	<path class="st4" d="M65.27,12.84c0,1.21,1.88,1.21,1.88,0C67.15,11.63,65.27,11.63,65.27,12.84z"/>
	<path class="st4" d="M55.49,15.28c0,1.58,2.45,1.58,2.45,0C57.94,13.71,55.49,13.7,55.49,15.28z"/>
	<path class="st4" d="M47.21,19.56c0,1.17,1.34,1.47,2.05,0.92c-0.1,0.17-0.17,0.37-0.17,0.61c0,1.53,2.38,1.53,2.38,0
		c0-1.13-1.29-1.42-1.97-0.89c0.11-0.17,0.18-0.38,0.18-0.64C49.68,17.97,47.21,17.97,47.21,19.56z"/>
	<path class="st4" d="M52.04,28.73c0,1.29,2.01,1.29,2.01,0C54.04,27.44,52.04,27.44,52.04,28.73z"/>
	<path class="st4" d="M66.18,36.06c0,0.04,0.06,0.04,0.06,0C66.24,36.02,66.18,36.02,66.18,36.06z"/>
	<path class="st4" d="M45.06,46.46c0,0.41,0.65,0.42,0.65,0C45.71,46.04,45.06,46.04,45.06,46.46z"/>
	<path class="st4" d="M49.96,77.91c-0.04,0.02,0,0.07,0.03,0.05c0.2-0.1,0.41-0.2,0.61-0.31c0.04-0.02,0-0.07-0.03-0.05
		C50.37,77.7,50.17,77.81,49.96,77.91z"/>
	<path class="st4" d="M53.32,82.23c0.2,0.31,0.41,0.61,0.61,0.92c0.02,0.03,0.07,0,0.05-0.03c-0.2-0.31-0.41-0.61-0.61-0.92
		C53.35,82.17,53.3,82.2,53.32,82.23z"/>
	<path class="st4" d="M63.73,95.36c0,0.04,0.06,0.04,0.06,0C63.79,95.32,63.73,95.32,63.73,95.36z"/>
	<path class="st4" d="M72.01,102.72l1.84,0.92c0.04,0.02,0.07-0.04,0.03-0.05l-1.84-0.92C72,102.65,71.97,102.7,72.01,102.72z"/>
	<path class="st4" d="M53.01,84.35c0,0.04,0.06,0.04,0.06,0C53.07,84.31,53.01,84.31,53.01,84.35z"/>
	<path class="st4" d="M48.72,78.55c0,0.04,0.06,0.04,0.06,0C48.78,78.51,48.72,78.51,48.72,78.55z"/>
	<path class="st4" d="M45.56,72.43c0,0.96,1.49,0.96,1.49,0C47.05,71.47,45.56,71.47,45.56,72.43z"/>
	<path class="st4" d="M58.18,84.96c0,1.66,2.58,1.66,2.58,0C60.76,83.31,58.18,83.3,58.18,84.96z"/>
	<path class="st4" d="M57.73,89.46c-0.09,0.62,0,1.15,0.53,1.56c0.7,0.54,1.73,0.35,2.18-0.42c0.42-0.71,0.14-1.59-0.53-2.03
		C59.17,88.1,57.87,88.52,57.73,89.46z"/>
	<path class="st4" d="M68.72,98.17c-0.53,0.49-0.46,1.59,0.25,1.9c0.48,0.21,0.92,0.23,1.35-0.09c0.57-0.44,0.64-1.29,0.12-1.81
		C69.96,97.69,69.2,97.72,68.72,98.17z"/>
	<path class="st4" d="M78.14,104.52c0,1.58,2.45,1.58,2.45,0C80.6,102.95,78.14,102.95,78.14,104.52z"/>
	<path class="st4" d="M88.29,111.25c0,1.12,1.75,1.13,1.75,0C90.04,110.12,88.29,110.12,88.29,111.25z"/>
	<path class="st4" d="M100.59,119.5c0,0.75,0.66,1.47,1.44,1.43c0.78-0.03,1.44-0.63,1.44-1.43c0-0.75-0.66-1.47-1.44-1.43
		C101.25,118.1,100.59,118.7,100.59,119.5z"/>
	<path class="st4" d="M105.41,119.91c-0.45,0.22-0.83,0.58-0.83,1.12c0,0.85,0.96,1.4,1.7,0.97c0.69-0.4,0.78-1.56,0-1.94
		C105.97,119.91,105.75,119.75,105.41,119.91z"/>
	<path class="st4" d="M111.22,116.44c0,1.96,3.06,1.97,3.06,0C114.27,114.48,111.22,114.48,111.22,116.44z"/>
	<path class="st4" d="M117.95,124.7c0,1.57,2.44,1.57,2.44,0C120.39,123.13,117.95,123.13,117.95,124.7z"/>
	<path class="st4" d="M126.57,129.28c0,1.51,2.35,1.51,2.35,0C128.92,127.77,126.57,127.77,126.57,129.28z"/>
	<path class="st4" d="M132.23,128.06c0,1.71,2.67,1.72,2.67,0C134.9,126.34,132.23,126.34,132.23,128.06z"/>
	<path class="st4" d="M138.2,130.2c0,1.12,1.75,1.13,1.75,0C139.95,129.07,138.2,129.07,138.2,130.2z"/>
	<path class="st4" d="M143.45,94.44c0,1.46,2.27,1.46,2.27,0C145.72,92.98,143.45,92.98,143.45,94.44z"/>
	<path class="st4" d="M141.25,81.6c0,1.53,2.38,1.53,2.38,0C143.64,80.07,141.25,80.07,141.25,81.6z"/>
	<path class="st4" d="M124.36,74.27c0,1.6,2.5,1.61,2.5,0C126.85,72.66,124.36,72.66,124.36,74.27z"/>
	<path class="st4" d="M117.61,66.93c0,1.62,2.53,1.63,2.53,0C120.13,65.31,117.61,65.31,117.61,66.93z"/>
	<path class="st4" d="M108.99,61.43c0,1.68,2.61,1.68,2.61,0C111.6,59.75,108.99,59.75,108.99,61.43z"/>
	<path class="st4" d="M101.65,77.63c0,2.06,3.2,2.06,3.2,0C104.85,75.57,101.65,75.57,101.65,77.63z"/>
	<path class="st4" d="M102.29,81.91c0,2.03,3.16,2.03,3.16,0C105.44,79.88,102.29,79.88,102.29,81.91z"/>
	<path class="st4" d="M106.66,96.45c-0.48,0.2-0.81,0.63-0.88,1.15c-0.08,0.6,0.2,1.14,0.71,1.47c0.02,0.01,0.04,0.02,0.05,0.04
		c-0.02-0.01,0.06,0.05,0.24,0.18c0.11,0.06,0.21,0.1,0.32,0.13c0.43,0.23,0.91,0.02,1.16-0.35c0.22-0.25,0.29-0.58,0.4-0.89
		c0.17-0.47-0.04-1.09-0.38-1.44C107.86,96.34,107.21,96.22,106.66,96.45z"/>
	<path class="st4" d="M118.71,102.69c0,0.88,0.78,1.73,1.69,1.69c0.92-0.04,1.69-0.74,1.69-1.69c0-0.88-0.78-1.73-1.69-1.69
		C119.48,101.04,118.71,101.74,118.71,102.69z"/>
	<path class="st4" d="M113.65,110.64c0,1.98,3.09,1.99,3.09,0C116.74,108.66,113.65,108.65,113.65,110.64z"/>
	<path class="st4" d="M88.18,44.93c0,2.06,3.2,2.06,3.2,0C91.38,42.87,88.18,42.87,88.18,44.93z"/>
	<path class="st4" d="M86.2,27.81c0,1.85,2.88,1.86,2.88,0C89.08,25.96,86.2,25.96,86.2,27.81z"/>
	<path class="st4" d="M73.26,6.72c0,1.95,3.03,1.95,3.03,0C76.29,4.78,73.26,4.78,73.26,6.72z"/>
	<path class="st4" d="M53.06,3.36c0,1.94,3.01,1.94,3.01,0C56.08,1.43,53.06,1.42,53.06,3.36z"/>
	<path class="st4" d="M43.34,3.67c0,1.84,2.87,1.85,2.87,0C46.21,1.82,43.34,1.82,43.34,3.67z"/>
</g>
</svg>
