<?xml version="1.0" encoding="utf-8"?>
<!-- Generator: Adobe Illustrator 25.2.3, SVG Export Plug-In . SVG Version: 6.00 Build 0)  -->
<svg version="1.1" id="Layer_1" xmlns="http://www.w3.org/2000/svg" xmlns:xlink="http://www.w3.org/1999/xlink" x="0px" y="0px"
	 viewBox="0 0 156.39 208.91" style="enable-background:new 0 0 159.39 208.91;" xml:space="preserve">
<style type="text/css">
	.st0{fill:#D6AD29;}
	.st1{fill:#B79D1D;}
	.st2{fill:#A5B508;}
	.st3{fill:#557507;}
	.st4{fill:#C6A028;}
	.st5{fill:#E2BD23;}
</style>
<g>
	<path class="st0" d="M139.58,208.91H70.6c-0.03-1.01-0.07-2.01-0.12-2.97c-0.31-5.2-0.94-10.24-2.19-15.3
		c-1.77-7.23-4.15-14.65-7.06-21.68c-0.87-0.11-1.69-0.51-2.32-1.3c-2.13-2.7-4.41-5.27-6.84-7.69c-1.07-1.08-2.19-2.13-3.33-3.14
		c-2.55-2.28-5.25-4.39-8.09-6.31c-1.02-0.69-2.06-1.35-3.1-1.97c-1.49-0.9-3-1.74-4.53-2.53c-0.81-0.42-1.62-0.82-2.44-1.21
		c-0.57-0.27-1.14-0.54-1.72-0.8c-3.93-1.8-7.98-3.35-12.09-4.83c-5.59-0.26-11.17-0.38-16.77-0.33l0-68.11
		c1.19-0.09,2.37-0.14,3.44-0.33c4.07-0.73,8.01-2.19,11.81-3.8c6.86-2.92,13.59-6.35,20.88-7.99c1.17-2.05,3.26-3.3,5.27-4.56
		c1.01-0.63,2-1.29,2.97-1.98c3.68-2.6,7.05-5.62,9.81-9.21c3.69-4.81,6.56-10.31,9.46-15.61c2.84-5.17,5.33-10.59,5.75-16.54
		c0.06-0.91,0.33-1.65,0.74-2.27c0.18-2.81,0.29-5.62,0.32-8.44l69.23,0c0.09,0.29,0.15,0.59,0.23,0.88
		c-0.2,0.24-0.34,0.56-0.34,0.96V208.91z"/>
	<path class="st1" d="M0,73.52l0-9.71c1.92,0.28,3.8,0.83,5.4-0.51c1.21-1.01,1.47-1.21,2.82-0.88c0.01,0,0.01,0.01,0.01,0.01
		c0.15,0.04,0.32,0.08,0.51,0.13c0.87,0.25,1.46,0.36,2.1,0.23c0,0,0.01,0,0.01,0c0.32-0.07,0.64-0.19,1.04-0.38
		c0.54-0.27,0.97-0.74,1.53-0.99c1.05-0.48,2.16-0.55,3.3-0.51c1.27,0.04,2.34,0.34,3.33,0.06c0.01,0.01,0.01,0.01,0.01,0
		c0.17-0.06,0.32-0.12,0.48-0.2c0.02-0.01,0.04-0.02,0.06-0.02c0.29-0.15,0.56-0.37,0.85-0.67c0.77-0.81,1.08-2.31,1.98-2.98
		c2.07-1.55,4.7,1.48,6.94,0.06c0.08-0.06,0.16-0.12,0.24-0.18c0.45-0.39,0.73-0.96,0.97-1.56c0.29-0.7,0.54-1.45,0.99-2
		c0.49-0.6,1.1-1.02,1.79-1.35c0.03-0.02,0.07-0.03,0.1-0.05c1.42-0.67,3.04-0.74,4.45-1.43c1.21-0.6,2.45-1.3,3.63-1.97
		c1.04-0.59,1.97-1.38,2.85-2.29c0.73-0.74,1.42-1.56,2.09-2.38c0.51-0.62,1.01-1.25,1.51-1.85c0.01,0,0.01-0.01,0.01-0.01
		c0.01-0.02,0.03-0.04,0.04-0.06c0.04-0.1,0.09-0.2,0.13-0.3c0.01-0.01,0.01-0.01,0.01-0.02c0.77-1.55,1.86-2.65,3.05-3.98
		c0.48-0.54,0.89-1.1,1.26-1.68c1.1-1.75,1.84-3.66,3.03-5.42c0.25-0.36,0.54-0.7,0.85-1.03c0.01,0,0.01,0,0.01-0.01
		c0.64-0.68,1.32-1.32,1.78-2.1c0.82-1.39,0.78-3.02,0.97-4.56c0.01-0.09,0.02-0.18,0.04-0.26c0-0.01,0-0.01,0-0.01
		c0.22-1.55,0.7-2.87,1.42-4.21c0.01-0.01,0.01-0.01,0.01-0.01c0.12-0.21,0.23-0.42,0.36-0.64c0.59-1.03,1.3-2.05,1.62-3.2
		c0.42-1.53,0.04-3.04,0.16-4.59c0.09-1.16,0.46-2.22,0.68-3.34c0.19-0.96,0.18-1.8,0.11-2.62c0-0.01,0-0.01,0-0.01
		c-0.06-0.79-0.18-1.56-0.21-2.43C64.29,1,64.14,0.5,64.33,0.09c0.01-0.03-0.02-0.06,0-0.09l7.96,0c0.09,0.98,2.13,1.98,1.78,2.9
		c-0.19,0.51-0.77,1.01-0.91,1.48c-0.27,0.89,0.18,1.34,0.32,2.33c0.12,0.86-0.04,1.79-0.58,2.49c-0.4,0.5-1.37,0.75-1.51,1.34
		c-0.11,0.44,0.46,1.35,0.52,1.8c0.2,1.42-0.43,1.66-0.97,2.79c-0.55,1.14,0.15,2.44-0.18,3.75c-0.23,0.91-0.7,1.35-1.19,2.1
		c-0.74,1.13-0.91,1.72-0.81,3.13c0.09,1.39,0.09,2.46-0.76,3.68c-1.37,1.95-3.23,1.23-3.3,4.22c-0.04,1.79,0.89,3.09-0.04,4.83
		c-1.56,2.93-5.65,2.63-6.55,6.08c-0.39,1.5-0.24,2.92-1.53,4.03c-0.34,0.29-0.76,0.41-1.12,0.65c-1,0.23-1.69,0.89-2.08,1.98
		c-0.04,0.31-0.08,0.61-0.12,0.92c-0.28,0.58-0.59,1.1-0.94,1.57c-0.07,0.1-0.15,0.19-0.23,0.28c-1.1,1.34-2.56,2.07-4.52,1.78
		c-0.21,0.09-0.46,0.13-0.74,0.07c-1.02-0.19-3.28,2.55-3.68,3.24c-0.5,0.85-0.64,1.87-1.23,2.66c-0.79,1.07-1.93,1.62-3.22,1.82
		c-1.38,0.21-2.6-0.42-3.85,0.59c-0.47,0.38-0.77,1.07-1.18,1.53c-0.88,1.02-1.76,1.7-3.14,1.75c-0.75,0.02-1.54-0.47-2.22-0.41
		c-1.63,0.14-1.5,1.21-2.38,2.16c-1.07,1.15-2.54,1.68-4.09,1.65c-2.41-0.03-4.83-2.11-7.04-0.27c-1.42,1.17-1.8,2.85-3.55,3.75
		c-0.36,0.19-0.88,0.26-1.24,0c-2.83-2.09-3.77,0.7-6.19,1.51C2.57,74.61,1.28,73.64,0,73.52z"/>
	<path class="st1" d="M72.9,208.91h-9.19c0.32-0.72,1.75-1.61,1.98-2.52c0.01-0.02,0.02-0.06,0.02-0.09v-0.01
		c0.21-0.83,0.33-1.67,0.28-2.41c-0.02-0.02-0.05-0.04-0.07-0.06c-0.34-0.29-0.42-0.8-0.29-1.23c-0.7-1.37-2.11-2.35-2.75-3.82
		c-0.71-1.64-0.1-1.87,0.47-3.12c0,0,0,0,0-0.01c0.02-0.07,0.06-0.14,0.09-0.21c0.52-0.19,0.6-0.49,0.24-0.9
		c-0.06-0.35-0.23-0.63-0.51-0.85c-0.29-0.45-0.73-0.81-1-1.29c-0.09-0.14-0.15-0.28-0.21-0.42c-0.34-0.72-0.45-1.48-0.62-2.27
		c-0.06-0.24-0.12-0.44-0.21-0.63c-0.01-0.01-0.01-0.01-0.01-0.01c-0.24-0.55-0.59-0.93-0.78-1.54c-0.12-0.37-0.19-0.75-0.25-1.11
		c0-0.01,0-0.01-0.01-0.02v-0.02c-0.08-0.44-0.15-0.86-0.29-1.26c0-0.01,0-0.01-0.01-0.02c-0.17-0.5-0.47-0.94-1.05-1.32
		c-0.24-0.08-0.47-0.25-0.63-0.53c-1.19-2.02-0.61-3.97-1.29-6.08c-0.48-1.5-1.68-1.87-2.6-2.63c-0.34-0.28-0.64-0.61-0.85-1.07
		c-0.26-0.55-0.26-0.98-0.25-1.37c0.01-0.17,0.02-0.34,0.02-0.5c-0.04-0.03-0.09-0.06-0.13-0.09c-0.72-0.56-1.23-1.13-1.76-1.83
		c-0.1,0.01-0.19,0.01-0.29,0.01h-0.01c-0.1-0.01-0.2-0.04-0.29-0.12c-0.87-0.69-1.02-1.44-1-2.34c-0.15-0.1-0.31-0.2-0.47-0.28
		c-0.7-0.33-1.36-0.2-2-0.78c-1.12-1.04-0.82-2.51-0.97-3.83v-0.01c0-0.01,0-0.01,0-0.01c-0.1-0.81-0.36-1.57-1.23-2.13
		c-0.27-0.18-0.57-0.31-0.88-0.39c-0.02-0.01-0.05-0.02-0.07-0.02c-0.62-0.18-1.3-0.23-1.98-0.3c0,0-0.01,0-0.01,0
		c-0.01,0-0.01,0-0.01,0c-1.15-0.12-2.26-0.32-2.99-1.32c-0.42-0.59-0.34-1.19-0.59-1.81c-0.42-1.09,0.07-0.6-0.8-0.95h-0.01
		c-0.06-0.03-0.12-0.06-0.19-0.09c-1.08-0.49-1.84-1.15-2.73-1.58c-0.63-0.31-1.23-0.28-1.81-0.8c-0.29-0.26-0.44-0.65-0.66-0.95
		c-0.05-0.07-0.1-0.14-0.17-0.2c-0.67-0.65-1.56-1.04-2.54-1.15c-1.51-0.17-1.61-0.13-2.57-1.19c-0.01-0.01-0.01-0.01-0.01-0.01
		c-0.06-0.07-0.11-0.13-0.18-0.2c-0.16-0.18-0.26-0.36-0.32-0.53c-0.22-0.54-0.17-0.92-1.35-0.72c0,0-0.01,0-0.01,0
		c-0.07,0.01-0.17,0.03-0.25,0.05c-0.44,0.09-0.93,0.59-1.34,0.79c-0.39,0.18-0.75,0.29-1.13,0.37c-0.34,0.39-0.88,0.55-1.42,0.16
		c-0.07-0.04-0.13-0.09-0.19-0.15c-1.64-1.24-2.24-2.81-3.86-3.74c-0.07-0.04-0.13-0.09-0.21-0.12c-0.39-0.21-0.83-0.37-1.35-0.5
		c-0.88-0.21-1.75-0.42-2.62-0.64h-0.01c-0.01,0-0.02,0-0.02-0.01l-0.33-0.09c-0.01,0-0.01,0-0.02-0.01
		c-0.77-0.2-1.53-0.4-2.29-0.63c-0.03,0.06-0.07,0.12-0.11,0.17c-0.41,0.62-1.02,1.04-1.94,1.18c-0.18,0.03-0.34,0.04-0.5,0.04
		c-0.01,0-0.01,0-0.01,0c-0.55-0.01-1.02-0.19-1.61-0.31c-0.71-0.15-1.3-0.24-1.88-0.29c-0.01,0-0.01,0-0.01,0
		c-0.61-0.05-1.24-0.05-2.02-0.01c-0.67,0.03-1.38,0.04-1.98-0.15l0-9.31c1.41-0.14,2.82-1.04,4.14-0.81
		c0.85,0.15,0.96,0.56,1.8,0.36c0.36-0.09,0.75-0.62,1.12-0.78c1.34-0.58,1.65,0.1,2.77,0.5c0.81,0.29,3.33,0.07,4.19,0.67
		c0.37,0.26,0.47,0.74,0.74,1.07c0,1.04,0.67,1.53,2.01,1.48c0.17-0.05,0.34-0.08,0.53-0.09c0.03-0.02,0.07-0.04,0.1-0.06
		c0.15-0.1,0.29-0.19,0.45-0.28c1-0.36,1.89-1.36,3.03-0.81c0.41,0.2,0.56,0.65,0.86,0.89c0.92,0.76,1.32,0.93,1.67,0.93
		c0.35,0,0.66-0.18,1.4-0.12c1.69,0.13,2.07,0.91,3.3,1.92c0.35-0.01,0.7,0.11,0.98,0.41c0.03,0.04,0.07,0.08,0.1,0.13
		c1.04,1.44,2.87,1.38,4.54,1.51c0.5,0.03,0.97,0.09,1.42,0.2c0.86,0.23,1.54,0.56,2.16,1.05c0.34,0.26,0.64,0.57,0.96,0.93
		c0.32,0.38,0.67,1.23,1.04,1.68c0.08,0.1,0.17,0.18,0.25,0.23c0.74,0.4,2.13-0.27,2.93-0.15c0.94,0.13,1.59,0.52,2.22,1.23
		c1.19,1.34,0.99,3.19,2.99,3.79c1.18,0.36,2.24-0.07,3.29,0.79c1.13,0.93,0.67,1.82,1.05,2.98c0.83,2.54,2.92,2.55,4.94,3.55
		c2.89,1.43,2.81,3.61,3.31,6.44c0.39,2.17,1.37,4.23,2.85,5.88c1.02,1.14,2.14,1.95,2.65,3.45c0.29,0.86,0.26,1.71,0.7,2.54
		c0.59,1.15,1.35,1.42,2.36,2.13c0.97,0.69,1.76,1.38,2.17,2.54c0.52,1.46,0.06,2.84,0.17,4.34c0.13,1.7,1.27,2.84,1.28,4.53
		c0.01,0.21-0.04,0.4-0.12,0.55c0.23,0.46,0.36,0.89,0.45,1.46c0.21,1.42,0.53,2.24,1.15,3.52c0.77,1.56,0.43,1.69-0.07,3.25
		c-0.55,1.72-0.17,1.27,0.5,2.48c0.47,0.83,0.72,1.37,0.8,2.34C75.32,205.35,73.06,207.09,72.9,208.91z"/>
	<path class="st2" d="M4.28,65.28c-0.12-0.01-0.25-0.01-0.39-0.01c-0.01,0-0.01,0-0.01,0C2.91,65.26,1.35,65.28,0,65.09l0-13.02
		h5.44c0.07,0,0.13-0.01,0.19-0.01c0.83-0.09,0.34-0.15,0.87-0.27c0.48-0.12,0.89-0.33,1.42-0.37c1.49-0.1,3.54-0.38,5.04,0.28
		c0.21,0.09,0.43,0.23,0.66,0.37c0.99,0.65,2.05,1.56,2.6,0.29c0.04-0.1,0.07-0.2,0.09-0.29c0.1-0.61-0.16-1.27,0.21-1.87
		c0.87-1.42,1.83-0.52,2.95-0.64c0.14-0.14,0.34-0.25,0.59-0.29c1.46-0.25,1.91-2.22,3.27-2.78c0.59-0.25,1.02-0.09,1.6-0.19
		c0.15-0.02,0.25-0.02,0.33-0.02c0.03-0.05,0.06-0.1,0.09-0.15c0.73-1.2,0.97-1.81,2.42-2.16c0.32,0.04,0.66,0.09,0.99,0.13
		c0.81-0.28,1.44-0.74,1.9-1.38c0.5-0.45,0.79-1.03,1.39-1.4c0.67-0.41,1.28-0.55,2.06-0.43c0.22,0,0.42,0.06,0.61,0.17
		c0.21,0.18,0.38,0.29,0.5,0.32c0.08-0.04,0.17-0.08,0.25-0.12c0.04-0.15,0-0.44-0.13-0.87c0.58-1.18,0.68-1.78,1.89-2.54
		c0.94-0.59,2.05-0.77,2.99-1.3c1.21-0.69,1.02-1.38,1.05-2.68c0.03-1.13,0.17-2.3,1.08-3.09c0.62-0.55,1.27-0.39,1.91-0.75
		c1.56-0.86,0.96-1.1,1.3-2.29c0.43-1.5,0.8-1.72,1.89-2.82c1.48-1.5,1.72-2.52,1.77-4.45c0.01-0.64-0.03-1.26,0.24-1.86
		c0.25-0.53,0.77-0.81,1.05-1.26c0.57-0.03,0.72-0.29,0.44-0.77c-0.2-0.4-0.34-0.81-0.42-1.24c-0.15-1.18,0.27-1.71,1.06-2.49
		c0.31-0.16,0.62-0.31,0.94-0.43c0.77-0.78,0.87-1.57,0.32-2.36c-0.09-0.79-0.48-1.45-0.42-2.28c0.06-0.74,0.53-1.32,0.61-2
		c0.36-2.95-0.37-2.36-1.65-3.94C50.81,1.13,50.7,0.58,50.69,0l13.64,0c-0.01,0.03,0.01,0.06,0,0.09c-0.18,1.31,0.19,2.63,0.21,3.96
		c0,0.01,0,0.01,0,0.01c0.02,0.86-0.01,1.71-0.2,2.57c-0.5,2.29-0.84,4.59-1.37,6.87c-0.38,1.64-0.85,3.3-1.37,4.96
		c0,0.01,0,0.01-0.01,0.01c-0.43,1.41-0.91,2.82-1.42,4.21c0,0.01,0,0.01,0,0.01c-0.64,1.79-1.31,3.55-1.98,5.25
		c-0.23,0.59-0.51,1.14-0.82,1.68c0,0.01,0,0.01-0.01,0.01c-0.59,1.04-1.27,2.02-1.84,3.07c-0.66,1.23-1.28,2.33-2.05,3.38
		c-0.37,0.51-0.77,1.01-1.23,1.51c-0.94,1.01-1.86,1.89-2.55,3.11c-0.2,0.34-0.36,0.7-0.53,1.05c-0.01,0.01-0.01,0.01-0.01,0.02
		c-0.06,0.12-0.12,0.24-0.18,0.36c0,0,0,0.01-0.01,0.01c-0.17,0.32-0.35,0.64-0.58,0.93c-0.29,0.38-0.6,0.69-0.93,0.93
		c-0.42,0.32-0.89,0.53-1.43,0.67c-0.2,0.56-0.4,1.15-0.66,1.71c-0.51,1.15-1.2,2.21-2.3,2.77c-2.33,1.21-4.99,1.65-7.32,2.96
		c-0.11,0.06-0.21,0.12-0.32,0.19c-2.02,1.22-3.06,3.38-4.83,4.72c-0.08,0.06-0.16,0.12-0.24,0.18c-0.1,0.07-0.2,0.15-0.31,0.22
		c-0.63,0.38-1.43,0.64-2.18,0.59c-1.06-0.06-2.37-1.14-3.38-0.99c-1.61,0.25-1.94,2.31-3.03,3.21c-0.26,0.22-0.55,0.4-0.86,0.55
		c-0.02,0.01-0.04,0.02-0.06,0.02c-0.15,0.07-0.31,0.14-0.48,0.2c0,0.01-0.01,0.01-0.01,0c-0.34,0.13-0.69,0.22-1.05,0.29
		c-1.32,0.28-2.68,0.21-4,0.49c-1.32,0.28-2.57,0.95-3.92,1.04c-0.08,0.01-0.16,0.01-0.23,0.01c-0.01,0-0.01,0-0.01,0
		c-0.89-0.01-1.73-0.36-2.61-0.37c0,0-0.01-0.01-0.01-0.01c-0.21,0-0.43,0.02-0.65,0.06c-1.52,0.32-0.69,0.6-1.36,1.59
		c-0.29,0.42-0.63,0.67-1.01,0.8c-0.04,0.05-0.07,0.09-0.12,0.13H5.08C4.89,65.19,4.62,65.29,4.28,65.28z"/>
	<path class="st2" d="M64.33,208.91H50.91c-0.07-0.79-0.09-1.58,0.07-2.33c0.17-0.8,0.74-1.24,1.04-1.89
		c0.9-2.03-0.2-2.48-0.55-4.23c-0.21-1.04,0.13-1.8,0.35-2.78c0.3-1.35,0.58-3.81,0.31-5.21c-0.45-2.32-1.84-1.77-3.16-3.06
		c-1.2-1.19-1.26-2.82-1.04-4.38c-0.15-0.09-0.31-0.17-0.46-0.25c-0.5-0.26-0.66-0.7-0.59-1.13c-0.07-0.2-0.06-0.45,0.04-0.72
		c-0.18,0.49-1.3-0.37-1.66-0.98c-0.72-1.18,0.1-2.34-0.28-3.42c-0.53-1.53-2.48-1.04-3.43-2.03c-0.85-0.87-0.52-1.64-0.73-2.68
		c-0.38-1.89-1.46-1.1-2.82-1.82c-1.07-0.56-1.13-1.32-1.56-2.32c-0.46-1.07,0.77-1.45-1.3-2.2c-0.47-0.17-1.25,0.1-1.78-0.02
		c-0.92-0.21-1.59-0.59-2.05-1.42c-0.25-0.46-0.23-0.84-0.37-1.32c-0.55-1.81-0.64-1.98-2.49-2.19c-1.56-0.17-3.57,0.86-5.07,0.17
		c-1.05-0.48-1-1.37-1.62-2.22c-1.58-2.16-4.09-0.53-6.03-1.35c-1.22-0.51-1.85-1.59-3.14-2c-1.39-0.45-2.49,0.25-3.87-0.08
		c-0.43-0.1-0.8-0.48-1.19-0.58c-1.85-0.48-2.55,0.2-3.98,0.71c-1.17,0.42-2.35-0.75-3.56-0.64l0-12.92c0.34-0.04,0.71-0.04,1.1,0
		c0.22-0.01,0.43,0.01,0.63,0.09c0.74,0.13,1.51,0.34,2.27,0.55c0.01,0,0.01,0,0.01,0c1.32,0.37,2.59,0.73,3.49,0.61
		c0.01,0,0.01,0,0.01,0c0.48-0.07,0.85-0.28,1.07-0.69c0.29-0.57,0.86-0.69,1.37-0.53c0.29,0.09,0.56,0.28,0.74,0.53
		c0.52,0.69,1.02,1.03,1.52,1.18c0.03-0.01,0.07-0.02,0.1-0.03c0.61-0.16,1.21-0.15,1.76-0.04c0.76-0.16,1.54-0.34,2.4-0.03
		c0.08,0.03,0.16,0.07,0.23,0.1s0.14,0.08,0.21,0.12c0.92,0.62,1.15,1.84,1.98,2.63c0.59,0.56,1.21,0.94,1.87,1.11
		c0.06,0.02,0.12,0.03,0.17,0.04c0.35-0.29,0.85-0.41,1.37-0.18c0.04,0.02,0.09,0.04,0.13,0.06c0.12-0.04,0.23-0.07,0.35-0.13
		c0.51-0.24,0.81-0.83,1.46-0.99c0.31-0.07,0.58-0.08,0.85-0.04c0.01,0,0.01,0,0.01,0c0.51,0.09,0.94,0.35,1.35,0.72
		c0.01,0.01,0.02,0.02,0.04,0.03c0.21,0.19,0.34,0.44,0.47,0.7c0,0,0,0,0.01,0.01c0.12,0.23,0.23,0.47,0.4,0.66
		c3.06,3.4,1.57,0.55,3.52,1.25c0.43,0.15,0.81,0.36,1.23,0.57c0.04,0.02,0.08,0.04,0.12,0.06c1.08,0.56,2.24,1.04,3.37,1.48
		c0.99,0.38,1.62,1.07,2.02,1.93h0.01c0.5,1.04,0.67,2.32,0.8,3.57c0.23,0.07,0.4,0.21,0.54,0.37c0.95,0.2,2.02,0.12,3.04,0.15
		c0.01,0,0.01,0,0.01,0c0.01,0,0.01,0,0.01,0c0.69,0.02,1.37,0.08,1.98,0.3c0.02,0.01,0.05,0.02,0.07,0.02
		c0.26,0.1,0.51,0.24,0.75,0.42c0.66,0.49,1.07,1.26,1.35,2.1c0,0.01,0,0.01,0,0.01v0.01c0.26,0.78,0.4,1.62,0.51,2.32
		c0.42,2.68,1.15,0.96,2.89,1.93c1.12,0.63,1.08,1.96,1.34,3.11h0.01c0.17,0.81,0.49,1.53,1.45,1.84c0.33,0.1,0.57,0.31,0.71,0.57
		c0.1,0.18,0.17,0.39,0.19,0.61c0.19,0.3,0.37,0.6,0.56,0.9c0.26,0.22,0.37,0.58,0.35,0.93c-0.01,0.2-0.06,0.39-0.16,0.56
		c-0.15,0.26,1.79,1.61,2,1.86c0.56,0.69,0.81,1.29,0.98,2.14c0.19,0.97-0.32,2.08-0.08,3.01c0.36,1.42,1.2,1.41,2.1,2.18
		c0.35,0.3,0.58,0.56,0.74,0.82c0.01,0.01,0.01,0.01,0.01,0.02c0.24,0.4,0.29,0.79,0.29,1.26v0.02c0.01,0.01,0.01,0.01,0.01,0.02
		c0.01,0.32-0.01,0.7,0.02,1.15c0.09,1.48-0.36,0.41,0.82,1.34c0.06,0.05,0.13,0.1,0.19,0.17c0.01,0,0.01,0.01,0.01,0.01
		c0.31,0.28,0.59,0.62,0.74,0.99c0.21,0.49,0.12,1.06,0.16,1.57c-0.03,0.11-0.06,0.23-0.07,0.34c-0.12,0.7,0.01,1.39,0.39,2.06
		c0.32,0.23,0.59,0.5,0.81,0.81c0.1,0.26,0.17,0.53,0.21,0.8c0,0.01,0,0.01,0,0.01c0.06,0.34,0.07,0.69,0.05,1.04
		c-0.21,0.68-0.39,1.37-0.52,2.08c-0.01,0.05-0.02,0.1-0.03,0.15c0.1,0.88,0.52,1.52,1.24,1.9c0.87,1.08,1.59,1.95,1.26,3.49
		c-0.25,1.14-1.19,1.7-1.26,2.95C64.08,207.84,64.24,208.36,64.33,208.91z"/>
	<path class="st3" d="M64.45,208.91H62c0.04-0.29,1.15-0.58,1.23-0.88c-0.01,0-0.02-0.01-0.03-0.01c-0.87-0.36-1.19-1.3-0.54-2.05
		c1.58-1.83,1.61-2.38-0.21-3.93c-0.53-0.45-0.81-0.55-1.02-1.21c-0.44-1.36,0.23-3.29,0.95-4.8c-0.59-0.32-1.09-0.8-1.43-1.53
		c-0.88-1.87,1.05-3.96-1.86-4.64c-0.81-0.19-1.08-1.12-0.74-1.8c1.04-1.25,0.98-2.54-0.18-3.85c-0.35-0.04-0.69-0.14-1-0.29
		c-0.64-0.47-1.08-0.53-1.46-1.31c-0.74-1.52,1.61-6-1.68-5.89c-0.76,0.03-1.44-0.81-1.18-1.55c0.87-2.51-2-2.23-2.91-3.78
		c-0.61-1.03-0.69-2.4-0.63-3.67c-1.33,0.38-2.56,0.85-3.69-0.55c-1.68-2.07,0.51-6.64-3.04-6.81c-1.93-0.09-3.36,0.6-4.91-1.18
		c-0.94-1.07-1.18-2.44-0.91-3.75c-1.25-0.34-2.88-0.02-4.06-0.89c-0.72-0.54-1.24-1.21-1.58-1.98c-0.84,0.31-1.76,0.34-2.68-0.02
		c-1.29-0.51-2.43-3.63-3.72-3.21c-1.24,0.41-1.26,2.35-3.12,2.19c-2.17-0.19-3.8-3.34-5.02-4.8c-0.12-0.13-0.19-0.28-0.23-0.42
		c-1.04,0.01-3.63,0.73-4.39,0.47c-1.02-0.34-1.73-1.04-2.41-1.79c-0.21,0.46-0.41,1.05-0.46,1.17c-0.27,0.61-1.15,0.74-1.68,0.43
		c-2.33-1.31-4.86-1.4-7.41-1.16L0,143c2.55-0.21,5.04-0.11,7.41,0.88c0.39-0.86,0.82-1.56,1.89-1.81c0.42-0.1,0.89-0.01,1.19,0.31
		c0.59,0.64,1.13,1.43,1.86,1.72c0.01,0.01,0.01,0.01,0.02,0.01c0.1,0.04,0.21,0.07,0.33,0.09c0.01,0.01,0.01,0.01,0.02,0.01h0.01
		c0.26,0.04,0.54,0.02,0.86-0.09c0.71-0.24,1.05-0.81,1.87-0.92c1.53-0.19,2.76,0.7,3.42,1.98c0.13,0.25,0.17,0.5,0.14,0.72
		c0.58,0.77,1.18,1.59,1.87,2.17c1.04,0.87,0.86,0.67,1.72,0.01c0.75-0.57,0.94-1.42,1.95-1.75c0.83-0.28,1.67-0.09,2.37,0.4
		c0.94,0.64,2.4,4.69,4.06,3.05c0.59-0.58,1.91-0.41,2.05,0.54c0.53,3.71,3.85,1.88,5.81,3.39c0.4,0.31,0.79,0.85,0.56,1.38
		c-0.8,1.34-0.07,2.35,2.21,3.01c0.29-0.14,0.6-0.25,0.92-0.34c0.47,0,0.88-0.17,1.38-0.1c0.94,0.13,1.73,0.72,2.3,1.47
		c0.93,1.22,0.85,2.58,1.02,4.01c-0.17,0.66-0.02,1.24,0.45,1.72c0.17,0.81,0.55,0.97,1.16,0.45c0.43,0.03,1.32-0.31,1.78-0.34
		c0.61-0.04,1.29,0.6,1.23,1.23c-0.17,1.71-0.4,3.15,1.28,4.14c0.61,0.36,1.24,0.23,1.8,0.83c0.82,0.88,0.86,2.11,0.64,3.26
		c0.93,0.25,1.75,0.78,2.31,1.68c0.41,0.65,0.6,1.38,0.62,2.15c0.01,0.73-0.76,2.02-0.57,2.65c0.41,1.32,2.79,1.49,3.44,3.06
		c0.55,1.34,0.26,2.66-0.26,3.91c0.76,0.29,1.47,0.69,1.94,1.35c0.67,0.94,0.29,4.75,1.07,4.85c0.9,0.11,1.56,0.96,1.06,1.84
		c-1.03,1.81-1.95,3.51-0.2,4.93c0.66,0.53,1.52,0.94,1.93,1.71c0.72,1.36-0.18,2.63-1.19,3.72v0.01c-0.02,0.02-0.04,0.04-0.06,0.06
		c0.01,0.01,0.02,0.02,0.03,0.03c0.29,0.28,0.45,0.67,0.27,1.11C65.77,207.98,64.54,208.44,64.45,208.91z"/>
	<path class="st3" d="M0,65.2l0-2.38c2.23,0.36,5.12,0.62,5.5-1.74c0.13-0.83,1.17-1.06,1.8-0.73c1.5,0.78,1.72,2.13,3.54,1.28
		c1.7-0.79,3.08-1.42,5-1.6c1.04-0.1,2.09-0.1,3.13-0.16c0.58-0.04,1.37,0.05,1.86-0.31c0.85-0.62,0.23-0.09,0.5-0.9
		c0.38-1.19,0.11-2.17,1.51-2.79c1.21-0.54,2.29,0.01,3.41,0.46c1.47,0.59,2.99,0.95,4.27-0.34c0.66-0.67,0.77-1.69,1.2-2.47
		c0.34-0.62,0.67-1.08,1.08-1.43c0.42-0.34,0.92-0.58,1.61-0.77c1.44-0.39,2.5-0.31,3.73-1.26c0.5-0.39,0.97-0.85,1.54-1.13
		c1.29-0.64,3.01-0.06,3.8-1.06c0.8-1.02,0.32-2.17,1.48-3.06c0.91-0.7,1.44-0.64,2.27-1.64c0.86-1.02,0.65-1.19,1.03-2.3
		c0.39-1.11,1.16-1.92,2.02-2.69c0.62-0.56,1.39-1.01,1.95-1.64c1-1.12,1.16-2.46,1.59-3.84c0.47-1.54,1.25-2.63,2.38-3.75
		c1.48-1.45,1.6-2.96,1.68-4.93c0.02-0.43-0.01-0.86,0.07-1.3c0.34-1.71,1.49-3.56,2.4-4.99c1.01-1.58,2.12-2.93,1.79-5.02
		c-0.07-0.45-0.45-0.8-0.51-1.28c-0.15-1.34,0.78-2.06,1.28-3.18C64.1,5.61,61.6,2.76,62,0l2.51,0c-0.77,2.22,1.42,4.72,1.23,7.03
		c-0.15,1.82-1.62,3.12-1.26,4.77c0.36,1.64,0.85,2.52-0.03,4.23c-1.34,2.6-4.23,5.01-3.99,8.17c0.14,1.89,0.53,2.87-0.72,4.59
		c-0.61,0.85-1.45,1.46-2.16,2.22c-1.08,1.16-1.32,2.32-1.75,3.77c-0.53,1.81-1.29,2.95-2.69,4.2c-0.62,0.56-1.38,1-1.91,1.64
		c-0.8,0.97-0.69,1.92-0.99,3.04c-0.4,1.45-1.19,1.68-2.27,2.5c-0.97,0.74-0.5-0.13-1.27,1.15c-0.59,0.99-0.26,0.62-0.48,1.19
		c-0.27,0.67-0.25,1.07-0.75,1.61c-1.09,1.13-2.4,0.53-3.74,0.78c-0.87,0.17-1.59,0.66-2.3,1.19c-0.79,0.58-1.57,1.19-2.54,1.42
		c-1.59,0.36-2.36,0.53-3.35,2.09c-0.31,0.5-0.45,1.07-0.82,1.57c-0.81,1.07-2,1.78-3.3,2.08c-1.92,0.45-2.73-0.57-4.42-0.8
		c-1.85-0.25-0.89,1.9-1.93,2.93c-0.9,0.89-2.5,0.85-3.66,0.93c-2.32,0.16-4.94-0.1-7,1.19c-1.17,0.73-2.06,1.96-3.62,1.45
		c-0.74-0.24-1.16-0.85-1.61-1.42c-0.51,0.75-1.24,1.23-2.1,1.49H5.08c-0.37,0.13-0.77,0.21-1.19,0.26c-0.01,0-0.01,0-0.01,0
		C2.63,65.44,1.26,65.34,0,65.2z"/>
	<path class="st4" d="M117.21,16.22c0.42-0.25,0.76-0.59,1.01-1.01c0.12-0.17,0.17-0.29,0.26-0.5c0.14-0.34,0.27-0.77,0.23-1.15
		c-0.08-0.71-0.24-1.41-0.79-1.91c-0.18-0.14-0.36-0.28-0.55-0.42c-0.42-0.24-0.88-0.37-1.36-0.37c-0.55-0.06-1.2,0.17-1.65,0.5
		c-0.42,0.25-0.76,0.59-1.01,1.01c-0.26,0.44-0.38,0.92-0.39,1.43c0.03,0.75,0.29,1.46,0.83,2c0.51,0.51,1.27,0.83,2,0.83
		C116.3,16.61,116.77,16.48,117.21,16.22z"/>
	<path class="st4" d="M126.61,17.15c0-3.68-5.72-3.69-5.72,0C120.89,20.83,126.61,20.84,126.61,17.15z"/>
	<path class="st4" d="M124.76,29.8c0.47-0.47,0.83-1.25,0.8-1.93c-0.03-0.71-0.26-1.44-0.8-1.93c-0.5-0.46-1.23-0.88-1.93-0.8
		c-0.55,0.06-1.12,0.08-1.64,0.3c-0.5,0.21-0.8,0.41-1.24,0.78c-0.42,0.35-0.71,1.11-0.68,1.65c0.03,0.59,0.22,1.25,0.68,1.65
		c0.43,0.37,0.74,0.57,1.24,0.78c0.52,0.22,1.08,0.24,1.64,0.3C123.48,30.68,124.32,30.24,124.76,29.8z"/>
	<path class="st4" d="M99.5,33.69c0-3.08-4.79-3.08-4.79,0C94.71,36.77,99.5,36.78,99.5,33.69z"/>
	<path class="st4" d="M90.91,22.97c0-2.28-3.54-2.28-3.54,0C87.37,25.25,90.91,25.26,90.91,22.97z"/>
	<path class="st4" d="M103.37,26.48c0.44-0.44,0.74-1.26,0.5-1.87c-0.17-0.42-0.33-0.82-0.59-1.2c-0.42-0.62-1.09-1.11-1.88-1.08
		c-0.58,0.03-1.12,0.22-1.54,0.64c-0.39,0.39-0.64,0.98-0.64,1.54c0,0.81,0.43,1.44,1.08,1.88c0.38,0.26,0.78,0.42,1.2,0.59
		C102.11,27.22,102.92,26.92,103.37,26.48z"/>
	<path class="st4" d="M115.49,44.42c0-2.77-4.31-2.78-4.31,0C111.18,47.19,115.49,47.19,115.49,44.42z"/>
	<path class="st4" d="M88.95,50.85c0-3.31-5.15-3.32-5.15,0C83.81,54.16,88.95,54.16,88.95,50.85z"/>
	<path class="st4" d="M77.63,64.63c0-4.11-6.39-4.12-6.39,0C71.24,68.74,77.63,68.75,77.63,64.63z"/>
	<path class="st4" d="M84.89,10.72c0-2.18-2.05-3.03-3.66-2.58c-0.77-0.5-2.08-0.15-2.08,1.05c0,0.32,0.1,0.58,0.25,0.78
		c-0.06,0.23-0.1,0.48-0.1,0.75C79.29,14.32,84.89,14.33,84.89,10.72z"/>
	<path class="st4" d="M105.34,11.44c0-0.94-0.77-1.39-1.51-1.34c-0.01-3.13-4.88-3.13-4.88,0.01c0,2.17,2.34,2.84,3.78,2.01
		C103.33,13.18,105.34,12.96,105.34,11.44z"/>
	<path class="st4" d="M138.7,49.32c0-3.87-6.01-3.87-6.01,0C132.7,53.18,138.7,53.19,138.7,49.32z"/>
	<path class="st4" d="M133.97,37.37c0-3.3-5.12-3.3-5.12,0C128.85,40.67,133.97,40.67,133.97,37.37z"/>
	<path class="st4" d="M120.18,64.63c0-2.89-4.5-2.9-4.5,0C115.68,67.53,120.18,67.53,120.18,64.63z"/>
	<path class="st4" d="M104.53,62.18c0-2.46-3.83-2.47-3.83,0C100.7,64.65,104.53,64.65,104.53,62.18z"/>
	<path class="st4" d="M96.57,76.27c0-3.65-5.67-3.66-5.67,0C90.9,79.92,96.57,79.93,96.57,76.27z"/>
	<path class="st4" d="M80.98,36.45c0-3.7-5.74-3.7-5.74,0C75.24,40.15,80.98,40.15,80.98,36.45z"/>
	<path class="st4" d="M68.27,57.59c0-2.71-4.21-2.71-4.21,0C64.06,60.3,68.27,60.3,68.27,57.59z"/>
	<path class="st4" d="M53.24,64.33c0-2.68-4.16-2.68-4.16,0C49.07,67.01,53.24,67.01,53.24,64.33z"/>
	<path class="st4" d="M53.44,79.64c0-4.13-6.41-4.13-6.41,0C47.03,83.77,53.44,83.78,53.44,79.64z"/>
	<path class="st4" d="M43.59,79.34c0-4.07-6.32-4.07-6.32,0C37.28,83.4,43.59,83.41,43.59,79.34z"/>
	<path class="st4" d="M33.08,72.6c0-3.54-5.5-3.55-5.5,0C27.57,76.14,33.08,76.14,33.08,72.6z"/>
	<path class="st4" d="M24.05,81.84c0.59-0.48,0.98-1.21,0.98-2.2c0-2.01-1.64-2.97-3.2-2.87c-0.22-1.88-3.25-1.82-3.25,0.21
		c0,0.66,0.32,1.12,0.77,1.36c-0.17,0.37-0.27,0.8-0.27,1.29c0,1.68,1.15,2.63,2.43,2.83C22.16,83.39,23.92,83.18,24.05,81.84z"/>
	<path class="st4" d="M13.6,80.26c0-3.71-5.77-3.72-5.77,0C7.84,83.97,13.6,83.97,13.6,80.26z"/>
	<path class="st4" d="M16.58,100.17c0-3.99-6.2-3.99-6.2,0C10.38,104.15,16.58,104.16,16.58,100.17z"/>
	<path class="st4" d="M19.85,104.45c0-3.08-4.79-3.08-4.79,0C15.07,107.53,19.85,107.54,19.85,104.45z"/>
	<path class="st4" d="M33.61,96.18c0-3.83-5.96-3.84-5.96,0C27.65,100.02,33.61,100.02,33.61,96.18z"/>
	<path class="st4" d="M26.03,96.39c0-0.27-0.1-0.48-0.25-0.63c0.75-0.3,1.33-0.97,1.33-2.03c0-2.96-4.59-2.96-4.59,0
		c0,1.27,0.86,2,1.83,2.17c-0.08,0.13-0.14,0.29-0.14,0.48C24.21,97.56,26.03,97.56,26.03,96.39z"/>
	<path class="st4" d="M9.49,88.83c0-1.28-1.12-2.5-2.44-2.44c-1.32,0.06-2.44,1.07-2.44,2.44c0,1.28,1.12,2.5,2.44,2.44
		C8.37,91.21,9.49,90.2,9.49,88.83z"/>
	<path class="st4" d="M8.8,110.27c0-3.05-4.74-3.05-4.74,0C4.06,113.32,8.8,113.33,8.8,110.27z"/>
	<path class="st4" d="M13.53,121.3c0-3.62-5.62-3.62-5.62,0C7.91,124.92,13.53,124.93,13.53,121.3z"/>
	<path class="st4" d="M10.25,130.19c0-3.34-5.19-3.35-5.19,0C5.06,133.53,10.25,133.53,10.25,130.19z"/>
	<path class="st4" d="M23.75,136.31c0-4.16-6.46-4.16-6.46,0C17.29,140.47,23.75,140.48,23.75,136.31z"/>
	<path class="st4" d="M38.64,139.68c0-3.6-5.6-3.61-5.6,0C33.04,143.28,38.64,143.29,38.64,139.68z"/>
	<path class="st4" d="M49.29,127.12c0-3.91-6.08-3.92-6.08,0C43.21,131.03,49.29,131.04,49.29,127.12z"/>
	<path class="st4" d="M33.75,118.24c0-3.22-5-3.22-5,0C28.74,121.46,33.75,121.46,33.75,118.24z"/>
	<path class="st4" d="M25.98,113.34c0-3.08-4.79-3.08-4.79,0C21.19,116.42,25.98,116.42,25.98,113.34z"/>
	<path class="st4" d="M47.07,102.78c0.6,1.2,2.8,0.98,2.8-0.67c0-1.22-1.21-1.65-2.08-1.31c0,0,0-0.01,0-0.01
		c0-3.96-6.15-3.96-6.15,0C41.65,103.89,45.45,104.56,47.07,102.78z"/>
	<path class="st4" d="M59.59,108.44c0-3.76-5.84-3.76-5.84,0C53.75,112.19,59.59,112.2,59.59,108.44z"/>
	<path class="st4" d="M59.04,127.73c0-3.83-5.96-3.84-5.96,0C53.08,131.57,59.04,131.58,59.04,127.73z"/>
	<path class="st4" d="M63.3,93.73c0-3.4-5.29-3.41-5.29,0C58.01,97.14,63.3,97.14,63.3,93.73z"/>
	<path class="st4" d="M89.03,103.54c0-3.02-4.69-3.02-4.69,0C84.34,106.55,89.03,106.56,89.03,103.54z"/>
	<path class="st4" d="M84.82,114.56c0-3.11-4.83-3.12-4.83,0C79.98,117.67,84.82,117.68,84.82,114.56z"/>
	<path class="st4" d="M75.79,138.76c0-3.33-5.17-3.33-5.17,0C70.63,142.09,75.79,142.09,75.79,138.76z"/>
	<path class="st4" d="M71.73,145.86c-0.01,0.05-0.02,0.1-0.02,0.16c0,1.52,2.37,1.53,2.37,0c0-1.37-1.91-1.51-2.3-0.41
		c0.02-0.13,0.04-0.26,0.04-0.41c0-2.96-4.59-2.96-4.59,0C67.24,147.91,71.1,148.13,71.73,145.86z"/>
	<path class="st4" d="M58,140.29c0-3.3-5.12-3.3-5.12,0C52.88,143.59,58,143.59,58,140.29z"/>
	<path class="st4" d="M61.58,145.5c0-3.96-6.15-3.96-6.15,0C55.43,149.46,61.58,149.47,61.58,145.5z"/>
	<path class="st4" d="M75.45,89.44c0-4.07-6.32-4.07-6.32,0C69.13,93.51,75.45,93.52,75.45,89.44z"/>
	<path class="st4" d="M88.88,90.36c0-4.4-6.84-4.41-6.84,0C82.04,94.77,88.88,94.78,88.88,90.36z"/>
	<path class="st4" d="M115.08,108.13c0-4.22-6.56-4.23-6.56,0C108.53,112.35,115.08,112.36,115.08,108.13z"/>
	<path class="st4" d="M104.43,121.91c0-3.51-5.46-3.52-5.46,0C98.97,125.43,104.43,125.43,104.43,121.91z"/>
	<path class="st4" d="M91.29,131.41c0-3.96-6.15-3.96-6.15,0C85.14,135.37,91.29,135.37,91.29,131.41z"/>
	<path class="st4" d="M95.81,140.6c0-3.46-5.38-3.47-5.38,0C90.43,144.06,95.81,144.07,95.81,140.6z"/>
	<path class="st4" d="M109.54,142.44c0-3-4.67-3.01-4.67,0C104.88,145.44,109.54,145.45,109.54,142.44z"/>
	<path class="st4" d="M112.8,150.1c0-4.03-6.27-4.04-6.27,0C106.53,154.13,112.8,154.14,112.8,150.1z"/>
	<path class="st4" d="M95.93,150.1c0-3.62-5.62-3.62-5.62,0C90.31,153.71,95.93,153.72,95.93,150.1z"/>
	<path class="st4" d="M81.33,147.95c0-3.74-5.82-3.75-5.82,0C75.51,151.69,81.33,151.7,81.33,147.95z"/>
	<path class="st4" d="M68.18,157.75c0-4.17-6.49-4.18-6.49,0C61.7,161.93,68.18,161.93,68.18,157.75z"/>
	<path class="st4" d="M71.44,168.47c0-3.63-5.65-3.64-5.65,0C65.79,172.11,71.44,172.11,71.44,168.47z"/>
	<path class="st4" d="M80.11,174.6c0-3.36-5.22-3.36-5.22,0C74.89,177.96,80.11,177.96,80.11,174.6z"/>
	<path class="st4" d="M91.49,174.6c0-3.42-5.31-3.42-5.31,0C86.18,178.02,91.49,178.03,91.49,174.6z"/>
	<path class="st4" d="M87.09,184.4c0-4.07-6.32-4.07-6.32,0C80.77,188.47,87.09,188.48,87.09,184.4z"/>
	<path class="st4" d="M81.32,195.12c0-2.94-4.57-2.95-4.57,0C76.74,198.07,81.32,198.07,81.32,195.12z"/>
	<path class="st4" d="M87.61,205.85c0-1.97-3.06-1.97-3.06,0C84.54,207.82,87.61,207.82,87.61,205.85z"/>
	<path class="st4" d="M104.98,200.03c0-2.65-4.12-2.65-4.12,0C100.86,202.67,104.98,202.68,104.98,200.03z"/>
	<path class="st4" d="M108.34,196.04c0-1.61-1.18-2.46-2.43-2.55c-0.82-0.61-2.3-0.28-2.4,1c-0.3,0.4-0.48,0.92-0.48,1.55
		C103.02,199.46,108.34,199.47,108.34,196.04z"/>
	<path class="st4" d="M117.11,199.72c0-3.28-5.1-3.29-5.1,0C112.01,203,117.11,203,117.11,199.72z"/>
	<path class="st4" d="M124.52,202.78c0-3.36-5.22-3.36-5.22,0C119.31,206.14,124.52,206.14,124.52,202.78z"/>
	<path class="st4" d="M131.53,195.12c0-3.7-5.74-3.7-5.74,0C125.78,198.82,131.53,198.83,131.53,195.12z"/>
	<path class="st4" d="M130.12,183.79c0-3.06-4.76-3.07-4.76,0C125.35,186.86,130.12,186.86,130.12,183.79z"/>
	<path class="st4" d="M117.84,180.42c0-3.82-5.93-3.83-5.93,0C111.9,184.24,117.84,184.25,117.84,180.42z"/>
	<path class="st4" d="M110.4,170.93c0-1-0.77-1.5-1.55-1.5c0.13-0.27,0.2-0.58,0.2-0.95c0-2.66-3.95-2.76-4.28-0.32
		c-0.53,0.07-1.01,0.45-1.01,1.14c0,1.1,1.22,1.41,1.92,0.93c0.48,0.29,1.09,0.39,1.65,0.29c-0.03,0.13-0.05,0.26-0.05,0.41
		C107.29,172.93,110.4,172.93,110.4,170.93z"/>
	<path class="st4" d="M103.4,165.41c0-2.59-4.02-2.59-4.02,0C99.38,168,103.4,168,103.4,165.41z"/>
	<path class="st4" d="M104.16,182.27c0.55-0.6,0.89-1.33,0.89-2.16c0-0.78-0.34-1.6-0.89-2.16c-0.53-0.53-1.4-0.93-2.16-0.89
		c-0.79,0.04-1.61,0.29-2.16,0.89c-0.55,0.6-0.89,1.33-0.89,2.16c0,0.78,0.34,1.6,0.89,2.16c0.53,0.53,1.4,0.93,2.16,0.89
		C102.79,183.13,103.61,182.87,104.16,182.27z"/>
	<path class="st4" d="M132.21,172.15c0-3.79-5.89-3.79-5.89,0C126.32,175.94,132.21,175.94,132.21,172.15z"/>
	<path class="st4" d="M139.58,163.23c-1.46-0.26-3.14,0.56-3.14,2.49c0,1.92,1.68,2.74,3.14,2.49V163.23z"/>
	<path class="st4" d="M139.58,151.32c-1.13-0.73-3.05-0.22-3.05,1.54c0,1.75,1.92,2.26,3.05,1.54V151.32z"/>
	<path class="st4" d="M131.07,151.32c0-2.09-1.75-3.06-3.37-2.91c-1-2.64-5.64-2.29-5.64,1.07c0,1.96,1.58,2.89,3.1,2.81
		C126.07,155.18,131.07,154.87,131.07,151.32z"/>
	<path class="st4" d="M126.55,133.25c0-3.99-6.2-3.99-6.2,0C120.35,137.24,126.55,137.24,126.55,133.25z"/>
	<path class="st4" d="M126.9,120.69c0-4.05-6.29-4.06-6.29,0C120.61,124.74,126.9,124.75,126.9,120.69z"/>
	<path class="st4" d="M112.1,92.01c0.48-0.13,0.89-0.38,1.24-0.72c0.35-0.35,0.59-0.77,0.72-1.24c0.13-0.5,0.13-1,0-1.5
		c-0.01-0.06-0.02-0.12-0.03-0.19c-0.17-0.98-1.14-1.8-2.06-2.06c-1.01-0.28-2.12,0.01-2.86,0.76c-0.74,0.74-1.04,1.85-0.76,2.86
		c0.25,0.92,1.07,1.89,2.06,2.06c0.06,0.01,0.12,0.02,0.19,0.03C111.1,92.14,111.6,92.14,112.1,92.01z"/>
	<path class="st4" d="M104.36,86.85c0.52,0.42,1.52,0.2,1.52-0.67c0-0.91-1.09-1.11-1.58-0.61c-0.79-3.41-6.51-3.14-6.51,0.82
		C97.78,90.47,103.89,90.63,104.36,86.85z"/>
	<path class="st4" d="M131.88,82.4c0-4.16-6.46-4.16-6.46,0C125.42,86.56,131.88,86.56,131.88,82.4z"/>
	<path class="st4" d="M127.1,71.68c0-3.91-6.08-3.92-6.08,0C121.02,75.59,127.1,75.6,127.1,71.68z"/>
	<path class="st4" d="M133.37,66.16c0-2.91-4.52-2.92-4.52,0C128.84,69.07,133.37,69.08,133.37,66.16z"/>
	<path class="st4" d="M139.58,67.33c-0.55,0.51-0.91,1.24-0.91,2.21c0,0.97,0.37,1.7,0.91,2.2V67.33z"/>
	<path class="st4" d="M134.86,89.14c0-3.65-5.67-3.66-5.67,0C129.19,92.79,134.86,92.79,134.86,89.14z"/>
	<path class="st4" d="M139.58,104.85c-1.66-0.43-3.7,0.45-3.7,2.67c0,2.21,2.05,3.1,3.7,2.67V104.85z"/>
	<path class="st4" d="M132.98,110.89c0-3.2-4.98-3.21-4.98,0C128,114.09,132.98,114.1,132.98,110.89z"/>
	<path class="st4" d="M139.58,122.16c-0.52,0.29-0.91,0.81-0.91,1.59c0,0.25,0.05,0.48,0.12,0.68c-1.05,0.21-1.96,1-1.96,2.39
		c0,1.72,1.41,2.53,2.74,2.43V122.16z"/>
	<path class="st4" d="M121.09,104.03c1.71-1,1.77-3.64,0-4.63c-0.82-0.46-1.87-0.58-2.71-0.09c-0.37,0.21-0.7,0.57-0.92,0.93
		c-0.3,0.5-0.33,0.91-0.4,1.48c0,0.48,0.12,0.93,0.37,1.35c0.24,0.4,0.56,0.72,0.96,0.96C119.22,104.51,120.27,104.51,121.09,104.03
		z"/>
	<path class="st4" d="M112.37,25.12c0-2.69-4.19-2.7-4.19,0C108.18,27.81,112.37,27.82,112.37,25.12z"/>
	<path class="st4" d="M73.2,114.87c0-3.93-6.1-3.93-6.1,0C67.1,118.8,73.2,118.8,73.2,114.87z"/>
	<path class="st4" d="M73.2,127.43c0-3.93-6.1-3.93-6.1,0C67.1,131.35,73.2,131.36,73.2,127.43z"/>
	<path class="st5" d="M100.54,45.54c0-4.56-7.08-4.57-7.08,0C93.46,50.1,100.54,50.1,100.54,45.54z"/>
	<path class="st5" d="M116.57,53.5c0-2.26-2.19-3.12-3.84-2.56c-0.12-0.63-0.42-1.23-0.86-1.68c-0.54-0.54-1.44-0.95-2.22-0.92
		c-0.81,0.04-1.65,0.3-2.22,0.92c-0.56,0.61-0.92,1.37-0.92,2.22c0,0.8,0.35,1.65,0.92,2.22c0.54,0.54,1.44,0.95,2.22,0.92
		c0.47-0.02,0.95-0.13,1.38-0.33C111.78,57.11,116.57,56.86,116.57,53.5z"/>
	<path class="st5" d="M127.88,49.83c0-4-6.22-4.01-6.22,0C121.66,53.83,127.88,53.84,127.88,49.83z"/>
	<path class="st5" d="M133.66,49.22c0-1.97-3.06-1.97-3.06,0C130.59,51.19,133.66,51.19,133.66,49.22z"/>
	<path class="st5" d="M134.77,39c0-0.1-0.01-0.2-0.01-0.29c0.11,0.13,0.24,0.24,0.37,0.35c0.22,0.19,0.63,0.08,0.61-0.25
		c-0.01-0.18-0.02-0.37-0.05-0.55c0-0.01-0.02-0.12-0.04-0.18c0.18-0.37,0.17-0.78-0.08-1.12c-0.28-0.36-0.76-0.49-1.18-0.31
		c-0.16,0.07-0.29,0.18-0.39,0.3c-1.65-1.69-5.32-1.01-5.32,2.04C128.67,42.93,134.77,42.94,134.77,39z"/>
	<path class="st5" d="M132.39,22.87c0-4.02-6.25-4.03-6.25,0C126.14,26.89,132.39,26.9,132.39,22.87z"/>
	<path class="st5" d="M130.92,16.13c0-3.71-5.77-3.72-5.77,0C125.16,19.84,130.92,19.85,130.92,16.13z"/>
	<path class="st5" d="M131.43,10.01c0-3.57-5.55-3.58-5.55,0C125.88,13.58,131.43,13.58,131.43,10.01z"/>
	<path class="st5" d="M102.41,25.12c0-3.8-5.91-3.81-5.91,0C96.5,28.92,102.41,28.93,102.41,25.12z"/>
	<path class="st5" d="M90.46,17.15c0-3.4-5.29-3.41-5.29,0C85.17,20.56,90.46,20.56,90.46,17.15z"/>
	<path class="st5" d="M78.23,28.59c0-3.7-5.74-3.7-5.74,0C72.48,32.29,78.23,32.29,78.23,28.59z"/>
	<path class="st5" d="M78.8,40.23c0-4.17-6.49-4.18-6.49,0C72.32,44.4,78.8,44.41,78.8,40.23z"/>
	<path class="st5" d="M69.09,49.62c0-3.23-5.03-3.24-5.03,0C64.06,52.86,69.09,52.86,69.09,49.62z"/>
	<path class="st5" d="M94.48,63.31c0-3.06-3.53-3.84-5.34-2.35c-1.06-3.13-6.5-2.76-6.5,1.13c0,3.24,3.79,4.04,5.66,2.4
		C89.38,67.37,94.48,66.99,94.48,63.31z"/>
	<path class="st5" d="M102.74,76.17c0-4.23-6.58-4.24-6.58,0C96.16,80.41,102.74,80.41,102.74,76.17z"/>
	<path class="st5" d="M114.43,71.47c0-3.24-4.64-3.49-5.35-0.74c-0.73-0.58-2.12-0.27-2.12,0.95c0,1.28,1.54,1.56,2.23,0.85
		C110.16,74.93,114.43,74.59,114.43,71.47z"/>
	<path class="st5" d="M139.58,50.5c-0.6,0.47-1,1.19-1,2.19c0,0.99,0.41,1.71,1,2.18V50.5z"/>
	<path class="st5" d="M139.58,62.47c-0.72,0.5-1.22,1.32-1.22,2.47c0,1.14,0.5,1.96,1.22,2.46V62.47z"/>
	<path class="st5" d="M139.58,77.42v-2.09c-0.98-2.94-6.08-2.6-6.08,1.04C133.49,80.01,138.6,80.36,139.58,77.42z"/>
	<path class="st5" d="M139.58,135.23c-0.26,0.22-0.43,0.54-0.43,0.98c0,0.44,0.17,0.76,0.43,0.98V135.23z"/>
	<path class="st5" d="M139.58,129.93c-1.66-0.8-4.13-0.01-4.13,2.4c0,2.4,2.47,3.19,4.13,2.4V129.93z"/>
	<path class="st5" d="M139.58,117.09v-3.01c-1.33-2.43-5.88-1.93-5.88,1.51C133.7,119.01,138.25,119.52,139.58,117.09z"/>
	<path class="st5" d="M126.29,117.63c0-3.26-5.07-3.27-5.07,0C121.22,120.89,126.29,120.9,126.29,117.63z"/>
	<path class="st5" d="M123.65,94.75c0-1.97-3.06-1.97-3.06,0C120.59,96.73,123.65,96.73,123.65,94.75z"/>
	<path class="st5" d="M116.58,100.68c0-3.13-4.86-3.13-4.86,0C111.73,103.8,116.58,103.81,116.58,100.68z"/>
	<path class="st5" d="M110.99,107.82c0-1.97-3.06-1.97-3.06,0C107.93,109.79,110.99,109.8,110.99,107.82z"/>
	<path class="st5" d="M100.03,102.51c0-1.7-1.74-2.28-2.93-1.74c0.45-0.46,0.75-1.1,0.75-1.94c0-3.73-5.79-3.73-5.79,0
		c0,2.52,2.65,3.34,4.37,2.44c-0.26,0.31-0.42,0.72-0.42,1.24C96.01,105.1,100.03,105.11,100.03,102.51z"/>
	<path class="st5" d="M119.22,82.71c0-3.63-5.65-3.64-5.65,0C113.58,86.34,119.22,86.35,119.22,82.71z"/>
	<path class="st5" d="M75.51,96.18c0-3.62-5.62-3.62-5.62,0C69.89,99.8,75.51,99.81,75.51,96.18z"/>
	<path class="st5" d="M78.42,81.89c0-3.42-5.31-3.42-5.31,0C73.11,85.31,78.42,85.31,78.42,81.89z"/>
	<path class="st5" d="M75.52,75.97c0-3.63-5.65-3.64-5.65,0C69.88,79.6,75.52,79.61,75.52,75.97z"/>
	<path class="st5" d="M62.86,74.74c0-3.37-5.24-3.38-5.24,0C57.62,78.11,62.86,78.12,62.86,74.74z"/>
	<path class="st5" d="M54.47,67.39c0-3.08-4.79-3.08-4.79,0C49.68,70.47,54.47,70.47,54.47,67.39z"/>
	<path class="st5" d="M44.34,79.64c0-2.93-4.55-2.93-4.55,0C39.79,82.57,44.34,82.57,44.34,79.64z"/>
	<path class="st5" d="M30.63,81.68c0-3.42-5.31-3.42-5.31,0C25.32,85.1,30.63,85.11,30.63,81.68z"/>
	<path class="st5" d="M23.98,86.99c0-3.26-5.07-3.27-5.07,0C18.91,90.26,23.98,90.26,23.98,86.99z"/>
	<path class="st5" d="M17.27,86.59c0-3.83-5.96-3.84-5.96,0C11.32,90.42,17.27,90.43,17.27,86.59z"/>
	<path class="st5" d="M11.09,82.5c0-2.97-4.62-2.98-4.62,0C6.47,85.47,11.09,85.48,11.09,82.5z"/>
	<path class="st5" d="M16.18,102.92c0-3.74-5.82-3.75-5.82,0C10.37,106.66,16.18,106.67,16.18,102.92z"/>
	<path class="st5" d="M13.58,112.52c0-3.02-4.69-3.02-4.69,0C8.89,115.54,13.58,115.54,13.58,112.52z"/>
	<path class="st5" d="M20.72,125.39c0-3.02-4.69-3.02-4.69,0C16.03,128.4,20.72,128.41,20.72,125.39z"/>
	<path class="st5" d="M31.14,133.55c0-4.33-6.72-4.33-6.72,0C24.41,137.88,31.14,137.89,31.14,133.55z"/>
	<path class="st5" d="M43.1,133.55c0-4.48-6.96-4.49-6.96,0c0,0.01,0,0.01,0,0.02c-0.66,0.08-1.27,0.55-1.27,1.41
		c0,1.38,1.55,1.76,2.41,1.13C39.25,137.74,43.1,136.89,43.1,133.55z"/>
	<path class="st5" d="M36.18,113.75c0-3.99-6.2-3.99-6.2,0C29.98,117.73,36.18,117.74,36.18,113.75z"/>
	<path class="st5" d="M38.78,102.92c0-3.65-5.67-3.66-5.67,0C33.11,106.57,38.78,106.58,38.78,102.92z"/>
	<path class="st5" d="M53.17,108.23c0-2.73-4.24-2.73-4.24,0C48.94,110.96,53.17,110.96,53.17,108.23z"/>
	<path class="st5" d="M70.63,107.42c0-3.91-6.08-3.92-6.08,0C64.55,111.33,70.63,111.33,70.63,107.42z"/>
	<path class="st5" d="M71.19,115.38c0-3.57-5.55-3.58-5.55,0C65.64,118.95,71.19,118.96,71.19,115.38z"/>
	<path class="st5" d="M60.75,126.61c0-1.97-3.06-1.97-3.06,0C57.69,128.58,60.75,128.59,60.75,126.61z"/>
	<path class="st5" d="M67.95,149.89c0-2.3-2.12-3.24-3.85-2.81c-0.16-3.77-6.09-3.72-6.09,0.16c0,2.34,2.17,3.29,3.92,2.84
		C62.12,153.77,67.95,153.72,67.95,149.89z"/>
	<path class="st5" d="M73.82,138.66c0-2.23-3.47-2.24-3.47,0C70.35,140.89,73.82,140.9,73.82,138.66z"/>
	<path class="st5" d="M74.78,129.67c0-3.73-5.79-3.73-5.79,0C68.99,133.4,74.78,133.41,74.78,129.67z"/>
	<path class="st5" d="M88.94,120.08c0-3.82-5.93-3.83-5.93,0C83.01,123.9,88.94,123.9,88.94,120.08z"/>
	<path class="st5" d="M105.42,133.55c0-4.27-6.63-4.27-6.63,0C98.79,137.82,105.42,137.83,105.42,133.55z"/>
	<path class="st5" d="M115.49,132.53c0-3.82-5.93-3.83-5.93,0C109.55,136.35,115.49,136.36,115.49,132.53z"/>
	<path class="st5" d="M79.14,158.26c0-0.13-0.01-0.25-0.04-0.37c1.38-0.25,2.59-1.29,2.59-3.1c0-4.22-6.56-4.23-6.56,0
		c0,1.02,0.38,1.78,0.96,2.31c-0.27,0.28-0.45,0.66-0.45,1.16C75.65,160.51,79.14,160.51,79.14,158.26z"/>
	<path class="st5" d="M94.2,152.55c0-3.5-5.43-3.5-5.43,0C88.77,156.04,94.2,156.05,94.2,152.55z"/>
	<path class="st5" d="M94.58,168.47c0-3.45-5.36-3.45-5.36,0C89.22,171.92,94.58,171.93,94.58,168.47z"/>
	<path class="st5" d="M80.71,174.19c0-2.16-3.35-2.16-3.35,0C77.35,176.35,80.71,176.35,80.71,174.19z"/>
	<path class="st5" d="M85.54,185.02c0-4.17-6.49-4.18-6.49,0C79.05,189.19,85.54,189.2,85.54,185.02z"/>
	<path class="st5" d="M91.07,200.33c0-2.83-2.97-3.75-4.89-2.76c-0.01-0.49-0.13-0.98-0.4-1.44c-0.19-0.33-0.44-0.61-0.72-0.83
		c0-0.03,0.02-0.05,0.02-0.08c0-0.72-0.85-0.88-1.25-0.49c-0.09-0.02-0.18-0.04-0.27-0.05c-0.95-0.13-1.87,0.15-2.56,0.84
		c-0.38,0.38-0.64,0.83-0.78,1.35c-0.15,0.54-0.15,1.08,0,1.62c0.22,1.46,1.08,2.98,2.66,3.19c0.69,0.09,1.31-0.1,1.81-0.49
		C85.49,204.5,91.07,204.21,91.07,200.33z"/>
	<path class="st5" d="M103.57,202.17c0-4.25-6.6-4.26-6.6,0C96.97,206.42,103.57,206.43,103.57,202.17z"/>
	<path class="st5" d="M121.69,204.21c0-3.91-6.08-3.92-6.08,0C115.61,208.12,121.69,208.13,121.69,204.21z"/>
	<path class="st5" d="M134.43,202.58c0-3.5-5.43-3.5-5.43,0C129,206.07,134.43,206.08,134.43,202.58z"/>
	<path class="st5" d="M129.96,186.65c0-4.05-6.29-4.06-6.29,0C123.67,190.7,129.96,190.71,129.96,186.65z"/>
	<path class="st5" d="M122.68,177.26c0-3.88-6.03-3.89-6.03,0C116.65,181.14,122.68,181.14,122.68,177.26z"/>
	<path class="st5" d="M109.92,182.83c0.96-0.35,1.72-1.18,1.72-2.51c0-3.6-5.6-3.61-5.6,0c0,1.33,0.76,2.16,1.72,2.51
		C108.14,183.71,109.55,183.71,109.92,182.83z"/>
	<path class="st5" d="M108.77,158.06c0-4.37-6.8-4.38-6.8,0C101.98,162.43,108.77,162.44,108.77,158.06z"/>
	<path class="st5" d="M119.66,158.06c0-3.4-5.29-3.41-5.29,0C114.37,161.46,119.66,161.47,119.66,158.06z"/>
	<path class="st5" d="M129.52,164.2c1.61,2.56,6.54,1.95,6.54-1.85c0-4.33-6.42-4.52-6.99-0.57c-0.97-0.49-2.45-0.03-2.45,1.39
		C126.61,164.84,128.66,165.18,129.52,164.2z"/>
	<path class="st5" d="M139.58,153.7c-0.99,0.41-1.76,1.32-1.76,2.72c0,1.4,0.77,2.3,1.76,2.71V153.7z"/>
	<path class="st5" d="M130.12,142.54c0-3.73-5.79-3.73-5.79,0C124.33,146.27,130.12,146.27,130.12,142.54z"/>
	<path class="st5" d="M139.58,94c-0.51-0.36-1.16-0.61-1.76-0.58c-1.61,0.07-2.98,1.31-2.98,2.98c0,0.76,0.33,1.57,0.87,2.11
		c0.52,0.52,1.36,0.91,2.11,0.87c0.65-0.03,1.26-0.26,1.76-0.62V94z"/>
	<g>
		<path class="st5" d="M111.23,5.17c0.02,0.01,0.03,0.01,0.05,0.02C111.3,5.2,111.3,5.2,111.23,5.17z"/>
		<path class="st5" d="M110.77,7.18c0.06-0.02,0.12-0.04,0.19-0.05c0.12-0.02,0.12-0.03,0.01-0.03c0.12-0.01,0.23-0.03,0.35-0.05
			c0.04-0.02,0.07-0.03,0.1-0.04c0.65-0.07,0.94-0.87,0.49-1.36c-0.03-0.03-0.04-0.05-0.05-0.06c-0.03-0.03-0.06-0.08-0.11-0.15
			c-0.14-0.14-0.29-0.2-0.46-0.27c-0.06-0.02-0.26-0.09-0.32-0.1c-0.16-0.03-0.31-0.04-0.47-0.03c-0.65,0.05-1.16,0.54-1.06,1.23
			C109.5,6.91,110.14,7.38,110.77,7.18z"/>
	</g>
	<path class="st5" d="M123.51,6.35c0.45-0.17,0.64-0.7,0.29-1.08c-0.11-0.11-0.22-0.23-0.32-0.34c-0.01-0.02-0.05-0.07-0.07-0.09
		c-0.04-0.08-0.11-0.21-0.04-0.02c-0.15-0.36-0.36-0.65-0.76-0.76c-0.34-0.09-0.68-0.02-0.95,0.2c-0.63,0.49-0.52,1.37,0.11,1.8
		C122.27,6.37,122.94,6.57,123.51,6.35z"/>
	<path class="st5" d="M124.49,9.8c0-1.21-1.88-1.21-1.88,0C122.61,11.01,124.49,11.01,124.49,9.8z"/>
	<path class="st5" d="M104.75,25.93c0-1.3-2.02-1.3-2.02,0C102.73,27.24,104.75,27.24,104.75,25.93z"/>
	<path class="st5" d="M103.83,31.45c0-0.91-1.41-0.91-1.41,0C102.42,32.35,103.83,32.36,103.83,31.45z"/>
	<path class="st5" d="M113.26,31.04c0-0.68-1.06-0.68-1.06,0C112.19,31.72,113.26,31.73,113.26,31.04z"/>
	<path class="st5" d="M119.06,31.45c0-0.79-1.23-0.8-1.23,0C117.83,32.24,119.06,32.24,119.06,31.45z"/>
	<path class="st5" d="M127.18,31.45c0-0.21-0.33-0.21-0.33,0C126.85,31.66,127.18,31.66,127.18,31.45z"/>
	<path class="st5" d="M130.29,32.6c0.44-0.15,0.87-0.27,1.33-0.37c0.36-0.08,0.36-0.65,0-0.73c-0.46-0.1-0.89-0.22-1.33-0.37
		c-0.48-0.16-0.97,0.27-0.97,0.74C129.31,32.33,129.81,32.76,130.29,32.6z"/>
	<path class="st5" d="M139.36,46.36c0-1.42-2.21-1.43-2.21,0C137.15,47.78,139.36,47.78,139.36,46.36z"/>
	<path class="st5" d="M136.56,49.22c0-0.45-0.7-0.45-0.7,0C135.86,49.67,136.56,49.67,136.56,49.22z"/>
	<path class="st5" d="M117.2,40.84c0-1.55-2.41-1.55-2.41,0C114.79,42.39,117.2,42.4,117.2,40.84z"/>
	<path class="st5" d="M88.06,25.73c0-1.38-2.14-1.38-2.14,0C85.92,27.11,88.06,27.11,88.06,25.73z"/>
	<path class="st5" d="M81.14,23.08c0-1.4-2.18-1.41-2.18,0C78.96,24.48,81.14,24.48,81.14,23.08z"/>
	<path class="st5" d="M74.98,23.69c0-0.04-0.06-0.04-0.06,0C74.92,23.73,74.98,23.73,74.98,23.69z"/>
	<path class="st5" d="M71.5,48.19c0-0.04-0.06-0.04-0.06,0C71.44,48.23,71.5,48.23,71.5,48.19z"/>
	<path class="st5" d="M95.37,49.62c0-2.11-3.27-2.11-3.27,0C92.1,51.73,95.37,51.73,95.37,49.62z"/>
	<path class="st5" d="M96.66,58c0-1.4-2.18-1.41-2.18,0C94.48,59.4,96.66,59.4,96.66,58z"/>
	<path class="st5" d="M76.55,60.65c0-1.54-2.4-1.55-2.4,0C74.16,62.19,76.55,62.2,76.55,60.65z"/>
	<path class="st5" d="M68.98,63.31c0-1-1.55-1-1.55,0C67.43,64.3,68.98,64.31,68.98,63.31z"/>
	<path class="st5" d="M56.87,62.9c0-1.71-2.66-1.71-2.66,0C54.22,64.61,56.87,64.61,56.87,62.9z"/>
	<path class="st5" d="M57.76,59.02c0-1.53-2.38-1.54-2.38,0C55.37,60.55,57.76,60.55,57.76,59.02z"/>
	<path class="st5" d="M61.5,64.33c0-0.04-0.06-0.04-0.06,0C61.44,64.37,61.5,64.37,61.5,64.33z"/>
	<path class="st5" d="M61.91,77.8c0-0.04-0.06-0.04-0.06,0C61.85,77.84,61.91,77.84,61.91,77.8z"/>
	<path class="st5" d="M55.98,83.52c0-0.04-0.06-0.04-0.06,0C55.92,83.56,55.98,83.56,55.98,83.52z"/>
	<path class="st5" d="M57.48,91.28c0-1.7-2.64-1.7-2.64,0C54.84,92.98,57.48,92.99,57.48,91.28z"/>
	<path class="st5" d="M59.83,99.04c0-1.3-2.02-1.3-2.02,0C57.8,100.35,59.83,100.35,59.83,99.04z"/>
	<path class="st5" d="M59.25,89.04c0-1.61-2.5-1.61-2.5,0C56.75,90.64,59.25,90.65,59.25,89.04z"/>
	<path class="st5" d="M63.85,81.28c0-1.23-1.91-1.23-1.91,0C61.94,82.51,63.85,82.51,63.85,81.28z"/>
	<path class="st5" d="M62.73,86.18c0-1.63-2.53-1.63-2.53,0C60.2,87.8,62.73,87.81,62.73,86.18z"/>
	<path class="st5" d="M49.51,87.4c0-1.69-2.63-1.69-2.63,0C46.88,89.09,49.51,89.1,49.51,87.4z"/>
	<path class="st5" d="M41,83.32c0-1.52-2.35-1.52-2.35,0C38.64,84.83,41,84.84,41,83.32z"/>
	<path class="st5" d="M36.1,76.78c0-1-1.55-1-1.55,0C34.55,77.78,36.1,77.78,36.1,76.78z"/>
	<path class="st5" d="M42.91,68c0-1.61-2.5-1.61-2.5,0C40.41,69.61,42.91,69.61,42.91,68z"/>
	<path class="st5" d="M36.81,71.27c0-1.64-2.56-1.65-2.56,0C34.25,72.91,36.81,72.92,36.81,71.27z"/>
	<path class="st5" d="M27.94,77.8c0-1.79-2.79-1.8-2.79,0C25.15,79.6,27.94,79.6,27.94,77.8z"/>
	<path class="st5" d="M17.68,80.26c0-0.8-0.51-1.28-1.11-1.43c-0.2-1.17-2.12-1.1-2.12,0.2c0,0.28,0.09,0.51,0.24,0.67
		c-0.06,0.16-0.1,0.34-0.1,0.55C14.59,82.24,17.68,82.25,17.68,80.26z"/>
	<path class="st5" d="M18.05,95.78c0-1.94-3.02-1.94-3.02,0C15.03,97.72,18.05,97.72,18.05,95.78z"/>
	<path class="st5" d="M23.77,104.15c0-1.41-2.2-1.42-2.2,0C21.57,105.56,23.77,105.56,23.77,104.15z"/>
	<path class="st5" d="M28.44,100.68c0-1.13-1.75-1.13-1.75,0C26.69,101.8,28.44,101.81,28.44,100.68z"/>
	<path class="st5" d="M22.39,118.03c0-2.01-3.13-2.02-3.13,0C19.26,120.05,22.39,120.05,22.39,118.03z"/>
	<path class="st5" d="M18.33,120.49c0-1.52-2.35-1.52-2.35,0C15.98,122,18.33,122,18.33,120.49z"/>
	<path class="st5" d="M23.61,131.31c0-2-3.12-2.01-3.12,0C20.5,133.31,23.61,133.32,23.61,131.31z"/>
	<path class="st5" d="M46.22,143.36c0-1.92-2.99-1.92-2.99,0C43.23,145.28,46.22,145.28,46.22,143.36z"/>
	<path class="st5" d="M50.37,145.6c0-1.76-2.73-1.76-2.73,0C47.65,147.36,50.37,147.36,50.37,145.6z"/>
	<path class="st5" d="M53.86,148.46c0-1.52-2.35-1.52-2.35,0C51.51,149.98,53.86,149.98,53.86,148.46z"/>
	<path class="st5" d="M55.73,130.08c0-0.77-1.19-0.77-1.19,0C54.54,130.85,55.73,130.85,55.73,130.08z"/>
	<path class="st5" d="M51.66,118.44c0-1.84-2.86-1.84-2.86,0C48.81,120.28,51.66,120.28,51.66,118.44z"/>
	<path class="st5" d="M59.06,116.61c0-1.64-2.54-1.64-2.54,0C56.52,118.24,59.06,118.24,59.06,116.61z"/>
	<path class="st5" d="M69.28,120.28c0-1.64-2.56-1.65-2.56,0C66.72,121.93,69.28,121.93,69.28,120.28z"/>
	<path class="st5" d="M74.38,108.64c0-1.64-2.54-1.64-2.54,0C71.84,110.28,74.38,110.28,74.38,108.64z"/>
	<path class="st5" d="M79.61,103.94c0-1.79-2.79-1.8-2.79,0C76.82,105.74,79.61,105.74,79.61,103.94z"/>
	<path class="st5" d="M90.25,115.99c0-2.09-3.25-2.09-3.25,0C87.01,118.08,90.25,118.08,90.25,115.99z"/>
	<path class="st5" d="M90.41,120.08c0-0.71-1.11-0.71-1.11,0C89.3,120.79,90.41,120.79,90.41,120.08z"/>
	<path class="st5" d="M78.49,137.03c0-1.15-1.78-1.15-1.78,0C76.71,138.17,78.49,138.17,78.49,137.03z"/>
	<path class="st5" d="M71.83,141.72c0-1.52-2.35-1.52-2.35,0C69.48,143.24,71.83,143.24,71.83,141.72z"/>
	<path class="st5" d="M73.55,148.26c0-0.04-0.06-0.04-0.06,0C73.49,148.3,73.55,148.3,73.55,148.26z"/>
	<path class="st5" d="M83.25,73.52c0-0.96-1.49-0.96-1.49,0C81.75,74.48,83.25,74.48,83.25,73.52z"/>
	<path class="st5" d="M93.37,87.02c0.52,0.59,1.77,0.38,1.77-0.64c0-1.28-2-1.29-2,0c0,0.01,0,0.02,0,0.03
		c-0.47-0.47-1.51-0.28-1.51,0.59C91.64,88.1,93.35,88.11,93.37,87.02z"/>
	<path class="st5" d="M98.78,91.28c0-1.51-2.34-1.51-2.34,0C96.44,92.79,98.78,92.79,98.78,91.28z"/>
	<path class="st5" d="M102.65,98.28c0.89-0.25,1.37-1.55,0.58-2.21c-0.16-0.14-0.32-0.25-0.48-0.34c-0.25-0.19-0.52-0.31-0.86-0.22
		c-0.33,0.09-0.5,0.33-0.62,0.62c-0.1,0.16-0.18,0.33-0.25,0.52C100.66,97.62,101.74,98.53,102.65,98.28z"/>
	<path class="st5" d="M88.23,74.41c0.41-0.18,0.48-0.76,0.29-1.11c-0.29-0.52-0.77-0.83-1.24-1.16c-0.72-0.51-1.77,0.02-1.98,0.81
		c-0.23,0.85,0.43,1.69,1.3,1.71C87.17,74.66,87.69,74.65,88.23,74.41z"/>
	<path class="st5" d="M112.16,68.21c0-0.59-0.92-0.59-0.92,0C111.24,68.8,112.16,68.8,112.16,68.21z"/>
	<path class="st5" d="M113.63,59.83c0-1.43-2.23-1.43-2.23,0C111.41,61.27,113.63,61.27,113.63,59.83z"/>
	<path class="st5" d="M121.78,66.98c0-1.4-2.18-1.41-2.18,0C119.6,68.39,121.78,68.39,121.78,66.98z"/>
	<path class="st5" d="M126.22,75.35c0-1.34-2.08-1.34-2.08,0C124.14,76.69,126.22,76.7,126.22,75.35z"/>
	<path class="st5" d="M130.3,79.03c0-1.6-2.48-1.6-2.48,0C127.82,80.63,130.3,80.63,130.3,79.03z"/>
	<path class="st5" d="M139.58,70.12v-1.39c-0.55-0.52-1.71-0.29-1.71,0.69C137.87,70.41,139.03,70.64,139.58,70.12z"/>
	<path class="st5" d="M139.58,162.57v-1.67c-0.72-1.12-2.89-0.85-2.89,0.83C136.69,163.41,138.85,163.69,139.58,162.57z"/>
	<path class="st5" d="M129.1,149.89c0-1.63-2.53-1.63-2.53,0C126.57,151.52,129.1,151.52,129.1,149.89z"/>
	<path class="st5" d="M129.48,133.55c0-0.8-1.25-0.81-1.25,0C128.23,134.36,129.48,134.36,129.48,133.55z"/>
	<path class="st5" d="M132.99,127.43c0-1.9-2.96-1.91-2.96,0C130.03,129.33,132.99,129.33,132.99,127.43z"/>
	<path class="st5" d="M124.61,127.43c0-2.15-3.35-2.16-3.35,0C121.26,129.58,124.61,129.58,124.61,127.43z"/>
	<path class="st5" d="M115.09,126.61c0-2-3.1-2-3.1,0C111.99,128.61,115.09,128.61,115.09,126.61z"/>
	<path class="st5" d="M114.14,111.91c0-1.03-1.61-1.04-1.61,0C112.53,112.94,114.14,112.94,114.14,111.91z"/>
	<path class="st5" d="M128.53,101.29c0-1.94-3.02-1.94-3.02,0C125.51,103.23,128.53,103.23,128.53,101.29z"/>
	<path class="st5" d="M130.22,106.6c0-1.76-2.73-1.76-2.73,0C127.49,108.35,130.22,108.36,130.22,106.6z"/>
	<path class="st5" d="M102.34,137.23c0-0.04-0.06-0.04-0.06,0C102.28,137.27,102.34,137.27,102.34,137.23z"/>
	<path class="st5" d="M107.1,143.36c0-2.23-3.46-2.23-3.46,0C103.64,145.58,107.1,145.59,107.1,143.36z"/>
	<path class="st5" d="M98.89,111.7c0-0.85-1.32-0.85-1.32,0C97.57,112.55,98.89,112.56,98.89,111.7z"/>
	<path class="st5" d="M106.27,112.93c0-2.2-3.42-2.2-3.42,0C102.85,115.13,106.27,115.13,106.27,112.93z"/>
	<path class="st5" d="M91.06,143.77c0-1.28-2-1.29-2,0C89.06,145.05,91.06,145.05,91.06,143.77z"/>
	<path class="st5" d="M81.42,147.65c0-0.98-1.52-0.98-1.52,0C79.9,148.62,81.42,148.63,81.42,147.65z"/>
	<path class="st5" d="M70.8,150.3c0-0.45-0.7-0.45-0.7,0C70.1,150.75,70.8,150.75,70.8,150.3z"/>
	<path class="st5" d="M85.7,166.02c0-1.49-2.31-1.49-2.31,0C83.39,167.51,85.7,167.51,85.7,166.02z"/>
	<path class="st5" d="M80.08,170.31c0-2.14-3.33-2.15-3.33,0C76.75,172.46,80.08,172.46,80.08,170.31z"/>
	<path class="st5" d="M80.83,177.05c0-1.52-2.37-1.53-2.37,0C78.46,178.58,80.83,178.58,80.83,177.05z"/>
	<path class="st5" d="M92.86,180.11c0-2.03-3.16-2.04-3.16,0C89.7,182.15,92.86,182.15,92.86,180.11z"/>
	<path class="st5" d="M97.46,182.97c0-2.16-3.36-2.17-3.36,0C94.1,185.14,97.46,185.14,97.46,182.97z"/>
	<path class="st5" d="M97.37,189.71c0-0.95-0.77-1.39-1.51-1.34c0.02-0.09,0.04-0.19,0.04-0.3c0-1.48-2.3-1.48-2.3,0
		c0,0.71,0.53,1.08,1.08,1.1c-0.06,0.16-0.1,0.33-0.1,0.53C94.59,191.51,97.37,191.51,97.37,189.71z"/>
	<path class="st5" d="M103.81,192.98c0-1.67-2.6-1.68-2.6,0C101.21,194.65,103.81,194.66,103.81,192.98z"/>
	<path class="st5" d="M110.7,187.47c0-0.81-1.26-0.81-1.26,0C109.44,188.28,110.7,188.28,110.7,187.47z"/>
	<path class="st5" d="M121.1,189.3c0-1.84-2.86-1.84-2.86,0C118.24,191.14,121.1,191.15,121.1,189.3z"/>
	<path class="st5" d="M125.47,191.76c0-1.95-3.03-1.95-3.03,0C122.44,193.7,125.47,193.71,125.47,191.76z"/>
	<path class="st5" d="M116.38,173.17c0-2.07-3.22-2.07-3.22,0C113.16,175.24,116.38,175.24,116.38,173.17z"/>
	<path class="st5" d="M116.44,163.17c0-1.1-1.71-1.1-1.71,0C114.73,164.26,116.44,164.27,116.44,163.17z"/>
	<path class="st5" d="M125.75,165c0-2.04-3.17-2.05-3.17,0C122.57,167.05,125.75,167.05,125.75,165z"/>
	<path class="st5" d="M118.89,151.12c0-1.1-1.71-1.1-1.71,0C117.18,152.22,118.89,152.22,118.89,151.12z"/>
	<path class="st5" d="M114.19,147.03c0-1.62-2.51-1.62-2.51,0C111.67,148.65,114.19,148.65,114.19,147.03z"/>
	<path class="st5" d="M117.16,144.79c0-1.51-2.34-1.51-2.34,0C114.82,146.29,117.16,146.29,117.16,144.79z"/>
	<path class="st5" d="M100.81,185.02c0-1.49-2.31-1.49-2.31,0C98.5,186.5,100.81,186.51,100.81,185.02z"/>
	<path class="st5" d="M127.21,175.99c0.53,1.4,3,1.21,3-0.57c0-1.87-2.72-1.99-3.07-0.35c-0.5-1.04-2.4-0.85-2.4,0.56
		C124.74,177.11,126.86,177.24,127.21,175.99z"/>
	<path class="st5" d="M130.62,182.57c0-1.74-2.7-1.74-2.7,0C127.92,184.3,130.62,184.31,130.62,182.57z"/>
	<path class="st5" d="M131.97,177.87c0-1.38-2.14-1.38-2.14,0C129.83,179.25,131.97,179.25,131.97,177.87z"/>
	<path class="st5" d="M123.11,159.9c0-2.06-3.2-2.06-3.2,0C119.91,161.96,123.11,161.96,123.11,159.9z"/>
	<path class="st5" d="M130.87,154.79c0-1.8-2.8-1.8-2.8,0C128.07,156.59,130.87,156.6,130.87,154.79z"/>
	<path class="st5" d="M115.74,182.36c0-0.46-0.72-0.46-0.72,0C115.02,182.82,115.74,182.82,115.74,182.36z"/>
	<path class="st5" d="M102.76,189.3c0-1.37-2.13-1.37-2.13,0C100.64,190.67,102.76,190.67,102.76,189.3z"/>
	<path class="st5" d="M95.61,196.66c0-1.37-2.13-1.37-2.13,0C93.49,198.02,95.61,198.03,95.61,196.66z"/>
	<path class="st5" d="M82.53,190.94c0-0.04-0.06-0.04-0.06,0C82.47,190.98,82.53,190.98,82.53,190.94z"/>
	<path class="st5" d="M77.29,185.02c0-1.97-3.06-1.97-3.06,0C74.23,186.98,77.29,186.99,77.29,185.02z"/>
	<path class="st5" d="M77.39,178.89c0-1.57-2.44-1.57-2.44,0C74.95,180.46,77.39,180.46,77.39,178.89z"/>
	<path class="st5" d="M100.33,193.8c0-2.18-3.39-2.18-3.39,0C96.94,195.98,100.33,195.98,100.33,193.8z"/>
	<path class="st5" d="M113.73,194c0-1.56-2.43-1.56-2.43,0C111.31,195.56,113.73,195.57,113.73,194z"/>
	<path class="st5" d="M117.04,193.39c0-0.04-0.06-0.04-0.06,0C116.98,193.43,117.04,193.43,117.04,193.39z"/>
	<path class="st4" d="M102.21,175.42c0-0.3-0.1-0.54-0.26-0.71c0.64-0.16,1.19-0.67,1.19-1.53c0-2.13-3.3-2.13-3.3,0
		c0,0.61,0.28,1.04,0.66,1.3c-0.32,0.17-0.55,0.48-0.55,0.95C99.96,176.87,102.21,176.87,102.21,175.42z"/>
	<path class="st4" d="M107.65,176.23c0-1.88-2.91-1.88-2.91,0C104.73,178.11,107.65,178.11,107.65,176.23z"/>
	<path class="st4" d="M120.23,167.86c0-0.46-0.72-0.46-0.72,0C119.51,168.32,120.23,168.33,120.23,167.86z"/>
	<path class="st4" d="M122.42,163.57c0-0.12-0.19-0.12-0.19,0C122.23,163.69,122.42,163.69,122.42,163.57z"/>
	<path class="st4" d="M127.93,165c0-0.91-1.41-0.91-1.41,0C126.52,165.91,127.93,165.91,127.93,165z"/>
	<path class="st4" d="M130.9,180.32c0-1.84-2.86-1.84-2.86,0C128.04,182.16,130.9,182.16,130.9,180.32z"/>
	<path class="st4" d="M124.07,186.24c0-1.99-3.09-1.99-3.09,0C120.98,188.23,124.07,188.23,124.07,186.24z"/>
	<path class="st4" d="M122.49,196.66c0-2.05-3.19-2.05-3.19,0C119.3,198.71,122.49,198.71,122.49,196.66z"/>
	<path class="st4" d="M91.73,192.37c0-1.88-2.93-1.89-2.93,0C88.8,194.25,91.73,194.26,91.73,192.37z"/>
	<path class="st4" d="M85.79,181.54c0-1.61-2.5-1.61-2.5,0C83.29,183.15,85.79,183.15,85.79,181.54z"/>
	<path class="st4" d="M80.8,159.29c0-1.49-2.31-1.49-2.31,0C78.49,160.77,80.8,160.78,80.8,159.29z"/>
	<path class="st4" d="M65.34,139.27c0-1.57-2.44-1.57-2.44,0C62.9,140.84,65.34,140.85,65.34,139.27z"/>
	<path class="st4" d="M61.84,131.51c0-1.01-1.57-1.01-1.57,0C60.28,132.52,61.84,132.52,61.84,131.51z"/>
	<path class="st4" d="M73.89,128.45c0-2.06-3.2-2.06-3.2,0C70.69,130.51,73.89,130.51,73.89,128.45z"/>
	<path class="st4" d="M82.72,128.25c0-1.33-2.07-1.33-2.07,0C80.65,129.58,82.72,129.58,82.72,128.25z"/>
	<path class="st4" d="M85.19,125.79c0-2.14-3.33-2.15-3.33,0C81.86,127.94,85.19,127.94,85.19,125.79z"/>
	<path class="st4" d="M51.65,112.32c0-0.24-0.37-0.24-0.37,0C51.27,112.56,51.65,112.56,51.65,112.32z"/>
	<path class="st4" d="M48.73,95.16c0-1.75-2.71-1.75-2.71,0C46.02,96.91,48.73,96.91,48.73,95.16z"/>
	<path class="st4" d="M46.74,114.15c0-2.07-3.22-2.07-3.22,0C43.52,116.22,46.74,116.23,46.74,114.15z"/>
	<path class="st4" d="M44.45,116.4c0-1.76-2.73-1.76-2.73,0C41.72,118.16,44.45,118.16,44.45,116.4z"/>
	<path class="st4" d="M36.1,116.61c0-2.3-3.58-2.3-3.58,0C32.52,118.91,36.1,118.91,36.1,116.61z"/>
	<path class="st4" d="M29.38,113.34c0-1.81-2.81-1.81-2.81,0C26.57,115.15,29.38,115.15,29.38,113.34z"/>
	<path class="st4" d="M22.94,105.99c0-1.66-2.58-1.67-2.58,0C20.35,107.65,22.94,107.65,22.94,105.99z"/>
	<path class="st4" d="M26.6,79.03c0-2.17-3.37-2.17-3.37,0C23.23,81.2,26.6,81.2,26.6,79.03z"/>
	<path class="st4" d="M44.35,68.82c0-1.63-2.53-1.63-2.53,0C41.83,70.45,44.35,70.45,44.35,68.82z"/>
	<path class="st4" d="M53.79,66.16c0-1.42-2.21-1.43-2.21,0C51.58,67.59,53.79,67.59,53.79,66.16z"/>
	<path class="st4" d="M47.11,61.26c0-0.02-0.01-0.03-0.01-0.04c0.46-0.05,0.89-0.38,0.89-0.98c0-1.32-2.05-1.32-2.05,0
		c0,0.27,0.09,0.48,0.22,0.64c-0.09,0.09-0.16,0.21-0.16,0.38C46.01,61.98,47.11,61.98,47.11,61.26z"/>
	<path class="st4" d="M45.24,62.9c0-1.19-1.85-1.19-1.85,0C43.39,64.09,45.24,64.09,45.24,62.9z"/>
	<path class="st4" d="M37.46,71.47c0-1.69-2.63-1.69-2.63,0C34.83,73.16,37.46,73.17,37.46,71.47z"/>
	<path class="st4" d="M64.17,45.13c0-1.64-2.54-1.64-2.54,0C61.63,46.77,64.17,46.77,64.17,45.13z"/>
	<path class="st4" d="M66.58,40.43c0-1.58-2.46-1.58-2.46,0C64.12,42.01,66.58,42.02,66.58,40.43z"/>
	<path class="st4" d="M70.59,34.51c0-1.76-2.73-1.76-2.73,0C67.86,36.27,70.59,36.27,70.59,34.51z"/>
	<path class="st4" d="M72.85,27.36c0-0.45-0.7-0.45-0.7,0C72.14,27.82,72.85,27.82,72.85,27.36z"/>
	<path class="st4" d="M76.64,18.79c0-1.4-2.17-1.4-2.17,0C74.47,20.18,76.64,20.18,76.64,18.79z"/>
	<path class="st4" d="M76.81,13.68c0-0.04-0.06-0.04-0.06,0C76.75,13.72,76.81,13.72,76.81,13.68z"/>
	<path class="st4" d="M88.87,7.35c0-1.36-2.11-1.36-2.11,0C86.76,8.71,88.87,8.71,88.87,7.35z"/>
	<path class="st4" d="M96.18,7.15c0-2.1-3.26-2.1-3.26,0C92.92,9.24,96.18,9.25,96.18,7.15z"/>
	<path class="st4" d="M116.72,8.58c0-1.46-2.27-1.46-2.27,0C114.45,10.04,116.72,10.04,116.72,8.58z"/>
	<path class="st4" d="M121.77,8.17c0-1.91-2.97-1.92-2.97,0C118.79,10.08,121.77,10.08,121.77,8.17z"/>
	<path class="st4" d="M113.41,16.54c0-1.93-3-1.93-3,0C110.41,18.47,113.41,18.48,113.41,16.54z"/>
	<path class="st4" d="M101.45,21.65c0-2.04-3.17-2.05-3.17,0C98.27,23.69,101.45,23.69,101.45,21.65z"/>
	<path class="st4" d="M98.58,29.2c0-1.77-2.76-1.78-2.76,0C95.83,30.98,98.58,30.98,98.58,29.2z"/>
	<path class="st4" d="M106.43,38.6c0-0.04-0.06-0.04-0.06,0C106.36,38.64,106.43,38.64,106.43,38.6z"/>
	<path class="st4" d="M106.22,36.96c0-0.04-0.06-0.04-0.06,0C106.16,37,106.22,37,106.22,36.96z"/>
	<path class="st4" d="M105.61,37.78c0-0.04-0.06-0.04-0.06,0C105.55,37.82,105.61,37.82,105.61,37.78z"/>
	<path class="st4" d="M101.32,39.41c0-0.04-0.06-0.04-0.06,0C101.26,39.45,101.32,39.45,101.32,39.41z"/>
	<path class="st4" d="M89.25,36.96c0-1.33-2.07-1.33-2.07,0C87.19,38.29,89.25,38.29,89.25,36.96z"/>
	<path class="st4" d="M87.04,38.39c0-1.9-2.96-1.91-2.96,0C84.09,40.3,87.04,40.3,87.04,38.39z"/>
	<path class="st4" d="M91.91,46.56c0-2.12-3.29-2.12-3.29,0C88.62,48.68,91.91,48.68,91.91,46.56z"/>
	<path class="st4" d="M104.22,38.8c0-1.93-3-1.93-3,0C101.22,40.73,104.22,40.73,104.22,38.8z"/>
	<path class="st4" d="M109.11,35.74c0-1.91-2.97-1.92-2.97,0C106.13,37.65,109.11,37.65,109.11,35.74z"/>
	<path class="st4" d="M109.59,39.62c0-2-3.12-2.01-3.12,0C106.47,41.62,109.59,41.63,109.59,39.62z"/>
	<path class="st4" d="M101.27,50.64c0-2.08-3.23-2.08-3.23,0C98.04,52.72,101.27,52.73,101.27,50.64z"/>
	<path class="st4" d="M99.84,56.57c0-2.08-3.23-2.08-3.23,0C96.61,58.65,99.84,58.65,99.84,56.57z"/>
	<path class="st4" d="M105.23,56.16c0-1.91-2.97-1.92-2.97,0C102.25,58.07,105.23,58.07,105.23,56.16z"/>
	<path class="st4" d="M117.98,51.67c0-1.77-2.76-1.78-2.76,0C115.23,53.44,117.98,53.44,117.98,51.67z"/>
	<path class="st4" d="M126.83,52.89c0-1.86-2.89-1.86-2.89,0C123.94,54.75,126.83,54.75,126.83,52.89z"/>
	<path class="st4" d="M131.65,58.61c0-0.98-0.75-1.48-1.51-1.51c-0.74-0.82-2.47-0.53-2.47,0.89c0,0.73,0.46,1.16,1,1.3
		C129.28,60.59,131.65,60.36,131.65,58.61z"/>
	<path class="st4" d="M125.44,39.62c0-0.6-0.93-0.6-0.93,0C124.51,40.22,125.44,40.22,125.44,39.62z"/>
	<path class="st4" d="M127.02,42.68c0-2.1-3.26-2.1-3.26,0C123.76,44.78,127.02,44.78,127.02,42.68z"/>
	<path class="st4" d="M139.58,48.71c-0.83-0.05-1.69,0.46-1.69,1.53c0,1.07,0.86,1.57,1.69,1.53V48.71z"/>
	<path class="st4" d="M128.89,86.38c0-0.04-0.06-0.04-0.06,0C128.83,86.42,128.89,86.42,128.89,86.38z"/>
	<path class="st4" d="M125.82,94.75c0-1.87-2.9-1.87-2.9,0C122.91,96.62,125.82,96.62,125.82,94.75z"/>
	<path class="st4" d="M130.73,96.18c0-2.14-3.33-2.15-3.33,0C127.4,98.33,130.73,98.33,130.73,96.18z"/>
	<path class="st4" d="M103.89,91.9c0-1.77-2.76-1.78-2.76,0C101.14,93.67,103.89,93.67,103.89,91.9z"/>
	<path class="st4" d="M103.77,106.39c0-1.35-2.1-1.35-2.1,0C101.67,107.74,103.77,107.75,103.77,106.39z"/>
	<path class="st4" d="M114.39,115.38c0-2.14-3.33-2.15-3.33,0C111.06,117.52,114.39,117.53,114.39,115.38z"/>
	<path class="st4" d="M120.45,113.13c0-2.05-3.19-2.05-3.19,0C117.26,115.18,120.45,115.19,120.45,113.13z"/>
	<path class="st4" d="M113.25,121.51c0-2-3.1-2-3.1,0C110.15,123.5,113.25,123.51,113.25,121.51z"/>
	<path class="st4" d="M136.24,129.47c0-2.14-3.33-2.15-3.33,0C132.91,131.61,136.24,131.62,136.24,129.47z"/>
	<path class="st2" d="M155.61,208.91h-11.28c-0.1-1.7,0.02-3.47,0.44-5.04c0.29-1.05,0.78-1.9,1.3-2.83
		c0.54-0.96,0.74-0.94,1.05-2.23c0.44-1.86,0.28-0.9-0.5-2c-0.02-0.04-0.06-0.07-0.08-0.11c-0.29-0.4-0.56-0.74-0.79-1.05
		c0,0-0.01,0-0.01-0.01v-0.01c-0.51-0.69-0.85-1.33-0.88-2.55c-0.06-1.98,0.36-4.4,1-6.28c0.69-2.01,2.08-3.34,1.81-5.16
		c0.01-0.01,0.01-0.01,0-0.01c-0.07-0.47-0.25-0.98-0.59-1.54c-0.42-0.7-0.93-1.38-1.35-2.09c0-0.01,0-0.01,0-0.01
		c-0.34-0.58-0.62-1.18-0.78-1.84c-0.34-1.45,0.05-2.71,0.76-3.97c0.36-0.63,1.09-1.35,1.42-2.08c0.08-0.18,0.13-0.36,0.15-0.53
		c0.12-1.11-0.69-1.7-1.1-2.61c-0.69-1.54-0.47-3.26-0.2-4.93c0.09-0.55,0.18-1.09,0.25-1.62c0.05-0.39,0.1-0.77,0.15-1.16
		c0.11-0.8,0.21-1.61,0.32-2.41c0.18-1.41,0.34-2.81,0.44-4.23c0.02-0.36,0.04-0.71,0.05-1.06v-0.02c0.04-1.05,0-2.06-0.1-3.08
		c0-0.01-0.01-0.03-0.01-0.04v-0.03c-0.17-1.68-0.52-3.33-1.07-5.02c-0.61-1.86-1.23-3.7-1.02-5.68c0.09-0.85,0.31-1.64,0.57-2.43
		v-0.01c0.33-1,0.73-1.98,1-3c0.01-0.01,0.01-0.01,0.01-0.02c0.23-0.88,0.38-1.76,0.31-2.73c-0.18-2.37-1.25-4.58-1.45-6.96
		c-0.18-2.14,0.34-4.1,0.99-6.13c0.43-1.32,0.75-2.56,0.93-3.81c0.13-0.91,0.18-1.84,0.15-2.81c0.01-0.02,0-0.03,0-0.04
		c-0.02-0.58-0.07-1.18-0.15-1.8c-0.27-2-0.4-4.01-0.45-6.02c-0.04-1.59-0.04-3.19-0.01-4.78c0.02-1.75,0.07-3.5,0.09-5.25
		c0,0,0-0.01,0-0.01c0.01-0.09,0.01-0.19,0.01-0.28c0-0.13,0.02-0.25,0.06-0.35c0,0,0-0.01,0-0.01c0.04-0.11,0.09-0.21,0.15-0.3
		c-0.62-4.31-3.01-7.43-1.13-11.88c0.45-1.06,1-2.05,1.45-3.04l0.01-0.01v-0.01c0.61-1.34,1.02-2.71,0.72-4.35
		c-0.25-1.35-0.74-2.63-0.94-3.96c0,0,0-0.01,0-0.01v-0.01c-0.1-0.64-0.13-1.29-0.04-1.96c0.1-0.72,0.41-1.35,0.55-2.06
		c0.41-2.02-0.36-2.56-0.97-4.25c-0.2-0.57-0.35-1.08-0.41-1.57v-0.01c-0.1-0.81-0.01-1.57,0.35-2.52c0.29-0.77,0.8-1.46,1.14-2.21
		c0.09-0.18,0.16-0.37,0.21-0.56c0.05-0.17,0.09-0.33,0.11-0.48c0.18-1.14-0.39-1.62-1.02-2.68c-1.01-1.68-0.96-3.06-0.86-5.01
		c0.04-0.67,0.01-1.35-0.04-2.04v-0.03c-0.01-0.2-0.03-0.4-0.06-0.6c0,0,0,0,0-0.01c0-0.01,0-0.01,0-0.01
		c-0.37-3.42-1.42-6.93-0.58-10.25c0.36-1.42,1.26-2.3,0.83-3.93c-0.13-0.52-0.73-1.56-0.91-2.08c-0.55-1.62-0.75-3.34-0.62-5.05
		c0,0,0-0.01,0-0.01v-0.01c0.02-0.35,0.06-0.7,0.12-1.05c0.06-0.36,0.14-0.7,0.21-1.02c0-0.01,0-0.01,0-0.01
		c0.2-0.81,0.34-1.53-0.16-2.45c-0.16-0.29-0.41-0.49-0.64-0.73c-0.01-0.01-0.01-0.01-0.01-0.01c-0.13-0.15-0.26-0.3-0.34-0.5
		c-0.59-1.39,0.13-2.49,0.58-3.76c1.13-3.23-0.61-4.47-1.03-7.35c-0.18-1.23-0.07-2.38,0.23-3.5l11.7,0l1.23,7.19
		c-0.69,1.74-0.42,3.08-0.07,4.91c0.02,0.13,0.05,0.27,0.07,0.4c0.29,1.57,0.44,3.09,0.2,4.71c-0.06,0.43-0.13,0.84-0.2,1.23
		c-0.28,1.61-0.53,2.97,0,4.55c0.11,0.33,0.25,0.67,0.44,1.02c1.46,2.78,1.69,4.59,0.51,7.53c-0.53,1.3-0.86,2.31-0.95,3.3
		c-0.04,0.37-0.04,0.74,0,1.11c0.07,0.78,0.31,1.61,0.72,2.63c0.56,1.4,1.11,2.71,1.14,4.25c0.02,2.11-1.04,4.12-0.96,6.22
		c0.07,1.9,1.35,3.48,1.51,5.37c0.23,2.67-1.45,4.81-2.41,7.15c-0.37,0.91-0.64,1.84-0.65,2.86c-0.01,1.35,0.27,2.65,0.65,3.93
		c0.77,2.65,1.94,5.22,1.77,8.06c-0.3,4.92-2.94,8.69-0.88,13.69c0.09,0.21,0.11,0.41,0.09,0.58c0.64,1.21,0.6,2.54,0.14,3.9
		c-0.32,0.95-0.84,1.75-1.12,2.7c-0.04,0.12-0.07,0.24-0.1,0.37c-0.21,0.96-0.13,1.77,0.1,2.57c0.21,0.74,0.55,1.46,0.91,2.26
		c1.89,4.21,1.27,7.39,0.44,11.77c-0.57,3-0.09,5.3,0.66,8.18c0.42,1.61,0.74,3.25,0.43,4.91c-0.33,1.83-1.4,3.33-2.13,5.02
		c-0.13,0.31-0.24,0.61-0.31,0.91c-0.28,1.05-0.22,2.02,0,2.99c0.21,0.96,0.59,1.91,0.96,2.93c0.57,1.56,1.02,3.13,0.72,4.8
		c-0.13,0.69-0.41,1.3-0.66,1.95c-0.58,1.54-0.51,2.74-0.26,4.37c0.28,1.78,0.07,3.23-0.39,4.98c-0.74,2.84-0.21,5.11,0.38,7.92
		c0.67,3.15,0.06,5.61-0.75,8.36c-0.25,0.83-0.5,1.68-0.75,2.59c-0.72,2.63,0.13,4.91,0.75,7.27c0.39,1.49,0.69,3.02,0.44,4.69
		c-0.1,0.69-0.26,1.37-0.44,2.05c-0.43,1.67-0.99,3.3-1.18,5.01c-0.29,2.54,0.28,5.01,0.86,7.47c0.11,0.45,0.21,0.91,0.32,1.35
		L155.61,208.91z"/>
	<path class="st1" d="M143.97,208.91h-10.11c-0.21-1.59,0.12-3.21,0.11-4.79v-0.01c0-0.67,0.03-1.34,0.11-1.99
		c0.03-0.26,0.06-0.51,0.09-0.75c0.15-1.49,0.09-2.52-0.81-3.97c-0.38-0.62-0.7-1.17-0.73-1.93c-0.02-0.88,0.48-1.33,0.7-2.08
		c0.59-1.92,0.24-2.74-0.39-4.42c-0.74-1.99-0.01-3.77,0.79-5.61c0.91-2.07,1.25-3.61,0.49-5.72c-0.45-1.25-1.08-2.42-1.41-3.71
		c-0.49-2-0.07-3.64,0.71-5.5c0.48-1.15,0.94-2.14,0.93-3.19c-0.01-0.57-0.16-1.16-0.53-1.8c-0.52-0.9-1.08-1.68-1.29-2.73
		c-0.12-0.62-0.13-1.21-0.05-1.76c0.1-0.75,0.36-1.45,0.73-2.12c0.13-0.23,0.27-0.45,0.42-0.67c0-0.13,0.02-0.28,0.08-0.44
		c1.05-2.73,0.31-4.48-0.85-6.95c-0.57-1.21-0.92-2.34-0.7-3.69c0.17-1.09,0.73-2,1.18-2.99c0.55-1.24,0.97-2.32,0.95-3.69
		c-0.02-1.27-0.55-2.03-0.87-3.2c-0.4-1.45-0.24-2.93,0.04-4.42c0.18-0.96,0.39-1.91,0.53-2.86c0.16-1.08,0.22-2.17-0.01-3.25
		c-0.62-2.95,0.42-3.73,1.52-6.29c0.04-0.09,0.08-0.18,0.12-0.27c0-0.01,0.01-0.01,0.01-0.01c-0.01-0.15,0.02-0.31,0.09-0.48
		c0.39-0.94-1.08-2.11-1.96-3.08c-0.23-0.26-0.42-0.5-0.52-0.72c-0.37-0.81-0.45-1.68-0.39-2.55c0,0,0,0,0-0.01
		c0.01-0.04,0.01-0.09,0.01-0.13c0-0.01,0-0.02,0.01-0.04c0.01-0.11,0.02-0.23,0.04-0.34c0.18-1.4,0.85-2.53,1.28-3.85
		c0.71-2.18,0.17-3.9-0.18-6.06c-0.5-3.1,0.22-6.26-0.1-9.38c-0.01-0.09-0.02-0.18-0.02-0.27c-0.15-1.46-0.32-2.87-0.26-4.28
		c0.05-1.17,0.26-2.33,0.77-3.49c0.69-1.56,1.48-2.66,1.5-4.07c0.01-0.56-0.12-1.18-0.42-1.89c-0.4-0.94-1.07-1.78-1.4-2.76
		c-0.02-0.07-0.04-0.13-0.06-0.2c-0.85-2.8,0.79-4.53,1.45-7.18c0.74-2.95-1.68-5.64-1.24-8.62c0.18-1.23,1.41-2.73,1.13-3.96
		c-0.26-1.13-0.97-1.44-0.98-2.65v-0.09c0-0.06,0.01-0.1,0.02-0.16v-0.02c-0.46-2.43,1.12-3.36,1.73-5.36
		c0.04-0.14,0.09-0.29,0.12-0.45c0.28-1.32-0.75-2.46-1.11-3.67c-0.32-1.07-0.3-2.17-0.2-3.27c0-0.02,0.01-0.05,0.01-0.07v-0.01
		c0.08-0.77,0.21-1.51,0.29-2.24c0.1-0.93,0.13-1.85-0.12-2.82c-0.28-1.09-0.81-2.04-0.85-3.18c-0.03-0.83,0.17-1.5,0.5-2.25
		c0.75-1.71,0.75-2.86-0.04-4.49c-0.88-1.86-1.04-3.05-0.34-5.04c0.39-1.12,1.24-2.3,1.21-3.52c-0.03-1.3-1.14-2.36-1.55-3.56
		c-0.74-2.13,0.67-3.7,0.59-5.76c-0.09-2.15-0.51-4.08-0.65-6.12l9.89,0c0.21,0.56,1.31,1.13,1.27,1.76
		c-0.09,1.27-0.81,2.39-0.57,3.75c0.21,1.19,0.78,2,0.67,3.29c-0.08,0.99-0.43,1.89-0.75,2.83c-0.44,1.35-0.39,2.38-0.12,3.49
		c0,0,0,0,0.01,0.01c0.11,0.48,0.26,0.97,0.43,1.51c0.18,0.57,0.32,1.11,0.36,1.67c0,0,0,0,0,0.01c0.02,0.37,0.01,0.75-0.09,1.15
		c-0.07,0.32-0.16,0.62-0.25,0.91v0.01c0,0.01,0,0.01,0,0.01c-0.3,1.05-0.6,2.02-0.39,3.25c0.27,1.61,1.05,3.23,1.57,4.77
		c0.13,0.39,0.06,0.72-0.11,0.97c-0.17,0.69-0.68,1.39-1.05,2.11c-0.7,1.34,0.02,2.02,0.12,3.34c0.04,0.54-0.12,0.98-0.18,1.51
		c-0.2,1.73-0.15,1.81,0.55,3.13c0.45,0.84,0.67,1.56,0.77,2.22c0,0.01,0,0.01,0,0.01c0,0.01,0,0.01,0,0.01
		c0.02,0.2,0.04,0.4,0.06,0.6v0.03c0.04,1.15-0.22,2.27-0.31,3.84c-0.1,1.91,1.27,2.84,1.78,4.48c0.15,0.47,0.21,0.94,0.21,1.4
		c0.01,0.35-0.02,0.7-0.09,1.04c-0.06,0.38-0.15,0.76-0.27,1.14c-0.18,0.59-0.45,1.16-0.69,1.73c-0.28,0.69-0.45,1.28-0.53,1.85
		v0.01c-0.16,1.07,0.01,2.03,0.37,3.29c0.26,0.87,0.76,1.5,0.66,2.47c-0.15,1.51-0.8,1.87-0.33,3.55c0.05,0.18,0.1,0.36,0.17,0.53
		v0.01c0,0.01,0,0.01,0,0.01c0.5,1.53,1.26,3.03,1.53,4.61c0.31,1.83-0.4,2.71-1.31,3.71v0.01l-0.01,0.01
		c-0.39,0.42-0.81,0.86-1.21,1.41c-2.44,3.36-1.37,7.68-0.12,11.3c0.7,0.81,0.89,1.64,0.86,2.51c0,0.01,0,0.01,0,0.01
		c-0.01,0.21-0.03,0.42-0.06,0.63c0,0.01,0,0.01,0,0.01c-0.09,0.63-0.27,1.29-0.43,1.98c-0.3,1.23,0.01,2.25,0.35,3.27
		c0.4,1.19,0.85,2.36,0.4,3.85c-0.1,0.32-0.24,0.62-0.39,0.93c-0.16,0.33-0.32,0.66-0.42,1.04c-0.38,1.37,0.01,2.32,0.36,3.64
		c0.29,1.07,0.57,2.06,0.67,3.14c0,0.01,0.01,0.02,0,0.04c0.03,0.27,0.04,0.55,0.04,0.83c0,0.69-0.07,1.34-0.19,1.97
		c-0.35,1.78-1.15,3.37-2.16,4.96c-2.43,3.81,0.56,7.42,1.32,11.3c0.25,1.26,0.26,2.33,0.07,3.37c0.01,0.01,0,0.02-0.01,0.02
		c-0.17,0.98-0.52,1.94-1,3v0.01c-0.01,0.01-0.01,0.02-0.02,0.04c-1.66,3.71,0.32,7.93,1.23,11.7c0.12,0.47,0.22,0.93,0.31,1.39
		v0.03c0,0.01,0.01,0.03,0.01,0.04c0.16,0.86,0.24,1.71,0.16,2.62c-0.01,0.15-0.03,0.3-0.06,0.45v0.02
		c-0.26,1.79-1.05,3.43-0.7,5.29c0.01,0.09,0.03,0.18,0.06,0.27c0.1,0.42,0,0.77-0.21,1.03c0.02,0.37,0.05,0.75,0.05,1.11
		c0.02,0.89-0.05,1.78-0.4,2.78c-0.05,0.14-0.11,0.29-0.17,0.43c-0.93,2.18-0.48,3.32,0.57,5.31c0.39,0.74,0.72,1.49,0.75,2.32
		c0.01,0.13,0.01,0.26-0.01,0.4c-0.07,0.83-0.45,1.47-0.89,2.14c-0.21,0.32-0.57,0.63-0.74,0.96c-0.69,1.33-0.43,2.46,0,3.79
		c0.06,0.2,0.14,0.4,0.24,0.6c0,0,0,0,0,0.01c0.52,1.14,1.42,2.38,1.94,3.63c0.01,0.01,0.01,0.01,0,0.01
		c0.35,0.82,0.53,1.65,0.33,2.46c-0.29,1.2-1.54,2.01-1.91,3.17c-0.5,1.53,0.06,3.33,0.03,4.91c-0.02,0.96-0.58,2.42-0.37,3.46v0.01
		c0,0.01,0.01,0.01,0.01,0.01c0.03,0.18,0.09,0.34,0.17,0.48c0.13,0.23,0.37,0.4,0.62,0.57c0.33,0.22,0.69,0.45,0.89,0.82
		c0.8,1.53-0.17,2.36-0.94,3.56C145.18,203.12,143.89,206.15,143.97,208.91z"/>
	<path class="st3" d="M144.58,208.91h-2.45c-0.12-1.79,1.1-3.58,1.38-5.39c0.2-1.26,0.4-2.68,1.11-3.77
		c0.71-1.08,1.48-2.27-0.14-2.96c-0.65-0.28-0.75-0.85-0.55-1.35c0.06-2.78-0.19-5.81,0.28-8.53c0.31-1.76,2.52-3.06,2.31-4.8
		c-0.25-1.97-2.49-3.41-3.09-5.32c-0.47-1.49-0.2-2.84,0.55-4.17c0.4-0.72,1.08-1.32,1.43-2.06c0.81-1.74-0.25-2.49-1.09-3.79
		c-0.68-1.05-0.74-2.03-0.28-3.21c0.48-1.23,1.38-1.82,1.57-3.29c0.13-1.1-0.25-2.32-0.37-3.4c0-0.02-0.01-0.03-0.01-0.05
		c-0.23-2.31,0.62-3.93,1.04-6.14c0.8-4.2-2.79-7.72-3.23-11.81c-0.18-1.69,0.21-3.12,0.85-4.65c0.67-1.62,1.46-2.89,1.45-4.72
		c-0.01-1.68-0.69-3.07-1.27-4.59c-0.69-1.78-1.35-3.56-0.89-5.5c0.64-2.66,2.43-4.64,2.58-7.54c0.13-2.52-1.1-4.55-1.3-6.95
		c-0.15-1.75,2.62-6.05,1.22-7.04c-0.44-0.31-0.58-0.76-0.53-1.18c-0.71-0.92-0.6-1.61-0.28-2.74c0.58-2.04,0.72,0.85,0.64-2.18
		c-0.04-1.4-0.09-1.17-0.53-2.19c-0.43-1-1.04-1.87-1.36-2.93c-0.57-1.92-0.61-3.99-0.13-5.94c0.55-2.26,2.11-3.79,3.01-5.86
		c1.3-3.01-0.91-4.56-1.15-7.34c-0.19-2.14,1.4-3.55,0.34-5.69c-0.6-1.2-1.29-1.88-1.2-3.32c0.07-1.23,0.67-2.36,1.18-3.45
		c0.45-0.98,1.08-1.92,1.04-3.01c0-0.09-0.01-0.17-0.02-0.26c-0.18-1.21-1.07-1.59-1.74-2.56c-0.64-0.92-0.81-1.83-0.58-2.93
		c0.19-0.9,0.91-1.72,1.06-2.6c0.18-1.08-0.5-1.78-0.77-2.73c-0.57-2.06,0.13-3.91-0.84-5.95c-0.56-1.19-1.32-2.16-0.77-3.52
		c0.21-0.51,0.62-0.78,0.96-1.19c0.17-0.21,0.69-0.29,0.8-0.53c0.47-0.98-0.09-2.7-0.51-3.54c-0.77-1.55-1.7-2.63-1.45-4.5
		c0.21-1.6,1.64-3.09,1.2-4.66c-0.36-1.27-1.39-1.89-1.32-3.35c0.06-1.24,0.79-2.13,1.17-3.25c0.72-2.14-0.91-2.49-1.04-4.4
		c-0.06-0.74,0.23-1.34,0.4-2.05c0.33-1.4-0.88-2.69-1.12-4.03l2.45,0c0.1,0.6,1.45,1.21,1.44,1.83c-0.01,1.15-0.53,2.25-0.55,3.35
		c-0.03,1.5,1.39,2.33,1.36,3.9c-0.02,1.57-1.3,2.67-1.53,4.12c-0.25,1.61,1.5,2.65,1.43,4.33c-0.09,2.24-1.95,3.82-1.14,6.11
		c0.56,1.56,1.89,2.65,2.16,4.36c0.23,1.45-0.22,2.33-1.09,3.42c-0.78,0.99-1.15,1.13-0.74,2.36c0.24,0.73,0.78,1.28,0.97,2.05
		c0.22,0.88,0.08,1.69,0.08,2.57c0,1.34,0.56,2.41,0.83,3.65c0.28,1.26,0.02,2.13-0.47,3.33c-1.09,2.65,0.79,2.89,1.64,5.02
		c0.21,0.53,0.29,1.09,0.27,1.65c-0.01,0.37-0.07,0.74-0.15,1.11c-0.37,1.58-1.49,2.89-1.9,4.44c-0.58,2.16,1.04,2.74,1.51,4.56
		c0.55,2.11-1.15,3.89-0.71,6.04c0.33,1.63,1.44,2.89,1.49,4.62c0.06,1.85-0.95,3.42-1.89,4.93c-1.52,2.43-2.46,4.89-1.73,7.78
		c0.53,2.1,2.22,3.77,2.54,5.93c0.05,0.37-1.01,4.12-1.4,3.66c0.25,0.3,0.34,0.64,0.3,0.95c0.88,0.74,1.32,1.65,1.32,2.9
		c0.01,0.69-0.2,1.31-0.42,1.95c-0.7,1.97-1.29,3.33-0.84,5.56c0.48,2.37,1.08,4.28,0.72,6.76c-0.37,2.55-2.51,5.04-2.6,7.48
		c-0.1,2.68,1.98,5.1,2.26,7.76c0.24,2.29-0.47,4.13-1.34,6.18c-1.21,2.86-0.99,4.73,0.2,7.53c0.8,1.9,1.81,3.76,2.16,5.82
		c0.38,2.29-0.43,3.82-0.94,5.99c-0.22,0.96-0.17,1.89-0.06,2.82c0.17,1.45,0.49,2.87,0.2,4.34c-0.16,0.83-0.58,1.35-0.85,2.11
		c-0.59,0.64-0.79,1.43-0.58,2.36c0.37,0.36,0.74,0.73,1.08,1.11c0.85,1.12,1.13,2.27,0.69,3.62c-0.47,1.45-1.87,2.4-2.37,3.8
		c-1,2.87,2.36,4.78,2.97,7.3c0.46,1.95-0.25,2.7-1.18,4.25c-1.63,2.71-1.29,6.14-1.32,9.3c1.56,0.86,2.78,2.34,1.85,4.23
		c-0.88,1.77-1.98,2.62-2.32,4.77C145.67,205.66,144.47,207.28,144.58,208.91z"/>
</g>
</svg>
