<?xml version="1.0" encoding="utf-8"?>
<!-- Generator: Adobe Illustrator 25.2.3, SVG Export Plug-In . SVG Version: 6.00 Build 0)  -->
<svg version="1.1" id="Layer_1" xmlns="http://www.w3.org/2000/svg" xmlns:xlink="http://www.w3.org/1999/xlink" x="0px" y="0px"
	 viewBox="0 0 156.39 208.91" style="enable-background:new 0 0 159.39 208.91;" xml:space="preserve">
<style type="text/css">
	.st0{fill:#D6AD29;}
	.st1{fill:#B79D1D;}
	.st2{fill:#A5B508;}
	.st3{fill:#557507;}
	.st4{fill:#C6A028;}
	.st5{fill:#E2BD23;}
</style>
<g>
	<path class="st0" d="M19.81,0l68.98,0c0.03,1.01,0.07,2.01,0.12,2.97c0.31,5.2,0.94,10.24,2.19,15.3
		c1.77,7.23,4.15,14.65,7.06,21.68c0.87,0.11,1.69,0.51,2.32,1.3c2.13,2.7,4.41,5.27,6.84,7.69c1.07,1.08,2.19,2.13,3.33,3.14
		c2.55,2.28,5.25,4.39,8.09,6.31c1.02,0.69,2.06,1.35,3.1,1.97c1.49,0.9,3,1.74,4.53,2.53c0.81,0.42,1.62,0.82,2.44,1.21
		c0.57,0.27,1.14,0.54,1.72,0.8c3.93,1.8,7.98,3.35,12.09,4.83c5.59,0.26,11.17,0.38,16.77,0.33v68.11
		c-1.19,0.09-2.37,0.14-3.44,0.33c-4.07,0.73-8.01,2.19-11.81,3.8c-6.86,2.92-13.59,6.35-20.88,7.99c-1.17,2.05-3.26,3.3-5.27,4.56
		c-1.01,0.63-2,1.29-2.97,1.98c-3.68,2.6-7.05,5.62-9.81,9.21c-3.69,4.81-6.56,10.31-9.46,15.61c-2.84,5.17-5.33,10.59-5.75,16.54
		c-0.06,0.91-0.33,1.65-0.74,2.27c-0.18,2.81-0.29,5.62-0.32,8.44H19.71c-0.09-0.29-0.15-0.59-0.23-0.88
		c0.2-0.24,0.34-0.56,0.34-0.96V0z"/>
	<path class="st1" d="M159.39,135.39v9.71c-1.92-0.28-3.8-0.83-5.4,0.51c-1.21,1.01-1.47,1.21-2.82,0.88
		c-0.01,0-0.01-0.01-0.01-0.01c-0.15-0.04-0.32-0.08-0.51-0.13c-0.87-0.25-1.46-0.36-2.1-0.23c0,0-0.01,0-0.01,0
		c-0.32,0.07-0.64,0.19-1.04,0.38c-0.54,0.27-0.97,0.74-1.53,0.99c-1.05,0.48-2.16,0.55-3.3,0.51c-1.27-0.04-2.34-0.34-3.33-0.06
		c-0.01-0.01-0.01-0.01-0.01,0c-0.17,0.06-0.32,0.12-0.48,0.2c-0.02,0.01-0.04,0.02-0.06,0.02c-0.29,0.15-0.56,0.37-0.85,0.67
		c-0.77,0.81-1.08,2.31-1.98,2.98c-2.07,1.55-4.7-1.48-6.94-0.06c-0.08,0.06-0.16,0.12-0.24,0.18c-0.45,0.39-0.73,0.96-0.97,1.56
		c-0.29,0.7-0.54,1.45-0.99,2c-0.49,0.6-1.1,1.02-1.79,1.35c-0.03,0.02-0.07,0.03-0.1,0.05c-1.42,0.67-3.04,0.74-4.45,1.43
		c-1.21,0.6-2.45,1.3-3.63,1.97c-1.04,0.59-1.97,1.38-2.85,2.29c-0.73,0.74-1.42,1.56-2.09,2.38c-0.51,0.62-1.01,1.25-1.51,1.85
		c-0.01,0-0.01,0.01-0.01,0.01c-0.01,0.02-0.03,0.04-0.04,0.06c-0.04,0.1-0.09,0.2-0.13,0.3c-0.01,0.01-0.01,0.01-0.01,0.02
		c-0.77,1.55-1.86,2.65-3.05,3.98c-0.48,0.54-0.89,1.1-1.26,1.68c-1.1,1.75-1.84,3.66-3.03,5.42c-0.25,0.36-0.54,0.7-0.85,1.03
		c-0.01,0-0.01,0-0.01,0.01c-0.64,0.68-1.32,1.32-1.78,2.1c-0.82,1.39-0.78,3.02-0.97,4.56c-0.01,0.09-0.02,0.18-0.04,0.26
		c0,0.01,0,0.01,0,0.01c-0.22,1.55-0.7,2.87-1.42,4.21c-0.01,0.01-0.01,0.01-0.01,0.01c-0.12,0.21-0.23,0.42-0.36,0.64
		c-0.59,1.03-1.3,2.05-1.62,3.2c-0.42,1.53-0.04,3.04-0.16,4.59c-0.09,1.16-0.46,2.22-0.68,3.34c-0.19,0.96-0.18,1.8-0.11,2.62
		c0,0.01,0,0.01,0,0.01c0.06,0.79,0.18,1.56,0.21,2.43c0.03,0.62,0.18,1.12-0.01,1.53c-0.01,0.03,0.02,0.06,0,0.09H87.1
		c-0.09-0.98-2.13-1.98-1.78-2.9c0.19-0.51,0.77-1.01,0.91-1.48c0.27-0.89-0.18-1.34-0.32-2.33c-0.12-0.86,0.04-1.79,0.58-2.49
		c0.4-0.5,1.37-0.75,1.51-1.34c0.11-0.44-0.46-1.35-0.52-1.8c-0.2-1.42,0.43-1.66,0.97-2.79c0.55-1.14-0.15-2.44,0.18-3.75
		c0.23-0.91,0.7-1.35,1.19-2.1c0.74-1.13,0.91-1.72,0.81-3.13c-0.09-1.39-0.09-2.46,0.76-3.68c1.37-1.95,3.23-1.23,3.3-4.22
		c0.04-1.79-0.89-3.09,0.04-4.83c1.56-2.93,5.65-2.63,6.55-6.08c0.39-1.5,0.24-2.92,1.53-4.03c0.34-0.29,0.76-0.41,1.12-0.65
		c1-0.23,1.69-0.89,2.08-1.98c0.04-0.31,0.08-0.61,0.12-0.92c0.28-0.58,0.59-1.1,0.94-1.57c0.07-0.1,0.15-0.19,0.23-0.28
		c1.1-1.34,2.56-2.07,4.52-1.78c0.21-0.09,0.46-0.13,0.74-0.07c1.02,0.19,3.28-2.55,3.68-3.24c0.5-0.85,0.64-1.87,1.23-2.66
		c0.79-1.07,1.93-1.62,3.22-1.82c1.38-0.21,2.6,0.42,3.85-0.59c0.47-0.38,0.77-1.07,1.18-1.53c0.88-1.02,1.76-1.7,3.14-1.75
		c0.75-0.02,1.54,0.47,2.22,0.41c1.63-0.14,1.5-1.21,2.38-2.16c1.07-1.15,2.54-1.68,4.09-1.65c2.41,0.03,4.83,2.11,7.04,0.27
		c1.42-1.17,1.8-2.85,3.55-3.75c0.36-0.19,0.88-0.26,1.24,0c2.83,2.09,3.77-0.7,6.19-1.51C156.82,134.3,158.11,135.27,159.39,135.39
		z"/>
	<path class="st1" d="M86.49,0l9.19,0c-0.32,0.72-1.75,1.61-1.98,2.52c-0.01,0.02-0.02,0.06-0.02,0.09v0.01
		c-0.21,0.83-0.33,1.67-0.28,2.41c0.02,0.02,0.05,0.04,0.07,0.06c0.34,0.29,0.42,0.8,0.29,1.23c0.7,1.37,2.11,2.35,2.75,3.82
		c0.71,1.64,0.1,1.87-0.47,3.12c0,0,0,0,0,0.01c-0.02,0.07-0.06,0.14-0.09,0.21c-0.52,0.19-0.6,0.49-0.24,0.9
		c0.06,0.35,0.23,0.63,0.51,0.85c0.29,0.45,0.73,0.81,1,1.29c0.09,0.14,0.15,0.28,0.21,0.42c0.34,0.72,0.45,1.48,0.62,2.27
		c0.06,0.24,0.12,0.44,0.21,0.63c0.01,0.01,0.01,0.01,0.01,0.01c0.24,0.55,0.59,0.93,0.78,1.54c0.12,0.37,0.19,0.75,0.25,1.11
		c0,0.01,0,0.01,0.01,0.02v0.02c0.08,0.44,0.15,0.86,0.29,1.26c0,0.01,0,0.01,0.01,0.02c0.17,0.5,0.47,0.94,1.05,1.32
		c0.24,0.08,0.47,0.25,0.63,0.53c1.19,2.02,0.61,3.97,1.29,6.08c0.48,1.5,1.68,1.87,2.6,2.63c0.34,0.28,0.64,0.61,0.85,1.07
		c0.26,0.55,0.26,0.98,0.25,1.37c-0.01,0.17-0.02,0.34-0.02,0.5c0.04,0.03,0.09,0.06,0.13,0.09c0.72,0.56,1.23,1.13,1.76,1.83
		c0.1-0.01,0.19-0.01,0.29-0.01h0.01c0.1,0.01,0.2,0.04,0.29,0.12c0.87,0.69,1.02,1.44,1,2.34c0.15,0.1,0.31,0.2,0.47,0.28
		c0.7,0.33,1.36,0.2,2,0.78c1.12,1.04,0.82,2.51,0.97,3.83v0.01c0,0.01,0,0.01,0,0.01c0.1,0.81,0.36,1.57,1.23,2.13
		c0.27,0.18,0.57,0.31,0.88,0.39c0.02,0.01,0.05,0.02,0.07,0.02c0.62,0.18,1.3,0.23,1.98,0.3c0,0,0.01,0,0.01,0
		c0.01,0,0.01,0,0.01,0c1.15,0.12,2.26,0.32,2.99,1.32c0.42,0.59,0.34,1.19,0.59,1.81c0.42,1.09-0.07,0.6,0.8,0.95h0.01
		c0.06,0.03,0.12,0.06,0.19,0.09c1.08,0.49,1.84,1.15,2.73,1.58c0.63,0.31,1.23,0.28,1.81,0.8c0.29,0.26,0.44,0.65,0.66,0.95
		c0.05,0.07,0.1,0.14,0.17,0.2c0.67,0.65,1.56,1.04,2.54,1.15c1.51,0.17,1.61,0.13,2.57,1.19c0.01,0.01,0.01,0.01,0.01,0.01
		c0.06,0.07,0.11,0.13,0.18,0.2c0.16,0.18,0.26,0.36,0.32,0.53c0.22,0.54,0.17,0.92,1.35,0.72c0,0,0.01,0,0.01,0
		c0.07-0.01,0.17-0.03,0.25-0.05c0.44-0.09,0.93-0.59,1.34-0.79c0.39-0.18,0.75-0.29,1.13-0.37c0.34-0.39,0.88-0.55,1.42-0.16
		c0.07,0.04,0.13,0.09,0.19,0.15c1.64,1.24,2.24,2.81,3.86,3.74c0.07,0.04,0.13,0.09,0.21,0.12c0.39,0.21,0.83,0.37,1.35,0.5
		c0.88,0.21,1.75,0.42,2.62,0.64h0.01c0.01,0,0.02,0,0.02,0.01l0.33,0.09c0.01,0,0.01,0,0.02,0.01c0.77,0.2,1.53,0.4,2.29,0.63
		c0.03-0.06,0.07-0.12,0.11-0.17c0.41-0.62,1.02-1.04,1.94-1.18c0.18-0.03,0.34-0.04,0.5-0.04c0.01,0,0.01,0,0.01,0
		c0.55,0.01,1.02,0.19,1.61,0.31c0.71,0.15,1.3,0.24,1.88,0.29c0.01,0,0.01,0,0.01,0c0.61,0.05,1.24,0.05,2.02,0.01
		c0.67-0.03,1.38-0.04,1.98,0.15v9.31c-1.41,0.14-2.82,1.04-4.14,0.81c-0.85-0.15-0.96-0.56-1.8-0.36
		c-0.36,0.09-0.75,0.62-1.12,0.78c-1.34,0.58-1.65-0.1-2.77-0.5c-0.81-0.29-3.33-0.07-4.19-0.67c-0.37-0.26-0.47-0.74-0.74-1.07
		c0-1.04-0.67-1.53-2.01-1.48c-0.17,0.05-0.34,0.08-0.53,0.09c-0.03,0.02-0.07,0.04-0.1,0.06c-0.15,0.1-0.29,0.19-0.45,0.28
		c-1,0.36-1.89,1.36-3.03,0.81c-0.41-0.2-0.56-0.65-0.86-0.89c-0.92-0.76-1.32-0.93-1.67-0.93c-0.35,0-0.66,0.18-1.4,0.12
		c-1.69-0.13-2.07-0.91-3.3-1.92c-0.35,0.01-0.7-0.11-0.98-0.41c-0.03-0.04-0.07-0.08-0.1-0.13c-1.04-1.44-2.87-1.38-4.54-1.51
		c-0.5-0.03-0.97-0.09-1.42-0.2c-0.86-0.23-1.54-0.56-2.16-1.05c-0.34-0.26-0.64-0.57-0.96-0.93c-0.32-0.38-0.67-1.23-1.04-1.68
		c-0.08-0.1-0.17-0.18-0.25-0.23c-0.74-0.4-2.13,0.27-2.93,0.15c-0.94-0.13-1.59-0.52-2.22-1.23c-1.19-1.34-0.99-3.19-2.99-3.79
		c-1.18-0.36-2.24,0.07-3.29-0.79c-1.13-0.93-0.67-1.82-1.05-2.98c-0.83-2.54-2.92-2.55-4.94-3.55c-2.89-1.43-2.81-3.61-3.31-6.44
		c-0.39-2.17-1.37-4.23-2.85-5.88c-1.02-1.14-2.14-1.95-2.65-3.45c-0.29-0.86-0.26-1.71-0.7-2.54c-0.59-1.15-1.35-1.42-2.36-2.13
		c-0.97-0.69-1.76-1.38-2.17-2.54c-0.52-1.46-0.06-2.84-0.17-4.34c-0.13-1.7-1.27-2.84-1.28-4.53c-0.01-0.21,0.04-0.4,0.12-0.55
		c-0.23-0.46-0.36-0.89-0.45-1.46c-0.21-1.42-0.53-2.24-1.15-3.52c-0.77-1.56-0.43-1.69,0.07-3.25c0.55-1.72,0.17-1.27-0.5-2.47
		C84.57,7,84.32,6.47,84.24,5.5C84.07,3.56,86.33,1.82,86.49,0z"/>
	<path class="st2" d="M155.11,143.63c0.12,0.01,0.25,0.01,0.39,0.01c0.01,0,0.01,0,0.01,0c0.97,0.01,2.53-0.01,3.88,0.18v13.02
		h-5.44c-0.07,0-0.13,0.01-0.19,0.01c-0.83,0.09-0.34,0.15-0.87,0.27c-0.48,0.12-0.89,0.33-1.42,0.37c-1.49,0.1-3.54,0.38-5.04-0.28
		c-0.21-0.09-0.43-0.23-0.66-0.37c-0.99-0.65-2.05-1.56-2.6-0.29c-0.04,0.1-0.07,0.2-0.09,0.29c-0.1,0.61,0.16,1.27-0.21,1.87
		c-0.87,1.42-1.83,0.52-2.95,0.64c-0.14,0.14-0.34,0.25-0.59,0.29c-1.46,0.25-1.91,2.22-3.27,2.78c-0.59,0.25-1.02,0.09-1.6,0.19
		c-0.15,0.02-0.25,0.02-0.33,0.02c-0.03,0.05-0.06,0.1-0.09,0.15c-0.73,1.2-0.97,1.81-2.42,2.16c-0.32-0.04-0.66-0.09-0.99-0.13
		c-0.81,0.28-1.44,0.74-1.9,1.38c-0.5,0.45-0.79,1.03-1.39,1.4c-0.67,0.41-1.28,0.55-2.06,0.43c-0.22,0-0.42-0.06-0.61-0.17
		c-0.21-0.18-0.38-0.29-0.5-0.32c-0.08,0.04-0.17,0.08-0.25,0.12c-0.04,0.15,0,0.44,0.13,0.87c-0.58,1.18-0.68,1.78-1.89,2.54
		c-0.94,0.59-2.05,0.77-2.99,1.3c-1.21,0.69-1.02,1.38-1.05,2.68c-0.03,1.13-0.17,2.3-1.08,3.09c-0.62,0.55-1.27,0.39-1.91,0.75
		c-1.56,0.86-0.96,1.1-1.3,2.29c-0.43,1.5-0.8,1.72-1.89,2.82c-1.48,1.5-1.72,2.52-1.77,4.45c-0.01,0.64,0.03,1.26-0.24,1.86
		c-0.25,0.53-0.77,0.81-1.05,1.26c-0.57,0.03-0.72,0.29-0.44,0.77c0.2,0.4,0.34,0.81,0.42,1.24c0.15,1.18-0.27,1.71-1.06,2.49
		c-0.31,0.16-0.62,0.31-0.94,0.43c-0.77,0.78-0.87,1.57-0.32,2.36c0.09,0.79,0.48,1.45,0.42,2.28c-0.06,0.74-0.53,1.32-0.61,2
		c-0.36,2.95,0.37,2.36,1.65,3.94c0.57,0.7,0.67,1.25,0.69,1.83H95.06c0.01-0.03-0.01-0.06,0-0.09c0.18-1.31-0.19-2.63-0.21-3.96
		c0-0.01,0-0.01,0-0.01c-0.02-0.86,0.01-1.71,0.2-2.57c0.5-2.29,0.84-4.59,1.37-6.87c0.38-1.64,0.85-3.3,1.37-4.96
		c0-0.01,0-0.01,0.01-0.01c0.43-1.41,0.91-2.82,1.42-4.21c0-0.01,0-0.01,0-0.01c0.64-1.79,1.31-3.55,1.98-5.25
		c0.23-0.59,0.51-1.14,0.82-1.68c0-0.01,0-0.01,0.01-0.01c0.59-1.04,1.27-2.02,1.84-3.07c0.66-1.23,1.28-2.33,2.05-3.38
		c0.37-0.51,0.77-1.01,1.23-1.51c0.94-1.01,1.86-1.89,2.55-3.11c0.2-0.34,0.36-0.7,0.53-1.05c0.01-0.01,0.01-0.01,0.01-0.02
		c0.06-0.12,0.12-0.24,0.18-0.36c0,0,0-0.01,0.01-0.01c0.17-0.32,0.35-0.64,0.58-0.93c0.29-0.38,0.6-0.69,0.93-0.93
		c0.42-0.32,0.89-0.53,1.43-0.67c0.2-0.56,0.4-1.15,0.66-1.71c0.51-1.15,1.2-2.21,2.3-2.77c2.33-1.21,4.99-1.65,7.32-2.96
		c0.11-0.06,0.21-0.12,0.32-0.19c2.02-1.22,3.06-3.38,4.83-4.72c0.08-0.06,0.16-0.12,0.24-0.18c0.1-0.07,0.2-0.15,0.31-0.22
		c0.63-0.38,1.43-0.64,2.18-0.59c1.06,0.06,2.37,1.14,3.38,0.99c1.61-0.25,1.94-2.31,3.03-3.21c0.26-0.22,0.55-0.4,0.86-0.55
		c0.02-0.01,0.04-0.02,0.06-0.02c0.15-0.07,0.31-0.14,0.48-0.2c0-0.01,0.01-0.01,0.01,0c0.34-0.13,0.69-0.22,1.05-0.29
		c1.32-0.28,2.68-0.21,4-0.49c1.32-0.28,2.57-0.95,3.92-1.04c0.08-0.01,0.16-0.01,0.23-0.01c0.01,0,0.01,0,0.01,0
		c0.89,0.01,1.73,0.36,2.61,0.37c0,0,0.01,0.01,0.01,0.01c0.21,0,0.43-0.02,0.65-0.06c1.52-0.32,0.69-0.6,1.36-1.59
		c0.29-0.42,0.63-0.67,1.01-0.8c0.04-0.05,0.07-0.09,0.12-0.13h0.01C154.5,143.72,154.77,143.61,155.11,143.63z"/>
	<path class="st2" d="M95.06,0l13.42,0c0.07,0.79,0.09,1.58-0.07,2.33c-0.17,0.8-0.74,1.24-1.04,1.89c-0.9,2.03,0.2,2.47,0.55,4.23
		c0.21,1.04-0.13,1.8-0.35,2.78c-0.3,1.35-0.58,3.81-0.31,5.21c0.45,2.32,1.84,1.77,3.16,3.06c1.2,1.19,1.26,2.82,1.04,4.38
		c0.15,0.09,0.31,0.17,0.46,0.25c0.5,0.26,0.66,0.7,0.59,1.13c0.07,0.2,0.06,0.45-0.04,0.72c0.18-0.49,1.3,0.37,1.66,0.98
		c0.72,1.18-0.1,2.34,0.28,3.42c0.53,1.53,2.48,1.04,3.43,2.03c0.85,0.87,0.52,1.64,0.73,2.68c0.38,1.89,1.46,1.1,2.82,1.82
		c1.07,0.56,1.13,1.32,1.56,2.32c0.46,1.07-0.77,1.45,1.3,2.2c0.47,0.17,1.25-0.1,1.78,0.02c0.92,0.21,1.59,0.59,2.05,1.42
		c0.25,0.46,0.23,0.84,0.37,1.32c0.55,1.81,0.64,1.98,2.49,2.19c1.56,0.17,3.57-0.86,5.07-0.17c1.05,0.48,1,1.37,1.62,2.22
		c1.58,2.16,4.09,0.53,6.03,1.35c1.22,0.51,1.85,1.59,3.14,2c1.39,0.45,2.49-0.25,3.87,0.08c0.43,0.1,0.8,0.48,1.19,0.58
		c1.85,0.48,2.55-0.2,3.98-0.71c1.17-0.42,2.35,0.75,3.56,0.64V65.3c-0.34,0.04-0.71,0.04-1.1,0c-0.22,0.01-0.43-0.01-0.63-0.09
		c-0.74-0.13-1.51-0.34-2.27-0.55c-0.01,0-0.01,0-0.01,0c-1.32-0.37-2.59-0.73-3.49-0.61c-0.01,0-0.01,0-0.01,0
		c-0.48,0.07-0.85,0.28-1.07,0.69c-0.29,0.57-0.86,0.69-1.37,0.53c-0.29-0.09-0.56-0.28-0.74-0.53c-0.52-0.69-1.02-1.03-1.52-1.18
		c-0.03,0.01-0.07,0.02-0.1,0.03c-0.61,0.16-1.21,0.15-1.76,0.04c-0.76,0.16-1.54,0.34-2.4,0.03c-0.08-0.03-0.16-0.07-0.23-0.1
		c-0.07-0.04-0.14-0.08-0.21-0.12c-0.92-0.62-1.15-1.84-1.98-2.63c-0.59-0.56-1.21-0.94-1.87-1.11c-0.06-0.02-0.12-0.03-0.17-0.04
		c-0.35,0.29-0.85,0.41-1.37,0.18c-0.04-0.02-0.09-0.04-0.13-0.06c-0.12,0.04-0.23,0.07-0.35,0.13c-0.51,0.24-0.81,0.83-1.46,0.99
		c-0.31,0.07-0.58,0.08-0.85,0.04c-0.01,0-0.01,0-0.01,0c-0.51-0.09-0.94-0.35-1.35-0.72c-0.01-0.01-0.02-0.02-0.04-0.03
		c-0.21-0.19-0.34-0.44-0.47-0.7c0,0,0,0-0.01-0.01c-0.12-0.23-0.23-0.47-0.4-0.66c-3.06-3.4-1.57-0.55-3.52-1.25
		c-0.43-0.15-0.81-0.36-1.23-0.57c-0.04-0.02-0.08-0.04-0.12-0.06c-1.08-0.56-2.24-1.04-3.37-1.48c-0.99-0.38-1.62-1.07-2.02-1.93
		h-0.01c-0.5-1.04-0.67-2.32-0.8-3.57c-0.23-0.07-0.4-0.21-0.54-0.37c-0.95-0.2-2.02-0.12-3.04-0.15c-0.01,0-0.01,0-0.01,0
		c-0.01,0-0.01,0-0.01,0c-0.69-0.02-1.37-0.08-1.98-0.3c-0.02-0.01-0.05-0.02-0.07-0.02c-0.26-0.1-0.51-0.24-0.75-0.42
		c-0.66-0.49-1.07-1.26-1.35-2.1c0-0.01,0-0.01,0-0.01v-0.01c-0.26-0.78-0.4-1.62-0.51-2.32c-0.42-2.68-1.15-0.96-2.89-1.93
		c-1.12-0.63-1.08-1.96-1.34-3.11h-0.01c-0.17-0.81-0.49-1.53-1.45-1.84c-0.33-0.1-0.57-0.31-0.71-0.57
		c-0.1-0.18-0.17-0.39-0.19-0.61c-0.19-0.3-0.37-0.6-0.56-0.9c-0.26-0.22-0.37-0.58-0.35-0.93c0.01-0.2,0.06-0.39,0.16-0.56
		c0.15-0.26-1.79-1.61-2-1.86c-0.56-0.69-0.81-1.29-0.98-2.14c-0.19-0.97,0.32-2.08,0.08-3.01c-0.36-1.42-1.2-1.41-2.1-2.18
		c-0.35-0.3-0.58-0.56-0.74-0.82c-0.01-0.01-0.01-0.01-0.01-0.02c-0.24-0.4-0.29-0.79-0.29-1.26V22.5
		c-0.01-0.01-0.01-0.01-0.01-0.02c-0.01-0.32,0.01-0.7-0.02-1.15c-0.09-1.48,0.36-0.41-0.82-1.34c-0.06-0.05-0.13-0.1-0.19-0.17
		c-0.01,0-0.01-0.01-0.01-0.01c-0.31-0.28-0.59-0.62-0.74-0.99c-0.21-0.49-0.12-1.06-0.16-1.57c0.03-0.11,0.06-0.23,0.07-0.34
		c0.12-0.7-0.01-1.39-0.39-2.06c-0.32-0.23-0.59-0.5-0.81-0.81c-0.1-0.26-0.17-0.53-0.21-0.8c0-0.01,0-0.01,0-0.01
		c-0.06-0.34-0.07-0.69-0.05-1.04c0.21-0.68,0.39-1.37,0.52-2.08c0.01-0.05,0.02-0.1,0.03-0.15c-0.1-0.88-0.52-1.52-1.24-1.9
		C94.42,7,93.7,6.12,94.04,4.59c0.25-1.14,1.19-1.7,1.26-2.95C95.32,1.07,95.15,0.55,95.06,0z"/>
	<path class="st3" d="M94.94,0l2.45,0c-0.04,0.29-1.15,0.58-1.23,0.88c0.01,0,0.02,0.01,0.03,0.01c0.87,0.36,1.19,1.3,0.54,2.05
		c-1.58,1.83-1.61,2.38,0.21,3.93c0.53,0.45,0.81,0.55,1.02,1.21c0.44,1.36-0.23,3.29-0.95,4.8c0.59,0.32,1.09,0.8,1.43,1.53
		c0.88,1.87-1.05,3.96,1.86,4.64c0.81,0.19,1.08,1.12,0.74,1.8c-1.04,1.25-0.98,2.54,0.18,3.85c0.35,0.04,0.69,0.14,1,0.29
		c0.64,0.47,1.08,0.53,1.46,1.31c0.74,1.52-1.61,6,1.68,5.89c0.76-0.03,1.44,0.81,1.18,1.55c-0.87,2.51,2,2.23,2.91,3.78
		c0.61,1.03,0.69,2.4,0.63,3.67c1.33-0.38,2.56-0.85,3.69,0.55c1.68,2.07-0.51,6.64,3.04,6.81c1.93,0.09,3.36-0.6,4.91,1.18
		c0.94,1.07,1.18,2.44,0.91,3.75c1.25,0.34,2.88,0.02,4.06,0.89c0.72,0.54,1.24,1.21,1.58,1.98c0.84-0.31,1.76-0.34,2.68,0.02
		c1.29,0.51,2.43,3.63,3.72,3.21c1.24-0.41,1.26-2.35,3.12-2.19c2.17,0.19,3.8,3.34,5.02,4.8c0.12,0.13,0.19,0.28,0.23,0.42
		c1.04-0.01,3.63-0.73,4.39-0.47c1.02,0.34,1.73,1.04,2.41,1.79c0.21-0.46,0.41-1.05,0.46-1.17c0.27-0.61,1.15-0.74,1.68-0.43
		c2.33,1.31,4.86,1.4,7.41,1.16v2.43c-2.55,0.21-5.04,0.11-7.41-0.88c-0.39,0.86-0.82,1.56-1.89,1.81c-0.42,0.1-0.89,0.01-1.19-0.31
		c-0.59-0.64-1.13-1.43-1.86-1.72c-0.01-0.01-0.01-0.01-0.02-0.01c-0.1-0.04-0.21-0.07-0.33-0.09c-0.01-0.01-0.01-0.01-0.02-0.01
		h-0.01c-0.26-0.04-0.54-0.02-0.86,0.09c-0.71,0.24-1.05,0.81-1.87,0.92c-1.53,0.19-2.76-0.7-3.42-1.98
		c-0.13-0.25-0.17-0.5-0.14-0.72c-0.58-0.77-1.18-1.59-1.87-2.17c-1.04-0.87-0.86-0.67-1.72-0.01c-0.75,0.57-0.94,1.42-1.95,1.75
		c-0.83,0.28-1.67,0.09-2.37-0.4c-0.94-0.64-2.4-4.69-4.06-3.05c-0.59,0.58-1.91,0.41-2.05-0.54c-0.53-3.71-3.85-1.88-5.81-3.39
		c-0.4-0.31-0.79-0.85-0.56-1.38c0.8-1.34,0.07-2.35-2.21-3.01c-0.29,0.14-0.6,0.25-0.92,0.34c-0.47,0-0.88,0.17-1.38,0.1
		c-0.94-0.13-1.73-0.72-2.3-1.47c-0.93-1.22-0.85-2.58-1.02-4.01c0.17-0.66,0.02-1.24-0.45-1.72c-0.17-0.81-0.55-0.97-1.16-0.45
		c-0.43-0.03-1.32,0.31-1.78,0.34c-0.61,0.04-1.29-0.6-1.23-1.23c0.17-1.71,0.4-3.15-1.28-4.14c-0.61-0.36-1.24-0.23-1.8-0.83
		c-0.82-0.88-0.86-2.11-0.64-3.26c-0.93-0.25-1.75-0.78-2.31-1.68c-0.41-0.65-0.6-1.38-0.62-2.15c-0.01-0.73,0.76-2.02,0.57-2.65
		c-0.41-1.32-2.79-1.49-3.44-3.06c-0.55-1.34-0.26-2.66,0.26-3.91c-0.76-0.29-1.47-0.69-1.94-1.35c-0.67-0.94-0.29-4.75-1.07-4.85
		c-0.9-0.11-1.56-0.96-1.06-1.84c1.03-1.81,1.95-3.51,0.2-4.93c-0.66-0.53-1.52-0.94-1.93-1.71c-0.72-1.36,0.18-2.63,1.19-3.72V2.6
		c0.02-0.02,0.04-0.04,0.06-0.06c-0.01-0.01-0.02-0.02-0.03-0.03c-0.29-0.28-0.45-0.67-0.27-1.11C93.62,0.93,94.85,0.47,94.94,0z"/>
	<path class="st3" d="M159.39,143.71v2.38c-2.23-0.36-5.12-0.62-5.5,1.74c-0.13,0.83-1.17,1.06-1.8,0.73
		c-1.5-0.78-1.72-2.13-3.54-1.28c-1.7,0.79-3.08,1.42-5,1.6c-1.04,0.1-2.09,0.1-3.13,0.16c-0.58,0.04-1.37-0.05-1.86,0.31
		c-0.85,0.62-0.23,0.09-0.5,0.9c-0.38,1.19-0.11,2.17-1.51,2.79c-1.21,0.54-2.29-0.01-3.41-0.46c-1.47-0.59-2.99-0.95-4.27,0.34
		c-0.66,0.67-0.77,1.69-1.2,2.48c-0.34,0.62-0.67,1.08-1.08,1.43c-0.42,0.34-0.92,0.58-1.61,0.77c-1.44,0.39-2.5,0.31-3.73,1.26
		c-0.5,0.39-0.97,0.85-1.54,1.13c-1.29,0.64-3.01,0.06-3.8,1.06c-0.8,1.02-0.32,2.17-1.48,3.06c-0.91,0.7-1.44,0.64-2.27,1.64
		c-0.86,1.02-0.65,1.19-1.03,2.3c-0.39,1.11-1.16,1.92-2.02,2.69c-0.62,0.56-1.39,1.01-1.95,1.64c-1,1.12-1.16,2.46-1.59,3.84
		c-0.47,1.54-1.25,2.63-2.38,3.75c-1.48,1.45-1.6,2.96-1.68,4.93c-0.02,0.43,0.01,0.86-0.07,1.3c-0.34,1.71-1.49,3.56-2.4,4.99
		c-1.01,1.58-2.12,2.93-1.79,5.02c0.07,0.45,0.45,0.8,0.51,1.28c0.15,1.34-0.78,2.06-1.28,3.18c-1.19,2.65,1.31,5.49,0.91,8.25
		h-2.51c0.77-2.22-1.42-4.72-1.23-7.03c0.15-1.82,1.62-3.12,1.26-4.77c-0.36-1.64-0.85-2.52,0.03-4.23c1.34-2.6,4.23-5.01,3.99-8.17
		c-0.14-1.89-0.53-2.87,0.72-4.59c0.61-0.85,1.45-1.46,2.16-2.22c1.08-1.16,1.32-2.32,1.75-3.77c0.53-1.81,1.29-2.95,2.69-4.2
		c0.62-0.56,1.38-1,1.91-1.64c0.8-0.97,0.69-1.92,0.99-3.04c0.4-1.45,1.19-1.68,2.27-2.5c0.97-0.74,0.5,0.13,1.27-1.15
		c0.59-0.99,0.26-0.62,0.48-1.19c0.27-0.67,0.25-1.07,0.75-1.61c1.09-1.13,2.4-0.53,3.74-0.78c0.87-0.17,1.59-0.66,2.3-1.19
		c0.79-0.58,1.57-1.19,2.54-1.42c1.59-0.36,2.36-0.53,3.35-2.09c0.31-0.5,0.45-1.07,0.82-1.57c0.81-1.07,2-1.78,3.3-2.08
		c1.92-0.45,2.73,0.57,4.42,0.8c1.85,0.25,0.89-1.9,1.93-2.93c0.9-0.89,2.5-0.85,3.66-0.93c2.32-0.16,4.94,0.1,7-1.19
		c1.17-0.73,2.06-1.96,3.62-1.45c0.74,0.24,1.16,0.85,1.61,1.42c0.51-0.75,1.24-1.23,2.1-1.49h0.01c0.37-0.13,0.77-0.21,1.19-0.26
		c0.01,0,0.01,0,0.01,0C156.76,143.47,158.14,143.57,159.39,143.71z"/>
	<path class="st4" d="M42.18,192.69c-0.42,0.25-0.76,0.59-1.01,1.01c-0.12,0.17-0.17,0.29-0.26,0.5c-0.14,0.34-0.27,0.77-0.23,1.15
		c0.08,0.71,0.24,1.41,0.79,1.91c0.18,0.14,0.36,0.28,0.55,0.42c0.42,0.24,0.88,0.37,1.36,0.37c0.55,0.06,1.2-0.17,1.65-0.5
		c0.42-0.25,0.76-0.59,1.01-1.01c0.26-0.44,0.38-0.92,0.39-1.43c-0.03-0.75-0.29-1.46-0.83-2c-0.51-0.51-1.27-0.83-2-0.83
		C43.09,192.3,42.62,192.43,42.18,192.69z"/>
	<path class="st4" d="M32.78,191.76c0,3.68,5.72,3.69,5.72,0C38.5,188.07,32.78,188.07,32.78,191.76z"/>
	<path class="st4" d="M34.63,179.1c-0.47,0.47-0.83,1.25-0.8,1.93c0.03,0.71,0.26,1.44,0.8,1.93c0.5,0.46,1.23,0.88,1.93,0.8
		c0.55-0.06,1.12-0.08,1.64-0.3c0.5-0.21,0.8-0.41,1.24-0.78c0.42-0.35,0.71-1.11,0.68-1.65c-0.03-0.59-0.22-1.25-0.68-1.65
		c-0.43-0.37-0.74-0.57-1.24-0.78c-0.52-0.22-1.08-0.24-1.64-0.3C35.91,178.23,35.07,178.66,34.63,179.1z"/>
	<path class="st4" d="M59.9,175.21c0,3.08,4.79,3.08,4.79,0C64.68,172.13,59.9,172.13,59.9,175.21z"/>
	<path class="st4" d="M68.48,185.93c0,2.28,3.54,2.28,3.54,0C72.02,183.66,68.48,183.65,68.48,185.93z"/>
	<path class="st4" d="M56.03,182.43c-0.44,0.44-0.74,1.26-0.5,1.87c0.17,0.42,0.33,0.82,0.59,1.2c0.42,0.62,1.09,1.11,1.88,1.08
		c0.58-0.03,1.12-0.22,1.54-0.64c0.39-0.39,0.64-0.98,0.64-1.54c0-0.81-0.43-1.44-1.08-1.88c-0.38-0.26-0.78-0.42-1.2-0.59
		C57.28,181.68,56.47,181.98,56.03,182.43z"/>
	<path class="st4" d="M43.9,164.49c0,2.77,4.31,2.78,4.31,0C48.21,161.72,43.9,161.72,43.9,164.49z"/>
	<path class="st4" d="M70.44,158.06c0,3.31,5.15,3.32,5.15,0C75.58,154.75,70.44,154.74,70.44,158.06z"/>
	<path class="st4" d="M81.76,144.28c0,4.11,6.39,4.12,6.39,0C88.15,140.16,81.76,140.16,81.76,144.28z"/>
	<path class="st4" d="M74.5,198.19c0,2.18,2.05,3.03,3.66,2.58c0.77,0.5,2.08,0.15,2.08-1.05c0-0.32-0.1-0.58-0.25-0.78
		c0.06-0.23,0.1-0.48,0.1-0.75C80.1,194.58,74.5,194.58,74.5,198.19z"/>
	<path class="st4" d="M54.05,197.47c0,0.94,0.77,1.39,1.51,1.34c0.01,3.13,4.88,3.13,4.88-0.01c0-2.17-2.34-2.84-3.78-2.01
		C56.06,195.73,54.05,195.95,54.05,197.47z"/>
	<path class="st4" d="M20.69,159.59c0,3.87,6.01,3.87,6.01,0C26.7,155.73,20.69,155.72,20.69,159.59z"/>
	<path class="st4" d="M25.42,171.54c0,3.3,5.12,3.3,5.12,0C30.54,168.24,25.42,168.24,25.42,171.54z"/>
	<path class="st4" d="M39.21,144.28c0,2.89,4.5,2.9,4.5,0C43.71,141.38,39.21,141.38,39.21,144.28z"/>
	<path class="st4" d="M54.86,146.73c0,2.46,3.83,2.47,3.83,0C58.69,144.26,54.86,144.26,54.86,146.73z"/>
	<path class="st4" d="M62.82,132.64c0,3.65,5.67,3.66,5.67,0C68.49,128.99,62.82,128.98,62.82,132.64z"/>
	<path class="st4" d="M78.41,172.46c0,3.7,5.74,3.7,5.74,0C84.15,168.76,78.41,168.76,78.41,172.46z"/>
	<path class="st4" d="M91.12,151.32c0,2.71,4.21,2.71,4.21,0C95.33,148.61,91.12,148.61,91.12,151.32z"/>
	<path class="st4" d="M106.15,144.58c0,2.68,4.16,2.68,4.16,0C110.32,141.9,106.15,141.9,106.15,144.58z"/>
	<path class="st4" d="M105.95,129.27c0,4.13,6.41,4.13,6.41,0C112.36,125.14,105.95,125.13,105.95,129.27z"/>
	<path class="st4" d="M115.8,129.57c0,4.07,6.32,4.07,6.32,0C122.12,125.51,115.8,125.5,115.8,129.57z"/>
	<path class="st4" d="M126.31,136.31c0,3.54,5.5,3.55,5.5,0C131.82,132.77,126.31,132.76,126.31,136.31z"/>
	<path class="st4" d="M135.34,127.07c-0.59,0.48-0.98,1.21-0.98,2.2c0,2.01,1.64,2.97,3.2,2.87c0.22,1.88,3.25,1.82,3.25-0.21
		c0-0.66-0.32-1.12-0.77-1.36c0.17-0.37,0.27-0.8,0.27-1.29c0-1.68-1.15-2.63-2.43-2.83C137.23,125.52,135.47,125.73,135.34,127.07z
		"/>
	<path class="st4" d="M145.79,128.65c0,3.71,5.77,3.72,5.77,0C151.55,124.94,145.79,124.94,145.79,128.65z"/>
	<path class="st4" d="M142.81,108.74c0,3.99,6.2,3.99,6.2,0C149.01,104.75,142.81,104.75,142.81,108.74z"/>
	<path class="st4" d="M139.54,104.45c0,3.08,4.79,3.08,4.79,0C144.32,101.37,139.54,101.37,139.54,104.45z"/>
	<path class="st4" d="M125.78,112.73c0,3.83,5.96,3.84,5.96,0C131.74,108.89,125.78,108.88,125.78,112.73z"/>
	<path class="st4" d="M133.36,112.52c0,0.27,0.1,0.48,0.25,0.63c-0.75,0.3-1.33,0.97-1.33,2.03c0,2.96,4.59,2.96,4.59,0
		c0-1.27-0.86-2-1.83-2.17c0.08-0.13,0.14-0.29,0.14-0.48C135.18,111.35,133.36,111.35,133.36,112.52z"/>
	<path class="st4" d="M149.9,120.08c0,1.28,1.12,2.5,2.44,2.44c1.32-0.06,2.44-1.07,2.44-2.44c0-1.28-1.12-2.5-2.44-2.44
		C151.02,117.69,149.9,118.71,149.9,120.08z"/>
	<path class="st4" d="M150.59,98.63c0,3.05,4.74,3.05,4.74,0C155.33,95.59,150.59,95.58,150.59,98.63z"/>
	<path class="st4" d="M145.86,87.61c0,3.62,5.62,3.62,5.62,0C151.48,83.99,145.86,83.98,145.86,87.61z"/>
	<path class="st4" d="M149.14,78.72c0,3.34,5.19,3.35,5.19,0C154.33,75.38,149.14,75.38,149.14,78.72z"/>
	<path class="st4" d="M135.64,72.6c0,4.16,6.46,4.16,6.46,0C142.1,68.44,135.64,68.43,135.64,72.6z"/>
	<path class="st4" d="M120.75,69.23c0,3.6,5.6,3.61,5.6,0C126.35,65.62,120.75,65.62,120.75,69.23z"/>
	<path class="st4" d="M110.1,81.79c0,3.91,6.08,3.92,6.08,0C116.18,77.88,110.1,77.87,110.1,81.79z"/>
	<path class="st4" d="M125.65,90.67c0,3.22,5,3.22,5,0C130.65,87.45,125.65,87.45,125.65,90.67z"/>
	<path class="st4" d="M133.41,95.57c0,3.08,4.79,3.08,4.79,0C138.2,92.49,133.41,92.49,133.41,95.57z"/>
	<path class="st4" d="M112.32,106.13c-0.6-1.2-2.8-0.98-2.8,0.67c0,1.22,1.21,1.65,2.08,1.31c0,0,0,0.01,0,0.01
		c0,3.96,6.15,3.96,6.15,0C117.74,105.02,113.94,104.35,112.32,106.13z"/>
	<path class="st4" d="M99.8,100.47c0,3.76,5.84,3.76,5.84,0C105.64,96.72,99.8,96.71,99.8,100.47z"/>
	<path class="st4" d="M100.36,81.17c0,3.83,5.96,3.84,5.96,0C106.31,77.34,100.36,77.33,100.36,81.17z"/>
	<path class="st4" d="M96.1,115.18c0,3.4,5.29,3.41,5.29,0C101.38,111.77,96.1,111.77,96.1,115.18z"/>
	<path class="st4" d="M70.36,105.37c0,3.02,4.69,3.02,4.69,0C75.05,102.36,70.36,102.35,70.36,105.37z"/>
	<path class="st4" d="M74.57,94.35c0,3.11,4.83,3.12,4.83,0C79.41,91.24,74.57,91.23,74.57,94.35z"/>
	<path class="st4" d="M83.6,70.15c0,3.33,5.17,3.33,5.17,0C88.77,66.82,83.6,66.82,83.6,70.15z"/>
	<path class="st4" d="M87.66,63.05c0.01-0.05,0.02-0.1,0.02-0.16c0-1.52-2.37-1.53-2.37,0c0,1.37,1.91,1.51,2.3,0.41
		c-0.02,0.13-0.04,0.26-0.04,0.41c0,2.96,4.59,2.96,4.59,0C92.15,61,88.29,60.78,87.66,63.05z"/>
	<path class="st4" d="M101.39,68.62c0,3.3,5.12,3.3,5.12,0C106.51,65.32,101.39,65.31,101.39,68.62z"/>
	<path class="st4" d="M97.81,63.41c0,3.96,6.15,3.96,6.15,0C103.96,59.45,97.81,59.44,97.81,63.41z"/>
	<path class="st4" d="M83.94,119.46c0,4.07,6.32,4.07,6.32,0C90.26,115.4,83.94,115.39,83.94,119.46z"/>
	<path class="st4" d="M70.51,118.55c0,4.4,6.84,4.41,6.84,0C77.35,114.14,70.51,114.13,70.51,118.55z"/>
	<path class="st4" d="M44.31,100.78c0,4.22,6.56,4.23,6.56,0C50.86,96.56,44.31,96.55,44.31,100.78z"/>
	<path class="st4" d="M54.97,86.99c0,3.51,5.46,3.52,5.46,0C60.42,83.48,54.97,83.48,54.97,86.99z"/>
	<path class="st4" d="M68.1,77.5c0,3.96,6.15,3.96,6.15,0C74.25,73.54,68.1,73.53,68.1,77.5z"/>
	<path class="st4" d="M63.58,68.31c0,3.46,5.38,3.47,5.38,0C68.96,64.84,63.58,64.84,63.58,68.31z"/>
	<path class="st4" d="M49.85,66.47c0,3,4.67,3.01,4.67,0C54.51,63.47,49.85,63.46,49.85,66.47z"/>
	<path class="st4" d="M46.59,58.81c0,4.03,6.27,4.04,6.27,0C52.86,54.78,46.59,54.77,46.59,58.81z"/>
	<path class="st4" d="M63.46,58.81c0,3.62,5.62,3.62,5.62,0C69.08,55.19,63.46,55.19,63.46,58.81z"/>
	<path class="st4" d="M78.07,60.96c0,3.74,5.82,3.75,5.82,0C83.88,57.22,78.07,57.21,78.07,60.96z"/>
	<path class="st4" d="M91.21,51.16c0,4.17,6.49,4.18,6.49,0C97.69,46.98,91.21,46.98,91.21,51.16z"/>
	<path class="st4" d="M87.95,40.43c0,3.63,5.65,3.64,5.65,0C93.6,36.8,87.95,36.79,87.95,40.43z"/>
	<path class="st4" d="M79.28,34.31c0,3.36,5.22,3.36,5.22,0C84.5,30.95,79.28,30.95,79.28,34.31z"/>
	<path class="st4" d="M67.9,34.31c0,3.42,5.31,3.42,5.31,0C73.22,30.89,67.9,30.88,67.9,34.31z"/>
	<path class="st4" d="M72.3,24.51c0,4.07,6.32,4.07,6.32,0C78.62,20.44,72.3,20.43,72.3,24.51z"/>
	<path class="st4" d="M78.08,13.78c0,2.94,4.57,2.95,4.57,0C82.65,10.84,78.08,10.84,78.08,13.78z"/>
	<path class="st4" d="M71.78,3.06c0,1.97,3.06,1.97,3.06,0C74.85,1.09,71.78,1.09,71.78,3.06z"/>
	<path class="st4" d="M54.41,8.88c0,2.65,4.12,2.65,4.12,0C58.53,6.23,54.41,6.23,54.41,8.88z"/>
	<path class="st4" d="M51.06,12.87c0,1.61,1.18,2.46,2.43,2.55c0.82,0.61,2.3,0.28,2.4-1c0.3-0.4,0.48-0.92,0.48-1.55
		C56.37,9.45,51.06,9.44,51.06,12.87z"/>
	<path class="st4" d="M42.28,9.19c0,3.28,5.1,3.29,5.1,0C47.38,5.91,42.28,5.9,42.28,9.19z"/>
	<path class="st4" d="M34.87,6.13c0,3.36,5.22,3.36,5.22,0C40.09,2.77,34.87,2.76,34.87,6.13z"/>
	<path class="st4" d="M27.87,13.78c0,3.7,5.74,3.7,5.74,0C33.61,10.09,27.87,10.08,27.87,13.78z"/>
	<path class="st4" d="M29.28,25.12c0,3.06,4.76,3.07,4.76,0C34.04,22.05,29.28,22.05,29.28,25.12z"/>
	<path class="st4" d="M41.55,28.49c0,3.82,5.93,3.83,5.93,0C47.49,24.67,41.55,24.66,41.55,28.49z"/>
	<path class="st4" d="M48.99,37.98c0,1,0.77,1.5,1.55,1.5c-0.13,0.27-0.2,0.58-0.2,0.95c0,2.66,3.95,2.76,4.28,0.32
		c0.53-0.07,1.01-0.45,1.01-1.14c0-1.1-1.22-1.41-1.92-0.93c-0.48-0.29-1.09-0.39-1.65-0.29c0.03-0.13,0.05-0.26,0.05-0.41
		C52.1,35.98,48.99,35.98,48.99,37.98z"/>
	<path class="st4" d="M55.99,43.5c0,2.59,4.02,2.59,4.02,0C60.01,40.91,55.99,40.91,55.99,43.5z"/>
	<path class="st4" d="M55.23,26.64c-0.55,0.6-0.89,1.33-0.89,2.16c0,0.78,0.34,1.6,0.89,2.16c0.53,0.53,1.4,0.93,2.16,0.89
		c0.79-0.04,1.61-0.29,2.16-0.89c0.55-0.6,0.89-1.33,0.89-2.16c0-0.78-0.34-1.6-0.89-2.16c-0.53-0.53-1.4-0.93-2.16-0.89
		C56.6,25.78,55.78,26.04,55.23,26.64z"/>
	<path class="st4" d="M27.18,36.76c0,3.79,5.89,3.79,5.89,0C33.07,32.97,27.18,32.96,27.18,36.76z"/>
	<path class="st4" d="M19.81,45.68c1.46,0.26,3.14-0.56,3.14-2.49c0-1.92-1.68-2.74-3.14-2.49V45.68z"/>
	<path class="st4" d="M19.81,57.59c1.13,0.73,3.05,0.22,3.05-1.54c0-1.75-1.92-2.26-3.05-1.54V57.59z"/>
	<path class="st4" d="M28.32,57.59c0,2.09,1.75,3.06,3.37,2.91c1,2.64,5.64,2.29,5.64-1.07c0-1.96-1.58-2.89-3.1-2.81
		C33.32,53.72,28.32,54.04,28.32,57.59z"/>
	<path class="st4" d="M32.85,75.66c0,3.99,6.2,3.99,6.2,0C39.04,71.67,32.85,71.67,32.85,75.66z"/>
	<path class="st4" d="M32.49,88.22c0,4.05,6.29,4.06,6.29,0C38.79,84.17,32.49,84.16,32.49,88.22z"/>
	<path class="st4" d="M47.3,116.9c-0.48,0.13-0.89,0.38-1.24,0.72c-0.35,0.35-0.59,0.77-0.72,1.24c-0.13,0.5-0.13,1,0,1.5
		c0.01,0.06,0.02,0.12,0.03,0.19c0.17,0.98,1.14,1.8,2.06,2.06c1.01,0.28,2.12-0.01,2.86-0.76c0.74-0.74,1.04-1.85,0.76-2.86
		c-0.25-0.92-1.07-1.89-2.06-2.06c-0.06-0.01-0.12-0.02-0.19-0.03C48.29,116.77,47.8,116.77,47.3,116.9z"/>
	<path class="st4" d="M55.04,122.06c-0.52-0.42-1.52-0.2-1.52,0.67c0,0.91,1.09,1.11,1.58,0.61c0.79,3.41,6.51,3.14,6.51-0.82
		C61.61,118.44,55.5,118.28,55.04,122.06z"/>
	<path class="st4" d="M27.51,126.51c0,4.16,6.46,4.16,6.46,0C33.97,122.35,27.51,122.34,27.51,126.51z"/>
	<path class="st4" d="M32.29,137.23c0,3.91,6.08,3.92,6.08,0C38.37,133.32,32.29,133.31,32.29,137.23z"/>
	<path class="st4" d="M26.03,142.74c0,2.91,4.52,2.92,4.52,0C30.55,139.83,26.03,139.83,26.03,142.74z"/>
	<path class="st4" d="M19.81,141.58c0.55-0.51,0.91-1.24,0.91-2.21c0-0.97-0.37-1.7-0.91-2.2V141.58z"/>
	<path class="st4" d="M24.53,119.77c0,3.65,5.67,3.66,5.67,0C30.2,116.12,24.53,116.11,24.53,119.77z"/>
	<path class="st4" d="M19.81,104.06c1.66,0.43,3.7-0.45,3.7-2.67c0-2.21-2.05-3.1-3.7-2.67V104.06z"/>
	<path class="st4" d="M26.41,98.02c0,3.2,4.98,3.21,4.98,0C31.39,94.82,26.41,94.81,26.41,98.02z"/>
	<path class="st4" d="M19.81,86.75c0.52-0.29,0.91-0.81,0.91-1.59c0-0.25-0.05-0.48-0.12-0.68c1.05-0.21,1.96-1,1.96-2.39
		c0-1.72-1.41-2.53-2.74-2.43V86.75z"/>
	<path class="st4" d="M38.3,104.88c-1.71,1-1.77,3.64,0,4.63c0.82,0.46,1.87,0.58,2.71,0.09c0.37-0.21,0.7-0.57,0.92-0.93
		c0.3-0.5,0.33-0.91,0.4-1.48c0-0.48-0.12-0.93-0.37-1.35c-0.24-0.4-0.56-0.72-0.96-0.96C40.18,104.4,39.12,104.4,38.3,104.88z"/>
	<path class="st4" d="M47.02,183.79c0,2.69,4.19,2.7,4.19,0C51.21,181.1,47.02,181.09,47.02,183.79z"/>
	<path class="st4" d="M86.19,94.04c0,3.93,6.1,3.93,6.1,0C92.3,90.11,86.19,90.11,86.19,94.04z"/>
	<path class="st4" d="M86.19,81.48c0,3.93,6.1,3.93,6.1,0C92.3,77.55,86.19,77.55,86.19,81.48z"/>
	<path class="st5" d="M58.85,163.37c0,4.56,7.08,4.57,7.08,0C65.93,158.81,58.85,158.8,58.85,163.37z"/>
	<path class="st5" d="M42.82,155.41c0,2.26,2.19,3.12,3.84,2.56c0.12,0.63,0.42,1.23,0.86,1.68c0.54,0.54,1.44,0.95,2.22,0.92
		c0.81-0.04,1.65-0.3,2.22-0.92c0.56-0.61,0.92-1.37,0.92-2.22c0-0.8-0.35-1.65-0.92-2.22c-0.54-0.54-1.44-0.95-2.22-0.92
		c-0.47,0.02-0.95,0.13-1.38,0.33C47.61,151.8,42.82,152.05,42.82,155.41z"/>
	<path class="st5" d="M31.51,159.08c0,4,6.22,4.01,6.22,0C37.73,155.08,31.51,155.07,31.51,159.08z"/>
	<path class="st5" d="M25.73,159.69c0,1.97,3.06,1.97,3.06,0C28.8,157.72,25.73,157.72,25.73,159.69z"/>
	<path class="st5" d="M24.62,169.9c0,0.1,0.01,0.2,0.01,0.29c-0.11-0.13-0.24-0.24-0.37-0.35c-0.22-0.19-0.63-0.08-0.61,0.25
		c0.01,0.18,0.02,0.37,0.05,0.55c0,0.01,0.02,0.12,0.04,0.18c-0.18,0.37-0.17,0.78,0.08,1.12c0.28,0.36,0.76,0.49,1.18,0.31
		c0.16-0.07,0.29-0.18,0.39-0.3c1.65,1.69,5.32,1.01,5.32-2.04C30.73,165.98,24.62,165.97,24.62,169.9z"/>
	<path class="st5" d="M27,186.04c0,4.02,6.25,4.03,6.25,0C33.25,182.02,27,182.01,27,186.04z"/>
	<path class="st5" d="M28.47,192.78c0,3.71,5.77,3.72,5.77,0C34.23,189.07,28.47,189.06,28.47,192.78z"/>
	<path class="st5" d="M27.96,198.9c0,3.57,5.55,3.58,5.55,0C33.51,195.33,27.96,195.32,27.96,198.9z"/>
	<path class="st5" d="M56.98,183.79c0,3.8,5.91,3.81,5.91,0C62.9,179.99,56.98,179.98,56.98,183.79z"/>
	<path class="st5" d="M68.94,191.76c0,3.4,5.29,3.41,5.29,0C74.22,188.35,68.94,188.35,68.94,191.76z"/>
	<path class="st5" d="M81.17,180.32c0,3.7,5.74,3.7,5.74,0C86.91,176.62,81.17,176.62,81.17,180.32z"/>
	<path class="st5" d="M80.59,168.68c0,4.17,6.49,4.18,6.49,0C87.08,164.51,80.59,164.5,80.59,168.68z"/>
	<path class="st5" d="M90.31,159.29c0,3.23,5.03,3.24,5.03,0C95.33,156.05,90.31,156.05,90.31,159.29z"/>
	<path class="st5" d="M64.91,145.6c0,3.06,3.53,3.84,5.34,2.35c1.06,3.13,6.5,2.76,6.5-1.13c0-3.24-3.79-4.04-5.66-2.4
		C70.01,141.54,64.91,141.92,64.91,145.6z"/>
	<path class="st5" d="M56.65,132.74c0,4.23,6.58,4.24,6.58,0C63.23,128.5,56.65,128.5,56.65,132.74z"/>
	<path class="st5" d="M44.96,137.43c0,3.24,4.64,3.49,5.35,0.74c0.73,0.58,2.12,0.27,2.12-0.95c0-1.28-1.54-1.56-2.23-0.85
		C49.24,133.97,44.96,134.32,44.96,137.43z"/>
	<path class="st5" d="M19.81,158.41c0.6-0.47,1-1.19,1-2.19c0-0.99-0.41-1.71-1-2.18V158.41z"/>
	<path class="st5" d="M19.81,146.43c0.72-0.5,1.22-1.32,1.22-2.47c0-1.14-0.5-1.96-1.22-2.46V146.43z"/>
	<path class="st5" d="M19.81,131.49v2.09c0.98,2.94,6.08,2.6,6.08-1.04C25.9,128.9,20.79,128.55,19.81,131.49z"/>
	<path class="st5" d="M19.81,73.68c0.26-0.22,0.43-0.54,0.43-0.98c0-0.44-0.17-0.76-0.43-0.98V73.68z"/>
	<path class="st5" d="M19.81,78.98c1.66,0.8,4.13,0.01,4.13-2.4c0-2.4-2.47-3.19-4.13-2.4V78.98z"/>
	<path class="st5" d="M19.81,91.82v3.01c1.33,2.43,5.88,1.93,5.88-1.51C25.69,89.9,21.15,89.39,19.81,91.82z"/>
	<path class="st5" d="M33.1,91.28c0,3.26,5.07,3.27,5.07,0C38.18,88.02,33.1,88.01,33.1,91.28z"/>
	<path class="st5" d="M35.74,114.15c0,1.97,3.06,1.97,3.06,0C38.8,112.18,35.74,112.18,35.74,114.15z"/>
	<path class="st5" d="M42.81,108.23c0,3.13,4.86,3.13,4.86,0C47.67,105.11,42.81,105.1,42.81,108.23z"/>
	<path class="st5" d="M48.4,101.08c0,1.97,3.06,1.97,3.06,0C51.47,99.11,48.4,99.11,48.4,101.08z"/>
	<path class="st5" d="M59.36,106.39c0,1.7,1.74,2.28,2.93,1.74c-0.45,0.46-0.75,1.1-0.75,1.94c0,3.73,5.79,3.73,5.79,0
		c0-2.52-2.65-3.34-4.37-2.44c0.26-0.31,0.42-0.72,0.42-1.24C63.38,103.81,59.36,103.8,59.36,106.39z"/>
	<path class="st5" d="M40.17,126.2c0,3.63,5.65,3.64,5.65,0C45.81,122.57,40.17,122.56,40.17,126.2z"/>
	<path class="st5" d="M83.88,112.73c0,3.62,5.62,3.62,5.62,0C89.5,109.11,83.88,109.1,83.88,112.73z"/>
	<path class="st5" d="M80.97,127.02c0,3.42,5.31,3.42,5.31,0C86.28,123.6,80.97,123.6,80.97,127.02z"/>
	<path class="st5" d="M83.87,132.94c0,3.63,5.65,3.64,5.65,0C89.52,129.31,83.87,129.3,83.87,132.94z"/>
	<path class="st5" d="M96.53,134.17c0,3.37,5.24,3.38,5.24,0C101.77,130.79,96.53,130.79,96.53,134.17z"/>
	<path class="st5" d="M104.92,141.52c0,3.08,4.79,3.08,4.79,0C109.71,138.44,104.92,138.43,104.92,141.52z"/>
	<path class="st5" d="M115.05,129.27c0,2.93,4.55,2.93,4.55,0C119.6,126.34,115.05,126.34,115.05,129.27z"/>
	<path class="st5" d="M128.76,127.22c0,3.42,5.31,3.42,5.31,0C134.07,123.81,128.76,123.8,128.76,127.22z"/>
	<path class="st5" d="M135.41,121.91c0,3.26,5.07,3.27,5.07,0C140.49,118.65,135.41,118.64,135.41,121.91z"/>
	<path class="st5" d="M142.12,122.32c0,3.83,5.96,3.84,5.96,0C148.08,118.49,142.12,118.48,142.12,122.32z"/>
	<path class="st5" d="M148.3,126.41c0,2.97,4.62,2.98,4.62,0C152.92,123.44,148.3,123.43,148.3,126.41z"/>
	<path class="st5" d="M143.21,105.99c0,3.74,5.82,3.75,5.82,0C149.03,102.24,143.21,102.24,143.21,105.99z"/>
	<path class="st5" d="M145.81,96.39c0,3.02,4.69,3.02,4.69,0C150.5,93.37,145.81,93.36,145.81,96.39z"/>
	<path class="st5" d="M138.67,83.52c0,3.02,4.69,3.02,4.69,0C143.36,80.5,138.67,80.5,138.67,83.52z"/>
	<path class="st5" d="M128.26,75.35c0,4.33,6.72,4.33,6.72,0C134.98,71.03,128.26,71.02,128.26,75.35z"/>
	<path class="st5" d="M116.29,75.35c0,4.48,6.96,4.49,6.96,0c0-0.01,0-0.01,0-0.02c0.66-0.08,1.27-0.55,1.27-1.41
		c0-1.38-1.55-1.76-2.41-1.13C120.14,71.17,116.29,72.02,116.29,75.35z"/>
	<path class="st5" d="M123.21,95.16c0,3.99,6.2,3.99,6.2,0C129.41,91.17,123.21,91.17,123.21,95.16z"/>
	<path class="st5" d="M120.61,105.99c0,3.65,5.67,3.66,5.67,0C126.29,102.34,120.61,102.33,120.61,105.99z"/>
	<path class="st5" d="M106.22,100.68c0,2.73,4.24,2.73,4.24,0C110.46,97.95,106.22,97.95,106.22,100.68z"/>
	<path class="st5" d="M88.76,101.49c0,3.91,6.08,3.92,6.08,0C94.84,97.58,88.76,97.58,88.76,101.49z"/>
	<path class="st5" d="M88.2,93.53c0,3.57,5.55,3.58,5.55,0C93.76,89.96,88.2,89.95,88.2,93.53z"/>
	<path class="st5" d="M98.64,82.3c0,1.97,3.06,1.97,3.06,0C101.7,80.33,98.64,80.32,98.64,82.3z"/>
	<path class="st5" d="M91.44,59.02c0,2.3,2.12,3.24,3.85,2.81c0.16,3.77,6.09,3.72,6.09-0.16c0-2.34-2.17-3.29-3.92-2.84
		C97.27,55.14,91.44,55.19,91.44,59.02z"/>
	<path class="st5" d="M85.57,70.25c0,2.23,3.47,2.24,3.47,0C89.04,68.02,85.57,68.01,85.57,70.25z"/>
	<path class="st5" d="M84.61,79.23c0,3.73,5.79,3.73,5.79,0C90.4,75.51,84.61,75.5,84.61,79.23z"/>
	<path class="st5" d="M70.45,88.83c0,3.82,5.93,3.83,5.93,0C76.39,85.01,70.45,85.01,70.45,88.83z"/>
	<path class="st5" d="M53.97,75.35c0,4.27,6.63,4.27,6.63,0C60.6,71.09,53.97,71.08,53.97,75.35z"/>
	<path class="st5" d="M43.9,76.38c0,3.82,5.93,3.83,5.93,0C49.84,72.56,43.9,72.55,43.9,76.38z"/>
	<path class="st5" d="M80.25,50.64c0,0.13,0.01,0.25,0.04,0.37c-1.38,0.25-2.59,1.29-2.59,3.1c0,4.22,6.56,4.23,6.56,0
		c0-1.02-0.38-1.78-0.96-2.31c0.27-0.28,0.45-0.66,0.45-1.16C83.74,48.4,80.25,48.4,80.25,50.64z"/>
	<path class="st5" d="M65.19,56.36c0,3.5,5.43,3.5,5.43,0C70.62,52.87,65.19,52.86,65.19,56.36z"/>
	<path class="st5" d="M64.82,40.43c0,3.45,5.36,3.45,5.36,0C70.18,36.98,64.82,36.98,64.82,40.43z"/>
	<path class="st5" d="M78.69,34.72c0,2.16,3.35,2.16,3.35,0C82.04,32.56,78.69,32.56,78.69,34.72z"/>
	<path class="st5" d="M73.85,23.89c0,4.17,6.49,4.18,6.49,0C80.34,19.72,73.85,19.71,73.85,23.89z"/>
	<path class="st5" d="M68.33,8.58c0,2.83,2.97,3.75,4.89,2.76c0.01,0.49,0.13,0.98,0.4,1.44c0.19,0.33,0.44,0.61,0.72,0.83
		c0,0.03-0.02,0.05-0.02,0.08c0,0.72,0.85,0.88,1.25,0.49c0.09,0.02,0.18,0.04,0.27,0.05c0.95,0.13,1.87-0.15,2.56-0.84
		c0.38-0.38,0.64-0.83,0.78-1.35c0.15-0.54,0.15-1.08,0-1.62c-0.22-1.46-1.08-2.98-2.66-3.19c-0.69-0.09-1.31,0.1-1.81,0.49
		C73.9,4.41,68.33,4.69,68.33,8.58z"/>
	<path class="st5" d="M55.82,6.74c0,4.25,6.6,4.26,6.6,0C62.43,2.49,55.82,2.48,55.82,6.74z"/>
	<path class="st5" d="M37.7,4.7c0,3.91,6.08,3.92,6.08,0C43.78,0.79,37.7,0.78,37.7,4.7z"/>
	<path class="st5" d="M24.96,6.33c0,3.5,5.43,3.5,5.43,0C30.39,2.84,24.96,2.83,24.96,6.33z"/>
	<path class="st5" d="M29.43,22.26c0,4.05,6.29,4.06,6.29,0C35.72,18.21,29.43,18.2,29.43,22.26z"/>
	<path class="st5" d="M36.71,31.65c0,3.88,6.03,3.89,6.03,0C42.74,27.77,36.71,27.77,36.71,31.65z"/>
	<path class="st5" d="M49.47,26.08c-0.96,0.35-1.72,1.18-1.72,2.51c0,3.6,5.6,3.61,5.6,0c0-1.33-0.76-2.16-1.72-2.51
		C51.25,25.2,49.84,25.2,49.47,26.08z"/>
	<path class="st5" d="M50.62,50.85c0,4.37,6.8,4.38,6.8,0C57.42,46.48,50.62,46.47,50.62,50.85z"/>
	<path class="st5" d="M39.73,50.85c0,3.4,5.29,3.41,5.29,0C45.02,47.45,39.73,47.44,39.73,50.85z"/>
	<path class="st5" d="M29.88,44.71c-1.61-2.56-6.54-1.95-6.54,1.85c0,4.33,6.42,4.52,6.99,0.57c0.97,0.49,2.45,0.03,2.45-1.39
		C32.78,44.07,30.73,43.73,29.88,44.71z"/>
	<path class="st5" d="M19.81,55.2c0.99-0.41,1.76-1.32,1.76-2.72c0-1.4-0.77-2.3-1.76-2.71V55.2z"/>
	<path class="st5" d="M29.27,66.37c0,3.73,5.79,3.73,5.79,0C35.06,62.64,29.27,62.64,29.27,66.37z"/>
	<path class="st5" d="M19.81,114.91c0.51,0.36,1.16,0.61,1.76,0.58c1.61-0.07,2.98-1.31,2.98-2.98c0-0.76-0.33-1.57-0.87-2.11
		c-0.52-0.52-1.36-0.91-2.11-0.87c-0.65,0.03-1.26,0.26-1.76,0.62V114.91z"/>
	<g>
		<path class="st5" d="M48.17,203.74c-0.02-0.01-0.03-0.01-0.05-0.02C48.09,203.71,48.09,203.71,48.17,203.74z"/>
		<path class="st5" d="M48.62,201.72c-0.06,0.02-0.12,0.04-0.19,0.05c-0.12,0.02-0.12,0.03-0.01,0.03
			c-0.12,0.01-0.23,0.03-0.35,0.05c-0.04,0.02-0.07,0.03-0.1,0.04c-0.65,0.07-0.94,0.87-0.49,1.36c0.03,0.03,0.04,0.05,0.05,0.06
			c0.03,0.03,0.06,0.08,0.11,0.15c0.14,0.14,0.29,0.2,0.46,0.27c0.06,0.02,0.26,0.09,0.32,0.1c0.16,0.03,0.31,0.04,0.47,0.03
			c0.65-0.05,1.16-0.54,1.06-1.23C49.89,202,49.25,201.53,48.62,201.72z"/>
	</g>
	<path class="st5" d="M35.88,202.55c-0.45,0.17-0.64,0.7-0.29,1.08c0.11,0.11,0.22,0.23,0.32,0.34c0.01,0.02,0.05,0.07,0.07,0.09
		c0.04,0.08,0.11,0.21,0.04,0.02c0.15,0.36,0.36,0.65,0.76,0.76c0.34,0.09,0.68,0.02,0.95-0.2c0.63-0.49,0.52-1.37-0.11-1.8
		C37.12,202.53,36.45,202.34,35.88,202.55z"/>
	<path class="st5" d="M34.9,199.11c0,1.21,1.88,1.21,1.88,0C36.78,197.9,34.9,197.89,34.9,199.11z"/>
	<path class="st5" d="M54.64,182.97c0,1.3,2.02,1.3,2.02,0C56.66,181.67,54.64,181.67,54.64,182.97z"/>
	<path class="st5" d="M55.56,177.46c0,0.91,1.41,0.91,1.41,0C56.97,176.55,55.56,176.55,55.56,177.46z"/>
	<path class="st5" d="M46.13,177.87c0,0.68,1.06,0.68,1.06,0C47.2,177.18,46.13,177.18,46.13,177.87z"/>
	<path class="st5" d="M40.33,177.46c0,0.79,1.23,0.8,1.23,0C41.57,176.67,40.33,176.66,40.33,177.46z"/>
	<path class="st5" d="M32.21,177.46c0,0.21,0.33,0.21,0.33,0C32.54,177.25,32.21,177.25,32.21,177.46z"/>
	<path class="st5" d="M29.1,176.31c-0.44,0.15-0.87,0.27-1.33,0.37c-0.36,0.08-0.36,0.65,0,0.73c0.46,0.1,0.89,0.22,1.33,0.37
		c0.48,0.16,0.97-0.27,0.97-0.74C30.08,176.58,29.58,176.15,29.1,176.31z"/>
	<path class="st5" d="M20.03,162.55c0,1.42,2.21,1.43,2.21,0C22.25,161.13,20.03,161.13,20.03,162.55z"/>
	<path class="st5" d="M22.83,159.69c0,0.45,0.7,0.45,0.7,0C23.53,159.24,22.83,159.24,22.83,159.69z"/>
	<path class="st5" d="M42.19,168.07c0,1.55,2.41,1.55,2.41,0C44.6,166.51,42.19,166.51,42.19,168.07z"/>
	<path class="st5" d="M71.33,183.18c0,1.38,2.14,1.38,2.14,0C73.47,181.8,71.33,181.8,71.33,183.18z"/>
	<path class="st5" d="M78.25,185.83c0,1.4,2.18,1.41,2.18,0C80.43,184.43,78.25,184.43,78.25,185.83z"/>
	<path class="st5" d="M84.41,185.22c0,0.04,0.06,0.04,0.06,0C84.48,185.18,84.41,185.18,84.41,185.22z"/>
	<path class="st5" d="M87.89,160.71c0,0.04,0.06,0.04,0.06,0C87.95,160.68,87.89,160.68,87.89,160.71z"/>
	<path class="st5" d="M64.02,159.29c0,2.11,3.27,2.11,3.27,0C67.29,157.18,64.02,157.18,64.02,159.29z"/>
	<path class="st5" d="M62.73,150.91c0,1.4,2.18,1.41,2.18,0C64.91,149.51,62.73,149.51,62.73,150.91z"/>
	<path class="st5" d="M82.84,148.26c0,1.54,2.4,1.55,2.4,0C85.24,146.71,82.84,146.71,82.84,148.26z"/>
	<path class="st5" d="M90.41,145.6c0,1,1.55,1,1.55,0C91.96,144.61,90.41,144.6,90.41,145.6z"/>
	<path class="st5" d="M102.52,146.01c0,1.71,2.66,1.71,2.66,0C105.17,144.3,102.52,144.3,102.52,146.01z"/>
	<path class="st5" d="M101.63,149.89c0,1.53,2.38,1.54,2.38,0C104.02,148.36,101.63,148.36,101.63,149.89z"/>
	<path class="st5" d="M97.89,144.58c0,0.04,0.06,0.04,0.06,0C97.95,144.54,97.89,144.54,97.89,144.58z"/>
	<path class="st5" d="M97.48,131.1c0,0.04,0.06,0.04,0.06,0C97.55,131.06,97.48,131.06,97.48,131.1z"/>
	<path class="st5" d="M103.41,125.39c0,0.04,0.06,0.04,0.06,0C103.47,125.35,103.41,125.35,103.41,125.39z"/>
	<path class="st5" d="M101.91,117.63c0,1.7,2.64,1.7,2.64,0C104.55,115.93,101.91,115.92,101.91,117.63z"/>
	<path class="st5" d="M99.57,109.87c0,1.3,2.02,1.3,2.02,0C101.59,108.56,99.57,108.56,99.57,109.87z"/>
	<path class="st5" d="M100.15,119.87c0,1.61,2.5,1.61,2.5,0C102.64,118.26,100.15,118.26,100.15,119.87z"/>
	<path class="st5" d="M95.54,127.63c0,1.23,1.91,1.23,1.91,0C97.45,126.4,95.54,126.4,95.54,127.63z"/>
	<path class="st5" d="M96.66,122.73c0,1.63,2.53,1.63,2.53,0C99.19,121.11,96.66,121.1,96.66,122.73z"/>
	<path class="st5" d="M109.88,121.51c0,1.69,2.63,1.69,2.63,0C112.51,119.82,109.88,119.81,109.88,121.51z"/>
	<path class="st5" d="M118.39,125.59c0,1.52,2.35,1.52,2.35,0C120.75,124.08,118.39,124.07,118.39,125.59z"/>
	<path class="st5" d="M123.29,132.13c0,1,1.55,1,1.55,0C124.84,131.13,123.29,131.13,123.29,132.13z"/>
	<path class="st5" d="M116.48,140.91c0,1.61,2.5,1.61,2.5,0C118.98,139.3,116.48,139.3,116.48,140.91z"/>
	<path class="st5" d="M122.58,137.64c0,1.64,2.56,1.65,2.56,0C125.14,135.99,122.58,135.99,122.58,137.64z"/>
	<path class="st5" d="M131.45,131.1c0,1.79,2.79,1.8,2.79,0C134.24,129.31,131.45,129.31,131.45,131.1z"/>
	<path class="st5" d="M141.71,128.65c0,0.8,0.51,1.28,1.11,1.43c0.2,1.17,2.12,1.1,2.12-0.2c0-0.28-0.09-0.51-0.24-0.67
		c0.06-0.16,0.1-0.34,0.1-0.55C144.8,126.67,141.71,126.66,141.71,128.65z"/>
	<path class="st5" d="M141.34,113.13c0,1.94,3.02,1.94,3.02,0C144.36,111.19,141.34,111.19,141.34,113.13z"/>
	<path class="st5" d="M135.63,104.76c0,1.41,2.2,1.42,2.2,0C137.82,103.35,135.63,103.34,135.63,104.76z"/>
	<path class="st5" d="M130.95,108.23c0,1.13,1.75,1.13,1.75,0C132.7,107.11,130.95,107.1,130.95,108.23z"/>
	<path class="st5" d="M137,90.87c0,2.01,3.13,2.02,3.13,0C140.13,88.86,137,88.86,137,90.87z"/>
	<path class="st5" d="M141.06,88.42c0,1.52,2.35,1.52,2.35,0C143.41,86.91,141.06,86.91,141.06,88.42z"/>
	<path class="st5" d="M135.78,77.6c0,2,3.12,2.01,3.12,0C138.89,75.6,135.78,75.59,135.78,77.6z"/>
	<path class="st5" d="M113.18,65.55c0,1.92,2.99,1.92,2.99,0C116.16,63.63,113.18,63.63,113.18,65.55z"/>
	<path class="st5" d="M109.02,63.31c0,1.76,2.73,1.76,2.73,0C111.74,61.55,109.02,61.55,109.02,63.31z"/>
	<path class="st5" d="M105.53,60.45c0,1.52,2.35,1.52,2.35,0C107.88,58.93,105.53,58.93,105.53,60.45z"/>
	<path class="st5" d="M103.66,78.83c0,0.77,1.19,0.77,1.19,0C104.85,78.06,103.66,78.06,103.66,78.83z"/>
	<path class="st5" d="M107.73,90.47c0,1.84,2.86,1.84,2.86,0C110.58,88.63,107.73,88.62,107.73,90.47z"/>
	<path class="st5" d="M100.33,92.3c0,1.64,2.54,1.64,2.54,0C102.87,90.67,100.33,90.67,100.33,92.3z"/>
	<path class="st5" d="M90.11,88.63c0,1.64,2.56,1.65,2.56,0C92.67,86.98,90.11,86.98,90.11,88.63z"/>
	<path class="st5" d="M85.01,100.27c0,1.64,2.54,1.64,2.54,0C87.55,98.63,85.01,98.63,85.01,100.27z"/>
	<path class="st5" d="M79.79,104.96c0,1.79,2.79,1.8,2.79,0C82.57,103.17,79.79,103.17,79.79,104.96z"/>
	<path class="st5" d="M69.14,92.92c0,2.09,3.25,2.09,3.25,0C72.39,90.83,69.14,90.82,69.14,92.92z"/>
	<path class="st5" d="M68.99,88.83c0,0.71,1.11,0.71,1.11,0C70.09,88.12,68.99,88.12,68.99,88.83z"/>
	<path class="st5" d="M80.9,71.88c0,1.15,1.78,1.15,1.78,0C82.68,70.74,80.9,70.74,80.9,71.88z"/>
	<path class="st5" d="M87.56,67.19c0,1.52,2.35,1.52,2.35,0C89.91,65.67,87.56,65.67,87.56,67.19z"/>
	<path class="st5" d="M85.84,60.65c0,0.04,0.06,0.04,0.06,0C85.91,60.61,85.84,60.61,85.84,60.65z"/>
	<path class="st5" d="M76.14,135.39c0,0.96,1.49,0.96,1.49,0C77.64,134.43,76.14,134.43,76.14,135.39z"/>
	<path class="st5" d="M66.02,121.89c-0.52-0.59-1.77-0.38-1.77,0.64c0,1.28,2,1.29,2,0c0-0.01,0-0.02,0-0.03
		c0.47,0.47,1.51,0.28,1.51-0.59C67.75,120.81,66.04,120.8,66.02,121.89z"/>
	<path class="st5" d="M60.61,117.63c0,1.51,2.34,1.51,2.34,0C62.95,116.12,60.61,116.12,60.61,117.63z"/>
	<path class="st5" d="M56.74,110.63c-0.89,0.25-1.37,1.55-0.58,2.21c0.16,0.14,0.32,0.25,0.48,0.34c0.25,0.19,0.52,0.31,0.86,0.22
		c0.33-0.09,0.5-0.33,0.62-0.62c0.1-0.16,0.18-0.33,0.25-0.52C58.73,111.29,57.65,110.38,56.74,110.63z"/>
	<path class="st5" d="M71.17,134.5c-0.41,0.18-0.48,0.76-0.29,1.11c0.29,0.52,0.77,0.83,1.24,1.16c0.72,0.51,1.77-0.02,1.98-0.81
		c0.23-0.85-0.43-1.69-1.3-1.71C72.22,134.25,71.7,134.26,71.17,134.5z"/>
	<path class="st5" d="M47.23,140.7c0,0.59,0.92,0.59,0.92,0C48.15,140.11,47.23,140.11,47.23,140.7z"/>
	<path class="st5" d="M45.76,149.07c0,1.43,2.23,1.43,2.23,0C47.98,147.64,45.76,147.64,45.76,149.07z"/>
	<path class="st5" d="M37.61,141.93c0,1.4,2.18,1.41,2.18,0C39.79,140.52,37.61,140.52,37.61,141.93z"/>
	<path class="st5" d="M33.17,133.55c0,1.34,2.08,1.34,2.08,0C35.25,132.21,33.17,132.21,33.17,133.55z"/>
	<path class="st5" d="M29.09,129.88c0,1.6,2.48,1.6,2.48,0C31.57,128.28,29.09,128.28,29.09,129.88z"/>
	<path class="st5" d="M19.81,138.78v1.39c0.55,0.52,1.71,0.29,1.71-0.69C21.52,138.5,20.36,138.27,19.81,138.78z"/>
	<path class="st5" d="M19.81,46.34v1.67c0.72,1.12,2.89,0.85,2.89-0.83C22.7,45.49,20.54,45.22,19.81,46.34z"/>
	<path class="st5" d="M30.29,59.02c0,1.63,2.53,1.63,2.53,0C32.82,57.39,30.29,57.39,30.29,59.02z"/>
	<path class="st5" d="M29.91,75.35c0,0.8,1.25,0.81,1.25,0C31.16,74.55,29.91,74.55,29.91,75.35z"/>
	<path class="st5" d="M26.4,81.48c0,1.9,2.96,1.91,2.96,0C29.36,79.58,26.4,79.57,26.4,81.48z"/>
	<path class="st5" d="M34.78,81.48c0,2.15,3.35,2.16,3.35,0C38.13,79.33,34.78,79.32,34.78,81.48z"/>
	<path class="st5" d="M44.3,82.3c0,2,3.1,2,3.1,0C47.4,80.3,44.3,80.3,44.3,82.3z"/>
	<path class="st5" d="M45.25,97c0,1.03,1.61,1.04,1.61,0C46.86,95.97,45.25,95.96,45.25,97z"/>
	<path class="st5" d="M30.86,107.62c0,1.94,3.02,1.94,3.02,0C33.88,105.68,30.86,105.68,30.86,107.62z"/>
	<path class="st5" d="M29.17,102.31c0,1.76,2.73,1.76,2.73,0C31.9,100.55,29.17,100.55,29.17,102.31z"/>
	<path class="st5" d="M57.05,71.68c0,0.04,0.06,0.04,0.06,0C57.11,71.64,57.05,71.64,57.05,71.68z"/>
	<path class="st5" d="M52.29,65.55c0,2.23,3.46,2.23,3.46,0C55.75,63.33,52.29,63.32,52.29,65.55z"/>
	<path class="st5" d="M60.5,97.2c0,0.85,1.32,0.85,1.32,0C61.83,96.35,60.5,96.35,60.5,97.2z"/>
	<path class="st5" d="M53.13,95.98c0,2.2,3.42,2.2,3.42,0C56.54,93.78,53.13,93.78,53.13,95.98z"/>
	<path class="st5" d="M68.34,65.14c0,1.28,2,1.29,2,0C70.33,63.86,68.34,63.86,68.34,65.14z"/>
	<path class="st5" d="M77.97,61.26c0,0.98,1.52,0.98,1.52,0C79.49,60.28,77.97,60.28,77.97,61.26z"/>
	<path class="st5" d="M88.59,58.61c0,0.45,0.7,0.45,0.7,0C89.29,58.16,88.59,58.16,88.59,58.61z"/>
	<path class="st5" d="M73.69,42.88c0,1.49,2.31,1.49,2.31,0C76,41.4,73.69,41.39,73.69,42.88z"/>
	<path class="st5" d="M79.31,38.6c0,2.14,3.33,2.15,3.33,0C82.64,36.45,79.31,36.45,79.31,38.6z"/>
	<path class="st5" d="M78.56,31.86c0,1.52,2.37,1.53,2.37,0C80.93,30.33,78.56,30.33,78.56,31.86z"/>
	<path class="st5" d="M66.53,28.79c0,2.03,3.16,2.04,3.16,0C69.69,26.76,66.53,26.76,66.53,28.79z"/>
	<path class="st5" d="M61.94,25.93c0,2.16,3.36,2.17,3.36,0C65.3,23.77,61.94,23.77,61.94,25.93z"/>
	<path class="st5" d="M62.02,19.2c0,0.95,0.77,1.39,1.51,1.34c-0.02,0.09-0.04,0.19-0.04,0.3c0,1.48,2.3,1.48,2.3,0
		c0-0.71-0.53-1.08-1.08-1.1c0.06-0.16,0.1-0.33,0.1-0.53C64.8,17.4,62.02,17.4,62.02,19.2z"/>
	<path class="st5" d="M55.58,15.93c0,1.67,2.6,1.68,2.6,0C58.18,14.26,55.58,14.25,55.58,15.93z"/>
	<path class="st5" d="M48.69,21.44c0,0.81,1.26,0.81,1.26,0C49.95,20.63,48.69,20.63,48.69,21.44z"/>
	<path class="st5" d="M38.29,19.6c0,1.84,2.86,1.84,2.86,0C41.15,17.77,38.29,17.76,38.29,19.6z"/>
	<path class="st5" d="M33.92,17.15c0,1.95,3.03,1.95,3.03,0C36.95,15.2,33.92,15.2,33.92,17.15z"/>
	<path class="st5" d="M43.02,35.74c0,2.07,3.22,2.07,3.22,0C46.23,33.67,43.02,33.66,43.02,35.74z"/>
	<path class="st5" d="M42.95,45.74c0,1.1,1.71,1.1,1.71,0C44.66,44.64,42.95,44.64,42.95,45.74z"/>
	<path class="st5" d="M33.64,43.91c0,2.04,3.17,2.05,3.17,0C36.82,41.86,33.64,41.86,33.64,43.91z"/>
	<path class="st5" d="M40.5,57.79c0,1.1,1.71,1.1,1.71,0C42.21,56.69,40.5,56.69,40.5,57.79z"/>
	<path class="st5" d="M45.21,61.88c0,1.62,2.51,1.62,2.51,0C47.72,60.26,45.21,60.26,45.21,61.88z"/>
	<path class="st5" d="M42.23,64.12c0,1.51,2.34,1.51,2.34,0C44.57,62.62,42.23,62.61,42.23,64.12z"/>
	<path class="st5" d="M58.58,23.89c0,1.49,2.31,1.49,2.31,0C60.89,22.41,58.58,22.4,58.58,23.89z"/>
	<path class="st5" d="M32.18,32.92c-0.53-1.4-3-1.21-3,0.57c0,1.87,2.72,1.99,3.07,0.35c0.5,1.04,2.4,0.85,2.4-0.56
		C34.66,31.79,32.53,31.67,32.18,32.92z"/>
	<path class="st5" d="M28.78,26.34c0,1.74,2.7,1.74,2.7,0C31.47,24.61,28.78,24.6,28.78,26.34z"/>
	<path class="st5" d="M27.42,31.04c0,1.38,2.14,1.38,2.14,0C29.56,29.66,27.42,29.66,27.42,31.04z"/>
	<path class="st5" d="M36.28,49.01c0,2.06,3.2,2.06,3.2,0C39.49,46.95,36.28,46.95,36.28,49.01z"/>
	<path class="st5" d="M28.52,54.12c0,1.8,2.8,1.8,2.8,0C31.32,52.31,28.52,52.31,28.52,54.12z"/>
	<path class="st5" d="M43.65,26.55c0,0.46,0.72,0.46,0.72,0C44.37,26.09,43.65,26.08,43.65,26.55z"/>
	<path class="st5" d="M56.63,19.6c0,1.37,2.13,1.37,2.13,0C58.76,18.24,56.63,18.23,56.63,19.6z"/>
	<path class="st5" d="M63.78,12.25c0,1.37,2.13,1.37,2.13,0C65.9,10.89,63.78,10.88,63.78,12.25z"/>
	<path class="st5" d="M76.86,17.97c0,0.04,0.06,0.04,0.06,0C76.92,17.93,76.86,17.93,76.86,17.97z"/>
	<path class="st5" d="M82.1,23.89c0,1.97,3.06,1.97,3.06,0C85.16,21.92,82.1,21.92,82.1,23.89z"/>
	<path class="st5" d="M82,30.02c0,1.57,2.44,1.57,2.44,0C84.44,28.45,82,28.45,82,30.02z"/>
	<path class="st5" d="M59.06,15.11c0,2.18,3.39,2.18,3.39,0C62.45,12.93,59.06,12.93,59.06,15.11z"/>
	<path class="st5" d="M45.66,14.91c0,1.56,2.43,1.56,2.43,0C48.08,13.35,45.66,13.34,45.66,14.91z"/>
	<path class="st5" d="M42.35,15.52c0,0.04,0.06,0.04,0.06,0C42.41,15.48,42.35,15.48,42.35,15.52z"/>
	<path class="st4" d="M57.18,33.49c0,0.3,0.1,0.54,0.26,0.71c-0.64,0.16-1.19,0.67-1.19,1.53c0,2.13,3.3,2.13,3.3,0
		c0-0.61-0.28-1.04-0.66-1.3c0.32-0.17,0.55-0.48,0.55-0.95C59.43,32.04,57.18,32.04,57.18,33.49z"/>
	<path class="st4" d="M51.74,32.67c0,1.88,2.91,1.88,2.91,0C54.66,30.8,51.74,30.8,51.74,32.67z"/>
	<path class="st4" d="M39.16,41.05c0,0.46,0.72,0.46,0.72,0C39.88,40.58,39.16,40.58,39.16,41.05z"/>
	<path class="st4" d="M36.97,45.34c0,0.12,0.19,0.12,0.19,0C37.16,45.21,36.97,45.21,36.97,45.34z"/>
	<path class="st4" d="M31.46,43.91c0,0.91,1.41,0.91,1.41,0C32.87,43,31.46,43,31.46,43.91z"/>
	<path class="st4" d="M28.49,28.59c0,1.84,2.86,1.84,2.86,0C31.35,26.75,28.49,26.75,28.49,28.59z"/>
	<path class="st4" d="M35.32,22.67c0,1.99,3.09,1.99,3.09,0C38.41,20.68,35.32,20.68,35.32,22.67z"/>
	<path class="st4" d="M36.9,12.25c0,2.05,3.19,2.05,3.19,0C40.09,10.2,36.9,10.2,36.9,12.25z"/>
	<path class="st4" d="M67.66,16.54c0,1.88,2.93,1.89,2.93,0C70.59,14.66,67.66,14.65,67.66,16.54z"/>
	<path class="st4" d="M73.6,27.36c0,1.61,2.5,1.61,2.5,0C76.1,25.76,73.6,25.75,73.6,27.36z"/>
	<path class="st4" d="M78.59,49.62c0,1.49,2.31,1.49,2.31,0C80.9,48.14,78.59,48.13,78.59,49.62z"/>
	<path class="st4" d="M94.05,69.64c0,1.57,2.44,1.57,2.44,0C96.49,68.07,94.05,68.06,94.05,69.64z"/>
	<path class="st4" d="M97.55,77.4c0,1.01,1.57,1.01,1.57,0C99.11,76.39,97.55,76.39,97.55,77.4z"/>
	<path class="st4" d="M85.5,80.46c0,2.06,3.2,2.06,3.2,0C88.7,78.4,85.5,78.4,85.5,80.46z"/>
	<path class="st4" d="M76.67,80.66c0,1.33,2.07,1.33,2.07,0C78.74,79.33,76.67,79.33,76.67,80.66z"/>
	<path class="st4" d="M74.2,83.11c0,2.14,3.33,2.15,3.33,0C77.53,80.97,74.2,80.97,74.2,83.11z"/>
	<path class="st4" d="M107.74,96.59c0,0.24,0.37,0.24,0.37,0C108.12,96.35,107.74,96.35,107.74,96.59z"/>
	<path class="st4" d="M110.66,113.75c0,1.75,2.71,1.75,2.71,0C113.37,112,110.66,112,110.66,113.75z"/>
	<path class="st4" d="M112.65,94.75c0,2.07,3.22,2.07,3.22,0C115.87,92.68,112.65,92.68,112.65,94.75z"/>
	<path class="st4" d="M114.94,92.51c0,1.76,2.73,1.76,2.73,0C117.67,90.75,114.94,90.75,114.94,92.51z"/>
	<path class="st4" d="M123.3,92.3c0,2.3,3.58,2.3,3.58,0C126.87,90,123.3,90,123.3,92.3z"/>
	<path class="st4" d="M130.01,95.57c0,1.81,2.81,1.81,2.81,0C132.82,93.76,130.01,93.76,130.01,95.57z"/>
	<path class="st4" d="M136.45,102.92c0,1.66,2.58,1.67,2.58,0C139.04,101.26,136.45,101.26,136.45,102.92z"/>
	<path class="st4" d="M132.79,129.88c0,2.17,3.37,2.17,3.37,0C136.16,127.71,132.79,127.7,132.79,129.88z"/>
	<path class="st4" d="M115.04,140.09c0,1.63,2.53,1.63,2.53,0C117.57,138.46,115.04,138.46,115.04,140.09z"/>
	<path class="st4" d="M105.6,142.74c0,1.42,2.21,1.43,2.21,0C107.81,141.32,105.6,141.32,105.6,142.74z"/>
	<path class="st4" d="M112.28,147.65c0,0.02,0.01,0.03,0.01,0.04c-0.46,0.05-0.89,0.38-0.89,0.98c0,1.32,2.05,1.32,2.05,0
		c0-0.27-0.09-0.48-0.22-0.64c0.09-0.09,0.16-0.21,0.16-0.38C113.38,146.93,112.28,146.93,112.28,147.65z"/>
	<path class="st4" d="M114.15,146.01c0,1.19,1.85,1.19,1.85,0C116,144.82,114.15,144.82,114.15,146.01z"/>
	<path class="st4" d="M121.93,137.43c0,1.69,2.63,1.69,2.63,0C124.56,135.74,121.93,135.74,121.93,137.43z"/>
	<path class="st4" d="M95.22,163.78c0,1.64,2.54,1.64,2.54,0C97.76,162.14,95.22,162.14,95.22,163.78z"/>
	<path class="st4" d="M92.82,168.47c0,1.58,2.46,1.58,2.46,0C95.27,166.89,92.82,166.89,92.82,168.47z"/>
	<path class="st4" d="M88.8,174.4c0,1.76,2.73,1.76,2.73,0C91.53,172.64,88.8,172.64,88.8,174.4z"/>
	<path class="st4" d="M86.54,181.54c0,0.45,0.7,0.45,0.7,0C87.25,181.09,86.54,181.09,86.54,181.54z"/>
	<path class="st4" d="M82.75,190.12c0,1.4,2.17,1.4,2.17,0C84.92,188.73,82.75,188.72,82.75,190.12z"/>
	<path class="st4" d="M82.58,195.23c0,0.04,0.06,0.04,0.06,0C82.64,195.19,82.58,195.19,82.58,195.23z"/>
	<path class="st4" d="M70.52,201.56c0,1.36,2.11,1.36,2.11,0C72.64,200.2,70.52,200.2,70.52,201.56z"/>
	<path class="st4" d="M63.21,201.76c0,2.1,3.26,2.1,3.26,0C66.47,199.66,63.21,199.66,63.21,201.76z"/>
	<path class="st4" d="M42.67,200.33c0,1.46,2.27,1.46,2.27,0C44.94,198.87,42.67,198.87,42.67,200.33z"/>
	<path class="st4" d="M37.62,200.74c0,1.91,2.97,1.92,2.97,0C40.6,198.83,37.62,198.82,37.62,200.74z"/>
	<path class="st4" d="M45.98,192.37c0,1.93,3,1.93,3,0C48.98,190.44,45.98,190.43,45.98,192.37z"/>
	<path class="st4" d="M57.94,187.26c0,2.04,3.17,2.05,3.17,0C61.12,185.22,57.94,185.22,57.94,187.26z"/>
	<path class="st4" d="M60.81,179.71c0,1.77,2.76,1.78,2.76,0C63.56,177.93,60.81,177.93,60.81,179.71z"/>
	<path class="st4" d="M52.97,170.31c0,0.04,0.06,0.04,0.06,0C53.03,170.27,52.97,170.27,52.97,170.31z"/>
	<path class="st4" d="M53.17,171.95c0,0.04,0.06,0.04,0.06,0C53.23,171.91,53.17,171.91,53.17,171.95z"/>
	<path class="st4" d="M53.78,171.13c0,0.04,0.06,0.04,0.06,0C53.84,171.09,53.78,171.09,53.78,171.13z"/>
	<path class="st4" d="M58.07,169.5c0,0.04,0.06,0.04,0.06,0C58.13,169.46,58.07,169.46,58.07,169.5z"/>
	<path class="st4" d="M70.14,171.95c0,1.33,2.07,1.33,2.07,0C72.21,170.62,70.14,170.61,70.14,171.95z"/>
	<path class="st4" d="M72.35,170.52c0,1.9,2.96,1.91,2.96,0C75.31,168.61,72.35,168.61,72.35,170.52z"/>
	<path class="st4" d="M67.49,162.35c0,2.12,3.29,2.12,3.29,0C70.77,160.23,67.49,160.23,67.49,162.35z"/>
	<path class="st4" d="M55.17,170.11c0,1.93,3,1.93,3,0C58.17,168.18,55.17,168.17,55.17,170.11z"/>
	<path class="st4" d="M50.29,173.17c0,1.91,2.97,1.92,2.97,0C53.26,171.26,50.29,171.26,50.29,173.17z"/>
	<path class="st4" d="M49.81,169.29c0,2,3.12,2.01,3.12,0C52.92,167.29,49.81,167.28,49.81,169.29z"/>
	<path class="st4" d="M58.12,158.26c0,2.08,3.23,2.08,3.23,0C61.35,156.19,58.12,156.18,58.12,158.26z"/>
	<path class="st4" d="M59.55,152.34c0,2.08,3.23,2.08,3.23,0C62.78,150.26,59.55,150.26,59.55,152.34z"/>
	<path class="st4" d="M54.17,152.75c0,1.91,2.97,1.92,2.97,0C57.14,150.84,54.17,150.83,54.17,152.75z"/>
	<path class="st4" d="M41.41,157.24c0,1.77,2.76,1.78,2.76,0C44.16,155.47,41.41,155.47,41.41,157.24z"/>
	<path class="st4" d="M32.56,156.02c0,1.86,2.89,1.86,2.89,0C35.45,154.16,32.56,154.16,32.56,156.02z"/>
	<path class="st4" d="M27.74,150.3c0,0.98,0.75,1.48,1.51,1.51c0.74,0.82,2.47,0.53,2.47-0.89c0-0.73-0.46-1.16-1-1.3
		C30.11,148.32,27.74,148.55,27.74,150.3z"/>
	<path class="st4" d="M33.95,169.29c0,0.6,0.93,0.6,0.93,0C34.88,168.69,33.95,168.69,33.95,169.29z"/>
	<path class="st4" d="M32.38,166.23c0,2.1,3.26,2.1,3.26,0C35.63,164.13,32.38,164.13,32.38,166.23z"/>
	<path class="st4" d="M19.81,160.2c0.83,0.05,1.69-0.46,1.69-1.53c0-1.07-0.86-1.57-1.69-1.53V160.2z"/>
	<path class="st4" d="M30.5,122.53c0,0.04,0.06,0.04,0.06,0C30.56,122.49,30.5,122.49,30.5,122.53z"/>
	<path class="st4" d="M33.58,114.15c0,1.87,2.9,1.87,2.9,0C36.48,112.29,33.58,112.29,33.58,114.15z"/>
	<path class="st4" d="M28.66,112.73c0,2.14,3.33,2.15,3.33,0C31.99,110.58,28.66,110.58,28.66,112.73z"/>
	<path class="st4" d="M55.5,117.01c0,1.77,2.76,1.78,2.76,0C58.26,115.24,55.5,115.24,55.5,117.01z"/>
	<path class="st4" d="M55.62,102.51c0,1.35,2.1,1.35,2.1,0C57.72,101.17,55.62,101.16,55.62,102.51z"/>
	<path class="st4" d="M45,93.53c0,2.14,3.33,2.15,3.33,0C48.33,91.39,45,91.38,45,93.53z"/>
	<path class="st4" d="M38.95,95.78c0,2.05,3.19,2.05,3.19,0C42.13,93.72,38.95,93.72,38.95,95.78z"/>
	<path class="st4" d="M46.14,87.4c0,2,3.1,2,3.1,0C49.24,85.41,46.14,85.4,46.14,87.4z"/>
	<path class="st4" d="M23.15,79.44c0,2.14,3.33,2.15,3.33,0C26.48,77.3,23.15,77.29,23.15,79.44z"/>
	<path class="st2" d="M3.78,0l11.28,0c0.1,1.7-0.02,3.47-0.44,5.04c-0.29,1.05-0.78,1.9-1.3,2.83c-0.54,0.96-0.74,0.94-1.05,2.23
		c-0.44,1.86-0.28,0.9,0.5,2c0.02,0.04,0.06,0.07,0.08,0.11c0.29,0.4,0.56,0.74,0.79,1.05c0,0,0.01,0,0.01,0.01v0.01
		c0.51,0.69,0.85,1.33,0.88,2.55c0.06,1.98-0.36,4.4-1,6.28c-0.69,2.01-2.08,3.34-1.81,5.16c-0.01,0.01-0.01,0.01,0,0.01
		c0.07,0.47,0.25,0.98,0.59,1.54c0.42,0.7,0.93,1.38,1.35,2.09c0,0.01,0,0.01,0,0.01c0.34,0.58,0.62,1.18,0.78,1.84
		c0.34,1.45-0.05,2.71-0.76,3.97c-0.36,0.63-1.09,1.35-1.42,2.08c-0.08,0.18-0.13,0.36-0.15,0.53c-0.12,1.11,0.69,1.7,1.1,2.61
		c0.69,1.54,0.47,3.26,0.2,4.93c-0.09,0.55-0.18,1.09-0.25,1.62c-0.05,0.39-0.1,0.77-0.15,1.16c-0.11,0.8-0.21,1.61-0.32,2.41
		c-0.18,1.41-0.34,2.81-0.44,4.23c-0.02,0.36-0.04,0.71-0.05,1.06v0.02c-0.04,1.05,0,2.06,0.1,3.08c0,0.01,0.01,0.03,0.01,0.04v0.03
		c0.17,1.68,0.52,3.33,1.07,5.02c0.61,1.86,1.23,3.7,1.02,5.68c-0.09,0.85-0.31,1.64-0.57,2.43v0.01c-0.33,1-0.73,1.98-1,3
		c-0.01,0.01-0.01,0.01-0.01,0.02c-0.23,0.88-0.38,1.76-0.31,2.73c0.18,2.37,1.25,4.58,1.45,6.96c0.18,2.14-0.34,4.1-0.99,6.13
		c-0.43,1.32-0.75,2.56-0.93,3.81c-0.13,0.91-0.18,1.84-0.15,2.81c-0.01,0.02,0,0.03,0,0.04c0.02,0.58,0.07,1.18,0.15,1.8
		c0.27,2,0.4,4.01,0.45,6.02c0.04,1.59,0.04,3.19,0.01,4.78c-0.02,1.75-0.07,3.5-0.09,5.25c0,0,0,0.01,0,0.01
		c-0.01,0.09-0.01,0.19-0.01,0.28c0,0.13-0.02,0.25-0.06,0.35c0,0,0,0.01,0,0.01c-0.04,0.11-0.09,0.21-0.15,0.3
		c0.62,4.31,3.01,7.43,1.13,11.88c-0.45,1.06-1,2.05-1.45,3.04l-0.01,0.01v0.01c-0.61,1.34-1.02,2.71-0.72,4.35
		c0.25,1.35,0.74,2.63,0.94,3.96c0,0,0,0.01,0,0.01v0.01c0.1,0.64,0.13,1.29,0.04,1.96c-0.1,0.72-0.41,1.35-0.55,2.06
		c-0.41,2.02,0.36,2.56,0.97,4.25c0.2,0.57,0.35,1.08,0.41,1.57v0.01c0.1,0.81,0.01,1.57-0.35,2.52c-0.29,0.77-0.8,1.46-1.14,2.21
		c-0.09,0.18-0.16,0.37-0.21,0.56c-0.05,0.17-0.09,0.33-0.11,0.48c-0.18,1.14,0.39,1.62,1.02,2.68c1.01,1.68,0.96,3.06,0.86,5.01
		c-0.04,0.67-0.01,1.35,0.04,2.04v0.03c0.01,0.2,0.03,0.4,0.06,0.6c0,0,0,0,0,0.01s0,0.01,0,0.01c0.37,3.42,1.42,6.93,0.58,10.25
		c-0.36,1.42-1.26,2.3-0.83,3.93c0.13,0.52,0.73,1.56,0.91,2.08c0.55,1.62,0.75,3.34,0.62,5.05c0,0,0,0.01,0,0.01v0.01
		c-0.02,0.35-0.06,0.7-0.12,1.05c-0.06,0.36-0.14,0.7-0.21,1.02c0,0.01,0,0.01,0,0.01c-0.2,0.81-0.34,1.53,0.16,2.45
		c0.16,0.29,0.41,0.49,0.64,0.73c0.01,0.01,0.01,0.01,0.01,0.01c0.13,0.15,0.26,0.3,0.34,0.5c0.59,1.39-0.13,2.49-0.58,3.76
		c-1.13,3.23,0.61,4.47,1.03,7.35c0.18,1.23,0.07,2.38-0.23,3.5H3.78l-1.23-7.19c0.69-1.74,0.42-3.08,0.07-4.91
		c-0.02-0.13-0.05-0.27-0.07-0.4c-0.29-1.57-0.44-3.09-0.2-4.71c0.06-0.43,0.13-0.84,0.2-1.23c0.28-1.61,0.53-2.97,0-4.55
		c-0.11-0.33-0.25-0.67-0.44-1.02c-1.46-2.78-1.69-4.59-0.51-7.53c0.53-1.3,0.86-2.31,0.95-3.3c0.04-0.37,0.04-0.74,0-1.11
		c-0.07-0.78-0.31-1.61-0.72-2.63c-0.56-1.4-1.11-2.71-1.14-4.25c-0.02-2.11,1.04-4.12,0.96-6.22c-0.07-1.9-1.35-3.48-1.51-5.37
		c-0.23-2.67,1.45-4.81,2.41-7.15c0.37-0.91,0.64-1.84,0.65-2.86c0.01-1.35-0.27-2.65-0.65-3.93c-0.77-2.65-1.94-5.22-1.77-8.06
		c0.3-4.92,2.94-8.69,0.88-13.69c-0.09-0.21-0.11-0.41-0.09-0.58c-0.64-1.21-0.6-2.54-0.14-3.9c0.32-0.95,0.84-1.75,1.12-2.7
		c0.04-0.12,0.07-0.24,0.1-0.37c0.21-0.96,0.13-1.77-0.1-2.57c-0.21-0.74-0.55-1.46-0.91-2.26c-1.89-4.21-1.27-7.39-0.44-11.77
		c0.57-3,0.09-5.3-0.66-8.18c-0.42-1.61-0.74-3.25-0.43-4.91c0.33-1.83,1.4-3.33,2.13-5.02c0.13-0.31,0.24-0.61,0.31-0.91
		c0.28-1.05,0.22-2.02,0-2.99c-0.21-0.96-0.59-1.91-0.96-2.93c-0.57-1.56-1.02-3.13-0.72-4.8c0.13-0.69,0.41-1.3,0.66-1.95
		c0.58-1.54,0.51-2.74,0.26-4.37c-0.28-1.78-0.07-3.23,0.39-4.98c0.74-2.84,0.21-5.11-0.38-7.92c-0.67-3.15-0.06-5.61,0.75-8.36
		c0.25-0.83,0.5-1.68,0.75-2.59c0.72-2.63-0.13-4.91-0.75-7.27c-0.39-1.49-0.69-3.02-0.44-4.69c0.1-0.69,0.26-1.37,0.44-2.05
		c0.43-1.67,0.99-3.3,1.18-5.01c0.29-2.54-0.28-5.01-0.86-7.47C2.76,7.8,2.66,7.35,2.56,6.9L3.78,0z"/>
	<path class="st1" d="M15.42,0l10.11,0c0.21,1.59-0.12,3.21-0.11,4.79V4.8c0,0.67-0.03,1.34-0.11,1.99
		c-0.03,0.26-0.06,0.51-0.09,0.75c-0.15,1.49-0.09,2.52,0.81,3.97c0.38,0.62,0.7,1.17,0.73,1.93c0.02,0.88-0.48,1.33-0.7,2.08
		c-0.59,1.92-0.24,2.74,0.39,4.42c0.74,1.99,0.01,3.77-0.79,5.61c-0.91,2.07-1.25,3.61-0.49,5.72c0.45,1.25,1.08,2.42,1.41,3.71
		c0.49,2,0.07,3.64-0.71,5.5c-0.48,1.15-0.94,2.14-0.93,3.19c0.01,0.57,0.16,1.16,0.53,1.8c0.52,0.9,1.08,1.68,1.29,2.73
		c0.12,0.62,0.13,1.21,0.05,1.76c-0.1,0.75-0.36,1.45-0.73,2.12c-0.13,0.23-0.27,0.45-0.42,0.67c0,0.13-0.02,0.28-0.08,0.44
		c-1.05,2.73-0.31,4.48,0.85,6.95c0.57,1.21,0.92,2.34,0.7,3.69c-0.17,1.09-0.73,2-1.18,2.99c-0.55,1.24-0.97,2.32-0.95,3.69
		c0.02,1.27,0.55,2.03,0.87,3.2c0.4,1.45,0.24,2.93-0.04,4.42c-0.18,0.96-0.39,1.91-0.53,2.86c-0.16,1.08-0.22,2.17,0.01,3.25
		c0.62,2.95-0.42,3.73-1.52,6.29c-0.04,0.09-0.08,0.18-0.12,0.27c0,0.01-0.01,0.01-0.01,0.01c0.01,0.15-0.02,0.31-0.09,0.48
		c-0.39,0.94,1.08,2.11,1.96,3.08c0.23,0.26,0.42,0.5,0.52,0.72c0.37,0.81,0.45,1.68,0.39,2.55c0,0,0,0,0,0.01
		c-0.01,0.04-0.01,0.09-0.01,0.13c0,0.01,0,0.02-0.01,0.04c-0.01,0.11-0.02,0.23-0.04,0.34c-0.18,1.4-0.85,2.53-1.28,3.85
		c-0.71,2.18-0.17,3.9,0.18,6.06c0.5,3.1-0.22,6.26,0.1,9.38c0.01,0.09,0.02,0.18,0.02,0.27c0.15,1.46,0.32,2.87,0.26,4.28
		c-0.05,1.17-0.26,2.33-0.77,3.49c-0.69,1.56-1.48,2.66-1.5,4.07c-0.01,0.56,0.12,1.18,0.42,1.89c0.4,0.94,1.07,1.78,1.4,2.76
		c0.02,0.07,0.04,0.13,0.06,0.2c0.85,2.8-0.79,4.53-1.45,7.18c-0.74,2.95,1.68,5.64,1.24,8.62c-0.18,1.23-1.41,2.73-1.13,3.96
		c0.26,1.13,0.97,1.44,0.98,2.65v0.09c0,0.06-0.01,0.1-0.02,0.16v0.02c0.46,2.43-1.12,3.36-1.73,5.36
		c-0.04,0.14-0.09,0.29-0.12,0.45c-0.28,1.32,0.75,2.46,1.12,3.67c0.32,1.07,0.3,2.17,0.2,3.27c0,0.02-0.01,0.05-0.01,0.07v0.01
		c-0.08,0.77-0.21,1.51-0.29,2.24c-0.1,0.93-0.13,1.85,0.12,2.82c0.28,1.09,0.81,2.04,0.85,3.18c0.03,0.83-0.17,1.5-0.5,2.25
		c-0.75,1.71-0.75,2.86,0.04,4.49c0.88,1.86,1.04,3.05,0.34,5.04c-0.39,1.12-1.24,2.3-1.21,3.52c0.03,1.3,1.14,2.36,1.55,3.56
		c0.74,2.13-0.67,3.7-0.59,5.76c0.09,2.15,0.51,4.08,0.65,6.12h-9.89c-0.21-0.56-1.31-1.13-1.27-1.76c0.09-1.27,0.81-2.39,0.57-3.75
		c-0.21-1.19-0.78-2-0.67-3.29c0.08-0.99,0.43-1.89,0.75-2.83c0.44-1.35,0.39-2.38,0.12-3.49c0,0,0,0-0.01-0.01
		c-0.11-0.48-0.26-0.97-0.43-1.51c-0.18-0.57-0.32-1.11-0.36-1.67c0,0,0,0,0-0.01c-0.02-0.37-0.01-0.75,0.09-1.15
		c0.07-0.32,0.16-0.62,0.25-0.91v-0.01c0-0.01,0-0.01,0-0.01c0.3-1.05,0.6-2.02,0.39-3.25c-0.27-1.61-1.05-3.23-1.57-4.77
		c-0.13-0.39-0.06-0.72,0.11-0.97c0.17-0.69,0.68-1.39,1.05-2.11c0.7-1.34-0.02-2.02-0.12-3.34c-0.04-0.54,0.12-0.98,0.18-1.51
		c0.2-1.73,0.15-1.81-0.55-3.13c-0.45-0.84-0.67-1.56-0.77-2.22c0-0.01,0-0.01,0-0.01s0-0.01,0-0.01c-0.02-0.2-0.04-0.4-0.06-0.6
		v-0.03c-0.04-1.15,0.22-2.27,0.31-3.84c0.1-1.91-1.27-2.84-1.78-4.48c-0.15-0.47-0.21-0.94-0.21-1.4c-0.01-0.35,0.02-0.7,0.09-1.04
		c0.06-0.38,0.15-0.76,0.27-1.14c0.18-0.59,0.45-1.16,0.69-1.73c0.28-0.69,0.45-1.28,0.53-1.85v-0.01c0.16-1.07-0.01-2.03-0.37-3.29
		c-0.26-0.87-0.76-1.5-0.66-2.47c0.15-1.51,0.8-1.87,0.33-3.55c-0.05-0.18-0.1-0.36-0.17-0.53v-0.01c0-0.01,0-0.01,0-0.01
		c-0.5-1.53-1.26-3.03-1.53-4.61c-0.31-1.83,0.4-2.71,1.31-3.71v-0.01l0.01-0.01c0.39-0.42,0.81-0.86,1.21-1.41
		c2.44-3.36,1.37-7.68,0.12-11.3c-0.7-0.81-0.89-1.64-0.86-2.51c0-0.01,0-0.01,0-0.01c0.01-0.21,0.03-0.42,0.06-0.63
		c0-0.01,0-0.01,0-0.01c0.09-0.63,0.27-1.29,0.43-1.98c0.3-1.23-0.01-2.25-0.35-3.27c-0.4-1.19-0.85-2.36-0.4-3.85
		c0.1-0.32,0.24-0.62,0.39-0.93c0.16-0.33,0.32-0.66,0.42-1.04c0.38-1.37-0.01-2.32-0.36-3.64c-0.29-1.07-0.57-2.06-0.67-3.14
		c0-0.01-0.01-0.02,0-0.04c-0.03-0.27-0.04-0.55-0.04-0.83c0-0.69,0.07-1.34,0.19-1.97c0.35-1.78,1.15-3.37,2.16-4.96
		c2.43-3.81-0.56-7.42-1.32-11.3c-0.25-1.26-0.26-2.33-0.07-3.37c-0.01-0.01,0-0.02,0.01-0.02c0.17-0.98,0.52-1.94,1-3v-0.01
		c0.01-0.01,0.01-0.02,0.02-0.04c1.66-3.71-0.32-7.93-1.23-11.7c-0.12-0.47-0.22-0.93-0.31-1.39V60.5c0-0.01-0.01-0.03-0.01-0.04
		c-0.16-0.86-0.24-1.71-0.16-2.62c0.01-0.15,0.03-0.3,0.06-0.45v-0.02c0.26-1.79,1.05-3.43,0.7-5.29c-0.01-0.09-0.03-0.18-0.06-0.27
		c-0.1-0.42,0-0.77,0.21-1.03c-0.02-0.37-0.05-0.75-0.05-1.11c-0.02-0.89,0.05-1.78,0.4-2.78c0.05-0.14,0.11-0.29,0.17-0.43
		c0.93-2.18,0.48-3.32-0.57-5.31c-0.39-0.74-0.72-1.49-0.75-2.32c-0.01-0.13-0.01-0.26,0.01-0.4c0.07-0.83,0.45-1.47,0.89-2.14
		c0.21-0.32,0.57-0.63,0.74-0.96c0.69-1.33,0.43-2.46,0-3.79c-0.06-0.2-0.14-0.4-0.24-0.6c0,0,0,0,0-0.01
		c-0.52-1.14-1.42-2.38-1.94-3.63c-0.01-0.01-0.01-0.01,0-0.01c-0.35-0.82-0.53-1.65-0.33-2.46c0.29-1.2,1.54-2.01,1.91-3.17
		c0.5-1.53-0.06-3.33-0.03-4.91c0.02-0.96,0.58-2.42,0.37-3.46v-0.01c0-0.01-0.01-0.01-0.01-0.01c-0.03-0.18-0.09-0.34-0.17-0.48
		c-0.13-0.23-0.37-0.4-0.62-0.57c-0.33-0.22-0.69-0.45-0.89-0.82c-0.8-1.53,0.17-2.36,0.94-3.56C14.21,5.79,15.5,2.76,15.42,0z"/>
	<path class="st3" d="M14.81,0l2.45,0c0.12,1.79-1.1,3.58-1.38,5.39c-0.2,1.26-0.4,2.68-1.12,3.77c-0.71,1.08-1.48,2.27,0.14,2.96
		c0.65,0.28,0.75,0.85,0.55,1.35c-0.06,2.78,0.19,5.81-0.28,8.53c-0.31,1.76-2.52,3.06-2.31,4.8c0.25,1.97,2.49,3.41,3.09,5.32
		c0.47,1.49,0.2,2.84-0.55,4.17c-0.4,0.72-1.08,1.32-1.43,2.06c-0.81,1.74,0.25,2.49,1.09,3.79c0.68,1.05,0.74,2.03,0.28,3.21
		c-0.48,1.23-1.38,1.82-1.57,3.29c-0.13,1.1,0.25,2.32,0.37,3.4c0,0.02,0.01,0.03,0.01,0.05c0.23,2.31-0.62,3.93-1.04,6.14
		c-0.8,4.2,2.79,7.72,3.23,11.81c0.18,1.69-0.21,3.12-0.85,4.65c-0.67,1.62-1.46,2.89-1.45,4.72c0.01,1.68,0.69,3.07,1.27,4.59
		c0.69,1.78,1.35,3.56,0.89,5.5c-0.64,2.66-2.43,4.64-2.58,7.54c-0.13,2.52,1.1,4.55,1.3,6.95c0.15,1.75-2.62,6.05-1.22,7.04
		c0.44,0.31,0.58,0.76,0.53,1.18c0.71,0.92,0.6,1.61,0.28,2.74c-0.58,2.04-0.72-0.85-0.64,2.18c0.04,1.4,0.09,1.17,0.53,2.19
		c0.43,1,1.04,1.87,1.36,2.93c0.57,1.92,0.61,3.99,0.13,5.94c-0.55,2.26-2.11,3.79-3.01,5.86c-1.3,3.01,0.91,4.56,1.15,7.34
		c0.19,2.14-1.4,3.55-0.34,5.69c0.6,1.2,1.29,1.88,1.2,3.32c-0.07,1.23-0.67,2.36-1.18,3.45c-0.45,0.98-1.08,1.92-1.04,3.01
		c0,0.09,0.01,0.17,0.02,0.26c0.18,1.21,1.07,1.59,1.74,2.56c0.64,0.92,0.81,1.83,0.58,2.93c-0.19,0.9-0.91,1.72-1.06,2.6
		c-0.18,1.08,0.5,1.78,0.77,2.73c0.57,2.06-0.13,3.91,0.84,5.95c0.56,1.19,1.32,2.16,0.77,3.52c-0.21,0.51-0.62,0.78-0.96,1.19
		c-0.17,0.21-0.69,0.29-0.8,0.53c-0.47,0.98,0.09,2.7,0.51,3.54c0.77,1.55,1.7,2.63,1.45,4.5c-0.21,1.6-1.64,3.09-1.2,4.66
		c0.36,1.27,1.39,1.89,1.32,3.35c-0.06,1.24-0.79,2.13-1.17,3.25c-0.72,2.14,0.91,2.49,1.04,4.4c0.06,0.74-0.23,1.34-0.4,2.05
		c-0.33,1.4,0.88,2.69,1.12,4.03h-2.45c-0.1-0.6-1.45-1.21-1.44-1.83c0.01-1.15,0.53-2.25,0.55-3.35c0.03-1.5-1.39-2.33-1.36-3.9
		c0.02-1.57,1.3-2.67,1.53-4.12c0.25-1.61-1.5-2.65-1.43-4.33c0.09-2.24,1.95-3.82,1.14-6.11c-0.56-1.56-1.89-2.65-2.16-4.36
		c-0.23-1.45,0.22-2.33,1.09-3.42c0.78-0.99,1.15-1.13,0.74-2.36c-0.24-0.73-0.78-1.28-0.97-2.05c-0.22-0.88-0.08-1.69-0.08-2.57
		c0-1.34-0.56-2.41-0.83-3.65c-0.28-1.26-0.02-2.13,0.47-3.33c1.09-2.65-0.79-2.89-1.64-5.02c-0.21-0.53-0.29-1.09-0.27-1.65
		c0.01-0.37,0.07-0.74,0.15-1.11c0.37-1.58,1.49-2.89,1.9-4.44c0.58-2.16-1.04-2.74-1.51-4.56c-0.55-2.11,1.15-3.89,0.71-6.04
		c-0.33-1.63-1.44-2.89-1.49-4.62c-0.06-1.85,0.95-3.42,1.89-4.93c1.52-2.43,2.46-4.89,1.73-7.78c-0.53-2.1-2.22-3.77-2.54-5.93
		c-0.05-0.37,1.01-4.12,1.4-3.66c-0.25-0.3-0.34-0.64-0.3-0.95c-0.88-0.74-1.32-1.65-1.32-2.9c-0.01-0.69,0.2-1.31,0.42-1.95
		c0.7-1.97,1.29-3.33,0.84-5.56c-0.48-2.37-1.08-4.28-0.72-6.76c0.37-2.55,2.51-5.04,2.6-7.48c0.1-2.68-1.98-5.1-2.26-7.76
		c-0.24-2.29,0.47-4.13,1.34-6.18c1.21-2.86,0.99-4.73-0.2-7.53c-0.8-1.9-1.81-3.76-2.16-5.82c-0.38-2.29,0.43-3.82,0.94-5.99
		c0.22-0.96,0.17-1.89,0.06-2.82c-0.17-1.45-0.49-2.87-0.2-4.34c0.16-0.83,0.58-1.35,0.85-2.11c0.59-0.64,0.79-1.43,0.58-2.36
		c-0.37-0.36-0.74-0.73-1.08-1.11c-0.85-1.12-1.13-2.27-0.69-3.62c0.47-1.45,1.87-2.4,2.37-3.8c1-2.87-2.36-4.78-2.97-7.3
		c-0.46-1.95,0.25-2.7,1.18-4.25c1.63-2.71,1.29-6.14,1.32-9.3c-1.56-0.86-2.78-2.34-1.85-4.23c0.88-1.77,1.98-2.62,2.32-4.77
		C13.72,3.25,14.92,1.63,14.81,0z"/>
</g>
</svg>
