<?xml version="1.0" encoding="utf-8"?>
<!-- Generator: Adobe Illustrator 25.2.3, SVG Export Plug-In . SVG Version: 6.00 Build 0)  -->
<svg version="1.1" id="Layer_1" xmlns="http://www.w3.org/2000/svg" xmlns:xlink="http://www.w3.org/1999/xlink" x="0px" y="0px"
	 viewBox="0 0 156.83 156.83" style="enable-background:new 0 0 156.83 156.83;" xml:space="preserve">
<style type="text/css">
	.st0{fill:#D6AD29;}
	.st1{fill:#A5B508;}
	.st2{fill:#B79D1D;}
	.st3{fill:#557507;}
	.st4{fill:#C6A028;}
	.st5{fill:#E2BD23;}
</style>
<g>
	<path class="st0" d="M156.83,15.7v73.2c-19.1-0.16-36.97,9.5-49.04,24.03c0,0,0,0-0.01,0.01c-1.76,2.11-3.39,4.33-4.88,6.64
		c0,0.01,0,0.01-0.01,0.01c-0.39,0.59-0.76,1.19-1.12,1.79c-1.28,2.11-2.45,4.29-3.48,6.52v0.01c-1.09,2.33-2.04,4.72-2.84,7.15
		c-1.3,3.95-2.22,8.02-2.7,12.17c0.01,0.01,0,0.01,0,0.01c-0.06,0.5-0.12,0.98-0.15,1.48c0,0,0,0,0,0.01
		c-0.21,2.26-0.29,4.54-0.23,6.83c0.01,0.23,0.01,0.46,0.02,0.69c0.01,0.01,0.01,0.01,0,0.02c0.01,0.18,0.01,0.37,0.02,0.56H14.2
		c0.92-16.45,3.95-32.79,9.41-48.35c4.16-11.89,9.69-23.37,16.45-34.02c1.14-1.82,2.33-3.61,3.57-5.38
		c0.14-0.22,0.29-0.43,0.45-0.66c0.14-0.2,0.28-0.39,0.42-0.59c1.11-1.56,2.27-3.07,3.48-4.54c0.36-0.45,0.73-0.88,1.09-1.32
		c0.66-0.77,1.33-1.53,2-2.28c1.89-2.09,3.88-4.08,5.93-6c0.92-0.87,1.86-1.71,2.81-2.55c2.08-1.82,4.22-3.59,6.41-5.3
		c0.91-0.71,1.83-1.41,2.75-2.1c1.54-1.16,3.1-2.29,4.67-3.4c1.38-0.98,2.76-1.94,4.16-2.89c0.15-0.1,0.3-0.2,0.45-0.31
		c1.74-1.18,3.5-2.33,5.29-3.45c2.35-1.46,4.74-2.87,7.18-4.22c2.14-1.18,4.32-2.31,6.52-3.39c0.88-0.43,1.77-0.85,2.65-1.26
		c2.27-1.05,4.57-2.03,6.89-2.95c1.27-0.5,2.54-0.98,3.83-1.44c2.89-1.02,5.8-1.94,8.75-2.72c1.13-0.3,2.27-0.58,3.4-0.84
		c1.88-0.43,3.77-0.81,5.67-1.13c2.15-0.37,4.32-0.66,6.49-0.86c1.72-0.17,3.44-0.28,5.17-0.34
		C145.65,14.35,151.25,14.7,156.83,15.7z"/>
	<path class="st1" d="M156.83,85.75v18.98c-2.15,0.31-4.56-0.4-6.28-1.46c-0.12-0.06-0.22-0.12-0.32-0.2
		c-0.42-0.15-0.83-0.38-1.22-0.72c-0.9-0.78-1.32-1.15-2.24-1.38c-0.09,0.23-0.18,0.45-0.28,0.67c-0.62,1.26-1.55,2.22-2.83,2.8
		c-1.39,0.64-2.98,0.76-4.48,0.43c-0.84-0.19-2.01-1.21-2.47-0.39c-0.5,0.87-1.43,1.26-2.35,1.24c-1.15,1.21-2.56,2.31-3.82,3.29
		c-0.95,0.73-1.96,1.38-3.13,1.69c-0.61,0.09-1.2,0.18-1.8,0.25c-0.21-0.01-0.38-0.02-0.51-0.02c0.04,0.09-1.46,1.56-1.85,1.77
		c-1.16,0.63-2.26,0.57-3.48,0.86c-2.51,0.6-4.2,3.42-5.01,5.85v0.01c-0.04,0.57-0.24,1.16-0.67,1.75
		c-0.02,0.04,0.15,2.03,0.07,2.46c-0.18,0.88-0.51,1.64-1.06,2.36c-0.96,1.23-2.65,1.65-3.53,2.83c-1.07,1.44-1.39,3.75-2.08,5.54
		c0.34,1.03,0.32,2.17-0.25,3.13c-0.95,1.6-2.08,3.01-3.53,4.18c-0.94,0.76-2.77,1.35-2.75,2.78c0.02,1.3,1.75,2.47,2.36,3.62
		c0.83,1.54,1.04,3.25,1.02,4.97v0.04c0.34,0.41,0.57,0.94,0.63,1.6c0.03,0.36,0.06,0.72,0.09,1.07c0.03,0.41,0.13,0.78,0.01,1.1
		h-15.1c-0.77-1.78-0.65-4.22-0.73-5.98c-0.01-0.38,0.03-0.72,0.12-1.04c-0.42-2.14-0.28-3.87,0.68-5.58
		c-0.65-4.42,0.64-8.65,1.96-12.85c1.17-3.69,2.51-7.65,5.09-10.61c0.89-1.76,1.9-3.45,3.01-5.12c1.78-2.68,3.61-5.78,6.92-6.61
		c0.04-0.01,0.08-0.01,0.12-0.02c2.21-2.72,4.52-5.37,7.21-7.63c3.4-2.87,7.34-4.59,11.41-6.28c0.77-0.32,1.47-0.34,2.07-0.16
		c1.77-1.11,3.55-2.2,5.28-3.36c2.64-1.78,5.26-3.25,8.11-4.21c0.01-0.01,0.02-0.01,0.02-0.01c1.57-0.54,3.22-0.92,4.97-1.13
		c1.11-0.13,2.15,0.43,2.89,1.26c1.36-0.56,2.71-1.14,4.1-1.58C154.57,85.48,155.81,85.45,156.83,85.75z"/>
	<path class="st2" d="M156.83,83.31v9.46c-2.48,0.43-5,0.94-7.45,1.02c-1.49,0.05-2.51-0.51-3.91-0.7
		c-1.93-0.27-1.54,0.67-2.81,1.47c-2.06,1.29-4.66-0.06-6.88,0.77c-1.47,0.55-2.19,2.12-3.36,3.1c-0.92,0.77-1.96,1.33-3.01,1.89
		c-0.57,0.3-1.12,0.22-1.54-0.05c-1.44,1.68-3.44,3.09-5.39,3.91c-1.19,0.5-2.63,0.43-3.75,0.95c-1.29,0.59-1.98,2.16-2.92,3.23
		c-0.88,1-1.5,1.6-2.06,2.82c-0.35,0.77-0.94,1.34-1.63,1.82c-2.9,2-6.18,1.42-7.4,5.45c-0.84,2.78-2.72,4.06-4.08,6.52
		c-1.52,2.76-0.78,6.21-2.35,9c-0.87,1.54-2.35,2.68-2.94,4.39c-0.56,1.62-0.49,3.6-0.64,5.3c-0.12,1.44-0.18,2.91-0.45,4.33
		c-0.39,2.07-1.82,4.18-1.49,6.36c0.09,0.53-0.12,0.96-0.44,1.25c-0.03,0.03-0.07,0.06-0.1,0.09c0.05,0.2,0.09,0.4,0.13,0.61
		c0.01,0.01,0.01,0.01,0,0.02c0.04,0.18,0.07,0.37,0.1,0.56h-9.03c-0.04-0.09-0.06-0.19-0.06-0.29c0-0.04,0.01-0.09,0.01-0.12
		c-0.42-1.15-0.56-2.39-0.12-3.59c0.6-1.61,1.47-2.6,1.63-4.45c0.08-0.89-0.04-1.76,0.17-2.63c0.17-0.69,0.51-1.21,0.81-1.83
		c0.93-1.98,0.65-2.96,0.81-4.94c0.14-1.73,0.8-2.41,1.53-3.81c0.93-1.78,0.37-3.94,1.5-5.67c0.41-0.62,1.14-0.88,1.53-1.41
		c0.78-1.08,0.58-2.25,0.95-3.44c0.42-1.37,1.17-2.01,2.08-2.94c0.5-0.5,0.3-0.12,0.65-0.73c0.4-0.7,0.52-1.89,0.89-2.69
		c0.11-0.24,0.27-0.4,0.45-0.51c0.05-2.06,2.51-2.78,3.19-4.82c0.31-0.94,0.16-1.64,1-2.36c0.88-0.77,2.33-0.6,3.15-1.35
		c1.75-1.6,1.03-4.19,3.52-5.36c1.29-0.61,1.58,0.09,3.17-0.94c0.53-0.34,0.9-0.92,1.41-1.3c0.93-0.7,1.64-0.73,2.66-1.1
		c1.34-0.49,1.82-1.76,2.95-2.53c1.41-0.95,2.47-1.35,3.64-2.63c0.73-0.79,1.42-1.5,2.45-1.87c1.63-0.58,2.4-0.92,3.6-2.3
		c0.84-0.94,1.67-1.66,2.92-2c0.41-0.11,1.26-0.01,1.59-0.2c0.77-0.45,0.43-0.73,0.97-1.29c1.93-2.01,5.26-1.2,7.76-0.89
		c0.43,0.05,0.75,0.25,0.97,0.52c0.01-0.01,0.02-0.01,0.02-0.01c0.4-0.18,0.76-0.39,1.09-0.66c0.41-0.34,0.65-0.81,1.12-1.1
		c1.32-0.83,3.06-0.4,4.52-0.81C151.16,83.9,153.76,83.2,156.83,83.31z"/>
	<path class="st1" d="M156.83,0.09v17.57c-0.5-0.01-1-0.05-1.54-0.13c-0.97-0.15-1.69-0.66-2.51-1.15
		c-0.06-0.04-0.11-0.08-0.17-0.12c-0.78,0.4-1.74,0.51-2.85,0.14c-5.48-1.84-10.98,0.45-16.39,1.49c-1.39,0.26-2.66-0.19-3.59-0.99
		c-4.61,1.26-9.11,2.76-13.92,3.19c-0.27,0.02-0.54,0.04-0.82,0.06c-0.25,0.12-0.5,0.24-0.75,0.37c-0.01,0.01-0.03,0.02-0.04,0.02
		c-2.27,1.24-4.59,2.38-6.98,3.41c-0.58,0.25-1.15,0.35-1.69,0.33c-0.27,0.44-0.67,0.83-1.24,1.09c-5.97,2.84-11.4,6.73-16.81,10.49
		c-0.68,0.47-1.4,0.58-2.07,0.43c-1.8,1.16-3.65,2.24-5.53,3.24c-1.4,1.34-2.7,2.77-3.86,3.86c-2.94,2.76-5.92,5.46-9.19,7.83
		c-0.1,0.65-0.44,1.3-1.12,1.87c-2.96,2.55-5.8,5.23-8.48,8.06c-0.59,0.77-1.19,1.52-1.8,2.27c-0.62,0.77-1.25,1.51-1.9,2.25
		c-0.83,0.94-1.67,1.87-2.55,2.77c-3.2,4.18-6.07,8.63-9.87,12.3c-0.49,0.47-1.06,0.77-1.64,0.92c-1.2,2.93-2.53,5.79-4.08,8.56
		c-0.1,0.19-0.22,0.36-0.34,0.51c-2.62,5.08-5.1,10.23-7.5,15.43c-0.23,0.5-0.54,0.88-0.9,1.16c-1.42,6.19-4.38,12.05-5.91,18.22
		c-0.84,3.39-1.8,6.85-2.63,10.33c-0.03,0.21-0.08,0.42-0.15,0.62c-0.22,0.94-0.43,1.88-0.62,2.83c-0.56,5.1-1,10.21-0.86,15.31
		c0.02,0.91-0.23,1.63-0.65,2.19H0.38c-0.01-0.04-0.01-0.09-0.01-0.13c-0.01-0.24-0.01-0.47-0.01-0.71
		c-0.01-0.02-0.01-0.04-0.02-0.06c-0.1-0.3-0.18-0.61-0.2-0.9c-0.17-1.9-0.3-4.07,0.2-5.98c0.08-0.31,0.18-0.61,0.29-0.91
		c0.66-1.67,2.37-2.33,3.09-3.78c0.84-1.67-0.2-5.05-0.45-6.74c-0.31-2.15-0.74-4.32-0.9-6.48c-0.16-2.04,0.1-4.18,1.34-5.87
		c0.3-0.4,1.96-1.92,3.3-2.54c-0.48-0.69-0.89-1.43-1.15-2.23c-0.65-2.03-0.6-4.22,0.21-6.18c0.26-0.66,0.64-1.25,1.1-1.73
		c-0.02-2.4,0.53-4.76,1.4-7.06c0.53-1.4,1.2-2.5,2.35-3.45c0.99-0.83,3.11-1.52,3.64-2.79c0.46-1.11,0-2.76,0.3-3.97
		c0.31-1.26,0.92-2.45,1.86-3.36c0.86-0.83,2.16-1.11,2.98-1.89c0.95-0.89,0.76-2.34,0.83-3.64c0.33-5.86-1.79-13.66,2.67-18.39
		c2.37-2.52,5.18-2.61,8.35-3.2c2.85-0.53,3.86-2.96,5.02-5.37c0.39-0.81,0.93-1.35,1.53-1.66c0.54-4.86,4.14-10.71,7.88-13.39
		c2.17-1.55,5-1.38,6.88-3.44c1.69-1.85,2.04-4.49,3.38-6.55c3.4-5.26,9.27-3.88,14.05-6.62c2.44-1.4,3.88-3.98,5.92-5.85
		c2.24-2.06,4.72-3.21,7.73-3.48c1.89-3.1,4.34-5.63,8.19-6.03c0.89-0.1,2.37,0.2,3.17-0.14c0.83-0.36,1.37-1.4,2-2
		c1.58-1.51,3.52-2.47,5.66-2.9c1.99-0.39,4.68,0.11,6.33-0.68c2.17-1.04,3.84-3.03,6.14-4c2.64-1.13,4.71-0.67,7.41-0.1
		c2.37,0.5,4.46,0.39,6.77-0.36c0.76-0.24,1.45-0.26,2.06-0.12c3.44-3.01,10.52-1.62,14.59-1.69c2.16-0.04,4.38-0.28,6.57-0.4
		c1.14-0.07,2.28-0.1,3.4-0.04c0.17,0.01,0.33,0.02,0.49,0.04C156.77,0.08,156.8,0.08,156.83,0.09z"/>
	<path class="st2" d="M156.83,11.75v9.73c-1,0.12-2.03,0.09-2.96,0.03c-1.38-0.09-2.73-0.37-3.98-0.98c-0.7-0.34-1.5-1.18-2.28-1.57
		c-0.79,0.26-1.66,0.28-2.5-0.04c-0.09,0.11-0.25,0.23-0.48,0.37c-0.2,0.17-0.39,0.33-0.59,0.5c-0.79,0.64-1.53,1.11-2.46,1.53
		c-1.67,0.75-3.46,1.05-5.28,0.88c-1.16-0.1-3.36-1.14-4.26-0.72c-1.41,0.65-2.26,2.11-3.84,2.65c-1.75,0.6-3.18,0.05-4.92,0.21
		c-1.38,0.12-2.37,1.3-3.71,1.86c-1.72,0.71-3.3,0.54-5.1,0.61c-1.82,0.07-2.41,1.32-4.09,1.93c-0.89,0.32-1.77,0.39-2.71,0.31
		c-0.21-0.02-1.54-0.34-1.32-0.4c-0.45,0.12-1.58,1.41-1.97,1.68c-0.72,0.5-1.49,0.92-2.33,1.19c-1.28,0.41-3.21,0.11-4.35,0.77
		c-1.2,0.68-1.75,2.49-3,3.31c-1.19,0.78-2.53,1.04-3.92,1.2c-0.47,0.06-1.69-0.04-2.12,0.25c-0.28,0.18-0.9,1.51-1.17,1.79
		c-1.82,1.88-4.41,1.78-6.57,2.98c-0.01,0.01-0.02,0.01-0.03,0.02c-0.39,0.68-1.01,1.26-1.89,1.62c-2.33,0.93-2.85,4.04-4.58,5.62
		c-1.14,1.03-2.1,0.85-3.39,1.34c-0.98,0.37-0.94,0.78-1.54,1.75c-0.6,0.97-1.3,1.81-2.29,2.39c-0.52,0.3-1.02,0.47-1.6,0.6
		c-0.24,0.04-0.5,0.07-0.75,0.1c-0.07,0.29-0.16,0.61-0.18,0.67c-0.2,0.5-0.51,0.96-0.86,1.37c-0.76,0.89-1.74,1.45-2.87,1.73
		c-0.44,0.11-1.04,0.06-1.55,0.12c-0.03,0.09-0.07,0.23-0.1,0.43c-0.16,0.92-0.98,2.09-1.64,2.72c-0.64,0.6-1.43,0.82-2.16,1.13
		c-0.31,0.13-0.6,0.28-0.87,0.48c-0.58,0.43-0.78,1.09-1.03,1.77c-0.1,0.27-0.2,0.53-0.34,0.79c-0.54,1.02-1.04,1.65-1.38,2.72
		c-0.34,1.06-0.51,1.97-1.24,2.86c-0.73,0.91-1.64,1.16-2.54,1.78c-0.4,0.28-0.5,0.35-0.76,0.59c-0.31,0.29-0.59,0.62-0.88,0.94
		c0.18,0.99-0.09,2.05-1.08,2.92c-0.51,0.45-1.05,0.97-1.71,1.22c-0.22,1.04-1.05,2.9-1.17,3.07c-0.42,0.62-1.8,2.31-2.7,2.28
		c0.08,0.52,0.06,1.04-0.06,1.56c-0.28,1.32-1.2,2.51-2.45,3.04c-0.09,0.04-1.31,0.34-1.29,0.31c-0.05,0.08,0.15,1.53,0.12,1.77
		c-0.25,2.07-1.36,3.19-2.89,3.76c-0.03,0.26-0.07,0.52-0.1,0.78c-0.13,0.94-0.34,1.55-0.89,2.29c0,0-0.81,0.96-1.09,1.05
		c0.07,0.55,0.34,1.3,0.37,1.65c0.11,1.57-0.23,3.01-1.22,4.24c-0.42,0.51-1.09,0.85-1.48,1.36c-0.24,0.31-0.43,0.8-0.62,1.26
		c0.18,0.59,0.18,1.28-0.07,2.04c-0.4,1.23-0.97,1.97-1.77,2.96c-0.25,0.24-0.51,0.48-0.76,0.72l0.44-0.06
		c0.02,0.53,0.32,1.12,0.42,1.66c0.4,2.27,0.03,4.7-1.8,6.26c-0.21,0.19-0.84,0.53-1.39,0.78c0.01,0.14,0.01,0.29,0.04,0.47
		c0.11,0.84,0.17,1.57,0.04,2.41c-0.18,1.23-0.66,2.17-1.45,3.13c-0.15,0.19-0.62,0.54-0.86,0.83c0.23,0.01,0.55,1.02,0.57,1.08
		c0.75,2.69-0.43,5.88-1.27,8.4c-0.45,1.33-1.02,2.74-1.05,4.16c-0.03,1.46,0.71,2.2,1.29,3.45c0.6,1.29,0.79,2.62,0.45,4.01
		c-0.04,0.16-0.23,0.93-0.37,1.24c0.18,0.18,0.46,0.66,0.53,0.75c0.94,1.41,1.36,3.05,0.89,4.59h-9.77
		c-0.06-0.3-0.09-0.58-0.12-0.86c-0.17-1.33-0.24-2.65-0.26-3.96c-0.17-1.27-0.04-2.65,0.06-3.58c0.03-0.22,0.1-0.42,0.19-0.58
		c0.04-0.27,0.09-0.53,0.16-0.81c0.1-0.41,0.32-0.67,0.59-0.81c-0.02-0.21-0.05-0.42-0.06-0.63c-0.09-0.32-0.17-0.64-0.22-1
		c-0.31-2.17,0.09-4.29,0.69-6.36c-0.01-0.2-0.03-0.39-0.06-0.59c-0.43-3.04-0.49-5.52,1.22-8.1c-0.02-0.09-0.04-0.21-0.04-0.38
		c-0.02-0.8,0.45-0.99,0.6-1.73c0.15-0.77-0.27-1.03,0.04-1.63c0.07-0.13,0.19-0.3,0.43-0.62c0.17-0.23,0.33-0.45,0.51-0.66
		c0.28-0.17,0.45-0.37,0.48-0.58c0.03-0.16-0.01-0.32-0.1-0.5c0-0.01,0-0.01,0-0.01c-0.04-0.07-0.1-0.15-0.16-0.23
		c0.05-1.76-0.17-3.36,0.59-4.77c0.15-0.28,0.86-0.59,1.14-1.37c0.18-0.48,0.17-0.94,0.13-1.26c0.2-0.47,0.49-1.24,0.71-2.23
		c0.44-2,0.15-2.63,0.75-3.7c0.1-0.17,0.29-0.37,0.51-0.58c0-0.02,0-0.03,0.01-0.05c0.32-0.99,0.64-1.97,0.99-2.93
		c0.19-0.78,0.51-1.54,0.92-2.25c0.72-1.58,1.61-3.08,2.79-4.46c0.01,0,0.01,0,0.01-0.01c-0.09-0.91-0.09-1.73,0.24-2.61
		c0.21-0.56,0.72-1,1.11-1.44c0.17-0.58,0.37-1.16,0.6-1.72c0.01-0.59-0.02-1.22,0.19-1.78c0.39-1.02,0.97-1.66,1.69-2.09
		c0.24-0.45,0.5-0.91,0.75-1.35c0.03-0.18,0.06-0.32,0.07-0.39c0.18-0.77,0.48-1.5,0.91-2.17c0.32-0.49,0.66-0.86,1.02-1.15
		c0.64-1.16,1.28-2.32,1.93-3.48c0.04-0.11,0.09-0.22,0.15-0.33c0.04-0.07,0.1-0.15,0.15-0.22c0.59-1.1,1.18-2.19,1.74-3.31
		c0.27-0.53,0.72-0.72,1.16-0.67c0.32-1.37,1.18-2.39,2.19-3.5c1.83-2.03,3.34-4.18,4.8-6.5c1.6-2.54,3.29-4.93,5.4-6.94
		c0.33-0.48,0.73-0.92,1.22-1.31c0.18-0.13,0.56-0.34,0.97-0.53c0.37-0.27,0.75-0.53,1.16-0.78c0.26-0.16,0.51-0.21,0.74-0.21
		c0.31-0.61,0.48-1.37,0.79-2.02c0.09-0.13,0.17-0.28,0.24-0.43c0.02-0.04,0.06-0.09,0.09-0.13c0.61-0.8,1.42-1.41,2.34-1.79
		c0.03-1.16,0.61-1.82,1.7-2.45c1.22-0.7,2.37-1.22,3.42-1.94c0.06-0.04,0.1-0.07,0.15-0.11c0.01,0,0.01-0.01,0.01-0.01
		c0.61-0.43,1.19-0.94,1.73-1.6c0.97-1.2,1.79-2.33,3.08-3.26c1.27-0.91,2.7-1.33,4.05-2.09c0.13-0.07,0.28-0.12,0.43-0.17
		c1.01-1.41,2.15-2.53,3.48-3.42c1.58-1.57,4.06-2.35,6.08-3.34c2.13-1.05,3.39-3.34,5.35-4.72c1.71-1.21,3.85-1.63,5.89-2
		c0.1-0.02,0.2-0.02,0.3-0.02c0.02-0.03,0.05-0.07,0.08-0.1c0.69-0.77,1.45-1.34,2.38-1.79c0.76-0.38,1.61-0.51,2.46-0.62
		c0.31-0.3,0.63-0.59,0.98-0.88c1.01-0.81,1.99-0.64,3.17-0.67c0.56,0.01,1.82-0.04,3.1-0.85c0.76-0.48,1.25-1.04,1.54-1.45
		c0.03-0.15,0.06-0.31,0.08-0.39c0.29-1.5,1.93-2.56,3.37-2.57c1.52-0.01,3.79-0.25,5.7,0.07c0.16-0.19,0.33-0.36,0.51-0.5
		c0.18-0.14,0.36-0.24,0.55-0.34c0.09-0.12,0.25-0.26,0.48-0.34c0.27-0.09,0.49-0.02,0.61,0c0.77,0.1,1.19-1.52,2.66-2.31
		c0.39-0.21,0.77-0.42,1.26-0.37c1,0.1,1.25,1.15,2.19,1.46c0.48,0.16,1.24,0.17,2.45-0.61c0.07-0.12,0.19-0.29,0.37-0.46
		c0.33-0.32,0.6-0.3,1.06-0.66c0.69-0.51,1.25-0.87,2.05-1.21c2.04-0.85,4.22-0.67,4.22-0.67c1.45,0.12,1.26,0.47,2.68,0.55
		c0.57,0.03,1.76,0.08,3.07-0.43c0.61-0.23,0.87-0.12,2.22-1.3c2.62-2.3,5.32-1.67,8.41-0.65
		C152.11,11.33,154.49,11.17,156.83,11.75z"/>
	<path class="st3" d="M156.83,10.98v2.45c-1.86-0.04-3.53,0.23-5.31-0.43c-2.18-0.8-6-3.05-8.45-2.05c-1.49,0.61-1.8,2.57-3,3.6
		c-0.19,0.16-0.4,0.3-0.64,0.4c-1.34,0.6-3,0.22-4.38-0.03c-0.05-0.01-0.1-0.02-0.15-0.03c-1.11-0.21-2.25-0.55-3.4-0.52
		c-1.42,0.02-2.26,0.59-3.08,1.38c-0.33,0.32-0.66,0.67-1.02,1.04c-0.73,0.75-1.36,1.29-2.49,1.15c-0.94-0.11-1.58-0.63-2.15-1.06
		c-0.84-0.63-1.55-1.05-2.89,0.34c-0.18,0.2-0.35,0.36-0.51,0.5c-0.57,0.54-1.03,0.84-1.69,1.25c-0.08,0.25-0.26,0.47-0.59,0.62
		c-0.4,0.18-0.81,0.35-1.22,0.5c-0.53,0.19-1.07,0.34-1.61,0.45c-0.72,0.14-1.45,0.21-2.21,0.18c-0.46-0.02-0.95-0.15-1.43-0.28
		c-0.51-0.13-1.02-0.26-1.48-0.25c-2.23,0.06-2,0.65-2.35,1.69c-0.05,0.18-0.13,0.37-0.24,0.58c-1.37,2.6-4.21,1.97-6.65,2.36
		c-0.84,0.13-1.63,0.39-2.29,0.94c-0.12,0.1-0.24,0.21-0.36,0.32c-1.06,0.95-1.83,1.97-3.2,2.6c-1.07,0.49-2.19,0.64-3.31,0.78
		c-0.97,0.12-1.93,0.21-2.87,0.5c-2.09,0.64-3.18,2.19-4.3,3.72c-0.91,1.23-1.83,2.45-3.31,3.18c-0.79,0.39-1.61,0.48-2.42,0.58
		c-1,0.1-1.97,0.2-2.88,0.85c-0.81,0.58-1.06,1.3-1.28,2.05c-0.22,0.71-0.42,1.43-1.05,2.09c-1.02,1.07-2.29,0.94-3.57,1.3
		c-0.02,0.01-0.04,0.01-0.05,0.02c-1.52,0.43-2.23,1.19-2.75,2.1c-0.53,0.92-0.85,2.03-1.6,3.16c-0.76,1.15-1.79,2.08-3.2,2.24
		c-0.51,0.06-1-0.11-1.51-0.1h-0.1c-2.22,0.06-2.16,0.83-2.81,2.55c-0.04,0.1-0.07,0.2-0.12,0.31c-0.54,1.37-1.05,2.84-2.11,3.9
		c-0.86,0.86-2.42,1.21-3.7,1.79c-1.04,0.47-1.88,1.1-2,2.28c-0.01,0.05-0.01,0.1-0.01,0.15c-0.03,0.7-0.54,1.09-1.08,1.16
		c-0.45,0.61-0.52,1.62-0.95,2.24c-0.52,0.74-1.31,1.13-1.97,1.72c-0.2,0.18-0.39,0.38-0.56,0.58c-0.33,0.39-0.61,0.81-0.86,1.24
		c-0.9,1.55-1.48,3.33-2.74,4.65c-0.26,0.27-0.54,0.51-0.83,0.73c-0.55,0.42-1.15,0.78-1.75,1.18c-1.68,1.11-2.15,2.32-2.59,4.24
		c-0.45,1.97-1.09,3.3-2.56,4.68c-1.64,1.56-2.22,2.61-2.86,4.65c-0.3,0.95-0.67,1.73-1.25,2.52c-1.14,1.54-2.4,2.47-2.82,4.45
		c-0.26,1.25-0.07,2.57-0.37,3.82c-0.23,0.94-0.62,1.73-1.22,2.47c-1.13,1.41-2.07,2.25-2.2,4.26c-0.07,1.11,0.12,1.86-0.46,2.91
		c-0.81,1.49-1.96,2.36-2.28,4.19c-0.07,0.41-0.29,0.66-0.57,0.79c-1.02,1.93,0.14,4.01-1.07,5.78c-0.27,0.4-0.78,0.57-1.04,0.94
		c-0.6,0.84-0.73,1.48-0.65,2.09c0,0,0,0.01,0,0.01c0.02,0.17,0.06,0.34,0.1,0.5c0.13,0.51,0.37,1.04,0.52,1.68
		c0.31,1.3,0.43,2.66-0.2,3.89c-0.29,0.58-0.81,0.91-1.12,1.43c-0.95,1.59-0.92,2.8-0.48,4.53c0.46,1.81-0.02,3.05-0.38,4.78
		c-0.48,2.31,0.62,4.75-0.41,6.96c-0.21,0.45-0.61,0.79-0.83,1.22c-0.49,0.97-0.32,1.76-0.11,2.96c0.32,1.85,0.21,3.54,0.17,5.42
		h-2.39c0.06-1.08,0.27-2.24,0.15-3.28c-0.13-1.15-0.68-2.04-0.87-3.13c-0.26-1.46,0.18-2.24,0.89-3.34
		c1.25-1.95,0.79-2.88,0.75-5.06c-0.02-0.99,0.07-1.47,0.28-2.41c0.43-1.95,0.44-2.9-0.06-4.83c-0.18-0.69-0.41-1.37-0.38-2.08
		c0.07-1.74,1.06-2.18,1.91-3.49c1.8-2.77-0.44-4.31-0.26-7.02c0.13-2.09,2-2.25,2.4-4.19c0.13-0.64-0.15-1.49-0.04-2.19
		c0.17-1.05,0.58-1.88,1.16-2.75c0.07-0.1,0.14-0.18,0.21-0.25c0.31-1.3,0.89-2.09,1.51-3.29c0.87-1.69,0.57-3.34,0.99-5.04
		c0.24-0.98,0.9-1.69,1.58-2.38c1.41-1.45,2.02-2.63,2.18-4.71c0.2-2.61,0.83-4.09,2.49-6.08c1.39-1.67,1.66-2.98,2.36-4.93
		c0.33-0.92,0.75-1.7,1.42-2.39c1.32-1.37,2.67-1.95,3.23-3.96c0.29-1.03,0.4-2.11,0.82-3.11c1.17-2.82,4.12-3.28,5.73-5.67
		c1.41-2.08,2.02-4.22,3.86-6.01c0.87-0.85,1.44-1.66,2.03-2.7c0.38-0.67,0.59-1.08,1.12-1.47c0.21-1.13,0.7-2.11,1.69-2.88
		c1.87-1.46,3.99-1.07,5.32-3.09c0.09-0.13,0.17-0.28,0.24-0.43c0.02-0.04,0.05-0.09,0.07-0.14c0.77-1.6,1.08-3.86,2.39-5.17
		c1.03-1.03,1.94-0.72,3.26-0.8c3.97-0.23,3.12-2.79,4.9-5.18c0.97-1.3,2.11-1.71,3.66-2.03c1.59-0.32,2.25-0.12,3.03-1.83
		c0.31-0.67,0.23-1.49,0.59-2.16c0.69-1.32,1.75-1.9,3.16-2.18c2.69-0.51,4.32-0.1,6.15-2.58c0.95-1.29,1.72-2.68,3.03-3.65
		c1.5-1.12,3.28-1.43,5.09-1.69c2.85-0.4,4.43-1.26,6.55-3.23c1.06-0.99,2.13-1.65,3.6-1.85c1.16-0.15,2.76,0.39,3.84-0.09
		c1.58-0.69,1.07-1.67,1.72-2.84c0.62-1.11,1.55-1.68,2.83-1.74c2.73-0.13,4.65,1.13,7.35,0.21c0.09-0.13,0.21-0.24,0.37-0.34
		c1.03-0.65,1.5-0.68,2.32-1.78c0.35-0.46,0.56-0.96,1.07-1.33c1.21-0.86,2.67-0.76,3.96-0.21c1.04,0.44,1.49,1.49,2.74,0.99
		c0.62-0.24,1.35-1.58,1.99-2.02c1.41-0.97,3.04-1.19,4.72-1.08c2.72,0.2,4.85,1.78,6.98-0.66c1.28-1.46,1.64-2.55,3.86-2.87
		c1.86-0.26,4.03,0.32,5.79,0.86c1.04,0.31,1.94,0.83,2.95,1.2C153.78,11.17,155.03,10.93,156.83,10.98z"/>
	<path class="st3" d="M156.83,91.17v2.4c-1.12-0.09-2.33-0.21-3.29,0.01c-1.07,0.23-1.8,1.22-2.81,1.49
		c-0.95,0.25-2.17-0.16-3.06-0.43c-1.78-0.55-2.61-1.09-3.94,0.34c-1.3,1.39-1.58,1.5-3.64,1.4c-1.31-0.07-2.96-0.32-4.23,0.07
		c-1.5,0.47-1.8,1.64-2.56,2.79c-0.53,0.8-1.08,1.07-2,1.21c-1.76,0.26-2.69-0.23-4,1.35c-1.35,1.63-1.88,2.87-4.1,3.52
		c-1.03,0.31-2.02,0.25-3.07,0.4c-0.77,0.12-1.77,0.01-2.27,0.85c-0.16,0.26,0.07,0.75-0.05,1.05c-0.32,0.75-0.42,1.18-1.13,1.65
		c-0.24,0.16-0.81,0.23-1.27,0.37c-0.1,0.29-0.34,0.53-0.73,0.63c0,0.01-0.01,0.02-0.01,0.04c0.42,0.17-0.06,2.53-0.26,2.82
		c-0.42,0.64-1.17,1.03-1.88,1.25c-2.04,0.61-4.14,0.65-5.79,2.19c-1.55,1.45-0.99,3.08-1.59,4.81c-0.37,1.07-0.92,1.43-1.75,2.07
		c-1.1,0.85-2.5,1.27-2.73,3.07c-0.1,0.81,0.13,1.67,0.12,2.49c-0.04,3-1.59,5.27-3.36,7.56c-0.12,0.14-0.24,0.24-0.37,0.31
		c-0.01,0.02-0.02,0.04-0.04,0.05c-1.48,1.49-0.95,2.68-1.23,4.47c-0.21,1.29-0.9,2.12-0.87,3.57c0.02,1.09,0.51,2.12,0.55,3.2
		c0.06,1.46-0.46,2.03-1.2,3.16c-1.09,1.67-0.44,3.54-0.29,5.51h-2.51c-0.23-1.8-1.22-4.16-0.37-5.77c0.22-0.42,0.61-0.64,0.84-1
		c0.32-0.51,0.53-0.95,0.66-1.33c0-0.01,0-0.01,0-0.01c0.18-0.56,0.2-1.02,0.15-1.48c0,0,0.01-0.01,0-0.01
		c-0.06-0.65-0.25-1.31-0.27-2.27c-0.04-1.96,0.55-4.04,0.75-5.96c0.2-1.95,0.73-2.47,2.06-3.82c0.06-0.05,0.1-0.09,0.16-0.13
		c0.05-0.04,0.1-0.07,0.16-0.1c0.03-0.05,0.05-0.09,0.09-0.13c1.74-2.25,2.6-3.96,2.6-6.83v-0.1c-0.01-1.42-0.18-2.77,0.43-4.1
		c0.52-1.15,1.29-1.59,2.29-2.24c0.26-0.06,0.51-0.12,0.77-0.18c0.04-0.01,0.08-0.02,0.12-0.03c0.5-0.55,0.83-1.13,1.01-1.76
		c0.01-0.01,0.01-0.01,0.01-0.01c0.11-0.4,0.16-0.83,0.14-1.27c0.1-0.43,0.13-0.88,0.29-1.31c0.66-1.74,2.56-3.2,4.46-4.06
		c0.01-0.01,0.01-0.01,0.01-0.01c0.72-0.32,1.42-0.56,2.07-0.7c1.19-0.24,1.89-0.29,2.32-1.67c0.11-0.36-0.06-0.83,0.08-1.23
		c0.09-0.24,0.19-0.44,0.32-0.62c0.21-0.42,0.53-0.73,1.03-1.01c1.51-0.83,1.28-0.29,1.89-2.01c0.7-1.93,2.21-2.33,4.13-2.42
		c1.94-0.09,3.77-0.16,5.03-1.82c0.71-0.94,0.97-2.09,1.98-2.8c0.94-0.67,1.87-0.51,2.92-0.66c2.11-0.31,1.63-1.02,2.65-2.32
		c1.38-1.73,3.89-1.83,5.91-1.82c1.63,0.01,2.76,0.54,3.62-0.82c0.51-0.8,0.59-1.35,1.56-1.76c0.89-0.38,1.73-0.17,2.62,0.07
		c1.95,0.51,2.94,1.4,4.99,0.6C152.93,91.15,154.76,91.13,156.83,91.17z"/>
	<path class="st4" d="M38.68,141.55c-0.1-0.2-0.24-0.4-0.4-0.58c-0.14-0.18-0.3-0.34-0.49-0.46c-0.47-0.36-1.07-0.62-1.68-0.6
		c-0.49,0.02-0.96,0.15-1.4,0.38c-0.26,0.14-0.46,0.33-0.63,0.54c-0.22,0.21-0.41,0.46-0.54,0.72c-0.27,0.46-0.4,0.97-0.41,1.5
		c0,0.54,0.14,1.04,0.41,1.5c0.53,0.91,1.52,1.47,2.57,1.47s2.04-0.57,2.57-1.47c0.27-0.46,0.4-0.97,0.41-1.5
		C39.08,142.52,38.95,142.02,38.68,141.55z"/>
	<path class="st4" d="M38.8,127.68c-0.23-0.4-0.6-0.69-1.02-0.87c-0.36-0.15-0.71-0.2-1.1-0.15c-0.5,0.07-0.83,0.27-1.22,0.59
		c-0.48,0.38-0.73,0.97-0.96,1.52c-0.24,0.55-0.38,1.06-0.22,1.67c0.14,0.5,0.53,1.05,0.99,1.29c1.09,0.58,2.28,0.23,2.96-0.78
		c0.14-0.2,0.29-0.41,0.41-0.62c0.3-0.49,0.4-1.02,0.46-1.58C39.13,128.42,38.97,127.97,38.8,127.68z"/>
	<path class="st4" d="M53.23,140.14c-2.57,0-2.57,3.99,0,3.99C55.79,144.14,55.8,140.14,53.23,140.14z"/>
	<path class="st4" d="M62.09,124.97c-2,0-2,3.11,0,3.11C64.09,128.08,64.09,124.97,62.09,124.97z"/>
	<path class="st4" d="M77.68,128.2c-2.17,0-2.17,3.37,0,3.37C79.84,131.58,79.85,128.2,77.68,128.2z"/>
	<path class="st4" d="M81.04,123.54c-2.66,0-2.66,4.14,0,4.14C83.7,127.67,83.7,123.54,81.04,123.54z"/>
	<path class="st4" d="M68.51,144.95c-3.86,0-3.86,6,0,6C72.36,150.96,72.37,144.95,68.51,144.95z"/>
	<path class="st4" d="M66.37,112.2c-3.46,0-3.46,5.38,0,5.38C69.83,117.58,69.83,112.2,66.37,112.2z"/>
	<path class="st4" d="M48.34,105.5c-3.01,0-3.02,4.69,0,4.69C51.35,110.19,51.35,105.5,48.34,105.5z"/>
	<path class="st4" d="M49.87,92.55c-3.92,0-3.92,6.1,0,6.1C53.78,98.65,53.79,92.55,49.87,92.55z"/>
	<path class="st4" d="M55.98,90.09c-1.97,0-1.97,3.06,0,3.06C57.94,93.15,57.95,90.09,55.98,90.09z"/>
	<path class="st4" d="M62.09,81.84c-1.86,0-2.6,1.72-2.25,3.12c-3.34,0.12-3.32,5.37,0.11,5.37c2.15,0,2.97-2.09,2.44-3.66
		C65.2,86.36,65.11,81.84,62.09,81.84z"/>
	<path class="st4" d="M48.95,148.43c-2.93,0-2.94,4.57,0,4.57C51.88,153,51.89,148.43,48.95,148.43z"/>
	<path class="st4" d="M48.98,123.7c-0.29-1.04-1.36-1.95-2.48-1.89c-0.3,0.02-0.6,0.06-0.9,0.11c-0.69,0.12-1.44,0.87-1.56,1.56
		c-0.05,0.3-0.09,0.6-0.11,0.9c-0.02,0.43,0.15,0.92,0.35,1.3c0.26,0.49,0.73,0.84,1.23,1.05c0.91,0.38,2.11,0.23,2.8-0.53
		C48.93,125.53,49.22,124.59,48.98,123.7z"/>
	<path class="st4" d="M33.06,109.51c-3.36,0-3.37,5.24,0,5.24C36.42,114.75,36.43,109.51,33.06,109.51z"/>
	<path class="st4" d="M65.15,74.18c-3.52,0-3.52,5.48,0,5.48C68.66,79.66,68.67,74.18,65.15,74.18z"/>
	<path class="st4" d="M80.43,82.63c-2.5,0-2.51,3.9,0,3.9C82.93,86.53,82.94,82.63,80.43,82.63z"/>
	<path class="st4" d="M85.01,69.88c-3.53,0-3.54,5.5,0,5.5C88.55,75.39,88.55,69.88,85.01,69.88z"/>
	<path class="st4" d="M81.04,56.1c-1.97,0-1.97,3.06,0,3.06C83.01,59.16,83.01,56.1,81.04,56.1z"/>
	<path class="st4" d="M91.12,49.36c-2.37,0-2.37,3.68,0,3.68C93.49,53.05,93.49,49.36,91.12,49.36z"/>
	<path class="st4" d="M100.6,47.85c-3.92,0-3.92,6.1,0,6.1C104.52,53.95,104.52,47.85,100.6,47.85z"/>
	<path class="st4" d="M120.77,33.44h-0.61c-0.8,0-1.57,0.7-1.53,1.53c0.04,0.83,0.67,1.53,1.53,1.53h0.61c0.8,0,1.57-0.7,1.53-1.53
		C122.26,34.15,121.63,33.44,120.77,33.44z"/>
	<path class="st4" d="M140.64,41.71c-1.97,0-1.97,3.06,0,3.06C142.6,44.77,142.61,41.71,140.64,41.71z"/>
	<path class="st4" d="M146.44,31.68c-2.66,0-2.66,4.14,0,4.14C149.1,35.82,149.11,31.68,146.44,31.68z"/>
	<path class="st4" d="M151.03,22.93c-4.07,0-4.08,6.34,0,6.34C155.1,29.27,155.11,22.93,151.03,22.93z"/>
	<path class="st4" d="M146.75,45.33c-3.57,0-3.96,4.95-1.17,6.03c0.09,0.39,0.45,0.68,0.88,0.7c0.36,0.02,0.72,0.05,1.07-0.07
		c0.26-0.09,0.45-0.36,0.4-0.63C150.71,50.27,150.32,45.33,146.75,45.33z"/>
	<path class="st4" d="M145.22,57.84c-3.27,0-3.28,5.1,0,5.1C148.49,62.94,148.5,57.84,145.22,57.84z"/>
	<path class="st4" d="M133.3,62.24c-3.92,0-3.92,6.1,0,6.1C137.22,68.34,137.23,62.24,133.3,62.24z"/>
	<path class="st4" d="M126.58,36.49c-2.78,0-2.79,4.33,0,4.33C129.36,40.81,129.36,36.49,126.58,36.49z"/>
	<path class="st4" d="M127.19,28.92c-3.84,0-3.85,5.98,0,5.98C131.03,34.9,131.04,28.92,127.19,28.92z"/>
	<path class="st4" d="M99.38,36.99c-4.1,0-4.11,6.39,0,6.39C103.48,43.37,103.49,36.99,99.38,36.99z"/>
	<path class="st4" d="M112.21,53.77c-3.78,0-3.79,5.88,0,5.88C115.99,59.66,116,53.77,112.21,53.77z"/>
	<path class="st4" d="M115.58,60.59c-2.49,0-2.49,3.88,0,3.88C118.06,64.47,118.07,60.59,115.58,60.59z"/>
	<path class="st4" d="M110.07,76.47c-3.73,0-3.74,5.81,0,5.81C113.81,82.28,113.81,76.47,110.07,76.47z"/>
	<path class="st4" d="M96.63,80.27c-3.96,0-3.97,6.17,0,6.17C100.59,86.44,100.6,80.27,96.63,80.27z"/>
	<path class="st4" d="M96.32,91.75c-4.16,0-4.17,6.48,0,6.48C100.48,98.23,100.49,91.75,96.32,91.75z"/>
	<path class="st4" d="M90.51,110.53c-2.84,0-2.85,4.43,0,4.43C93.36,114.96,93.36,110.53,90.51,110.53z"/>
	<path class="st4" d="M91.74,102.8c-4.12,0-4.12,6.41,0,6.41C95.85,109.21,95.86,102.8,91.74,102.8z"/>
	<path class="st4" d="M114.66,85.75c-3.99,0-4,6.22,0,6.22C118.65,91.97,118.66,85.75,114.66,85.75z"/>
	<path class="st4" d="M125.66,78.36c-3.66,0-3.66,5.69,0,5.69C129.32,84.06,129.32,78.36,125.66,78.36z"/>
	<path class="st4" d="M136.36,70.95c-3.73,0-3.74,5.81,0,5.81C140.09,76.77,140.1,70.95,136.36,70.95z"/>
	<path class="st4" d="M145.22,72.18c-3.73,0-3.74,5.81,0,5.81C148.95,77.99,148.96,72.18,145.22,72.18z"/>
	<path class="st4" d="M151.94,66.99c-3.72,0-3.72,5.79,0,5.79C155.66,72.77,155.67,66.99,151.94,66.99z"/>
	<path class="st4" d="M103.35,61.73c-3.78,0-3.79,5.88,0,5.88C107.13,67.62,107.14,61.73,103.35,61.73z"/>
	<path class="st4" d="M65.45,62.67c-3.36,0-3.37,5.24,0,5.24C68.82,67.91,68.82,62.67,65.45,62.67z"/>
	<path class="st4" d="M73.4,138.68c-2.87,0-2.88,4.47,0,4.47C76.27,143.15,76.28,138.68,73.4,138.68z"/>
	<path class="st5" d="M130.55,41.83c-3,0-3,4.66,0,4.66C133.55,46.49,133.55,41.83,130.55,41.83z"/>
	<path class="st5" d="M134.83,30.89c-3.29,0-3.29,5.12,0,5.12C138.12,36,138.12,30.89,134.83,30.89z"/>
	<path class="st5" d="M142.08,33.38c0.34-0.59,0.07-1.55-0.83-1.55c-0.89,0-1.17,0.96-0.83,1.55c-1.08,0.72-0.81,2.82,0.83,2.82
		C142.88,36.2,143.16,34.09,142.08,33.38z"/>
	<path class="st5" d="M140.03,57.02c-1.97,0-1.97,3.06,0,3.06C141.99,60.08,142,57.02,140.03,57.02z"/>
	<path class="st5" d="M127.19,47.31c-2.64,0-2.65,4.11,0,4.11C129.83,51.42,129.84,47.31,127.19,47.31z"/>
	<path class="st5" d="M114.96,36.81c-1.97,0-1.97,3.06,0,3.06C116.93,39.87,116.93,36.81,114.96,36.81z"/>
	<path class="st5" d="M108.24,39.58c-3.92,0-3.92,6.1,0,6.1C112.16,45.68,112.16,39.58,108.24,39.58z"/>
	<path class="st5" d="M106.1,56.77c-3.86,0-3.86,6,0,6C109.96,62.78,109.96,56.77,106.1,56.77z"/>
	<path class="st5" d="M92.04,45.29c-2.87,0-2.88,4.47,0,4.47C94.91,49.77,94.92,45.29,92.04,45.29z"/>
	<path class="st5" d="M81.34,52.71c-2.78,0-2.79,4.33,0,4.33C84.13,57.04,84.13,52.71,81.34,52.71z"/>
	<path class="st5" d="M80.73,69.88c-3.93,0-3.94,6.12,0,6.12C84.67,76,84.67,69.88,80.73,69.88z"/>
	<path class="st5" d="M76.76,77.3c-3.44,0-3.45,5.36,0,5.36C80.2,82.66,80.21,77.3,76.76,77.3z"/>
	<path class="st5" d="M54.76,77.04c-3,0-3,4.66,0,4.66C57.75,81.7,57.76,77.04,54.76,77.04z"/>
	<path class="st5" d="M51.39,88.4c-2.95,0-2.95,4.59,0,4.59C54.34,93,54.35,88.4,51.39,88.4z"/>
	<path class="st5" d="M54.76,104.82c-3.89,0-3.89,6.05,0,6.05C58.64,110.87,58.65,104.82,54.76,104.82z"/>
	<path class="st5" d="M70.95,112.41c-3.96,0-3.97,6.17,0,6.17C74.92,118.59,74.92,112.41,70.95,112.41z"/>
	<path class="st5" d="M81.65,110.91c-1.97,0-1.97,3.06,0,3.06C83.62,113.97,83.62,110.91,81.65,110.91z"/>
	<path class="st5" d="M80.12,123.77c-1.97,0-1.97,3.06,0,3.06C82.09,126.83,82.09,123.77,80.12,123.77z"/>
	<path class="st5" d="M76.59,136.26c-0.19-0.34-0.54-0.59-1.06-0.59c-0.25,0-0.45,0.06-0.62,0.16c-4.17,0.01-4.17,6.51,0.01,6.51
		C78.45,142.33,79.01,137.71,76.59,136.26z"/>
	<path class="st5" d="M76.15,148.1c-3.75,0-3.75,5.84,0,5.84C79.9,153.94,79.9,148.1,76.15,148.1z"/>
	<path class="st5" d="M61.78,147.16c-3.78,0-3.79,5.88,0,5.88C65.56,153.04,65.57,147.16,61.78,147.16z"/>
	<path class="st5" d="M52,138.11c-2.81,0-2.82,4.38,0,4.38C54.82,142.49,54.82,138.11,52,138.11z"/>
	<path class="st5" d="M39.84,136.14c-0.09,0.03-0.19,0.06-0.28,0.09c-0.81,0.27-1.5,1.03-1.46,1.93c0.04,0.91,0.6,1.64,1.46,1.93
		c0.09,0.03,0.19,0.06,0.28,0.09c1.3,0.43,2.64-0.71,2.64-2.02C42.48,136.85,41.14,135.71,39.84,136.14z"/>
	<path class="st5" d="M33.36,138.19c-3.1,0-3.11,4.83,0,4.83C36.46,143.02,36.47,138.19,33.36,138.19z"/>
	<path class="st5" d="M30.61,143.67c-1.97,0-1.97,3.06,0,3.06C32.58,146.73,32.58,143.67,30.61,143.67z"/>
	<path class="st5" d="M28.17,138.57c-2.61,0-2.62,4.07,0,4.07C30.78,142.64,30.78,138.57,28.17,138.57z"/>
	<path class="st5" d="M34.75,120.54c-0.61-0.56-1.56-0.61-2.16,0c-0.1,0.1-0.2,0.2-0.31,0.31c-0.57,0.57-0.61,1.61,0,2.17
		c0.3,0.28,0.68,0.43,1.06,0.44c-0.01,0.02-0.01,0.04,0.02,0.04c0.03,0,0.03-0.02,0.02-0.04c0.38,0,0.76-0.14,1.06-0.44l0.31-0.31
		C35.31,122.14,35.36,121.1,34.75,120.54z"/>
	<path class="st5" d="M51.39,124.98c-4.35,0-4.36,6.77,0,6.77C55.74,131.74,55.75,124.98,51.39,124.98z"/>
	<path class="st5" d="M64.84,132.63c-2.78,0-2.79,4.33,0,4.33C67.62,136.95,67.63,132.63,64.84,132.63z"/>
	<path class="st5" d="M70.34,97.75c-3.53,0-3.54,5.5,0,5.5c0.09,0,0.17-0.02,0.25-0.03c-0.78,0.06-0.77,1.3,0.05,1.3
		c0.83,0,0.84-1.28,0.02-1.3C73.86,102.88,73.77,97.75,70.34,97.75z"/>
	<path class="st5" d="M81.65,89.03c-4.44,0-4.5,6.81-0.18,7c0.2,0.35,0.57,0.6,1.1,0.6c0.87,0,1.3-0.69,1.29-1.37
		C85.96,93.45,85.23,89.03,81.65,89.03z"/>
	<path class="st5" d="M114.05,87.08c-4.26,0-4.26,6.63,0,6.63C118.3,93.71,118.31,87.08,114.05,87.08z"/>
	<path class="st5" d="M116.19,65.97c-2.96,0-4.03,2.95-3.2,5.07c-3.12,1-2.77,6.4,1.06,6.4c2.58,0,3.58-2.46,3-4.36
		C120.79,72.25,120.51,65.97,116.19,65.97z"/>
	<path class="st5" d="M72.18,58.4c-2.95,0-2.95,4.59,0,4.59C75.13,62.99,75.13,58.4,72.18,58.4z"/>
	<path class="st5" d="M148.28,36.43c-4.03,0-4.03,6.27,0,6.27C152.3,42.7,152.31,36.43,148.28,36.43z"/>
	<path class="st5" d="M136.97,61.17c-3.72,0-3.72,5.79,0,5.79C140.69,66.96,140.69,61.17,136.97,61.17z"/>
	<path class="st5" d="M120.77,45.52c-1,0-1.01,1.56,0,1.56C121.78,47.09,121.78,45.52,120.77,45.52z"/>
	<path class="st5" d="M118.02,52.74c-1.17,0-1.17,1.82,0,1.82C119.19,54.56,119.19,52.74,118.02,52.74z"/>
	<path class="st5" d="M124.13,61.58c-0.04,0-0.04,0.06,0,0.06C124.17,61.64,124.17,61.58,124.13,61.58z"/>
	<path class="st5" d="M118.33,64.07c-1.17,0-1.17,1.82,0,1.82C119.5,65.89,119.5,64.07,118.33,64.07z"/>
	<path class="st5" d="M97.54,50.9c-1.17,0-1.17,1.82,0,1.82C98.71,52.73,98.72,50.9,97.54,50.9z"/>
	<path class="st5" d="M85.32,66.81c-1.19,0-1.19,1.85,0,1.85C86.51,68.66,86.51,66.81,85.32,66.81z"/>
	<path class="st5" d="M91.74,83.67c-1.17,0-1.17,1.82,0,1.82C92.91,85.49,92.91,83.67,91.74,83.67z"/>
	<path class="st5" d="M86.54,70.77c-0.04,0-0.04,0.06,0,0.06C86.58,70.83,86.58,70.77,86.54,70.77z"/>
	<path class="st5" d="M91.43,62.5c-0.04,0-0.04,0.06,0,0.06C91.47,62.56,91.47,62.5,91.43,62.5z"/>
	<path class="st5" d="M99.38,71.72c-1.17,0-1.17,1.82,0,1.82C100.55,73.55,100.55,71.72,99.38,71.72z"/>
	<path class="st5" d="M92.96,78.73c-0.04,0-0.04,0.06,0,0.06C93,78.79,93,78.73,92.96,78.73z"/>
	<path class="st5" d="M82.26,65.56c-0.04,0-0.04,0.06,0,0.06C82.3,65.62,82.3,65.56,82.26,65.56z"/>
	<path class="st5" d="M67.9,69.24c-0.04,0-0.04,0.06,0,0.06C67.94,69.3,67.94,69.24,67.9,69.24z"/>
	<path class="st5" d="M60.56,83.02c-0.04,0-0.04,0.06,0,0.06C60.6,83.08,60.6,83.02,60.56,83.02z"/>
	<path class="st5" d="M62.4,98.63c-0.04,0-0.04,0.06,0,0.06C62.44,98.69,62.44,98.63,62.4,98.63z"/>
	<path class="st5" d="M69.12,105.37c-0.04,0-0.04,0.06,0,0.06C69.16,105.43,69.16,105.37,69.12,105.37z"/>
	<path class="st5" d="M61.17,85.46c-0.04,0-0.04,0.06,0,0.06C61.21,85.53,61.21,85.46,61.17,85.46z"/>
	<path class="st5" d="M51.68,80.74l-0.1-0.59c-0.08-0.49-0.91-0.49-0.99,0l-0.1,0.59c-0.06,0.39,0.17,0.78,0.59,0.78
		C51.51,81.52,51.75,81.13,51.68,80.74z"/>
	<path class="st5" d="M49.25,79.65c-0.04,0-0.04,0.06,0,0.06C49.29,79.71,49.29,79.65,49.25,79.65z"/>
	<path class="st5" d="M41.31,99.85c-0.04,0-0.04,0.06,0,0.06C41.35,99.92,41.35,99.85,41.31,99.85z"/>
	<path class="st5" d="M43.45,110.57c-0.04,0-0.04,0.06,0,0.06C43.49,110.63,43.49,110.57,43.45,110.57z"/>
	<path class="st5" d="M44.98,120.37c-0.04,0-0.04,0.06,0,0.06C45.01,120.43,45.01,120.37,44.98,120.37z"/>
	<path class="st5" d="M33.36,126.19c-0.04,0-0.04,0.06,0,0.06C33.4,126.25,33.4,126.19,33.36,126.19z"/>
	<path class="st5" d="M40.7,132.62c-0.04,0-0.04,0.06,0,0.06C40.74,132.68,40.74,132.62,40.7,132.62z"/>
	<path class="st5" d="M55.06,138.74c-0.04,0-0.04,0.06,0,0.06C55.1,138.8,55.1,138.74,55.06,138.74z"/>
	<path class="st5" d="M43.14,117.92c-0.04,0-0.04,0.06,0,0.06C43.18,117.98,43.18,117.92,43.14,117.92z"/>
	<path class="st5" d="M44.36,109.35c-0.04,0-0.04,0.06,0,0.06C44.4,109.41,44.4,109.35,44.36,109.35z"/>
	<path class="st5" d="M44.67,110.88c-0.04,0-0.04,0.06,0,0.06C44.71,110.94,44.71,110.88,44.67,110.88z"/>
	<path class="st5" d="M64.23,123.16c-1.17,0-1.17,1.82,0,1.82C65.4,124.99,65.4,123.16,64.23,123.16z"/>
	<path class="st5" d="M75.54,126.19c-0.04,0-0.04,0.06,0,0.06C75.58,126.25,75.58,126.19,75.54,126.19z"/>
	<path class="st5" d="M84.48,121.62c0-0.1-0.16-0.1-0.16,0c0,0.2-0.01,0.41-0.01,0.61c0,0.12,0.19,0.12,0.19,0
		C84.49,122.03,84.48,121.83,84.48,121.62z"/>
	<path class="st5" d="M80.43,129.25c-0.04,0-0.04,0.06,0,0.06C80.47,129.31,80.47,129.25,80.43,129.25z"/>
	<path class="st5" d="M66.06,136.9c-0.04,0-0.04,0.06,0,0.06C66.1,136.96,66.1,136.9,66.06,136.9z"/>
	<path class="st5" d="M54.76,142.45c-1.17,0-1.17,1.82,0,1.82C55.93,144.27,55.93,142.45,54.76,142.45z"/>
	<path class="st5" d="M49.25,144.86c-0.04,0-0.04,0.06,0,0.06C49.29,144.92,49.29,144.86,49.25,144.86z"/>
	<path class="st5" d="M39.78,147.35c-1.17,0-1.17,1.82,0,1.82C40.95,149.17,40.95,147.35,39.78,147.35z"/>
	<path class="st5" d="M34.28,153.44c-0.04,0-0.04,0.06,0,0.06C34.32,153.5,34.32,153.44,34.28,153.44z"/>
	<path class="st5" d="M28.47,152.52c-0.04,0-0.04,0.06,0,0.06C28.51,152.58,28.51,152.52,28.47,152.52z"/>
	<path class="st5" d="M28.17,145.51c-1.17,0-1.17,1.82,0,1.82C29.34,147.34,29.34,145.51,28.17,145.51z"/>
	<path class="st5" d="M36.72,126.19c-0.04,0-0.04,0.06,0,0.06C36.76,126.25,36.76,126.19,36.72,126.19z"/>
	<path class="st5" d="M35.22,118.85c-0.03-0.03-0.07,0.02-0.04,0.04c0.2,0.2,0.41,0.41,0.61,0.61c0.03,0.03,0.07-0.02,0.04-0.04
		L35.22,118.85z"/>
	<path class="st5" d="M53.53,111.49c-0.04,0-0.04,0.06,0,0.06C53.57,111.55,53.57,111.49,53.53,111.49z"/>
	<path class="st5" d="M93.26,85.56c-0.7,0-0.7,1.09,0,1.09C93.96,86.65,93.97,85.56,93.26,85.56z"/>
	<path class="st5" d="M102.13,95.87c-0.04,0-0.04,0.06,0,0.06C102.17,95.94,102.17,95.87,102.13,95.87z"/>
	<path class="st5" d="M101.82,94.65c-0.04,0-0.04,0.06,0,0.06C101.86,94.71,101.86,94.65,101.82,94.65z"/>
	<path class="st5" d="M105.49,90.44c-0.73,0-0.73,1.13,0,1.13C106.22,91.57,106.22,90.44,105.49,90.44z"/>
	<path class="st5" d="M95.87,74.33c-0.14-0.28-0.29-0.56-0.43-0.85c-0.17-0.33-0.61-0.45-0.93-0.31c-0.36,0.16-0.5,0.5-0.43,0.88
		c0.06,0.32,0.11,0.64,0.17,0.96c0.09,0.53,0.75,0.76,1.2,0.58C95.95,75.38,96.11,74.81,95.87,74.33z"/>
	<path class="st5" d="M89.6,66.18c-0.04,0-0.04,0.06,0,0.06C89.64,66.24,89.64,66.18,89.6,66.18z"/>
	<path class="st5" d="M95.1,55.8c-1.17,0-1.17,1.82,0,1.82C96.27,57.63,96.27,55.8,95.1,55.8z"/>
	<path class="st5" d="M87.76,67.4c-0.04,0-0.04,0.06,0,0.06C87.8,67.46,87.8,67.4,87.76,67.4z"/>
	<path class="st5" d="M100.6,58.38c-0.62,0-0.62,0.96,0,0.96C101.22,59.34,101.22,58.38,100.6,58.38z"/>
	<path class="st5" d="M123.22,53.64c-1.59,0-1.59,2.47,0,2.47C124.8,56.11,124.8,53.64,123.22,53.64z"/>
	<path class="st5" d="M136.05,56.72c-1.17,0-1.17,1.82,0,1.82C137.22,58.54,137.22,56.72,136.05,56.72z"/>
	<path class="st5" d="M145.22,48.72c-0.04,0-0.04,0.06,0,0.06C145.26,48.78,145.26,48.72,145.22,48.72z"/>
	<path class="st5" d="M136.97,28.21c-0.04,0-0.04,0.06,0,0.06C137.01,28.27,137.01,28.21,136.97,28.21z"/>
	<path class="st5" d="M133,26.68c-0.04,0-0.04,0.06,0,0.06C133.04,26.74,133.04,26.68,133,26.68z"/>
	<path class="st4" d="M144,65.27c-1.21,0-1.21,1.88,0,1.88C145.21,67.15,145.21,65.27,144,65.27z"/>
	<path class="st4" d="M141.55,55.49c-1.58,0-1.58,2.45,0,2.45C143.13,57.94,143.13,55.49,141.55,55.49z"/>
	<path class="st4" d="M137.27,47.21c-1.17,0-1.47,1.34-0.92,2.05c-0.17-0.1-0.37-0.17-0.61-0.17c-1.53,0-1.53,2.38,0,2.38
		c1.13,0,1.42-1.29,0.89-1.97c0.17,0.11,0.38,0.18,0.64,0.18C138.86,49.68,138.86,47.21,137.27,47.21z"/>
	<path class="st4" d="M128.11,52.04c-1.29,0-1.29,2.01,0,2.01C129.4,54.04,129.4,52.04,128.11,52.04z"/>
	<path class="st4" d="M120.77,66.18c-0.04,0-0.04,0.06,0,0.06C120.81,66.24,120.81,66.18,120.77,66.18z"/>
	<path class="st4" d="M110.38,45.06c-0.41,0-0.42,0.65,0,0.65C110.79,45.71,110.79,45.06,110.38,45.06z"/>
	<path class="st4" d="M78.93,49.96c-0.02-0.04-0.07,0-0.05,0.03c0.1,0.2,0.2,0.41,0.31,0.61c0.02,0.04,0.07,0,0.05-0.03
		C79.13,50.37,79.03,50.17,78.93,49.96z"/>
	<path class="st4" d="M74.61,53.32c-0.31,0.2-0.61,0.41-0.92,0.61c-0.03,0.02,0,0.07,0.03,0.05c0.31-0.2,0.61-0.41,0.92-0.61
		C74.67,53.35,74.64,53.3,74.61,53.32z"/>
	<path class="st4" d="M61.48,63.73c-0.04,0-0.04,0.06,0,0.06C61.52,63.79,61.52,63.73,61.48,63.73z"/>
	<path class="st4" d="M54.12,72.01l-0.92,1.84c-0.02,0.04,0.04,0.07,0.05,0.03l0.92-1.84C54.19,72,54.14,71.97,54.12,72.01z"/>
	<path class="st4" d="M72.48,53.01c-0.04,0-0.04,0.06,0,0.06C72.52,53.07,72.52,53.01,72.48,53.01z"/>
	<path class="st4" d="M78.29,48.72c-0.04,0-0.04,0.06,0,0.06C78.33,48.78,78.33,48.72,78.29,48.72z"/>
	<path class="st4" d="M84.4,45.56c-0.96,0-0.96,1.49,0,1.49C85.36,47.05,85.36,45.56,84.4,45.56z"/>
	<path class="st4" d="M71.87,58.18c-1.66,0-1.66,2.58,0,2.58C73.53,60.76,73.53,58.18,71.87,58.18z"/>
	<path class="st4" d="M67.37,57.73c-0.62-0.09-1.15,0-1.56,0.53c-0.54,0.7-0.35,1.73,0.42,2.18c0.71,0.42,1.59,0.14,2.03-0.53
		C68.74,59.17,68.31,57.87,67.37,57.73z"/>
	<path class="st4" d="M58.67,68.72c-0.49-0.53-1.59-0.46-1.9,0.25c-0.21,0.48-0.23,0.92,0.09,1.35c0.44,0.57,1.29,0.64,1.81,0.12
		C59.14,69.96,59.11,69.2,58.67,68.72z"/>
	<path class="st4" d="M52.31,78.14c-1.58,0-1.58,2.45,0,2.45C53.89,80.6,53.89,78.14,52.31,78.14z"/>
	<path class="st4" d="M45.59,88.29c-1.12,0-1.13,1.75,0,1.75C46.71,90.04,46.71,88.29,45.59,88.29z"/>
	<path class="st4" d="M37.33,100.59c-0.75,0-1.47,0.66-1.43,1.44c0.03,0.78,0.63,1.44,1.43,1.44c0.75,0,1.47-0.66,1.43-1.44
		C38.73,101.25,38.14,100.59,37.33,100.59z"/>
	<path class="st4" d="M36.92,105.41c-0.22-0.45-0.58-0.83-1.12-0.83c-0.85,0-1.4,0.96-0.97,1.7c0.4,0.69,1.56,0.78,1.94,0
		C36.92,105.97,37.09,105.75,36.92,105.41z"/>
	<path class="st4" d="M40.39,111.22c-1.96,0-1.97,3.06,0,3.06C42.35,114.27,42.36,111.22,40.39,111.22z"/>
	<path class="st4" d="M32.14,117.95c-1.57,0-1.57,2.44,0,2.44C33.71,120.39,33.71,117.95,32.14,117.95z"/>
	<path class="st4" d="M27.55,126.57c-1.51,0-1.51,2.35,0,2.35C29.07,128.92,29.07,126.57,27.55,126.57z"/>
	<path class="st4" d="M28.78,132.23c-1.71,0-1.72,2.67,0,2.67C30.49,134.9,30.49,132.23,28.78,132.23z"/>
	<path class="st4" d="M26.64,138.2c-1.12,0-1.13,1.75,0,1.75C27.76,139.95,27.76,138.2,26.64,138.2z"/>
	<path class="st4" d="M62.4,143.45c-1.46,0-1.46,2.27,0,2.27C63.85,145.72,63.85,143.45,62.4,143.45z"/>
	<path class="st4" d="M75.23,141.25c-1.53,0-1.53,2.38,0,2.38C76.76,143.64,76.77,141.25,75.23,141.25z"/>
	<path class="st4" d="M82.57,124.36c-1.6,0-1.61,2.5,0,2.5C84.17,126.85,84.17,124.36,82.57,124.36z"/>
	<path class="st4" d="M89.9,117.61c-1.62,0-1.63,2.53,0,2.53C91.52,120.13,91.53,117.61,89.9,117.61z"/>
	<path class="st4" d="M95.4,108.99c-1.68,0-1.68,2.61,0,2.61C97.08,111.6,97.08,108.99,95.4,108.99z"/>
	<path class="st4" d="M79.21,101.65c-2.06,0-2.06,3.2,0,3.2C81.26,104.85,81.26,101.65,79.21,101.65z"/>
	<path class="st4" d="M74.93,102.29c-2.03,0-2.03,3.16,0,3.16C76.95,105.44,76.96,102.29,74.93,102.29z"/>
	<path class="st4" d="M60.38,106.66c-0.2-0.48-0.63-0.81-1.15-0.88c-0.6-0.08-1.14,0.2-1.47,0.71c-0.01,0.02-0.02,0.04-0.04,0.05
		c0.01-0.02-0.05,0.06-0.18,0.24c-0.06,0.11-0.1,0.21-0.13,0.32c-0.23,0.43-0.02,0.91,0.35,1.16c0.25,0.22,0.58,0.29,0.89,0.4
		c0.47,0.17,1.09-0.04,1.44-0.38C60.5,107.86,60.61,107.21,60.38,106.66z"/>
	<path class="st4" d="M54.14,118.71c-0.88,0-1.73,0.78-1.69,1.69c0.04,0.92,0.74,1.69,1.69,1.69c0.88,0,1.73-0.78,1.69-1.69
		C55.79,119.48,55.09,118.71,54.14,118.71z"/>
	<path class="st4" d="M46.2,113.65c-1.98,0-1.99,3.09,0,3.09C48.18,116.74,48.18,113.65,46.2,113.65z"/>
	<path class="st4" d="M111.91,88.18c-2.06,0-2.06,3.2,0,3.2C113.96,91.38,113.97,88.18,111.91,88.18z"/>
	<path class="st4" d="M129.02,86.2c-1.85,0-1.86,2.88,0,2.88C130.88,89.08,130.88,86.2,129.02,86.2z"/>
	<path class="st4" d="M150.11,73.26c-1.95,0-1.95,3.03,0,3.03C152.06,76.29,152.06,73.26,150.11,73.26z"/>
	<path class="st4" d="M153.47,53.06c-1.94,0-1.94,3.01,0,3.01C155.41,56.08,155.41,53.06,153.47,53.06z"/>
	<path class="st4" d="M153.17,43.34c-1.84,0-1.85,2.87,0,2.87C155.01,46.21,155.01,43.34,153.17,43.34z"/>
</g>
</svg>
