<?xml version="1.0" encoding="utf-8"?>
<!-- Generator: Adobe Illustrator 25.2.3, SVG Export Plug-In . SVG Version: 6.00 Build 0)  -->
<svg version="1.1" id="Layer_1" xmlns="http://www.w3.org/2000/svg" xmlns:xlink="http://www.w3.org/1999/xlink" x="0px" y="0px"
	 viewBox="0 0 156.83 104.79" style="enable-background:new 0 0 156.83 104.79;" xml:space="preserve">
<style type="text/css">
	.st0{fill:#A5B508;}
	.st1{fill:#D6AD29;}
	.st2{fill:#B79D1D;}
	.st3{fill:#557507;}
	.st4{fill:#C6A028;}
	.st5{fill:#E2BD23;}
</style>
<g>
	<path class="st0" d="M156.83,88.61v16.15c-2.74,0.07-5.29-0.89-7.41-2.58c-0.38-0.31-0.73-0.64-1.09-0.96
		c-0.11,0.04-0.25,0.1-0.42,0.2c-1.19,0.62-2.49,0.96-3.84,0.86c-1.58-0.11-2.67-0.94-4.12-1.42c-1.49-0.5-2.19,0.12-3.74,0.46
		c-2.1,0.47-4.18,0.42-6.07-0.42c-0.47,0.3-1,0.48-1.56,0.47c-1.23-0.02-2.08-0.2-3.18-0.74c-0.55-0.26-1.4-1.01-2.02-1
		c-1.29,0.02-2.7,1.74-3.97,2.13c-1.71,0.53-3.52,0.35-5.18-0.27c-1.29-0.48-3.29-2.28-4.64-1.56c-0.8,0.43-1.56,0.48-2.21,0.28
		c-0.69,0.44-1.54,0.63-2.44,0.38c-1.39-0.39-1.73-0.51-3.05,0.07c-1.06,0.47-1.96,1.05-3.12,1.3c-2.24,0.48-3.92-0.32-6.02-0.88
		c-1.2-0.31-2.84,0.4-4.62,0.07c-2.06-0.39-4.01-2.68-5.93-1.15c-0.35,0.28-0.74,0.44-1.13,0.53c-0.43,0.7-1.09,1.26-1.94,1.49
		c-1.84,0.51-3.45,0.37-5.29-0.07c-0.26-0.06-1.57-0.32-1.94-0.48c-0.32,0.14-0.94,0.35-1.05,0.37c-1.35,0.34-2.78,0.24-4.12-0.1
		c-1.38-0.36-2.29-1.08-3.12-0.7c-1.37,0.61-2.17,1.54-3.74,1.79c-1.65,0.26-3.38-0.25-5.04-0.35c-2.41-0.15-4.58-1.04-6.91-1.32
		c-0.62,0.83-1.62,1.38-3,1.3c-3.14-0.2-5.57-1.48-8.36-2.81c-1.32-0.63-2.52-1.16-3.95-0.68c-1.13,0.39-2.12,1.02-3.3,1.31
		c-2.73,0.67-5.97,1.02-8.67,0.12c-1.19-0.4-2.22-1.21-3.39-1.58c-1.31-0.42-2.83-0.11-4.16,0.39c-0.45,0.61-1.14,1.1-2.13,1.33
		c-3.44,0.81-6.24,3.28-9.66,3.95c-0.04,0.01-0.08,0.01-0.12,0.01c-0.4,0.22-0.8,0.22-1.2,0.28V87.75c0.91-0.36,1.91-0.57,2.92-0.63
		c0.66-0.04,1.33-0.05,2-0.04c0.73,0.01,1.46,0.04,2.19,0.09c0.22,0.02,0.43,0.03,0.66,0.05c2.96-0.56,6.33,0.01,9.18,0.23
		c0.85,0.06,1.7,0.1,2.54,0.13c1.84-0.1,3.7-0.19,5.48-0.04c1.33-0.06,2.66-0.14,4-0.25c4.06-0.33,8.1-0.57,12.17-0.54
		c3.37,0.03,7.6-0.42,10.94,0.61c0.63-0.03,1.26-0.06,1.89-0.1c5.31-0.37,10.59-1,15.9-1.23c0.75-0.51,1.75-0.75,2.94-0.5
		c3.92,0.8,8.06,0.21,12.03,0.37c4.34,0.17,8.67,0.7,13,1.12c0.36,0.04,0.69,0.12,0.98,0.26c7.27,0.18,14.56-0.24,21.74,1.05
		c0.07-0.01,0.13-0.02,0.2-0.02c7.22-0.43,14.44-0.79,21.66-1.03c1.51-0.05,2.57,0.64,3.16,1.61
		C149.31,88.63,153.08,88.5,156.83,88.61z"/>
	<path class="st1" d="M156.83,14.23v75.29c-14.86,0.06-29.71,0.06-44.56,0.08c-0.01,0-0.01,0-0.01,0c-0.88,0-1.78,0.01-2.66,0.01
		h-0.15c-18.29,0.04-36.56,0.06-54.85,0.09c-0.01,0-0.01,0-0.01,0c-0.7-0.01-1.4,0-2.1,0h-0.31c-1.61,0-3.23,0.01-4.85,0.01
		c-10.1,0.01-20.19,0.02-30.29,0.04c-0.01,0-0.01,0-0.01,0c-0.93,0.01-1.86,0.01-2.79,0.01c-0.43,0-0.88,0.01-1.33,0.02h-0.01
		C8.95,89.88,4.1,90.35,0,89.37V15.14c10.7-0.75,21.5-0.44,32.21-0.51c21.56-0.14,43.13-0.23,64.7-0.28
		c2.1-0.01,4.19-0.01,6.29-0.01c0,0,0,0,0.01,0c15.02-0.04,30.04-0.06,45.07-0.09c0.94,0,1.87,0,2.8-0.01c0.01,0,0.01,0,0.01,0
		C153,14.23,154.92,14.23,156.83,14.23z"/>
	<path class="st2" d="M156.83,83.25v9.2c-3.38-0.05-6.08,0.32-7.96,0.7c-3.59,0.71-5.01,1.57-7.02,0.78c-0.6-0.23-2-0.83-3.99-1.29
		c-1.98-0.47-2.75,0.14-4.49,0.8c-2.14,0.8-4.19,0.18-6.3-0.47c-0.3-0.09-0.53-0.25-0.7-0.46c-1.73,0.39-3.39,1.32-5.22,1.36
		c-1.81,0.04-3.59-0.37-5.27-1.04c-2.99-1.16-4.85-2.35-7.95-0.92c-3.87,1.79-3.79,1.45-4.82,1.5c-0.73,0.03-0.75-0.1-5.71-1.49
		c-2.04-0.58-2.2-0.6-2.45-0.61c-1.98-0.11-2.48,0.81-5.22,1.46c-0.99,0.24-2.59,0.61-4.58,0.37c-1.91-0.22-3.06-0.61-3.06-0.61
		c-1.22-0.41-1.67-0.78-2.45-0.61c-0.3,0.07-0.79,0.25-1.48,0.16c-0.27-0.03-0.49-0.1-0.64-0.15c-2.57,1.38-5.37,1.31-8.42,0.88
		c-1.73-0.25-3.19-0.39-4.78,0.36c-0.92,0.42-1.72,0.85-2.75,0.94c-1.45,0.12-2.65-0.48-3.82-1.28c-1.37-0.95-3.31-2.69-5.26-3.12
		c-0.05-0.02-0.1-0.02-0.15-0.04c-0.06,0.01-0.1,0.02-0.16,0.04c-0.83,0.19-1.65,0.37-2.47,0.5c-1.32,0.85-2.28,2.25-3.88,2.85
		c-1.77,0.67-3.72,0.71-5.56,0.3c-2.28-0.51-5.95-3.52-8.03-1.57c-0.51,0.48-1.25,0.51-1.81,0.22c-0.31,0.12-0.66,0.22-1.04,0.31
		c-0.8,0.2-1.53,0.26-2.34,0.26c-1.39,0.01-2.65,0.25-4.01,0.32c-1.94,0.1-3.2-0.93-4.94-1.57c-3.27-1.21-4.69,0.88-7.6,1.47
		c-2.51,0.51-4.97-0.55-7.49-0.23C2.17,92.66,1.07,93,0,93.17v-9.97c1.09-0.04,2.11,0.22,3.23,0.47c0.68,0.15,1.4,0.29,2.19,0.37
		c1.21,0.12,2.41-0.18,3.63-0.17c0.35,0,0.7,0.02,1.05,0.09c1.92,0.35,3.39,0.94,5.42,0.6c1.31-0.21,2.52-0.5,3.87-0.37
		c1.32,0.13,2.49,0.86,3.78,1.03c1.89,0.26,3.89-1,5.73-1.32c1.49-0.26,2.95-0.28,4.46-0.15c0.4,0.03,0.72,0.2,0.95,0.43
		c2.18-0.33,4.27,0.47,6.38-0.09c1.98-0.52,2.96-0.15,4.9,0.36c2.79,0.73,5.65-0.42,8.48-0.51c2.47-0.08,5.16,0.83,7.56,0.34
		c2.14-0.43,3.97-1.28,6.22-1.23c0.28,0.01,0.55,0.03,0.83,0.08h0.01c0.45,0.07,0.91,0.17,1.37,0.3c0,0,0,0,0.01,0
		c1.85,0.52,3.72,1.34,5.46,1c2.16-0.42,3.82-1.24,6.1-1.26c2.52-0.01,5.05,0.5,7.52,1c0.28,0.06,0.5,0.17,0.67,0.3
		c2.27,0.18,4.43-1.41,6.75-1.13c0.97,0.12,1.7,0.51,2.57,0.93c1.89,0.89,3.09,1.17,5.15,0.78c2.22-0.42,4.37-1.11,6.66-0.74
		c2.81,0.46,4.62,2.06,7.45,0.66c4.64-2.32,8.17-1.49,12.85,0.18c2.02,0.72,3.43,0.78,5.47-0.07c1.1-0.45,2.17-0.85,3.35-1.07
		c2.36-0.45,4.68-0.26,6.99,0.36c0.02,0.01,0.04,0.02,0.06,0.02c2.65,0.21,4.91-0.58,7.53-0.94
		C155.25,83.39,156.04,83.27,156.83,83.25z"/>
	<path class="st0" d="M156.83,0.03V15.1c-0.28,0.07-0.58,0.12-0.89,0.14c-1.05,0.07-2.08,0.1-3.1,0.05
		c-14.03,0.25-28.07,0.23-42.11,0.29c-14.76,0.06-29.95-1.22-44.63,0.73c-0.69,0.47-1.53,0.78-2.47,0.88
		c-5.5,0.57-10.31,0.2-15.7-0.94c-4.98-1.05-10.18-0.93-15.25-1c-5.21-0.08-10.45-0.01-15.63,0.63c-5.51,0.68-10.64,2.24-16.22,1.1
		C0.53,16.92,0.26,16.83,0,16.71V0.04c0.03-0.01,0.06-0.01,0.09-0.01c0.29-0.04,0.59-0.04,0.89,0c0.09,0.01,0.18,0.02,0.28,0.04
		c2.15,0.42,4.23,1.34,5.62,3c2-0.97,4.01-2.07,6.3-2.14c2.48-0.07,4.69,1.12,7.18,0.88c2.4-0.24,4.65-1.23,7.08-1.18
		c2.38,0.04,4.14,1.43,6.34,2.04c2.49,0.69,4.37-0.02,6.74-0.55c2.13-0.48,3.9,0.6,5.87,0.35c1.96-0.24,3.39-1.7,5.6-1.67
		c0.89,0.02,1.63,0.28,2.21,0.69c2.72-1.23,5.81,1.11,8.79,1.03c2.38-0.06,4.25-1.4,6.76-1.14c1.89,0.2,3.39,1.13,5.15,1.73
		c2.19,0.74,4.05,0.07,6.27-0.15c2.39-0.23,4.74,0.32,7.08-0.26c3.79-0.95,7.04-1.04,10.15,1.02c0.4,0.04,0.81,0.14,1.24,0.34
		c3.65,1.65,5.62,0.53,8.88-1.16c3.63-1.88,6.35-1.09,10-0.05c1.64,0.47,2.48-0.67,4.08-1.18c1.85-0.59,3.71-0.5,5.56,0.06
		c1.92,0.58,2.89,1.16,4.88,0.7c1.82-0.42,3.58-0.99,5.47-0.98c1.86,0.01,3.53,0.98,5.31,1.04c1.72,0.06,3.45-1.07,5.01-1.67
		c0.75-0.29,1.58-0.56,2.44-0.76H156.83z"/>
	<path class="st2" d="M156.83,11.69v10.12c-2.43-0.12-4.72-0.96-7.12-1.53c-3.35-0.81-5.96-0.64-9.31-0.09
		c-2.66,0.43-4.99-0.06-7.59-0.53c-1.87-0.33-3.39-0.28-5.19,0.29c-1.12,0.36-2.11,0.58-3.3,0.53c-1.38-0.07-2.67-0.53-4.02-0.74
		c-1.78-0.29-3.25,0.1-4.94,0.59c-2.38,0.69-4.37,0.91-6.76,0.13c-1.48-0.48-2.83-1.15-4.42-1.01c-1.09,0.1-2.08,0.58-3.19,0.64
		c-2.77,0.17-5.64-1.8-8.2-0.11c-2.86,1.87-6.05-1.14-9.26-0.32c-1.62,0.41-3.09,1.3-4.8,1.38c-2.25,0.09-4.1-1.1-6.4-0.66
		c-1.48,0.28-2.9,0.77-4.42,0.56c-0.72-0.1-1.29-0.47-1.97-0.6c-2.07-0.41-2.73,0.18-4.57,0.51c-1.68,0.29-2.92-0.2-4.55-0.56
		c-1.97-0.43-3.68,0.42-5.52,0.04c-0.08,0.06-0.17,0.1-0.26,0.13c-1.18,0.42-1.92-0.18-3.12-0.11c-1.19,0.08-2.21,0.49-3.43,0.26
		c-1.48-0.27-2.8-1.6-4.36-1.46c-0.87,0.07-1.52,0.39-2.31,0.53c-0.14,0.34-0.43,0.64-0.94,0.79c-1.68,0.5-2.71,0.43-4.36,0.04
		c-1.2-0.29-2.19-0.55-3.55-0.2c-0.71,0.18-1.25,0.48-2,0.5c-1.56,0.06-2.87-0.81-4.31-1.23c-1.91-0.57-3.14,0.37-4.9,0.74
		c-3.82,0.8-7.47-2.04-11.24-1.81c-2.21,0.13-2.96,2.11-4.76,2.9C1.18,21.68,0.59,21.81,0,21.82v-9.56
		c1.41-0.33,2.61-1.05,4.21-1.24c1.63-0.19,2.36,0.89,3.83,1.27c2.37,0.62,3.93-1.58,6.05-1.9c0.96-0.14,1.7,0.23,2.57,0.55
		c1.34,0.5,2.43,1.08,3.94,0.77c0.89-0.19,1.59-0.78,2.42-1.06c1.21-0.4,1.89-0.35,3.04,0.09c1.92,0.74,3.22,1.57,5.36,1.68
		c2.04,0.1,4.09-0.21,6.1-0.55c1.68-0.29,3.41-0.74,5.13-0.81c1.91-0.08,3.75,0.59,5.64,0.34c3.29-0.44,5.83-2.33,9.29-1.5
		c1.7,0.41,3.25,1.27,4.93,1.76c1.81,0.51,3.61,0.47,5.45,0.29c1.21-0.4,2.39-0.86,3.65-1.12c1.41-0.29,2.53,0.06,3.65,0.53
		c0.81,0.04,1.62,0.16,2.44,0.37c1.72-0.53,3.27-0.33,5.03,0.07c2.81,0.63,4.92,0.88,7.57-0.34c1.21-0.55,2.32-1.07,3.69-0.88
		c1.84,0.24,2.8,1.75,4.4,2.44c3.83,1.67,8.28-2.33,12.49-1.4c2.22,0.49,3.96,1.37,6.32,1.21c2.49-0.16,5.12-0.75,7.54-1.34
		c1.84-0.45,3.97-1.72,5.91-1.65c1.9,0.07,3.53,1.48,5.33,1.93c3.01,0.75,4.11-1.16,6.71-1.57c1.52-0.24,2.86,0.29,4.2,0.96
		c2.59,1.31,3.97,1.59,6.89,1.05C154.72,12.02,155.79,11.74,156.83,11.69z"/>
	<path class="st3" d="M156.83,10.97c0,0.82,0,1.63,0,2.45c-0.75-0.31-2.05-0.01-3.68,0.09c-0.83,0.05-1.53,0.23-2.08,0.41
		c0,0,0,0-0.01,0c-0.1,0.04-0.21,0.07-0.32,0.1c-1,0.28-1.72,0.2-2.48-0.09c-0.39-0.15-0.78-0.36-1.24-0.6
		c-1.16-0.64-2.33-1.47-3.65-1.76c-0.7-0.31-1.43-0.33-2.21-0.07c-0.16,0.32-0.36,0.62-0.58,0.89c-1.03,0.78-1.54,1.37-2.89,0.96
		c-0.18,0.13-0.4,0.21-0.69,0.22c-1.49,0.04-2.55-0.42-3.78-1.26c-0.72-0.5-1.81-1.64-2.7-1.72c-0.98-0.09-2,1.08-2.75,1.51
		c-2.88,1.62-6.74,1.16-9.92,1.3c-1.88,0.09-3.82,0.29-5.69,0.04c-2.05-0.28-3.82-1.43-5.92-0.8c-1.08,0.32-2.06,0.89-3.04,1.38
		c-0.01,0-0.01,0-0.01,0c-1.23,0.62-2.48,1.13-3.97,0.94c-0.89-0.11-1.64-0.47-2.32-0.93c-2.02-1.32-3.46-3.39-6.38-1.97
		c-1.22,0.59-2.37,1.3-3.76,1.38c-1.85,0.11-3.57-0.78-5.41-0.71c-1.49,0.06-2.83,0.36-4.33,0.07c-1.76-0.33-3.47-1.21-5.26-1.29
		c-2.16-0.1-3.38,1.39-5.3,1.92c-1.5,0.42-2.97,0.21-4.4-0.33c-0.07-0.03-0.15-0.07-0.21-0.11l-5.52-1.95
		c-2.1-0.75-3.34,0.06-5.21,0.91c-2.51,1.15-4.77,0.73-7.36,0.23c-2.26-0.43-3.51,0.66-5.55,1.2c-1.44,0.38-3.01,0.4-4.48,0.43
		c-2.59,0.07-5.29-0.01-7.69-1.08c-1.38-0.62-1.75-1.49-2.99-0.96c-0.87,0.37-1.17,1.07-2.24,1.26c-2.98,0.52-5.38-2.52-8.3-1.19
		c-1.93,0.88-3.19,2.62-5.52,1.73c-1.19-0.45-1.02-0.77-2.42-0.82c-1.08-0.04-1.42,0.2-2.4,0.44c-0.74,0.19-1.45,0.23-2.16,0.2
		v-2.47c1.66-0.01,2.54-0.83,4.21-1.04c1.18-0.15,1.67,0.35,2.69,0.77c2.96,1.21,4-1.58,6.86-1.76c1.16-0.07,2.18,0.34,3.23,0.77
		c0.85,0.34,1.96,1.07,2.9,0.99c0.87-0.08,1.49-1.02,2.18-1.41c1.94-1.1,2.65,0.03,4.36,0.98c2.89,1.59,7.95,1.68,11.12,0.81
		c1.27-0.35,2.3-1.17,3.6-1.42c1.5-0.29,2.8,0.17,4.25,0.47c2.04,0.42,3.85,0.22,5.67-0.89c1.04-0.63,1.75-1.34,3.03-1.33
		c2.74,0.02,6.1,1.97,8.67,2.87c0.06,0.02,0.12,0.06,0.17,0.09c3.38,1.11,5.81-2.14,9.32-1.73c1.87,0.21,3.58,1.08,5.43,1.36
		c1.84,0.28,3.6-0.4,5.44-0.13c2.22,0.32,3.61,0.9,5.8-0.17c1.06-0.51,2.11-1.16,3.32-1.26c2.95-0.23,3.99,2.32,6.4,3.31
		c2.9,1.19,5.68-2.03,8.6-2.29c1.58-0.14,2.87,0.57,4.36,0.93c2.03,0.48,4.22,0.2,6.28,0.11c1.99-0.09,4.08-0.01,6.05-0.28
		c2.38-0.33,3.06-1.75,4.99-2.4c3.36-1.13,5.05,2.93,8.12,2.84c0.02,0,0.05,0.01,0.07,0.01c0.26-0.25,0.63-0.36,1.08-0.19
		c0.18,0.06,2.27-2.14,3.03-2.27c1.56-0.27,3.58,0.77,4.93,1.39c1.88,0.87,2.55,1.64,3.9,1.53c0.95-0.08,0.85-0.45,1.89-0.52
		c1.24-0.08,1.81,0.42,3.68,0.61C156.13,11.72,156.56,10.97,156.83,10.97z"/>
	<path class="st3" d="M156.83,91.16v2.51c-1.65-0.16-3.39-0.25-5.04-0.38c-2.17-0.18-3.44,0.94-5.43,1.42
		c-4.28,1.02-7.33-3.53-11.62-1.49c-3.13,1.49-4.63,0.85-7.87,0.01c-2.87-0.75-5.43,2.14-8.13,0.77c-0.18,0.05-0.38,0.07-0.6,0.02
		c-2.41-0.48-4.74-2.45-7.18-2.51c-2.55-0.06-4.38,2.44-6.84,2.85c-1.81,0.3-3.44-0.36-5.04-1.09c-1.37-0.63-2.73-1.53-4.31-1.54
		c-1.4-0.01-2.7,0.75-3.96,1.24c-1.95,0.75-3.74,1.08-5.83,0.76c-1.5-0.23-2.81-0.86-4.25-1.24c-1.97-0.51-2.81-0.4-4.4,0.58
		c-1.6,0.99-3.16,1.1-4.99,0.73c-1.75-0.36-3.41-1.37-5.28-0.91c-1.3,0.32-2.43,1.27-3.47,2.07c-0.46,0.36-0.92,0.29-1.25,0.01
		c-2.65,0.4-4.56-0.93-6.62-2.6c-2.03-1.64-4.34-2.68-6.36-0.59c-0.75,0.78-1.37,1.68-2.29,2.29c-2.13,1.4-4.58,0.89-6.78-0.07
		c-2-0.88-3.81-2.25-6.08-1.74c-1.32,0.29-2.36,1.27-3.75,1.36c-1.34,0.09-2.44-0.8-3.79-0.66c-1.29,0.14-2.29,0.86-3.66,0.75
		c-2.84-0.24-5.71-3.24-8.53-1.86c-2.49,1.21-3.42,2.74-6.35,1.75c-0.61-0.21-1.21-0.62-1.86-0.71c-1.24-0.16-2.6,0.62-3.84,0.77
		C0.94,93.72,0.47,93.73,0,93.68v-2.53c1.53,0.09,2.71-0.58,4.34-0.72c1.16-0.1,1.99,0.37,3.07,0.65c2.25,0.56,3.04-0.34,4.83-1.35
		c0.22-0.13,0.45-0.24,0.68-0.34h0.01c0.69-0.29,1.41-0.44,2.17-0.42c0.67,0.02,1.32,0.17,1.95,0.39c0,0,0,0,0.01,0
		c2.06,0.73,3.96,2.17,6.18,1.86c1.16-0.17,2.13-0.88,3.35-0.78c1.6,0.13,2.4,0.86,4.05,0.15c2.47-1.06,4.13-1.3,6.72-0.25
		c1.57,0.64,3.25,1.96,4.97,2.03c2.03,0.09,3.03-0.99,4.3-2.35c0.23-0.25,0.47-0.48,0.72-0.7c1.25-1.12,2.7-1.79,4.5-1.42
		c0.98,0.2,1.88,0.75,2.76,1.42c0,0,0,0,0.01,0c2.07,1.57,4.01,3.73,6.51,3.19c0.23-0.06,0.44-0.04,0.62,0.02
		c1.76-1.31,3.63-2.39,5.92-2.21c1.35,0.11,2.59,0.68,3.9,0.98c1.92,0.43,2.87-0.2,4.47-1.07c1.94-1.07,3.32-0.84,5.35-0.12
		c3.73,1.32,6.29,1.42,9.94-0.01c2.25-0.89,4.16-1.05,6.44-0.17c1.1,0.43,2.11,1.06,3.21,1.48c2.13,0.81,3.4,0.4,5.36-0.72
		c1.12-0.64,2.14-1.21,3.27-1.46c0.74-0.17,1.51-0.21,2.37-0.06c0.1,0.02,0.19,0.04,0.29,0.06c0.01,0,0.01,0,0.01,0
		c2.1,0.45,3.92,1.72,5.99,2.29c0.33-0.23,0.76-0.27,1.19,0.04c1.3,0.94,4.16-1.04,5.73-1.08c1.23-0.03,2.4,0.42,3.55,0.78
		c1.02,0.32,2.26,0.8,3.36,0.55c1.07-0.25,2.05-1.19,3.11-1.55c1-0.34,1.98-0.4,3.02-0.21c2.07,0.39,3.83,1.94,5.9,2.18
		c2.31,0.28,3.55-1.28,5.65-1.62c1.3-0.21,2.46,0.36,3.74,0.38C154.67,91.01,155.73,91.15,156.83,91.16z"/>
	<path class="st4" d="M8.27,35.01c-3.87,0-3.87,6.01,0,6.01C12.14,41.01,12.14,35.01,8.27,35.01z"/>
	<path class="st4" d="M9.19,29.45c-2.74,0-2.75,4.26,0,4.26C11.93,33.71,11.93,29.45,9.19,29.45z"/>
	<path class="st4" d="M24.81,29.01c-3.7,0-3.7,5.74,0,5.74C28.51,34.76,28.51,29.01,24.81,29.01z"/>
	<path class="st4" d="M28.49,48.17c-3.88,0-3.89,6.03,0,6.03C32.37,54.2,32.37,48.17,28.49,48.17z"/>
	<path class="st4" d="M17.46,65c-4.3,0-4.3,6.68,0,6.68C21.76,71.67,21.76,65,17.46,65z"/>
	<path class="st4" d="M10.11,46.18c-3.68,0-3.69,5.72,0,5.72C13.79,51.9,13.79,46.18,10.11,46.18z"/>
	<path class="st4" d="M6.74,68.57c-2.85,0-2.85,4.43,0,4.43C9.59,73,9.59,68.57,6.74,68.57z"/>
	<path class="st4" d="M6.13,81.21c-3.93,0-3.93,6.1,0,6.1C10.05,87.32,10.06,81.21,6.13,81.21z"/>
	<path class="st4" d="M24.81,77.39c-4.11,0-4.12,6.39,0,6.39C28.92,83.78,28.93,77.39,24.81,77.39z"/>
	<path class="st4" d="M37.18,74.47c-0.19-0.51-0.64-0.9-1.34-0.9c-0.7,0-1.15,0.4-1.34,0.9c-2.5,1.21-2.06,5.79,1.34,5.79
		C39.23,80.26,39.69,75.68,37.18,74.47z"/>
	<path class="st4" d="M45.34,61.97c-3.46,0-3.47,5.38,0,5.38C48.8,67.35,48.81,61.97,45.34,61.97z"/>
	<path class="st4" d="M42.58,35.43c-3.71,0-3.72,5.77,0,5.77C46.29,41.2,46.3,35.43,42.58,35.43z"/>
	<path class="st4" d="M50.24,33.19c-3.83,0-3.84,5.96,0,5.96C54.07,39.15,54.08,33.19,50.24,33.19z"/>
	<path class="st4" d="M64.02,31.8c-4.05,0-4.06,6.29,0,6.29C68.07,38.09,68.08,31.8,64.02,31.8z"/>
	<path class="st4" d="M76.27,29.16c-3.9,0-3.9,6.05,0,6.05C80.17,35.22,80.18,29.16,76.27,29.16z"/>
	<path class="st4" d="M67.08,26.01c-3.62,0-3.62,5.62,0,5.62C70.7,31.63,70.71,26.01,67.08,26.01z"/>
	<path class="st4" d="M54.83,26.08c-3.93,0-3.93,6.1,0,6.1C58.76,32.18,58.76,26.08,54.83,26.08z"/>
	<path class="st4" d="M64.02,56.85c-4.14,0-4.15,6.44,0,6.44C68.16,63.28,68.17,56.85,64.02,56.85z"/>
	<path class="st4" d="M56.06,71.36c-3.6,0-3.61,5.6,0,5.6C59.66,76.96,59.67,71.36,56.06,71.36z"/>
	<path class="st4" d="M74.44,66.94c-4.16,0-4.16,6.46,0,6.46C78.59,73.41,78.6,66.94,74.44,66.94z"/>
	<path class="st4" d="M59.12,43.5c-2.79,0-2.79,4.33,0,4.33C61.91,47.83,61.91,43.5,59.12,43.5z"/>
	<path class="st4" d="M89.75,37.15c-4.65,0-4.66,7.23,0,7.23C94.4,44.38,94.41,37.15,89.75,37.15z"/>
	<path class="st4" d="M85.77,63.33c-3.3,0-3.3,5.12,0,5.12C89.06,68.45,89.07,63.33,85.77,63.33z"/>
	<path class="st4" d="M95.88,69.94c-2.66,0-2.67,4.14,0,4.14C98.54,74.08,98.55,69.94,95.88,69.94z"/>
	<path class="st4" d="M113.34,75.38c-1.32,0-1.75,1.38-1.3,2.28c-1.72,0.08-1.7,2.79,0.08,2.79c1.17,0,1.58-1.18,1.22-2.01
		c0,0,0,0,0,0C115.31,78.44,115.31,75.38,113.34,75.38z"/>
	<path class="st4" d="M112.11,53.62c-3.96,0-3.96,6.15,0,6.15C116.07,59.77,116.08,53.62,112.11,53.62z"/>
	<path class="st4" d="M115.47,37.95c1.1-1.96,0.19-5.09-2.75-5.09c-4.27,0-4.27,6.63,0,6.63c0.44,0,0.84-0.07,1.19-0.2
		c0.02,0.64,0.44,1.26,1.27,1.26C116.76,40.55,116.86,38.24,115.47,37.95z"/>
	<path class="st4" d="M117.32,22.82c-2.2,0-2.21,3.42,0,3.42C119.52,26.24,119.53,22.82,117.32,22.82z"/>
	<path class="st4" d="M124.06,31.88c-1.97,0-1.97,3.06,0,3.06C126.03,34.95,126.03,31.88,124.06,31.88z"/>
	<path class="st4" d="M135.39,33.38c-3.99,0-3.99,6.2,0,6.2C139.38,39.58,139.39,33.38,135.39,33.38z"/>
	<path class="st4" d="M97.72,25.26c-4.19,0-4.2,6.51,0,6.51C101.9,31.77,101.91,25.26,97.72,25.26z"/>
	<path class="st4" d="M137.23,50.14c-4.5,0-4.5,6.99,0,6.99C141.73,57.13,141.73,50.14,137.23,50.14z"/>
	<path class="st4" d="M126.82,65.72c-3.76,0-3.76,5.84,0,5.84C130.57,71.56,130.58,65.72,126.82,65.72z"/>
	<path class="st4" d="M138.26,77.98c0.77-0.82,0.43-2.55-1.03-2.55c-1.02,0-1.49,0.85-1.42,1.63c-3.96,0.21-3.9,6.45,0.2,6.45
		C139.18,83.51,139.93,79.76,138.26,77.98z"/>
	<path class="st4" d="M149.56,69.81c1-0.6,0.78-2.51-0.69-2.51c-1.6,0-1.72,2.28-0.38,2.64c-3.39,0.95-3.07,6.73,0.99,6.73
		C153.88,76.67,153.91,69.89,149.56,69.81z"/>
	<path class="st4" d="M154.69,54.8c-0.08,0-0.15,0.01-0.23,0.02c0.45-1.92-0.59-4.24-3.14-4.24c-4.33,0-4.33,6.72,0,6.72
		c0.93,0,1.66-0.31,2.19-0.8c0.14,0.48,0.53,0.87,1.18,0.87C156.34,57.37,156.35,54.8,154.69,54.8z"/>
	<path class="st4" d="M146.11,35.16c-3.28,0-3.29,5.1,0,5.1C149.39,40.25,149.4,35.16,146.11,35.16z"/>
	<path class="st4" d="M146.73,22.5c-3.8,0-3.81,5.91,0,5.91C150.53,28.41,150.54,22.5,146.73,22.5z"/>
	<path class="st5" d="M12.25,25.17c-2.73,0-2.73,4.24,0,4.24C14.98,29.41,14.98,25.17,12.25,25.17z"/>
	<path class="st5" d="M6.74,24c-3.05,0-3.05,4.74,0,4.74C9.79,28.74,9.79,24,6.74,24z"/>
	<path class="st5" d="M7.05,49.26c-4.05,0-4.06,6.29,0,6.29C11.1,55.55,11.1,49.26,7.05,49.26z"/>
	<path class="st5" d="M7.35,64.97H6.74c-0.8,0-1.57,0.7-1.53,1.53c0.04,0.83,0.67,1.53,1.53,1.53h0.61c0.8,0,1.57-0.7,1.53-1.53
		C8.85,65.67,8.21,64.97,7.35,64.97z"/>
	<path class="st5" d="M18.69,58.56c-3.91,0-3.92,6.08,0,6.08C22.6,64.64,22.6,58.56,18.69,58.56z"/>
	<path class="st5" d="M26.65,46.2c-2.46,0-2.47,3.83,0,3.83C29.11,50.03,29.12,46.2,26.65,46.2z"/>
	<path class="st5" d="M34.61,59.76c-1.97,0-1.97,3.06,0,3.06C36.58,62.82,36.59,59.76,34.61,59.76z"/>
	<path class="st5" d="M32.78,25.1c-4.39,0-4.4,6.82,0,6.82C37.16,31.93,37.17,25.1,32.78,25.1z"/>
	<path class="st5" d="M49.93,41.32c-4.02,0-4.03,6.25,0,6.25C53.95,47.57,53.96,41.32,49.93,41.32z"/>
	<path class="st5" d="M44.72,68.03c-1.97,0-1.97,3.06,0,3.06C46.69,71.09,46.7,68.03,44.72,68.03z"/>
	<path class="st5" d="M26.34,78.38c-3.23,0-3.24,5.03,0,5.03C29.58,83.41,29.58,78.38,26.34,78.38z"/>
	<path class="st5" d="M59.69,73.89c-0.06-0.05-0.11-0.09-0.17-0.14c-0.38-0.3-0.74-0.55-1.2-0.7c-0.58-0.19-1.23-0.09-1.78,0.14
		c-0.96,0.4-1.73,1.41-1.68,2.49c0.04,0.95,0.51,1.86,1.35,2.36c0.53,0.31,1.14,0.4,1.74,0.32c0.25,0,0.48-0.06,0.69-0.19
		c0.34-0.11,0.63-0.3,0.88-0.56c0.06-0.05,0.11-0.09,0.17-0.14c0.46-0.36,0.77-1.23,0.74-1.79C60.4,75.06,60.2,74.3,59.69,73.89z"/>
	<path class="st5" d="M72.6,68.05c-3.91,0-3.92,6.08,0,6.08C76.51,74.13,76.52,68.05,72.6,68.05z"/>
	<path class="st5" d="M65.55,49.28c-4.02,0-4.03,6.25,0,6.25C69.57,55.53,69.58,49.28,65.55,49.28z"/>
	<path class="st5" d="M82.09,44.54c-3.82,0-3.83,5.93,0,5.93C85.91,50.47,85.92,44.54,82.09,44.54z"/>
	<path class="st5" d="M83.32,56.7c-1.97,0-1.97,3.06,0,3.06C85.29,59.76,85.29,56.7,83.32,56.7z"/>
	<path class="st5" d="M100.04,58.76c0.75-0.15,1.37-1,1.34-1.75c-0.03-0.59-0.34-1.22-0.85-1.55c-0.2-0.47-0.62-0.83-1.28-0.83
		c-0.78,0-1.23,0.5-1.36,1.09c-0.32,0.36-0.52,0.8-0.52,1.29c0,0.23,0.05,0.46,0.13,0.67c-0.22-0.04-0.46-0.07-0.71-0.07
		c-4.34,0-4.35,6.75,0,6.75c3.15,0,4.02-3.55,2.59-5.5c0.12-0.01,0.24-0.02,0.36-0.04C99.84,58.79,99.94,58.78,100.04,58.76z"/>
	<path class="st5" d="M104.76,47.2c-1.97,0-1.97,3.06,0,3.06C106.73,50.26,106.74,47.2,104.76,47.2z"/>
	<path class="st5" d="M86.08,27.91c-1.37,0-2.26,0.74-2.67,1.7c-0.22-0.45-0.65-0.8-1.31-0.8c-1.97,0-1.97,3.06,0,3.06
		c0.47,0,0.82-0.18,1.07-0.44c0.18,1.35,1.15,2.57,2.91,2.57C90,34.02,90.01,27.91,86.08,27.91z"/>
	<path class="st5" d="M87.91,66.11c-4.05,0-4.06,6.29,0,6.29C91.96,72.4,91.97,66.11,87.91,66.11z"/>
	<path class="st5" d="M93.73,77.6c-3.85,0-3.86,5.98,0,5.98C97.58,83.58,97.59,77.6,93.73,77.6z"/>
	<path class="st5" d="M116.71,75.11c-3.9,0-3.9,6.05,0,6.05C120.6,81.17,120.61,75.11,116.71,75.11z"/>
	<path class="st5" d="M122.22,70.49c-0.45,0-0.84,0.08-1.19,0.22c0.3-0.83-0.12-1.95-1.26-1.95c-1.81,0-1.81,2.81,0,2.81
		c0.05,0,0.1-0.01,0.15-0.01c-1.34,1.75-0.58,5.03,2.3,5.03C126.15,76.6,126.15,70.49,122.22,70.49z"/>
	<path class="st5" d="M118.85,54.81c-3.22,0-3.22,5,0,5C122.07,59.81,122.07,54.81,118.85,54.81z"/>
	<path class="st5" d="M130.19,45.66c-4.34,0-4.35,6.75,0,6.75C134.53,52.41,134.53,45.66,130.19,45.66z"/>
	<path class="st5" d="M124.73,32.81c0.49-1.76-0.45-3.98-2.82-3.98c-2.63,0-3.5,2.74-2.61,4.54c-1.16,2.07-0.19,5.38,2.91,5.38
		C125.62,38.76,126.46,34.78,124.73,32.81z"/>
	<path class="st5" d="M141.21,43.46c-4.42,0-4.43,6.87,0,6.87c0.31,0,0.6-0.04,0.86-0.1c-0.02,0.2,0.1,0.42,0.36,0.42
		c0.37,0,0.46-0.42,0.28-0.64C145.56,48.65,145.06,43.46,141.21,43.46z"/>
	<path class="st5" d="M145.81,29.08c-1.28,0-2.15,0.64-2.61,1.51c-0.03-0.69-0.48-1.35-1.37-1.35c-1.83,0-1.83,2.84,0,2.84
		c0.45,0,0.79-0.17,1.02-0.44c-0.26,1.71,0.72,3.66,2.96,3.66C149.81,35.3,149.82,29.08,145.81,29.08z"/>
	<path class="st5" d="M143.66,65.2c-2.46,0-2.47,3.83,0,3.83C146.13,69.03,146.13,65.2,143.66,65.2z"/>
	<path class="st5" d="M141.21,73.21c-3.19,0-3.19,4.95,0,4.95C144.4,78.16,144.41,73.21,141.21,73.21z"/>
	<path class="st5" d="M145.81,54.88c-3.53,0-3.53,5.48,0,5.48C149.33,60.36,149.34,54.88,145.81,54.88z"/>
	<path class="st5" d="M154.08,30.47c-2.22,0-2.22,3.45,0,3.45C156.3,33.91,156.3,30.47,154.08,30.47z"/>
	<path class="st5" d="M2.14,29.67c-1.28,0-1.28,1.98,0,1.98C3.42,31.65,3.42,29.67,2.14,29.67z"/>
	<path class="st5" d="M5.51,34.3c-0.04,0-0.04,0.06,0,0.06C5.55,34.37,5.55,34.3,5.51,34.3z"/>
	<path class="st5" d="M3.06,47.48c-0.04,0-0.04,0.06,0,0.06C3.1,47.54,3.1,47.48,3.06,47.48z"/>
	<path class="st5" d="M2.14,52.38c-0.04,0-0.04,0.06,0,0.06C2.18,52.44,2.18,52.38,2.14,52.38z"/>
	<path class="st5" d="M0.92,51.46c-0.04,0-0.04,0.06,0,0.06C0.96,51.52,0.96,51.46,0.92,51.46z"/>
	<path class="st5" d="M1.23,68.31c-0.04,0-0.04,0.06,0,0.06C1.26,68.37,1.26,68.31,1.23,68.31z"/>
	<path class="st5" d="M10.11,67.39c-0.04,0-0.04,0.06,0,0.06C10.15,67.45,10.15,67.39,10.11,67.39z"/>
	<path class="st5" d="M13.17,64.63c-0.04,0-0.04,0.06,0,0.06C13.21,64.69,13.21,64.63,13.17,64.63z"/>
	<path class="st5" d="M15.32,56.05c-0.04,0-0.04,0.06,0,0.06C15.36,56.11,15.36,56.05,15.32,56.05z"/>
	<path class="st5" d="M4.59,57.65c-0.74,0-0.74,1.15,0,1.15C5.33,58.8,5.34,57.65,4.59,57.65z"/>
	<path class="st5" d="M4.25,59.62c0.03-0.61-0.69-1.24-1.3-0.99c-0.12,0.05-0.23,0.1-0.33,0.16c-0.04,0.01-0.12,0.05-0.27,0.12
		c-0.22,0.14-0.37,0.33-0.53,0.53c-0.49,0.58-0.51,1.4,0.13,1.9c0.6,0.46,1.47,0.3,1.87-0.36c0.07-0.12,0.16-0.25,0.23-0.38
		c0.1-0.2,0.14-0.37,0.15-0.56C4.21,59.91,4.24,59.77,4.25,59.62z"/>
	<path class="st5" d="M11.03,57.7c-1.47,0-1.47,2.28,0,2.28C12.5,59.98,12.5,57.7,11.03,57.7z"/>
	<path class="st5" d="M26.04,60.9c-0.71-0.04-1.43,0.04-2.14,0.08c-0.79,0.05-1.4,0.75-1.18,1.55c0.21,0.78,1.11,1.11,1.8,0.73
		c0.63-0.34,1.28-0.66,1.88-1.07C26.96,61.81,26.75,60.94,26.04,60.9z"/>
	<path class="st5" d="M29.1,56.36c-0.04,0-0.04,0.06,0,0.06C29.14,56.42,29.14,56.36,29.1,56.36z"/>
	<path class="st5" d="M33.39,50.23c-0.04,0-0.04,0.06,0,0.06C33.43,50.29,33.43,50.23,33.39,50.23z"/>
	<path class="st5" d="M40.13,56.36c-0.04,0-0.04,0.06,0,0.06C40.17,56.42,40.17,56.36,40.13,56.36z"/>
	<path class="st5" d="M46.25,59.12c-0.04,0-0.04,0.06,0,0.06C46.29,59.18,46.29,59.12,46.25,59.12z"/>
	<path class="st5" d="M50.85,58.78c-0.87,0-0.87,1.35,0,1.35C51.72,60.13,51.72,58.78,50.85,58.78z"/>
	<path class="st5" d="M38.12,47.05c-0.13-0.06-0.25-0.12-0.38-0.18c-0.68-0.33-1.34,0.33-1.01,1.01c0.06,0.13,0.12,0.25,0.18,0.38
		c0.25,0.52,1.01,0.56,1.39,0.18C38.68,48.06,38.64,47.3,38.12,47.05z"/>
	<path class="st5" d="M32.19,41.4c-0.22,0.19-0.45,0.37-0.67,0.56c-0.48,0.4,0.28,1.16,0.68,0.68c0.19-0.22,0.37-0.45,0.56-0.67
		C33.09,41.57,32.58,41.07,32.19,41.4z"/>
	<path class="st5" d="M55.14,67.43c-1.96,0-1.96,3.04,0,3.04C57.1,70.47,57.1,67.43,55.14,67.43z"/>
	<path class="st5" d="M62.18,71.25c-2.16,0-2.17,3.36,0,3.36C64.34,74.61,64.35,71.25,62.18,71.25z"/>
	<path class="st5" d="M70.76,75.98c-1.2,0-1.2,1.87,0,1.87C71.96,77.85,71.96,75.98,70.76,75.98z"/>
	<path class="st5" d="M69.53,81.3c-1.45,0-1.45,2.25,0,2.25C70.98,83.55,70.99,81.3,69.53,81.3z"/>
	<path class="st5" d="M65.55,79.95c-2,0-2.01,3.12,0,3.12C67.56,83.07,67.56,79.95,65.55,79.95z"/>
	<path class="st5" d="M58.51,78.82c-1.88,0-1.89,2.93,0,2.93C60.39,81.75,60.39,78.82,58.51,78.82z"/>
	<path class="st5" d="M68.31,64.26c-1.7,0-1.7,2.64,0,2.64C70.01,66.9,70.01,64.26,68.31,64.26z"/>
	<path class="st5" d="M78.42,50.11c-0.59,0-0.59,0.92,0,0.92C79.01,51.03,79.01,50.11,78.42,50.11z"/>
	<path class="st5" d="M79.34,40.99c-1.69,0-1.69,2.63,0,2.63C81.03,43.61,81.03,40.99,79.34,40.99z"/>
	<path class="st5" d="M68.62,43.27c-1.9,0-1.91,2.96,0,2.96C70.52,46.23,70.52,43.27,68.62,43.27z"/>
	<path class="st5" d="M87.91,47.88c-1.88,0-1.89,2.93,0,2.93C89.8,50.81,89.8,47.88,87.91,47.88z"/>
	<path class="st5" d="M104.76,54.13c-2.12,0-2.12,3.29,0,3.29C106.88,57.42,106.88,54.13,104.76,54.13z"/>
	<path class="st5" d="M108.13,38.31c-1.58,0-1.58,2.46,0,2.46C109.71,40.77,109.71,38.31,108.13,38.31z"/>
	<path class="st5" d="M103.54,30.7c-1.92,0-1.92,2.99,0,2.99C105.46,33.68,105.46,30.7,103.54,30.7z"/>
	<path class="st5" d="M111.5,32.56c-1.88,0-1.89,2.93,0,2.93C113.38,35.49,113.39,32.56,111.5,32.56z"/>
	<path class="st5" d="M116.09,44.72c-0.04,0-0.04,0.06,0,0.06C116.13,44.78,116.13,44.72,116.09,44.72z"/>
	<path class="st5" d="M119.46,63.1c-0.04,0-0.04,0.06,0,0.06C119.5,63.16,119.5,63.1,119.46,63.1z"/>
	<path class="st5" d="M105.68,69.68c-1.82,0-1.82,2.83,0,2.83C107.5,72.51,107.5,69.68,105.68,69.68z"/>
	<path class="st5" d="M114.87,69.3c-1.52,0-1.53,2.37,0,2.37C116.39,71.67,116.4,69.3,114.87,69.3z"/>
	<path class="st5" d="M130.19,70.33c-0.98,0-0.98,1.52,0,1.52C131.16,71.85,131.17,70.33,130.19,70.33z"/>
	<path class="st5" d="M140.6,67.74c-0.02-0.31-0.16-0.64-0.45-0.79c-0.38-0.19-0.74-0.22-1.13-0.07c-0.05,0.02-0.1,0.04-0.15,0.06
		c-0.04,0-0.07-0.01-0.11-0.01c-1.8,0-1.8,2.8,0,2.8c0.64,0,1.05-0.35,1.23-0.81C140.33,68.6,140.63,68.24,140.6,67.74z"/>
	<path class="st5" d="M132.33,58.82c-2,0-2,3.1,0,3.1C134.33,61.92,134.33,58.82,132.33,58.82z"/>
	<path class="st5" d="M135.39,61.22c-2.06,0-2.06,3.2,0,3.2C137.45,64.42,137.46,61.22,135.39,61.22z"/>
	<path class="st5" d="M141.88,33.42c0-0.07-0.11-0.07-0.11,0c0,0.2-0.01,0.41-0.01,0.61c0,0.09,0.15,0.09,0.14,0
		C141.89,33.82,141.89,33.62,141.88,33.42z"/>
	<path class="st5" d="M134.47,30.36c-1.17,0-1.18,1.82,0,1.82C135.65,32.18,135.65,30.36,134.47,30.36z"/>
	<path class="st5" d="M131.1,27.14c-1.38,0-1.38,2.14,0,2.14C132.48,29.28,132.48,27.14,131.1,27.14z"/>
	<path class="st5" d="M150.1,37.91c-1.71,0-1.71,2.66,0,2.66C151.81,40.56,151.81,37.91,150.1,37.91z"/>
	<path class="st5" d="M151.01,46.55c-2.01,0-2.02,3.13,0,3.13C153.03,49.68,153.03,46.55,151.01,46.55z"/>
	<path class="st5" d="M155.3,47.88c-1.09,0-1.09,1.69,0,1.69C156.39,49.58,156.4,47.88,155.3,47.88z"/>
	<path class="st5" d="M155,62.49c-0.04,0-0.04,0.06,0,0.06C155.04,62.55,155.04,62.49,155,62.49z"/>
	<path class="st5" d="M153.26,72.93c-0.01-0.13-0.19-0.13-0.2,0c-0.01,0.1-0.01,0.2-0.02,0.31c-0.01,0.16,0.26,0.16,0.24,0
		C153.27,73.14,153.27,73.03,153.26,72.93z"/>
	<path class="st5" d="M149.75,76.3c-0.03-0.34-0.5-0.34-0.53,0c-0.02,0.2-0.03,0.41-0.05,0.61c-0.03,0.41,0.67,0.41,0.63,0
		C149.78,76.71,149.77,76.5,149.75,76.3z"/>
	<path class="st5" d="M150.1,74.13c-0.04,0-0.04,0.06,0,0.06C150.14,74.19,150.14,74.13,150.1,74.13z"/>
	<path class="st5" d="M151.63,74.45c-0.65,0-1.26,0.57-1.23,1.23c0.03,0.67,0.54,1.23,1.23,1.23c0.65,0,1.26-0.57,1.23-1.23
		C152.83,75.02,152.32,74.45,151.63,74.45z"/>
	<path class="st5" d="M152.42,79.33c-0.12-0.23-0.24-0.46-0.37-0.68c-0.26-0.45-0.74-0.75-1.27-0.6c-0.53,0.14-0.78,0.65-0.79,1.16
		c0,0.26,0.01,0.52,0.02,0.78c0.03,0.83,0.81,1.47,1.64,1.25C152.46,81,152.8,80.06,152.42,79.33z"/>
	<path class="st5" d="M46.87,26.83c-0.56,0-1.1,0.49-1.07,1.07c0.03,0.58,0.47,1.07,1.07,1.07c0.56,0,1.1-0.49,1.07-1.07
		C47.91,27.32,47.47,26.83,46.87,26.83z"/>
	<circle class="st4" cx="21.44" cy="34.03" r="0.88"/>
	<path class="st4" d="M16.85,35.96c-1.85,0-1.85,2.87,0,2.87C18.7,38.83,18.7,35.96,16.85,35.96z"/>
	<path class="st4" d="M19.29,25.51c-0.76-0.21-1.51,0.38-1.53,1.16c-0.01,0.47-0.08,0.94,0.18,1.34c0.05,0.11,0.11,0.21,0.2,0.3
		c0.17,0.19,0.49,0.27,0.73,0.19c0.12-0.04,0.22-0.09,0.32-0.16c0.42-0.21,0.6-0.66,0.82-1.07C20.39,26.6,20.05,25.72,19.29,25.51z"
		/>
	<path class="st4" d="M25.12,53.93c-1.98,0-1.98,3.07,0,3.07C27.1,57.01,27.1,53.93,25.12,53.93z"/>
	<path class="st4" d="M19.6,75.04c-1.63,0-1.63,2.53,0,2.53C21.23,77.56,21.23,75.04,19.6,75.04z"/>
	<path class="st4" d="M51.46,77.47c-1.64,0-1.65,2.56,0,2.56C53.11,80.03,53.11,77.47,51.46,77.47z"/>
	<path class="st4" d="M49.32,73.26c-1.54,0-1.55,2.4,0,2.4C50.86,75.66,50.86,73.26,49.32,73.26z"/>
	<path class="st4" d="M39.52,55.3c-1.79,0-1.8,2.79,0,2.79C41.31,58.09,41.31,55.3,39.52,55.3z"/>
	<path class="st4" d="M47.48,50.62c-1.91,0-1.92,2.97,0,2.97C49.39,53.59,49.39,50.62,47.48,50.62z"/>
	<path class="st4" d="M75.35,58.99c-1.78,0-1.79,2.77,0,2.77C77.14,61.76,77.14,58.99,75.35,58.99z"/>
	<path class="st4" d="M73.21,51.56c-1.88,0-1.89,2.93,0,2.93C75.09,54.49,75.1,51.56,73.21,51.56z"/>
	<path class="st4" d="M83.62,55.57c-1.85,0-1.85,2.87,0,2.87C85.47,58.44,85.48,55.57,83.62,55.57z"/>
	<path class="st4" d="M84.24,68.65c-1.57,0-1.57,2.44,0,2.44C85.81,71.09,85.81,68.65,84.24,68.65z"/>
	<path class="st4" d="M98.02,75.25c-1.75,0-1.75,2.71,0,2.71C99.77,77.96,99.77,75.25,98.02,75.25z"/>
	<path class="st4" d="M146.11,26.78c-1.84,0-1.84,2.86,0,2.86C147.95,29.64,147.96,26.78,146.11,26.78z"/>
	<path class="st4" d="M108.13,52.78c-1.49,0-1.49,2.31,0,2.31C109.62,55.1,109.62,52.78,108.13,52.78z"/>
	<path class="st4" d="M103.23,56.1c-1.95,0-1.95,3.03,0,3.03C105.18,59.13,105.18,56.1,103.23,56.1z"/>
	<path class="st4" d="M90.06,50.01c-1.9,0-1.91,2.96,0,2.96C91.96,52.97,91.96,50.01,90.06,50.01z"/>
	<path class="st4" d="M95.57,48.37c-1.64,0-1.65,2.56,0,2.56C97.22,50.93,97.22,48.37,95.57,48.37z"/>
	<path class="st4" d="M98.33,45.1c-1.91,0-1.92,2.97,0,2.97C100.24,48.07,100.24,45.1,98.33,45.1z"/>
</g>
</svg>
