<?xml version="1.0" encoding="utf-8"?>
<!-- Generator: Adobe Illustrator 25.2.3, SVG Export Plug-In . SVG Version: 6.00 Build 0)  -->
<svg version="1.1" id="Layer_1" xmlns="http://www.w3.org/2000/svg" xmlns:xlink="http://www.w3.org/1999/xlink" x="0px" y="0px"
	 viewBox="0 0 203.91 203.91" style="enable-background:new 0 0 208.91 208.91;" xml:space="preserve">
<style type="text/css">
	.st0{fill:#D6AD29;}
	.st1{fill:#B79D1D;}
	.st2{fill:#A5B508;}
	.st3{fill:#557507;}
	.st4{fill:#C6A028;}
	.st5{fill:#E2BD23;}
</style>
<g>
	<path class="st0" d="M208.91,67.95v70.36c-1.01,0.03-2.01,0.07-2.97,0.12c-5.2,0.31-10.24,0.94-15.3,2.19
		c-7.23,1.77-14.65,4.15-21.68,7.06c-0.11,0.87-0.51,1.69-1.3,2.32c-2.7,2.13-5.27,4.41-7.69,6.84c-1.08,1.07-2.13,2.19-3.14,3.33
		c-2.28,2.55-4.39,5.25-6.31,8.09c-0.69,1.02-1.35,2.06-1.97,3.1c-0.9,1.49-1.74,3-2.53,4.53c-0.42,0.81-0.82,1.62-1.21,2.44
		c-0.27,0.57-0.54,1.14-0.8,1.72c-1.8,3.93-3.35,7.98-4.83,12.09c-0.26,5.59-0.38,11.17-0.33,16.77H70.75
		c-0.09-1.19-0.14-2.37-0.33-3.44c-0.73-4.07-2.19-8.01-3.8-11.81c-2.92-6.86-6.35-13.59-7.99-20.88c-2.05-1.17-3.3-3.26-4.56-5.27
		c-0.63-1.01-1.29-2-1.98-2.97c-2.6-3.68-5.62-7.05-9.21-9.81c-4.81-3.69-10.31-6.56-15.61-9.46c-5.17-2.84-10.59-5.33-16.54-5.75
		c-0.91-0.06-1.65-0.33-2.27-0.74c-2.81-0.18-5.62-0.29-8.44-0.32V69.23c3.85-1.16,8.37-1.1,12.15-1.36
		c4.71-0.31,9.26-1.08,13.77-2.54c8.22-2.66,15.76-7.33,22.02-13.25c0.49-0.46,0.97-0.93,1.44-1.4c0.94-0.94,1.83-1.92,2.7-2.92
		c2.22-2.57,4.24-5.3,6.25-8.07c1.76-2.41,3.85-6.1,6.49-8.38c3.15-10.22,5.1-20.65,5.63-31.31h68.8c0.02,1.02,0.04,2.03,0.07,3.02
		c0.11,3.12,0.5,6.1,1.29,9.12c3.08,11.82,10.3,22.89,17.25,32.81c1.76,2.52,3.63,4.92,5.65,7.12c5.6,6.14,12.3,10.79,20.91,12.58
		C192.58,66.34,200.87,66.4,208.91,67.95z"/>
	<path class="st1" d="M208.91,134.36v10.84c-0.72-0.32-1.61-1.75-2.52-1.98c-0.02-0.01-0.06-0.02-0.09-0.02h-0.01
		c-0.83-0.21-1.67-0.33-2.41-0.28c-0.02,0.02-0.04,0.05-0.06,0.07c-0.29,0.34-0.8,0.42-1.23,0.29c-1.37,0.7-2.35,2.11-3.82,2.75
		c-1.64,0.71-1.87,0.1-3.12-0.47c0,0,0,0-0.01,0c-0.07-0.02-0.14-0.06-0.21-0.09c-0.19-0.52-0.49-0.6-0.9-0.24
		c-0.35,0.06-0.63,0.23-0.85,0.51c-0.45,0.29-0.81,0.73-1.29,1c-0.14,0.09-0.28,0.15-0.42,0.21c-0.72,0.34-1.48,0.45-2.27,0.62
		c-0.24,0.06-0.44,0.12-0.63,0.21c-0.01,0.01-0.01,0.01-0.01,0.01c-0.55,0.24-0.93,0.59-1.54,0.78c-0.37,0.12-0.75,0.19-1.11,0.25
		c-0.01,0-0.01,0-0.02,0.01h-0.02c-0.44,0.08-0.86,0.15-1.26,0.29c-0.01,0-0.01,0-0.02,0.01c-0.5,0.17-0.94,0.47-1.32,1.05
		c-0.08,0.24-0.25,0.47-0.53,0.63c-2.02,1.19-3.97,0.61-6.08,1.29c-1.5,0.48-1.87,1.68-2.63,2.6c-0.28,0.34-0.61,0.64-1.07,0.85
		c-0.55,0.26-0.98,0.26-1.37,0.25c-0.17-0.01-0.34-0.02-0.5-0.02c-0.03,0.04-0.06,0.09-0.09,0.13c-0.56,0.72-1.13,1.23-1.83,1.76
		c0.01,0.1,0.01,0.19,0.01,0.29v0.01c-0.01,0.1-0.04,0.2-0.12,0.29c-0.69,0.87-1.44,1.02-2.34,1c-0.1,0.15-0.2,0.31-0.28,0.47
		c-0.33,0.7-0.2,1.36-0.78,2c-1.04,1.12-2.51,0.82-3.83,0.97h-0.01c-0.01,0-0.01,0-0.01,0c-0.81,0.1-1.57,0.36-2.13,1.23
		c-0.18,0.27-0.31,0.57-0.39,0.88c-0.01,0.02-0.02,0.05-0.02,0.07c-0.18,0.62-0.23,1.3-0.3,1.98c0,0,0,0.01,0,0.01
		c0,0.01,0,0.01,0,0.01c-0.12,1.15-0.32,2.26-1.32,2.99c-0.59,0.42-1.19,0.34-1.81,0.59c-1.09,0.42-0.6-0.07-0.95,0.8v0.01
		c-0.03,0.06-0.06,0.12-0.09,0.19c-0.49,1.08-1.15,1.84-1.58,2.73c-0.31,0.63-0.28,1.23-0.8,1.81c-0.26,0.29-0.65,0.44-0.95,0.66
		c-0.07,0.05-0.14,0.1-0.2,0.17c-0.65,0.67-1.04,1.56-1.15,2.54c-0.17,1.51-0.13,1.61-1.19,2.57c-0.01,0.01-0.01,0.01-0.01,0.01
		c-0.07,0.06-0.13,0.11-0.2,0.18c-0.18,0.16-0.36,0.26-0.53,0.32c-0.54,0.22-0.92,0.17-0.72,1.35c0,0,0,0.01,0,0.01
		c0.01,0.07,0.03,0.17,0.05,0.25c0.09,0.44,0.59,0.93,0.79,1.34c0.18,0.39,0.29,0.75,0.37,1.13c0.39,0.34,0.55,0.88,0.16,1.42
		c-0.04,0.07-0.09,0.13-0.15,0.19c-1.24,1.64-2.81,2.24-3.74,3.86c-0.04,0.07-0.09,0.13-0.12,0.21c-0.21,0.39-0.37,0.83-0.5,1.35
		c-0.21,0.88-0.42,1.75-0.64,2.62v0.01c0,0.01,0,0.02-0.01,0.02l-0.09,0.33c0,0.01,0,0.01-0.01,0.02c-0.2,0.77-0.4,1.53-0.63,2.29
		c0.06,0.03,0.12,0.07,0.17,0.11c0.62,0.41,1.04,1.02,1.18,1.94c0.03,0.18,0.04,0.34,0.04,0.5c0,0.01,0,0.01,0,0.01
		c-0.01,0.55-0.19,1.02-0.31,1.61c-0.15,0.71-0.24,1.3-0.29,1.88c0,0.01,0,0.01,0,0.01c-0.05,0.61-0.05,1.24-0.01,2.02
		c0.03,0.67,0.04,1.38-0.15,1.98h-9.91c-0.14-1.41-0.43-2.82-0.21-4.14c0.15-0.85,0.56-0.96,0.36-1.8
		c-0.09-0.36-0.62-0.75-0.78-1.12c-0.58-1.34,0.1-1.65,0.5-2.77c0.29-0.81,0.07-3.33,0.67-4.19c0.26-0.37,0.74-0.47,1.07-0.74
		c1.04,0,1.53-0.67,1.48-2.01c-0.05-0.17-0.08-0.34-0.09-0.53c-0.02-0.03-0.04-0.07-0.06-0.1c-0.1-0.15-0.19-0.29-0.28-0.45
		c-0.36-1-1.36-1.89-0.81-3.03c0.2-0.41,0.65-0.56,0.89-0.86c0.76-0.92,0.93-1.32,0.93-1.67c0-0.35-0.18-0.66-0.12-1.4
		c0.13-1.69,0.91-2.07,1.92-3.3c-0.01-0.35,0.11-0.7,0.41-0.98c0.04-0.03,0.08-0.07,0.13-0.1c1.44-1.04,1.38-2.87,1.51-4.54
		c0.03-0.5,0.09-0.97,0.2-1.42c0.23-0.86,0.56-1.54,1.05-2.16c0.26-0.34,0.57-0.64,0.93-0.96c0.38-0.32,1.23-0.67,1.68-1.04
		c0.1-0.08,0.18-0.17,0.23-0.25c0.4-0.74-0.27-2.13-0.15-2.93c0.13-0.94,0.52-1.59,1.23-2.22c1.34-1.19,3.19-0.99,3.79-2.99
		c0.36-1.18-0.07-2.24,0.79-3.29c0.93-1.13,1.82-0.67,2.98-1.05c2.54-0.83,2.55-2.92,3.55-4.94c1.43-2.89,3.61-2.81,6.44-3.31
		c2.17-0.39,4.23-1.37,5.88-2.85c1.14-1.02,1.95-2.14,3.45-2.65c0.86-0.29,1.71-0.26,2.54-0.7c1.15-0.59,1.42-1.35,2.13-2.36
		c0.69-0.97,1.38-1.76,2.54-2.17c1.46-0.52,2.84-0.06,4.34-0.17c1.7-0.13,2.84-1.27,4.53-1.28c0.21-0.01,0.4,0.04,0.55,0.12
		c0.46-0.23,0.89-0.36,1.46-0.45c1.42-0.21,2.24-0.53,3.52-1.15c1.56-0.77,1.69-0.43,3.25,0.07c1.72,0.55,1.27,0.17,2.48-0.5
		c0.83-0.47,1.37-0.72,2.34-0.8C205.35,133.59,207.09,134.2,208.91,134.36z"/>
	<path class="st1" d="M208.91,64.81v9.93c-1.91,0.13-4.03-0.17-5.84-0.22c0,0,0-0.01-0.01,0c-0.09,0-0.17-0.01-0.26-0.01
		c-0.18-0.01-0.34-0.01-0.5-0.02h-0.01c-0.01-0.01-0.01-0.01-0.01,0c-0.01-0.01-0.02-0.01-0.02,0c-0.58-0.04-1.06-0.12-1.68-0.29
		c-0.32-0.12-0.63-0.29-0.91-0.5c-0.93-0.13-1.83-0.08-2.71,0.17c-1.76,0.2-3.45,0.16-5.14-0.41c-1.91-0.64-3.28-2.08-5.27-2.38
		c-1.81-0.27-3.65,0.65-5.43-0.05c-2.1-0.83-2.64-2.68-5.16-2.92c-1.91-0.18-3-0.68-4.69-1.53c-1.59-0.8-3.49-0.93-5.02-1.83
		c-1.13-0.66-1.51-1.46-2.1-2.55c-0.76-1.41-1.26-1.65-2.4-2.45c-0.35-0.24-0.68-0.53-0.93-0.88c-0.45-0.64-0.53-1.34-0.64-2.08
		c-0.25-1.7-0.6-1.72-2.04-2.44c-0.46-0.23-0.89-0.5-1.3-0.77c-0.75-0.5-1.46-1.05-2.24-1.51c-0.35-0.21-0.72-0.4-1.11-0.56
		c-1.15-0.47-1.84-0.8-2.53-1.95c-0.65-1.1-1.42-5.83-2.46-5.7c-0.58,0.07-0.94-0.21-1.09-0.62c-0.21-0.03-0.42-0.12-0.62-0.28
		c-1.54-1.27-0.77-3.17-1.95-4.69c-1.01-1.29-1.69-1.74-2.03-3.5c-0.37-1.9,0.25-2.68-1.97-4.29c-0.83-0.6-1.15-0.29-1.78-1.16
		c-0.92-1.27-0.41-2.91-0.46-4.36c-0.01-0.09,0-0.17,0.01-0.25c0-0.02-0.01-0.04-0.01-0.06c-0.31-1.95-1.15-2.61-2.42-3.88
		c-0.66-0.66-1.07-1.51-1.15-2.46c-0.07-1.05,0.36-1.6,0.7-2.52c0.33-0.89,0.84-1.51,0.1-2.52c-0.17-0.22-0.77-0.51-1.02-0.75
		c-2.03-1.98-0.17-3.74-0.13-6.05c0.02-1.32-0.35-2.75-0.33-4.13c0.01-0.78,1.02-1.57,1.04-2.35h9.89c0.05,0.8-0.15,1.67-0.69,2.58
		c-0.05,0.08-0.1,0.16-0.14,0.23c-0.79,1.22-1.13,0.76,0.38,1.84c0.08,0.06,0.15,0.11,0.23,0.17h0.01c0.34,0.25,0.66,0.5,0.81,0.89
		c0.03,0.07,0.06,0.15,0.07,0.23c0.01,0.06,0.02,0.12,0.03,0.18v0.01c0.08,0.75-0.33,1.65-0.26,2.41c0.17,1.73,0.97,1.32,1.43,2.74
		c0.28,0.9-0.25,1.58-0.37,2.42v0.01c0,0.02-0.01,0.04-0.01,0.06c-0.11,1,0.2,1.37,0.63,1.78c0.26,0.24,0.55,0.49,0.83,0.89
		c1.02,1.5,0.84,3.45,0.59,5.2c0.81,0.4,1.49,0.69,1.74,1.84c0.06,0.28,0.09,0.56,0.11,0.84c0,0,0,0,0,0.01
		c0.08,1.34-0.23,2.7-0.19,4.07c0.25,0.07,0.47,0.22,0.6,0.48c0.06,0.1,0.1,0.23,0.13,0.37c0.02,0.1,0.04,0.19,0.06,0.28
		c0.02,0.06,0.03,0.12,0.04,0.17c0.36,1.53,1.12,2.35,2.62,3.27c0.61,0.38,1.2,0.55,1.7,1.12c1.17,1.35,0.9,2.85,1.52,4.17
		c0.25,0.55,0.66,1.05,1.38,1.5c0.38,0.24,0.7,0.4,0.96,0.56c0.46,0.26,0.77,0.5,1.06,1.02c0.01,0.01,0.02,0.02,0.01,0.02
		c0.11,0.19,0.21,0.43,0.31,0.72c0.04,0.36,0.04,0.7-0.03,1.05c1.18,2.08,2.57,2.78,4.15,2.1c0.01-0.01,0.01-0.01,0.01-0.01
		c0.03-0.01,0.06-0.02,0.09-0.04c0.22-0.01,0.4-0.02,0.56-0.03h0.01c0.6-0.05,0.88-0.11,1.7,0.12c0.59,0.17,1.09,0.88,0.86,1.51
		c-0.33,0.89,0.5,1.23,1.37,1.43h0.01c0.3,0.07,0.61,0.13,0.86,0.19c0.22,0.05,0.4,0.1,0.53,0.17c0.31,0.15,0.56,0.34,0.78,0.57
		c0.24,0.25,0.45,0.52,0.66,0.82c0.37,0.51,0.77,1.29,1.22,2.14c1.19,2.28,2.72,5.09,4.9,4.72c1.33-0.22,2.25-1.54,3.68-0.53
		c0.69,0.48,0.79,1.27,0.91,1.97c0.15,0.86,0.31,1.62,1.57,1.61c0.02,0,0.04,0,0.07-0.01h0.01c1.72-0.04,2.45-1.08,4.07,0.23
		c0.68,0.55,0.83,0.91,1.17,1.19c0.01,0,0.01,0.01,0.02,0.01c0.17,0.13,0.39,0.25,0.75,0.36c0,0,0,0,0.01,0
		c0.19,0.06,0.42,0.12,0.71,0.17c2.08,0.41,1.97-0.51,3.5-1.22c1.26-0.58,2.07-0.13,2.87,0.91c0.04,0.06,0.09,0.12,0.13,0.2
		c0.53,0.86,1.45,2.97,2.35,2.87c0.1-0.01,0.33-0.22,0.59-0.47c0.37-0.37,0.81-0.83,1.05-0.94c0.65-0.32,1.25-0.12,1.67,0.44
		C204.79,65.06,206.94,64.96,208.91,64.81z"/>
	<path class="st1" d="M72.92,5.69c-1.4,2.31-0.2,3.36,0.01,5.69c0.13,1.41-0.26,2.2-0.89,3.42c-1.22,2.35-0.68,3-0.66,5.04
		c0.04,3.32-3.1,4.53-4.18,7.31c-0.99,2.53-0.48,5.61-3,7.35c-0.17,0.17-0.37,0.28-0.59,0.36c-0.21,0-0.37,0.02-0.49,0.07
		c-0.04,0.15-0.09,0.31-0.13,0.46c0.03,0.05,0.07,0.1,0.12,0.16c-0.05,0.26,0.32,1.16,0.33,1.52c0.04,1.23-0.41,2.1-1.18,3
		c-0.1,0.13-0.23,0.21-0.34,0.28c-0.99,1.16-2.19,1.8-3.34,2.85c-1.57,1.43-2.23,3.47-3.09,5.34c-0.59,1.26-1.24,2.5-2.18,3.53
		c-0.15,0.17-0.3,0.32-0.47,0.48c-0.26,0.25-0.51,0.46-0.75,0.64c-1.16,0.89-2.02,1.18-2.75,2.97c-0.46,1.12-0.58,2.24-1.58,3.06
		c-0.65,0.53-1.04,0.51-1.73,0.83c-1.43,0.65-1.76,0.13-3.52,1.72c-2.49,2.26-4.22,3.78-7.64,4.51c-1.54,0.33-2.83,0.32-4.1,1.29
		c-0.62,0.47-1.17,1.03-1.86,1.42c-1.31,0.73-2.26,0.59-3.72,0.56c-1.57-0.03-2.61-0.27-3.94,0.78c-0.59,0.46-0.99,1.07-1.61,1.49
		c-0.93,0.64-1.86,0.92-2.98,0.71c-1.62-0.3-2.79-2.08-4.55-1.24c-1.23,0.59-1.6,1.68-3.13,1.83c-0.53,0.06-1.04-0.1-1.57-0.1
		c-6.86-0.08-1.19,0.7-3.5,1.51C2.67,74.96,1.34,73.57,0,73.52v-9.3c2.25-0.58,4.96-1.45,7.05-0.95c1.56,0.37,2.21,1.34,3.82,0.41
		c0.82-0.47,1.38-1.23,2.21-1.63c1.08-0.52,2.21,0.22,3.22,0.69c0.61,0.28,1.17,0.47,1.67,0.23c0.55-0.26,0.64-1.17,1.02-1.91
		c0.13-0.28,0.32-0.54,0.58-0.72c0.45-0.32,1.11-0.15,1.48,0.2c0.2,0.18,0.4,0.33,0.59,0.43c1.77,0.99,3.15-1.01,4.78-1.89
		c0.35-0.19,0.71-0.33,1.09-0.37c0.55-0.06,1.02,0.05,1.48,0.12c0.74,0.11,1.43,0.09,2.27-1.01c0.67-0.89,0.53-2.14,1.05-3.09
		c0.04-0.07,0.08-0.15,0.12-0.21c0.42-0.74,0.82-1.1,1.78-1.13c0.76-0.02,1.46,0.91,2.17,0.83c0.02,0,0.04-0.01,0.07-0.01
		c0.84-0.12,0.94-0.74,1-1.4c0.02-0.25,0.04-0.5,0.09-0.72c0.02-0.08,0.04-0.16,0.06-0.23c0.28-0.81,1.05-1.07,1.8-0.74
		c0.17,0.07,0.32,0.15,0.47,0.23c0.37,0.18,0.69,0.4,1.02,0.63c1.12-0.79,1.9-1.83,2.37-3.2c0.34-0.99,0.12-2.45,0.65-3.36
		c0.28-0.48,0.61-0.8,1-0.97c0.09-0.24,0.24-0.45,0.47-0.61c0.17-0.12,0.36-0.2,0.6-0.22c0.04-0.01,0.09-0.01,0.14-0.01
		c1.83-0.15,5.72,0.28,4.01-3.57c-0.02-0.04-0.04-0.09-0.06-0.13c-0.42-0.9,0.1-1.74,1.06-1.84c0.32-0.04,0.64-0.1,0.96-0.21
		c1.45-0.47,2.64-1.59,3.06-3.11c0.03-0.12,0.06-0.24,0.07-0.36c0.11-0.74-0.03-1.48,0.24-2.18c0.06-0.15,0.13-0.3,0.21-0.43
		c0.69-1.17,2.13-1.73,3.09-2.81c-0.62-0.86-0.68-1.99,0.04-3.01c0.8-1.13,1.51-0.81,1.92-2.24c0.39-1.36-0.48-2.38-0.15-3.69
		c0.5-1.95,2.22-2.09,1.82-4.64c-0.17-1.05-0.45-1.48,0.06-2.51c0.98-2.03,2.24-3.06,1.54-5.54c-0.32-1.13-0.24-3.01-0.53-4.18
		c0-0.01,0-0.01,0-0.01c-0.04-0.17-0.09-0.31-0.15-0.44c-0.01-0.04-0.02-0.07-0.03-0.1c-0.05-0.1-0.09-0.21-0.11-0.34
		C63.05,1.59,62.83,0.79,62.69,0h11.44c0.02,0.85,0.59,1.74,0.4,2.54C74.21,3.89,73.6,4.58,72.92,5.69z"/>
	<path class="st2" d="M208.91,53.3v12.15c-1.31,0.12-2.93-0.1-4.14-0.59c-1.17-0.48-1.92-0.38-3.16-0.58
		c-0.25-0.04-0.45-0.1-0.64-0.17c-0.77-0.29-1.13-0.82-1.83-1.51c-0.31-0.3-0.68-0.61-1.11-0.88c-0.75-0.48-1.66-0.81-2.58-0.65
		c-0.6,0.1-1.19,0.91-1.79,1.16c-1.19,0.5-1.55,0.21-2.59-0.42c-0.09-0.06-0.18-0.11-0.26-0.16c-0.01,0-0.01,0-0.01,0
		c-0.28-0.16-0.52-0.28-0.75-0.36c-0.01-0.01-0.01-0.01-0.02-0.01c-1.04-0.42-1.78-0.3-3.16-0.55c-0.77-0.14-1.46-0.45-2.08-0.88
		h-0.01c-0.29-0.19-0.58-0.41-0.85-0.65c-0.25-0.21-0.51-0.58-0.79-0.95c-0.32-0.43-0.66-0.85-1-1.02
		c-1.08-0.51-1.67,0.09-2.68,0.35c-2.98,0.75-3.84-1.63-5.33-3.85c-0.41-0.61-0.86-1.15-1.32-1.65c-0.88-0.95-1.81-1.78-2.68-2.81
		c-0.15-0.18-0.34-0.59-0.53-1.08h-0.01c-0.55-1.35-1.22-3.36-1.76-3.32c-0.28,0.02-0.51-0.04-0.7-0.16
		c-0.44,0.2-0.95,0.34-1.47,0.42h-0.01c-0.21,0.03-0.44,0.06-0.64,0.07c-0.01,0-0.01,0-0.01,0.01c-0.44,0.02-0.85,0.01-1.19-0.04
		c-1.8-0.28-2.06-1.52-2.66-2.91c-0.15-0.34-0.34-0.64-0.58-0.91c0.01-0.01,0-0.02-0.01-0.02c-0.3-0.37-0.67-0.7-1.06-1.02
		c-0.8-0.65-1.68-1.25-2.35-2.06c-0.21-0.25-0.39-0.51-0.55-0.81c-0.44-0.83-0.42-1.79-0.75-2.56c-0.72-1.7-1.99-1.67-3.54-2.3
		c-0.46-0.19-0.97-0.61-0.9-1.18c0.08-0.64,0.02-1.18-0.1-1.7c-0.01-0.06-0.02-0.12-0.04-0.17c-0.06-0.21-0.12-0.43-0.18-0.64
		c-0.12-0.37-0.25-0.74-0.34-1.15c-0.26-1.06-0.07-0.93-0.01-1.99c0.04-0.61,0.01-1.06-0.06-1.42c0-0.01,0-0.01,0-0.01
		c-0.32-1.57-1.53-1.23-2.25-3.14c-0.2-0.53-0.13-1-0.15-1.56c-0.03-1.38-0.07-2.26-0.64-3.53c-0.08-0.18-0.16-0.36-0.23-0.54
		c-0.26-0.64-0.47-1.24-0.62-1.83V13.7c-0.16-0.61-0.26-1.22-0.31-1.89c-1.23-1.65-2.05-3.81-1.16-5.15
		c0.16-0.25,0.4-0.44,0.67-0.53V6.12c0.06-0.02,0.12-0.04,0.19-0.05c-0.07-0.12-0.18-0.23-0.29-0.36c-0.29-0.31-0.66-0.63-0.81-0.89
		h-0.01c-0.02-0.02-0.03-0.04-0.04-0.07c-0.31-0.59-0.45-1.28-0.57-1.94c-0.04-0.17-0.07-0.34-0.1-0.51
		c-0.17-0.8-0.28-1.54-0.31-2.29h12.98c0.36,2.04,0.69,3.29,0.22,4.07c-0.39,0.65-1.08,1.28-1.34,2.55
		c-0.45,2.22,0.47,1.49,1.34,2.51c0.74,0.85,0.73,2.16,0.74,3.2c0,0.41-0.16,0.7-0.4,0.91c-0.21,0.93-0.41,1.85-0.62,2.78
		c0.75-0.07,1.4-0.08,2.16,0.62c1.3,1.22,2.01,4.04,1.86,5.75c-0.14,1.52-0.18,1.42,1.11,2.24c0.4,0.25,0.85,0.36,1.22,0.67
		c1.21,1.01,1.18,2.02,0.91,3.46c-0.41,2.19,0.05,1.46,1.57,2.42c0.62,0.4,1.17,0.91,1.64,1.48c1.14,1.39,1.05,3.14,2.79,3.86
		c1.26,0.51,2.64,0.5,3.5,1.72c0.56,0.79,0.61,1.62,0.42,2.43c1.02,0.09,1.98,0.47,2.79,1.24c0.93,0.88,1.35,2.93,2.47,3.43
		c1.47,0.66,3.44-0.26,4.99,0.19c1.92,0.56,1.92,1.82,2.82,3.34c0.4,0.68,0.06,0.88,1.16,0.64c0.4-0.08,0.75-0.51,1.12-0.67
		c0.5-0.21,0.9-0.35,1.44-0.29c2.31,0.25,2.14,3.24,4.88,2.73c1.62-0.3,2.73-1.64,4.52-0.8c0.61,0.29,0.84,0.83,1.28,1.26
		c0.13,0.13,0.27,0.25,0.4,0.35c1.04,0.84,1.88,0.75,3.19,0L208.91,53.3z"/>
	<path class="st1" d="M74.01,208.91h-10.2c0.28-1.92,0.83-3.8-0.51-5.4c-1.01-1.21-1.21-1.47-0.88-2.82c0-0.01,0.01-0.01,0.01-0.01
		c0.04-0.15,0.08-0.32,0.13-0.51c0.25-0.87,0.36-1.46,0.23-2.1c0,0,0-0.01,0-0.01c-0.07-0.32-0.19-0.64-0.38-1.04
		c-0.27-0.54-0.74-0.97-0.99-1.53c-0.48-1.05-0.55-2.16-0.51-3.3c0.04-1.27,0.34-2.34,0.06-3.33c0.01-0.01,0.01-0.01,0-0.01
		c-0.06-0.17-0.12-0.32-0.2-0.48c-0.01-0.02-0.02-0.04-0.02-0.06c-0.15-0.29-0.37-0.56-0.67-0.85c-0.81-0.77-2.31-1.08-2.98-1.98
		c-1.55-2.07,1.48-4.7,0.06-6.94c-0.06-0.08-0.12-0.16-0.18-0.24c-0.39-0.45-0.96-0.73-1.56-0.97c-0.7-0.29-1.45-0.54-2-0.99
		c-0.6-0.49-1.02-1.1-1.35-1.79c-0.02-0.03-0.03-0.07-0.05-0.1c-0.67-1.42-0.74-3.04-1.43-4.45c-0.6-1.21-1.3-2.45-1.97-3.63
		c-0.59-1.04-1.38-1.97-2.29-2.85c-0.74-0.73-1.56-1.42-2.38-2.09c-0.62-0.51-1.25-1.01-1.85-1.51c0-0.01-0.01-0.01-0.01-0.01
		c-0.02-0.01-0.04-0.03-0.06-0.04c-0.1-0.04-0.2-0.09-0.3-0.13c-0.01-0.01-0.01-0.01-0.02-0.01c-1.55-0.77-2.65-1.86-3.98-3.05
		c-0.54-0.48-1.1-0.89-1.68-1.26c-1.75-1.1-3.66-1.84-5.42-3.03c-0.36-0.25-0.7-0.54-1.03-0.85c0-0.01,0-0.01-0.01-0.01
		c-0.68-0.64-1.32-1.32-2.1-1.78c-1.39-0.82-3.02-0.78-4.56-0.97c-0.09-0.01-0.18-0.02-0.26-0.04c-0.01,0-0.01,0-0.01,0
		c-1.55-0.22-2.87-0.7-4.21-1.42c-0.01-0.01-0.01-0.01-0.01-0.01c-0.21-0.12-0.42-0.23-0.64-0.36c-1.03-0.59-2.05-1.3-3.2-1.62
		c-1.53-0.42-3.04-0.04-4.59-0.16c-1.16-0.09-2.22-0.46-3.34-0.68c-0.96-0.19-1.8-0.18-2.62-0.11c-0.01,0-0.01,0-0.01,0
		c-0.79,0.06-1.56,0.18-2.43,0.21c-0.62,0.03-1.12-0.06-1.53-0.25c-0.03-0.01-0.06-0.02-0.09-0.04v-8.9c0.98-0.09,1.98-0.9,2.9-0.55
		c0.51,0.19,1.01,0.77,1.48,0.91c0.89,0.27,1.34-0.18,2.33-0.32c0.86-0.12,1.79,0.04,2.49,0.58c0.5,0.4,0.75,1.37,1.34,1.51
		c0.44,0.11,1.35-0.46,1.8-0.52c1.42-0.2,1.66,0.43,2.79,0.97c1.14,0.55,2.44-0.15,3.75,0.18c0.91,0.23,1.35,0.7,2.1,1.19
		c1.13,0.74,1.72,0.91,3.13,0.81c1.39-0.09,2.46-0.09,3.68,0.76c1.95,1.37,1.23,3.23,4.22,3.3c1.79,0.04,3.09-0.89,4.83,0.04
		c2.93,1.56,2.63,5.65,6.08,6.55c1.5,0.39,2.92,0.24,4.03,1.53c0.29,0.34,0.41,0.76,0.65,1.12c0.23,1,0.89,1.69,1.98,2.08
		c0.31,0.04,0.61,0.08,0.92,0.12c0.58,0.28,1.1,0.59,1.57,0.94c0.1,0.07,0.19,0.15,0.28,0.23c1.34,1.1,2.07,2.56,1.78,4.52
		c0.09,0.21,0.13,0.46,0.07,0.74c-0.19,1.02,2.55,3.28,3.24,3.68c0.85,0.5,1.87,0.64,2.66,1.23c1.07,0.79,1.62,1.93,1.82,3.22
		c0.21,1.38-0.42,2.6,0.59,3.85c0.38,0.47,1.07,0.77,1.53,1.18c1.02,0.88,1.7,1.76,1.75,3.14c0.02,0.75-0.47,1.54-0.41,2.22
		c0.14,1.63,1.21,1.5,2.16,2.38c1.15,1.07,1.68,2.54,1.65,4.09c-0.03,2.41-2.11,4.83-0.27,7.04c1.17,1.42,2.85,1.8,3.75,3.55
		c0.19,0.36,0.26,0.88,0,1.24c-2.09,2.83,0.7,3.77,1.51,6.19C74.61,206.34,74.13,207.63,74.01,208.91z"/>
	<path class="st2" d="M65.28,204.63c-0.01,0.12-0.01,0.25-0.01,0.39c0,0.01,0,0.01,0,0.01c-0.01,0.97,0.01,2.53-0.18,3.88H52.07
		v-5.44c0-0.07-0.01-0.13-0.01-0.19c-0.09-0.83-0.15-0.34-0.27-0.87c-0.12-0.48-0.33-0.89-0.37-1.42c-0.1-1.49-0.38-3.54,0.28-5.04
		c0.09-0.21,0.23-0.43,0.37-0.66c0.65-0.99,1.56-2.05,0.29-2.6c-0.1-0.04-0.2-0.07-0.29-0.09c-0.61-0.1-1.27,0.16-1.87-0.21
		c-1.42-0.87-0.52-1.83-0.64-2.95c-0.14-0.14-0.25-0.34-0.29-0.59c-0.25-1.46-2.22-1.91-2.78-3.27c-0.25-0.59-0.09-1.02-0.19-1.6
		c-0.02-0.15-0.02-0.25-0.02-0.33c-0.05-0.03-0.1-0.06-0.15-0.09c-1.2-0.73-1.81-0.97-2.16-2.42c0.04-0.32,0.09-0.66,0.13-0.99
		c-0.28-0.81-0.74-1.44-1.38-1.9c-0.45-0.5-1.03-0.79-1.4-1.39c-0.41-0.67-0.55-1.28-0.43-2.06c0-0.22,0.06-0.42,0.17-0.61
		c0.18-0.21,0.29-0.38,0.32-0.5c-0.04-0.08-0.08-0.17-0.12-0.25c-0.15-0.04-0.44,0-0.87,0.13c-1.18-0.58-1.78-0.68-2.54-1.89
		c-0.59-0.94-0.77-2.05-1.3-2.99c-0.69-1.21-1.38-1.02-2.68-1.05c-1.13-0.03-2.3-0.17-3.09-1.08c-0.55-0.62-0.39-1.27-0.75-1.91
		c-0.86-1.56-1.1-0.96-2.29-1.3c-1.5-0.43-1.72-0.8-2.82-1.89c-1.5-1.48-2.52-1.72-4.45-1.77c-0.64-0.01-1.26,0.03-1.86-0.24
		c-0.53-0.25-0.81-0.77-1.26-1.05c-0.03-0.57-0.29-0.72-0.77-0.44c-0.4,0.2-0.81,0.34-1.24,0.42c-1.18,0.15-1.71-0.27-2.49-1.06
		c-0.16-0.31-0.31-0.62-0.43-0.94c-0.78-0.77-1.57-0.87-2.36-0.32c-0.79,0.09-1.45,0.48-2.28,0.42c-0.74-0.06-1.32-0.53-2-0.61
		c-2.95-0.36-2.36,0.37-3.94,1.65c-0.7,0.57-1.25-0.71-1.83-0.7v-12.51c0.03,0.01,0.06,0.01,0.09,0.01
		c1.31,0.18,2.63,0.06,3.96,0.04c0.01,0,0.01,0,0.01,0c0.86-0.02,1.71,0.01,2.57,0.2c2.29,0.5,4.59,0.84,6.87,1.37
		c1.64,0.38,3.3,0.85,4.96,1.37c0.01,0,0.01,0,0.01,0.01c1.41,0.43,2.82,0.91,4.21,1.42c0.01,0,0.01,0,0.01,0
		c1.79,0.64,3.55,1.31,5.25,1.98c0.59,0.23,1.14,0.51,1.68,0.82c0.01,0,0.01,0,0.01,0.01c1.04,0.59,2.02,1.27,3.07,1.84
		c1.23,0.66,2.33,1.28,3.38,2.05c0.51,0.37,1.01,0.77,1.51,1.23c1.01,0.94,1.89,1.86,3.11,2.55c0.34,0.2,0.7,0.36,1.05,0.53
		c0.01,0.01,0.01,0.01,0.02,0.01c0.12,0.06,0.24,0.12,0.36,0.18c0,0,0.01,0,0.01,0.01c0.32,0.17,0.64,0.35,0.93,0.58
		c0.38,0.29,0.69,0.6,0.93,0.93c0.32,0.42,0.53,0.89,0.67,1.43c0.56,0.2,1.15,0.4,1.71,0.66c1.15,0.51,2.21,1.2,2.77,2.3
		c1.21,2.33,1.65,4.99,2.96,7.32c0.06,0.11,0.12,0.21,0.19,0.32c1.22,2.02,3.38,3.06,4.72,4.83c0.06,0.08,0.12,0.16,0.18,0.24
		c0.07,0.1,0.15,0.2,0.22,0.31c0.38,0.63,0.64,1.43,0.59,2.18c-0.06,1.06-1.14,2.37-0.99,3.38c0.25,1.61,2.31,1.94,3.21,3.03
		c0.22,0.26,0.4,0.55,0.55,0.86c0.01,0.02,0.02,0.04,0.02,0.06c0.07,0.15,0.14,0.31,0.2,0.48c0.01,0,0.01,0.01,0,0.01
		c0.13,0.34,0.22,0.69,0.29,1.05c0.28,1.32,0.21,2.68,0.49,4c0.28,1.32,0.95,2.57,1.04,3.92c0.01,0.08,0.01,0.16,0.01,0.23
		c0,0.01,0,0.01,0,0.01c-0.01,0.89-0.36,1.73-0.37,2.61c0,0-0.01,0.01-0.01,0.01c0,0.21,0.02,0.43,0.06,0.65
		c0.32,1.52,0.6,0.69,1.59,1.36c0.42,0.29,0.67,0.63,0.8,1.01c0.05,0.04,0.09,0.07,0.13,0.12v0.01
		C65.19,204.02,65.29,204.29,65.28,204.63z"/>
	<path class="st2" d="M208.91,144.58V158c-0.79,0.07-1.58,0.09-2.33-0.07c-0.8-0.17-1.24-0.74-1.89-1.04
		c-2.03-0.9-2.48,0.2-4.23,0.55c-1.04,0.21-1.8-0.13-2.78-0.35c-1.35-0.3-3.81-0.58-5.21-0.31c-2.32,0.45-1.77,1.84-3.06,3.16
		c-1.19,1.2-2.82,1.26-4.38,1.04c-0.09,0.15-0.17,0.31-0.25,0.46c-0.26,0.5-0.7,0.66-1.13,0.59c-0.2,0.07-0.45,0.06-0.72-0.04
		c0.49,0.18-0.37,1.3-0.98,1.66c-1.18,0.72-2.34-0.1-3.42,0.28c-1.53,0.53-1.04,2.48-2.03,3.43c-0.87,0.85-1.64,0.52-2.68,0.73
		c-1.89,0.38-1.1,1.46-1.82,2.82c-0.56,1.07-1.32,1.13-2.32,1.56c-1.07,0.46-1.45-0.77-2.2,1.3c-0.17,0.47,0.1,1.25-0.02,1.78
		c-0.21,0.92-0.59,1.59-1.42,2.05c-0.46,0.25-0.84,0.23-1.32,0.37c-1.81,0.55-1.98,0.64-2.19,2.49c-0.17,1.56,0.86,3.57,0.17,5.07
		c-0.48,1.05-1.37,1-2.22,1.62c-2.16,1.58-0.53,4.09-1.35,6.03c-0.51,1.22-1.59,1.85-2,3.14c-0.45,1.39,0.25,2.49-0.08,3.87
		c-0.1,0.43-0.48,0.8-0.58,1.19c-0.48,1.85,0.2,2.55,0.71,3.98c0.42,1.17-0.44,2.35-0.34,3.56h-13.23c-0.04-0.34-0.04-0.71,0-1.1
		c-0.01-0.22,0.01-0.43,0.09-0.63c0.13-0.74,0.34-1.51,0.55-2.27c0-0.01,0-0.01,0-0.01c0.37-1.32,0.73-2.59,0.61-3.49
		c0-0.01,0-0.01,0-0.01c-0.07-0.48-0.28-0.85-0.69-1.07c-0.57-0.29-0.69-0.86-0.53-1.37c0.09-0.29,0.28-0.56,0.53-0.74
		c0.69-0.52,1.03-1.02,1.18-1.52c-0.01-0.03-0.02-0.07-0.03-0.1c-0.16-0.61-0.15-1.21-0.04-1.76c-0.16-0.76-0.34-1.54-0.03-2.4
		c0.03-0.08,0.07-0.16,0.1-0.23c0.04-0.07,0.08-0.14,0.12-0.21c0.62-0.92,1.84-1.15,2.63-1.98c0.56-0.59,0.94-1.21,1.11-1.87
		c0.02-0.06,0.03-0.12,0.04-0.17c-0.29-0.35-0.41-0.85-0.18-1.37c0.02-0.04,0.04-0.09,0.06-0.13c-0.04-0.12-0.07-0.23-0.13-0.35
		c-0.24-0.51-0.83-0.81-0.99-1.46c-0.07-0.31-0.08-0.58-0.04-0.85c0-0.01,0-0.01,0-0.01c0.09-0.51,0.35-0.94,0.72-1.35
		c0.01-0.01,0.02-0.02,0.03-0.04c0.19-0.21,0.44-0.34,0.7-0.47c0,0,0,0,0.01-0.01c0.23-0.12,0.47-0.23,0.66-0.4
		c3.4-3.06,0.55-1.57,1.25-3.52c0.15-0.43,0.36-0.81,0.57-1.23c0.02-0.04,0.04-0.08,0.06-0.12c0.56-1.08,1.04-2.24,1.48-3.37
		c0.38-0.99,1.07-1.62,1.93-2.02v-0.01c1.04-0.5,2.32-0.67,3.57-0.8c0.07-0.23,0.21-0.4,0.37-0.54c0.2-0.95,0.12-2.02,0.15-3.04
		c0-0.01,0-0.01,0-0.01c0-0.01,0-0.01,0-0.01c0.02-0.69,0.08-1.37,0.3-1.98c0.01-0.02,0.02-0.05,0.02-0.07
		c0.1-0.26,0.24-0.51,0.42-0.75c0.49-0.66,1.26-1.07,2.1-1.35c0.01,0,0.01,0,0.01,0h0.01c0.78-0.26,1.62-0.4,2.32-0.51
		c2.68-0.42,0.96-1.15,1.93-2.89c0.63-1.12,1.96-1.08,3.11-1.34v-0.01c0.81-0.17,1.53-0.49,1.84-1.45c0.1-0.33,0.31-0.57,0.57-0.71
		c0.18-0.1,0.39-0.17,0.61-0.19c0.3-0.19,0.6-0.37,0.9-0.56c0.22-0.26,0.58-0.37,0.93-0.35c0.2,0.01,0.39,0.06,0.56,0.16
		c0.26,0.15,1.61-1.79,1.86-2c0.69-0.56,1.29-0.81,2.14-0.98c0.97-0.19,2.08,0.32,3.01,0.08c1.42-0.36,1.41-1.2,2.18-2.1
		c0.3-0.35,0.56-0.58,0.82-0.74c0.01-0.01,0.01-0.01,0.02-0.01c0.4-0.24,0.79-0.29,1.26-0.29h0.02c0.01-0.01,0.01-0.01,0.02-0.01
		c0.32-0.01,0.7,0.01,1.15-0.02c1.48-0.09,0.41,0.36,1.34-0.82c0.05-0.06,0.1-0.13,0.17-0.19c0-0.01,0.01-0.01,0.01-0.01
		c0.28-0.31,0.62-0.59,0.99-0.74c0.49-0.21,1.06-0.12,1.57-0.16c0.11,0.03,0.23,0.06,0.34,0.07c0.7,0.12,1.39-0.01,2.06-0.39
		c0.23-0.32,0.5-0.59,0.81-0.81c0.26-0.1,0.53-0.17,0.8-0.21c0.01,0,0.01,0,0.01,0c0.34-0.06,0.69-0.07,1.04-0.05
		c0.68,0.21,1.37,0.39,2.08,0.52c0.05,0.01,0.1,0.02,0.15,0.03c0.88-0.1,1.52-0.52,1.9-1.24c1.08-0.87,1.95-1.59,3.49-1.26
		c1.14,0.25,1.7,1.19,2.95,1.26C207.84,144.83,208.36,144.67,208.91,144.58z"/>
	<path class="st2" d="M64.65,10.4c-0.15,1.36-1.01,1.56-1.54,2.6c-0.67,1.33-0.19,2.84-0.69,4.15c-0.51,1.32-1.38,1.62-1.48,3.17
		c-0.09,1.48,0.31,2.79-0.33,4.2c-0.42,0.94-1.38,1.16-1.79,1.89c-0.38,0.68,0.25,1.27,0.17,2.17c-0.07,0.86-0.54,1.53-1.23,2.03
		c-0.71,0.53-1.54,0.71-2.1,1.15c-0.53,0.39-0.81,1.02-0.53,2.35c0.02,0.1,0.04,0.18,0.08,0.27c0.21,0.64,0.62,1.04,0.3,1.87
		c-0.27,0.72-0.87,1.05-1.53,1.33c-0.65,0.29-1.29,0.44-1.91,0.61c-0.72,0.19-1.41,0.4-2.05,0.86c0.04,0.34,0.07,0.66,0.09,0.98
		c0.04,0.55,0.02,1.1-0.06,1.7c-0.07,0.56-0.32,1.01-0.9,1.18c-0.92,0.28-2.02,0.42-3.05,0.69c-0.25,0.07-0.5,0.15-0.74,0.23
		c-0.59,0.21-1.13,0.5-1.57,0.91c-1.38,1.29-1.61,3.65-1.8,5.4c-0.07,0.62-0.51,1.28-1.23,1.23c-0.34-0.02-0.64-0.04-0.9-0.02
		c-0.89,0.02-1.4,0.25-1.86,0.74c-0.18,0.2-0.37,0.43-0.56,0.72c-0.13,0.2-0.28,0.43-0.44,0.68c-0.16,0.25-0.34,0.5-0.56,0.72
		c-0.26,0.28-0.55,0.51-0.89,0.66c-0.56,0.24-1.16,0.23-1.74,0.09c-0.89-0.21-0.93-0.75-1.39-0.43c-0.11,0.08-0.24,0.21-0.43,0.41
		c-1.19,1.32-1.17,3.11-3.01,3.91c-0.02,0.01-0.06,0.02-0.08,0.04c-0.83,0.34-1.67,0.21-2.49,0.22c-0.41,0.01-0.81,0.05-1.22,0.2
		c-0.89,0.34-1.49,1.08-2.41,1.43c-0.4,0.15-0.78,0.22-1.15,0.25c-0.66,0.06-1.3-0.01-2.02,0.02c-0.26,0.01-0.47,0.04-0.64,0.07
		c-0.79,0.17-0.77,0.63-1.68,1.26c-0.37,0.25-0.69,0.37-1,0.41c-1.06,0.16-1.89-0.61-3.11-0.4c-0.77,0.13-0.91,0.76-1.45,1.22
		c-0.64,0.56-1.36,0.72-2.18,0.8c-3.22,0.29-6.31-1.37-9.32,0.5C0.17,64.9,0.09,64.94,0,64.96V52.07h2.88
		c0.62,0.37,1.23,0.71,2.15,0.7c1.08-0.01,1.95-0.38,2.83-0.7c0.89-0.32,1.79-0.61,2.97-0.42c0.72,0.11,1.32,0.34,1.94,0.42
		c0.32,0.05,0.64,0.06,0.97,0c0.14-0.02,0.29-0.06,0.44-0.11c0.67-0.23,1.23-0.64,1.81-1.03c0.94-0.62,1.9-1.32,3.01-1.62
		c1.42-0.39,2.76,0.14,4.17-0.06c1.97-0.29,3.02-1.64,4.06-3.23c1.24-1.89,2.33-3.81,4.41-4.88c1.1-0.56,2.28-0.76,3.47-0.99
		c0.62-0.12,1.26-0.2,1.86-0.38c1.89-0.57,1.94-1.63,2.46-3.58c0.44-1.64,0.84-2.58,2.21-3.71c0.27-0.22,4.67-4.07,4.2-4.55
		c-0.62-0.64-0.35-1.46,0.21-1.86c0.26-1.34,0.64-2.65,1.51-3.72c0.39-0.48,0.89-0.96,1.44-1.27c0.36-0.21,1.42-0.33,1.64-0.57
		c1.01-1.07-0.42-3.08-0.22-4.48c0.13-0.96,0.56-1.75,1.23-2.44c0.17-0.17,0.3-0.3,0.42-0.4c0.55-0.49,0.64-0.43,0.9-1.69
		c0.35-1.7-0.13-0.95-0.13-2.3c0-0.99,0.43-1.41,0.54-2.27c0.1-0.85-1.08-2.62-1.3-3.69V0h12.57c0.07,2.08-0.58,4.59-0.58,6.05
		C64.07,7.51,64.8,8.93,64.65,10.4z"/>
	<path class="st3" d="M65.25,11.65c-0.86,1.16-1.26,1.26-0.77,2.69c0.21,0.59,0.66,1.02,0.72,1.69c0.18,1.66-0.89,1.97-2.1,2.6
		c-1.19,0.62-1.05,0.81-0.74,2.19c0.21,0.96,0.53,1.8,0.45,2.81c-0.12,1.43-0.79,2.52-2.1,3.14c-0.66,0.31-1.58,0.1-1.45,0.72
		c0.06,0.28,1.13,1.09,1.35,1.48c0.25,0.43,0.23,1.15-0.19,1.48c-1.34,1.07-2.71,1.86-4.25,2.4c0.48,1.05,0.63,2.19,0.23,3.39
		c-0.64,1.94-2.06,2.24-3.58,3.13c-0.45,0.26-0.63,0.07-0.76,0.06c-0.13-0.01-0.2,0.16-0.41,1.15c-0.07,0.32,0.17,0.73,0.13,1.07
		c-0.09,0.72-0.12,1.29-0.54,1.91c-0.99,1.46-2.57,1.33-4.07,1.58c-4.4,0.73-2.46,3.71-4.67,6.21c-0.25,0.28-0.51,0.53-0.81,0.72
		c-0.21,0.13-0.44,0.25-0.69,0.33c-0.55,0.2-2.13-0.25-2.33-0.12c-0.39,0.26-0.26,1.24-0.44,1.68c-0.28,0.67-0.75,1.17-1.4,1.51
		c-1.17,0.62-2.38,0.43-3.53-0.02c-0.47,1.55-1.15,3.01-2.55,3.96c-1.51,1.01-3.55,0.14-4.82,1.13c-1.15,0.89-1.32,1.97-3.09,2.22
		c-1.3,0.18-2.49-0.23-3.63-0.78c-0.18,0.56-0.27,1.15-0.23,1.76c-0.02,1.01-1,1.42-1.84,1.06c-1-0.43-3.42-2.01-4.52-1.24
		c-0.29,0.2-0.5,1.24-0.76,1.56c-0.72,0.88-1.56,1.23-2.73,0.98c-1.33-0.28-1.89-1.26-3.42-1.3c-0.94-0.03-1.95,0.29-2.85,0.51
		c-1,0.23-1.94,0.18-2.89,0.25V63.1c1.67-0.15,3.27-0.56,4.97-0.7c0.88-0.07,1.76-0.07,2.61,0.2c1.17,0.36,1.55,1.37,2.71,0.31
		c0.86-0.79,0.63-2,2.09-2.33c1.27-0.28,2.97,0.55,4.42,1.3c0.17-0.75,0.44-1.46,0.83-2.2c0.32-0.59,1.12-0.75,1.68-0.44
		c1.8,1.01,3.31,1.57,4.64-0.18c0.44-0.58,0.6-0.97,1.32-1.28c0.71-0.3,1.34-0.04,2.05-0.09c2.71-0.17,3.44-1.91,4.02-4.28
		c0.2-0.8,1.13-1.1,1.8-0.74c1.51,0.81,2.29,0.78,2.86-0.59c0.01-0.03,0.02-0.06,0.04-0.09c0.15-0.38,0.07-0.85,0.28-1.23
		c0.48-0.86,1.17-1,2.05-1.1c1.1-0.14,1.21,1.22,2.57-0.29c0.48-0.53,0.48-1.66,0.64-2.32c0.27-1.06,0.47-2.13,1.22-2.98
		c0.8-0.9,1.88-1.22,3.03-1.35c1.04-0.12,1.72,0.18,2.65-0.54c1.19-0.92,0.6-1.04,0.61-2.34c0.01-0.87,0.12-1.65,0.86-2.24
		c0.39-0.31,0.66-0.32,1.16-0.48c0.24-0.08,0.58-0.13,0.96-0.2c1.68-0.29,4.06-0.74,1.34-3.92c-0.56-0.66-0.42-1.83,0.54-2.05
		c1.43-0.33,2.66-0.81,3.83-1.57c-0.82-0.72-1.83-1.24-1.68-2.6c0.16-1.57,1.34-1.49,2.41-2.06c3.5-1.84,0.2-3.78,0.89-6.44
		c0.46-1.78,1.87-1.1,2.7-2.19c0.53-0.7-0.31-1.18-0.66-2.1c-0.2-0.53-0.36-1.09-0.24-1.67c0.15-0.72,0.53-1.06,1.05-1.56
		c1.19-1.16,1.46-0.65,1.37-2.37c-0.09-1.8-0.32-0.8-0.73-1.9c-0.56-1.51-0.22-1.48,0.36-2.74c0.09-0.2,0.15-0.4,0.19-0.61
		c0-0.01,0-0.01,0-0.01C63.62,2.15,63.27,1.08,63.1,0h2.33c0.22,1.51,1.23,3.01,0.42,4.52c-0.12,0.23-0.53,0.48-0.57,0.74
		c-0.01,0.06-0.02,0.1-0.02,0.13c0.03-0.06,0.1-0.07,0.21,0.32c0.17,0.6,0.73,1.12,0.88,1.8C66.7,9.1,66.18,10.39,65.25,11.65z"/>
	<path class="st3" d="M208.91,63.81v2.97c-2.04,0.18-4.03-0.64-5.65-1.95c-0.42,0.45-0.84,0.9-1.26,1.35
		c-0.59,0.63-1.47,0.35-1.92-0.25c-0.59-0.78-1.18-1.91-1.94-2.55c-0.42-1-1.21-1.32-2.36-0.96c-0.15,0.24-0.31,0.47-0.47,0.71
		c-0.94,0.75-1.29,1.72-2.67,1.78c-0.84,0.03-1.47-0.26-2.08-0.81c-0.45-0.42-0.62-1-1-1.47c-0.2-0.54-0.6-0.91-1.21-1.1l-0.55,0.4
		c-2.46,0.34-3.91,0.07-5.29-2.32c-0.31-0.53-0.42-1.61-1.02-1.84c-0.56-0.21-0.74,0.4-1.26,0.69c-0.79,0.44-1.59,0.47-2.46,0.18
		c-3.28-1.1-3.95-4.61-6.22-6.54c-0.04-0.04-0.09-0.08-0.13-0.12c-0.92-0.74-2.01-0.78-2.81-1.72c-0.67-0.78-0.86-1.84-1.14-2.8
		c-0.72-2.43-1.57-1-3.29-0.34c-0.84,0.32-1.66,0.39-2.5,0c-1.89-0.86-2.13-2.79-1.87-4.6c-1-0.4-1.76-1.46-2.95-2.17
		c-1.43-0.86-2.35-1.07-2.3-3.09c0.01-0.43,0.2-0.87,0.18-1.29c-0.04-1.53-0.28-1.37-1.4-1.57c-0.72-0.13-1.43,0.13-2.13-0.3
		c-1.52-0.93-1.24-3.03-0.94-4.75c-0.07,0.01-0.15,0.02-0.23,0.02c-0.64,0.07-1.25-0.61-1.23-1.23c0.06-1.23,0.92-2.55,0.89-3.68
		c-0.04-1.51-1.19-1.27-1.87-2c-1.13-1.22-1.05-2.11-0.76-3.69c0.13-0.69,0.61-1.25,0.07-1.92c-0.17-0.21-0.8-0.12-1.06-0.31
		c-0.59-0.43-1-0.76-1.3-1.47c-0.56-1.36-0.06-2.68,0.67-3.84c-0.8-0.72-1.93-1-2.13-2.29c-0.22-1.34,0.67-1.78,1.42-2.44
		l-1.99-1.41c-0.51-0.37-0.83-1.09-0.43-1.68c0.74-1.12,1.1-2.21,1.05-3.4h2.46c0.04,1.27-0.25,2.49-0.84,3.67
		c0.71,0.5,1.42,1,2.13,1.51c0.58,0.4,0.75,1.04,0.44,1.68c-0.36,0.72-1.41,1.21-1.17,2.06c0.1,0.33,1.4,1.18,1.65,1.62
		c0.2,0.35,0.25,0.89,0,1.24c-0.77,0.72-0.85,1.62-0.24,2.7c0.36,0.1,0.7,0.21,1.04,0.37c0.37,0.4,0.82,0.75,1.02,1.28
		c0.52,1.45-1.08,3.27-0.25,4.41c0.15,0.21,1.38,0.44,1.69,0.74c0.29,0.28,0.54,0.71,0.69,1.08c0.63,1.54-0.06,2.93-0.47,4.39
		c0.07-0.01,0.13-0.01,0.2-0.02c0.61-0.06,1.29,0.62,1.23,1.23c-0.1,0.89-0.9,3.48,0.06,4.03c0.39,0.21,1.55-0.15,2.03-0.06
		c0.94,0.17,1.73,0.66,2.13,1.57c0.56,1.28-0.66,3.45,0.36,4.48c0.06,0.06,3.63,2.02,3.2,2.23c0.93-0.45,2.1,0.29,1.79,1.38
		c-0.59,1.17-0.21,2.19,1.12,3.06c0.21-0.14,0.43-0.29,0.64-0.43c0.49-0.13,0.94-0.61,1.45-0.76c0.72-0.21,1.47-0.2,2.15,0.13
		c1.87,0.91,1.4,2.92,2.3,4.42c0.09,0.14,0.18,0.26,0.29,0.37c0.36,0.36,0.83,0.55,1.31,0.74c0.51,0.2,1.05,0.39,1.47,0.77
		c0.64,0.59,0.99,1.42,1.37,2.19c0.1,0.21,0.21,0.42,0.33,0.62c0.83,1.38,2.65,4.05,4.55,3.15c0.71-0.34,0.89-1.05,1.8-1.15
		c0.86-0.09,1.43,0.32,1.96,0.94c1.5,1.79,0.77,3.85,4.15,3.59c0.72-0.06,1.19-0.51,2.04-0.23c0.99,0.33,1.21,1.07,1.88,1.72
		c0.2,0.32,0.37,0.66,0.52,1c0.6-0.18,1.21-0.36,1.81-0.54c0.28-0.18,0.72-0.93,1.04-1.19c0.66-0.55,1.36-0.94,2.24-0.85
		c1.79,0.17,3.21,2.44,4.34,4.22c0.36-0.38,0.7-0.76,1.06-1.14c0.43-0.45,1.32-0.5,1.73,0C205.4,63.77,207.13,64,208.91,63.81z"/>
	<path class="st3" d="M208.91,144.58v2.45c-0.29-0.04-0.58-1.27-0.88-1.35c0,0.01-0.01,0.02-0.01,0.03
		c-0.36,0.87-1.3,1.19-2.05,0.54c-1.83-1.58-2.38-1.61-3.93,0.21c-0.45,0.53-0.55,0.81-1.21,1.02c-1.36,0.44-3.29-0.23-4.8-0.95
		c-0.32,0.59-0.8,1.09-1.53,1.43c-1.87,0.88-3.96-1.05-4.64,1.86c-0.19,0.81-1.12,1.08-1.8,0.74c-1.25-1.04-2.54-0.98-3.85,0.18
		c-0.04,0.35-0.14,0.69-0.29,1c-0.47,0.64-0.53,1.08-1.31,1.46c-1.52,0.74-6-1.61-5.89,1.68c0.03,0.76-0.81,1.44-1.55,1.18
		c-2.51-0.87-2.23,2-3.78,2.91c-1.03,0.61-2.4,0.69-3.67,0.63c0.38,1.33,0.85,2.56-0.55,3.69c-2.07,1.68-6.64-0.51-6.81,3.04
		c-0.09,1.93,0.6,3.36-1.18,4.91c-1.07,0.94-2.44,1.18-3.75,0.91c-0.34,1.25-0.02,2.88-0.89,4.06c-0.54,0.72-1.21,1.24-1.98,1.58
		c0.31,0.84,0.34,1.76-0.02,2.68c-0.51,1.29-3.63,2.43-3.21,3.72c0.41,1.24,2.35,1.26,2.19,3.12c-0.19,2.17-3.34,3.8-4.8,5.02
		c-0.13,0.12-0.28,0.19-0.42,0.23c0.01,1.04,0.73,3.63,0.47,4.39c-0.34,1.02-1.04,1.73-1.79,2.41c0.46,0.21,1.05,0.41,1.17,0.46
		c0.61,0.27,0.74,1.15,0.43,1.68c-1.31,2.33-1.02,4.86-0.78,7.41h-2.45c-0.21-2.55-0.47-5.04,0.52-7.41
		c-0.86-0.39-1.56-0.82-1.81-1.89c-0.1-0.42-0.01-0.89,0.31-1.19c0.64-0.59,1.43-1.13,1.72-1.86c0.01-0.01,0.01-0.01,0.01-0.02
		c0.04-0.1,0.07-0.21,0.09-0.33c0.01-0.01,0.01-0.01,0.01-0.02v-0.01c0.04-0.26,0.02-0.54-0.09-0.86c-0.24-0.71-0.81-1.05-0.92-1.87
		c-0.19-1.53,0.7-2.76,1.98-3.42c0.25-0.13,0.5-0.17,0.72-0.14c0.77-0.58,1.59-1.18,2.17-1.87c0.87-1.04,0.67-0.86,0.01-1.72
		c-0.57-0.75-1.42-0.94-1.75-1.95c-0.28-0.83-0.09-1.67,0.4-2.37c0.64-0.94,4.69-2.4,3.05-4.06c-0.58-0.59-0.41-1.91,0.54-2.05
		c3.71-0.53,1.88-3.85,3.39-5.81c0.31-0.4,0.85-0.79,1.38-0.56c1.34,0.8,2.35,0.07,3.01-2.21c-0.14-0.29-0.25-0.6-0.34-0.92
		c0-0.47-0.17-0.88-0.1-1.38c0.13-0.94,0.72-1.73,1.47-2.3c1.22-0.93,2.58-0.85,4.01-1.02c0.66,0.17,1.24,0.02,1.72-0.45
		c0.81-0.17,0.97-0.55,0.45-1.16c0.03-0.43-0.31-1.32-0.34-1.78c-0.04-0.61,0.6-1.29,1.23-1.23c1.71,0.17,3.15,0.4,4.14-1.28
		c0.36-0.61,0.23-1.24,0.83-1.8c0.88-0.82,2.11-0.86,3.26-0.64c0.25-0.93,0.78-1.75,1.68-2.31c0.65-0.41,1.38-0.6,2.15-0.62
		c0.73-0.01,2.02,0.76,2.65,0.57c1.32-0.41,1.49-2.79,3.06-3.44c1.34-0.55,2.66-0.26,3.91,0.26c0.29-0.76,0.69-1.47,1.35-1.94
		c0.94-0.67,4.75-0.29,4.85-1.07c0.11-0.9,0.96-1.56,1.84-1.06c1.81,1.03,3.51,1.95,4.93,0.2c0.53-0.66,0.94-1.52,1.71-1.93
		c1.36-0.72,2.63,0.18,3.72,1.19h0.01c0.02,0.02,0.04,0.04,0.06,0.06c0.01-0.01,0.02-0.02,0.03-0.03c0.28-0.29,0.67-0.45,1.11-0.27
		C207.98,143.14,208.44,144.49,208.91,144.58z"/>
	<path class="st3" d="M65.55,208.91H63.1c0.36-2.23,0.33-5.12-2.03-5.5c-0.83-0.13-1.06-1.17-0.73-1.8c0.78-1.5,2.13-1.72,1.28-3.54
		c-0.79-1.7-1.42-3.08-1.6-5c-0.1-1.04-0.1-2.09-0.16-3.13c-0.04-0.58,0.05-1.37-0.31-1.86c-0.62-0.85-0.09-0.23-0.9-0.5
		c-1.19-0.38-2.17-0.11-2.79-1.51c-0.54-1.21,0.01-2.29,0.46-3.41c0.59-1.47,0.95-2.99-0.34-4.27c-0.67-0.66-1.69-0.77-2.47-1.2
		c-0.62-0.34-1.08-0.67-1.43-1.08c-0.34-0.42-0.58-0.92-0.77-1.61c-0.39-1.44-0.31-2.5-1.26-3.73c-0.39-0.5-0.85-0.97-1.13-1.54
		c-0.64-1.29-0.06-3.01-1.06-3.8c-1.02-0.8-2.17-0.32-3.06-1.48c-0.7-0.91-0.64-1.44-1.64-2.27c-1.02-0.86-1.19-0.65-2.3-1.03
		c-1.11-0.39-1.92-1.16-2.69-2.02c-0.56-0.62-1.01-1.39-1.64-1.95c-1.12-1-2.46-1.16-3.84-1.59c-1.54-0.47-2.63-1.25-3.75-2.38
		c-1.45-1.48-2.96-1.6-4.93-1.68c-0.43-0.02-0.86,0.01-1.3-0.07c-1.71-0.34-3.56-1.49-4.99-2.4c-1.58-1.01-2.93-2.12-5.02-1.79
		c-0.45,0.07-0.8,0.45-1.28,0.51c-1.34,0.15-2.06-0.78-3.18-1.28c-2.65-1.19-5.49,0.21-8.25-0.19v-2.45
		c2.22,0.77,4.72-0.37,7.03-0.18c1.82,0.15,3.12,1.62,4.77,1.26c1.64-0.36,2.52-0.85,4.23,0.03c2.6,1.34,5.01,4.23,8.17,3.99
		c1.89-0.14,2.87-0.53,4.59,0.72c0.85,0.61,1.46,1.45,2.22,2.16c1.16,1.08,2.32,1.32,3.77,1.75c1.81,0.53,2.95,1.29,4.2,2.69
		c0.56,0.62,1,1.38,1.64,1.91c0.97,0.8,1.92,0.69,3.04,0.99c1.45,0.4,1.68,1.19,2.5,2.27c0.74,0.97-0.13,0.5,1.15,1.27
		c0.99,0.59,0.62,0.26,1.19,0.48c0.67,0.27,1.07,0.25,1.61,0.75c1.13,1.09,0.53,2.4,0.78,3.74c0.17,0.87,0.66,1.59,1.19,2.3
		c0.58,0.79,1.19,1.57,1.42,2.54c0.36,1.59,0.53,2.36,2.09,3.35c0.5,0.31,1.07,0.45,1.57,0.82c1.07,0.81,1.78,2,2.08,3.3
		c0.45,1.92-0.57,2.73-0.8,4.42c-0.25,1.85,1.9,0.89,2.93,1.93c0.89,0.9,0.85,2.5,0.93,3.66c0.16,2.32-0.1,4.94,1.19,7
		c0.73,1.17,1.96,2.06,1.45,3.62c-0.24,0.74-0.85,1.16-1.42,1.61c0.75,0.51,1.23,1.24,1.49,2.1v0.01c0.13,0.37,0.21,0.77,0.26,1.19
		c0,0.01,0,0.01,0,0.01C65.44,206.27,65.7,207.65,65.55,208.91z"/>
	<path class="st4" d="M16.22,91.7c-0.25-0.42-0.59-0.76-1.01-1.01c-0.17-0.12-0.29-0.17-0.5-0.26c-0.34-0.14-0.77-0.27-1.15-0.23
		c-0.71,0.08-1.41,0.24-1.91,0.79c-0.14,0.18-0.28,0.36-0.42,0.55c-0.24,0.42-0.37,0.88-0.37,1.36c-0.06,0.55,0.17,1.2,0.5,1.65
		c0.25,0.42,0.59,0.76,1.01,1.01c0.44,0.26,0.92,0.38,1.43,0.39c0.75-0.03,1.46-0.29,2-0.83c0.51-0.51,0.83-1.27,0.83-2
		C16.61,92.61,16.48,92.14,16.22,91.7z"/>
	<path class="st4" d="M17.15,82.3c-3.68,0-3.69,5.72,0,5.72C20.83,88.02,20.84,82.3,17.15,82.3z"/>
	<path class="st4" d="M29.8,84.15c-0.47-0.47-1.25-0.83-1.93-0.8c-0.71,0.03-1.44,0.26-1.93,0.8c-0.46,0.5-0.88,1.23-0.8,1.93
		c0.06,0.55,0.08,1.12,0.3,1.64c0.21,0.5,0.41,0.8,0.78,1.24c0.35,0.42,1.11,0.71,1.65,0.68c0.59-0.03,1.25-0.22,1.65-0.68
		c0.37-0.43,0.57-0.74,0.78-1.24c0.22-0.52,0.24-1.08,0.3-1.64C30.68,85.43,30.24,84.59,29.8,84.15z"/>
	<path class="st4" d="M33.69,109.41c-3.08,0-3.08,4.79,0,4.79C36.77,114.2,36.78,109.41,33.69,109.41z"/>
	<path class="st4" d="M22.97,118c-2.28,0-2.28,3.54,0,3.54C25.25,121.54,25.26,118,22.97,118z"/>
	<path class="st4" d="M26.48,105.54c-0.44-0.44-1.26-0.74-1.87-0.5c-0.42,0.17-0.82,0.33-1.2,0.59c-0.62,0.42-1.11,1.09-1.08,1.88
		c0.03,0.58,0.22,1.12,0.64,1.54c0.39,0.39,0.98,0.64,1.54,0.64c0.81,0,1.44-0.43,1.88-1.08c0.26-0.38,0.42-0.78,0.59-1.2
		C27.22,106.8,26.92,105.99,26.48,105.54z"/>
	<path class="st4" d="M44.42,93.42c-2.77,0-2.78,4.31,0,4.31C47.19,97.72,47.19,93.42,44.42,93.42z"/>
	<path class="st4" d="M50.85,119.95c-3.31,0-3.32,5.15,0,5.15C54.16,125.1,54.16,119.95,50.85,119.95z"/>
	<path class="st4" d="M64.63,131.28c-4.11,0-4.12,6.39,0,6.39C68.74,137.67,68.75,131.28,64.63,131.28z"/>
	<path class="st4" d="M10.72,124.02c-2.18,0-3.03,2.05-2.58,3.66c-0.5,0.77-0.15,2.08,1.05,2.08c0.32,0,0.58-0.1,0.78-0.25
		c0.23,0.06,0.48,0.1,0.75,0.1C14.32,129.62,14.33,124.02,10.72,124.02z"/>
	<path class="st4" d="M11.44,103.57c-0.94,0-1.39,0.77-1.34,1.51c-3.13,0.01-3.13,4.88,0.01,4.88c2.17,0,2.84-2.34,2.01-3.78
		C13.18,105.58,12.96,103.57,11.44,103.57z"/>
	<path class="st4" d="M49.32,70.21c-3.87,0-3.87,6.01,0,6.01C53.18,76.21,53.19,70.21,49.32,70.21z"/>
	<path class="st4" d="M37.37,74.94c-3.3,0-3.3,5.12,0,5.12C40.67,80.06,40.67,74.94,37.37,74.94z"/>
	<path class="st4" d="M64.63,88.73c-2.89,0-2.9,4.5,0,4.5C67.53,93.23,67.53,88.73,64.63,88.73z"/>
	<path class="st4" d="M62.18,104.38c-2.46,0-2.47,3.83,0,3.83C64.65,108.21,64.65,104.38,62.18,104.38z"/>
	<path class="st4" d="M76.27,112.34c-3.65,0-3.66,5.67,0,5.67C79.92,118.01,79.93,112.34,76.27,112.34z"/>
	<path class="st4" d="M36.45,127.93c-3.7,0-3.7,5.74,0,5.74C40.15,133.67,40.15,127.93,36.45,127.93z"/>
	<path class="st4" d="M57.59,140.64c-2.71,0-2.71,4.21,0,4.21C60.3,144.85,60.3,140.64,57.59,140.64z"/>
	<path class="st4" d="M64.33,155.67c-2.68,0-2.68,4.16,0,4.16C67.01,159.84,67.01,155.67,64.33,155.67z"/>
	<path class="st4" d="M79.64,155.47c-4.13,0-4.13,6.41,0,6.41C83.77,161.88,83.78,155.47,79.64,155.47z"/>
	<path class="st4" d="M79.34,165.32c-4.07,0-4.07,6.32,0,6.32C83.4,171.63,83.41,165.32,79.34,165.32z"/>
	<path class="st4" d="M72.6,175.83c-3.54,0-3.55,5.5,0,5.5C76.14,181.34,76.14,175.83,72.6,175.83z"/>
	<path class="st4" d="M81.84,184.86c-0.48-0.59-1.21-0.98-2.2-0.98c-2.01,0-2.97,1.64-2.87,3.2c-1.88,0.22-1.82,3.25,0.21,3.25
		c0.66,0,1.12-0.32,1.36-0.77c0.37,0.17,0.8,0.27,1.29,0.27c1.68,0,2.63-1.15,2.83-2.43C83.39,186.75,83.18,184.99,81.84,184.86z"/>
	<path class="st4" d="M80.26,195.3c-3.71,0-3.72,5.77,0,5.77C83.97,201.07,83.97,195.3,80.26,195.3z"/>
	<path class="st4" d="M100.17,192.33c-3.99,0-3.99,6.2,0,6.2C104.15,198.53,104.16,192.33,100.17,192.33z"/>
	<path class="st4" d="M104.45,189.06c-3.08,0-3.08,4.79,0,4.79C107.53,193.84,107.54,189.06,104.45,189.06z"/>
	<path class="st4" d="M96.18,175.3c-3.83,0-3.84,5.96,0,5.96C100.02,181.26,100.02,175.3,96.18,175.3z"/>
	<path class="st4" d="M96.39,182.88c-0.27,0-0.48,0.1-0.63,0.25c-0.3-0.75-0.97-1.33-2.03-1.33c-2.96,0-2.96,4.59,0,4.59
		c1.27,0,2-0.86,2.17-1.83c0.13,0.08,0.29,0.14,0.48,0.14C97.56,184.7,97.56,182.88,96.39,182.88z"/>
	<path class="st4" d="M88.83,199.42c-1.28,0-2.5,1.12-2.44,2.44c0.06,1.32,1.07,2.44,2.44,2.44c1.28,0,2.5-1.12,2.44-2.44
		C91.21,200.54,90.2,199.42,88.83,199.42z"/>
	<path class="st4" d="M110.27,200.11c-3.05,0-3.05,4.74,0,4.74C113.32,204.85,113.33,200.11,110.27,200.11z"/>
	<path class="st4" d="M121.3,195.38c-3.62,0-3.62,5.62,0,5.62C124.92,201,124.93,195.38,121.3,195.38z"/>
	<path class="st4" d="M130.19,198.65c-3.34,0-3.35,5.19,0,5.19C133.53,203.85,133.53,198.65,130.19,198.65z"/>
	<path class="st4" d="M136.31,185.15c-4.16,0-4.16,6.46,0,6.46C140.47,191.62,140.48,185.15,136.31,185.15z"/>
	<path class="st4" d="M127.12,159.62c-3.91,0-3.92,6.08,0,6.08C131.03,165.69,131.04,159.62,127.12,159.62z"/>
	<path class="st4" d="M118.24,175.16c-3.22,0-3.22,5,0,5C121.46,180.17,121.46,175.16,118.24,175.16z"/>
	<path class="st4" d="M113.34,182.93c-3.08,0-3.08,4.79,0,4.79C116.42,187.72,116.42,182.93,113.34,182.93z"/>
	<path class="st4" d="M102.78,161.84c1.2-0.6,0.98-2.8-0.67-2.8c-1.22,0-1.65,1.21-1.31,2.08c0,0-0.01,0-0.01,0
		c-3.96,0-3.96,6.15,0,6.15C103.89,167.26,104.56,163.46,102.78,161.84z"/>
	<path class="st4" d="M108.44,149.32c-3.76,0-3.76,5.84,0,5.84C112.19,155.16,112.2,149.32,108.44,149.32z"/>
	<path class="st4" d="M127.73,149.87c-3.83,0-3.84,5.96,0,5.96C131.57,155.83,131.58,149.87,127.73,149.87z"/>
	<path class="st4" d="M93.73,145.61c-3.4,0-3.41,5.29,0,5.29C97.14,150.9,97.14,145.61,93.73,145.61z"/>
	<path class="st4" d="M103.54,119.88c-3.02,0-3.02,4.69,0,4.69C106.55,124.57,106.56,119.88,103.54,119.88z"/>
	<path class="st4" d="M114.56,124.09c-3.11,0-3.12,4.83,0,4.83C117.67,128.93,117.68,124.09,114.56,124.09z"/>
	<path class="st4" d="M138.76,133.11c-3.33,0-3.33,5.17,0,5.17C142.09,138.28,142.09,133.11,138.76,133.11z"/>
	<path class="st4" d="M145.86,137.17c0.05,0.01,0.1,0.02,0.16,0.02c1.52,0,1.53-2.37,0-2.37c-1.37,0-1.51,1.91-0.41,2.3
		c-0.13-0.02-0.26-0.04-0.41-0.04c-2.96,0-2.96,4.59,0,4.59C147.91,141.67,148.13,137.81,145.86,137.17z"/>
	<path class="st4" d="M140.29,150.9c-3.3,0-3.3,5.12,0,5.12C143.59,156.03,143.59,150.9,140.29,150.9z"/>
	<path class="st4" d="M145.5,147.33c-3.96,0-3.96,6.15,0,6.15C149.46,153.48,149.47,147.33,145.5,147.33z"/>
	<path class="st4" d="M89.44,133.46c-4.07,0-4.07,6.32,0,6.32C93.51,139.78,93.52,133.46,89.44,133.46z"/>
	<path class="st4" d="M90.36,120.02c-4.4,0-4.41,6.84,0,6.84C94.77,126.87,94.78,120.02,90.36,120.02z"/>
	<path class="st4" d="M108.13,93.82c-4.22,0-4.23,6.56,0,6.56C112.35,100.38,112.36,93.82,108.13,93.82z"/>
	<path class="st4" d="M121.91,104.48c-3.51,0-3.52,5.46,0,5.46C125.43,109.94,125.43,104.48,121.91,104.48z"/>
	<path class="st4" d="M131.41,117.61c-3.96,0-3.96,6.15,0,6.15C135.37,123.76,135.37,117.61,131.41,117.61z"/>
	<path class="st4" d="M140.6,113.1c-3.46,0-3.47,5.38,0,5.38C144.06,118.48,144.07,113.1,140.6,113.1z"/>
	<path class="st4" d="M142.44,99.36c-3,0-3.01,4.67,0,4.67C145.44,104.03,145.45,99.36,142.44,99.36z"/>
	<path class="st4" d="M150.1,96.11c-4.03,0-4.04,6.27,0,6.27C154.13,102.38,154.14,96.11,150.1,96.11z"/>
	<path class="st4" d="M150.1,112.98c-3.62,0-3.62,5.62,0,5.62C153.71,118.6,153.72,112.98,150.1,112.98z"/>
	<path class="st4" d="M147.95,127.58c-3.74,0-3.75,5.82,0,5.82C151.69,133.4,151.7,127.58,147.95,127.58z"/>
	<path class="st4" d="M157.75,140.73c-4.17,0-4.18,6.49,0,6.49C161.93,147.21,161.93,140.73,157.75,140.73z"/>
	<path class="st4" d="M168.47,137.47c-3.63,0-3.64,5.65,0,5.65C172.11,143.12,172.11,137.47,168.47,137.47z"/>
	<path class="st4" d="M174.6,128.8c-3.36,0-3.36,5.22,0,5.22C177.96,134.02,177.96,128.8,174.6,128.8z"/>
	<path class="st4" d="M174.6,117.42c-3.42,0-3.42,5.31,0,5.31C178.02,122.73,178.03,117.42,174.6,117.42z"/>
	<path class="st4" d="M184.4,121.82c-4.07,0-4.07,6.32,0,6.32C188.47,128.14,188.48,121.82,184.4,121.82z"/>
	<path class="st4" d="M195.12,127.59c-2.94,0-2.95,4.57,0,4.57C198.07,132.16,198.07,127.59,195.12,127.59z"/>
	<path class="st4" d="M205.85,121.3c-1.97,0-1.97,3.06,0,3.06C207.82,124.37,207.82,121.3,205.85,121.3z"/>
	<path class="st4" d="M200.03,103.93c-2.65,0-2.65,4.12,0,4.12C202.67,108.04,202.68,103.93,200.03,103.93z"/>
	<path class="st4" d="M196.04,100.57c-1.61,0-2.46,1.18-2.55,2.43c-0.61,0.82-0.28,2.3,1,2.4c0.4,0.3,0.92,0.48,1.55,0.48
		C199.46,105.89,199.47,100.57,196.04,100.57z"/>
	<path class="st4" d="M199.72,91.8c-3.28,0-3.29,5.1,0,5.1C203,96.89,203,91.8,199.72,91.8z"/>
	<path class="st4" d="M202.78,84.39c-3.36,0-3.36,5.22,0,5.22C206.14,89.6,206.14,84.39,202.78,84.39z"/>
	<path class="st4" d="M195.12,77.38c-3.7,0-3.7,5.74,0,5.74C198.82,83.13,198.83,77.38,195.12,77.38z"/>
	<path class="st4" d="M183.79,78.79c-3.06,0-3.07,4.76,0,4.76C186.86,83.56,186.86,78.79,183.79,78.79z"/>
	<path class="st4" d="M180.42,91.07c-3.82,0-3.83,5.93,0,5.93C184.24,97.01,184.25,91.07,180.42,91.07z"/>
	<path class="st4" d="M170.93,98.51c-1,0-1.5,0.77-1.5,1.55c-0.27-0.13-0.58-0.2-0.95-0.2c-2.66,0-2.76,3.95-0.32,4.28
		c0.07,0.53,0.45,1.01,1.14,1.01c1.1,0,1.41-1.22,0.93-1.92c0.29-0.48,0.39-1.09,0.29-1.65c0.13,0.03,0.26,0.05,0.41,0.05
		C172.93,101.62,172.93,98.51,170.93,98.51z"/>
	<path class="st4" d="M165.41,105.51c-2.59,0-2.59,4.02,0,4.02C168,109.53,168,105.51,165.41,105.51z"/>
	<path class="st4" d="M182.27,104.75c-0.6-0.55-1.33-0.89-2.16-0.89c-0.78,0-1.6,0.34-2.16,0.89c-0.53,0.53-0.93,1.4-0.89,2.16
		c0.04,0.79,0.29,1.61,0.89,2.16c0.6,0.55,1.33,0.89,2.16,0.89c0.78,0,1.6-0.34,2.16-0.89c0.53-0.53,0.93-1.4,0.89-2.16
		C183.13,106.12,182.87,105.3,182.27,104.75z"/>
	<path class="st4" d="M172.15,76.7c-3.79,0-3.79,5.89,0,5.89C175.94,82.59,175.94,76.7,172.15,76.7z"/>
	<path class="st4" d="M165.72,67.21c-3.39,0-3.39,5.26,0,5.26C169.11,72.47,169.11,67.21,165.72,67.21z"/>
	<path class="st4" d="M152.85,68.53c-2.48,0-2.48,3.85,0,3.85C155.33,72.38,155.34,68.53,152.85,68.53z"/>
	<path class="st4" d="M151.32,77.84c-2.09,0-3.06,1.75-2.91,3.37c-2.64,1-2.29,5.64,1.07,5.64c1.96,0,2.89-1.58,2.81-3.1
		C155.18,82.84,154.87,77.84,151.32,77.84z"/>
	<path class="st4" d="M133.25,82.36c-3.99,0-3.99,6.2,0,6.2C137.24,88.56,137.24,82.36,133.25,82.36z"/>
	<path class="st4" d="M120.69,82.01c-4.05,0-4.06,6.29,0,6.29C124.74,88.3,124.75,82.01,120.69,82.01z"/>
	<path class="st4" d="M92.01,96.81c-0.13-0.48-0.38-0.89-0.72-1.24c-0.35-0.35-0.77-0.59-1.24-0.72c-0.5-0.13-1-0.13-1.5,0
		c-0.06,0.01-0.12,0.02-0.19,0.03c-0.98,0.17-1.8,1.14-2.06,2.06c-0.28,1.01,0.01,2.12,0.76,2.86c0.74,0.74,1.85,1.04,2.86,0.76
		c0.92-0.25,1.89-1.07,2.06-2.06c0.01-0.06,0.02-0.12,0.03-0.19C92.14,97.81,92.14,97.31,92.01,96.81z"/>
	<path class="st4" d="M86.85,104.55c0.42-0.52,0.2-1.52-0.67-1.52c-0.91,0-1.11,1.09-0.61,1.58c-3.41,0.79-3.14,6.51,0.82,6.51
		C90.47,111.13,90.63,105.02,86.85,104.55z"/>
	<path class="st4" d="M82.4,77.02c-4.16,0-4.16,6.46,0,6.46C86.56,83.49,86.56,77.02,82.4,77.02z"/>
	<path class="st4" d="M71.68,81.81c-3.91,0-3.92,6.08,0,6.08C75.59,87.89,75.6,81.81,71.68,81.81z"/>
	<path class="st4" d="M66.16,75.54c-2.91,0-2.92,4.52,0,4.52C69.07,80.07,69.08,75.54,66.16,75.54z"/>
	<path class="st4" d="M72.29,62.13c-1.22,0-1.71,1.14-1.47,2.05c-0.37-0.16-0.8-0.25-1.29-0.25c-4.07,0-4.07,6.32,0,6.32
		c2.85,0,3.7-3.11,2.55-4.96c0.07,0.01,0.13,0.02,0.2,0.02C74.33,65.3,74.34,62.13,72.29,62.13z"/>
	<path class="st4" d="M61.57,56.18c-1.4,0-2.27,0.8-2.64,1.81c-0.16-0.05-0.33-0.09-0.52-0.09c-1.97,0-1.97,3.06,0,3.06
		c0.3,0,0.55-0.08,0.76-0.2c0.45,0.76,1.25,1.31,2.4,1.31C65.36,62.06,65.36,56.18,61.57,56.18z"/>
	<path class="st4" d="M68.92,40.38c-3.62,0-3.62,5.62,0,5.62C72.54,46,72.55,40.38,68.92,40.38z"/>
	<path class="st4" d="M74.44,45.13c-3.42,0-3.42,5.31,0,5.31C77.85,50.44,77.86,45.13,74.44,45.13z"/>
	<path class="st4" d="M79.64,53.87c-3.2,0-3.21,4.98,0,4.98C82.85,58.85,82.85,53.87,79.64,53.87z"/>
	<path class="st4" d="M87.91,56.98c-3.54,0-3.55,5.5,0,5.5C91.45,62.48,91.46,56.98,87.91,56.98z"/>
	<path class="st4" d="M89.14,74.05c-3.65,0-3.66,5.67,0,5.67C92.79,79.72,92.79,74.05,89.14,74.05z"/>
	<path class="st4" d="M108.78,67.53c0.81-1.72-0.01-4.27-2.48-4.27c-3.25,0-3.67,4.39-1.25,5.52c-0.8,1.71,0.02,4.24,2.48,4.24
		C110.75,73.03,111.17,68.67,108.78,67.53z"/>
	<path class="st4" d="M110.89,75.93c-3.2,0-3.21,4.98,0,4.98C114.09,80.91,114.1,75.93,110.89,75.93z"/>
	<path class="st4" d="M126.82,67c-0.57,0-1.03,0.16-1.4,0.41c-0.27-0.58-0.82-1.03-1.66-1.03c-2.48,0-2.48,3.85,0,3.85
		c0.25,0,0.48-0.05,0.68-0.12c0.21,1.05,1,1.96,2.39,1.96C130.08,72.07,130.09,67,126.82,67z"/>
	<path class="st4" d="M133.55,54.15c-2.45,0-2.45,3.81,0,3.81C136,57.96,136.01,54.15,133.55,54.15z"/>
	<path class="st4" d="M138.46,42.55c-2.4,0-2.41,3.73,0,3.73C140.86,46.28,140.86,42.55,138.46,42.55z"/>
	<path class="st4" d="M146.11,49.22c-3.28,0-3.29,5.1,0,5.1C149.39,54.32,149.4,49.22,146.11,49.22z"/>
	<path class="st4" d="M147.65,59.02c-3.68,0-3.69,5.72,0,5.72C151.33,64.74,151.33,59.02,147.65,59.02z"/>
	<path class="st4" d="M115.18,41.35c-0.47,0-0.83,0.18-1.08,0.45c-0.03-0.69-0.48-1.37-1.37-1.37c-1.84,0-1.84,2.86,0,2.86
		c0.42,0,0.74-0.16,0.97-0.39c0.01,0.76,0.5,1.51,1.48,1.51C117.15,44.42,117.15,41.35,115.18,41.35z"/>
	<path class="st4" d="M104.76,45.65c-3.54,0-3.55,5.5,0,5.5C108.3,51.15,108.31,45.65,104.76,45.65z"/>
	<path class="st4" d="M99.55,28.49c-1.97,0-1.97,3.06,0,3.06C101.52,31.55,101.53,28.49,99.55,28.49z"/>
	<path class="st4" d="M105.07,26.57c-3.65,0-3.66,5.67,0,5.67C108.72,32.24,108.72,26.57,105.07,26.57z"/>
	<path class="st4" d="M89.75,33.29c-3.64,0-4.02,5.08-1.13,6.13c0.08,0.78,0.63,1.51,1.64,1.51c1.28,0,1.82-1.15,1.61-2.13
		C93.61,37.09,92.91,33.29,89.75,33.29z"/>
	<path class="st4" d="M83.62,43.14c-4,0-4.01,6.22,0,6.22C87.63,49.37,87.64,43.14,83.62,43.14z"/>
	<path class="st4" d="M79.95,26.67c-3.13,0-3.13,4.86,0,4.86C83.07,31.53,83.08,26.67,79.95,26.67z"/>
	<path class="st4" d="M82.4,17.51c-3.88,0-3.89,6.03,0,6.03C86.28,23.54,86.29,17.51,82.4,17.51z"/>
	<path class="st4" d="M87.61,5.93c-3.02,0-3.02,4.69,0,4.69C90.63,10.62,90.63,5.93,87.61,5.93z"/>
	<path class="st4" d="M92.81,11.26c-4.03,0-4.04,6.27,0,6.27C96.85,17.53,96.86,11.26,92.81,11.26z"/>
	<path class="st4" d="M110.27,15.97c-3.5,0-3.5,5.43,0,5.43C113.77,21.4,113.78,15.97,110.27,15.97z"/>
	<path class="st4" d="M100.47,1.6c-3.46,0-3.47,5.38,0,5.38C103.94,6.98,103.94,1.6,100.47,1.6z"/>
	<path class="st4" d="M119.46,3.66c-3.17,0-3.18,4.93,0,4.93C122.64,8.59,122.64,3.66,119.46,3.66z"/>
	<path class="st4" d="M124.67,5.94c-3.79,0-3.79,5.89,0,5.89C128.46,11.83,128.47,5.94,124.67,5.94z"/>
	<path class="st4" d="M128.65,21.77c-3.53,0-3.53,5.48,0,5.48C132.18,27.25,132.19,21.77,128.65,21.77z"/>
	<path class="st4" d="M129.27,30.64c-3.54,0-3.55,5.5,0,5.5C132.81,36.14,132.81,30.64,129.27,30.64z"/>
	<path class="st4" d="M119.46,43.21c-3.13,0-3.13,4.86,0,4.86C122.59,48.07,122.6,43.21,119.46,43.21z"/>
	<path class="st4" d="M125.28,47.72c-3.63,0-3.64,5.65,0,5.65C128.92,53.37,128.92,47.72,125.28,47.72z"/>
	<path class="st4" d="M119.16,26.81c-2.94,0-2.95,4.57,0,4.57C122.1,31.39,122.1,26.81,119.16,26.81z"/>
	<path class="st4" d="M104.03,87.81c-1-1.71-3.64-1.77-4.63,0c-0.46,0.82-0.58,1.87-0.09,2.71c0.21,0.37,0.57,0.7,0.93,0.92
		c0.5,0.3,0.91,0.33,1.48,0.4c0.48,0,0.93-0.12,1.35-0.37c0.4-0.24,0.72-0.56,0.96-0.96C104.51,89.69,104.51,88.64,104.03,87.81z"/>
	<path class="st4" d="M25.12,96.54c-2.69,0-2.7,4.19,0,4.19C27.81,100.73,27.82,96.54,25.12,96.54z"/>
	<path class="st4" d="M114.87,135.71c-3.93,0-3.93,6.1,0,6.1C118.8,141.81,118.8,135.71,114.87,135.71z"/>
	<path class="st4" d="M127.43,135.71c-3.93,0-3.93,6.1,0,6.1C131.35,141.81,131.36,135.71,127.43,135.71z"/>
	<path class="st5" d="M45.54,108.37c-4.56,0-4.57,7.08,0,7.08C50.1,115.45,50.1,108.37,45.54,108.37z"/>
	<path class="st5" d="M53.5,92.34c-2.26,0-3.12,2.19-2.56,3.84c-0.63,0.12-1.23,0.42-1.68,0.86c-0.54,0.54-0.95,1.44-0.92,2.22
		c0.04,0.81,0.3,1.65,0.92,2.22c0.61,0.56,1.37,0.92,2.22,0.92c0.8,0,1.65-0.35,2.22-0.92c0.54-0.54,0.95-1.44,0.92-2.22
		c-0.02-0.47-0.13-0.95-0.33-1.38C57.11,97.12,56.86,92.34,53.5,92.34z"/>
	<path class="st5" d="M49.83,81.02c-4,0-4.01,6.22,0,6.22C53.83,87.25,53.84,81.02,49.83,81.02z"/>
	<path class="st5" d="M49.22,75.25c-1.97,0-1.97,3.06,0,3.06C51.19,78.32,51.19,75.25,49.22,75.25z"/>
	<path class="st5" d="M39,74.14c-0.1,0-0.2,0.01-0.29,0.01c0.13-0.11,0.24-0.24,0.35-0.37c0.19-0.22,0.08-0.63-0.25-0.61
		c-0.18,0.01-0.37,0.02-0.55,0.05c-0.01,0-0.12,0.02-0.18,0.04c-0.37-0.18-0.78-0.17-1.12,0.08c-0.36,0.28-0.49,0.76-0.31,1.18
		c0.07,0.16,0.18,0.29,0.3,0.39c-1.69,1.65-1.01,5.32,2.04,5.32C42.93,80.24,42.94,74.14,39,74.14z"/>
	<path class="st5" d="M22.87,76.52c-4.02,0-4.03,6.25,0,6.25C26.89,82.77,26.9,76.52,22.87,76.52z"/>
	<path class="st5" d="M16.13,77.98c-3.71,0-3.72,5.77,0,5.77C19.84,83.75,19.85,77.98,16.13,77.98z"/>
	<path class="st5" d="M10.01,77.48c-3.57,0-3.58,5.55,0,5.55C13.58,83.03,13.58,77.48,10.01,77.48z"/>
	<path class="st5" d="M25.12,106.5c-3.8,0-3.81,5.91,0,5.91C28.92,112.41,28.93,106.5,25.12,106.5z"/>
	<path class="st5" d="M17.15,118.45c-3.4,0-3.41,5.29,0,5.29C20.56,123.74,20.56,118.45,17.15,118.45z"/>
	<path class="st5" d="M28.59,130.68c-3.7,0-3.7,5.74,0,5.74C32.29,136.43,32.29,130.68,28.59,130.68z"/>
	<path class="st5" d="M40.23,130.11c-4.17,0-4.18,6.49,0,6.49C44.4,136.59,44.41,130.11,40.23,130.11z"/>
	<path class="st5" d="M49.62,139.82c-3.23,0-3.24,5.03,0,5.03C52.86,144.85,52.86,139.82,49.62,139.82z"/>
	<path class="st5" d="M63.31,114.43c-3.06,0-3.84,3.53-2.35,5.34c-3.13,1.06-2.76,6.5,1.13,6.5c3.24,0,4.04-3.79,2.4-5.66
		C67.37,119.53,66.99,114.43,63.31,114.43z"/>
	<path class="st5" d="M76.17,106.17c-4.23,0-4.24,6.58,0,6.58C80.41,112.75,80.41,106.17,76.17,106.17z"/>
	<path class="st5" d="M71.47,94.48c-3.24,0-3.49,4.64-0.74,5.35c-0.58,0.73-0.27,2.12,0.95,2.12c1.28,0,1.56-1.54,0.85-2.23
		C74.93,98.75,74.59,94.48,71.47,94.48z"/>
	<path class="st5" d="M52.69,64.45c-3.79,0-3.79,5.89,0,5.89C56.47,70.33,56.48,64.45,52.69,64.45z"/>
	<path class="st5" d="M64.94,64.23c-4.07,0-4.07,6.32,0,6.32C69,70.55,69.01,64.23,64.94,64.23z"/>
	<path class="st5" d="M76.38,69.17c-4.02,0-4.03,6.25,0,6.25C80.39,75.41,80.4,69.17,76.38,69.17z"/>
	<path class="st5" d="M84.14,62.3c-3.93,0-3.93,6.1,0,6.1C88.06,68.4,88.07,62.3,84.14,62.3z"/>
	<path class="st5" d="M74.33,46.12c-4.25,0-4.26,6.6,0,6.6C78.58,52.72,78.59,46.12,74.33,46.12z"/>
	<path class="st5" d="M85.77,30.01c-4.22,0-4.23,6.56,0,6.56C89.99,36.57,90,30.01,85.77,30.01z"/>
	<path class="st5" d="M92.1,26.12c-4.23,0-4.24,6.58,0,6.58C96.33,32.7,96.34,26.12,92.1,26.12z"/>
	<path class="st5" d="M87.2,12.85c-0.31,0-0.57,0.05-0.82,0.13c0.38-1.51-0.43-3.36-2.44-3.36c-3.39,0-3.39,5.26,0,5.26
		c0.29,0,0.55-0.05,0.8-0.12c-0.4,1.53,0.42,3.43,2.47,3.43C90.63,18.19,90.64,12.85,87.2,12.85z"/>
	<path class="st5" d="M99.25,3.74c-3.87,0-3.87,6.01,0,6.01C103.11,9.74,103.12,3.74,99.25,3.74z"/>
	<path class="st5" d="M114.15,10.91c-3.57,0-3.58,5.55,0,5.55C117.73,16.46,117.73,10.91,114.15,10.91z"/>
	<path class="st5" d="M111.7,17.65c-3.83,0-3.84,5.96,0,5.96C115.54,23.6,115.54,17.65,111.7,17.65z"/>
	<path class="st5" d="M101.7,26.37c-3.91,0-3.92,6.08,0,6.08C105.61,32.45,105.62,26.37,101.7,26.37z"/>
	<path class="st5" d="M105.78,37.75c-3.71,0-3.72,5.77,0,5.77C109.49,43.52,109.5,37.75,105.78,37.75z"/>
	<path class="st5" d="M93.94,44.84c-0.98,0-1.47,0.77-1.46,1.53c-0.24-0.07-0.5-0.11-0.78-0.11c-3.54,0-3.55,5.5,0,5.5
		c2.28,0,3.09-2.28,2.43-3.91C95.88,47.67,95.83,44.84,93.94,44.84z"/>
	<path class="st5" d="M102.11,57.06c-3.15,0-3.52,4.3-1.12,5.33c0.04,0.76,0.55,1.49,1.53,1.49c1.21,0,1.7-1.11,1.48-2.02
		C105.48,60.34,104.86,57.06,102.11,57.06z"/>
	<path class="st5" d="M114.97,52c-4.3,0-4.3,6.68,0,6.68C119.27,58.68,119.27,52,114.97,52z"/>
	<path class="st5" d="M132.94,28.7c-4.07,0-4.07,6.32,0,6.32C137.01,35.02,137.01,28.7,132.94,28.7z"/>
	<path class="st5" d="M126.41,13.17c-0.89,0-1.59,0.31-2.09,0.78c-0.17-0.06-0.35-0.1-0.57-0.1c-0.22,0-0.41,0.04-0.58,0.1
		c-0.14-0.02-0.29-0.03-0.44-0.03c-4.16,0-4.16,6.46,0,6.46c1.1,0,1.9-0.45,2.42-1.12c0.36,0.15,0.78,0.24,1.25,0.24
		C130.49,19.51,130.49,13.17,126.41,13.17z"/>
	<path class="st5" d="M129.06,55.35c-3.66,0-3.67,5.7,0,5.7C132.73,61.05,132.73,55.35,129.06,55.35z"/>
	<path class="st5" d="M136.42,67.08c0.04-0.1,0.08-0.21,0.11-0.32c1.46-0.12,1.42-2.43-0.11-2.43c-0.22,0-0.41,0.05-0.57,0.14
		c-0.32-0.25-0.74-0.41-1.26-0.41c-2.71,0-2.71,4.21,0,4.21c0.12,0,0.23-0.02,0.34-0.03c-0.08,0.73,0.34,1.52,1.29,1.52
		C137.87,69.76,137.94,67.29,136.42,67.08z"/>
	<path class="st5" d="M132.33,67.86c-3.6,0-3.61,5.6,0,5.6C135.93,73.46,135.94,67.86,132.33,67.86z"/>
	<path class="st5" d="M115.58,68.96c-4.02,0-4.03,6.25,0,6.25C119.6,75.21,119.61,68.96,115.58,68.96z"/>
	<path class="st5" d="M117.63,82.62c-3.26,0-3.27,5.07,0,5.07C120.89,87.69,120.9,82.62,117.63,82.62z"/>
	<path class="st5" d="M94.75,85.26c-1.97,0-1.97,3.06,0,3.06C96.73,88.32,96.73,85.26,94.75,85.26z"/>
	<path class="st5" d="M100.68,92.33c-3.13,0-3.13,4.86,0,4.86C103.8,97.18,103.81,92.33,100.68,92.33z"/>
	<path class="st5" d="M107.82,97.92c-1.97,0-1.97,3.06,0,3.06C109.79,100.98,109.8,97.92,107.82,97.92z"/>
	<path class="st5" d="M102.51,108.88c-1.7,0-2.28,1.74-1.74,2.93c-0.46-0.45-1.1-0.75-1.94-0.75c-3.73,0-3.73,5.79,0,5.79
		c2.52,0,3.34-2.65,2.44-4.37c0.31,0.26,0.72,0.42,1.24,0.42C105.1,112.9,105.11,108.88,102.51,108.88z"/>
	<path class="st5" d="M82.71,89.68c-3.63,0-3.64,5.65,0,5.65C86.34,95.33,86.35,89.68,82.71,89.68z"/>
	<path class="st5" d="M96.18,133.4c-3.62,0-3.62,5.62,0,5.62C99.8,139.02,99.81,133.4,96.18,133.4z"/>
	<path class="st5" d="M81.89,130.49c-3.42,0-3.42,5.31,0,5.31C85.31,135.8,85.31,130.49,81.89,130.49z"/>
	<path class="st5" d="M75.97,133.39c-3.63,0-3.64,5.65,0,5.65C79.6,139.03,79.61,133.39,75.97,133.39z"/>
	<path class="st5" d="M74.74,146.05c-3.37,0-3.38,5.24,0,5.24C78.11,151.29,78.12,146.05,74.74,146.05z"/>
	<path class="st5" d="M67.39,154.44c-3.08,0-3.08,4.79,0,4.79C70.47,159.23,70.47,154.44,67.39,154.44z"/>
	<path class="st5" d="M79.64,164.57c-2.93,0-2.93,4.55,0,4.55C82.57,169.11,82.57,164.57,79.64,164.57z"/>
	<path class="st5" d="M81.68,178.28c-3.42,0-3.42,5.31,0,5.31C85.1,183.59,85.11,178.28,81.68,178.28z"/>
	<path class="st5" d="M86.99,184.93c-3.26,0-3.27,5.07,0,5.07C90.26,190,90.26,184.93,86.99,184.93z"/>
	<path class="st5" d="M86.59,191.63c-3.83,0-3.84,5.96,0,5.96C90.42,197.59,90.43,191.63,86.59,191.63z"/>
	<path class="st5" d="M82.5,197.82c-2.97,0-2.98,4.62,0,4.62C85.47,202.44,85.48,197.82,82.5,197.82z"/>
	<path class="st5" d="M102.92,192.73c-3.74,0-3.75,5.82,0,5.82C106.66,198.54,106.67,192.73,102.92,192.73z"/>
	<path class="st5" d="M112.52,195.33c-3.02,0-3.02,4.69,0,4.69C115.54,200.02,115.54,195.33,112.52,195.33z"/>
	<path class="st5" d="M125.39,188.18c-3.02,0-3.02,4.69,0,4.69C128.4,192.88,128.41,188.18,125.39,188.18z"/>
	<path class="st5" d="M133.55,177.77c-4.33,0-4.33,6.72,0,6.72C137.88,184.5,137.89,177.77,133.55,177.77z"/>
	<path class="st5" d="M133.55,165.81c-4.48,0-4.49,6.96,0,6.96c0.01,0,0.01,0,0.02,0c0.08,0.66,0.55,1.27,1.41,1.27
		c1.38,0,1.76-1.55,1.13-2.41C137.74,169.66,136.89,165.81,133.55,165.81z"/>
	<path class="st5" d="M113.75,172.73c-3.99,0-3.99,6.2,0,6.2C117.73,178.93,117.74,172.73,113.75,172.73z"/>
	<path class="st5" d="M102.92,170.13c-3.65,0-3.66,5.67,0,5.67C106.57,175.8,106.58,170.13,102.92,170.13z"/>
	<path class="st5" d="M108.23,155.74c-2.73,0-2.73,4.24,0,4.24C110.96,159.97,110.96,155.74,108.23,155.74z"/>
	<path class="st5" d="M107.42,138.28c-3.91,0-3.92,6.08,0,6.08C111.33,144.35,111.33,138.28,107.42,138.28z"/>
	<path class="st5" d="M115.38,137.72c-3.57,0-3.58,5.55,0,5.55C118.95,143.27,118.96,137.72,115.38,137.72z"/>
	<path class="st5" d="M126.61,148.16c-1.97,0-1.97,3.06,0,3.06C128.58,151.22,128.59,148.16,126.61,148.16z"/>
	<path class="st5" d="M149.89,140.95c-2.3,0-3.24,2.12-2.81,3.85c-3.77,0.16-3.72,6.09,0.16,6.09c2.34,0,3.29-2.17,2.84-3.92
		C153.77,146.79,153.72,140.95,149.89,140.95z"/>
	<path class="st5" d="M138.66,135.09c-2.23,0-2.24,3.47,0,3.47C140.89,138.56,140.9,135.09,138.66,135.09z"/>
	<path class="st5" d="M129.67,134.13c-3.73,0-3.73,5.79,0,5.79C133.4,139.92,133.41,134.13,129.67,134.13z"/>
	<path class="st5" d="M120.08,119.97c-3.82,0-3.83,5.93,0,5.93C123.9,125.9,123.9,119.97,120.08,119.97z"/>
	<path class="st5" d="M133.55,103.49c-4.27,0-4.27,6.63,0,6.63C137.82,110.12,137.83,103.49,133.55,103.49z"/>
	<path class="st5" d="M132.53,93.42c-3.82,0-3.83,5.93,0,5.93C136.35,99.36,136.36,93.42,132.53,93.42z"/>
	<path class="st5" d="M158.26,129.77c-0.13,0-0.25,0.01-0.37,0.04c-0.25-1.38-1.29-2.59-3.1-2.59c-4.22,0-4.23,6.56,0,6.56
		c1.02,0,1.78-0.38,2.31-0.96c0.28,0.27,0.66,0.45,1.16,0.45C160.51,133.26,160.51,129.77,158.26,129.77z"/>
	<path class="st5" d="M152.55,114.71c-3.5,0-3.5,5.43,0,5.43C156.04,120.14,156.05,114.71,152.55,114.71z"/>
	<path class="st5" d="M168.47,114.33c-3.45,0-3.45,5.36,0,5.36C171.92,119.69,171.93,114.33,168.47,114.33z"/>
	<path class="st5" d="M174.19,128.2c-2.16,0-2.16,3.35,0,3.35C176.35,131.55,176.35,128.2,174.19,128.2z"/>
	<path class="st5" d="M185.02,123.37c-4.17,0-4.18,6.49,0,6.49C189.19,129.85,189.2,123.37,185.02,123.37z"/>
	<path class="st5" d="M200.33,117.84c-2.83,0-3.75,2.97-2.76,4.89c-0.49,0.01-0.98,0.13-1.44,0.4c-0.33,0.19-0.61,0.44-0.83,0.72
		c-0.03,0-0.05-0.02-0.08-0.02c-0.72,0-0.88,0.85-0.49,1.25c-0.02,0.09-0.04,0.18-0.05,0.27c-0.13,0.95,0.15,1.87,0.84,2.56
		c0.38,0.38,0.83,0.64,1.35,0.78c0.54,0.15,1.08,0.15,1.62,0c1.46-0.22,2.98-1.08,3.19-2.66c0.09-0.69-0.1-1.31-0.49-1.81
		C204.5,123.41,204.21,117.84,200.33,117.84z"/>
	<path class="st5" d="M202.17,105.34c-4.25,0-4.26,6.6,0,6.6C206.42,111.94,206.43,105.34,202.17,105.34z"/>
	<path class="st5" d="M204.21,87.22c-3.91,0-3.92,6.08,0,6.08C208.12,93.3,208.13,87.22,204.21,87.22z"/>
	<path class="st5" d="M202.58,74.48c-3.5,0-3.5,5.43,0,5.43C206.07,79.91,206.08,74.48,202.58,74.48z"/>
	<path class="st5" d="M186.65,78.95c-4.05,0-4.06,6.29,0,6.29C190.7,85.24,190.71,78.95,186.65,78.95z"/>
	<path class="st5" d="M177.26,86.23c-3.88,0-3.89,6.03,0,6.03C181.14,92.26,181.14,86.23,177.26,86.23z"/>
	<path class="st5" d="M182.83,98.99c-0.35-0.96-1.18-1.72-2.51-1.72c-3.6,0-3.61,5.6,0,5.6c1.33,0,2.16-0.76,2.51-1.72
		C183.71,100.77,183.71,99.36,182.83,98.99z"/>
	<path class="st5" d="M158.06,100.14c-4.37,0-4.38,6.8,0,6.8C162.43,106.93,162.44,100.14,158.06,100.14z"/>
	<path class="st5" d="M158.06,89.25c-3.4,0-3.41,5.29,0,5.29C161.46,94.54,161.47,89.25,158.06,89.25z"/>
	<path class="st5" d="M164.2,79.39c2.56-1.61,1.95-6.54-1.85-6.54c-4.33,0-4.52,6.42-0.57,6.99c-0.49,0.97-0.03,2.45,1.39,2.45
		C164.84,82.3,165.18,80.24,164.2,79.39z"/>
	<path class="st5" d="M159.29,66.8c-0.03,0-0.06,0.01-0.09,0.01c-0.39-1.06-1.31-1.89-2.77-1.89c-3.97,0-3.98,6.17,0,6.17
		c1.64,0,2.61-1.06,2.89-2.3C160.57,68.76,160.56,66.8,159.29,66.8z"/>
	<path class="st5" d="M142.54,78.79c-3.73,0-3.73,5.79,0,5.79C146.27,84.58,146.27,78.79,142.54,78.79z"/>
	<path class="st5" d="M141.72,52.23c-3.03,0-3.77,3.57-2.21,5.3c-1.45,0.54-1.26,3.08,0.58,3.08c1.28,0,1.76-1.24,1.45-2.17
		c0.06,0,0.12,0.01,0.19,0.01C145.73,58.45,145.73,52.23,141.72,52.23z"/>
	<path class="st5" d="M134.58,44.48c-3.73,0-3.73,5.79,0,5.79C138.3,50.27,138.31,44.48,134.58,44.48z"/>
	<path class="st5" d="M122.12,37c-3.9,0-3.9,6.05,0,6.05C126.01,43.05,126.02,37,122.12,37z"/>
	<path class="st5" d="M116.4,31.64c-3.43,0-3.44,5.34,0,5.34C119.83,36.98,119.84,31.64,116.4,31.64z"/>
	<path class="st5" d="M96.4,68.11c-0.76,0-1.57,0.33-2.11,0.87c-0.52,0.52-0.91,1.36-0.87,2.11c0.07,1.61,1.31,2.98,2.98,2.98
		c0.76,0,1.57-0.33,2.11-0.87c0.52-0.52,0.91-1.36,0.87-2.11C99.31,69.47,98.07,68.11,96.4,68.11z"/>
	<g>
		<path class="st5" d="M5.17,97.68c0.01-0.02,0.01-0.03,0.02-0.05C5.2,97.61,5.2,97.61,5.17,97.68z"/>
		<path class="st5" d="M7.18,98.14c-0.02-0.06-0.04-0.12-0.05-0.19c-0.02-0.12-0.03-0.12-0.03-0.01c-0.01-0.12-0.03-0.23-0.05-0.35
			c-0.02-0.04-0.03-0.07-0.04-0.1c-0.07-0.65-0.87-0.94-1.36-0.49c-0.03,0.03-0.05,0.04-0.06,0.05c-0.03,0.03-0.08,0.06-0.15,0.11
			c-0.14,0.14-0.2,0.29-0.27,0.46c-0.02,0.06-0.09,0.26-0.1,0.32c-0.03,0.16-0.04,0.31-0.03,0.47c0.05,0.65,0.54,1.16,1.23,1.06
			C6.91,99.41,7.38,98.77,7.18,98.14z"/>
	</g>
	<path class="st5" d="M6.35,85.4c-0.17-0.45-0.7-0.64-1.08-0.29c-0.11,0.11-0.23,0.22-0.34,0.32c-0.02,0.01-0.07,0.05-0.09,0.07
		c-0.08,0.04-0.21,0.11-0.02,0.04c-0.36,0.15-0.65,0.36-0.76,0.76c-0.09,0.34-0.02,0.68,0.2,0.95c0.49,0.63,1.37,0.52,1.8-0.11
		C6.37,86.64,6.57,85.97,6.35,85.4z"/>
	<path class="st5" d="M9.8,84.42c-1.21,0-1.21,1.88,0,1.88C11.01,86.3,11.01,84.42,9.8,84.42z"/>
	<path class="st5" d="M25.93,104.16c-1.3,0-1.3,2.02,0,2.02C27.24,106.18,27.24,104.16,25.93,104.16z"/>
	<path class="st5" d="M31.45,105.08c-0.91,0-0.91,1.41,0,1.41C32.35,106.49,32.36,105.08,31.45,105.08z"/>
	<path class="st5" d="M31.04,95.65c-0.68,0-0.68,1.06,0,1.06C31.72,96.72,31.73,95.65,31.04,95.65z"/>
	<path class="st5" d="M31.45,89.85c-0.79,0-0.8,1.23,0,1.23C32.24,91.08,32.24,89.85,31.45,89.85z"/>
	<path class="st5" d="M31.45,81.72c-0.21,0-0.21,0.33,0,0.33C31.66,82.05,31.66,81.72,31.45,81.72z"/>
	<path class="st5" d="M32.6,78.62c-0.15-0.44-0.27-0.87-0.37-1.33c-0.08-0.36-0.65-0.36-0.73,0c-0.1,0.46-0.22,0.89-0.37,1.33
		c-0.16,0.48,0.27,0.97,0.74,0.97C32.33,79.59,32.76,79.1,32.6,78.62z"/>
	<path class="st5" d="M46.36,69.55c-1.42,0-1.43,2.21,0,2.21C47.78,71.76,47.78,69.55,46.36,69.55z"/>
	<path class="st5" d="M43.65,64.51c-0.36,0.18-0.7,0.42-1.05,0.62c-0.6,0.34-0.62,1.19-0.1,1.6c0.54,0.42,1.33,0.15,1.52-0.5
		c0.11-0.38,0.27-0.76,0.37-1.15C44.5,64.63,44.04,64.31,43.65,64.51z"/>
	<path class="st5" d="M49.22,72.35c-0.45,0-0.45,0.7,0,0.7C49.67,73.05,49.67,72.35,49.22,72.35z"/>
	<path class="st5" d="M40.84,91.71c-1.55,0-1.55,2.41,0,2.41C42.39,94.12,42.4,91.71,40.84,91.71z"/>
	<path class="st5" d="M25.73,120.84c-1.38,0-1.38,2.14,0,2.14C27.11,122.98,27.11,120.84,25.73,120.84z"/>
	<path class="st5" d="M23.08,127.77c-1.4,0-1.41,2.18,0,2.18C24.48,129.95,24.48,127.77,23.08,127.77z"/>
	<path class="st5" d="M23.69,133.93c-0.04,0-0.04,0.06,0,0.06C23.73,133.99,23.73,133.93,23.69,133.93z"/>
	<path class="st5" d="M48.19,137.4c-0.04,0-0.04,0.06,0,0.06C48.23,137.47,48.23,137.4,48.19,137.4z"/>
	<path class="st5" d="M49.62,113.54c-2.11,0-2.11,3.27,0,3.27C51.73,116.81,51.73,113.54,49.62,113.54z"/>
	<path class="st5" d="M58,112.25c-1.4,0-1.41,2.18,0,2.18C59.4,114.43,59.4,112.25,58,112.25z"/>
	<path class="st5" d="M60.65,132.36c-1.54,0-1.55,2.4,0,2.4C62.19,134.75,62.2,132.36,60.65,132.36z"/>
	<path class="st5" d="M63.31,139.93c-1,0-1,1.55,0,1.55C64.3,141.48,64.31,139.93,63.31,139.93z"/>
	<path class="st5" d="M62.9,152.04c-1.71,0-1.71,2.66,0,2.66C64.61,154.69,64.61,152.04,62.9,152.04z"/>
	<path class="st5" d="M59.02,151.15c-1.53,0-1.54,2.38,0,2.38C60.55,153.53,60.55,151.15,59.02,151.15z"/>
	<path class="st5" d="M64.33,147.41c-0.04,0-0.04,0.06,0,0.06C64.37,147.47,64.37,147.41,64.33,147.41z"/>
	<path class="st5" d="M77.8,147c-0.04,0-0.04,0.06,0,0.06C77.84,147.06,77.84,147,77.8,147z"/>
	<path class="st5" d="M83.52,152.92c-0.04,0-0.04,0.06,0,0.06C83.56,152.99,83.56,152.92,83.52,152.92z"/>
	<path class="st5" d="M91.28,151.43c-1.7,0-1.7,2.64,0,2.64C92.98,154.07,92.99,151.43,91.28,151.43z"/>
	<path class="st5" d="M99.04,149.08c-1.3,0-1.3,2.02,0,2.02C100.35,151.11,100.35,149.08,99.04,149.08z"/>
	<path class="st5" d="M89.04,149.66c-1.61,0-1.61,2.5,0,2.5C90.64,152.16,90.65,149.66,89.04,149.66z"/>
	<path class="st5" d="M81.28,145.06c-1.23,0-1.23,1.91,0,1.91C82.51,146.97,82.51,145.06,81.28,145.06z"/>
	<path class="st5" d="M86.18,146.18c-1.63,0-1.63,2.53,0,2.53C87.8,148.7,87.81,146.18,86.18,146.18z"/>
	<path class="st5" d="M87.4,159.4c-1.69,0-1.69,2.63,0,2.63C89.09,162.03,89.1,159.4,87.4,159.4z"/>
	<path class="st5" d="M83.32,167.91c-1.52,0-1.52,2.35,0,2.35C84.83,170.26,84.84,167.91,83.32,167.91z"/>
	<path class="st5" d="M76.78,172.8c-1,0-1,1.55,0,1.55C77.78,174.36,77.78,172.8,76.78,172.8z"/>
	<path class="st5" d="M68,166c-1.61,0-1.61,2.5,0,2.5C69.61,168.5,69.61,166,68,166z"/>
	<path class="st5" d="M71.27,172.1c-1.64,0-1.65,2.56,0,2.56C72.91,174.65,72.92,172.1,71.27,172.1z"/>
	<path class="st5" d="M77.8,180.97c-1.79,0-1.8,2.79,0,2.79C79.6,183.75,79.6,180.97,77.8,180.97z"/>
	<path class="st5" d="M80.26,191.23c-0.8,0-1.28,0.51-1.43,1.11c-1.17,0.2-1.1,2.12,0.2,2.12c0.28,0,0.51-0.09,0.67-0.24
		c0.16,0.06,0.34,0.1,0.55,0.1C82.24,194.32,82.25,191.23,80.26,191.23z"/>
	<path class="st5" d="M95.78,190.86c-1.94,0-1.94,3.02,0,3.02C97.72,193.88,97.72,190.86,95.78,190.86z"/>
	<path class="st5" d="M104.15,185.14c-1.41,0-1.42,2.2,0,2.2C105.56,187.34,105.56,185.14,104.15,185.14z"/>
	<path class="st5" d="M100.68,180.46c-1.13,0-1.13,1.75,0,1.75C101.8,182.22,101.81,180.46,100.68,180.46z"/>
	<path class="st5" d="M118.03,186.51c-2.01,0-2.02,3.13,0,3.13C120.05,189.64,120.05,186.51,118.03,186.51z"/>
	<path class="st5" d="M120.49,190.58c-1.52,0-1.52,2.35,0,2.35C122,192.93,122,190.58,120.49,190.58z"/>
	<path class="st5" d="M131.31,185.3c-2,0-2.01,3.12,0,3.12C133.31,188.41,133.32,185.3,131.31,185.3z"/>
	<path class="st5" d="M143.36,162.69c-1.92,0-1.92,2.99,0,2.99C145.28,165.68,145.28,162.69,143.36,162.69z"/>
	<path class="st5" d="M145.6,158.53c-1.76,0-1.76,2.73,0,2.73C147.36,161.26,147.36,158.53,145.6,158.53z"/>
	<path class="st5" d="M148.46,155.04c-1.52,0-1.52,2.35,0,2.35C149.98,157.4,149.98,155.04,148.46,155.04z"/>
	<path class="st5" d="M130.08,153.18c-0.77,0-0.77,1.19,0,1.19C130.85,154.37,130.85,153.18,130.08,153.18z"/>
	<path class="st5" d="M118.44,157.24c-1.84,0-1.84,2.86,0,2.86C120.28,160.1,120.28,157.24,118.44,157.24z"/>
	<path class="st5" d="M116.61,149.85c-1.64,0-1.64,2.54,0,2.54C118.24,152.39,118.24,149.85,116.61,149.85z"/>
	<path class="st5" d="M120.28,139.63c-1.64,0-1.65,2.56,0,2.56C121.93,142.18,121.93,139.63,120.28,139.63z"/>
	<path class="st5" d="M108.64,134.53c-1.64,0-1.64,2.54,0,2.54C110.28,137.07,110.28,134.53,108.64,134.53z"/>
	<path class="st5" d="M103.94,129.3c-1.79,0-1.8,2.79,0,2.79C105.74,132.09,105.74,129.3,103.94,129.3z"/>
	<path class="st5" d="M115.99,118.66c-2.09,0-2.09,3.25,0,3.25C118.08,121.9,118.08,118.66,115.99,118.66z"/>
	<path class="st5" d="M120.08,118.5c-0.71,0-0.71,1.11,0,1.11C120.79,119.61,120.79,118.5,120.08,118.5z"/>
	<path class="st5" d="M137.03,130.42c-1.15,0-1.15,1.78,0,1.78C138.17,132.2,138.17,130.42,137.03,130.42z"/>
	<path class="st5" d="M141.72,137.07c-1.52,0-1.52,2.35,0,2.35C143.24,139.43,143.24,137.07,141.72,137.07z"/>
	<path class="st5" d="M148.26,135.36c-0.04,0-0.04,0.06,0,0.06C148.3,135.42,148.3,135.36,148.26,135.36z"/>
	<path class="st5" d="M73.52,125.66c-0.96,0-0.96,1.49,0,1.49C74.48,127.15,74.48,125.66,73.52,125.66z"/>
	<path class="st5" d="M87.02,115.53c0.59-0.52,0.38-1.77-0.64-1.77c-1.28,0-1.29,2,0,2c0.01,0,0.02,0,0.03,0
		c-0.47,0.47-0.28,1.51,0.59,1.51C88.1,117.27,88.11,115.56,87.02,115.53z"/>
	<path class="st5" d="M91.28,110.13c-1.51,0-1.51,2.34,0,2.34C92.79,112.47,92.79,110.13,91.28,110.13z"/>
	<path class="st5" d="M98.28,106.26c-0.25-0.89-1.55-1.37-2.21-0.58c-0.14,0.16-0.25,0.32-0.34,0.48c-0.19,0.25-0.31,0.52-0.22,0.86
		c0.09,0.33,0.33,0.5,0.62,0.62c0.16,0.1,0.33,0.18,0.52,0.25C97.62,108.24,98.53,107.17,98.28,106.26z"/>
	<path class="st5" d="M74.41,120.68c-0.18-0.41-0.76-0.48-1.11-0.29c-0.52,0.29-0.83,0.77-1.16,1.24c-0.51,0.72,0.02,1.77,0.81,1.98
		c0.85,0.23,1.69-0.43,1.71-1.3C74.66,121.74,74.65,121.22,74.41,120.68z"/>
	<path class="st5" d="M68.21,96.75c-0.59,0-0.59,0.92,0,0.92C68.8,97.66,68.8,96.75,68.21,96.75z"/>
	<path class="st5" d="M59.83,95.28c-1.43,0-1.43,2.23,0,2.23C61.27,97.5,61.27,95.28,59.83,95.28z"/>
	<path class="st5" d="M66.98,87.13c-1.4,0-1.41,2.18,0,2.18C68.39,89.31,68.39,87.13,66.98,87.13z"/>
	<path class="st5" d="M75.35,82.69c-1.34,0-1.34,2.08,0,2.08C76.69,84.77,76.7,82.69,75.35,82.69z"/>
	<path class="st5" d="M79.03,78.6c-1.6,0-1.6,2.48,0,2.48C80.63,81.09,80.63,78.6,79.03,78.6z"/>
	<path class="st5" d="M69.43,69.05c-1.28,0-1.29,2,0,2C70.72,71.04,70.72,69.05,69.43,69.05z"/>
	<path class="st5" d="M65.76,59.24c-1.55,0-1.55,2.41,0,2.41C67.31,61.65,67.31,59.24,65.76,59.24z"/>
	<path class="st5" d="M60.24,54.37c-2.04,0-2.05,3.17,0,3.17C62.28,57.54,62.29,54.37,60.24,54.37z"/>
	<path class="st5" d="M65.35,51.25c-1.32,0-1.32,2.05,0,2.05C66.67,53.3,66.67,51.25,65.35,51.25z"/>
	<path class="st5" d="M67.19,50.25c-1.29,0-1.3,2.01,0,2.01C68.48,52.26,68.48,50.25,67.19,50.25z"/>
	<path class="st5" d="M79.23,55.51c-1.62,0-1.62,2.51,0,2.51C80.85,58.03,80.85,55.51,79.23,55.51z"/>
	<path class="st5" d="M91.69,60.69c-2.05,0-2.05,3.19,0,3.19C93.74,63.88,93.75,60.69,91.69,60.69z"/>
	<path class="st5" d="M97.03,53.27c0.08-0.81-0.4-1.7-1.46-1.7c-1.87,0-1.95,2.76-0.26,3.02c0.03,0.64,0.45,1.26,1.28,1.26
		C98.14,55.85,98.28,53.68,97.03,53.27z"/>
	<path class="st5" d="M97,60.43c-1.86,0-1.86,2.89,0,2.89C98.86,63.32,98.86,60.43,97,60.43z"/>
	<path class="st5" d="M110.27,55.52c-0.82,0-0.82,1.28,0,1.28C111.1,56.8,111.1,55.52,110.27,55.52z"/>
	<path class="st5" d="M118.65,60.15c-1.17,0-1.18,1.82,0,1.82C119.82,61.97,119.82,60.15,118.65,60.15z"/>
	<path class="st5" d="M148.67,64.36c-2.06,0-2.06,3.2,0,3.2C150.73,67.56,150.73,64.36,148.67,64.36z"/>
	<path class="st5" d="M160.92,63.68c-0.04,0-0.04,0.06,0,0.06C160.96,63.74,160.96,63.68,160.92,63.68z"/>
	<path class="st5" d="M161.74,69.09c-2.01,0-2.02,3.13,0,3.13C163.75,72.22,163.75,69.09,161.74,69.09z"/>
	<path class="st5" d="M149.89,79.81c-1.63,0-1.63,2.53,0,2.53C151.52,82.34,151.52,79.81,149.89,79.81z"/>
	<path class="st5" d="M133.55,79.43c-0.8,0-0.81,1.25,0,1.25C134.36,80.68,134.36,79.43,133.55,79.43z"/>
	<path class="st5" d="M127.43,75.92c-1.9,0-1.91,2.96,0,2.96C129.33,78.88,129.33,75.92,127.43,75.92z"/>
	<path class="st5" d="M127.43,84.3c-2.15,0-2.16,3.35,0,3.35C129.58,87.65,129.58,84.3,127.43,84.3z"/>
	<path class="st5" d="M126.61,93.82c-2,0-2,3.1,0,3.1C128.61,96.92,128.61,93.82,126.61,93.82z"/>
	<path class="st5" d="M111.91,94.77c-1.03,0-1.04,1.61,0,1.61C112.94,96.38,112.94,94.77,111.91,94.77z"/>
	<path class="st5" d="M101.29,80.38c-1.94,0-1.94,3.02,0,3.02C103.23,83.4,103.23,80.38,101.29,80.38z"/>
	<path class="st5" d="M106.6,78.69c-1.76,0-1.76,2.73,0,2.73C108.35,81.42,108.36,78.69,106.6,78.69z"/>
	<path class="st5" d="M137.23,106.57c-0.04,0-0.04,0.06,0,0.06C137.27,106.63,137.27,106.57,137.23,106.57z"/>
	<path class="st5" d="M143.36,101.81c-2.23,0-2.23,3.46,0,3.46C145.58,105.27,145.59,101.81,143.36,101.81z"/>
	<path class="st5" d="M111.7,110.02c-0.85,0-0.85,1.32,0,1.32C112.55,111.34,112.56,110.02,111.7,110.02z"/>
	<path class="st5" d="M112.93,102.64c-2.2,0-2.2,3.42,0,3.42C115.13,106.06,115.13,102.64,112.93,102.64z"/>
	<path class="st5" d="M143.77,117.85c-1.28,0-1.29,2,0,2C145.05,119.85,145.05,117.85,143.77,117.85z"/>
	<path class="st5" d="M147.65,127.48c-0.98,0-0.98,1.52,0,1.52C148.62,129.01,148.63,127.48,147.65,127.48z"/>
	<path class="st5" d="M150.3,138.1c-0.45,0-0.45,0.7,0,0.7C150.75,138.81,150.75,138.1,150.3,138.1z"/>
	<path class="st5" d="M166.02,123.21c-1.49,0-1.49,2.31,0,2.31C167.51,125.52,167.51,123.21,166.02,123.21z"/>
	<path class="st5" d="M170.31,128.83c-2.14,0-2.15,3.33,0,3.33C172.46,132.16,172.46,128.83,170.31,128.83z"/>
	<path class="st5" d="M177.05,128.08c-1.52,0-1.53,2.37,0,2.37C178.58,130.45,178.58,128.08,177.05,128.08z"/>
	<path class="st5" d="M180.11,116.05c-2.03,0-2.04,3.16,0,3.16C182.15,119.21,182.15,116.05,180.11,116.05z"/>
	<path class="st5" d="M182.97,111.45c-2.16,0-2.17,3.36,0,3.36C185.14,114.81,185.14,111.45,182.97,111.45z"/>
	<path class="st5" d="M189.71,111.54c-0.95,0-1.39,0.77-1.34,1.51c-0.09-0.02-0.19-0.04-0.3-0.04c-1.48,0-1.48,2.3,0,2.3
		c0.71,0,1.08-0.53,1.1-1.08c0.16,0.06,0.33,0.1,0.53,0.1C191.51,114.32,191.51,111.54,189.71,111.54z"/>
	<path class="st5" d="M192.98,105.09c-1.67,0-1.68,2.6,0,2.6C194.65,107.69,194.66,105.09,192.98,105.09z"/>
	<path class="st5" d="M187.47,98.21c-0.81,0-0.81,1.26,0,1.26C188.28,99.47,188.28,98.21,187.47,98.21z"/>
	<path class="st5" d="M189.3,87.81c-1.84,0-1.84,2.86,0,2.86C191.14,90.67,191.15,87.81,189.3,87.81z"/>
	<path class="st5" d="M191.76,83.44c-1.95,0-1.95,3.03,0,3.03C193.7,86.47,193.71,83.44,191.76,83.44z"/>
	<path class="st5" d="M173.17,92.53c-2.07,0-2.07,3.22,0,3.22C175.24,95.75,175.24,92.53,173.17,92.53z"/>
	<path class="st5" d="M163.17,92.47c-1.1,0-1.1,1.71,0,1.71C164.26,94.18,164.27,92.47,163.17,92.47z"/>
	<path class="st5" d="M165,83.16c-2.04,0-2.05,3.17,0,3.17C167.05,86.33,167.05,83.16,165,83.16z"/>
	<path class="st5" d="M151.12,90.02c-1.1,0-1.1,1.71,0,1.71C152.22,91.73,152.22,90.02,151.12,90.02z"/>
	<path class="st5" d="M147.03,94.72c-1.62,0-1.62,2.51,0,2.51C148.65,97.24,148.65,94.72,147.03,94.72z"/>
	<path class="st5" d="M144.79,91.75c-1.51,0-1.51,2.34,0,2.34C146.29,94.09,146.29,91.75,144.79,91.75z"/>
	<path class="st5" d="M128.65,66.06c-1.97,0-1.97,3.06,0,3.06C130.62,69.12,130.62,66.06,128.65,66.06z"/>
	<path class="st5" d="M123.34,52.41c-2.2,0-2.2,3.42,0,3.42C125.54,55.82,125.55,52.41,123.34,52.41z"/>
	<path class="st5" d="M124.16,44.04c-1.66,0-1.67,2.58,0,2.58C125.82,46.63,125.83,44.04,124.16,44.04z"/>
	<path class="st5" d="M114.77,44.01c-0.91,0-0.92,1.42,0,1.42C115.68,45.43,115.68,44.01,114.77,44.01z"/>
	<path class="st5" d="M113.75,36.51c-1.89,0-1.9,2.94,0,2.94C115.64,39.46,115.64,36.51,113.75,36.51z"/>
	<path class="st5" d="M98.63,39.98c-1.89,0-1.9,2.94,0,2.94C100.53,42.93,100.53,39.98,98.63,39.98z"/>
	<path class="st5" d="M84.75,38.73c-1.93,0-1.93,3,0,3C86.68,41.73,86.68,38.73,84.75,38.73z"/>
	<path class="st5" d="M70.86,43.47c-0.04,0-0.04,0.06,0,0.06C70.9,43.53,70.9,43.47,70.86,43.47z"/>
	<path class="st5" d="M72.09,34.16c-1.76,0-1.77,2.74,0,2.74C73.85,36.9,73.85,34.16,72.09,34.16z"/>
	<path class="st5" d="M76.38,28.51c-1.94,0-1.94,3.02,0,3.02C78.32,31.53,78.32,28.51,76.38,28.51z"/>
	<path class="st5" d="M80.87,25.3c-1.87,0-1.87,2.9,0,2.9C82.73,28.2,82.74,25.3,80.87,25.3z"/>
	<path class="st5" d="M80.87,18.25c-0.69,0-0.69,1.08,0,1.08C81.56,19.33,81.56,18.25,80.87,18.25z"/>
	<path class="st5" d="M80.87,13.95c-1.76,0-1.76,2.73,0,2.73C82.62,16.68,82.63,13.95,80.87,13.95z"/>
	<path class="st5" d="M77.6,8.92c-1.66,0-1.67,2.58,0,2.58C79.26,11.5,79.27,8.92,77.6,8.92z"/>
	<path class="st5" d="M80.46,7c-1.25,0-1.25,1.94,0,1.94C81.71,8.93,81.71,7,80.46,7z"/>
	<path class="st5" d="M84.14,5.54c-1.54,0-1.55,2.4,0,2.4C85.68,7.94,85.68,5.54,84.14,5.54z"/>
	<path class="st5" d="M99.45,10.32c-1.96,0-1.96,3.04,0,3.04C101.41,13.37,101.41,10.32,99.45,10.32z"/>
	<path class="st5" d="M101.29,15.54c-2.08,0-2.08,3.23,0,3.23C103.37,18.77,103.37,15.54,101.29,15.54z"/>
	<path class="st5" d="M92.92,17.77c-1.57,0-1.57,2.44,0,2.44C94.49,20.21,94.49,17.77,92.92,17.77z"/>
	<path class="st5" d="M109.66,17.94c-0.04,0-0.04,0.06,0,0.06C109.7,18,109.7,17.94,109.66,17.94z"/>
	<path class="st5" d="M129.88,8.82c-1.52,0-1.53,2.37,0,2.37C131.4,11.19,131.41,8.82,129.88,8.82z"/>
	<path class="st5" d="M131.51,15.7c-1.61,0-1.61,2.5,0,2.5C133.12,18.2,133.12,15.7,131.51,15.7z"/>
	<path class="st5" d="M99.86,34.94c-1.29,0-1.3,2.01,0,2.01C101.15,36.95,101.16,34.94,99.86,34.94z"/>
	<path class="st5" d="M107.21,30.91c-1.48,0-1.48,2.3,0,2.3C108.69,33.21,108.69,30.91,107.21,30.91z"/>
	<path class="st5" d="M109.87,26.71c-1.64,0-1.64,2.54,0,2.54C111.5,29.25,111.5,26.71,109.87,26.71z"/>
	<path class="st5" d="M100.27,18.99c-1.84,0-1.84,2.86,0,2.86C102.11,21.85,102.11,18.99,100.27,18.99z"/>
	<path class="st5" d="M101.9,12.14c-1.99,0-1.99,3.09,0,3.09C103.89,15.23,103.89,12.14,101.9,12.14z"/>
	<path class="st5" d="M109.46,6.58c-1.78,0-1.79,2.77,0,2.77C111.24,9.35,111.24,6.58,109.46,6.58z"/>
	<path class="st5" d="M185.02,108.1c-1.49,0-1.49,2.31,0,2.31C186.5,110.41,186.51,108.1,185.02,108.1z"/>
	<path class="st5" d="M175.99,81.7c1.4-0.53,1.21-3-0.57-3c-1.87,0-1.99,2.72-0.35,3.07c-1.04,0.5-0.85,2.4,0.56,2.4
		C177.11,84.17,177.24,82.05,175.99,81.7z"/>
	<path class="st5" d="M182.57,78.29c-1.74,0-1.74,2.7,0,2.7C184.3,80.99,184.31,78.29,182.57,78.29z"/>
	<path class="st5" d="M177.87,76.94c-1.38,0-1.38,2.14,0,2.14C179.25,79.08,179.25,76.94,177.87,76.94z"/>
	<path class="st5" d="M159.9,85.8c-2.06,0-2.06,3.2,0,3.2C161.96,89,161.96,85.8,159.9,85.8z"/>
	<path class="st5" d="M154.79,78.04c-1.8,0-1.8,2.8,0,2.8C156.59,80.84,156.6,78.04,154.79,78.04z"/>
	<path class="st5" d="M182.36,93.17c-0.46,0-0.46,0.72,0,0.72C182.82,93.89,182.82,93.17,182.36,93.17z"/>
	<path class="st5" d="M189.3,106.15c-1.37,0-1.37,2.13,0,2.13C190.67,108.27,190.67,106.15,189.3,106.15z"/>
	<path class="st5" d="M196.66,113.3c-1.37,0-1.37,2.13,0,2.13C198.02,115.42,198.03,113.3,196.66,113.3z"/>
	<path class="st5" d="M190.94,126.38c-0.04,0-0.04,0.06,0,0.06C190.98,126.44,190.98,126.38,190.94,126.38z"/>
	<path class="st5" d="M185.02,131.62c-1.97,0-1.97,3.06,0,3.06C186.98,134.68,186.99,131.62,185.02,131.62z"/>
	<path class="st5" d="M178.89,131.52c-1.57,0-1.57,2.44,0,2.44C180.46,133.96,180.46,131.52,178.89,131.52z"/>
	<path class="st5" d="M193.8,108.58c-2.18,0-2.18,3.39,0,3.39C195.98,111.97,195.98,108.58,193.8,108.58z"/>
	<path class="st5" d="M194,95.17c-1.56,0-1.56,2.43,0,2.43C195.56,97.6,195.57,95.17,194,95.17z"/>
	<path class="st5" d="M193.39,91.86c-0.04,0-0.04,0.06,0,0.06C193.43,91.93,193.43,91.86,193.39,91.86z"/>
	<path class="st4" d="M175.42,106.7c-0.3,0-0.54,0.1-0.71,0.26c-0.16-0.64-0.67-1.19-1.53-1.19c-2.13,0-2.13,3.3,0,3.3
		c0.61,0,1.04-0.28,1.3-0.66c0.17,0.32,0.48,0.55,0.95,0.55C176.87,108.95,176.87,106.7,175.42,106.7z"/>
	<path class="st4" d="M176.23,101.26c-1.88,0-1.88,2.91,0,2.91C178.11,104.18,178.11,101.26,176.23,101.26z"/>
	<path class="st4" d="M167.86,88.68c-0.46,0-0.46,0.72,0,0.72C168.32,89.4,168.33,88.68,167.86,88.68z"/>
	<path class="st4" d="M163.57,86.49c-0.12,0-0.12,0.19,0,0.19C163.69,86.68,163.69,86.49,163.57,86.49z"/>
	<path class="st4" d="M165,80.98c-0.91,0-0.91,1.41,0,1.41C165.91,82.39,165.91,80.98,165,80.98z"/>
	<path class="st4" d="M180.32,78.01c-1.84,0-1.84,2.86,0,2.86C182.16,80.87,182.16,78.01,180.32,78.01z"/>
	<path class="st4" d="M186.24,84.84c-1.99,0-1.99,3.09,0,3.09C188.23,87.93,188.23,84.84,186.24,84.84z"/>
	<path class="st4" d="M196.66,86.42c-2.05,0-2.05,3.19,0,3.19C198.71,89.61,198.71,86.42,196.66,86.42z"/>
	<path class="st4" d="M192.37,117.18c-1.88,0-1.89,2.93,0,2.93C194.25,120.11,194.26,117.18,192.37,117.18z"/>
	<path class="st4" d="M181.54,123.12c-1.61,0-1.61,2.5,0,2.5C183.15,125.61,183.15,123.12,181.54,123.12z"/>
	<path class="st4" d="M159.29,128.11c-1.49,0-1.49,2.31,0,2.31C160.77,130.42,160.78,128.11,159.29,128.11z"/>
	<path class="st4" d="M139.27,143.57c-1.57,0-1.57,2.44,0,2.44C140.84,146.01,140.85,143.57,139.27,143.57z"/>
	<path class="st4" d="M131.51,147.07c-1.01,0-1.01,1.57,0,1.57C132.52,148.63,132.52,147.07,131.51,147.07z"/>
	<path class="st4" d="M128.45,135.02c-2.06,0-2.06,3.2,0,3.2C130.51,138.22,130.51,135.02,128.45,135.02z"/>
	<path class="st4" d="M128.25,126.19c-1.33,0-1.33,2.07,0,2.07C129.58,128.26,129.58,126.19,128.25,126.19z"/>
	<path class="st4" d="M125.79,123.72c-2.14,0-2.15,3.33,0,3.33C127.94,127.05,127.94,123.72,125.79,123.72z"/>
	<path class="st4" d="M112.32,157.26c-0.24,0-0.24,0.37,0,0.37C112.56,157.63,112.56,157.26,112.32,157.26z"/>
	<path class="st4" d="M95.16,160.17c-1.75,0-1.75,2.71,0,2.71C96.91,162.89,96.91,160.17,95.16,160.17z"/>
	<path class="st4" d="M114.15,162.17c-2.07,0-2.07,3.22,0,3.22C116.22,165.39,116.23,162.17,114.15,162.17z"/>
	<path class="st4" d="M116.4,164.46c-1.76,0-1.76,2.73,0,2.73C118.16,167.18,118.16,164.46,116.4,164.46z"/>
	<path class="st4" d="M116.61,172.81c-2.3,0-2.3,3.58,0,3.58C118.91,176.39,118.91,172.81,116.61,172.81z"/>
	<path class="st4" d="M113.34,179.52c-1.81,0-1.81,2.81,0,2.81C115.15,182.34,115.15,179.52,113.34,179.52z"/>
	<path class="st4" d="M105.99,185.97c-1.66,0-1.67,2.58,0,2.58C107.65,188.55,107.65,185.97,105.99,185.97z"/>
	<path class="st4" d="M79.03,182.31c-2.17,0-2.17,3.37,0,3.37C81.2,185.68,81.2,182.31,79.03,182.31z"/>
	<path class="st4" d="M68.82,164.56c-1.63,0-1.63,2.53,0,2.53C70.45,167.08,70.45,164.56,68.82,164.56z"/>
	<path class="st4" d="M66.16,155.12c-1.42,0-1.43,2.21,0,2.21C67.59,157.33,67.59,155.12,66.16,155.12z"/>
	<path class="st4" d="M61.26,161.8c-0.02,0-0.03,0.01-0.04,0.01c-0.05-0.46-0.38-0.89-0.98-0.89c-1.32,0-1.32,2.05,0,2.05
		c0.27,0,0.48-0.09,0.64-0.22c0.09,0.09,0.21,0.16,0.38,0.16C61.98,162.9,61.98,161.8,61.26,161.8z"/>
	<path class="st4" d="M62.9,163.67c-1.19,0-1.19,1.85,0,1.85C64.09,165.52,64.09,163.67,62.9,163.67z"/>
	<path class="st4" d="M71.47,171.45c-1.69,0-1.69,2.63,0,2.63C73.16,174.08,73.17,171.45,71.47,171.45z"/>
	<path class="st4" d="M45.13,144.74c-1.64,0-1.64,2.54,0,2.54C46.77,147.28,46.77,144.74,45.13,144.74z"/>
	<path class="st4" d="M40.43,142.33c-1.58,0-1.58,2.46,0,2.46C42.01,144.79,42.02,142.33,40.43,142.33z"/>
	<path class="st4" d="M34.51,138.32c-1.76,0-1.76,2.73,0,2.73C36.27,141.05,36.27,138.32,34.51,138.32z"/>
	<path class="st4" d="M27.36,136.06c-0.45,0-0.45,0.7,0,0.7C27.82,136.77,27.82,136.06,27.36,136.06z"/>
	<path class="st4" d="M18.79,132.27c-1.4,0-1.4,2.17,0,2.17C20.18,134.43,20.18,132.27,18.79,132.27z"/>
	<path class="st4" d="M13.68,132.09c-0.04,0-0.04,0.06,0,0.06C13.72,132.16,13.72,132.09,13.68,132.09z"/>
	<path class="st4" d="M7.35,120.04c-1.36,0-1.36,2.11,0,2.11C8.71,122.15,8.71,120.04,7.35,120.04z"/>
	<path class="st4" d="M7.15,112.73c-2.1,0-2.1,3.26,0,3.26C9.24,115.99,9.25,112.73,7.15,112.73z"/>
	<path class="st4" d="M8.58,92.19c-1.46,0-1.46,2.27,0,2.27C10.04,94.46,10.04,92.19,8.58,92.19z"/>
	<path class="st4" d="M8.17,87.14c-1.91,0-1.92,2.97,0,2.97C10.08,90.11,10.08,87.14,8.17,87.14z"/>
	<path class="st4" d="M16.54,95.5c-1.93,0-1.93,3,0,3C18.47,98.5,18.48,95.5,16.54,95.5z"/>
	<path class="st4" d="M21.65,107.46c-2.04,0-2.05,3.17,0,3.17C23.69,110.64,23.69,107.46,21.65,107.46z"/>
	<path class="st4" d="M29.2,110.33c-1.77,0-1.78,2.76,0,2.76C30.98,113.08,30.98,110.33,29.2,110.33z"/>
	<path class="st4" d="M38.6,102.48c-0.04,0-0.04,0.06,0,0.06C38.64,102.55,38.64,102.48,38.6,102.48z"/>
	<path class="st4" d="M36.96,102.69c-0.04,0-0.04,0.06,0,0.06C37,102.75,37,102.69,36.96,102.69z"/>
	<path class="st4" d="M37.78,103.3c-0.04,0-0.04,0.06,0,0.06C37.82,103.36,37.82,103.3,37.78,103.3z"/>
	<path class="st4" d="M39.41,107.59c-0.04,0-0.04,0.06,0,0.06C39.45,107.65,39.45,107.59,39.41,107.59z"/>
	<path class="st4" d="M36.96,119.66c-1.33,0-1.33,2.07,0,2.07C38.29,121.72,38.29,119.66,36.96,119.66z"/>
	<path class="st4" d="M38.39,121.87c-1.9,0-1.91,2.96,0,2.96C40.3,124.82,40.3,121.87,38.39,121.87z"/>
	<path class="st4" d="M46.56,117c-2.12,0-2.12,3.29,0,3.29C48.68,120.29,48.68,117,46.56,117z"/>
	<path class="st4" d="M38.8,104.69c-1.93,0-1.93,3,0,3C40.73,107.69,40.73,104.69,38.8,104.69z"/>
	<path class="st4" d="M35.74,99.8c-1.91,0-1.92,2.97,0,2.97C37.65,102.78,37.65,99.8,35.74,99.8z"/>
	<path class="st4" d="M39.62,99.32c-2,0-2.01,3.12,0,3.12C41.62,102.44,41.63,99.32,39.62,99.32z"/>
	<path class="st4" d="M50.64,107.64c-2.08,0-2.08,3.23,0,3.23C52.72,110.87,52.73,107.64,50.64,107.64z"/>
	<path class="st4" d="M56.57,109.07c-2.08,0-2.08,3.23,0,3.23C58.65,112.3,58.65,109.07,56.57,109.07z"/>
	<path class="st4" d="M56.16,103.68c-1.91,0-1.92,2.97,0,2.97C58.07,106.66,58.07,103.68,56.16,103.68z"/>
	<path class="st4" d="M51.67,90.93c-1.77,0-1.78,2.76,0,2.76C53.44,93.68,53.44,90.93,51.67,90.93z"/>
	<path class="st4" d="M52.89,82.08c-1.86,0-1.86,2.89,0,2.89C54.75,84.97,54.75,82.08,52.89,82.08z"/>
	<path class="st4" d="M58.61,77.26c-0.98,0-1.48,0.75-1.51,1.51c-0.82,0.74-0.53,2.47,0.89,2.47c0.73,0,1.16-0.46,1.3-1
		C60.59,79.62,60.36,77.26,58.61,77.26z"/>
	<path class="st4" d="M39.62,83.46c-0.6,0-0.6,0.93,0,0.93C40.22,84.4,40.22,83.46,39.62,83.46z"/>
	<path class="st4" d="M42.68,81.89c-2.1,0-2.1,3.26,0,3.26C44.78,85.15,44.78,81.89,42.68,81.89z"/>
	<path class="st4" d="M50.24,67.85c-2.04,0-2.05,3.17,0,3.17C52.28,71.02,52.28,67.85,50.24,67.85z"/>
	<path class="st4" d="M59.02,53.57c-0.7,0-0.7,1.09,0,1.09C59.72,54.66,59.72,53.57,59.02,53.57z"/>
	<path class="st4" d="M61.06,51.7c-2.06,0-2.06,3.2,0,3.2C63.12,54.9,63.12,51.7,61.06,51.7z"/>
	<path class="st4" d="M86.38,80.02c-0.04,0-0.04,0.06,0,0.06C86.42,80.08,86.42,80.02,86.38,80.02z"/>
	<path class="st4" d="M94.75,83.09c-1.87,0-1.87,2.9,0,2.9C96.62,85.99,96.62,83.09,94.75,83.09z"/>
	<path class="st4" d="M96.18,78.18c-2.14,0-2.15,3.33,0,3.33C98.33,81.51,98.33,78.18,96.18,78.18z"/>
	<path class="st4" d="M91.9,105.02c-1.77,0-1.78,2.76,0,2.76C93.67,107.77,93.67,105.02,91.9,105.02z"/>
	<path class="st4" d="M106.39,105.14c-1.35,0-1.35,2.1,0,2.1C107.74,107.24,107.75,105.14,106.39,105.14z"/>
	<path class="st4" d="M115.38,94.52c-2.14,0-2.15,3.33,0,3.33C117.52,97.85,117.53,94.52,115.38,94.52z"/>
	<path class="st4" d="M113.13,88.46c-2.05,0-2.05,3.19,0,3.19C115.18,91.65,115.19,88.46,113.13,88.46z"/>
	<path class="st4" d="M121.51,95.65c-2,0-2,3.1,0,3.1C123.5,98.76,123.51,95.65,121.51,95.65z"/>
	<path class="st4" d="M129.47,72.67c-2.14,0-2.15,3.33,0,3.33C131.61,76,131.62,72.67,129.47,72.67z"/>
	<path class="st4" d="M118.44,56.94c-0.04,0-0.04,0.06,0,0.06C118.48,57.01,118.48,56.94,118.44,56.94z"/>
	<path class="st4" d="M91.49,46.53c-1.88,0-1.89,2.93,0,2.93C93.37,49.45,93.37,46.53,91.49,46.53z"/>
	<path class="st4" d="M87.81,26.13c-1.85,0-1.85,2.87,0,2.87C89.66,29,89.66,26.13,87.81,26.13z"/>
	<path class="st4" d="M95.78,17.51c-1.38,0-1.38,2.14,0,2.14C97.15,19.65,97.15,17.51,95.78,17.51z"/>
	<path class="st4" d="M103.13,17.01c-2.29,0-2.3,3.56,0,3.56C105.42,20.57,105.42,17.01,103.13,17.01z"/>
	<path class="st4" d="M88.83,19.46c-1.76,0-1.77,2.74,0,2.74C90.6,22.2,90.6,19.46,88.83,19.46z"/>
	<path class="st4" d="M83.93,13.24c-0.04,0-0.04,0.06,0,0.06C83.97,13.3,83.97,13.24,83.93,13.24z"/>
	<path class="st4" d="M86.38,5.38c-1.75,0-1.75,2.71,0,2.71C88.13,8.1,88.13,5.38,86.38,5.38z"/>
	<path class="st4" d="M93.73,5.98c-0.45,0-0.45,0.7,0,0.7C94.19,6.68,94.19,5.98,93.73,5.98z"/>
	<path class="st4" d="M75.76,22.88c-2.09,0-2.09,3.25,0,3.25C77.85,26.13,77.85,22.88,75.76,22.88z"/>
	<path class="st4" d="M71.27,31.79c-1.93,0-1.93,3,0,3C73.2,34.79,73.2,31.79,71.27,31.79z"/>
	<path class="st4" d="M73.52,40.47c-1.79,0-1.8,2.79,0,2.79C75.31,43.26,75.31,40.47,73.52,40.47z"/>
</g>
</svg>
