<?xml version="1.0" encoding="utf-8"?>
<!-- Generator: Adobe Illustrator 25.2.3, SVG Export Plug-In . SVG Version: 6.00 Build 0)  -->
<svg version="1.1" id="Layer_1" xmlns="http://www.w3.org/2000/svg" xmlns:xlink="http://www.w3.org/1999/xlink" x="0px" y="0px"
	 viewBox="0 0 52 52" style="enable-background:new 0 0 52 52;" xml:space="preserve">
<style type="text/css">
	.st0{fill:#E56B27;}
	.st1{fill:#7F3713;}
	.st2{fill:#FEF688;}
	.st3{fill:#C65A24;}
	.st4{fill:#FFF9C5;}
	.st5{fill:#FFA506;}
	.st6{fill:#AF371B;}
</style>
<g>
	<path class="st0" d="M44.8,25.91c-0.21-1.64-0.93-3.18-2.03-4.42c-0.42-0.47-1.19-1.16-1.99-1.51c-0.03-0.21-0.07-0.42-0.11-0.62
		c0.32-1.19,0.18-2.43-0.12-3.67c-0.2-0.82-0.46-1.58-1-2.24c-0.49-0.6-1.04-1.41-1.79-1.67c-1.66-0.58-3.59,0.26-4.92,1.23
		c-0.59,0.43-1.25,0.9-1.5,1.61c-0.02,0.06-0.03,0.12-0.05,0.18c-0.14-1.15-0.4-2.33-0.98-3.23c-0.88-1.38-2.65-1.53-4.09-1.11
		c-1.84,0.53-3.85,2.03-4.37,3.82c-0.65-0.71-1.52-1.27-2.37-1.48c-2.53-0.63-4.97,0.59-6.28,2.78c-0.68,1.13-1.1,2.68-0.91,4.05
		c-1.27-0.55-2.74-0.74-3.53,0.49c-1.01,1.57-1.41,4.13-1.34,5.94c0.08,2.11,0.74,4.1,1.58,6.01c0.3,0.69,0.64,1.65,1.12,2.48
		c-0.19,1.64,0.52,3.29,1.72,4.42c0.11,0.28,0.29,0.54,0.57,0.74c1.1,0.79,2.38,1.2,3.72,1.39c0.42,0.06,0.88,0.13,1.34,0.18
		c0.32,0.17,0.68,0.27,1.16,0.28c0.86,0.01,1.64-0.27,2.42-0.61c0.28-0.12,0.53-0.22,0.78-0.4c0.29-0.2,0.43-0.51,0.69-0.71
		c0.16-0.12,0.38-0.15,0.57-0.22c0.37,0.7,0.95,1.27,1.76,1.63c0.68,0.31,1.43,0.4,2.17,0.38c0.69-0.02,1.68-0.32,2.34-0.03
		c0.52,0.23,1.01,0.19,1.41-0.01c1,0.31,2.17,0.18,3.11-0.15c1.56-0.55,2.82-1.71,3.64-3.14c0.37-0.66,0.65-1.36,0.85-2.08
		c0.39-0.2,0.74-0.5,1.08-0.77c0.59-0.47,1.2-0.98,1.69-1.55c0.12-0.13,0.16-0.27,0.16-0.41c0.88-0.7,1.72-1.45,2.36-2.37
		C44.7,29.59,45.04,27.73,44.8,25.91z"/>
	<path class="st1" d="M21.94,26.63c-0.1-0.19-0.23-0.39-0.43-0.5c-0.03-0.02-0.17-0.08-0.27-0.1c-0.03-0.03-0.06-0.06-0.09-0.09
		c-0.16-0.14-0.35-0.25-0.56-0.31c-0.05-0.01-0.09-0.02-0.14-0.03c-0.25-0.16-0.53-0.29-0.82-0.17c-0.32,0.13-0.49,0.49-0.36,0.82
		c0.14,0.35,0.45,0.44,0.79,0.43c0.02,0.02,0.04,0.03,0.05,0.05c-0.06,0.02-0.13,0.03-0.13,0.03c-0.37,0.07-0.47,0.47-0.35,0.76
		c-0.02,0.04-0.03,0.07-0.04,0.11c-0.17,0.55,0.51,0.84,0.9,0.52c0.01-0.01,0.02-0.02,0.04-0.02c0.1,0.03,0.21,0.04,0.32,0.03
		c0.07,0.02,0.14,0.05,0.2,0.06c0.27,0.06,0.54,0.09,0.78-0.1c0.18-0.14,0.25-0.33,0.26-0.52C22.21,27.31,22.1,26.92,21.94,26.63z"
		/>
	<path class="st1" d="M26.52,32.6c-0.01-0.01-0.04-0.05-0.07-0.07c-0.01-0.03-0.02-0.06-0.04-0.09c-0.03-0.04-0.06-0.08-0.1-0.11
		c-0.06-0.05-0.13-0.1-0.19-0.14c0,0,0,0-0.01,0c-0.02-0.03-0.04-0.06-0.06-0.08c-0.19-0.23-0.58-0.16-0.75,0.05
		c-0.19,0.25-0.11,0.56,0.14,0.74c-0.02-0.01-0.04-0.02-0.05-0.04c0.03,0.03,0.07,0.05,0.1,0.08c0.04,0.03,0.07,0.04,0.11,0.06
		c0.1,0.04,0.18,0.05,0.28,0.07c-0.05-0.01-0.03,0,0.01,0c0.05,0.01,0.1,0.02,0.16,0.02c0.01,0,0.05,0,0.08-0.01
		c0.01,0,0.02,0.01,0.02,0.01c0.13,0.08,0.3,0.04,0.39-0.08C26.64,32.87,26.62,32.72,26.52,32.6z"/>
	<path class="st1" d="M35.52,27.11c-0.1-0.27-0.26-0.53-0.47-0.72c-0.06-0.05-0.13-0.1-0.2-0.14c-0.28-0.32-0.62-0.57-0.97-0.69
		c-0.45-0.15-0.96,0.44-0.65,0.85c0.25,0.34,0.66,0.53,0.94,0.79c0.13,0.42-0.06,0.97,0.09,1.45c0.01,0.03,0.02,0.06,0.04,0.08
		c-0.09,0.17-0.21,0.31-0.37,0.37c-0.37,0.15-0.86,0.01-1.26,0.11c-0.2,0.05-0.28,0.33-0.13,0.47c0.44,0.41,1.16,0.57,1.75,0.44
		c0.6-0.13,0.89-0.64,1.11-1.17C35.63,28.37,35.73,27.73,35.52,27.11z"/>
	<path class="st1" d="M41.26,29.35c-0.05-0.18-0.19-0.3-0.38-0.33c-0.02-0.01-0.05-0.02-0.07-0.03c-0.09-0.02-0.19-0.03-0.27,0
		c-0.03,0.01-0.06,0.03-0.09,0.04c0,0,0,0,0,0c0.03-0.01,0.03-0.01-0.01,0c-0.2,0.08-0.37,0.29-0.3,0.52
		c0.04,0.14,0.13,0.22,0.24,0.27c0.14,0.19,0.39,0.24,0.61,0.14c0.07-0.02,0.14-0.05,0.2-0.11C41.3,29.71,41.34,29.51,41.26,29.35z"
		/>
	<path class="st1" d="M38.4,22.08c-0.21-0.05-0.49,0.05-0.58,0.26c-0.08,0.09-0.16,0.18-0.23,0.27c-0.13,0.15-0.19,0.39-0.07,0.57
		c0.11,0.17,0.32,0.27,0.53,0.22c0.11-0.03,0.22-0.09,0.32-0.16c0.01,0,0.02,0,0.02,0c0.26-0.09,0.41-0.37,0.38-0.62
		C38.79,22.38,38.62,22.13,38.4,22.08z"/>
	<path class="st1" d="M42,25.41c-0.21-0.02-0.15-0.04-0.18-0.22c-0.03-0.2,0.01-0.44,0.03-0.64c0.05-0.48-0.64-0.72-0.94-0.39
		c-0.11,0.12-0.23,0.26-0.35,0.42c-0.31-0.22-0.86,0.02-0.7,0.47c0.07,0.21,0.14,0.33,0.12,0.47c-0.02,0.05-0.04,0.1-0.06,0.15
		c-0.01,0.02-0.02,0.03-0.03,0.05c-0.19,0.27-0.41,0.55-0.54,0.86c-0.17,0.4-0.19,0.94,0.31,1.08c0.28,0.08,0.52-0.1,0.61-0.35
		c-0.04,0.1,0.31-0.01,0.43-0.02c0.26-0.03,0.53-0.03,0.79-0.1c0.47-0.14,0.78-0.51,1-0.93C42.69,25.85,42.42,25.45,42,25.41z"/>
	<path class="st1" d="M37,31.99c-0.07-0.75-0.97-0.85-1.56-0.8c-0.97,0.09-1.76,0.7-2.64,1.05c-0.34,0.14-0.71,0.2-1.05,0.35
		c-0.01-0.25-0.06-0.51-0.23-0.78c-0.25-0.41-1.05-0.4-1.12,0.15c-0.07,0.47-0.03,0.92,0.1,1.31c-0.03,0.22-0.06,0.43-0.05,0.58
		c0.02,0.4,0.38,0.71,0.79,0.6c0.05-0.01,0.09-0.03,0.13-0.04c0.13,0.09,0.27,0.17,0.42,0.24c0.02,0.15,0.1,0.3,0.25,0.45
		c1.08,1.05,3.34-0.71,4.03-1.49C36.43,33.2,37.05,32.58,37,31.99z"/>
	<path class="st1" d="M31.81,37.58c-0.16,0-0.36,0.13-0.32,0.31c0,0,0,0,0,0c0,0.26,0.29,0.46,0.52,0.28
		C32.25,37.98,32.13,37.58,31.81,37.58z"/>
	<path class="st1" d="M17.39,36.81c-0.16,0.37-0.27,0.79-0.63,1.02c-0.16,0.1-0.55,0.26-0.83,0.25c-0.05-0.05-0.11-0.1-0.17-0.13
		c-0.13-0.08-0.28-0.1-0.43-0.1c-0.42,0.01-0.59,0.41-0.44,0.76c0.33,0.76,1.42,0.71,2.08,0.49c0.85-0.29,1.33-0.96,1.58-1.8
		C18.73,36.62,17.68,36.14,17.39,36.81z"/>
	<path class="st1" d="M12.61,23.82c-0.04-0.27-0.34-0.43-0.59-0.43c-0.25,0-0.5,0.14-0.62,0.36c-0.12,0.22-0.06,0.55,0.18,0.67
		c0.21,0.11,0.47,0.07,0.62-0.11c0.01,0,0.02,0,0.03,0C12.51,24.3,12.65,24.08,12.61,23.82z"/>
	<path class="st1" d="M30.27,18.34c-0.15-0.16-0.33-0.26-0.54-0.34c-0.16-0.08-0.34-0.13-0.51-0.17c-0.3-0.07-0.66,0.09-0.73,0.42
		c-0.08,0.33,0.1,0.62,0.42,0.73c0.11,0.04,0.16,0.06,0.23,0.09c0.06,0.03,0.12,0.06,0.18,0.09c0.01,0.01,0.02,0.01,0.02,0.02
		c0,0,0,0,0,0c0,0.01,0,0.02,0,0.04c0.01,0.06,0.02,0.11,0.02,0.17c0.03,0.12,0.11,0.21,0.19,0.31c0.21,0.26,0.63,0.2,0.85,0
		C30.79,19.32,30.58,18.68,30.27,18.34z"/>
	<path class="st1" d="M36.41,17.44c-0.17-0.42-0.57-0.68-1.03-0.63c-0.57,0.06-1.16,0.13-1.74,0.24c-0.29,0.05-0.45,0.46-0.28,0.7
		c0.07,0.1,0.13,0.17,0.2,0.22c-0.13,0.22-0.09,0.46,0.05,0.63c-0.14,0.18-0.27,0.38-0.39,0.58c-0.27,0.46-0.45,0.97-0.1,1.45
		c0.31,0.42,0.87,0.56,1.34,0.31c0.24-0.13,0.41-0.33,0.49-0.6c0.07-0.24-0.01-0.49-0.02-0.72C35.73,19.14,36.84,18.49,36.41,17.44z
		"/>
	<path class="st1" d="M27.56,23.33c-0.18-1.6-2.38-1.41-3.28-2.32c-0.31-0.32-0.95,0-0.78,0.46c0.18,0.5-0.03,1.01,0.11,1.52
		c0.12,0.43,0.43,0.77,0.63,1.16c0.38,0.7,0.11,2.03,1.04,2.34c0.13,0.04,0.24-0.07,0.25-0.19c0.04-0.35-0.06-0.72-0.11-1.09
		c0.29,0.02,0.57-0.06,0.8-0.21c0.24,0.19,0.62,0.21,0.79-0.14c0.07-0.15,0.14-0.31,0.2-0.47C27.46,24.17,27.62,23.85,27.56,23.33z"
		/>
	<path class="st1" d="M20.02,31.61c-0.08-0.29-0.39-0.34-0.64-0.38c-0.29-0.04-0.53,0.03-0.74,0.24c-0.19,0.2-0.39,0.48-0.39,0.76
		c0,0.2,0.17,0.41,0.38,0.44c0.07,0.07,0.16,0.12,0.26,0.15c0.4,0.11,0.81-0.29,1-0.61C20,32.03,20.08,31.81,20.02,31.61z"/>
	<path class="st1" d="M12.65,28.94c-0.43-0.24-0.97-0.13-1.46,0.05c-0.01,0-0.02,0-0.02,0c-0.2-0.25-0.53-0.4-0.85-0.26
		c-0.61,0.26-0.55,1.25,0.01,1.48c0.01,0.15,0.02,0.29,0.09,0.43c0.12,0.26,0.36,0.42,0.64,0.48c0.59,0.14,1.23-0.12,1.62-0.56
		C13.07,30.11,13.28,29.3,12.65,28.94z"/>
	<path class="st1" d="M20.56,17.94c-0.54-0.55-1.18-0.81-1.52-1.55c-0.22-0.48-0.4-0.98-1-1.1c-1.19-0.25-2.65,1.51-3.26,2.33
		c-0.69,0.91-0.93,2.31,0.35,2.83c0.6,0.25,0.97,0.1,1.23-0.23c0.19,0.09,0.41,0.13,0.62,0.11c0.37-0.03,0.56-0.3,0.88-0.39
		c0.48-0.13,0.33,0.01,0.67,0.27c0.4,0.3,0.88,0.33,1.34,0.15C20.89,19.94,21.35,18.76,20.56,17.94z"/>
	<path class="st1" d="M26.91,13.41c-0.38,0.16-0.94,0.29-1.22,0.62c-0.09,0.11-0.15,0.24-0.15,0.38c-0.04,0.04-0.09,0.08-0.15,0.12
		c-0.16,0.1-0.2,0.32-0.06,0.46c0.3,0.29,0.86,0.3,1.01-0.16c0.03-0.08,0.03-0.18,0.01-0.26c-0.02-0.05-0.05-0.11-0.07-0.16
		c0.03,0.09,0.08,0.1,0.15,0.03c0.11-0.01,0.27-0.11,0.37-0.16c0.17-0.07,0.33-0.14,0.5-0.21C27.75,13.88,27.36,13.22,26.91,13.41z"
		/>
	<path class="st2" d="M18.63,25.56c-1.54,1.17-2.62,3.46-0.86,4.99c0.49,0.43,1.2-0.26,0.72-0.72c0,0,0,0-0.01-0.01
		c0.14-0.12,0.22-0.29,0.16-0.5c-0.06-0.2,0.12-0.45,0.14-0.64c0.01-0.2-0.08-0.36-0.11-0.55c-0.08-0.42-0.07-0.68,0.23-1.02
		c0.21-0.24,0.4-0.44,0.57-0.71C19.76,25.9,19.14,25.17,18.63,25.56z"/>
	<path class="st2" d="M34.38,27.94c0.01-0.28-0.1-0.54-0.3-0.74c-0.02-0.02-0.05-0.04-0.08-0.06c-0.15-0.23-0.37-0.42-0.61-0.52
		c-0.29-0.13-0.62-0.13-0.86,0.11c-0.19,0.19-0.28,0.55-0.14,0.8c-0.03,0.04-0.06,0.08-0.1,0.12c-0.19,0.19-0.38,0.35-0.38,0.66
		c0,0.31,0.18,0.55,0.42,0.69c0.06,0.09,0.13,0.16,0.23,0.23c0.42,0.27,0.93,0.17,1.29-0.15c0.12-0.11,0.19-0.27,0.2-0.43
		C34.24,28.44,34.37,28.2,34.38,27.94z"/>
	<path class="st2" d="M31.79,38.2c0.07-0.23-0.02-0.51-0.29-0.57c-0.2-0.05-0.39,0.03-0.51,0.21c-0.08,0.12-0.08,0.29-0.01,0.42
		c0.04,0.15,0.12,0.28,0.26,0.37C31.51,38.79,31.89,38.51,31.79,38.2C31.79,38.2,31.79,38.2,31.79,38.2z"/>
	<path class="st2" d="M25.84,32.4c-0.28-0.25-0.68-0.23-0.94,0.04c-0.19,0.19-0.27,0.5-0.24,0.77c0.04,0.36,0.36,0.56,0.7,0.4
		c0.01,0,0.02-0.01,0.02-0.01c0.09-0.04,0.15-0.13,0.19-0.23c0.02-0.03,0.03-0.07,0.05-0.11c0.1-0.02,0.2-0.08,0.27-0.18
		C26.03,32.89,26.03,32.57,25.84,32.4z"/>
	<path class="st2" d="M17.78,36.46c-0.08-0.36-0.5-0.58-0.86-0.49c-0.32,0.09-0.47,0.35-0.49,0.64c-0.09,0.12-0.42,0.55-0.52,0.61
		c-0.23,0.12-0.64,0.01-0.95-0.04c-0.48-0.16-1.08,0.65-0.45,0.98c0.65,0.34,1.64,0.51,2.26,0.04c0.25-0.19,0.45-0.45,0.68-0.67
		C17.78,37.23,17.88,36.9,17.78,36.46z"/>
	<path class="st2" d="M29.87,18.79c-0.06-0.2-0.21-0.36-0.38-0.47c-0.33-0.22-0.75-0.13-1.08,0.03c-0.29,0.15-0.54,0.44-0.54,0.78
		c0,0.46,0.4,0.84,0.87,0.72c0.14-0.04,0.25-0.12,0.32-0.23c0.24,0.08,0.44,0.03,0.64-0.13C29.89,19.34,29.94,19.02,29.87,18.79z"/>
	<path class="st2" d="M38.47,21.99c-0.03-0.14-0.09-0.27-0.16-0.39c-0.28-0.42-0.85-0.68-1.27-0.28c-0.12,0.11-0.18,0.28-0.18,0.44
		l0,0c0,0.04,0.01,0.08,0.01,0.11c0,0,0,0.01,0,0.01c0.01,0.04,0.02,0.08,0.03,0.11c0,0,0,0,0,0.01c0.04,0.09,0.09,0.17,0.15,0.25
		c0,0.05,0.01,0.09,0.03,0.14c0.13,0.39,0.48,0.57,0.87,0.5C38.36,22.81,38.55,22.36,38.47,21.99z"/>
	<path class="st2" d="M40.27,28.93c-0.41-0.11-0.86,0.07-1.14,0.38c-0.12,0.14-0.21,0.29-0.28,0.46c0,0-0.01,0.01-0.01,0.01
		c-0.11,0.2-0.17,0.44-0.16,0.67c0.02,0.33,0.24,0.61,0.58,0.65c0.31,0.04,0.66-0.15,0.73-0.48c0.02-0.09,0.04-0.17,0.06-0.26
		c0.01-0.04,0.03-0.07,0.03-0.11c0,0,0,0,0,0c0-0.01,0.01-0.01,0.02-0.03c0,0,0,0,0-0.01c0.33-0.03,0.59-0.24,0.64-0.57
		C40.79,29.34,40.59,29.01,40.27,28.93z"/>
	<path class="st2" d="M30.19,21.87c-1.02,0.31-1.92,1.73-2.51,2.82c-0.54,0.58-0.95,1.26-1.4,1.91c-0.59,0.87-1.43,1.43-2.12,2.18
		c-0.61,0.19-1.3,0.37-1.75,0.82c-0.22,0.22-0.29,0.63-0.12,0.9c0.75,1.15,2.96,1.7,3.85,0.47c0.53-0.74,0.94-1.5,1.51-2.16
		c0.22-0.14,0.43-0.29,0.64-0.44c0.39-0.29,0.77-0.62,1.13-0.98c0.23-0.18,0.43-0.38,0.57-0.63c0.55-0.67,1-1.41,1.27-2.22
		C31.5,23.76,31.64,21.42,30.19,21.87z M30.18,23.27c0.01,0.09,0.02,0.19,0.01,0.28c-0.06-0.01-0.12-0.02-0.19-0.02
		c-0.04,0-0.07,0.01-0.11,0.01C29.99,23.45,30.09,23.35,30.18,23.27z"/>
	<path class="st2" d="M24.88,17.69c-0.1-0.9-0.92-1.38-1.74-1.51c-0.77-0.12-1.65,0.04-2.05,0.78c-0.14,0.26-0.21,0.63-0.11,0.91
		c0.03,0.09,0.09,0.17,0.16,0.25c-0.01,0.12-0.01,0.24-0.01,0.35c0.03,0.46,0.11,0.89,0.15,1.32c-0.65,0.45-1.21,0.95-1.25,1.72
		c-0.05,1.04,1.19,1.87,2.04,1.07c0.45-0.42,0.6-1.23,0.67-1.81c0.01-0.04,0.01-0.08,0.01-0.12c0.31-0.22,0.61-0.44,0.89-0.7
		C24.24,19.41,24.97,18.56,24.88,17.69z"/>
	<path class="st2" d="M17.8,21.72c-0.76-0.37-1.54-0.31-2.17,0.09c-0.55,0.18-1.07,0.47-1.43,0.86c-0.38,0.42-0.55,0.92-0.56,1.48
		c-0.01,0.26-0.01,0.55,0,0.84c-0.2,0.05-0.37,0.21-0.42,0.49c-0.13,0.7-0.58,1.81,0.07,2.38c0.52,0.45,1.3,0.26,1.8-0.1
		c0.63-0.46,0.91-1.18,0.83-1.94c-0.06-0.55-0.36-1.04-0.25-1.61c0.06-0.32,0.27-0.78,0.56-1.06c0.35-0.09,0.74-0.15,1.01-0.1
		C17.99,23.18,18.6,22.11,17.8,21.72z"/>
	<path class="st2" d="M15.11,31c-1.06-0.22-1.79,0.75-2.29,1.56c-0.3,0-0.6,0.13-0.76,0.39c-0.25,0.4-0.13,0.89,0.04,1.3
		c0.05,0.13,0.11,0.26,0.18,0.37c0.02,0.04,0.04,0.07,0.07,0.11c0,0,0.01,0.01,0.01,0.01c0.01,0.01,0.01,0.02,0.02,0.03
		c0.45,0.64,1.17,1.01,2,0.79c0.98-0.26,1.69-1.21,2.07-2.1C16.9,32.42,16.24,31.23,15.11,31z"/>
	<path class="st2" d="M24.45,35.62c-0.13-0.94-1.36-1.47-2.05-1.94c-0.45-0.3-1.03,0.1-1.04,0.6c0,0.14,0.01,0.28,0.02,0.43
		c-0.13,0.17-0.18,0.4-0.09,0.62c0.12,0.27-0.39,1.02-0.49,1.31c-0.14,0.42-0.21,0.87,0.11,1.23c0.57,0.64,1.62,0.26,2.2-0.13
		C23.77,37.28,24.57,36.51,24.45,35.62z"/>
	<path class="st2" d="M29.11,34.68c-0.07-0.06-0.14-0.11-0.21-0.16c-0.06-0.1-0.13-0.19-0.22-0.26c-0.21-0.16-0.43-0.17-0.63-0.1
		c0,0-0.01,0-0.01,0c-0.25-0.02-0.5,0.18-0.58,0.39c-0.01,0.01-0.01,0.03-0.01,0.04c-0.19,0.21-0.32,0.46-0.34,0.75
		c-0.03,0.43,0.21,0.8,0.63,0.9c0.29,0.07,0.64,0.1,0.94,0.09c0.41-0.01,0.73-0.29,0.82-0.68C29.57,35.27,29.4,34.91,29.11,34.68z"
		/>
	<path class="st2" d="M38.9,32.68c-0.23-0.23-0.54-0.18-0.77,0c-0.31,0.24-0.6,0.5-0.91,0.74c-0.14,0.12-0.31,0.22-0.41,0.39
		c-0.14,0.23-0.12,0.53,0.04,0.74c0.32,0.41,0.94,0.26,1.29-0.02c0.12-0.09,0.21-0.2,0.3-0.32c0.09-0.12,0.2-0.21,0.3-0.32
		c0.18-0.12,0.25-0.32,0.22-0.52C39.11,33.17,39.07,32.85,38.9,32.68z"/>
	<path class="st2" d="M33.26,39.51c-0.19-0.16-0.35-0.22-0.59-0.25c-0.14-0.02-0.33,0.08-0.43,0.18c-0.11,0.11-0.19,0.28-0.18,0.43
		c0.01,0.3,0.23,0.57,0.53,0.6c0.24,0.12,0.56,0.03,0.72-0.18C33.47,40.08,33.49,39.7,33.26,39.51z"/>
	<path class="st2" d="M28.31,39.43c-0.11-0.19-0.27-0.26-0.47-0.32c-0.01-0.01-0.03-0.01-0.04-0.02c-0.03-0.02-0.17-0.12-0.04-0.02
		c-0.19-0.15-0.46-0.23-0.68-0.09c-0.2,0.13-0.35,0.4-0.26,0.64c0.13,0.34,0.32,0.61,0.63,0.81c0.24,0.16,0.63,0.05,0.76-0.2
		c0.03-0.05,0.05-0.11,0.06-0.16C28.41,39.91,28.42,39.61,28.31,39.43z"/>
	<path class="st2" d="M37.33,13.55c-0.63-0.31-1.53-0.5-2.18-0.13c-0.41,0.23-0.46,0.5-0.38,0.79c-0.14,0.21-0.22,0.45-0.19,0.72
		c0.07,0.53,0.64,0.9,1.15,0.83c0.07-0.01,0.14-0.03,0.21-0.05c0.2,0.33,0.42,0.65,0.64,0.97c0.22,0.32,0.65,0.48,1,0.26
		C38.96,16.07,38.72,14.24,37.33,13.55z"/>
	<path class="st2" d="M29.49,12.54c-0.11-0.31-0.42-0.56-0.7-0.71c-0.15-0.08-0.31-0.15-0.48-0.19c-0.06-0.02-0.13-0.02-0.19-0.03
		c-0.13-0.13-0.31-0.19-0.51-0.14c-0.65,0.15-0.53,1.03,0.04,1.2c0.14,0.04,0.29,0.06,0.41,0.12c0,0,0.01,0,0.01,0.01
		c-0.02,0.38,0.35,0.76,0.75,0.76C29.35,13.56,29.67,13.02,29.49,12.54z"/>
	<path class="st2" d="M19.87,14.12c-0.52,0-0.52,0.8,0,0.8C20.39,14.92,20.39,14.12,19.87,14.12z"/>
	<path class="st2" d="M15.5,14.61c-0.33,0-0.33,0.52,0,0.52C15.83,15.12,15.83,14.61,15.5,14.61z"/>
	<path class="st2" d="M16.84,14.35c-0.02,0-0.02,0.02,0,0.02S16.86,14.35,16.84,14.35z"/>
	<path class="st2" d="M17.53,14.54c-0.02,0-0.02,0.02,0,0.02C17.54,14.56,17.54,14.54,17.53,14.54z"/>
	<path class="st2" d="M17.08,13.82c-0.1-0.17-0.32-0.15-0.42,0c-0.01,0.01-0.01,0.02-0.02,0.02c-0.1,0.15,0.03,0.33,0.2,0.34
		c0.01,0,0.02,0,0.03,0C17.06,14.2,17.17,13.97,17.08,13.82z"/>
	<path class="st2" d="M17.68,14.45c-0.02,0-0.02,0.02,0,0.02S17.7,14.45,17.68,14.45z"/>
	<path class="st2" d="M9.81,22.7c-0.41,0-0.41,0.63,0,0.63C10.22,23.34,10.22,22.7,9.81,22.7z"/>
	<path class="st2" d="M10.84,21.44c-0.23,0-0.23,0.35,0,0.35C11.07,21.79,11.07,21.44,10.84,21.44z"/>
	<path class="st2" d="M11.93,21.78c-0.19,0-0.19,0.29,0,0.29C12.12,22.07,12.12,21.78,11.93,21.78z"/>
	<path class="st2" d="M13.4,21.09c-0.28,0-0.28,0.43,0,0.43C13.68,21.52,13.68,21.09,13.4,21.09z"/>
	<path class="st2" d="M11.4,26.76c-0.34,0-0.34,0.53,0,0.53C11.74,27.28,11.74,26.76,11.4,26.76z"/>
	<path class="st2" d="M8.9,26.93c-0.24,0-0.24,0.37,0,0.37C9.14,27.3,9.14,26.93,8.9,26.93z"/>
	<path class="st2" d="M9.25,25.05c-0.32,0-0.32,0.5,0,0.5C9.57,25.55,9.57,25.05,9.25,25.05z"/>
	<path class="st2" d="M17.31,32.49c-0.32,0-0.32,0.5,0,0.5C17.63,32.99,17.63,32.49,17.31,32.49z"/>
	<path class="st2" d="M10.62,31.88c-0.46,0-0.46,0.72,0,0.72C11.09,32.6,11.09,31.88,10.62,31.88z"/>
	<path class="st2" d="M17.34,34.76c-0.29,0-0.29,0.46,0,0.46C17.63,35.22,17.64,34.76,17.34,34.76z"/>
	<path class="st2" d="M19.06,34.31c-0.48,0-0.48,0.74,0,0.74C19.54,35.05,19.54,34.31,19.06,34.31z"/>
	<path class="st2" d="M19.84,37.72c-0.39,0-0.39,0.6,0,0.6C20.23,38.32,20.23,37.72,19.84,37.72z"/>
	<path class="st2" d="M14.25,40.02c-0.36,0-0.36,0.56,0,0.56C14.61,40.58,14.61,40.02,14.25,40.02z"/>
	<path class="st2" d="M25.43,39.59c-0.4,0-0.4,0.62,0,0.62C25.83,40.21,25.83,39.59,25.43,39.59z"/>
	<path class="st2" d="M26.56,36.38c-0.02,0-0.02,0.02,0,0.02S26.58,36.38,26.56,36.38z"/>
	<path class="st2" d="M28.68,30.04c-0.02,0-0.02,0.02,0,0.02S28.7,30.04,28.68,30.04z"/>
	<path class="st2" d="M29.5,27.99c-0.48,0-0.48,0.74,0,0.74C29.98,28.74,29.98,27.99,29.5,27.99z"/>
	<path class="st2" d="M30.22,29.05c-0.4,0-0.4,0.62,0,0.62C30.62,29.68,30.62,29.05,30.22,29.05z"/>
	<path class="st2" d="M37.09,24.76c-0.02,0-0.02,0.02,0,0.02S37.11,24.76,37.09,24.76z"/>
	<path class="st2" d="M35.59,23.51c-0.02,0-0.02,0.02,0,0.02S35.61,23.51,35.59,23.51z"/>
	<circle class="st2" cx="36.12" cy="24.46" r="0.35"/>
	<path class="st2" d="M37.43,19.08c-0.41,0-0.41,0.63,0,0.63C37.84,19.71,37.84,19.08,37.43,19.08z"/>
	<path class="st1" d="M42.37,30.41c-0.22,0-0.44,0.2-0.42,0.42c0.01,0.23,0.19,0.42,0.42,0.42c0.22,0,0.44-0.2,0.42-0.42
		C42.79,30.6,42.61,30.41,42.37,30.41z"/>
	<path class="st1" d="M40.53,32.38c-0.02,0-0.02,0.02,0,0.02S40.54,32.38,40.53,32.38z"/>
	<path class="st1" d="M42.97,28.16c-0.01,0-0.02,0-0.03,0c-0.02,0-0.02,0.03,0,0.04c0.01,0,0.02,0,0.03,0
		C42.99,28.2,42.99,28.15,42.97,28.16z"/>
	<path class="st1" d="M39.93,32.06c-0.48,0-0.48,0.74,0,0.74C40.41,32.8,40.41,32.06,39.93,32.06z"/>
	<path class="st1" d="M37.47,25.36c-0.49,0-0.49,0.77,0,0.77C37.96,26.12,37.96,25.36,37.47,25.36z"/>
	<path class="st1" d="M33.62,22.9c-0.48,0-0.48,0.74,0,0.74C34.1,23.64,34.1,22.9,33.62,22.9z"/>
	<path class="st1" d="M31.87,16.96c-0.48,0-0.48,0.74,0,0.74C32.35,17.71,32.35,16.96,31.87,16.96z"/>
	<path class="st1" d="M27.34,16.41c-0.54,0-0.54,0.84,0,0.84C27.88,17.26,27.88,16.41,27.34,16.41z"/>
	<path class="st1" d="M39.43,15.56c-0.21,0-0.41,0.19-0.4,0.4c0.01,0.22,0.18,0.4,0.4,0.4c0.21,0,0.41-0.19,0.4-0.4
		C39.83,15.74,39.66,15.56,39.43,15.56z"/>
	<circle class="st1" cx="33.37" cy="14.36" r="0.37"/>
	<path class="st1" d="M24.06,14.65c-0.44,0-0.44,0.69,0,0.69C24.5,15.33,24.5,14.65,24.06,14.65z"/>
	<path class="st1" d="M14.9,20.88c-0.42,0-0.42,0.66,0,0.66C15.33,21.54,15.33,20.88,14.9,20.88z"/>
	<path class="st1" d="M19.37,22.73c-0.02,0-0.02,0.02,0,0.02S19.39,22.73,19.37,22.73z"/>
	<path class="st3" d="M23.47,26.12c0.16-0.07,0.29-0.2,0.32-0.37c0.13-0.56-0.06-1.44-0.76-1.47c-0.02-0.09-0.06-0.17-0.13-0.24
		c-0.12-0.13-0.28-0.19-0.45-0.19c-0.16,0-0.29,0.06-0.4,0.15c0.08-0.26,0.01-0.55-0.3-0.74c-0.56-0.34-1.42-0.68-2.01-0.28
		c-0.02,0-0.03,0-0.05,0c-0.18-0.39-0.68-0.61-1.02-0.19c-0.15,0.18-0.32,0.5-0.53,0.62c-0.66,0.5-0.09,1.6,0.67,1.15
		c0.25-0.19,0.94-0.28,1.24-0.22c0.47,0.09,0.86,0.23,1.35,0.18c0.18-0.02,0.33-0.1,0.45-0.21c-0.04,0.14-0.04,0.29,0.03,0.43
		c0.11,0.25,0.38,0.42,0.6,0.58c0.07,0.14,0.14,0.28,0.2,0.43c0.09,0.22,0.25,0.39,0.49,0.41c-0.17,0.08-0.29,0.25-0.28,0.45
		c0.01,0.27,0.22,0.5,0.5,0.5c0.26,0,0.51-0.23,0.5-0.5C23.89,26.37,23.72,26.16,23.47,26.12z"/>
	<path class="st3" d="M13.22,21.8c-0.28-0.33-0.61-0.6-1-0.8c-0.23-0.12-0.49-0.21-0.71-0.35c-0.2-0.13-0.29-0.33-0.47-0.48
		c-0.89-0.8-2.08,0.48-1.86,1.42c0.13,0.56,0.86,0.58,1.15,0.15c0.02-0.04,0.06-0.12,0.1-0.21c0.02,0.02,0.03,0.03,0.05,0.05
		c0.2,0.17,0.43,0.29,0.66,0.4c0.17,0.08,0.33,0.15,0.47,0.24c-0.02,0.17,0.05,0.34,0.21,0.43c0.2,0.11,0.37,0.12,0.56,0.15
		c0.01,0.01,0.02,0.02,0.03,0.03c0.32,0.33,0.94,0.19,1.05-0.28C13.56,22.16,13.44,21.93,13.22,21.8z"/>
	<path class="st3" d="M14.18,29.17c-0.36-0.2-0.46-0.69-0.75-0.98c-0.32-0.31-0.61-0.27-0.98-0.46c-0.33-0.17-0.52-0.45-0.92-0.54
		c-0.22-0.05-0.44-0.03-0.66-0.01c-0.01,0-0.01,0-0.02,0c0-0.01,0-0.02,0-0.03c0.02-0.62-0.85-0.68-1.04-0.14
		c-0.15,0.43-0.41,0.9-0.06,1.3c0.38,0.42,0.79,0.12,1.25,0.18c0.33,0.04,0.46,0.27,0.73,0.43c0.27,0.16,0.59,0.14,0.81,0.35
		c0.08,0.08,0.15,0.16,0.21,0.24c-0.32,0.16-0.62,0.34-0.81,0.6c-0.15,0.19-0.1,0.35-0.21,0.54c-0.18,0.3-0.62,0.46-0.9,0.63
		c-0.64,0.4-0.24,1.52,0.53,1.27c0.58-0.19,1.22-0.55,1.56-1.08c0.06-0.09,0.19-0.4,0.21-0.52c0.11-0.04,0.34-0.17,0.37-0.18
		c0.23-0.13,0.47-0.25,0.7-0.39C14.62,30.1,14.65,29.42,14.18,29.17z"/>
	<path class="st3" d="M16.54,35.51l-0.07-0.12c-0.11-0.21-0.37-0.35-0.6-0.35c-0.28,0-0.5,0.06-0.71,0.26
		c-0.12,0.11-0.24,0.43-0.33,0.48c-0.25,0.15-0.9,0.06-1.19,0.06c-0.42,0.01-0.86,0.06-1.26-0.06c-0.62-0.26-0.99,0.73-0.45,1.06
		c0.75,0.45,1.74,0.41,2.58,0.36c0.35-0.02,0.74-0.04,1.05-0.21c0.22-0.12,0.31-0.31,0.43-0.49C16.44,36.47,16.79,35.97,16.54,35.51
		z"/>
	<path class="st3" d="M21.26,39.28c-0.04-0.31-0.19-0.58-0.51-0.67c-0.28-0.08-0.55-0.03-0.77,0.09c-0.5,0-0.93,0.3-1.14,0.69
		c-0.33,0.09-0.69,0.14-0.86,0.17c-0.62,0.11-1.27,0.14-1.9,0.16c-0.58,0.02-0.64,0.78-0.13,0.97c0.9,0.34,1.78,0.37,2.72,0.17
		c0.18-0.04,0.37-0.08,0.56-0.13C20.1,41.29,21.37,40.23,21.26,39.28z"/>
	<path class="st3" d="M27.39,34.48c0.62-0.63-0.35-1.61-0.97-0.97c-0.15,0.15-0.26,0.36-0.43,0.49c-0.13,0.11-0.28,0.13-0.43,0.2
		c-0.32,0.16-0.58,0.43-0.66,0.79c-0.05,0.23-0.04,0.47,0.03,0.7c-0.66,0.82,0.13,2.8,1.4,1.91c0.64-0.45,0.94-1.36,0.33-1.95
		c-0.1-0.1-0.21-0.19-0.32-0.29c0.05-0.02,0.09-0.03,0.13-0.05C26.88,35.13,27.08,34.79,27.39,34.48z"/>
	<path class="st3" d="M29.59,31.27c-0.04-0.52-0.17-1.2-0.65-1.49c-0.5-0.31-1.21-0.02-1.52,0.43c-0.01,0.02-0.02,0.03-0.03,0.05
		c-0.03,0.02-0.05,0.04-0.08,0.07c-0.38,0.4-0.35,0.95-0.03,1.39c0.01,0.01,0.01,0.01,0.02,0.02c0,0.03,0.01,0.07,0.01,0.1
		c0.03,0.41,0.34,0.63,0.66,0.66c-0.01,0.04-0.01,0.1-0.02,0.17c-0.03,0.66,1,0.98,1.29,0.35C29.49,32.46,29.64,31.88,29.59,31.27z"
		/>
	<path class="st3" d="M35.8,36.1c0.57-0.5-0.06-1.25-0.67-1.15c-0.65,0.1-1.42,0.6-1.76,1.24c-0.36-0.3-0.73-0.61-1.15-0.82
		c-0.08-0.04-1.3-0.32-1.3-0.32c-0.16-0.41-0.73-0.45-0.88,0c-0.13,0.39-0.05,0.78,0.28,1.04c0.26,0.21,0.55,0.16,0.86,0.26
		c0.41,0.13,0.74,0.4,1.06,0.67c0.24,0.2,0.61,0.43,0.8,0.69c0.16,0.22,0.19,0.45,0.32,0.69c0.27,0.52,0.6,0.63,1.02,0.76
		c0.07,0.05,0.14,0.1,0.2,0.13c0.29,0.14,0.61,0.12,0.84-0.11l0.05-0.05c0.41-0.39,0.16-0.98-0.31-1.16
		c-0.02-0.01-0.04-0.01-0.06-0.02c-0.21-0.22-0.48-0.61-0.54-0.75c-0.02-0.05-0.04-0.08-0.06-0.11c0.1-0.17,0.19-0.33,0.31-0.47
		C35.15,36.44,35.55,36.32,35.8,36.1z"/>
	<path class="st3" d="M29.58,38.23c-0.05-0.08-0.11-0.13-0.19-0.17c-0.08-0.07-0.16-0.13-0.25-0.19c-0.67-0.43-1.29,0.63-0.65,1.06
		c0.02,0.23,0.06,0.45,0.14,0.66c0.09,0.24,0.33,0.52,0.31,0.77c-0.05,0.72,1.04,0.83,1.23,0.17C30.42,39.7,30.17,38.82,29.58,38.23
		z"/>
	<path class="st3" d="M37.99,26.66c-0.53-0.28-0.89,0.04-1.28,0.38c-0.16,0.14-0.23,0.42-0.17,0.62c0.03,0.08,0.06,0.15,0.09,0.21
		c-0.1,0.26-0.21,0.52-0.35,0.75c-0.2,0.31-0.47,0.56-0.59,0.92c-0.23,0.68,0.2,1.49,0.98,1.45c0.63-0.03,1.17-0.78,1.4-1.3
		c0.34-0.77-0.04-1.56,0.21-2.32C38.37,27.12,38.23,26.79,37.99,26.66z"/>
	<path class="st3" d="M35.23,23.86c0.01-0.25-0.02-0.5-0.11-0.74c0.05-0.12,0.12-0.24,0.16-0.4c0.09-0.41-0.15-0.81-0.52-0.99
		c-0.45-0.22-0.9-0.04-1.36-0.14c-0.44-0.1-0.83-0.41-1.29-0.42c-1.03,0-0.8,1.33-0.41,1.88c0.25,0.35,0.58,0.64,0.95,0.85
		c0.19,0.11,0.39,0.2,0.59,0.28c0.09,0.04,0.19,0.08,0.29,0.1c0.08,0.02,0.12,0.03,0.14,0.05c-0.14,0.69,0.81,1.15,1.27,0.49
		c0.06-0.08,0.1-0.16,0.12-0.24c0.02-0.04,0.03-0.09,0.05-0.13C35.27,24.31,35.35,24.09,35.23,23.86z"/>
	<path class="st3" d="M43.88,25.19c-0.23-0.75-0.62-1.48-1.17-2.04c-0.26-0.26-0.66-0.64-1.02-0.76c-0.13-0.05-0.29-0.06-0.45-0.08
		c0,0,0,0,0,0c0.03-0.45-0.25-0.72-0.61-0.9c0.07-0.3-0.24-0.54-0.52-0.48c-0.16,0.04-0.28,0.11-0.39,0.21
		c-0.45,0.02-0.73,0.47-0.66,0.92c0.09,0.57,0.33,1.07,0.82,1.4c0.45,0.3,0.95,0.16,1.39,0.35c1.66,0.7,2.02,3.91,1.33,5.31
		c-0.2,0.41,0.25,1.04,0.7,0.7C44.51,28.91,44.27,26.48,43.88,25.19z"/>
	<path class="st3" d="M40.19,19.49c-0.04-0.68-0.47-1.26-1.06-1.58c-0.53-0.29-1.27-0.36-1.66,0.09c-0.21,0.04-0.41,0.19-0.46,0.41
		c-0.1,0.45,0.12,0.88,0.57,1.02c0.17,0.05,0.35,0.06,0.52,0.05c0.06,0,0.11-0.01,0.17-0.02c0,0.01,0,0.02,0.01,0.03
		c0.02,0.17,0.03,0.33,0.04,0.5c0.04,0.39,0.25,0.76,0.66,0.87C39.77,21.07,40.23,20.14,40.19,19.49z"/>
	<path class="st3" d="M30.17,15.48c-0.24-0.37-0.72-0.43-1.13-0.27c-0.37,0.14-0.63,0.67-0.26,0.98c0.11,0.09,0.22,0.17,0.33,0.24
		c0.01,0.05,0.01,0.09,0.02,0.14c0.03,0.21,0.07,0.41,0.11,0.62c0.07,0.48,0.64,0.55,0.99,0.4C31.09,17.22,30.87,15.91,30.17,15.48z
		"/>
	<path class="st3" d="M26.83,18.38c-0.06-0.17-0.15-0.5-0.31-0.6c-0.02-0.03-0.03-0.06-0.05-0.08c0.33-0.85-0.53-1.3-1.27-0.99
		c-0.41,0.17-0.39,0.62-0.17,0.92c-0.21,0.14-0.35,0.39-0.29,0.71c0.15,0.76-0.2,2.3,0.61,2.79c0.93,0.56,1.49-0.65,1.58-1.36
		C27,19.3,26.99,18.82,26.83,18.38z"/>
	<path class="st3" d="M25.92,11.12c-0.59-0.1-0.95,0.27-1.33,0.66c-0.37,0.38-0.82,0.85-0.58,1.42c0.12,0.29,0.36,0.51,0.7,0.46
		c0.29-0.04,0.56-0.3,0.55-0.61c0.13-0.16,0.27-0.32,0.43-0.44c0.24-0.18,0.44-0.33,0.6-0.59C26.48,11.71,26.32,11.19,25.92,11.12z"
		/>
	<path class="st3" d="M19.04,14.24c-0.04-0.26-0.34-0.45-0.58-0.44l-0.03,0c-0.3,0-0.55,0.23-0.59,0.52c0,0.02,0,0.03,0,0.05
		c-0.02,0.05-0.04,0.11-0.05,0.17c-0.03,0.22,0.07,0.43,0.24,0.55c0.07,0.07,0.16,0.12,0.28,0.14c0.12,0.02,0.22-0.01,0.31-0.06
		c0.1-0.04,0.19-0.09,0.26-0.17C19.07,14.78,19.09,14.51,19.04,14.24z"/>
	<path class="st3" d="M15.28,15.52c-0.18-0.18-0.51-0.2-0.69,0c-0.07,0.07-0.13,0.14-0.2,0.22c-0.02,0.02-0.03,0.04-0.05,0.05
		c-0.13,0.04-0.25,0.12-0.34,0.24c-0.19,0.25-0.25,0.76-0.09,1.03c0.22,0.38,0.73,0.37,1.06,0.13c0.25-0.18,0.37-0.5,0.2-0.78
		c-0.01-0.02-0.02-0.03-0.04-0.05c0.05-0.05,0.09-0.11,0.14-0.16C15.45,16.01,15.47,15.71,15.28,15.52z"/>
	<path class="st3" d="M9.2,23.18c-0.01-0.01-0.01-0.02-0.02-0.03c-0.07-0.15-0.27-0.25-0.44-0.25c-0.2,0-0.38,0.13-0.46,0.31
		c-0.07,0.17-0.05,0.36,0.06,0.5c0.13,0.17,0.33,0.22,0.53,0.18c0.01,0,0.02,0,0.03-0.01C9.24,23.81,9.32,23.43,9.2,23.18z"/>
	<path class="st3" d="M21.91,31.41C21.91,31.41,21.92,31.41,21.91,31.41c-0.02-0.05-0.06-0.08-0.09-0.11
		c-0.04-0.06-0.09-0.12-0.17-0.16l-0.04-0.02c-0.07-0.04-0.15-0.06-0.23-0.07c-0.11-0.05-0.25-0.05-0.35,0.02
		c-0.1,0.07-0.19,0.19-0.2,0.31c-0.08,0.2-0.06,0.46,0.11,0.6c0.15,0.12,0.28,0.22,0.46,0.28c0.26,0.09,0.58-0.1,0.64-0.37
		C22.1,31.71,22.04,31.53,21.91,31.41z"/>
	<path class="st4" d="M29.72,24.33c-1.04-0.1-1.74,1.36-2.26,2.09c-0.45,0.63-0.96,1.18-1.5,1.72c-0.13,0.13-0.58,0.68-0.95,1.06
		c-0.17-0.16-0.48-0.19-0.59,0.06c-0.07,0.19-0.16,0.37-0.27,0.55c-0.11,0.21-0.05,0.47,0.16,0.6c0.9,0.55,2.63-1.43,3.18-2
		c0.55-0.58,1.01-1.23,1.48-1.88c0.42-0.58,1.2-1.05,1.15-1.81C30.1,24.5,29.95,24.35,29.72,24.33z"/>
	<path class="st4" d="M23.48,18.04c-0.02-0.21-0.19-0.46-0.19-0.65c0-0.27-0.29-0.54-0.57-0.44c-0.56,0.21-0.42,0.6-0.45,1.08
		c-0.05,0.62-0.6,1.16-0.78,1.75c-0.18,0.6,0.63,1.08,1.06,0.62c0.4-0.44,0.65-1.07,0.84-1.63C23.47,18.54,23.5,18.29,23.48,18.04z"
		/>
	<path class="st4" d="M16.71,21.71c-0.78-0.1-1.46,0.34-1.87,0.98c-0.43,0.66-0.87,1.75-0.64,2.53c0.11,0.37,0.71,0.51,0.89,0.12
		c0.38-0.83,0.42-2.57,1.62-2.7C17.31,22.57,17.31,21.78,16.71,21.71z"/>
	<path class="st4" d="M15.08,32.5c0.06-0.21,0.03-0.44-0.15-0.61c-0.23-0.23-0.65-0.25-0.88,0c-0.28,0.31-0.56,0.65-0.65,1.07
		c-0.1,0.49,0.08,1.1,0.62,1.24C14.94,34.44,15.36,33.25,15.08,32.5z"/>
	<path class="st4" d="M22.54,34.96c-0.26-0.16-0.61-0.18-0.87-0.01c-0.36,0.22-0.44,0.65-0.26,1.02c0.02,0.05,0.05,0.09,0.09,0.12
		c0.03,0.07,0.07,0.13,0.13,0.19c0.13,0.12,0.26,0.16,0.44,0.18c0.36,0.05,0.72-0.24,0.82-0.57C22.99,35.53,22.85,35.15,22.54,34.96
		z"/>
	<path class="st4" d="M28.93,35.29c-0.02,0-0.02,0.02,0,0.02S28.95,35.29,28.93,35.29z"/>
	<path class="st4" d="M38.25,31.82c-0.02,0-0.02,0.02,0,0.02S38.26,31.82,38.25,31.82z"/>
	<g>
		<path class="st4" d="M37.5,14.84c-0.11-0.52-0.63-0.91-1.16-0.86c-0.31,0.03-0.61,0.25-0.62,0.59c0,0.3,0.2,0.51,0.48,0.56
			c-0.02,0.29-0.05,0.53,0.2,0.76c0.29,0.27,0.7,0.16,0.92-0.14c0.03-0.04,0.09-0.13,0.09-0.12c0.05-0.09,0.07-0.17,0.09-0.26
			C37.54,15.19,37.54,15.02,37.5,14.84z"/>
		<path class="st4" d="M37.33,15.74C37.33,15.75,37.33,15.75,37.33,15.74C37.32,15.77,37.31,15.77,37.33,15.74z"/>
	</g>
	<path class="st4" d="M17.14,36.26c-0.37,0.04-0.56,0.17-0.79,0.47c-0.06,0.08-0.28,0.44-0.4,0.37c-0.39-0.2-0.88,0.34-0.49,0.64
		c0.8,0.64,1.65-0.18,2.02-0.9C17.6,36.61,17.45,36.22,17.14,36.26z"/>
	<path class="st4" d="M28.24,39.15c-0.06-0.1-0.15-0.16-0.2-0.21c-0.19-0.19-0.52-0.15-0.66,0.08c-0.14,0.24-0.01,0.53,0.25,0.62
		c0.22,0.07,0.5,0.05,0.63-0.17C28.32,39.36,28.3,39.25,28.24,39.15z"/>
	<path class="st4" d="M28.71,35.02c-0.1-0.18-0.28-0.3-0.48-0.33c-0.16-0.06-0.34-0.05-0.48,0.04c-0.2,0.13-0.29,0.33-0.26,0.54
		c-0.02,0.17,0.02,0.35,0.16,0.48c0.06,0.06,0.14,0.1,0.21,0.13c0.22,0.16,0.54,0.18,0.74-0.04C28.82,35.62,28.86,35.29,28.71,35.02
		z"/>
	<path class="st4" d="M37.5,32.58c-0.18,0.21-0.29,0.39-0.39,0.65c-0.08,0.2-0.14,0.41-0.2,0.62c-0.06,0.24,0.06,0.5,0.29,0.6
		c0.21,0.09,0.53,0.03,0.63-0.21c0.17-0.39,0.4-0.75,0.54-1.15C38.54,32.61,37.84,32.18,37.5,32.58z"/>
	<path class="st4" d="M39.37,29.95c-0.02,0-0.02,0.02,0,0.02S39.39,29.95,39.37,29.95z"/>
	<path class="st4" d="M37.34,22.2c-0.02,0-0.02,0.02,0,0.02S37.36,22.2,37.34,22.2z"/>
	<path class="st4" d="M33.84,27.73c0.02-0.26-0.05-0.56-0.26-0.73c-0.2-0.17-0.44-0.24-0.69-0.13c-0.24,0.1-0.37,0.32-0.39,0.58
		c-0.01,0.09,0.01,0.17,0.03,0.26c0,0.01,0,0.02,0.01,0.03c-0.01,0.03-0.03,0.1-0.03,0.11c-0.05,0.23-0.01,0.5,0.17,0.66
		c0.18,0.17,0.39,0.2,0.63,0.16c0.22-0.04,0.41-0.29,0.42-0.52c0-0.01,0.01-0.01,0.01-0.02C33.8,27.99,33.82,27.89,33.84,27.73z"/>
	<path class="st5" d="M28.49,28.65c0-0.03-0.04-0.06-0.07-0.07c-0.06-0.01-0.1-0.03-0.16-0.01c-0.07,0.03-0.13,0.09-0.19,0.14
		c-0.12,0.1-0.24,0.2-0.36,0.3c-0.22,0.18,0.12,0.54,0.32,0.32c0.1-0.11,0.21-0.23,0.31-0.34c0.05-0.05,0.11-0.1,0.14-0.16
		C28.52,28.76,28.5,28.7,28.49,28.65z"/>
	<path class="st5" d="M31.58,23.12c-0.03-0.04-0.08-0.04-0.1,0c-0.21,0.35-0.11,0.79-0.16,1.19c-0.06,0.51-0.19,1.02-0.36,1.51
		c-0.04,0.11,0.03,0.18,0.11,0.21c-0.4,0.3-0.74,0.69-1.09,1.04c-0.1,0.1,0.06,0.26,0.16,0.16c0.34-0.37,0.71-0.73,0.98-1.15
		c0.01-0.01,0-0.03,0-0.04c0.08,0.01,0.17-0.03,0.2-0.13c0.16-0.49,0.27-0.98,0.33-1.49C31.69,24,31.84,23.48,31.58,23.12z"/>
	<path class="st5" d="M30.55,21.09c-0.18-0.03-0.37-0.03-0.53,0.04c-0.19,0.08-0.21,0.18-0.23,0.36c0,0.04,0.04,0.05,0.07,0.03
		c0.16-0.15,0.46-0.19,0.67-0.15c0.21,0.04,0.52,0.14,0.59,0.35c0.02,0.06,0.13,0.06,0.13-0.02C31.21,21.32,30.9,21.15,30.55,21.09z
		"/>
	<path class="st5" d="M29.19,21.92c-0.07,0.11-0.15,0.23-0.23,0.34c-0.04,0.07,0.05,0.12,0.1,0.08c0.11-0.09,0.22-0.18,0.33-0.26
		C29.54,21.97,29.3,21.75,29.19,21.92z"/>
	<path class="st5" d="M28.52,22.66c-0.45,0.67-1.07,1.2-1.54,1.86c-0.52,0.73-1.07,1.43-1.58,2.16c-0.02,0.03,0.03,0.06,0.05,0.04
		c0.6-0.59,1.14-1.26,1.69-1.89c0.57-0.65,0.93-1.43,1.46-2.11C28.65,22.67,28.56,22.6,28.52,22.66z"/>
	<path class="st5" d="M25.22,26.87c-0.51,0.36-1,0.77-1.43,1.22c-0.23,0.24-0.41,0.51-0.64,0.73c-0.22,0.21-0.48,0.32-0.71,0.52
		c-0.05,0.05,0.02,0.12,0.07,0.09c0.45-0.2,0.98-0.7,1.35-1.02c0.51-0.45,0.89-0.99,1.45-1.39C25.4,26.96,25.32,26.8,25.22,26.87z"
		/>
	<path class="st5" d="M22.25,29.48c-0.1,0-0.1,0.15,0,0.15C22.35,29.63,22.35,29.48,22.25,29.48z"/>
	<path class="st5" d="M23.25,31.93c-0.42-0.57-1.32-1-1.3-1.78c0.01-0.19-0.29-0.19-0.3,0c-0.03,0.44,0.12,0.94,0.4,1.29
		c0.38,0.46,0.94,0.74,1.07,1.36c0.01,0.06,0.1,0.09,0.15,0.06C23.62,32.64,23.45,32.21,23.25,31.93z"/>
	<path class="st5" d="M21.9,33.46c-0.37,0-0.37,0.57,0,0.57C22.27,34.02,22.27,33.46,21.9,33.46z"/>
	<path class="st5" d="M19.31,33.78c-0.45-0.14-0.66-0.43-0.84-0.84c-0.12-0.28-0.27-0.68-0.51-0.86c-0.04-0.03-0.09,0.01-0.09,0.05
		c0,0.21,0.11,0.34,0.2,0.52c0.12,0.24,0.22,0.47,0.38,0.69c0.21,0.3,0.47,0.51,0.83,0.61C19.37,34,19.42,33.82,19.31,33.78z"/>
	<path class="st5" d="M17.72,31.74c-0.19-0.17-0.39-0.42-0.63-0.52c-0.18-0.08-0.33-0.12-0.48-0.25c-0.09-0.08-0.17-0.13-0.29-0.15
		c-0.06-0.01-0.09,0.05-0.05,0.09c0.07,0.09,0.15,0.13,0.26,0.18c0.1,0.04,0.24,0.09,0.31,0.18c0.04,0.04,0.06,0.11,0.09,0.15
		c0.07,0.09,0.18,0.14,0.28,0.2c0.14,0.08,0.27,0.17,0.4,0.27C17.69,31.95,17.8,31.81,17.72,31.74z"/>
	<path class="st5" d="M15.97,30.58c-0.42-0.12-0.92-0.18-1.36-0.1c-0.2,0.04-0.37,0.14-0.55,0.24c-0.25,0.13-0.47,0.16-0.65,0.38
		c-0.05,0.05,0,0.13,0.07,0.12c0.2-0.04,0.28-0.13,0.46-0.22c0.19-0.1,0.39-0.13,0.59-0.17c0.48-0.1,0.87-0.13,1.35,0.05
		C16.07,30.94,16.16,30.63,15.97,30.58z"/>
	<path class="st5" d="M12.89,31.2c-0.24,0.28-0.52,0.59-0.84,0.78c-0.13,0.08-0.25,0.12-0.36,0.24c-0.06,0.07-0.08,0.11-0.16,0.17
		c-0.04,0.03-0.06,0.04-0.11,0.09c-0.03,0.03-0.01,0.09,0.04,0.09c0.14-0.01,0.29-0.03,0.42-0.06c0.17-0.04,0.28-0.16,0.41-0.26
		c0.32-0.24,0.61-0.47,0.87-0.77C13.32,31.28,13.05,31.01,12.89,31.2z"/>
	<path class="st5" d="M11.34,33.94c-0.18,0-0.18,0.28,0,0.28C11.52,34.22,11.52,33.94,11.34,33.94z"/>
	<path class="st5" d="M13.92,36.05c-0.01-0.17-0.22-0.21-0.31-0.13c0-0.02-0.01-0.03-0.02-0.04c-0.31-0.2-0.67-0.07-1.02-0.16
		c-0.41-0.11-0.72-0.47-1-0.77c-0.11-0.12-0.3,0.07-0.18,0.18c0.59,0.54,1.34,1.11,2.19,0.85c-0.01,0.02-0.01,0.04-0.01,0.07
		c0.03,0.24-0.01,0.48,0.02,0.72c0.01,0.06,0.08,0.1,0.12,0.05C13.91,36.61,13.94,36.33,13.92,36.05z"/>
	<path class="st5" d="M15.06,39.67c-0.25-0.27-0.72-0.33-1.04-0.48c-0.17-0.08-0.39-0.15-0.54-0.27c-0.19-0.16-0.18-0.38-0.24-0.6
		c-0.07-0.26-0.48-0.09-0.34,0.14c0.11,0.18,0.18,0.38,0.31,0.55c0.13,0.17,0.34,0.29,0.53,0.39c0.34,0.19,0.88,0.52,1.28,0.42
		C15.09,39.81,15.1,39.72,15.06,39.67z"/>
	<path class="st5" d="M19.49,37.54c0.05-0.23-0.31-0.33-0.36-0.1c-0.05,0.27-0.08,0.54-0.09,0.82c0,0.2-0.01,0.4,0.13,0.56
		c0.04,0.04,0.11,0.06,0.16,0.04c0.01,0,0.02-0.01,0.04-0.01c0.05-0.02,0.08-0.06,0.08-0.11c0-0.08-0.03-0.1-0.05-0.17
		c-0.04-0.1-0.03-0.2-0.02-0.31C19.39,38.02,19.43,37.78,19.49,37.54z"/>
	<path class="st5" d="M19.9,38.56c-0.48,0-0.48,0.74,0,0.74C20.38,39.3,20.38,38.56,19.9,38.56z"/>
	<path class="st5" d="M21.06,39.01c-0.02,0-0.02,0.02,0,0.02S21.08,39.01,21.06,39.01z"/>
	<path class="st5" d="M22.3,38.93c-0.14-0.07-0.28-0.07-0.43-0.09c-0.13-0.02-0.25,0.04-0.27,0.18c-0.02,0.12,0.08,0.25,0.21,0.25
		c0.18-0.01,0.38-0.03,0.51-0.18C22.36,39.05,22.36,38.96,22.3,38.93z"/>
	<path class="st5" d="M24.81,37.03c-0.01-0.08-0.11-0.09-0.16-0.04c-0.18,0.15-0.18,0.36-0.37,0.53c-0.11,0.1-0.25,0.18-0.37,0.28
		c-0.41,0.37-0.93,0.56-1.4,0.85c-0.21,0.13-0.02,0.47,0.2,0.33c0.3-0.19,0.56-0.38,0.84-0.6c0.22-0.17,0.49-0.25,0.71-0.43
		c0.21-0.16,0.26-0.38,0.43-0.57C24.81,37.23,24.84,37.23,24.81,37.03z"/>
	<path class="st5" d="M24.96,36.29c-0.02,0.02-0.04,0.04-0.06,0.06c-0.01,0.01,0.01,0.03,0.02,0.02c0.02-0.02,0.04-0.04,0.06-0.06
		C24.99,36.3,24.97,36.28,24.96,36.29z"/>
	<path class="st5" d="M26.53,37.37c-0.48,0-0.48,0.74,0,0.74C27.01,38.11,27.01,37.37,26.53,37.37z"/>
	<path class="st5" d="M26.82,40.6c-0.06-0.12-0.15-0.2-0.21-0.31c-0.13-0.22-0.13-0.38-0.09-0.62c0.05-0.32,0.14-0.63,0.23-0.94
		c0.06-0.19-0.23-0.27-0.29-0.08c-0.19,0.59-0.66,1.85,0.28,2.07C26.8,40.72,26.84,40.65,26.82,40.6z"/>
	<path class="st5" d="M29.72,38.91c-0.02,0-0.02,0.02,0,0.02S29.73,38.91,29.72,38.91z"/>
	<path class="st5" d="M32.34,36.15c-0.11-0.11-0.25-0.11-0.4-0.14c-0.2-0.03-0.39-0.07-0.59-0.06c-0.11,0-0.09,0.17,0.02,0.14
		c0.18-0.04,0.39-0.07,0.57-0.02c0.14,0.04,0.24,0.12,0.38,0.13C32.34,36.21,32.36,36.17,32.34,36.15z"/>
	<path class="st5" d="M36.09,35.14l-0.12-0.02c0.05-0.21-0.06-0.47-0.35-0.47c-0.48,0-0.48,0.74,0,0.74c0.09,0,0.17-0.03,0.23-0.07
		c0.06,0.01,0.12,0.02,0.18,0.03C36.17,35.36,36.23,35.15,36.09,35.14z"/>
	<path class="st5" d="M38.45,34.47c-0.23,0.08-0.37,0.28-0.59,0.39c-0.14,0.07-0.31,0.08-0.46,0.12c-0.13,0.03-0.25,0.08-0.38,0.11
		c-0.15,0.04-0.08,0.28,0.06,0.23c0.13-0.04,0.26-0.07,0.39-0.13c0.14-0.06,0.25-0.17,0.38-0.25c0.24-0.14,0.48-0.16,0.65-0.4
		C38.54,34.51,38.49,34.45,38.45,34.47z"/>
	<path class="st5" d="M39.88,33.72c-0.19,0.03-0.27,0.14-0.43,0.24c-0.2,0.13-0.44,0.19-0.67,0.25c-0.11,0.03-0.06,0.21,0.05,0.18
		c0.21-0.06,0.41-0.15,0.61-0.24c0.19-0.09,0.4-0.11,0.5-0.32C39.96,33.78,39.94,33.71,39.88,33.72z"/>
	<path class="st5" d="M39.5,32.7c-0.01-0.01-0.02,0-0.02,0.01c0.04,0.06,0.08,0.13,0.12,0.19c0.01,0.01,0.03,0,0.02-0.01
		C39.59,32.83,39.55,32.77,39.5,32.7z"/>
	<path class="st5" d="M39.17,32.01c-0.21-0.19-0.41-0.38-0.63-0.56c-0.17-0.14-0.4-0.32-0.62-0.37c-0.07-0.02-0.12,0.05-0.09,0.12
		c0.09,0.21,0.31,0.4,0.49,0.54c0.21,0.17,0.42,0.33,0.63,0.49C39.1,32.34,39.32,32.14,39.17,32.01z"/>
	<path class="st5" d="M37.59,30.1c-0.18,0-0.19,0.29,0,0.29C37.78,30.38,37.78,30.1,37.59,30.1z"/>
	<path class="st5" d="M41.75,27.36c-0.35,0.05-0.68,0.16-1.04,0.15c-0.37-0.01-0.75-0.14-1.12-0.11c-0.48,0.03-0.96,0.36-1.29,0.69
		c-0.18,0.18,0.15,0.43,0.27,0.21c0.68-1.19,2.22-0.2,3.21-0.85C41.82,27.43,41.81,27.36,41.75,27.36z"/>
	<path class="st5" d="M41.84,27.08c-0.12,0-0.12,0.19,0,0.19C41.96,27.27,41.96,27.08,41.84,27.08z"/>
	<path class="st5" d="M39.75,24.24c-0.48,0-0.48,0.74,0,0.74C40.23,24.99,40.23,24.24,39.75,24.24z"/>
	<path class="st5" d="M39.62,23.02c-0.13-0.35-0.24-0.71-0.44-1.04c-0.05-0.08-0.16-0.02-0.14,0.06c0.06,0.36,0.2,0.7,0.32,1.05
		C39.42,23.25,39.68,23.18,39.62,23.02z"/>
	<path class="st5" d="M38.89,21.06c-0.18-0.52-0.66-0.67-1.16-0.7c-0.03,0-0.04,0.04-0.01,0.05c0.34,0.16,0.8,0.33,0.93,0.71
		C38.69,21.29,38.95,21.22,38.89,21.06z"/>
	<path class="st5" d="M36.64,20.53c-0.3,0.15-0.55,0.38-0.83,0.57c-0.15,0.1-0.29,0.2-0.45,0.26c-0.17,0.07-0.36,0.08-0.54,0.13
		c-0.06,0.02-0.07,0.1-0.02,0.13c0.29,0.18,0.62,0.03,0.89-0.13c0.38-0.23,0.64-0.59,1.06-0.77C36.88,20.67,36.77,20.47,36.64,20.53
		z"/>
	<path class="st5" d="M34.28,21.5c-0.16,0.01-0.31-0.02-0.47-0.08c-0.12-0.05-0.24-0.1-0.37-0.11c-0.03,0-0.05,0.03-0.04,0.06
		c0.08,0.37,0.58,0.44,0.88,0.41C34.45,21.76,34.46,21.49,34.28,21.5z"/>
	<path class="st5" d="M33.05,17.15c0.02-0.09-0.09-0.17-0.17-0.1c-0.91,0.91-0.94,2.51-0.72,3.68c0.09,0.46,0.84,0.12,0.57-0.24
		c-0.44-0.58-0.53-1.27-0.34-1.96C32.53,18.02,32.95,17.67,33.05,17.15z"/>
	<path class="st5" d="M33.4,15.78c-0.02-0.02-0.07-0.03-0.1-0.01c-0.08,0.06-0.09,0.13-0.08,0.23c0.01,0.11,0.01,0.23,0.01,0.34
		c0,0.1,0.15,0.1,0.16,0c0.01-0.11,0.03-0.22,0.05-0.33C33.46,15.91,33.47,15.84,33.4,15.78z"/>
	<path class="st5" d="M34.12,13.21c-0.48,0-0.48,0.74,0,0.74C34.6,13.96,34.6,13.21,34.12,13.21z"/>
	<path class="st5" d="M35.18,13.35c-0.02,0-0.02,0.02,0,0.02S35.2,13.35,35.18,13.35z"/>
	<path class="st5" d="M37.12,13.07c-0.14,0-0.14,0.21,0,0.21C37.26,13.28,37.26,13.07,37.12,13.07z"/>
	<path class="st5" d="M38.25,13.67c-0.09-0.07-0.21,0.05-0.12,0.12c0.18,0.15,0.31,0.36,0.49,0.5c0.02,0.02,0.07,0.01,0.07-0.03
		C38.65,14.02,38.44,13.83,38.25,13.67z"/>
	<path class="st5" d="M38.75,14.4c-0.11,0-0.11,0.18,0,0.18C38.86,14.58,38.86,14.4,38.75,14.4z"/>
	<path class="st5" d="M38.87,15.65c-0.48,0-0.48,0.74,0,0.74C39.35,16.39,39.35,15.65,38.87,15.65z"/>
	<path class="st5" d="M38.09,17.53c-0.09,0.16-0.19,0.32-0.27,0.49c-0.03,0.06,0.04,0.12,0.09,0.07c0.13-0.15,0.24-0.3,0.36-0.46
		C38.36,17.53,38.16,17.41,38.09,17.53z"/>
	<path class="st5" d="M37.43,18.17c-0.19,0.16-0.39,0.32-0.55,0.51c-0.05,0.05,0,0.16,0.08,0.13c0.24-0.09,0.47-0.23,0.7-0.36
		C37.88,18.34,37.64,17.99,37.43,18.17z"/>
	<path class="st5" d="M36.31,18.69c-0.39-0.01-0.76,0.03-1.14-0.08c-0.36-0.1-0.7-0.24-1.07-0.31c-0.05-0.01-0.08,0.05-0.03,0.08
		c0.34,0.23,0.74,0.44,1.12,0.59c0.38,0.15,0.73,0.07,1.13,0.06C36.53,19.03,36.53,18.7,36.31,18.69z"/>
	<path class="st5" d="M29.27,16.94c-0.18-0.03-0.78-0.23-0.85,0.04c-0.08,0.29,0.58,0.34,0.74,0.37
		C29.43,17.41,29.54,16.99,29.27,16.94z"/>
	<path class="st5" d="M27.36,16.97c-0.27,0.09-0.5,0.11-0.77,0c-0.17-0.07-0.33-0.18-0.52-0.19c-0.06,0-0.1,0.07-0.07,0.12
		c0.13,0.21,0.38,0.27,0.6,0.3c0.27,0.04,0.54,0.09,0.81,0.11C27.66,17.33,27.6,16.89,27.36,16.97z"/>
	<path class="st5" d="M25.59,16.52c-0.2,0-0.2,0.3,0,0.3C25.79,16.83,25.79,16.52,25.59,16.52z"/>
	<path class="st5" d="M24.93,16.24c-0.12-0.06-0.24-0.12-0.37-0.18c-0.06-0.03-0.13,0.05-0.07,0.1c0.1,0.09,0.2,0.17,0.31,0.25
		C24.93,16.52,25.07,16.3,24.93,16.24z"/>
	<path class="st5" d="M24.09,15.72c-0.66-0.26-1.33-0.36-2.03-0.27c-0.03,0-0.03,0.04,0,0.04c0.68,0,1.33,0.14,1.94,0.44
		C24.15,16.01,24.24,15.79,24.09,15.72z"/>
	<path class="st5" d="M21.5,15.81c-0.11-0.04-0.22,0.03-0.22,0.15c0,0.04,0,0.08,0,0.12c0,0.1,0.11,0.12,0.18,0.07
		c0.03-0.03,0.07-0.06,0.1-0.08C21.64,16,21.59,15.85,21.5,15.81z"/>
	<path class="st5" d="M21.18,16.71c-0.04,0-0.04,0.06,0,0.06C21.22,16.77,21.22,16.71,21.18,16.71z"/>
	<path class="st5" d="M20.75,18.41c-0.14,0-0.14,0.22,0,0.22C20.89,18.63,20.89,18.41,20.75,18.41z"/>
	<path class="st5" d="M20.15,19.83c-0.21,0-0.21,0.33,0,0.33C20.36,20.15,20.36,19.83,20.15,19.83z"/>
	<path class="st5" d="M21.98,23.01c-0.66,0.1-1.71,0.57-2.13-0.23c-0.15-0.29-0.11-0.6-0.14-0.91c-0.05-0.5,0.09-0.74,0.3-1.18
		c0.07-0.16-0.16-0.29-0.23-0.14c-0.1,0.21-0.13,0.37-0.18,0.59c-0.07,0.29-0.24,0.62-0.26,0.93c-0.02,0.33,0.08,0.84,0.29,1.09
		c0.22,0.27,0.59,0.39,0.93,0.34c0.3-0.04,0.61-0.13,0.91-0.17c0.23-0.04,0.38-0.06,0.57-0.2C22.11,23.1,22.06,23,21.98,23.01z"/>
	<path class="st5" d="M22.96,21.83c-0.22,0.12-0.34,0.41-0.47,0.62c-0.1,0.16,0.15,0.3,0.25,0.14c0.12-0.21,0.32-0.44,0.33-0.69
		C23.08,21.84,23.01,21.81,22.96,21.83z"/>
	<path class="st5" d="M23.25,21.26c-0.17,0-0.17,0.26,0,0.26C23.42,21.53,23.42,21.26,23.25,21.26z"/>
	<path class="st5" d="M24.12,20.32c-0.25,0-0.25,0.39,0,0.39C24.37,20.72,24.38,20.32,24.12,20.32z"/>
	<path class="st5" d="M16.87,21.07c-0.49,0.05-0.99,0.16-1.41,0.42c-0.24,0.15-0.47,0.32-0.72,0.46c-0.24,0.13-0.46,0.24-0.63,0.45
		c-0.04,0.05,0,0.13,0.06,0.11c0.48-0.13,0.85-0.53,1.32-0.71c0.46-0.18,0.92-0.37,1.41-0.46C17.06,21.31,17.03,21.05,16.87,21.07z"
		/>
	
		<ellipse transform="matrix(0.5547 -0.8321 0.8321 0.5547 -13.1228 21.3028)" class="st5" cx="13.34" cy="22.91" rx="2.11" ry="0.01"/>
	<path class="st5" d="M13.02,23.34c0.02,0.11,0.05,0.22,0.07,0.32c0.01,0.06,0.1,0.06,0.11,0c0.02-0.11,0.05-0.22,0.07-0.32
		C13.33,23.12,12.97,23.12,13.02,23.34z"/>
	<path class="st5" d="M13.1,24.42c-0.05,0.32-0.14,0.59-0.31,0.86c-0.13,0.21-0.33,0.4-0.4,0.63c-0.02,0.05,0.04,0.08,0.08,0.06
		c0.46-0.24,0.6-1.09,0.66-1.55C13.13,24.41,13.11,24.41,13.1,24.42z"/>
	<path class="st5" d="M12.18,26.48c-0.02,0-0.02,0.02,0,0.02S12.2,26.48,12.18,26.48z"/>
	<path class="st5" d="M12.35,27.02c-0.08-0.13-0.3,0-0.21,0.12c0.19,0.28,0.37,0.62,0.64,0.83c0.04,0.03,0.08-0.02,0.07-0.06
		C12.77,27.59,12.52,27.3,12.35,27.02z"/>
	<path class="st5" d="M13.77,28.62c-0.09-0.28-0.43-0.41-0.66-0.55c-0.19-0.11-0.34,0.17-0.17,0.29c0.22,0.15,0.47,0.4,0.75,0.36
		C13.74,28.72,13.78,28.68,13.77,28.62z"/>
	<path class="st5" d="M14.63,28.57c-0.21-0.02-0.43,0-0.64-0.04c-0.23-0.05-0.32,0.32-0.1,0.35c0.29,0.04,0.56,0.03,0.8-0.16
		C14.75,28.66,14.69,28.58,14.63,28.57z"/>
	<path class="st5" d="M15.56,27.74c-0.48,0-0.48,0.74,0,0.74C16.04,28.49,16.04,27.74,15.56,27.74z"/>
	<path class="st5" d="M16.68,25.59c-0.11,0-0.11,0.17,0,0.17C16.79,25.76,16.79,25.59,16.68,25.59z"/>
	<path class="st5" d="M17.19,24.16c-0.11,0.12-0.22,0.24-0.33,0.35c-0.15,0.16,0.14,0.37,0.23,0.18c0.07-0.15,0.15-0.29,0.22-0.44
		C17.35,24.17,17.26,24.09,17.19,24.16z"/>
	<path class="st5" d="M19.31,24.03c-0.25-0.24-0.56-0.19-0.87-0.28c-0.3-0.09-0.54-0.09-0.85-0.02c-0.16,0.03-0.09,0.26,0.07,0.24
		c0.24-0.04,0.73-0.13,0.97-0.08c0.23,0.05,0.41,0.2,0.65,0.22C19.32,24.12,19.34,24.06,19.31,24.03z"/>
	<path class="st5" d="M19.9,23.87c-0.48,0-0.48,0.74,0,0.74C20.38,24.61,20.38,23.87,19.9,23.87z"/>
	<path class="st5" d="M21.09,24.6c-0.02,0-0.02,0.02,0,0.02C21.11,24.63,21.11,24.6,21.09,24.6z"/>
	<path class="st5" d="M22.83,25.69c-0.14-0.17-0.44,0.06-0.3,0.23c0.56,0.73-0.08,1.71-0.45,2.41c-0.44,0.83-1.08,1.08-1.99,0.87
		c-0.07-0.02-0.16,0-0.21,0.05c-0.54,0.68,0.16,1.77-0.8,2.21c-0.08,0.03-0.04,0.17,0.04,0.16c0.68-0.06,0.85-0.4,1.02-1.02
		c0.03-0.13-0.1-0.33-0.06-0.42c0.05-0.13,0.44-0.37,0.53-0.39c0.36-0.09,0.66,0.19,1.06-0.03c0.68-0.37,0.99-1.44,1.26-2.09
		C23.22,26.96,23.35,26.32,22.83,25.69z"/>
	<path class="st5" d="M13.91,16.75c-0.06-0.41-0.6-0.37-0.79-0.1c-0.05,0.07-0.09,0.14-0.12,0.22c-0.1-0.06-0.26-0.04-0.31,0.11
		c-0.16,0.49-0.31,0.98-0.31,1.5c0,0.45,0.32,2.35-0.68,2.03c-0.04-0.01-0.07,0.04-0.04,0.07c0.39,0.4,0.9,0.22,1.11-0.25
		c0.22-0.47,0.12-0.98,0.07-1.48c0-0.05-0.01-0.1-0.01-0.15c0.03,0.11,0.08,0.22,0.15,0.33c0.21,0.31,0.85,0.24,0.8-0.22
		c-0.05-0.35-0.07-0.66,0.01-1.01C13.86,17.43,13.97,17.12,13.91,16.75z"/>
	<path class="st5" d="M19.61,13.58c-1.26-0.41-3.54-0.58-4.12,1c-0.04,0.12,0.14,0.19,0.2,0.09c0.27-0.47,1.43-0.85,1.96-0.89
		c0.65-0.05,1.3,0.1,1.95,0C19.72,13.76,19.7,13.61,19.61,13.58z"/>
	<path class="st5" d="M25.8,11.33c-0.71,0.05-1.46,0.4-2,0.85c-0.61,0.5-0.85,1.22-1.07,1.96c-0.08,0.26,0.3,0.35,0.4,0.11
		c0.25-0.61,0.52-1.28,0.99-1.75c0.48-0.48,1.15-0.72,1.71-1.07C25.87,11.4,25.86,11.32,25.8,11.33z"/>
	<path class="st5" d="M30.49,12.58c-0.51-0.74-1.23-1.62-2.16-1.79c-0.42-0.08-0.6,0.57-0.18,0.64c0.77,0.13,1.74,1.18,2.04,1.88
		c0.37,0.86,0.46,1.95,0.68,2.86c0.02,0.09,0.16,0.07,0.16-0.02C31.09,15.05,31.15,13.52,30.49,12.58z"/>
	<path class="st5" d="M39.94,14.09c-0.63-0.98-2.08-1.63-3.2-1.75c-1.15-0.12-2.46,0.17-3.4,0.87c-0.39,0.29-0.77,0.67-1.06,1.05
		c-0.18,0.23-1.05,2.2-1.25,2.12c-0.01-0.01-0.02,0.02-0.01,0.02c0.4,0.14,0.44,0.06,0.67-0.22c0.47-0.58,0.56-1.38,1.1-1.98
		c0.47-0.52,1.04-0.9,1.69-1.16c1.49-0.58,3.13-0.21,4.42,0.69c1.52,1.06,1.18,2.84,1.25,4.48c0,0.06,0.1,0.08,0.11,0.01
		C40.46,17.06,40.62,15.15,39.94,14.09z"/>
	<path class="st5" d="M11.43,20.14c-0.93-0.57-2.13-0.07-2.76,0.76c-0.32,0.42-0.29,0.85-0.35,1.36c-0.12,1.08-0.5,2.1-0.64,3.17
		c-0.22,1.72,0.54,3.48,1.12,5.06c0.69,1.88,1.58,3.61,2.51,5.37c0.01,0.02,0.05,0.01,0.04-0.02c-1.04-2.62-2.33-5.26-3-8
		c-0.38-1.57-0.22-2.77,0.18-4.32c0.14-0.55,0.2-1.03,0.27-1.59c0.12-0.95,1.41-2.34,2.54-1.62C11.44,20.39,11.54,20.21,11.43,20.14
		z"/>
	<path class="st5" d="M11.75,36.69c-0.48,0-0.48,0.74,0,0.74C12.23,37.43,12.23,36.69,11.75,36.69z"/>
	<path class="st5" d="M25.61,37.68c-2.07-0.85-3.43,2.01-5.04,2.69c-1.38,0.58-2.54-0.03-3.94,0.02c-0.61,0.02-1.24,0.24-1.86,0.12
		c-0.09-0.02-0.18-0.04-0.28-0.07c0.1,0.01,0.21,0.02,0.33,0.01c0.07-0.01,0.08-0.09,0.02-0.12c-0.58-0.23-1.01-0.75-1.54-1.06
		c-0.53-0.31-1-0.6-1.39-1.09c-0.68-0.83-1.14-1.74-1.92-2.49c-0.14-0.13-0.4-0.04-0.39,0.16c0.06,1.22,1.49,2.51,2.37,3.24
		c0,0,0.01,0.01,0.01,0.01c0.18,0.16,0.38,0.29,0.59,0.4c-0.16,0.07-0.27,0.28-0.1,0.43c0.74,0.64,1.58,1.24,2.58,1.31
		c0.66,0.05,1.33-0.15,1.99-0.19c0.51-0.03,1.02,0,1.53,0.02c0.19,0.02,0.39,0.03,0.59,0.02c0.32-0.01,0.64,0.01,0.91-0.13
		c2.06-0.59,3.18-3.04,5.52-3.12C25.69,37.85,25.7,37.72,25.61,37.68z"/>
	<path class="st5" d="M25.59,38.05c-0.09,0.26-0.29,0.52-0.28,0.8c0,0.09,0.09,0.12,0.16,0.09c0.27-0.12,0.4-0.48,0.51-0.73
		C26.09,37.93,25.69,37.76,25.59,38.05z"/>
	<path class="st5" d="M26.37,40.67c-0.12-0.11-0.2-0.16-0.37-0.19c-0.24-0.05-0.47-0.11-0.72-0.17c-0.21-0.05-0.43-0.07-0.62-0.18
		c-0.13-0.07-0.52-0.47-0.22-0.54c0.17-0.04,0.08-0.31-0.1-0.24c-0.49,0.21-0.45,0.76-0.04,1.05c0.21,0.15,0.5,0.14,0.74,0.16
		c0.3,0.02,0.57,0.02,0.86,0.12c0.15,0.05,0.24,0.1,0.41,0.1C26.38,40.78,26.41,40.71,26.37,40.67z"/>
	<path class="st5" d="M42.31,30.81c-1.19,1.66-2.84,3.56-4.61,4.63c-0.45,0.27-3.16,0.87-2.27,1.81c0.31,0.33,1.04,0.05,1.28,0.3
		c0.8,0.84-2.12,1.95-2.59,2.25c-0.38,0.24-0.72,0.57-1.13,0.76c-0.67,0.32-1.6,0.31-2.34,0.35c-1.32,0.06-2.64-0.02-3.94-0.29
		c-0.19-0.04-0.27,0.24-0.08,0.29c2.15,0.5,4.61,0.82,6.67-0.19c1.06-0.52,2.25-1.06,3.25-1.69c0.43-0.27,1.15-0.85,0.99-1.46
		c-0.14-0.57-0.72-0.37-1.2-0.46c-0.14-0.03-0.66-0.01-0.63-0.3c0,0.05,0.51-0.22,0.59-0.26c0.54-0.26,0.99-0.61,1.5-0.93
		c2.03-1.27,3.55-2.55,4.76-4.66C42.66,30.79,42.42,30.65,42.31,30.81z"/>
	<path class="st5" d="M43.63,28.83c-0.1,0.15-0.16,0.3-0.23,0.46c-0.1,0.22-0.23,0.39-0.4,0.56c-0.31,0.3,0.39,0.62,0.4,0.17
		c0.01-0.24,0.03-0.46,0.13-0.67c0.08-0.16,0.14-0.31,0.18-0.48C43.72,28.82,43.66,28.79,43.63,28.83z"/>
	<path class="st5" d="M43.39,23.78c-0.39-0.75-0.89-1.49-1.51-2.07c-0.56-0.53-1.95-0.67-2.19-1.35c-0.04-0.11-0.21-0.06-0.17,0.05
		c0.11,0.32,0.23,0.55,0.49,0.76c0.27,0.22,0.75,0.32,1.06,0.54c0.45,0.31,0.77,0.69,1.11,1.11c1.29,1.62,2.14,3.63,1.46,5.7
		c-0.05,0.16,0.2,0.23,0.25,0.07C44.39,26.91,44.19,25.33,43.39,23.78z"/>
	<path class="st5" d="M39.66,18.27c-0.03-0.04-0.1-0.01-0.1,0.04c0,0.2,0.07,0.42,0.1,0.62c0.05,0.31,0.07,0.56-0.02,0.87
		c-0.01,0.04,0.05,0.06,0.06,0.02C39.85,19.36,40.02,18.68,39.66,18.27z"/>
	<path class="st5" d="M33.19,31.65c-0.21,0.05-0.45,0.15-0.67,0.13c-0.32-0.02-0.61-0.54-0.62-0.82c-0.03-0.6-0.95-0.09-0.44,0.25
		c0.28,0.18,0.27,0.49,0.47,0.72c0.14,0.17,0.29,0.17,0.5,0.18c0.33,0.01,0.77,0.06,0.87-0.35C33.32,31.69,33.26,31.63,33.19,31.65z
		"/>
	<path class="st5" d="M33.12,34.82c-0.48,0-0.48,0.74,0,0.74C33.6,35.56,33.6,34.82,33.12,34.82z"/>
	<g>
		<path class="st6" d="M41.11,19.79c0.6-2.78-0.16-5.78-2.2-7.81c-2.15-2.15-5.66-0.1-7.53,1.53c-0.01,0.01-0.01,0.01-0.02,0.02
			c-0.47-2.13-1.38-4.17-3.97-3.81c-2.55,0.35-4.81,1.61-5.75,3.96c-1.73-1.27-3.94-1.96-5.99-0.98c-1.11,0.53-2.07,1.45-2.88,2.36
			c-0.64,0.72-0.92,1.45-1.03,2.29c-0.01,0.02-0.01,0.04-0.02,0.07c-0.08,0.54-0.12,1.07-0.11,1.61c-1.03-0.41-2.13-0.55-2.92,0.33
			c-1.28,1.44-1.89,3.65-1.99,5.53c-0.12,2.3,0.52,4.57,1.4,6.68c0.33,0.79,0.69,1.57,1.07,2.34c-0.06,0.06-0.1,0.13-0.11,0.23
			c-0.25,1.84,1.09,3.75,2.15,5.15c1.05,1.39,2.33,2.21,4.07,2.46c1.68,0.24,4,0.79,5.62,0.07c0.77-0.34,1.43-1.06,2.1-1.73
			c0.54,1.3,1.67,1.91,3.09,2.03c1.14,0.09,2.28,0,3.43,0.09c1.01,0.07,2.01,0.17,3.02,0.04c3.07-0.4,5.57-2.88,6.18-5.88
			c0.92-0.57,1.77-1.25,2.6-1.96c1.52-1.29,3.21-2.71,3.76-4.72C46,26.31,44.23,21.54,41.11,19.79z M44.23,29.88
			c-0.62,1.68-2.13,2.89-3.45,4.01c-0.71,0.6-1.43,1.18-2.19,1.68c-0.2-0.12-0.48-0.08-0.53,0.21c-0.01,0.04-0.02,0.09-0.02,0.13
			c-0.7,0.4-1.44,0.73-2.25,0.93c-0.47,0.12-0.27,0.84,0.2,0.72c0.64-0.16,1.24-0.39,1.81-0.68c-0.7,2.19-2.48,3.99-4.78,4.52
			c-1.56,0.36-3.16,0.02-4.73-0.02c-1.75-0.04-3.99,0.34-4.68-1.78c-0.01-0.02-0.02-0.04-0.03-0.06c0.6-0.52,1.25-0.9,2.04-0.86
			c0.48,0.02,0.48-0.73,0-0.75c-1.29-0.06-2.22,0.81-3.09,1.66c-0.64,0.62-1.29,1.34-2.15,1.64c-0.89,0.31-1.94,0.1-2.86,0.01
			c-1.97-0.19-3.82-0.26-5.25-1.82c-0.91-0.99-2.04-2.56-2.38-4.05c0.26,0.51,0.56,0.99,1.04,1.35c0.39,0.29,0.76-0.36,0.38-0.65
			c-0.6-0.45-0.94-1.41-1.26-2.06c-0.35-0.69-0.68-1.39-0.99-2.09c-0.71-1.62-1.31-3.32-1.52-5.08c-0.21-1.68-0.05-3.37,0.58-4.95
			c0.37-0.92,0.71-1.69,1.63-2.11c0.7-0.31,0.87-0.27,1.53-0.04c0.54,0.19,1.05,0.44,1.54,0.72c0.42,0.24,0.8-0.41,0.38-0.65
			c-0.25-0.14-0.53-0.3-0.82-0.44c-0.01-0.25-0.02-0.5-0.01-0.76c0.05-0.06,0.07-0.13,0.07-0.23c0-1.28,0.25-2.13,1.15-3.09
			c0.62-0.67,1.32-1.33,2.12-1.78c1.91-1.06,4.02-0.39,5.64,0.86c-0.05,0.07-0.11,0.14-0.16,0.2c-0.27,0.35,0.25,0.69,0.57,0.46
			c0.15,0.01,0.3-0.07,0.34-0.27c0.02-0.08,0.04-0.16,0.06-0.24c0.01-0.01,0.02-0.02,0.03-0.03c0.04-0.06,0.06-0.14,0.05-0.23
			c0.72-2.2,2.59-3.27,4.85-3.73c3.43-0.71,3.59,3.17,3.99,5.57c0.08,0.48,0.8,0.27,0.72-0.2c-0.09-0.55-0.18-1.18-0.3-1.82
			c0.13,0.07,0.29,0.07,0.43-0.05c0.95-0.83,2.02-1.48,3.22-1.89c0.53-0.18,1.2-0.4,1.76-0.38c0.91,0.03,1.54,0.73,2.06,1.4
			c1.48,1.91,1.95,4.39,1.36,6.71c-0.04,0.15,0.02,0.35,0.17,0.42C43.51,21.82,45.4,26.69,44.23,29.88z"/>
		<path class="st6" d="M22.82,27.17c-0.38-2-3.1-3.14-4.75-1.94c-0.84,0.62-1.55,1.7-1.76,2.72c-0.24,1.16,0.3,2.12,0.99,3.02
			c0.29,0.38,0.94,0.01,0.65-0.38c-0.39-0.51-0.78-1.04-0.9-1.68c-0.17-0.88,0.31-1.77,0.85-2.44c0.55-0.7,1.33-1.19,2.27-0.95
			c0.86,0.22,1.76,0.96,1.93,1.85C22.18,27.84,22.91,27.64,22.82,27.17z"/>
		<path class="st6" d="M27.41,19.99c0.2,0.44,0.84,0.06,0.65-0.38c-0.62-1.37,2.41-1.73,2.22-0.37c-0.07,0.47,0.66,0.68,0.72,0.2
			C31.39,16.68,26.24,17.38,27.41,19.99z"/>
		<path class="st6" d="M33.23,24.94c-0.47-0.12-0.67,0.61-0.2,0.72c1.18,0.3,2.4,1.21,2.19,2.57c-0.27,1.73-2.01,1.43-3.25,0.99
			c-0.46-0.16-0.65,0.56-0.2,0.72c1.65,0.59,3.71,0.65,4.16-1.46C36.33,26.71,34.83,25.35,33.23,24.94z"/>
		<path class="st6" d="M27.02,32.29c-0.58-0.47-1.34-0.93-2.05-0.43c-0.55,0.39-0.69,1.14-0.55,1.76c0.11,0.47,0.83,0.27,0.72-0.2
			c-0.07-0.3-0.03-0.7,0.22-0.92c0.36-0.32,0.84,0.08,1.13,0.31C26.86,33.12,27.39,32.59,27.02,32.29z"/>
		<path class="st6" d="M18.56,36.02c-0.03-0.48-0.78-0.48-0.75,0c0.05,0.8,0.12,1.89-0.69,2.36c-0.92,0.53-2.02-0.02-2.83-0.47
			c-0.42-0.23-0.8,0.42-0.38,0.65c1.08,0.59,2.42,1.15,3.59,0.47C18.57,38.41,18.62,37.12,18.56,36.02z"/>
		<path class="st6" d="M12.63,23.27c-0.55-0.31-1.22-0.14-1.64,0.32c-0.5,0.55-0.46,1.35-0.32,2.04c0.1,0.47,0.82,0.27,0.72-0.2
			c-0.08-0.38-0.14-0.86,0.07-1.21c0.16-0.26,0.5-0.46,0.79-0.3C12.67,24.15,13.05,23.51,12.63,23.27z"/>
		<path class="st6" d="M38.64,21.22c-0.39-0.37-0.89-0.67-1.44-0.57c-0.46,0.08-0.85,0.39-0.95,0.86c-0.1,0.47,0.63,0.67,0.72,0.2
			c0.13-0.62,0.87-0.21,1.14,0.05c0.17,0.16,0.41,0.37,0.45,0.6c0.07,0.37-0.43,0.51-0.71,0.6c-0.46,0.15-0.26,0.88,0.2,0.72
			c0.53-0.18,1.1-0.43,1.26-1.01C39.46,22.08,39.02,21.59,38.64,21.22z"/>
		<path class="st6" d="M41.49,28.84c-0.86-0.41-2-0.46-2.69,0.31c-0.47,0.52-0.57,1.3-0.26,1.9c-0.08,0.16-0.06,0.36,0.14,0.47
			c0.23,0.12,0.48,0.12,0.66-0.1c0.13-0.16,0.16-0.37,0-0.53c-0.35-0.36-0.28-0.96,0.07-1.3c0.45-0.43,1.18-0.35,1.7-0.11
			C41.55,29.69,41.93,29.05,41.49,28.84z"/>
		<path class="st6" d="M32.46,37.7c-0.28-0.57-1.07-0.8-1.61-0.44c-0.58,0.38-0.62,1.17-0.22,1.68c0.13,0.16,0.4,0.13,0.53,0
			c0.16-0.16,0.12-0.37,0-0.53c-0.12-0.15-0.05-0.44,0.11-0.53c0.2-0.11,0.44,0.02,0.53,0.21C32.02,38.51,32.67,38.13,32.46,37.7z"
			/>
	</g>
</g>
</svg>
