<?xml version="1.0" encoding="utf-8"?>
<!-- Generator: Adobe Illustrator 25.2.3, SVG Export Plug-In . SVG Version: 6.00 Build 0)  -->
<svg version="1.1" id="Layer_1" xmlns="http://www.w3.org/2000/svg" xmlns:xlink="http://www.w3.org/1999/xlink" x="0px" y="0px"
	 viewBox="0 0 156 156" style="enable-background:new 0 0 156 156;" xml:space="preserve">
<style type="text/css">
	.st0{fill:#997D4B;}
	.st1{fill:#4096C6;}
	.st2{fill:#7C643A;}
	.st3{fill:#466008;}
	.st4{fill:#79B8D3;}
	.st5{fill:#2B7D9E;}
</style>
<g>
	<path class="st0" d="M140.24,156.74h-71.3c-0.06-1.23-0.13-2.46-0.2-3.69c-0.45-1.48-1.13-2.94-1.64-4.28
		c-1.02-2.68-1.87-5.4-2.61-8.17c-1.45-5.45-2.57-11.02-4.76-16.24c-3.61-8.6-9.52-16.25-16.77-22.08
		c-7.2-5.78-15.7-9.15-24.54-11.55c-4.66-1.26-9.45-2.09-14.07-3.45c-2.05-0.61-3.92-1.56-5.4-2.89v-66.1
		c11.47-1.07,22.7-0.09,33.88,2.91c11.08,2.98,22,6.8,31.96,12.57c9.53,5.53,18.95,11.44,27.06,18.96c3.44,3.2,6.67,6.6,9.78,10.12
		c0.87-0.32,1.85-0.37,2.79-0.09l0.01,0.01c0.65,0.2,1.28,0.57,1.84,1.13c0.16,0.15,0.31,0.32,0.45,0.51
		c5.2,6.75,9.01,14.99,12.74,22.62c3.63,7.45,6.94,15.05,10.16,22.69c3.39,8.06,6.73,16.19,8.64,24.75
		C139.87,141.78,140.48,149.26,140.24,156.74z"/>
	<path class="st1" d="M117.92,156.74h-29.8c-0.17-2.76-0.13-5.49,0.18-8.26c-0.57-0.66-0.92-1.55-0.89-2.68
		c0.05-1.94,0.25-4.16-0.47-6.02c-0.53-1.38-1.64-2.41-2.39-3.66c-1.96-3.31-2.17-7.38-2.72-11.09c-0.23-1.57-0.29-3.37-1.01-4.8
		c-0.72-1.45-2.04-2.55-2.82-3.99c-1.49-2.73-1.86-5.8-2.57-8.77c-0.87-3.58-3.02-4.89-5.68-7.17c-1.29-1.11-2.36-2.42-3.21-3.88
		c-0.68-1.17-1.08-2.71-1.97-3.73c-1.74-1.99-5.63-1.61-7.9-3.06c-1.77-1.14-2.87-2.79-3.43-4.65c-2.22-0.84-4.28-2.25-6.22-3.53
		c-1.39-0.93-6.94-6.21-8.41-5.2c-2.19,1.5-5.27-0.08-5.89-2.46c-0.47-0.22-0.93-0.45-1.38-0.69c-1.44-0.8-2.7-1.73-4.18-2.3
		c-0.62,0.17-1.32,0.15-2.05-0.1c-2.11-0.74-4.21-1.49-6.33-2.22c-1.94-0.67-2.67-0.48-4.63-0.29c-2.02,0.18-3.87-0.58-5.84-0.89
		c-2.29-0.37-4.69-0.34-6.97,0.02c-0.91,0.15-1.72,0-2.4-0.34v-29.5c0.56-0.07,1.13-0.06,1.67,0.05c1.58-0.13,3.16,0.16,4.63,0.83
		c3.12-1.91,7.46-1.97,10.86-0.96c2.5,0.74,4.66,2.73,7.21,3.17c2.64,0.47,5.35-0.53,8.05,0.01c2.52,0.5,4.53,1.92,6.71,3.2
		c2.37,1.38,4.91,2.33,7.46,3.33c4.82,1.89,9.55,3.99,13.02,7.98c0.16,0.18,0.3,0.37,0.42,0.56c3.89-0.29,7.83,1.36,10.44,4.53
		c1.95,2.37,2.93,4.97,5.54,6.79c2.44,1.7,5.29,2.7,7.62,4.58c2.06,1.65,3.3,3.87,4.89,5.92c1.56,2.03,3.88,2.87,5.9,4.36
		c4.4,3.24,5.76,8.64,8.26,13.26c2.49,4.59,5.43,9.13,6.68,14.27c0.75,0.81,1.49,1.64,2.08,2.54c1.35,2.06,1.07,4.37,1.44,6.71
		c0.4,2.54,1.38,4.79,2.38,7.13c1.04,2.44,1.32,4.85,1.58,7.47c0.27,2.68,1.49,5.13,1.65,7.82c0.15,2.4-0.44,4.67-0.12,7.09
		C117.72,151.12,118.02,153.93,117.92,156.74z"/>
	<path class="st2" d="M144.03,156.74h-10.15c-0.06-0.44-0.75-0.88-0.78-1.32c-0.02-0.43,0.04-0.89,0.12-1.34
		c-0.09-0.34-0.07-0.73,0.1-1.12c1.16-2.57,1.74-6.5,1.92-9.31c0.18-2.79-1.36-4.82-2.05-7.4c-0.56-2.12-0.57-4.22-0.36-6.38
		c0.26-2.68-0.66-4.56-1.48-6.82c-0.26-0.1-0.48-0.26-0.64-0.49c-1.05-1.53-2.32-3.21-3.05-4.93c-0.74-1.74-0.57-3.4-0.58-5.23
		c-0.02-5.4-4.36-7.68-6.59-12.05c-0.9-1.77-0.97-3.3-1.07-5.23c-0.07-1.58,0-2.86-1.22-4.14c-0.66-0.69-1.54-1.05-2.28-1.64
		c-2.16-1.75-2.74-4.88-2.92-7.67c-0.43-0.15-0.78-0.47-0.88-0.97c-0.82-3.99-5.32-4.52-7.07-7.95c-0.94-1.84-0.3-3.94-2.13-5.3
		c-1.39-1.04-3.06-1.53-4.26-2.84c-1.14-1.24-1.47-2.84-2.24-4.28c-1.15-2.16-3.67-2.51-5.7-3.54c-1.64-0.83-3.7-1.96-4.39-3.66
		c-0.6-0.04-1.19-0.38-1.46-1.08c-0.65-1.7-0.83-3.43-2.4-4.56c-1.22-0.88-2.57-0.95-3.98-1.29c-2.02-0.5-2.71-1.33-3.77-3.01
		c-2.11-3.36-6.06-3.42-9.41-4.79c-1.18-0.48-2.12-0.97-2.73-1.94c-0.4,0.26-0.93,0.3-1.45-0.07c-1.87-1.34-3.23-3.47-5.23-4.58
		c-2.28-1.27-5.55-0.53-8.09-1.37c-2.31-0.76-3.67-2.03-5.42-3.62c-2.25-2.03-4.96-2.82-7.87-3.15c-0.12,0.15-0.3,0.29-0.53,0.4
		c-2.13,1.06-3.57,0.67-5.78,0c-2.81-0.85-5.68-1.45-8.56-2.01c-3.07-0.6-5.71-1-8.8-0.31c-1.71,0.38-3.34,0.64-5,0.34
		c-1.02,0.94-2.62,0.44-3.91,0.4c-0.98-0.03-2.03,0.09-3.03-0.01V12.11c0.06-0.01,0.12-0.01,0.18-0.01c0.54-0.09,1.12,0,1.75,0.2
		c0.34,0.02,0.69,0.04,1.03,0.06c4.73-2.61,8.65-0.94,13.75,0.84c3.71,1.29,7.08,0.96,10.91,0.39c2.03-0.31,3.67-0.3,5.25,1.13
		c0.17,0.15,0.29,0.32,0.37,0.49c0.27,0.06,0.54,0.12,0.79,0.18c2.85,0.72,5.61,0.28,7.98,1.51c1.26-0.37,2.35,0.01,3.35,1.02
		c1.38,1.41,0.85,2.5,3.39,2.91c0.96,0.16,2.04-0.11,3.03,0.01c1.89,0.21,3.67,0.93,5.18,2.08c0.75,0.57,1.29,1.32,2,1.91
		c1.21,1,2.31,1.07,3.77,1.24c1.82,0.2,2.81,1.13,4.04,2.38c2.13,2.17,3.7,2.35,6.57,2.93c2.42,0.5,3.7,2,3.61,4.01
		c1.62,0.79,2.97,1.39,4.95,1.73c1.6,0.28,3.03,0.59,4.33,1.61c3.1,2.43,5.53,6.22,8.07,9.21c1.39,1.64,2.72,3.23,4.57,4.37
		c1.42,0.87,3.14,1.21,4.52,2.08c2.52,1.6,1.91,5.07,3.28,7.36c0.12,0.17,0.24,0.34,0.36,0.51c0.06,0.07,0.11,0.15,0.18,0.21
		c1.84,0.01,4.03,0.91,5.16,2.4c0.72,0.94,0.71,1.93,0.96,3c0.18,0.25,0.26,0.52,0.26,0.8c0.59,1.35,1.87,2.56,3.09,3.38
		c1.72,1.15,3.97,1.16,5.21,2.99c0.56,0.81,0.66,1.7,0.84,2.66c0.34,1.83,0.86,2.62,2.05,3.9c1.7,1.84,1.64,4.4,2.44,6.65
		c1.08,3.06,3.66,3.79,5.57,6.07c1.59,1.88,1.08,3.33,0.56,5.5c-0.42,1.78-0.66,4.34-0.17,6.45c4.5,2.7,8.16,7.39,7.43,12.74
		c-0.49,3.63-0.23,6.94,1.11,10.38c0.86,2.24,3.39,4.94,3.12,7.48c-0.19,1.79-1.35,2.78-0.85,4.83c0.28,1.14,1.12,2.1,1.35,3.29
		c0.26,1.31-0.01,2.4-0.27,3.68c-0.36,1.73-0.26,3.14-0.08,4.88C144.02,154.45,144.16,155.64,144.03,156.74z"/>
	<path class="st2" d="M72.94,152.89c-0.07-1.12-0.01-2.57-0.58-3.58c0.06-1.05-0.23-2.02-0.81-3.03c-0.32-0.56-0.88-1.03-1.19-1.58
		c-0.85-1.51-0.88-2.97-0.61-4.66c0.62-3.83,0.02-6.63-2.87-9.32c-1.04-0.96-1.97-1.51-2.22-2.82c0.34-0.66,0.47-1.44,0.3-2.17
		c0.15-0.33,0.31-0.66,0.36-0.93c0.29-1.49-0.06-3.02-0.69-4.37c-1.29-2.71-4.68-6.08-7.68-7.07c-0.8-3.8-2.55-7.54-6.46-8.66
		c-1.54,0.15-2.77-0.56-3.67-2.13c-0.09-0.59-0.17-1.19-0.25-1.79c-0.18-0.94-0.42-1.9-0.89-2.74c-0.83-1.48-2.06-2.41-3.69-2.83
		c-0.82-0.21-1.67-0.2-2.51-0.31c-2.04-0.28-2.98-1.54-4.4-2.82c-1.62-1.46-3.52-2.63-5.61-3.28c-2.62-0.81-5.7-0.28-8.15-1.59
		c-1.81-0.97-2.36-2.94-4.32-3.71c-0.05-0.02-0.1-0.02-0.14-0.04c-0.7-0.9-2.35-1.19-3.38-1.1c-1.81,0.17-3.12,0.98-5.05,0.69
		c-1.24-0.18-1.9-0.19-3.04-0.12c-0.94-0.21-1.97-0.16-2.93-0.21c-1.16-0.07-2.34-0.17-3.5-0.07v10.41c0.05,0,0.1,0,0.15-0.01
		c1.78-0.19,3.82-0.62,5.61-0.41c1.56,0.18,2.1,1.27,3.46,1.81c1.8,0.72,4.1-0.47,5.84-1.58c0.71,0.65,0.4,2.55,1.61,2.96
		c1.78,0.61,3.09-2.71,4.63-1.13c0.59,0.61,0.66,1.85,1.31,2.55c0.46,0.5,1.02,0.86,1.68,1.04c1.01,0.28,1.7-0.28,2.62-0.21
		c1.45,0.12,1.74,1.29,2.68,2.08c1.67,1.41,4.21,1.3,6.19,1.97c1.58,0.53,2.89,1.16,3.79,2.63c0.64,1.05,1.05,2.22,1.83,3.19
		c0.6,0.74,1.27,1.21,2.05,1.74c1.65,1.13,1.62,1.5,2.3,3.14c0.89,2.15,2.83,2.34,4.53,3.62c0.21,0.17,0.45,0.24,0.68,0.24
		c0.77,2.35,0.24,5.2,2.2,6.98c1.47,1.35,4.3,1.56,4.88,3.8c0.45,1.76-0.2,2.84,0.83,4.49c0.42,0.66,1.17,1.11,1.53,1.82
		c0.51,0.99,0.48,2.38,0.66,3.46c0.28,1.67,1.02,2.96,1.71,4.48c0.89,1.98,0.03,3.5,0.04,5.47c0.01,1.7,1.5,3.04,1.38,4.69
		c-0.04,0.53,0.15,0.91,0.45,1.16c-0.25,1.13-0.57,2.52-0.55,3.7h10.33C73.39,155.46,73.02,154.06,72.94,152.89z M16.43,92.3
		c0.08,0.07,0.16,0.14,0.26,0.19c0.13,0.06,0.26,0.1,0.39,0.15c-0.15,0.12-0.31,0.23-0.47,0.34C16.57,92.76,16.5,92.52,16.43,92.3z"
		/>
	<path class="st3" d="M144.9,156.74h-2.45c-0.36-1.89-0.63-3.8-0.49-5.73c0.07-0.97,0.26-1.9,0.4-2.85
		c0.31-1.96,0.06-3.12-0.83-4.91c-0.64-1.29-1.33-2.55-1.1-4.06c0.21-1.43,1.75-2.22,1.72-3.61c-0.02-0.95-1.69-2.92-2.13-3.82
		c-0.37-0.75-0.71-1.51-1.02-2.29c-0.83-2.1-1.42-4.3-1.53-6.56c-0.1-1.92,0.32-3.75,0.59-5.64c0.47-3.21-0.26-5.14-2.6-7.14
		c-2.15-1.83-4.56-3.49-4.85-6.53c-0.18-1.84,0.51-3.5,0.86-5.27c0.68-3.46-1.64-4.36-3.82-6.13c-1.26-1.02-2.25-2.23-2.9-3.74
		c-0.69-1.61-0.32-4.26-1.62-5.52c-0.41-0.4-1.32-0.46-1.81-0.93c-0.41-0.39-0.7-0.95-0.91-1.46c-0.43-1.05-0.25-6.4-1.91-5.91
		c-0.5,0.15-0.91-0.02-1.18-0.31c-0.04-0.03-0.08-0.06-0.12-0.09c-3.13-0.88-5.46-2.18-6.08-5.62c-0.26-1.47-0.01-3.53-1.69-4.24
		c-0.69-0.29-1.64-0.12-2.37-0.27c-0.28-0.06-0.55-0.13-0.81-0.21c-0.71-0.23-1.33-0.57-1.84-1.13l-0.01-0.01
		c-0.14-0.16-0.27-0.34-0.39-0.53c-0.69-1.1-0.72-2.49-0.83-3.74c-0.06-0.73,0.04-1.67-0.31-2.34c-0.9-1.76-2.42-1.33-3.89-1.83
		c-1.7-0.56-2.55-1.78-3.74-3.04c-1.47-1.57-3.27-2.76-4.73-4.35c-3.45-3.76-5.59-8.41-11.22-8.94c-1.37-0.13-2.76-0.09-3.78-1.18
		c-1.24-1.34-0.36-3.34-2.35-3.66c-0.54-0.09-1.57,0.32-2.2,0.25c-0.76-0.07-1.48-0.31-2.16-0.65c-1.82-0.9-2.71-2.52-4.16-3.84
		c-1.53-1.42-1.83-0.28-3.63-0.48c-1.35-0.15-2.29-0.91-2.99-2.04c-0.21-0.04-0.41-0.14-0.59-0.32c-1.04-1.02-1.91-2.08-3.22-2.69
		c-1.97-0.91-3.96-0.7-6.03-0.72c-1.81-0.01-3.38-0.36-4.45-1.94c-0.5-0.74-0.59-1.64-1.04-2.38c-1-1.68-2.35-0.59-3.98-0.27
		c-1.91,0.38-3.95,0.41-5.65-0.64c-1.58-0.97-2.54-2.32-4.51-2.6c-1.53-0.21-3.08,0.16-4.59,0.33c-2.81,0.31-5.52,0.07-8.3-0.37
		c-1.94-0.31-3.41-1.51-5.17-1.7c-1.61-0.17-2.89-0.32-4.14-1.13c-1.03,0.77-1.76,1.91-3.21,1.99c-0.5,0.03-0.95-0.18-1.42-0.25
		c-0.84-0.13-1.81-0.09-2.76-0.09v-2.44c1.21,0.04,2.66,0.13,3.68,0.06c1.28-0.09,1.98-1.26,3.16-1.81c0.52-0.25,1.05-0.2,1.48,0.2
		c1.73,1.54,4.07,0.59,5.97,1.67c2.62,1.49,5.97,1.75,9.01,1.58c2.41-0.14,4.85-0.85,7.27-0.41c2.98,0.55,4.53,3.39,7.72,3.33
		c1.84-0.04,4.19-1.75,6-0.86c1.75,0.85,1.23,3.1,2.41,4.25c2.05,1.97,6.62,0.75,9.27,1.72c1.76,0.64,2.97,2.16,4.26,3.44
		c0.08,0.08,0.14,0.16,0.2,0.25c0.29,0.06,0.57,0.23,0.77,0.55c1.05,1.71,2.95-0.25,4.34,0.25c1.29,0.47,2.19,2.19,3.08,3.17
		c0.81,0.89,1.81,2,3.06,2.3c2.26,0.54,1.75-0.58,3.24-0.48c1.01,0.07,1.7,0.33,2.32,1.16c0.36,0.49,0.43,1.01,0.67,1.56
		c0.61,1.43,0.92,2.07,2.48,2.47c1.59,0.4,2.92,0.26,4.48,1.05c3.58,1.82,5.56,5.32,8.12,8.23c1.44,1.64,3.23,2.84,4.74,4.39
		c0.76,0.78,1.32,1.62,2.24,2.23c1.07,0.7,1.94,0.65,3.12,1.01c2.49,0.76,3.31,2.56,3.56,5.02c0.07,0.74,0.05,1.48,0.19,2.21
		c0.38,1.91,1.54,1.7,3.23,2.17c1.12,0.31,2.08,0.4,2.93,1.26c0.86,0.88,1.19,2.14,1.39,3.31c0.25,1.48,0.21,2.82,1.32,3.94
		c0.94,0.96,2.18,1.24,3.44,1.59c0.09,0.02,0.16,0.06,0.23,0.09c0.09,0.02,0.17,0.06,0.26,0.1c3.17-0.47,3.55,3,3.9,5.45
		c-0.17,1.18,0.27,2.17,1.32,3c0.28,0.09,0.56,0.2,0.83,0.31c0.37,0.32,0.81,0.55,1.12,0.98c0.99,1.43,0.55,3.39,1.04,4.97
		c1.26,4.08,6.72,4.78,7.31,9.18c0.26,1.96-0.58,3.76-0.9,5.65c-0.47,2.79,0.97,4.2,2.9,5.8c2.67,2.21,4.78,4.27,4.66,8.02
		c-0.1,3.14-1.15,6.01-0.59,9.2c0.48,2.76,1.67,5.34,3.03,7.76c0.67,1.2,2.04,2.76,1.7,4.28c-0.2,0.88-0.91,1.05-1.25,1.73
		c-0.91,1.81-0.29,2.76,0.53,4.39c0.77,1.53,1.07,2.84,0.85,4.56C144.56,150.7,144.22,153.46,144.9,156.74z"/>
	<path class="st3" d="M64.95,156.74H62.2c0.12-1.59-0.69-3.16-0.3-4.76c0.1-0.4,0.58-0.89,0.52-1.31c-0.07-0.56-1.38-1.83-1.68-2.32
		c-0.48-0.8-0.78-1.44-0.58-2.4c0.1-0.49,0.37-0.75,0.57-1.19c0.77-1.68,0.81-1.77-0.15-3.2c-0.77-1.15-1.5-1.97-1.69-3.41
		c-0.29-2.14,0.02-3.44-1.72-5.18c-0.63-0.63-1.29-1.05-1.52-1.99c-0.53-2.11,1.3-2.89-1.72-4.72c-2.08-1.26-4.07-1.15-4.4-4.13
		c-0.21-1.91,0.95-3.9-1.03-5.24c-0.94-0.64-2.43-0.59-3.49-1.04c-1.18-0.5-2.02-1.21-2.55-2.39c-0.29-0.64-0.25-1.67-0.62-2.22
		c-0.59-0.88-1.72-1.31-2.51-1.92c-0.86-0.65-1.4-1.15-1.87-2.18c-0.31-0.7-0.37-1.67-0.75-2.33c-0.89-1.59-1.99-1.79-3.41-1.91
		c-0.33,0.23-0.77,0.3-1.23,0.03c-1.31-0.75-2.89,0.14-4.26-0.71c-1.01-0.63-1.07-1.47-1.68-2.36c-0.3-0.44-0.36-0.64-0.36-0.72
		c-0.03,0.08-0.2,0.26-0.87,0.39c-0.68,0.12-1.18,0.51-1.91,0.55c-1,0.04-1.81-0.26-2.49-1.01c-0.51-0.56-0.8-2.98-1.16-3.11
		c-0.59-0.23-2.67,2.27-3.68,2.36c-1.92,0.17-2.31-2.13-2.53-3.92c-2.44,1.01-4.56,2.18-7,0.13c-0.74-0.62-0.27-1.53-1.92-1.4
		C3.85,93.14,3,93.8,2.55,93.88c-1.14,0.2-2.4-0.04-3.6-0.22v-2.67c0.47-0.06,0.93-0.13,1.39-0.1c0.83,0.07,1.12,0.3,1.93,0.2
		c1.27-0.15,2.18-1.01,3.52-0.67c1.29,0.32,1.16,1,1.91,1.87c1.72,2.04,4.12-0.14,6.11-0.8c0.59-0.2,1.39,0.23,1.51,0.86
		c0.11,0.59,0.21,2.19,0.51,3.17c1.44-0.93,2.95-2.9,4.72-2.14c2.21,0.94,0.4,4.5,3.4,3.83c1.53-0.34,2.74-1.45,3.93,0.26
		c0.93,1.34,0.55,2.27,2.93,2.73c0.68,0.13,1.14,0.11,1.65,0.24c0.12-0.03,0.26-0.06,0.42-0.04c3.34,0.24,4.95,1.11,6.3,4.14
		c0.68,1.51,1.24,1.81,2.77,3.02c0.53,0.42,0.89,0.5,1.35,1.08c1.24,1.58,0.76,4.01,2.8,4.99c2.4,1.14,5.24,0.78,5.94,3.98
		c0.47,2.1-1.09,4.44,1.37,5.95c1.24,0.76,2.68,0.61,3.86,1.62c1.13,0.97,1.19,1.84,1.23,3.19c0.02,0.91-0.51,1.76,0.15,2.68
		c0.43,0.59,1.37,0.86,1.85,1.48c0.81,1.05,0.82,2.17,0.85,3.42c0.02,1.53,0.05,2.62,0.95,3.86c0.45,0.61,0.92,1.12,1.23,1.83
		c0.5,1.11,0.52,2.04,0.15,3.17c-0.26,0.77-1.01,1.34-0.83,2.29c0.21,1.1,1.72,1.87,1.99,3.05c0.21,0.93-0.17,1.19-0.39,2
		C64.07,153.68,64.98,155.2,64.95,156.74z"/>
	<path class="st4" d="M120.09,156.74h-3.37c-0.17-1.34-0.9-2.66-0.98-4.04c-0.07-1.16,0.29-1.76,0.58-2.82
		c0.59-2.1-0.04-3.12-0.56-5.02c-0.81-2.99-0.31-5.98-0.84-8.99c-0.47-2.65-2.01-4.95-3.09-7.36c-0.91-2.04-1.53-4.09-1.51-6.34
		c0.02-3.11,1.11-5.7-1-8.41c-1.33-1.72-2.74-2.95-3.55-5.04c-0.88-2.28-1.08-4.76-2.06-7c-2.02-4.55-6.18-7.73-8.17-12.31
		c-0.97-2.24-1.26-4.97-3.8-5.99c-1.9-0.75-3.82-0.81-5.39-2.29c-1.33-1.25-1.92-2.98-2.6-4.62c-0.42-1.01-0.8-2.25-1.68-2.98
		c-1.09-0.9-2.74-0.91-4.03-1.36c-3.37-1.18-5.78-4.09-7.28-7.25c-0.49-0.04-0.95-0.32-1.21-0.95c-1.68-3.9-4.83-6.92-9.02-7.95
		c-2.8-0.69-5.98-0.53-7.92-3.04c-1.28-1.65-1.54-3.31-4-3.44c-1.62-0.09-3.21,0.05-4.82-0.33c-4.17-0.97-5.89-4.29-9.37-6.19
		c-2.43-1.33-4.76-1.05-7.23-0.18c-1.56,0.55-3.06,1.23-4.75,0.93c-3.8-0.67-4.49-5.43-8.85-5.32c-1.98,0.05-3.57,1.38-5.51,1.61
		c-1.7,0.18-2.14-0.54-3.58-1.12c-1.51-0.59-3.74-0.24-5.57-0.05v-3.53c1.92-0.23,4.04-0.53,5.79-0.21
		c0.79,0.14,0.91,0.42,1.56,0.67c1.55,0.61,1.89,0.55,3.55-0.07c1.52-0.57,2.95-0.96,4.59-0.86c1.68,0.12,3.34,0.69,4.73,1.64
		c2.29,1.54,2.78,3.89,6.13,3.17c1.76-0.38,3.26-1.25,5.13-1.29c1.87-0.05,3.8,0.38,5.46,1.23c1.85,0.94,3.08,2.4,4.6,3.76
		c2.05,1.83,4.25,2.39,6.96,2.49c3.41,0.13,5.75,0.36,7.46,3.58c1.27,2.41,2.89,2.33,5.39,2.78c1.72,0.31,3.36,0.85,4.91,1.65
		c3.38,1.77,6.02,4.73,7.52,8.22c0.01,0.02,0.01,0.04,0.02,0.06c1.29,1.63,2.34,3.47,3.87,4.89c1.91,1.78,4.09,1.68,6.32,2.74
		c3.51,1.68,3.36,5.2,5.41,7.98c1.3,1.76,3.55,1.64,5.39,2.47c1.34,0.61,2.4,1.58,3.16,2.84c0.88,1.46,1.27,3.16,1.95,4.71
		c0.84,1.94,2.09,3.62,3.38,5.27c2.36,3,4.67,5.89,5.72,9.62c0.58,2.09,0.81,4.39,2.03,6.22c0.94,1.42,2.37,2.45,3.26,3.92
		c2.24,3.7,0.04,7.7,1,11.6c0.94,3.87,3.68,7,4.29,10.99c0.38,2.48-0.02,5.03,0.5,7.48c0.37,1.74,1.24,3.36,1.32,5.17
		c0.05,1.04-0.26,1.78-0.48,2.75c-0.36,1.6-0.21,2.82,0.01,4.38C119.96,155.74,120.06,156.24,120.09,156.74z"/>
	<path class="st4" d="M89.99,149c0.55,2.21,0.37,4.99,0.39,7.74H87c0-0.42-0.01-0.85-0.02-1.27c-0.06-1.32-0.15-2.65-0.31-3.96
		c-0.2-1.61-0.48-1.95-1.34-3.23c-0.8-1.19-1.02-2.41-0.79-3.82c0.28-1.7,2.03-4.04,1.55-5.8c-0.47-1.68-2.87-2.54-4.03-3.71
		c-0.97-0.98-1.63-2.16-1.8-3.55c-0.2-1.66,0.53-3.08,0.64-4.69c0.16-2.22-1.52-2.62-2.32-4.44c-0.76-1.76-0.5-3.66-1.44-5.4
		c-0.83-1.53-2.02-2.83-2.87-4.35c-0.72-1.29-1.25-2.66-1.31-4.14c-0.05-1.1,0.42-2.43-0.36-3.4c-0.45-0.56-1.4-0.91-2.03-1.24
		c-3.23-1.71-5.58-3.88-6.23-7.63c-0.23-1.31-0.23-2.65-1.85-3.12c-0.73-0.21-1.74,0.02-2.5-0.01c-1.53-0.06-2.98-0.3-4.25-1.2
		c-1.51-1.07-2.3-2.73-3.27-4.25c-1.53-2.43-3.37-3.23-6-4.08c-1.59-0.51-2.69-1.29-3.71-2.6c-1.54-1.99-2.69-3.73-5.49-2.93
		c-0.14,0.04-0.28,0.06-0.41,0.07c-2.08,1.35-4.67,0.56-5.79-2.18c-0.47-1.14,0.53-0.74-1.26-1.08c-1.01-0.2-2.05-0.62-3.06-0.86
		c-2.04-0.49-4.14-0.83-5.83-2.18c-1.29-1.02-1.85-1.97-3.72-1.96c-1.3,0.01-2.43,0.62-3.69,0.75c-1.84,0.18-2.65-0.51-3.93-1.69
		c-1.32-1.22-1.31-0.93-2.89-0.46c-1.14,0.33-2.28,0.46-3.46,0.5c-1.43,0.04-2.86-0.09-4.29-0.2v-3.66
		c0.69,0.04,1.38,0.09,2.08,0.12c1.05,0.06,2.16,0.17,3.22,0.03c1.38-0.17,2.54-0.94,3.91-1.07c1.55-0.15,2.62,0.44,3.61,1.55
		c1.16,1.31,1.2,1.14,2.95,0.81c1.02-0.19,1.95-0.36,3-0.31c1.94,0.1,3.2,0.72,4.66,1.89c2.06,1.66,3.85,1.92,6.39,2.61
		c1.57,0.42,4.25,0.89,5.36,2.25c0.5,0.61,0.27,1.28,0.61,1.86c-0.2,0.48-0.06,0.69,0.44,0.62c0.19-0.43,0.55-0.78,1.13-0.95
		c1.96-0.55,3.94-0.48,5.76,0.48c2.32,1.21,3.02,4.12,5.38,5.07c2.14,0.86,4.14,1.21,5.91,2.85c1.74,1.61,2.4,4.28,4.15,5.75
		c1.79,1.49,4.5,0.44,6.6,1.05c1.42,0.41,2.52,1.3,3.14,2.66c0.99,2.19,0.38,4.5,2.21,6.43c1.32,1.4,3.3,1.86,4.83,2.99
		c3.46,2.54,1.46,6.05,3.34,9.34c0.99,1.75,2.36,3.22,3.19,5.07c0.73,1.64,0.48,3.98,1.61,5.35c1.11,1.35,2.1,1.97,2.23,3.89
		c0.12,1.87-1.11,3.88-0.7,5.69c0.44,1.95,2.79,2.74,4.1,4.11c1,1.04,1.64,2.3,1.72,3.76c0.11,1.91-1.03,3.38-1.36,5.17
		C88.04,146.12,89.51,147.09,89.99,149z"/>
	<path class="st5" d="M71.63,78.13c-2.1-2.52-5.45-4.21-8.19-5.95c-0.89-0.56-1.79-1.12-2.69-1.67c0.56,0.39,1.13,0.78,1.68,1.19
		c0.28,0.2,0.56,0.4,0.83,0.61c0.38,0.28,0.76,0.56,1.14,0.84l0.01,0.01c0.01,0.01,0.02,0.01,0.04,0.02
		c0.48,0.36,0.96,0.73,1.43,1.1c0.36,0.28,0.72,0.56,1.08,0.85c0.88,0.7,1.75,1.41,2.62,2.14c0.27,0.23,0.55,0.45,0.81,0.69
		c0.44,0.37,0.88,0.75,1.31,1.13C71.85,78.79,71.85,78.4,71.63,78.13z M12.56,56.36c-0.13-0.01-0.26-0.02-0.39-0.03
		c0.13,0.02,0.25,0.04,0.38,0.06C12.56,56.38,12.56,56.36,12.56,56.36z M71.63,78.13c-2.1-2.52-5.45-4.21-8.19-5.95
		c-0.89-0.56-1.79-1.12-2.69-1.67c0.56,0.39,1.13,0.78,1.68,1.19c0.28,0.2,0.56,0.4,0.83,0.61c0.38,0.28,0.76,0.56,1.14,0.84
		c0,0,0,0,0.01,0c0.01,0.01,0.02,0.02,0.04,0.03c0.48,0.36,0.96,0.73,1.43,1.1c0.36,0.28,0.72,0.56,1.08,0.85
		c0.88,0.7,1.75,1.41,2.62,2.14c0.28,0.22,0.55,0.45,0.81,0.69c0.44,0.37,0.88,0.75,1.31,1.13C71.85,78.79,71.85,78.4,71.63,78.13z
		 M12.56,56.36c-0.13-0.01-0.26-0.02-0.39-0.03c0.13,0.02,0.25,0.04,0.38,0.06C12.56,56.38,12.56,56.36,12.56,56.36z M71.63,78.13
		c-2.1-2.52-5.45-4.21-8.19-5.95c-0.89-0.56-1.79-1.12-2.69-1.67c0.56,0.39,1.13,0.78,1.68,1.19c0.28,0.2,0.56,0.4,0.83,0.61
		c0.38,0.28,0.76,0.56,1.14,0.84c0,0,0,0,0.01,0c0.01,0.01,0.02,0.02,0.04,0.03c0.48,0.36,0.96,0.73,1.43,1.1
		c0.36,0.28,0.72,0.56,1.08,0.85c0.88,0.7,1.75,1.41,2.62,2.14c0.28,0.22,0.55,0.45,0.81,0.69c0.44,0.37,0.88,0.75,1.31,1.13
		C71.85,78.79,71.85,78.4,71.63,78.13z M12.56,56.36c-0.13-0.01-0.26-0.02-0.39-0.03c0.13,0.02,0.25,0.04,0.38,0.06
		C12.56,56.38,12.56,56.36,12.56,56.36z M71.63,78.13c-2.1-2.52-5.45-4.21-8.19-5.95c-0.89-0.56-1.79-1.12-2.69-1.67
		c0.56,0.39,1.13,0.78,1.68,1.19c0.28,0.2,0.56,0.4,0.83,0.61c0.38,0.28,0.76,0.56,1.14,0.84c0,0,0,0,0.01,0
		c0.01,0.01,0.02,0.02,0.04,0.03c0.48,0.36,0.96,0.73,1.43,1.1c0.36,0.28,0.72,0.56,1.08,0.85c0.88,0.7,1.75,1.41,2.62,2.14
		c0.28,0.22,0.55,0.45,0.81,0.69c0.44,0.37,0.88,0.75,1.31,1.13C71.85,78.79,71.85,78.4,71.63,78.13z M12.56,56.36
		c-0.13-0.01-0.26-0.02-0.39-0.03c0.13,0.02,0.25,0.04,0.38,0.06C12.56,56.38,12.56,56.36,12.56,56.36z M71.63,78.13
		c-2.1-2.52-5.45-4.21-8.19-5.95c-0.89-0.56-1.79-1.12-2.69-1.67c0.56,0.39,1.13,0.78,1.68,1.19c0.28,0.2,0.56,0.4,0.83,0.61
		c0.38,0.28,0.76,0.56,1.14,0.84c0,0,0,0,0.01,0c0.01,0.01,0.02,0.02,0.04,0.03c0.48,0.36,0.96,0.73,1.43,1.1
		c0.36,0.28,0.72,0.56,1.08,0.85c0.88,0.7,1.75,1.41,2.62,2.14c0.28,0.22,0.55,0.45,0.81,0.69c0.44,0.37,0.88,0.75,1.31,1.13
		C71.85,78.79,71.85,78.4,71.63,78.13z M12.56,56.36c-0.13-0.01-0.26-0.02-0.39-0.03c0.13,0.02,0.25,0.04,0.38,0.06
		C12.56,56.38,12.56,56.36,12.56,56.36z M71.63,78.13c-2.1-2.52-5.45-4.21-8.19-5.95c-0.89-0.56-1.79-1.12-2.69-1.67
		c0.56,0.39,1.13,0.78,1.68,1.19c0.28,0.2,0.56,0.4,0.83,0.61c0.38,0.28,0.76,0.56,1.14,0.84c0,0,0,0,0.01,0
		c0.01,0.01,0.02,0.02,0.04,0.03c0.48,0.36,0.96,0.73,1.43,1.1c0.36,0.28,0.72,0.56,1.08,0.85c0.88,0.7,1.75,1.41,2.62,2.14
		c0.28,0.22,0.55,0.45,0.81,0.69c0.44,0.37,0.88,0.75,1.31,1.13C71.85,78.79,71.85,78.4,71.63,78.13z M12.56,56.36
		c-0.13-0.01-0.26-0.02-0.39-0.03c0.13,0.02,0.25,0.04,0.38,0.06C12.56,56.38,12.56,56.36,12.56,56.36z M12.56,56.36
		c-0.13-0.01-0.26-0.02-0.39-0.03c0.13,0.02,0.25,0.04,0.38,0.06C12.56,56.38,12.56,56.36,12.56,56.36z M71.63,78.13
		c-2.1-2.52-5.45-4.21-8.19-5.95c-0.89-0.56-1.79-1.12-2.69-1.67c0.56,0.39,1.13,0.78,1.68,1.19c0.28,0.2,0.56,0.4,0.83,0.61
		c0.38,0.28,0.76,0.56,1.14,0.84c0,0,0,0,0.01,0c0.01,0.01,0.02,0.02,0.04,0.03c0.48,0.36,0.96,0.73,1.43,1.1
		c0.36,0.28,0.72,0.56,1.08,0.85c0.88,0.7,1.75,1.41,2.62,2.14c0.28,0.22,0.55,0.45,0.81,0.69c0.44,0.37,0.88,0.75,1.31,1.13
		C71.85,78.79,71.85,78.4,71.63,78.13z M12.56,56.36c-0.13-0.01-0.26-0.02-0.39-0.03c0.13,0.02,0.25,0.04,0.38,0.06
		C12.56,56.38,12.56,56.36,12.56,56.36z M71.63,78.13c-2.1-2.52-5.45-4.21-8.19-5.95c-0.89-0.56-1.79-1.12-2.69-1.67
		c0.56,0.39,1.13,0.78,1.68,1.19c0.28,0.2,0.56,0.4,0.83,0.61c0.38,0.28,0.76,0.56,1.14,0.84c0,0,0,0,0.01,0
		c0.01,0.01,0.02,0.02,0.04,0.03c0.48,0.36,0.96,0.73,1.43,1.1c0.36,0.28,0.72,0.56,1.08,0.85c0.88,0.7,1.75,1.41,2.62,2.14
		c0.28,0.22,0.55,0.45,0.81,0.69c0.44,0.37,0.88,0.75,1.31,1.13C71.85,78.79,71.85,78.4,71.63,78.13z M12.56,56.36
		c-0.13-0.01-0.26-0.02-0.39-0.03c0.13,0.02,0.25,0.04,0.38,0.06C12.56,56.38,12.56,56.36,12.56,56.36z M71.63,78.13
		c-2.1-2.52-5.45-4.21-8.19-5.95c-0.89-0.56-1.79-1.12-2.69-1.67c0.56,0.39,1.13,0.78,1.68,1.19c0.28,0.2,0.56,0.4,0.83,0.61
		c0.38,0.28,0.76,0.56,1.14,0.84c0,0,0,0,0.01,0c0.01,0.01,0.02,0.02,0.04,0.03c0.48,0.36,0.96,0.73,1.43,1.1
		c0.36,0.28,0.72,0.56,1.08,0.85c0.88,0.7,1.75,1.41,2.62,2.14c0.28,0.22,0.55,0.45,0.81,0.69c0.44,0.37,0.88,0.75,1.31,1.13
		C71.85,78.79,71.85,78.4,71.63,78.13z M12.56,56.36c-0.13-0.01-0.26-0.02-0.39-0.03c0.13,0.02,0.25,0.04,0.38,0.06
		C12.56,56.38,12.56,56.36,12.56,56.36z M71.63,78.13c-2.1-2.52-5.45-4.21-8.19-5.95c-0.89-0.56-1.79-1.12-2.69-1.67
		c0.56,0.39,1.13,0.78,1.68,1.19c0.28,0.2,0.56,0.4,0.83,0.61c0.38,0.28,0.76,0.56,1.14,0.84c0,0,0,0,0.01,0
		c0.01,0.01,0.02,0.02,0.04,0.03c0.48,0.36,0.96,0.73,1.43,1.1c0.36,0.28,0.72,0.56,1.08,0.85c0.88,0.7,1.75,1.41,2.62,2.14
		c0.28,0.22,0.55,0.45,0.81,0.69c0.44,0.37,0.88,0.75,1.31,1.13C71.85,78.79,71.85,78.4,71.63,78.13z M12.56,56.36
		c-0.13-0.01-0.26-0.02-0.39-0.03c0.13,0.02,0.25,0.04,0.38,0.06C12.56,56.38,12.56,56.36,12.56,56.36z M71.63,78.13
		c-2.1-2.52-5.45-4.21-8.19-5.95c-0.89-0.56-1.79-1.12-2.69-1.67c0.56,0.39,1.13,0.78,1.68,1.19c0.28,0.2,0.56,0.4,0.83,0.61
		c0.38,0.28,0.76,0.56,1.14,0.84c0,0,0,0,0.01,0c0.01,0.01,0.02,0.02,0.04,0.03c0.48,0.36,0.96,0.73,1.43,1.1
		c0.36,0.28,0.72,0.56,1.08,0.85c0.88,0.7,1.75,1.41,2.62,2.14c0.28,0.22,0.55,0.45,0.81,0.69c0.44,0.37,0.88,0.75,1.31,1.13
		C71.85,78.79,71.85,78.4,71.63,78.13z M12.56,56.36c-0.13-0.01-0.26-0.02-0.39-0.03c0.13,0.02,0.25,0.04,0.38,0.06
		C12.56,56.38,12.56,56.36,12.56,56.36z M71.63,78.13c-2.1-2.52-5.45-4.21-8.19-5.95c-0.89-0.56-1.79-1.12-2.69-1.67
		c0.56,0.39,1.13,0.78,1.68,1.19c0.28,0.2,0.56,0.4,0.83,0.61c0.38,0.28,0.76,0.56,1.14,0.84c0,0,0,0,0.01,0
		c0.01,0.01,0.02,0.02,0.04,0.03c0.48,0.36,0.96,0.73,1.43,1.1c0.36,0.28,0.72,0.56,1.08,0.85c0.88,0.7,1.75,1.41,2.62,2.14
		c0.28,0.22,0.55,0.45,0.81,0.69c0.44,0.37,0.88,0.75,1.31,1.13C71.85,78.79,71.85,78.4,71.63,78.13z M12.56,56.36
		c-0.13-0.01-0.26-0.02-0.39-0.03c0.13,0.02,0.25,0.04,0.38,0.06C12.56,56.38,12.56,56.36,12.56,56.36z M71.63,78.13
		c-2.1-2.52-5.45-4.21-8.19-5.95c-0.89-0.56-1.79-1.12-2.69-1.67c0.56,0.39,1.13,0.78,1.68,1.19c0.28,0.2,0.56,0.4,0.83,0.61
		c0.38,0.28,0.76,0.56,1.14,0.84c0,0,0,0,0.01,0c0.01,0.01,0.02,0.02,0.04,0.03c0.48,0.36,0.96,0.73,1.43,1.1
		c0.36,0.28,0.72,0.56,1.08,0.85c0.88,0.7,1.75,1.41,2.62,2.14c0.28,0.22,0.55,0.45,0.81,0.69c0.44,0.37,0.88,0.75,1.31,1.13
		C71.85,78.79,71.85,78.4,71.63,78.13z M12.56,56.36c-0.13-0.01-0.26-0.02-0.39-0.03c0.13,0.02,0.25,0.04,0.38,0.06
		C12.56,56.38,12.56,56.36,12.56,56.36z M71.63,78.13c-2.1-2.52-5.45-4.21-8.19-5.95c-0.89-0.56-1.79-1.12-2.69-1.67
		c0.56,0.39,1.13,0.78,1.68,1.19c0.28,0.2,0.56,0.4,0.83,0.61c0.38,0.28,0.76,0.56,1.14,0.84c0,0,0,0,0.01,0
		c0.01,0.01,0.02,0.02,0.04,0.03c0.48,0.36,0.96,0.73,1.43,1.1c0.36,0.28,0.72,0.56,1.08,0.85c0.88,0.7,1.75,1.41,2.62,2.14
		c0.28,0.22,0.55,0.45,0.81,0.69c0.44,0.37,0.88,0.75,1.31,1.13C71.85,78.79,71.85,78.4,71.63,78.13z M12.56,56.36
		c-0.13-0.01-0.26-0.02-0.39-0.03c0.13,0.02,0.25,0.04,0.38,0.06C12.56,56.38,12.56,56.36,12.56,56.36z M71.63,78.13
		c-2.1-2.52-5.45-4.21-8.19-5.95c-0.89-0.56-1.79-1.12-2.69-1.67c0.56,0.39,1.13,0.78,1.68,1.19c0.28,0.2,0.56,0.4,0.83,0.61
		c0.38,0.28,0.76,0.56,1.14,0.84c0,0,0,0,0.01,0c0.01,0.01,0.02,0.02,0.04,0.03c0.48,0.36,0.96,0.73,1.43,1.1
		c0.36,0.28,0.72,0.56,1.08,0.85c0.88,0.7,1.75,1.41,2.62,2.14c0.28,0.22,0.55,0.45,0.81,0.69c0.44,0.37,0.88,0.75,1.31,1.13
		C71.85,78.79,71.85,78.4,71.63,78.13z M12.56,56.36c-0.13-0.01-0.26-0.02-0.39-0.03c0.13,0.02,0.25,0.04,0.38,0.06
		C12.56,56.38,12.56,56.36,12.56,56.36z M71.63,78.13c-2.1-2.52-5.45-4.21-8.19-5.95c-0.89-0.56-1.79-1.12-2.69-1.67
		c0.56,0.39,1.13,0.78,1.68,1.19c0.28,0.2,0.56,0.4,0.83,0.61c0.38,0.28,0.76,0.56,1.14,0.84c0,0,0,0,0.01,0
		c0.01,0.01,0.02,0.02,0.04,0.03c0.48,0.36,0.96,0.73,1.43,1.1c0.36,0.28,0.72,0.56,1.08,0.85c0.88,0.7,1.75,1.41,2.62,2.14
		c0.28,0.22,0.55,0.45,0.81,0.69c0.44,0.37,0.88,0.75,1.31,1.13C71.85,78.79,71.85,78.4,71.63,78.13z M12.56,56.36
		c-0.13-0.01-0.26-0.02-0.39-0.03c0.13,0.02,0.25,0.04,0.38,0.06C12.56,56.38,12.56,56.36,12.56,56.36z M71.63,78.13
		c-2.1-2.52-5.45-4.21-8.19-5.95c-0.89-0.56-1.79-1.12-2.69-1.67c0.56,0.39,1.13,0.78,1.68,1.19c0.28,0.2,0.56,0.4,0.83,0.61
		c0.38,0.28,0.76,0.56,1.14,0.84c0,0,0,0,0.01,0c0.01,0.01,0.02,0.02,0.04,0.03c0.48,0.36,0.96,0.73,1.43,1.1
		c0.36,0.28,0.72,0.56,1.08,0.85c0.88,0.7,1.75,1.41,2.62,2.14c0.28,0.22,0.55,0.45,0.81,0.69c0.44,0.37,0.88,0.75,1.31,1.13
		C71.85,78.79,71.85,78.4,71.63,78.13z M12.56,56.36c-0.13-0.01-0.26-0.02-0.39-0.03c0.13,0.02,0.25,0.04,0.38,0.06
		C12.56,56.38,12.56,56.36,12.56,56.36z M71.63,78.13c-2.1-2.52-5.45-4.21-8.19-5.95c-0.89-0.56-1.79-1.12-2.69-1.67
		c0.56,0.39,1.13,0.78,1.68,1.19c0.28,0.2,0.56,0.4,0.83,0.61c0.38,0.28,0.76,0.56,1.14,0.84c0,0,0,0,0.01,0
		c0.01,0.01,0.02,0.02,0.04,0.03c0.48,0.36,0.96,0.73,1.43,1.1c0.36,0.28,0.72,0.56,1.08,0.85c0.88,0.7,1.75,1.41,2.62,2.14
		c0.28,0.22,0.55,0.45,0.81,0.69c0.44,0.37,0.88,0.75,1.31,1.13C71.85,78.79,71.85,78.4,71.63,78.13z M12.56,56.36
		c-0.13-0.01-0.26-0.02-0.39-0.03c0.13,0.02,0.25,0.04,0.38,0.06C12.56,56.38,12.56,56.36,12.56,56.36z M71.63,78.13
		c-2.1-2.52-5.45-4.21-8.19-5.95c-0.89-0.56-1.79-1.12-2.69-1.67c0.56,0.39,1.13,0.78,1.68,1.19c0.28,0.2,0.56,0.4,0.83,0.61
		c0.38,0.28,0.76,0.56,1.14,0.84c0,0,0,0,0.01,0c0.01,0.01,0.02,0.02,0.04,0.03c0.48,0.36,0.96,0.73,1.43,1.1
		c0.36,0.28,0.72,0.56,1.08,0.85c0.88,0.7,1.75,1.41,2.62,2.14c0.28,0.22,0.55,0.45,0.81,0.69c0.44,0.37,0.88,0.75,1.31,1.13
		C71.85,78.79,71.85,78.4,71.63,78.13z M12.56,56.36c-0.13-0.01-0.26-0.02-0.39-0.03c0.13,0.02,0.25,0.04,0.38,0.06
		C12.56,56.38,12.56,56.36,12.56,56.36z M71.63,78.13c-2.1-2.52-5.45-4.21-8.19-5.95c-0.89-0.56-1.79-1.12-2.69-1.67
		c0.56,0.39,1.13,0.78,1.68,1.19c0.28,0.2,0.56,0.4,0.83,0.61c0.38,0.28,0.76,0.56,1.14,0.84c0,0,0,0,0.01,0
		c0.01,0.01,0.02,0.02,0.04,0.03c0.48,0.36,0.96,0.73,1.43,1.1c0.36,0.28,0.72,0.56,1.08,0.85c0.88,0.7,1.75,1.41,2.62,2.14
		c0.28,0.22,0.55,0.45,0.81,0.69c0.44,0.37,0.88,0.75,1.31,1.13C71.85,78.79,71.85,78.4,71.63,78.13z M112.02,150.9
		c-0.19-0.85-0.36-1.69-0.5-2.5h-0.01c-0.04-0.18-0.09-0.35-0.13-0.52c-0.06-0.25-0.36-0.25-0.48-0.08c-0.09-0.5-0.18-1-0.28-1.49
		c-0.07-0.38-0.13-0.75-0.21-1.13v-0.01c-0.1-0.57-0.21-1.13-0.33-1.7v-0.01c0-0.16-0.03-0.3-0.08-0.42
		c-0.12-0.58-0.23-1.15-0.36-1.73c-0.17-0.82-0.36-1.64-0.55-2.46c-0.04-0.17-0.07-0.34-0.12-0.5c-0.14-0.6-0.28-1.21-0.43-1.83
		c0.22,0.78,0.43,1.56,0.63,2.35v0.01c0.2,0.78,0.39,1.57,0.56,2.36c0.28,1.24,0.53,2.49,0.75,3.75c0.07,0.37,0.13,0.74,0.19,1.11
		c0.05,0.32,0.61,0.25,0.56-0.07c-0.06-0.5-0.13-1-0.2-1.49c-0.67-4.83-1.7-9.64-3.07-14.34c0.04-0.06,0.07-0.13,0.06-0.23
		c-0.28-2.49-1.05-4.99-2.08-7.43c-0.27-0.64-0.55-1.27-0.85-1.9c-0.4-0.85-0.82-1.68-1.26-2.51c0.07,0.01,0.14-0.01,0.21-0.03
		c0.61,0.02,1.25-0.37,1.25-1.16c0-0.75-0.56-1.13-1.15-1.16c-0.72-2.98-2.2-5.89-3.52-8.59c-1.72-3.5-3.65-6.91-5.82-10.15
		c-3.29-4.9-7.09-9.42-11.23-13.61c-0.49-0.5-0.99-1-1.5-1.49c-0.28-0.28-0.57-0.55-0.86-0.83c-0.19-0.18-0.38-0.36-0.57-0.53
		c-0.2-0.2-0.39-0.38-0.59-0.56c-0.09-0.08-0.19-0.11-0.29-0.11c-0.29,0.02-0.53,0.39-0.26,0.66l0.24,0.24
		c0.13,0.13,0.27,0.26,0.4,0.4c0.37,0.37,0.74,0.74,1.1,1.12c0.33,0.34,0.65,0.68,0.97,1.02c0.29,0.31,0.58,0.63,0.86,0.95
		c0.11,0.12,0.21,0.23,0.31,0.34c0.47,0.53,0.94,1.06,1.4,1.6c-0.47-0.5-0.94-0.99-1.42-1.48c-0.13-0.13-0.26-0.27-0.39-0.4
		c-0.33-0.33-0.66-0.66-0.98-0.99c-0.3-0.3-0.59-0.61-0.88-0.9c-0.24-0.25-0.48-0.5-0.7-0.74c-0.14-0.15-0.29-0.31-0.43-0.46
		c-0.53-0.56-1.05-1.12-1.59-1.67c-0.18-0.2-0.37-0.39-0.56-0.58c0.17,0.09,0.34,0.2,0.52,0.28c0.07,0.03,0.14,0.06,0.21,0.06
		c0.25,0.02,0.47-0.12,0.56-0.32c0.01,0,0.01,0,0.01,0c0.06-0.14,0.06-0.32-0.02-0.5c-1.24-2.55-3.71-4.42-5.79-6.28
		c-2.37-2.12-4.82-4.14-7.33-6.08c-0.49-0.38-0.99-0.77-1.5-1.16c0.12-0.13,0.21-0.32,0.21-0.56c0-0.89-1.15-1.05-1.54-0.46
		c-2.66-1.98-5.53-3.79-8.77-4.22c-1.06-0.8-2.25-1.51-3.47-2.15c-0.39-0.21-0.77-0.4-1.16-0.59c-0.71-0.36-1.42-0.69-2.11-1.02
		c-1.37-1.04-3.06-1.76-4.74-2.4c-0.35-0.13-0.7-0.26-1.05-0.39c-0.06-0.02-0.12-0.06-0.17-0.08c-2.7-1.25-5.43-2.41-8.2-3.49
		c-0.7-0.28-1.42-0.56-2.16-0.85c-0.02-0.01-0.03-0.02-0.06-0.02c-6.24-2.48-13.33-5.29-19.98-4.48c-0.07-0.11-0.15-0.21-0.26-0.29
		c-1.48-1.08-3.87-0.85-5.62-1c-2.17-0.18-4.33-0.29-6.5-0.36v19.26c1.18,0.28,2.51,0.21,3.7,0.27c1.5,0.09,3.13,0.4,4.58-0.03
		c0.4-0.12,0.62-0.44,0.68-0.78c2.22,0.22,4.44,0.51,6.65,0.84c2.43,0.42,4.83,0.94,7.23,1.53c-0.01,0.03-0.02,0.06-0.02,0.1
		c0,0.77,1.07,0.84,1.27,0.22c2.05,0.53,4.09,1.11,6.12,1.72c0.46,0.14,0.91,0.29,1.37,0.43c0.1,0.98,1.32,1.18,1.89,0.61
		c0.36,0.12,0.72,0.25,1.08,0.37c-0.32,0.16-0.56,0.48-0.56,0.94c0,1.45,2.24,1.45,2.24,0c0-0.15-0.03-0.28-0.07-0.4
		c0.92,0.32,1.83,0.65,2.74,0.99c0.25,0.26,0.62,0.39,0.98,0.37c0.28,0.11,0.56,0.21,0.85,0.32c2.92,1.14,5.77,2.84,8.73,3.96
		c0.93,0.59,1.84,1.2,2.75,1.8c-0.48,0.15-0.89,0.62-0.89,1.13c0,0.8,1,1.53,1.73,0.99c0.24-0.18,0.45-0.33,0.61-0.58
		c0.03-0.04,0.04-0.09,0.06-0.13c2.26,1.62,4.44,3.35,6.53,5.18c0.28,0.24,0.56,0.49,0.84,0.75c0.07,0.06,0.14,0.12,0.21,0.19
		c0.45,0.4,0.91,0.81,1.35,1.24c0.2,0.19,0.4,0.38,0.61,0.57c0.49,0.47,0.98,0.95,1.46,1.43c4.58,4.56,8.71,9.58,12.38,14.86
		c3.44,4.94,6.49,10.13,9.32,15.44c0.86,1.61,1.7,3.23,2.51,4.87c0.33,0.64,0.65,1.29,0.96,1.94c0.2,0.42,0.4,0.83,0.61,1.25
		c0.63,1.31,1.19,2.7,1.85,4.02c0.31,0.62,0.65,1.24,1.04,1.81c0.08,0.13,0.17,0.26,0.26,0.38c0.4,4.87,0.7,9.75,0.97,14.63
		c0.21,3.82,0.6,7.75,0.78,11.62h19.3C113.05,154.96,112.49,153.01,112.02,150.9z M80.97,100.22c-0.56-0.82-1.12-1.63-1.7-2.44
		c0.06-0.01,0.12-0.01,0.18-0.02h0.01c0.42-0.09,0.79-0.37,0.85-0.75c0.02-0.06,0.02-0.12,0.02-0.18c0.36,0.35,0.73,0.69,1.1,1.02
		c0.25,0.36,0.48,0.72,0.72,1.08c0.29,0.42,0.57,0.86,0.85,1.29c0.01,0.01,0.01,0.01,0.01,0.01c0.13,0.2,0.26,0.4,0.39,0.59
		c0.4,0.62,0.79,1.24,1.18,1.87c0.06,0.09,0.11,0.17,0.16,0.25c-0.58,0.07-1.1,0.47-1.16,1.18c-0.61-0.95-1.23-1.89-1.85-2.82
		C81.47,100.95,81.22,100.58,80.97,100.22z M24.39,61.49c0.92,0.26,1.83,0.54,2.74,0.82c-0.96-0.19-1.93-0.38-2.9-0.55
		C24.3,61.68,24.34,61.58,24.39,61.49z M12.46,56.76c0.35,0.06,0.7,0.13,1.05,0.2c0.43,0.09,0.85,0.17,1.27,0.26
		c-0.42-0.08-0.85-0.15-1.27-0.23c-0.35-0.07-0.7-0.13-1.05-0.18c-0.8-0.14-1.59-0.27-2.38-0.39
		C10.87,56.49,11.66,56.62,12.46,56.76z M80.01,88.6c2.24,2.65,4.33,5.43,6.34,8.19c-0.81-1.03-1.63-2.03-2.43-2.99
		c-1.22-1.47-2.48-2.93-3.78-4.36c-0.02-0.06-0.05-0.12-0.09-0.18c-0.06-0.07-0.11-0.15-0.17-0.21c-0.51-0.67-1.05-1.32-1.61-1.96
		c-3.16-3.58-7.12-6.73-10.98-9.63c0.93,0.62,1.87,1.18,2.85,1.62c3.14,2.31,5.94,5.04,8.53,7.98
		C79.13,87.56,79.57,88.07,80.01,88.6z M101.79,141.27c-0.01-0.04-0.02-0.08-0.02-0.12c-0.25-1.18-0.48-2.4-0.72-3.63
		c0.37,1.24,0.73,2.49,1.07,3.75C102.05,141.11,101.84,141.14,101.79,141.27z M103.04,143.58c0.53,2.35,1.05,4.69,1.59,7.04
		c-0.05-0.17-0.09-0.34-0.14-0.51c-0.62-2.3-1.24-4.59-1.86-6.89C102.7,143.45,102.86,143.56,103.04,143.58z M94.37,109.88
		c-0.53-1.38-1.16-2.74-1.89-4.07c0.51,0.81,1.01,1.62,1.5,2.44c0.5,0.84,0.97,1.71,1.44,2.59c0.27,0.77,0.55,1.54,0.85,2.31v0.01
		c0.31,0.81,0.64,1.61,0.97,2.42c-0.78-1.78-1.64-3.51-2.59-5.2c0-0.01-0.01-0.02-0.01-0.02C94.55,110.19,94.46,110.04,94.37,109.88
		z M99.3,120.71c-0.06-0.15-0.11-0.3-0.17-0.45C99.2,120.41,99.25,120.56,99.3,120.71c0.31,0.77,0.6,1.53,0.86,2.3
		c0.83,2.38,1.71,4.8,2.48,7.26h-0.04C101.53,127.08,100.48,123.87,99.3,120.71z M86.94,103.24c-0.89-1.35-1.81-2.68-2.76-3.99
		c0.04,0.04,0.09,0.07,0.13,0.11c0.29,0.23,0.68,0.16,0.89-0.06c0.15-0.16,0.21-0.4,0.05-0.66c-1.69-2.81-3.82-5.45-6.14-7.95
		c0.13,0.02,0.27-0.01,0.4-0.06c1.13,1.37,2.22,2.76,3.3,4.15c1.94,2.52,3.78,5.1,5.47,7.78c0.2,0.32,0.4,0.64,0.6,0.97
		c0.13,0.21,0.26,0.43,0.39,0.66v0.01c1.67,2.85,3.05,5.86,4.82,8.65c1.61,3.12,3.18,6.27,4.44,9.6c0.89,2.37,1.7,4.77,2.51,7.16
		c-0.1,0.01-0.21,0.04-0.3,0.09c-0.19,0.1-0.32,0.29-0.31,0.56c0.01,0.31,0.02,0.61,0.06,0.93c0,0,0,0,0,0.01
		c0.01,0.16,0.02,0.32,0.04,0.48c-0.51-1.57-1.07-3.12-1.65-4.66c-0.67-3.04-2.33-6.1-3.6-8.83c-1.86-4.01-3.93-7.95-6.25-11.71
		c-0.31-0.51-0.62-1.01-0.95-1.51C87.69,104.37,87.32,103.8,86.94,103.24z M101.92,141.94c0.74,2.85,1.46,5.7,2.2,8.56
		c-0.2-0.15-0.45-0.25-0.7-0.26C103.01,147.46,102.49,144.69,101.92,141.94z M108.47,150.4c0.02,0.2,0.15,0.33,0.31,0.4v0.04
		c-0.09,0.03-0.17,0.08-0.25,0.13c-0.22-1.75-0.47-3.5-0.72-5.24v-0.01c-0.04-0.25-0.07-0.48-0.11-0.73
		c0.04,0.24,0.08,0.48,0.12,0.73C108.06,147.27,108.29,148.84,108.47,150.4z M103.77,128.49c0.04,0.13,0.07,0.28,0.1,0.41
		c0.01,0.01,0.01,0.02,0.01,0.04c0.11,0.43,0.23,0.86,0.34,1.29c0.17,0.62,0.33,1.25,0.5,1.88c-0.07-0.01-0.15-0.01-0.22-0.01
		c-0.26-0.88-0.53-1.76-0.81-2.63c-0.01-0.01-0.01-0.02-0.01-0.03c-0.62-1.9-1.3-3.77-1.97-5.64c-0.28-0.8-0.57-1.58-0.86-2.37
		c0-0.01-0.01-0.02-0.01-0.04c-0.3-0.8-0.59-1.6-0.9-2.4c0.1,0.14,0.19,0.29,0.29,0.43c0.18,0.25,0.46,0.35,0.72,0.33
		c0.42,1.11,0.81,2.21,1.21,3.22c0.61,1.61,1.21,3.22,1.8,4.83C103.79,127.96,103.69,128.2,103.77,128.49z M89.45,97.56
		c0.69,0.99,1.36,1.98,2.02,2.98c0.52,0.8,1.03,1.59,1.53,2.4c0.27,0.44,0.53,0.88,0.78,1.32c-0.8-1.23-1.63-2.44-2.48-3.63
		c-0.82-1.15-1.66-2.29-2.52-3.42C88.95,97.41,89.19,97.52,89.45,97.56z M92.08,95.89c-1.09-1.49-2.21-2.97-3.36-4.41
		c-0.29-0.58-0.63-1.14-1-1.7C89.25,91.76,90.71,93.79,92.08,95.89z M74,78.21c0.06,0.04,0.11,0.07,0.17,0.11
		c0.19,0.13,0.38,0.17,0.56,0.15c0.61,0.63,1.21,1.27,1.8,1.91c0.8,0.85,1.58,1.7,2.36,2.56c-1.61-1.53-3.25-3.03-4.93-4.47
		c-0.44-0.39-1.08,0.2-0.77,0.61c0.01,0,0.01,0.01,0.01,0.01c0.02,0.02,0.04,0.04,0.07,0.07c5.31,4.74,10.08,10,14.28,15.74
		c0.33,0.45,0.66,0.9,0.97,1.35c-0.01,0.08-0.02,0.16-0.02,0.25c0,0.23,0.07,0.42,0.17,0.58c-0.25-0.32-0.49-0.65-0.74-0.97
		c-3.49-4.5-7.24-8.86-11.47-12.68c-0.02-0.02-0.06-0.06-0.08-0.07c-0.03-0.03-0.06-0.06-0.09-0.08c-1.55-1.4-3.16-2.71-4.85-3.93
		c0.11-0.06,0.2-0.17,0.26-0.28c0.16-0.28,0.15-0.68-0.07-0.94c-2.1-2.52-5.45-4.21-8.19-5.95c-0.89-0.56-1.79-1.12-2.69-1.67
		c-0.01-0.01-0.02-0.02-0.04-0.02c-2.35-1.43-4.75-2.81-7.19-4.09c1.61,0.81,3.22,1.63,4.81,2.49c0.01,0,0.01,0.01,0.01,0.01
		c0.25,0.13,0.48,0.26,0.73,0.4c3.84,2.13,7.39,4.58,10.94,7.09c0,0,0.01,0,0.01,0.01c0.86,0.61,1.72,1.22,2.59,1.84
		c0.31,0.22,0.79-0.01,0.88-0.36v-0.02c0.17,0.12,0.33,0.23,0.5,0.34C73.99,78.19,73.99,78.2,74,78.21z M60.99,64.53
		c-0.01,0.02-0.02,0.04-0.02,0.06c-0.85-0.51-1.7-1-2.57-1.47c0-0.04,0.01-0.07,0.01-0.1c0-0.12-0.02-0.21-0.05-0.31
		C59.25,63.24,60.13,63.87,60.99,64.53z M57.14,62.01c-0.15,0.02-0.29,0.08-0.41,0.16c-0.03-0.02-0.06-0.04-0.09-0.05
		c0.01-0.15-0.03-0.31-0.13-0.44C56.72,61.77,56.93,61.9,57.14,62.01z M43.78,59.58c5.85,1.75,11.17,4.65,16.21,8.06
		c0.23,0.15,0.45,0.32,0.67,0.47c-0.18-0.09-0.35-0.19-0.53-0.28c-0.01-0.01-0.02-0.01-0.02-0.01c-0.13-0.08-0.28-0.15-0.42-0.22
		c-5.04-2.63-10.26-4.94-15.46-7.24c-0.46-0.2-0.88,0.06-1.07,0.4c-0.04-0.21-0.15-0.4-0.38-0.51c-0.74-0.34-1.5-0.66-2.28-0.96
		c0.94,0.28,1.89,0.47,2.84,0.48C43.51,59.77,43.67,59.69,43.78,59.58z M33.07,53.04c0.4,0.08,0.69-0.08,0.85-0.33
		c1.81,0.81,3.58,1.68,5.34,2.59c0.35,0.18,0.7,0.37,1.05,0.55c0.43,0.23,0.86,0.45,1.28,0.68c1.23,0.66,2.44,1.38,3.65,2.12
		c-0.44-0.13-0.88-0.27-1.32-0.39c-0.15-0.04-0.28-0.02-0.39,0.02c-0.02,0.01-0.05,0.02-0.07,0.03c-1.92-1.43-4.52-1.97-6.79-2.68
		c-2.19-0.69-4.4-1.3-6.63-1.86c0-0.01,0-0.01,0-0.01c-0.31-0.2-0.64-0.37-0.99-0.53c0.14-0.12,0.25-0.29,0.3-0.47
		c0.06-0.18,0.07-0.37,0.01-0.55C30.59,52.52,31.83,52.8,33.07,53.04z M20.33,49.84c-0.51-0.06-1.02-0.12-1.52-0.17
		c0.03-0.07,0.06-0.15,0.07-0.24C19.36,49.57,19.84,49.71,20.33,49.84z M15.54,46.36c-0.64-0.02-1.29-0.04-1.94-0.06
		c-0.1-0.01-0.2-0.02-0.3-0.04c-0.53-0.06-1.05-0.12-1.58-0.18h-0.01c-0.53-0.06-1.07-0.12-1.6-0.18c0.24-0.01,0.48-0.03,0.72-0.07
		c0.32-0.04,0.51-0.22,0.62-0.45C12.83,45.57,14.19,45.94,15.54,46.36z M6.05,49c-0.59-0.09-1.19-0.15-1.8-0.2
		c0.22-0.36,0.28-0.8,0.1-1.14c1.65,0.49,3.3,0.94,4.96,1.36C8.22,49.01,7.14,49,6.05,49z M8.85,52.76
		c-0.29-0.01-0.57-0.02-0.86-0.02H7.99c-0.39-0.01-0.78-0.02-1.17-0.02c0.17-0.4,0.17-0.88-0.07-1.23c0.23-0.13,0.39-0.36,0.48-0.61
		c0.14,0.03,0.28,0.07,0.42,0.1c0.08,0.18,0.24,0.32,0.48,0.36c0.61,0.08,1.22,0.16,1.83,0.25c1.23,0.37,2.49,0.58,3.84,0.64
		c1.19,0.23,2.38,0.45,3.58,0.67c0.06,0.01,0.13,0.02,0.19,0.04c-0.2,0.16-0.35,0.4-0.39,0.71C14.42,53.17,11.64,52.86,8.85,52.76z
		 M19.53,53.82c0-0.2-0.04-0.37-0.11-0.51c1.27,0.26,2.53,0.53,3.79,0.82c0.25,0.06,0.53,0.1,0.85,0.16c0.93,0.23,1.87,0.46,2.8,0.7
		c2.92,0.77,5.83,1.62,8.71,2.53c0.88,0.28,1.78,0.64,2.68,0.99c-2.58-0.82-5.27-1.46-7.95-2.06c-1.85-0.41-3.68-0.8-5.47-1.2
		c-0.5-0.11-1-0.23-1.49-0.34c-1.27-0.31-2.55-0.58-3.82-0.83C19.52,53.99,19.53,53.9,19.53,53.82z M9.78,55.01
		c-0.01,0.22,0.12,0.47,0.4,0.5c0.96,0.1,1.91,0.23,2.85,0.37h0.02c0.38,0.1,0.75,0.2,1.13,0.29c0.01,0,0.01,0,0.01,0
		c0.17,0.05,0.34,0.1,0.51,0.14c0.12,0.04,0.25,0.07,0.38,0.1c0.94,0.25,1.89,0.48,2.83,0.71c-0.89-0.11-1.79-0.28-2.65-0.43
		c-0.15-0.02-0.3-0.04-0.45-0.07c-0.35-0.06-0.69-0.1-1.02-0.15c-0.03-0.01-0.07-0.01-0.1-0.01c-0.37-0.04-0.75-0.08-1.13-0.1h-0.01
		c-0.13-0.01-0.26-0.02-0.39-0.03c-0.01-0.01-0.01-0.01-0.01,0c-1.29-0.09-2.6-0.12-3.89-0.2c-0.47-0.06-0.93-0.12-1.4-0.18
		c0.06-0.07,0.11-0.15,0.15-0.23c0.25-0.47,0.21-1.09-0.2-1.46C7.82,54.5,8.8,54.75,9.78,55.01z M41.43,64.94
		c-0.1-0.04-0.2-0.08-0.3-0.12c-0.14-0.07-0.29-0.15-0.43-0.22c-0.09-0.05-0.17-0.05-0.24-0.02c-0.94-0.34-1.89-0.67-2.84-1
		c-0.52-0.18-1.04-0.36-1.56-0.53h-0.01c-0.37-0.12-0.74-0.25-1.12-0.36c-0.17-0.06-0.34-0.1-0.5-0.15c0.13-0.17,0.2-0.39,0.2-0.62
		c-0.01-0.31-0.16-0.62-0.45-0.78c-0.06-0.02-0.12-0.05-0.17-0.07c-0.99-0.29-1.99-0.56-3-0.81c-1.9-0.48-3.83-0.89-5.78-1.23
		c0,0,0,0-0.01,0c-0.35-0.07-0.69-0.13-1.05-0.19c-1.19-0.21-2.4-0.39-3.61-0.56c-0.91-0.13-1.83-0.25-2.75-0.36
		c-0.07-0.07-0.15-0.12-0.25-0.17c0.8,0.14,1.59,0.26,2.39,0.34h0.01c1,0.1,2,0.15,2.99,0.08c0.25-0.02,0.43-0.12,0.55-0.26
		c0.12,0.03,0.23,0.06,0.35,0.09c0.64,0.15,1.28,0.32,1.92,0.48c1.82,0.48,3.63,0.99,5.43,1.54c0.1,0.03,0.21,0.07,0.32,0.1
		c0.04,0.01,0.08,0.02,0.12,0.04h0.01c3.12,0.96,6.21,2,9.25,3.18c2.31,0.9,4.6,2.09,6.95,3.01c0.25,0.1,0.49,0.19,0.74,0.28
		c0.47,0.29,0.94,0.58,1.41,0.88c1.45,0.91,2.89,1.85,4.31,2.82c0.01,0,0.01,0.01,0.02,0.01c1.52,1.03,3.02,2.1,4.5,3.19
		c-1-0.65-2-1.28-3.03-1.89c-0.13-0.09-0.28-0.17-0.41-0.25c-0.01-0.01-0.01,0-0.01,0c-1.89-1.12-3.81-2.17-5.78-3.16
		c-0.21-0.12-0.43-0.22-0.66-0.33c-0.1-0.05-0.19-0.05-0.27-0.02c-0.4-0.21-0.83-0.4-1.25-0.59c-1.15-0.51-2.35-0.94-3.5-1.4
		c-0.81-0.32-1.64-0.64-2.46-0.94C41.46,64.95,41.44,64.94,41.43,64.94z M46.21,69.37c0.5,0.2,0.99,0.4,1.49,0.57
		c-0.04,0.06-0.08,0.13-0.11,0.2C47.13,69.87,46.67,69.62,46.21,69.37z M51,70.2c0.06-0.09,0.1-0.18,0.12-0.28
		c2.22,1.28,4.34,2.7,6.41,4.21c-0.05,0-0.09,0.01-0.14,0.01C55.29,72.77,53.16,71.45,51,70.2z M82.88,106.03
		c-0.39-0.63-0.78-1.26-1.18-1.88c-0.05-0.07-0.1-0.15-0.15-0.23c-1.53-2.36-3.14-4.67-4.82-6.94c-0.42-0.56-0.83-1.11-1.25-1.67
		c-0.28-0.37-0.55-0.73-0.83-1.09c0.43,0.39,0.85,0.77,1.29,1.15c0,0,0,0,0.01,0.01c0.25,0.22,0.5,0.43,0.75,0.65
		c0,0.01,0.01,0.02,0.01,0.03c0,0,0.01,0.01,0.01,0.01c1.78,2.63,3.47,5.32,5.1,8.06c0.37,0.62,0.73,1.24,1.09,1.87
		c0.2,0.34,0.4,0.69,0.59,1.04C83.3,106.7,83.1,106.37,82.88,106.03z M92.6,118.76c-0.58-1.8-1.29-3.55-2.18-5.24
		c-0.29-0.55-1.08-0.06-0.82,0.48c0.38,0.81,0.71,1.64,1,2.48c-1.64-3.23-3.39-6.4-5.27-9.51c-0.3-0.5-0.61-0.99-0.91-1.48
		c0.55,0.19,1.22,0.05,1.59-0.41c0.45,0.77,0.91,1.55,1.35,2.33c1.92,3.39,3.74,6.84,5.4,10.37c0.16,0.34,0.31,0.69,0.46,1.04
		C93.05,118.66,92.79,118.66,92.6,118.76z M93.58,132.04c0.05,0.15,0.11,0.29,0.2,0.41c0.09,0.74,0.18,1.48,0.26,2.22
		C93.89,133.8,93.74,132.92,93.58,132.04z M97.68,133.56c-0.12-0.53-0.24-1.05-0.37-1.57c-0.02-0.07-0.06-0.13-0.09-0.19
		c-1.12-4.14-2.4-8.24-3.72-12.31c1.13,2.78,2.08,5.79,3.58,8.34c-0.07,0.1-0.12,0.21-0.1,0.36c0.33,3.69,1.57,7.36,2.5,11
		c-0.11,0.01-0.21,0.05-0.3,0.1c-0.39-1.48-0.78-2.94-1.12-4.34C97.93,134.48,97.8,134.02,97.68,133.56z M95.05,141.73
		c-0.05-0.39-0.09-0.77-0.13-1.16c-0.01-0.12-0.02-0.23-0.04-0.35c0.02,0.12,0.05,0.24,0.08,0.36c0.09,0.41,0.18,0.81,0.29,1.21
		C95.18,141.77,95.11,141.75,95.05,141.73z M95.59,146.58c-0.09-0.88-0.19-1.76-0.28-2.62c-0.01-0.02-0.01-0.05-0.01-0.07
		c0.18-0.09,0.34-0.22,0.45-0.4c0.05,0.15,0.1,0.29,0.15,0.44c0.23,0.61,1.03,0.48,1.1-0.15c0.02-0.25,0.04-0.51,0.06-0.77
		c0.29,0.85,0.59,1.69,0.95,2.5c0.07,0.36,0.15,0.7,0.23,1.05c0.08,1.15,0.14,2.31,0.18,3.47c-0.09-0.02-0.19-0.05-0.29-0.06
		c-0.01-0.2-0.02-0.39-0.03-0.59c0-0.06,0-0.1-0.01-0.15c-0.04-0.7-0.07-1.4-0.1-2.1C97.92,145.75,96.04,145.56,95.59,146.58z
		 M71.63,78.13c-2.1-2.52-5.45-4.21-8.19-5.95c-0.89-0.56-1.79-1.12-2.69-1.67c0.56,0.39,1.13,0.78,1.68,1.19
		c0.28,0.2,0.56,0.4,0.83,0.61c0.38,0.28,0.76,0.56,1.14,0.84c0,0,0,0,0.01,0c0.01,0.01,0.02,0.02,0.04,0.03
		c0.48,0.36,0.96,0.73,1.43,1.1c0.36,0.28,0.72,0.56,1.08,0.85c0.88,0.7,1.75,1.41,2.62,2.14c0.28,0.22,0.55,0.45,0.81,0.69
		c0.44,0.37,0.88,0.75,1.31,1.13C71.85,78.79,71.85,78.4,71.63,78.13z M12.56,56.36c-0.13-0.01-0.26-0.02-0.39-0.03
		c0.13,0.02,0.25,0.04,0.38,0.06C12.56,56.38,12.56,56.36,12.56,56.36z M71.63,78.13c-2.1-2.52-5.45-4.21-8.19-5.95
		c-0.89-0.56-1.79-1.12-2.69-1.67c0.56,0.39,1.13,0.78,1.68,1.19c0.28,0.2,0.56,0.4,0.83,0.61c0.38,0.28,0.76,0.56,1.14,0.84
		c0,0,0,0,0.01,0c0.01,0.01,0.02,0.02,0.04,0.03c0.48,0.36,0.96,0.73,1.43,1.1c0.36,0.28,0.72,0.56,1.08,0.85
		c0.88,0.7,1.75,1.41,2.62,2.14c0.28,0.22,0.55,0.45,0.81,0.69c0.44,0.37,0.88,0.75,1.31,1.13C71.85,78.79,71.85,78.4,71.63,78.13z
		 M12.56,56.36c-0.13-0.01-0.26-0.02-0.39-0.03c0.13,0.02,0.25,0.04,0.38,0.06C12.56,56.38,12.56,56.36,12.56,56.36z M71.63,78.13
		c-2.1-2.52-5.45-4.21-8.19-5.95c-0.89-0.56-1.79-1.12-2.69-1.67c0.56,0.39,1.13,0.78,1.68,1.19c0.28,0.2,0.56,0.4,0.83,0.61
		c0.38,0.28,0.76,0.56,1.14,0.84c0,0,0,0,0.01,0c0.01,0.01,0.02,0.02,0.04,0.03c0.48,0.36,0.96,0.73,1.43,1.1
		c0.36,0.28,0.72,0.56,1.08,0.85c0.88,0.7,1.75,1.41,2.62,2.14c0.28,0.22,0.55,0.45,0.81,0.69c0.44,0.37,0.88,0.75,1.31,1.13
		C71.85,78.79,71.85,78.4,71.63,78.13z M12.56,56.36c-0.13-0.01-0.26-0.02-0.39-0.03c0.13,0.02,0.25,0.04,0.38,0.06
		C12.56,56.38,12.56,56.36,12.56,56.36z M71.63,78.13c-2.1-2.52-5.45-4.21-8.19-5.95c-0.89-0.56-1.79-1.12-2.69-1.67
		c0.56,0.39,1.13,0.78,1.68,1.19c0.28,0.2,0.56,0.4,0.83,0.61c0.38,0.28,0.76,0.56,1.14,0.84c0,0,0,0,0.01,0
		c0.01,0.01,0.02,0.02,0.04,0.03c0.48,0.36,0.96,0.73,1.43,1.1c0.36,0.28,0.72,0.56,1.08,0.85c0.88,0.7,1.75,1.41,2.62,2.14
		c0.28,0.22,0.55,0.45,0.81,0.69c0.44,0.37,0.88,0.75,1.31,1.13C71.85,78.79,71.85,78.4,71.63,78.13z M12.56,56.36
		c-0.13-0.01-0.26-0.02-0.39-0.03c0.13,0.02,0.25,0.04,0.38,0.06C12.56,56.38,12.56,56.36,12.56,56.36z M71.63,78.13
		c-2.1-2.52-5.45-4.21-8.19-5.95c-0.89-0.56-1.79-1.12-2.69-1.67c0.56,0.39,1.13,0.78,1.68,1.19c0.28,0.2,0.56,0.4,0.83,0.61
		c0.38,0.28,0.76,0.56,1.14,0.84c0,0,0,0,0.01,0c0.01,0.01,0.02,0.02,0.04,0.03c0.48,0.36,0.96,0.73,1.43,1.1
		c0.36,0.28,0.72,0.56,1.08,0.85c0.88,0.7,1.75,1.41,2.62,2.14c0.28,0.22,0.55,0.45,0.81,0.69c0.44,0.37,0.88,0.75,1.31,1.13
		C71.85,78.79,71.85,78.4,71.63,78.13z M12.56,56.36c-0.13-0.01-0.26-0.02-0.39-0.03c0.13,0.02,0.25,0.04,0.38,0.06
		C12.56,56.38,12.56,56.36,12.56,56.36z M71.63,78.13c-2.1-2.52-5.45-4.21-8.19-5.95c-0.89-0.56-1.79-1.12-2.69-1.67
		c0.56,0.39,1.13,0.78,1.68,1.19c0.28,0.2,0.56,0.4,0.83,0.61c0.38,0.28,0.76,0.56,1.14,0.84c0,0,0,0,0.01,0
		c0.01,0.01,0.02,0.02,0.04,0.03c0.48,0.36,0.96,0.73,1.43,1.1c0.36,0.28,0.72,0.56,1.08,0.85c0.88,0.7,1.75,1.41,2.62,2.14
		c0.28,0.22,0.55,0.45,0.81,0.69c0.44,0.37,0.88,0.75,1.31,1.13C71.85,78.79,71.85,78.4,71.63,78.13z M12.56,56.36
		c-0.13-0.01-0.26-0.02-0.39-0.03c0.13,0.02,0.25,0.04,0.38,0.06C12.56,56.38,12.56,56.36,12.56,56.36z M71.63,78.13
		c-2.1-2.52-5.45-4.21-8.19-5.95c-0.89-0.56-1.79-1.12-2.69-1.67c0.56,0.39,1.13,0.78,1.68,1.19c0.28,0.2,0.56,0.4,0.83,0.61
		c0.38,0.28,0.76,0.56,1.14,0.84c0,0,0,0,0.01,0c0.01,0.01,0.02,0.02,0.04,0.03c0.48,0.36,0.96,0.73,1.43,1.1
		c0.36,0.28,0.72,0.56,1.08,0.85c0.88,0.7,1.75,1.41,2.62,2.14c0.28,0.22,0.55,0.45,0.81,0.69c0.44,0.37,0.88,0.75,1.31,1.13
		C71.85,78.79,71.85,78.4,71.63,78.13z M12.56,56.36c-0.13-0.01-0.26-0.02-0.39-0.03c0.13,0.02,0.25,0.04,0.38,0.06
		C12.56,56.38,12.56,56.36,12.56,56.36z M71.63,78.13c-2.1-2.52-5.45-4.21-8.19-5.95c-0.89-0.56-1.79-1.12-2.69-1.67
		c0.56,0.39,1.13,0.78,1.68,1.19c0.28,0.2,0.56,0.4,0.83,0.61c0.38,0.28,0.76,0.56,1.14,0.84c0,0,0,0,0.01,0
		c0.01,0.01,0.02,0.02,0.04,0.03c0.48,0.36,0.96,0.73,1.43,1.1c0.36,0.28,0.72,0.56,1.08,0.85c0.88,0.7,1.75,1.41,2.62,2.14
		c0.28,0.22,0.55,0.45,0.81,0.69c0.44,0.37,0.88,0.75,1.31,1.13C71.85,78.79,71.85,78.4,71.63,78.13z M12.56,56.36
		c-0.13-0.01-0.26-0.02-0.39-0.03c0.13,0.02,0.25,0.04,0.38,0.06C12.56,56.38,12.56,56.36,12.56,56.36z M71.63,78.13
		c-2.1-2.52-5.45-4.21-8.19-5.95c-0.89-0.56-1.79-1.12-2.69-1.67c0.56,0.39,1.13,0.78,1.68,1.19c0.28,0.2,0.56,0.4,0.83,0.61
		c0.38,0.28,0.76,0.56,1.14,0.84c0,0,0,0,0.01,0c0.01,0.01,0.02,0.02,0.04,0.03c0.48,0.36,0.96,0.73,1.43,1.1
		c0.36,0.28,0.72,0.56,1.08,0.85c0.88,0.7,1.75,1.41,2.62,2.14c0.28,0.22,0.55,0.45,0.81,0.69c0.44,0.37,0.88,0.75,1.31,1.13
		C71.85,78.79,71.85,78.4,71.63,78.13z M12.56,56.36c-0.13-0.01-0.26-0.02-0.39-0.03c0.13,0.02,0.25,0.04,0.38,0.06
		C12.56,56.38,12.56,56.36,12.56,56.36z M71.63,78.13c-2.1-2.52-5.45-4.21-8.19-5.95c-0.89-0.56-1.79-1.12-2.69-1.67
		c0.56,0.39,1.13,0.78,1.68,1.19c0.28,0.2,0.56,0.4,0.83,0.61c0.38,0.28,0.76,0.56,1.14,0.84c0,0,0,0,0.01,0
		c0.01,0.01,0.02,0.02,0.04,0.03c0.48,0.36,0.96,0.73,1.43,1.1c0.36,0.28,0.72,0.56,1.08,0.85c0.88,0.7,1.75,1.41,2.62,2.14
		c0.28,0.22,0.55,0.45,0.81,0.69c0.44,0.37,0.88,0.75,1.31,1.13C71.85,78.79,71.85,78.4,71.63,78.13z M12.56,56.36
		c-0.13-0.01-0.26-0.02-0.39-0.03c0.13,0.02,0.25,0.04,0.38,0.06C12.56,56.38,12.56,56.36,12.56,56.36z M71.63,78.13
		c-2.1-2.52-5.45-4.21-8.19-5.95c-0.89-0.56-1.79-1.12-2.69-1.67c0.56,0.39,1.13,0.78,1.68,1.19c0.28,0.2,0.56,0.4,0.83,0.61
		c0.38,0.28,0.76,0.56,1.14,0.84c0,0,0,0,0.01,0c0.01,0.01,0.02,0.02,0.04,0.03c0.48,0.36,0.96,0.73,1.43,1.1
		c0.36,0.28,0.72,0.56,1.08,0.85c0.88,0.7,1.75,1.41,2.62,2.14c0.28,0.22,0.55,0.45,0.81,0.69c0.44,0.37,0.88,0.75,1.31,1.13
		C71.85,78.79,71.85,78.4,71.63,78.13z M12.56,56.36c-0.13-0.01-0.26-0.02-0.39-0.03c0.13,0.02,0.25,0.04,0.38,0.06
		C12.56,56.38,12.56,56.36,12.56,56.36z M71.63,78.13c-2.1-2.52-5.45-4.21-8.19-5.95c-0.89-0.56-1.79-1.12-2.69-1.67
		c0.56,0.39,1.13,0.78,1.68,1.19c0.28,0.2,0.56,0.4,0.83,0.61c0.38,0.28,0.76,0.56,1.14,0.84c0,0,0,0,0.01,0
		c0.01,0.01,0.02,0.02,0.04,0.03c0.48,0.36,0.96,0.73,1.43,1.1c0.36,0.28,0.72,0.56,1.08,0.85c0.88,0.7,1.75,1.41,2.62,2.14
		c0.28,0.22,0.55,0.45,0.81,0.69c0.44,0.37,0.88,0.75,1.31,1.13C71.85,78.79,71.85,78.4,71.63,78.13z M12.56,56.36
		c-0.13-0.01-0.26-0.02-0.39-0.03c0.13,0.02,0.25,0.04,0.38,0.06C12.56,56.38,12.56,56.36,12.56,56.36z M71.63,78.13
		c-2.1-2.52-5.45-4.21-8.19-5.95c-0.89-0.56-1.79-1.12-2.69-1.67c0.56,0.39,1.13,0.78,1.68,1.19c0.28,0.2,0.56,0.4,0.83,0.61
		c0.38,0.28,0.76,0.56,1.14,0.84c0,0,0,0,0.01,0c0.01,0.01,0.02,0.02,0.04,0.03c0.48,0.36,0.96,0.73,1.43,1.1
		c0.36,0.28,0.72,0.56,1.08,0.85c0.88,0.7,1.75,1.41,2.62,2.14c0.28,0.22,0.55,0.45,0.81,0.69c0.44,0.37,0.88,0.75,1.31,1.13
		C71.85,78.79,71.85,78.4,71.63,78.13z M12.56,56.36c-0.13-0.01-0.26-0.02-0.39-0.03c0.13,0.02,0.25,0.04,0.38,0.06
		C12.56,56.38,12.56,56.36,12.56,56.36z M71.63,78.13c-2.1-2.52-5.45-4.21-8.19-5.95c-0.89-0.56-1.79-1.12-2.69-1.67
		c0.56,0.39,1.13,0.78,1.68,1.19c0.28,0.2,0.56,0.4,0.83,0.61c0.38,0.28,0.76,0.56,1.14,0.84c0,0,0,0,0.01,0
		c0.01,0.01,0.02,0.02,0.04,0.03c0.48,0.36,0.96,0.73,1.43,1.1c0.36,0.28,0.72,0.56,1.08,0.85c0.88,0.7,1.75,1.41,2.62,2.14
		c0.28,0.22,0.55,0.45,0.81,0.69c0.44,0.37,0.88,0.75,1.31,1.13C71.85,78.79,71.85,78.4,71.63,78.13z M12.56,56.36
		c-0.13-0.01-0.26-0.02-0.39-0.03c0.13,0.02,0.25,0.04,0.38,0.06C12.56,56.38,12.56,56.36,12.56,56.36z M12.56,56.36
		c-0.13-0.01-0.26-0.02-0.39-0.03c0.13,0.02,0.25,0.04,0.38,0.06C12.56,56.38,12.56,56.36,12.56,56.36z M71.63,78.13
		c-2.1-2.52-5.45-4.21-8.19-5.95c-0.89-0.56-1.79-1.12-2.69-1.67c0.56,0.39,1.13,0.78,1.68,1.19c0.28,0.2,0.56,0.4,0.83,0.61
		c0.38,0.28,0.76,0.56,1.14,0.84c0,0,0,0,0.01,0c0.01,0.01,0.02,0.02,0.04,0.03c0.48,0.36,0.96,0.73,1.43,1.1
		c0.36,0.28,0.72,0.56,1.08,0.85c0.88,0.7,1.75,1.41,2.62,2.14c0.28,0.22,0.55,0.45,0.81,0.69c0.44,0.37,0.88,0.75,1.31,1.13
		C71.85,78.79,71.85,78.4,71.63,78.13z M12.56,56.36c-0.13-0.01-0.26-0.02-0.39-0.03c0.13,0.02,0.25,0.04,0.38,0.06
		C12.56,56.38,12.56,56.36,12.56,56.36z M71.63,78.13c-2.1-2.52-5.45-4.21-8.19-5.95c-0.89-0.56-1.79-1.12-2.69-1.67
		c0.56,0.39,1.13,0.78,1.68,1.19c0.28,0.2,0.56,0.4,0.83,0.61c0.38,0.28,0.76,0.56,1.14,0.84c0,0,0,0,0.01,0
		c0.01,0.01,0.02,0.02,0.04,0.03c0.48,0.36,0.96,0.73,1.43,1.1c0.36,0.28,0.72,0.56,1.08,0.85c0.88,0.7,1.75,1.41,2.62,2.14
		c0.28,0.22,0.55,0.45,0.81,0.69c0.44,0.37,0.88,0.75,1.31,1.13C71.85,78.79,71.85,78.4,71.63,78.13z M12.56,56.36
		c-0.13-0.01-0.26-0.02-0.39-0.03c0.13,0.02,0.25,0.04,0.38,0.06C12.56,56.38,12.56,56.36,12.56,56.36z M71.63,78.13
		c-2.1-2.52-5.45-4.21-8.19-5.95c-0.89-0.56-1.79-1.12-2.69-1.67c0.56,0.39,1.13,0.78,1.68,1.19c0.28,0.2,0.56,0.4,0.83,0.61
		c0.38,0.28,0.76,0.56,1.14,0.84c0,0,0,0,0.01,0c0.01,0.01,0.02,0.02,0.04,0.03c0.48,0.36,0.96,0.73,1.43,1.1
		c0.36,0.28,0.72,0.56,1.08,0.85c0.88,0.7,1.75,1.41,2.62,2.14c0.28,0.22,0.55,0.45,0.81,0.69c0.44,0.37,0.88,0.75,1.31,1.13
		C71.85,78.79,71.85,78.4,71.63,78.13z M12.56,56.36c-0.13-0.01-0.26-0.02-0.39-0.03c0.13,0.02,0.25,0.04,0.38,0.06
		C12.56,56.38,12.56,56.36,12.56,56.36z M71.63,78.13c-2.1-2.52-5.45-4.21-8.19-5.95c-0.89-0.56-1.79-1.12-2.69-1.67
		c0.56,0.39,1.13,0.78,1.68,1.19c0.28,0.2,0.56,0.4,0.83,0.61c0.38,0.28,0.76,0.56,1.14,0.84c0,0,0,0,0.01,0
		c0.01,0.01,0.02,0.02,0.04,0.03c0.48,0.36,0.96,0.73,1.43,1.1c0.36,0.28,0.72,0.56,1.08,0.85c0.88,0.7,1.75,1.41,2.62,2.14
		c0.28,0.22,0.55,0.45,0.81,0.69c0.44,0.37,0.88,0.75,1.31,1.13C71.85,78.79,71.85,78.4,71.63,78.13z M12.56,56.36
		c-0.13-0.01-0.26-0.02-0.39-0.03c0.13,0.02,0.25,0.04,0.38,0.06C12.56,56.38,12.56,56.36,12.56,56.36z M71.63,78.13
		c-2.1-2.52-5.45-4.21-8.19-5.95c-0.89-0.56-1.79-1.12-2.69-1.67c0.56,0.39,1.13,0.78,1.68,1.19c0.28,0.2,0.56,0.4,0.83,0.61
		c0.38,0.28,0.76,0.56,1.14,0.84l0.01,0.01c0.01,0.01,0.02,0.01,0.04,0.02c0.48,0.36,0.96,0.73,1.43,1.1
		c0.36,0.28,0.72,0.56,1.08,0.85c0.88,0.7,1.75,1.41,2.62,2.14c0.27,0.23,0.55,0.45,0.81,0.69c0.44,0.37,0.88,0.75,1.31,1.13
		C71.85,78.79,71.85,78.4,71.63,78.13z"/>
	<path class="st1" d="M43.35,57.9c-11.13-5.42-24.04-7.77-36.29-8.82c-0.72-0.06-0.71,1.05,0,1.12c12.47,1.31,24.05,4.82,35.99,8.39
		C43.46,58.72,43.74,58.09,43.35,57.9z"/>
	<path class="st1" d="M77.13,84.09C68.1,75.3,57.81,67.55,46.36,62.2c0-0.1-0.05-0.19-0.16-0.24c-1.07-0.44-2.15-0.85-3.23-1.25
		c-0.48-0.2-0.95-0.4-1.43-0.59c-0.07-0.03-0.13-0.02-0.18,0c-5.32-1.91-10.77-3.52-16.11-5.31c-0.44-0.15-0.63,0.55-0.19,0.69
		c6.41,2.16,12.82,4.62,19.34,6.47c4.63,2.15,8.99,4.71,13.18,7.53c-10.25-6-21.96-9.78-33.44-12.55c-0.37-0.09-0.52,0.47-0.16,0.57
		c11.95,3.05,23,7.85,34.26,12.78c0.14,0.06,0.27-0.05,0.27-0.16c6.36,4.37,12.34,9.3,18.33,14.25
		C77.04,84.55,77.33,84.28,77.13,84.09z"/>
	<path class="st1" d="M99.45,120.34c-1.79-5.64-5.39-11.06-8.68-15.93c-3.4-5.03-7.28-9.69-11.43-14.12c-0.12-0.13-0.28-0.1-0.37,0
		c-1.37-1.37-2.75-2.69-4.09-3.99c-3.08-2.97-6.32-5.76-9.67-8.42c1.46,0.87,2.91,1.75,4.37,2.64c0.28,0.17,0.49-0.24,0.25-0.42
		c-3.95-2.96-8.15-5.64-12.5-8.11c0,0-0.01-0.01-0.01-0.01c0,0-0.01,0-0.01-0.01c-8.32-4.72-17.2-8.61-25.99-11.95
		c-0.31-0.12-0.44,0.38-0.14,0.5c10.89,4.22,20.9,9.61,30.83,15.46c4.4,3.54,8.58,7.33,12.6,11.32c4.86,4.83,8.93,10.35,13.59,15.33
		c0.63,0.92,1.26,1.85,1.88,2.79c3.21,4.9,5.59,10.28,8.75,15.18C99.03,120.91,99.57,120.72,99.45,120.34z"/>
	<path class="st1" d="M84.75,88.54c-7.09-8.09-16.05-14.79-24.87-20.88c-0.37-0.25-0.71,0.34-0.35,0.6
		c8.87,6.26,16.7,13.54,24.93,20.57C84.67,88.99,84.93,88.74,84.75,88.54z"/>
	<path class="st1" d="M84.65,102.37c-5.37-7.3-12.35-13.72-18.98-19.86c-0.36-0.33-0.9,0.2-0.54,0.54
		c6.72,6.24,12.62,13.19,19.13,19.62C84.45,102.87,84.82,102.61,84.65,102.37z"/>
	<path class="st1" d="M102.13,119.6c-1.57-6.97-6.26-13.15-10.27-18.91c-0.26-0.38-0.88-0.02-0.62,0.36
		c4.13,6.04,7.53,12.03,10.43,18.74C101.78,120.07,102.19,119.87,102.13,119.6z"/>
	<path class="st1" d="M104.29,130.06c-2.34-6.55-5.34-12.89-8.22-19.22c-0.11-0.24-0.47-0.03-0.36,0.21
		c2.83,6.35,5.35,12.84,8.29,19.13C104.08,130.34,104.35,130.23,104.29,130.06z"/>
	<path class="st1" d="M107.89,145.56c-0.62-5.7-2.53-11.17-4.91-16.35c-0.15-0.33-0.63-0.04-0.48,0.28
		c2.31,5.22,3.69,10.58,4.98,16.13C107.53,145.84,107.91,145.8,107.89,145.56z"/>
	<path class="st1" d="M104.62,147.85c0.3-6.44-2.1-13.41-4.35-19.35c-0.14-0.38-0.76-0.22-0.62,0.17c2.25,6.33,2.9,12.79,4.55,19.24
		C104.26,148.15,104.61,148.09,104.62,147.85z"/>
	<path class="st1" d="M101.51,147.25c-0.16-7.73-2.31-15.61-4.7-22.91c-0.12-0.37-0.7-0.21-0.58,0.16
		c2.36,7.53,3.38,15.09,4.72,22.82C101,147.64,101.51,147.57,101.51,147.25z"/>
	<path class="st1" d="M27.28,61.02c-7.14-3.64-15.19-5.11-23.14-5.5c-0.52-0.03-0.51,0.77,0,0.8c7.97,0.56,15.41,2.65,22.97,5.11
		C27.35,61.51,27.51,61.14,27.28,61.02z"/>
	<path class="st1" d="M30.93,63.41c-6.83-3.16-14.57-4.3-22.03-4.76c-0.67-0.04-0.67,1,0,1.05c7.52,0.52,14.55,2.41,21.82,4.2
		C31,63.97,31.21,63.55,30.93,63.41z"/>
	<path class="st4" d="M8.45,46.76c0.23-0.17,0.46-0.32,0.6-0.57c0.14-0.24,0.14-0.47,0.17-0.73c0.04-0.45-0.35-0.86-0.75-0.99
		c-0.46-0.14-0.84-0.07-1.26,0.18c-0.55,0.33-0.8,1.11-0.44,1.67C7.1,46.83,7.89,47.16,8.45,46.76z"/>
	<path class="st4" d="M11.7,46.83c0.01-0.05,0.02-0.1,0.03-0.14c0.09-0.39-0.57-0.4-0.47,0c0.01,0.05,0.02,0.1,0.03,0.14
		C11.35,47.02,11.66,47.02,11.7,46.83z"/>
	<path class="st4" d="M9.2,52.13c0-0.98-1.52-0.98-1.52,0C7.68,53.11,9.2,53.11,9.2,52.13z"/>
	<path class="st4" d="M5.35,55.18L5.25,55c-0.3-0.57-1.11,0.23-0.53,0.53l0.19,0.1C5.2,55.78,5.5,55.47,5.35,55.18z"/>
	<path class="st4" d="M8.32,59.33c0-0.04-0.06-0.04-0.06,0C8.26,59.37,8.32,59.37,8.32,59.33z"/>
	<path class="st4" d="M15.33,57.03c0-1.17-1.82-1.18-1.82,0C13.5,58.21,15.33,58.21,15.33,57.03z"/>
	<path class="st4" d="M18.12,50.6c0-0.04-0.06-0.04-0.06,0C18.06,50.64,18.12,50.64,18.12,50.6z"/>
	<path class="st4" d="M20.49,56.57c0-1.32-2.05-1.32-2.05,0C18.44,57.89,20.49,57.9,20.49,56.57z"/>
	<circle class="st4" cx="21.77" cy="60.25" r="0.9"/>
	<path class="st4" d="M25.8,58.38c0.04-0.23,0.09-0.47,0.13-0.7c0.1-0.57-0.43-1-0.96-0.74c-0.21,0.1-0.42,0.21-0.63,0.31
		c-0.64,0.32-0.62,1.24-0.1,1.65C24.75,59.29,25.67,59.08,25.8,58.38z"/>
	<path class="st4" d="M28.27,50.75c0-1.28-1.98-1.28-1.98,0C26.29,52.03,28.27,52.03,28.27,50.75z"/>
	<path class="st4" d="M31.02,49.15c0.1-0.02,0.19-0.05,0.29-0.07c0.16-0.04,0.16-0.29,0-0.33c-0.1-0.02-0.19-0.05-0.29-0.07
		C30.63,48.59,30.62,49.25,31.02,49.15z"/>
	<path class="st4" d="M37.57,53.36c0-0.04-0.06-0.04-0.06,0C37.51,53.4,37.57,53.4,37.57,53.36z"/>
	<path class="st4" d="M38.95,58.56c0-0.04-0.06-0.04-0.06,0C38.89,58.6,38.95,58.6,38.95,58.56z"/>
	<path class="st4" d="M37.67,63.92c0-1.35-2.1-1.35-2.1,0C35.57,65.27,37.67,65.28,37.67,63.92z"/>
	<path class="st4" d="M39.41,65.61c0-0.04-0.06-0.04-0.06,0C39.35,65.65,39.41,65.65,39.41,65.61z"/>
	<path class="st4" d="M40.74,55.19c0-0.96-1.49-0.96-1.49,0C39.24,56.16,40.74,56.16,40.74,55.19z"/>
	<path class="st4" d="M42.96,53.82c0-1.06-1.65-1.06-1.65,0C41.31,54.88,42.96,54.88,42.96,53.82z"/>
	<path class="st4" d="M51.07,58.1c0-0.59-0.52-1.15-1.12-1.12c-0.61,0.03-1.12,0.49-1.12,1.12c0,0.59,0.52,1.15,1.12,1.12
		C50.55,59.2,51.07,58.73,51.07,58.1z"/>
	<path class="st4" d="M51.94,62.55c0-0.2-0.32-0.2-0.32,0C51.63,62.75,51.94,62.75,51.94,62.55z"/>
	<path class="st4" d="M50.01,67.29c0-1.66-2.58-1.67-2.58,0C47.43,68.96,50.01,68.96,50.01,67.29z"/>
	<path class="st4" d="M53.33,72.2c0-1.2-1.87-1.2-1.87,0C51.46,73.4,53.33,73.4,53.33,72.2z"/>
	<path class="st4" d="M55.67,72.1l0.1-0.19c0.17-0.32-0.17-0.66-0.49-0.49l-0.19,0.1C54.47,71.85,55.34,72.73,55.67,72.1z"/>
	<path class="st4" d="M60.67,66.53c0-0.79-1.23-0.8-1.23,0C59.44,67.32,60.67,67.32,60.67,66.53z"/>
	<path class="st4" d="M64.95,69.74c0-1.17-1.82-1.18-1.82,0C63.13,70.92,64.95,70.92,64.95,69.74z"/>
	<path class="st4" d="M66.21,74.19c0-0.04-0.06-0.04-0.06,0C66.15,74.23,66.21,74.23,66.21,74.19z"/>
	<path class="st4" d="M69.43,77.71c0-0.63-0.98-0.63-0.98,0C68.45,78.34,69.43,78.34,69.43,77.71z"/>
	<path class="st4" d="M80.73,80.16c0-1.58-2.46-1.58-2.46,0C78.28,81.74,80.73,81.74,80.73,80.16z"/>
	<path class="st4" d="M83.43,84.45c0-1.5-2.33-1.5-2.33,0C81.1,85.94,83.43,85.95,83.43,84.45z"/>
	<path class="st4" d="M80.02,88.43c0-1.84-2.86-1.84-2.86,0C77.16,90.27,80.02,90.27,80.02,88.43z"/>
	<path class="st4" d="M75.52,91.03c0-0.56-0.49-1.1-1.07-1.07c-0.58,0.03-1.07,0.47-1.07,1.07c0,0.56,0.49,1.1,1.07,1.07
		C75.03,92.08,75.52,91.63,75.52,91.03z"/>
	<path class="st4" d="M64.94,84.6c0-1.76-2.73-1.76-2.73,0C62.21,86.36,64.94,86.36,64.94,84.6z"/>
	<path class="st4" d="M61.61,83.84c0-1.8-2.8-1.8-2.8,0C58.81,85.64,61.61,85.64,61.61,83.84z"/>
	<path class="st4" d="M76.8,96.55c0-1.64-2.56-1.65-2.56,0C74.25,98.19,76.8,98.19,76.8,96.55z"/>
	<path class="st4" d="M78.88,100.99c0-1.37-2.13-1.37-2.13,0C76.76,102.36,78.88,102.36,78.88,100.99z"/>
	<path class="st4" d="M83.15,105.28c0-1.53-2.38-1.54-2.38,0C80.77,106.81,83.15,106.81,83.15,105.28z"/>
	<path class="st4" d="M89.33,103.75c0-1.6-2.48-1.6-2.48,0C86.84,105.34,89.33,105.35,89.33,103.75z"/>
	<path class="st4" d="M95.46,100.68c0-0.62-0.96-0.62-0.96,0C94.49,101.3,95.46,101.3,95.46,100.68z"/>
	<path class="st4" d="M99.1,108.19c0-1.16-1.81-1.17-1.81,0C97.29,109.35,99.1,109.35,99.1,108.19z"/>
	<path class="st4" d="M104.2,114.16c0-0.04-0.06-0.04-0.06,0C104.13,114.2,104.2,114.2,104.2,114.16z"/>
	<path class="st4" d="M106.82,121.87c0.07-0.08,0.15-0.16,0.22-0.24c0.27-0.28,0.22-0.76-0.12-0.96c-0.31-0.18-0.83-0.03-0.9,0.36
		c-0.02,0.11-0.04,0.22-0.06,0.33C105.89,121.84,106.44,122.27,106.82,121.87z"/>
	<path class="st4" d="M105.65,125.19c0-0.53-0.82-0.53-0.82,0C104.83,125.72,105.65,125.72,105.65,125.19z"/>
	<path class="st4" d="M109.25,129.43c-0.03-0.06-0.06-0.13-0.08-0.19c-0.12-0.28-0.55-0.3-0.74-0.1c-0.2,0.2-0.19,0.62,0.1,0.74
		c0.06,0.03,0.13,0.06,0.19,0.08C109.09,130.13,109.42,129.8,109.25,129.43z"/>
	<path class="st4" d="M110.8,133.77c0-1.05-1.64-1.05-1.64,0C109.17,134.82,110.8,134.82,110.8,133.77z"/>
	<path class="st4" d="M110.2,140.2c0-1.85-2.87-1.85-2.87,0C107.32,142.05,110.2,142.05,110.2,140.2z"/>
	<path class="st4" d="M112.67,145.56c0-1.49-2.31-1.49-2.31,0C110.36,147.05,112.67,147.05,112.67,145.56z"/>
	<path class="st4" d="M112.85,149.69c0-1.72-2.67-1.72-2.67,0C110.18,151.41,112.85,151.42,112.85,149.69z"/>
	<path class="st4" d="M111.51,153.52c0-1.37-2.13-1.37-2.13,0C109.38,154.89,111.51,154.89,111.51,153.52z"/>
	<path class="st4" d="M112.98,155.51c0-1.49-2.31-1.49-2.31,0C110.67,157,112.98,157,112.98,155.51z"/>
	<path class="st4" d="M96.64,150.46c0-0.18-0.03-0.33-0.08-0.47c0.35-0.19,0.6-0.54,0.6-1.06c0-1.63-2.53-1.63-2.53,0
		c0,0.13,0.02,0.24,0.05,0.35c-0.43,0.19-0.75,0.58-0.75,1.18C93.92,152.21,96.64,152.21,96.64,150.46z"/>
	<path class="st4" d="M96.33,139.43c0-1.54-2.4-1.55-2.4,0C93.93,140.98,96.33,140.98,96.33,139.43z"/>
	<path class="st4" d="M91.59,134.07c0-1.55-2.41-1.55-2.41,0C89.17,135.62,91.59,135.63,91.59,134.07z"/>
	<path class="st4" d="M93.37,129.02c0-1.48-2.3-1.48-2.3,0C91.07,130.5,93.37,130.5,93.37,129.02z"/>
	<path class="st4" d="M89.35,122.13c0-1.43-2.23-1.43-2.23,0C87.12,123.56,89.35,123.56,89.35,122.13z"/>
	<path class="st4" d="M83.97,114.01c0-1.41-2.2-1.42-2.2,0C81.78,115.42,83.97,115.42,83.97,114.01z"/>
	<path class="st4" d="M83.91,110.94c0-0.74-1.15-0.74-1.15,0C82.76,111.68,83.91,111.68,83.91,110.94z"/>
	<path class="st5" d="M13.49,46.87c0-1.37-2.13-1.37-2.13,0C11.36,48.24,13.49,48.24,13.49,46.87z"/>
	<path class="st5" d="M19.98,51.57c0-0.79-1.23-0.8-1.23,0C18.75,52.36,19.98,52.37,19.98,51.57z"/>
	<path class="st5" d="M14.84,56.88c0-1.53-2.38-1.54-2.38,0C12.46,58.41,14.84,58.42,14.84,56.88z"/>
	<path class="st5" d="M18.69,61.58c0-1.5-2.33-1.5-2.33,0C16.36,63.07,18.69,63.08,18.69,61.58z"/>
	<path class="st5" d="M81.59,80.36c0-1.24-1.92-1.24-1.92,0C79.67,81.6,81.59,81.6,81.59,80.36z"/>
	<path class="st5" d="M83.62,83.22c0-1.75-2.71-1.75-2.71,0C80.91,84.97,83.62,84.97,83.62,83.22z"/>
	<path class="st5" d="M93.83,91.39c0-1.48-2.3-1.48-2.3,0C91.53,92.87,93.83,92.87,93.83,91.39z"/>
	<path class="st5" d="M83.56,100.17c0-1.66-2.58-1.67-2.58,0C80.97,101.84,83.56,101.84,83.56,100.17z"/>
	<path class="st5" d="M98.25,107.32c0-1.65-2.57-1.66-2.57,0C95.68,108.97,98.25,108.98,98.25,107.32z"/>
	<path class="st5" d="M101.12,111.4c0-1.67-2.6-1.68-2.6,0C98.53,113.08,101.12,113.08,101.12,111.4z"/>
	<path class="st5" d="M106.18,121.82c0-1.61-2.5-1.61-2.5,0C103.68,123.43,106.18,123.43,106.18,121.82z"/>
	<path class="st5" d="M94.49,127.74c0-1.28-2-1.29-2,0C92.5,129.03,94.49,129.03,94.49,127.74z"/>
	<path class="st5" d="M101.78,143.06c0-1.47-2.28-1.47-2.28,0C99.5,144.53,101.78,144.53,101.78,143.06z"/>
	<path class="st5" d="M107.22,140.2c0-1.63-2.53-1.63-2.53,0C104.69,141.82,107.22,141.83,107.22,140.2z"/>
	<path class="st5" d="M114.65,148.16c0-1.74-2.7-1.74-2.7,0C111.95,149.9,114.65,149.9,114.65,148.16z"/>
	<path class="st5" d="M111.41,150.2c0-1.51-2.34-1.51-2.34,0C109.07,151.71,111.41,151.71,111.41,150.2z"/>
	<path class="st5" d="M98.1,149.39c0-1.72-2.67-1.72-2.67,0C95.43,151.11,98.1,151.11,98.1,149.39z"/>
	<circle class="st5" cx="59.37" cy="82.62" r="0.9"/>
	<path class="st5" d="M59.76,86.08c0-1-1.55-1-1.55,0C58.21,87.08,59.76,87.08,59.76,86.08z"/>
	<path class="st5" d="M60.89,60.56c0-0.88-1.36-0.88-1.36,0C59.53,61.43,60.89,61.43,60.89,60.56z"/>
	<path class="st5" d="M56.91,58.72c0-1.01-1.57-1.01-1.57,0C55.34,59.72,56.91,59.73,56.91,58.72z"/>
	<path class="st5" d="M50.52,56.68c0-0.41-0.63-0.41-0.63,0C49.89,57.08,50.52,57.08,50.52,56.68z"/>
	<path class="st5" d="M39,53.41c0-1.35-2.1-1.35-2.1,0C36.9,54.76,39,54.76,39,53.41z"/>
</g>
</svg>
