<?xml version="1.0" encoding="utf-8"?>
<!-- Generator: Adobe Illustrator 25.2.3, SVG Export Plug-In . SVG Version: 6.00 Build 0)  -->
<svg version="1.1" id="Layer_1" xmlns="http://www.w3.org/2000/svg" xmlns:xlink="http://www.w3.org/1999/xlink" x="0px" y="0px"
	 viewBox="0 0 156 156" style="enable-background:new 0 0 156 156;" xml:space="preserve">
<style type="text/css">
	.st0{fill:#997D4B;}
	.st1{fill:#4096C6;}
	.st2{fill:#7C643A;}
	.st3{fill:#466008;}
	.st4{fill:#79B8D3;}
	.st5{fill:#2B7D9E;}
</style>
<g>
	<path class="st0" d="M156.74,15.76v71.3c-1.23,0.06-2.46,0.13-3.69,0.2c-1.48,0.45-2.94,1.13-4.28,1.64
		c-2.68,1.02-5.4,1.87-8.17,2.61c-5.45,1.45-11.02,2.57-16.24,4.76c-8.6,3.61-16.25,9.52-22.08,16.77
		c-5.78,7.2-9.15,15.7-11.55,24.54c-1.26,4.66-2.09,9.45-3.45,14.07c-0.61,2.05-1.56,3.92-2.89,5.4h-66.1
		c-1.07-11.47-0.09-22.7,2.91-33.88c2.98-11.08,6.8-22,12.57-31.96c5.53-9.53,11.44-18.95,18.96-27.06c3.2-3.44,6.6-6.67,10.12-9.78
		c-0.32-0.87-0.37-1.85-0.09-2.79l0.01-0.01c0.2-0.65,0.57-1.28,1.13-1.84c0.15-0.16,0.32-0.31,0.51-0.45
		c6.75-5.2,14.99-9.01,22.62-12.74c7.45-3.63,15.05-6.94,22.69-10.16c8.06-3.39,16.19-6.73,24.75-8.64
		C141.78,16.13,149.26,15.52,156.74,15.76z"/>
	<path class="st1" d="M156.74,38.08v29.8c-2.76,0.17-5.49,0.13-8.26-0.18c-0.66,0.57-1.55,0.92-2.68,0.89
		c-1.94-0.05-4.16-0.25-6.02,0.47c-1.38,0.53-2.41,1.64-3.66,2.39c-3.31,1.96-7.38,2.17-11.09,2.72c-1.57,0.23-3.37,0.29-4.8,1.01
		c-1.45,0.72-2.55,2.04-3.99,2.82c-2.73,1.49-5.8,1.86-8.77,2.57c-3.58,0.87-4.89,3.02-7.17,5.68c-1.11,1.29-2.42,2.36-3.88,3.21
		c-1.17,0.68-2.71,1.08-3.73,1.97c-1.99,1.74-1.61,5.63-3.06,7.9c-1.14,1.77-2.79,2.87-4.65,3.43c-0.84,2.22-2.25,4.28-3.53,6.22
		c-0.93,1.39-6.21,6.94-5.2,8.41c1.5,2.19-0.08,5.27-2.46,5.89c-0.22,0.47-0.45,0.93-0.69,1.38c-0.8,1.44-1.73,2.7-2.3,4.18
		c0.17,0.62,0.15,1.32-0.1,2.05c-0.74,2.11-1.49,4.21-2.22,6.33c-0.67,1.94-0.48,2.67-0.29,4.63c0.18,2.02-0.58,3.87-0.89,5.84
		c-0.37,2.29-0.34,4.69,0.02,6.97c0.15,0.91,0,1.72-0.34,2.4h-29.5c-0.07-0.56-0.06-1.13,0.05-1.67c-0.13-1.58,0.16-3.16,0.83-4.63
		c-1.91-3.12-1.97-7.46-0.96-10.86c0.74-2.5,2.73-4.66,3.17-7.21c0.47-2.64-0.53-5.35,0.01-8.05c0.5-2.52,1.92-4.53,3.2-6.71
		c1.38-2.37,2.33-4.91,3.33-7.46c1.89-4.82,3.99-9.55,7.98-13.02c0.18-0.16,0.37-0.3,0.56-0.42c-0.29-3.89,1.36-7.83,4.53-10.44
		c2.37-1.95,4.97-2.93,6.79-5.54c1.7-2.44,2.7-5.29,4.58-7.62c1.65-2.06,3.87-3.3,5.92-4.89c2.03-1.56,2.87-3.88,4.36-5.9
		c3.24-4.4,8.64-5.76,13.26-8.26c4.59-2.49,9.13-5.43,14.27-6.68c0.81-0.75,1.64-1.49,2.54-2.08c2.06-1.35,4.37-1.07,6.71-1.44
		c2.54-0.4,4.79-1.38,7.13-2.38c2.44-1.04,4.85-1.32,7.47-1.58c2.68-0.27,5.13-1.49,7.82-1.65c2.4-0.15,4.67,0.44,7.09,0.12
		C151.12,38.28,153.93,37.98,156.74,38.08z"/>
	<path class="st2" d="M156.74,11.97v10.15c-0.44,0.06-0.88,0.75-1.32,0.78c-0.43,0.02-0.89-0.04-1.34-0.12
		c-0.34,0.09-0.73,0.07-1.12-0.1c-2.57-1.16-6.5-1.74-9.31-1.92c-2.79-0.18-4.82,1.36-7.4,2.05c-2.12,0.56-4.22,0.57-6.38,0.36
		c-2.68-0.26-4.56,0.66-6.82,1.48c-0.1,0.26-0.26,0.48-0.49,0.64c-1.53,1.05-3.21,2.32-4.93,3.05c-1.74,0.74-3.4,0.57-5.23,0.58
		c-5.4,0.02-7.68,4.36-12.05,6.59c-1.77,0.9-3.3,0.97-5.23,1.07c-1.58,0.07-2.86,0-4.14,1.22c-0.69,0.66-1.05,1.54-1.64,2.28
		c-1.75,2.16-4.88,2.74-7.67,2.92c-0.15,0.43-0.47,0.78-0.97,0.88c-3.99,0.82-4.52,5.32-7.95,7.07c-1.84,0.94-3.94,0.3-5.3,2.13
		c-1.04,1.39-1.53,3.06-2.84,4.26c-1.24,1.14-2.84,1.47-4.28,2.24c-2.16,1.15-2.51,3.67-3.54,5.7c-0.83,1.64-1.96,3.7-3.66,4.39
		c-0.04,0.6-0.38,1.19-1.08,1.46c-1.7,0.65-3.43,0.83-4.56,2.4c-0.88,1.22-0.95,2.57-1.29,3.98c-0.5,2.02-1.33,2.71-3.01,3.77
		c-3.36,2.11-3.42,6.06-4.79,9.41c-0.48,1.18-0.97,2.12-1.94,2.73c0.26,0.4,0.3,0.93-0.07,1.45c-1.34,1.87-3.47,3.23-4.58,5.23
		c-1.27,2.28-0.53,5.55-1.37,8.09c-0.76,2.31-2.03,3.67-3.62,5.42c-2.03,2.25-2.82,4.96-3.15,7.87c0.15,0.12,0.29,0.3,0.4,0.53
		c1.06,2.13,0.67,3.57,0,5.78c-0.85,2.81-1.45,5.68-2.01,8.56c-0.6,3.07-1,5.71-0.31,8.8c0.38,1.71,0.64,3.34,0.34,5
		c0.94,1.02,0.44,2.62,0.4,3.91c-0.03,0.98,0.09,2.03-0.01,3.03H12.11c-0.01-0.06-0.01-0.12-0.01-0.18c-0.09-0.54,0-1.12,0.2-1.75
		c0.02-0.34,0.04-0.69,0.06-1.03c-2.61-4.73-0.94-8.65,0.84-13.75c1.29-3.71,0.96-7.08,0.39-10.91c-0.31-2.03-0.3-3.67,1.13-5.25
		c0.15-0.17,0.32-0.29,0.49-0.37c0.06-0.27,0.12-0.54,0.18-0.79c0.72-2.85,0.28-5.61,1.51-7.98c-0.37-1.26,0.01-2.35,1.02-3.35
		c1.41-1.38,2.5-0.85,2.91-3.39c0.16-0.96-0.11-2.04,0.01-3.03c0.21-1.89,0.93-3.67,2.08-5.18c0.57-0.75,1.32-1.29,1.91-2
		c1-1.21,1.07-2.31,1.24-3.77c0.2-1.82,1.13-2.81,2.38-4.04c2.17-2.13,2.35-3.7,2.93-6.57c0.5-2.42,2-3.7,4.01-3.61
		c0.79-1.62,1.39-2.97,1.73-4.95c0.28-1.6,0.59-3.03,1.61-4.33c2.43-3.1,6.22-5.53,9.21-8.07c1.64-1.39,3.23-2.72,4.37-4.57
		c0.87-1.42,1.21-3.14,2.08-4.52c1.6-2.52,5.07-1.91,7.36-3.28c0.17-0.12,0.34-0.24,0.51-0.36c0.07-0.06,0.15-0.11,0.21-0.18
		c0.01-1.84,0.91-4.03,2.4-5.16c0.94-0.72,1.93-0.71,3-0.96c0.25-0.18,0.52-0.26,0.8-0.26c1.35-0.59,2.56-1.87,3.38-3.09
		c1.15-1.72,1.16-3.97,2.99-5.21c0.81-0.56,1.7-0.66,2.66-0.84c1.83-0.34,2.62-0.86,3.9-2.05c1.84-1.7,4.4-1.64,6.65-2.44
		c3.06-1.08,3.79-3.66,6.07-5.57c1.88-1.59,3.33-1.08,5.5-0.56c1.78,0.42,4.34,0.66,6.45,0.17c2.7-4.5,7.39-8.16,12.74-7.43
		c3.63,0.49,6.94,0.23,10.38-1.11c2.24-0.86,4.94-3.39,7.48-3.12c1.79,0.19,2.78,1.35,4.83,0.85c1.14-0.28,2.1-1.12,3.29-1.35
		c1.31-0.26,2.4,0.01,3.68,0.27c1.73,0.36,3.14,0.26,4.88,0.08C154.45,11.98,155.64,11.84,156.74,11.97z"/>
	<path class="st2" d="M152.89,83.06c-1.12,0.07-2.57,0.01-3.58,0.58c-1.05-0.06-2.02,0.23-3.03,0.81c-0.56,0.32-1.03,0.88-1.58,1.19
		c-1.51,0.85-2.97,0.88-4.66,0.61c-3.83-0.62-6.63-0.02-9.32,2.87c-0.96,1.04-1.51,1.97-2.82,2.22c-0.66-0.34-1.44-0.47-2.17-0.3
		c-0.33-0.15-0.66-0.31-0.93-0.36c-1.49-0.29-3.02,0.06-4.37,0.69c-2.71,1.29-6.08,4.68-7.07,7.68c-3.8,0.8-7.54,2.55-8.66,6.46
		c0.15,1.54-0.56,2.77-2.13,3.67c-0.59,0.09-1.19,0.17-1.79,0.25c-0.94,0.18-1.9,0.42-2.74,0.89c-1.48,0.83-2.41,2.06-2.83,3.69
		c-0.21,0.82-0.2,1.67-0.31,2.51c-0.28,2.04-1.54,2.98-2.82,4.4c-1.46,1.62-2.63,3.52-3.28,5.61c-0.81,2.62-0.28,5.7-1.59,8.15
		c-0.97,1.81-2.94,2.36-3.71,4.32c-0.02,0.05-0.02,0.1-0.04,0.14c-0.9,0.7-1.19,2.35-1.1,3.38c0.17,1.81,0.98,3.12,0.69,5.05
		c-0.18,1.24-0.19,1.9-0.12,3.04c-0.21,0.94-0.16,1.97-0.21,2.93c-0.07,1.16-0.17,2.34-0.07,3.5h10.41c0-0.05,0-0.1-0.01-0.15
		c-0.19-1.78-0.62-3.82-0.41-5.61c0.18-1.56,1.27-2.1,1.81-3.46c0.72-1.8-0.47-4.1-1.58-5.84c0.65-0.71,2.55-0.4,2.96-1.61
		c0.61-1.78-2.71-3.09-1.13-4.63c0.61-0.59,1.85-0.66,2.55-1.31c0.5-0.46,0.86-1.02,1.04-1.68c0.28-1.01-0.28-1.7-0.21-2.62
		c0.12-1.45,1.29-1.74,2.08-2.68c1.41-1.67,1.3-4.21,1.97-6.19c0.53-1.58,1.16-2.89,2.63-3.79c1.05-0.64,2.22-1.05,3.19-1.83
		c0.74-0.6,1.21-1.27,1.74-2.05c1.13-1.65,1.5-1.62,3.14-2.3c2.15-0.89,2.34-2.83,3.62-4.53c0.17-0.21,0.24-0.45,0.24-0.68
		c2.35-0.77,5.2-0.24,6.98-2.2c1.35-1.47,1.56-4.3,3.8-4.88c1.76-0.45,2.84,0.2,4.49-0.83c0.66-0.42,1.11-1.17,1.82-1.53
		c0.99-0.51,2.38-0.48,3.46-0.66c1.67-0.28,2.96-1.02,4.48-1.71c1.98-0.89,3.5-0.03,5.47-0.04c1.7-0.01,3.04-1.5,4.69-1.38
		c0.53,0.04,0.91-0.15,1.16-0.45c1.13,0.25,2.52,0.57,3.7,0.55V82.65C155.46,82.61,154.06,82.98,152.89,83.06z M92.3,139.57
		c0.07-0.08,0.14-0.16,0.19-0.26c0.06-0.13,0.1-0.26,0.15-0.39c0.12,0.15,0.23,0.31,0.34,0.47C92.76,139.43,92.52,139.5,92.3,139.57
		z"/>
	<path class="st3" d="M156.74,11.1v2.45c-1.89,0.36-3.8,0.63-5.73,0.49c-0.97-0.07-1.9-0.26-2.85-0.4
		c-1.96-0.31-3.12-0.06-4.91,0.83c-1.29,0.64-2.55,1.33-4.06,1.1c-1.43-0.21-2.22-1.75-3.61-1.72c-0.95,0.02-2.92,1.69-3.82,2.13
		c-0.75,0.37-1.51,0.71-2.29,1.02c-2.1,0.83-4.3,1.42-6.56,1.53c-1.92,0.1-3.75-0.32-5.64-0.59c-3.21-0.47-5.14,0.26-7.14,2.6
		c-1.83,2.15-3.49,4.56-6.53,4.85c-1.84,0.18-3.5-0.51-5.27-0.86c-3.46-0.68-4.36,1.64-6.13,3.82c-1.02,1.26-2.23,2.25-3.74,2.9
		c-1.61,0.69-4.26,0.32-5.52,1.62c-0.4,0.41-0.46,1.32-0.93,1.81c-0.39,0.41-0.95,0.7-1.46,0.91c-1.05,0.43-6.4,0.25-5.91,1.91
		c0.15,0.5-0.02,0.91-0.31,1.18c-0.03,0.04-0.06,0.08-0.09,0.12c-0.88,3.13-2.18,5.46-5.62,6.08c-1.47,0.26-3.53,0.01-4.24,1.69
		c-0.29,0.69-0.12,1.64-0.27,2.37c-0.06,0.28-0.13,0.55-0.21,0.81c-0.23,0.71-0.57,1.33-1.13,1.84l-0.01,0.01
		c-0.16,0.14-0.34,0.27-0.53,0.39c-1.1,0.69-2.49,0.72-3.74,0.83c-0.73,0.06-1.67-0.04-2.34,0.31c-1.76,0.9-1.33,2.42-1.83,3.89
		c-0.56,1.7-1.78,2.55-3.04,3.74c-1.57,1.47-2.76,3.27-4.35,4.73c-3.76,3.45-8.41,5.59-8.94,11.22c-0.13,1.37-0.09,2.76-1.18,3.78
		c-1.34,1.24-3.34,0.36-3.66,2.35c-0.09,0.54,0.32,1.57,0.25,2.2c-0.07,0.76-0.31,1.48-0.65,2.16c-0.9,1.82-2.52,2.71-3.84,4.16
		c-1.42,1.53-0.28,1.83-0.48,3.63c-0.15,1.35-0.91,2.29-2.04,2.99c-0.04,0.21-0.14,0.41-0.32,0.59c-1.02,1.04-2.08,1.91-2.69,3.22
		c-0.91,1.97-0.7,3.96-0.72,6.03c-0.01,1.81-0.36,3.38-1.94,4.45c-0.74,0.5-1.64,0.59-2.38,1.04c-1.68,1-0.59,2.35-0.27,3.98
		c0.38,1.91,0.41,3.95-0.64,5.65c-0.97,1.58-2.32,2.54-2.6,4.51c-0.21,1.53,0.16,3.08,0.33,4.59c0.31,2.81,0.07,5.52-0.37,8.3
		c-0.31,1.94-1.51,3.41-1.7,5.17c-0.17,1.61-0.32,2.89-1.13,4.14c0.77,1.03,1.91,1.76,1.99,3.21c0.03,0.5-0.18,0.95-0.25,1.42
		c-0.13,0.84-0.09,1.81-0.09,2.76h-2.44c0.04-1.21,0.13-2.66,0.06-3.68c-0.09-1.28-1.26-1.98-1.81-3.16
		c-0.25-0.52-0.2-1.05,0.2-1.48c1.54-1.73,0.59-4.07,1.67-5.97c1.49-2.62,1.75-5.97,1.58-9.01c-0.14-2.41-0.85-4.85-0.41-7.27
		c0.55-2.98,3.39-4.53,3.33-7.72c-0.04-1.84-1.75-4.19-0.86-6c0.85-1.75,3.1-1.23,4.25-2.41c1.97-2.05,0.75-6.62,1.72-9.27
		c0.64-1.76,2.16-2.97,3.44-4.26c0.08-0.08,0.16-0.14,0.25-0.2c0.06-0.29,0.23-0.57,0.55-0.77c1.71-1.05-0.25-2.95,0.25-4.34
		c0.47-1.29,2.19-2.19,3.17-3.08c0.89-0.81,2-1.81,2.3-3.06c0.54-2.26-0.58-1.75-0.48-3.24c0.07-1.01,0.33-1.7,1.16-2.32
		c0.49-0.36,1.01-0.43,1.56-0.67c1.43-0.61,2.07-0.92,2.47-2.48c0.4-1.59,0.26-2.92,1.05-4.48c1.82-3.58,5.32-5.56,8.23-8.12
		c1.64-1.44,2.84-3.23,4.39-4.74c0.78-0.76,1.62-1.32,2.23-2.24c0.7-1.07,0.65-1.94,1.01-3.12c0.76-2.49,2.56-3.31,5.02-3.56
		c0.74-0.07,1.48-0.05,2.21-0.19c1.91-0.38,1.7-1.54,2.17-3.23c0.31-1.12,0.4-2.08,1.26-2.93c0.88-0.86,2.14-1.19,3.31-1.39
		c1.48-0.25,2.82-0.21,3.94-1.32c0.96-0.94,1.24-2.18,1.59-3.44c0.02-0.09,0.06-0.16,0.09-0.23c0.02-0.09,0.06-0.17,0.1-0.26
		c-0.47-3.17,3-3.55,5.45-3.9c1.18,0.17,2.17-0.27,3-1.32c0.09-0.28,0.2-0.56,0.31-0.83c0.32-0.37,0.55-0.81,0.98-1.12
		c1.43-0.99,3.39-0.55,4.97-1.04c4.08-1.26,4.78-6.72,9.18-7.31c1.96-0.26,3.76,0.58,5.65,0.9c2.79,0.47,4.2-0.97,5.8-2.9
		c2.21-2.67,4.27-4.78,8.02-4.66c3.14,0.1,6.01,1.15,9.2,0.59c2.76-0.48,5.34-1.67,7.76-3.03c1.2-0.67,2.76-2.04,4.28-1.7
		c0.88,0.2,1.05,0.91,1.73,1.25c1.81,0.91,2.76,0.29,4.39-0.53c1.53-0.77,2.84-1.07,4.56-0.85C150.7,11.44,153.46,11.78,156.74,11.1
		z"/>
	<path class="st3" d="M156.74,91.05v2.76c-1.59-0.12-3.16,0.69-4.76,0.3c-0.4-0.1-0.89-0.58-1.31-0.52
		c-0.56,0.07-1.83,1.38-2.32,1.68c-0.8,0.48-1.44,0.78-2.4,0.58c-0.49-0.1-0.75-0.37-1.19-0.57c-1.68-0.77-1.77-0.81-3.2,0.15
		c-1.15,0.77-1.97,1.5-3.41,1.69c-2.14,0.29-3.44-0.02-5.18,1.72c-0.63,0.63-1.05,1.29-1.99,1.52c-2.11,0.53-2.89-1.3-4.72,1.72
		c-1.26,2.08-1.15,4.07-4.13,4.4c-1.91,0.21-3.9-0.95-5.24,1.03c-0.64,0.94-0.59,2.43-1.04,3.49c-0.5,1.18-1.21,2.02-2.39,2.55
		c-0.64,0.29-1.67,0.25-2.22,0.62c-0.88,0.59-1.31,1.72-1.92,2.51c-0.65,0.86-1.15,1.4-2.18,1.87c-0.7,0.31-1.67,0.37-2.33,0.75
		c-1.59,0.89-1.79,1.99-1.91,3.41c0.23,0.33,0.3,0.77,0.03,1.23c-0.75,1.31,0.14,2.89-0.71,4.26c-0.63,1.01-1.47,1.07-2.36,1.68
		c-0.44,0.3-0.64,0.36-0.72,0.36c0.08,0.03,0.26,0.2,0.39,0.87c0.12,0.68,0.51,1.18,0.55,1.91c0.04,1-0.26,1.81-1.01,2.49
		c-0.56,0.51-2.98,0.8-3.11,1.16c-0.23,0.59,2.27,2.67,2.36,3.68c0.17,1.92-2.13,2.31-3.92,2.53c1.01,2.44,2.18,4.56,0.13,7
		c-0.62,0.74-1.53,0.27-1.4,1.92c0.03,0.36,0.7,1.21,0.78,1.67c0.2,1.14-0.04,2.4-0.22,3.6h-2.67c-0.06-0.47-0.13-0.93-0.1-1.39
		c0.07-0.83,0.3-1.12,0.2-1.93c-0.15-1.27-1.01-2.18-0.67-3.52c0.32-1.29,1-1.16,1.87-1.91c2.04-1.72-0.14-4.12-0.8-6.11
		c-0.2-0.59,0.23-1.39,0.86-1.51c0.59-0.11,2.19-0.21,3.17-0.51c-0.93-1.44-2.9-2.95-2.14-4.72c0.94-2.21,4.5-0.4,3.83-3.4
		c-0.34-1.53-1.45-2.74,0.26-3.93c1.34-0.93,2.27-0.55,2.73-2.93c0.13-0.68,0.11-1.14,0.24-1.65c-0.03-0.12-0.06-0.26-0.04-0.42
		c0.24-3.34,1.11-4.95,4.14-6.3c1.51-0.68,1.81-1.24,3.02-2.77c0.42-0.53,0.5-0.89,1.08-1.35c1.58-1.24,4.01-0.76,4.99-2.8
		c1.14-2.4,0.78-5.24,3.98-5.94c2.1-0.47,4.44,1.09,5.95-1.37c0.76-1.24,0.61-2.68,1.62-3.86c0.97-1.13,1.84-1.19,3.19-1.23
		c0.91-0.02,1.76,0.51,2.68-0.15c0.59-0.43,0.86-1.37,1.48-1.85c1.05-0.81,2.17-0.82,3.42-0.85c1.53-0.02,2.62-0.05,3.86-0.95
		c0.61-0.45,1.12-0.92,1.83-1.23c1.11-0.5,2.04-0.52,3.17-0.15c0.77,0.26,1.34,1.01,2.29,0.83c1.1-0.21,1.87-1.72,3.05-1.99
		c0.93-0.21,1.19,0.17,2,0.39C153.68,91.93,155.2,91.02,156.74,91.05z"/>
	<path class="st4" d="M156.74,35.91v3.37c-1.34,0.17-2.66,0.9-4.04,0.98c-1.16,0.07-1.76-0.29-2.82-0.58
		c-2.1-0.59-3.12,0.04-5.02,0.56c-2.99,0.81-5.98,0.31-8.99,0.84c-2.65,0.47-4.95,2.01-7.36,3.09c-2.04,0.91-4.09,1.53-6.34,1.51
		c-3.11-0.02-5.7-1.11-8.41,1c-1.72,1.33-2.95,2.74-5.04,3.55c-2.28,0.88-4.76,1.08-7,2.06c-4.55,2.02-7.73,6.18-12.31,8.17
		c-2.24,0.97-4.97,1.26-5.99,3.8c-0.75,1.9-0.81,3.82-2.29,5.39c-1.25,1.33-2.98,1.92-4.62,2.6c-1.01,0.42-2.25,0.8-2.98,1.68
		c-0.9,1.09-0.91,2.74-1.36,4.03c-1.18,3.37-4.09,5.78-7.25,7.28c-0.04,0.49-0.32,0.95-0.95,1.21c-3.9,1.68-6.92,4.83-7.95,9.02
		c-0.69,2.8-0.53,5.98-3.04,7.92c-1.65,1.28-3.31,1.54-3.44,4c-0.09,1.62,0.05,3.21-0.33,4.82c-0.97,4.17-4.29,5.89-6.19,9.37
		c-1.33,2.43-1.05,4.76-0.18,7.23c0.55,1.56,1.23,3.06,0.93,4.75c-0.67,3.8-5.43,4.49-5.32,8.85c0.05,1.98,1.38,3.57,1.61,5.51
		c0.18,1.7-0.54,2.14-1.12,3.58c-0.59,1.51-0.24,3.74-0.05,5.57h-3.53c-0.23-1.92-0.53-4.04-0.21-5.79
		c0.14-0.79,0.42-0.91,0.67-1.56c0.61-1.55,0.55-1.89-0.07-3.55c-0.57-1.52-0.96-2.95-0.86-4.59c0.12-1.68,0.69-3.34,1.64-4.73
		c1.54-2.29,3.89-2.78,3.17-6.13c-0.38-1.76-1.25-3.26-1.29-5.13c-0.05-1.87,0.38-3.8,1.23-5.46c0.94-1.85,2.4-3.08,3.76-4.6
		c1.83-2.05,2.39-4.25,2.49-6.96c0.13-3.41,0.36-5.75,3.58-7.46c2.41-1.27,2.33-2.89,2.78-5.39c0.31-1.72,0.85-3.36,1.65-4.91
		c1.77-3.38,4.73-6.02,8.22-7.52c0.02-0.01,0.04-0.01,0.06-0.02c1.63-1.29,3.47-2.34,4.89-3.87c1.78-1.91,1.68-4.09,2.74-6.32
		c1.68-3.51,5.2-3.36,7.98-5.41c1.76-1.3,1.64-3.55,2.47-5.39c0.61-1.34,1.58-2.4,2.84-3.16c1.46-0.88,3.16-1.27,4.71-1.95
		c1.94-0.84,3.62-2.09,5.27-3.38c3-2.36,5.89-4.67,9.62-5.72c2.09-0.58,4.39-0.81,6.22-2.03c1.42-0.94,2.45-2.37,3.92-3.26
		c3.7-2.24,7.7-0.04,11.6-1c3.87-0.94,7-3.68,10.99-4.29c2.48-0.38,5.03,0.02,7.48-0.5c1.74-0.37,3.36-1.24,5.17-1.32
		c1.04-0.05,1.78,0.26,2.75,0.48c1.6,0.36,2.82,0.21,4.38-0.01C155.74,36.04,156.24,35.94,156.74,35.91z"/>
	<path class="st4" d="M149,66.01c2.21-0.55,4.99-0.37,7.74-0.39V69c-0.42,0-0.85,0.01-1.27,0.02c-1.32,0.06-2.65,0.15-3.96,0.31
		c-1.61,0.2-1.95,0.48-3.23,1.34c-1.19,0.8-2.41,1.02-3.82,0.79c-1.7-0.28-4.04-2.03-5.8-1.55c-1.68,0.47-2.54,2.87-3.71,4.03
		c-0.98,0.97-2.16,1.63-3.55,1.8c-1.66,0.2-3.08-0.53-4.69-0.64c-2.22-0.16-2.62,1.52-4.44,2.32c-1.76,0.76-3.66,0.5-5.4,1.44
		c-1.53,0.83-2.83,2.02-4.35,2.87c-1.29,0.72-2.66,1.25-4.14,1.31c-1.1,0.05-2.43-0.42-3.4,0.36c-0.56,0.45-0.91,1.4-1.24,2.03
		c-1.71,3.23-3.88,5.58-7.63,6.23c-1.31,0.23-2.65,0.23-3.12,1.85c-0.21,0.73,0.02,1.74-0.01,2.5c-0.06,1.53-0.3,2.98-1.2,4.25
		c-1.07,1.51-2.73,2.3-4.25,3.27c-2.43,1.53-3.23,3.37-4.08,6c-0.51,1.59-1.29,2.69-2.6,3.71c-1.99,1.54-3.73,2.69-2.93,5.49
		c0.04,0.14,0.06,0.28,0.07,0.41c1.35,2.08,0.56,4.67-2.18,5.79c-1.14,0.47-0.74-0.53-1.08,1.26c-0.2,1.01-0.62,2.05-0.86,3.06
		c-0.49,2.04-0.83,4.14-2.18,5.83c-1.02,1.29-1.97,1.85-1.96,3.72c0.01,1.3,0.62,2.43,0.75,3.69c0.18,1.84-0.51,2.65-1.69,3.93
		c-1.22,1.32-0.93,1.31-0.46,2.89c0.33,1.14,0.46,2.28,0.5,3.46c0.04,1.43-0.09,2.86-0.2,4.29h-3.66c0.04-0.69,0.09-1.38,0.12-2.08
		c0.06-1.05,0.17-2.16,0.03-3.22c-0.17-1.38-0.94-2.54-1.07-3.91c-0.15-1.55,0.44-2.62,1.55-3.61c1.31-1.16,1.14-1.2,0.81-2.95
		c-0.19-1.02-0.36-1.95-0.31-3c0.1-1.94,0.72-3.2,1.89-4.66c1.66-2.06,1.92-3.85,2.61-6.39c0.42-1.57,0.89-4.25,2.25-5.36
		c0.61-0.5,1.28-0.27,1.86-0.61c0.48,0.2,0.69,0.06,0.62-0.44c-0.43-0.19-0.78-0.55-0.95-1.13c-0.55-1.96-0.48-3.94,0.48-5.76
		c1.21-2.32,4.12-3.02,5.07-5.38c0.86-2.14,1.21-4.14,2.85-5.91c1.61-1.74,4.28-2.4,5.75-4.15c1.49-1.79,0.44-4.5,1.05-6.6
		c0.41-1.42,1.3-2.52,2.66-3.14c2.19-0.99,4.5-0.38,6.43-2.21c1.4-1.32,1.86-3.3,2.99-4.83c2.54-3.46,6.05-1.46,9.34-3.34
		c1.75-0.99,3.22-2.36,5.07-3.19c1.64-0.73,3.98-0.48,5.35-1.61c1.35-1.11,1.97-2.1,3.89-2.23c1.87-0.12,3.88,1.11,5.69,0.7
		c1.95-0.44,2.74-2.79,4.11-4.1c1.04-1,2.3-1.64,3.76-1.72c1.91-0.11,3.38,1.03,5.17,1.36C146.12,67.96,147.09,66.49,149,66.01z"/>
	<path class="st5" d="M78.13,84.37c-2.52,2.1-4.21,5.45-5.95,8.19c-0.56,0.89-1.12,1.79-1.67,2.69c0.39-0.56,0.78-1.13,1.19-1.68
		c0.2-0.28,0.4-0.56,0.61-0.83c0.28-0.38,0.56-0.76,0.84-1.14l0.01-0.01c0.01-0.01,0.01-0.02,0.02-0.04
		c0.36-0.48,0.73-0.96,1.1-1.43c0.28-0.36,0.56-0.72,0.85-1.08c0.7-0.88,1.41-1.75,2.14-2.62c0.23-0.27,0.45-0.55,0.69-0.81
		c0.37-0.44,0.75-0.88,1.13-1.31C78.79,84.15,78.4,84.15,78.13,84.37z M56.36,143.44c-0.01,0.13-0.02,0.26-0.03,0.39
		c0.02-0.13,0.04-0.25,0.06-0.38C56.38,143.44,56.36,143.44,56.36,143.44z M78.13,84.37c-2.52,2.1-4.21,5.45-5.95,8.19
		c-0.56,0.89-1.12,1.79-1.67,2.69c0.39-0.56,0.78-1.13,1.19-1.68c0.2-0.28,0.4-0.56,0.61-0.83c0.28-0.38,0.56-0.76,0.84-1.14
		c0,0,0,0,0-0.01c0.01-0.01,0.02-0.02,0.03-0.04c0.36-0.48,0.73-0.96,1.1-1.43c0.28-0.36,0.56-0.72,0.85-1.08
		c0.7-0.88,1.41-1.75,2.14-2.62c0.22-0.28,0.45-0.55,0.69-0.81c0.37-0.44,0.75-0.88,1.13-1.31C78.79,84.15,78.4,84.15,78.13,84.37z
		 M56.36,143.44c-0.01,0.13-0.02,0.26-0.03,0.39c0.02-0.13,0.04-0.25,0.06-0.38C56.38,143.44,56.36,143.44,56.36,143.44z
		 M78.13,84.37c-2.52,2.1-4.21,5.45-5.95,8.19c-0.56,0.89-1.12,1.79-1.67,2.69c0.39-0.56,0.78-1.13,1.19-1.68
		c0.2-0.28,0.4-0.56,0.61-0.83c0.28-0.38,0.56-0.76,0.84-1.14c0,0,0,0,0-0.01c0.01-0.01,0.02-0.02,0.03-0.04
		c0.36-0.48,0.73-0.96,1.1-1.43c0.28-0.36,0.56-0.72,0.85-1.08c0.7-0.88,1.41-1.75,2.14-2.62c0.22-0.28,0.45-0.55,0.69-0.81
		c0.37-0.44,0.75-0.88,1.13-1.31C78.79,84.15,78.4,84.15,78.13,84.37z M56.36,143.44c-0.01,0.13-0.02,0.26-0.03,0.39
		c0.02-0.13,0.04-0.25,0.06-0.38C56.38,143.44,56.36,143.44,56.36,143.44z M78.13,84.37c-2.52,2.1-4.21,5.45-5.95,8.19
		c-0.56,0.89-1.12,1.79-1.67,2.69c0.39-0.56,0.78-1.13,1.19-1.68c0.2-0.28,0.4-0.56,0.61-0.83c0.28-0.38,0.56-0.76,0.84-1.14
		c0,0,0,0,0-0.01c0.01-0.01,0.02-0.02,0.03-0.04c0.36-0.48,0.73-0.96,1.1-1.43c0.28-0.36,0.56-0.72,0.85-1.08
		c0.7-0.88,1.41-1.75,2.14-2.62c0.22-0.28,0.45-0.55,0.69-0.81c0.37-0.44,0.75-0.88,1.13-1.31C78.79,84.15,78.4,84.15,78.13,84.37z
		 M56.36,143.44c-0.01,0.13-0.02,0.26-0.03,0.39c0.02-0.13,0.04-0.25,0.06-0.38C56.38,143.44,56.36,143.44,56.36,143.44z
		 M78.13,84.37c-2.52,2.1-4.21,5.45-5.95,8.19c-0.56,0.89-1.12,1.79-1.67,2.69c0.39-0.56,0.78-1.13,1.19-1.68
		c0.2-0.28,0.4-0.56,0.61-0.83c0.28-0.38,0.56-0.76,0.84-1.14c0,0,0,0,0-0.01c0.01-0.01,0.02-0.02,0.03-0.04
		c0.36-0.48,0.73-0.96,1.1-1.43c0.28-0.36,0.56-0.72,0.85-1.08c0.7-0.88,1.41-1.75,2.14-2.62c0.22-0.28,0.45-0.55,0.69-0.81
		c0.37-0.44,0.75-0.88,1.13-1.31C78.79,84.15,78.4,84.15,78.13,84.37z M56.36,143.44c-0.01,0.13-0.02,0.26-0.03,0.39
		c0.02-0.13,0.04-0.25,0.06-0.38C56.38,143.44,56.36,143.44,56.36,143.44z M78.13,84.37c-2.52,2.1-4.21,5.45-5.95,8.19
		c-0.56,0.89-1.12,1.79-1.67,2.69c0.39-0.56,0.78-1.13,1.19-1.68c0.2-0.28,0.4-0.56,0.61-0.83c0.28-0.38,0.56-0.76,0.84-1.14
		c0,0,0,0,0-0.01c0.01-0.01,0.02-0.02,0.03-0.04c0.36-0.48,0.73-0.96,1.1-1.43c0.28-0.36,0.56-0.72,0.85-1.08
		c0.7-0.88,1.41-1.75,2.14-2.62c0.22-0.28,0.45-0.55,0.69-0.81c0.37-0.44,0.75-0.88,1.13-1.31C78.79,84.15,78.4,84.15,78.13,84.37z
		 M56.36,143.44c-0.01,0.13-0.02,0.26-0.03,0.39c0.02-0.13,0.04-0.25,0.06-0.38C56.38,143.44,56.36,143.44,56.36,143.44z
		 M56.36,143.44c-0.01,0.13-0.02,0.26-0.03,0.39c0.02-0.13,0.04-0.25,0.06-0.38C56.38,143.44,56.36,143.44,56.36,143.44z
		 M78.13,84.37c-2.52,2.1-4.21,5.45-5.95,8.19c-0.56,0.89-1.12,1.79-1.67,2.69c0.39-0.56,0.78-1.13,1.19-1.68
		c0.2-0.28,0.4-0.56,0.61-0.83c0.28-0.38,0.56-0.76,0.84-1.14c0,0,0,0,0-0.01c0.01-0.01,0.02-0.02,0.03-0.04
		c0.36-0.48,0.73-0.96,1.1-1.43c0.28-0.36,0.56-0.72,0.85-1.08c0.7-0.88,1.41-1.75,2.14-2.62c0.22-0.28,0.45-0.55,0.69-0.81
		c0.37-0.44,0.75-0.88,1.13-1.31C78.79,84.15,78.4,84.15,78.13,84.37z M56.36,143.44c-0.01,0.13-0.02,0.26-0.03,0.39
		c0.02-0.13,0.04-0.25,0.06-0.38C56.38,143.44,56.36,143.44,56.36,143.44z M78.13,84.37c-2.52,2.1-4.21,5.45-5.95,8.19
		c-0.56,0.89-1.12,1.79-1.67,2.69c0.39-0.56,0.78-1.13,1.19-1.68c0.2-0.28,0.4-0.56,0.61-0.83c0.28-0.38,0.56-0.76,0.84-1.14
		c0,0,0,0,0-0.01c0.01-0.01,0.02-0.02,0.03-0.04c0.36-0.48,0.73-0.96,1.1-1.43c0.28-0.36,0.56-0.72,0.85-1.08
		c0.7-0.88,1.41-1.75,2.14-2.62c0.22-0.28,0.45-0.55,0.69-0.81c0.37-0.44,0.75-0.88,1.13-1.31C78.79,84.15,78.4,84.15,78.13,84.37z
		 M56.36,143.44c-0.01,0.13-0.02,0.26-0.03,0.39c0.02-0.13,0.04-0.25,0.06-0.38C56.38,143.44,56.36,143.44,56.36,143.44z
		 M78.13,84.37c-2.52,2.1-4.21,5.45-5.95,8.19c-0.56,0.89-1.12,1.79-1.67,2.69c0.39-0.56,0.78-1.13,1.19-1.68
		c0.2-0.28,0.4-0.56,0.61-0.83c0.28-0.38,0.56-0.76,0.84-1.14c0,0,0,0,0-0.01c0.01-0.01,0.02-0.02,0.03-0.04
		c0.36-0.48,0.73-0.96,1.1-1.43c0.28-0.36,0.56-0.72,0.85-1.08c0.7-0.88,1.41-1.75,2.14-2.62c0.22-0.28,0.45-0.55,0.69-0.81
		c0.37-0.44,0.75-0.88,1.13-1.31C78.79,84.15,78.4,84.15,78.13,84.37z M56.36,143.44c-0.01,0.13-0.02,0.26-0.03,0.39
		c0.02-0.13,0.04-0.25,0.06-0.38C56.38,143.44,56.36,143.44,56.36,143.44z M78.13,84.37c-2.52,2.1-4.21,5.45-5.95,8.19
		c-0.56,0.89-1.12,1.79-1.67,2.69c0.39-0.56,0.78-1.13,1.19-1.68c0.2-0.28,0.4-0.56,0.61-0.83c0.28-0.38,0.56-0.76,0.84-1.14
		c0,0,0,0,0-0.01c0.01-0.01,0.02-0.02,0.03-0.04c0.36-0.48,0.73-0.96,1.1-1.43c0.28-0.36,0.56-0.72,0.85-1.08
		c0.7-0.88,1.41-1.75,2.14-2.62c0.22-0.28,0.45-0.55,0.69-0.81c0.37-0.44,0.75-0.88,1.13-1.31C78.79,84.15,78.4,84.15,78.13,84.37z
		 M56.36,143.44c-0.01,0.13-0.02,0.26-0.03,0.39c0.02-0.13,0.04-0.25,0.06-0.38C56.38,143.44,56.36,143.44,56.36,143.44z
		 M78.13,84.37c-2.52,2.1-4.21,5.45-5.95,8.19c-0.56,0.89-1.12,1.79-1.67,2.69c0.39-0.56,0.78-1.13,1.19-1.68
		c0.2-0.28,0.4-0.56,0.61-0.83c0.28-0.38,0.56-0.76,0.84-1.14c0,0,0,0,0-0.01c0.01-0.01,0.02-0.02,0.03-0.04
		c0.36-0.48,0.73-0.96,1.1-1.43c0.28-0.36,0.56-0.72,0.85-1.08c0.7-0.88,1.41-1.75,2.14-2.62c0.22-0.28,0.45-0.55,0.69-0.81
		c0.37-0.44,0.75-0.88,1.13-1.31C78.79,84.15,78.4,84.15,78.13,84.37z M56.36,143.44c-0.01,0.13-0.02,0.26-0.03,0.39
		c0.02-0.13,0.04-0.25,0.06-0.38C56.38,143.44,56.36,143.44,56.36,143.44z M78.13,84.37c-2.52,2.1-4.21,5.45-5.95,8.19
		c-0.56,0.89-1.12,1.79-1.67,2.69c0.39-0.56,0.78-1.13,1.19-1.68c0.2-0.28,0.4-0.56,0.61-0.83c0.28-0.38,0.56-0.76,0.84-1.14
		c0,0,0,0,0-0.01c0.01-0.01,0.02-0.02,0.03-0.04c0.36-0.48,0.73-0.96,1.1-1.43c0.28-0.36,0.56-0.72,0.85-1.08
		c0.7-0.88,1.41-1.75,2.14-2.62c0.22-0.28,0.45-0.55,0.69-0.81c0.37-0.44,0.75-0.88,1.13-1.31C78.79,84.15,78.4,84.15,78.13,84.37z
		 M56.36,143.44c-0.01,0.13-0.02,0.26-0.03,0.39c0.02-0.13,0.04-0.25,0.06-0.38C56.38,143.44,56.36,143.44,56.36,143.44z
		 M78.13,84.37c-2.52,2.1-4.21,5.45-5.95,8.19c-0.56,0.89-1.12,1.79-1.67,2.69c0.39-0.56,0.78-1.13,1.19-1.68
		c0.2-0.28,0.4-0.56,0.61-0.83c0.28-0.38,0.56-0.76,0.84-1.14c0,0,0,0,0-0.01c0.01-0.01,0.02-0.02,0.03-0.04
		c0.36-0.48,0.73-0.96,1.1-1.43c0.28-0.36,0.56-0.72,0.85-1.08c0.7-0.88,1.41-1.75,2.14-2.62c0.22-0.28,0.45-0.55,0.69-0.81
		c0.37-0.44,0.75-0.88,1.13-1.31C78.79,84.15,78.4,84.15,78.13,84.37z M56.36,143.44c-0.01,0.13-0.02,0.26-0.03,0.39
		c0.02-0.13,0.04-0.25,0.06-0.38C56.38,143.44,56.36,143.44,56.36,143.44z M78.13,84.37c-2.52,2.1-4.21,5.45-5.95,8.19
		c-0.56,0.89-1.12,1.79-1.67,2.69c0.39-0.56,0.78-1.13,1.19-1.68c0.2-0.28,0.4-0.56,0.61-0.83c0.28-0.38,0.56-0.76,0.84-1.14
		c0,0,0,0,0-0.01c0.01-0.01,0.02-0.02,0.03-0.04c0.36-0.48,0.73-0.96,1.1-1.43c0.28-0.36,0.56-0.72,0.85-1.08
		c0.7-0.88,1.41-1.75,2.14-2.62c0.22-0.28,0.45-0.55,0.69-0.81c0.37-0.44,0.75-0.88,1.13-1.31C78.79,84.15,78.4,84.15,78.13,84.37z
		 M56.36,143.44c-0.01,0.13-0.02,0.26-0.03,0.39c0.02-0.13,0.04-0.25,0.06-0.38C56.38,143.44,56.36,143.44,56.36,143.44z
		 M78.13,84.37c-2.52,2.1-4.21,5.45-5.95,8.19c-0.56,0.89-1.12,1.79-1.67,2.69c0.39-0.56,0.78-1.13,1.19-1.68
		c0.2-0.28,0.4-0.56,0.61-0.83c0.28-0.38,0.56-0.76,0.84-1.14c0,0,0,0,0-0.01c0.01-0.01,0.02-0.02,0.03-0.04
		c0.36-0.48,0.73-0.96,1.1-1.43c0.28-0.36,0.56-0.72,0.85-1.08c0.7-0.88,1.41-1.75,2.14-2.62c0.22-0.28,0.45-0.55,0.69-0.81
		c0.37-0.44,0.75-0.88,1.13-1.31C78.79,84.15,78.4,84.15,78.13,84.37z M56.36,143.44c-0.01,0.13-0.02,0.26-0.03,0.39
		c0.02-0.13,0.04-0.25,0.06-0.38C56.38,143.44,56.36,143.44,56.36,143.44z M78.13,84.37c-2.52,2.1-4.21,5.45-5.95,8.19
		c-0.56,0.89-1.12,1.79-1.67,2.69c0.39-0.56,0.78-1.13,1.19-1.68c0.2-0.28,0.4-0.56,0.61-0.83c0.28-0.38,0.56-0.76,0.84-1.14
		c0,0,0,0,0-0.01c0.01-0.01,0.02-0.02,0.03-0.04c0.36-0.48,0.73-0.96,1.1-1.43c0.28-0.36,0.56-0.72,0.85-1.08
		c0.7-0.88,1.41-1.75,2.14-2.62c0.22-0.28,0.45-0.55,0.69-0.81c0.37-0.44,0.75-0.88,1.13-1.31C78.79,84.15,78.4,84.15,78.13,84.37z
		 M56.36,143.44c-0.01,0.13-0.02,0.26-0.03,0.39c0.02-0.13,0.04-0.25,0.06-0.38C56.38,143.44,56.36,143.44,56.36,143.44z
		 M78.13,84.37c-2.52,2.1-4.21,5.45-5.95,8.19c-0.56,0.89-1.12,1.79-1.67,2.69c0.39-0.56,0.78-1.13,1.19-1.68
		c0.2-0.28,0.4-0.56,0.61-0.83c0.28-0.38,0.56-0.76,0.84-1.14c0,0,0,0,0-0.01c0.01-0.01,0.02-0.02,0.03-0.04
		c0.36-0.48,0.73-0.96,1.1-1.43c0.28-0.36,0.56-0.72,0.85-1.08c0.7-0.88,1.41-1.75,2.14-2.62c0.22-0.28,0.45-0.55,0.69-0.81
		c0.37-0.44,0.75-0.88,1.13-1.31C78.79,84.15,78.4,84.15,78.13,84.37z M56.36,143.44c-0.01,0.13-0.02,0.26-0.03,0.39
		c0.02-0.13,0.04-0.25,0.06-0.38C56.38,143.44,56.36,143.44,56.36,143.44z M78.13,84.37c-2.52,2.1-4.21,5.45-5.95,8.19
		c-0.56,0.89-1.12,1.79-1.67,2.69c0.39-0.56,0.78-1.13,1.19-1.68c0.2-0.28,0.4-0.56,0.61-0.83c0.28-0.38,0.56-0.76,0.84-1.14
		c0,0,0,0,0-0.01c0.01-0.01,0.02-0.02,0.03-0.04c0.36-0.48,0.73-0.96,1.1-1.43c0.28-0.36,0.56-0.72,0.85-1.08
		c0.7-0.88,1.41-1.75,2.14-2.62c0.22-0.28,0.45-0.55,0.69-0.81c0.37-0.44,0.75-0.88,1.13-1.31C78.79,84.15,78.4,84.15,78.13,84.37z
		 M56.36,143.44c-0.01,0.13-0.02,0.26-0.03,0.39c0.02-0.13,0.04-0.25,0.06-0.38C56.38,143.44,56.36,143.44,56.36,143.44z
		 M78.13,84.37c-2.52,2.1-4.21,5.45-5.95,8.19c-0.56,0.89-1.12,1.79-1.67,2.69c0.39-0.56,0.78-1.13,1.19-1.68
		c0.2-0.28,0.4-0.56,0.61-0.83c0.28-0.38,0.56-0.76,0.84-1.14c0,0,0,0,0-0.01c0.01-0.01,0.02-0.02,0.03-0.04
		c0.36-0.48,0.73-0.96,1.1-1.43c0.28-0.36,0.56-0.72,0.85-1.08c0.7-0.88,1.41-1.75,2.14-2.62c0.22-0.28,0.45-0.55,0.69-0.81
		c0.37-0.44,0.75-0.88,1.13-1.31C78.79,84.15,78.4,84.15,78.13,84.37z M56.36,143.44c-0.01,0.13-0.02,0.26-0.03,0.39
		c0.02-0.13,0.04-0.25,0.06-0.38C56.38,143.44,56.36,143.44,56.36,143.44z M78.13,84.37c-2.52,2.1-4.21,5.45-5.95,8.19
		c-0.56,0.89-1.12,1.79-1.67,2.69c0.39-0.56,0.78-1.13,1.19-1.68c0.2-0.28,0.4-0.56,0.61-0.83c0.28-0.38,0.56-0.76,0.84-1.14
		c0,0,0,0,0-0.01c0.01-0.01,0.02-0.02,0.03-0.04c0.36-0.48,0.73-0.96,1.1-1.43c0.28-0.36,0.56-0.72,0.85-1.08
		c0.7-0.88,1.41-1.75,2.14-2.62c0.22-0.28,0.45-0.55,0.69-0.81c0.37-0.44,0.75-0.88,1.13-1.31C78.79,84.15,78.4,84.15,78.13,84.37z
		 M150.9,43.98c-0.85,0.19-1.69,0.36-2.5,0.5v0.01c-0.18,0.04-0.35,0.09-0.52,0.13c-0.25,0.06-0.25,0.36-0.08,0.48
		c-0.5,0.09-1,0.18-1.49,0.28c-0.38,0.07-0.75,0.13-1.13,0.21h-0.01c-0.57,0.1-1.13,0.21-1.7,0.33h-0.01c-0.16,0-0.3,0.03-0.42,0.08
		c-0.58,0.12-1.15,0.23-1.73,0.36c-0.82,0.17-1.64,0.36-2.46,0.55c-0.17,0.04-0.34,0.07-0.5,0.12c-0.6,0.14-1.21,0.28-1.83,0.43
		c0.78-0.22,1.56-0.43,2.35-0.63h0.01c0.78-0.2,1.57-0.39,2.36-0.56c1.24-0.28,2.49-0.53,3.75-0.75c0.37-0.07,0.74-0.13,1.11-0.19
		c0.32-0.05,0.25-0.61-0.07-0.56c-0.5,0.06-1,0.13-1.49,0.2c-4.83,0.67-9.64,1.7-14.34,3.07c-0.06-0.04-0.13-0.07-0.23-0.06
		c-2.49,0.28-4.99,1.05-7.43,2.08c-0.64,0.27-1.27,0.55-1.9,0.85c-0.85,0.4-1.68,0.82-2.51,1.26c0.01-0.07-0.01-0.14-0.03-0.21
		c0.02-0.61-0.37-1.25-1.16-1.25c-0.75,0-1.13,0.56-1.16,1.15c-2.98,0.72-5.89,2.2-8.59,3.52c-3.5,1.72-6.91,3.65-10.15,5.82
		c-4.9,3.29-9.42,7.09-13.61,11.23c-0.5,0.49-1,0.99-1.49,1.5c-0.28,0.28-0.55,0.57-0.83,0.86c-0.18,0.19-0.36,0.38-0.53,0.57
		c-0.2,0.2-0.38,0.39-0.56,0.59c-0.08,0.09-0.11,0.19-0.11,0.29c0.02,0.29,0.39,0.53,0.66,0.26l0.24-0.24
		c0.13-0.13,0.26-0.27,0.4-0.4c0.37-0.37,0.74-0.74,1.12-1.1c0.34-0.33,0.68-0.65,1.02-0.97c0.31-0.29,0.63-0.58,0.95-0.86
		c0.12-0.11,0.23-0.21,0.34-0.31c0.53-0.47,1.06-0.94,1.6-1.4c-0.5,0.47-0.99,0.94-1.48,1.42c-0.13,0.13-0.27,0.26-0.4,0.39
		c-0.33,0.33-0.66,0.66-0.99,0.98c-0.3,0.3-0.61,0.59-0.9,0.88c-0.25,0.24-0.5,0.48-0.74,0.7c-0.15,0.14-0.31,0.29-0.46,0.43
		c-0.56,0.53-1.12,1.05-1.67,1.59c-0.2,0.18-0.39,0.37-0.58,0.56c0.09-0.17,0.2-0.34,0.28-0.52c0.03-0.07,0.06-0.14,0.06-0.21
		c0.02-0.25-0.12-0.47-0.32-0.56c0-0.01,0-0.01,0-0.01c-0.14-0.06-0.32-0.06-0.5,0.02c-2.55,1.24-4.42,3.71-6.28,5.79
		c-2.12,2.37-4.14,4.82-6.08,7.33c-0.38,0.49-0.77,0.99-1.16,1.5c-0.13-0.12-0.32-0.21-0.56-0.21c-0.89,0-1.05,1.15-0.46,1.54
		c-1.98,2.66-3.79,5.53-4.22,8.77c-0.8,1.06-1.51,2.25-2.15,3.47c-0.21,0.39-0.4,0.77-0.59,1.16c-0.36,0.71-0.69,1.42-1.02,2.11
		c-1.04,1.37-1.76,3.06-2.4,4.74c-0.13,0.35-0.26,0.7-0.39,1.05c-0.02,0.06-0.06,0.12-0.08,0.17c-1.25,2.7-2.41,5.43-3.49,8.2
		c-0.28,0.7-0.56,1.42-0.85,2.16c-0.01,0.02-0.02,0.03-0.02,0.06c-2.48,6.24-5.29,13.33-4.48,19.98c-0.11,0.07-0.21,0.15-0.29,0.26
		c-1.08,1.48-0.85,3.87-1,5.62c-0.18,2.17-0.29,4.33-0.36,6.5h19.26c0.28-1.18,0.21-2.51,0.27-3.7c0.09-1.5,0.4-3.13-0.03-4.58
		c-0.12-0.4-0.44-0.62-0.78-0.68c0.22-2.22,0.51-4.44,0.84-6.65c0.42-2.43,0.94-4.83,1.53-7.23c0.03,0.01,0.06,0.02,0.1,0.02
		c0.77,0,0.84-1.07,0.22-1.27c0.53-2.05,1.11-4.09,1.72-6.12c0.14-0.46,0.29-0.91,0.43-1.37c0.98-0.1,1.18-1.32,0.61-1.89
		c0.12-0.36,0.25-0.72,0.37-1.08c0.16,0.32,0.48,0.56,0.94,0.56c1.45,0,1.45-2.24,0-2.24c-0.15,0-0.28,0.03-0.4,0.07
		c0.32-0.92,0.65-1.83,0.99-2.74c0.26-0.25,0.39-0.62,0.37-0.98c0.11-0.28,0.21-0.56,0.32-0.85c1.14-2.92,2.84-5.77,3.96-8.73
		c0.59-0.93,1.2-1.84,1.8-2.75c0.15,0.48,0.62,0.89,1.13,0.89c0.8,0,1.53-1,0.99-1.73c-0.18-0.24-0.33-0.45-0.58-0.61
		c-0.04-0.03-0.09-0.04-0.13-0.06c1.62-2.26,3.35-4.44,5.18-6.53c0.24-0.28,0.49-0.56,0.75-0.84c0.06-0.07,0.12-0.14,0.19-0.21
		c0.4-0.45,0.81-0.91,1.24-1.35c0.19-0.2,0.38-0.4,0.57-0.61c0.47-0.49,0.95-0.98,1.43-1.46c4.56-4.58,9.58-8.71,14.86-12.38
		c4.94-3.44,10.13-6.49,15.44-9.32c1.61-0.86,3.23-1.7,4.87-2.51c0.64-0.33,1.29-0.65,1.94-0.96c0.42-0.2,0.83-0.4,1.25-0.61
		c1.31-0.63,2.7-1.19,4.02-1.85c0.62-0.31,1.24-0.65,1.81-1.04c0.13-0.08,0.26-0.17,0.38-0.26c4.87-0.4,9.75-0.7,14.63-0.97
		c3.82-0.21,7.75-0.6,11.62-0.78v-19.3C154.96,42.95,153.01,43.51,150.9,43.98z M100.22,75.03c-0.82,0.56-1.63,1.12-2.44,1.7
		c-0.01-0.06-0.01-0.12-0.02-0.18v-0.01c-0.09-0.42-0.37-0.79-0.75-0.85c-0.06-0.02-0.12-0.02-0.18-0.02
		c0.35-0.36,0.69-0.73,1.02-1.1c0.36-0.25,0.72-0.48,1.08-0.72c0.42-0.29,0.86-0.57,1.29-0.85c0.01-0.01,0.01-0.01,0.01-0.01
		c0.2-0.13,0.4-0.26,0.59-0.39c0.62-0.4,1.24-0.79,1.87-1.18c0.09-0.06,0.17-0.11,0.25-0.16c0.07,0.58,0.47,1.1,1.18,1.16
		c-0.95,0.61-1.89,1.23-2.82,1.85C100.95,74.53,100.58,74.78,100.22,75.03z M61.49,131.61c0.26-0.92,0.54-1.83,0.82-2.74
		c-0.19,0.96-0.38,1.93-0.55,2.9C61.68,131.7,61.58,131.66,61.49,131.61z M56.76,143.54c0.06-0.35,0.13-0.7,0.2-1.05
		c0.09-0.43,0.17-0.85,0.26-1.27c-0.08,0.42-0.15,0.85-0.23,1.27c-0.07,0.35-0.13,0.7-0.18,1.05c-0.14,0.8-0.27,1.59-0.39,2.38
		C56.49,145.13,56.62,144.34,56.76,143.54z M88.6,75.99c2.65-2.24,5.43-4.33,8.19-6.34c-1.03,0.81-2.03,1.63-2.99,2.43
		c-1.47,1.22-2.93,2.48-4.36,3.78c-0.06,0.02-0.12,0.05-0.18,0.09c-0.07,0.06-0.15,0.11-0.21,0.17c-0.67,0.51-1.32,1.05-1.96,1.61
		c-3.58,3.16-6.73,7.12-9.63,10.98c0.62-0.93,1.18-1.87,1.62-2.85c2.31-3.14,5.04-5.94,7.98-8.53
		C87.56,76.87,88.07,76.43,88.6,75.99z M141.27,54.21c-0.04,0.01-0.08,0.02-0.12,0.02c-1.18,0.25-2.4,0.48-3.63,0.72
		c1.24-0.37,2.49-0.73,3.75-1.07C141.11,53.95,141.14,54.16,141.27,54.21z M143.58,52.96c2.35-0.53,4.69-1.05,7.04-1.59
		c-0.17,0.05-0.34,0.09-0.51,0.14c-2.3,0.62-4.59,1.24-6.89,1.86C143.45,53.3,143.56,53.14,143.58,52.96z M109.88,61.63
		c-1.38,0.53-2.74,1.16-4.07,1.89c0.81-0.51,1.62-1.01,2.44-1.5c0.84-0.5,1.71-0.97,2.59-1.44c0.77-0.27,1.54-0.55,2.31-0.85h0.01
		c0.81-0.31,1.61-0.64,2.42-0.97c-1.78,0.78-3.51,1.64-5.2,2.59c-0.01,0-0.02,0.01-0.02,0.01
		C110.19,61.45,110.04,61.54,109.88,61.63z M120.71,56.7c-0.15,0.06-0.3,0.11-0.45,0.17C120.41,56.8,120.56,56.75,120.71,56.7
		c0.77-0.31,1.53-0.6,2.3-0.86c2.38-0.83,4.8-1.71,7.26-2.48v0.04C127.08,54.47,123.87,55.52,120.71,56.7z M103.24,69.06
		c-1.35,0.89-2.68,1.81-3.99,2.76c0.04-0.04,0.07-0.09,0.11-0.13c0.23-0.29,0.16-0.68-0.06-0.89c-0.16-0.15-0.4-0.21-0.66-0.05
		c-2.81,1.69-5.45,3.82-7.95,6.14c0.02-0.13-0.01-0.27-0.06-0.4c1.37-1.13,2.76-2.22,4.15-3.3c2.52-1.94,5.1-3.78,7.78-5.47
		c0.32-0.2,0.64-0.4,0.97-0.6c0.21-0.13,0.43-0.26,0.66-0.39h0.01c2.85-1.67,5.86-3.05,8.65-4.82c3.12-1.61,6.27-3.18,9.6-4.44
		c2.37-0.89,4.77-1.7,7.16-2.51c0.01,0.1,0.04,0.21,0.09,0.3c0.1,0.19,0.29,0.32,0.56,0.31c0.31-0.01,0.61-0.02,0.93-0.06
		c0,0,0,0,0.01,0c0.16-0.01,0.32-0.02,0.48-0.04c-1.57,0.51-3.12,1.07-4.66,1.65c-3.04,0.67-6.1,2.33-8.83,3.6
		c-4.01,1.86-7.95,3.93-11.71,6.25c-0.51,0.31-1.01,0.62-1.51,0.95C104.37,68.31,103.8,68.68,103.24,69.06z M141.94,54.08
		c2.85-0.74,5.7-1.46,8.56-2.2c-0.15,0.2-0.25,0.45-0.26,0.7C147.46,52.99,144.69,53.51,141.94,54.08z M150.4,47.53
		c0.2-0.02,0.33-0.15,0.4-0.31h0.04c0.03,0.09,0.08,0.17,0.13,0.25c-1.75,0.22-3.5,0.47-5.24,0.72h-0.01
		c-0.25,0.04-0.48,0.07-0.73,0.11c0.24-0.04,0.48-0.08,0.73-0.12C147.27,47.94,148.84,47.71,150.4,47.53z M128.49,52.23
		c0.13-0.04,0.28-0.07,0.41-0.1c0.01-0.01,0.02-0.01,0.04-0.01c0.43-0.11,0.86-0.23,1.29-0.34c0.62-0.17,1.25-0.33,1.88-0.5
		c-0.01,0.07-0.01,0.15-0.01,0.22c-0.88,0.26-1.76,0.53-2.63,0.81c-0.01,0.01-0.02,0.01-0.03,0.01c-1.9,0.62-3.77,1.3-5.64,1.97
		c-0.8,0.28-1.58,0.57-2.37,0.86c-0.01,0-0.02,0.01-0.04,0.01c-0.8,0.3-1.6,0.59-2.4,0.9c0.14-0.1,0.29-0.19,0.43-0.29
		c0.25-0.18,0.35-0.46,0.33-0.72c1.11-0.42,2.21-0.81,3.22-1.21c1.61-0.61,3.22-1.21,4.83-1.8
		C127.96,52.21,128.2,52.31,128.49,52.23z M97.56,66.55c0.99-0.69,1.98-1.36,2.98-2.02c0.8-0.52,1.59-1.03,2.4-1.53
		c0.44-0.27,0.88-0.53,1.32-0.78c-1.23,0.8-2.44,1.63-3.63,2.48c-1.15,0.82-2.29,1.66-3.42,2.52
		C97.41,67.05,97.52,66.81,97.56,66.55z M95.89,63.92c-1.49,1.09-2.97,2.21-4.41,3.36c-0.58,0.29-1.14,0.63-1.7,1
		C91.76,66.75,93.79,65.29,95.89,63.92z M78.21,82c0.04-0.06,0.07-0.11,0.11-0.17c0.13-0.19,0.17-0.38,0.15-0.56
		c0.63-0.61,1.27-1.21,1.91-1.8c0.85-0.8,1.7-1.58,2.56-2.36c-1.53,1.61-3.03,3.25-4.47,4.93c-0.39,0.44,0.2,1.08,0.61,0.77
		c0-0.01,0.01-0.01,0.01-0.01c0.02-0.02,0.04-0.04,0.07-0.07c4.74-5.31,10-10.08,15.74-14.28c0.45-0.33,0.9-0.66,1.35-0.97
		c0.08,0.01,0.16,0.02,0.25,0.02c0.23,0,0.42-0.07,0.58-0.17c-0.32,0.25-0.65,0.49-0.97,0.74c-4.5,3.49-8.86,7.24-12.68,11.47
		c-0.02,0.02-0.06,0.06-0.07,0.08c-0.03,0.03-0.06,0.06-0.08,0.09c-1.4,1.55-2.71,3.16-3.93,4.85c-0.06-0.11-0.17-0.2-0.28-0.26
		c-0.28-0.16-0.68-0.15-0.94,0.07c-2.52,2.1-4.21,5.45-5.95,8.19c-0.56,0.89-1.12,1.79-1.67,2.69c-0.01,0.01-0.02,0.02-0.02,0.04
		c-1.43,2.35-2.81,4.75-4.09,7.19c0.81-1.61,1.63-3.22,2.49-4.81c0-0.01,0.01-0.01,0.01-0.01c0.13-0.25,0.26-0.48,0.4-0.73
		c2.13-3.84,4.58-7.39,7.09-10.94c0,0,0-0.01,0.01-0.01c0.61-0.86,1.22-1.72,1.84-2.59c0.22-0.31-0.01-0.79-0.36-0.88h-0.02
		c0.12-0.17,0.23-0.33,0.34-0.5C78.19,82.01,78.2,82.01,78.21,82z M64.53,95.01c0.02,0.01,0.04,0.02,0.06,0.02
		c-0.51,0.85-1,1.7-1.47,2.57c-0.04,0-0.07-0.01-0.1-0.01c-0.12,0-0.21,0.02-0.31,0.05C63.24,96.75,63.87,95.87,64.53,95.01z
		 M62.01,98.86c0.02,0.15,0.08,0.29,0.16,0.41c-0.02,0.03-0.04,0.06-0.05,0.09c-0.15-0.01-0.31,0.03-0.44,0.13
		C61.77,99.28,61.9,99.07,62.01,98.86z M59.58,112.22c1.75-5.85,4.65-11.17,8.06-16.21c0.15-0.23,0.32-0.45,0.47-0.67
		c-0.09,0.18-0.19,0.35-0.28,0.53c-0.01,0.01-0.01,0.02-0.01,0.02c-0.08,0.13-0.15,0.28-0.22,0.42c-2.63,5.04-4.94,10.26-7.24,15.46
		c-0.2,0.46,0.06,0.88,0.4,1.07c-0.21,0.04-0.4,0.15-0.51,0.38c-0.34,0.74-0.66,1.5-0.96,2.28c0.28-0.94,0.47-1.89,0.48-2.84
		C59.77,112.49,59.69,112.33,59.58,112.22z M53.04,122.93c0.08-0.4-0.08-0.69-0.33-0.85c0.81-1.81,1.68-3.58,2.59-5.34
		c0.18-0.35,0.37-0.7,0.55-1.05c0.23-0.43,0.45-0.86,0.68-1.28c0.66-1.23,1.38-2.44,2.12-3.65c-0.13,0.44-0.27,0.88-0.39,1.32
		c-0.04,0.15-0.02,0.28,0.02,0.39c0.01,0.02,0.02,0.05,0.03,0.07c-1.43,1.92-1.97,4.52-2.68,6.79c-0.69,2.19-1.3,4.4-1.86,6.63
		c-0.01,0-0.01,0-0.01,0c-0.2,0.31-0.37,0.64-0.53,0.99c-0.12-0.14-0.29-0.25-0.47-0.3c-0.18-0.06-0.37-0.07-0.55-0.01
		C52.52,125.41,52.8,124.17,53.04,122.93z M49.84,135.67c-0.06,0.51-0.12,1.02-0.17,1.52c-0.07-0.03-0.15-0.06-0.24-0.07
		C49.57,136.64,49.71,136.16,49.84,135.67z M46.36,140.46c-0.02,0.64-0.04,1.29-0.06,1.94c-0.01,0.1-0.02,0.2-0.04,0.3
		c-0.06,0.53-0.12,1.05-0.18,1.58v0.01c-0.06,0.53-0.12,1.07-0.18,1.6c-0.01-0.24-0.03-0.48-0.07-0.72
		c-0.04-0.32-0.22-0.51-0.45-0.62C45.57,143.17,45.94,141.81,46.36,140.46z M49,149.95c-0.09,0.59-0.15,1.19-0.2,1.8
		c-0.36-0.22-0.8-0.28-1.14-0.1c0.49-1.65,0.94-3.3,1.36-4.96C49.01,147.78,49,148.86,49,149.95z M52.76,147.15
		c-0.01,0.29-0.02,0.57-0.02,0.86v0.01c-0.01,0.39-0.02,0.78-0.02,1.17c-0.4-0.17-0.88-0.17-1.23,0.07
		c-0.13-0.23-0.36-0.39-0.61-0.48c0.03-0.14,0.07-0.28,0.1-0.42c0.18-0.08,0.32-0.24,0.36-0.48c0.08-0.61,0.16-1.22,0.25-1.83
		c0.37-1.23,0.58-2.49,0.64-3.84c0.23-1.19,0.45-2.38,0.67-3.58c0.01-0.06,0.02-0.13,0.04-0.19c0.16,0.2,0.4,0.35,0.71,0.39
		C53.17,141.58,52.86,144.36,52.76,147.15z M53.82,136.47c-0.2,0-0.37,0.04-0.51,0.11c0.26-1.27,0.53-2.53,0.82-3.79
		c0.06-0.25,0.1-0.53,0.16-0.85c0.23-0.93,0.46-1.87,0.7-2.8c0.77-2.92,1.62-5.83,2.53-8.71c0.28-0.88,0.64-1.78,0.99-2.68
		c-0.82,2.58-1.46,5.27-2.06,7.95c-0.41,1.85-0.8,3.68-1.2,5.47c-0.11,0.5-0.23,1-0.34,1.49c-0.31,1.27-0.58,2.55-0.83,3.82
		C53.99,136.48,53.9,136.47,53.82,136.47z M55.01,146.22c0.22,0.01,0.47-0.12,0.5-0.4c0.1-0.96,0.23-1.91,0.37-2.85v-0.02
		c0.1-0.38,0.2-0.75,0.29-1.13c0-0.01,0-0.01,0-0.01c0.05-0.17,0.1-0.34,0.14-0.51c0.04-0.12,0.07-0.25,0.1-0.38
		c0.25-0.94,0.48-1.89,0.71-2.83c-0.11,0.89-0.28,1.79-0.43,2.65c-0.02,0.15-0.04,0.3-0.07,0.45c-0.06,0.35-0.1,0.69-0.15,1.02
		c-0.01,0.03-0.01,0.07-0.01,0.1c-0.04,0.37-0.08,0.75-0.1,1.13v0.01c-0.01,0.13-0.02,0.26-0.03,0.39c-0.01,0.01-0.01,0.01,0,0.01
		c-0.09,1.29-0.12,2.6-0.2,3.89c-0.06,0.47-0.12,0.93-0.18,1.4c-0.07-0.06-0.15-0.11-0.23-0.15c-0.47-0.25-1.09-0.21-1.46,0.2
		C54.5,148.18,54.75,147.2,55.01,146.22z M64.94,114.57c-0.04,0.1-0.08,0.2-0.12,0.3c-0.07,0.14-0.15,0.29-0.22,0.43
		c-0.05,0.09-0.05,0.17-0.02,0.24c-0.34,0.94-0.67,1.89-1,2.84c-0.18,0.52-0.36,1.04-0.53,1.56v0.01c-0.12,0.37-0.25,0.74-0.36,1.12
		c-0.06,0.17-0.1,0.34-0.15,0.5c-0.17-0.13-0.39-0.2-0.62-0.2c-0.31,0.01-0.62,0.16-0.78,0.45c-0.02,0.06-0.05,0.12-0.07,0.17
		c-0.29,0.99-0.56,1.99-0.81,3c-0.48,1.9-0.89,3.83-1.23,5.78c0,0,0,0,0,0.01c-0.07,0.35-0.13,0.69-0.19,1.05
		c-0.21,1.19-0.39,2.4-0.56,3.61c-0.13,0.91-0.25,1.83-0.36,2.75c-0.07,0.07-0.12,0.15-0.17,0.25c0.14-0.8,0.26-1.59,0.34-2.39
		v-0.01c0.1-1,0.15-2,0.08-2.99c-0.02-0.25-0.12-0.43-0.26-0.55c0.03-0.12,0.06-0.23,0.09-0.35c0.15-0.64,0.32-1.28,0.48-1.92
		c0.48-1.82,0.99-3.63,1.54-5.43c0.03-0.1,0.07-0.21,0.1-0.32c0.01-0.04,0.02-0.08,0.04-0.12v-0.01c0.96-3.12,2-6.21,3.18-9.25
		c0.9-2.31,2.09-4.6,3.01-6.95c0.1-0.25,0.19-0.49,0.28-0.74c0.29-0.47,0.58-0.94,0.88-1.41c0.91-1.45,1.85-2.89,2.82-4.31
		c0-0.01,0.01-0.01,0.01-0.02c1.03-1.52,2.1-3.02,3.19-4.5c-0.65,1-1.28,2-1.89,3.03c-0.09,0.13-0.17,0.28-0.25,0.41
		c-0.01,0.01,0,0.01,0,0.01c-1.12,1.89-2.17,3.81-3.16,5.78c-0.12,0.21-0.22,0.43-0.33,0.66c-0.05,0.1-0.05,0.19-0.02,0.27
		c-0.21,0.4-0.4,0.83-0.59,1.25c-0.51,1.15-0.94,2.35-1.4,3.5c-0.32,0.81-0.64,1.64-0.94,2.46
		C64.95,114.54,64.94,114.56,64.94,114.57z M69.37,109.79c0.2-0.5,0.4-0.99,0.57-1.49c0.06,0.04,0.13,0.08,0.2,0.11
		C69.87,108.87,69.62,109.33,69.37,109.79z M70.2,105c-0.09-0.06-0.18-0.1-0.28-0.12c1.28-2.22,2.7-4.34,4.21-6.41
		c0,0.05,0.01,0.09,0.01,0.14C72.77,100.71,71.45,102.84,70.2,105z M106.03,73.12c-0.63,0.39-1.26,0.78-1.88,1.18
		c-0.07,0.05-0.15,0.1-0.23,0.15c-2.36,1.53-4.67,3.14-6.94,4.82c-0.56,0.42-1.11,0.83-1.67,1.25c-0.37,0.28-0.73,0.55-1.09,0.83
		c0.39-0.43,0.77-0.85,1.15-1.29c0,0,0,0,0.01-0.01c0.22-0.25,0.43-0.5,0.65-0.75c0.01,0,0.02-0.01,0.03-0.01
		c0,0,0.01-0.01,0.01-0.01c2.63-1.78,5.32-3.47,8.06-5.1c0.62-0.37,1.24-0.73,1.87-1.09c0.34-0.2,0.69-0.4,1.04-0.59
		C106.7,72.7,106.37,72.9,106.03,73.12z M118.76,63.4c-1.8,0.58-3.55,1.29-5.24,2.18c-0.55,0.29-0.06,1.08,0.48,0.82
		c0.81-0.38,1.64-0.71,2.48-1c-3.23,1.64-6.4,3.39-9.51,5.27c-0.5,0.3-0.99,0.61-1.48,0.91c0.19-0.55,0.05-1.22-0.41-1.59
		c0.77-0.45,1.55-0.91,2.33-1.35c3.39-1.92,6.84-3.74,10.37-5.4c0.34-0.16,0.69-0.31,1.04-0.46
		C118.66,62.95,118.66,63.21,118.76,63.4z M132.04,62.42c0.15-0.05,0.29-0.11,0.41-0.2c0.74-0.09,1.48-0.18,2.22-0.26
		C133.8,62.11,132.92,62.26,132.04,62.42z M133.56,58.32c-0.53,0.12-1.05,0.24-1.57,0.37c-0.07,0.02-0.13,0.06-0.19,0.09
		c-4.14,1.12-8.24,2.4-12.31,3.72c2.78-1.13,5.79-2.08,8.34-3.58c0.1,0.07,0.21,0.12,0.36,0.1c3.69-0.33,7.36-1.57,11-2.5
		c0.01,0.11,0.05,0.21,0.1,0.3c-1.48,0.39-2.94,0.78-4.34,1.12C134.48,58.07,134.02,58.2,133.56,58.32z M141.73,60.95
		c-0.39,0.05-0.77,0.09-1.16,0.13c-0.12,0.01-0.23,0.02-0.35,0.04c0.12-0.02,0.24-0.05,0.36-0.08c0.41-0.09,0.81-0.18,1.21-0.29
		C141.77,60.82,141.75,60.89,141.73,60.95z M146.58,60.41c-0.88,0.09-1.76,0.19-2.62,0.28c-0.02,0.01-0.05,0.01-0.07,0.01
		c-0.09-0.18-0.22-0.34-0.4-0.45c0.15-0.05,0.29-0.1,0.44-0.15c0.61-0.23,0.48-1.03-0.15-1.1c-0.25-0.02-0.51-0.04-0.77-0.06
		c0.85-0.29,1.69-0.59,2.5-0.95c0.36-0.07,0.7-0.15,1.05-0.23c1.15-0.08,2.31-0.14,3.47-0.18c-0.02,0.09-0.05,0.19-0.06,0.29
		c-0.2,0.01-0.39,0.02-0.59,0.03c-0.06,0-0.1,0-0.15,0.01c-0.7,0.04-1.4,0.07-2.1,0.1C145.75,58.08,145.56,59.96,146.58,60.41z
		 M78.13,84.37c-2.52,2.1-4.21,5.45-5.95,8.19c-0.56,0.89-1.12,1.79-1.67,2.69c0.39-0.56,0.78-1.13,1.19-1.68
		c0.2-0.28,0.4-0.56,0.61-0.83c0.28-0.38,0.56-0.76,0.84-1.14c0,0,0,0,0-0.01c0.01-0.01,0.02-0.02,0.03-0.04
		c0.36-0.48,0.73-0.96,1.1-1.43c0.28-0.36,0.56-0.72,0.85-1.08c0.7-0.88,1.41-1.75,2.14-2.62c0.22-0.28,0.45-0.55,0.69-0.81
		c0.37-0.44,0.75-0.88,1.13-1.31C78.79,84.15,78.4,84.15,78.13,84.37z M56.36,143.44c-0.01,0.13-0.02,0.26-0.03,0.39
		c0.02-0.13,0.04-0.25,0.06-0.38C56.38,143.44,56.36,143.44,56.36,143.44z M78.13,84.37c-2.52,2.1-4.21,5.45-5.95,8.19
		c-0.56,0.89-1.12,1.79-1.67,2.69c0.39-0.56,0.78-1.13,1.19-1.68c0.2-0.28,0.4-0.56,0.61-0.83c0.28-0.38,0.56-0.76,0.84-1.14
		c0,0,0,0,0-0.01c0.01-0.01,0.02-0.02,0.03-0.04c0.36-0.48,0.73-0.96,1.1-1.43c0.28-0.36,0.56-0.72,0.85-1.08
		c0.7-0.88,1.41-1.75,2.14-2.62c0.22-0.28,0.45-0.55,0.69-0.81c0.37-0.44,0.75-0.88,1.13-1.31C78.79,84.15,78.4,84.15,78.13,84.37z
		 M56.36,143.44c-0.01,0.13-0.02,0.26-0.03,0.39c0.02-0.13,0.04-0.25,0.06-0.38C56.38,143.44,56.36,143.44,56.36,143.44z
		 M78.13,84.37c-2.52,2.1-4.21,5.45-5.95,8.19c-0.56,0.89-1.12,1.79-1.67,2.69c0.39-0.56,0.78-1.13,1.19-1.68
		c0.2-0.28,0.4-0.56,0.61-0.83c0.28-0.38,0.56-0.76,0.84-1.14c0,0,0,0,0-0.01c0.01-0.01,0.02-0.02,0.03-0.04
		c0.36-0.48,0.73-0.96,1.1-1.43c0.28-0.36,0.56-0.72,0.85-1.08c0.7-0.88,1.41-1.75,2.14-2.62c0.22-0.28,0.45-0.55,0.69-0.81
		c0.37-0.44,0.75-0.88,1.13-1.31C78.79,84.15,78.4,84.15,78.13,84.37z M56.36,143.44c-0.01,0.13-0.02,0.26-0.03,0.39
		c0.02-0.13,0.04-0.25,0.06-0.38C56.38,143.44,56.36,143.44,56.36,143.44z M78.13,84.37c-2.52,2.1-4.21,5.45-5.95,8.19
		c-0.56,0.89-1.12,1.79-1.67,2.69c0.39-0.56,0.78-1.13,1.19-1.68c0.2-0.28,0.4-0.56,0.61-0.83c0.28-0.38,0.56-0.76,0.84-1.14
		c0,0,0,0,0-0.01c0.01-0.01,0.02-0.02,0.03-0.04c0.36-0.48,0.73-0.96,1.1-1.43c0.28-0.36,0.56-0.72,0.85-1.08
		c0.7-0.88,1.41-1.75,2.14-2.62c0.22-0.28,0.45-0.55,0.69-0.81c0.37-0.44,0.75-0.88,1.13-1.31C78.79,84.15,78.4,84.15,78.13,84.37z
		 M56.36,143.44c-0.01,0.13-0.02,0.26-0.03,0.39c0.02-0.13,0.04-0.25,0.06-0.38C56.38,143.44,56.36,143.44,56.36,143.44z
		 M78.13,84.37c-2.52,2.1-4.21,5.45-5.95,8.19c-0.56,0.89-1.12,1.79-1.67,2.69c0.39-0.56,0.78-1.13,1.19-1.68
		c0.2-0.28,0.4-0.56,0.61-0.83c0.28-0.38,0.56-0.76,0.84-1.14c0,0,0,0,0-0.01c0.01-0.01,0.02-0.02,0.03-0.04
		c0.36-0.48,0.73-0.96,1.1-1.43c0.28-0.36,0.56-0.72,0.85-1.08c0.7-0.88,1.41-1.75,2.14-2.62c0.22-0.28,0.45-0.55,0.69-0.81
		c0.37-0.44,0.75-0.88,1.13-1.31C78.79,84.15,78.4,84.15,78.13,84.37z M56.36,143.44c-0.01,0.13-0.02,0.26-0.03,0.39
		c0.02-0.13,0.04-0.25,0.06-0.38C56.38,143.44,56.36,143.44,56.36,143.44z M78.13,84.37c-2.52,2.1-4.21,5.45-5.95,8.19
		c-0.56,0.89-1.12,1.79-1.67,2.69c0.39-0.56,0.78-1.13,1.19-1.68c0.2-0.28,0.4-0.56,0.61-0.83c0.28-0.38,0.56-0.76,0.84-1.14
		c0,0,0,0,0-0.01c0.01-0.01,0.02-0.02,0.03-0.04c0.36-0.48,0.73-0.96,1.1-1.43c0.28-0.36,0.56-0.72,0.85-1.08
		c0.7-0.88,1.41-1.75,2.14-2.62c0.22-0.28,0.45-0.55,0.69-0.81c0.37-0.44,0.75-0.88,1.13-1.31C78.79,84.15,78.4,84.15,78.13,84.37z
		 M56.36,143.44c-0.01,0.13-0.02,0.26-0.03,0.39c0.02-0.13,0.04-0.25,0.06-0.38C56.38,143.44,56.36,143.44,56.36,143.44z
		 M78.13,84.37c-2.52,2.1-4.21,5.45-5.95,8.19c-0.56,0.89-1.12,1.79-1.67,2.69c0.39-0.56,0.78-1.13,1.19-1.68
		c0.2-0.28,0.4-0.56,0.61-0.83c0.28-0.38,0.56-0.76,0.84-1.14c0,0,0,0,0-0.01c0.01-0.01,0.02-0.02,0.03-0.04
		c0.36-0.48,0.73-0.96,1.1-1.43c0.28-0.36,0.56-0.72,0.85-1.08c0.7-0.88,1.41-1.75,2.14-2.62c0.22-0.28,0.45-0.55,0.69-0.81
		c0.37-0.44,0.75-0.88,1.13-1.31C78.79,84.15,78.4,84.15,78.13,84.37z M56.36,143.44c-0.01,0.13-0.02,0.26-0.03,0.39
		c0.02-0.13,0.04-0.25,0.06-0.38C56.38,143.44,56.36,143.44,56.36,143.44z M78.13,84.37c-2.52,2.1-4.21,5.45-5.95,8.19
		c-0.56,0.89-1.12,1.79-1.67,2.69c0.39-0.56,0.78-1.13,1.19-1.68c0.2-0.28,0.4-0.56,0.61-0.83c0.28-0.38,0.56-0.76,0.84-1.14
		c0,0,0,0,0-0.01c0.01-0.01,0.02-0.02,0.03-0.04c0.36-0.48,0.73-0.96,1.1-1.43c0.28-0.36,0.56-0.72,0.85-1.08
		c0.7-0.88,1.41-1.75,2.14-2.62c0.22-0.28,0.45-0.55,0.69-0.81c0.37-0.44,0.75-0.88,1.13-1.31C78.79,84.15,78.4,84.15,78.13,84.37z
		 M56.36,143.44c-0.01,0.13-0.02,0.26-0.03,0.39c0.02-0.13,0.04-0.25,0.06-0.38C56.38,143.44,56.36,143.44,56.36,143.44z
		 M78.13,84.37c-2.52,2.1-4.21,5.45-5.95,8.19c-0.56,0.89-1.12,1.79-1.67,2.69c0.39-0.56,0.78-1.13,1.19-1.68
		c0.2-0.28,0.4-0.56,0.61-0.83c0.28-0.38,0.56-0.76,0.84-1.14c0,0,0,0,0-0.01c0.01-0.01,0.02-0.02,0.03-0.04
		c0.36-0.48,0.73-0.96,1.1-1.43c0.28-0.36,0.56-0.72,0.85-1.08c0.7-0.88,1.41-1.75,2.14-2.62c0.22-0.28,0.45-0.55,0.69-0.81
		c0.37-0.44,0.75-0.88,1.13-1.31C78.79,84.15,78.4,84.15,78.13,84.37z M56.36,143.44c-0.01,0.13-0.02,0.26-0.03,0.39
		c0.02-0.13,0.04-0.25,0.06-0.38C56.38,143.44,56.36,143.44,56.36,143.44z M78.13,84.37c-2.52,2.1-4.21,5.45-5.95,8.19
		c-0.56,0.89-1.12,1.79-1.67,2.69c0.39-0.56,0.78-1.13,1.19-1.68c0.2-0.28,0.4-0.56,0.61-0.83c0.28-0.38,0.56-0.76,0.84-1.14
		c0,0,0,0,0-0.01c0.01-0.01,0.02-0.02,0.03-0.04c0.36-0.48,0.73-0.96,1.1-1.43c0.28-0.36,0.56-0.72,0.85-1.08
		c0.7-0.88,1.41-1.75,2.14-2.62c0.22-0.28,0.45-0.55,0.69-0.81c0.37-0.44,0.75-0.88,1.13-1.31C78.79,84.15,78.4,84.15,78.13,84.37z
		 M56.36,143.44c-0.01,0.13-0.02,0.26-0.03,0.39c0.02-0.13,0.04-0.25,0.06-0.38C56.38,143.44,56.36,143.44,56.36,143.44z
		 M78.13,84.37c-2.52,2.1-4.21,5.45-5.95,8.19c-0.56,0.89-1.12,1.79-1.67,2.69c0.39-0.56,0.78-1.13,1.19-1.68
		c0.2-0.28,0.4-0.56,0.61-0.83c0.28-0.38,0.56-0.76,0.84-1.14c0,0,0,0,0-0.01c0.01-0.01,0.02-0.02,0.03-0.04
		c0.36-0.48,0.73-0.96,1.1-1.43c0.28-0.36,0.56-0.72,0.85-1.08c0.7-0.88,1.41-1.75,2.14-2.62c0.22-0.28,0.45-0.55,0.69-0.81
		c0.37-0.44,0.75-0.88,1.13-1.31C78.79,84.15,78.4,84.15,78.13,84.37z M56.36,143.44c-0.01,0.13-0.02,0.26-0.03,0.39
		c0.02-0.13,0.04-0.25,0.06-0.38C56.38,143.44,56.36,143.44,56.36,143.44z M78.13,84.37c-2.52,2.1-4.21,5.45-5.95,8.19
		c-0.56,0.89-1.12,1.79-1.67,2.69c0.39-0.56,0.78-1.13,1.19-1.68c0.2-0.28,0.4-0.56,0.61-0.83c0.28-0.38,0.56-0.76,0.84-1.14
		c0,0,0,0,0-0.01c0.01-0.01,0.02-0.02,0.03-0.04c0.36-0.48,0.73-0.96,1.1-1.43c0.28-0.36,0.56-0.72,0.85-1.08
		c0.7-0.88,1.41-1.75,2.14-2.62c0.22-0.28,0.45-0.55,0.69-0.81c0.37-0.44,0.75-0.88,1.13-1.31C78.79,84.15,78.4,84.15,78.13,84.37z
		 M56.36,143.44c-0.01,0.13-0.02,0.26-0.03,0.39c0.02-0.13,0.04-0.25,0.06-0.38C56.38,143.44,56.36,143.44,56.36,143.44z
		 M78.13,84.37c-2.52,2.1-4.21,5.45-5.95,8.19c-0.56,0.89-1.12,1.79-1.67,2.69c0.39-0.56,0.78-1.13,1.19-1.68
		c0.2-0.28,0.4-0.56,0.61-0.83c0.28-0.38,0.56-0.76,0.84-1.14c0,0,0,0,0-0.01c0.01-0.01,0.02-0.02,0.03-0.04
		c0.36-0.48,0.73-0.96,1.1-1.43c0.28-0.36,0.56-0.72,0.85-1.08c0.7-0.88,1.41-1.75,2.14-2.62c0.22-0.28,0.45-0.55,0.69-0.81
		c0.37-0.44,0.75-0.88,1.13-1.31C78.79,84.15,78.4,84.15,78.13,84.37z M56.36,143.44c-0.01,0.13-0.02,0.26-0.03,0.39
		c0.02-0.13,0.04-0.25,0.06-0.38C56.38,143.44,56.36,143.44,56.36,143.44z M78.13,84.37c-2.52,2.1-4.21,5.45-5.95,8.19
		c-0.56,0.89-1.12,1.79-1.67,2.69c0.39-0.56,0.78-1.13,1.19-1.68c0.2-0.28,0.4-0.56,0.61-0.83c0.28-0.38,0.56-0.76,0.84-1.14
		c0,0,0,0,0-0.01c0.01-0.01,0.02-0.02,0.03-0.04c0.36-0.48,0.73-0.96,1.1-1.43c0.28-0.36,0.56-0.72,0.85-1.08
		c0.7-0.88,1.41-1.75,2.14-2.62c0.22-0.28,0.45-0.55,0.69-0.81c0.37-0.44,0.75-0.88,1.13-1.31C78.79,84.15,78.4,84.15,78.13,84.37z
		 M56.36,143.44c-0.01,0.13-0.02,0.26-0.03,0.39c0.02-0.13,0.04-0.25,0.06-0.38C56.38,143.44,56.36,143.44,56.36,143.44z
		 M56.36,143.44c-0.01,0.13-0.02,0.26-0.03,0.39c0.02-0.13,0.04-0.25,0.06-0.38C56.38,143.44,56.36,143.44,56.36,143.44z
		 M78.13,84.37c-2.52,2.1-4.21,5.45-5.95,8.19c-0.56,0.89-1.12,1.79-1.67,2.69c0.39-0.56,0.78-1.13,1.19-1.68
		c0.2-0.28,0.4-0.56,0.61-0.83c0.28-0.38,0.56-0.76,0.84-1.14c0,0,0,0,0-0.01c0.01-0.01,0.02-0.02,0.03-0.04
		c0.36-0.48,0.73-0.96,1.1-1.43c0.28-0.36,0.56-0.72,0.85-1.08c0.7-0.88,1.41-1.75,2.14-2.62c0.22-0.28,0.45-0.55,0.69-0.81
		c0.37-0.44,0.75-0.88,1.13-1.31C78.79,84.15,78.4,84.15,78.13,84.37z M56.36,143.44c-0.01,0.13-0.02,0.26-0.03,0.39
		c0.02-0.13,0.04-0.25,0.06-0.38C56.38,143.44,56.36,143.44,56.36,143.44z M78.13,84.37c-2.52,2.1-4.21,5.45-5.95,8.19
		c-0.56,0.89-1.12,1.79-1.67,2.69c0.39-0.56,0.78-1.13,1.19-1.68c0.2-0.28,0.4-0.56,0.61-0.83c0.28-0.38,0.56-0.76,0.84-1.14
		c0,0,0,0,0-0.01c0.01-0.01,0.02-0.02,0.03-0.04c0.36-0.48,0.73-0.96,1.1-1.43c0.28-0.36,0.56-0.72,0.85-1.08
		c0.7-0.88,1.41-1.75,2.14-2.62c0.22-0.28,0.45-0.55,0.69-0.81c0.37-0.44,0.75-0.88,1.13-1.31C78.79,84.15,78.4,84.15,78.13,84.37z
		 M56.36,143.44c-0.01,0.13-0.02,0.26-0.03,0.39c0.02-0.13,0.04-0.25,0.06-0.38C56.38,143.44,56.36,143.44,56.36,143.44z
		 M78.13,84.37c-2.52,2.1-4.21,5.45-5.95,8.19c-0.56,0.89-1.12,1.79-1.67,2.69c0.39-0.56,0.78-1.13,1.19-1.68
		c0.2-0.28,0.4-0.56,0.61-0.83c0.28-0.38,0.56-0.76,0.84-1.14c0,0,0,0,0-0.01c0.01-0.01,0.02-0.02,0.03-0.04
		c0.36-0.48,0.73-0.96,1.1-1.43c0.28-0.36,0.56-0.72,0.85-1.08c0.7-0.88,1.41-1.75,2.14-2.62c0.22-0.28,0.45-0.55,0.69-0.81
		c0.37-0.44,0.75-0.88,1.13-1.31C78.79,84.15,78.4,84.15,78.13,84.37z M56.36,143.44c-0.01,0.13-0.02,0.26-0.03,0.39
		c0.02-0.13,0.04-0.25,0.06-0.38C56.38,143.44,56.36,143.44,56.36,143.44z M78.13,84.37c-2.52,2.1-4.21,5.45-5.95,8.19
		c-0.56,0.89-1.12,1.79-1.67,2.69c0.39-0.56,0.78-1.13,1.19-1.68c0.2-0.28,0.4-0.56,0.61-0.83c0.28-0.38,0.56-0.76,0.84-1.14
		c0,0,0,0,0-0.01c0.01-0.01,0.02-0.02,0.03-0.04c0.36-0.48,0.73-0.96,1.1-1.43c0.28-0.36,0.56-0.72,0.85-1.08
		c0.7-0.88,1.41-1.75,2.14-2.62c0.22-0.28,0.45-0.55,0.69-0.81c0.37-0.44,0.75-0.88,1.13-1.31C78.79,84.15,78.4,84.15,78.13,84.37z
		 M56.36,143.44c-0.01,0.13-0.02,0.26-0.03,0.39c0.02-0.13,0.04-0.25,0.06-0.38C56.38,143.44,56.36,143.44,56.36,143.44z
		 M78.13,84.37c-2.52,2.1-4.21,5.45-5.95,8.19c-0.56,0.89-1.12,1.79-1.67,2.69c0.39-0.56,0.78-1.13,1.19-1.68
		c0.2-0.28,0.4-0.56,0.61-0.83c0.28-0.38,0.56-0.76,0.84-1.14l0.01-0.01c0.01-0.01,0.01-0.02,0.02-0.04
		c0.36-0.48,0.73-0.96,1.1-1.43c0.28-0.36,0.56-0.72,0.85-1.08c0.7-0.88,1.41-1.75,2.14-2.62c0.23-0.27,0.45-0.55,0.69-0.81
		c0.37-0.44,0.75-0.88,1.13-1.31C78.79,84.15,78.4,84.15,78.13,84.37z"/>
	<path class="st1" d="M57.9,112.65c-5.42,11.13-7.77,24.04-8.82,36.29c-0.06,0.72,1.05,0.71,1.12,0
		c1.31-12.47,4.82-24.05,8.39-35.99C58.72,112.54,58.09,112.26,57.9,112.65z"/>
	<path class="st1" d="M84.09,78.87C75.3,87.9,67.55,98.19,62.2,109.64c-0.1,0-0.19,0.05-0.24,0.16c-0.44,1.07-0.85,2.15-1.25,3.23
		c-0.2,0.48-0.4,0.95-0.59,1.43c-0.03,0.07-0.02,0.13,0,0.18c-1.91,5.32-3.52,10.77-5.31,16.11c-0.15,0.44,0.55,0.63,0.69,0.19
		c2.16-6.41,4.62-12.82,6.47-19.34c2.15-4.63,4.71-8.99,7.53-13.18c-6,10.25-9.78,21.96-12.55,33.44c-0.09,0.37,0.47,0.52,0.57,0.16
		c3.05-11.95,7.85-23,12.78-34.26c0.06-0.14-0.05-0.27-0.16-0.27c4.37-6.36,9.3-12.34,14.25-18.33
		C84.55,78.96,84.28,78.67,84.09,78.87z"/>
	<path class="st1" d="M120.34,56.55c-5.64,1.79-11.06,5.39-15.93,8.68c-5.03,3.4-9.69,7.28-14.12,11.43c-0.13,0.12-0.1,0.28,0,0.37
		c-1.37,1.37-2.69,2.75-3.99,4.09c-2.97,3.08-5.76,6.32-8.42,9.67c0.87-1.46,1.75-2.91,2.64-4.37c0.17-0.28-0.24-0.49-0.42-0.25
		c-2.96,3.95-5.64,8.15-8.11,12.5c0,0-0.01,0.01-0.01,0.01c0,0,0,0.01-0.01,0.01c-4.72,8.32-8.61,17.2-11.95,25.99
		c-0.12,0.31,0.38,0.44,0.5,0.14c4.22-10.89,9.61-20.9,15.46-30.83c3.54-4.4,7.33-8.58,11.32-12.6c4.83-4.86,10.35-8.93,15.33-13.59
		c0.92-0.63,1.85-1.26,2.79-1.88c4.9-3.21,10.28-5.59,15.18-8.75C120.91,56.97,120.72,56.43,120.34,56.55z"/>
	<path class="st1" d="M88.54,71.25c-8.09,7.09-14.79,16.05-20.88,24.87c-0.25,0.37,0.34,0.71,0.6,0.35
		c6.26-8.87,13.54-16.7,20.57-24.93C88.99,71.33,88.74,71.07,88.54,71.25z"/>
	<path class="st1" d="M102.37,71.35c-7.3,5.37-13.72,12.35-19.86,18.98c-0.33,0.36,0.2,0.9,0.54,0.54
		c6.24-6.72,13.19-12.62,19.62-19.13C102.87,71.55,102.61,71.18,102.37,71.35z"/>
	<path class="st1" d="M119.6,53.87c-6.97,1.57-13.15,6.26-18.91,10.27c-0.38,0.26-0.02,0.88,0.36,0.62
		c6.04-4.13,12.03-7.53,18.74-10.43C120.07,54.22,119.87,53.81,119.6,53.87z"/>
	<path class="st1" d="M130.06,51.71c-6.55,2.34-12.89,5.34-19.22,8.22c-0.24,0.11-0.03,0.47,0.21,0.36
		c6.35-2.83,12.84-5.35,19.13-8.29C130.34,51.92,130.23,51.65,130.06,51.71z"/>
	<path class="st1" d="M145.56,48.11c-5.7,0.62-11.17,2.53-16.35,4.91c-0.33,0.15-0.04,0.63,0.28,0.48
		c5.22-2.31,10.58-3.69,16.13-4.98C145.84,48.47,145.8,48.09,145.56,48.11z"/>
	<path class="st1" d="M147.85,51.38c-6.44-0.3-13.41,2.1-19.35,4.35c-0.38,0.14-0.22,0.76,0.17,0.62c6.33-2.25,12.79-2.9,19.24-4.55
		C148.15,51.74,148.09,51.39,147.85,51.38z"/>
	<path class="st1" d="M147.25,54.49c-7.73,0.16-15.61,2.31-22.91,4.7c-0.37,0.12-0.21,0.7,0.16,0.58
		c7.53-2.36,15.09-3.38,22.82-4.72C147.64,55,147.57,54.49,147.25,54.49z"/>
	<path class="st1" d="M61.02,128.72c-3.64,7.14-5.11,15.19-5.5,23.14c-0.03,0.52,0.77,0.51,0.8,0c0.56-7.97,2.65-15.41,5.11-22.97
		C61.51,128.65,61.14,128.49,61.02,128.72z"/>
	<path class="st1" d="M63.41,125.07c-3.16,6.83-4.3,14.57-4.76,22.03c-0.04,0.67,1,0.67,1.05,0c0.52-7.52,2.41-14.55,4.2-21.82
		C63.97,125,63.55,124.79,63.41,125.07z"/>
	<path class="st4" d="M46.76,147.55c-0.17-0.23-0.32-0.46-0.57-0.6c-0.24-0.14-0.47-0.14-0.73-0.17c-0.45-0.04-0.86,0.35-0.99,0.75
		c-0.14,0.46-0.07,0.84,0.18,1.26c0.33,0.55,1.11,0.8,1.67,0.44C46.83,148.9,47.16,148.11,46.76,147.55z"/>
	<path class="st4" d="M46.83,144.3c-0.05-0.01-0.1-0.02-0.14-0.03c-0.39-0.09-0.4,0.57,0,0.47c0.05-0.01,0.1-0.02,0.14-0.03
		C47.02,144.65,47.02,144.34,46.83,144.3z"/>
	<path class="st4" d="M52.13,146.8c-0.98,0-0.98,1.52,0,1.52C53.11,148.32,53.11,146.8,52.13,146.8z"/>
	<path class="st4" d="M55.18,150.65l-0.19,0.1c-0.57,0.3,0.23,1.11,0.53,0.53l0.1-0.19C55.78,150.8,55.47,150.5,55.18,150.65z"/>
	<path class="st4" d="M59.33,147.68c-0.04,0-0.04,0.06,0,0.06C59.37,147.74,59.37,147.68,59.33,147.68z"/>
	<path class="st4" d="M57.03,140.67c-1.17,0-1.18,1.82,0,1.82C58.21,142.5,58.21,140.67,57.03,140.67z"/>
	<path class="st4" d="M50.6,137.88c-0.04,0-0.04,0.06,0,0.06C50.64,137.94,50.64,137.88,50.6,137.88z"/>
	<path class="st4" d="M56.57,135.51c-1.32,0-1.32,2.05,0,2.05C57.89,137.56,57.9,135.51,56.57,135.51z"/>
	<circle class="st4" cx="60.25" cy="134.23" r="0.9"/>
	<path class="st4" d="M58.38,130.2c-0.23-0.04-0.47-0.09-0.7-0.13c-0.57-0.1-1,0.43-0.74,0.96c0.1,0.21,0.21,0.42,0.31,0.63
		c0.32,0.64,1.24,0.62,1.65,0.1C59.29,131.25,59.08,130.33,58.38,130.2z"/>
	<path class="st4" d="M50.75,127.73c-1.28,0-1.28,1.98,0,1.98C52.03,129.71,52.03,127.73,50.75,127.73z"/>
	<path class="st4" d="M49.15,124.98c-0.02-0.1-0.05-0.19-0.07-0.29c-0.04-0.16-0.29-0.16-0.33,0c-0.02,0.1-0.05,0.19-0.07,0.29
		C48.59,125.37,49.25,125.38,49.15,124.98z"/>
	<path class="st4" d="M53.36,118.43c-0.04,0-0.04,0.06,0,0.06C53.4,118.49,53.4,118.43,53.36,118.43z"/>
	<path class="st4" d="M58.56,117.05c-0.04,0-0.04,0.06,0,0.06C58.6,117.11,58.6,117.05,58.56,117.05z"/>
	<path class="st4" d="M63.92,118.33c-1.35,0-1.35,2.1,0,2.1C65.27,120.43,65.28,118.33,63.92,118.33z"/>
	<path class="st4" d="M65.61,116.59c-0.04,0-0.04,0.06,0,0.06C65.65,116.65,65.65,116.59,65.61,116.59z"/>
	<path class="st4" d="M55.19,115.26c-0.96,0-0.96,1.49,0,1.49C56.16,116.76,56.16,115.26,55.19,115.26z"/>
	<path class="st4" d="M53.82,113.04c-1.06,0-1.06,1.65,0,1.65C54.88,114.69,54.88,113.04,53.82,113.04z"/>
	<path class="st4" d="M58.1,104.93c-0.59,0-1.15,0.52-1.12,1.12c0.03,0.61,0.49,1.12,1.12,1.12c0.59,0,1.15-0.52,1.12-1.12
		C59.2,105.45,58.73,104.93,58.1,104.93z"/>
	<path class="st4" d="M62.55,104.06c-0.2,0-0.2,0.32,0,0.32C62.75,104.37,62.75,104.06,62.55,104.06z"/>
	<path class="st4" d="M67.29,105.99c-1.66,0-1.67,2.58,0,2.58C68.96,108.57,68.96,105.99,67.29,105.99z"/>
	<path class="st4" d="M72.2,102.67c-1.2,0-1.2,1.87,0,1.87C73.4,104.54,73.4,102.67,72.2,102.67z"/>
	<path class="st4" d="M72.1,100.33l-0.19-0.1c-0.32-0.17-0.66,0.17-0.49,0.49l0.1,0.19C71.85,101.53,72.73,100.66,72.1,100.33z"/>
	<path class="st4" d="M66.53,95.33c-0.79,0-0.8,1.23,0,1.23C67.32,96.56,67.32,95.33,66.53,95.33z"/>
	<path class="st4" d="M69.74,91.05c-1.17,0-1.18,1.82,0,1.82C70.92,92.87,70.92,91.05,69.74,91.05z"/>
	<path class="st4" d="M74.19,89.79c-0.04,0-0.04,0.06,0,0.06C74.23,89.85,74.23,89.79,74.19,89.79z"/>
	<path class="st4" d="M77.71,86.57c-0.63,0-0.63,0.98,0,0.98C78.34,87.55,78.34,86.57,77.71,86.57z"/>
	<path class="st4" d="M80.16,75.27c-1.58,0-1.58,2.46,0,2.46C81.74,77.72,81.74,75.27,80.16,75.27z"/>
	<path class="st4" d="M84.45,72.57c-1.5,0-1.5,2.33,0,2.33C85.94,74.9,85.95,72.57,84.45,72.57z"/>
	<path class="st4" d="M88.43,75.98c-1.84,0-1.84,2.86,0,2.86C90.27,78.84,90.27,75.98,88.43,75.98z"/>
	<path class="st4" d="M91.03,80.48c-0.56,0-1.1,0.49-1.07,1.07c0.03,0.58,0.47,1.07,1.07,1.07c0.56,0,1.1-0.49,1.07-1.07
		C92.08,80.97,91.63,80.48,91.03,80.48z"/>
	<path class="st4" d="M84.6,91.06c-1.76,0-1.76,2.73,0,2.73C86.36,93.79,86.36,91.06,84.6,91.06z"/>
	<path class="st4" d="M83.84,94.39c-1.8,0-1.8,2.8,0,2.8C85.64,97.19,85.64,94.39,83.84,94.39z"/>
	<path class="st4" d="M96.55,79.2c-1.64,0-1.65,2.56,0,2.56C98.19,81.75,98.19,79.2,96.55,79.2z"/>
	<path class="st4" d="M100.99,77.12c-1.37,0-1.37,2.13,0,2.13C102.36,79.24,102.36,77.12,100.99,77.12z"/>
	<path class="st4" d="M105.28,72.85c-1.53,0-1.54,2.38,0,2.38C106.81,75.23,106.81,72.85,105.28,72.85z"/>
	<path class="st4" d="M103.75,66.67c-1.6,0-1.6,2.48,0,2.48C105.34,69.16,105.35,66.67,103.75,66.67z"/>
	<path class="st4" d="M100.68,60.54c-0.62,0-0.62,0.96,0,0.96C101.3,61.51,101.3,60.54,100.68,60.54z"/>
	<path class="st4" d="M108.19,56.9c-1.16,0-1.17,1.81,0,1.81C109.35,58.71,109.35,56.9,108.19,56.9z"/>
	<path class="st4" d="M114.16,51.8c-0.04,0-0.04,0.06,0,0.06C114.2,51.87,114.2,51.8,114.16,51.8z"/>
	<path class="st4" d="M121.87,49.18c-0.08-0.07-0.16-0.15-0.24-0.22c-0.28-0.27-0.76-0.22-0.96,0.12c-0.18,0.31-0.03,0.83,0.36,0.9
		c0.11,0.02,0.22,0.04,0.33,0.06C121.84,50.11,122.27,49.56,121.87,49.18z"/>
	<path class="st4" d="M125.19,50.35c-0.53,0-0.53,0.82,0,0.82C125.72,51.17,125.72,50.35,125.19,50.35z"/>
	<path class="st4" d="M129.43,46.75c-0.06,0.03-0.13,0.06-0.19,0.08c-0.28,0.12-0.3,0.55-0.1,0.74c0.2,0.2,0.62,0.19,0.74-0.1
		c0.03-0.06,0.06-0.13,0.08-0.19C130.13,46.91,129.8,46.58,129.43,46.75z"/>
	<path class="st4" d="M133.77,45.2c-1.05,0-1.05,1.64,0,1.64C134.82,46.83,134.82,45.2,133.77,45.2z"/>
	<path class="st4" d="M140.2,45.8c-1.85,0-1.85,2.87,0,2.87C142.05,48.68,142.05,45.8,140.2,45.8z"/>
	<path class="st4" d="M145.56,43.33c-1.49,0-1.49,2.31,0,2.31C147.05,45.64,147.05,43.33,145.56,43.33z"/>
	<path class="st4" d="M149.69,43.15c-1.72,0-1.72,2.67,0,2.67C151.41,45.82,151.42,43.15,149.69,43.15z"/>
	<path class="st4" d="M153.52,44.49c-1.37,0-1.37,2.13,0,2.13C154.89,46.62,154.89,44.49,153.52,44.49z"/>
	<path class="st4" d="M155.51,43.02c-1.49,0-1.49,2.31,0,2.31C157,45.33,157,43.02,155.51,43.02z"/>
	<path class="st4" d="M150.46,59.36c-0.18,0-0.33,0.03-0.47,0.08c-0.19-0.35-0.54-0.6-1.06-0.6c-1.63,0-1.63,2.53,0,2.53
		c0.13,0,0.24-0.02,0.35-0.05c0.19,0.43,0.58,0.75,1.18,0.75C152.21,62.08,152.21,59.36,150.46,59.36z"/>
	<path class="st4" d="M139.43,59.67c-1.54,0-1.55,2.4,0,2.4C140.98,62.07,140.98,59.67,139.43,59.67z"/>
	<path class="st4" d="M134.07,64.41c-1.55,0-1.55,2.41,0,2.41C135.62,66.83,135.63,64.41,134.07,64.41z"/>
	<path class="st4" d="M129.02,62.63c-1.48,0-1.48,2.3,0,2.3C130.5,64.93,130.5,62.63,129.02,62.63z"/>
	<path class="st4" d="M122.13,66.65c-1.43,0-1.43,2.23,0,2.23C123.56,68.88,123.56,66.65,122.13,66.65z"/>
	<path class="st4" d="M114.01,72.03c-1.41,0-1.42,2.2,0,2.2C115.42,74.22,115.42,72.03,114.01,72.03z"/>
	<path class="st4" d="M110.94,72.09c-0.74,0-0.74,1.15,0,1.15C111.68,73.24,111.68,72.09,110.94,72.09z"/>
	<path class="st5" d="M46.87,142.51c-1.37,0-1.37,2.13,0,2.13C48.24,144.64,48.24,142.51,46.87,142.51z"/>
	<path class="st5" d="M51.57,136.02c-0.79,0-0.8,1.23,0,1.23C52.36,137.25,52.37,136.02,51.57,136.02z"/>
	<path class="st5" d="M56.88,141.16c-1.53,0-1.54,2.38,0,2.38C58.41,143.54,58.42,141.16,56.88,141.16z"/>
	<path class="st5" d="M61.58,137.31c-1.5,0-1.5,2.33,0,2.33C63.07,139.64,63.08,137.31,61.58,137.31z"/>
	<path class="st5" d="M80.36,74.41c-1.24,0-1.24,1.92,0,1.92C81.6,76.33,81.6,74.41,80.36,74.41z"/>
	<path class="st5" d="M83.22,72.38c-1.75,0-1.75,2.71,0,2.71C84.97,75.09,84.97,72.38,83.22,72.38z"/>
	<path class="st5" d="M91.39,62.17c-1.48,0-1.48,2.3,0,2.3C92.87,64.47,92.87,62.17,91.39,62.17z"/>
	<path class="st5" d="M100.17,72.44c-1.66,0-1.67,2.58,0,2.58C101.84,75.03,101.84,72.44,100.17,72.44z"/>
	<path class="st5" d="M107.32,57.75c-1.65,0-1.66,2.57,0,2.57C108.97,60.32,108.98,57.75,107.32,57.75z"/>
	<path class="st5" d="M111.4,54.88c-1.67,0-1.68,2.6,0,2.6C113.08,57.47,113.08,54.88,111.4,54.88z"/>
	<path class="st5" d="M121.82,49.82c-1.61,0-1.61,2.5,0,2.5C123.43,52.32,123.43,49.82,121.82,49.82z"/>
	<path class="st5" d="M127.74,61.51c-1.28,0-1.29,2,0,2C129.03,63.5,129.03,61.51,127.74,61.51z"/>
	<path class="st5" d="M143.06,54.22c-1.47,0-1.47,2.28,0,2.28C144.53,56.5,144.53,54.22,143.06,54.22z"/>
	<path class="st5" d="M140.2,48.78c-1.63,0-1.63,2.53,0,2.53C141.82,51.31,141.83,48.78,140.2,48.78z"/>
	<path class="st5" d="M148.16,41.35c-1.74,0-1.74,2.7,0,2.7C149.9,44.05,149.9,41.35,148.16,41.35z"/>
	<path class="st5" d="M150.2,44.59c-1.51,0-1.51,2.34,0,2.34C151.71,46.93,151.71,44.59,150.2,44.59z"/>
	<path class="st5" d="M149.39,57.9c-1.72,0-1.72,2.67,0,2.67C151.11,60.57,151.11,57.9,149.39,57.9z"/>
	<circle class="st5" cx="82.62" cy="96.63" r="0.9"/>
	<path class="st5" d="M86.08,96.24c-1,0-1,1.55,0,1.55C87.08,97.79,87.08,96.24,86.08,96.24z"/>
	<path class="st5" d="M60.56,95.11c-0.88,0-0.88,1.36,0,1.36C61.43,96.47,61.43,95.11,60.56,95.11z"/>
	<path class="st5" d="M58.72,99.09c-1.01,0-1.01,1.57,0,1.57C59.72,100.66,59.73,99.09,58.72,99.09z"/>
	<path class="st5" d="M56.68,105.48c-0.41,0-0.41,0.63,0,0.63C57.08,106.11,57.08,105.48,56.68,105.48z"/>
	<path class="st5" d="M53.41,117c-1.35,0-1.35,2.1,0,2.1C54.76,119.1,54.76,117,53.41,117z"/>
</g>
</svg>
