<?xml version="1.0" encoding="utf-8"?>
<!-- Generator: Adobe Illustrator 25.2.3, SVG Export Plug-In . SVG Version: 6.00 Build 0)  -->
<svg version="1.1" id="Layer_1" xmlns="http://www.w3.org/2000/svg" xmlns:xlink="http://www.w3.org/1999/xlink" x="0px" y="0px"
	 viewBox="0 0 104 156" style="enable-background:new 0 0 104 156;" xml:space="preserve">
<style type="text/css">
	.st0{fill:#997D4B;}
	.st1{fill:#4096C6;}
	.st2{fill:#7C643A;}
	.st3{fill:#466008;}
	.st4{fill:#79B8D3;}
	.st5{fill:#2B7D9E;}
</style>
<g>
	<path class="st0" d="M18.52-0.42h66.86c1.8,19.07,2.17,38.31,0.57,57.4c0.18,0.43,0.3,0.9,0.34,1.42
		c1.1,12.38,0.72,24.79,0.27,37.19c-0.39,10.81-0.84,21.61-0.34,32.42c0.25,5.34,0.67,10.67,0.1,16c-0.29,2.65-0.72,5.27-1.19,7.9
		c-0.24,1.35-0.35,3.03-0.75,4.51h-66.8c-0.13-0.63-0.12-1.3,0.05-1.97c1.04-4.02,0.65-7.68-0.18-11.7
		c-0.86-4.18-1.59-8.38-2.05-12.63c-0.89-8.11-0.82-16.3-0.42-24.43c0.73-14.87,2.68-29.68,2.93-44.58
		c0.26-15.18-2.58-30.39-1.04-45.56c0.38-3.77,1.18-7.47,1.63-11.24C18.68,2.67,18.64,1.13,18.52-0.42z"/>
	<path class="st1" d="M38.14,0.04c0.23,5.94,1.73,11.74,1.98,17.68c0.13,2.96-0.16,5.7-0.91,8.56c-0.68,2.59-1.45,5.2-1.35,7.9
		c0.1,2.67,1.06,4.95,1.88,7.44c0.91,2.75,0.49,4.86-0.25,7.6c-0.74,2.71-1.45,5.45-1.32,8.3c0.12,2.71,1.15,5.4,0.95,8.12
		c-0.19,2.55-1.36,4.94-1.39,7.54c-0.03,2.88,1.3,5.1,2.05,7.77c0.81,2.87,0.39,6,0.24,8.94c-0.15,2.96-0.3,5.92-0.45,8.88
		c-0.02,0.31,0.02,0.62,0.09,0.93c-0.42,4.19,0.15,8.52-0.1,12.69c-0.16,2.49-0.62,4.96-0.47,7.47c0.17,2.75,1.04,5.39,0.9,8.16
		c-0.14,2.79-0.72,5.5-0.73,8.31c-0.01,2.82,0.04,5.64-0.02,8.45c-0.07,3.53-1.03,7.88-0.47,11.63h28.1
		c-0.12-2.74-0.67-5.48-0.87-8.22c-0.3-4.29,0.4-8.37,0.78-12.63c0.35-3.91-0.47-7.88,0.61-11.7c1.12-3.99,2.21-7.4,1.13-11.57
		c-0.47-1.79-1.26-3.52-1.53-5.36c-0.3-1.99-0.09-4.12,0.07-6.11c0.33-4.23,0.45-8.17-0.32-12.37c-1.1-6.05,0.32-12.19,0.18-18.23
		c1.37-2.67,1.4-5.76,0.53-8.64c-0.48-1.62-1.27-3.16-1.65-4.8c-0.4-1.7-0.16-3.23,0.17-4.93c0.78-3.99,1.13-7.44-0.25-11.35
		c-0.5-1.42-1.31-2.93-1.13-4.47c0.19-1.65,1.23-3.35,1.84-4.87c1.33-3.28,1.62-6.57,0.59-9.99c-0.87-2.87-3.19-5.93-2.71-9.04
		c0.59-3.76,2.14-7.24,2.56-11.08c0.05-0.49,0.09-0.98,0.12-1.47H38.12C38.13-0.26,38.14-0.11,38.14,0.04z M54.72,154.9
		c0.06,0.16,0.11,0.31,0.17,0.47c-0.2,0.02-0.39,0.04-0.59,0.06c0.1-0.18,0.2-0.35,0.3-0.53C54.64,154.91,54.68,154.91,54.72,154.9z
		"/>
	<path class="st2" d="M82.27-0.42h10.46c-0.13,1.22-0.4,2.44,0.12,3.64c0.6,1.39,1.25,2.04,0.46,3.58c-0.22,0.43-0.96,0.96-1.1,1.4
		c-0.45,1.42,0.26,1.75,0.88,2.88c0.51,0.94,0.88,1.92,0.72,3.01c-0.31,2.06-2.19,3.1-2.3,5.29c-0.08,1.76,0.69,3.61,1,5.33
		c0.25,1.37,0.42,2.79,0.1,4.16c-0.18,0.76-0.5,1.42-0.89,2.09c-0.76,1.32-0.91,1.18,0.09,2.28c0.88,0.99,1.9,1.32,2.25,2.77
		c0.39,1.61-0.34,2.95-1.2,4.26c-1.6,2.46-2.68,4.1-1.61,7.14c0.59,1.67,1.53,3.19,2.07,4.88c1.27,3.95-0.31,7.26-2.54,10.43
		c1.27,1.19,2.55,2.55,2.49,4.27c-0.06,1.48-0.98,3.13-2.21,4.13c-0.35,1.99-0.15,3.4,1.01,5.48c0.55,0.99,0.93,1.76,0.93,2.92
		c-0.01,1.49-0.8,2.74-1.05,4.17c-0.33,1.92,0.89,3.47,0.75,5.34c-0.17,2.23-1.89,3.22-3.08,4.86c-2.5,3.45,2.74,5.94,3.39,9.24
		c0.18,0.92,0.13,1.89-0.21,2.76c-0.56,1.38-1.84,1.87-1.75,3.45c0.07,1.15,0.77,1.94,0.53,3.18c-0.23,1.14-0.37,1.15-0.16,2.17
		c0.21,1.05,0.42,1.62-0.03,2.66c-0.7,1.65-1.06,2.54,0.15,4.15c1.4,1.88,2.31,4.14,1.13,6.3c-0.1,0.17-0.21,0.31-0.34,0.4
		c-0.34,2.63-3.6,3.96-3.46,6.92c0.13,2.92,3.49,4.29,3.67,7.09c0.12,1.83-1.1,3.28-0.95,5.2c0.12,1.61,0.51,3.19,0.63,4.8
		c0.1,1.36,0.21,2.79,0.12,4.18h-9.88c-0.07-2.49,0.32-4.83,1.17-7.24c0.67-1.9,0.5-3-0.08-4.85c-0.28-0.93-0.48-1.89-0.29-2.86
		c0.12-0.63,0.48-1.03,0.62-1.61c0.37-1.53,0.1-2.76-0.37-4.14c-0.34-1-0.67-1.94-0.76-3c-0.28-3.08,2.04-5.8,1.38-8.75
		c-0.02-0.08-0.03-0.16-0.04-0.23c-1.02-1.16-1.62-2.51-1.77-4.26c-0.25-2.99,1.3-5.71,1.33-8.65c0.02-2.7-2.16-4.71-1.78-7.46
		c0.21-1.49,0.85-2.43,0.75-3.95c-0.08-1.4-0.52-2.61-0.37-4.01c0.38-3.49,2.58-6.27,2.32-9.93c-0.24-3.31-2.27-5.61-3.39-8.58
		c-0.94-2.47-0.58-4.79,0.48-7.16c0.73-1.65,1.68-3.16,1.97-4.97c0.2-1.29-0.02-2.49,0.26-3.72c-0.75-1.81-2.1-3.01-1.59-5.45
		c0.31-1.48,1.17-2.78,1.56-4.23c0.61-2.26-0.04-3.86-1.28-5.71c-1.38-2.06-2.21-3.98-1.22-6.4c0.99-2.41,3.41-3.91,2.62-6.71
		c-0.32-1.15-0.69-2.02-0.42-3.23c0.27-1.22,1.24-1.85,1.7-2.93c0.61-1.45-0.4-2.93-0.55-4.42c-0.13-1.42,0.32-2.81,0.25-4.23
		c-0.1-1.94-0.93-3.76-1.47-5.59c-0.51-1.71-0.41-2.81-0.53-4.53C82.75,4.88,82.32,2.28,82.27-0.42z"/>
	<path class="st2" d="M11.6-0.42h10.78c0.1,3.2-0.46,6.7-1.5,9.33c-0.56,1.43-1.08,2.57-1.13,4.14c-0.05,1.67,0.74,3.12,0.88,4.74
		c0.06,0.68,0.01,1.24-0.2,1.71c0.26,0.29,0.38,0.7,0.23,1.19c-0.94,3.07-0.59,5.7-0.31,8.83c0.12,1.37,0.04,2.64-0.01,4.01
		c-0.09,2.13,0.15,2.8,1.04,4.45c1.19,2.21-0.02,3.69-0.47,5.9c-0.63,3.11,0.27,6.76,0.56,9.89c0.29,3.22,0.45,6.44-0.04,9.66
		c-0.2,1.33-0.69,2.63-0.82,3.96c-0.15,1.51,0.47,2.84,0.59,4.34c0.1,1.26-0.17,2.48-0.39,3.71c-0.32,1.87-0.2,3.46-0.04,5.34
		c0.14,1.62,0.08,2.92-0.49,4.18c0.34,0.36,0.52,0.85,0.32,1.4c-1.99,5.58-2.71,10.99-0.56,16.67c0.79,2.08,1.39,3.81,1.15,6.06
		c-0.26,2.5-1.49,4.79-1.48,7.33c0.02,2.73,1.13,5.28,0.89,8.05c-0.23,2.68-1.23,5.05-0.41,7.74c0.56,1.86,1.16,3.15,0.93,5.16
		c-0.12,1.02-0.41,1.99-0.56,3c-0.35,2.23,0.2,3.77,1.21,5.73c0.2,0.39,0.13,0.82-0.08,1.15c0.59,1.68,0.56,3.85,0.55,5.51
		c-0.01,1.12-0.07,2.42-0.29,3.66h-9.56c-0.2-0.61,0.01-1.24,0.4-1.79c-0.91-0.49-1.37-1.46-1.19-2.42
		c-0.01-0.02-0.03-0.04-0.05-0.06c-1.62-2.05-0.96-4.39-0.48-6.69c0.74-3.53-1.16-6.7-0.56-10.18c0.34-1.97,1.08-3.28,0.56-5.34
		c-0.36-1.43-0.72-2.27-0.5-3.77c0.29-1.98,1.12-3.61,1.18-5.67c0.04-1.62-0.21-3.23-0.17-4.86c0.04-1.8,0.59-3.53,0.67-5.32
		c0.08-1.88-0.69-3.26-1.1-5.02c-0.8-3.49,1.23-6.78,0.45-10.38c-0.13-0.57,0.04-1.05,0.36-1.38c-0.97-1.24-1.72-2.68-1.51-4.28
		c0.14-1.11,0.75-2.05,1.11-3.09c0.7-2,0.67-3.58-0.08-5.56c-0.81-2.17-1.92-4.16-1.18-6.54c0.63-2.03,2.6-3.26,3.27-5.21
		c0.68-1.98-1.68-5.58-1.79-7.88c-0.14-3.24-0.03-6.48-0.23-9.72c-0.2-3.34-0.64-6.63-0.99-9.96c-0.21-2.02-0.02-3.74,1.33-5.31
		c0.06-0.06,0.11-0.1,0.17-0.15c0.12-1.19-0.35-2.06-0.77-3.39c-0.5-1.57-0.39-3.58-0.35-5.23c0.04-1.64,0.23-3.29,0.7-4.86
		c0.7-2.37,1.15-3.82,0.38-6.3c-0.46-1.49-0.46-2.71-0.02-4.21c0.67-2.25,0.1-3.71-0.25-6c-0.26-1.69-0.2-3.38-0.17-5.07
		C11.63,0.37,11.62-0.03,11.6-0.42z"/>
	<path class="st3" d="M10.61-0.42h2.51c0.2,1.21,0.25,2.41,0.07,3.67c-0.17,1.14-0.68,2.41-0.43,3.58c0.18,0.85,0.77,1.52,0.99,2.35
		c0.29,1.13,0.36,2.04-0.06,3.16c-0.5,1.3-0.88,1.27-0.7,2.81c0.13,1.16,0.53,1.72,0.9,2.75c0.92,2.55-0.35,4.78-1.38,7.08
		c-1.02,2.25-1.02,3.17-0.02,5.43c0.51,1.16,0.98,2.25,0.96,3.56c-0.03,1.78-1.23,2.96-1.49,4.61c-0.22,1.39,0.89,2.68,0.96,4.09
		c0.08,1.84-0.48,3.71-0.53,5.55c-0.09,2.6,0.41,5.05,0.82,7.6c0.28,1.7,0.24,3.23-0.19,4.88c-0.34,1.28-0.6,1.49-0.07,2.9
		c0.48,1.29,0.95,1.51,1.72,2.54c1.19,1.59,1.59,3.48,0.25,5.02c-0.06,0.13-0.16,0.26-0.29,0.37c-1.09,0.95-2.37,1.95-3.06,3.27
		c-1.22,2.32-0.05,3.2,1.07,5.04c0.75,1.22,1.43,2.13,1.24,3.61c-0.19,1.46-1.1,2.6-1.84,3.82c-1.56,2.6-0.65,3.6,0.89,5.88
		c2.02,2.98,1,4.82-0.69,7.64c-1.45,2.43-0.08,3.84,0.83,6.03c0.78,1.88,0.77,3.69,0.46,5.67c-0.45,2.86-0.69,5.21-0.48,8.09
		c0.13,1.86,0.23,3.71-0.43,5.5c-0.56,1.51-1.49,2.17-0.88,4.14c0.18,0.56,0.88,1.14,1.1,1.74c0.43,1.22,0.26,2.48-0.02,3.71
		c-0.23,1.04-0.7,2.04-0.84,3.1c-0.22,1.64,0.3,2.22,0.83,3.61c0.59,1.54,0.7,2.62,0.17,4.17c-0.27,0.78-1.01,1.61-1.15,2.43
		c-0.26,1.68,0.67,1.87,1.19,3c0.58,1.27,0.5,2.93,0.4,4.47h-2.46c0.04-0.91,0.07-1.83-0.08-2.65c-0.23-1.24-1.07-1.67-1.45-2.79
		c-0.48-1.39,0.07-2.49,0.51-3.8c0.56-1.68,1.14-2.6,0.39-4.33c-0.38-0.87-0.75-1.6-0.85-2.56c-0.17-1.58,0.37-3.02,0.76-4.53
		c0.5-1.94,0.13-2.74-0.78-4.49c-0.22-0.42-0.56-0.81-0.68-1.29c-0.44-1.7,0.7-2.85,1.34-4.26c1.17-2.65,0.26-5.45,0.26-8.2
		c0.01-2.8,1.32-5.66,0.8-8.42c-0.39-2.03-1.98-3.59-2.22-5.66c-0.19-1.61,0.55-2.92,1.39-4.23c0.57-0.89,1.51-2.1,1.34-3.25
		c-0.15-1.01-1.24-1.99-1.79-2.77c-0.84-1.18-1.48-2.4-1.34-3.9c0.14-1.49,1.02-2.68,1.78-3.9c1-1.61,1.3-2.86,0.01-4.45
		c-0.41-0.5-0.89-0.98-1.21-1.56c-2.02-3.76,1.06-7.24,3.71-9.55c0.06-0.09,0.11-0.17,0.19-0.24c1.2-1.24-2.02-3.47-2.57-4.53
		c-0.41-0.8-0.55-1.64-0.48-2.52c0.14-1.83,1.07-3.38,0.96-5.27c-0.11-2.07-0.79-4.13-0.95-6.22c-0.13-1.76-0.09-3.52,0.12-5.27
		c0.1-0.83,0.4-1.84,0.36-2.69c-0.06-1.42-0.74-1.72-0.96-2.84c-0.66-3.32,2.48-5.5,0.67-8.93c-1.1-2.09-1.37-3.71-0.51-5.99
		c0.55-1.43,1.48-2.75,1.88-4.23c0.5-1.87-0.45-2.9-1.07-4.49c-0.39-1.01-0.51-1.9-0.22-2.96c0.18-0.62,0.69-1.12,0.88-1.7
		c0.45-1.38,0.11-2.26-0.38-3.54C9.63,5.48,11.01,2.63,10.61-0.42z"/>
	<path class="st3" d="M91.26-0.42h2.52c0.04,0.31,0.06,0.64,0.05,0.97c-0.01,0.53-0.36,1.49-0.45,2.14
		c0.26-0.09,1.16,0.83,1.36,1.18c0.43,0.75,0.39,1.63,0.13,2.41c-0.22,0.64-0.59,1.07-0.98,1.6c-1.08,1.49-0.74,1.72,0.05,3.23
		c0.64,1.24,1.35,2.36,1.23,3.84c-0.12,1.34-0.83,1.75-1.48,2.78c-2.02,3.22-0.66,4.34,0.41,7.41c0.42,1.23,0.63,2.21,0.13,3.44
		c-0.69,1.7-2.6,2.31-1.04,4.21c0.7,0.86,1.73,1.32,2.16,2.43c1.07,2.8-2.34,4.94-2.84,7.48s-0.34,5.17,1,7.33
		c0.88,1.4,1.31,2.76,1.56,4.42c0.2,1.34,0.27,2.54-0.31,3.8c-0.62,1.37-3.18,3.1-2.6,4.72c0.05,0.04,0.1,0.07,0.15,0.12l2.38,2.25
		c0.3,0.28,0.45,0.8,0.31,1.19c-0.83,2.32-3.22,4.27-2.7,6.85c0.34,1.67,1.62,3.13,2.21,4.72c0.55,1.49,0.48,2.62,0.08,4.09
		c-0.43,1.6-0.87,2.75-0.46,4.45c0.17,0.72,0.45,1.3,0.42,2.06c-0.09,3.12-4.72,5.53-3.42,8.64c1.15,2.75,5.21,4.45,3.5,8.07
		c-0.47,0.98-1.61,1.4-2.1,2.28c-0.56,1,0.12,1.64,0.13,2.49c0.02,1.4-0.17,1.67,0.42,3.04c0.4,0.91,0.53,1.61,0.14,2.57
		c-0.31,0.78-1.1,1.34-1.38,2.1c-0.55,1.49,0.15,2.49,1.15,3.57c2.08,2.27,3.41,4.5,1.57,7.43c-1.23,1.96-3.79,3.14-4.24,5.5
		c-0.44,2.29,1.51,2.95,2.85,4.5c2.57,2.98-0.33,4.91-0.42,8.12c-0.09,3.27,1.48,6.22,0.67,9.41h-2.56
		c1.39-3.97-1.58-8.09-0.04-12.13c0.55-1.43,1.6-2.08,0.4-3.91c-0.42-0.66-1.31-1.13-1.87-1.69c-0.99-0.99-1.76-2.06-1.84-3.51
		c-0.08-1.51,0.72-2.87,1.64-4.01c0.51-0.63,1.11-1.16,1.69-1.73c1.3-1.27,1.9-1.78,1.58-3.72c-0.53-3.19-4.84-4.98-2.91-8.74
		c0.39-0.75,1.34-1.39,1.28-2.27c-0.04-0.68-0.54-0.8-0.77-1.38c-0.49-1.27,0.2-1.61,0.12-2.79c-0.03-0.48-0.57-1.04-0.61-1.64
		c-0.05-0.67,0.06-1.15,0.39-1.78c0.3-0.57,0.87-0.94,1.21-1.45c1.57-2.35,0.35-3.93-1-5.51c-1.78-2.1-2.32-4.31-0.9-6.78
		c0.74-1.29,2.23-2.44,2.61-3.9c0.48-1.86-1.15-3.38-0.94-5.25c0.22-2.03,2.02-3.1,1.24-5.31c-0.51-1.46-1.47-2.73-2-4.18
		c-1.3-3.55,0.93-5.27,2.2-8.18c-0.53-0.51-1.07-1.01-1.6-1.51c-0.22-0.09-0.42-0.25-0.58-0.5c-0.72-1.12-0.83-2.16-0.38-3.42
		c0.54-1.51,2.11-2.32,2.66-3.74c1.11-2.88-0.88-4.89-1.94-7.19c-0.58-1.27-0.64-2.54-0.67-3.93c-0.04-1.7,0-3.49,0.48-5.13
		c0.42-1.43,1.52-2.36,2.1-3.63c1.07-2.33-0.75-2.29-1.82-3.84c-0.56-0.81-0.85-1.59-0.69-2.58c0.2-1.27,1.29-1.88,1.75-2.97
		c0.75-1.78-1.23-4.96-1.57-6.78c-0.21-1.1-0.35-2.25,0.08-3.31c0.34-0.81,0.74-0.93,1.24-1.61c1.64-2.22,1.1-2.87,0.1-4.44
		c-0.66-1.04-1.26-1.8-1.01-3.11c0.18-0.97,2.07-2.7,1.94-3.46c-0.1-0.57-1.29-0.7-1.54-1.71c-0.1-0.41,0.09-0.75,0.11-1.16
		C91.09,1.46,91.31,0.59,91.26-0.42z"/>
	<path class="st4" d="M35.7-0.42h3.43c-0.56,4.32,0.21,7.88,1.6,12.15c0.96,2.91,1.29,5.61,0.67,8.63
		c-0.7,3.39-2.49,6.65-2.42,10.16c0.07,3.3,1.87,6.27,2.38,9.5c0.54,3.47-0.72,6.33-1.46,9.65c-0.87,3.96,0.48,7.55,1.1,11.43
		c0.55,3.5-0.12,6.35-1.13,9.67c-1.26,4.18-0.64,7.71,0.67,11.74c0.12,0.16,0.22,0.34,0.29,0.57c0.89,3.05,1.64,6.13,0.89,9.3
		c-0.84,3.53-2.3,5.97-1.3,9.73c0.69,2.62,1.66,5.15,1.35,7.9c-0.38,3.47-1.65,6.51-1.26,10.1c0.22,2,1.06,3.9,1.61,5.84
		c0.1,0.32,0.18,0.66,0.25,0.98c0.23,1.02,0.32,2.06,0.16,3.13c-0.59,3.92-3.09,6.93-2.02,11.11c0.64,2.49,1.89,4.8,1.03,7.41
		c-0.29,0.88-0.69,1.65-1.1,2.39c-0.36,0.8-0.73,1.59-0.97,2.46c-0.28,0.99-0.28,1.98-0.26,2.98h-3.49
		c-0.14-1.72,0.26-3.54,0.89-5.04c0.92-2.2,1.66-3.87,1.64-6.31c-0.01-0.5-0.02-0.88,0-1.22c-0.32-0.93-0.7-1.84-0.89-2.8
		c-0.63-3.05,0.23-6.05,1.18-8.93c0.74-2.26,0.74-3.93,0.04-6.17c-0.51-1.62-1.04-3.15-1.29-4.83c-0.44-3.11-0.12-6.03,0.61-9.06
		c0.9-3.76-0.18-6.35-0.99-9.96c-0.59-2.61-0.39-4.91,0.47-7.44c1.31-3.85,1.3-6.71,0.14-10.65c-0.13-0.44-0.09-0.82,0.06-1.15
		c-1.62-2.82-2.14-6.27-1.76-9.47c0.47-3.93,2.41-7.31,1.84-11.36c-0.5-3.62-1.89-7.09-1.57-10.81c0.34-3.91,2.57-7.41,1.64-11.42
		c-0.76-3.28-2.39-6.31-2.3-9.76c0.09-3.39,1.53-6.48,2.32-9.73C38.77,16,36.96,12.9,36.06,8.8C35.39,5.75,35.28,2.65,35.7-0.42z"/>
	<path class="st4" d="M65.51-0.42h3.46c0.06,2.46,0.47,4.94,0.01,7.37c-0.61,3.23-3.11,5.78-2.66,9.21c0.41,3.17,3.39,4.89,3.9,7.98
		c0.5,3.12-1.21,5.83-2.2,8.65c-1.45,4.14,0.18,6.62,1.18,10.48c0.7,2.7,0.14,5.2-0.61,7.82c-0.46,1.62-1.17,3.48-0.83,5.2
		c0.23,1.19,1.02,2.24,1.44,3.38c0.8,2.22,0.86,4.67,0.4,7c0.15,0.25,0.26,0.55,0.26,0.91c0.09,4.55-0.53,8.9-1.64,13.31
		c-0.65,2.6-0.82,4.54,0.04,7.12c0.62,1.84,1.19,3.53,1.38,5.47c0.4,3.99-0.53,7.95-0.65,11.93c-0.07,2.3,0.21,4.37,1.07,6.5
		c0.65,1.62,1.33,3.11,1.4,4.88c0.15,3.68-1.87,6.81-2.82,10.25c-1.13,4.08,1.21,7.64,0.81,11.7c-0.39,4.03-2.86,7.11-1.35,11.2
		c0.81,2.18,0.97,4.31,0.83,6.48h-3.47c0.14-1.45,0.1-2.89-0.32-4.33c-0.41-1.38-1.11-2.55-1.26-4.02
		c-0.4-4.09,2.56-7.67,1.92-11.74c-0.58-3.66-1.71-6.52-0.66-10.24c0.97-3.45,3.39-6.89,2.44-10.59c-0.51-1.98-1.58-3.65-1.94-5.7
		c-0.32-1.78-0.35-3.57-0.24-5.37c0.23-3.93,1.22-7.99,0.45-11.92c-0.42-2.1-1.46-4.01-1.8-6.13c-0.26-1.66-0.05-3.33,0.29-4.97
		c0.97-4.67,1.95-9,1.86-13.82c-0.01-0.47,0.13-0.85,0.37-1.13c-0.03-1.45,0.02-2.92-0.31-4.33c-0.36-1.47-1.23-2.63-1.73-4.03
		c-0.84-2.36-0.39-4.74,0.26-7.08c0.44-1.61,1.1-3.25,1.11-4.94c0.02-1.63-0.66-3.11-1.24-4.6c-1.05-2.71-1.4-5.2-0.69-8.06
		c0.43-1.7,1.2-3.27,1.83-4.91c0.32-0.86,0.65-1.67,0.74-2.59c0.14-1.6-0.78-2.66-1.62-3.89c-1.48-2.14-2.42-4.39-2.36-7.05
		c0.06-2.8,1.46-4.75,2.39-7.27C65.9,5.16,65.61,2.34,65.51-0.42z"/>
	<path class="st5" d="M50.45,88.09L50.45,88.09c0.06-0.04,0.12-0.07,0.18-0.09c0.03-0.02,0.06-0.03,0.1-0.04
		c0.05-0.02,0.1-0.03,0.15-0.04c0.16-0.02,0.32-0.01,0.48,0.04c0.04,0.02,0.09,0.04,0.13,0.06c0.04,0.02,0.09,0.04,0.12,0.07
		c0.07,0.05,0.14,0.11,0.2,0.18c-0.02-0.65-0.04-1.29-0.06-1.94c-0.02-0.65-0.04-1.3-0.06-1.95c-0.02-0.65-0.03-1.3-0.04-1.95
		c-0.02-0.65-0.02-1.29-0.03-1.94c-0.15,0.02-0.3,0.02-0.45-0.01c-0.07-0.01-0.15-0.03-0.21-0.06c-0.15-0.06-0.3-0.13-0.42-0.24
		c-0.01,0-0.01-0.01-0.01-0.01C50.49,82.82,50.46,85.45,50.45,88.09z M50.45,88.09L50.45,88.09c0.06-0.04,0.12-0.07,0.18-0.09
		c0.03-0.02,0.06-0.03,0.1-0.04c0.05-0.02,0.1-0.03,0.15-0.04c0.16-0.02,0.32-0.01,0.48,0.04c0.04,0.02,0.09,0.04,0.13,0.06
		c0.04,0.02,0.09,0.04,0.12,0.07c0.07,0.05,0.14,0.11,0.2,0.18c-0.02-0.65-0.04-1.29-0.06-1.94c-0.02-0.65-0.04-1.3-0.06-1.95
		c-0.02-0.65-0.03-1.3-0.04-1.95c-0.02-0.65-0.02-1.29-0.03-1.94c-0.15,0.02-0.3,0.02-0.45-0.01c-0.07-0.01-0.15-0.03-0.21-0.06
		c-0.15-0.06-0.3-0.13-0.42-0.24c-0.01,0-0.01-0.01-0.01-0.01C50.49,82.82,50.46,85.45,50.45,88.09z M50.45,88.09L50.45,88.09
		c0.06-0.04,0.12-0.07,0.18-0.09c0.03-0.02,0.06-0.03,0.1-0.04c0.05-0.02,0.1-0.03,0.15-0.04c0.16-0.02,0.32-0.01,0.48,0.04
		c0.04,0.02,0.09,0.04,0.13,0.06c0.04,0.02,0.09,0.04,0.12,0.07c0.07,0.05,0.14,0.11,0.2,0.18c-0.02-0.65-0.04-1.29-0.06-1.94
		c-0.02-0.65-0.04-1.3-0.06-1.95c-0.02-0.65-0.03-1.3-0.04-1.95c-0.02-0.65-0.02-1.29-0.03-1.94c-0.15,0.02-0.3,0.02-0.45-0.01
		c-0.07-0.01-0.15-0.03-0.21-0.06c-0.15-0.06-0.3-0.13-0.42-0.24c-0.01,0-0.01-0.01-0.01-0.01C50.49,82.82,50.46,85.45,50.45,88.09z
		 M50.45,88.09L50.45,88.09c0.06-0.04,0.12-0.07,0.18-0.09c0.03-0.02,0.06-0.03,0.1-0.04c0.05-0.02,0.1-0.03,0.15-0.04
		c0.16-0.02,0.32-0.01,0.48,0.04c0.04,0.02,0.09,0.04,0.13,0.06c0.04,0.02,0.09,0.04,0.12,0.07c0.07,0.05,0.14,0.11,0.2,0.18
		c-0.02-0.65-0.04-1.29-0.06-1.94c-0.02-0.65-0.04-1.3-0.06-1.95c-0.02-0.65-0.03-1.3-0.04-1.95c-0.02-0.65-0.02-1.29-0.03-1.94
		c-0.15,0.02-0.3,0.02-0.45-0.01c-0.07-0.01-0.15-0.03-0.21-0.06c-0.15-0.06-0.3-0.13-0.42-0.24c-0.01,0-0.01-0.01-0.01-0.01
		C50.49,82.82,50.46,85.45,50.45,88.09z M50.45,88.09L50.45,88.09c0.06-0.04,0.12-0.07,0.18-0.09c0.03-0.02,0.06-0.03,0.1-0.04
		c0.05-0.02,0.1-0.03,0.15-0.04c0.16-0.02,0.32-0.01,0.48,0.04c0.04,0.02,0.09,0.04,0.13,0.06c0.04,0.02,0.09,0.04,0.12,0.07
		c0.07,0.05,0.14,0.11,0.2,0.18c-0.02-0.65-0.04-1.29-0.06-1.94c-0.02-0.65-0.04-1.3-0.06-1.95c-0.02-0.65-0.03-1.3-0.04-1.95
		c-0.02-0.65-0.02-1.29-0.03-1.94c-0.15,0.02-0.3,0.02-0.45-0.01c-0.07-0.01-0.15-0.03-0.21-0.06c-0.15-0.06-0.3-0.13-0.42-0.24
		c-0.01,0-0.01-0.01-0.01-0.01C50.49,82.82,50.46,85.45,50.45,88.09z M50.45,88.09L50.45,88.09c0.06-0.04,0.12-0.07,0.18-0.09
		c0.03-0.02,0.06-0.03,0.1-0.04c0.05-0.02,0.1-0.03,0.15-0.04c0.16-0.02,0.32-0.01,0.48,0.04c0.04,0.02,0.09,0.04,0.13,0.06
		c0.04,0.02,0.09,0.04,0.12,0.07c0.07,0.05,0.14,0.11,0.2,0.18c-0.02-0.65-0.04-1.29-0.06-1.94c-0.02-0.65-0.04-1.3-0.06-1.95
		c-0.02-0.65-0.03-1.3-0.04-1.95c-0.02-0.65-0.02-1.29-0.03-1.94c-0.15,0.02-0.3,0.02-0.45-0.01c-0.07-0.01-0.15-0.03-0.21-0.06
		c-0.15-0.06-0.3-0.13-0.42-0.24c-0.01,0-0.01-0.01-0.01-0.01C50.49,82.82,50.46,85.45,50.45,88.09z M50.45,88.09L50.45,88.09
		c0.06-0.04,0.12-0.07,0.18-0.09c0.03-0.02,0.06-0.03,0.1-0.04c0.05-0.02,0.1-0.03,0.15-0.04c0.16-0.02,0.32-0.01,0.48,0.04
		c0.04,0.02,0.09,0.04,0.13,0.06c0.04,0.02,0.09,0.04,0.12,0.07c0.07,0.05,0.14,0.11,0.2,0.18c-0.02-0.65-0.04-1.29-0.06-1.94
		c-0.02-0.65-0.04-1.3-0.06-1.95c-0.02-0.65-0.03-1.3-0.04-1.95c-0.02-0.65-0.02-1.29-0.03-1.94c-0.15,0.02-0.3,0.02-0.45-0.01
		c-0.07-0.01-0.15-0.03-0.21-0.06c-0.15-0.06-0.3-0.13-0.42-0.24c-0.01,0-0.01-0.01-0.01-0.01C50.49,82.82,50.46,85.45,50.45,88.09z
		 M50.45,88.09L50.45,88.09c0.06-0.04,0.12-0.07,0.18-0.09c0.03-0.02,0.06-0.03,0.1-0.04c0.05-0.02,0.1-0.03,0.15-0.04
		c0.16-0.02,0.32-0.01,0.48,0.04c0.04,0.02,0.09,0.04,0.13,0.06c0.04,0.02,0.09,0.04,0.12,0.07c0.07,0.05,0.14,0.11,0.2,0.18
		c-0.02-0.65-0.04-1.29-0.06-1.94c-0.02-0.65-0.04-1.3-0.06-1.95c-0.02-0.65-0.03-1.3-0.04-1.95c-0.02-0.65-0.02-1.29-0.03-1.94
		c-0.15,0.02-0.3,0.02-0.45-0.01c-0.07-0.01-0.15-0.03-0.21-0.06c-0.15-0.06-0.3-0.13-0.42-0.24c-0.01,0-0.01-0.01-0.01-0.01
		C50.49,82.82,50.46,85.45,50.45,88.09z M50.45,88.09L50.45,88.09c0.06-0.04,0.12-0.07,0.18-0.09c0.03-0.02,0.06-0.03,0.1-0.04
		c0.05-0.02,0.1-0.03,0.15-0.04c0.16-0.02,0.32-0.01,0.48,0.04c0.04,0.02,0.09,0.04,0.13,0.06c0.04,0.02,0.09,0.04,0.12,0.07
		c0.07,0.05,0.14,0.11,0.2,0.18c-0.02-0.65-0.04-1.29-0.06-1.94c-0.02-0.65-0.04-1.3-0.06-1.95c-0.02-0.65-0.03-1.3-0.04-1.95
		c-0.02-0.65-0.02-1.29-0.03-1.94c-0.15,0.02-0.3,0.02-0.45-0.01c-0.07-0.01-0.15-0.03-0.21-0.06c-0.15-0.06-0.3-0.13-0.42-0.24
		c-0.01,0-0.01-0.01-0.01-0.01C50.49,82.82,50.46,85.45,50.45,88.09z M50.45,88.09L50.45,88.09c0.06-0.04,0.12-0.07,0.18-0.09
		c0.03-0.02,0.06-0.03,0.1-0.04c0.05-0.02,0.1-0.03,0.15-0.04c0.16-0.02,0.32-0.01,0.48,0.04c0.04,0.02,0.09,0.04,0.13,0.06
		c0.04,0.02,0.09,0.04,0.12,0.07c0.07,0.05,0.14,0.11,0.2,0.18c-0.02-0.65-0.04-1.29-0.06-1.94c-0.02-0.65-0.04-1.3-0.06-1.95
		c-0.02-0.65-0.03-1.3-0.04-1.95c-0.02-0.65-0.02-1.29-0.03-1.94c-0.15,0.02-0.3,0.02-0.45-0.01c-0.07-0.01-0.15-0.03-0.21-0.06
		c-0.15-0.06-0.3-0.13-0.42-0.24c-0.01,0-0.01-0.01-0.01-0.01C50.49,82.82,50.46,85.45,50.45,88.09z M50.45,88.09L50.45,88.09
		c0.06-0.04,0.12-0.07,0.18-0.09c0.03-0.02,0.06-0.03,0.1-0.04c0.05-0.02,0.1-0.03,0.15-0.04c0.16-0.02,0.32-0.01,0.48,0.04
		c0.04,0.02,0.09,0.04,0.13,0.06c0.04,0.02,0.09,0.04,0.12,0.07c0.07,0.05,0.14,0.11,0.2,0.18c-0.02-0.65-0.04-1.29-0.06-1.94
		c-0.02-0.65-0.04-1.3-0.06-1.95c-0.02-0.65-0.03-1.3-0.04-1.95c-0.02-0.65-0.02-1.29-0.03-1.94c-0.15,0.02-0.3,0.02-0.45-0.01
		c-0.07-0.01-0.15-0.03-0.21-0.06c-0.15-0.06-0.3-0.13-0.42-0.24c-0.01,0-0.01-0.01-0.01-0.01C50.49,82.82,50.46,85.45,50.45,88.09z
		 M50.45,88.09L50.45,88.09c0.06-0.04,0.12-0.07,0.18-0.09c0.03-0.02,0.06-0.03,0.1-0.04c0.05-0.02,0.1-0.03,0.15-0.04
		c0.16-0.02,0.32-0.01,0.48,0.04c0.04,0.02,0.09,0.04,0.13,0.06c0.04,0.02,0.09,0.04,0.12,0.07c0.07,0.05,0.14,0.11,0.2,0.18
		c-0.02-0.65-0.04-1.29-0.06-1.94c-0.02-0.65-0.04-1.3-0.06-1.95c-0.02-0.65-0.03-1.3-0.04-1.95c-0.02-0.65-0.02-1.29-0.03-1.94
		c-0.15,0.02-0.3,0.02-0.45-0.01c-0.07-0.01-0.15-0.03-0.21-0.06c-0.15-0.06-0.3-0.13-0.42-0.24c-0.01,0-0.01-0.01-0.01-0.01
		C50.49,82.82,50.46,85.45,50.45,88.09z M50.45,88.09L50.45,88.09c0.06-0.04,0.12-0.07,0.18-0.09c0.03-0.02,0.06-0.03,0.1-0.04
		c0.05-0.02,0.1-0.03,0.15-0.04c0.16-0.02,0.32-0.01,0.48,0.04c0.04,0.02,0.09,0.04,0.13,0.06c0.04,0.02,0.09,0.04,0.12,0.07
		c0.07,0.05,0.14,0.11,0.2,0.18c-0.02-0.65-0.04-1.29-0.06-1.94c-0.02-0.65-0.04-1.3-0.06-1.95c-0.02-0.65-0.03-1.3-0.04-1.95
		c-0.02-0.65-0.02-1.29-0.03-1.94c-0.15,0.02-0.3,0.02-0.45-0.01c-0.07-0.01-0.15-0.03-0.21-0.06c-0.15-0.06-0.3-0.13-0.42-0.24
		c-0.01,0-0.01-0.01-0.01-0.01C50.49,82.82,50.46,85.45,50.45,88.09z M50.45,88.09L50.45,88.09c0.06-0.04,0.12-0.07,0.18-0.09
		c0.03-0.02,0.06-0.03,0.1-0.04c0.05-0.02,0.1-0.03,0.15-0.04c0.16-0.02,0.32-0.01,0.48,0.04c0.04,0.02,0.09,0.04,0.13,0.06
		c0.04,0.02,0.09,0.04,0.12,0.07c0.07,0.05,0.14,0.11,0.2,0.18c-0.02-0.65-0.04-1.29-0.06-1.94c-0.02-0.65-0.04-1.3-0.06-1.95
		c-0.02-0.65-0.03-1.3-0.04-1.95c-0.02-0.65-0.02-1.29-0.03-1.94c-0.15,0.02-0.3,0.02-0.45-0.01c-0.07-0.01-0.15-0.03-0.21-0.06
		c-0.15-0.06-0.3-0.13-0.42-0.24c-0.01,0-0.01-0.01-0.01-0.01C50.49,82.82,50.46,85.45,50.45,88.09z M50.45,88.09L50.45,88.09
		c0.06-0.04,0.12-0.07,0.18-0.09c0.03-0.02,0.06-0.03,0.1-0.04c0.05-0.02,0.1-0.03,0.15-0.04c0.16-0.02,0.32-0.01,0.48,0.04
		c0.04,0.02,0.09,0.04,0.13,0.06c0.04,0.02,0.09,0.04,0.12,0.07c0.07,0.05,0.14,0.11,0.2,0.18c-0.02-0.65-0.04-1.29-0.06-1.94
		c-0.02-0.65-0.04-1.3-0.06-1.95c-0.02-0.65-0.03-1.3-0.04-1.95c-0.02-0.65-0.02-1.29-0.03-1.94c-0.15,0.02-0.3,0.02-0.45-0.01
		c-0.07-0.01-0.15-0.03-0.21-0.06c-0.15-0.06-0.3-0.13-0.42-0.24c-0.01,0-0.01-0.01-0.01-0.01C50.49,82.82,50.46,85.45,50.45,88.09z
		 M50.45,88.09L50.45,88.09c0.06-0.04,0.12-0.07,0.18-0.09c0.03-0.02,0.06-0.03,0.1-0.04c0.05-0.02,0.1-0.03,0.15-0.04
		c0.16-0.02,0.32-0.01,0.48,0.04c0.04,0.02,0.09,0.04,0.13,0.06c0.04,0.02,0.09,0.04,0.12,0.07c0.07,0.05,0.14,0.11,0.2,0.18
		c-0.02-0.65-0.04-1.29-0.06-1.94c-0.02-0.65-0.04-1.3-0.06-1.95c-0.02-0.65-0.03-1.3-0.04-1.95c-0.02-0.65-0.02-1.29-0.03-1.94
		c-0.15,0.02-0.3,0.02-0.45-0.01c-0.07-0.01-0.15-0.03-0.21-0.06c-0.15-0.06-0.3-0.13-0.42-0.24c-0.01,0-0.01-0.01-0.01-0.01
		C50.49,82.82,50.46,85.45,50.45,88.09z M50.45,88.09L50.45,88.09c0.06-0.04,0.12-0.07,0.18-0.09c0.03-0.02,0.06-0.03,0.1-0.04
		c0.05-0.02,0.1-0.03,0.15-0.04c0.16-0.02,0.32-0.01,0.48,0.04c0.04,0.02,0.09,0.04,0.13,0.06c0.04,0.02,0.09,0.04,0.12,0.07
		c0.07,0.05,0.14,0.11,0.2,0.18c-0.02-0.65-0.04-1.29-0.06-1.94c-0.02-0.65-0.04-1.3-0.06-1.95c-0.02-0.65-0.03-1.3-0.04-1.95
		c-0.02-0.65-0.02-1.29-0.03-1.94c-0.15,0.02-0.3,0.02-0.45-0.01c-0.07-0.01-0.15-0.03-0.21-0.06c-0.15-0.06-0.3-0.13-0.42-0.24
		c-0.01,0-0.01-0.01-0.01-0.01C50.49,82.82,50.46,85.45,50.45,88.09z M50.45,88.09L50.45,88.09c0.06-0.04,0.12-0.07,0.18-0.09
		c0.03-0.02,0.06-0.03,0.1-0.04c0.05-0.02,0.1-0.03,0.15-0.04c0.16-0.02,0.32-0.01,0.48,0.04c0.04,0.02,0.09,0.04,0.13,0.06
		c0.04,0.02,0.09,0.04,0.12,0.07c0.07,0.05,0.14,0.11,0.2,0.18c-0.02-0.65-0.04-1.29-0.06-1.94c-0.02-0.65-0.04-1.3-0.06-1.95
		c-0.02-0.65-0.03-1.3-0.04-1.95c-0.02-0.65-0.02-1.29-0.03-1.94c-0.15,0.02-0.3,0.02-0.45-0.01c-0.07-0.01-0.15-0.03-0.21-0.06
		c-0.15-0.06-0.3-0.13-0.42-0.24c-0.01,0-0.01-0.01-0.01-0.01C50.49,82.82,50.46,85.45,50.45,88.09z M50.45,88.09L50.45,88.09
		c0.06-0.04,0.12-0.07,0.18-0.09c0.03-0.02,0.06-0.03,0.1-0.04c0.05-0.02,0.1-0.03,0.15-0.04c0.16-0.02,0.32-0.01,0.48,0.04
		c0.04,0.02,0.09,0.04,0.13,0.06c0.04,0.02,0.09,0.04,0.12,0.07c0.07,0.05,0.14,0.11,0.2,0.18c-0.02-0.65-0.04-1.29-0.06-1.94
		c-0.02-0.65-0.04-1.3-0.06-1.95c-0.02-0.65-0.03-1.3-0.04-1.95c-0.02-0.65-0.02-1.29-0.03-1.94c-0.15,0.02-0.3,0.02-0.45-0.01
		c-0.07-0.01-0.14-0.03-0.21-0.06c-0.15-0.06-0.3-0.13-0.42-0.24c-0.01,0-0.01-0.01-0.01-0.01C50.49,82.82,50.46,85.45,50.45,88.09z
		 M43.5,3.12C42.87,2.88,42,3.2,42,4.07c0,0.92,0.96,1.23,1.59,0.91c0.01,0.22,0.02,0.43,0.02,0.65c-0.01,0.27-0.02,0.54-0.02,0.81
		c0,0.75,0.04,1.5,0.15,2.24c0.04,0.26,0.09,0.51,0.14,0.77c0,0.01,0.01,0.01,0.01,0.01c-0.24-0.01-0.48,0.13-0.47,0.44
		c0.13,3.62,0.29,7.24,0.48,10.85c0.02,0.4,0.04,0.8,0.07,1.2c0.02,0.34,0.04,0.67,0.06,1c0.02,0.36,0.04,0.72,0.06,1.07
		c-0.04,0-0.08,0-0.12,0.01c-0.17,0.06-0.34,0.12-0.51,0.18c-0.52,0.17-0.46,1.01,0.13,0.99c0.18-0.01,0.37-0.02,0.56-0.08
		c0.06,1.15,0.12,2.31,0.2,3.47c-0.01,0.12-0.01,0.23-0.02,0.36c-0.01,0.21-0.02,0.42-0.03,0.62v0.01
		c-0.04,0.78-0.07,1.57-0.09,2.36c-0.15,0.18-0.25,0.42-0.25,0.72c0,0.28,0.09,0.51,0.21,0.69v0.2c-1.05,2.73-0.78,5.92-0.82,8.8
		c-0.05,3.79-0.02,7.57,0.12,11.35c0.04,1.2,0.1,2.41,0.17,3.61c0,0,0,0,0,0.01c0.02,0.45,0.05,0.9,0.08,1.35
		c0.15,2.54,0.35,5.07,0.57,7.59c0.05,0.51,0.09,1.04,0.14,1.55c0.03,0.35,0.07,0.69,0.1,1.04c-0.58-0.11-1.26,0.22-1.26,0.99
		c0,0.85,0.84,1.16,1.45,0.94l0.15,1.47c-0.05,0.04-0.09,0.09-0.09,0.15c-0.4,2.23-0.47,4.55-0.47,6.86c-0.01,0.49,0,0.98,0.01,1.47
		c0.01,1.29,0.02,2.56,0.01,3.82c-0.07,4.42-0.15,8.84-0.22,13.26c0,0.24,0.15,0.39,0.32,0.44c-0.01,3.15,0.03,6.29-0.01,9.36
		c-0.01,0.3,0.3,0.39,0.5,0.29c-0.05,0.27-0.1,0.54-0.15,0.81c-0.02,0.04-0.05,0.07-0.06,0.12c-0.36,1.11-0.58,2.3-0.69,3.52
		c-0.06,0.51-0.09,1.04-0.1,1.57c-0.07,1.62-0.01,3.28,0.06,4.89c-0.39,0.05-0.75,0.33-0.75,0.84c0,0.54,0.4,0.81,0.81,0.85
		c0.02,0.51,0.03,1.02,0.04,1.52c0.02,1,0.04,2.01,0.07,3.01c0,0.12,0,0.23-0.01,0.35c-0.6-0.58-1.83-0.38-2,0.58
		c-0.01,0.07-0.02,0.15-0.02,0.23c0,0.31,0.1,0.56,0.26,0.75c0.43,0.48,1.27,0.51,1.75,0.08c-0.01,0.89-0.02,1.78-0.02,2.68
		c0,0.01,0,0.01,0,0.01c-0.01,0.44-0.01,0.88-0.02,1.32v0.01c0,0.32-0.01,0.64-0.01,0.96c-0.01,0.76-0.02,1.52-0.02,2.27v0.02
		c0.01,0.3,0.31,0.4,0.53,0.31c0.04,0.56,0.07,1.13,0.11,1.7c0.05,0.61,1,0.62,0.96,0c0-0.1-0.01-0.2-0.01-0.29
		c0.01,0.2,0.02,0.4,0.04,0.6c0.02,0.25,0.03,0.5,0.05,0.75c0.02,0.31,0.04,0.62,0.06,0.94c0.02,0.32,0.04,0.65,0.06,0.97
		c0.01,0.15,0.1,0.25,0.2,0.29c0.19,0.08,0.45-0.01,0.47-0.26c0.01,0.14,0.01,0.28,0.02,0.42c0.06,1.56,0.13,3.12,0.2,4.67
		c0.02,0.64,0.05,1.28,0.08,1.92c0,0.17,0.01,0.32,0.02,0.49c0.01,0.2,0.02,0.41,0.02,0.61c-0.09-0.18-0.21-0.32-0.38-0.44v-0.31
		c0,0,0,0-0.01-0.01c0-0.17,0-0.34-0.01-0.51c-0.01-0.54-0.03-1.07-0.07-1.61c-0.05-0.83-0.13-1.65-0.25-2.46
		c-0.03-0.22-0.12-0.39-0.25-0.5c-0.04-0.04-0.07-0.07-0.12-0.09c-0.06-0.54-0.17-1.07-0.37-1.59c-0.02-0.08-0.06-0.16-0.09-0.24
		c-0.13-0.3-0.42-0.35-0.68-0.26c0.02-0.55,0.05-1.08,0.07-1.62v-0.01c0.01-0.12,0.01-0.25,0.02-0.37c0.02-0.38-0.47-0.69-0.8-0.46
		c-0.97,0.68-0.93,1.94-0.92,3.09c-0.06-0.09-0.12-0.17-0.19-0.23c-0.29-0.44-0.94-0.45-1.27,0.02c-0.04,0.04-0.07,0.09-0.08,0.1
		c-0.08,0.13-0.12,0.3-0.11,0.46c0.01,0.28,0.11,0.5,0.3,0.7c0.29,0.31,0.81,0.32,1.13,0.07c0.08-0.06,0.15-0.14,0.2-0.23
		c-0.07,2.24-0.05,4.47,0.04,6.71c0.01,0.2,0.08,0.35,0.19,0.45c0.01,0.81,0.01,1.62-0.04,2.4c-0.18,0.04-0.34,0.17-0.32,0.41
		c0.02,0.42,0.02,0.52,0.08,0.73c-0.43,0.18-0.78,0.58-0.83,1.17c-0.08,0.97-0.04,1.92,0.1,2.88c0.04,0.24,0.06,0.49,0.08,0.74
		h19.32c0.01-0.74,0.04-1.49,0.02-2.23c-0.02-1.38,0.23-2.93-0.47-4.15c0.25-1.38,0.29-2.81,0.26-4.23
		c-0.01-0.8-0.04-1.59-0.07-2.38c-0.03-0.66-0.06-1.3-0.07-1.95c-0.01-0.25-0.01-0.49-0.01-0.74c0.09-0.12,0.15-0.26,0.15-0.45
		c0-0.2-0.06-0.35-0.16-0.47c-0.01-1.62-0.01-3.3-0.14-4.93c-0.08-0.97-0.21-1.93-0.41-2.85c-0.08-0.34-0.16-0.67-0.26-0.99
		c0.12-3.4,0.24-6.79,0.34-10.19c0.02-0.7,0.05-1.41,0.06-2.11v-0.01c0.01-0.3,0.02-0.6,0.03-0.9c0.11-4.06,0.68-8.53,0.51-12.79
		c-0.03-0.77-0.08-1.53-0.17-2.29c-0.09-0.86-0.23-1.7-0.42-2.53c-0.07-0.31-0.41-0.4-0.66-0.29c0.06-2.55,0.12-5.1,0.18-7.65
		c0.21-0.1,0.38-0.3,0.37-0.61c-0.07-1.87-0.14-3.74-0.21-5.61c0.01-0.55,0.02-1.08,0.04-1.63c0.13-5.7,0.83-12.2-0.46-17.8
		c0.03-0.13,0.06-0.26,0.08-0.39c0.15-0.63,0.26-1.28,0.34-1.94c0.18-1.36,0.27-2.76,0.29-4.17c0.45-0.05,0.86-0.36,0.86-0.94
		c0-0.58-0.42-0.89-0.86-0.94c0-0.1-0.01-0.21-0.01-0.32v-0.01c-0.01-0.67-0.04-1.34-0.07-2.02c-0.05-1.05-0.12-2.1-0.19-3.14
		c0.4-0.09,0.75-0.4,0.75-0.94c0-0.59-0.42-0.91-0.88-0.96c-0.07-1.03-0.14-2.03-0.19-3.02c0-0.01,0-0.01,0-0.01
		c-0.01-0.18-0.09-0.31-0.2-0.39c0-0.13,0-0.26-0.01-0.39v-0.01c0.19-3.36,0.29-6.71,0.32-10.07c0.01-0.46,0.01-0.91,0.01-1.37
		c0.01-1.22,0-2.44-0.02-3.68c0-0.15,0-0.31-0.01-0.46c0-0.31-0.01-0.63-0.01-0.94c-0.02-0.78-0.03-1.56-0.06-2.34
		c-0.01-0.23-0.01-0.45-0.02-0.67c-0.01-0.43-0.45-0.56-0.74-0.42c-0.01-0.1-0.01-0.2-0.01-0.3c0.82,0.52,2.21,0.15,2.21-1.12
		c0-1.31-1.47-1.67-2.28-1.07v-0.02c0.06-0.05,0.11-0.12,0.13-0.21c0.32-1.91,0.4-3.84,0.39-5.77c0.62-3.22,0.83-6.59,0.89-9.94
		c0.01-0.56,0.01-1.12,0.02-1.68c0-0.8,0-1.59-0.01-2.37c0-0.61-0.01-1.21-0.02-1.81V2.68c-0.01-0.59-0.02-1.17-0.02-1.76V0.91
		c-0.01-0.45,0.47-0.89,0.47-1.33H42.81C42.8,0.78,43.4,1.95,43.5,3.12z M55.48,66.48c-0.11,0.72-0.19,1.44-0.25,2.16
		c-0.07-0.67-0.17-1.33-0.26-1.99c0.24-0.07,0.43-0.27,0.43-0.59c-0.05-7.01-0.08-14.02-0.05-21.02c0.01-1.43,0.01-2.85,0.02-4.27
		c0.06,1.8,0.11,3.6,0.18,5.39c0.23,6.63,0.59,13.26,0.88,19.89C56.05,65.86,55.56,65.92,55.48,66.48z M51.21,140.72
		c0.08,1.74,0.17,3.49,0.26,5.23c-0.38,0.09-0.72,0.32-0.89,0.69c-0.12,0.02-0.25,0.06-0.36,0.12c-0.03-0.06-0.07-0.1-0.11-0.15
		c-0.06-1.91-0.11-3.82-0.2-5.73C50.35,141.02,50.85,140.97,51.21,140.72z M55.18,24.1c-0.01-0.64-0.02-1.27-0.04-1.91
		c0.04,0.39,0.09,0.78,0.15,1.16C55.25,23.6,55.22,23.86,55.18,24.1z M53.76,26.71c-0.29,1.92-0.23,3.95-0.18,5.92
		c-0.06-0.28-0.11-0.56-0.18-0.83c-0.02-0.09-0.06-0.15-0.11-0.21c0.01-1.64,0.02-3.28,0.05-4.93
		C53.46,26.73,53.61,26.74,53.76,26.71z M55.29,89.76c0.02,0.49,0.02,0.99,0.04,1.48c0.17,5.51,0.48,11.01,0.83,16.5
		c-0.02,0.02-0.04,0.04-0.06,0.06c-0.04-1.26-0.09-2.52-0.21-3.76c-0.04-0.45-0.37-0.68-0.69-0.67
		C55.23,98.84,55.27,94.3,55.29,89.76z M55.73,121.36c0.01,0.52,0.02,1.04,0.03,1.56c0.04,3.76,0.1,7.52,0.18,11.29
		c-0.07,0.18-0.13,0.36-0.18,0.54c-0.09-0.34-0.2-0.67-0.31-0.99c-0.04-0.11-0.1-0.2-0.17-0.28c0.1-2.85,0.21-5.7,0.3-8.56
		C55.62,123.75,55.67,122.56,55.73,121.36z M53.79,97.6c0.01-1.86,0.03-3.73,0.05-5.6c0.06,2.11,0.11,4.21,0.17,6.32
		C53.95,98.08,53.87,97.84,53.79,97.6z M48.8,27.43c0.01-1.3,0-2.59-0.05-3.88c0.28,0.09,0.6-0.02,0.64-0.35
		c0.18,1.2,0.37,2.4,0.58,3.59c-0.05,0.07-0.09,0.16-0.1,0.27c-0.06,0.42-0.12,0.83-0.17,1.26c-0.02-0.17-0.04-0.34-0.06-0.51
		C49.58,27.41,49.12,27.3,48.8,27.43z M51.5,64.52c-0.13,0.45-0.23,0.92-0.31,1.39c-0.05-4.29-0.06-8.57-0.04-12.86
		C51.25,56.87,51.36,60.69,51.5,64.52z M50.96,19.74v0.07c0.04,0.1,0.08,0.17,0.12,0.29c0.05,0.15,0.18,0.22,0.3,0.23
		c0.1,2.17,0.29,4.33,0.38,6.28c0.04,0.9,0.09,1.8,0.13,2.7c-0.15,0.01-0.3,0.11-0.36,0.29c-0.04,0.1-0.06,0.21-0.09,0.32
		c-0.05-0.89-0.12-1.78-0.21-2.67c-0.02-0.19-0.12-0.35-0.26-0.47c-0.05-0.04-0.1-0.08-0.15-0.11c-0.15-1.1-0.3-2.2-0.45-3.3
		c0.01-0.03,0.03-0.07,0.03-0.1c0.04-1.91,0.01-3.82-0.04-5.71C50.53,18.29,50.72,19.03,50.96,19.74z M49.64,58.28v-0.04
		c0.01-0.6,0.01-1.2,0.01-1.8c0.15,5.42,0.34,10.83,0.57,16.25c0.01,0.28,0.2,0.44,0.4,0.5c-0.09,1.69-0.07,3.39-0.08,5.07v0.31
		l-0.02,1.62c-0.04,2.64-0.07,5.27-0.08,7.91v0.01c-0.01,0.28-0.01,0.56-0.01,0.83v0.61c-0.01,1.91-0.01,3.81-0.01,5.72
		c-0.24,0.05-0.45,0.17-0.57,0.37c-0.03-2.27-0.06-4.53-0.08-6.79c-0.06-6.13,0.34-12.5-0.18-18.65
		C49.6,66.21,49.61,62.24,49.64,58.28z M51.72,113.8c0.06-2.32,0.2-4.66,0.29-7c0.01,2.62,0.01,5.24,0.03,7.85
		c0,0.31,0.2,0.48,0.43,0.53v0.02c-0.12,4.77-0.26,9.55-0.4,14.32c-0.28-0.23-0.76-0.04-0.88,0.29c-0.17,0.51-0.28,1.06-0.36,1.62
		c0.01-0.69,0.03-1.38,0.05-2.08c0.32-0.07,0.59-0.31,0.6-0.72C51.53,123.7,51.6,118.75,51.72,113.8z M50,138.45
		c-0.07,0.02-0.13,0.04-0.2,0.07c-0.04-0.56-0.07-1.12-0.12-1.68c-0.06-3.5-0.09-7-0.1-10.5C49.73,130.4,49.89,134.44,50,138.45z
		 M50.77,138.44c0-1,0.01-2,0.01-3c0.07,1.05,0.18,2.09,0.28,3.1C50.96,138.49,50.87,138.45,50.77,138.44z M53.11,134.41
		c0.02-0.05,0.04-0.1,0.04-0.15c0.25-6.35,0.48-12.7,0.75-19.05c0.01-0.32,0.03-0.64,0.04-0.96c-0.01,3.52,0.08,7.03,0.07,10.47v0.2
		c-0.02,2.9-0.02,5.8-0.03,8.69c-0.06,0.1-0.1,0.22-0.11,0.36c-0.1,1.29-0.04,2.62,0.09,3.95c-0.01,2.55-0.01,5.09-0.03,7.63
		c-0.2,0.04-0.39,0.15-0.52,0.31c-0.11,0.14-0.18,0.32-0.19,0.55c0,0.16-0.01,0.32-0.01,0.49c-0.02-0.13-0.07-0.23-0.12-0.34
		c0.04-2.2,0.06-4.4,0.01-6.61C53.06,138.23,53.19,136.3,53.11,134.41z M54.85,154.41c0.02-0.67,0.04-1.34,0.06-2.01
		c0.15,0.53,0.3,1.05,0.45,1.58c0.02,0.06,0.05,0.09,0.07,0.14c0.01,0.1,0.01,0.19,0.02,0.29H54.85z M57.16,86.28
		c-0.01-0.53-0.02-1.06-0.02-1.59c0.19,2.78,0.44,5.56,0.7,8.34c-0.21-0.04-0.42-0.02-0.62,0.02C57.21,90.8,57.2,88.54,57.16,86.28z
		 M54.61,24.82c-0.15-0.04-0.32,0.01-0.43,0.13c-0.09-3.42-0.16-6.8-0.5-10.19c-0.07-2.35-0.09-4.7-0.02-7.05
		C53.76,13.4,53.89,19.17,54.61,24.82z M45.57,11.08c-0.05-0.89-0.08-1.78-0.09-2.67c-0.01-0.7-0.01-1.4-0.01-2.11
		c0.07,0.07,0.16,0.13,0.25,0.17c-0.04,0.63-0.09,1.28-0.11,1.93c-0.04,0.94-0.06,1.9-0.03,2.85
		C45.58,11.19,45.58,11.14,45.57,11.08z M45.66,22.66c-0.02-0.26-0.33-0.39-0.51-0.28v-0.03c-0.27-3.59-0.5-7.19-0.7-10.78
		c0.01,0.1,0.02,0.21,0.03,0.32c0.02,0.2,0.13,0.33,0.27,0.42c0.07,1.81,0.29,3.57,0.83,5.11c0.02,0.06,0.06,0.09,0.09,0.12
		c0.03,1.93,0.15,3.86,0.28,5.78c-0.08,0-0.15,0.01-0.23,0.03C45.69,23.12,45.68,22.89,45.66,22.66z M45.79,25.04
		c0.09,0,0.17-0.02,0.25-0.05c0.04,0.7,0.09,1.42,0.12,2.11c0.04,0.98,0.08,1.97,0.12,2.95c-0.16,0.01-0.32,0.04-0.47,0.1
		C45.85,28.45,45.85,26.74,45.79,25.04z M45.58,67.74c-0.02-0.53-0.04-1.06-0.06-1.59c-0.09-2.52-0.14-5.04-0.17-7.55
		c-0.01-0.45-0.01-0.91-0.02-1.35c-0.01-0.99-0.02-1.97-0.02-2.95c-0.02-3.58,0-7.17,0.06-10.76c0.05-2.44,0.43-5.17,0.2-7.71
		c0.01-0.29,0.03-0.58,0.04-0.86c0.06-0.04,0.1-0.09,0.1-0.17c0.04-0.4,0.06-0.8,0.07-1.21c0.17-0.1,0.3-0.25,0.39-0.43
		c-0.18,1.72-0.23,3.47-0.2,5.24c-0.01,1.21,0.04,2.43,0.03,3.59C46,44.7,46.02,47.4,46.07,50.1c0,0,0,0,0,0.01
		c0.01,0.34,0.01,0.67,0.02,1.01c0,0.01,0,0.01,0,0.01c0.01,0.4,0.02,0.8,0.03,1.21c0.15,5.22,0.39,10.45,0.68,15.67
		c-0.45-0.09-0.96,0.16-0.92,0.75c0,0.17,0.01,0.34,0.01,0.5c-0.09,0.02-0.18,0.06-0.25,0.12C45.62,68.83,45.6,68.28,45.58,67.74z
		 M47.94,68.55c0.08-0.09,0.13-0.2,0.13-0.35c-0.09-5.15-0.18-10.3-0.26-15.44c0.01-0.14,0.01-0.28,0.01-0.42
		c0-0.21,0.01-0.42,0.01-0.64c0.01-0.74,0.01-1.48,0.02-2.21c0.01-0.94,0.01-1.88,0.03-2.82v-0.01c-0.01-0.01-0.01-0.01,0-0.02
		c-0.01-0.01,0-0.01,0-0.01c-0.01-0.01-0.01-0.01,0-0.01c0-0.9,0.01-1.81,0.02-2.71c0.05,1.64,0.1,3.27,0.13,4.87
		c0,0.01,0,0.01,0,0.01c0.01,0.26,0.01,0.53,0.01,0.8c0.01,0.12,0.01,0.23,0.01,0.34l0.02,1.64v0.01
		c0.07,5.27,0.17,10.54,0.26,15.82c-0.11,0.1-0.18,0.25-0.17,0.44c-0.07,0.94-0.12,1.89-0.15,2.84
		C47.97,69.96,47.96,69.25,47.94,68.55z M48.28,89.11c-0.04-3.16-0.11-6.32-0.24-9.47v-0.43c-0.06-1.93-0.15-3.87-0.25-5.79
		c0.07-0.02,0.13-0.07,0.18-0.13c0.01,1.24,0.04,2.49,0.1,3.74v0.02c0.17,3.95,0.5,7.9,0.65,11.78c0.17,4.29,0.31,8.58,0.45,12.88
		c-0.06-0.05-0.14-0.08-0.23-0.08c-0.17-0.01-0.36,0.07-0.39,0.26c-0.08,0.41-0.14,0.83-0.2,1.24c0-4.65-0.01-9.3-0.07-13.95V89.11z
		 M46.85,100.15c0.01-1.36,0.01-2.72,0.02-4.08c0.06,1.38,0.12,2.76,0.18,4.15C47,100.18,46.93,100.16,46.85,100.15z M45.38,101.32
		c0.04,1.59,0.07,3.17,0.11,4.75c-0.09,0.04-0.17,0.1-0.2,0.21c-0.07,0.23-0.12,0.47-0.18,0.7
		C45.16,105.1,45.26,103.22,45.38,101.32z M47.32,133.3c0.14-0.09,0.25-0.24,0.24-0.47c-0.08-2.31-0.14-4.63-0.18-6.94
		c-0.02-0.78-0.03-1.57-0.04-2.35c-0.04-2.48-0.04-4.96-0.02-7.44c0.01-1.27,0.07-2.58,0.15-3.9c0.01,0.24,0.01,0.48,0.02,0.71
		c0.01,0.31,0.27,0.45,0.51,0.42c0.07,2.19,0.18,4.37,0.23,6.49c0.04,1.44,0.07,2.88,0.12,4.31c0.01,0.36,0.01,0.72,0.02,1.08
		c0,0,0,0,0,0.01c0.06,1.88,0.12,3.76,0.18,5.64c-0.21-0.02-0.45,0.07-0.48,0.31c-0.66,4.42-0.38,9.06,0.18,13.68v0.01
		c0.04,0.39,0.09,0.77,0.15,1.15v0.01c0.06,0.45,0.12,0.89,0.18,1.34c0.01,0.3,0.01,0.6,0.01,0.9c-0.26-0.17-0.62-0.19-0.91-0.07
		c-0.01-0.47-0.03-0.94-0.04-1.42c-0.02-0.8-0.04-1.59-0.07-2.39C47.47,140.69,47.39,136.99,47.32,133.3z M43.96,151.56
		c0.17-0.94,0.32-1.88,0.47-2.82c0,0.01,0,0.01,0.01,0.02c-0.01,0.31-0.01,0.63-0.02,0.95c-0.08,0.66-0.13,1.32-0.17,1.98
		C44.16,151.63,44.07,151.59,43.96,151.56z M57.76,123.51c0.05,0.64,0.1,1.27,0.15,1.9v0.01c0.11,1.42,0.21,2.81,0.28,4.2
		c0.12,2.38,0.26,4.77,0.4,7.16c0.04,0.61,0.07,1.22,0.1,1.83c0,0.02,0.01,0.06,0.01,0.08c-0.02,0.02-0.05,0.04-0.07,0.07
		c-0.49,0.91-0.65,1.9-0.68,2.9c-0.25,1.69-0.12,3.46-0.14,5.16c-0.04,2.46-0.13,4.91-0.26,7.36c-0.01,0.09,0.01,0.17,0.04,0.24
		c-0.15,0.01-0.31,0.01-0.46,0.01c0-0.1,0.01-0.21,0.01-0.31c0.05-0.11,0.09-0.23,0.1-0.37c0.22-3.22,0.56-6.97,0.23-10.46
		c0-0.03,0-0.06-0.01-0.09c-0.03-0.32-0.07-0.64-0.12-0.95c0.02-0.37,0.05-0.75,0.07-1.13v-0.09c0.04-0.66,0.07-1.34,0.07-2
		c0.01-0.37,0.01-0.75,0-1.12c0.02-0.08,0.04-0.17,0.04-0.26v-1.18c-0.02-3.8-0.02-7.59,0-11.39v-0.01c0-0.43,0.01-0.86,0.01-1.29
		v-0.01c0-0.28,0.01-0.55,0.01-0.83c0-0.69,0.01-1.37,0.03-2.06C57.64,121.74,57.7,122.63,57.76,123.51z M57.65,103.63
		c-0.01,0.3,0.3,0.38,0.5,0.26c0.02,1.21,0.04,2.41,0.06,3.62c0.01,0.4,0.44,0.51,0.7,0.35c0.02,0.5,0.06,1,0.09,1.51
		c0.02,1.92,0.1,3.85,0.15,5.73c-0.16-1.32-0.38-2.64-0.68-3.92c-0.11-0.48-0.73-0.32-0.8,0.09c-0.04-0.84-0.1-1.67-0.18-2.5
		c-0.13-4.38-0.2-8.76-0.26-13.14c0.21,0.05,0.43,0.05,0.65,0.01C57.81,98.3,57.74,100.96,57.65,103.63z M59.42,96.37
		c-0.13-2.83-0.27-5.68-0.49-8.52c0.02-0.4,0.04-0.81,0.05-1.22c0.09,1.68,0.18,3.37,0.27,5.05c0.01,0.2,0.09,0.34,0.2,0.45
		c0.03,1.44,0.05,2.87,0.06,4.31v0.01c0.01,0.72,0.02,1.44,0.02,2.16C59.49,97.86,59.46,97.11,59.42,96.37z M57.43,38.49
		c0.13,0.24,0.29,0.43,0.47,0.54c0.02,0.4,0.04,0.78,0.06,1.18v0.01c0.01,0.06,0.01,0.12,0.01,0.17c0,0.01,0,0.01,0,0.01
		c0.04,0.8,0.07,1.6,0.11,2.4c0.03,0.73,0.07,1.46,0.1,2.19c0.06,1.4,0.11,2.81,0.16,4.21c0.09,2.64,0.15,5.27,0.18,7.91
		c0.01,0.26,0.01,0.51,0.01,0.76v0.01c0.01,1.65,0.01,3.3,0.01,4.96c-0.14,0.06-0.26,0.19-0.28,0.36c-0.34,3.15-0.24,6.31-0.05,9.47
		c-0.09-0.47-0.2-0.93-0.34-1.38c-0.05-0.15-0.21-0.22-0.36-0.2c0.07-0.08,0.13-0.18,0.13-0.33c-0.05-2.48-0.07-4.96-0.1-7.44
		c0.3,0.14,0.74,0.01,0.74-0.43c0-0.43-0.45-0.57-0.75-0.42c-0.04-4-0.06-8-0.12-12.01c-0.01-1.43-0.04-2.87-0.07-4.3
		c-0.01-0.51-0.02-1.02-0.04-1.53c0,0,0,0,0-0.01c-0.01-0.48-0.02-0.94-0.03-1.42c-0.04-1.77-0.08-3.54-0.12-5.31
		c0.08,0.23,0.17,0.42,0.26,0.59C57.43,38.48,57.43,38.49,57.43,38.49z M58.6,24.41c0.02,0.09,0.07,0.16,0.13,0.21
		c-0.02,1.41-0.05,2.82-0.07,4.24c-0.09-0.13-0.23-0.21-0.39-0.23c0.04-1.62,0.1-3.23,0.2-4.84C58.52,24,58.55,24.2,58.6,24.41z
		 M56.77,15.23c0.06,3.2-0.13,6.89,0.94,9.94c0.06,0.18,0.33,0.21,0.4,0.04c-0.04,1.15-0.08,2.3-0.1,3.46
		c-0.12,0.05-0.21,0.15-0.24,0.31c-0.08,0.5-0.13,0.99-0.17,1.49c-0.15-1.59-0.31-3.17-0.43-4.77c-0.32-4.24-0.58-8.48-0.71-12.73
		c-0.01-0.18-0.09-0.29-0.21-0.36c-0.06-0.03-0.12-0.05-0.18-0.06c-0.01-1.3,0.02-2.59,0.07-3.89c0,0-0.01-0.01,0-0.01
		c-0.01-0.01-0.01-0.01,0-0.01c-0.01-0.01-0.01-0.02,0-0.02V8.59c-0.01-0.01-0.01-0.01,0-0.01V8.58c-0.01-0.01-0.01-0.01,0-0.01
		c0.01-0.29,0.02-0.57,0.03-0.86c0.13,0.28,0.36,0.47,0.62,0.58C56.75,10.6,56.73,12.91,56.77,15.23z M54.99,14.14
		c-0.01,0.86-0.02,1.75-0.03,2.65c-0.15-3.28-0.34-6.57-0.46-9.86c0.16-0.06,0.32-0.15,0.43-0.28c0.15,0.02,0.32,0.01,0.48-0.02
		C55.17,9.13,55.01,11.63,54.99,14.14z M51.15,8.89c-0.01,0-0.01,0.01-0.02,0.01c-0.1-1.42-0.07-2.85,0.39-3.82
		C51.35,6.33,51.23,7.6,51.15,8.89z M50.45,88.09L50.45,88.09c0.06-0.04,0.12-0.07,0.18-0.09c0.03-0.02,0.06-0.03,0.1-0.04
		c0.05-0.02,0.1-0.03,0.15-0.04c0.16-0.02,0.32-0.01,0.48,0.04c0.04,0.02,0.09,0.04,0.13,0.06c0.04,0.02,0.09,0.04,0.12,0.07
		c0.07,0.05,0.14,0.11,0.2,0.18c-0.02-0.65-0.04-1.29-0.06-1.94c-0.02-0.65-0.04-1.3-0.06-1.95c-0.02-0.65-0.03-1.3-0.04-1.95
		c-0.02-0.65-0.02-1.29-0.03-1.94c-0.15,0.02-0.3,0.02-0.45-0.01c-0.07-0.01-0.15-0.03-0.21-0.06c-0.15-0.06-0.3-0.13-0.42-0.24
		c-0.01,0-0.01-0.01-0.01-0.01C50.49,82.82,50.46,85.45,50.45,88.09z M50.45,88.09L50.45,88.09c0.06-0.04,0.12-0.07,0.18-0.09
		c0.03-0.02,0.06-0.03,0.1-0.04c0.05-0.02,0.1-0.03,0.15-0.04c0.16-0.02,0.32-0.01,0.48,0.04c0.04,0.02,0.09,0.04,0.13,0.06
		c0.04,0.02,0.09,0.04,0.12,0.07c0.07,0.05,0.14,0.11,0.2,0.18c-0.02-0.65-0.04-1.29-0.06-1.94c-0.02-0.65-0.04-1.3-0.06-1.95
		c-0.02-0.65-0.03-1.3-0.04-1.95c-0.02-0.65-0.02-1.29-0.03-1.94c-0.15,0.02-0.3,0.02-0.45-0.01c-0.07-0.01-0.15-0.03-0.21-0.06
		c-0.15-0.06-0.3-0.13-0.42-0.24c-0.01,0-0.01-0.01-0.01-0.01C50.49,82.82,50.46,85.45,50.45,88.09z M50.45,88.09L50.45,88.09
		c0.06-0.04,0.12-0.07,0.18-0.09c0.03-0.02,0.06-0.03,0.1-0.04c0.05-0.02,0.1-0.03,0.15-0.04c0.16-0.02,0.32-0.01,0.48,0.04
		c0.04,0.02,0.09,0.04,0.13,0.06c0.04,0.02,0.09,0.04,0.12,0.07c0.07,0.05,0.14,0.11,0.2,0.18c-0.02-0.65-0.04-1.29-0.06-1.94
		c-0.02-0.65-0.04-1.3-0.06-1.95c-0.02-0.65-0.03-1.3-0.04-1.95c-0.02-0.65-0.02-1.29-0.03-1.94c-0.15,0.02-0.3,0.02-0.45-0.01
		c-0.07-0.01-0.15-0.03-0.21-0.06c-0.15-0.06-0.3-0.13-0.42-0.24c-0.01,0-0.01-0.01-0.01-0.01C50.49,82.82,50.46,85.45,50.45,88.09z
		 M50.45,88.09L50.45,88.09c0.06-0.04,0.12-0.07,0.18-0.09c0.03-0.02,0.06-0.03,0.1-0.04c0.05-0.02,0.1-0.03,0.15-0.04
		c0.16-0.02,0.32-0.01,0.48,0.04c0.04,0.02,0.09,0.04,0.13,0.06c0.04,0.02,0.09,0.04,0.12,0.07c0.07,0.05,0.14,0.11,0.2,0.18
		c-0.02-0.65-0.04-1.29-0.06-1.94c-0.02-0.65-0.04-1.3-0.06-1.95c-0.02-0.65-0.03-1.3-0.04-1.95c-0.02-0.65-0.02-1.29-0.03-1.94
		c-0.15,0.02-0.3,0.02-0.45-0.01c-0.07-0.01-0.15-0.03-0.21-0.06c-0.15-0.06-0.3-0.13-0.42-0.24c-0.01,0-0.01-0.01-0.01-0.01
		C50.49,82.82,50.46,85.45,50.45,88.09z M50.45,88.09L50.45,88.09c0.06-0.04,0.12-0.07,0.18-0.09c0.03-0.02,0.06-0.03,0.1-0.04
		c0.05-0.02,0.1-0.03,0.15-0.04c0.16-0.02,0.32-0.01,0.48,0.04c0.04,0.02,0.09,0.04,0.13,0.06c0.04,0.02,0.09,0.04,0.12,0.07
		c0.07,0.05,0.14,0.11,0.2,0.18c-0.02-0.65-0.04-1.29-0.06-1.94c-0.02-0.65-0.04-1.3-0.06-1.95c-0.02-0.65-0.03-1.3-0.04-1.95
		c-0.02-0.65-0.02-1.29-0.03-1.94c-0.15,0.02-0.3,0.02-0.45-0.01c-0.07-0.01-0.15-0.03-0.21-0.06c-0.15-0.06-0.3-0.13-0.42-0.24
		c-0.01,0-0.01-0.01-0.01-0.01C50.49,82.82,50.46,85.45,50.45,88.09z M50.45,88.09L50.45,88.09c0.06-0.04,0.12-0.07,0.18-0.09
		c0.03-0.02,0.06-0.03,0.1-0.04c0.05-0.02,0.1-0.03,0.15-0.04c0.16-0.02,0.32-0.01,0.48,0.04c0.04,0.02,0.09,0.04,0.13,0.06
		c0.04,0.02,0.09,0.04,0.12,0.07c0.07,0.05,0.14,0.11,0.2,0.18c-0.02-0.65-0.04-1.29-0.06-1.94c-0.02-0.65-0.04-1.3-0.06-1.95
		c-0.02-0.65-0.03-1.3-0.04-1.95c-0.02-0.65-0.02-1.29-0.03-1.94c-0.15,0.02-0.3,0.02-0.45-0.01c-0.07-0.01-0.15-0.03-0.21-0.06
		c-0.15-0.06-0.3-0.13-0.42-0.24c-0.01,0-0.01-0.01-0.01-0.01C50.49,82.82,50.46,85.45,50.45,88.09z M50.45,88.09L50.45,88.09
		c0.06-0.04,0.12-0.07,0.18-0.09c0.03-0.02,0.06-0.03,0.1-0.04c0.05-0.02,0.1-0.03,0.15-0.04c0.16-0.02,0.32-0.01,0.48,0.04
		c0.04,0.02,0.09,0.04,0.13,0.06c0.04,0.02,0.09,0.04,0.12,0.07c0.07,0.05,0.14,0.11,0.2,0.18c-0.02-0.65-0.04-1.29-0.06-1.94
		c-0.02-0.65-0.04-1.3-0.06-1.95c-0.02-0.65-0.03-1.3-0.04-1.95c-0.02-0.65-0.02-1.29-0.03-1.94c-0.15,0.02-0.3,0.02-0.45-0.01
		c-0.07-0.01-0.15-0.03-0.21-0.06c-0.15-0.06-0.3-0.13-0.42-0.24c-0.01,0-0.01-0.01-0.01-0.01C50.49,82.82,50.46,85.45,50.45,88.09z
		 M50.45,88.09L50.45,88.09c0.06-0.04,0.12-0.07,0.18-0.09c0.03-0.02,0.06-0.03,0.1-0.04c0.05-0.02,0.1-0.03,0.15-0.04
		c0.16-0.02,0.32-0.01,0.48,0.04c0.04,0.02,0.09,0.04,0.13,0.06c0.04,0.02,0.09,0.04,0.12,0.07c0.07,0.05,0.14,0.11,0.2,0.18
		c-0.02-0.65-0.04-1.29-0.06-1.94c-0.02-0.65-0.04-1.3-0.06-1.95c-0.02-0.65-0.03-1.3-0.04-1.95c-0.02-0.65-0.02-1.29-0.03-1.94
		c-0.15,0.02-0.3,0.02-0.45-0.01c-0.07-0.01-0.15-0.03-0.21-0.06c-0.15-0.06-0.3-0.13-0.42-0.24c-0.01,0-0.01-0.01-0.01-0.01
		C50.49,82.82,50.46,85.45,50.45,88.09z M50.45,88.09L50.45,88.09c0.06-0.04,0.12-0.07,0.18-0.09c0.03-0.02,0.06-0.03,0.1-0.04
		c0.05-0.02,0.1-0.03,0.15-0.04c0.16-0.02,0.32-0.01,0.48,0.04c0.04,0.02,0.09,0.04,0.13,0.06c0.04,0.02,0.09,0.04,0.12,0.07
		c0.07,0.05,0.14,0.11,0.2,0.18c-0.02-0.65-0.04-1.29-0.06-1.94c-0.02-0.65-0.04-1.3-0.06-1.95c-0.02-0.65-0.03-1.3-0.04-1.95
		c-0.02-0.65-0.02-1.29-0.03-1.94c-0.15,0.02-0.3,0.02-0.45-0.01c-0.07-0.01-0.15-0.03-0.21-0.06c-0.15-0.06-0.3-0.13-0.42-0.24
		c-0.01,0-0.01-0.01-0.01-0.01C50.49,82.82,50.46,85.45,50.45,88.09z M50.45,88.09L50.45,88.09c0.06-0.04,0.12-0.07,0.18-0.09
		c0.03-0.02,0.06-0.03,0.1-0.04c0.05-0.02,0.1-0.03,0.15-0.04c0.16-0.02,0.32-0.01,0.48,0.04c0.04,0.02,0.09,0.04,0.13,0.06
		c0.04,0.02,0.09,0.04,0.12,0.07c0.07,0.05,0.14,0.11,0.2,0.18c-0.02-0.65-0.04-1.29-0.06-1.94c-0.02-0.65-0.04-1.3-0.06-1.95
		c-0.02-0.65-0.03-1.3-0.04-1.95c-0.02-0.65-0.02-1.29-0.03-1.94c-0.15,0.02-0.3,0.02-0.45-0.01c-0.07-0.01-0.15-0.03-0.21-0.06
		c-0.15-0.06-0.3-0.13-0.42-0.24c-0.01,0-0.01-0.01-0.01-0.01C50.49,82.82,50.46,85.45,50.45,88.09z M50.45,88.09L50.45,88.09
		c0.06-0.04,0.12-0.07,0.18-0.09c0.03-0.02,0.06-0.03,0.1-0.04c0.05-0.02,0.1-0.03,0.15-0.04c0.16-0.02,0.32-0.01,0.48,0.04
		c0.04,0.02,0.09,0.04,0.13,0.06c0.04,0.02,0.09,0.04,0.12,0.07c0.07,0.05,0.14,0.11,0.2,0.18c-0.02-0.65-0.04-1.29-0.06-1.94
		c-0.02-0.65-0.04-1.3-0.06-1.95c-0.02-0.65-0.03-1.3-0.04-1.95c-0.02-0.65-0.02-1.29-0.03-1.94c-0.15,0.02-0.3,0.02-0.45-0.01
		c-0.07-0.01-0.15-0.03-0.21-0.06c-0.15-0.06-0.3-0.13-0.42-0.24c-0.01,0-0.01-0.01-0.01-0.01C50.49,82.82,50.46,85.45,50.45,88.09z
		 M50.45,88.09L50.45,88.09c0.06-0.04,0.12-0.07,0.18-0.09c0.03-0.02,0.06-0.03,0.1-0.04c0.05-0.02,0.1-0.03,0.15-0.04
		c0.16-0.02,0.32-0.01,0.48,0.04c0.04,0.02,0.09,0.04,0.13,0.06c0.04,0.02,0.09,0.04,0.12,0.07c0.07,0.05,0.14,0.11,0.2,0.18
		c-0.02-0.65-0.04-1.29-0.06-1.94c-0.02-0.65-0.04-1.3-0.06-1.95c-0.02-0.65-0.03-1.3-0.04-1.95c-0.02-0.65-0.02-1.29-0.03-1.94
		c-0.15,0.02-0.3,0.02-0.45-0.01c-0.07-0.01-0.15-0.03-0.21-0.06c-0.15-0.06-0.3-0.13-0.42-0.24c-0.01,0-0.01-0.01-0.01-0.01
		C50.49,82.82,50.46,85.45,50.45,88.09z M50.45,88.09L50.45,88.09c0.06-0.04,0.12-0.07,0.18-0.09c0.03-0.02,0.06-0.03,0.1-0.04
		c0.05-0.02,0.1-0.03,0.15-0.04c0.16-0.02,0.32-0.01,0.48,0.04c0.04,0.02,0.09,0.04,0.13,0.06c0.04,0.02,0.09,0.04,0.12,0.07
		c0.07,0.05,0.14,0.11,0.2,0.18c-0.02-0.65-0.04-1.29-0.06-1.94c-0.02-0.65-0.04-1.3-0.06-1.95c-0.02-0.65-0.03-1.3-0.04-1.95
		c-0.02-0.65-0.02-1.29-0.03-1.94c-0.15,0.02-0.3,0.02-0.45-0.01c-0.07-0.01-0.15-0.03-0.21-0.06c-0.15-0.06-0.3-0.13-0.42-0.24
		c-0.01,0-0.01-0.01-0.01-0.01C50.49,82.82,50.46,85.45,50.45,88.09z M50.45,88.09L50.45,88.09c0.06-0.04,0.12-0.07,0.18-0.09
		c0.03-0.02,0.06-0.03,0.1-0.04c0.05-0.02,0.1-0.03,0.15-0.04c0.16-0.02,0.32-0.01,0.48,0.04c0.04,0.02,0.09,0.04,0.13,0.06
		c0.04,0.02,0.09,0.04,0.12,0.07c0.07,0.05,0.14,0.11,0.2,0.18c-0.02-0.65-0.04-1.29-0.06-1.94c-0.02-0.65-0.04-1.3-0.06-1.95
		c-0.02-0.65-0.03-1.3-0.04-1.95c-0.02-0.65-0.02-1.29-0.03-1.94c-0.15,0.02-0.3,0.02-0.45-0.01c-0.07-0.01-0.15-0.03-0.21-0.06
		c-0.15-0.06-0.3-0.13-0.42-0.24c-0.01,0-0.01-0.01-0.01-0.01C50.49,82.82,50.46,85.45,50.45,88.09z M50.45,88.09L50.45,88.09
		c0.06-0.04,0.12-0.07,0.18-0.09c0.03-0.02,0.06-0.03,0.1-0.04c0.05-0.02,0.1-0.03,0.15-0.04c0.16-0.02,0.32-0.01,0.48,0.04
		c0.04,0.02,0.09,0.04,0.13,0.06c0.04,0.02,0.09,0.04,0.12,0.07c0.07,0.05,0.14,0.11,0.2,0.18c-0.02-0.65-0.04-1.29-0.06-1.94
		c-0.02-0.65-0.04-1.3-0.06-1.95c-0.02-0.65-0.03-1.3-0.04-1.95c-0.02-0.65-0.02-1.29-0.03-1.94c-0.15,0.02-0.3,0.02-0.45-0.01
		c-0.07-0.01-0.15-0.03-0.21-0.06c-0.15-0.06-0.3-0.13-0.42-0.24c-0.01,0-0.01-0.01-0.01-0.01C50.49,82.82,50.46,85.45,50.45,88.09z
		 M50.45,88.09L50.45,88.09c0.06-0.04,0.12-0.07,0.18-0.09c0.03-0.02,0.06-0.03,0.1-0.04c0.05-0.02,0.1-0.03,0.15-0.04
		c0.16-0.02,0.32-0.01,0.48,0.04c0.04,0.02,0.09,0.04,0.13,0.06c0.04,0.02,0.09,0.04,0.12,0.07c0.07,0.05,0.14,0.11,0.2,0.18
		c-0.02-0.65-0.04-1.29-0.06-1.94c-0.02-0.65-0.04-1.3-0.06-1.95c-0.02-0.65-0.03-1.3-0.04-1.95c-0.02-0.65-0.02-1.29-0.03-1.94
		c-0.15,0.02-0.3,0.02-0.45-0.01c-0.07-0.01-0.15-0.03-0.21-0.06c-0.15-0.06-0.3-0.13-0.42-0.24c-0.01,0-0.01-0.01-0.01-0.01
		C50.49,82.82,50.46,85.45,50.45,88.09z M50.45,88.09L50.45,88.09c0.06-0.04,0.12-0.07,0.18-0.09c0.03-0.02,0.06-0.03,0.1-0.04
		c0.05-0.02,0.1-0.03,0.15-0.04c0.16-0.02,0.32-0.01,0.48,0.04c0.04,0.02,0.09,0.04,0.13,0.06c0.04,0.02,0.09,0.04,0.12,0.07
		c0.07,0.05,0.14,0.11,0.2,0.18c-0.02-0.65-0.04-1.29-0.06-1.94c-0.02-0.65-0.04-1.3-0.06-1.95c-0.02-0.65-0.03-1.3-0.04-1.95
		c-0.02-0.65-0.02-1.29-0.03-1.94c-0.15,0.02-0.3,0.02-0.45-0.01c-0.07-0.01-0.15-0.03-0.21-0.06c-0.15-0.06-0.3-0.13-0.42-0.24
		c-0.01,0-0.01-0.01-0.01-0.01C50.49,82.82,50.46,85.45,50.45,88.09z M50.45,88.09L50.45,88.09c0.06-0.04,0.12-0.07,0.18-0.09
		c0.03-0.02,0.06-0.03,0.1-0.04c0.05-0.02,0.1-0.03,0.15-0.04c0.16-0.02,0.32-0.01,0.48,0.04c0.04,0.02,0.09,0.04,0.13,0.06
		c0.04,0.02,0.09,0.04,0.12,0.07c0.07,0.05,0.14,0.11,0.2,0.18c-0.02-0.65-0.04-1.29-0.06-1.94c-0.02-0.65-0.04-1.3-0.06-1.95
		c-0.02-0.65-0.03-1.3-0.04-1.95c-0.02-0.65-0.02-1.29-0.03-1.94c-0.15,0.02-0.3,0.02-0.45-0.01c-0.07-0.01-0.15-0.03-0.21-0.06
		c-0.15-0.06-0.3-0.13-0.42-0.24c-0.01,0-0.01-0.01-0.01-0.01C50.49,82.82,50.46,85.45,50.45,88.09z"/>
	<path class="st1" d="M48.08,142.32c0.42,3.88,0.92,7.74,1.09,11.65c0.01,0.29,0.47,0.3,0.46,0c-0.16-3.92-0.45-7.85-1.29-11.68
		C48.3,142.15,48.06,142.18,48.08,142.32z"/>
	<path class="st1" d="M46.33,137.33c-0.95,5.5-0.47,11.6,0.54,17.07c0.09,0.48,0.86,0.37,0.85-0.11
		c-0.21-5.58-0.15-11.31-0.68-16.86C47,137.06,46.41,136.9,46.33,137.33z"/>
	<path class="st1" d="M53.91,124.87c-0.74,9.58-0.67,19.2-0.27,28.79c0.01,0.26,0.41,0.26,0.4,0c-0.13-9.6,0.12-19.19,0.26-28.79
		C54.3,124.62,53.93,124.63,53.91,124.87z"/>
	<path class="st1" d="M54.07,77.69c-0.12,11.06,0.86,22.19,1.33,33.23c0.48,11.08,0.95,22.16,1.52,33.24c0.02,0.37,0.58,0.37,0.57,0
		c-0.22-11.09-0.61-22.16-1.08-33.24c-0.47-11.04-0.53-22.24-1.75-33.23C54.61,77.32,54.07,77.3,54.07,77.69z"/>
	<path class="st1" d="M48.35,70.8c-0.66,8.61-0.13,17.37,0.3,25.98c0.44,8.67,1.24,17.3,2.15,25.93c0.03,0.29,0.48,0.3,0.46,0
		c-0.65-8.63-1.06-17.28-1.42-25.93c-0.36-8.65-0.22-17.36-0.9-25.98C48.91,70.42,48.38,70.42,48.35,70.8z"/>
	<path class="st1" d="M52.19,63.14c-1.22,13.54-0.25,27.49,0.27,41.05c0.02,0.58,0.92,0.58,0.9,0c-0.36-13.64,0.34-27.43-0.57-41.05
		C52.77,62.75,52.22,62.76,52.19,63.14z"/>
	<path class="st1" d="M50.97,19.49c-0.27,14.61,1.41,29.38,2.36,43.95c0.02,0.32,0.51,0.33,0.5,0C53.31,48.86,53.49,34,51.75,19.49
		C51.69,19.01,50.98,18.98,50.97,19.49z"/>
	<path class="st1" d="M47.11,9.14c-1.07,6.6-0.02,13.96,0.27,20.61c0.01,0.25,0.2,0.38,0.4,0.39c-0.74,9.28,0.2,18.91,1.1,28.1
		c0.05,0.48,0.8,0.49,0.76,0c-0.84-10.16-0.43-20.32-1.01-30.48c-0.02-0.27-0.26-0.36-0.44-0.27c0.07-6.06,0.6-12.48-0.41-18.35
		C47.72,8.81,47.17,8.81,47.11,9.14z"/>
	<path class="st1" d="M48.16,5.56c0.08,4.1,0.26,8.15,1.12,12.17c0.06,0.28,0.5,0.21,0.49-0.07c-0.1-4.04-0.5-8.06-0.65-12.1
		C49.1,4.94,48.15,4.93,48.16,5.56z"/>
	<path class="st1" d="M55.35,7.7c-0.06,14.07-0.27,28.46,1.59,42.43c0.06,0.43,0.7,0.47,0.7,0C57.68,36,56.4,21.84,56.12,7.7
		C56.11,7.21,55.36,7.21,55.35,7.7z"/>
	<path class="st1" d="M57.77,73.55c0.46,7.55,0.54,15.25,1.62,22.74c0.04,0.28,0.48,0.2,0.48-0.06c0.02-7.55-0.98-15.16-1.59-22.67
		C58.26,73.23,57.75,73.22,57.77,73.55z"/>
	<path class="st4" d="M45.21,147.07c0,1.26,1.95,1.26,1.95,0C47.16,145.82,45.21,145.82,45.21,147.07z"/>
	<path class="st4" d="M43.86,143.4c0,0.04,0.06,0.04,0.06,0C43.92,143.36,43.86,143.36,43.86,143.4z"/>
	<path class="st4" d="M45.2,137.43c0,1.27,1.97,1.27,1.97,0C47.17,136.16,45.2,136.16,45.2,137.43z"/>
	<path class="st4" d="M43,133.14c0,1.54,2.4,1.55,2.4,0C45.39,131.59,43,131.59,43,133.14z"/>
	<path class="st4" d="M43.91,130.38c0,1.75,2.71,1.75,2.71,0C46.62,128.63,43.91,128.63,43.91,130.38z"/>
	<path class="st4" d="M46.03,124.71c0,1.58,2.46,1.58,2.46,0C48.48,123.13,46.03,123.13,46.03,124.71z"/>
	<path class="st4" d="M41.44,113.07c0,1.76,2.74,1.77,2.74,0C44.19,111.31,41.44,111.31,41.44,113.07z"/>
	<path class="st4" d="M59.95,144.62c0,1.6,2.48,1.6,2.48,0C62.44,143.03,59.95,143.02,59.95,144.62z"/>
	<path class="st4" d="M56.34,137.73c0,1.72,2.67,1.72,2.67,0C59.01,136.01,56.34,136.01,56.34,137.73z"/>
	<path class="st4" d="M59.55,133.44c0,1.92,2.99,1.92,2.99,0C62.53,131.52,59.55,131.52,59.55,133.44z"/>
	<path class="st4" d="M57.36,124.41c0,1.58,2.46,1.58,2.46,0C59.82,122.83,57.36,122.82,57.36,124.41z"/>
	<path class="st4" d="M60.22,119.81c0,1.65,2.57,1.66,2.57,0C62.79,118.16,60.22,118.16,60.22,119.81z"/>
	<path class="st4" d="M61.14,112.92c0,1.45,2.25,1.45,2.25,0C63.39,111.47,61.14,111.47,61.14,112.92z"/>
	<path class="st4" d="M58.3,104.8c0,1.56,2.43,1.56,2.43,0C60.72,103.24,58.3,103.24,58.3,104.8z"/>
	<path class="st4" d="M60.85,86.12c0,1.63,2.53,1.63,2.53,0C63.38,84.49,60.85,84.49,60.85,86.12z"/>
	<path class="st4" d="M56.68,77.54c0,1.47,2.28,1.47,2.28,0C58.97,76.07,56.68,76.07,56.68,77.54z"/>
	<path class="st4" d="M51.4,96.99c0,1.37,2.13,1.37,2.13,0C53.53,95.62,51.4,95.62,51.4,96.99z"/>
	<path class="st4" d="M45.22,92.7c0,0.45,0.7,0.45,0.7,0C45.92,92.25,45.22,92.25,45.22,92.7z"/>
	<path class="st4" d="M45.21,85.96c0,1.06,1.65,1.06,1.65,0C46.86,84.9,45.21,84.9,45.21,85.96z"/>
	<path class="st4" d="M43.71,79.99c0,1.02,1.58,1.02,1.58,0C45.29,78.97,43.71,78.97,43.71,79.99z"/>
	<path class="st4" d="M42.93,73.1c0,0.65,1.01,0.65,1.01,0C43.93,72.45,42.93,72.45,42.93,73.1z"/>
	<path class="st4" d="M43.96,66.97c0,1.28,2,1.29,2,0C45.96,65.69,43.96,65.69,43.96,66.97z"/>
	<path class="st4" d="M59.26,65.29c0,1.3,2.02,1.3,2.02,0C61.29,63.99,59.26,63.98,59.26,65.29z"/>
	<path class="st4" d="M58.45,57.48c0,1.17,1.82,1.18,1.82,0C60.27,56.3,58.45,56.3,58.45,57.48z"/>
	<path class="st4" d="M58.53,47.67c0,1.06,1.65,1.06,1.65,0C60.18,46.61,58.53,46.61,58.53,47.67z"/>
	<path class="st4" d="M57.37,40.32c0,0.39,0.6,0.39,0.6,0C57.97,39.93,57.37,39.93,57.37,40.32z"/>
	<path class="st4" d="M59.57,36.34c0,0.91,1.42,0.92,1.42,0C60.99,35.43,59.57,35.42,59.57,36.34z"/>
	<path class="st4" d="M60.04,31.75c0,0.3,0.47,0.31,0.47,0C60.51,31.44,60.04,31.44,60.04,31.75z"/>
	<path class="st4" d="M60.09,28.84c0,0.04,0.06,0.04,0.06,0C60.15,28.8,60.09,28.8,60.09,28.84z"/>
	<path class="st4" d="M60.17,22.6c-0.03,0.09-0.06,0.19-0.08,0.28c-0.24,0.83,1.24,0.84,1,0c-0.03-0.09-0.06-0.19-0.08-0.28
		C60.88,22.19,60.29,22.19,60.17,22.6z"/>
	<path class="st4" d="M60.87,17.2c0,1.01,1.57,1.01,1.57,0C62.44,16.19,60.87,16.19,60.87,17.2z"/>
	<path class="st4" d="M59.06,7.85c0,1.37,2.13,1.37,2.13,0C61.19,6.49,59.06,6.48,59.06,7.85z"/>
	<path class="st4" d="M58.97,1.88c0,1.48,2.3,1.48,2.3,0C61.27,0.4,58.97,0.4,58.97,1.88z"/>
	<path class="st4" d="M44.43,6.52c-0.7-0.32-1.73,0.02-1.73,1.02c0,1.22,1.52,1.46,2.12,0.73c0.72,0.36,1.81,0.01,1.81-1.03
		C46.63,5.97,45.03,5.73,44.43,6.52z"/>
	<path class="st4" d="M45.25,14.44c0,1.4,2.18,1.41,2.18,0C47.43,13.03,45.25,13.03,45.25,14.44z"/>
	<path class="st4" d="M43.52,21.33c0,0.87,1.35,0.87,1.35,0C44.87,20.46,43.52,20.46,43.52,21.33z"/>
	<path class="st4" d="M44.23,29.3c0,0.93,1.45,0.93,1.45,0C45.69,28.36,44.23,28.36,44.23,29.3z"/>
	<path class="st4" d="M44.81,36.95c0,0.19,0.3,0.19,0.3,0C45.11,36.76,44.81,36.76,44.81,36.95z"/>
	<path class="st4" d="M43.53,46.59c0.03,0.04,0.05,0.07,0.08,0.11c0.24,0.31,0.62,0.31,0.86,0c0.03-0.04,0.05-0.07,0.08-0.11
		c0.28-0.37-0.1-0.89-0.51-0.89C43.64,45.71,43.25,46.22,43.53,46.59z"/>
	<path class="st4" d="M45.99,50.58c0,1.64,2.54,1.64,2.54,0C48.53,48.95,45.99,48.95,45.99,50.58z"/>
	<path class="st4" d="M43.43,57.94c0,1.38,2.14,1.38,2.14,0C45.57,56.56,43.43,56.56,43.43,57.94z"/>
	<path class="st4" d="M54.59,71.57c0,1.4,2.18,1.41,2.18,0C56.77,70.16,54.59,70.16,54.59,71.57z"/>
	<path class="st4" d="M51.57,104.34c0,1.15,1.79,1.16,1.79,0C53.36,103.19,51.57,103.19,51.57,104.34z"/>
	<path class="st5" d="M45.85,145.59c0,1.68,2.61,1.68,2.61,0C48.46,143.91,45.85,143.91,45.85,145.59z"/>
	<path class="st5" d="M44.38,138.65c0,1.73,2.69,1.73,2.69,0C47.07,136.92,44.38,136.92,44.38,138.65z"/>
	<path class="st5" d="M54.85,112.51c0,1.66,2.58,1.67,2.58,0C57.43,110.85,54.85,110.85,54.85,112.51z"/>
	<path class="st5" d="M59.57,103.93c0,1.63,2.53,1.63,2.53,0C62.1,102.31,59.57,102.31,59.57,103.93z"/>
	<path class="st5" d="M60.44,96.58c0,1.56,2.43,1.56,2.43,0C62.87,95.02,60.44,95.02,60.44,96.58z"/>
	<path class="st5" d="M50.09,88.82c0,1.21,1.88,1.21,1.88,0C51.98,87.61,50.09,87.61,50.09,88.82z"/>
	<path class="st5" d="M52.76,85.56c0,1.72,2.67,1.72,2.67,0C55.43,83.84,52.76,83.83,52.76,85.56z"/>
	<path class="st5" d="M50.12,79.23c0,1.71,2.66,1.71,2.66,0C52.77,77.52,50.12,77.51,50.12,79.23z"/>
	<path class="st5" d="M41.3,73.71c0,1.49,2.31,1.49,2.31,0C43.61,72.22,41.3,72.22,41.3,73.71z"/>
	<path class="st5" d="M51.73,67.18c0,1.47,2.28,1.47,2.28,0C54.01,65.71,51.73,65.71,51.73,67.18z"/>
	<path class="st5" d="M58.79,56.97c0,1.59,2.47,1.59,2.47,0C61.26,55.38,58.79,55.37,58.79,56.97z"/>
	<path class="st5" d="M61.97,48.8c0,0.65,1.01,0.65,1.01,0C62.97,48.15,61.97,48.15,61.97,48.8z"/>
	<path class="st5" d="M60.45,45.33c0,1.28,2,1.29,2,0C62.45,44.04,60.45,44.04,60.45,45.33z"/>
	<path class="st5" d="M57.05,43.9c0,1.46,2.27,1.46,2.27,0C59.32,42.44,57.05,42.43,57.05,43.9z"/>
	<path class="st5" d="M49.8,40.02c0,1.32,2.05,1.32,2.05,0C51.86,38.7,49.8,38.69,49.8,40.02z"/>
	<path class="st5" d="M46.43,36.34c0,1.46,2.27,1.46,2.27,0C48.7,34.88,46.43,34.88,46.43,36.34z"/>
	<path class="st5" d="M54.53,28.17c0,1.55,2.41,1.55,2.41,0C56.94,26.62,54.53,26.62,54.53,28.17z"/>
	<path class="st5" d="M59.36,29.4c0,1.64,2.56,1.65,2.56,0C61.91,27.75,59.36,27.75,59.36,29.4z"/>
	<path class="st5" d="M59.36,3.67c0,1.38,2.14,1.38,2.14,0C61.5,2.29,59.36,2.29,59.36,3.67z"/>
	<path class="st5" d="M61.43,138.24c0,1.07,1.67,1.07,1.67,0C63.1,137.17,61.43,137.17,61.43,138.24z"/>
	<path class="st5" d="M61.82,127.22c0,1.37,2.13,1.37,2.13,0C63.94,125.85,61.82,125.85,61.82,127.22z"/>
	<path class="st5" d="M63.7,122.52c0,0.53,0.82,0.53,0.82,0C64.51,121.99,63.7,121.99,63.7,122.52z"/>
</g>
</svg>
