<?xml version="1.0" encoding="utf-8"?>
<!-- Generator: Adobe Illustrator 25.2.3, SVG Export Plug-In . SVG Version: 6.00 Build 0)  -->
<svg version="1.1" id="Layer_1" xmlns="http://www.w3.org/2000/svg" xmlns:xlink="http://www.w3.org/1999/xlink" x="0px" y="0px"
	 viewBox="0 0 208 156" style="enable-background:new 0 0 208 156;" xml:space="preserve">
<style type="text/css">
	.st0{fill:#D6AD29;}
	.st1{fill:#B79D1D;}
	.st2{fill:#A5B508;}
	.st3{fill:#557507;}
	.st4{fill:#C6A028;}
	.st5{fill:#E2BD23;}
</style>
<g>
	<path class="st0" d="M-0.45,137.88l0-68.98c1.01-0.03,2.01-0.07,2.97-0.12c5.2-0.31,10.24-0.94,15.3-2.19
		c7.23-1.77,14.65-4.15,21.68-7.06c0.11-0.87,0.51-1.69,1.3-2.32c2.7-2.13,5.27-4.41,7.69-6.84c1.08-1.07,2.13-2.19,3.14-3.33
		c2.28-2.55,4.39-5.25,6.31-8.09c0.69-1.02,1.35-2.06,1.97-3.1c0.9-1.49,1.74-3,2.53-4.53c0.42-0.81,0.82-1.62,1.21-2.44
		c0.27-0.57,0.54-1.14,0.8-1.72c1.8-3.93,3.35-7.98,4.83-12.09C69.53,9.49,69.65,3.9,69.6-1.7h68.11c0.09,1.19,0.14,2.37,0.33,3.44
		c0.73,4.07,2.19,8.01,3.8,11.81c2.92,6.86,6.35,13.59,7.99,20.88c2.05,1.17,3.3,3.26,4.56,5.27c0.63,1.01,1.29,2,1.98,2.97
		c2.6,3.68,5.62,7.05,9.21,9.81c4.81,3.69,10.31,6.56,15.61,9.46c5.17,2.84,10.59,5.33,16.54,5.75c0.91,0.06,1.65,0.33,2.27,0.74
		c2.81,0.18,5.62,0.29,8.44,0.32v69.23c-0.29,0.09-0.59,0.15-0.88,0.23c-0.24-0.2-0.56-0.34-0.96-0.34H-0.45z"/>
	<path class="st1" d="M134.94-1.7h9.71c-0.28,1.92-0.83,3.8,0.51,5.4c1.01,1.21,1.21,1.47,0.88,2.82c0,0.01-0.01,0.01-0.01,0.01
		c-0.04,0.15-0.08,0.32-0.13,0.51c-0.25,0.87-0.36,1.46-0.23,2.1c0,0,0,0.01,0,0.01c0.07,0.32,0.19,0.64,0.38,1.04
		c0.27,0.54,0.74,0.97,0.99,1.53c0.48,1.05,0.55,2.16,0.51,3.3c-0.04,1.27-0.34,2.34-0.06,3.33c-0.01,0.01-0.01,0.01,0,0.01
		c0.06,0.17,0.12,0.32,0.2,0.48c0.01,0.02,0.02,0.04,0.02,0.06c0.15,0.29,0.37,0.56,0.67,0.85c0.81,0.77,2.31,1.08,2.98,1.98
		c1.55,2.07-1.48,4.7-0.06,6.94c0.06,0.08,0.12,0.16,0.18,0.24c0.39,0.45,0.96,0.73,1.56,0.97c0.7,0.29,1.45,0.54,2,0.99
		c0.6,0.49,1.02,1.1,1.35,1.79c0.02,0.03,0.03,0.07,0.05,0.1c0.67,1.42,0.74,3.04,1.43,4.45c0.6,1.21,1.3,2.45,1.97,3.63
		c0.59,1.04,1.38,1.97,2.29,2.85c0.74,0.73,1.56,1.42,2.38,2.09c0.62,0.51,1.25,1.01,1.85,1.51c0,0.01,0.01,0.01,0.01,0.01
		c0.02,0.01,0.04,0.03,0.06,0.04c0.1,0.04,0.2,0.09,0.3,0.13c0.01,0.01,0.01,0.01,0.02,0.01c1.55,0.77,2.65,1.86,3.98,3.05
		c0.54,0.48,1.1,0.89,1.68,1.26c1.75,1.1,3.66,1.84,5.42,3.03c0.36,0.25,0.7,0.54,1.03,0.85c0,0.01,0,0.01,0.01,0.01
		c0.68,0.64,1.32,1.32,2.1,1.78c1.39,0.82,3.02,0.78,4.56,0.97c0.09,0.01,0.18,0.02,0.26,0.04c0.01,0,0.01,0,0.01,0
		c1.55,0.22,2.87,0.7,4.21,1.42c0.01,0.01,0.01,0.01,0.01,0.01c0.21,0.12,0.42,0.23,0.64,0.36c1.03,0.59,2.05,1.3,3.2,1.62
		c1.53,0.42,3.04,0.04,4.59,0.16c1.16,0.09,2.22,0.46,3.34,0.68c0.96,0.19,1.8,0.18,2.62,0.11c0.01,0,0.01,0,0.01,0
		c0.79-0.06,1.56-0.18,2.43-0.21c0.62-0.03,1.12-0.18,1.53,0.01c0.03,0.01,0.06-0.02,0.09,0v7.96c-0.98,0.09-1.98,2.13-2.9,1.78
		c-0.51-0.19-1.01-0.77-1.48-0.91c-0.89-0.27-1.34,0.18-2.33,0.32c-0.86,0.12-1.79-0.04-2.49-0.58c-0.5-0.4-0.75-1.37-1.34-1.51
		c-0.44-0.11-1.35,0.46-1.8,0.52c-1.42,0.2-1.66-0.43-2.79-0.97c-1.14-0.55-2.44,0.15-3.75-0.18c-0.91-0.23-1.35-0.7-2.1-1.19
		c-1.13-0.74-1.72-0.91-3.13-0.81c-1.39,0.09-2.46,0.09-3.68-0.76c-1.95-1.37-1.23-3.23-4.22-3.3c-1.79-0.04-3.09,0.89-4.83-0.04
		c-2.93-1.56-2.63-5.65-6.08-6.55c-1.5-0.39-2.92-0.24-4.03-1.53c-0.29-0.34-0.41-0.76-0.65-1.12c-0.23-1-0.89-1.69-1.98-2.08
		c-0.31-0.04-0.61-0.08-0.92-0.12c-0.58-0.28-1.1-0.59-1.57-0.94c-0.1-0.07-0.19-0.15-0.28-0.23c-1.34-1.1-2.07-2.56-1.78-4.52
		c-0.09-0.21-0.13-0.46-0.07-0.74c0.19-1.02-2.55-3.28-3.24-3.68c-0.85-0.5-1.87-0.64-2.66-1.23c-1.07-0.79-1.62-1.93-1.82-3.22
		c-0.21-1.38,0.42-2.6-0.59-3.85c-0.38-0.47-1.07-0.77-1.53-1.18c-1.02-0.88-1.7-1.76-1.75-3.14c-0.02-0.75,0.47-1.54,0.41-2.22
		c-0.14-1.63-1.21-1.5-2.16-2.38c-1.15-1.07-1.68-2.54-1.65-4.09c0.03-2.41,2.11-4.83,0.27-7.04c-1.17-1.42-2.85-1.8-3.75-3.55
		c-0.19-0.36-0.26-0.88,0-1.24c2.09-2.83-0.7-3.77-1.51-6.19C133.84,0.87,134.82-0.42,134.94-1.7z"/>
	<path class="st1" d="M-0.45,71.21v-9.19c0.72,0.32,1.61,1.75,2.52,1.98c0.02,0.01,0.06,0.02,0.09,0.02h0.01
		c0.83,0.21,1.67,0.33,2.41,0.28c0.02-0.02,0.04-0.05,0.06-0.07c0.29-0.34,0.8-0.42,1.23-0.29c1.37-0.7,2.35-2.11,3.82-2.75
		c1.64-0.71,1.87-0.1,3.12,0.47c0,0,0,0,0.01,0c0.07,0.02,0.14,0.06,0.21,0.09c0.19,0.52,0.49,0.6,0.9,0.24
		c0.35-0.06,0.63-0.23,0.85-0.51c0.45-0.29,0.81-0.73,1.29-1c0.14-0.09,0.28-0.15,0.42-0.21c0.72-0.34,1.48-0.45,2.27-0.62
		c0.24-0.06,0.44-0.12,0.63-0.21c0.01-0.01,0.01-0.01,0.01-0.01c0.55-0.24,0.93-0.59,1.54-0.78c0.37-0.12,0.75-0.19,1.11-0.25
		c0.01,0,0.01,0,0.02-0.01h0.02c0.44-0.08,0.86-0.15,1.26-0.29c0.01,0,0.01,0,0.02-0.01c0.5-0.17,0.94-0.47,1.32-1.05
		c0.08-0.24,0.25-0.47,0.53-0.63c2.02-1.19,3.97-0.61,6.08-1.29c1.5-0.48,1.87-1.68,2.63-2.6c0.28-0.34,0.61-0.64,1.07-0.85
		c0.55-0.26,0.98-0.26,1.37-0.25c0.17,0.01,0.34,0.02,0.5,0.02c0.03-0.04,0.06-0.09,0.09-0.13c0.56-0.72,1.13-1.23,1.83-1.76
		c-0.01-0.1-0.01-0.19-0.01-0.29v-0.01c0.01-0.1,0.04-0.2,0.12-0.29c0.69-0.87,1.44-1.02,2.34-1c0.1-0.15,0.2-0.31,0.28-0.47
		c0.33-0.7,0.2-1.36,0.78-2c1.04-1.12,2.51-0.82,3.83-0.97h0.01c0.01,0,0.01,0,0.01,0c0.81-0.1,1.57-0.36,2.13-1.23
		c0.18-0.27,0.31-0.57,0.39-0.88c0.01-0.02,0.02-0.05,0.02-0.07c0.18-0.62,0.23-1.3,0.3-1.98c0,0,0-0.01,0-0.01
		c0-0.01,0-0.01,0-0.01c0.12-1.15,0.32-2.26,1.32-2.99c0.59-0.42,1.19-0.34,1.81-0.59c1.09-0.42,0.6,0.07,0.95-0.8v-0.01
		c0.03-0.06,0.06-0.12,0.09-0.19c0.49-1.08,1.15-1.84,1.58-2.73c0.31-0.63,0.28-1.23,0.8-1.81c0.26-0.29,0.65-0.44,0.95-0.66
		c0.07-0.05,0.14-0.1,0.2-0.17c0.65-0.67,1.04-1.56,1.15-2.54c0.17-1.51,0.13-1.61,1.19-2.57c0.01-0.01,0.01-0.01,0.01-0.01
		c0.07-0.06,0.13-0.11,0.2-0.18c0.18-0.16,0.36-0.26,0.53-0.32c0.54-0.22,0.92-0.17,0.72-1.35c0,0,0-0.01,0-0.01
		c-0.01-0.07-0.03-0.17-0.05-0.25c-0.09-0.44-0.59-0.93-0.79-1.34c-0.18-0.39-0.29-0.75-0.37-1.13c-0.39-0.34-0.55-0.88-0.16-1.42
		c0.04-0.07,0.09-0.13,0.15-0.19c1.24-1.64,2.81-2.24,3.74-3.86c0.04-0.07,0.09-0.13,0.12-0.21c0.21-0.39,0.37-0.83,0.5-1.35
		c0.21-0.88,0.42-1.75,0.64-2.62v-0.01c0-0.01,0-0.02,0.01-0.02l0.09-0.33c0-0.01,0-0.01,0.01-0.02c0.2-0.77,0.4-1.53,0.63-2.29
		c-0.06-0.03-0.12-0.07-0.17-0.11c-0.62-0.41-1.04-1.02-1.18-1.94c-0.03-0.18-0.04-0.34-0.04-0.5c0-0.01,0-0.01,0-0.01
		c0.01-0.55,0.19-1.02,0.31-1.61c0.15-0.71,0.24-1.3,0.29-1.88c0-0.01,0-0.01,0-0.01c0.05-0.61,0.05-1.24,0.01-2.02
		c-0.03-0.67-0.04-1.38,0.15-1.98h9.31c0.14,1.41,1.04,2.82,0.81,4.14c-0.15,0.85-0.56,0.96-0.36,1.8c0.09,0.36,0.62,0.75,0.78,1.12
		c0.58,1.34-0.1,1.65-0.5,2.77c-0.29,0.81-0.07,3.33-0.67,4.19c-0.26,0.37-0.74,0.47-1.07,0.74c-1.04,0-1.53,0.67-1.48,2.01
		c0.05,0.17,0.08,0.34,0.09,0.53c0.02,0.03,0.04,0.07,0.06,0.1c0.1,0.15,0.19,0.29,0.28,0.45c0.36,1,1.36,1.89,0.81,3.03
		c-0.2,0.41-0.65,0.56-0.89,0.86c-0.76,0.92-0.93,1.32-0.93,1.67c0,0.35,0.18,0.66,0.12,1.4c-0.13,1.69-0.91,2.07-1.92,3.3
		c0.01,0.35-0.11,0.7-0.41,0.98c-0.04,0.03-0.08,0.07-0.13,0.1c-1.44,1.04-1.38,2.87-1.51,4.54c-0.03,0.5-0.09,0.97-0.2,1.42
		c-0.23,0.86-0.56,1.54-1.05,2.16c-0.26,0.34-0.57,0.64-0.93,0.96c-0.38,0.32-1.23,0.67-1.68,1.04c-0.1,0.08-0.18,0.17-0.23,0.25
		c-0.4,0.74,0.27,2.13,0.15,2.93c-0.13,0.94-0.52,1.59-1.23,2.22c-1.34,1.19-3.19,0.99-3.79,2.99c-0.36,1.18,0.07,2.24-0.79,3.29
		c-0.93,1.13-1.82,0.67-2.98,1.05c-2.54,0.83-2.55,2.92-3.55,4.94c-1.43,2.89-3.61,2.81-6.44,3.31c-2.17,0.39-4.23,1.37-5.88,2.85
		c-1.14,1.02-1.95,2.14-3.45,2.65c-0.86,0.29-1.71,0.26-2.54,0.7c-1.15,0.59-1.42,1.35-2.13,2.36c-0.69,0.97-1.38,1.76-2.54,2.17
		c-1.46,0.52-2.84,0.06-4.34,0.17c-1.7,0.13-2.84,1.27-4.53,1.28c-0.21,0.01-0.4-0.04-0.55-0.12c-0.46,0.23-0.89,0.36-1.46,0.45
		c-1.42,0.21-2.24,0.53-3.52,1.15c-1.56,0.77-1.69,0.43-3.25-0.07c-1.72-0.55-1.27-0.17-2.47,0.5c-0.83,0.47-1.37,0.72-2.34,0.8
		C3.11,73.63,1.37,71.37-0.45,71.21z"/>
	<path class="st2" d="M143.17,2.58c0.01-0.12,0.01-0.25,0.01-0.39c0-0.01,0-0.01,0-0.01c0.01-0.97-0.01-2.53,0.18-3.88h13.02v5.44
		c0,0.07,0.01,0.13,0.01,0.19c0.09,0.83,0.15,0.34,0.27,0.87c0.12,0.48,0.33,0.89,0.37,1.42c0.1,1.49,0.38,3.54-0.28,5.04
		c-0.09,0.21-0.23,0.43-0.37,0.66c-0.65,0.99-1.56,2.05-0.29,2.6c0.1,0.04,0.2,0.07,0.29,0.09c0.61,0.1,1.27-0.16,1.87,0.21
		c1.42,0.87,0.52,1.83,0.64,2.95c0.14,0.14,0.25,0.34,0.29,0.59c0.25,1.46,2.22,1.91,2.78,3.27c0.25,0.59,0.09,1.02,0.19,1.6
		c0.02,0.15,0.02,0.25,0.02,0.33c0.05,0.03,0.1,0.06,0.15,0.09c1.2,0.73,1.81,0.97,2.16,2.42c-0.04,0.32-0.09,0.66-0.13,0.99
		c0.28,0.81,0.74,1.44,1.38,1.9c0.45,0.5,1.03,0.79,1.4,1.39c0.41,0.67,0.55,1.28,0.43,2.06c0,0.22-0.06,0.42-0.17,0.61
		c-0.18,0.21-0.29,0.38-0.32,0.5c0.04,0.08,0.08,0.17,0.12,0.25c0.15,0.04,0.44,0,0.87-0.13c1.18,0.58,1.78,0.68,2.54,1.89
		c0.59,0.94,0.77,2.05,1.3,2.99c0.69,1.21,1.38,1.02,2.68,1.05c1.13,0.03,2.3,0.17,3.09,1.08c0.55,0.62,0.39,1.27,0.75,1.91
		c0.86,1.56,1.1,0.96,2.29,1.3c1.5,0.43,1.72,0.8,2.82,1.89c1.5,1.48,2.52,1.72,4.45,1.77c0.64,0.01,1.26-0.03,1.86,0.24
		c0.53,0.25,0.81,0.77,1.26,1.05c0.03,0.57,0.29,0.72,0.77,0.44c0.4-0.2,0.81-0.34,1.24-0.42c1.18-0.15,1.71,0.27,2.49,1.06
		c0.16,0.31,0.31,0.62,0.43,0.94c0.78,0.77,1.57,0.87,2.36,0.32c0.79-0.09,1.45-0.48,2.28-0.42c0.74,0.06,1.32,0.53,2,0.61
		c2.95,0.36,2.36-0.37,3.94-1.65c0.7-0.57,1.25-0.67,1.83-0.69v13.64c-0.03-0.01-0.06,0.01-0.09,0c-1.31-0.18-2.63,0.19-3.96,0.21
		c-0.01,0-0.01,0-0.01,0c-0.86,0.02-1.71-0.01-2.57-0.2c-2.29-0.5-4.59-0.84-6.87-1.37c-1.64-0.38-3.3-0.85-4.96-1.37
		c-0.01,0-0.01,0-0.01-0.01c-1.41-0.43-2.82-0.91-4.21-1.42c-0.01,0-0.01,0-0.01,0c-1.79-0.64-3.55-1.31-5.25-1.98
		c-0.59-0.23-1.14-0.51-1.68-0.82c-0.01,0-0.01,0-0.01-0.01c-1.04-0.59-2.02-1.27-3.07-1.84c-1.23-0.66-2.33-1.28-3.38-2.05
		c-0.51-0.37-1.01-0.77-1.51-1.23c-1.01-0.94-1.89-1.86-3.11-2.55c-0.34-0.2-0.7-0.36-1.05-0.53c-0.01-0.01-0.01-0.01-0.02-0.01
		c-0.12-0.06-0.24-0.12-0.36-0.18c0,0-0.01,0-0.01-0.01c-0.32-0.17-0.64-0.35-0.93-0.58c-0.38-0.29-0.69-0.6-0.93-0.93
		c-0.32-0.42-0.53-0.89-0.67-1.43c-0.56-0.2-1.15-0.4-1.71-0.66c-1.15-0.51-2.21-1.2-2.77-2.3c-1.21-2.33-1.65-4.99-2.96-7.32
		c-0.06-0.11-0.12-0.21-0.19-0.32c-1.22-2.02-3.38-3.06-4.72-4.83c-0.06-0.08-0.12-0.16-0.18-0.24c-0.07-0.1-0.15-0.2-0.22-0.31
		c-0.38-0.63-0.64-1.43-0.59-2.18c0.06-1.06,1.14-2.37,0.99-3.38c-0.25-1.61-2.31-1.94-3.21-3.03c-0.22-0.26-0.4-0.55-0.55-0.86
		c-0.01-0.02-0.02-0.04-0.02-0.06c-0.07-0.15-0.14-0.31-0.2-0.48c-0.01,0-0.01-0.01,0-0.01c-0.13-0.34-0.22-0.69-0.29-1.05
		c-0.28-1.32-0.21-2.68-0.49-4c-0.28-1.32-0.95-2.57-1.04-3.92c-0.01-0.08-0.01-0.16-0.01-0.23c0-0.01,0-0.01,0-0.01
		c0.01-0.89,0.36-1.73,0.37-2.61c0,0,0.01-0.01,0.01-0.01c0-0.21-0.02-0.43-0.06-0.65c-0.32-1.52-0.6-0.69-1.59-1.36
		c-0.42-0.29-0.67-0.63-0.8-1.01c-0.05-0.04-0.09-0.07-0.13-0.12V3.38C143.26,3.19,143.16,2.92,143.17,2.58z"/>
	<path class="st2" d="M-0.45,62.64V49.21c0.79-0.07,1.58-0.09,2.33,0.07c0.8,0.17,1.24,0.74,1.89,1.04c2.03,0.9,2.47-0.2,4.23-0.55
		c1.04-0.21,1.8,0.13,2.78,0.35c1.35,0.3,3.81,0.58,5.21,0.31c2.32-0.45,1.77-1.84,3.06-3.16c1.19-1.2,2.82-1.26,4.38-1.04
		c0.09-0.15,0.17-0.31,0.25-0.46c0.26-0.5,0.7-0.66,1.13-0.59c0.2-0.07,0.45-0.06,0.72,0.04c-0.49-0.18,0.37-1.3,0.98-1.66
		c1.18-0.72,2.34,0.1,3.42-0.28c1.53-0.53,1.04-2.48,2.03-3.43c0.87-0.85,1.64-0.52,2.68-0.73c1.89-0.38,1.1-1.46,1.82-2.82
		c0.56-1.07,1.32-1.13,2.32-1.56c1.07-0.46,1.45,0.77,2.2-1.3c0.17-0.47-0.1-1.25,0.02-1.78c0.21-0.92,0.59-1.59,1.42-2.05
		c0.46-0.25,0.84-0.23,1.32-0.37c1.81-0.55,1.98-0.64,2.19-2.49c0.17-1.56-0.86-3.57-0.17-5.07c0.48-1.05,1.37-1,2.22-1.62
		c2.16-1.58,0.53-4.09,1.35-6.03c0.51-1.22,1.59-1.85,2-3.14c0.45-1.39-0.25-2.49,0.08-3.87c0.1-0.43,0.48-0.8,0.58-1.19
		c0.48-1.85-0.2-2.55-0.71-3.98c-0.42-1.17,0.75-2.35,0.64-3.56h12.92c0.04,0.34,0.04,0.71,0,1.1c0.01,0.22-0.01,0.43-0.09,0.63
		c-0.13,0.74-0.34,1.51-0.55,2.27c0,0.01,0,0.01,0,0.01c-0.37,1.32-0.73,2.59-0.61,3.49c0,0.01,0,0.01,0,0.01
		c0.07,0.48,0.28,0.85,0.69,1.07c0.57,0.29,0.69,0.86,0.53,1.37c-0.09,0.29-0.28,0.56-0.53,0.74c-0.69,0.52-1.03,1.02-1.18,1.52
		c0.01,0.03,0.02,0.07,0.03,0.1c0.16,0.61,0.15,1.21,0.04,1.76c0.16,0.76,0.34,1.54,0.03,2.4c-0.03,0.08-0.07,0.16-0.1,0.23
		c-0.04,0.07-0.08,0.14-0.12,0.21c-0.62,0.92-1.84,1.15-2.63,1.98c-0.56,0.59-0.94,1.21-1.11,1.87c-0.02,0.06-0.03,0.12-0.04,0.17
		c0.29,0.35,0.41,0.85,0.18,1.37c-0.02,0.04-0.04,0.09-0.06,0.13c0.04,0.12,0.07,0.23,0.13,0.35c0.24,0.51,0.83,0.81,0.99,1.46
		c0.07,0.31,0.08,0.58,0.04,0.85c0,0.01,0,0.01,0,0.01c-0.09,0.51-0.35,0.94-0.72,1.35c-0.01,0.01-0.02,0.02-0.03,0.04
		c-0.19,0.21-0.44,0.34-0.7,0.47c0,0,0,0-0.01,0.01c-0.23,0.12-0.47,0.23-0.66,0.4c-3.4,3.06-0.55,1.57-1.25,3.52
		c-0.15,0.43-0.36,0.81-0.57,1.23c-0.02,0.04-0.04,0.08-0.06,0.12c-0.56,1.08-1.04,2.24-1.48,3.37c-0.38,0.99-1.07,1.62-1.93,2.02
		v0.01c-1.04,0.5-2.32,0.67-3.57,0.8c-0.07,0.23-0.21,0.4-0.37,0.54c-0.2,0.95-0.12,2.02-0.15,3.04c0,0.01,0,0.01,0,0.01
		c0,0.01,0,0.01,0,0.01c-0.02,0.69-0.08,1.37-0.3,1.98c-0.01,0.02-0.02,0.05-0.02,0.07c-0.1,0.26-0.24,0.51-0.42,0.75
		c-0.49,0.66-1.26,1.07-2.1,1.35c-0.01,0-0.01,0-0.01,0h-0.01c-0.78,0.26-1.62,0.4-2.32,0.51c-2.68,0.42-0.96,1.15-1.93,2.89
		c-0.63,1.12-1.96,1.08-3.11,1.34v0.01c-0.81,0.17-1.53,0.49-1.84,1.45c-0.1,0.33-0.31,0.57-0.57,0.71
		c-0.18,0.1-0.39,0.17-0.61,0.19c-0.3,0.19-0.6,0.37-0.9,0.56c-0.22,0.26-0.58,0.37-0.93,0.35c-0.2-0.01-0.39-0.06-0.56-0.16
		c-0.26-0.15-1.61,1.79-1.86,2c-0.69,0.56-1.29,0.81-2.14,0.98c-0.97,0.19-2.08-0.32-3.01-0.08c-1.42,0.36-1.41,1.2-2.18,2.1
		c-0.3,0.35-0.56,0.58-0.82,0.74c-0.01,0.01-0.01,0.01-0.02,0.01c-0.4,0.24-0.79,0.29-1.26,0.29h-0.02
		c-0.01,0.01-0.01,0.01-0.02,0.01c-0.32,0.01-0.7-0.01-1.15,0.02c-1.48,0.09-0.41-0.36-1.34,0.82c-0.05,0.06-0.1,0.13-0.17,0.19
		c0,0.01-0.01,0.01-0.01,0.01c-0.28,0.31-0.62,0.59-0.99,0.74c-0.49,0.21-1.06,0.12-1.57,0.16c-0.11-0.03-0.23-0.06-0.34-0.07
		c-0.7-0.12-1.39,0.01-2.06,0.39c-0.23,0.32-0.5,0.59-0.81,0.81c-0.26,0.1-0.53,0.17-0.8,0.21c-0.01,0-0.01,0-0.01,0
		c-0.34,0.06-0.69,0.07-1.04,0.05c-0.68-0.21-1.37-0.39-2.08-0.52c-0.05-0.01-0.1-0.02-0.15-0.03c-0.88,0.1-1.52,0.52-1.9,1.24
		c-1.08,0.87-1.95,1.59-3.49,1.26c-1.14-0.25-1.7-1.19-2.95-1.26C0.62,62.38,0.09,62.55-0.45,62.64z"/>
	<path class="st3" d="M-0.45,62.75V60.3c0.29,0.04,0.58,1.15,0.88,1.23c0-0.01,0.01-0.02,0.01-0.03c0.36-0.87,1.3-1.19,2.05-0.54
		c1.83,1.58,2.38,1.61,3.93-0.21c0.45-0.53,0.55-0.81,1.21-1.02c1.36-0.44,3.29,0.23,4.8,0.95c0.32-0.59,0.8-1.09,1.53-1.43
		c1.87-0.88,3.96,1.05,4.64-1.86c0.19-0.81,1.12-1.08,1.8-0.74c1.25,1.04,2.54,0.98,3.85-0.18c0.04-0.35,0.14-0.69,0.29-1
		c0.47-0.64,0.53-1.08,1.31-1.46c1.52-0.74,6,1.61,5.89-1.68c-0.03-0.76,0.81-1.44,1.55-1.18c2.51,0.87,2.23-2,3.78-2.91
		c1.03-0.61,2.4-0.69,3.67-0.63c-0.38-1.33-0.85-2.56,0.55-3.69c2.07-1.68,6.64,0.51,6.81-3.04c0.09-1.93-0.6-3.36,1.18-4.91
		c1.07-0.94,2.44-1.18,3.75-0.91c0.34-1.25,0.02-2.88,0.89-4.06c0.54-0.72,1.21-1.24,1.98-1.58c-0.31-0.84-0.34-1.76,0.02-2.68
		c0.51-1.29,3.63-2.43,3.21-3.72c-0.41-1.24-2.35-1.26-2.19-3.12c0.19-2.17,3.34-3.8,4.8-5.02c0.13-0.12,0.28-0.19,0.42-0.23
		c-0.01-1.04-0.73-3.63-0.47-4.39c0.34-1.02,1.04-1.73,1.79-2.41c-0.46-0.21-1.05-0.41-1.17-0.46c-0.61-0.27-0.74-1.15-0.43-1.68
		c1.31-2.33,1.4-4.86,1.16-7.41h2.43c0.21,2.55,0.11,5.04-0.88,7.41c0.86,0.39,1.56,0.82,1.81,1.89c0.1,0.42,0.01,0.89-0.31,1.19
		c-0.64,0.59-1.43,1.13-1.72,1.86c-0.01,0.01-0.01,0.01-0.01,0.02c-0.04,0.1-0.07,0.21-0.09,0.33c-0.01,0.01-0.01,0.01-0.01,0.02
		v0.01c-0.04,0.26-0.02,0.54,0.09,0.86c0.24,0.71,0.81,1.05,0.92,1.87c0.19,1.53-0.7,2.76-1.98,3.42c-0.25,0.13-0.5,0.17-0.72,0.14
		c-0.77,0.58-1.59,1.18-2.17,1.87c-0.87,1.04-0.67,0.86-0.01,1.72c0.57,0.75,1.42,0.94,1.75,1.95c0.28,0.83,0.09,1.67-0.4,2.37
		c-0.64,0.94-4.69,2.4-3.05,4.06c0.58,0.59,0.41,1.91-0.54,2.05c-3.71,0.53-1.88,3.85-3.39,5.81c-0.31,0.4-0.85,0.79-1.38,0.56
		c-1.34-0.8-2.35-0.07-3.01,2.21c0.14,0.29,0.25,0.6,0.34,0.92c0,0.47,0.17,0.88,0.1,1.38c-0.13,0.94-0.72,1.73-1.47,2.3
		c-1.22,0.93-2.58,0.85-4.01,1.02c-0.66-0.17-1.24-0.02-1.72,0.45c-0.81,0.17-0.97,0.55-0.45,1.16c-0.03,0.43,0.31,1.32,0.34,1.78
		c0.04,0.61-0.6,1.29-1.23,1.23c-1.71-0.17-3.15-0.4-4.14,1.28c-0.36,0.61-0.23,1.24-0.83,1.8c-0.88,0.82-2.11,0.86-3.26,0.64
		c-0.25,0.93-0.78,1.75-1.68,2.31c-0.65,0.41-1.38,0.6-2.15,0.62c-0.73,0.01-2.02-0.76-2.65-0.57c-1.32,0.41-1.49,2.79-3.06,3.44
		c-1.34,0.55-2.66,0.26-3.91-0.26c-0.29,0.76-0.69,1.47-1.35,1.94c-0.94,0.67-4.75,0.29-4.85,1.07c-0.11,0.9-0.96,1.56-1.84,1.06
		c-1.81-1.03-3.51-1.95-4.93-0.2c-0.53,0.66-0.94,1.52-1.71,1.93c-1.36,0.72-2.63-0.18-3.72-1.19H2.15
		C2.13,64,2.11,63.99,2.09,63.97C2.08,63.99,2.08,63.99,2.06,64c-0.28,0.29-0.67,0.45-1.11,0.27C0.47,64.08,0.01,62.85-0.45,62.75z"
		/>
	<path class="st3" d="M143.26-1.7h2.38c-0.36,2.23-0.62,5.12,1.74,5.5c0.83,0.13,1.06,1.17,0.73,1.8c-0.78,1.5-2.13,1.72-1.28,3.54
		c0.79,1.7,1.42,3.08,1.6,5c0.1,1.04,0.1,2.09,0.16,3.13c0.04,0.58-0.05,1.37,0.31,1.86c0.62,0.85,0.09,0.23,0.9,0.5
		c1.19,0.38,2.17,0.11,2.79,1.51c0.54,1.21-0.01,2.29-0.46,3.41c-0.59,1.47-0.95,2.99,0.34,4.27c0.67,0.66,1.69,0.77,2.48,1.2
		c0.62,0.34,1.08,0.67,1.43,1.08c0.34,0.42,0.58,0.92,0.77,1.61c0.39,1.44,0.31,2.5,1.26,3.73c0.39,0.5,0.85,0.97,1.13,1.54
		c0.64,1.29,0.06,3.01,1.06,3.8c1.02,0.8,2.17,0.32,3.06,1.48c0.7,0.91,0.64,1.44,1.64,2.27c1.02,0.86,1.19,0.65,2.3,1.03
		c1.11,0.39,1.92,1.16,2.69,2.02c0.56,0.62,1.01,1.39,1.64,1.95c1.12,1,2.46,1.16,3.84,1.59c1.54,0.47,2.63,1.25,3.75,2.38
		c1.45,1.48,2.96,1.6,4.93,1.68c0.43,0.02,0.86-0.01,1.3,0.07c1.71,0.34,3.56,1.49,4.99,2.4c1.58,1.01,2.93,2.12,5.02,1.79
		c0.45-0.07,0.8-0.45,1.28-0.51c1.34-0.15,2.06,0.78,3.18,1.28c2.65,1.19,5.49-1.31,8.25-0.91v2.51c-2.22-0.77-4.72,1.42-7.03,1.23
		c-1.82-0.15-3.12-1.62-4.77-1.26c-1.64,0.36-2.52,0.85-4.23-0.03c-2.6-1.34-5.01-4.23-8.17-3.99c-1.89,0.14-2.87,0.53-4.59-0.72
		c-0.85-0.61-1.46-1.45-2.22-2.16c-1.16-1.08-2.32-1.32-3.77-1.75c-1.81-0.53-2.95-1.29-4.2-2.69c-0.56-0.62-1-1.38-1.64-1.91
		c-0.97-0.8-1.92-0.69-3.04-0.99c-1.45-0.4-1.68-1.19-2.5-2.27c-0.74-0.97,0.13-0.5-1.15-1.27c-0.99-0.59-0.62-0.26-1.19-0.48
		c-0.67-0.27-1.07-0.25-1.61-0.75c-1.13-1.09-0.53-2.4-0.78-3.74c-0.17-0.87-0.66-1.59-1.19-2.3c-0.58-0.79-1.19-1.57-1.42-2.54
		c-0.36-1.59-0.53-2.36-2.09-3.35c-0.5-0.31-1.07-0.45-1.57-0.82c-1.07-0.81-1.78-2-2.08-3.3c-0.45-1.92,0.57-2.73,0.8-4.42
		c0.25-1.85-1.9-0.89-2.93-1.93c-0.89-0.9-0.85-2.5-0.93-3.66c-0.16-2.32,0.1-4.94-1.19-7c-0.73-1.17-1.96-2.06-1.45-3.62
		c0.24-0.74,0.85-1.16,1.42-1.61c-0.75-0.51-1.23-1.24-1.49-2.1V3.38c-0.13-0.37-0.21-0.77-0.26-1.19c0-0.01,0-0.01,0-0.01
		C143.01,0.94,143.11-0.44,143.26-1.7z"/>
	<path class="st4" d="M192.23,115.52c0.25,0.42,0.59,0.76,1.01,1.01c0.17,0.12,0.29,0.17,0.5,0.26c0.34,0.14,0.77,0.27,1.15,0.23
		c0.71-0.08,1.41-0.24,1.91-0.79c0.14-0.18,0.28-0.36,0.42-0.55c0.24-0.42,0.37-0.88,0.37-1.36c0.06-0.55-0.17-1.2-0.5-1.65
		c-0.25-0.42-0.59-0.76-1.01-1.01c-0.44-0.26-0.92-0.38-1.43-0.39c-0.75,0.03-1.46,0.29-2,0.83c-0.51,0.51-0.83,1.27-0.83,2
		C191.85,114.6,191.98,115.08,192.23,115.52z"/>
	<path class="st4" d="M191.3,124.92c3.68,0,3.69-5.72,0-5.72C187.62,119.2,187.61,124.92,191.3,124.92z"/>
	<path class="st4" d="M178.65,123.07c0.47,0.47,1.25,0.83,1.93,0.8c0.71-0.03,1.44-0.26,1.93-0.8c0.46-0.5,0.88-1.23,0.8-1.93
		c-0.06-0.55-0.08-1.12-0.3-1.64c-0.21-0.5-0.41-0.8-0.78-1.24c-0.35-0.42-1.11-0.71-1.65-0.68c-0.59,0.03-1.25,0.22-1.65,0.68
		c-0.37,0.43-0.57,0.74-0.78,1.24c-0.22,0.52-0.24,1.08-0.3,1.64C177.78,121.79,178.21,122.63,178.65,123.07z"/>
	<path class="st4" d="M174.76,97.8c3.08,0,3.08-4.79,0-4.79C171.68,93.01,171.67,97.8,174.76,97.8z"/>
	<path class="st4" d="M185.48,89.21c2.28,0,2.28-3.54,0-3.54C183.2,85.67,183.2,89.21,185.48,89.21z"/>
	<path class="st4" d="M181.97,101.67c0.44,0.44,1.26,0.74,1.87,0.5c0.42-0.17,0.82-0.33,1.2-0.59c0.62-0.42,1.11-1.09,1.08-1.88
		c-0.03-0.58-0.22-1.12-0.64-1.54c-0.39-0.39-0.98-0.64-1.54-0.64c-0.81,0-1.44,0.43-1.88,1.08c-0.26,0.38-0.42,0.78-0.59,1.2
		C181.23,100.41,181.53,101.23,181.97,101.67z"/>
	<path class="st4" d="M164.04,113.8c2.77,0,2.78-4.31,0-4.31C161.27,109.49,161.26,113.8,164.04,113.8z"/>
	<path class="st4" d="M157.61,87.26c3.31,0,3.32-5.15,0-5.15C154.29,82.11,154.29,87.26,157.61,87.26z"/>
	<path class="st4" d="M143.82,75.93c4.11,0,4.12-6.39,0-6.39C139.71,69.54,139.7,75.93,143.82,75.93z"/>
	<path class="st4" d="M197.73,83.2c2.18,0,3.03-2.05,2.58-3.66c0.5-0.77,0.15-2.08-1.05-2.08c-0.32,0-0.58,0.1-0.78,0.25
		c-0.23-0.06-0.48-0.1-0.75-0.1C194.13,77.6,194.12,83.2,197.73,83.2z"/>
	<path class="st4" d="M197.02,103.64c0.94,0,1.39-0.77,1.34-1.51c3.13-0.01,3.13-4.88-0.01-4.88c-2.17,0-2.84,2.34-2.01,3.78
		C195.27,101.63,195.49,103.64,197.02,103.64z"/>
	<path class="st4" d="M159.14,137.01c3.87,0,3.87-6.01,0-6.01C155.27,131,155.27,137.01,159.14,137.01z"/>
	<path class="st4" d="M171.08,132.28c3.3,0,3.3-5.12,0-5.12C167.79,127.15,167.78,132.28,171.08,132.28z"/>
	<path class="st4" d="M143.82,118.49c2.89,0,2.9-4.5,0-4.5C140.93,113.99,140.92,118.49,143.82,118.49z"/>
	<path class="st4" d="M146.27,102.84c2.46,0,2.47-3.83,0-3.83C143.81,99.01,143.8,102.84,146.27,102.84z"/>
	<path class="st4" d="M132.18,94.87c3.65,0,3.66-5.67,0-5.67C128.53,89.2,128.53,94.87,132.18,94.87z"/>
	<path class="st4" d="M172,79.29c3.7,0,3.7-5.74,0-5.74C168.31,73.54,168.3,79.29,172,79.29z"/>
	<path class="st4" d="M150.87,66.58c2.71,0,2.71-4.21,0-4.21C148.16,62.36,148.15,66.58,150.87,66.58z"/>
	<path class="st4" d="M144.13,51.54c2.68,0,2.68-4.16,0-4.16C141.45,47.38,141.44,51.54,144.13,51.54z"/>
	<path class="st4" d="M128.81,51.75c4.13,0,4.13-6.41,0-6.41C124.68,45.33,124.68,51.75,128.81,51.75z"/>
	<path class="st4" d="M129.12,41.9c4.07,0,4.07-6.32,0-6.32C125.05,35.58,125.05,41.9,129.12,41.9z"/>
	<path class="st4" d="M135.86,31.38c3.54,0,3.55-5.5,0-5.5C132.32,25.88,132.31,31.38,135.86,31.38z"/>
	<path class="st4" d="M126.61,22.36c0.48,0.59,1.21,0.98,2.2,0.98c2.01,0,2.97-1.64,2.87-3.2c1.88-0.22,1.82-3.25-0.21-3.25
		c-0.66,0-1.12,0.32-1.36,0.77c-0.37-0.17-0.8-0.27-1.29-0.27c-1.68,0-2.63,1.15-2.83,2.43C125.06,20.46,125.28,22.22,126.61,22.36z
		"/>
	<path class="st4" d="M128.2,11.91c3.71,0,3.72-5.77,0-5.77C124.49,6.14,124.48,11.91,128.2,11.91z"/>
	<path class="st4" d="M108.29,14.88c3.99,0,3.99-6.2,0-6.2C104.3,8.68,104.29,14.88,108.29,14.88z"/>
	<path class="st4" d="M104,18.16c3.08,0,3.08-4.79,0-4.79C100.92,13.37,100.92,18.16,104,18.16z"/>
	<path class="st4" d="M112.27,31.92c3.83,0,3.84-5.96,0-5.96C108.44,25.96,108.43,31.92,112.27,31.92z"/>
	<path class="st4" d="M112.07,24.33c0.27,0,0.48-0.1,0.63-0.25c0.3,0.75,0.97,1.33,2.03,1.33c2.96,0,2.96-4.59,0-4.59
		c-1.27,0-2,0.86-2.17,1.83c-0.13-0.08-0.29-0.14-0.48-0.14C110.89,22.51,110.89,24.33,112.07,24.33z"/>
	<path class="st4" d="M119.62,7.79c1.28,0,2.5-1.12,2.44-2.44c-0.06-1.32-1.07-2.44-2.44-2.44c-1.28,0-2.5,1.12-2.44,2.44
		C117.24,6.67,118.25,7.79,119.62,7.79z"/>
	<path class="st4" d="M98.18,7.11c3.05,0,3.05-4.74,0-4.74C95.13,2.37,95.13,7.11,98.18,7.11z"/>
	<path class="st4" d="M87.15,11.84c3.62,0,3.62-5.62,0-5.62C83.53,6.21,83.53,11.84,87.15,11.84z"/>
	<path class="st4" d="M78.27,8.56c3.34,0,3.35-5.19,0-5.19C74.93,3.37,74.92,8.56,78.27,8.56z"/>
	<path class="st4" d="M72.14,22.06c4.16,0,4.16-6.46,0-6.46C67.99,15.6,67.98,22.06,72.14,22.06z"/>
	<path class="st4" d="M68.77,36.94c3.6,0,3.61-5.6,0-5.6C65.17,31.34,65.16,36.94,68.77,36.94z"/>
	<path class="st4" d="M81.33,47.6c3.91,0,3.92-6.08,0-6.08C77.42,41.52,77.41,47.6,81.33,47.6z"/>
	<path class="st4" d="M90.22,32.05c3.22,0,3.22-5,0-5C87,27.05,86.99,32.05,90.22,32.05z"/>
	<path class="st4" d="M95.12,24.28c3.08,0,3.08-4.79,0-4.79C92.04,19.5,92.03,24.28,95.12,24.28z"/>
	<path class="st4" d="M105.68,45.38c-1.2,0.6-0.98,2.8,0.67,2.8c1.22,0,1.65-1.21,1.31-2.08c0,0,0.01,0,0.01,0
		c3.96,0,3.96-6.15,0-6.15C104.56,39.95,103.9,43.75,105.68,45.38z"/>
	<path class="st4" d="M100.02,57.89c3.76,0,3.76-5.84,0-5.84C96.26,52.05,96.25,57.89,100.02,57.89z"/>
	<path class="st4" d="M80.72,57.34c3.83,0,3.84-5.96,0-5.96C76.89,51.38,76.88,57.34,80.72,57.34z"/>
	<path class="st4" d="M114.72,61.6c3.4,0,3.41-5.29,0-5.29C111.32,56.31,111.31,61.6,114.72,61.6z"/>
	<path class="st4" d="M104.92,87.34c3.02,0,3.02-4.69,0-4.69C101.9,82.65,101.9,87.34,104.92,87.34z"/>
	<path class="st4" d="M93.89,83.12c3.11,0,3.12-4.83,0-4.83C90.78,78.29,90.78,83.12,93.89,83.12z"/>
	<path class="st4" d="M69.69,74.1c3.33,0,3.33-5.17,0-5.17C66.37,68.93,66.36,74.1,69.69,74.1z"/>
	<path class="st4" d="M62.6,70.04c-0.05-0.01-0.1-0.02-0.16-0.02c-1.52,0-1.53,2.37,0,2.37c1.37,0,1.51-1.91,0.41-2.3
		c0.13,0.02,0.26,0.04,0.41,0.04c2.96,0,2.96-4.59,0-4.59C60.55,65.54,60.33,69.4,62.6,70.04z"/>
	<path class="st4" d="M68.16,56.31c3.3,0,3.3-5.12,0-5.12C64.87,51.19,64.86,56.31,68.16,56.31z"/>
	<path class="st4" d="M62.95,59.89c3.96,0,3.96-6.15,0-6.15C59,53.74,58.99,59.89,62.95,59.89z"/>
	<path class="st4" d="M119.01,73.75c4.07,0,4.07-6.32,0-6.32C114.94,67.44,114.94,73.75,119.01,73.75z"/>
	<path class="st4" d="M118.09,87.19c4.4,0,4.41-6.84,0-6.84C113.69,80.34,113.68,87.19,118.09,87.19z"/>
	<path class="st4" d="M100.32,113.39c4.22,0,4.23-6.56,0-6.56C96.1,106.83,96.1,113.39,100.32,113.39z"/>
	<path class="st4" d="M86.54,102.73c3.51,0,3.52-5.46,0-5.46C83.03,97.27,83.02,102.73,86.54,102.73z"/>
	<path class="st4" d="M77.04,89.6c3.96,0,3.96-6.15,0-6.15C73.09,83.45,73.08,89.6,77.04,89.6z"/>
	<path class="st4" d="M67.85,94.12c3.46,0,3.47-5.38,0-5.38C64.39,88.73,64.38,94.12,67.85,94.12z"/>
	<path class="st4" d="M66.02,107.85c3,0,3.01-4.67,0-4.67C63.01,103.18,63.01,107.85,66.02,107.85z"/>
	<path class="st4" d="M58.36,111.1c4.03,0,4.04-6.27,0-6.27C54.32,104.83,54.32,111.1,58.36,111.1z"/>
	<path class="st4" d="M58.36,94.24c3.62,0,3.62-5.62,0-5.62C54.74,88.61,54.73,94.24,58.36,94.24z"/>
	<path class="st4" d="M60.5,79.63c3.74,0,3.75-5.82,0-5.82C56.76,73.81,56.75,79.63,60.5,79.63z"/>
	<path class="st4" d="M50.7,66.49c4.17,0,4.18-6.49,0-6.49C46.53,60,46.52,66.49,50.7,66.49z"/>
	<path class="st4" d="M39.98,69.74c3.63,0,3.64-5.65,0-5.65C36.35,64.1,36.34,69.74,39.98,69.74z"/>
	<path class="st4" d="M33.85,78.41c3.36,0,3.36-5.22,0-5.22C30.5,73.19,30.49,78.41,33.85,78.41z"/>
	<path class="st4" d="M33.85,89.79c3.42,0,3.42-5.31,0-5.31C30.43,84.48,30.43,89.79,33.85,89.79z"/>
	<path class="st4" d="M24.05,85.39c4.07,0,4.07-6.32,0-6.32C19.99,79.08,19.98,85.39,24.05,85.39z"/>
	<path class="st4" d="M13.33,79.62c2.94,0,2.95-4.57,0-4.57C10.39,75.05,10.38,79.62,13.33,79.62z"/>
	<path class="st4" d="M2.61,85.91c1.97,0,1.97-3.06,0-3.06C0.64,82.85,0.63,85.91,2.61,85.91z"/>
	<path class="st4" d="M8.43,103.29c2.65,0,2.65-4.12,0-4.12C5.78,99.17,5.78,103.29,8.43,103.29z"/>
	<path class="st4" d="M12.41,106.64c1.61,0,2.46-1.18,2.55-2.43c0.61-0.82,0.28-2.3-1-2.4c-0.4-0.3-0.92-0.48-1.55-0.48
		C8.99,101.33,8.99,106.64,12.41,106.64z"/>
	<path class="st4" d="M8.74,115.42c3.28,0,3.29-5.1,0-5.1C5.46,110.32,5.45,115.42,8.74,115.42z"/>
	<path class="st4" d="M5.67,122.83c3.36,0,3.36-5.22,0-5.22C2.32,117.61,2.31,122.83,5.67,122.83z"/>
	<path class="st4" d="M13.33,129.83c3.7,0,3.7-5.74,0-5.74C9.63,124.09,9.63,129.83,13.33,129.83z"/>
	<path class="st4" d="M24.66,128.42c3.06,0,3.07-4.76,0-4.76C21.6,123.66,21.59,128.42,24.66,128.42z"/>
	<path class="st4" d="M28.03,116.14c3.82,0,3.83-5.93,0-5.93C24.21,110.21,24.21,116.14,28.03,116.14z"/>
	<path class="st4" d="M37.53,108.71c1,0,1.5-0.77,1.5-1.55c0.27,0.13,0.58,0.2,0.95,0.2c2.66,0,2.76-3.95,0.32-4.28
		c-0.07-0.53-0.45-1.01-1.14-1.01c-1.1,0-1.41,1.22-0.93,1.92c-0.29,0.48-0.39,1.09-0.29,1.65c-0.13-0.03-0.26-0.05-0.41-0.05
		C35.52,105.59,35.52,108.71,37.53,108.71z"/>
	<path class="st4" d="M43.04,101.71c2.59,0,2.59-4.02,0-4.02C40.46,97.69,40.45,101.71,43.04,101.71z"/>
	<path class="st4" d="M26.18,102.47c0.6,0.55,1.33,0.89,2.16,0.89c0.78,0,1.6-0.34,2.16-0.89c0.53-0.53,0.93-1.4,0.89-2.16
		c-0.04-0.79-0.29-1.61-0.89-2.16c-0.6-0.55-1.33-0.89-2.16-0.89c-0.78,0-1.6,0.34-2.16,0.89c-0.53,0.53-0.93,1.4-0.89,2.16
		C25.32,101.1,25.58,101.92,26.18,102.47z"/>
	<path class="st4" d="M36.3,130.51c3.79,0,3.79-5.89,0-5.89C32.52,124.63,32.51,130.51,36.3,130.51z"/>
	<path class="st4" d="M45.22,137.88c0.26-1.46-0.56-3.14-2.49-3.14c-1.92,0-2.74,1.68-2.49,3.14H45.22z"/>
	<path class="st4" d="M57.14,137.88c0.73-1.13,0.22-3.05-1.54-3.05c-1.75,0-2.26,1.92-1.54,3.05H57.14z"/>
	<path class="st4" d="M57.13,129.37c2.09,0,3.06-1.75,2.91-3.37c2.64-1,2.29-5.64-1.07-5.64c-1.96,0-2.89,1.58-2.81,3.1
		C53.27,124.37,53.59,129.37,57.13,129.37z"/>
	<path class="st4" d="M75.21,124.85c3.99,0,3.99-6.2,0-6.2C71.22,118.65,71.21,124.85,75.21,124.85z"/>
	<path class="st4" d="M87.77,125.2c4.05,0,4.06-6.29,0-6.29C83.72,118.91,83.71,125.2,87.77,125.2z"/>
	<path class="st4" d="M116.45,110.4c0.13,0.48,0.38,0.89,0.72,1.24c0.35,0.35,0.77,0.59,1.24,0.72c0.5,0.13,1,0.13,1.5,0
		c0.06-0.01,0.12-0.02,0.19-0.03c0.98-0.17,1.8-1.14,2.06-2.06c0.28-1.01-0.01-2.12-0.76-2.86c-0.74-0.74-1.85-1.04-2.86-0.76
		c-0.92,0.25-1.89,1.07-2.06,2.06c-0.01,0.06-0.02,0.12-0.03,0.19C116.31,109.4,116.31,109.9,116.45,110.4z"/>
	<path class="st4" d="M121.6,102.66c-0.42,0.52-0.2,1.52,0.67,1.52c0.91,0,1.11-1.09,0.61-1.58c3.41-0.79,3.14-6.51-0.82-6.51
		C117.99,96.09,117.82,102.19,121.6,102.66z"/>
	<path class="st4" d="M126.05,130.19c4.16,0,4.16-6.46,0-6.46C121.9,123.73,121.89,130.19,126.05,130.19z"/>
	<path class="st4" d="M136.78,125.4c3.91,0,3.92-6.08,0-6.08C132.86,119.32,132.86,125.4,136.78,125.4z"/>
	<path class="st4" d="M142.29,131.67c2.91,0,2.92-4.52,0-4.52C139.38,127.15,139.37,131.67,142.29,131.67z"/>
	<path class="st4" d="M141.13,137.88c-0.51-0.55-1.24-0.91-2.21-0.91c-0.97,0-1.7,0.37-2.2,0.91H141.13z"/>
	<path class="st4" d="M119.32,133.16c3.65,0,3.66-5.67,0-5.67C115.67,127.49,115.66,133.16,119.32,133.16z"/>
	<path class="st4" d="M103.6,137.88c0.43-1.66-0.45-3.7-2.67-3.7c-2.21,0-3.1,2.05-2.67,3.7H103.6z"/>
	<path class="st4" d="M97.57,131.28c3.2,0,3.21-4.98,0-4.98C94.36,126.31,94.36,131.28,97.57,131.28z"/>
	<path class="st4" d="M86.29,137.88c-0.29-0.52-0.81-0.91-1.59-0.91c-0.25,0-0.48,0.05-0.68,0.12c-0.21-1.05-1-1.96-2.39-1.96
		c-1.72,0-2.53,1.41-2.43,2.74H86.29z"/>
	<path class="st4" d="M104.43,119.4c1,1.71,3.64,1.77,4.63,0c0.46-0.82,0.58-1.87,0.09-2.71c-0.21-0.37-0.57-0.7-0.93-0.92
		c-0.5-0.3-0.91-0.33-1.48-0.4c-0.48,0-0.93,0.12-1.35,0.37c-0.4,0.24-0.72,0.56-0.96,0.96
		C103.94,117.52,103.94,118.57,104.43,119.4z"/>
	<path class="st4" d="M183.34,110.67c2.69,0,2.7-4.19,0-4.19C180.64,106.48,180.64,110.67,183.34,110.67z"/>
	<path class="st4" d="M93.59,71.5c3.93,0,3.93-6.1,0-6.1C89.66,65.4,89.65,71.5,93.59,71.5z"/>
	<path class="st4" d="M81.03,71.5c3.93,0,3.93-6.1,0-6.1C77.1,65.4,77.09,71.5,81.03,71.5z"/>
	<path class="st5" d="M162.92,98.85c4.56,0,4.57-7.08,0-7.08C158.36,91.76,158.35,98.85,162.92,98.85z"/>
	<path class="st5" d="M154.95,114.87c2.26,0,3.12-2.19,2.56-3.84c0.63-0.12,1.23-0.42,1.68-0.86c0.54-0.54,0.95-1.44,0.92-2.22
		c-0.04-0.81-0.3-1.65-0.92-2.22c-0.61-0.56-1.37-0.92-2.22-0.92c-0.8,0-1.65,0.35-2.22,0.92c-0.54,0.54-0.95,1.44-0.92,2.22
		c0.02,0.47,0.13,0.95,0.33,1.38C151.35,110.09,151.6,114.87,154.95,114.87z"/>
	<path class="st5" d="M158.63,126.19c4,0,4.01-6.22,0-6.22C154.62,119.97,154.62,126.19,158.63,126.19z"/>
	<path class="st5" d="M159.24,131.96c1.97,0,1.97-3.06,0-3.06C157.27,128.9,157.27,131.96,159.24,131.96z"/>
	<path class="st5" d="M169.45,133.07c0.1,0,0.2-0.01,0.29-0.01c-0.13,0.11-0.24,0.24-0.35,0.37c-0.19,0.22-0.08,0.63,0.25,0.61
		c0.18-0.01,0.37-0.02,0.55-0.05c0.01,0,0.12-0.02,0.18-0.04c0.37,0.18,0.78,0.17,1.12-0.08c0.36-0.28,0.49-0.76,0.31-1.18
		c-0.07-0.16-0.18-0.29-0.3-0.39c1.69-1.65,1.01-5.32-2.04-5.32C165.52,126.97,165.52,133.07,169.45,133.07z"/>
	<path class="st5" d="M185.58,130.69c4.02,0,4.03-6.25,0-6.25C181.56,124.45,181.56,130.69,185.58,130.69z"/>
	<path class="st5" d="M192.32,129.23c3.71,0,3.72-5.77,0-5.77C188.61,123.46,188.6,129.23,192.32,129.23z"/>
	<path class="st5" d="M198.45,129.73c3.57,0,3.58-5.55,0-5.55C194.88,124.18,194.87,129.73,198.45,129.73z"/>
	<path class="st5" d="M183.34,100.71c3.8,0,3.81-5.91,0-5.91C179.53,94.8,179.53,100.71,183.34,100.71z"/>
	<path class="st5" d="M191.3,88.76c3.4,0,3.41-5.29,0-5.29C187.9,83.47,187.89,88.76,191.3,88.76z"/>
	<path class="st5" d="M179.86,76.53c3.7,0,3.7-5.74,0-5.74C176.17,70.79,176.16,76.53,179.86,76.53z"/>
	<path class="st5" d="M168.22,77.11c4.17,0,4.18-6.49,0-6.49C164.05,70.62,164.04,77.11,168.22,77.11z"/>
	<path class="st5" d="M158.83,67.39c3.23,0,3.24-5.03,0-5.03C155.6,62.36,155.59,67.39,158.83,67.39z"/>
	<path class="st5" d="M145.15,92.78c3.06,0,3.84-3.53,2.35-5.34c3.13-1.06,2.76-6.5-1.13-6.5c-3.24,0-4.04,3.79-2.4,5.66
		C141.09,87.68,141.47,92.78,145.15,92.78z"/>
	<path class="st5" d="M132.28,101.05c4.23,0,4.24-6.58,0-6.58C128.05,94.47,128.04,101.05,132.28,101.05z"/>
	<path class="st5" d="M136.98,112.74c3.24,0,3.49-4.64,0.74-5.35c0.58-0.73,0.27-2.12-0.95-2.12c-1.28,0-1.56,1.54-0.85,2.23
		C133.52,108.46,133.86,112.74,136.98,112.74z"/>
	<path class="st5" d="M157.95,137.88c-0.47-0.6-1.19-1-2.19-1c-0.99,0-1.71,0.41-2.18,1H157.95z"/>
	<path class="st5" d="M145.98,137.88c-0.5-0.72-1.32-1.22-2.47-1.22c-1.14,0-1.96,0.5-2.46,1.22H145.98z"/>
	<path class="st5" d="M131.03,137.88h2.09c2.94-0.98,2.6-6.08-1.04-6.08C128.45,131.8,128.09,136.9,131.03,137.88z"/>
	<path class="st5" d="M73.22,137.88c-0.22-0.26-0.54-0.43-0.98-0.43c-0.44,0-0.76,0.17-0.98,0.43H73.22z"/>
	<path class="st5" d="M78.52,137.88c0.8-1.66,0.01-4.13-2.4-4.13c-2.4,0-3.19,2.47-2.4,4.13H78.52z"/>
	<path class="st5" d="M91.36,137.88h3.01c2.43-1.33,1.93-5.88-1.51-5.88C89.44,132,88.94,136.55,91.36,137.88z"/>
	<path class="st5" d="M90.83,124.59c3.26,0,3.27-5.07,0-5.07C87.56,119.52,87.56,124.59,90.83,124.59z"/>
	<path class="st5" d="M113.7,121.95c1.97,0,1.97-3.06,0-3.06C111.73,118.89,111.73,121.95,113.7,121.95z"/>
	<path class="st5" d="M107.78,114.89c3.13,0,3.13-4.86,0-4.86C104.65,110.03,104.65,114.89,107.78,114.89z"/>
	<path class="st5" d="M100.63,109.29c1.97,0,1.97-3.06,0-3.06C98.66,106.23,98.66,109.29,100.63,109.29z"/>
	<path class="st5" d="M105.94,98.34c1.7,0,2.28-1.74,1.74-2.93c0.46,0.45,1.1,0.75,1.94,0.75c3.73,0,3.73-5.79,0-5.79
		c-2.52,0-3.34,2.65-2.44,4.37c-0.31-0.26-0.72-0.42-1.24-0.42C103.35,94.32,103.35,98.34,105.94,98.34z"/>
	<path class="st5" d="M125.75,117.53c3.63,0,3.64-5.65,0-5.65C122.11,111.88,122.11,117.53,125.75,117.53z"/>
	<path class="st5" d="M112.27,73.82c3.62,0,3.62-5.62,0-5.62C108.65,68.19,108.65,73.82,112.27,73.82z"/>
	<path class="st5" d="M126.57,76.72c3.42,0,3.42-5.31,0-5.31C123.15,71.41,123.14,76.72,126.57,76.72z"/>
	<path class="st5" d="M132.49,73.83c3.63,0,3.64-5.65,0-5.65C128.85,68.18,128.85,73.83,132.49,73.83z"/>
	<path class="st5" d="M133.71,61.17c3.37,0,3.38-5.24,0-5.24C130.34,55.93,130.33,61.17,133.71,61.17z"/>
	<path class="st5" d="M141.06,52.77c3.08,0,3.08-4.79,0-4.79C137.98,47.99,137.98,52.77,141.06,52.77z"/>
	<path class="st5" d="M128.81,42.65c2.93,0,2.93-4.55,0-4.55C125.89,38.1,125.88,42.65,128.81,42.65z"/>
	<path class="st5" d="M126.77,28.94c3.42,0,3.42-5.31,0-5.31C123.35,23.63,123.35,28.94,126.77,28.94z"/>
	<path class="st5" d="M121.46,22.28c3.26,0,3.27-5.07,0-5.07C118.2,17.21,118.19,22.28,121.46,22.28z"/>
	<path class="st5" d="M121.87,15.58c3.83,0,3.84-5.96,0-5.96C118.03,9.62,118.03,15.58,121.87,15.58z"/>
	<path class="st5" d="M125.95,9.39c2.97,0,2.98-4.62,0-4.62C122.98,4.78,122.98,9.39,125.95,9.39z"/>
	<path class="st5" d="M105.53,14.49c3.74,0,3.75-5.82,0-5.82C101.79,8.67,101.78,14.49,105.53,14.49z"/>
	<path class="st5" d="M95.93,11.88c3.02,0,3.02-4.69,0-4.69C92.92,7.19,92.91,11.88,95.93,11.88z"/>
	<path class="st5" d="M83.07,19.03c3.02,0,3.02-4.69,0-4.69C80.05,14.34,80.05,19.03,83.07,19.03z"/>
	<path class="st5" d="M74.9,29.44c4.33,0,4.33-6.72,0-6.72C70.57,22.71,70.57,29.44,74.9,29.44z"/>
	<path class="st5" d="M74.9,41.4c4.48,0,4.49-6.96,0-6.96c-0.01,0-0.01,0-0.02,0c-0.08-0.66-0.55-1.27-1.41-1.27
		c-1.38,0-1.76,1.55-1.13,2.41C70.71,37.56,71.56,41.4,74.9,41.4z"/>
	<path class="st5" d="M94.71,34.49c3.99,0,3.99-6.2,0-6.2C90.72,28.29,90.71,34.49,94.71,34.49z"/>
	<path class="st5" d="M105.53,37.08c3.65,0,3.66-5.67,0-5.67C101.88,31.41,101.88,37.08,105.53,37.08z"/>
	<path class="st5" d="M100.22,51.48c2.73,0,2.73-4.24,0-4.24C97.5,47.24,97.49,51.48,100.22,51.48z"/>
	<path class="st5" d="M101.04,68.94c3.91,0,3.92-6.08,0-6.08C97.13,62.86,97.12,68.94,101.04,68.94z"/>
	<path class="st5" d="M93.07,69.49c3.57,0,3.58-5.55,0-5.55C89.5,63.94,89.5,69.49,93.07,69.49z"/>
	<path class="st5" d="M81.84,59.06c1.97,0,1.97-3.06,0-3.06C79.87,55.99,79.87,59.06,81.84,59.06z"/>
	<path class="st5" d="M58.56,66.26c2.3,0,3.24-2.12,2.81-3.85c3.77-0.16,3.72-6.09-0.16-6.09c-2.34,0-3.29,2.17-2.84,3.92
		C54.69,60.43,54.74,66.26,58.56,66.26z"/>
	<path class="st5" d="M69.79,72.13c2.23,0,2.24-3.47,0-3.47C67.56,68.66,67.56,72.13,69.79,72.13z"/>
	<path class="st5" d="M78.78,73.08c3.73,0,3.73-5.79,0-5.79C75.05,67.29,75.05,73.08,78.78,73.08z"/>
	<path class="st5" d="M88.38,87.25c3.82,0,3.83-5.93,0-5.93C84.56,81.31,84.55,87.25,88.38,87.25z"/>
	<path class="st5" d="M74.9,103.72c4.27,0,4.27-6.63,0-6.63C70.63,97.1,70.63,103.72,74.9,103.72z"/>
	<path class="st5" d="M75.92,113.79c3.82,0,3.83-5.93,0-5.93C72.1,107.86,72.1,113.79,75.92,113.79z"/>
	<path class="st5" d="M50.19,77.45c0.13,0,0.25-0.01,0.37-0.04c0.25,1.38,1.29,2.59,3.1,2.59c4.22,0,4.23-6.56,0-6.56
		c-1.02,0-1.78,0.38-2.31,0.96c-0.28-0.27-0.66-0.45-1.16-0.45C47.95,73.96,47.94,77.45,50.19,77.45z"/>
	<path class="st5" d="M55.91,92.51c3.5,0,3.5-5.43,0-5.43C52.41,87.08,52.41,92.51,55.91,92.51z"/>
	<path class="st5" d="M39.98,92.88c3.45,0,3.45-5.36,0-5.36C36.53,87.52,36.52,92.88,39.98,92.88z"/>
	<path class="st5" d="M34.26,79.01c2.16,0,2.16-3.35,0-3.35C32.11,75.66,32.1,79.01,34.26,79.01z"/>
	<path class="st5" d="M23.44,83.84c4.17,0,4.18-6.49,0-6.49C19.27,77.36,19.26,83.84,23.44,83.84z"/>
	<path class="st5" d="M8.12,89.37c2.83,0,3.75-2.97,2.76-4.89c0.49-0.01,0.98-0.13,1.44-0.4c0.33-0.19,0.61-0.44,0.83-0.72
		c0.03,0,0.05,0.02,0.08,0.02c0.72,0,0.88-0.85,0.49-1.25c0.02-0.09,0.04-0.18,0.05-0.27c0.13-0.95-0.15-1.87-0.84-2.56
		c-0.38-0.38-0.83-0.64-1.35-0.78c-0.54-0.15-1.08-0.15-1.62,0c-1.46,0.22-2.98,1.08-3.19,2.66c-0.09,0.69,0.1,1.31,0.49,1.81
		C3.96,83.8,4.24,89.37,8.12,89.37z"/>
	<path class="st5" d="M6.28,101.87c4.25,0,4.26-6.6,0-6.6C2.03,95.27,2.03,101.87,6.28,101.87z"/>
	<path class="st5" d="M4.24,119.99c3.91,0,3.92-6.08,0-6.08C0.33,113.91,0.32,119.99,4.24,119.99z"/>
	<path class="st5" d="M5.88,132.74c3.5,0,3.5-5.43,0-5.43C2.38,127.3,2.37,132.74,5.88,132.74z"/>
	<path class="st5" d="M21.8,128.27c4.05,0,4.06-6.29,0-6.29C17.75,121.97,17.75,128.27,21.8,128.27z"/>
	<path class="st5" d="M31.2,120.99c3.88,0,3.89-6.03,0-6.03C27.32,114.96,27.31,120.99,31.2,120.99z"/>
	<path class="st5" d="M25.62,108.23c0.35,0.96,1.18,1.72,2.51,1.72c3.6,0,3.61-5.6,0-5.6c-1.33,0-2.16,0.76-2.51,1.72
		C24.75,106.45,24.74,107.85,25.62,108.23z"/>
	<path class="st5" d="M50.39,107.08c4.37,0,4.38-6.8,0-6.8C46.02,100.28,46.01,107.08,50.39,107.08z"/>
	<path class="st5" d="M50.39,117.96c3.4,0,3.41-5.29,0-5.29C46.99,112.67,46.99,117.96,50.39,117.96z"/>
	<path class="st5" d="M44.26,127.82c-2.56,1.61-1.95,6.54,1.85,6.54c4.33,0,4.52-6.42,0.57-6.99c0.49-0.97,0.03-2.45-1.39-2.45
		C43.62,124.91,43.28,126.97,44.26,127.82z"/>
	<path class="st5" d="M54.75,137.88c-0.41-0.99-1.32-1.76-2.72-1.76c-1.4,0-2.3,0.77-2.71,1.76H54.75z"/>
	<path class="st5" d="M65.91,128.42c3.73,0,3.73-5.79,0-5.79C62.19,122.63,62.18,128.42,65.91,128.42z"/>
	<path class="st5" d="M114.45,137.88c0.36-0.51,0.61-1.16,0.58-1.76c-0.07-1.61-1.31-2.98-2.98-2.98c-0.76,0-1.57,0.33-2.11,0.87
		c-0.52,0.52-0.91,1.36-0.87,2.11c0.03,0.65,0.26,1.26,0.62,1.76H114.45z"/>
	<g>
		<path class="st5" d="M203.29,109.53c-0.01,0.02-0.01,0.03-0.02,0.05C203.26,109.61,203.26,109.61,203.29,109.53z"/>
		<path class="st5" d="M201.27,109.07c0.02,0.06,0.04,0.12,0.05,0.19c0.02,0.12,0.03,0.12,0.03,0.01c0.01,0.12,0.03,0.23,0.05,0.35
			c0.02,0.04,0.03,0.07,0.04,0.1c0.07,0.65,0.87,0.94,1.36,0.49c0.03-0.03,0.05-0.04,0.06-0.05c0.03-0.03,0.08-0.06,0.15-0.11
			c0.14-0.14,0.2-0.29,0.27-0.46c0.02-0.06,0.09-0.26,0.1-0.32c0.03-0.16,0.04-0.31,0.03-0.47c-0.05-0.65-0.54-1.16-1.23-1.06
			C201.55,107.81,201.08,108.44,201.27,109.07z"/>
	</g>
	<path class="st5" d="M202.1,121.82c0.17,0.45,0.7,0.64,1.08,0.29c0.11-0.11,0.23-0.22,0.34-0.32c0.02-0.01,0.07-0.05,0.09-0.07
		c0.08-0.04,0.21-0.11,0.02-0.04c0.36-0.15,0.65-0.36,0.76-0.76c0.09-0.34,0.02-0.68-0.2-0.95c-0.49-0.63-1.37-0.52-1.8,0.11
		C202.08,120.57,201.88,121.24,202.1,121.82z"/>
	<path class="st5" d="M198.65,122.79c1.21,0,1.21-1.88,0-1.88C197.44,120.91,197.44,122.79,198.65,122.79z"/>
	<path class="st5" d="M182.52,103.06c1.3,0,1.3-2.02,0-2.02C181.22,101.03,181.21,103.06,182.52,103.06z"/>
	<path class="st5" d="M177.01,102.14c0.91,0,0.91-1.41,0-1.41C176.1,100.73,176.1,102.14,177.01,102.14z"/>
	<path class="st5" d="M177.41,111.56c0.68,0,0.68-1.06,0-1.06C176.73,110.5,176.73,111.56,177.41,111.56z"/>
	<path class="st5" d="M177.01,117.36c0.79,0,0.8-1.23,0-1.23C176.21,116.13,176.21,117.36,177.01,117.36z"/>
	<path class="st5" d="M177.01,125.49c0.21,0,0.21-0.33,0-0.33C176.79,125.16,176.79,125.49,177.01,125.49z"/>
	<path class="st5" d="M175.86,128.59c0.15,0.44,0.27,0.87,0.37,1.33c0.08,0.36,0.65,0.36,0.73,0c0.1-0.46,0.22-0.89,0.37-1.33
		c0.16-0.48-0.27-0.97-0.74-0.97C176.12,127.62,175.69,128.11,175.86,128.59z"/>
	<path class="st5" d="M162.1,137.66c1.42,0,1.43-2.21,0-2.21C160.68,135.45,160.67,137.66,162.1,137.66z"/>
	<path class="st5" d="M159.24,134.87c0.45,0,0.45-0.7,0-0.7C158.79,134.16,158.79,134.87,159.24,134.87z"/>
	<path class="st5" d="M167.61,115.5c1.55,0,1.55-2.41,0-2.41C166.06,113.09,166.06,115.5,167.61,115.5z"/>
	<path class="st5" d="M182.72,86.37c1.38,0,1.38-2.14,0-2.14C181.35,84.23,181.34,86.37,182.72,86.37z"/>
	<path class="st5" d="M185.38,79.45c1.4,0,1.41-2.18,0-2.18C183.97,77.26,183.97,79.45,185.38,79.45z"/>
	<path class="st5" d="M184.77,73.28c0.04,0,0.04-0.06,0-0.06C184.73,73.22,184.73,73.28,184.77,73.28z"/>
	<path class="st5" d="M160.26,69.81c0.04,0,0.04-0.06,0-0.06C160.22,69.75,160.22,69.81,160.26,69.81z"/>
	<path class="st5" d="M158.83,93.67c2.11,0,2.11-3.27,0-3.27C156.72,90.4,156.72,93.67,158.83,93.67z"/>
	<path class="st5" d="M150.46,94.97c1.4,0,1.41-2.18,0-2.18C149.05,92.78,149.05,94.97,150.46,94.97z"/>
	<path class="st5" d="M147.8,74.86c1.54,0,1.55-2.4,0-2.4C146.26,72.46,146.26,74.86,147.8,74.86z"/>
	<path class="st5" d="M145.15,67.29c1,0,1-1.55,0-1.55C144.15,65.74,144.15,67.29,145.15,67.29z"/>
	<path class="st5" d="M145.56,55.18c1.71,0,1.71-2.66,0-2.66C143.85,52.52,143.85,55.18,145.56,55.18z"/>
	<path class="st5" d="M149.44,56.06c1.53,0,1.54-2.38,0-2.38C147.9,53.68,147.9,56.06,149.44,56.06z"/>
	<path class="st5" d="M144.13,59.8c0.04,0,0.04-0.06,0-0.06C144.09,59.74,144.09,59.8,144.13,59.8z"/>
	<path class="st5" d="M130.65,60.21c0.04,0,0.04-0.06,0-0.06C130.61,60.15,130.61,60.21,130.65,60.21z"/>
	<path class="st5" d="M124.93,54.29c0.04,0,0.04-0.06,0-0.06C124.89,54.23,124.89,54.29,124.93,54.29z"/>
	<path class="st5" d="M117.17,55.78c1.7,0,1.7-2.64,0-2.64C115.47,53.14,115.47,55.78,117.17,55.78z"/>
	<path class="st5" d="M109.41,58.13c1.3,0,1.3-2.02,0-2.02C108.11,56.11,108.11,58.13,109.41,58.13z"/>
	<path class="st5" d="M119.42,57.55c1.61,0,1.61-2.5,0-2.5C117.81,55.05,117.81,57.55,119.42,57.55z"/>
	<path class="st5" d="M127.18,62.16c1.23,0,1.23-1.91,0-1.91C125.95,60.25,125.95,62.16,127.18,62.16z"/>
	<path class="st5" d="M122.28,61.04c1.63,0,1.63-2.53,0-2.53C120.65,58.51,120.65,61.04,122.28,61.04z"/>
	<path class="st5" d="M121.05,47.81c1.69,0,1.69-2.63,0-2.63C119.36,45.18,119.36,47.81,121.05,47.81z"/>
	<path class="st5" d="M125.14,39.3c1.52,0,1.52-2.35,0-2.35C123.62,36.95,123.62,39.3,125.14,39.3z"/>
	<path class="st5" d="M131.67,34.41c1,0,1-1.55,0-1.55C130.67,32.86,130.67,34.41,131.67,34.41z"/>
	<path class="st5" d="M140.45,41.21c1.61,0,1.61-2.5,0-2.5C138.84,38.71,138.84,41.21,140.45,41.21z"/>
	<path class="st5" d="M137.18,35.12c1.64,0,1.65-2.56,0-2.56C135.54,32.56,135.54,35.12,137.18,35.12z"/>
	<path class="st5" d="M130.65,26.24c1.79,0,1.8-2.79,0-2.79C128.86,23.46,128.85,26.24,130.65,26.24z"/>
	<path class="st5" d="M128.2,15.98c0.8,0,1.28-0.51,1.43-1.11c1.17-0.2,1.1-2.12-0.2-2.12c-0.28,0-0.51,0.09-0.67,0.24
		c-0.16-0.06-0.34-0.1-0.55-0.1C126.21,12.89,126.21,15.98,128.2,15.98z"/>
	<path class="st5" d="M112.68,16.35c1.94,0,1.94-3.02,0-3.02C110.74,13.34,110.74,16.35,112.68,16.35z"/>
	<path class="st5" d="M104.31,22.07c1.41,0,1.42-2.2,0-2.2C102.89,19.87,102.89,22.07,104.31,22.07z"/>
	<path class="st5" d="M107.78,26.75c1.13,0,1.13-1.75,0-1.75C106.65,25,106.65,26.75,107.78,26.75z"/>
	<path class="st5" d="M90.42,20.7c2.01,0,2.02-3.13,0-3.13C88.41,17.57,88.4,20.7,90.42,20.7z"/>
	<path class="st5" d="M87.97,16.64c1.52,0,1.52-2.35,0-2.35C86.45,14.28,86.45,16.64,87.97,16.64z"/>
	<path class="st5" d="M77.15,21.92c2,0,2.01-3.12,0-3.12C75.14,18.8,75.14,21.92,77.15,21.92z"/>
	<path class="st5" d="M65.1,44.52c1.92,0,1.92-2.99,0-2.99C63.18,41.53,63.17,44.52,65.1,44.52z"/>
	<path class="st5" d="M62.85,48.68c1.76,0,1.76-2.73,0-2.73C61.1,45.95,61.09,48.68,62.85,48.68z"/>
	<path class="st5" d="M59.99,52.17c1.52,0,1.52-2.35,0-2.35C58.48,49.81,58.47,52.17,59.99,52.17z"/>
	<path class="st5" d="M78.37,54.04c0.77,0,0.77-1.19,0-1.19C77.6,52.85,77.6,54.04,78.37,54.04z"/>
	<path class="st5" d="M90.01,49.97c1.84,0,1.84-2.86,0-2.86C88.17,47.11,88.17,49.97,90.01,49.97z"/>
	<path class="st5" d="M91.85,57.37c1.64,0,1.64-2.54,0-2.54C90.21,54.83,90.21,57.37,91.85,57.37z"/>
	<path class="st5" d="M88.17,67.58c1.64,0,1.65-2.56,0-2.56C86.53,65.03,86.53,67.58,88.17,67.58z"/>
	<path class="st5" d="M99.81,72.68c1.64,0,1.64-2.54,0-2.54C98.18,70.14,98.18,72.68,99.81,72.68z"/>
	<path class="st5" d="M104.51,77.91c1.79,0,1.8-2.79,0-2.79C102.72,75.12,102.72,77.91,104.51,77.91z"/>
	<path class="st5" d="M92.46,88.55c2.09,0,2.09-3.25,0-3.25C90.37,85.31,90.37,88.55,92.46,88.55z"/>
	<path class="st5" d="M88.38,88.71c0.71,0,0.71-1.11,0-1.11C87.67,87.6,87.67,88.71,88.38,88.71z"/>
	<path class="st5" d="M71.43,76.8c1.15,0,1.15-1.78,0-1.78C70.28,75.01,70.28,76.8,71.43,76.8z"/>
	<path class="st5" d="M66.73,70.14c1.52,0,1.52-2.35,0-2.35C65.22,67.78,65.21,70.14,66.73,70.14z"/>
	<path class="st5" d="M60.2,71.85c0.04,0,0.04-0.06,0-0.06C60.16,71.79,60.16,71.85,60.2,71.85z"/>
	<path class="st5" d="M134.94,81.55c0.96,0,0.96-1.49,0-1.49C133.98,80.06,133.98,81.55,134.94,81.55z"/>
	<path class="st5" d="M121.44,91.68c-0.59,0.52-0.38,1.77,0.64,1.77c1.28,0,1.29-2,0-2c-0.01,0-0.02,0-0.03,0
		c0.47-0.47,0.28-1.51-0.59-1.51C120.35,89.94,120.34,91.65,121.44,91.68z"/>
	<path class="st5" d="M117.17,97.09c1.51,0,1.51-2.34,0-2.34C115.67,94.75,115.66,97.09,117.17,97.09z"/>
	<path class="st5" d="M110.18,100.95c0.25,0.89,1.55,1.37,2.21,0.58c0.14-0.16,0.25-0.32,0.34-0.48c0.19-0.25,0.31-0.52,0.22-0.86
		c-0.09-0.33-0.33-0.5-0.62-0.62c-0.16-0.1-0.33-0.18-0.52-0.25C110.83,98.97,109.93,100.04,110.18,100.95z"/>
	<path class="st5" d="M134.05,86.53c0.18,0.41,0.76,0.48,1.11,0.29c0.52-0.29,0.83-0.77,1.16-1.24c0.51-0.72-0.02-1.77-0.81-1.98
		c-0.85-0.23-1.69,0.43-1.71,1.3C133.79,85.47,133.81,85.99,134.05,86.53z"/>
	<path class="st5" d="M140.25,110.47c0.59,0,0.59-0.92,0-0.92C139.66,109.55,139.66,110.47,140.25,110.47z"/>
	<path class="st5" d="M148.62,111.94c1.43,0,1.43-2.23,0-2.23C147.19,109.71,147.19,111.94,148.62,111.94z"/>
	<path class="st5" d="M141.47,120.08c1.4,0,1.41-2.18,0-2.18C140.07,117.9,140.07,120.08,141.47,120.08z"/>
	<path class="st5" d="M133.1,124.53c1.34,0,1.34-2.08,0-2.08C131.76,122.45,131.76,124.53,133.1,124.53z"/>
	<path class="st5" d="M129.42,128.61c1.6,0,1.6-2.48,0-2.48C127.83,126.12,127.82,128.61,129.42,128.61z"/>
	<path class="st5" d="M138.33,137.88h1.39c0.52-0.55,0.29-1.71-0.69-1.71C138.04,136.17,137.81,137.33,138.33,137.88z"/>
	<path class="st5" d="M45.88,137.88h1.67c1.12-0.72,0.85-2.89-0.83-2.89C45.04,134.99,44.76,137.16,45.88,137.88z"/>
	<path class="st5" d="M58.56,127.4c1.63,0,1.63-2.53,0-2.53C56.94,124.88,56.93,127.4,58.56,127.4z"/>
	<path class="st5" d="M74.9,127.79c0.8,0,0.81-1.25,0-1.25C74.1,126.54,74.09,127.79,74.9,127.79z"/>
	<path class="st5" d="M81.03,131.3c1.9,0,1.91-2.96,0-2.96C79.12,128.34,79.12,131.3,81.03,131.3z"/>
	<path class="st5" d="M81.03,122.91c2.15,0,2.16-3.35,0-3.35C78.87,119.57,78.87,122.91,81.03,122.91z"/>
	<path class="st5" d="M81.84,113.4c2,0,2-3.1,0-3.1C79.85,110.3,79.84,113.4,81.84,113.4z"/>
	<path class="st5" d="M96.55,112.45c1.03,0,1.04-1.61,0-1.61C95.51,110.84,95.51,112.45,96.55,112.45z"/>
	<path class="st5" d="M107.17,126.83c1.94,0,1.94-3.02,0-3.02C105.23,123.82,105.22,126.83,107.17,126.83z"/>
	<path class="st5" d="M101.86,128.53c1.76,0,1.76-2.73,0-2.73C100.1,125.8,100.1,128.53,101.86,128.53z"/>
	<path class="st5" d="M71.22,100.65c0.04,0,0.04-0.06,0-0.06C71.18,100.58,71.18,100.65,71.22,100.65z"/>
	<path class="st5" d="M65.1,105.41c2.23,0,2.23-3.46,0-3.46C62.87,101.95,62.87,105.41,65.1,105.41z"/>
	<path class="st5" d="M96.75,97.19c0.85,0,0.85-1.32,0-1.32C95.9,95.87,95.9,97.19,96.75,97.19z"/>
	<path class="st5" d="M95.53,104.57c2.2,0,2.2-3.42,0-3.42C93.33,101.15,93.32,104.57,95.53,104.57z"/>
	<path class="st5" d="M64.69,89.36c1.28,0,1.29-2,0-2C63.4,87.36,63.4,89.36,64.69,89.36z"/>
	<path class="st5" d="M60.81,79.73c0.98,0,0.98-1.52,0-1.52C59.83,78.21,59.83,79.73,60.81,79.73z"/>
	<path class="st5" d="M58.15,69.11c0.45,0,0.45-0.7,0-0.7C57.7,68.41,57.7,69.11,58.15,69.11z"/>
	<path class="st5" d="M42.43,84c1.49,0,1.49-2.31,0-2.31C40.94,81.69,40.94,84,42.43,84z"/>
	<path class="st5" d="M38.14,78.39c2.14,0,2.15-3.33,0-3.33C36,75.06,35.99,78.39,38.14,78.39z"/>
	<path class="st5" d="M31.4,79.13c1.52,0,1.53-2.37,0-2.37C29.88,76.76,29.88,79.13,31.4,79.13z"/>
	<path class="st5" d="M28.34,91.17c2.03,0,2.04-3.16,0-3.16C26.31,88.01,26.3,91.17,28.34,91.17z"/>
	<path class="st5" d="M25.48,95.76c2.16,0,2.17-3.36,0-3.36C23.32,92.4,23.31,95.76,25.48,95.76z"/>
	<path class="st5" d="M18.74,95.68c0.95,0,1.39-0.77,1.34-1.51c0.09,0.02,0.19,0.04,0.3,0.04c1.48,0,1.48-2.3,0-2.3
		c-0.71,0-1.08,0.53-1.1,1.08c-0.16-0.06-0.33-0.1-0.53-0.1C16.95,92.89,16.95,95.68,18.74,95.68z"/>
	<path class="st5" d="M15.47,102.12c1.67,0,1.68-2.6,0-2.6C13.8,99.52,13.8,102.12,15.47,102.12z"/>
	<path class="st5" d="M20.99,109.01c0.81,0,0.81-1.26,0-1.26C20.17,107.74,20.17,109.01,20.99,109.01z"/>
	<path class="st5" d="M19.15,119.4c1.84,0,1.84-2.86,0-2.86C17.31,116.54,17.31,119.4,19.15,119.4z"/>
	<path class="st5" d="M16.7,123.78c1.95,0,1.95-3.03,0-3.03C14.75,120.75,14.75,123.78,16.7,123.78z"/>
	<path class="st5" d="M35.28,114.68c2.07,0,2.07-3.22,0-3.22C33.21,111.46,33.21,114.68,35.28,114.68z"/>
	<path class="st5" d="M45.29,114.74c1.1,0,1.1-1.71,0-1.71C44.19,113.03,44.19,114.74,45.29,114.74z"/>
	<path class="st5" d="M43.45,124.05c2.04,0,2.05-3.17,0-3.17C41.41,120.88,41.41,124.05,43.45,124.05z"/>
	<path class="st5" d="M57.34,117.19c1.1,0,1.1-1.71,0-1.71C56.24,115.48,56.24,117.19,57.34,117.19z"/>
	<path class="st5" d="M61.42,112.49c1.62,0,1.62-2.51,0-2.51C59.8,109.98,59.8,112.49,61.42,112.49z"/>
	<path class="st5" d="M63.67,115.47c1.51,0,1.51-2.34,0-2.34C62.16,113.13,62.16,115.47,63.67,115.47z"/>
	<path class="st5" d="M23.44,99.12c1.49,0,1.49-2.31,0-2.31C21.95,96.8,21.95,99.12,23.44,99.12z"/>
	<path class="st5" d="M32.47,125.51c-1.4,0.53-1.21,3,0.57,3c1.87,0,1.99-2.72,0.35-3.07c1.04-0.5,0.85-2.4-0.56-2.4
		C31.34,123.04,31.22,125.16,32.47,125.51z"/>
	<path class="st5" d="M25.89,128.92c1.74,0,1.74-2.7,0-2.7C24.15,126.22,24.15,128.92,25.89,128.92z"/>
	<path class="st5" d="M30.59,130.27c1.38,0,1.38-2.14,0-2.14C29.21,128.13,29.21,130.27,30.59,130.27z"/>
	<path class="st5" d="M48.56,121.41c2.06,0,2.06-3.2,0-3.2C46.5,118.21,46.49,121.41,48.56,121.41z"/>
	<path class="st5" d="M53.66,129.17c1.8,0,1.8-2.8,0-2.8C51.86,126.37,51.86,129.17,53.66,129.17z"/>
	<path class="st5" d="M26.09,114.04c0.46,0,0.46-0.72,0-0.72C25.63,113.33,25.63,114.04,26.09,114.04z"/>
	<path class="st5" d="M19.15,101.06c1.37,0,1.37-2.13,0-2.13C17.78,98.94,17.78,101.06,19.15,101.06z"/>
	<path class="st5" d="M11.8,93.92c1.37,0,1.37-2.13,0-2.13C10.43,91.79,10.43,93.92,11.8,93.92z"/>
	<path class="st5" d="M17.52,80.84c0.04,0,0.04-0.06,0-0.06C17.48,80.78,17.48,80.84,17.52,80.84z"/>
	<path class="st5" d="M23.44,75.6c1.97,0,1.97-3.06,0-3.06C21.47,72.54,21.47,75.6,23.44,75.6z"/>
	<path class="st5" d="M29.56,75.7c1.57,0,1.57-2.44,0-2.44C27.99,73.25,27.99,75.7,29.56,75.7z"/>
	<path class="st5" d="M14.66,98.63c2.18,0,2.18-3.39,0-3.39C12.48,95.24,12.47,98.63,14.66,98.63z"/>
	<path class="st5" d="M14.45,112.04c1.56,0,1.56-2.43,0-2.43C12.89,109.61,12.89,112.04,14.45,112.04z"/>
	<path class="st5" d="M15.07,115.35c0.04,0,0.04-0.06,0-0.06C15.03,115.29,15.03,115.35,15.07,115.35z"/>
	<path class="st4" d="M33.04,100.52c0.3,0,0.54-0.1,0.71-0.26c0.16,0.64,0.67,1.19,1.53,1.19c2.13,0,2.13-3.3,0-3.3
		c-0.61,0-1.04,0.28-1.3,0.66c-0.17-0.32-0.48-0.55-0.95-0.55C31.59,98.26,31.58,100.52,33.04,100.52z"/>
	<path class="st4" d="M32.22,105.95c1.88,0,1.88-2.91,0-2.91C30.34,103.04,30.34,105.95,32.22,105.95z"/>
	<path class="st4" d="M40.59,118.54c0.46,0,0.46-0.72,0-0.72C40.13,117.82,40.13,118.54,40.59,118.54z"/>
	<path class="st4" d="M44.88,120.72c0.12,0,0.12-0.19,0-0.19C44.76,120.53,44.76,120.72,44.88,120.72z"/>
	<path class="st4" d="M43.45,126.23c0.91,0,0.91-1.41,0-1.41C42.55,124.82,42.54,126.23,43.45,126.23z"/>
	<path class="st4" d="M28.14,129.2c1.84,0,1.84-2.86,0-2.86C26.3,126.35,26.29,129.2,28.14,129.2z"/>
	<path class="st4" d="M22.21,122.38c1.99,0,1.99-3.09,0-3.09C20.23,119.29,20.22,122.38,22.21,122.38z"/>
	<path class="st4" d="M11.8,120.79c2.05,0,2.05-3.19,0-3.19C9.75,117.6,9.74,120.79,11.8,120.79z"/>
	<path class="st4" d="M16.09,90.03c1.88,0,1.89-2.93,0-2.93C14.2,87.1,14.2,90.03,16.09,90.03z"/>
	<path class="st4" d="M26.91,84.1c1.61,0,1.61-2.5,0-2.5C25.3,81.6,25.3,84.1,26.91,84.1z"/>
	<path class="st4" d="M49.17,79.1c1.49,0,1.49-2.31,0-2.31C47.68,76.79,47.68,79.1,49.17,79.1z"/>
	<path class="st4" d="M69.18,63.65c1.57,0,1.57-2.44,0-2.44C67.61,61.21,67.61,63.65,69.18,63.65z"/>
	<path class="st4" d="M76.94,60.15c1.01,0,1.01-1.57,0-1.57C75.93,58.58,75.93,60.15,76.94,60.15z"/>
	<path class="st4" d="M80.01,72.2c2.06,0,2.06-3.2,0-3.2C77.94,68.99,77.94,72.2,80.01,72.2z"/>
	<path class="st4" d="M80.21,81.02c1.33,0,1.33-2.07,0-2.07C78.88,78.96,78.88,81.02,80.21,81.02z"/>
	<path class="st4" d="M82.66,83.49c2.14,0,2.15-3.33,0-3.33C80.52,80.16,80.51,83.49,82.66,83.49z"/>
	<path class="st4" d="M96.14,49.95c0.24,0,0.24-0.37,0-0.37C95.9,49.58,95.9,49.95,96.14,49.95z"/>
	<path class="st4" d="M113.29,47.04c1.75,0,1.75-2.71,0-2.71C111.55,44.32,111.54,47.04,113.29,47.04z"/>
	<path class="st4" d="M94.3,45.04c2.07,0,2.07-3.22,0-3.22C92.23,41.83,92.23,45.04,94.3,45.04z"/>
	<path class="st4" d="M92.05,42.76c1.76,0,1.76-2.73,0-2.73C90.3,40.03,90.3,42.76,92.05,42.76z"/>
	<path class="st4" d="M91.85,34.4c2.3,0,2.3-3.58,0-3.58C89.55,30.82,89.55,34.4,91.85,34.4z"/>
	<path class="st4" d="M95.12,27.69c1.81,0,1.81-2.81,0-2.81C93.31,24.87,93.3,27.69,95.12,27.69z"/>
	<path class="st4" d="M102.47,21.24c1.66,0,1.67-2.58,0-2.58C100.81,18.66,100.8,21.24,102.47,21.24z"/>
	<path class="st4" d="M129.42,24.91c2.17,0,2.17-3.37,0-3.37C127.25,21.53,127.25,24.91,129.42,24.91z"/>
	<path class="st4" d="M139.63,42.66c1.63,0,1.63-2.53,0-2.53C138.01,40.13,138.01,42.66,139.63,42.66z"/>
	<path class="st4" d="M142.29,52.1c1.42,0,1.43-2.21,0-2.21C140.87,49.89,140.86,52.1,142.29,52.1z"/>
	<path class="st4" d="M147.19,45.42c0.02,0,0.03-0.01,0.04-0.01c0.05,0.46,0.38,0.89,0.98,0.89c1.32,0,1.32-2.05,0-2.05
		c-0.27,0-0.48,0.09-0.64,0.22c-0.09-0.09-0.21-0.16-0.38-0.16C146.48,44.31,146.48,45.42,147.19,45.42z"/>
	<path class="st4" d="M145.56,43.54c1.19,0,1.19-1.85,0-1.85C144.37,41.69,144.36,43.54,145.56,43.54z"/>
	<path class="st4" d="M136.98,35.76c1.69,0,1.69-2.63,0-2.63C135.29,33.14,135.29,35.76,136.98,35.76z"/>
	<path class="st4" d="M163.32,62.47c1.64,0,1.64-2.54,0-2.54C161.69,59.93,161.69,62.47,163.32,62.47z"/>
	<path class="st4" d="M168.02,64.88c1.58,0,1.58-2.46,0-2.46C166.44,62.42,166.44,64.88,168.02,64.88z"/>
	<path class="st4" d="M173.94,68.9c1.76,0,1.76-2.73,0-2.73C172.19,66.17,172.18,68.9,173.94,68.9z"/>
	<path class="st4" d="M181.09,71.15c0.45,0,0.45-0.7,0-0.7C180.64,70.45,180.64,71.15,181.09,71.15z"/>
	<path class="st4" d="M189.67,74.95c1.4,0,1.4-2.17,0-2.17C188.27,72.78,188.27,74.95,189.67,74.95z"/>
	<path class="st4" d="M194.77,75.12c0.04,0,0.04-0.06,0-0.06C194.73,75.06,194.73,75.12,194.77,75.12z"/>
	<path class="st4" d="M201.1,87.17c1.36,0,1.36-2.11,0-2.11C199.74,85.06,199.74,87.17,201.1,87.17z"/>
	<path class="st4" d="M201.31,94.48c2.1,0,2.1-3.26,0-3.26C199.21,91.22,199.21,94.48,201.31,94.48z"/>
	<path class="st4" d="M199.88,115.02c1.46,0,1.46-2.27,0-2.27C198.42,112.75,198.42,115.02,199.88,115.02z"/>
	<path class="st4" d="M200.29,120.07c1.91,0,1.92-2.97,0-2.97C198.37,117.1,198.37,120.07,200.29,120.07z"/>
	<path class="st4" d="M191.91,111.71c1.93,0,1.93-3,0-3C189.98,108.71,189.98,111.71,191.91,111.71z"/>
	<path class="st4" d="M186.81,99.75c2.04,0,2.05-3.17,0-3.17C184.77,96.58,184.76,99.75,186.81,99.75z"/>
	<path class="st4" d="M179.25,96.89c1.77,0,1.78-2.76,0-2.76C177.48,94.13,177.48,96.89,179.25,96.89z"/>
	<path class="st4" d="M169.86,104.73c0.04,0,0.04-0.06,0-0.06C169.82,104.67,169.82,104.73,169.86,104.73z"/>
	<path class="st4" d="M171.49,104.53c0.04,0,0.04-0.06,0-0.06C171.45,104.46,171.45,104.53,171.49,104.53z"/>
	<path class="st4" d="M170.68,103.91c0.04,0,0.04-0.06,0-0.06C170.64,103.85,170.64,103.91,170.68,103.91z"/>
	<path class="st4" d="M169.04,99.62c0.04,0,0.04-0.06,0-0.06C169,99.56,169,99.62,169.04,99.62z"/>
	<path class="st4" d="M171.49,87.56c1.33,0,1.33-2.07,0-2.07C170.16,85.49,170.16,87.56,171.49,87.56z"/>
	<path class="st4" d="M170.06,85.35c1.9,0,1.91-2.96,0-2.96C168.16,82.39,168.16,85.35,170.06,85.35z"/>
	<path class="st4" d="M161.89,90.21c2.12,0,2.12-3.29,0-3.29C159.78,86.92,159.77,90.21,161.89,90.21z"/>
	<path class="st4" d="M169.65,102.52c1.93,0,1.93-3,0-3C167.72,99.52,167.72,102.52,169.65,102.52z"/>
	<path class="st4" d="M172.72,107.41c1.91,0,1.92-2.97,0-2.97C170.8,104.44,170.8,107.41,172.72,107.41z"/>
	<path class="st4" d="M168.84,107.89c2,0,2.01-3.12,0-3.12C166.83,104.77,166.83,107.89,168.84,107.89z"/>
	<path class="st4" d="M157.81,99.58c2.08,0,2.08-3.23,0-3.23C155.73,96.34,155.73,99.58,157.81,99.58z"/>
	<path class="st4" d="M151.89,98.15c2.08,0,2.08-3.23,0-3.23C149.81,94.92,149.81,98.15,151.89,98.15z"/>
	<path class="st4" d="M152.3,103.53c1.91,0,1.92-2.97,0-2.97C150.38,100.56,150.38,103.53,152.3,103.53z"/>
	<path class="st4" d="M156.79,116.29c1.77,0,1.78-2.76,0-2.76C155.01,113.53,155.01,116.29,156.79,116.29z"/>
	<path class="st4" d="M155.56,125.13c1.86,0,1.86-2.89,0-2.89C153.71,122.25,153.7,125.13,155.56,125.13z"/>
	<path class="st4" d="M149.85,129.95c0.98,0,1.48-0.75,1.51-1.51c0.82-0.74,0.53-2.47-0.89-2.47c-0.73,0-1.16,0.46-1.3,1
		C147.87,127.59,148.09,129.95,149.85,129.95z"/>
	<path class="st4" d="M168.84,123.75c0.6,0,0.6-0.93,0-0.93C168.24,122.82,168.24,123.75,168.84,123.75z"/>
	<path class="st4" d="M165.77,125.32c2.1,0,2.1-3.26,0-3.26C163.68,122.06,163.67,125.32,165.77,125.32z"/>
	<path class="st4" d="M159.75,137.88c0.05-0.83-0.46-1.69-1.53-1.69c-1.07,0-1.57,0.86-1.53,1.69H159.75z"/>
	<path class="st4" d="M122.07,127.19c0.04,0,0.04-0.06,0-0.06C122.03,127.13,122.03,127.19,122.07,127.19z"/>
	<path class="st4" d="M113.7,124.12c1.87,0,1.87-2.9,0-2.9C111.83,121.22,111.83,124.12,113.7,124.12z"/>
	<path class="st4" d="M112.27,129.03c2.14,0,2.15-3.33,0-3.33C110.13,125.7,110.12,129.03,112.27,129.03z"/>
	<path class="st4" d="M116.56,102.2c1.77,0,1.78-2.76,0-2.76C114.79,99.44,114.78,102.2,116.56,102.2z"/>
	<path class="st4" d="M102.06,102.07c1.35,0,1.35-2.1,0-2.1C100.71,99.97,100.71,102.07,102.06,102.07z"/>
	<path class="st4" d="M93.07,112.7c2.14,0,2.15-3.33,0-3.33C90.93,109.36,90.93,112.7,93.07,112.7z"/>
	<path class="st4" d="M95.32,118.75c2.05,0,2.05-3.19,0-3.19C93.27,115.56,93.27,118.75,95.32,118.75z"/>
	<path class="st4" d="M86.95,111.56c2,0,2-3.1,0-3.1C84.95,108.46,84.95,111.56,86.95,111.56z"/>
	<path class="st4" d="M78.98,134.55c2.14,0,2.15-3.33,0-3.33C76.84,131.21,76.84,134.55,78.98,134.55z"/>
	<path class="st2" d="M-0.45,153.91v-11.28c1.7-0.1,3.47,0.02,5.04,0.44c1.05,0.29,1.9,0.78,2.83,1.3c0.96,0.54,0.94,0.74,2.23,1.05
		c1.86,0.44,0.9,0.28,2-0.5c0.04-0.02,0.07-0.06,0.11-0.08c0.4-0.29,0.74-0.56,1.05-0.79c0,0,0-0.01,0.01-0.01h0.01
		c0.69-0.51,1.33-0.85,2.55-0.88c1.98-0.06,4.4,0.36,6.28,1c2.01,0.69,3.34,2.08,5.16,1.81c0.01,0.01,0.01,0.01,0.01,0
		c0.47-0.07,0.98-0.25,1.54-0.59c0.7-0.42,1.38-0.93,2.09-1.35c0.01,0,0.01,0,0.01,0c0.58-0.34,1.18-0.62,1.84-0.78
		c1.45-0.34,2.71,0.05,3.97,0.76c0.63,0.36,1.35,1.09,2.08,1.42c0.18,0.08,0.36,0.13,0.53,0.15c1.11,0.12,1.7-0.69,2.61-1.1
		c1.54-0.69,3.26-0.47,4.93-0.2c0.55,0.09,1.09,0.18,1.62,0.25c0.39,0.05,0.77,0.1,1.16,0.15c0.8,0.11,1.61,0.21,2.41,0.32
		c1.41,0.18,2.81,0.34,4.23,0.44c0.36,0.02,0.71,0.04,1.06,0.05h0.02c1.05,0.04,2.06,0,3.08-0.1c0.01,0,0.03-0.01,0.04-0.01h0.03
		c1.68-0.17,3.33-0.52,5.02-1.07c1.86-0.61,3.7-1.23,5.68-1.02c0.85,0.09,1.64,0.31,2.43,0.57h0.01c1,0.33,1.98,0.73,3,1
		c0.01,0.01,0.01,0.01,0.02,0.01c0.88,0.23,1.76,0.38,2.73,0.31c2.37-0.18,4.58-1.25,6.96-1.45c2.14-0.18,4.1,0.34,6.13,0.99
		c1.32,0.43,2.56,0.75,3.81,0.93c0.91,0.13,1.84,0.18,2.81,0.15c0.02,0.01,0.03,0,0.04,0c0.58-0.02,1.18-0.07,1.8-0.15
		c2-0.27,4.01-0.4,6.02-0.45c1.59-0.04,3.19-0.04,4.78-0.01c1.75,0.02,3.5,0.07,5.25,0.09c0,0,0.01,0,0.01,0
		c0.09,0.01,0.19,0.01,0.28,0.01c0.13,0,0.25,0.02,0.35,0.06c0,0,0.01,0,0.01,0c0.11,0.04,0.21,0.09,0.3,0.15
		c4.31-0.62,7.43-3.01,11.88-1.13c1.06,0.45,2.05,1,3.04,1.45l0.01,0.01h0.01c1.34,0.61,2.71,1.02,4.35,0.72
		c1.35-0.25,2.63-0.74,3.96-0.94c0,0,0.01,0,0.01,0h0.01c0.64-0.1,1.29-0.13,1.96-0.04c0.72,0.1,1.35,0.41,2.06,0.55
		c2.02,0.41,2.56-0.36,4.25-0.97c0.57-0.2,1.08-0.35,1.57-0.41h0.01c0.81-0.1,1.57-0.01,2.52,0.35c0.77,0.29,1.46,0.8,2.21,1.14
		c0.18,0.09,0.37,0.16,0.56,0.21c0.17,0.05,0.33,0.09,0.48,0.11c1.14,0.18,1.62-0.39,2.68-1.02c1.68-1.01,3.06-0.96,5.01-0.86
		c0.67,0.04,1.35,0.01,2.04-0.04h0.03c0.2-0.01,0.4-0.03,0.6-0.06c0,0,0,0,0.01,0s0.01,0,0.01,0c3.42-0.37,6.93-1.42,10.25-0.58
		c1.42,0.36,2.3,1.26,3.93,0.83c0.52-0.13,1.56-0.73,2.08-0.91c1.62-0.55,3.34-0.75,5.05-0.62c0,0,0.01,0,0.01,0h0.01
		c0.35,0.02,0.7,0.06,1.05,0.12c0.36,0.06,0.7,0.14,1.02,0.21c0.01,0,0.01,0,0.01,0c0.81,0.2,1.53,0.34,2.45-0.16
		c0.29-0.16,0.49-0.41,0.73-0.64c0.01-0.01,0.01-0.01,0.01-0.01c0.15-0.13,0.3-0.26,0.5-0.34c1.39-0.59,2.49,0.13,3.76,0.58
		c3.23,1.13,4.47-0.61,7.35-1.03c1.23-0.18,2.38-0.07,3.5,0.23v11.7l-7.19,1.23c-1.74-0.69-3.08-0.42-4.91-0.07
		c-0.13,0.02-0.27,0.05-0.4,0.07c-1.57,0.29-3.09,0.44-4.71,0.2c-0.43-0.06-0.84-0.13-1.23-0.2c-1.61-0.28-2.97-0.53-4.55,0
		c-0.33,0.11-0.67,0.25-1.02,0.44c-2.78,1.46-4.59,1.69-7.53,0.51c-1.3-0.53-2.31-0.86-3.3-0.95c-0.37-0.04-0.74-0.04-1.11,0
		c-0.78,0.07-1.61,0.31-2.63,0.72c-1.4,0.56-2.71,1.11-4.25,1.14c-2.11,0.02-4.12-1.04-6.22-0.96c-1.9,0.07-3.48,1.35-5.37,1.51
		c-2.67,0.23-4.81-1.45-7.15-2.41c-0.91-0.37-1.84-0.64-2.86-0.65c-1.35-0.01-2.65,0.27-3.93,0.65c-2.65,0.77-5.22,1.94-8.06,1.77
		c-4.92-0.3-8.69-2.94-13.69-0.88c-0.21,0.09-0.41,0.11-0.58,0.09c-1.21,0.64-2.54,0.6-3.9,0.14c-0.95-0.32-1.75-0.84-2.7-1.12
		c-0.12-0.04-0.24-0.07-0.37-0.1c-0.96-0.21-1.77-0.13-2.57,0.1c-0.74,0.21-1.46,0.55-2.26,0.91c-4.21,1.89-7.39,1.27-11.77,0.44
		c-3-0.57-5.3-0.09-8.18,0.66c-1.61,0.42-3.25,0.74-4.91,0.43c-1.83-0.33-3.33-1.4-5.02-2.13c-0.31-0.13-0.61-0.24-0.91-0.31
		c-1.05-0.28-2.02-0.22-2.99,0c-0.96,0.21-1.91,0.59-2.93,0.96c-1.56,0.57-3.13,1.02-4.8,0.72c-0.69-0.13-1.3-0.41-1.95-0.66
		c-1.54-0.58-2.74-0.51-4.37-0.26c-1.78,0.28-3.23,0.07-4.98-0.39c-2.84-0.74-5.11-0.21-7.92,0.38c-3.15,0.67-5.61,0.06-8.36-0.75
		c-0.83-0.25-1.68-0.5-2.59-0.75c-2.63-0.72-4.91,0.13-7.27,0.75c-1.49,0.39-3.02,0.69-4.69,0.44c-0.69-0.1-1.37-0.26-2.05-0.44
		c-1.67-0.43-3.3-0.99-5.01-1.18c-2.54-0.29-5.01,0.28-7.47,0.86c-0.45,0.11-0.91,0.21-1.35,0.32L-0.45,153.91z"/>
	<path class="st1" d="M-0.45,142.27v-10.11c1.59-0.21,3.21,0.12,4.79,0.11h0.01c0.67,0,1.34,0.03,1.99,0.11
		c0.26,0.03,0.51,0.06,0.75,0.09c1.49,0.15,2.52,0.09,3.97-0.81c0.62-0.38,1.17-0.7,1.93-0.73c0.88-0.02,1.33,0.48,2.08,0.7
		c1.92,0.59,2.74,0.24,4.42-0.39c1.99-0.74,3.77-0.01,5.61,0.79c2.07,0.91,3.61,1.25,5.72,0.49c1.25-0.45,2.42-1.08,3.71-1.41
		c2-0.49,3.64-0.07,5.5,0.71c1.15,0.48,2.14,0.94,3.19,0.93c0.57-0.01,1.16-0.16,1.8-0.53c0.9-0.52,1.68-1.08,2.73-1.29
		c0.62-0.12,1.21-0.13,1.76-0.05c0.75,0.1,1.45,0.36,2.12,0.73c0.23,0.13,0.45,0.27,0.67,0.42c0.13,0,0.28,0.02,0.44,0.08
		c2.73,1.05,4.48,0.31,6.95-0.85c1.21-0.57,2.34-0.92,3.69-0.7c1.09,0.17,2,0.73,2.99,1.18c1.24,0.55,2.32,0.97,3.69,0.95
		c1.27-0.02,2.03-0.55,3.2-0.87c1.45-0.4,2.93-0.24,4.42,0.04c0.96,0.18,1.91,0.39,2.86,0.53c1.08,0.16,2.17,0.22,3.25-0.01
		c2.95-0.62,3.73,0.42,6.29,1.52c0.09,0.04,0.18,0.08,0.27,0.12c0.01,0,0.01,0.01,0.01,0.01c0.15-0.01,0.31,0.02,0.48,0.09
		c0.94,0.39,2.11-1.08,3.08-1.96c0.26-0.23,0.5-0.42,0.72-0.52c0.81-0.37,1.68-0.45,2.55-0.39c0,0,0,0,0.01,0
		c0.04,0.01,0.09,0.01,0.13,0.01c0.01,0,0.02,0,0.04,0.01c0.11,0.01,0.23,0.02,0.34,0.04c1.4,0.18,2.53,0.85,3.85,1.28
		c2.18,0.71,3.9,0.17,6.06-0.18c3.1-0.5,6.26,0.22,9.38-0.1c0.09-0.01,0.18-0.02,0.27-0.02c1.46-0.15,2.87-0.32,4.28-0.26
		c1.17,0.05,2.33,0.26,3.49,0.77c1.56,0.69,2.66,1.48,4.07,1.5c0.56,0.01,1.18-0.12,1.89-0.42c0.94-0.4,1.78-1.07,2.76-1.4
		c0.07-0.02,0.13-0.04,0.2-0.06c2.8-0.85,4.53,0.79,7.18,1.45c2.95,0.74,5.64-1.68,8.62-1.24c1.23,0.18,2.73,1.41,3.96,1.13
		c1.13-0.26,1.44-0.97,2.65-0.98h0.09c0.06,0,0.1,0.01,0.16,0.02h0.02c2.43-0.46,3.36,1.12,5.36,1.73c0.14,0.04,0.29,0.09,0.45,0.12
		c1.32,0.28,2.46-0.75,3.67-1.12c1.07-0.32,2.17-0.3,3.27-0.2c0.02,0,0.05,0.01,0.07,0.01h0.01c0.77,0.08,1.51,0.21,2.24,0.29
		c0.93,0.1,1.85,0.13,2.82-0.12c1.09-0.28,2.04-0.81,3.18-0.85c0.83-0.03,1.5,0.17,2.25,0.5c1.71,0.75,2.86,0.75,4.49-0.04
		c1.86-0.88,3.05-1.04,5.04-0.34c1.12,0.39,2.3,1.24,3.52,1.21c1.3-0.03,2.36-1.14,3.56-1.55c2.13-0.74,3.7,0.67,5.76,0.59
		c2.15-0.09,4.08-0.51,6.12-0.65v9.89c-0.56,0.21-1.13,1.31-1.76,1.27c-1.27-0.09-2.39-0.81-3.75-0.57c-1.19,0.21-2,0.78-3.29,0.67
		c-0.99-0.08-1.89-0.43-2.83-0.75c-1.35-0.44-2.38-0.39-3.49-0.12c0,0,0,0-0.01,0.01c-0.48,0.11-0.97,0.26-1.51,0.43
		c-0.57,0.18-1.11,0.32-1.67,0.36c0,0,0,0-0.01,0c-0.37,0.02-0.75,0.01-1.15-0.09c-0.32-0.07-0.62-0.16-0.91-0.25h-0.01
		c-0.01,0-0.01,0-0.01,0c-1.05-0.3-2.02-0.6-3.25-0.39c-1.61,0.27-3.23,1.05-4.77,1.57c-0.39,0.13-0.72,0.06-0.97-0.11
		c-0.69-0.17-1.39-0.68-2.11-1.05c-1.34-0.7-2.02,0.02-3.34,0.12c-0.54,0.04-0.98-0.12-1.51-0.18c-1.73-0.2-1.81-0.15-3.13,0.55
		c-0.84,0.45-1.56,0.67-2.22,0.77c-0.01,0-0.01,0-0.01,0s-0.01,0-0.01,0c-0.2,0.02-0.4,0.04-0.6,0.06h-0.03
		c-1.15,0.04-2.27-0.22-3.84-0.31c-1.91-0.1-2.84,1.27-4.48,1.78c-0.47,0.15-0.94,0.21-1.4,0.21c-0.35,0.01-0.7-0.02-1.04-0.09
		c-0.38-0.06-0.76-0.15-1.14-0.27c-0.59-0.18-1.16-0.45-1.73-0.69c-0.69-0.28-1.28-0.45-1.85-0.53h-0.01
		c-1.07-0.16-2.03,0.01-3.29,0.37c-0.87,0.26-1.5,0.76-2.47,0.66c-1.51-0.15-1.87-0.8-3.55-0.33c-0.18,0.05-0.36,0.1-0.53,0.17
		h-0.01c-0.01,0-0.01,0-0.01,0c-1.53,0.5-3.03,1.26-4.61,1.53c-1.83,0.31-2.71-0.4-3.71-1.31h-0.01l-0.01-0.01
		c-0.42-0.39-0.86-0.81-1.41-1.21c-3.36-2.44-7.68-1.37-11.3-0.12c-0.81,0.7-1.64,0.89-2.51,0.86c-0.01,0-0.01,0-0.01,0
		c-0.21-0.01-0.42-0.03-0.63-0.06c-0.01,0-0.01,0-0.01,0c-0.63-0.09-1.29-0.27-1.98-0.43c-1.23-0.3-2.25,0.01-3.27,0.35
		c-1.19,0.4-2.36,0.85-3.85,0.4c-0.32-0.1-0.62-0.24-0.93-0.39c-0.33-0.16-0.66-0.32-1.04-0.42c-1.37-0.38-2.32,0.01-3.64,0.36
		c-1.07,0.29-2.06,0.57-3.14,0.67c-0.01,0-0.02,0.01-0.04,0c-0.27,0.03-0.55,0.04-0.83,0.04c-0.69,0-1.34-0.07-1.97-0.19
		c-1.78-0.35-3.37-1.15-4.96-2.16c-3.81-2.43-7.42,0.56-11.3,1.32c-1.26,0.25-2.33,0.26-3.37,0.07c-0.01,0.01-0.02,0-0.02-0.01
		c-0.98-0.17-1.94-0.52-3-1H73.2c-0.01-0.01-0.02-0.01-0.04-0.02c-3.71-1.66-7.93,0.32-11.7,1.23c-0.47,0.12-0.93,0.22-1.39,0.31
		h-0.03c-0.01,0-0.03,0.01-0.04,0.01c-0.86,0.16-1.71,0.24-2.62,0.16c-0.15-0.01-0.3-0.03-0.45-0.06h-0.02
		c-1.79-0.26-3.43-1.05-5.29-0.7c-0.09,0.01-0.18,0.03-0.27,0.06c-0.42,0.1-0.77,0-1.03-0.21c-0.37,0.02-0.75,0.05-1.11,0.05
		c-0.89,0.02-1.78-0.05-2.78-0.4c-0.14-0.05-0.29-0.11-0.43-0.17c-2.18-0.93-3.32-0.48-5.31,0.57c-0.74,0.39-1.49,0.72-2.32,0.75
		c-0.13,0.01-0.26,0.01-0.4-0.01c-0.83-0.07-1.47-0.45-2.14-0.89c-0.32-0.21-0.63-0.57-0.96-0.74c-1.33-0.69-2.46-0.43-3.79,0
		c-0.2,0.06-0.4,0.14-0.6,0.24c0,0,0,0-0.01,0c-1.14,0.52-2.38,1.42-3.63,1.94c-0.01,0.01-0.01,0.01-0.01,0
		c-0.82,0.35-1.65,0.53-2.46,0.33c-1.2-0.29-2.01-1.54-3.17-1.91c-1.53-0.5-3.33,0.06-4.91,0.03c-0.96-0.02-2.42-0.58-3.46-0.37
		h-0.01c-0.01,0-0.01,0.01-0.01,0.01c-0.18,0.03-0.34,0.09-0.48,0.17c-0.23,0.13-0.4,0.37-0.57,0.62c-0.22,0.33-0.45,0.69-0.82,0.89
		c-1.53,0.8-2.36-0.17-3.56-0.94C5.33,143.48,2.3,142.19-0.45,142.27z"/>
	<path class="st3" d="M-0.45,142.89v-2.45c1.79-0.12,3.58,1.1,5.39,1.38c1.26,0.2,2.68,0.4,3.77,1.11c1.08,0.71,2.27,1.48,2.96-0.14
		c0.28-0.65,0.85-0.75,1.35-0.55c2.78,0.06,5.81-0.19,8.53,0.28c1.76,0.31,3.06,2.52,4.8,2.31c1.97-0.25,3.41-2.49,5.32-3.09
		c1.49-0.47,2.84-0.2,4.17,0.55c0.72,0.4,1.32,1.08,2.06,1.43c1.74,0.81,2.49-0.25,3.79-1.09c1.05-0.68,2.03-0.74,3.21-0.28
		c1.23,0.48,1.82,1.38,3.29,1.57c1.1,0.13,2.32-0.25,3.4-0.37c0.02,0,0.03-0.01,0.05-0.01c2.31-0.23,3.93,0.62,6.14,1.04
		c4.2,0.8,7.72-2.79,11.81-3.23c1.69-0.18,3.12,0.21,4.65,0.85c1.62,0.67,2.89,1.46,4.72,1.45c1.68-0.01,3.07-0.69,4.59-1.27
		c1.78-0.69,3.56-1.35,5.5-0.89c2.66,0.64,4.64,2.43,7.54,2.58c2.52,0.13,4.55-1.1,6.95-1.3c1.75-0.15,6.05,2.62,7.04,1.22
		c0.31-0.44,0.76-0.58,1.18-0.53c0.92-0.71,1.61-0.6,2.74-0.28c2.04,0.58-0.85,0.72,2.18,0.64c1.4-0.04,1.17-0.09,2.19-0.53
		c1-0.43,1.87-1.04,2.93-1.36c1.92-0.57,3.99-0.61,5.94-0.13c2.26,0.55,3.79,2.11,5.86,3.01c3.01,1.3,4.56-0.91,7.34-1.15
		c2.14-0.19,3.55,1.4,5.69,0.34c1.2-0.6,1.88-1.29,3.32-1.2c1.23,0.07,2.36,0.67,3.45,1.18c0.98,0.45,1.92,1.08,3.01,1.04
		c0.09,0,0.17-0.01,0.26-0.02c1.21-0.18,1.59-1.07,2.56-1.74c0.92-0.64,1.83-0.81,2.93-0.58c0.9,0.19,1.72,0.91,2.6,1.06
		c1.08,0.18,1.78-0.5,2.73-0.77c2.06-0.57,3.91,0.13,5.95-0.84c1.19-0.56,2.16-1.32,3.52-0.77c0.51,0.21,0.78,0.62,1.19,0.96
		c0.21,0.17,0.29,0.69,0.53,0.8c0.98,0.47,2.7-0.09,3.54-0.51c1.55-0.77,2.63-1.7,4.5-1.45c1.6,0.21,3.09,1.64,4.66,1.2
		c1.27-0.36,1.89-1.39,3.35-1.32c1.24,0.06,2.13,0.79,3.25,1.17c2.14,0.72,2.49-0.91,4.4-1.04c0.74-0.06,1.34,0.23,2.05,0.4
		c1.4,0.33,2.69-0.88,4.03-1.12v2.45c-0.6,0.1-1.21,1.45-1.83,1.44c-1.15-0.01-2.25-0.53-3.35-0.55c-1.5-0.03-2.33,1.39-3.9,1.36
		c-1.57-0.02-2.67-1.3-4.12-1.53c-1.61-0.25-2.65,1.5-4.33,1.43c-2.24-0.09-3.82-1.95-6.11-1.14c-1.56,0.56-2.65,1.89-4.36,2.16
		c-1.45,0.23-2.33-0.22-3.42-1.09c-0.99-0.78-1.13-1.15-2.36-0.74c-0.73,0.24-1.28,0.78-2.05,0.97c-0.88,0.22-1.69,0.08-2.57,0.08
		c-1.34,0-2.41,0.56-3.65,0.83c-1.26,0.28-2.13,0.02-3.33-0.47c-2.65-1.09-2.89,0.79-5.02,1.64c-0.53,0.21-1.09,0.29-1.65,0.27
		c-0.37-0.01-0.74-0.07-1.11-0.15c-1.58-0.37-2.89-1.49-4.44-1.9c-2.16-0.58-2.74,1.04-4.56,1.51c-2.11,0.55-3.89-1.15-6.04-0.71
		c-1.63,0.33-2.89,1.44-4.62,1.49c-1.85,0.06-3.42-0.95-4.93-1.89c-2.43-1.52-4.89-2.46-7.78-1.73c-2.1,0.53-3.77,2.22-5.93,2.54
		c-0.37,0.05-4.12-1.01-3.66-1.4c-0.3,0.25-0.64,0.34-0.95,0.3c-0.74,0.88-1.65,1.32-2.9,1.32c-0.69,0.01-1.31-0.2-1.95-0.42
		c-1.97-0.7-3.33-1.29-5.56-0.84c-2.37,0.48-4.28,1.08-6.76,0.72c-2.55-0.37-5.04-2.51-7.48-2.6c-2.68-0.1-5.1,1.98-7.76,2.26
		c-2.29,0.24-4.13-0.47-6.18-1.34c-2.86-1.21-4.73-0.99-7.53,0.2c-1.9,0.8-3.76,1.81-5.82,2.16c-2.29,0.38-3.82-0.43-5.99-0.94
		c-0.96-0.22-1.89-0.17-2.82-0.06c-1.45,0.17-2.87,0.49-4.34,0.2c-0.83-0.16-1.35-0.58-2.11-0.85c-0.64-0.59-1.43-0.79-2.36-0.58
		c-0.36,0.37-0.73,0.74-1.11,1.08c-1.12,0.85-2.27,1.13-3.62,0.69c-1.45-0.47-2.4-1.87-3.8-2.37c-2.87-1-4.78,2.36-7.3,2.97
		c-1.95,0.46-2.7-0.25-4.25-1.18c-2.71-1.63-6.14-1.29-9.3-1.32c-0.86,1.56-2.34,2.78-4.23,1.85c-1.77-0.88-2.62-1.98-4.77-2.32
		C2.79,143.98,1.18,142.78-0.45,142.89z"/>
</g>
</svg>
