<?xml version="1.0" encoding="utf-8"?>
<!-- Generator: Adobe Illustrator 25.2.3, SVG Export Plug-In . SVG Version: 6.00 Build 0)  -->
<svg version="1.1" id="Layer_1" xmlns="http://www.w3.org/2000/svg" xmlns:xlink="http://www.w3.org/1999/xlink" x="0px" y="0px"
	 viewBox="0 0 156 156" style="enable-background:new 0 0 156 156;" xml:space="preserve">
<style type="text/css">
	.st0{fill:#D6AD29;}
	.st1{fill:#A5B508;}
	.st2{fill:#B79D1D;}
	.st3{fill:#557507;}
	.st4{fill:#C6A028;}
	.st5{fill:#E2BD23;}
</style>
<g>
	<path class="st0" d="M140.71,156.42h-73.2c0.16-19.1-9.5-36.97-24.03-49.04c0,0,0,0-0.01-0.01c-2.11-1.76-4.33-3.39-6.64-4.88
		c-0.01,0-0.01,0-0.01-0.01c-0.59-0.39-1.19-0.76-1.79-1.12c-2.11-1.28-4.29-2.45-6.52-3.48H28.5c-2.33-1.09-4.72-2.04-7.15-2.84
		c-3.95-1.3-8.02-2.22-12.17-2.7c-0.01,0.01-0.01,0-0.01,0c-0.5-0.06-0.98-0.12-1.48-0.15c0,0,0,0-0.01,0
		c-2.26-0.21-4.54-0.29-6.83-0.23c-0.23,0.01-0.46,0.01-0.69,0.02c-0.01,0.01-0.01,0.01-0.02,0c-0.18,0.01-0.37,0.01-0.56,0.02
		v-78.2c16.45,0.92,32.79,3.95,48.35,9.41c11.89,4.16,23.37,9.69,34.02,16.45c1.82,1.14,3.61,2.33,5.38,3.57
		c0.22,0.14,0.43,0.29,0.66,0.45c0.2,0.14,0.39,0.28,0.59,0.42c1.56,1.11,3.07,2.27,4.54,3.48c0.45,0.36,0.88,0.73,1.32,1.09
		c0.77,0.66,1.53,1.33,2.28,2c2.09,1.89,4.08,3.88,6,5.93c0.87,0.92,1.71,1.86,2.55,2.81c1.82,2.08,3.59,4.22,5.3,6.41
		c0.71,0.91,1.41,1.83,2.1,2.75c1.16,1.54,2.29,3.1,3.4,4.67c0.98,1.38,1.94,2.76,2.89,4.16c0.1,0.15,0.2,0.3,0.31,0.45
		c1.18,1.74,2.33,3.5,3.45,5.29c1.46,2.35,2.87,4.74,4.22,7.18c1.18,2.14,2.31,4.32,3.39,6.52c0.43,0.88,0.85,1.77,1.26,2.65
		c1.05,2.27,2.03,4.57,2.95,6.89c0.5,1.27,0.98,2.54,1.44,3.83c1.02,2.89,1.94,5.8,2.72,8.75c0.3,1.13,0.58,2.27,0.84,3.4
		c0.43,1.88,0.81,3.77,1.13,5.67c0.37,2.15,0.66,4.32,0.86,6.49c0.17,1.72,0.28,3.44,0.34,5.17
		C142.07,145.23,141.72,150.84,140.71,156.42z"/>
	<path class="st1" d="M70.67,156.42H51.69c-0.31-2.15,0.4-4.56,1.46-6.28c0.06-0.12,0.12-0.22,0.2-0.32
		c0.15-0.42,0.38-0.83,0.72-1.22c0.78-0.9,1.15-1.32,1.38-2.24c-0.23-0.09-0.45-0.18-0.67-0.28c-1.26-0.62-2.22-1.55-2.8-2.83
		c-0.64-1.39-0.76-2.98-0.43-4.48c0.19-0.84,1.21-2.01,0.39-2.47c-0.87-0.5-1.26-1.43-1.24-2.35c-1.21-1.15-2.31-2.56-3.29-3.82
		c-0.73-0.95-1.38-1.96-1.69-3.13c-0.09-0.61-0.18-1.2-0.25-1.8c0.01-0.21,0.02-0.38,0.02-0.51c-0.09,0.04-1.56-1.46-1.77-1.85
		c-0.63-1.16-0.57-2.26-0.86-3.48c-0.6-2.51-3.42-4.2-5.85-5.01H37c-0.57-0.04-1.16-0.24-1.75-0.67c-0.04-0.02-2.03,0.15-2.46,0.07
		c-0.88-0.18-1.64-0.51-2.36-1.06c-1.23-0.96-1.65-2.65-2.83-3.53c-1.44-1.07-3.75-1.39-5.54-2.08c-1.03,0.34-2.17,0.32-3.13-0.25
		c-1.6-0.95-3.01-2.08-4.18-3.53c-0.76-0.94-1.35-2.77-2.78-2.75c-1.3,0.02-2.47,1.75-3.62,2.36c-1.54,0.83-3.25,1.04-4.97,1.02
		H3.35c-0.41,0.34-0.94,0.57-1.6,0.63c-0.36,0.03-0.72,0.06-1.07,0.09c-0.41,0.03-0.78,0.13-1.1,0.01v-15.1
		c1.78-0.77,4.22-0.65,5.98-0.73c0.38-0.01,0.72,0.03,1.04,0.12c2.14-0.42,3.87-0.28,5.58,0.68c4.42-0.65,8.65,0.64,12.85,1.96
		c3.69,1.17,7.65,2.51,10.61,5.09c1.76,0.89,3.45,1.9,5.12,3.01c2.68,1.78,5.78,3.61,6.61,6.92c0.01,0.04,0.01,0.08,0.02,0.12
		c2.72,2.21,5.37,4.52,7.63,7.21c2.87,3.4,4.59,7.34,6.28,11.41c0.32,0.77,0.34,1.47,0.16,2.07c1.11,1.77,2.2,3.55,3.36,5.28
		c1.78,2.64,3.25,5.26,4.21,8.11c0.01,0.01,0.01,0.02,0.01,0.02c0.54,1.57,0.92,3.22,1.13,4.97c0.13,1.11-0.43,2.15-1.26,2.89
		c0.56,1.36,1.14,2.71,1.58,4.1C70.94,154.15,70.97,155.39,70.67,156.42z"/>
	<path class="st2" d="M73.11,156.42h-9.46c-0.43-2.48-0.94-5-1.02-7.45c-0.05-1.49,0.51-2.51,0.7-3.91
		c0.27-1.93-0.67-1.54-1.47-2.81c-1.29-2.06,0.06-4.66-0.77-6.88c-0.55-1.47-2.12-2.19-3.1-3.36c-0.77-0.92-1.33-1.96-1.89-3.01
		c-0.3-0.57-0.22-1.12,0.05-1.54c-1.68-1.44-3.09-3.44-3.91-5.39c-0.5-1.19-0.43-2.63-0.95-3.75c-0.59-1.29-2.16-1.98-3.23-2.92
		c-1-0.88-1.6-1.5-2.82-2.06c-0.77-0.35-1.34-0.94-1.82-1.63c-2-2.9-1.42-6.18-5.45-7.4c-2.78-0.84-4.06-2.72-6.52-4.08
		c-2.76-1.52-6.21-0.78-9-2.35c-1.54-0.87-2.68-2.35-4.39-2.94c-1.62-0.56-3.6-0.49-5.3-0.64c-1.44-0.12-2.91-0.18-4.33-0.45
		c-2.07-0.39-4.18-1.82-6.36-1.49c-0.53,0.09-0.96-0.12-1.25-0.44c-0.03-0.03-0.06-0.07-0.09-0.1c-0.2,0.05-0.4,0.09-0.61,0.13
		c-0.01,0.01-0.01,0.01-0.02,0c-0.18,0.04-0.37,0.07-0.56,0.1v-9.03c0.09-0.04,0.19-0.06,0.29-0.06c0.04,0,0.09,0.01,0.12,0.01
		c1.15-0.42,2.39-0.56,3.59-0.12c1.61,0.6,2.6,1.47,4.45,1.63c0.89,0.08,1.76-0.04,2.63,0.17c0.69,0.17,1.21,0.51,1.83,0.81
		c1.98,0.93,2.96,0.65,4.94,0.81c1.73,0.14,2.41,0.8,3.81,1.53c1.78,0.93,3.94,0.37,5.67,1.5c0.62,0.41,0.88,1.14,1.41,1.53
		c1.08,0.78,2.25,0.58,3.44,0.95c1.37,0.42,2.01,1.17,2.94,2.08c0.5,0.5,0.12,0.3,0.73,0.65c0.7,0.4,1.89,0.52,2.69,0.89
		c0.24,0.11,0.4,0.27,0.51,0.45c2.06,0.05,2.78,2.51,4.82,3.19c0.94,0.31,1.64,0.16,2.36,1c0.77,0.88,0.6,2.33,1.35,3.15
		c1.6,1.75,4.19,1.03,5.36,3.52c0.61,1.29-0.09,1.58,0.94,3.17c0.34,0.53,0.92,0.9,1.3,1.41c0.7,0.93,0.73,1.64,1.1,2.66
		c0.49,1.34,1.76,1.82,2.53,2.95c0.95,1.41,1.35,2.47,2.63,3.64c0.79,0.73,1.5,1.42,1.87,2.45c0.58,1.63,0.92,2.4,2.3,3.6
		c0.94,0.84,1.66,1.67,2,2.92c0.11,0.41,0.01,1.26,0.2,1.59c0.45,0.77,0.73,0.43,1.29,0.97c2.01,1.93,1.2,5.26,0.89,7.76
		c-0.05,0.43-0.25,0.75-0.52,0.97c0.01,0.01,0.01,0.02,0.01,0.02c0.18,0.4,0.39,0.76,0.66,1.09c0.34,0.41,0.81,0.65,1.1,1.12
		c0.83,1.32,0.4,3.06,0.81,4.52C72.51,150.74,73.22,153.34,73.11,156.42z"/>
	<path class="st1" d="M156.33,156.42h-17.57c0.01-0.5,0.05-1,0.13-1.54c0.15-0.97,0.66-1.69,1.15-2.51
		c0.04-0.06,0.08-0.11,0.12-0.17c-0.4-0.78-0.51-1.74-0.14-2.85c1.84-5.48-0.45-10.98-1.49-16.39c-0.26-1.39,0.19-2.66,0.99-3.59
		c-1.26-4.61-2.76-9.11-3.19-13.92c-0.02-0.27-0.04-0.54-0.06-0.82c-0.12-0.25-0.24-0.5-0.37-0.75c-0.01-0.01-0.02-0.03-0.02-0.04
		c-1.24-2.27-2.38-4.59-3.41-6.98c-0.25-0.58-0.35-1.15-0.33-1.69c-0.44-0.27-0.83-0.67-1.09-1.24c-2.84-5.97-6.73-11.4-10.49-16.81
		c-0.47-0.68-0.58-1.4-0.43-2.07c-1.16-1.8-2.24-3.65-3.24-5.53c-1.34-1.4-2.77-2.7-3.86-3.86c-2.76-2.94-5.46-5.92-7.83-9.19
		c-0.65-0.1-1.3-0.44-1.87-1.12c-2.55-2.96-5.23-5.8-8.06-8.48c-0.77-0.59-1.52-1.19-2.27-1.8c-0.77-0.62-1.51-1.25-2.25-1.9
		c-0.94-0.83-1.87-1.67-2.77-2.55c-4.18-3.2-8.63-6.07-12.3-9.87c-0.47-0.49-0.77-1.06-0.92-1.64c-2.93-1.2-5.79-2.53-8.56-4.08
		c-0.19-0.1-0.36-0.22-0.51-0.34c-5.08-2.62-10.23-5.1-15.43-7.5c-0.5-0.23-0.88-0.54-1.16-0.9c-6.19-1.42-12.05-4.38-18.22-5.91
		c-3.39-0.84-6.85-1.8-10.33-2.63c-0.21-0.03-0.42-0.08-0.62-0.15c-0.94-0.22-1.88-0.43-2.83-0.62c-5.1-0.56-10.21-1-15.31-0.86
		c-0.91,0.02-1.63-0.23-2.19-0.65V-0.03c0.04-0.01,0.09-0.01,0.13-0.01c0.24-0.01,0.47-0.01,0.71-0.01
		c0.02-0.01,0.04-0.01,0.06-0.02c0.3-0.1,0.61-0.18,0.9-0.2c1.9-0.17,4.07-0.3,5.98,0.2c0.31,0.08,0.61,0.18,0.91,0.29
		c1.67,0.66,2.33,2.37,3.78,3.09c1.67,0.84,5.05-0.2,6.74-0.45c2.15-0.31,4.32-0.74,6.48-0.9c2.04-0.16,4.18,0.1,5.87,1.34
		c0.4,0.3,1.92,1.96,2.54,3.3c0.69-0.48,1.43-0.89,2.23-1.15c2.03-0.65,4.22-0.6,6.18,0.21c0.66,0.26,1.25,0.64,1.73,1.1
		c2.4-0.02,4.76,0.53,7.06,1.4c1.4,0.53,2.5,1.2,3.45,2.35c0.83,0.99,1.52,3.11,2.79,3.64c1.11,0.46,2.76,0,3.97,0.3
		c1.26,0.31,2.45,0.92,3.36,1.86c0.83,0.86,1.11,2.16,1.89,2.98c0.89,0.95,2.34,0.76,3.64,0.83c5.86,0.33,13.66-1.79,18.39,2.67
		c2.52,2.37,2.61,5.18,3.2,8.35c0.53,2.85,2.96,3.86,5.37,5.02c0.81,0.39,1.35,0.93,1.66,1.53c4.86,0.54,10.71,4.14,13.39,7.88
		c1.55,2.17,1.38,5,3.44,6.88c1.85,1.69,4.49,2.04,6.55,3.38c5.26,3.4,3.88,9.27,6.62,14.05c1.4,2.44,3.98,3.88,5.85,5.92
		c2.06,2.24,3.21,4.72,3.48,7.73c3.1,1.89,5.63,4.34,6.03,8.19c0.1,0.89-0.2,2.37,0.14,3.17c0.36,0.83,1.4,1.37,2,2
		c1.51,1.58,2.47,3.52,2.9,5.66c0.39,1.99-0.11,4.68,0.68,6.33c1.04,2.17,3.03,3.84,4,6.14c1.13,2.64,0.67,4.71,0.1,7.41
		c-0.5,2.37-0.39,4.46,0.36,6.77c0.24,0.76,0.26,1.45,0.12,2.06c3.01,3.44,1.62,10.52,1.69,14.59c0.04,2.16,0.28,4.38,0.4,6.57
		c0.07,1.14,0.1,2.28,0.04,3.4c-0.01,0.17-0.02,0.33-0.04,0.49C156.34,156.36,156.34,156.39,156.33,156.42z"/>
	<path class="st2" d="M144.67,156.42h-9.73c-0.12-1-0.09-2.03-0.03-2.96c0.09-1.38,0.37-2.73,0.98-3.98c0.34-0.7,1.18-1.5,1.57-2.28
		c-0.26-0.79-0.28-1.66,0.04-2.5c-0.11-0.09-0.23-0.25-0.37-0.48c-0.17-0.2-0.33-0.39-0.5-0.59c-0.64-0.79-1.11-1.53-1.53-2.46
		c-0.75-1.67-1.05-3.46-0.88-5.28c0.1-1.16,1.14-3.36,0.72-4.26c-0.65-1.41-2.11-2.26-2.65-3.84c-0.6-1.75-0.05-3.18-0.21-4.92
		c-0.12-1.38-1.3-2.37-1.86-3.71c-0.71-1.72-0.54-3.3-0.61-5.1c-0.07-1.82-1.32-2.41-1.93-4.09c-0.32-0.89-0.39-1.77-0.31-2.71
		c0.02-0.21,0.34-1.54,0.4-1.32c-0.12-0.45-1.41-1.58-1.68-1.97c-0.5-0.72-0.92-1.49-1.19-2.33c-0.41-1.28-0.11-3.21-0.77-4.35
		c-0.68-1.2-2.49-1.75-3.31-3c-0.78-1.19-1.04-2.53-1.2-3.92c-0.06-0.47,0.04-1.69-0.25-2.12c-0.18-0.28-1.51-0.9-1.79-1.17
		c-1.88-1.82-1.78-4.41-2.98-6.57c-0.01-0.01-0.01-0.02-0.02-0.03c-0.68-0.39-1.26-1.01-1.62-1.89c-0.93-2.33-4.04-2.85-5.62-4.58
		c-1.03-1.14-0.85-2.1-1.34-3.39c-0.37-0.98-0.78-0.94-1.75-1.54c-0.97-0.6-1.81-1.3-2.39-2.29c-0.3-0.52-0.47-1.02-0.6-1.6
		c-0.04-0.24-0.07-0.5-0.1-0.75c-0.29-0.07-0.61-0.16-0.67-0.18c-0.5-0.2-0.96-0.51-1.37-0.86c-0.89-0.76-1.45-1.74-1.73-2.87
		c-0.11-0.44-0.06-1.04-0.12-1.55c-0.09-0.03-0.23-0.07-0.43-0.1c-0.92-0.16-2.09-0.98-2.72-1.64c-0.6-0.64-0.82-1.43-1.13-2.16
		c-0.13-0.31-0.28-0.6-0.48-0.87c-0.43-0.58-1.09-0.78-1.77-1.03c-0.27-0.1-0.53-0.2-0.79-0.34c-1.02-0.54-1.65-1.04-2.72-1.38
		c-1.06-0.34-1.97-0.51-2.86-1.24c-0.91-0.73-1.16-1.64-1.78-2.54c-0.28-0.4-0.35-0.5-0.59-0.76c-0.29-0.31-0.62-0.59-0.94-0.88
		c-0.99,0.18-2.05-0.09-2.92-1.08c-0.45-0.51-0.97-1.05-1.22-1.71c-1.04-0.22-2.9-1.05-3.07-1.17c-0.62-0.42-2.31-1.8-2.28-2.7
		c-0.52,0.08-1.04,0.06-1.56-0.06c-1.32-0.28-2.51-1.2-3.04-2.45c-0.04-0.09-0.34-1.31-0.31-1.29c-0.08-0.05-1.53,0.15-1.77,0.12
		c-2.07-0.25-3.19-1.36-3.76-2.89c-0.26-0.03-0.52-0.07-0.78-0.1c-0.94-0.13-1.55-0.34-2.29-0.89c0,0-0.96-0.81-1.05-1.09
		c-0.55,0.07-1.3,0.34-1.65,0.37c-1.57,0.11-3.01-0.23-4.24-1.22c-0.51-0.42-0.85-1.09-1.36-1.48c-0.31-0.24-0.8-0.43-1.26-0.62
		c-0.59,0.18-1.28,0.18-2.04-0.07c-1.23-0.4-1.97-0.97-2.96-1.77c-0.24-0.25-0.48-0.51-0.72-0.76l0.06,0.44
		c-0.53,0.02-1.12,0.32-1.66,0.42c-2.27,0.4-4.7,0.03-6.26-1.8c-0.19-0.21-0.53-0.84-0.78-1.39c-0.14,0.01-0.29,0.01-0.47,0.04
		c-0.84,0.11-1.57,0.17-2.41,0.04c-1.23-0.18-2.17-0.66-3.13-1.45c-0.19-0.15-0.54-0.62-0.83-0.86c-0.01,0.23-1.02,0.55-1.08,0.57
		c-2.69,0.75-5.88-0.43-8.4-1.27c-1.33-0.45-2.74-1.02-4.16-1.05c-1.46-0.03-2.2,0.71-3.45,1.29c-1.29,0.6-2.62,0.79-4.01,0.45
		C6,20.55,5.23,20.36,4.92,20.22c-0.18,0.18-0.66,0.46-0.75,0.53c-1.41,0.94-3.05,1.36-4.59,0.89v-9.77
		c0.3-0.06,0.58-0.09,0.86-0.12c1.33-0.17,2.65-0.24,3.96-0.26c1.27-0.17,2.65-0.04,3.58,0.06c0.22,0.03,0.42,0.1,0.58,0.19
		c0.27,0.04,0.53,0.09,0.81,0.16c0.41,0.1,0.67,0.32,0.81,0.59c0.21-0.02,0.42-0.05,0.63-0.06c0.32-0.09,0.64-0.17,1-0.22
		c2.17-0.31,4.29,0.09,6.36,0.69c0.2-0.01,0.39-0.03,0.59-0.06c3.04-0.43,5.52-0.49,8.1,1.22c0.09-0.02,0.21-0.04,0.38-0.04
		c0.8-0.02,0.99,0.45,1.73,0.6c0.77,0.15,1.03-0.27,1.63,0.04c0.13,0.07,0.3,0.19,0.62,0.43c0.23,0.17,0.45,0.33,0.66,0.51
		c0.17,0.28,0.37,0.45,0.58,0.48c0.16,0.03,0.32-0.01,0.5-0.1c0.01,0,0.01,0,0.01,0c0.07-0.04,0.15-0.1,0.23-0.16
		c1.76,0.05,3.36-0.17,4.77,0.59c0.28,0.15,0.59,0.86,1.37,1.14c0.48,0.18,0.94,0.17,1.26,0.13c0.47,0.2,1.24,0.49,2.23,0.71
		c2,0.44,2.63,0.15,3.7,0.75c0.17,0.1,0.37,0.29,0.58,0.51c0.02,0,0.03,0,0.05,0.01c0.99,0.32,1.97,0.64,2.93,0.99
		c0.78,0.19,1.54,0.51,2.25,0.92c1.58,0.72,3.08,1.61,4.46,2.79c0,0.01,0,0.01,0.01,0.01c0.91-0.09,1.73-0.09,2.61,0.24
		c0.56,0.21,1,0.72,1.44,1.11c0.58,0.17,1.16,0.37,1.72,0.6c0.59,0.01,1.22-0.02,1.78,0.19c1.02,0.39,1.66,0.97,2.09,1.69
		c0.45,0.24,0.91,0.5,1.35,0.75c0.18,0.03,0.32,0.06,0.39,0.07c0.77,0.18,1.5,0.48,2.17,0.91c0.49,0.32,0.86,0.66,1.15,1.02
		c1.16,0.64,2.32,1.28,3.48,1.93c0.11,0.04,0.22,0.09,0.33,0.15c0.07,0.04,0.15,0.1,0.22,0.15c1.1,0.59,2.19,1.18,3.31,1.74
		c0.53,0.27,0.72,0.72,0.67,1.16c1.37,0.32,2.39,1.18,3.5,2.19c2.03,1.83,4.18,3.34,6.5,4.8c2.54,1.6,4.93,3.29,6.94,5.4
		c0.48,0.33,0.92,0.73,1.31,1.22c0.13,0.18,0.34,0.56,0.53,0.97c0.27,0.37,0.53,0.75,0.78,1.16c0.16,0.26,0.21,0.51,0.21,0.74
		c0.61,0.31,1.37,0.48,2.02,0.79c0.13,0.09,0.28,0.17,0.43,0.24c0.04,0.02,0.09,0.06,0.13,0.09c0.8,0.61,1.41,1.42,1.79,2.34
		c1.16,0.03,1.82,0.61,2.45,1.7c0.7,1.22,1.22,2.37,1.94,3.42c0.04,0.06,0.07,0.1,0.11,0.15c0,0.01,0.01,0.01,0.01,0.01
		c0.43,0.61,0.94,1.19,1.6,1.73c1.2,0.97,2.33,1.79,3.26,3.08c0.91,1.27,1.33,2.7,2.09,4.05c0.07,0.13,0.12,0.28,0.17,0.43
		c1.41,1.01,2.53,2.15,3.42,3.48c1.57,1.58,2.35,4.06,3.34,6.08c1.05,2.13,3.34,3.39,4.72,5.35c1.21,1.71,1.63,3.85,2,5.89
		c0.02,0.1,0.02,0.2,0.02,0.3c0.03,0.02,0.07,0.05,0.1,0.08c0.77,0.69,1.34,1.45,1.79,2.38c0.38,0.76,0.51,1.61,0.62,2.46
		c0.3,0.31,0.59,0.63,0.88,0.98c0.81,1.01,0.64,1.99,0.67,3.17c-0.01,0.56,0.04,1.82,0.85,3.1c0.48,0.76,1.04,1.25,1.45,1.54
		c0.15,0.03,0.31,0.06,0.39,0.08c1.5,0.29,2.56,1.93,2.57,3.37c0.01,1.52,0.25,3.79-0.07,5.7c0.19,0.16,0.36,0.33,0.5,0.51
		c0.14,0.18,0.24,0.36,0.34,0.55c0.12,0.09,0.26,0.25,0.34,0.48c0.09,0.27,0.02,0.49,0,0.61c-0.1,0.77,1.52,1.19,2.31,2.66
		c0.21,0.39,0.42,0.77,0.37,1.26c-0.1,1-1.15,1.25-1.46,2.19c-0.16,0.48-0.17,1.24,0.61,2.45c0.12,0.07,0.29,0.19,0.46,0.37
		c0.32,0.33,0.3,0.6,0.66,1.06c0.51,0.69,0.87,1.25,1.21,2.05c0.85,2.04,0.67,4.22,0.67,4.22c-0.12,1.45-0.47,1.26-0.55,2.68
		c-0.03,0.57-0.08,1.76,0.43,3.07c0.23,0.61,0.12,0.87,1.3,2.22c2.3,2.62,1.67,5.32,0.65,8.41
		C145.09,151.69,145.25,154.07,144.67,156.42z"/>
	<path class="st3" d="M145.44,156.42h-2.45c0.04-1.86-0.23-3.53,0.43-5.31c0.8-2.18,3.05-6,2.05-8.45c-0.61-1.49-2.57-1.8-3.6-3
		c-0.16-0.19-0.3-0.4-0.4-0.64c-0.6-1.34-0.22-3,0.03-4.38c0.01-0.05,0.02-0.1,0.03-0.15c0.21-1.11,0.55-2.25,0.52-3.4
		c-0.02-1.42-0.59-2.26-1.38-3.08c-0.32-0.33-0.67-0.66-1.04-1.02c-0.75-0.73-1.29-1.36-1.15-2.49c0.11-0.94,0.63-1.58,1.06-2.15
		c0.63-0.84,1.05-1.55-0.34-2.89c-0.2-0.18-0.36-0.35-0.5-0.51c-0.54-0.57-0.84-1.03-1.25-1.69c-0.25-0.08-0.47-0.26-0.62-0.59
		c-0.18-0.4-0.35-0.81-0.5-1.22c-0.19-0.53-0.34-1.07-0.45-1.61c-0.14-0.72-0.21-1.45-0.18-2.21c0.02-0.46,0.15-0.95,0.28-1.43
		c0.13-0.51,0.26-1.02,0.25-1.48c-0.06-2.23-0.65-2-1.69-2.35c-0.18-0.05-0.37-0.13-0.58-0.24c-2.6-1.37-1.97-4.21-2.36-6.65
		c-0.13-0.84-0.39-1.63-0.94-2.29c-0.1-0.12-0.21-0.24-0.32-0.36c-0.95-1.06-1.97-1.83-2.6-3.2c-0.49-1.07-0.64-2.19-0.78-3.31
		c-0.12-0.97-0.21-1.93-0.5-2.87c-0.64-2.09-2.19-3.18-3.72-4.3c-1.23-0.91-2.45-1.83-3.18-3.31c-0.39-0.79-0.48-1.61-0.58-2.42
		c-0.1-1-0.2-1.97-0.85-2.88c-0.58-0.81-1.3-1.06-2.05-1.28c-0.71-0.22-1.43-0.42-2.09-1.05c-1.07-1.02-0.94-2.29-1.3-3.57
		c-0.01-0.02-0.01-0.04-0.02-0.05c-0.43-1.52-1.19-2.23-2.1-2.75c-0.92-0.53-2.03-0.85-3.16-1.6c-1.15-0.76-2.08-1.79-2.24-3.2
		c-0.06-0.51,0.11-1,0.1-1.51v-0.1c-0.06-2.22-0.83-2.16-2.55-2.81c-0.1-0.04-0.2-0.07-0.31-0.12c-1.37-0.54-2.84-1.05-3.9-2.11
		c-0.86-0.86-1.21-2.42-1.79-3.7c-0.47-1.04-1.1-1.88-2.28-2c-0.05-0.01-0.1-0.01-0.15-0.01c-0.7-0.03-1.09-0.54-1.16-1.08
		c-0.61-0.45-1.62-0.52-2.24-0.95c-0.74-0.52-1.13-1.31-1.72-1.97c-0.18-0.2-0.38-0.39-0.58-0.56c-0.39-0.33-0.81-0.61-1.24-0.86
		c-1.55-0.9-3.33-1.48-4.65-2.74c-0.27-0.26-0.51-0.54-0.73-0.83c-0.42-0.55-0.78-1.15-1.18-1.75c-1.11-1.68-2.32-2.15-4.24-2.59
		c-1.97-0.45-3.3-1.09-4.68-2.56c-1.56-1.64-2.61-2.22-4.65-2.86c-0.95-0.3-1.73-0.67-2.52-1.25c-1.54-1.14-2.47-2.4-4.45-2.82
		c-1.25-0.26-2.57-0.07-3.82-0.37c-0.94-0.23-1.73-0.62-2.47-1.22c-1.41-1.13-2.25-2.07-4.26-2.2c-1.11-0.07-1.86,0.12-2.91-0.46
		c-1.49-0.81-2.36-1.96-4.19-2.28c-0.41-0.07-0.66-0.29-0.79-0.57c-1.93-1.02-4.01,0.14-5.78-1.07c-0.4-0.27-0.57-0.78-0.94-1.04
		c-0.84-0.6-1.48-0.73-2.09-0.65c0,0-0.01,0-0.01,0c-0.17,0.02-0.34,0.06-0.5,0.1c-0.51,0.13-1.04,0.37-1.68,0.52
		c-1.3,0.31-2.66,0.43-3.89-0.2c-0.58-0.29-0.91-0.81-1.43-1.12c-1.59-0.95-2.8-0.92-4.53-0.48c-1.81,0.46-3.05-0.02-4.78-0.38
		c-2.31-0.48-4.75,0.62-6.96-0.41c-0.45-0.21-0.79-0.61-1.22-0.83C6.99,12.69,6.2,12.86,5,13.07c-1.85,0.32-3.54,0.21-5.42,0.17
		v-2.39c1.08,0.06,2.24,0.27,3.28,0.15c1.15-0.13,2.04-0.68,3.13-0.87c1.46-0.26,2.24,0.18,3.34,0.89c1.95,1.25,2.88,0.79,5.06,0.75
		c0.99-0.02,1.47,0.07,2.41,0.28c1.95,0.43,2.9,0.44,4.83-0.06c0.69-0.18,1.37-0.41,2.08-0.38c1.74,0.07,2.18,1.06,3.49,1.91
		c2.77,1.8,4.31-0.44,7.02-0.26c2.09,0.13,2.25,2,4.19,2.4c0.64,0.13,1.49-0.15,2.19-0.04c1.05,0.17,1.88,0.58,2.75,1.16
		c0.1,0.07,0.18,0.14,0.25,0.21c1.3,0.31,2.09,0.89,3.29,1.51c1.69,0.87,3.34,0.57,5.04,0.99c0.98,0.24,1.69,0.9,2.38,1.58
		c1.45,1.41,2.63,2.02,4.71,2.18c2.61,0.2,4.09,0.83,6.08,2.49c1.67,1.39,2.98,1.66,4.93,2.36c0.92,0.33,1.7,0.75,2.39,1.42
		c1.37,1.32,1.95,2.67,3.96,3.23c1.03,0.29,2.11,0.4,3.11,0.82c2.82,1.17,3.28,4.12,5.67,5.73c2.08,1.41,4.22,2.02,6.01,3.86
		c0.85,0.87,1.66,1.44,2.7,2.03c0.67,0.38,1.08,0.59,1.47,1.12c1.13,0.21,2.11,0.7,2.88,1.69c1.46,1.87,1.07,3.99,3.09,5.32
		c0.13,0.09,0.28,0.17,0.43,0.24c0.04,0.02,0.09,0.05,0.14,0.07c1.6,0.77,3.86,1.08,5.17,2.39c1.03,1.03,0.72,1.94,0.8,3.26
		c0.23,3.97,2.79,3.12,5.18,4.9c1.3,0.97,1.71,2.11,2.03,3.66c0.32,1.59,0.12,2.25,1.83,3.03c0.67,0.31,1.49,0.23,2.16,0.59
		c1.32,0.69,1.9,1.75,2.18,3.16c0.51,2.69,0.1,4.32,2.58,6.15c1.29,0.95,2.68,1.72,3.65,3.03c1.12,1.5,1.43,3.28,1.69,5.09
		c0.4,2.85,1.26,4.43,3.23,6.55c0.99,1.06,1.65,2.13,1.85,3.6c0.15,1.16-0.39,2.76,0.09,3.84c0.69,1.58,1.67,1.07,2.84,1.72
		c1.11,0.62,1.68,1.55,1.74,2.83c0.13,2.73-1.13,4.65-0.21,7.35c0.13,0.09,0.24,0.21,0.34,0.37c0.65,1.03,0.68,1.5,1.78,2.32
		c0.46,0.35,0.96,0.56,1.33,1.07c0.86,1.21,0.76,2.67,0.21,3.96c-0.44,1.04-1.49,1.49-0.99,2.74c0.24,0.62,1.58,1.35,2.02,1.99
		c0.97,1.41,1.19,3.04,1.08,4.72c-0.2,2.72-1.78,4.85,0.66,6.98c1.46,1.28,2.55,1.64,2.87,3.86c0.26,1.86-0.32,4.03-0.86,5.79
		c-0.31,1.04-0.83,1.94-1.2,2.95C145.25,153.37,145.48,154.61,145.44,156.42z"/>
	<path class="st3" d="M65.25,156.42h-2.4c0.09-1.12,0.21-2.33-0.01-3.29c-0.23-1.07-1.22-1.8-1.49-2.81
		c-0.25-0.95,0.16-2.17,0.43-3.06c0.55-1.78,1.09-2.61-0.34-3.94c-1.39-1.3-1.5-1.58-1.4-3.64c0.07-1.31,0.32-2.96-0.07-4.23
		c-0.47-1.5-1.64-1.8-2.79-2.56c-0.8-0.53-1.07-1.08-1.21-2c-0.26-1.76,0.23-2.69-1.35-4c-1.63-1.35-2.87-1.88-3.52-4.1
		c-0.31-1.03-0.25-2.02-0.4-3.07c-0.12-0.77-0.01-1.77-0.85-2.27c-0.26-0.16-0.75,0.07-1.05-0.05c-0.75-0.32-1.18-0.42-1.65-1.13
		c-0.16-0.24-0.23-0.81-0.37-1.27c-0.29-0.1-0.53-0.34-0.63-0.73c-0.01,0-0.02-0.01-0.04-0.01c-0.17,0.42-2.53-0.06-2.82-0.26
		c-0.64-0.42-1.03-1.17-1.25-1.88c-0.61-2.04-0.65-4.14-2.19-5.79c-1.45-1.55-3.08-0.99-4.81-1.59c-1.07-0.37-1.43-0.92-2.07-1.75
		c-0.85-1.1-1.27-2.5-3.07-2.73c-0.81-0.1-1.67,0.13-2.49,0.12c-3-0.04-5.27-1.59-7.56-3.36c-0.14-0.12-0.24-0.24-0.31-0.37
		c-0.02-0.01-0.04-0.02-0.05-0.04c-1.49-1.48-2.68-0.95-4.47-1.23c-1.29-0.21-2.12-0.9-3.57-0.87c-1.09,0.02-2.12,0.51-3.2,0.55
		c-1.46,0.06-2.03-0.46-3.16-1.2c-1.67-1.09-3.54-0.44-5.51-0.29v-2.51c1.8-0.23,4.16-1.22,5.77-0.37c0.42,0.22,0.64,0.61,1,0.84
		c0.51,0.32,0.95,0.53,1.33,0.66c0.01,0,0.01,0,0.01,0c0.56,0.18,1.02,0.2,1.48,0.15c0,0,0.01,0.01,0.01,0
		c0.65-0.06,1.31-0.25,2.27-0.27c1.96-0.04,4.04,0.55,5.96,0.75c1.95,0.2,2.47,0.73,3.82,2.06c0.05,0.06,0.09,0.1,0.13,0.16
		c0.04,0.05,0.07,0.1,0.1,0.16c0.05,0.03,0.09,0.05,0.13,0.09c2.25,1.74,3.96,2.6,6.83,2.6h0.1c1.42-0.01,2.77-0.18,4.1,0.43
		c1.15,0.52,1.59,1.29,2.24,2.29c0.06,0.26,0.12,0.51,0.18,0.77c0.01,0.04,0.02,0.08,0.03,0.12c0.55,0.5,1.13,0.83,1.76,1.01
		c0.01,0.01,0.01,0.01,0.01,0.01c0.4,0.11,0.83,0.16,1.27,0.14c0.43,0.1,0.88,0.13,1.31,0.29c1.74,0.66,3.2,2.56,4.06,4.46
		c0.01,0.01,0.01,0.01,0.01,0.01c0.32,0.72,0.56,1.42,0.7,2.07c0.24,1.19,0.29,1.89,1.67,2.32c0.36,0.11,0.83-0.06,1.23,0.08
		c0.24,0.09,0.44,0.19,0.62,0.32c0.42,0.21,0.73,0.53,1.01,1.03c0.83,1.51,0.29,1.28,2.01,1.89c1.93,0.7,2.33,2.21,2.42,4.13
		c0.09,1.94,0.16,3.77,1.82,5.03c0.94,0.71,2.09,0.97,2.8,1.98c0.67,0.94,0.51,1.87,0.66,2.92c0.31,2.11,1.02,1.63,2.32,2.65
		c1.73,1.38,1.83,3.89,1.82,5.91c-0.01,1.63-0.54,2.76,0.82,3.62c0.8,0.51,1.35,0.59,1.76,1.56c0.38,0.89,0.17,1.73-0.07,2.62
		c-0.51,1.95-1.4,2.94-0.6,4.99C65.26,152.52,65.29,154.35,65.25,156.42z"/>
	<path class="st4" d="M14.86,38.26c0.2-0.1,0.4-0.24,0.58-0.4c0.18-0.14,0.34-0.3,0.46-0.49c0.36-0.47,0.62-1.07,0.6-1.68
		c-0.02-0.49-0.15-0.96-0.38-1.4c-0.14-0.26-0.33-0.46-0.54-0.63c-0.21-0.22-0.46-0.41-0.72-0.54c-0.46-0.27-0.97-0.4-1.5-0.41
		c-0.54,0-1.04,0.14-1.5,0.41c-0.91,0.53-1.47,1.52-1.47,2.57s0.57,2.04,1.47,2.57c0.46,0.27,0.97,0.4,1.5,0.41
		C13.9,38.67,14.4,38.53,14.86,38.26z"/>
	<path class="st4" d="M28.74,38.38c0.4-0.23,0.69-0.6,0.87-1.02c0.15-0.36,0.2-0.71,0.15-1.1c-0.07-0.5-0.27-0.83-0.59-1.22
		c-0.38-0.48-0.97-0.73-1.52-0.96c-0.55-0.24-1.06-0.38-1.67-0.22c-0.5,0.14-1.05,0.53-1.29,0.99c-0.58,1.09-0.23,2.28,0.78,2.96
		c0.2,0.14,0.41,0.29,0.62,0.41c0.49,0.3,1.02,0.4,1.58,0.46C27.99,38.71,28.45,38.55,28.74,38.38z"/>
	<path class="st4" d="M16.28,52.81c0-2.57-3.99-2.57-3.99,0C12.28,55.38,16.28,55.38,16.28,52.81z"/>
	<path class="st4" d="M31.45,61.67c0-2-3.11-2-3.11,0C28.34,63.67,31.45,63.67,31.45,61.67z"/>
	<path class="st4" d="M28.21,77.26c0-2.17-3.37-2.17-3.37,0C24.84,79.43,28.21,79.43,28.21,77.26z"/>
	<path class="st4" d="M32.88,80.62c0-2.66-4.14-2.66-4.14,0C28.74,83.28,32.88,83.28,32.88,80.62z"/>
	<path class="st4" d="M11.46,68.09c0-3.86-6-3.86-6,0C5.46,71.95,11.46,71.95,11.46,68.09z"/>
	<path class="st4" d="M44.22,65.95c0-3.46-5.38-3.46-5.38,0C38.84,69.41,44.22,69.41,44.22,65.95z"/>
	<path class="st4" d="M50.92,47.92c0-3.01-4.69-3.02-4.69,0C46.23,50.93,50.92,50.94,50.92,47.92z"/>
	<path class="st4" d="M63.87,49.45c0-3.92-6.1-3.92-6.1,0C57.77,53.37,63.87,53.37,63.87,49.45z"/>
	<path class="st4" d="M66.33,55.56c0-1.97-3.06-1.97-3.06,0C63.27,57.53,66.33,57.53,66.33,55.56z"/>
	<path class="st4" d="M74.57,61.67c0-1.86-1.72-2.6-3.12-2.25c-0.12-3.34-5.37-3.32-5.37,0.11c0,2.15,2.09,2.97,3.66,2.44
		C70.06,64.78,74.57,64.69,74.57,61.67z"/>
	<path class="st4" d="M7.99,48.53c0-2.93-4.57-2.94-4.57,0C3.42,51.47,7.99,51.47,7.99,48.53z"/>
	<path class="st4" d="M32.72,48.56c1.04-0.29,1.95-1.36,1.89-2.48c-0.02-0.3-0.06-0.6-0.11-0.9c-0.12-0.69-0.87-1.44-1.56-1.56
		c-0.3-0.05-0.6-0.09-0.9-0.11c-0.43-0.02-0.92,0.15-1.3,0.35c-0.49,0.26-0.84,0.73-1.05,1.23c-0.38,0.91-0.23,2.11,0.53,2.8
		C30.89,48.51,31.83,48.81,32.72,48.56z"/>
	<path class="st4" d="M46.9,32.64c0-3.36-5.24-3.37-5.24,0C41.67,36,46.9,36.01,46.9,32.64z"/>
	<path class="st4" d="M82.23,64.73c0-3.52-5.48-3.52-5.48,0C76.76,68.25,82.23,68.25,82.23,64.73z"/>
	<path class="st4" d="M73.79,80.01c0-2.5-3.9-2.51-3.9,0C69.89,82.51,73.79,82.52,73.79,80.01z"/>
	<path class="st4" d="M86.53,84.6c0-3.53-5.5-3.54-5.5,0C81.03,88.13,86.53,88.13,86.53,84.6z"/>
	<path class="st4" d="M100.32,80.62c0-1.97-3.06-1.97-3.06,0C97.25,82.59,100.32,82.59,100.32,80.62z"/>
	<path class="st4" d="M107.06,90.71c0-2.37-3.68-2.37-3.68,0C103.37,93.07,107.06,93.08,107.06,90.71z"/>
	<path class="st4" d="M108.57,100.18c0-3.92-6.1-3.92-6.1,0C102.47,104.1,108.57,104.11,108.57,100.18z"/>
	<path class="st4" d="M122.97,120.35v-0.61c0-0.8-0.7-1.57-1.53-1.53c-0.83,0.04-1.53,0.67-1.53,1.53v0.61c0,0.8,0.7,1.57,1.53,1.53
		C122.27,121.84,122.97,121.21,122.97,120.35z"/>
	<path class="st4" d="M114.71,140.22c0-1.97-3.06-1.97-3.06,0C111.64,142.19,114.71,142.19,114.71,140.22z"/>
	<path class="st4" d="M124.74,146.03c0-2.66-4.14-2.66-4.14,0C120.6,148.68,124.74,148.69,124.74,146.03z"/>
	<path class="st4" d="M133.49,150.61c0-4.07-6.34-4.08-6.34,0C127.15,154.68,133.49,154.69,133.49,150.61z"/>
	<path class="st4" d="M111.09,146.33c0-3.57-4.95-3.96-6.03-1.17c-0.39,0.09-0.68,0.45-0.7,0.88c-0.02,0.36-0.05,0.72,0.07,1.07
		c0.09,0.26,0.36,0.45,0.63,0.4C106.15,150.29,111.09,149.91,111.09,146.33z"/>
	<path class="st4" d="M98.58,144.8c0-3.27-5.1-3.28-5.1,0C93.48,148.08,98.58,148.08,98.58,144.8z"/>
	<path class="st4" d="M94.18,132.88c0-3.92-6.1-3.92-6.1,0C88.08,136.8,94.18,136.81,94.18,132.88z"/>
	<path class="st4" d="M119.93,126.16c0-2.78-4.33-2.79-4.33,0C115.6,128.94,119.93,128.95,119.93,126.16z"/>
	<path class="st4" d="M127.49,126.77c0-3.84-5.98-3.85-5.98,0C121.51,130.61,127.49,130.62,127.49,126.77z"/>
	<path class="st4" d="M119.43,98.96c0-4.1-6.39-4.11-6.39,0C113.04,103.06,119.43,103.07,119.43,98.96z"/>
	<path class="st4" d="M102.65,111.8c0-3.78-5.88-3.79-5.88,0C96.76,115.58,102.65,115.58,102.65,111.8z"/>
	<path class="st4" d="M95.82,115.16c0-2.49-3.88-2.49-3.88,0C91.95,117.65,95.82,117.65,95.82,115.16z"/>
	<path class="st4" d="M79.95,109.66c0-3.73-5.81-3.74-5.81,0C74.14,113.39,79.95,113.4,79.95,109.66z"/>
	<path class="st4" d="M76.15,96.21c0-3.96-6.17-3.97-6.17,0C69.98,100.17,76.15,100.18,76.15,96.21z"/>
	<path class="st4" d="M64.67,95.9c0-4.16-6.48-4.17-6.48,0C58.19,100.07,64.67,100.07,64.67,95.9z"/>
	<path class="st4" d="M45.88,90.1c0-2.84-4.43-2.85-4.43,0C41.46,92.94,45.88,92.94,45.88,90.1z"/>
	<path class="st4" d="M53.61,91.32c0-4.12-6.41-4.12-6.41,0C47.2,95.44,53.61,95.44,53.61,91.32z"/>
	<path class="st4" d="M70.66,114.24c0-3.99-6.22-4-6.22,0C64.44,118.24,70.66,118.24,70.66,114.24z"/>
	<path class="st4" d="M78.06,125.24c0-3.66-5.69-3.66-5.69,0C72.36,128.9,78.06,128.91,78.06,125.24z"/>
	<path class="st4" d="M85.46,135.94c0-3.73-5.81-3.74-5.81,0C79.65,139.67,85.46,139.68,85.46,135.94z"/>
	<path class="st4" d="M84.24,144.8c0-3.73-5.81-3.74-5.81,0C78.43,148.54,84.24,148.54,84.24,144.8z"/>
	<path class="st4" d="M89.43,151.53c0-3.72-5.79-3.72-5.79,0C83.64,155.25,89.43,155.25,89.43,151.53z"/>
	<path class="st4" d="M94.68,102.93c0-3.78-5.88-3.79-5.88,0C88.8,106.71,94.68,106.72,94.68,102.93z"/>
	<path class="st4" d="M93.75,65.03c0-3.36-5.24-3.37-5.24,0C88.51,68.4,93.75,68.41,93.75,65.03z"/>
	<path class="st4" d="M17.74,72.98c0-2.87-4.47-2.88-4.47,0C13.27,75.85,17.74,75.86,17.74,72.98z"/>
	<path class="st5" d="M114.59,130.13c0-3-4.66-3-4.66,0C109.92,133.13,114.59,133.13,114.59,130.13z"/>
	<path class="st5" d="M125.53,134.41c0-3.29-5.12-3.29-5.12,0C120.41,137.7,125.53,137.71,125.53,134.41z"/>
	<path class="st5" d="M123.04,141.66c0.59,0.34,1.55,0.07,1.55-0.83c0-0.89-0.96-1.17-1.55-0.83c-0.72-1.08-2.82-0.81-2.82,0.83
		C120.22,142.46,122.32,142.74,123.04,141.66z"/>
	<path class="st5" d="M99.4,139.61c0-1.97-3.06-1.97-3.06,0C96.34,141.57,99.4,141.58,99.4,139.61z"/>
	<path class="st5" d="M109.11,126.77c0-2.64-4.11-2.65-4.11,0C104.99,129.41,109.11,129.42,109.11,126.77z"/>
	<path class="st5" d="M119.6,114.55c0-1.97-3.06-1.97-3.06,0C116.54,116.51,119.6,116.52,119.6,114.55z"/>
	<path class="st5" d="M116.84,107.82c0-3.92-6.1-3.92-6.1,0C110.74,111.74,116.84,111.75,116.84,107.82z"/>
	<path class="st5" d="M99.64,105.68c0-3.86-6-3.86-6,0C93.64,109.54,99.64,109.55,99.64,105.68z"/>
	<path class="st5" d="M111.12,91.62c0-2.87-4.47-2.88-4.47,0C106.65,94.5,111.12,94.5,111.12,91.62z"/>
	<path class="st5" d="M103.7,80.93c0-2.78-4.33-2.79-4.33,0C99.38,83.71,103.7,83.71,103.7,80.93z"/>
	<path class="st5" d="M86.54,80.32c0-3.93-6.12-3.94-6.12,0C80.41,84.25,86.54,84.26,86.54,80.32z"/>
	<path class="st5" d="M79.11,76.34c0-3.44-5.36-3.45-5.36,0C73.75,79.78,79.11,79.79,79.11,76.34z"/>
	<path class="st5" d="M79.38,54.34c0-3-4.66-3-4.66,0C74.71,57.33,79.38,57.34,79.38,54.34z"/>
	<path class="st5" d="M68.01,50.98c0-2.95-4.59-2.95-4.59,0C63.42,53.93,68.01,53.93,68.01,50.98z"/>
	<path class="st5" d="M51.6,54.34c0-3.89-6.05-3.89-6.05,0C45.55,58.23,51.6,58.23,51.6,54.34z"/>
	<path class="st5" d="M44,70.54c0-3.96-6.17-3.97-6.17,0C37.83,74.5,44,74.51,44,70.54z"/>
	<path class="st5" d="M45.51,81.23c0-1.97-3.06-1.97-3.06,0C42.45,83.2,45.51,83.2,45.51,81.23z"/>
	<path class="st5" d="M32.65,79.71c0-1.97-3.06-1.97-3.06,0C29.59,81.67,32.65,81.67,32.65,79.71z"/>
	<path class="st5" d="M20.16,76.18c0.34-0.19,0.59-0.54,0.59-1.06c0-0.25-0.06-0.45-0.16-0.62c-0.01-4.17-6.51-4.17-6.51,0.01
		C14.09,78.03,18.7,78.59,20.16,76.18z"/>
	<path class="st5" d="M8.32,75.73c0-3.75-5.84-3.75-5.84,0C2.48,79.48,8.32,79.49,8.32,75.73z"/>
	<path class="st5" d="M9.26,61.37c0-3.78-5.88-3.79-5.88,0C3.38,65.15,9.26,65.15,9.26,61.37z"/>
	<path class="st5" d="M18.3,51.59c0-2.81-4.38-2.82-4.38,0C13.93,54.4,18.3,54.4,18.3,51.59z"/>
	<path class="st5" d="M20.28,39.42c-0.03-0.09-0.06-0.19-0.09-0.28c-0.27-0.81-1.03-1.5-1.93-1.46c-0.91,0.04-1.64,0.6-1.93,1.46
		c-0.03,0.09-0.06,0.19-0.09,0.28c-0.43,1.3,0.71,2.64,2.02,2.64C19.57,42.06,20.71,40.72,20.28,39.42z"/>
	<path class="st5" d="M18.23,32.94c0-3.1-4.83-3.11-4.83,0C13.39,36.05,18.23,36.05,18.23,32.94z"/>
	<path class="st5" d="M12.75,30.19c0-1.97-3.06-1.97-3.06,0C9.69,32.16,12.75,32.16,12.75,30.19z"/>
	<path class="st5" d="M17.84,27.75c0-2.61-4.07-2.62-4.07,0C13.78,30.36,17.84,30.36,17.84,27.75z"/>
	<path class="st5" d="M35.88,34.33c0.56-0.61,0.61-1.56,0-2.16c-0.1-0.1-0.2-0.2-0.31-0.31c-0.57-0.57-1.61-0.61-2.17,0
		c-0.28,0.3-0.43,0.68-0.44,1.06c-0.02-0.01-0.04-0.01-0.04,0.02c0,0.03,0.02,0.03,0.04,0.02c0,0.38,0.14,0.76,0.44,1.06l0.31,0.31
		C34.28,34.9,35.32,34.94,35.88,34.33z"/>
	<path class="st5" d="M31.44,50.98c0-4.35-6.77-4.36-6.77,0C24.67,55.32,31.44,55.33,31.44,50.98z"/>
	<path class="st5" d="M23.79,64.42c0-2.78-4.33-2.79-4.33,0C19.46,67.2,23.79,67.21,23.79,64.42z"/>
	<path class="st5" d="M58.67,69.92c0-3.53-5.5-3.54-5.5,0c0,0.09,0.02,0.17,0.03,0.25c-0.06-0.78-1.3-0.77-1.3,0.05
		c0,0.83,1.28,0.84,1.3,0.02C53.54,73.44,58.67,73.35,58.67,69.92z"/>
	<path class="st5" d="M67.38,81.23c0-4.44-6.81-4.5-7-0.18c-0.35,0.2-0.6,0.57-0.6,1.1c0,0.87,0.69,1.3,1.37,1.29
		C62.97,85.54,67.38,84.81,67.38,81.23z"/>
	<path class="st5" d="M69.34,113.63c0-4.26-6.63-4.26-6.63,0C62.71,117.89,69.34,117.89,69.34,113.63z"/>
	<path class="st5" d="M90.44,115.77c0-2.96-2.95-4.03-5.07-3.2c-1-3.12-6.4-2.77-6.4,1.06c0,2.58,2.46,3.58,4.36,3
		C84.17,120.37,90.44,120.09,90.44,115.77z"/>
	<path class="st5" d="M98.02,71.76c0-2.95-4.59-2.95-4.59,0C93.43,74.71,98.02,74.71,98.02,71.76z"/>
	<path class="st5" d="M119.98,147.86c0-4.03-6.27-4.03-6.27,0C113.72,151.89,119.98,151.89,119.98,147.86z"/>
	<path class="st5" d="M95.25,136.55c0-3.72-5.79-3.72-5.79,0C89.46,140.27,95.25,140.28,95.25,136.55z"/>
	<path class="st5" d="M110.9,120.35c0-1-1.56-1.01-1.56,0C109.33,121.36,110.9,121.36,110.9,120.35z"/>
	<path class="st5" d="M103.68,117.6c0-1.17-1.82-1.17-1.82,0C101.85,118.77,103.68,118.78,103.68,117.6z"/>
	<path class="st5" d="M94.83,123.72c0-0.04-0.06-0.04-0.06,0C94.77,123.75,94.83,123.75,94.83,123.72z"/>
	<path class="st5" d="M92.35,117.91c0-1.17-1.82-1.17-1.82,0C90.52,119.08,92.35,119.08,92.35,117.91z"/>
	<path class="st5" d="M105.51,97.13c0-1.17-1.82-1.17-1.82,0C103.69,98.3,105.51,98.3,105.51,97.13z"/>
	<path class="st5" d="M89.61,84.9c0-1.19-1.85-1.19-1.85,0C87.75,86.09,89.61,86.09,89.61,84.9z"/>
	<path class="st5" d="M72.75,91.32c0-1.17-1.82-1.17-1.82,0C70.93,92.49,72.75,92.49,72.75,91.32z"/>
	<path class="st5" d="M85.65,86.12c0-0.04-0.06-0.04-0.06,0C85.59,86.16,85.65,86.16,85.65,86.12z"/>
	<path class="st5" d="M93.92,91.01c0-0.04-0.06-0.04-0.06,0C93.86,91.05,93.92,91.05,93.92,91.01z"/>
	<path class="st5" d="M84.69,98.96c0-1.17-1.82-1.17-1.82,0C82.87,100.13,84.69,100.13,84.69,98.96z"/>
	<path class="st5" d="M77.69,92.54c0-0.04-0.06-0.04-0.06,0C77.63,92.58,77.69,92.58,77.69,92.54z"/>
	<path class="st5" d="M90.85,81.84c0-0.04-0.06-0.04-0.06,0C90.79,81.88,90.85,81.88,90.85,81.84z"/>
	<path class="st5" d="M87.18,67.48c0-0.04-0.06-0.04-0.06,0C87.12,67.52,87.18,67.52,87.18,67.48z"/>
	<path class="st5" d="M73.4,60.14c0-0.04-0.06-0.04-0.06,0C73.34,60.18,73.4,60.18,73.4,60.14z"/>
	<path class="st5" d="M57.79,61.98c0-0.04-0.06-0.04-0.06,0C57.73,62.02,57.79,62.02,57.79,61.98z"/>
	<path class="st5" d="M51.05,68.7c0-0.04-0.06-0.04-0.06,0C50.99,68.74,51.05,68.74,51.05,68.7z"/>
	<path class="st5" d="M70.95,60.76c0-0.04-0.06-0.04-0.06,0C70.89,60.8,70.95,60.8,70.95,60.76z"/>
	<path class="st5" d="M75.68,51.26l0.59-0.1c0.49-0.08,0.49-0.91,0-0.99l-0.59-0.1c-0.39-0.06-0.78,0.17-0.78,0.59
		C74.9,51.1,75.29,51.33,75.68,51.26z"/>
	<path class="st5" d="M76.77,48.84c0-0.04-0.06-0.04-0.06,0C76.71,48.88,76.77,48.88,76.77,48.84z"/>
	<path class="st5" d="M56.56,40.89c0-0.04-0.06-0.04-0.06,0C56.5,40.93,56.56,40.93,56.56,40.89z"/>
	<path class="st5" d="M45.85,43.03c0-0.04-0.06-0.04-0.06,0C45.78,43.07,45.85,43.07,45.85,43.03z"/>
	<path class="st5" d="M36.05,44.56c0-0.04-0.06-0.04-0.06,0C35.99,44.6,36.05,44.6,36.05,44.56z"/>
	<path class="st5" d="M30.23,32.94c0-0.04-0.06-0.04-0.06,0C30.17,32.98,30.23,32.98,30.23,32.94z"/>
	<path class="st5" d="M23.8,40.28c0-0.04-0.06-0.04-0.06,0C23.74,40.32,23.8,40.32,23.8,40.28z"/>
	<path class="st5" d="M17.68,54.64c0-0.04-0.06-0.04-0.06,0C17.62,54.68,17.68,54.68,17.68,54.64z"/>
	<path class="st5" d="M38.5,42.72c0-0.04-0.06-0.04-0.06,0C38.44,42.76,38.5,42.76,38.5,42.72z"/>
	<path class="st5" d="M47.07,43.95c0-0.04-0.06-0.04-0.06,0C47.01,43.99,47.07,43.99,47.07,43.95z"/>
	<path class="st5" d="M45.54,44.25c0-0.04-0.06-0.04-0.06,0C45.48,44.29,45.54,44.29,45.54,44.25z"/>
	<path class="st5" d="M33.26,63.81c0-1.17-1.82-1.17-1.82,0C31.43,64.98,33.26,64.99,33.26,63.81z"/>
	<path class="st5" d="M30.23,75.12c0-0.04-0.06-0.04-0.06,0C30.17,75.16,30.23,75.16,30.23,75.12z"/>
	<path class="st5" d="M34.79,84.06c0.1,0,0.1-0.16,0-0.16c-0.2,0-0.41-0.01-0.61-0.01c-0.12,0-0.12,0.19,0,0.19
		C34.38,84.07,34.59,84.07,34.79,84.06z"/>
	<path class="st5" d="M27.17,80.01c0-0.04-0.06-0.04-0.06,0C27.11,80.05,27.17,80.05,27.17,80.01z"/>
	<path class="st5" d="M19.51,65.65c0-0.04-0.06-0.04-0.06,0C19.45,65.69,19.51,65.69,19.51,65.65z"/>
	<path class="st5" d="M13.97,54.34c0-1.17-1.82-1.17-1.82,0C12.14,55.51,13.97,55.51,13.97,54.34z"/>
	<path class="st5" d="M11.55,48.84c0-0.04-0.06-0.04-0.06,0C11.49,48.88,11.55,48.88,11.55,48.84z"/>
	<path class="st5" d="M9.07,39.36c0-1.17-1.82-1.17-1.82,0C7.24,40.53,9.07,40.53,9.07,39.36z"/>
	<path class="st5" d="M2.98,33.86c0-0.04-0.06-0.04-0.06,0C2.92,33.9,2.98,33.9,2.98,33.86z"/>
	<path class="st5" d="M3.9,28.05c0-0.04-0.06-0.04-0.06,0C3.84,28.09,3.9,28.09,3.9,28.05z"/>
	<path class="st5" d="M10.9,27.75c0-1.17-1.82-1.17-1.82,0C9.08,28.92,10.9,28.92,10.9,27.75z"/>
	<path class="st5" d="M30.23,36.31c0-0.04-0.06-0.04-0.06,0C30.17,36.35,30.23,36.35,30.23,36.31z"/>
	<path class="st5" d="M37.57,34.8c0.03-0.03-0.02-0.07-0.04-0.04c-0.2,0.2-0.41,0.41-0.61,0.61c-0.03,0.03,0.02,0.07,0.04,0.04
		L37.57,34.8z"/>
	<path class="st5" d="M44.93,53.12c0-0.04-0.06-0.04-0.06,0C44.87,53.15,44.93,53.15,44.93,53.12z"/>
	<path class="st5" d="M70.86,92.85c0-0.7-1.09-0.7-1.09,0C69.76,93.55,70.86,93.55,70.86,92.85z"/>
	<path class="st5" d="M60.54,101.71c0-0.04-0.06-0.04-0.06,0C60.48,101.75,60.54,101.75,60.54,101.71z"/>
	<path class="st5" d="M61.77,101.4c0-0.04-0.06-0.04-0.06,0C61.71,101.44,61.77,101.44,61.77,101.4z"/>
	<path class="st5" d="M65.98,105.07c0-0.73-1.13-0.73-1.13,0C64.84,105.8,65.98,105.8,65.98,105.07z"/>
	<path class="st5" d="M82.09,95.45c0.28-0.14,0.56-0.29,0.85-0.43c0.33-0.17,0.45-0.61,0.31-0.93c-0.16-0.36-0.5-0.5-0.88-0.43
		c-0.32,0.06-0.64,0.11-0.96,0.17c-0.53,0.09-0.76,0.75-0.58,1.2C81.04,95.53,81.61,95.69,82.09,95.45z"/>
	<path class="st5" d="M90.24,89.18c0-0.04-0.06-0.04-0.06,0C90.18,89.22,90.24,89.22,90.24,89.18z"/>
	<path class="st5" d="M100.61,94.68c0-1.17-1.82-1.17-1.82,0C98.79,95.85,100.61,95.85,100.61,94.68z"/>
	<path class="st5" d="M89.02,87.35c0-0.04-0.06-0.04-0.06,0C88.96,87.39,89.02,87.39,89.02,87.35z"/>
	<path class="st5" d="M98.04,100.18c0-0.62-0.96-0.62-0.96,0C97.08,100.8,98.04,100.8,98.04,100.18z"/>
	<path class="st5" d="M102.77,122.8c0-1.59-2.47-1.59-2.47,0C100.31,124.38,102.77,124.39,102.77,122.8z"/>
	<path class="st5" d="M99.7,135.63c0-1.17-1.82-1.17-1.82,0C97.87,136.81,99.7,136.81,99.7,135.63z"/>
	<path class="st5" d="M107.69,144.8c0-0.04-0.06-0.04-0.06,0C107.63,144.84,107.69,144.84,107.69,144.8z"/>
	<path class="st5" d="M128.21,136.55c0-0.04-0.06-0.04-0.06,0C128.15,136.59,128.21,136.59,128.21,136.55z"/>
	<path class="st5" d="M129.74,132.58c0-0.04-0.06-0.04-0.06,0C129.68,132.62,129.74,132.62,129.74,132.58z"/>
	<path class="st4" d="M91.15,143.58c0-1.21-1.88-1.21-1.88,0C89.27,144.79,91.15,144.79,91.15,143.58z"/>
	<path class="st4" d="M100.93,141.14c0-1.58-2.45-1.58-2.45,0C98.48,142.71,100.93,142.71,100.93,141.14z"/>
	<path class="st4" d="M109.2,136.86c0-1.17-1.34-1.47-2.05-0.92c0.1-0.17,0.17-0.37,0.17-0.61c0-1.53-2.38-1.53-2.38,0
		c0,1.13,1.29,1.42,1.97,0.89c-0.11,0.17-0.18,0.38-0.18,0.64C106.74,138.44,109.2,138.45,109.2,136.86z"/>
	<path class="st4" d="M104.38,127.69c0-1.29-2.01-1.29-2.01,0C102.37,128.98,104.38,128.98,104.38,127.69z"/>
	<path class="st4" d="M90.24,120.35c0-0.04-0.06-0.04-0.06,0C90.18,120.39,90.24,120.39,90.24,120.35z"/>
	<path class="st4" d="M111.35,109.96c0-0.41-0.65-0.42-0.65,0C110.71,110.38,111.35,110.38,111.35,109.96z"/>
	<path class="st4" d="M106.45,78.51c0.04-0.02,0-0.07-0.03-0.05c-0.2,0.1-0.41,0.2-0.61,0.31c-0.04,0.02,0,0.07,0.03,0.05
		C106.05,78.71,106.25,78.61,106.45,78.51z"/>
	<path class="st4" d="M103.1,74.19c-0.2-0.31-0.41-0.61-0.61-0.92c-0.02-0.03-0.07,0-0.05,0.03c0.2,0.31,0.41,0.61,0.61,0.92
		C103.07,74.25,103.12,74.22,103.1,74.19z"/>
	<path class="st4" d="M92.69,61.06c0-0.04-0.06-0.04-0.06,0C92.63,61.1,92.69,61.1,92.69,61.06z"/>
	<path class="st4" d="M84.41,53.7l-1.84-0.92c-0.04-0.02-0.07,0.04-0.03,0.05l1.84,0.92C84.41,53.77,84.44,53.72,84.41,53.7z"/>
	<path class="st4" d="M103.41,72.06c0-0.04-0.06-0.04-0.06,0C103.35,72.1,103.41,72.1,103.41,72.06z"/>
	<path class="st4" d="M107.69,77.87c0-0.04-0.06-0.04-0.06,0C107.63,77.91,107.69,77.91,107.69,77.87z"/>
	<path class="st4" d="M110.86,83.98c0-0.96-1.49-0.96-1.49,0C109.37,84.94,110.86,84.94,110.86,83.98z"/>
	<path class="st4" d="M98.24,71.45c0-1.66-2.58-1.66-2.58,0C95.66,73.11,98.24,73.12,98.24,71.45z"/>
	<path class="st4" d="M98.69,66.96c0.09-0.62,0-1.15-0.53-1.56c-0.7-0.54-1.73-0.35-2.18,0.42c-0.42,0.71-0.14,1.59,0.53,2.03
		C97.24,68.32,98.55,67.89,98.69,66.96z"/>
	<path class="st4" d="M87.7,58.25c0.53-0.49,0.46-1.59-0.25-1.9c-0.48-0.21-0.92-0.23-1.35,0.09c-0.57,0.44-0.64,1.29-0.12,1.81
		C86.46,58.73,87.22,58.69,87.7,58.25z"/>
	<path class="st4" d="M78.27,51.89c0-1.58-2.45-1.58-2.45,0C75.82,53.47,78.27,53.47,78.27,51.89z"/>
	<path class="st4" d="M68.12,45.17c0-1.12-1.75-1.13-1.75,0C66.37,46.29,68.12,46.3,68.12,45.17z"/>
	<path class="st4" d="M55.82,36.92c0-0.75-0.66-1.47-1.44-1.43c-0.78,0.03-1.44,0.63-1.44,1.43c0,0.75,0.66,1.47,1.44,1.43
		C55.17,38.32,55.82,37.72,55.82,36.92z"/>
	<path class="st4" d="M51.01,36.51c0.45-0.22,0.83-0.58,0.83-1.12c0-0.85-0.96-1.4-1.7-0.97c-0.69,0.4-0.78,1.56,0,1.94
		C50.45,36.51,50.67,36.67,51.01,36.51z"/>
	<path class="st4" d="M45.2,39.97c0-1.96-3.06-1.97-3.06,0C42.14,41.94,45.2,41.94,45.2,39.97z"/>
	<path class="st4" d="M38.46,31.72c0-1.57-2.44-1.57-2.44,0C36.02,33.29,38.46,33.29,38.46,31.72z"/>
	<path class="st4" d="M29.85,27.14c0-1.51-2.35-1.51-2.35,0C27.49,28.65,29.85,28.65,29.85,27.14z"/>
	<path class="st4" d="M24.19,28.36c0-1.71-2.67-1.72-2.67,0C21.52,30.07,24.19,30.08,24.19,28.36z"/>
	<path class="st4" d="M18.22,26.22c0-1.12-1.75-1.13-1.75,0C16.47,27.34,18.22,27.35,18.22,26.22z"/>
	<path class="st4" d="M12.96,61.98c0-1.46-2.27-1.46-2.27,0C10.7,63.44,12.96,63.44,12.96,61.98z"/>
	<path class="st4" d="M15.16,74.81c0-1.53-2.38-1.53-2.38,0C12.78,76.35,15.16,76.35,15.16,74.81z"/>
	<path class="st4" d="M32.06,82.15c0-1.6-2.5-1.61-2.5,0C29.56,83.75,32.06,83.76,32.06,82.15z"/>
	<path class="st4" d="M38.81,89.49c0-1.62-2.53-1.63-2.53,0C36.29,91.11,38.81,91.11,38.81,89.49z"/>
	<path class="st4" d="M47.43,94.99c0-1.68-2.61-1.68-2.61,0C44.82,96.66,47.43,96.67,47.43,94.99z"/>
	<path class="st4" d="M54.76,78.79c0-2.06-3.2-2.06-3.2,0C51.56,80.84,54.76,80.85,54.76,78.79z"/>
	<path class="st4" d="M54.13,74.51c0-2.03-3.16-2.03-3.16,0C50.97,76.54,54.13,76.54,54.13,74.51z"/>
	<path class="st4" d="M49.75,59.97c0.48-0.2,0.81-0.63,0.88-1.15c0.08-0.6-0.2-1.14-0.71-1.47c-0.02-0.01-0.04-0.02-0.05-0.04
		c0.02,0.01-0.06-0.05-0.24-0.18c-0.11-0.06-0.21-0.1-0.32-0.13c-0.43-0.23-0.91-0.02-1.16,0.35c-0.22,0.25-0.29,0.58-0.4,0.89
		c-0.17,0.47,0.04,1.09,0.38,1.44C48.56,60.08,49.21,60.19,49.75,59.97z"/>
	<path class="st4" d="M37.71,53.73c0-0.88-0.78-1.73-1.69-1.69c-0.92,0.04-1.69,0.74-1.69,1.69c0,0.88,0.78,1.73,1.69,1.69
		C36.94,55.38,37.71,54.67,37.71,53.73z"/>
	<path class="st4" d="M42.77,45.78c0-1.98-3.09-1.99-3.09,0C39.68,47.76,42.77,47.77,42.77,45.78z"/>
	<path class="st4" d="M68.24,111.49c0-2.06-3.2-2.06-3.2,0C65.04,113.55,68.24,113.55,68.24,111.49z"/>
	<path class="st4" d="M70.22,128.61c0-1.85-2.88-1.86-2.88,0C67.34,130.46,70.22,130.46,70.22,128.61z"/>
	<path class="st4" d="M83.15,149.69c0-1.95-3.03-1.95-3.03,0C80.12,151.64,83.15,151.64,83.15,149.69z"/>
	<path class="st4" d="M103.35,153.06c0-1.94-3.01-1.94-3.01,0C100.34,154.99,103.35,154.99,103.35,153.06z"/>
	<path class="st4" d="M113.08,152.75c0-1.84-2.87-1.85-2.87,0C110.21,154.59,113.08,154.6,113.08,152.75z"/>
</g>
</svg>
