<?xml version="1.0" encoding="utf-8"?>
<!-- Generator: Adobe Illustrator 25.2.3, SVG Export Plug-In . SVG Version: 6.00 Build 0)  -->
<svg version="1.1" id="Layer_1" xmlns="http://www.w3.org/2000/svg" xmlns:xlink="http://www.w3.org/1999/xlink" x="0px" y="0px"
	 viewBox="0 0 156 104" style="enable-background:new 0 0 156 104;" xml:space="preserve">
<style type="text/css">
	.st0{fill:#967635;}
	.st1{fill:#896B30;}
	.st2{fill:#725928;}
	.st3{fill:#B58F41;}
	.st4{fill:#7F6F6A;}
	.st5{fill:#5B411A;}
</style>
<g>
	<path class="st0" d="M140.9,91.5c0.01,0.06,0.01,0.11,0,0.16v0.01c-0.01,0.13-0.04,0.26-0.09,0.36c-0.02,0.03-0.04,0.08-0.06,0.1
		c-0.04,0.06-0.09,0.12-0.15,0.17c-0.04,0.03-0.08,0.07-0.14,0.1c-0.15,0.1-0.34,0.16-0.54,0.19c-0.05,0.06-0.1,0.11-0.15,0.16
		c-0.15,0.17-0.35,0.27-0.57,0.31c-0.28,0.05-0.58,0.01-0.84-0.09c-0.26,0.17-0.6,0.26-0.99,0.19C116.89,89.76,96.24,88.9,75.47,90
		c-10.36,0.55-20.55,0.46-30.92,0.17c-10.02-0.28-19.77,0.41-29.44,2.93c-0.88,0.23-1.48-0.34-1.57-0.97
		c-0.78-0.29-1.17-1.39-0.38-2.01c-0.51-11.84-1.12-23.83-0.47-35.67c0.32-5.79,0.95-11.53,0.95-17.33
		c0.01-5.99-0.31-11.98-0.63-17.97c-0.03-0.66,0.43-1.02,0.98-1.1c8.41-5.05,17.51-9.1,27.09-12.02c17.1-5.22,35.56-6.9,53.47-4.87
		c0.01,0,0.03,0.01,0.04,0.01c8.83,1,17.53,2.88,25.87,5.71c2.44,0.83,4.89,1.73,7.23,2.78c1.42,0.64,2.81,1.33,4.13,2.11
		c3.33,1.93,6.27,4.34,8.42,7.51c0.15,0.23,0.21,0.45,0.19,0.65c-0.02,0.24-0.14,0.46-0.32,0.64c-0.21,1.82-0.35,3.64-0.43,5.45
		c-0.06,1.06-0.1,2.12-0.12,3.17c-0.04,1.87-0.04,3.74,0,5.6c0.14,6.87,0.7,13.74,1.01,20.62c0.06,1.25,0.1,2.49,0.12,3.74
		c0.06,3.35,0.02,6.69-0.05,10.05c-0.01,0.79-0.03,1.58-0.05,2.37c-0.09,4.3-0.17,8.61-0.07,12.91c0.04,1.42,0.09,2.83,0.17,4.25
		C140.75,89.64,140.82,90.57,140.9,91.5z"/>
	<path class="st1" d="M140.9,91.66L140.9,91.66c0.01,0.21-0.02,0.38-0.09,0.53l-0.02-0.02c-0.01-0.01-0.03-0.03-0.05-0.04
		c-0.54-0.52-1.09-1.03-1.66-1.52c-2.8-2.47-5.84-4.63-9.07-6.46c-1.58-0.9-3.2-1.73-4.87-2.48c-0.15-0.07-0.3-0.14-0.44-0.2
		c-1.07-0.5-2.18-0.93-3.28-1.37c-3.12-1.24-6.22-2.48-9.48-3.39c-4.25-1.19-8.47-1.98-12.79-2.63c-0.53-0.3-1.17-0.47-1.87-0.46
		c-0.29,0.01-0.56,0.03-0.82,0.08c-0.17-0.03-0.35-0.05-0.53-0.08c-0.34-0.05-0.64,0-0.91,0.1v-0.01c-0.04-0.12-0.08-0.23-0.11-0.35
		c-0.01-0.06-0.03-0.11-0.05-0.17c-0.02-0.06-0.03-0.12-0.05-0.17c-0.33-0.56-0.57-1.21-0.72-1.94c-0.34-1.81,0.26-3.5,1.46-4.76
		c-1.51-2.28-2.08-5.52-2.64-7.82c-0.83-3.4-1.39-6.9-1.52-10.38c-0.05-1.11-0.1-2.36-0.12-3.66c-0.25-0.92-0.19-1.82,0.03-2.7
		c0.11-2.46,0.48-4.95,1.43-7.08c-0.34-1.39-0.52-2.81-0.7-4.09c-0.14-1.07-0.24-2.15-0.28-3.23c-0.51-0.6-0.95-1.23-1.02-1.94
		c-0.18-1.68,1.29-3.35,1.71-4.92c0.08-0.27,0.14-0.53,0.19-0.8c-0.22-1.49-0.21-3.05,0.05-4.57c-0.1-0.61-0.23-1.22-0.39-1.85
		c-0.35-1.38-0.66-2.44,0.08-3.76c0.59-1.04,1.24-1.45,1.66-2.31c-0.02-0.67,0.17-1.44,0.42-2.14c-0.01-0.48-0.07-0.97-0.1-1.45
		c0-0.06-0.01-0.11-0.01-0.16c-0.01-0.17-0.01-0.35,0-0.52c0.03-0.53,0.1-1.08,0.24-1.62c8.83,1,17.53,2.88,25.87,5.71
		c2.38,0.81,4.78,1.69,7.08,2.71c1.46,0.65,2.89,1.36,4.25,2.15c3.35,1.94,6.29,4.35,8.45,7.53c0.12,0.16,0.17,0.33,0.19,0.49
		c0.03,0.31-0.1,0.59-0.32,0.8c-0.2,1.76-0.34,3.53-0.43,5.29c-0.05,1.06-0.09,2.12-0.12,3.17c-0.04,1.87-0.04,3.74,0,5.6
		c0.12,6.93,0.7,13.85,1.01,20.78c0.05,1.19,0.09,2.38,0.12,3.57c0.06,3.35,0.02,6.69-0.05,10.05c-0.01,0.79-0.03,1.58-0.05,2.37
		c-0.09,4.3-0.17,8.61-0.07,12.91c0.03,1.42,0.08,2.84,0.17,4.27c0.05,0.96,0.12,1.92,0.2,2.88C140.9,91.63,140.9,91.64,140.9,91.66
		z"/>
	<path class="st2" d="M140.7,88.71c-0.08-1.42-0.14-2.84-0.17-4.25c-0.1-4.3-0.02-8.61,0.07-12.91c0.01-0.79,0.03-1.58,0.05-2.37
		c0.06-3.35,0.11-6.7,0.05-10.05c-0.02-1.25-0.06-2.49-0.12-3.74c-0.32-6.88-0.88-13.75-1.01-20.62c-0.04-1.86-0.04-3.73,0-5.6
		c0.03-1.06,0.06-2.12,0.12-3.17c0.1-1.76,0.23-3.53,0.43-5.29c0.22-0.21,0.35-0.49,0.32-0.8c0.02-0.2-0.03-0.42-0.19-0.65
		c-2.15-3.17-5.09-5.58-8.42-7.51c-1.31-0.77-2.7-1.47-4.13-2.11c-0.05,0.03-0.1,0.06-0.15,0.1c-0.37,0.25-0.73,0.52-1.06,0.82
		c-0.23,0.21-0.44,0.42-0.65,0.65c-1.57,1.67-2.58,3.73-2.55,5.95c0.03,2.36,1.53,4.22,1.91,6.45c0.35,2.04-1.51,2.95-2.72,4.57
		c-1.45,1.93-1.98,4.02-1.67,6.33c0.32,2.38,1.14,4.65,2.2,6.84c0.55,1.15,1.17,2.27,1.9,3.34c0.43,0.63,2.08,2.16,2.02,2.92
		c-0.03,0.33-1.51,1.54-1.79,1.96c-0.67,1.02-1.06,2.13-1.17,3.31c-0.1,1.08,0.05,2.14,0.3,3.2c0.19,0.81,0.98,2.17,0.83,2.99
		c-0.12,0.69-0.89,1.18-1.29,1.79c-0.64,0.96-1.11,2.21-1.08,3.34c0.03,0.88,0.43,2.77,1.37,3.31c-1.77,1.47-2.06,3.9-1.33,5.88
		c0.82,2.22,2.74,3.4,1.86,5.89c-0.12,0.32-0.15,0.69-0.13,1.05c-1.52-0.48-3.04-0.96-4.56-1.44c-0.17-0.18-0.41-0.33-0.73-0.41
		c-0.14-0.05-0.29-0.08-0.45-0.12c-0.8-0.21-1.6-0.42-2.4-0.61c-1.05-0.34-2.1-0.67-3.14-1.01c-0.34-0.11-0.69-0.07-1,0.07
		c-13.74-3.54-28.12-3.33-42.25-2.24c-13.55,1.04-26.79,3.23-38.91,9c-0.11,0.05-0.2,0.12-0.28,0.19c-2.13,0.72-4.25,1.5-6.35,2.3
		c-0.01,0-0.02,0-0.02,0.01c0,0,0,0,0,0c-0.11,0.04-0.23,0.08-0.34,0.13c-0.34,0.13-0.54,0.34-0.64,0.59
		c-1.63,0.6-3.26,1.21-4.91,1.79c-1.52,0.54-1.02,2.65,0.41,2.47c0.17,0.06,0.35,0.09,0.56,0.07c13.12-1.55,26.59-2.02,39.81-2.19
		c0.48-0.01,0.85-0.17,1.11-0.4c4.16,0.4,8.42,0.38,12.58,0.66c5.13,0.35,10.32,0.78,15.46,0.26c1.98-0.2,2.08-2.96,0-2.86
		c-5.19,0.26-10.28,0.06-15.46-0.28c-4.12-0.27-8.6-0.76-12.72-0.03c-0.25-0.17-0.57-0.28-0.97-0.29
		c-5.98-0.11-11.96-0.2-17.94-0.27c-2.64-0.03-5.24,0.12-7.82,0.31c0.07-0.06,0.14-0.13,0.19-0.19c1.55-0.56,3.09-1.11,4.64-1.69
		c0.15-0.06,0.28-0.13,0.39-0.21c0.43-0.12,0.85-0.25,1.28-0.37c2.54,0.56,5.06,1.08,7.69,1.02c3.3-0.07,6.56-0.6,9.86-0.64
		c5.73-0.07,12.62,1.3,18.1-0.55c0.64-0.22,0.56-1.07-0.16-1.09c-3.16-0.11-6.35,0.3-9.53,0.23c-2.8-0.06-5.6-0.22-8.41-0.18
		c-5.45,0.08-10.87,0.69-16.32,0.84c2.03-0.6,4.07-1.19,6.1-1.79c0.6-0.17,0.91-0.56,1-0.99c7.44-1.65,15.17-2.43,22.73-2.95
		c13.79-0.95,27.81-1.02,41.18,2.59c0.34,0.09,0.64,0.09,0.91,0.02c1.03,0.48,2.17,0.58,3.4,0.75c3.17,1.08,6.33,2.18,9.5,3.25
		c1.29,0.44,2.88,0.83,4.34,1.38c1.51,0.93,2.92,1.99,4.25,3.13c0.46,0.56,0.94,1.11,1.63,1.58c0.09,0.06,0.18,0.1,0.27,0.14
		c0.92,0.89,1.81,1.81,2.66,2.75c0.22-0.05,0.42-0.15,0.57-0.31c0.05-0.05,0.1-0.1,0.15-0.16c0.2-0.02,0.39-0.09,0.54-0.19
		c0.05-0.03,0.1-0.06,0.14-0.1c0.06-0.05,0.11-0.11,0.15-0.17c0.02,0.01,0.03,0.03,0.05,0.04l0.02,0.02
		c0.07-0.15,0.1-0.32,0.09-0.52v-0.01c0.01-0.05,0.01-0.1,0-0.16C140.82,90.57,140.75,89.64,140.7,88.71z"/>
	<path class="st2" d="M115.1,83.42c-4.53-0.55-9.08-0.48-13.62-0.81c-4.67-0.33-9.27-1.17-13.93-0.34c-0.5,0.09-0.4,0.85,0.12,0.81
		c9.12-0.63,18.21,1.26,27.38,0.67C115.25,83.74,115.33,83.45,115.1,83.42z"/>
	<path class="st3" d="M28.38,13.43c-0.15-0.63-1.32-0.66-1.44,0c-0.85,4.48-0.1,9.42-0.08,13.96c0.03,4.98,0,9.96,0.32,14.93
		c0.05,0.7,1.14,0.7,1.21,0c0.46-4.97,0.49-9.95,0.46-14.93C28.83,22.88,29.43,17.85,28.38,13.43z"/>
	<path class="st3" d="M28.53,66.55c-0.13-1.93-0.3-3.85-0.45-5.77c0.15-0.15,0.23-0.35,0.17-0.6c-0.2-0.88-0.16-1.89-0.22-2.79
		c-0.04-0.73-0.19-1.39-0.33-2.09c-0.11-0.97-0.29-1.92-0.65-2.83c-0.12-0.31-0.67-0.36-0.76,0c-0.56,2.22-0.17,4.56-0.05,6.81
		c0.13,2.43,0.22,4.85,0.36,7.28c0.3,5.1,0.66,10.19,0.77,15.3c0.03,1.15,2.01,1.16,1.99,0C29.29,76.74,28.88,71.64,28.53,66.55z"/>
	<path class="st3" d="M46.12,59.57c-0.1-2.44,0.17-4.92-0.26-7.33c-0.06-0.31-0.59-0.28-0.67,0c-0.67,2.5-0.6,5.32-0.56,7.88
		c0.04,2.62-0.19,5.4,0.35,7.98c0.17,0.82,1.49,0.57,1.54-0.19C46.71,65.19,46.24,62.32,46.12,59.57z"/>
	<path class="st3" d="M62.63,72.54c-1.06-5.03-0.66-10.53-0.84-15.64c-0.16-4.33,0.62-9.14-0.52-13.37c-0.1-0.36-0.73-0.37-0.82,0
		c-1.08,4.59-0.07,9.85-0.1,14.51c-0.03,4.83-0.78,10.27,0.17,15.03C60.77,74.31,62.9,73.78,62.63,72.54z"/>
	<path class="st3" d="M76.67,68.78c-1.13-3.7-0.1-7.59-0.84-11.37c-0.06-0.3-0.5-0.18-0.53,0.07c-0.34,2.43,0,4.73,0.15,7.15
		c0.08,1.41-0.49,3.24,0.34,4.48C76.07,69.53,76.82,69.26,76.67,68.78z"/>
	<path class="st3" d="M92.14,53.4c-0.21-0.4-0.96-0.4-1.17,0c-0.34,0.66-0.43,1.38-0.39,2.11c0.03,0.51,0.21,1.47,0.97,1.47
		c0.72,0,0.93-0.87,0.97-1.36C92.58,54.86,92.5,54.08,92.14,53.4z"/>
	<path class="st3" d="M93.3,65.9c-0.21-1.88-0.29-3.78-0.99-5.57c-0.15-0.38-0.83-0.46-0.95,0c-0.86,3.5,0.12,8.72,1.47,12.04
		c0.23,0.57,1.24,0.52,1.23-0.15C94.03,70.12,93.53,68,93.3,65.9z"/>
	<path class="st3" d="M77.56,45.8c0.03-1.79,0.06-3.41-0.38-5.16c-0.08-0.3-0.55-0.27-0.64,0c-0.58,1.73-0.64,3.35-0.69,5.16
		c-0.04,1.52-0.35,3.13,0.51,4.5c0.12,0.19,0.43,0.18,0.55,0C77.79,48.94,77.53,47.32,77.56,45.8z"/>
	<path class="st3" d="M78.01,31.32c-0.56-1.66-0.21-3.89-0.27-5.63c-0.08-2.05-0.15-4.09-0.21-6.14c-0.09-3,0.64-6.9-0.89-9.62
		c-0.09-0.15-0.39-0.17-0.47,0c-1.5,3.01-0.44,7.49-0.38,10.73c0.04,2.05,0.07,4.1,0.1,6.14c0.02,1.59-0.29,3.45,0.19,4.99
		C76.42,32.92,78.38,32.44,78.01,31.32z"/>
	<path class="st3" d="M91.52,12.63c-0.22-2.97-0.37-6.01-1.23-8.89c-0.08-0.27-0.6-0.31-0.66,0c-0.48,2.93-0.28,5.94-0.12,8.89
		c0.15,2.91,0.03,6.16,1.01,8.94c0.16,0.45,0.99,0.53,1.11,0C92.24,18.72,91.73,15.52,91.52,12.63z"/>
	<path class="st3" d="M90.92,28.91c-0.02-0.38-0.65-0.39-0.66,0c-0.05,1.09-0.33,2.5,0.07,3.55c0.09,0.23,0.44,0.23,0.52,0
		C91.25,31.41,90.97,30,90.92,28.91z"/>
	<path class="st3" d="M59.63,4.83c-0.03-0.35-0.57-0.35-0.6,0c-0.04,0.4-0.2,0.93,0.07,1.28c0.12,0.15,0.34,0.15,0.46,0
		C59.83,5.77,59.67,5.23,59.63,4.83z"/>
	<path class="st3" d="M61.26,14.99c-0.01-1.89-0.02-3.88-0.98-5.59l-0.01,0.01c-0.18-0.23-0.64-0.26-0.71,0.08
		c-0.47,2.2,0,4.53-0.16,6.76c-0.11,1.62-0.81,3.49,0.55,4.77c0.32,0.3,0.83,0.12,0.97-0.23C61.58,19.18,61.26,16.7,61.26,14.99z"/>
	<path class="st3" d="M45.57,20.96c-0.19-0.33-0.68-0.19-0.8,0.09c-1.36,3.13-0.21,7.66-0.08,10.98c0.16,4.1-0.37,8.16-0.18,12.24
		c0.04,0.8,1.46,0.78,1.37,0c-0.45-4.27,0.03-8.53,0.32-12.79C46.41,28.31,47.2,23.86,45.57,20.96z"/>
	<path class="st0" d="M107.29,19.03c-0.21-2.53,0.26-5.28-1.05-7.59c-0.15-0.27-0.61-0.19-0.69,0.08c-0.8,2.55,0.1,5.43,0.06,8.08
		c-0.06,3.25,0.09,6.47-0.03,9.73c-0.11,3.06-0.08,6.11-0.22,9.17c-0.13,2.88-0.49,5.93,0.01,8.77c0.15,0.83,1.39,0.5,1.48-0.18
		c0.43-2.97,0.08-6.16,0.1-9.17c0.03-3.25,0.34-6.49,0.35-9.74C107.31,25.11,107.54,22.09,107.29,19.03z"/>
	<path class="st0" d="M106.13,53.92c-0.21-0.47-1.04-0.58-1.19,0c-0.22,0.8-0.29,1.57-0.35,2.39c-0.06,0.72-0.19,1.54,0.29,2.17
		c0.22,0.29,0.59,0.31,0.88,0.1C107.06,57.62,106.68,55.15,106.13,53.92z"/>
	<path class="st0" d="M122.13,33.21c-0.1-2.63-0.24-5.27-0.29-7.9c-0.11-5.11,0.81-10.99-0.65-15.94c-0.13-0.45-0.88-0.45-1.02,0
		c-1.46,4.91-0.43,10.88-0.29,15.94c0.08,2.63,0.11,5.27,0.21,7.9c0.1,2.66-0.09,5.49,0.79,8.05c0.17,0.49,1.05,0.56,1.18,0
		C122.67,38.64,122.24,35.87,122.13,33.21z"/>
	<path class="st0" d="M120.8,72.71c-0.04-2.28-0.26-4.49-0.58-6.75c-0.08-0.54-0.94-0.58-0.97,0c-0.1,2.26-0.16,4.49-0.12,6.75
		c0.03,1.7-0.27,3.55,0.62,5.08c0.1,0.16,0.39,0.16,0.48,0C121.15,76.26,120.83,74.41,120.8,72.71z"/>
	<path class="st4" d="M136.11,23.08c-0.77,0-0.77,1.07,0,1.07C136.88,24.15,136.88,23.08,136.11,23.08z"/>
	<path class="st4" d="M134.5,26.79c-0.02,0-0.02,0.03,0,0.03C134.52,26.82,134.52,26.79,134.5,26.79z"/>
	<path class="st4" d="M132.88,23.3c-0.04,0-0.04,0.06,0,0.06C132.93,23.35,132.93,23.3,132.88,23.3z"/>
	<path class="st4" d="M131.27,19.25c-0.86,0-0.86,1.2,0,1.2C132.13,20.44,132.13,19.25,131.27,19.25z"/>
	<path class="st4" d="M134.5,23.33c-1.23,0-1.24,1.73,0,1.73C135.73,25.06,135.73,23.33,134.5,23.33z"/>
	<path class="st4" d="M134.59,28.57c-0.02-0.24-0.14-0.46-0.02-0.72c0.14-0.31-0.15-0.69-0.49-0.77c-0.39-0.1-0.72,0.12-0.85,0.44
		c-0.21,0.49-0.15,1.2,0.32,1.54l-0.01,0c0,0,0.01,0,0.01,0.01c0.03,0.02,0.06,0.04,0.09,0.05c0.14,0.09,0.26,0.15,0.45,0.15
		c0.21,0,0.46-0.15,0.51-0.35C134.62,28.8,134.61,28.69,134.59,28.57z"/>
	<path class="st4" d="M133.85,30.15c-1.02,0-1.02,1.43,0,1.43C134.87,31.58,134.87,30.15,133.85,30.15z"/>
	<path class="st4" d="M135.5,34.89c-0.31-0.28-0.65-0.5-1.01-0.73c-0.01-0.01-0.03-0.01-0.04-0.01c0.04-0.46-0.26-0.95-0.92-0.95
		c-1.23,0-1.24,1.73,0,1.73c0.05,0,0.1-0.01,0.15-0.01c0.05,0.07,0.11,0.14,0.2,0.19c0.38,0.21,0.73,0.39,1.14,0.53
		C135.5,35.79,135.82,35.18,135.5,34.89z"/>
	<path class="st4" d="M136.67,39.6c-0.02-0.13-0.08-0.24-0.15-0.36c0.11-0.14,0.15-0.32,0.03-0.49c-0.08-0.11-0.16-0.22-0.24-0.33
		c-0.21-0.3-0.68-0.37-0.97-0.11c-0.21,0.19-0.22,0.47-0.08,0.68c-0.1,0.17-0.11,0.38-0.01,0.57c0.01,0.01,0.01,0.02,0.02,0.04
		c-0.13,0.02-0.24,0.06-0.34,0.12c-0.01-0.05-0.03-0.1-0.07-0.15c-0.27-0.38-0.63-0.63-1.11-0.78c-0.46-0.14-0.99,0.16-1.11,0.57
		c-0.14,0.44,0.17,0.86,0.63,1c0.41,0.12,0.87,0.1,1.24-0.03c0.01,0,0.01-0.01,0.02-0.01c-0.06,0.47,0.24,0.98,0.91,0.98
		c0.72,0,1.02-0.59,0.9-1.08C136.58,40.1,136.72,39.86,136.67,39.6z"/>
	<path class="st4" d="M136.3,42.59c-0.06-0.02-0.11-0.05-0.17-0.07c-0.46-0.18-1.02,0.03-1.02,0.53s0.57,0.71,1.02,0.53
		c0.06-0.02,0.11-0.05,0.17-0.07C136.69,43.35,136.69,42.74,136.3,42.59z"/>
	<ellipse class="st4" cx="135.79" cy="45.95" rx="0.91" ry="0.82"/>
	<path class="st4" d="M132.88,45.08c-1.23,0-1.24,1.73,0,1.73C134.12,46.81,134.12,45.08,132.88,45.08z"/>
	<path class="st4" d="M134.31,49.58c-0.29-0.41-0.94-0.51-1.33-0.15c-0.39,0.35-0.29,0.93,0.17,1.2c0.35,0.2,0.76,0.33,1.17,0.26
		c0.12-0.02,0.25-0.13,0.27-0.24C134.68,50.26,134.53,49.89,134.31,49.58z"/>
	<path class="st4" d="M134.17,53.51c-0.8,0-0.8,1.11,0,1.11C134.97,54.63,134.97,53.51,134.17,53.51z"/>
	<path class="st4" d="M126.44,47.66c-0.04,0-0.04,0.06,0,0.06C126.48,47.72,126.48,47.66,126.44,47.66z"/>
	<path class="st4" d="M129.34,48.85c-1.23,0-1.24,1.73,0,1.73C130.57,50.58,130.58,48.85,129.34,48.85z"/>
	<path class="st4" d="M132.24,57.82c-0.45,0-0.45,0.63,0,0.63C132.69,58.44,132.69,57.82,132.24,57.82z"/>
	<path class="st4" d="M128.58,66.12c-0.26,0.05-0.5,0.13-0.77,0.17c-0.74,0.11-0.91,1.04-0.43,1.47c0.48,0.43,1.51,0.28,1.63-0.39
		c0.04-0.24,0.13-0.46,0.18-0.7C129.27,66.33,128.97,66.05,128.58,66.12z"/>
	<path class="st4" d="M128.37,71.19c-1.23,0-1.24,1.73,0,1.73C129.61,72.91,129.61,71.19,128.37,71.19z"/>
	<path class="st4" d="M126.12,77.65c-0.7,0-0.7,0.98,0,0.98C126.82,78.63,126.82,77.65,126.12,77.65z"/>
	<path class="st4" d="M131.7,78c-0.48-0.1-0.9,0.08-1.24,0.38c-0.38,0.33-0.53,0.74-0.58,1.2c-0.04,0.39,0.4,0.72,0.8,0.72
		c0.42,0,0.81-0.33,0.8-0.72c0-0.16,0.03-0.31,0.11-0.47c0.1-0.19,0.26-0.35,0.38-0.53C132.1,78.37,131.98,78.07,131.7,78z"/>
	<path class="st4" d="M134.35,76.88c-0.11-0.36-0.65-0.4-0.86-0.1c-0.41,0.59-0.64,1.35-0.8,2.03c-0.27,1.14,1.64,1.4,1.77,0.22
		C134.53,78.33,134.55,77.55,134.35,76.88z"/>
	<path class="st4" d="M133.85,70.86c-0.04,0-0.04,0.06,0,0.06C133.89,70.92,133.89,70.86,133.85,70.86z"/>
	<path class="st4" d="M135.75,67.21c0.07,0.15-0.04-0.18-0.05-0.21c-0.01-0.02-0.08-0.2-0.07-0.15c-0.03-0.19,0.02-0.41,0.01-0.6
		c-0.01-0.26-0.31-0.55-0.63-0.43c-0.81,0.29-1.22,1.13-1.24,1.88c-0.01,0.62,0.69,1.09,1.35,0.92c0.26-0.06,0.5-0.23,0.64-0.44
		C135.96,67.86,135.91,67.54,135.75,67.21z"/>
	<path class="st4" d="M138.45,65.18c-0.07-0.07-0.15-0.13-0.24-0.17c-0.15-0.12-0.32-0.2-0.54-0.26c-0.66-0.19-1.35,0.32-1.35,0.92
		c0,0.6,0.68,1.12,1.35,0.92c0.22-0.06,0.39-0.14,0.53-0.26c0.09-0.05,0.17-0.1,0.24-0.18C138.74,65.85,138.74,65.49,138.45,65.18z"
		/>
	<path class="st4" d="M136.75,72.27c-1.34,0-1.34,1.88,0,1.88C138.09,74.15,138.1,72.27,136.75,72.27z"/>
	<path class="st4" d="M136.43,80.1c-0.55,0-1.07,0.43-1.04,0.94c0.03,0.51,0.46,0.94,1.04,0.94c0.55,0,1.07-0.43,1.04-0.94
		C137.45,80.53,137.01,80.1,136.43,80.1z"/>
	<path class="st4" d="M137.21,68.04c-0.05-0.07-0.09-0.15-0.14-0.22c-0.14-0.22-0.5-0.22-0.64,0c-0.05,0.07-0.09,0.15-0.14,0.22
		c-0.2,0.31,0.05,0.72,0.46,0.72S137.41,68.35,137.21,68.04z"/>
	<g>
		<path class="st5" d="M59.16,8.82c-0.29,4.07,0.19,8.12,0.24,12.18c0,0.03,0.05,0.04,0.06,0.01c0.74-4.13,1.11-8.11-0.15-12.21
			C59.28,8.73,59.16,8.75,59.16,8.82z"/>
		<path class="st5" d="M140.7,88.71c-0.08-1.42-0.14-2.84-0.17-4.25c-0.1-4.3-0.02-8.61,0.07-12.91c0.01-0.79,0.03-1.58,0.05-2.37
			c0.06-3.35,0.11-6.7,0.05-10.05c-0.02-1.25-0.06-2.49-0.12-3.74c-0.32-6.88-0.88-13.75-1.01-20.62c-0.04-1.86-0.04-3.73,0-5.6
			c0.02-1.06,0.06-2.12,0.12-3.17c0.08-1.82,0.23-3.64,0.43-5.45c0.17-0.17,0.3-0.39,0.32-0.64c0.02-0.2-0.03-0.42-0.19-0.65
			c-2.15-3.17-5.09-5.58-8.42-7.51c-1.31-0.77-2.7-1.47-4.13-2.11c-2.34-1.05-4.79-1.95-7.23-2.78c-8.33-2.82-17.04-4.71-25.87-5.71
			c-0.01,0-0.03-0.01-0.04-0.01C76.64-0.88,58.18,0.8,41.08,6.02c-9.58,2.92-18.68,6.97-27.09,12.02c-0.55,0.08-1.01,0.45-0.98,1.1
			c0.32,5.98,0.63,11.97,0.63,17.97c0,5.81-0.63,11.54-0.95,17.33c-0.65,11.84-0.04,23.83,0.47,35.67c-0.79,0.63-0.4,1.72,0.38,2.01
			c0.1,0.63,0.7,1.21,1.57,0.97c9.67-2.52,19.41-3.21,29.44-2.93c10.36,0.29,20.55,0.38,30.92-0.17c20.77-1.1,41.42-0.24,61.89,3.17
			c0.39,0.07,0.73-0.02,0.99-0.19c0.26,0.1,0.57,0.14,0.84,0.09c0.22-0.05,0.42-0.15,0.57-0.31c0.05-0.05,0.1-0.1,0.15-0.16
			c0.2-0.02,0.39-0.09,0.54-0.19c0.05-0.03,0.1-0.06,0.14-0.1c0.06-0.05,0.11-0.11,0.15-0.17c0.03-0.03,0.05-0.07,0.06-0.1
			c0.05-0.12,0.08-0.26,0.08-0.41c0.01-0.03,0.01-0.08,0.01-0.12C140.82,90.57,140.75,89.64,140.7,88.71z M15.27,54.44
			c0.32-5.79,0.95-11.53,0.95-17.33c0.01-5.81-0.29-11.62-0.6-17.43c1.37-1.08,2.93-1.98,4.65-2.44c1.79-0.96,3.61-1.86,5.45-2.72
			c-0.54,9.52-0.33,19.36,0.58,28.82c0.03,0.27,0.48,0.28,0.48,0c0.12-9.82,0.26-19.67,0.34-29.48C42.54,6.84,59.65,3.02,76.99,2.66
			c3.76-0.08,7.53,0.01,11.28,0.26c0.36,3.19,0.05,6.48,0.32,9.68c0.28,3.26,0.74,6.46,1.19,9.7c0.01,0.09,0.16,0.09,0.15,0
			c-0.26-3.22-0.35-6.47-0.39-9.7C89.51,9.46,89.13,6.14,89.56,3c1.6,0.12,3.19,0.27,4.79,0.46h0.01
			c5.09,0.57,10.12,1.46,15.08,2.65c2.49,0.6,5.15,1.26,7.81,2.04c0.06,0.21,0.23,0.38,0.44,0.5c0.34,0.84,0.09,3.33,0.14,4.04
			c0.08,1.51,0.21,3.01,0.3,4.52c0.16,2.63,0.23,5.26,0.38,7.89c0.32,5.65,0.79,11.29,1.59,16.9c0.04,0.23,0.43,0.25,0.43,0
			c-0.12-6.76-0.5-13.53-0.73-20.29c-0.12-3.2-0.14-6.39-0.1-9.59c0.01-0.82,0.31-2.03,0.3-3.13c1.99,0.65,3.96,1.37,5.85,2.22
			c1.85,0.82,3.62,1.73,5.27,2.78c1.48,0.94,2.86,1.99,4.09,3.16c0.39,0.06,0.76,0.27,1.03,0.66c0.44,0.64,1.01,1.21,1.62,1.73
			c-0.14,0.16-0.24,0.37-0.26,0.61c-1.37,11.75-0.12,23.48,0.43,35.24c0.53,11.31-0.55,22.65,0.17,33.95
			c-2.31-2.69-5.24-4.77-8.47-6.47c-1.67-0.88-3.42-1.66-5.2-2.37c-1.5-0.6-3.03-1.15-4.56-1.66c0.03-0.04,0.05-0.09,0.06-0.14
			c0.48-2.05-0.08-4.19-0.21-6.28c-0.15-2.41-0.43-4.78-0.68-7.19c-0.02-0.18-0.31-0.19-0.32,0c-0.05,2.41-0.13,4.78-0.07,7.19
			c0.05,2.03-0.32,4.14,0.27,6.11c-7.78-2.58-15.87-4.34-24.08-5.33c-0.01,0-0.03-0.01-0.05-0.01c-0.32-0.05-0.63-0.08-0.95-0.12
			c-0.35-0.04-0.72-0.07-1.07-0.11c0.24-1.89-0.39-3.73-0.63-5.63c-0.28-2.32-0.53-4.71-0.55-7.04c0-0.2-0.34-0.2-0.35,0
			c-0.11,2.36-0.32,4.68-0.38,7.04c-0.05,1.82-0.39,3.69,0.13,5.45c-9.79-0.89-19.72-0.68-29.46,0.6
			c-0.08-4.79-0.23-9.54-0.54-14.32c-0.34-5.28,0.03-10.56-0.38-15.88c-0.02-0.24-0.39-0.24-0.41,0
			c-0.37,5.32,0.05,10.59-0.25,15.88c-0.28,4.87-0.39,9.72-0.43,14.6c-6.5,0.95-12.92,2.38-19.16,4.28
			c-4.11,1.26-8.13,2.73-12.06,4.39c0.05-4.58-1.05-9.29-1.23-13.84c-0.21-5.15-0.36-10.3-0.57-15.45c-0.02-0.47-0.82-0.48-0.82,0
			c0.12,5.15,0.3,10.3,0.42,15.45c0.12,4.91-0.81,10.03-0.24,14.91C22.42,85,19,86.73,15.68,88.62
			C15.19,77.27,14.64,65.78,15.27,54.44z M132.42,90.07c-18.85-2.73-37.85-3.4-56.95-2.39c-10.57,0.56-20.97,0.43-31.54,0.15
			c-8.78-0.23-17.36,0.33-25.85,2.16c17.48-9.7,37.72-14.98,58.27-15.4c6.47-0.13,12.95,0.21,19.35,1.04
			c0.26,0.03,0.52,0.06,0.78,0.1c-0.25-0.01-0.5-0.02-0.75-0.03c-1.55-0.07-3.09-0.09-4.59-0.14c-4.13-0.15-8.27-0.17-12.4-0.06
			c-7.94,0.2-15.66,1.06-23.49,2.19c-0.12,0.02-0.07,0.19,0.05,0.17c7.91-1.03,16.06-1.49,24.05-1.61
			c3.72-0.06,7.44-0.01,11.16,0.15c1.82,0.08,3.67,0.27,5.53,0.42c1.14,0.09,2.28,0.17,3.4,0.19c0.95,0.03,1.89,0.02,2.82-0.06
			c0.15-0.01,0.21-0.13,0.19-0.23c2.12,0.39,4.23,0.84,6.33,1.35c7.11,1.72,15.46,3.88,21.81,7.96c2.05,1.32,3.89,2.84,5.41,4.6
			C134.81,90.42,133.62,90.24,132.42,90.07z"/>
		<path class="st5" d="M59.14,5.13c-0.02-0.27,0.01-0.56-0.22-0.75c-0.05-0.05-0.17-0.05-0.2,0.02c-0.13,0.26-0.01,0.52,0.01,0.8
			c0.03,0.34,0.02,0.68-0.01,1.01c-0.02,0.21,0.33,0.2,0.36,0C59.14,5.85,59.16,5.49,59.14,5.13z"/>
		<path class="st5" d="M90.45,34.9c-0.04-0.1-0.18-0.1-0.22,0c-0.08,0.22-0.04,0.46-0.03,0.7c0.02,0.26,0.04,0.52,0.06,0.78
			c0.01,0.09,0.14,0.09,0.15,0c0.02-0.26,0.04-0.52,0.06-0.78C90.5,35.36,90.54,35.12,90.45,34.9z"/>
		<path class="st5" d="M90.04,27.67c0-0.03-0.05-0.03-0.05,0c0.07,1.06,0.13,2.13,0.2,3.19c0,0.03,0.05,0.03,0.05,0
			C90.18,29.8,90.11,28.74,90.04,27.67z"/>
		<path class="st5" d="M91.22,53.34c0-0.07-0.11-0.07-0.12,0c-0.15,1.25-0.52,2.5,0.08,3.7c0.06,0.11,0.28,0.09,0.3-0.04
			C91.7,55.77,91.23,54.58,91.22,53.34z"/>
		<path class="st5" d="M45.09,21.15c0-0.21-0.35-0.21-0.36,0c-0.2,3.91-0.42,7.83-0.31,11.75c0.11,3.94-0.43,7.81-0.03,11.75
			c0.01,0.05,0.08,0.05,0.09,0c0.56-3.93,0.17-7.81,0.44-11.75C45.2,28.99,45.14,25.06,45.09,21.15z"/>
		<path class="st5" d="M44.77,61.39c0.24-2.98,0.18-5.93,0.09-8.92c-0.01-0.21-0.34-0.21-0.36,0c-0.38,3.37-0.52,6.65-0.49,10.03
			c0.02,2.35-0.84,4.98,0.62,7.07c0.14,0.21,0.52,0.13,0.52-0.13C45.11,66.72,44.55,64.15,44.77,61.39z"/>
		<path class="st5" d="M76.34,21.65c-0.07-4.04-0.04-8.08-0.31-12.11c-0.01-0.16-0.26-0.16-0.27,0c-0.37,4.03-0.33,8.07-0.25,12.11
			c0.07,3.57-0.38,7.53,0.53,11.01c0.05,0.2,0.44,0.22,0.48,0C77.11,29.11,76.4,25.24,76.34,21.65z"/>
		<path class="st5" d="M76.39,40.57c0.02-0.28-0.46-0.28-0.48,0c-0.33,3.63-0.99,7.3-0.21,10.91c0.02,0.08,0.17,0.06,0.16-0.02
			C75.77,47.86,76.2,44.19,76.39,40.57z"/>
		<path class="st5" d="M75.03,57.12c-0.01-0.09-0.17-0.1-0.17,0c0.05,2.27,0.13,4.52,0.22,6.79c0.08,1.96-0.19,3.93,0.1,5.87
			c0.02,0.16,0.33,0.16,0.36,0C76.28,65.78,75.61,61.1,75.03,57.12z"/>
		<path class="st5" d="M105.97,30.57c0.02-6.53-0.08-13.05-0.44-19.57c0-0.09-0.14-0.09-0.15,0c-0.52,6.52-0.78,13.04-0.91,19.57
			c-0.13,6.1-0.6,12.41,0.4,18.45c0.02,0.12,0.24,0.12,0.26,0C106.27,43,105.95,36.67,105.97,30.57z"/>
		<path class="st5" d="M105.14,54.07c0-0.12-0.21-0.15-0.24-0.03c-0.36,1.37-0.95,2.73-0.53,4.15c0.06,0.21,0.36,0.18,0.44,0
			C105.39,56.86,105.09,55.45,105.14,54.07z"/>
		<path class="st5" d="M82.96,83.19c-3.88-0.5-8.17-0.17-12.08-0.08c-4.44,0.11-8.87,0.32-13.31,0.41
			c-8.89,0.19-17.75,0.41-26.63,0.83c-0.08,0-0.08,0.11,0,0.11c8.89,0.04,17.74-0.12,26.63-0.31c4.23-0.09,8.45-0.08,12.68-0.15
			c4.12-0.06,8.67,0.1,12.71-0.6C83.08,83.39,83.09,83.21,82.96,83.19z"/>
		<path class="st5" d="M127.61,85.88c-6.61-0.22-12.68-2.26-19.23-2.8c-7.21-0.59-14.37-0.32-21.58-0.07c-0.35,0.01-0.35,0.5,0,0.49
			c7.37-0.17,14.84-0.34,22.19,0.26c3.47,0.28,6.84,0.77,10.17,1.72c2.77,0.79,5.63,1.64,8.51,0.84
			C127.96,86.25,127.91,85.89,127.61,85.88z"/>
	</g>
	<path class="st4" d="M136.75,61.87c-0.04,0-0.04,0.06,0,0.06C136.79,61.93,136.79,61.87,136.75,61.87z"/>
	<path class="st4" d="M143.09,50.7c0.21-0.77,0.17-1.53-0.6-2.23c-0.02-0.02-0.04-0.02-0.05-0.04c0.14-1.48,0-2.92,0.14-4.5
		c0.22-2.49,0.79-4.94,0.95-7.44c0.17-2.76-0.08-5.44-0.17-8.18c-0.09-2.67-0.1-5.02-0.9-7.63c-0.14-0.47-0.45-0.77-0.82-0.94
		c-0.08-0.31-0.31-0.6-0.63-0.79c-0.78-0.63-2.23-0.42-2.49,0.61c-0.01,0.04-0.02,0.07-0.03,0.11c-0.02,0.03-0.04,0.06-0.06,0.09
		c-0.03-0.36-0.26-0.71-0.68-0.83c-0.02-0.45-0.35-0.88-0.99-0.88c-1.18,0-1.31,1.47-0.38,1.79c0,0.22,0.06,0.45,0.21,0.62
		c-0.41,0.38-0.29,1.16,0.37,1.29c0.07,0.01,0.13,0.03,0.2,0.04c0.3,0.06,0.59-0.01,0.81-0.16c0.02,0.12,0.04,0.23,0.07,0.34
		c-0.02,0.15-0.04,0.31-0.06,0.46c-1.72,2.61-1.11,4.69-0.6,7.05c0.01,0.19,0.01,0.38,0.02,0.56c-0.01,0.06-0.02,0.12-0.03,0.18
		c-1.41,2.49-1.33,5.25,0.05,7.87c0.11,0.21,0.29,0.37,0.49,0.48c0.05,0.69,0.1,1.38,0.15,2.07c-0.43,0.36-0.4,1.08,0.1,1.38
		c0.07,0.95,0.13,1.9,0.2,2.84c-0.16,0.68-0.26,1.36-0.29,2.03c-0.15-0.02-0.31,0.01-0.45,0.13c-0.97,0.79-1.17,2.13-0.97,3.24
		c0.02,0.14,0.08,0.25,0.14,0.34c-0.13-0.02-0.26,0-0.37,0.07c-1.06,0.68-1.47,1.96-1.44,3.09c0.05,1.46,2.54,1.21,2.23-0.27
		c-0.18-0.82,0.03-1.54,0.12-2.35c0.01-0.07-0.01-0.14-0.04-0.2c0.22,0.06,0.47,0.05,0.7,0c-0.12,1.66-0.1,3.32,0,4.99
		c-0.03,0.02-0.06,0.05-0.09,0.08c-0.16-0.27-0.31-0.54-0.47-0.81c-0.03-0.05-0.1-0.01-0.08,0.04c0.15,0.28,0.3,0.56,0.45,0.84
		c-0.62,0.54-1.01,1.35-1.18,2.05c-0.07,0.26-0.03,0.52,0.1,0.74c-0.07,0.01-0.14,0.02-0.21,0.05c-0.3,0.12-0.44,0.34-0.47,0.63
		c-0.04,0.39,0.05,0.73,0.15,1.1c0.12,0.45,0.69,0.72,1.18,0.6c0.46-0.11,0.86-0.63,0.67-1.06c-0.08-0.18-0.16-0.36-0.24-0.53
		c-0.04-0.08-0.09-0.14-0.13-0.21c0.21,0.01,0.42-0.04,0.61-0.12c0.26,2.5,0.57,5,0.7,7.51c0.01,0.15,0,0.29,0,0.44
		c-0.09-0.02-0.19-0.04-0.3-0.04c-0.6,0-1.17,0.47-1.14,1.03c0.03,0.56,0.5,1.03,1.14,1.03c0.08,0,0.17-0.01,0.25-0.03
		c-0.17,2.25-0.64,4.41-0.99,6.64c-0.02-0.02-0.05-0.03-0.08-0.05c0-0.01-0.01-0.02-0.01-0.03c-0.1-0.24-0.2-0.44-0.38-0.65
		c-0.09-0.1,0.07,0.08-0.04-0.04c-0.07-0.08-0.12-0.16-0.21-0.23c-0.3-0.22-0.64-0.22-0.95,0c-0.07,0.05-0.13,0.12-0.19,0.19
		c-0.02,0.03-0.04,0.05-0.05,0.08c0.03-0.04,0.02-0.04-0.01,0c-0.18,0.2-0.28,0.41-0.38,0.65c-0.15,0.35-0.01,0.71,0.27,0.96
		c0,0.09,0.02,0.18,0.05,0.27c0.03,0.08,0.07,0.15,0.11,0.22c0.09,0.25,0.28,0.47,0.51,0.59c0.36,0.19,0.77,0.17,1.11,0.03
		c0,0.03-0.01,0.05-0.01,0.08c-0.15,1.56,0.04,3.11,0.28,4.65c-0.09-0.03-0.18-0.05-0.27-0.05c-0.12-0.02-0.24-0.03-0.36,0
		c-0.19,0.02-0.35,0.09-0.52,0.16c-0.71,0.28-0.73,1.23-0.24,1.67c0.32,0.29,0.88,0.38,1.32,0.23c-0.08,0.25-0.15,0.51-0.21,0.76
		c-0.05,0.03-0.11,0.07-0.16,0.11c-0.52,0.41-0.41,1.1,0.01,1.51c0.01,0.14,0.01,0.27,0.03,0.41c0.02,0.2,0.11,0.35,0.23,0.46
		c-0.38,0.54-0.53,1.25-0.48,1.86c0.04,0.54,0.49,0.97,1.1,0.94c0.5,1.28,2.74,1.61,3.23-0.02c1.07-3.62,1.7-7.32,1.76-11.06
		c0.05-3.58-0.84-7.05-0.95-10.6C142.26,62.69,145.84,56.87,143.09,50.7z"/>
	<path class="st4" d="M17.51,84.82c-0.24,0-0.43,0.07-0.58,0.17c-0.02-0.04-0.03-0.09-0.06-0.13c0.39-0.83,0.65-1.42-0.04-2.69
		c-1.12-2.04-1.85-4.06-1.74-6.49c0.09-2.06,1.33-3.98,1.25-6.02c-0.02-0.45-0.13-0.88-0.26-1.31c0.24,0.08,0.51,0.11,0.79,0.07
		c1.01-0.15,2.15-1.21,1.59-2.16c-0.14-0.24-0.47-0.34-0.75-0.27c-0.04,0.01-0.08,0.02-0.11,0.03c-0.2,0.08-0.26,0.1-0.16,0.06
		c0.07-0.03,0.04-0.02-0.07,0.03c-0.12,0.05-0.23,0.11-0.34,0.16c0,0,0,0,0,0c0.01-0.01-0.04-0.01-0.06,0.01
		c-0.06,0.01-0.12,0.01-0.18,0.02c-0.01,0-0.01,0-0.01,0c-0.07,0-0.14,0-0.21-0.01c-0.41-0.03-0.76,0.18-0.97,0.47
		c-0.38-1.61-0.33-3.14,0.02-4.75c0.15-0.69-0.11-1.26-0.67-1.63c0-0.01,0-0.01,0-0.02c0.08-0.9-0.05-1.75-0.27-2.58
		c0.28-1.1,0.6-2.25,0.57-2.58c-0.08-0.75-0.69-1.37-0.76-2.04c-0.09-0.93,0.64-1.38,1.04-2.1c1.04-1.87,0.64-4.07-0.81-5.6
		c0.98-2.23,0.8-4.5,0.43-6.95c-0.03-0.21-0.05-0.42-0.08-0.63c0.23-0.31,0.4-0.69,0.5-1.11c0.36-1.47,0.02-3.31-0.01-4.8
		c-0.05-2.27-0.04-4.53,0.01-6.8c0.01-0.5-0.27-0.86-0.66-1.07c-0.04-0.4-0.35-0.77-0.92-0.77c-0.05,0-0.1,0.01-0.15,0.01
		c0.01-0.36-0.01-0.71-0.07-1.03c0.24,0.11,0.48,0.24,0.74,0.28c0.5,0.09,1.08-0.05,1.34-0.49c0.24-0.41,0.21-0.96-0.19-1.29
		c-0.23-0.19-0.48-0.31-0.76-0.43c-0.41-0.18-0.92-0.18-1.3,0.04c-0.29,0.05-0.55,0.19-0.69,0.43c0,0,0,0,0,0
		c-0.21-0.11-0.45-0.16-0.72-0.1c-2.28,0.49-2.23,3.87-2.3,5.47c-0.16,3.39,0.51,6.76,0.99,10.11c0.49,3.37,0.97,6.96-0.08,10.28
		c-0.96,3.03-2.08,4.6-0.96,7.78c0.43,1.22,1.11,2.4,1.46,3.65c-0.28,1.22-0.45,2.38,0.03,3.34c-0.18,0.93-0.45,1.86-0.62,2.8
		c-0.66,3.7-0.93,7.44-0.72,11.19c0.22,4.14,1.95,8.27,1.15,12.34c-0.34,1.72-0.58,3.24,1.64,3.98c0.31,0.1,0.65-0.03,0.89-0.21
		c0.13-0.1,0.26-0.2,0.39-0.31c0.36-0.28,0.13-0.77-0.26-0.9c-0.93-0.29-0.17-1.88,0.36-2.99c1.09,0.37,2.13,0.04,2.75-0.94
		c0,0,0-0.01,0-0.01c0.15,0.13,0.36,0.21,0.62,0.21C18.75,86.55,18.75,84.82,17.51,84.82z"/>
	<path class="st4" d="M17.84,78.35c-0.53,0-0.54,0.75,0,0.75C18.37,79.1,18.37,78.35,17.84,78.35z"/>
	<path class="st4" d="M18.43,75.04c0.05-0.46-0.26-0.95-0.92-0.95c-0.69,0-1,0.54-0.91,1.02c-0.03,0.06-0.06,0.12-0.08,0.18
		c-0.1,0.29-0.2,0.58-0.3,0.88c-0.16,0.46,0.19,1.03,0.72,1.14c0.58,0.12,1.06-0.16,1.26-0.65c0.12-0.29,0.24-0.57,0.36-0.86
		C18.66,75.55,18.59,75.27,18.43,75.04z"/>
	<path class="st4" d="M20.51,73.7c-0.32-0.3-0.58-0.61-0.99-0.81c-0.47-0.24-1.25,0.05-1.18,0.61c0.04,0.28,0.09,0.52,0.23,0.78
		c0.1,0.19,0.2,0.38,0.3,0.57c0.25,0.53,1.1,0.57,1.54,0.27C20.9,74.77,20.95,74.11,20.51,73.7z"/>
	<path class="st4" d="M20.41,64.91c-1.5,0-1.5,2.09,0,2.09C21.91,67.01,21.91,64.91,20.41,64.91z"/>
	<path class="st4" d="M17.19,61.91c-1.23,0-1.24,1.73,0,1.73C18.43,63.63,18.43,61.91,17.19,61.91z"/>
	<path class="st4" d="M16.22,58.07c-1.33,0-1.33,1.86,0,1.86C17.56,59.93,17.56,58.07,16.22,58.07z"/>
	<path class="st4" d="M20.41,54.33c-0.04,0-0.04,0.06,0,0.06C20.46,54.39,20.46,54.33,20.41,54.33z"/>
	<path class="st4" d="M22.58,51.57c-0.4-0.59-0.86-1.39-1.57-1.71c-0.3-0.13-0.75-0.04-0.82,0.3c-0.16,0.72,0.21,1.46,0.5,2.12
		c0.23,0.51,0.78,0.84,1.4,0.6C22.64,52.68,22.91,52.06,22.58,51.57z"/>
	<path class="st4" d="M16.55,43.89c-0.04,0-0.04,0.06,0,0.06C16.59,43.95,16.59,43.89,16.55,43.89z"/>
	<path class="st4" d="M18.78,40.76c-0.77,0.03-1.29,0.55-1.49,1.2c-0.15,0.48,0.22,0.96,0.76,1.03c0.52,0.06,1.06-0.31,1.04-0.81
		c0-0.01,0.02-0.24-0.01-0.12c0.01-0.07,0.04-0.13,0.07-0.2c0.05-0.13,0.05-0.17,0.13-0.32C19.45,41.21,19.25,40.74,18.78,40.76z"/>
	<path class="st4" d="M19.45,38.7c-1.23,0-1.24,1.73,0,1.73C20.68,40.43,20.68,38.7,19.45,38.7z"/>
	<path class="st4" d="M19.12,36.49c-1.08,0-1.08,1.51,0,1.51C20.2,38,20.21,36.49,19.12,36.49z"/>
	<path class="st4" d="M17.19,31.13c-0.04,0-0.04,0.06,0,0.06C17.23,31.18,17.23,31.13,17.19,31.13z"/>
	<path class="st4" d="M17.74,29.86c-0.09-0.36-0.18-0.73-0.25-1.1c-0.06-0.27-0.54-0.27-0.6,0c-0.08,0.37-0.16,0.73-0.25,1.1
		C16.43,30.69,17.95,30.7,17.74,29.86z"/>
	<path class="st4" d="M18.36,26.41c-0.26,0.05-0.5,0.15-0.76,0.2c-0.66,0.13-0.85,0.93-0.39,1.34s1.34,0.24,1.49-0.35
		c0.06-0.24,0.17-0.45,0.22-0.68C18.99,26.6,18.71,26.35,18.36,26.41z"/>
	<path class="st4" d="M17.51,21.65c-1.16,0-1.16,1.62,0,1.62C18.67,23.26,18.67,21.65,17.51,21.65z"/>
	<path class="st4" d="M19.12,20.57c-0.2,0-0.2,0.29,0,0.29C19.33,20.86,19.33,20.57,19.12,20.57z"/>
	<path class="st4" d="M21.27,20.05c-0.25,0.13-0.42,0.4-0.42,0.66c0,0.37,0.27,0.62,0.63,0.74c0.13,0.04,0.22,0.1,0.34,0.17
		c0.29,0.17,0.61-0.06,0.64-0.33c0.01-0.14,0.04-0.25,0.08-0.38C22.73,20.27,21.91,19.72,21.27,20.05z"/>
	<path class="st4" d="M22.99,24.2c-1.23,0-1.24,1.73,0,1.73C24.23,25.93,24.23,24.2,22.99,24.2z"/>
	<path class="st4" d="M23.3,30.19c-0.27-0.22-0.68-0.34-1.04-0.39c-0.56-0.08-1.13,0.21-1.13,0.77c0,0.56,0.57,0.85,1.13,0.77
		c0.36-0.05,0.77-0.16,1.04-0.39C23.53,30.76,23.53,30.39,23.3,30.19z"/>
	<path class="st4" d="M23.96,34.06c-1.23,0-1.24,1.73,0,1.73C25.19,35.79,25.2,34.06,23.96,34.06z"/>
	<path class="st4" d="M22.02,40.44c-1.23,0-1.24,1.73,0,1.73C23.26,42.17,23.26,40.44,22.02,40.44z"/>
	<path class="st4" d="M23.64,45.54c-0.99,0-0.99,1.39,0,1.39C24.63,46.93,24.63,45.54,23.64,45.54z"/>
	<path class="st4" d="M35.24,24.07c-1.01,0-1.01,1.41,0,1.41C36.25,25.48,36.25,24.07,35.24,24.07z"/>
	<path class="st4" d="M39.75,35.14c-1.35,0-1.35,1.89,0,1.89C41.1,37.03,41.1,35.14,39.75,35.14z"/>
	<path class="st4" d="M34.92,49.12c-0.02,0-0.02,0.03,0,0.03C34.94,49.15,34.94,49.12,34.92,49.12z"/>
	<path class="st4" d="M34.59,61.87c-1.7,0-1.7,2.38,0,2.38C36.29,64.25,36.3,61.87,34.59,61.87z"/>
	<ellipse class="st4" cx="55.86" cy="48.56" rx="0.96" ry="0.86"/>
	<path class="st4" d="M57.47,28.38c-1.49,0-1.49,2.08,0,2.08C58.96,30.46,58.96,28.38,57.47,28.38z"/>
	<path class="st4" d="M62.63,31.74c-1.23,0-1.24,1.73,0,1.73C63.87,33.47,63.87,31.74,62.63,31.74z"/>
	<path class="st4" d="M65.85,36.38c-1.23,0-1.24,1.73,0,1.73C67.09,38.11,67.09,36.38,65.85,36.38z"/>
	<path class="st4" d="M70.37,32.61c-1.23,0-1.24,1.73,0,1.73C71.6,34.34,71.6,32.61,70.37,32.61z"/>
	<path class="st4" d="M69.72,11.72c-1.24,0-1.25,1.74,0,1.74C70.96,13.46,70.97,11.72,69.72,11.72z"/>
	<path class="st4" d="M79.71,40.7c-0.87,0-0.88,1.22,0,1.22C80.59,41.92,80.59,40.7,79.71,40.7z"/>
	<path class="st4" d="M90.35,48.44c-1.42,0-1.42,1.98,0,1.98C91.76,50.42,91.77,48.44,90.35,48.44z"/>
	<path class="st4" d="M105.49,44.92c-1.05,0-1.05,1.47,0,1.47C106.54,46.39,106.54,44.92,105.49,44.92z"/>
	<path class="st4" d="M111.94,44.22c-0.82,0-0.82,1.14,0,1.14C112.75,45.36,112.76,44.22,111.94,44.22z"/>
	<path class="st4" d="M113.55,43.6c-0.04,0-0.04,0.06,0,0.06C113.59,43.66,113.59,43.6,113.55,43.6z"/>
	<path class="st4" d="M95.82,35.82c-0.8,0-0.8,1.11,0,1.11C96.62,36.93,96.62,35.82,95.82,35.82z"/>
	<path class="st4" d="M91.31,36.73c-0.32,0-0.32,0.45,0,0.45C91.63,37.18,91.63,36.73,91.31,36.73z"/>
	<path class="st4" d="M42.01,37.8c-0.04,0-0.04,0.06,0,0.06C42.05,37.86,42.05,37.8,42.01,37.8z"/>
	<path class="st4" d="M19.45,61.16c-1.48,0-1.48,2.07,0,2.07C20.92,63.22,20.93,61.16,19.45,61.16z"/>
	<path class="st4" d="M22.02,58.39c-0.04,0-0.04,0.06,0,0.06C22.07,58.45,22.07,58.39,22.02,58.39z"/>
	<path class="st4" d="M18.48,51.47c-1.23,0-1.24,1.73,0,1.73C19.71,53.19,19.72,51.47,18.48,51.47z"/>
	<path class="st4" d="M22.99,59.26c-0.04,0-0.04,0.06,0,0.06C23.03,59.32,23.03,59.26,22.99,59.26z"/>
	<path class="st4" d="M22.67,72.64c-1.23,0-1.24,1.73,0,1.73C23.9,74.36,23.91,72.64,22.67,72.64z"/>
	<path class="st4" d="M22.99,82.17c-0.04,0-0.04,0.06,0,0.06C23.03,82.23,23.03,82.17,22.99,82.17z"/>
	<path class="st4" d="M19.3,82.08c-0.12-0.34-0.26-0.61-0.48-0.91c-0.17-0.23-0.63-0.16-0.62,0.15c0.01,0.36,0.07,0.65,0.19,0.98
		C18.58,82.82,19.49,82.6,19.3,82.08z"/>
	<path class="st4" d="M17.51,69.12c-0.04,0-0.04,0.06,0,0.06C17.55,69.18,17.55,69.12,17.51,69.12z"/>
	<path class="st4" d="M18.8,56.11c-1.23,0-1.24,1.73,0,1.73C20.04,57.83,20.04,56.11,18.8,56.11z"/>
	<path class="st4" d="M17.19,44.46c-1.29,0-1.29,1.81,0,1.81C18.48,46.27,18.49,44.46,17.19,44.46z"/>
	<path class="st4" d="M22.02,37.93c-0.27,0-0.27,0.38,0,0.38C22.3,38.31,22.3,37.93,22.02,37.93z"/>
	<path class="st4" d="M21.38,33.77c-1.23,0-1.24,1.73,0,1.73C22.61,35.5,22.62,33.77,21.38,33.77z"/>
</g>
</svg>
