<?xml version="1.0" encoding="utf-8"?>
<!-- Generator: Adobe Illustrator 25.2.3, SVG Export Plug-In . SVG Version: 6.00 Build 0)  -->
<svg version="1.1" id="Layer_1" xmlns="http://www.w3.org/2000/svg" xmlns:xlink="http://www.w3.org/1999/xlink" x="0px" y="0px"
	 viewBox="0 0 104 52" style="enable-background:new 0 0 104 52;" xml:space="preserve">
<style type="text/css">
	.st0{fill-opacity:0.1;}
	.st1{fill:#A89080;}
	.st2{fill:#89716E;}
	.st3{fill:#AF9C90;}
	.st4{fill:#4F4442;}
</style>
<g>
	<path class="st0" d="M89.8,28.14c-0.34-2.78,0.35-5.82-1.59-7.89c-0.79-0.85-1.75-1.07-2.7-1.26c-0.29-1.02-0.88-1.9-1.65-2.51
		c-0.35-0.27-0.72-0.52-1.1-0.73c-0.09-0.08-0.17-0.17-0.26-0.25c-0.96-0.84-1.59-1.82-2.46-2.78c-0.75-0.82-1.64-1.27-2.56-1.65
		c-0.18-0.15-0.37-0.28-0.57-0.39c-0.41-0.22-0.84-0.35-1.29-0.4c-0.55-0.26-1.09-0.54-1.62-0.84c-0.39-0.47-1.42-1.55-2.16-1.97
		c-0.29-0.74-0.76-1.43-1.3-1.83c-0.88-0.66-1.69-0.46-2.59-0.42c-0.1-0.09-0.23-0.2-0.42-0.37c-0.25-0.21-0.51-0.36-0.78-0.51
		c-0.64-0.37-1.33-0.59-2.04-0.63c-1.03-0.07-2.05,0.2-3,0.67c-0.26,0-0.53,0.01-0.8,0.04c-1.04,0.1-2.27,0.76-3.32,0.63
		c-0.78-0.77-1.75-1.18-2.74-1.16c-0.33-0.15-0.68-0.27-1.04-0.32c-2.83-0.44-5.63,0.68-8.33,1.6c-0.78,0.27-1.57,0.52-2.35,0.77
		c-0.08-0.06-0.15-0.12-0.21-0.16c-2.18-1.55-4.29-0.35-5.73,1.68c-0.98-0.03-1.99,0.34-2.92,1.03c-0.23,0.17-0.57,0.59-0.88,0.81
		c-0.11,0.05-0.23,0.1-0.34,0.14c-0.36,0.02-1.01-0.57-1.35-0.68c-1.06-0.35-2.16-0.21-3.16,0.35c-1.32,0.74-2.29,2.24-2.6,3.96
		c-0.97,0.53-1.94,1.07-2.83,1.72c-0.18,0.13-0.35,0.27-0.52,0.42c-0.49,0.21-0.85,0.54-1.1,0.95c-1.27-0.74-2.59-1.06-3.86-0.24
		c-2.46,1.58-1.34,4.36-1.81,6.9c-0.55,2.97-1.87,5.58,0.1,8.33c0.33,0.46,0.71,0.82,1.13,1.12c-0.49,1.26-0.54,2.75,0.01,4.03
		c0.69,1.61,1.98,2.21,3.21,3.01c1.34,0.88,2.62,1.9,3.79,3.1c2.28,2.35,4.25,4.92,7.45,4.81c0.97-0.03,1.96-0.28,2.96-0.63
		c0.78,0.35,1.63,0.41,2.48,0.17c0.57-0.16,1.12-0.45,1.63-0.79c0.23-0.15,0.7-0.67,1.05-0.87c0.4,0.69,0.92,1.23,1.61,1.55
		c0.2,0.09,0.39,0.14,0.59,0.19c0.03,0.03,0.06,0.06,0.09,0.08c1.23,1.01,2.57,1.53,4.03,1.74c2.23,0.33,4.42,0.05,6.64,0.51
		c1.32,0.27,2.55,0.29,3.78-0.44c0.27-0.16,0.55-0.47,0.82-0.59c0.16-0.08,0.34-0.13,0.51-0.16c1.07,0.37,2.3,0.08,3.34-0.3
		c1.43-0.53,2.67-1.43,3.75-2.58c1.3,0.87,2.82,1.05,4.2-0.16c0.13-0.12,0.26-0.24,0.37-0.37c0.84-0.34,1.62-0.89,2.31-1.77
		c0.07-0.09,0.4-0.56,0.63-0.92c0.09-0.02,0.2-0.04,0.32-0.07c0.7-0.16,1.33-0.49,1.91-0.97c1.59,0.23,3.16-0.63,3.88-2.66
		c0.1-0.28,0.17-0.56,0.22-0.85c0.49,0.13,1.04,0.17,1.52,0.09c0.35-0.06,0.68-0.17,0.98-0.32c0.81,0.66,1.83,0.77,2.78,0.11
		c0.95-0.66,1.75-1.5,2.42-2.47C88.94,34.41,90.17,31.12,89.8,28.14z"/>
	<path class="st1" d="M82.07,31.2c-0.09,0.71-0.41,1.35-1.04,1.78c-1.32,0.91-2.62-0.12-3.94-0.55c0.21,3.24-2.58,5.22-5.12,4.01
		c-0.38-0.18-0.94-0.67-1.33-0.65c-1.24,0.04-1,1.05-1.52,1.75c-0.42,0.57-0.76,1.01-1.35,1.31c-0.91,0.44-1.86,0.33-2.67-0.19
		c-0.62,1.84-1.74,3.5-3.55,2.98c-0.33-0.1-0.57-0.33-0.86-0.48c-0.81-0.43-0.86-0.31-1.69,0.52c-0.82,0.83-1.57,1.75-2.6,2.14
		c-0.91,0.34-1.79,0.29-2.59-0.37c-0.38-0.32-0.67-0.98-1.06-1.21c-1.12-0.67-1.66,0.38-2.48,0.91c-1.36,0.88-3.1,0.58-3.33-1.59
		c-0.09-0.86,0.38-1.06-0.35-1c-0.44,0.04-1.03,0.91-1.55,1.04c-0.68,0.17-1.43,0.01-1.91-0.66c-0.18-0.25-0.28-0.57-0.38-0.87
		c-0.35-1.18,0.09-1-0.57-0.74c-0.06,0.03-0.13,0.05-0.21,0.08c-0.02,0-0.03,0.01-0.05,0.01c-1.28,0.37-2.55,1.61-3.86,2.08
		c-0.9,0.32-2.63,1.08-3.56,0.52c-0.22-0.13-0.36-0.46-0.54-0.57c-1.01-0.62-1.54-0.89-2.61-1.08c-2.43-0.43-4.58-1.76-6.45-3.72
		c-0.23-0.24-0.27-0.59-0.19-0.91c0.02-0.1,0.06-0.19,0.1-0.28c-1.13-0.19-2.24-0.46-3.35-0.81c-0.7-0.22-0.7-1.31-0.19-1.77
		c0.43-0.38,0.85-0.77,1.28-1.15c-1.75-1.12-3.15-2.77-4.16-4.99c-0.17-0.38-0.12-0.86,0.12-1.17c1.2-1.55,2.6-2.58,4.24-3.12
		c-0.09-0.69-0.18-1.39-0.27-2.08c-0.08-0.62,0.2-1.21,0.75-1.23l3.81-0.09c0.58-0.01,1.16-0.02,1.73-0.04
		c0.14,0,2.7-0.06,1.93-0.88c-0.35-0.38-0.3-0.87-0.08-1.21c-1.02-1.17-2.49-3.4-1-4.48c0.85-0.62,2.55-0.08,3.52-0.04
		c1.58,0.07,3.16,0.13,4.74,0.2c0.09-0.55,0.33-1.04,0.78-1.41c1.01-0.84,1.94-0.14,2.99,0.07c1.78,0.34,1.88-1.24,3.06-1.85
		c0.08-0.04,0.16-0.08,0.25-0.11c0.8-0.28,1.4,0.62,2.09,0.77c0.15,0.03,0.3,0.03,0.45-0.02c0.12-0.04,0.23-0.13,0.34-0.23
		c0.45-0.42,0.79-1.22,1.39-1.4c0.55-0.17,0.85,0.11,1.32,0.35c0.29,0.15,0.53,0.26,0.75,0.32c0.21,0.06,0.39,0.09,0.57,0.06
		c0.38-0.03,0.74-0.25,1.26-0.68c0.39-0.32,0.82-0.71,1.29-0.87c0.7-0.23,1.39-0.09,1.96,0.48c0.11,0.11,0.2,0.23,0.28,0.36
		c0.03,0.06,0.07,0.13,0.1,0.19c0.33,0.72,0.37,1.64,0.83,2.2c1.03,1.25,3.86-0.87,4.87-1.38c0.84-0.42,2.01-1.34,2.96-1.04
		c0.85,0.27,0.66,1.07,1.17,1.63c0.46,0.51,1.4,0.02,2,0.76c0.66,0.81,0.72,1.79,1.15,2.5c0.18,0.31,0.43,0.56,0.82,0.74
		c0.11,0.05,0.23,0.09,0.37,0.13c1.3,0.34,4.06-1.42,4.5,1.41c0.1,0.64-0.24,1.06-0.22,1.61c0.04,0.8,0.16,0.58,0.88,0.6
		c0.87,0.03,1.81,0.12,2.53,0.8c0.83,0.8,1.2,2.17,0.87,3.31c0.02,0.02,0.04,0.05,0.06,0.07c0.21,0.28,0.29,0.71,0.5,0.97
		c0.84,1.08,0.94,0.67,1.64,0.88c1.3,0.4,2.7,0.49,3.52,2.02C86.83,28.89,84.35,31.2,82.07,31.2z"/>
	<path class="st2" d="M45.9,10.08c-0.46-0.17-0.88-0.47-1.24-0.87c0.08-0.04,0.16-0.08,0.25-0.11c0.81-0.28,1.42,0.63,2.11,0.77
		C46.69,10.13,46.28,10.23,45.9,10.08z"/>
	<path class="st2" d="M50.05,9.4c-0.69,0.03-1.47,0.24-2.23,0.22c0.45-0.43,0.8-1.24,1.4-1.42c0.56-0.17,0.86,0.11,1.34,0.35
		c0.29,0.15,0.53,0.26,0.75,0.32c-0.06,0-0.13,0-0.18,0C50.83,9.19,50.46,9.38,50.05,9.4z"/>
	<path class="st2" d="M82.32,31.22c-0.09,0.72-0.42,1.36-1.05,1.79c-1.34,0.91-2.64-0.12-3.97-0.55c0.22,3.26-2.6,5.24-5.16,4.03
		c-0.38-0.18-0.95-0.67-1.34-0.66c-1.25,0.04-1.01,1.05-1.53,1.75c-0.43,0.57-0.76,1.02-1.36,1.31c-0.92,0.44-1.88,0.33-2.7-0.19
		c-0.62,1.84-1.76,3.51-3.58,2.99c-0.34-0.1-0.57-0.33-0.87-0.49c-0.82-0.43-0.87-0.31-1.7,0.53c-0.83,0.83-1.58,1.75-2.62,2.15
		c-0.92,0.34-1.8,0.29-2.61-0.37c-0.39-0.32-0.68-0.99-1.07-1.22c-1.13-0.67-1.68,0.38-2.5,0.91c-1.38,0.88-3.13,0.58-3.36-1.6
		c-0.09-0.86,0.38-1.06-0.35-1c-0.44,0.04-1.03,0.91-1.57,1.05c-0.69,0.18-1.44,0.01-1.92-0.67c-0.18-0.25-0.29-0.57-0.38-0.88
		c-0.36-1.19,0.09-1-0.58-0.74c-0.06,0.04-0.13,0.07-0.21,0.08c-0.02,0-0.04,0.01-0.05,0.01c-1.29,0.37-2.57,1.62-3.89,2.08
		c-0.9,0.32-2.66,1.08-3.58,0.53c-0.22-0.13-0.36-0.46-0.54-0.57c-1.02-0.62-1.56-0.9-2.64-1.08c-2.45-0.43-4.61-1.77-6.5-3.73
		c-0.24-0.24-0.27-0.59-0.2-0.91c0.36-0.1,0.74-0.06,1.09,0.13c0.72-0.69,1.77-0.76,2.67,0.18c0.06,0.06,0.13,0.12,0.2,0.17
		c0.24-0.18,0.52-0.28,0.86-0.24c0.67,0.09,1.33,0.23,1.98,0.41c0.2,0.05,0.41,0.11,0.62,0.17c0.2,0.06,0.41,0.12,0.61,0.18
		c0.63,0.19,1.03,0.69,1.23,1.29c0.89-0.51,2.15-0.92,2.65-0.54c0.24-0.1,0.48-0.15,0.73-0.15c0.14,0.01,0.29,0.04,0.43,0.06
		c0.5-0.33,1.15-0.42,1.71-0.23c0.5-0.88,1.2-1.54,2.22-1.78c1.85-0.44,3.33,0.81,4.56,2.35c0.27-0.18,0.57-0.34,0.9-0.48
		c0.8-0.35,1.93,0.23,2.3,1.17c0.2,0.49,0.36,1.01,0.49,1.53c0.66-0.27,1.32-0.51,1.99-0.66c1.54-0.36,2.49,0.86,3.92,0.86
		c1.54,0,2.01-1.74,3.23-2.53c0.5-0.32,3.29-0.76,3.02,0.32c0.25-0.99,1.06-1.95,1.96-1.85c0.23,0.02,0.45,0.02,0.68-0.02
		c0.37-0.05,0.73-0.18,1.09-0.37c1.48-0.74,2.85-2.33,4.24-2.98c0.98-0.46,1.9-0.57,2.93-0.34c0.09,0.02,0.17,0.04,0.25,0.06h0
		c0.42,0.12,0.74,0.24,1.1,0.21c0.21-0.01,0.43-0.07,0.68-0.22c0.01,0,0.02-0.01,0.02-0.01c0.28-0.17,0.54-0.36,0.8-0.57
		c1.03-0.86,1.9-2,3.16-2.47c0.73-0.28,1.66-0.11,2.28-0.55c0.29-0.2,0.59-0.63,0.88-1.11c-0.15-0.14-0.3-0.26-0.47-0.34
		c0-0.01,0-0.01-0.01-0.01c-0.07-0.04-0.14-0.07-0.21-0.1c-0.15-0.06-0.31-0.1-0.49-0.12c-1.1-0.11-2.03,0.06-2.88-1.09
		c-0.74-1.01-1.16-2.48-1.65-3.67c-0.33-0.8-1.06-3.5-1.74-3.85c-0.21-0.11-1.21,0.16-1.5,0.09c-0.54-0.14-1.1-0.49-1.5-0.94
		c-0.3-0.35-0.54-0.88-0.71-1.33c-0.02-0.07-0.06-0.18-0.1-0.32c-0.05,0-0.11,0-0.18,0.01c-0.5,0.04-0.9,0.06-1.41-0.06
		c-0.84-0.2-1.6-0.7-2.12-1.57c-0.2-0.27-0.34-0.6-0.41-0.97c-0.04-0.09-0.07-0.18-0.1-0.25c-0.32,0.06-1.09,0.04-1.18,0.05
		c-1.48,0.05-2.72,0.67-4.14,1.03c-2,0.5-3.76-0.44-4.85-2.56c-0.34-0.67-0.56-1.87-1.01-2.5c0.16,0.32-0.59,0.2-0.92,0.24
		c-0.5,0.06-0.95,0.14-1.45,0.03c-0.4-0.09-0.75-0.24-1.06-0.44c0.38-0.03,0.75-0.25,1.27-0.68c0.39-0.33,0.83-0.72,1.3-0.87
		c0.71-0.23,1.4-0.09,1.98,0.48c0.11,0.11,0.2,0.23,0.28,0.36c0.04,0.06,0.07,0.13,0.1,0.19c0.34,0.73,0.37,1.65,0.83,2.2
		c1.04,1.25,3.89-0.88,4.91-1.38c0.84-0.42,2.03-1.34,2.99-1.04c0.86,0.27,0.67,1.07,1.18,1.64c0.47,0.51,1.41,0.02,2.01,0.76
		c0.67,0.81,0.72,1.8,1.16,2.51c0.18,0.31,0.43,0.56,0.83,0.74c0.11,0.05,0.23,0.09,0.37,0.13c1.31,0.35,4.09-1.43,4.53,1.42
		c0.1,0.64-0.25,1.06-0.22,1.62c0.04,0.81,0.16,0.58,0.89,0.6c0.87,0.03,1.83,0.12,2.55,0.8c0.83,0.8,1.21,2.18,0.88,3.32
		c0.02,0.02,0.04,0.05,0.06,0.07c0.22,0.28,0.29,0.71,0.5,0.97c0.84,1.08,0.95,0.67,1.65,0.88c1.31,0.4,2.72,0.49,3.55,2.03
		C87.12,28.9,84.62,31.22,82.32,31.22z"/>
	<path class="st3" d="M45.08,14.02c-0.04-0.17-0.14-0.27-0.26-0.33c-0.31-0.29-0.78-0.06-1.05,0.28c-0.24,0.31-0.42,0.72-0.47,1.15
		c-0.04,0.33,0.06,0.67,0.35,0.76c0.27,0.09,0.53-0.11,0.61-0.43c0.01-0.04,0.01-0.05,0.01-0.06c0-0.01,0.01-0.02,0.02-0.05
		c0,0,0.09-0.17,0.04-0.1c0.03-0.05,0.06-0.09,0.1-0.13c0.01-0.02,0.03-0.03,0.05-0.05c0,0,0.01,0,0.02-0.02
		c0.2-0.17,0.45-0.36,0.51-0.66C45.07,14.27,45.11,14.15,45.08,14.02z"/>
	<path class="st3" d="M47.28,15.19c-0.02-0.05-0.03-0.09-0.05-0.14c0-0.01,0-0.02-0.01-0.03c0,0,0,0.01,0,0.01c0,0,0,0,0-0.01
		c0,0,0,0,0,0.01l0,0.07c-0.01-0.07-0.02-0.15-0.02-0.22c0-0.04,0.01-0.1,0.01-0.1c0.04-0.52-0.4-0.9-0.77-0.83
		c-0.42,0.07-0.65,0.56-0.57,1.06c0.1,0.57,0.62,1.23,1.12,0.95C47.24,15.83,47.35,15.51,47.28,15.19z"/>
	<path class="st3" d="M48.35,17.33c-0.75,0-0.75,1.46,0,1.46C49.1,18.79,49.1,17.33,48.35,17.33z"/>
	<path class="st3" d="M47.04,22.97c-0.66,0-0.66,1.28,0,1.28C47.7,24.25,47.7,22.97,47.04,22.97z"/>
	<path class="st3" d="M39.07,23.54c-0.41,0-0.41,0.79,0,0.79C39.48,24.33,39.48,23.54,39.07,23.54z"/>
	<path class="st3" d="M36.46,19.58c-0.28,0-0.28,0.54,0,0.54C36.73,20.12,36.73,19.58,36.46,19.58z"/>
	<path class="st3" d="M37.76,14.78c-0.35,0-0.35,0.68,0,0.68C38.11,15.46,38.11,14.78,37.76,14.78z"/>
	<path class="st3" d="M33.29,15.71c0.05,0.17,0.08,0.31,0.2,0.41c0.05,0.04,0.12,0.04,0.17,0c0.12-0.1,0.16-0.25,0.2-0.41
		C34.04,15.11,33.12,15.1,33.29,15.71z"/>
	<path class="st3" d="M33.97,20.92c-0.75,0-0.75,1.46,0,1.46C34.72,22.38,34.73,20.92,33.97,20.92z"/>
	<path class="st3" d="M31.23,23.05c-0.75,0-0.75,1.46,0,1.46C31.98,24.5,31.98,23.05,31.23,23.05z"/>
	<path class="st3" d="M27.18,22.3c-0.68,0-0.68,1.32,0,1.32C27.86,23.62,27.86,22.3,27.18,22.3z"/>
	<path class="st3" d="M23.13,23.55c-0.24,0-0.24,0.46,0,0.46C23.36,24,23.36,23.55,23.13,23.55z"/>
	<path class="st3" d="M25.48,30.29c-0.03,0-0.03,0.05,0,0.05C25.5,30.33,25.5,30.29,25.48,30.29z"/>
	<path class="st3" d="M30.44,30.23c-0.75,0-0.75,1.46,0,1.46C31.2,31.69,31.2,30.23,30.44,30.23z"/>
	<path class="st3" d="M34.23,29.8c-0.03,0-0.03,0.05,0,0.05C34.26,29.84,34.26,29.8,34.23,29.8z"/>
	<path class="st3" d="M36.33,32.57c-0.03,0-0.03,0.05,0,0.05C36.35,32.62,36.35,32.57,36.33,32.57z"/>
	<path class="st3" d="M37.89,26.15c-0.41,0-0.41,0.8,0,0.8C38.31,26.95,38.31,26.15,37.89,26.15z"/>
	<path class="st3" d="M40.51,24.52c-0.75,0-0.75,1.46,0,1.46C41.26,25.97,41.26,24.52,40.51,24.52z"/>
	<path class="st3" d="M43.12,30.56c-0.75,0-0.75,1.46,0,1.46C43.87,32.02,43.87,30.56,43.12,30.56z"/>
	<path class="st3" d="M47.23,33.75c-0.01-0.09-0.03-0.18-0.04-0.27c-0.04-0.24-0.27-0.3-0.42-0.21c-0.07,0.04-0.15,0.09-0.22,0.13
		c-0.34,0.21-0.27,0.87,0.06,1.03C46.97,34.62,47.3,34.21,47.23,33.75z"/>
	<path class="st3" d="M49.92,28.93c-0.75,0-0.75,1.46,0,1.46C50.67,30.39,50.67,28.93,49.92,28.93z"/>
	<path class="st3" d="M53.19,23.37c-0.75,0-0.75,1.46,0,1.46C53.94,24.83,53.94,23.37,53.19,23.37z"/>
	<path class="st3" d="M54.62,23.97c-0.64,0-0.65,1.25,0,1.25C55.27,25.22,55.27,23.97,54.62,23.97z"/>
	<path class="st3" d="M53.44,13.07c-0.07-0.24-0.29-0.32-0.45-0.15c-0.17,0.19-0.23,0.51-0.31,0.76c-0.08,0.27,0.11,0.55,0.31,0.59
		c0.24,0.04,0.4-0.18,0.43-0.46C53.45,13.56,53.51,13.3,53.44,13.07z"/>
	<path class="st3" d="M57.11,10.81c-0.07,0-0.07,0.13,0,0.13C57.17,10.93,57.17,10.81,57.11,10.81z"/>
	<path class="st3" d="M63.38,17.03c-0.72,0-0.72,1.4,0,1.4C64.1,18.43,64.1,17.03,63.38,17.03z"/>
	<path class="st3" d="M65.03,22.73c-0.09,0.11-0.13,0.21-0.16,0.37c-0.02,0.1,0.09,0.21,0.15,0.11c0.09-0.13,0.13-0.23,0.15-0.41
		C65.18,22.71,65.08,22.67,65.03,22.73z"/>
	<path class="st3" d="M66.39,17.68c-0.22,0-0.22,0.43,0,0.43C66.6,18.11,66.6,17.68,66.39,17.68z"/>
	<path class="st3" d="M68.48,18.52c-0.03,0-0.03,0.05,0,0.05C68.5,18.57,68.5,18.52,68.48,18.52z"/>
	<path class="st3" d="M70.96,22.88c-0.75,0-0.75,1.46,0,1.46C71.71,24.34,71.71,22.88,70.96,22.88z"/>
	<ellipse class="st3" cx="74.23" cy="28.51" rx="0.57" ry="0.71"/>
	<path class="st3" d="M63.12,28.74c-0.31,0-0.62,0.35-0.6,0.75c0.01,0.41,0.26,0.75,0.6,0.75c0.31,0,0.62-0.35,0.6-0.75
		C63.71,29.09,63.46,28.74,63.12,28.74z"/>
	<path class="st3" d="M58.54,34.13c-0.44,0-0.44,0.85,0,0.85C58.98,34.98,58.98,34.13,58.54,34.13z"/>
	<path class="st3" d="M58.81,24.04c-0.24,0-0.24,0.46,0,0.46C59.04,24.49,59.04,24.04,58.81,24.04z"/>
	<path class="st3" d="M59.46,21.95c-0.03,0-0.03,0.05,0,0.05C59.48,22,59.48,21.95,59.46,21.95z"/>
	<path class="st3" d="M58.94,12.97c-0.03,0-0.03,0.05,0,0.05C58.96,13.02,58.96,12.97,58.94,12.97z"/>
	<path class="st3" d="M56.81,8.43c-0.08-0.02-0.11-0.11-0.1-0.2C56.74,8.3,56.78,8.36,56.81,8.43z"/>
	<path class="st3" d="M59.24,12.29c-0.12-0.16-0.27-0.15-0.43-0.18c-0.4-0.06-0.4,0.85,0,0.78c0.16-0.03,0.31-0.02,0.43-0.18
		C59.33,12.59,59.33,12.41,59.24,12.29z"/>
	<path class="st3" d="M66.78,11.8c-0.13-0.06-0.26-0.06-0.4-0.08c-0.47-0.07-0.47,0.99,0,0.92c0.13-0.02,0.27-0.02,0.4-0.08
		C67.08,12.42,67.08,11.93,66.78,11.8z"/>
	<path class="st3" d="M70.74,13.9c-0.03,0.33-0.22,0.64-0.56,0.64c-0.65,0-0.74-1.09-0.27-1.38C70.09,13.47,70.34,13.73,70.74,13.9z
		"/>
	<path class="st3" d="M71.87,15.86c-0.75,0-0.75,1.46,0,1.46C72.63,17.32,72.63,15.86,71.87,15.86z"/>
	<path class="st3" d="M75.14,18.2c-0.03,0-0.03,0.05,0,0.05C75.17,18.24,75.17,18.2,75.14,18.2z"/>
	<path class="st3" d="M76.97,21.09c-0.24,0-0.24,0.47,0,0.47C77.21,21.56,77.21,21.09,76.97,21.09z"/>
	<path class="st3" d="M80.64,24.62c-0.08-0.38-0.47-0.5-0.69-0.23c-0.22,0.27-0.12,0.77,0.18,0.86c0.11,0.04,0.2,0.1,0.32,0.1
		c0.15,0,0.27-0.15,0.27-0.34C80.72,24.87,80.67,24.76,80.64,24.62z"/>
	<path class="st3" d="M81.28,27.31c-0.4,0-0.4,0.78,0,0.78C81.69,28.09,81.69,27.31,81.28,27.31z"/>
	<path class="st3" d="M78.56,31.5c-0.19-0.1-0.37,0-0.49,0.2c-0.01,0.01-0.01,0.02-0.02,0.03c-0.06,0.11-0.06,0.32,0,0.43
		c0.01,0.01,0.01,0.02,0.02,0.03c0.1,0.18,0.26,0.29,0.44,0.22c0.17-0.06,0.29-0.26,0.29-0.47C78.8,31.75,78.7,31.57,78.56,31.5z"/>
	<path class="st3" d="M75.4,31.87c-0.75,0-0.75,1.46,0,1.46C76.15,33.33,76.16,31.87,75.4,31.87z"/>
	<path class="st3" d="M73.57,32.03c-0.75,0-0.75,1.46,0,1.46C74.32,33.49,74.33,32.03,73.57,32.03z"/>
	<path class="st3" d="M71.48,35.02c-0.03,0-0.03,0.05,0,0.05C71.51,35.07,71.51,35.02,71.48,35.02z"/>
	<path class="st3" d="M68.61,34.86c-0.03,0-0.03,0.05,0,0.05C68.63,34.91,68.63,34.86,68.61,34.86z"/>
	<path class="st3" d="M65.08,35.3c-0.75,0-0.75,1.46,0,1.46C65.83,36.76,65.83,35.3,65.08,35.3z"/>
	<path class="st3" d="M64.16,37.88c-0.28,0-0.28,0.55,0,0.55C64.45,38.43,64.45,37.88,64.16,37.88z"/>
	<path class="st3" d="M62.6,39.11c-0.03,0-0.03,0.05,0,0.05C62.62,39.16,62.62,39.11,62.6,39.11z"/>
	<path class="st3" d="M60.9,40.25c-0.03,0-0.03,0.05,0,0.05C60.92,40.3,60.92,40.25,60.9,40.25z"/>
	<path class="st3" d="M67.36,35.93c-0.02-0.01-0.03-0.02-0.05-0.03c-0.18-0.1-0.41,0.02-0.41,0.29c0,0.28,0.23,0.4,0.41,0.29
		c0.02-0.01,0.03-0.02,0.05-0.03C67.52,36.36,67.52,36.02,67.36,35.93z"/>
	<path class="st3" d="M69.39,34.51c-0.55,0-0.55,1.07,0,1.07C69.94,35.58,69.94,34.51,69.39,34.51z"/>
	<path class="st3" d="M54.88,41.2c-0.4,0-0.4,0.77,0,0.77C55.28,41.97,55.28,41.2,54.88,41.2z"/>
	<path class="st3" d="M50.44,40.92c-0.35,0-0.35,0.68,0,0.68C50.79,41.59,50.79,40.92,50.44,40.92z"/>
	<path class="st3" d="M46.52,39.49c-0.3,0-0.3,0.59,0,0.59C46.82,40.08,46.82,39.49,46.52,39.49z"/>
	<path class="st3" d="M44.69,38.78c-0.03,0-0.03,0.05,0,0.05C44.72,38.83,44.72,38.78,44.69,38.78z"/>
	<path class="st3" d="M42.08,39.45c-0.06,0.04-0.13,0.07-0.21,0.08c-0.02,0-0.04,0-0.06,0c-0.75,0-0.75-1.46,0-1.46
		C42.46,38.07,42.55,39.15,42.08,39.45z"/>
	<path class="st3" d="M37.5,40.25c-0.03,0-0.03,0.05,0,0.05C37.53,40.3,37.53,40.25,37.5,40.25z"/>
	<path class="st3" d="M34.23,38.58c-0.04,0-0.09,0.01-0.13,0.01c-0.05,0-0.05,0.1,0,0.1c0.04,0,0.09,0.01,0.13,0.01
		C34.3,38.71,34.3,38.57,34.23,38.58z"/>
	<path class="st3" d="M31.23,37.8c-0.03,0-0.03,0.05,0,0.05C31.25,37.85,31.25,37.8,31.23,37.8z"/>
	<path class="st3" d="M29.14,36.89c-0.12,0-0.12,0.24,0,0.24C29.26,37.13,29.26,36.89,29.14,36.89z"/>
	<path class="st3" d="M27.96,36.98c-0.03,0-0.03,0.05,0,0.05C27.99,37.03,27.99,36.98,27.96,36.98z"/>
	<path class="st3" d="M31.49,36.4c-0.62,0-0.62,1.21,0,1.21C32.11,37.61,32.11,36.4,31.49,36.4z"/>
	<path class="st3" d="M33.52,38.27c-0.1,0-0.2,0.03-0.3,0.06c-0.26,0.07-0.37,0.48-0.24,0.75c0.14,0.29,0.45,0.32,0.64,0.1
		c0.08-0.09,0.14-0.17,0.2-0.27C33.97,38.65,33.76,38.27,33.52,38.27z"/>
	<path class="st3" d="M34.31,33.81c-0.01-0.01-0.02-0.02-0.04-0.04c-0.19-0.2-0.41-0.2-0.6,0c-0.01,0.01-0.02,0.02-0.04,0.04
		c-0.34,0.34-0.04,1.02,0.34,1.02C34.36,34.83,34.65,34.15,34.31,33.81z"/>
	<path class="st3" d="M24.82,29.6c-0.56,0-0.56,1.09,0,1.09C25.39,30.69,25.39,29.6,24.82,29.6z"/>
	<path class="st3" d="M20.51,26.45c-0.44,0-0.44,0.86,0,0.86C20.95,27.31,20.96,26.45,20.51,26.45z"/>
	<path class="st3" d="M53.45,31.89c-0.4,0-0.4,0.77,0,0.77C53.84,32.65,53.84,31.89,53.45,31.89z"/>
	<path class="st3" d="M54.75,38.06c-0.43,0-0.43,0.84,0,0.84C55.19,38.9,55.19,38.06,54.75,38.06z"/>
	<path class="st3" d="M67.3,27.01c-0.37,0-0.37,0.71,0,0.71C67.67,27.73,67.67,27.01,67.3,27.01z"/>
	<path class="st3" d="M58.79,17.5c-0.08-0.07-0.17-0.11-0.26-0.16c-0.28-0.13-0.58,0.2-0.58,0.55c0,0.35,0.29,0.67,0.58,0.55
		c0.09-0.04,0.18-0.09,0.26-0.16C59.03,18.1,59.03,17.69,58.79,17.5z"/>
	<path class="st4" d="M87.5,19.89c-0.84-0.33-1.63-0.44-2.51-0.55c-0.62-0.08-1.45-0.41-2.05-0.12c-0.46,0.22-0.54,0.72-0.67,1.27
		c-0.3,1.29-0.53,2.08-1.42,2.95c-0.01,0.01-0.02,0.02-0.03,0.04c-0.14-0.12-0.31-0.3-0.53-0.58c-0.21-0.27-0.29-0.7-0.5-0.98
		c-0.02-0.03-0.04-0.05-0.06-0.07c0.33-1.15-0.04-2.54-0.88-3.34c-0.72-0.69-1.67-0.78-2.55-0.81c-0.73-0.03-0.85,0.2-0.89-0.61
		c-0.03-0.56,0.32-0.99,0.22-1.63c-0.44-2.86-3.22-1.08-4.54-1.43c-1.75-0.46-1.32-2.14-2.35-3.4c-0.61-0.74-1.55-0.26-2.02-0.77
		c-0.52-0.57-0.32-1.38-1.18-1.65c-0.97-0.31-2.15,0.63-2.99,1.05c-0.79,0.39-2.69,1.77-3.99,1.78c0.94-1.85,1.84-3.73,2.69-5.65
		c0.62,0.36,1.25,0.62,1.94,0.8c0.18,0.05,0.38,0.01,0.51-0.17c1.26-1.81,2.56-3.54,3.85-5.31c0.22-0.31-0.12-0.74-0.36-0.45
		c-1.32,1.52-2.6,3.04-3.94,4.53c-0.67-0.41-1.29-0.88-1.92-1.42c-0.33-0.29-0.82-0.07-1.01,0.33c-1.03,2.18-1.98,4.4-2.88,6.67
		c-0.39-0.75-0.38-1.85-1.02-2.49c-0.58-0.58-1.27-0.72-1.98-0.48c-0.47,0.16-0.9,0.55-1.3,0.87c-0.03,0.03-0.06,0.04-0.09,0.07
		c-0.1-0.23-0.21-0.46-0.31-0.7c-0.42-0.96-0.83-1.91-1.16-2.92c-0.1-0.32-0.51-0.2-0.43,0.15c0.29,1.18,0.55,2.77,1.1,3.99
		c-0.53,0.22-0.97,0.1-1.72-0.28c-0.48-0.24-0.78-0.52-1.34-0.36c-0.75,0.23-1.1,1.41-1.74,1.65c-0.57,0.21-1.06-0.3-1.59-0.6
		c-0.22-1.21-0.91-2.16-1.45-3.23c0.54-0.17,1.07-0.34,1.6-0.54c0.16-0.06,0.3-0.26,0.29-0.48c-0.08-1.67-0.3-3.25-0.69-4.85
		c-0.09-0.36-0.5-0.21-0.44,0.15c0.16,1.02,0.43,2.26,0.33,3.32c-0.13,1.38-0.67,1.24-1.81,1.43c-0.28,0.05-0.57,0.34-0.45,0.74
		c0.32,1.12,0.59,2.52,1.13,3.57c-0.96,0.69-1.18,2.03-2.83,1.71c-1.06-0.2-2-0.92-3.02-0.07c-0.45,0.38-0.7,0.87-0.79,1.43
		c-0.08,0-0.15-0.01-0.23-0.01c0.44-0.92,0.68-2.12,0.98-2.99c0.12-0.36-0.29-0.69-0.44-0.32c-0.3,0.77-0.65,1.48-1.02,2.2
		c-0.18,0.36-0.36,0.7-0.48,1.07c-1.2-0.05-2.4-0.1-3.6-0.15c-0.26-0.01-0.57-0.06-0.91-0.11c-0.17-0.97-0.85-1.86-1.29-2.65
		c-0.67-1.22-1.42-2.39-2.03-3.65c-0.12-0.25-0.39-0.03-0.3,0.22c0.54,1.54,0.89,3.2,1.39,4.76c0.13,0.4,0.26,0.81,0.41,1.19
		c-0.32,0.03-0.6,0.11-0.83,0.28c-1.51,1.09-0.02,3.35,1.01,4.53c-0.22,0.35-0.27,0.84,0.08,1.22c0.81,0.88-2.1,0.9-1.95,0.89
		c-0.33,0.01-0.65,0.02-0.98,0.02c0-0.08-0.01-0.15-0.03-0.22c-0.04-0.17-0.14-0.35-0.21-0.51c-0.15-0.36-0.29-0.71-0.39-1.09
		c-0.09-0.36-0.48-0.21-0.44,0.15c0.05,0.42,0.12,0.84,0.25,1.23c0.06,0.19,0.13,0.33,0.21,0.46c-0.05,0-0.1,0-0.15,0l-3.85,0.09
		c-0.55,0.01-0.84,0.61-0.76,1.24c0.09,0.7,0.18,1.4,0.27,2.11c-0.61,0.2-1.2,0.47-1.75,0.81c0.13-0.8,0.19-1.64,0.31-2.4
		c0.14-0.92-0.6-1.81-1.32-1.27c-0.21,0.06-0.42,0.12-0.62,0.19c-0.21-1.62-0.09-3.29-0.36-4.9c-0.05-0.32-0.47-0.32-0.52,0
		c-0.3,1.89-0.08,3.83-0.48,5.7c-0.12,0.55,0.15,0.98,0.54,1.19c0.22,0.12,0.44,0.19,0.64,0.23c-0.22,1-0.39,2.03-0.19,2.97
		c-0.18,0.2-0.36,0.41-0.54,0.64c-0.25,0.32-0.3,0.81-0.12,1.19c1.02,2.24,2.43,3.91,4.2,5.04c-0.43,0.39-0.86,0.77-1.29,1.16
		c-0.46,0.41-0.51,1.31-0.03,1.68c-0.65-0.1-1.33-0.37-1.97-0.41c-0.86-0.06-1.64,0.09-2.48,0.3c-0.35,0.09-0.24,0.7,0.08,0.73
		c0.86,0.08,1.73,0.22,2.58,0.35c0.75,0.12,1.57,0.52,2.31,0.5c0.19,0,0.42-0.13,0.5-0.36c0.08-0.23,0.13-0.47,0.16-0.72
		c0.8,0.22,1.61,0.4,2.42,0.53c-0.19,0.38-0.22,0.88,0.09,1.2c1.25,1.3,2.61,2.33,4.1,3c-0.04,0.05-0.07,0.1-0.11,0.15
		c-0.38,0.55-0.57,1.09-0.71,1.78c-0.07,0.33,0.27,0.6,0.47,0.34c0.33-0.44,0.66-0.86,0.97-1.33c0.1-0.15,0.25-0.35,0.38-0.56
		c0.46,0.15,0.92,0.28,1.4,0.37c1.08,0.19,1.61,0.47,2.64,1.09c0.18,0.11,0.32,0.44,0.54,0.57c0.44,0.27,1.07,0.23,1.7,0.09
		c0.07,0.81,0.54,1.61,0.82,2.31c0.53,1.32,0.66,2.75,1.35,3.99c0.15,0.27,0.55,0.12,0.45-0.24c-0.29-1.14-0.35-2.34-0.65-3.48
		c0.2,0.03,0.42-0.03,0.62-0.24c0.38-0.4,0.9-0.55,1.3-0.92c0.27-0.25,0.48-0.62,0.73-0.92c0.27,0.87,0.63,1.66,1.03,2.47
		c0.09,0.19,0.36,0.07,0.29-0.15c-0.32-1.03-0.52-2.11-0.81-3.16c-0.05-0.17-0.18-0.34-0.34-0.33c-0.62,0.07-1.02,0.46-1.59,0.71
		c-0.56,0.24-1.05,0.34-1.53,0.73c-0.1-0.4-0.22-0.81-0.39-1.16c0.23-0.08,0.44-0.16,0.62-0.22c1.33-0.47,2.61-1.73,3.89-2.1
		c1.03-0.3,0.44-0.66,0.84,0.66c0.09,0.31,0.2,0.63,0.38,0.88c0.49,0.68,1.23,0.85,1.92,0.67c0.53-0.14,1.12-1.02,1.57-1.05
		c0.73-0.06,0.26,0.14,0.35,1.01c0.23,2.19,1.99,2.49,3.36,1.61c0.69-0.44,1.19-1.26,2-1.12c-0.25,0.21-0.48,0.47-0.75,0.73
		c-0.55,0.54-1.12,1.04-1.7,1.54c-0.98,0.85-1.55,1.66-2.2,2.89c-0.12,0.24,0.14,0.43,0.29,0.28c0.96-0.95,2.03-1.7,3.04-2.54
		c0.72-0.6,1.75-1.35,2.22-2.31c0.22,0.29,0.43,0.63,0.67,0.83c0.81,0.67,1.69,0.72,2.62,0.38c1.05-0.4,1.8-1.32,2.63-2.16
		c0.83-0.84,0.88-0.96,1.7-0.53c0.3,0.16,0.53,0.39,0.87,0.49c0.3,0.09,0.58,0.11,0.85,0.08c0,0.08,0,0.16,0,0.25
		c0,0.54-0.01,1.07-0.02,1.61c-0.01,0.42,0.54,0.54,0.6,0.1c0.08-0.54,0.13-1.06,0.14-1.61c0-0.18,0.01-0.37-0.01-0.55
		c0.94-0.47,1.6-1.64,2.02-2.89c0.82,0.53,1.78,0.64,2.69,0.19c0.6-0.3,0.94-0.74,1.37-1.32c0.52-0.71,0.28-1.72,1.53-1.77
		c0.11,0,0.24,0.04,0.37,0.1c-0.34,0.39-0.69,0.78-1.02,1.17c-0.25,0.29-0.26,0.87,0,1.15c0.48,0.53,0.98,1.06,1.52,1.51
		c-0.95,1.69-2,3.28-2.94,4.98c-0.13,0.23,0.15,0.49,0.3,0.29c1.23-1.63,2.33-3.41,3.58-5.04c0.13-0.16,0.18-0.47,0.07-0.67
		c-0.32-0.58-0.71-1.11-1.11-1.62c0.32-0.35,0.65-0.7,0.97-1.06c2.45,0.85,4.97-1.1,4.77-4.21c1.16,0.37,2.29,1.21,3.45,0.82
		c0.75,0.78,1.69,1.26,2.64,1.51c0.32,0.09,0.52-0.45,0.23-0.67c-0.63-0.49-1.22-1.05-1.81-1.61c0.29-0.37,0.46-0.82,0.52-1.3
		c2.3,0,4.81-2.34,3.15-5.43c-0.79-1.48-2.11-1.63-3.37-1.99c0.63-0.72,0.91-1.57,1.1-2.8c0.04-0.29,0.01-0.52,0.21-0.67
		c0.15-0.11,1.15,0.13,1.33,0.15c0.91,0.1,1.75,0.19,2.65,0.06C87.73,20.54,87.82,20.01,87.5,19.89z M82.52,25.89
		c0.38,0.12,0.81,0.18,1.12,0.52c0.75,0.3,0.64,0.85-0.34,1.66c-0.24,1.35-0.78,1.72-1.62,1.11c-0.72-0.27-1.14,0.71-0.89,1.44
		c0.55,1.61-2.74,0.08-2.9,0.02c-0.56-0.21-1.02-0.28-1.6-0.26c-0.46,0.02-0.95,0.62-0.76,1.24c0.39,1.28,0.13,2.87-1.07,3.37
		c-0.7,0.29-1.44-0.1-2.07-0.41c-0.76-0.37-1.52-0.86-2.37-0.66c-0.6,0.15-0.96,0.54-1.35,1.11c-0.34,0.49-0.4,1.25-0.78,1.7
		c-0.74,0.88-1.87,0.65-2.52-0.21c-0.41-0.54-1.16-0.27-1.31,0.43c-0.21,1.01-0.65,3.15-1.86,2.98c-0.76-0.1-0.64-0.75-1.18-0.99
		c-0.46-0.21-0.78-0.16-1.23,0.01c-0.78,0.29-1.42,1.12-2.04,1.73c-0.56,0.55-1.23,1.43-1.99,1.54c-1.2,0.17-1.53-0.95-2.28-1.59
		c-0.53-0.44-1.07-0.66-1.72-0.53c-1.02,0.2-1.7,1.62-2.7,1.17c-1.03-0.47-0.24-1.09-0.75-2.12c-0.27-0.55-0.8-0.84-1.31-0.81
		c-0.94,0.06-1.38,1.24-2.33,0.95c-1.01-0.32-0.48-1.14-1.17-1.9c-1.27-1.4-3.59,1.3-4.71,1.84c-1.02,0.49-2.99,1.46-3.97,0.71
		c-0.65-0.5-0.89-0.95-1.72-1.16c-1.17-0.29-2.35-0.25-3.5-0.71c-1.12-0.45-2.15-1.12-3.09-1.97c0.15-0.14,0.3-0.27,0.46-0.41
		c0.64-0.57,0.41-1.76-0.4-1.83c-1.12-0.1-2.22-0.29-3.31-0.56c0.33-0.29,0.65-0.59,0.98-0.88c0.56-0.5,0.47-1.5-0.19-1.79
		c-1.82-0.81-3.25-2.25-4.29-4.23c1.1-1.23,2.31-1.95,3.82-2.3c0.45-0.1,0.61-0.72,0.55-1.21c-0.08-0.63-0.17-1.27-0.25-1.9
		c1.33-0.03,2.65-0.06,3.98-0.09c0.98-0.02,2.2,0.16,3.11-0.38c1.11-0.66,1.66-2.32,0.91-3.53c0.19-0.42,0.18-1.03-0.21-1.4
		c-0.45-0.39-0.8-0.89-1.07-1.47c0.07,0,0.14,0,0.23-0.01c0.81,0.13,1.67,0.07,2.49,0.1l5.24,0.22c0.52,0.02,0.88-0.64,0.76-1.24
		c-0.21-1.07,2.56,0.04,2.83,0.07c0.3,0.04,0.62,0.06,0.91-0.02c0.45-0.13,0.81-0.4,1.16-0.78c0.27-0.29,0.6-1.17,0.91-1.27
		c0.68-0.22,1.39,1.05,2.22,0.9c0.86-0.16,1.1-1.16,1.81-1.53c0.93-0.49,0.2-0.19,0.9,0.22c0.36,0.21,0.62,0.52,1.02,0.61
		c1,0.23,1.88-0.54,2.65-1.22c0.27-0.24,0.54-0.47,0.81-0.71c0.79-0.28,1.24,0.03,1.34,0.92c0.24,0.43,0.29,1.03,0.54,1.47
		c0.47,0.85,1.08,1.24,1.9,1.27c1.25,0.04,2.52-0.91,3.65-1.47c0.5-0.25,2.23-1.53,2.72-1.36c0.93,0.32,0.24,0.41,0.74,1.03
		c0.77,0.94,1.04,0.3,1.89,0.7c0.77,0.37,1.16,2.4,1.81,3.16c0.68,0.78,1.53,1.28,2.47,1.19c0.45-0.04,0.97-0.51,1.39-0.5
		c1.7,0.06,0.74,0.67,0.69,1.67c-0.04,0.89,0.21,1.56,0.89,1.93c0.57,0.31,5.17,0.29,3.45,2.06c-0.57,0.58-0.06,1.62,0.55,1.67
		c0.24,0.02,0.56,1.11,0.73,1.35c0.37,0.52,0.74,0.77,1.28,0.95C81.21,25.71,81.88,25.68,82.52,25.89z"/>
</g>
</svg>
