<?xml version="1.0" encoding="utf-8"?>
<!-- Generator: Adobe Illustrator 25.2.3, SVG Export Plug-In . SVG Version: 6.00 Build 0)  -->
<svg version="1.1" id="Layer_1" xmlns="http://www.w3.org/2000/svg" xmlns:xlink="http://www.w3.org/1999/xlink" x="0px" y="0px"
	 viewBox="0 0 156 156" style="enable-background:new 0 0 156 156;" xml:space="preserve">
<style type="text/css">
	.st0{fill:#9E8D85;}
	.st1{fill:#9EC900;}
	.st2{fill:#7F6F6A;}
	.st3{fill:#544745;}
	.st4{fill:#C8D60D;}
	.st5{fill:#80AF00;}
</style>
<g>
	<path class="st0" d="M157.74,140.24v-71.3c-1.23-0.06-2.46-0.13-3.69-0.2c-1.48-0.45-2.94-1.13-4.28-1.64
		c-2.68-1.02-5.4-1.87-8.17-2.61c-5.45-1.45-11.02-2.57-16.24-4.76c-8.6-3.61-16.25-9.52-22.08-16.77
		c-5.78-7.2-9.15-15.7-11.55-24.54c-1.26-4.66-2.09-9.45-3.45-14.07c-0.61-2.05-1.56-3.92-2.89-5.4h-66.1
		c-1.07,11.47-0.09,22.7,2.91,33.88c2.98,11.08,6.8,22,12.57,31.96c5.53,9.53,11.44,18.95,18.96,27.06c3.2,3.44,6.6,6.67,10.12,9.78
		c-0.32,0.87-0.37,1.85-0.09,2.79l0.01,0.01c0.2,0.65,0.57,1.28,1.13,1.84c0.15,0.16,0.32,0.31,0.51,0.45
		c6.75,5.2,14.99,9.01,22.62,12.74c7.45,3.63,15.05,6.94,22.69,10.16c8.06,3.39,16.19,6.73,24.75,8.64
		C142.78,139.87,150.26,140.48,157.74,140.24z"/>
	<path class="st1" d="M157.74,117.92v-29.8c-2.76-0.17-5.49-0.13-8.26,0.18c-0.66-0.57-1.55-0.92-2.68-0.89
		c-1.94,0.05-4.16,0.25-6.02-0.47c-1.38-0.53-2.41-1.64-3.66-2.39c-3.31-1.96-7.38-2.17-11.09-2.72c-1.57-0.23-3.37-0.29-4.8-1.01
		c-1.45-0.72-2.55-2.04-3.99-2.82c-2.73-1.49-5.8-1.86-8.77-2.57c-3.58-0.87-4.89-3.02-7.17-5.68c-1.11-1.29-2.42-2.36-3.88-3.21
		c-1.17-0.68-2.71-1.08-3.73-1.97c-1.99-1.74-1.61-5.63-3.06-7.9c-1.14-1.77-2.79-2.87-4.65-3.43c-0.84-2.22-2.25-4.28-3.53-6.22
		c-0.93-1.39-6.21-6.94-5.2-8.41c1.5-2.19-0.08-5.27-2.46-5.89c-0.22-0.47-0.45-0.93-0.69-1.38c-0.8-1.44-1.73-2.7-2.3-4.18
		c0.17-0.62,0.15-1.32-0.1-2.05c-0.74-2.11-1.49-4.21-2.22-6.33c-0.67-1.94-0.48-2.67-0.29-4.63c0.18-2.02-0.58-3.87-0.89-5.84
		c-0.37-2.29-0.34-4.69,0.02-6.97c0.15-0.91,0-1.72-0.34-2.4h-29.5c-0.07,0.56-0.06,1.13,0.05,1.67c-0.13,1.58,0.16,3.16,0.83,4.63
		c-1.91,3.12-1.97,7.46-0.96,10.86c0.74,2.5,2.73,4.66,3.17,7.21c0.47,2.64-0.53,5.35,0.01,8.05c0.5,2.52,1.92,4.53,3.2,6.71
		c1.38,2.37,2.33,4.91,3.33,7.46c1.89,4.82,3.99,9.55,7.98,13.02c0.18,0.16,0.37,0.3,0.56,0.42c-0.29,3.89,1.36,7.83,4.53,10.44
		c2.37,1.95,4.97,2.93,6.79,5.54c1.7,2.44,2.7,5.29,4.58,7.62c1.65,2.06,3.87,3.3,5.92,4.89c2.03,1.56,2.87,3.88,4.36,5.9
		c3.24,4.4,8.64,5.76,13.26,8.26c4.59,2.49,9.13,5.43,14.27,6.68c0.81,0.75,1.64,1.49,2.54,2.08c2.06,1.35,4.37,1.07,6.71,1.44
		c2.54,0.4,4.79,1.38,7.13,2.38c2.44,1.04,4.85,1.32,7.47,1.58c2.68,0.27,5.13,1.49,7.82,1.65c2.4,0.15,4.67-0.44,7.09-0.12
		C152.12,117.72,154.93,118.02,157.74,117.92z"/>
	<path class="st2" d="M157.74,144.03v-10.15c-0.44-0.06-0.88-0.75-1.32-0.78c-0.43-0.02-0.89,0.04-1.34,0.12
		c-0.34-0.09-0.73-0.07-1.12,0.1c-2.57,1.16-6.5,1.74-9.31,1.92c-2.79,0.18-4.82-1.36-7.4-2.05c-2.12-0.56-4.22-0.57-6.38-0.36
		c-2.68,0.26-4.56-0.66-6.82-1.48c-0.1-0.26-0.26-0.48-0.49-0.64c-1.53-1.05-3.21-2.32-4.93-3.05c-1.74-0.74-3.4-0.57-5.23-0.58
		c-5.4-0.02-7.68-4.36-12.05-6.59c-1.77-0.9-3.3-0.97-5.23-1.07c-1.58-0.07-2.86,0-4.14-1.22c-0.69-0.66-1.05-1.54-1.64-2.28
		c-1.75-2.16-4.88-2.74-7.67-2.92c-0.15-0.43-0.47-0.78-0.97-0.88c-3.99-0.82-4.52-5.32-7.95-7.07c-1.84-0.94-3.94-0.3-5.3-2.13
		c-1.04-1.39-1.53-3.06-2.84-4.26c-1.24-1.14-2.84-1.47-4.28-2.24c-2.16-1.15-2.51-3.67-3.54-5.7c-0.83-1.64-1.96-3.7-3.66-4.39
		c-0.04-0.6-0.38-1.19-1.08-1.46c-1.7-0.65-3.43-0.83-4.56-2.4c-0.88-1.22-0.95-2.57-1.29-3.98c-0.5-2.02-1.33-2.71-3.01-3.77
		c-3.36-2.11-3.42-6.06-4.79-9.41c-0.48-1.18-0.97-2.12-1.94-2.73c0.26-0.4,0.3-0.93-0.07-1.45c-1.34-1.87-3.47-3.23-4.58-5.23
		c-1.27-2.28-0.53-5.55-1.37-8.09c-0.76-2.31-2.03-3.67-3.62-5.42c-2.03-2.25-2.82-4.96-3.15-7.87c0.15-0.12,0.29-0.3,0.4-0.53
		c1.06-2.13,0.67-3.57,0-5.78c-0.85-2.81-1.45-5.68-2.01-8.56c-0.6-3.07-1-5.71-0.31-8.8c0.38-1.71,0.64-3.34,0.34-5
		c0.94-1.02,0.44-2.62,0.4-3.91c-0.03-0.98,0.09-2.03-0.01-3.03H13.11C13.1-0.99,13.1-0.93,13.1-0.87c-0.09,0.54,0,1.12,0.2,1.75
		c0.02,0.34,0.04,0.69,0.06,1.03c-2.61,4.73-0.94,8.65,0.84,13.75c1.29,3.71,0.96,7.08,0.39,10.91c-0.31,2.03-0.3,3.67,1.13,5.25
		c0.15,0.17,0.32,0.29,0.49,0.37c0.06,0.27,0.12,0.54,0.18,0.79c0.72,2.85,0.28,5.61,1.51,7.98c-0.37,1.26,0.01,2.35,1.02,3.35
		c1.41,1.38,2.5,0.85,2.91,3.39c0.16,0.96-0.11,2.04,0.01,3.03c0.21,1.89,0.93,3.67,2.08,5.18c0.57,0.75,1.32,1.29,1.91,2
		c1,1.21,1.07,2.31,1.24,3.77c0.2,1.82,1.13,2.81,2.38,4.04c2.17,2.13,2.35,3.7,2.93,6.57c0.5,2.42,2,3.7,4.01,3.61
		c0.79,1.62,1.39,2.97,1.73,4.95c0.28,1.6,0.59,3.03,1.61,4.33c2.43,3.1,6.22,5.53,9.21,8.07c1.64,1.39,3.23,2.72,4.37,4.57
		c0.87,1.42,1.21,3.14,2.08,4.52c1.6,2.52,5.07,1.91,7.36,3.28c0.17,0.12,0.34,0.24,0.51,0.36c0.07,0.06,0.15,0.11,0.21,0.18
		c0.01,1.84,0.91,4.03,2.4,5.16c0.94,0.72,1.93,0.71,3,0.96c0.25,0.18,0.52,0.26,0.8,0.26c1.35,0.59,2.56,1.87,3.38,3.09
		c1.15,1.72,1.16,3.97,2.99,5.21c0.81,0.56,1.7,0.66,2.66,0.84c1.83,0.34,2.62,0.86,3.9,2.05c1.84,1.7,4.4,1.64,6.65,2.44
		c3.06,1.08,3.79,3.66,6.07,5.57c1.88,1.59,3.33,1.08,5.5,0.56c1.78-0.42,4.34-0.66,6.45-0.17c2.7,4.5,7.39,8.16,12.74,7.43
		c3.63-0.49,6.94-0.23,10.38,1.11c2.24,0.86,4.94,3.39,7.48,3.12c1.79-0.19,2.78-1.35,4.83-0.85c1.14,0.28,2.1,1.12,3.29,1.35
		c1.31,0.26,2.4-0.01,3.68-0.27c1.73-0.36,3.14-0.26,4.88-0.08C155.45,144.02,156.64,144.16,157.74,144.03z"/>
	<path class="st2" d="M157.74,73.35V63.01c-1.18-0.02-2.57,0.31-3.7,0.55c-0.25-0.3-0.63-0.5-1.16-0.45
		c-1.64,0.12-2.99-1.37-4.69-1.38c-1.97-0.01-3.49,0.85-5.47-0.04c-1.53-0.69-2.81-1.43-4.48-1.71c-1.08-0.18-2.46-0.14-3.46-0.66
		c-0.7-0.36-1.16-1.12-1.82-1.53c-1.65-1.04-2.73-0.38-4.49-0.83c-2.25-0.58-2.46-3.41-3.8-4.88c-1.78-1.96-4.63-1.43-6.98-2.2
		c0-0.23-0.07-0.47-0.24-0.68c-1.28-1.7-1.47-3.64-3.62-4.53c-1.64-0.68-2.01-0.64-3.14-2.3c-0.53-0.77-1-1.45-1.74-2.05
		c-0.96-0.78-2.14-1.18-3.19-1.83c-1.46-0.9-2.1-2.21-2.63-3.79c-0.67-1.98-0.56-4.52-1.97-6.19c-0.79-0.94-1.97-1.23-2.08-2.68
		c-0.07-0.91,0.49-1.61,0.21-2.62c-0.18-0.66-0.54-1.22-1.04-1.68c-0.7-0.65-1.94-0.72-2.55-1.31c-1.59-1.53,1.73-2.85,1.13-4.63
		c-0.4-1.2-2.31-0.89-2.96-1.61c1.12-1.75,2.3-4.04,1.58-5.84c-0.54-1.35-1.62-1.89-1.81-3.46c-0.21-1.78,0.22-3.83,0.41-5.61
		c0.01-0.05,0.01-0.1,0.01-0.15H83.65c-0.1,1.16,0,2.34,0.07,3.5c0.06,0.97,0,1.99,0.21,2.93c-0.07,1.15-0.07,1.8,0.12,3.04
		c0.29,1.94-0.53,3.24-0.69,5.05c-0.09,1.03,0.2,2.68,1.1,3.38c0.02,0.04,0.02,0.09,0.04,0.14c0.77,1.96,2.73,2.51,3.71,4.32
		c1.31,2.45,0.78,5.53,1.59,8.15c0.65,2.09,1.81,3.98,3.28,5.61c1.28,1.42,2.55,2.36,2.82,4.4c0.11,0.83,0.1,1.68,0.31,2.51
		c0.42,1.63,1.35,2.85,2.83,3.69c0.85,0.47,1.81,0.71,2.74,0.89c0.59,0.08,1.19,0.16,1.79,0.25c1.56,0.9,2.27,2.13,2.13,3.67
		c1.13,3.91,4.86,5.67,8.66,6.46c0.99,3,4.36,6.38,7.07,7.68c1.35,0.64,2.88,0.99,4.37,0.69c0.27-0.05,0.59-0.21,0.93-0.36
		c0.73,0.17,1.51,0.04,2.17-0.3c1.31,0.25,1.86,1.19,2.82,2.22c2.7,2.89,5.5,3.49,9.32,2.87c1.69-0.28,3.16-0.24,4.66,0.61
		c0.55,0.31,1.02,0.88,1.58,1.19c1.02,0.58,1.98,0.87,3.03,0.81c1.01,0.58,2.46,0.51,3.58,0.58
		C155.06,73.02,156.46,73.39,157.74,73.35z M93.97,16.62c-0.11,0.16-0.22,0.31-0.34,0.47c-0.04-0.13-0.09-0.26-0.15-0.39
		c-0.05-0.1-0.12-0.18-0.19-0.26C93.52,16.5,93.76,16.57,93.97,16.62z"/>
	<path class="st3" d="M157.74,144.9v-2.45c-1.89-0.36-3.8-0.63-5.73-0.49c-0.97,0.07-1.9,0.26-2.85,0.4
		c-1.96,0.31-3.12,0.06-4.91-0.83c-1.29-0.64-2.55-1.33-4.06-1.1c-1.43,0.21-2.22,1.75-3.61,1.72c-0.95-0.02-2.92-1.69-3.82-2.13
		c-0.75-0.37-1.51-0.71-2.29-1.02c-2.1-0.83-4.3-1.42-6.56-1.53c-1.92-0.1-3.75,0.32-5.64,0.59c-3.21,0.47-5.14-0.26-7.14-2.6
		c-1.83-2.15-3.49-4.56-6.53-4.85c-1.84-0.18-3.5,0.51-5.27,0.86c-3.46,0.68-4.36-1.64-6.13-3.82c-1.02-1.26-2.23-2.25-3.74-2.9
		c-1.61-0.69-4.26-0.32-5.52-1.62c-0.4-0.41-0.46-1.32-0.93-1.81c-0.39-0.41-0.95-0.7-1.46-0.91c-1.05-0.43-6.4-0.25-5.91-1.91
		c0.15-0.5-0.02-0.91-0.31-1.18c-0.03-0.04-0.06-0.08-0.09-0.12c-0.88-3.13-2.18-5.46-5.62-6.08c-1.47-0.26-3.53-0.01-4.24-1.69
		c-0.29-0.69-0.12-1.64-0.27-2.37c-0.06-0.28-0.13-0.55-0.21-0.81c-0.23-0.71-0.57-1.33-1.13-1.84l-0.01-0.01
		c-0.16-0.14-0.34-0.27-0.53-0.39c-1.1-0.69-2.49-0.72-3.74-0.83c-0.73-0.06-1.67,0.04-2.34-0.31c-1.76-0.9-1.33-2.42-1.83-3.89
		c-0.56-1.7-1.78-2.55-3.04-3.74c-1.57-1.47-2.76-3.27-4.35-4.73c-3.76-3.45-8.41-5.59-8.94-11.22c-0.13-1.37-0.09-2.76-1.18-3.78
		c-1.34-1.24-3.34-0.36-3.66-2.35c-0.09-0.54,0.32-1.57,0.25-2.2c-0.07-0.76-0.31-1.48-0.65-2.16c-0.9-1.82-2.52-2.71-3.84-4.16
		c-1.42-1.53-0.28-1.83-0.48-3.63c-0.15-1.35-0.91-2.29-2.04-2.99c-0.04-0.21-0.14-0.41-0.32-0.59c-1.02-1.04-2.08-1.91-2.69-3.22
		c-0.91-1.97-0.7-3.96-0.72-6.03c-0.01-1.81-0.36-3.38-1.94-4.45c-0.74-0.5-1.64-0.59-2.38-1.04c-1.68-1-0.59-2.35-0.27-3.98
		c0.38-1.91,0.41-3.95-0.64-5.65c-0.97-1.58-2.32-2.54-2.6-4.51c-0.21-1.53,0.16-3.08,0.33-4.59c0.31-2.81,0.07-5.52-0.37-8.3
		c-0.31-1.94-1.51-3.41-1.7-5.17c-0.17-1.61-0.32-2.89-1.13-4.14c0.77-1.03,1.91-1.76,1.99-3.21c0.03-0.5-0.18-0.95-0.25-1.42
		c-0.13-0.84-0.09-1.81-0.09-2.76h-2.44c0.04,1.21,0.13,2.66,0.06,3.68c-0.09,1.28-1.26,1.98-1.81,3.16
		c-0.25,0.52-0.2,1.05,0.2,1.48c1.54,1.73,0.59,4.07,1.67,5.97c1.49,2.62,1.75,5.97,1.58,9.01c-0.14,2.41-0.85,4.85-0.41,7.27
		c0.55,2.98,3.39,4.53,3.33,7.72c-0.04,1.84-1.75,4.19-0.86,6c0.85,1.75,3.1,1.23,4.25,2.41c1.97,2.05,0.75,6.62,1.72,9.27
		c0.64,1.76,2.16,2.97,3.44,4.26c0.08,0.08,0.16,0.14,0.25,0.2c0.06,0.29,0.23,0.57,0.55,0.77c1.71,1.05-0.25,2.95,0.25,4.34
		c0.47,1.29,2.19,2.19,3.17,3.08c0.89,0.81,2,1.81,2.3,3.06c0.54,2.26-0.58,1.75-0.48,3.24c0.07,1.01,0.33,1.7,1.16,2.32
		c0.49,0.36,1.01,0.43,1.56,0.67c1.43,0.61,2.07,0.92,2.47,2.48c0.4,1.59,0.26,2.92,1.05,4.48c1.82,3.58,5.32,5.56,8.23,8.12
		c1.64,1.44,2.84,3.23,4.39,4.74c0.78,0.76,1.62,1.32,2.23,2.24c0.7,1.07,0.65,1.94,1.01,3.12c0.76,2.49,2.56,3.31,5.02,3.56
		c0.74,0.07,1.48,0.05,2.21,0.19c1.91,0.38,1.7,1.54,2.17,3.23c0.31,1.12,0.4,2.08,1.26,2.93c0.88,0.86,2.14,1.19,3.31,1.39
		c1.48,0.25,2.82,0.21,3.94,1.32c0.96,0.94,1.24,2.18,1.59,3.44c0.02,0.09,0.06,0.16,0.09,0.23c0.02,0.09,0.06,0.17,0.1,0.26
		c-0.47,3.17,3,3.55,5.45,3.9c1.18-0.17,2.17,0.27,3,1.32c0.09,0.28,0.2,0.56,0.31,0.83c0.32,0.37,0.55,0.81,0.98,1.12
		c1.43,0.99,3.39,0.55,4.97,1.04c4.08,1.26,4.78,6.72,9.18,7.31c1.96,0.26,3.76-0.58,5.65-0.9c2.79-0.47,4.2,0.97,5.8,2.9
		c2.21,2.67,4.27,4.78,8.02,4.66c3.14-0.1,6.01-1.15,9.2-0.59c2.76,0.48,5.34,1.67,7.76,3.03c1.2,0.67,2.76,2.04,4.28,1.7
		c0.88-0.2,1.05-0.91,1.73-1.25c1.81-0.91,2.76-0.29,4.39,0.53c1.53,0.77,2.84,1.07,4.56,0.85
		C151.7,144.56,154.46,144.22,157.74,144.9z"/>
	<path class="st3" d="M157.74,64.95V62.2c-1.59,0.12-3.16-0.69-4.76-0.3c-0.4,0.1-0.89,0.58-1.31,0.52
		c-0.56-0.07-1.83-1.38-2.32-1.68c-0.8-0.48-1.44-0.78-2.4-0.58c-0.49,0.1-0.75,0.37-1.19,0.57c-1.68,0.77-1.77,0.81-3.2-0.15
		c-1.15-0.77-1.97-1.5-3.41-1.69c-2.14-0.29-3.44,0.02-5.18-1.72c-0.63-0.63-1.05-1.29-1.99-1.52c-2.11-0.53-2.89,1.3-4.72-1.72
		c-1.26-2.08-1.15-4.07-4.13-4.4c-1.91-0.21-3.9,0.95-5.24-1.03c-0.64-0.94-0.59-2.43-1.04-3.49c-0.5-1.18-1.21-2.02-2.39-2.55
		c-0.64-0.29-1.67-0.25-2.22-0.62c-0.88-0.59-1.31-1.72-1.92-2.51c-0.65-0.86-1.15-1.4-2.18-1.87c-0.7-0.31-1.67-0.37-2.33-0.75
		c-1.59-0.89-1.79-1.99-1.91-3.41c0.23-0.33,0.3-0.77,0.03-1.23c-0.75-1.31,0.14-2.89-0.71-4.26c-0.63-1.01-1.47-1.07-2.36-1.68
		c-0.44-0.3-0.64-0.36-0.72-0.36c0.08-0.03,0.26-0.2,0.39-0.87c0.12-0.68,0.51-1.18,0.55-1.91c0.04-1-0.26-1.81-1.01-2.49
		c-0.56-0.51-2.98-0.8-3.11-1.16c-0.23-0.59,2.27-2.67,2.36-3.68c0.17-1.92-2.13-2.31-3.92-2.53c1.01-2.44,2.18-4.56,0.13-7
		c-0.62-0.74-1.53-0.27-1.4-1.92c0.03-0.36,0.7-1.21,0.78-1.67c0.2-1.14-0.04-2.4-0.22-3.6h-2.67c-0.06,0.47-0.13,0.93-0.1,1.39
		c0.07,0.83,0.3,1.12,0.2,1.93c-0.15,1.27-1.01,2.18-0.67,3.52c0.32,1.29,1,1.16,1.87,1.91c2.04,1.72-0.14,4.12-0.8,6.11
		c-0.2,0.59,0.23,1.39,0.86,1.51c0.59,0.11,2.19,0.21,3.17,0.51c-0.93,1.44-2.9,2.95-2.14,4.72c0.94,2.21,4.5,0.4,3.83,3.4
		c-0.34,1.53-1.45,2.74,0.26,3.93c1.34,0.93,2.27,0.55,2.73,2.93c0.13,0.68,0.11,1.14,0.24,1.65c-0.03,0.12-0.06,0.26-0.04,0.42
		c0.24,3.34,1.11,4.95,4.14,6.3c1.51,0.68,1.81,1.24,3.02,2.77c0.42,0.53,0.5,0.89,1.08,1.35c1.58,1.24,4.01,0.76,4.99,2.8
		c1.14,2.4,0.78,5.24,3.98,5.94c2.1,0.47,4.44-1.09,5.95,1.37c0.76,1.24,0.61,2.68,1.62,3.86c0.97,1.13,1.84,1.19,3.19,1.23
		c0.91,0.02,1.76-0.51,2.68,0.15c0.59,0.43,0.86,1.37,1.48,1.85c1.05,0.81,2.17,0.82,3.42,0.85c1.53,0.02,2.62,0.05,3.86,0.95
		c0.61,0.45,1.12,0.92,1.83,1.23c1.11,0.5,2.04,0.52,3.17,0.15c0.77-0.26,1.34-1.01,2.29-0.83c1.1,0.21,1.87,1.72,3.05,1.99
		c0.93,0.21,1.19-0.17,2-0.39C154.68,64.07,156.2,64.98,157.74,64.95z"/>
	<path class="st4" d="M157.74,120.09v-3.37c-1.34-0.17-2.66-0.9-4.04-0.98c-1.16-0.07-1.76,0.29-2.82,0.58
		c-2.1,0.59-3.12-0.04-5.02-0.56c-2.99-0.81-5.98-0.31-8.99-0.84c-2.65-0.47-4.95-2.01-7.36-3.09c-2.04-0.91-4.09-1.53-6.34-1.51
		c-3.11,0.02-5.7,1.11-8.41-1c-1.72-1.33-2.95-2.74-5.04-3.55c-2.28-0.88-4.76-1.08-7-2.06c-4.55-2.02-7.73-6.18-12.31-8.17
		c-2.24-0.97-4.97-1.26-5.99-3.8c-0.75-1.9-0.81-3.82-2.29-5.39c-1.25-1.33-2.98-1.92-4.62-2.6c-1.01-0.42-2.25-0.8-2.98-1.68
		c-0.9-1.09-0.91-2.74-1.36-4.03c-1.18-3.37-4.09-5.78-7.25-7.28c-0.04-0.49-0.32-0.95-0.95-1.21c-3.9-1.68-6.92-4.83-7.95-9.02
		c-0.69-2.8-0.53-5.98-3.04-7.92c-1.65-1.28-3.31-1.54-3.44-4c-0.09-1.62,0.05-3.21-0.33-4.82c-0.97-4.17-4.29-5.89-6.19-9.37
		c-1.33-2.43-1.05-4.76-0.18-7.23c0.55-1.56,1.23-3.06,0.93-4.75c-0.67-3.8-5.43-4.49-5.32-8.85c0.05-1.98,1.38-3.57,1.61-5.51
		c0.18-1.7-0.54-2.14-1.12-3.58c-0.59-1.51-0.24-3.74-0.05-5.57h-3.53c-0.23,1.92-0.53,4.04-0.21,5.79
		c0.14,0.79,0.42,0.91,0.67,1.56c0.61,1.55,0.55,1.89-0.07,3.55c-0.57,1.52-0.96,2.95-0.86,4.59c0.12,1.68,0.69,3.34,1.64,4.73
		c1.54,2.29,3.89,2.78,3.17,6.13c-0.38,1.76-1.25,3.26-1.29,5.13c-0.05,1.87,0.38,3.8,1.23,5.46c0.94,1.85,2.4,3.08,3.76,4.6
		c1.83,2.05,2.39,4.25,2.49,6.96c0.13,3.41,0.36,5.75,3.58,7.46c2.41,1.27,2.33,2.89,2.78,5.39c0.31,1.72,0.85,3.36,1.65,4.91
		c1.77,3.38,4.73,6.02,8.22,7.52c0.02,0.01,0.04,0.01,0.06,0.02c1.63,1.29,3.47,2.34,4.89,3.87c1.78,1.91,1.68,4.09,2.74,6.32
		c1.68,3.51,5.2,3.36,7.98,5.41c1.76,1.3,1.64,3.55,2.47,5.39c0.61,1.34,1.58,2.4,2.84,3.16c1.46,0.88,3.16,1.27,4.71,1.95
		c1.94,0.84,3.62,2.09,5.27,3.38c3,2.36,5.89,4.67,9.62,5.72c2.09,0.58,4.39,0.81,6.22,2.03c1.42,0.94,2.45,2.37,3.92,3.26
		c3.7,2.24,7.7,0.04,11.6,1c3.87,0.94,7,3.68,10.99,4.29c2.48,0.38,5.03-0.02,7.48,0.5c1.74,0.37,3.36,1.24,5.17,1.32
		c1.04,0.05,1.78-0.26,2.75-0.48c1.6-0.36,2.82-0.21,4.38,0.01C156.74,119.96,157.24,120.06,157.74,120.09z"/>
	<path class="st4" d="M150,89.99c2.21,0.55,4.99,0.37,7.74,0.39V87c-0.42,0-0.85-0.01-1.27-0.02c-1.32-0.06-2.65-0.15-3.96-0.31
		c-1.61-0.2-1.95-0.48-3.23-1.34c-1.19-0.8-2.41-1.02-3.82-0.79c-1.7,0.28-4.04,2.03-5.8,1.55c-1.68-0.47-2.54-2.87-3.71-4.03
		c-0.98-0.97-2.16-1.63-3.55-1.8c-1.66-0.2-3.08,0.53-4.69,0.64c-2.22,0.16-2.62-1.52-4.44-2.32c-1.76-0.76-3.66-0.5-5.4-1.44
		c-1.53-0.83-2.83-2.02-4.35-2.87c-1.29-0.72-2.66-1.25-4.14-1.31c-1.1-0.05-2.43,0.42-3.4-0.36c-0.56-0.45-0.91-1.4-1.24-2.03
		c-1.71-3.23-3.88-5.58-7.63-6.23c-1.31-0.23-2.65-0.23-3.12-1.85c-0.21-0.73,0.02-1.74-0.01-2.5c-0.06-1.53-0.3-2.98-1.2-4.25
		c-1.07-1.51-2.73-2.3-4.25-3.27c-2.43-1.53-3.23-3.37-4.08-6c-0.51-1.59-1.29-2.69-2.6-3.71c-1.99-1.54-3.73-2.69-2.93-5.49
		c0.04-0.14,0.06-0.28,0.07-0.41c1.35-2.08,0.56-4.67-2.18-5.79c-1.14-0.47-0.74,0.53-1.08-1.26c-0.2-1.01-0.62-2.05-0.86-3.06
		c-0.49-2.04-0.83-4.14-2.18-5.83c-1.02-1.29-1.97-1.85-1.96-3.72c0.01-1.3,0.62-2.43,0.75-3.69c0.18-1.84-0.51-2.65-1.69-3.93
		c-1.22-1.32-0.93-1.31-0.46-2.89c0.33-1.14,0.46-2.28,0.5-3.46c0.04-1.43-0.09-2.86-0.2-4.29h-3.66c0.04,0.69,0.09,1.38,0.12,2.08
		c0.06,1.05,0.17,2.16,0.03,3.22c-0.17,1.38-0.94,2.54-1.07,3.91c-0.15,1.55,0.44,2.62,1.55,3.61c1.31,1.16,1.14,1.2,0.81,2.95
		c-0.19,1.02-0.36,1.95-0.31,3c0.1,1.94,0.72,3.2,1.89,4.66c1.66,2.06,1.92,3.85,2.61,6.39c0.42,1.57,0.89,4.25,2.25,5.36
		c0.61,0.5,1.28,0.27,1.86,0.61c0.48-0.2,0.69-0.06,0.62,0.44c-0.43,0.19-0.78,0.55-0.95,1.13c-0.55,1.96-0.48,3.94,0.48,5.76
		c1.21,2.32,4.12,3.02,5.07,5.38c0.86,2.14,1.21,4.14,2.85,5.91c1.61,1.74,4.28,2.4,5.75,4.15c1.49,1.79,0.44,4.5,1.05,6.6
		c0.41,1.42,1.3,2.52,2.66,3.14c2.19,0.99,4.5,0.38,6.43,2.21c1.4,1.32,1.86,3.3,2.99,4.83c2.54,3.46,6.05,1.46,9.34,3.34
		c1.75,0.99,3.22,2.36,5.07,3.19c1.64,0.73,3.98,0.48,5.35,1.61c1.35,1.11,1.97,2.1,3.89,2.23c1.87,0.12,3.88-1.11,5.69-0.7
		c1.95,0.44,2.74,2.79,4.11,4.1c1.04,1,2.3,1.64,3.76,1.72c1.91,0.11,3.38-1.03,5.17-1.36C147.12,88.04,148.09,89.51,150,89.99z"/>
	<path class="st5" d="M80.08,71.7c-0.39-0.43-0.76-0.87-1.13-1.31c-0.23-0.27-0.46-0.55-0.69-0.81c-0.73-0.86-1.44-1.73-2.14-2.62
		c-0.29-0.36-0.57-0.72-0.85-1.08c-0.37-0.47-0.74-0.95-1.1-1.43c-0.01-0.01-0.02-0.02-0.02-0.04l-0.01-0.01
		c-0.28-0.38-0.56-0.76-0.84-1.14c-0.2-0.28-0.4-0.56-0.61-0.83c-0.4-0.56-0.8-1.12-1.19-1.68c0.55,0.9,1.11,1.8,1.67,2.69
		c1.74,2.74,3.43,6.1,5.95,8.19C79.4,71.85,79.79,71.85,80.08,71.7z M57.39,12.55c-0.02-0.13-0.04-0.25-0.06-0.38
		c0.01,0.13,0.02,0.26,0.03,0.39C57.36,12.56,57.38,12.56,57.39,12.55z M80.08,71.7c-0.39-0.43-0.76-0.87-1.13-1.31
		c-0.23-0.27-0.47-0.54-0.69-0.81c-0.73-0.86-1.44-1.73-2.14-2.62c-0.29-0.36-0.57-0.72-0.85-1.08c-0.37-0.47-0.74-0.95-1.1-1.43
		c-0.01-0.01-0.02-0.02-0.03-0.04c0-0.01,0-0.01,0-0.01c-0.28-0.38-0.56-0.76-0.84-1.14c-0.2-0.28-0.4-0.56-0.61-0.83
		c-0.4-0.56-0.8-1.12-1.19-1.68c0.55,0.9,1.11,1.8,1.67,2.69c1.74,2.74,3.43,6.1,5.95,8.19C79.4,71.85,79.79,71.85,80.08,71.7z
		 M57.39,12.55c-0.02-0.13-0.04-0.25-0.06-0.38c0.01,0.13,0.02,0.26,0.03,0.39C57.36,12.56,57.38,12.56,57.39,12.55z M80.08,71.7
		c-0.39-0.43-0.76-0.87-1.13-1.31c-0.23-0.27-0.47-0.54-0.69-0.81c-0.73-0.86-1.44-1.73-2.14-2.62c-0.29-0.36-0.57-0.72-0.85-1.08
		c-0.37-0.47-0.74-0.95-1.1-1.43c-0.01-0.01-0.02-0.02-0.03-0.04c0-0.01,0-0.01,0-0.01c-0.28-0.38-0.56-0.76-0.84-1.14
		c-0.2-0.28-0.4-0.56-0.61-0.83c-0.4-0.56-0.8-1.12-1.19-1.68c0.55,0.9,1.11,1.8,1.67,2.69c1.74,2.74,3.43,6.1,5.95,8.19
		C79.4,71.85,79.79,71.85,80.08,71.7z M57.39,12.55c-0.02-0.13-0.04-0.25-0.06-0.38c0.01,0.13,0.02,0.26,0.03,0.39
		C57.36,12.56,57.38,12.56,57.39,12.55z M80.08,71.7c-0.39-0.43-0.76-0.87-1.13-1.31c-0.23-0.27-0.47-0.54-0.69-0.81
		c-0.73-0.86-1.44-1.73-2.14-2.62c-0.29-0.36-0.57-0.72-0.85-1.08c-0.37-0.47-0.74-0.95-1.1-1.43c-0.01-0.01-0.02-0.02-0.03-0.04
		c0-0.01,0-0.01,0-0.01c-0.28-0.38-0.56-0.76-0.84-1.14c-0.2-0.28-0.4-0.56-0.61-0.83c-0.4-0.56-0.8-1.12-1.19-1.68
		c0.55,0.9,1.11,1.8,1.67,2.69c1.74,2.74,3.43,6.1,5.95,8.19C79.4,71.85,79.79,71.85,80.08,71.7z M57.39,12.55
		c-0.02-0.13-0.04-0.25-0.06-0.38c0.01,0.13,0.02,0.26,0.03,0.39C57.36,12.56,57.38,12.56,57.39,12.55z M80.08,71.7
		c-0.39-0.43-0.76-0.87-1.13-1.31c-0.23-0.27-0.47-0.54-0.69-0.81c-0.73-0.86-1.44-1.73-2.14-2.62c-0.29-0.36-0.57-0.72-0.85-1.08
		c-0.37-0.47-0.74-0.95-1.1-1.43c-0.01-0.01-0.02-0.02-0.03-0.04c0-0.01,0-0.01,0-0.01c-0.28-0.38-0.56-0.76-0.84-1.14
		c-0.2-0.28-0.4-0.56-0.61-0.83c-0.4-0.56-0.8-1.12-1.19-1.68c0.55,0.9,1.11,1.8,1.67,2.69c1.74,2.74,3.43,6.1,5.95,8.19
		C79.4,71.85,79.79,71.85,80.08,71.7z M57.39,12.55c-0.02-0.13-0.04-0.25-0.06-0.38c0.01,0.13,0.02,0.26,0.03,0.39
		C57.36,12.56,57.38,12.56,57.39,12.55z M80.08,71.7c-0.39-0.43-0.76-0.87-1.13-1.31c-0.23-0.27-0.47-0.54-0.69-0.81
		c-0.73-0.86-1.44-1.73-2.14-2.62c-0.29-0.36-0.57-0.72-0.85-1.08c-0.37-0.47-0.74-0.95-1.1-1.43c-0.01-0.01-0.02-0.02-0.03-0.04
		c0-0.01,0-0.01,0-0.01c-0.28-0.38-0.56-0.76-0.84-1.14c-0.2-0.28-0.4-0.56-0.61-0.83c-0.4-0.56-0.8-1.12-1.19-1.68
		c0.55,0.9,1.11,1.8,1.67,2.69c1.74,2.74,3.43,6.1,5.95,8.19C79.4,71.85,79.79,71.85,80.08,71.7z M57.39,12.55
		c-0.02-0.13-0.04-0.25-0.06-0.38c0.01,0.13,0.02,0.26,0.03,0.39C57.36,12.56,57.38,12.56,57.39,12.55z M57.39,12.55
		c-0.02-0.13-0.04-0.25-0.06-0.38c0.01,0.13,0.02,0.26,0.03,0.39C57.36,12.56,57.38,12.56,57.39,12.55z M80.08,71.7
		c-0.39-0.43-0.76-0.87-1.13-1.31c-0.23-0.27-0.47-0.54-0.69-0.81c-0.73-0.86-1.44-1.73-2.14-2.62c-0.29-0.36-0.57-0.72-0.85-1.08
		c-0.37-0.47-0.74-0.95-1.1-1.43c-0.01-0.01-0.02-0.02-0.03-0.04c0-0.01,0-0.01,0-0.01c-0.28-0.38-0.56-0.76-0.84-1.14
		c-0.2-0.28-0.4-0.56-0.61-0.83c-0.4-0.56-0.8-1.12-1.19-1.68c0.55,0.9,1.11,1.8,1.67,2.69c1.74,2.74,3.43,6.1,5.95,8.19
		C79.4,71.85,79.79,71.85,80.08,71.7z M57.39,12.55c-0.02-0.13-0.04-0.25-0.06-0.38c0.01,0.13,0.02,0.26,0.03,0.39
		C57.36,12.56,57.38,12.56,57.39,12.55z M80.08,71.7c-0.39-0.43-0.76-0.87-1.13-1.31c-0.23-0.27-0.47-0.54-0.69-0.81
		c-0.73-0.86-1.44-1.73-2.14-2.62c-0.29-0.36-0.57-0.72-0.85-1.08c-0.37-0.47-0.74-0.95-1.1-1.43c-0.01-0.01-0.02-0.02-0.03-0.04
		c0-0.01,0-0.01,0-0.01c-0.28-0.38-0.56-0.76-0.84-1.14c-0.2-0.28-0.4-0.56-0.61-0.83c-0.4-0.56-0.8-1.12-1.19-1.68
		c0.55,0.9,1.11,1.8,1.67,2.69c1.74,2.74,3.43,6.1,5.95,8.19C79.4,71.85,79.79,71.85,80.08,71.7z M57.39,12.55
		c-0.02-0.13-0.04-0.25-0.06-0.38c0.01,0.13,0.02,0.26,0.03,0.39C57.36,12.56,57.38,12.56,57.39,12.55z M80.08,71.7
		c-0.39-0.43-0.76-0.87-1.13-1.31c-0.23-0.27-0.47-0.54-0.69-0.81c-0.73-0.86-1.44-1.73-2.14-2.62c-0.29-0.36-0.57-0.72-0.85-1.08
		c-0.37-0.47-0.74-0.95-1.1-1.43c-0.01-0.01-0.02-0.02-0.03-0.04c0-0.01,0-0.01,0-0.01c-0.28-0.38-0.56-0.76-0.84-1.14
		c-0.2-0.28-0.4-0.56-0.61-0.83c-0.4-0.56-0.8-1.12-1.19-1.68c0.55,0.9,1.11,1.8,1.67,2.69c1.74,2.74,3.43,6.1,5.95,8.19
		C79.4,71.85,79.79,71.85,80.08,71.7z M57.39,12.55c-0.02-0.13-0.04-0.25-0.06-0.38c0.01,0.13,0.02,0.26,0.03,0.39
		C57.36,12.56,57.38,12.56,57.39,12.55z M80.08,71.7c-0.39-0.43-0.76-0.87-1.13-1.31c-0.23-0.27-0.47-0.54-0.69-0.81
		c-0.73-0.86-1.44-1.73-2.14-2.62c-0.29-0.36-0.57-0.72-0.85-1.08c-0.37-0.47-0.74-0.95-1.1-1.43c-0.01-0.01-0.02-0.02-0.03-0.04
		c0-0.01,0-0.01,0-0.01c-0.28-0.38-0.56-0.76-0.84-1.14c-0.2-0.28-0.4-0.56-0.61-0.83c-0.4-0.56-0.8-1.12-1.19-1.68
		c0.55,0.9,1.11,1.8,1.67,2.69c1.74,2.74,3.43,6.1,5.95,8.19C79.4,71.85,79.79,71.85,80.08,71.7z M57.39,12.55
		c-0.02-0.13-0.04-0.25-0.06-0.38c0.01,0.13,0.02,0.26,0.03,0.39C57.36,12.56,57.38,12.56,57.39,12.55z M80.08,71.7
		c-0.39-0.43-0.76-0.87-1.13-1.31c-0.23-0.27-0.47-0.54-0.69-0.81c-0.73-0.86-1.44-1.73-2.14-2.62c-0.29-0.36-0.57-0.72-0.85-1.08
		c-0.37-0.47-0.74-0.95-1.1-1.43c-0.01-0.01-0.02-0.02-0.03-0.04c0-0.01,0-0.01,0-0.01c-0.28-0.38-0.56-0.76-0.84-1.14
		c-0.2-0.28-0.4-0.56-0.61-0.83c-0.4-0.56-0.8-1.12-1.19-1.68c0.55,0.9,1.11,1.8,1.67,2.69c1.74,2.74,3.43,6.1,5.95,8.19
		C79.4,71.85,79.79,71.85,80.08,71.7z M57.39,12.55c-0.02-0.13-0.04-0.25-0.06-0.38c0.01,0.13,0.02,0.26,0.03,0.39
		C57.36,12.56,57.38,12.56,57.39,12.55z M80.08,71.7c-0.39-0.43-0.76-0.87-1.13-1.31c-0.23-0.27-0.47-0.54-0.69-0.81
		c-0.73-0.86-1.44-1.73-2.14-2.62c-0.29-0.36-0.57-0.72-0.85-1.08c-0.37-0.47-0.74-0.95-1.1-1.43c-0.01-0.01-0.02-0.02-0.03-0.04
		c0-0.01,0-0.01,0-0.01c-0.28-0.38-0.56-0.76-0.84-1.14c-0.2-0.28-0.4-0.56-0.61-0.83c-0.4-0.56-0.8-1.12-1.19-1.68
		c0.55,0.9,1.11,1.8,1.67,2.69c1.74,2.74,3.43,6.1,5.95,8.19C79.4,71.85,79.79,71.85,80.08,71.7z M57.39,12.55
		c-0.02-0.13-0.04-0.25-0.06-0.38c0.01,0.13,0.02,0.26,0.03,0.39C57.36,12.56,57.38,12.56,57.39,12.55z M80.08,71.7
		c-0.39-0.43-0.76-0.87-1.13-1.31c-0.23-0.27-0.47-0.54-0.69-0.81c-0.73-0.86-1.44-1.73-2.14-2.62c-0.29-0.36-0.57-0.72-0.85-1.08
		c-0.37-0.47-0.74-0.95-1.1-1.43c-0.01-0.01-0.02-0.02-0.03-0.04c0-0.01,0-0.01,0-0.01c-0.28-0.38-0.56-0.76-0.84-1.14
		c-0.2-0.28-0.4-0.56-0.61-0.83c-0.4-0.56-0.8-1.12-1.19-1.68c0.55,0.9,1.11,1.8,1.67,2.69c1.74,2.74,3.43,6.1,5.95,8.19
		C79.4,71.85,79.79,71.85,80.08,71.7z M57.39,12.55c-0.02-0.13-0.04-0.25-0.06-0.38c0.01,0.13,0.02,0.26,0.03,0.39
		C57.36,12.56,57.38,12.56,57.39,12.55z M80.08,71.7c-0.39-0.43-0.76-0.87-1.13-1.31c-0.23-0.27-0.47-0.54-0.69-0.81
		c-0.73-0.86-1.44-1.73-2.14-2.62c-0.29-0.36-0.57-0.72-0.85-1.08c-0.37-0.47-0.74-0.95-1.1-1.43c-0.01-0.01-0.02-0.02-0.03-0.04
		c0-0.01,0-0.01,0-0.01c-0.28-0.38-0.56-0.76-0.84-1.14c-0.2-0.28-0.4-0.56-0.61-0.83c-0.4-0.56-0.8-1.12-1.19-1.68
		c0.55,0.9,1.11,1.8,1.67,2.69c1.74,2.74,3.43,6.1,5.95,8.19C79.4,71.85,79.79,71.85,80.08,71.7z M57.39,12.55
		c-0.02-0.13-0.04-0.25-0.06-0.38c0.01,0.13,0.02,0.26,0.03,0.39C57.36,12.56,57.38,12.56,57.39,12.55z M80.08,71.7
		c-0.39-0.43-0.76-0.87-1.13-1.31c-0.23-0.27-0.47-0.54-0.69-0.81c-0.73-0.86-1.44-1.73-2.14-2.62c-0.29-0.36-0.57-0.72-0.85-1.08
		c-0.37-0.47-0.74-0.95-1.1-1.43c-0.01-0.01-0.02-0.02-0.03-0.04c0-0.01,0-0.01,0-0.01c-0.28-0.38-0.56-0.76-0.84-1.14
		c-0.2-0.28-0.4-0.56-0.61-0.83c-0.4-0.56-0.8-1.12-1.19-1.68c0.55,0.9,1.11,1.8,1.67,2.69c1.74,2.74,3.43,6.1,5.95,8.19
		C79.4,71.85,79.79,71.85,80.08,71.7z M57.39,12.55c-0.02-0.13-0.04-0.25-0.06-0.38c0.01,0.13,0.02,0.26,0.03,0.39
		C57.36,12.56,57.38,12.56,57.39,12.55z M80.08,71.7c-0.39-0.43-0.76-0.87-1.13-1.31c-0.23-0.27-0.47-0.54-0.69-0.81
		c-0.73-0.86-1.44-1.73-2.14-2.62c-0.29-0.36-0.57-0.72-0.85-1.08c-0.37-0.47-0.74-0.95-1.1-1.43c-0.01-0.01-0.02-0.02-0.03-0.04
		c0-0.01,0-0.01,0-0.01c-0.28-0.38-0.56-0.76-0.84-1.14c-0.2-0.28-0.4-0.56-0.61-0.83c-0.4-0.56-0.8-1.12-1.19-1.68
		c0.55,0.9,1.11,1.8,1.67,2.69c1.74,2.74,3.43,6.1,5.95,8.19C79.4,71.85,79.79,71.85,80.08,71.7z M57.39,12.55
		c-0.02-0.13-0.04-0.25-0.06-0.38c0.01,0.13,0.02,0.26,0.03,0.39C57.36,12.56,57.38,12.56,57.39,12.55z M80.08,71.7
		c-0.39-0.43-0.76-0.87-1.13-1.31c-0.23-0.27-0.47-0.54-0.69-0.81c-0.73-0.86-1.44-1.73-2.14-2.62c-0.29-0.36-0.57-0.72-0.85-1.08
		c-0.37-0.47-0.74-0.95-1.1-1.43c-0.01-0.01-0.02-0.02-0.03-0.04c0-0.01,0-0.01,0-0.01c-0.28-0.38-0.56-0.76-0.84-1.14
		c-0.2-0.28-0.4-0.56-0.61-0.83c-0.4-0.56-0.8-1.12-1.19-1.68c0.55,0.9,1.11,1.8,1.67,2.69c1.74,2.74,3.43,6.1,5.95,8.19
		C79.4,71.85,79.79,71.85,80.08,71.7z M57.39,12.55c-0.02-0.13-0.04-0.25-0.06-0.38c0.01,0.13,0.02,0.26,0.03,0.39
		C57.36,12.56,57.38,12.56,57.39,12.55z M80.08,71.7c-0.39-0.43-0.76-0.87-1.13-1.31c-0.23-0.27-0.47-0.54-0.69-0.81
		c-0.73-0.86-1.44-1.73-2.14-2.62c-0.29-0.36-0.57-0.72-0.85-1.08c-0.37-0.47-0.74-0.95-1.1-1.43c-0.01-0.01-0.02-0.02-0.03-0.04
		c0-0.01,0-0.01,0-0.01c-0.28-0.38-0.56-0.76-0.84-1.14c-0.2-0.28-0.4-0.56-0.61-0.83c-0.4-0.56-0.8-1.12-1.19-1.68
		c0.55,0.9,1.11,1.8,1.67,2.69c1.74,2.74,3.43,6.1,5.95,8.19C79.4,71.85,79.79,71.85,80.08,71.7z M57.39,12.55
		c-0.02-0.13-0.04-0.25-0.06-0.38c0.01,0.13,0.02,0.26,0.03,0.39C57.36,12.56,57.38,12.56,57.39,12.55z M80.08,71.7
		c-0.39-0.43-0.76-0.87-1.13-1.31c-0.23-0.27-0.47-0.54-0.69-0.81c-0.73-0.86-1.44-1.73-2.14-2.62c-0.29-0.36-0.57-0.72-0.85-1.08
		c-0.37-0.47-0.74-0.95-1.1-1.43c-0.01-0.01-0.02-0.02-0.03-0.04c0-0.01,0-0.01,0-0.01c-0.28-0.38-0.56-0.76-0.84-1.14
		c-0.2-0.28-0.4-0.56-0.61-0.83c-0.4-0.56-0.8-1.12-1.19-1.68c0.55,0.9,1.11,1.8,1.67,2.69c1.74,2.74,3.43,6.1,5.95,8.19
		C79.4,71.85,79.79,71.85,80.08,71.7z M57.39,12.55c-0.02-0.13-0.04-0.25-0.06-0.38c0.01,0.13,0.02,0.26,0.03,0.39
		C57.36,12.56,57.38,12.56,57.39,12.55z M80.08,71.7c-0.39-0.43-0.76-0.87-1.13-1.31c-0.23-0.27-0.47-0.54-0.69-0.81
		c-0.73-0.86-1.44-1.73-2.14-2.62c-0.29-0.36-0.57-0.72-0.85-1.08c-0.37-0.47-0.74-0.95-1.1-1.43c-0.01-0.01-0.02-0.02-0.03-0.04
		c0-0.01,0-0.01,0-0.01c-0.28-0.38-0.56-0.76-0.84-1.14c-0.21-0.28-0.41-0.56-0.61-0.83c-0.4-0.56-0.8-1.12-1.19-1.68
		c0.55,0.9,1.11,1.8,1.67,2.69c1.74,2.74,3.43,6.1,5.95,8.19C79.4,71.85,79.79,71.85,80.08,71.7z M157.74,113.66v-19.3
		c-3.87-0.18-7.8-0.57-11.62-0.78c-4.88-0.27-9.76-0.57-14.63-0.97c-0.12-0.09-0.25-0.18-0.38-0.26c-0.58-0.39-1.19-0.73-1.81-1.04
		c-1.32-0.66-2.71-1.22-4.02-1.85c-0.42-0.2-0.83-0.4-1.25-0.61c-0.65-0.31-1.3-0.63-1.94-0.96c-1.64-0.81-3.26-1.65-4.87-2.51
		c-5.31-2.83-10.5-5.88-15.44-9.32c-5.28-3.68-10.3-7.8-14.86-12.38c-0.48-0.48-0.96-0.97-1.43-1.46c-0.19-0.2-0.38-0.4-0.57-0.61
		c-0.42-0.45-0.84-0.9-1.24-1.35c-0.07-0.07-0.13-0.14-0.19-0.21c-0.26-0.28-0.5-0.56-0.75-0.84c-1.83-2.1-3.57-4.27-5.18-6.53
		c0.05-0.02,0.09-0.03,0.13-0.06c0.25-0.17,0.4-0.37,0.58-0.61c0.53-0.72-0.2-1.73-0.99-1.73c-0.51,0-0.99,0.41-1.13,0.89
		c-0.6-0.91-1.21-1.83-1.8-2.75c-1.13-2.96-2.82-5.81-3.96-8.73c-0.11-0.28-0.21-0.56-0.32-0.85c0.02-0.36-0.1-0.74-0.37-0.98
		c-0.34-0.91-0.67-1.83-0.99-2.74c0.12,0.04,0.25,0.07,0.4,0.07c1.45,0,1.45-2.24,0-2.24c-0.47,0-0.78,0.23-0.94,0.56
		c-0.12-0.36-0.25-0.72-0.37-1.08c0.58-0.57,0.37-1.79-0.61-1.89c-0.14-0.46-0.29-0.91-0.43-1.37c-0.61-2.03-1.19-4.07-1.72-6.12
		c0.62-0.21,0.55-1.27-0.22-1.27c-0.04,0-0.07,0.01-0.1,0.02c-0.59-2.4-1.11-4.8-1.53-7.23c-0.33-2.21-0.62-4.44-0.84-6.65
		c0.34-0.06,0.66-0.28,0.78-0.68c0.43-1.45,0.12-3.08,0.03-4.58c-0.06-1.19,0.01-2.52-0.27-3.7H43.63c0.07,2.17,0.17,4.33,0.36,6.5
		c0.15,1.76-0.08,4.14,1,5.62c0.07,0.1,0.18,0.18,0.29,0.26c-0.81,6.65,2,13.74,4.48,19.98c0.01,0.02,0.01,0.04,0.02,0.06
		c0.29,0.74,0.58,1.45,0.85,2.16c1.08,2.76,2.24,5.5,3.49,8.2c0.02,0.06,0.06,0.12,0.08,0.17c0.13,0.35,0.26,0.7,0.39,1.05
		c0.63,1.68,1.36,3.37,2.4,4.74c0.33,0.7,0.67,1.4,1.02,2.11c0.19,0.39,0.39,0.77,0.59,1.16c0.64,1.22,1.35,2.41,2.15,3.47
		c0.44,3.25,2.24,6.11,4.22,8.77c-0.59,0.4-0.44,1.54,0.46,1.54c0.24,0,0.42-0.09,0.56-0.21c0.39,0.51,0.78,1.01,1.16,1.5
		c1.94,2.52,3.96,4.96,6.08,7.33c1.86,2.08,3.73,4.55,6.28,5.79c0.18,0.09,0.36,0.08,0.5,0.02c0,0,0,0,0-0.01
		c0.21-0.09,0.35-0.31,0.32-0.56c-0.01-0.07-0.03-0.14-0.06-0.21c-0.09-0.18-0.19-0.35-0.28-0.52c0.2,0.19,0.39,0.37,0.58,0.56
		c0.55,0.54,1.11,1.07,1.67,1.59c0.15,0.14,0.31,0.29,0.46,0.43c0.24,0.23,0.49,0.47,0.74,0.7c0.29,0.29,0.6,0.58,0.9,0.88
		c0.32,0.32,0.66,0.65,0.99,0.98c0.13,0.13,0.27,0.26,0.4,0.39c0.48,0.48,0.97,0.96,1.48,1.42c-0.54-0.46-1.07-0.93-1.6-1.4
		c-0.12-0.1-0.23-0.2-0.34-0.31c-0.32-0.28-0.64-0.58-0.95-0.86c-0.34-0.32-0.69-0.64-1.02-0.97c-0.38-0.36-0.75-0.73-1.12-1.1
		c-0.13-0.13-0.27-0.26-0.4-0.4l-0.24-0.24c-0.27-0.27-0.64-0.02-0.66,0.26c0,0.1,0.03,0.2,0.11,0.29c0.18,0.2,0.37,0.4,0.56,0.59
		c0.17,0.19,0.35,0.38,0.53,0.57c0.28,0.29,0.55,0.58,0.83,0.86c0.5,0.51,0.99,1.01,1.49,1.5c4.19,4.14,8.71,7.94,13.61,11.23
		c3.24,2.17,6.65,4.1,10.15,5.82c2.7,1.32,5.61,2.81,8.59,3.52c0.02,0.58,0.41,1.15,1.16,1.15c0.8,0,1.18-0.64,1.16-1.25
		c0.02-0.07,0.04-0.14,0.03-0.21c0.83,0.43,1.67,0.86,2.51,1.26c0.63,0.29,1.26,0.58,1.9,0.85c2.44,1.02,4.94,1.8,7.43,2.08
		c0.09,0.01,0.17-0.01,0.23-0.06c4.71,1.37,9.51,2.4,14.34,3.07c0.5,0.07,1,0.14,1.49,0.2c0.32,0.04,0.39-0.51,0.07-0.56
		c-0.37-0.06-0.74-0.12-1.11-0.19c-1.26-0.22-2.51-0.47-3.75-0.75c-0.79-0.18-1.57-0.36-2.36-0.56h-0.01
		c-0.78-0.2-1.56-0.41-2.35-0.63c0.61,0.15,1.23,0.29,1.83,0.43c0.17,0.04,0.34,0.08,0.5,0.12c0.82,0.2,1.64,0.38,2.46,0.55
		c0.58,0.12,1.15,0.24,1.73,0.36c0.12,0.05,0.26,0.08,0.42,0.08h0.01c0.57,0.12,1.13,0.23,1.7,0.33h0.01
		c0.38,0.07,0.75,0.14,1.13,0.21c0.5,0.1,1,0.19,1.49,0.28c-0.17,0.12-0.17,0.42,0.08,0.48c0.17,0.04,0.34,0.09,0.52,0.13v0.01
		c0.81,0.14,1.65,0.31,2.5,0.5C154.01,112.49,155.96,113.05,157.74,113.66z M102.31,81.72c0.93,0.62,1.87,1.24,2.82,1.85
		c-0.71,0.06-1.11,0.58-1.18,1.16c-0.09-0.05-0.17-0.1-0.25-0.16c-0.63-0.39-1.26-0.78-1.87-1.18c-0.2-0.13-0.4-0.26-0.59-0.39
		c-0.01,0.01-0.01,0-0.01-0.01c-0.43-0.28-0.87-0.56-1.29-0.85c-0.36-0.24-0.72-0.48-1.08-0.72c-0.34-0.37-0.67-0.74-1.02-1.1
		c0.06,0.01,0.12,0,0.18-0.02c0.38-0.06,0.67-0.43,0.75-0.85v-0.01c0.01-0.06,0.02-0.12,0.02-0.18c0.81,0.58,1.62,1.14,2.44,1.7
		C101.58,81.22,101.95,81.47,102.31,81.72z M62.76,24.23c0.17,0.97,0.36,1.94,0.55,2.9c-0.28-0.91-0.56-1.82-0.82-2.74
		C62.58,24.34,62.68,24.3,62.76,24.23z M57.41,10.08c0.12,0.8,0.25,1.59,0.39,2.38c0.06,0.35,0.12,0.7,0.18,1.05
		c0.07,0.42,0.15,0.85,0.23,1.27c-0.09-0.42-0.17-0.85-0.26-1.27c-0.07-0.35-0.13-0.7-0.2-1.05C57.62,11.66,57.49,10.87,57.41,10.08
		z M88.06,78.68c-2.94-2.6-5.67-5.4-7.98-8.53c-0.44-0.98-1-1.93-1.62-2.85c2.9,3.87,6.05,7.82,9.63,10.98
		c0.64,0.56,1.29,1.1,1.96,1.61c0.07,0.06,0.14,0.11,0.21,0.17c0.06,0.04,0.12,0.07,0.18,0.09c1.43,1.3,2.89,2.56,4.36,3.78
		c0.96,0.8,1.96,1.61,2.99,2.43c-2.76-2.02-5.54-4.1-8.19-6.34C89.07,79.57,88.56,79.13,88.06,78.68z M142.27,102.11
		c-1.26-0.34-2.51-0.69-3.75-1.07c1.23,0.25,2.46,0.48,3.63,0.72c0.04,0.01,0.07,0.02,0.12,0.02
		C142.14,101.84,142.11,102.05,142.27,102.11z M144.22,102.64c2.3,0.62,4.59,1.24,6.89,1.86c0.17,0.05,0.34,0.09,0.51,0.14
		c-2.35-0.54-4.69-1.07-7.04-1.59C144.56,102.86,144.45,102.7,144.22,102.64z M111.35,94.63c0.01,0.01,0.01,0.01,0.02,0.01
		c1.69,0.95,3.42,1.81,5.2,2.59c-0.81-0.33-1.61-0.66-2.42-0.97h-0.01c-0.77-0.29-1.54-0.58-2.31-0.85
		c-0.88-0.47-1.75-0.94-2.59-1.44c-0.82-0.49-1.64-0.99-2.44-1.5c1.34,0.72,2.7,1.35,4.07,1.89
		C111.04,94.46,111.19,94.55,111.35,94.63z M131.27,102.61v0.04c-2.46-0.77-4.88-1.65-7.26-2.48c-0.77-0.26-1.53-0.56-2.3-0.86
		c-0.15-0.06-0.3-0.11-0.45-0.17c0.15,0.06,0.3,0.11,0.45,0.17C124.87,100.48,128.08,101.53,131.27,102.61z M105.95,88.05
		c0.5,0.32,1,0.64,1.51,0.95c3.77,2.32,7.7,4.39,11.71,6.25c2.74,1.27,5.8,2.93,8.83,3.6c1.54,0.59,3.09,1.14,4.66,1.65
		c-0.17-0.01-0.32-0.03-0.48-0.04c-0.01,0-0.01,0-0.01,0c-0.31-0.03-0.62-0.05-0.93-0.06c-0.28-0.01-0.47,0.12-0.56,0.31
		c-0.05,0.09-0.08,0.2-0.09,0.3c-2.4-0.8-4.79-1.61-7.16-2.51c-3.33-1.26-6.48-2.83-9.6-4.44c-2.79-1.77-5.8-3.15-8.65-4.82h-0.01
		c-0.22-0.12-0.44-0.25-0.66-0.39c-0.32-0.2-0.64-0.4-0.97-0.6c-2.68-1.69-5.26-3.53-7.78-5.47c-1.39-1.07-2.79-2.16-4.15-3.3
		c0.05-0.13,0.08-0.26,0.06-0.4c2.5,2.33,5.15,4.45,7.95,6.14c0.26,0.16,0.5,0.1,0.66-0.05c0.22-0.21,0.29-0.6,0.06-0.89
		c-0.04-0.04-0.07-0.09-0.11-0.13c1.31,0.95,2.64,1.87,3.99,2.76C104.8,87.32,105.37,87.69,105.95,88.05z M151.24,103.42
		c0.01,0.25,0.11,0.5,0.26,0.7c-2.85-0.74-5.7-1.46-8.56-2.2C145.69,102.49,148.46,103.01,151.24,103.42z M146.72,107.81
		c-0.25-0.04-0.49-0.07-0.73-0.12C146.24,107.73,146.48,107.77,146.72,107.81L146.72,107.81c1.75,0.25,3.5,0.5,5.25,0.72
		c-0.05,0.08-0.1,0.16-0.13,0.25h-0.04c-0.07-0.15-0.2-0.28-0.4-0.31C149.84,108.29,148.27,108.06,146.72,107.81z M128.8,103.94
		c-1.61-0.59-3.22-1.19-4.83-1.8c-1.02-0.39-2.11-0.79-3.22-1.21c0.02-0.26-0.08-0.53-0.33-0.72c-0.14-0.1-0.29-0.19-0.43-0.29
		c0.8,0.31,1.6,0.6,2.4,0.9c0.01,0.01,0.02,0.01,0.04,0.01c0.79,0.29,1.57,0.58,2.37,0.86c1.86,0.66,3.74,1.34,5.64,1.97
		c0.01,0,0.02,0.01,0.03,0.01c0.87,0.28,1.75,0.56,2.63,0.81c-0.01,0.07-0.01,0.15,0.01,0.22c-0.63-0.17-1.26-0.33-1.88-0.5
		c-0.43-0.11-0.86-0.23-1.29-0.34c-0.01-0.01-0.02-0.01-0.04-0.01c-0.13-0.03-0.28-0.07-0.41-0.1
		C129.2,103.69,128.96,103.79,128.8,103.94z M98.22,88.77c1.13,0.86,2.27,1.7,3.42,2.52c1.19,0.85,2.41,1.68,3.63,2.48
		c-0.45-0.25-0.89-0.51-1.32-0.78c-0.81-0.5-1.61-1-2.4-1.53c-1-0.66-2-1.33-2.98-2.02C98.52,89.19,98.41,88.95,98.22,88.77z
		 M90.78,87.72c0.56,0.37,1.12,0.72,1.7,1c1.44,1.16,2.92,2.27,4.41,3.36C94.79,90.71,92.76,89.25,90.78,87.72z M79.19,73.98
		c-0.1-0.17-0.22-0.33-0.34-0.5h0.02c0.35-0.09,0.58-0.56,0.36-0.88c-0.62-0.86-1.23-1.73-1.84-2.59c-0.01-0.01-0.01-0.01-0.01-0.01
		c-2.52-3.55-4.97-7.1-7.09-10.94c-0.13-0.25-0.27-0.48-0.4-0.73c0,0-0.01-0.01-0.01-0.01c-0.86-1.59-1.68-3.2-2.49-4.81
		c1.29,2.44,2.66,4.84,4.09,7.19c0.01,0.01,0.02,0.02,0.02,0.04c0.55,0.9,1.11,1.8,1.67,2.69c1.74,2.74,3.43,6.1,5.95,8.19
		c0.26,0.22,0.66,0.23,0.94,0.07c0.12-0.06,0.22-0.15,0.28-0.26c1.22,1.69,2.53,3.3,3.93,4.85c0.02,0.03,0.05,0.06,0.08,0.09
		c0.02,0.02,0.05,0.06,0.07,0.08c3.81,4.23,8.18,7.98,12.68,11.47c0.32,0.25,0.64,0.5,0.97,0.74c-0.16-0.1-0.35-0.17-0.58-0.17
		c-0.09,0-0.17,0.01-0.25,0.02c-0.45-0.32-0.9-0.64-1.35-0.97c-5.75-4.2-11-8.98-15.74-14.28c-0.02-0.02-0.04-0.05-0.07-0.07
		c0,0-0.01,0-0.01-0.01c-0.42-0.32-1,0.32-0.61,0.77c1.44,1.68,2.93,3.33,4.47,4.93c-0.86-0.78-1.72-1.57-2.56-2.36
		c-0.64-0.59-1.28-1.19-1.91-1.8c0.02-0.18-0.02-0.37-0.15-0.56c-0.04-0.06-0.07-0.11-0.11-0.17C79.2,73.99,79.19,73.99,79.19,73.98
		z M63.69,58.36c0.1,0.02,0.2,0.05,0.31,0.05c0.04,0,0.07-0.01,0.1-0.01c0.47,0.86,0.96,1.72,1.47,2.57
		c-0.02,0.01-0.04,0.01-0.06,0.02C64.87,60.13,64.24,59.25,63.69,58.36z M62.68,56.51c0.13,0.1,0.29,0.13,0.44,0.13
		c0.01,0.03,0.03,0.06,0.05,0.09c-0.08,0.12-0.13,0.26-0.16,0.41C62.9,56.93,62.77,56.72,62.68,56.51z M60.77,43.34
		c-0.01-0.95-0.2-1.89-0.48-2.84c0.29,0.78,0.61,1.54,0.96,2.28c0.1,0.23,0.29,0.34,0.51,0.38c-0.34,0.18-0.6,0.61-0.4,1.07
		c2.3,5.21,4.61,10.42,7.24,15.46c0.07,0.14,0.14,0.28,0.22,0.42c0.01,0.01,0.01,0.02,0.01,0.02c0.09,0.18,0.18,0.36,0.28,0.53
		c-0.15-0.22-0.32-0.44-0.47-0.67c-3.41-5.04-6.31-10.36-8.06-16.21C60.69,43.67,60.77,43.51,60.77,43.34z M53.22,29.35
		c0.17,0.06,0.37,0.06,0.55-0.01c0.18-0.05,0.35-0.16,0.47-0.3c0.16,0.35,0.34,0.68,0.53,0.99c0,0,0,0,0.01,0
		c0.56,2.23,1.17,4.44,1.86,6.63c0.71,2.27,1.24,4.86,2.68,6.79c-0.01,0.02-0.02,0.05-0.03,0.07c-0.04,0.11-0.06,0.24-0.02,0.39
		c0.12,0.44,0.26,0.88,0.39,1.32c-0.74-1.21-1.46-2.43-2.12-3.65c-0.23-0.42-0.45-0.85-0.68-1.28c-0.18-0.35-0.37-0.7-0.55-1.05
		c-0.91-1.75-1.78-3.53-2.59-5.34c0.25-0.15,0.41-0.45,0.33-0.85C53.8,31.83,53.52,30.59,53.22,29.35z M50.43,18.87
		c0.09-0.01,0.17-0.04,0.24-0.07c0.06,0.5,0.12,1.01,0.17,1.52C50.71,19.84,50.57,19.36,50.43,18.87z M46.39,11.45
		c0.23-0.1,0.4-0.3,0.45-0.62c0.04-0.24,0.06-0.48,0.07-0.72c0.07,0.53,0.13,1.07,0.18,1.6v0.01c0.07,0.53,0.13,1.05,0.18,1.58
		c0.01,0.1,0.02,0.2,0.04,0.3c0.02,0.65,0.04,1.3,0.06,1.94C46.94,14.19,46.57,12.83,46.39,11.45z M50.03,9.31
		C49.6,7.65,49.16,6,48.67,4.35c0.34,0.18,0.78,0.12,1.14-0.1c0.05,0.61,0.11,1.21,0.2,1.8C50,7.14,50.01,8.22,50.03,9.31z
		 M54.64,17.18c-0.31,0.04-0.55,0.19-0.71,0.39c-0.01-0.06-0.02-0.13-0.04-0.19c-0.23-1.19-0.45-2.39-0.67-3.58
		c-0.06-1.35-0.27-2.6-0.64-3.84c-0.09-0.61-0.17-1.22-0.25-1.83c-0.03-0.25-0.18-0.4-0.36-0.48c-0.03-0.14-0.07-0.28-0.1-0.42
		c0.25-0.1,0.48-0.25,0.61-0.48c0.34,0.24,0.83,0.25,1.23,0.07c0,0.39,0.01,0.78,0.02,1.17v0.01c0,0.29,0.01,0.57,0.02,0.86
		C53.86,11.64,54.17,14.42,54.64,17.18z M55.07,19.5c0.25,1.27,0.53,2.55,0.83,3.82c0.12,0.5,0.23,0.99,0.34,1.49
		c0.4,1.79,0.79,3.62,1.2,5.47c0.59,2.68,1.24,5.37,2.06,7.95c-0.34-0.91-0.7-1.81-0.99-2.68c-0.91-2.88-1.76-5.78-2.53-8.71
		c-0.24-0.93-0.48-1.87-0.7-2.8c-0.06-0.31-0.1-0.6-0.16-0.85c-0.29-1.26-0.56-2.52-0.82-3.79c0.15,0.07,0.32,0.11,0.51,0.11
		C54.9,19.53,54.99,19.52,55.07,19.5z M55.25,6.83c0.37,0.41,0.99,0.45,1.46,0.2c0.09-0.04,0.16-0.09,0.23-0.15
		c0.06,0.47,0.12,0.93,0.18,1.4c0.08,1.29,0.11,2.6,0.2,3.89c-0.01,0.01-0.01,0.01,0,0.01c0.01,0.13,0.02,0.26,0.03,0.39v0.01
		c0.02,0.38,0.06,0.75,0.1,1.13c0.01,0.03,0.01,0.07,0.01,0.1c0.04,0.33,0.09,0.67,0.15,1.02c0.03,0.15,0.06,0.3,0.07,0.45
		c0.15,0.86,0.32,1.76,0.43,2.65c-0.23-0.94-0.47-1.89-0.71-2.83c-0.03-0.13-0.06-0.26-0.1-0.38c-0.04-0.18-0.09-0.34-0.14-0.51
		c0-0.01,0-0.01,0-0.01c-0.09-0.38-0.2-0.75-0.29-1.13v-0.02c-0.13-0.94-0.26-1.89-0.37-2.85c-0.03-0.28-0.28-0.41-0.5-0.4
		C55.75,8.8,55.5,7.82,55.25,6.83z M65.95,41.47c0.31,0.83,0.62,1.65,0.94,2.46c0.46,1.15,0.89,2.35,1.4,3.5
		c0.18,0.42,0.38,0.85,0.59,1.25c-0.02,0.08-0.02,0.17,0.02,0.27c0.11,0.22,0.21,0.44,0.33,0.66c0.98,1.97,2.03,3.89,3.16,5.78
		c0,0-0.01,0,0,0.01c0.08,0.13,0.16,0.28,0.25,0.41c0.61,1.02,1.24,2.03,1.89,3.03c-1.09-1.48-2.16-2.98-3.19-4.5
		c-0.01-0.01-0.01-0.01-0.01-0.02c-0.97-1.42-1.91-2.85-2.82-4.31c-0.29-0.47-0.59-0.94-0.88-1.41c-0.09-0.25-0.18-0.5-0.28-0.74
		c-0.93-2.35-2.11-4.64-3.01-6.95c-1.18-3.04-2.22-6.13-3.18-9.25v-0.01c-0.01-0.04-0.02-0.08-0.04-0.12
		c-0.03-0.1-0.07-0.21-0.1-0.32c-0.55-1.8-1.07-3.61-1.54-5.43c-0.17-0.64-0.33-1.28-0.48-1.92c-0.03-0.12-0.06-0.23-0.09-0.35
		c0.14-0.12,0.25-0.31,0.26-0.55c0.07-0.99,0.02-1.99-0.08-2.99v-0.01c-0.07-0.8-0.2-1.59-0.34-2.39c0.04,0.1,0.1,0.18,0.17,0.25
		c0.11,0.92,0.23,1.84,0.36,2.75c0.17,1.21,0.35,2.41,0.56,3.61c0.06,0.36,0.12,0.7,0.19,1.05c0,0.01,0,0.01,0,0.01
		c0.34,1.95,0.75,3.88,1.23,5.78c0.25,1.01,0.52,2.01,0.81,3c0.02,0.06,0.04,0.12,0.07,0.17c0.15,0.29,0.47,0.44,0.78,0.45
		c0.23,0.01,0.45-0.06,0.62-0.2c0.06,0.17,0.1,0.34,0.15,0.5c0.12,0.37,0.24,0.74,0.36,1.12v0.01c0.17,0.52,0.35,1.04,0.53,1.56
		c0.32,0.95,0.66,1.89,1,2.84c-0.02,0.07-0.02,0.15,0.02,0.24c0.07,0.15,0.15,0.29,0.22,0.43c0.04,0.1,0.07,0.2,0.12,0.3
		C65.94,41.44,65.95,41.46,65.95,41.47z M71.13,47.59c-0.07,0.03-0.13,0.07-0.2,0.11c-0.17-0.5-0.37-0.99-0.57-1.49
		C70.62,46.67,70.87,47.13,71.13,47.59z M75.14,57.4c-0.01,0.05-0.01,0.09-0.01,0.14c-1.51-2.07-2.93-4.2-4.21-6.41
		c0.09-0.02,0.19-0.07,0.28-0.12C72.45,53.16,73.77,55.29,75.14,57.4z M108.04,83.51c-0.35-0.2-0.69-0.4-1.04-0.59
		c-0.62-0.36-1.25-0.72-1.87-1.09c-2.73-1.63-5.42-3.31-8.06-5.1c-0.01-0.01-0.01-0.01-0.01-0.01c-0.01,0-0.02-0.01-0.03-0.01
		c-0.22-0.25-0.43-0.5-0.65-0.75c-0.01-0.01-0.01-0.01-0.01-0.01c-0.39-0.43-0.77-0.86-1.15-1.29c0.36,0.28,0.72,0.56,1.09,0.83
		c0.55,0.42,1.11,0.83,1.67,1.25c2.27,1.67,4.58,3.28,6.94,4.82c0.07,0.05,0.15,0.1,0.23,0.15c0.62,0.4,1.25,0.8,1.88,1.18
		C107.37,83.1,107.7,83.3,108.04,83.51z M119.83,93.22c-0.35-0.15-0.7-0.3-1.04-0.46c-3.53-1.65-6.98-3.47-10.37-5.4
		c-0.78-0.44-1.56-0.89-2.33-1.35c0.46-0.37,0.6-1.04,0.41-1.59c0.49,0.31,0.98,0.61,1.48,0.91c3.11,1.87,6.27,3.63,9.51,5.27
		c-0.84-0.29-1.67-0.62-2.48-1c-0.54-0.26-1.02,0.53-0.48,0.82c1.68,0.89,3.44,1.6,5.24,2.18
		C119.66,92.79,119.66,93.05,119.83,93.22z M135.67,94.04c-0.75-0.09-1.48-0.17-2.22-0.26c-0.12-0.09-0.26-0.15-0.41-0.2
		C133.92,93.74,134.8,93.89,135.67,94.04z M135.94,98.04c1.4,0.34,2.85,0.74,4.34,1.12c-0.06,0.09-0.09,0.19-0.1,0.3
		c-3.64-0.93-7.31-2.17-11-2.5c-0.14-0.01-0.26,0.03-0.36,0.1c-2.55-1.49-5.56-2.44-8.34-3.58c4.07,1.33,8.18,2.6,12.31,3.72
		c0.06,0.04,0.12,0.07,0.19,0.09c0.53,0.13,1.05,0.25,1.57,0.37C135.02,97.8,135.48,97.93,135.94,98.04z M142.79,95.24
		c-0.4-0.1-0.8-0.2-1.21-0.29c-0.12-0.03-0.23-0.06-0.36-0.08c0.12,0.02,0.23,0.03,0.35,0.04c0.39,0.05,0.77,0.09,1.16,0.13
		C142.75,95.11,142.77,95.18,142.79,95.24z M148.14,97.99c0.7,0.04,1.4,0.07,2.1,0.1c0.05,0.01,0.1,0.01,0.15,0.01
		c0.2,0.01,0.39,0.02,0.59,0.03c0.01,0.1,0.03,0.2,0.06,0.29c-1.16-0.04-2.32-0.1-3.47-0.18c-0.35-0.07-0.7-0.16-1.05-0.23
		c-0.81-0.36-1.65-0.66-2.5-0.95c0.26-0.02,0.51-0.04,0.77-0.06c0.63-0.07,0.75-0.87,0.15-1.1c-0.14-0.05-0.29-0.1-0.44-0.15
		c0.18-0.11,0.31-0.27,0.4-0.45c0.02,0.01,0.05,0.01,0.07,0.01c0.86,0.09,1.74,0.18,2.62,0.28
		C146.56,96.04,146.75,97.92,148.14,97.99z M80.08,71.7c-0.39-0.43-0.76-0.87-1.13-1.31c-0.23-0.27-0.47-0.54-0.69-0.81
		c-0.73-0.86-1.44-1.73-2.14-2.62c-0.29-0.36-0.57-0.72-0.85-1.08c-0.37-0.47-0.74-0.95-1.1-1.43c-0.01-0.01-0.02-0.02-0.03-0.04
		c0-0.01,0-0.01,0-0.01c-0.28-0.38-0.56-0.76-0.84-1.14c-0.2-0.28-0.4-0.56-0.61-0.83c-0.4-0.56-0.8-1.12-1.19-1.68
		c0.55,0.9,1.11,1.8,1.67,2.69c1.74,2.74,3.43,6.1,5.95,8.19C79.4,71.85,79.79,71.85,80.08,71.7z M57.39,12.55
		c-0.02-0.13-0.04-0.25-0.06-0.38c0.01,0.13,0.02,0.26,0.03,0.39C57.36,12.56,57.38,12.56,57.39,12.55z M80.08,71.7
		c-0.39-0.43-0.76-0.87-1.13-1.31c-0.23-0.27-0.47-0.54-0.69-0.81c-0.73-0.86-1.44-1.73-2.14-2.62c-0.29-0.36-0.57-0.72-0.85-1.08
		c-0.37-0.47-0.74-0.95-1.1-1.43c-0.01-0.01-0.02-0.02-0.03-0.04c0-0.01,0-0.01,0-0.01c-0.28-0.38-0.56-0.76-0.84-1.14
		c-0.2-0.28-0.4-0.56-0.61-0.83c-0.4-0.56-0.8-1.12-1.19-1.68c0.55,0.9,1.11,1.8,1.67,2.69c1.74,2.74,3.43,6.1,5.95,8.19
		C79.4,71.85,79.79,71.85,80.08,71.7z M57.39,12.55c-0.02-0.13-0.04-0.25-0.06-0.38c0.01,0.13,0.02,0.26,0.03,0.39
		C57.36,12.56,57.38,12.56,57.39,12.55z M80.08,71.7c-0.39-0.43-0.76-0.87-1.13-1.31c-0.23-0.27-0.47-0.54-0.69-0.81
		c-0.73-0.86-1.44-1.73-2.14-2.62c-0.29-0.36-0.57-0.72-0.85-1.08c-0.37-0.47-0.74-0.95-1.1-1.43c-0.01-0.01-0.02-0.02-0.03-0.04
		c0-0.01,0-0.01,0-0.01c-0.28-0.38-0.56-0.76-0.84-1.14c-0.2-0.28-0.4-0.56-0.61-0.83c-0.4-0.56-0.8-1.12-1.19-1.68
		c0.55,0.9,1.11,1.8,1.67,2.69c1.74,2.74,3.43,6.1,5.95,8.19C79.4,71.85,79.79,71.85,80.08,71.7z M57.39,12.55
		c-0.02-0.13-0.04-0.25-0.06-0.38c0.01,0.13,0.02,0.26,0.03,0.39C57.36,12.56,57.38,12.56,57.39,12.55z M80.08,71.7
		c-0.39-0.43-0.76-0.87-1.13-1.31c-0.23-0.27-0.47-0.54-0.69-0.81c-0.73-0.86-1.44-1.73-2.14-2.62c-0.29-0.36-0.57-0.72-0.85-1.08
		c-0.37-0.47-0.74-0.95-1.1-1.43c-0.01-0.01-0.02-0.02-0.03-0.04c0-0.01,0-0.01,0-0.01c-0.28-0.38-0.56-0.76-0.84-1.14
		c-0.2-0.28-0.4-0.56-0.61-0.83c-0.4-0.56-0.8-1.12-1.19-1.68c0.55,0.9,1.11,1.8,1.67,2.69c1.74,2.74,3.43,6.1,5.95,8.19
		C79.4,71.85,79.79,71.85,80.08,71.7z M57.39,12.55c-0.02-0.13-0.04-0.25-0.06-0.38c0.01,0.13,0.02,0.26,0.03,0.39
		C57.36,12.56,57.38,12.56,57.39,12.55z M80.08,71.7c-0.39-0.43-0.76-0.87-1.13-1.31c-0.23-0.27-0.47-0.54-0.69-0.81
		c-0.73-0.86-1.44-1.73-2.14-2.62c-0.29-0.36-0.57-0.72-0.85-1.08c-0.37-0.47-0.74-0.95-1.1-1.43c-0.01-0.01-0.02-0.02-0.03-0.04
		c0-0.01,0-0.01,0-0.01c-0.28-0.38-0.56-0.76-0.84-1.14c-0.2-0.28-0.4-0.56-0.61-0.83c-0.4-0.56-0.8-1.12-1.19-1.68
		c0.55,0.9,1.11,1.8,1.67,2.69c1.74,2.74,3.43,6.1,5.95,8.19C79.4,71.85,79.79,71.85,80.08,71.7z M57.39,12.55
		c-0.02-0.13-0.04-0.25-0.06-0.38c0.01,0.13,0.02,0.26,0.03,0.39C57.36,12.56,57.38,12.56,57.39,12.55z M80.08,71.7
		c-0.39-0.43-0.76-0.87-1.13-1.31c-0.23-0.27-0.47-0.54-0.69-0.81c-0.73-0.86-1.44-1.73-2.14-2.62c-0.29-0.36-0.57-0.72-0.85-1.08
		c-0.37-0.47-0.74-0.95-1.1-1.43c-0.01-0.01-0.02-0.02-0.03-0.04c0-0.01,0-0.01,0-0.01c-0.28-0.38-0.56-0.76-0.84-1.14
		c-0.2-0.28-0.4-0.56-0.61-0.83c-0.4-0.56-0.8-1.12-1.19-1.68c0.55,0.9,1.11,1.8,1.67,2.69c1.74,2.74,3.43,6.1,5.95,8.19
		C79.4,71.85,79.79,71.85,80.08,71.7z M57.39,12.55c-0.02-0.13-0.04-0.25-0.06-0.38c0.01,0.13,0.02,0.26,0.03,0.39
		C57.36,12.56,57.38,12.56,57.39,12.55z M80.08,71.7c-0.39-0.43-0.76-0.87-1.13-1.31c-0.23-0.27-0.47-0.54-0.69-0.81
		c-0.73-0.86-1.44-1.73-2.14-2.62c-0.29-0.36-0.57-0.72-0.85-1.08c-0.37-0.47-0.74-0.95-1.1-1.43c-0.01-0.01-0.02-0.02-0.03-0.04
		c0-0.01,0-0.01,0-0.01c-0.28-0.38-0.56-0.76-0.84-1.14c-0.2-0.28-0.4-0.56-0.61-0.83c-0.4-0.56-0.8-1.12-1.19-1.68
		c0.55,0.9,1.11,1.8,1.67,2.69c1.74,2.74,3.43,6.1,5.95,8.19C79.4,71.85,79.79,71.85,80.08,71.7z M57.39,12.55
		c-0.02-0.13-0.04-0.25-0.06-0.38c0.01,0.13,0.02,0.26,0.03,0.39C57.36,12.56,57.38,12.56,57.39,12.55z M80.08,71.7
		c-0.39-0.43-0.76-0.87-1.13-1.31c-0.23-0.27-0.47-0.54-0.69-0.81c-0.73-0.86-1.44-1.73-2.14-2.62c-0.29-0.36-0.57-0.72-0.85-1.08
		c-0.37-0.47-0.74-0.95-1.1-1.43c-0.01-0.01-0.02-0.02-0.03-0.04c0-0.01,0-0.01,0-0.01c-0.28-0.38-0.56-0.76-0.84-1.14
		c-0.2-0.28-0.4-0.56-0.61-0.83c-0.4-0.56-0.8-1.12-1.19-1.68c0.55,0.9,1.11,1.8,1.67,2.69c1.74,2.74,3.43,6.1,5.95,8.19
		C79.4,71.85,79.79,71.85,80.08,71.7z M57.39,12.55c-0.02-0.13-0.04-0.25-0.06-0.38c0.01,0.13,0.02,0.26,0.03,0.39
		C57.36,12.56,57.38,12.56,57.39,12.55z M80.08,71.7c-0.39-0.43-0.76-0.87-1.13-1.31c-0.23-0.27-0.47-0.54-0.69-0.81
		c-0.73-0.86-1.44-1.73-2.14-2.62c-0.29-0.36-0.57-0.72-0.85-1.08c-0.37-0.47-0.74-0.95-1.1-1.43c-0.01-0.01-0.02-0.02-0.03-0.04
		c0-0.01,0-0.01,0-0.01c-0.28-0.38-0.56-0.76-0.84-1.14c-0.2-0.28-0.4-0.56-0.61-0.83c-0.4-0.56-0.8-1.12-1.19-1.68
		c0.55,0.9,1.11,1.8,1.67,2.69c1.74,2.74,3.43,6.1,5.95,8.19C79.4,71.85,79.79,71.85,80.08,71.7z M57.39,12.55
		c-0.02-0.13-0.04-0.25-0.06-0.38c0.01,0.13,0.02,0.26,0.03,0.39C57.36,12.56,57.38,12.56,57.39,12.55z M80.08,71.7
		c-0.39-0.43-0.76-0.87-1.13-1.31c-0.23-0.27-0.47-0.54-0.69-0.81c-0.73-0.86-1.44-1.73-2.14-2.62c-0.29-0.36-0.57-0.72-0.85-1.08
		c-0.37-0.47-0.74-0.95-1.1-1.43c-0.01-0.01-0.02-0.02-0.03-0.04c0-0.01,0-0.01,0-0.01c-0.28-0.38-0.56-0.76-0.84-1.14
		c-0.2-0.28-0.4-0.56-0.61-0.83c-0.4-0.56-0.8-1.12-1.19-1.68c0.55,0.9,1.11,1.8,1.67,2.69c1.74,2.74,3.43,6.1,5.95,8.19
		C79.4,71.85,79.79,71.85,80.08,71.7z M57.39,12.55c-0.02-0.13-0.04-0.25-0.06-0.38c0.01,0.13,0.02,0.26,0.03,0.39
		C57.36,12.56,57.38,12.56,57.39,12.55z M80.08,71.7c-0.39-0.43-0.76-0.87-1.13-1.31c-0.23-0.27-0.47-0.54-0.69-0.81
		c-0.73-0.86-1.44-1.73-2.14-2.62c-0.29-0.36-0.57-0.72-0.85-1.08c-0.37-0.47-0.74-0.95-1.1-1.43c-0.01-0.01-0.02-0.02-0.03-0.04
		c0-0.01,0-0.01,0-0.01c-0.28-0.38-0.56-0.76-0.84-1.14c-0.2-0.28-0.4-0.56-0.61-0.83c-0.4-0.56-0.8-1.12-1.19-1.68
		c0.55,0.9,1.11,1.8,1.67,2.69c1.74,2.74,3.43,6.1,5.95,8.19C79.4,71.85,79.79,71.85,80.08,71.7z M57.39,12.55
		c-0.02-0.13-0.04-0.25-0.06-0.38c0.01,0.13,0.02,0.26,0.03,0.39C57.36,12.56,57.38,12.56,57.39,12.55z M80.08,71.7
		c-0.39-0.43-0.76-0.87-1.13-1.31c-0.23-0.27-0.47-0.54-0.69-0.81c-0.73-0.86-1.44-1.73-2.14-2.62c-0.29-0.36-0.57-0.72-0.85-1.08
		c-0.37-0.47-0.74-0.95-1.1-1.43c-0.01-0.01-0.02-0.02-0.03-0.04c0-0.01,0-0.01,0-0.01c-0.28-0.38-0.56-0.76-0.84-1.14
		c-0.2-0.28-0.4-0.56-0.61-0.83c-0.4-0.56-0.8-1.12-1.19-1.68c0.55,0.9,1.11,1.8,1.67,2.69c1.74,2.74,3.43,6.1,5.95,8.19
		C79.4,71.85,79.79,71.85,80.08,71.7z M57.39,12.55c-0.02-0.13-0.04-0.25-0.06-0.38c0.01,0.13,0.02,0.26,0.03,0.39
		C57.36,12.56,57.38,12.56,57.39,12.55z M80.08,71.7c-0.39-0.43-0.76-0.87-1.13-1.31c-0.23-0.27-0.47-0.54-0.69-0.81
		c-0.73-0.86-1.44-1.73-2.14-2.62c-0.29-0.36-0.57-0.72-0.85-1.08c-0.37-0.47-0.74-0.95-1.1-1.43c-0.01-0.01-0.02-0.02-0.03-0.04
		c0-0.01,0-0.01,0-0.01c-0.28-0.38-0.56-0.76-0.84-1.14c-0.2-0.28-0.4-0.56-0.61-0.83c-0.4-0.56-0.8-1.12-1.19-1.68
		c0.55,0.9,1.11,1.8,1.67,2.69c1.74,2.74,3.43,6.1,5.95,8.19C79.4,71.85,79.79,71.85,80.08,71.7z M57.39,12.55
		c-0.02-0.13-0.04-0.25-0.06-0.38c0.01,0.13,0.02,0.26,0.03,0.39C57.36,12.56,57.38,12.56,57.39,12.55z M80.08,71.7
		c-0.39-0.43-0.76-0.87-1.13-1.31c-0.23-0.27-0.47-0.54-0.69-0.81c-0.73-0.86-1.44-1.73-2.14-2.62c-0.29-0.36-0.57-0.72-0.85-1.08
		c-0.37-0.47-0.74-0.95-1.1-1.43c-0.01-0.01-0.02-0.02-0.03-0.04c0-0.01,0-0.01,0-0.01c-0.28-0.38-0.56-0.76-0.84-1.14
		c-0.2-0.28-0.4-0.56-0.61-0.83c-0.4-0.56-0.8-1.12-1.19-1.68c0.55,0.9,1.11,1.8,1.67,2.69c1.74,2.74,3.43,6.1,5.95,8.19
		C79.4,71.85,79.79,71.85,80.08,71.7z M57.39,12.55c-0.02-0.13-0.04-0.25-0.06-0.38c0.01,0.13,0.02,0.26,0.03,0.39
		C57.36,12.56,57.38,12.56,57.39,12.55z M57.39,12.55c-0.02-0.13-0.04-0.25-0.06-0.38c0.01,0.13,0.02,0.26,0.03,0.39
		C57.36,12.56,57.38,12.56,57.39,12.55z M80.08,71.7c-0.39-0.43-0.76-0.87-1.13-1.31c-0.23-0.27-0.47-0.54-0.69-0.81
		c-0.73-0.86-1.44-1.73-2.14-2.62c-0.29-0.36-0.57-0.72-0.85-1.08c-0.37-0.47-0.74-0.95-1.1-1.43c-0.01-0.01-0.02-0.02-0.03-0.04
		c0-0.01,0-0.01,0-0.01c-0.28-0.38-0.56-0.76-0.84-1.14c-0.2-0.28-0.4-0.56-0.61-0.83c-0.4-0.56-0.8-1.12-1.19-1.68
		c0.55,0.9,1.11,1.8,1.67,2.69c1.74,2.74,3.43,6.1,5.95,8.19C79.4,71.85,79.79,71.85,80.08,71.7z M57.39,12.55
		c-0.02-0.13-0.04-0.25-0.06-0.38c0.01,0.13,0.02,0.26,0.03,0.39C57.36,12.56,57.38,12.56,57.39,12.55z M80.08,71.7
		c-0.39-0.43-0.76-0.87-1.13-1.31c-0.23-0.27-0.47-0.54-0.69-0.81c-0.73-0.86-1.44-1.73-2.14-2.62c-0.29-0.36-0.57-0.72-0.85-1.08
		c-0.37-0.47-0.74-0.95-1.1-1.43c-0.01-0.01-0.02-0.02-0.03-0.04c0-0.01,0-0.01,0-0.01c-0.28-0.38-0.56-0.76-0.84-1.14
		c-0.2-0.28-0.4-0.56-0.61-0.83c-0.4-0.56-0.8-1.12-1.19-1.68c0.55,0.9,1.11,1.8,1.67,2.69c1.74,2.74,3.43,6.1,5.95,8.19
		C79.4,71.85,79.79,71.85,80.08,71.7z M57.39,12.55c-0.02-0.13-0.04-0.25-0.06-0.38c0.01,0.13,0.02,0.26,0.03,0.39
		C57.36,12.56,57.38,12.56,57.39,12.55z M80.08,71.7c-0.39-0.43-0.76-0.87-1.13-1.31c-0.23-0.27-0.47-0.54-0.69-0.81
		c-0.73-0.86-1.44-1.73-2.14-2.62c-0.29-0.36-0.57-0.72-0.85-1.08c-0.37-0.47-0.74-0.95-1.1-1.43c-0.01-0.01-0.02-0.02-0.03-0.04
		c0-0.01,0-0.01,0-0.01c-0.28-0.38-0.56-0.76-0.84-1.14c-0.2-0.28-0.4-0.56-0.61-0.83c-0.4-0.56-0.8-1.12-1.19-1.68
		c0.55,0.9,1.11,1.8,1.67,2.69c1.74,2.74,3.43,6.1,5.95,8.19C79.4,71.85,79.79,71.85,80.08,71.7z M57.39,12.55
		c-0.02-0.13-0.04-0.25-0.06-0.38c0.01,0.13,0.02,0.26,0.03,0.39C57.36,12.56,57.38,12.56,57.39,12.55z M80.08,71.7
		c-0.39-0.43-0.76-0.87-1.13-1.31c-0.23-0.27-0.47-0.54-0.69-0.81c-0.73-0.86-1.44-1.73-2.14-2.62c-0.29-0.36-0.57-0.72-0.85-1.08
		c-0.37-0.47-0.74-0.95-1.1-1.43c-0.01-0.01-0.02-0.02-0.03-0.04c0-0.01,0-0.01,0-0.01c-0.28-0.38-0.56-0.76-0.84-1.14
		c-0.2-0.28-0.4-0.56-0.61-0.83c-0.4-0.56-0.8-1.12-1.19-1.68c0.55,0.9,1.11,1.8,1.67,2.69c1.74,2.74,3.43,6.1,5.95,8.19
		C79.4,71.85,79.79,71.85,80.08,71.7z M57.39,12.55c-0.02-0.13-0.04-0.25-0.06-0.38c0.01,0.13,0.02,0.26,0.03,0.39
		C57.36,12.56,57.38,12.56,57.39,12.55z M80.08,71.7c-0.39-0.43-0.76-0.87-1.13-1.31c-0.23-0.27-0.46-0.55-0.69-0.81
		c-0.73-0.86-1.44-1.73-2.14-2.62c-0.29-0.36-0.57-0.72-0.85-1.08c-0.37-0.47-0.74-0.95-1.1-1.43c-0.01-0.01-0.02-0.02-0.02-0.04
		l-0.01-0.01c-0.28-0.38-0.56-0.76-0.84-1.14c-0.2-0.28-0.4-0.56-0.61-0.83c-0.4-0.56-0.8-1.12-1.19-1.68
		c0.55,0.9,1.11,1.8,1.67,2.69c1.74,2.74,3.43,6.1,5.95,8.19C79.4,71.85,79.79,71.85,80.08,71.7z"/>
	<path class="st1" d="M58.9,43.35c-5.42-11.13-7.77-24.04-8.82-36.29c-0.06-0.72,1.05-0.71,1.12,0c1.31,12.47,4.82,24.05,8.39,35.99
		C59.72,43.46,59.09,43.74,58.9,43.35z"/>
	<path class="st1" d="M85.09,77.13C76.3,68.1,68.55,57.81,63.2,46.36c-0.1,0-0.19-0.05-0.24-0.16c-0.44-1.07-0.85-2.15-1.25-3.23
		c-0.2-0.48-0.4-0.95-0.59-1.43c-0.03-0.07-0.02-0.13,0-0.18c-1.91-5.32-3.52-10.77-5.31-16.11c-0.15-0.44,0.55-0.63,0.69-0.19
		c2.16,6.41,4.62,12.82,6.47,19.34c2.15,4.63,4.71,8.99,7.53,13.18c-6-10.25-9.78-21.96-12.55-33.44c-0.09-0.37,0.47-0.52,0.57-0.16
		c3.05,11.95,7.85,23,12.78,34.26c0.06,0.14-0.05,0.27-0.16,0.27c4.37,6.36,9.3,12.34,14.25,18.33
		C85.55,77.04,85.28,77.33,85.09,77.13z"/>
	<path class="st1" d="M121.34,99.45c-5.64-1.79-11.06-5.39-15.93-8.68c-5.03-3.4-9.69-7.28-14.12-11.43c-0.13-0.12-0.1-0.28,0-0.37
		c-1.37-1.37-2.69-2.75-3.99-4.09c-2.97-3.08-5.76-6.32-8.42-9.67c0.87,1.46,1.75,2.91,2.64,4.37c0.17,0.28-0.24,0.49-0.42,0.25
		c-2.96-3.95-5.64-8.15-8.11-12.5c0,0-0.01-0.01-0.01-0.01c0,0,0-0.01-0.01-0.01c-4.72-8.32-8.61-17.2-11.95-25.99
		c-0.12-0.31,0.38-0.44,0.5-0.14c4.22,10.89,9.61,20.9,15.46,30.83c3.54,4.4,7.33,8.58,11.32,12.6c4.83,4.86,10.35,8.93,15.33,13.59
		c0.92,0.63,1.85,1.26,2.79,1.88c4.9,3.21,10.28,5.59,15.18,8.75C121.91,99.03,121.72,99.57,121.34,99.45z"/>
	<path class="st1" d="M89.54,84.75c-8.09-7.09-14.79-16.05-20.88-24.87c-0.25-0.37,0.34-0.71,0.6-0.35
		c6.26,8.87,13.54,16.7,20.57,24.93C89.99,84.67,89.74,84.93,89.54,84.75z"/>
	<path class="st1" d="M103.37,84.65c-7.3-5.37-13.72-12.35-19.86-18.98c-0.33-0.36,0.2-0.9,0.54-0.54
		c6.24,6.72,13.19,12.62,19.62,19.13C103.87,84.45,103.61,84.82,103.37,84.65z"/>
	<path class="st1" d="M120.6,102.13c-6.97-1.57-13.15-6.26-18.91-10.27c-0.38-0.26-0.02-0.88,0.36-0.62
		c6.04,4.13,12.03,7.53,18.74,10.43C121.07,101.78,120.87,102.19,120.6,102.13z"/>
	<path class="st1" d="M131.06,104.29c-6.55-2.34-12.89-5.34-19.22-8.22c-0.24-0.11-0.03-0.47,0.21-0.36
		c6.35,2.83,12.84,5.35,19.13,8.29C131.34,104.08,131.23,104.35,131.06,104.29z"/>
	<path class="st1" d="M146.56,107.89c-5.7-0.62-11.17-2.53-16.35-4.91c-0.33-0.15-0.04-0.63,0.28-0.48
		c5.22,2.31,10.58,3.69,16.13,4.98C146.84,107.53,146.8,107.91,146.56,107.89z"/>
	<path class="st1" d="M148.85,104.62c-6.44,0.3-13.41-2.1-19.35-4.35c-0.38-0.14-0.22-0.76,0.17-0.62
		c6.33,2.25,12.79,2.9,19.24,4.55C149.15,104.26,149.09,104.61,148.85,104.62z"/>
	<path class="st1" d="M148.25,101.51c-7.73-0.16-15.61-2.31-22.91-4.7c-0.37-0.12-0.21-0.7,0.16-0.58
		c7.53,2.36,15.09,3.38,22.82,4.72C148.64,101,148.57,101.51,148.25,101.51z"/>
	<path class="st1" d="M62.02,27.28c-3.64-7.14-5.11-15.19-5.5-23.14c-0.03-0.52,0.77-0.51,0.8,0c0.56,7.97,2.65,15.41,5.11,22.97
		C62.51,27.35,62.14,27.51,62.02,27.28z"/>
	<path class="st1" d="M64.41,30.93c-3.16-6.83-4.3-14.57-4.76-22.03c-0.04-0.67,1-0.67,1.05,0c0.52,7.52,2.41,14.55,4.2,21.82
		C64.97,31,64.55,31.21,64.41,30.93z"/>
	<path class="st4" d="M47.76,8.45c-0.17,0.23-0.32,0.46-0.57,0.6c-0.24,0.14-0.47,0.14-0.73,0.17C46,9.26,45.59,8.87,45.47,8.47
		c-0.14-0.46-0.07-0.84,0.18-1.26c0.33-0.55,1.11-0.8,1.67-0.44C47.83,7.1,48.16,7.89,47.76,8.45z"/>
	<path class="st4" d="M47.83,11.7c-0.05,0.01-0.1,0.02-0.14,0.03c-0.39,0.09-0.4-0.57,0-0.47c0.05,0.01,0.1,0.02,0.14,0.03
		C48.02,11.35,48.02,11.66,47.83,11.7z"/>
	<path class="st4" d="M53.13,9.2c-0.98,0-0.98-1.52,0-1.52C54.11,7.68,54.11,9.2,53.13,9.2z"/>
	<path class="st4" d="M56.18,5.35L56,5.25c-0.57-0.3,0.23-1.11,0.53-0.53l0.1,0.19C56.78,5.2,56.47,5.5,56.18,5.35z"/>
	<path class="st4" d="M60.33,8.32c-0.04,0-0.04-0.06,0-0.06C60.37,8.26,60.37,8.32,60.33,8.32z"/>
	<path class="st4" d="M58.03,15.33c-1.17,0-1.18-1.82,0-1.82C59.21,13.5,59.21,15.33,58.03,15.33z"/>
	<path class="st4" d="M51.6,18.12c-0.04,0-0.04-0.06,0-0.06C51.64,18.06,51.64,18.12,51.6,18.12z"/>
	<path class="st4" d="M57.57,20.49c-1.32,0-1.32-2.05,0-2.05C58.89,18.44,58.9,20.49,57.57,20.49z"/>
	<circle class="st4" cx="61.25" cy="21.77" r="0.9"/>
	<path class="st4" d="M59.38,25.8c-0.23,0.04-0.47,0.09-0.7,0.13c-0.57,0.1-1-0.43-0.74-0.96c0.1-0.21,0.21-0.42,0.31-0.63
		c0.32-0.64,1.24-0.62,1.65-0.1C60.29,24.75,60.08,25.67,59.38,25.8z"/>
	<path class="st4" d="M51.75,28.27c-1.28,0-1.28-1.98,0-1.98C53.03,26.29,53.03,28.27,51.75,28.27z"/>
	<path class="st4" d="M50.15,31.02c-0.02,0.1-0.05,0.19-0.07,0.29c-0.04,0.16-0.29,0.16-0.33,0c-0.02-0.1-0.05-0.19-0.07-0.29
		C49.59,30.63,50.25,30.62,50.15,31.02z"/>
	<path class="st4" d="M54.36,37.57c-0.04,0-0.04-0.06,0-0.06C54.4,37.51,54.4,37.57,54.36,37.57z"/>
	<path class="st4" d="M59.56,38.95c-0.04,0-0.04-0.06,0-0.06C59.6,38.89,59.6,38.95,59.56,38.95z"/>
	<path class="st4" d="M64.92,37.67c-1.35,0-1.35-2.1,0-2.1C66.27,35.57,66.28,37.67,64.92,37.67z"/>
	<path class="st4" d="M66.61,39.41c-0.04,0-0.04-0.06,0-0.06C66.65,39.35,66.65,39.41,66.61,39.41z"/>
	<path class="st4" d="M56.19,40.74c-0.96,0-0.96-1.49,0-1.49C57.16,39.24,57.16,40.74,56.19,40.74z"/>
	<path class="st4" d="M54.82,42.96c-1.06,0-1.06-1.65,0-1.65C55.88,41.31,55.88,42.96,54.82,42.96z"/>
	<path class="st4" d="M59.1,51.07c-0.59,0-1.15-0.52-1.12-1.12c0.03-0.61,0.49-1.12,1.12-1.12c0.59,0,1.15,0.52,1.12,1.12
		C60.2,50.55,59.73,51.07,59.1,51.07z"/>
	<path class="st4" d="M63.55,51.94c-0.2,0-0.2-0.32,0-0.32C63.75,51.63,63.75,51.94,63.55,51.94z"/>
	<path class="st4" d="M68.29,50.01c-1.66,0-1.67-2.58,0-2.58C69.96,47.43,69.96,50.01,68.29,50.01z"/>
	<path class="st4" d="M73.2,53.33c-1.2,0-1.2-1.87,0-1.87C74.4,51.46,74.4,53.33,73.2,53.33z"/>
	<path class="st4" d="M73.1,55.67l-0.19,0.1c-0.32,0.17-0.66-0.17-0.49-0.49l0.1-0.19C72.85,54.47,73.73,55.34,73.1,55.67z"/>
	<path class="st4" d="M67.53,60.67c-0.79,0-0.8-1.23,0-1.23C68.32,59.44,68.32,60.67,67.53,60.67z"/>
	<path class="st4" d="M70.74,64.95c-1.17,0-1.18-1.82,0-1.82C71.92,63.13,71.92,64.95,70.74,64.95z"/>
	<path class="st4" d="M75.19,66.21c-0.04,0-0.04-0.06,0-0.06C75.23,66.15,75.23,66.21,75.19,66.21z"/>
	<path class="st4" d="M78.71,69.43c-0.63,0-0.63-0.98,0-0.98C79.34,68.45,79.34,69.43,78.71,69.43z"/>
	<path class="st4" d="M81.16,80.73c-1.58,0-1.58-2.46,0-2.46C82.74,78.28,82.74,80.73,81.16,80.73z"/>
	<path class="st4" d="M85.45,83.43c-1.5,0-1.5-2.33,0-2.33C86.94,81.1,86.95,83.43,85.45,83.43z"/>
	<path class="st4" d="M89.43,80.02c-1.84,0-1.84-2.86,0-2.86C91.27,77.16,91.27,80.02,89.43,80.02z"/>
	<path class="st4" d="M92.03,75.52c-0.56,0-1.1-0.49-1.07-1.07c0.03-0.58,0.47-1.07,1.07-1.07c0.56,0,1.1,0.49,1.07,1.07
		C93.08,75.03,92.63,75.52,92.03,75.52z"/>
	<path class="st4" d="M85.6,64.94c-1.76,0-1.76-2.73,0-2.73C87.36,62.21,87.36,64.94,85.6,64.94z"/>
	<path class="st4" d="M84.84,61.61c-1.8,0-1.8-2.8,0-2.8C86.64,58.81,86.64,61.61,84.84,61.61z"/>
	<path class="st4" d="M97.55,76.8c-1.64,0-1.65-2.56,0-2.56C99.19,74.25,99.19,76.8,97.55,76.8z"/>
	<path class="st4" d="M101.99,78.88c-1.37,0-1.37-2.13,0-2.13C103.36,76.76,103.36,78.88,101.99,78.88z"/>
	<path class="st4" d="M106.28,83.15c-1.53,0-1.54-2.38,0-2.38C107.81,80.77,107.81,83.15,106.28,83.15z"/>
	<path class="st4" d="M104.75,89.33c-1.6,0-1.6-2.48,0-2.48C106.34,86.84,106.35,89.33,104.75,89.33z"/>
	<path class="st4" d="M101.68,95.46c-0.62,0-0.62-0.96,0-0.96C102.3,94.49,102.3,95.46,101.68,95.46z"/>
	<path class="st4" d="M109.19,99.1c-1.16,0-1.17-1.81,0-1.81C110.35,97.29,110.35,99.1,109.19,99.1z"/>
	<path class="st4" d="M115.16,104.2c-0.04,0-0.04-0.06,0-0.06C115.2,104.13,115.2,104.2,115.16,104.2z"/>
	<path class="st4" d="M122.87,106.82c-0.08,0.07-0.16,0.15-0.24,0.22c-0.28,0.27-0.76,0.22-0.96-0.12c-0.18-0.31-0.03-0.83,0.36-0.9
		c0.11-0.02,0.22-0.04,0.33-0.06C122.84,105.89,123.27,106.44,122.87,106.82z"/>
	<path class="st4" d="M126.19,105.65c-0.53,0-0.53-0.82,0-0.82C126.72,104.83,126.72,105.65,126.19,105.65z"/>
	<path class="st4" d="M130.43,109.25c-0.06-0.03-0.13-0.06-0.19-0.08c-0.28-0.12-0.3-0.55-0.1-0.74c0.2-0.2,0.62-0.19,0.74,0.1
		c0.03,0.06,0.06,0.13,0.08,0.19C131.13,109.09,130.8,109.42,130.43,109.25z"/>
	<path class="st4" d="M134.77,110.8c-1.05,0-1.05-1.64,0-1.64C135.82,109.17,135.82,110.8,134.77,110.8z"/>
	<path class="st4" d="M141.2,110.2c-1.85,0-1.85-2.87,0-2.87C143.05,107.32,143.05,110.2,141.2,110.2z"/>
	<path class="st4" d="M146.56,112.67c-1.49,0-1.49-2.31,0-2.31C148.05,110.36,148.05,112.67,146.56,112.67z"/>
	<path class="st4" d="M150.69,112.85c-1.72,0-1.72-2.67,0-2.67C152.41,110.18,152.42,112.85,150.69,112.85z"/>
	<path class="st4" d="M154.52,111.51c-1.37,0-1.37-2.13,0-2.13C155.89,109.38,155.89,111.51,154.52,111.51z"/>
	<path class="st4" d="M156.51,112.98c-1.49,0-1.49-2.31,0-2.31C158,110.67,158,112.98,156.51,112.98z"/>
	<path class="st4" d="M151.46,96.64c-0.18,0-0.33-0.03-0.47-0.08c-0.19,0.35-0.54,0.6-1.06,0.6c-1.63,0-1.63-2.53,0-2.53
		c0.13,0,0.24,0.02,0.35,0.05c0.19-0.43,0.58-0.75,1.18-0.75C153.21,93.92,153.21,96.64,151.46,96.64z"/>
	<path class="st4" d="M140.43,96.33c-1.54,0-1.55-2.4,0-2.4C141.98,93.93,141.98,96.33,140.43,96.33z"/>
	<path class="st4" d="M135.07,91.59c-1.55,0-1.55-2.41,0-2.41C136.62,89.17,136.63,91.59,135.07,91.59z"/>
	<path class="st4" d="M130.02,93.37c-1.48,0-1.48-2.3,0-2.3C131.5,91.07,131.5,93.37,130.02,93.37z"/>
	<path class="st4" d="M123.13,89.35c-1.43,0-1.43-2.23,0-2.23C124.56,87.12,124.56,89.35,123.13,89.35z"/>
	<path class="st4" d="M115.01,83.97c-1.41,0-1.42-2.2,0-2.2C116.42,81.78,116.42,83.97,115.01,83.97z"/>
	<path class="st4" d="M111.94,83.91c-0.74,0-0.74-1.15,0-1.15C112.68,82.76,112.68,83.91,111.94,83.91z"/>
	<path class="st5" d="M47.87,13.49c-1.37,0-1.37-2.13,0-2.13C49.24,11.36,49.24,13.49,47.87,13.49z"/>
	<path class="st5" d="M52.57,19.98c-0.79,0-0.8-1.23,0-1.23C53.36,18.75,53.37,19.98,52.57,19.98z"/>
	<path class="st5" d="M57.88,14.84c-1.53,0-1.54-2.38,0-2.38C59.41,12.46,59.42,14.84,57.88,14.84z"/>
	<path class="st5" d="M62.58,18.69c-1.5,0-1.5-2.33,0-2.33C64.07,16.36,64.08,18.69,62.58,18.69z"/>
	<path class="st5" d="M81.36,81.59c-1.24,0-1.24-1.92,0-1.92C82.6,79.67,82.6,81.59,81.36,81.59z"/>
	<path class="st5" d="M84.22,83.62c-1.75,0-1.75-2.71,0-2.71C85.97,80.91,85.97,83.62,84.22,83.62z"/>
	<path class="st5" d="M92.39,93.83c-1.48,0-1.48-2.3,0-2.3C93.87,91.53,93.87,93.83,92.39,93.83z"/>
	<path class="st5" d="M101.17,83.56c-1.66,0-1.67-2.58,0-2.58C102.84,80.97,102.84,83.56,101.17,83.56z"/>
	<path class="st5" d="M108.32,98.25c-1.65,0-1.66-2.57,0-2.57C109.97,95.68,109.98,98.25,108.32,98.25z"/>
	<path class="st5" d="M112.4,101.12c-1.67,0-1.68-2.6,0-2.6C114.08,98.53,114.08,101.12,112.4,101.12z"/>
	<path class="st5" d="M122.82,106.18c-1.61,0-1.61-2.5,0-2.5C124.43,103.68,124.43,106.18,122.82,106.18z"/>
	<path class="st5" d="M128.74,94.49c-1.28,0-1.29-2,0-2C130.03,92.5,130.03,94.49,128.74,94.49z"/>
	<path class="st5" d="M144.06,101.78c-1.47,0-1.47-2.28,0-2.28C145.53,99.5,145.53,101.78,144.06,101.78z"/>
	<path class="st5" d="M141.2,107.22c-1.63,0-1.63-2.53,0-2.53C142.82,104.69,142.83,107.22,141.2,107.22z"/>
	<path class="st5" d="M149.16,114.65c-1.74,0-1.74-2.7,0-2.7C150.9,111.95,150.9,114.65,149.16,114.65z"/>
	<path class="st5" d="M151.2,111.41c-1.51,0-1.51-2.34,0-2.34C152.71,109.07,152.71,111.41,151.2,111.41z"/>
	<path class="st5" d="M150.39,98.1c-1.72,0-1.72-2.67,0-2.67C152.11,95.43,152.11,98.1,150.39,98.1z"/>
	<circle class="st5" cx="83.62" cy="59.37" r="0.9"/>
	<path class="st5" d="M87.08,59.76c-1,0-1-1.55,0-1.55C88.08,58.21,88.08,59.76,87.08,59.76z"/>
	<path class="st5" d="M61.56,60.89c-0.88,0-0.88-1.36,0-1.36C62.43,59.53,62.43,60.89,61.56,60.89z"/>
	<path class="st5" d="M59.72,56.91c-1.01,0-1.01-1.57,0-1.57C60.72,55.34,60.73,56.91,59.72,56.91z"/>
	<path class="st5" d="M57.68,50.52c-0.41,0-0.41-0.63,0-0.63C58.08,49.89,58.08,50.52,57.68,50.52z"/>
	<path class="st5" d="M54.41,39c-1.35,0-1.35-2.1,0-2.1C55.76,36.9,55.76,39,54.41,39z"/>
</g>
</svg>
