<?xml version="1.0" encoding="utf-8"?>
<!-- Generator: Adobe Illustrator 25.2.3, SVG Export Plug-In . SVG Version: 6.00 Build 0)  -->
<svg version="1.1" id="Layer_1" xmlns="http://www.w3.org/2000/svg" xmlns:xlink="http://www.w3.org/1999/xlink" x="0px" y="0px"
	 viewBox="0 0 156 156" style="enable-background:new 0 0 156 156;" xml:space="preserve">
<style type="text/css">
	.st0{fill:#9E8D85;}
	.st1{fill:#9EC900;}
	.st2{fill:#7F6F6A;}
	.st3{fill:#544745;}
	.st4{fill:#C8D60D;}
	.st5{fill:#80AF00;}
</style>
<g>
	<path class="st0" d="M140.24-0.74h-71.3c-0.06,1.23-0.13,2.46-0.2,3.69c-0.45,1.48-1.13,2.94-1.64,4.28
		c-1.02,2.68-1.87,5.4-2.61,8.17c-1.45,5.45-2.57,11.02-4.76,16.24c-3.61,8.6-9.52,16.25-16.77,22.08
		c-7.2,5.78-15.7,9.15-24.54,11.55c-4.66,1.26-9.45,2.09-14.07,3.45c-2.05,0.61-3.92,1.56-5.4,2.89v66.1
		c11.47,1.07,22.7,0.09,33.88-2.91c11.08-2.98,22-6.8,31.96-12.57c9.53-5.53,18.95-11.44,27.06-18.96c3.44-3.2,6.67-6.6,9.78-10.12
		c0.87,0.32,1.85,0.37,2.79,0.09l0.01-0.01c0.65-0.2,1.28-0.57,1.84-1.13c0.16-0.15,0.31-0.32,0.45-0.51
		c5.2-6.75,9.01-14.99,12.74-22.62c3.63-7.45,6.94-15.05,10.16-22.69c3.39-8.06,6.73-16.19,8.64-24.75
		C139.87,14.22,140.48,6.73,140.24-0.74z"/>
	<path class="st1" d="M117.92-0.74h-29.8c-0.17,2.76-0.13,5.49,0.18,8.26c-0.57,0.66-0.92,1.55-0.89,2.68
		c0.05,1.94,0.25,4.16-0.47,6.02c-0.53,1.38-1.64,2.41-2.39,3.66c-1.96,3.31-2.17,7.38-2.72,11.09c-0.23,1.57-0.29,3.37-1.01,4.8
		c-0.72,1.45-2.04,2.55-2.82,3.99c-1.49,2.73-1.86,5.8-2.57,8.77c-0.87,3.58-3.02,4.89-5.68,7.17c-1.29,1.11-2.36,2.42-3.21,3.88
		c-0.68,1.17-1.08,2.71-1.97,3.73c-1.74,1.99-5.63,1.61-7.9,3.06c-1.77,1.14-2.87,2.79-3.43,4.65c-2.22,0.84-4.28,2.25-6.22,3.53
		c-1.39,0.93-6.94,6.21-8.41,5.2c-2.19-1.5-5.27,0.08-5.89,2.46c-0.47,0.22-0.93,0.45-1.38,0.69c-1.44,0.8-2.7,1.73-4.18,2.3
		c-0.62-0.17-1.32-0.15-2.05,0.1c-2.11,0.74-4.21,1.49-6.33,2.22c-1.94,0.67-2.67,0.48-4.63,0.29c-2.02-0.18-3.87,0.58-5.84,0.89
		c-2.29,0.37-4.69,0.34-6.97-0.02c-0.91-0.15-1.72,0-2.4,0.34v29.5c0.56,0.07,1.13,0.06,1.67-0.05c1.58,0.13,3.16-0.16,4.63-0.83
		c3.12,1.91,7.46,1.97,10.86,0.96c2.5-0.74,4.66-2.73,7.21-3.17c2.64-0.47,5.35,0.53,8.05-0.01c2.52-0.5,4.53-1.92,6.71-3.2
		c2.37-1.38,4.91-2.33,7.46-3.33c4.82-1.89,9.55-3.99,13.02-7.98c0.16-0.18,0.3-0.37,0.42-0.56c3.89,0.29,7.83-1.36,10.44-4.53
		c1.95-2.37,2.93-4.97,5.54-6.79c2.44-1.7,5.29-2.7,7.62-4.58c2.06-1.65,3.3-3.87,4.89-5.92c1.56-2.03,3.88-2.87,5.9-4.36
		c4.4-3.24,5.76-8.64,8.26-13.26c2.49-4.59,5.43-9.13,6.68-14.27c0.75-0.81,1.49-1.64,2.08-2.54c1.35-2.06,1.07-4.37,1.44-6.71
		c0.4-2.54,1.38-4.79,2.38-7.13c1.04-2.44,1.32-4.85,1.58-7.47c0.27-2.68,1.49-5.13,1.65-7.82c0.15-2.4-0.44-4.67-0.12-7.09
		C117.72,4.88,118.02,2.07,117.92-0.74z"/>
	<path class="st2" d="M144.03-0.74h-10.15c-0.06,0.44-0.75,0.88-0.78,1.32c-0.02,0.43,0.04,0.89,0.12,1.34
		c-0.09,0.34-0.07,0.73,0.1,1.12c1.16,2.57,1.74,6.5,1.92,9.31c0.18,2.79-1.36,4.82-2.05,7.4c-0.56,2.12-0.57,4.22-0.36,6.38
		c0.26,2.68-0.66,4.56-1.48,6.82c-0.26,0.1-0.48,0.26-0.64,0.49c-1.05,1.53-2.32,3.21-3.05,4.93c-0.74,1.74-0.57,3.4-0.58,5.23
		c-0.02,5.4-4.36,7.68-6.59,12.05c-0.9,1.77-0.97,3.3-1.07,5.23c-0.07,1.58,0,2.86-1.22,4.14c-0.66,0.69-1.54,1.05-2.28,1.64
		c-2.16,1.75-2.74,4.88-2.92,7.67c-0.43,0.15-0.78,0.47-0.88,0.97c-0.82,3.99-5.32,4.52-7.07,7.95c-0.94,1.84-0.3,3.94-2.13,5.3
		c-1.39,1.04-3.06,1.53-4.26,2.84c-1.14,1.24-1.47,2.84-2.24,4.28c-1.15,2.16-3.67,2.51-5.7,3.54c-1.64,0.83-3.7,1.96-4.39,3.66
		c-0.6,0.04-1.19,0.38-1.46,1.08c-0.65,1.7-0.83,3.43-2.4,4.56c-1.22,0.88-2.57,0.95-3.98,1.29c-2.02,0.5-2.71,1.33-3.77,3.01
		c-2.11,3.36-6.06,3.42-9.41,4.79c-1.18,0.48-2.12,0.97-2.73,1.94c-0.4-0.26-0.93-0.3-1.45,0.07c-1.87,1.34-3.23,3.47-5.23,4.58
		c-2.28,1.27-5.55,0.53-8.09,1.37c-2.31,0.76-3.67,2.03-5.42,3.62c-2.25,2.03-4.96,2.82-7.87,3.15c-0.12-0.15-0.3-0.29-0.53-0.4
		c-2.13-1.06-3.57-0.67-5.78,0c-2.81,0.85-5.68,1.45-8.56,2.01c-3.07,0.6-5.71,1-8.8,0.31c-1.71-0.38-3.34-0.64-5-0.34
		c-1.02-0.94-2.62-0.44-3.91-0.4c-0.98,0.03-2.03-0.09-3.03,0.01v10.34c0.06,0.01,0.12,0.01,0.18,0.01c0.54,0.09,1.12,0,1.75-0.2
		c0.34-0.02,0.69-0.04,1.03-0.06c4.73,2.61,8.65,0.94,13.75-0.84c3.71-1.29,7.08-0.96,10.91-0.39c2.03,0.31,3.67,0.3,5.25-1.13
		c0.17-0.15,0.29-0.32,0.37-0.49c0.27-0.06,0.54-0.12,0.79-0.18c2.85-0.72,5.61-0.28,7.98-1.51c1.26,0.37,2.35-0.01,3.35-1.02
		c1.38-1.41,0.85-2.5,3.39-2.91c0.96-0.16,2.04,0.11,3.03-0.01c1.89-0.21,3.67-0.93,5.18-2.08c0.75-0.57,1.29-1.32,2-1.91
		c1.21-1,2.31-1.07,3.77-1.24c1.82-0.2,2.81-1.13,4.04-2.38c2.13-2.17,3.7-2.35,6.57-2.93c2.42-0.5,3.7-2,3.61-4.01
		c1.62-0.79,2.97-1.39,4.95-1.73c1.6-0.28,3.03-0.59,4.33-1.61c3.1-2.43,5.53-6.22,8.07-9.21c1.39-1.64,2.72-3.23,4.57-4.37
		c1.42-0.87,3.14-1.21,4.52-2.08c2.52-1.6,1.91-5.07,3.28-7.36c0.12-0.17,0.24-0.34,0.36-0.51c0.06-0.07,0.11-0.15,0.18-0.21
		c1.84-0.01,4.03-0.91,5.16-2.4c0.72-0.94,0.71-1.93,0.96-3c0.18-0.25,0.26-0.52,0.26-0.8c0.59-1.35,1.87-2.56,3.09-3.38
		c1.72-1.15,3.97-1.16,5.21-2.99c0.56-0.81,0.66-1.7,0.84-2.66c0.34-1.83,0.86-2.62,2.05-3.9c1.7-1.84,1.64-4.4,2.44-6.65
		c1.08-3.06,3.66-3.79,5.57-6.07c1.59-1.88,1.08-3.33,0.56-5.5c-0.42-1.78-0.66-4.34-0.17-6.45c4.5-2.7,8.16-7.39,7.43-12.74
		c-0.49-3.63-0.23-6.94,1.11-10.38c0.86-2.24,3.39-4.94,3.12-7.48c-0.19-1.79-1.35-2.78-0.85-4.83c0.28-1.14,1.12-2.1,1.35-3.29
		c0.26-1.31-0.01-2.4-0.27-3.68c-0.36-1.73-0.26-3.14-0.08-4.88C144.02,1.55,144.16,0.36,144.03-0.74z"/>
	<path class="st2" d="M73.35-0.74H63.01c-0.02,1.18,0.31,2.57,0.55,3.7c-0.3,0.25-0.5,0.63-0.45,1.16c0.12,1.64-1.37,2.99-1.38,4.69
		c-0.01,1.97,0.85,3.49-0.04,5.47c-0.69,1.53-1.43,2.81-1.71,4.48c-0.18,1.08-0.14,2.46-0.66,3.46c-0.36,0.7-1.12,1.16-1.53,1.82
		c-1.04,1.65-0.38,2.73-0.83,4.49c-0.58,2.25-3.41,2.46-4.88,3.8c-1.96,1.78-1.43,4.63-2.2,6.98c-0.23,0-0.47,0.07-0.68,0.24
		c-1.7,1.28-3.64,1.47-4.53,3.62c-0.68,1.64-0.64,2.01-2.3,3.14c-0.77,0.53-1.45,1-2.05,1.74c-0.78,0.96-1.18,2.14-1.83,3.19
		c-0.9,1.46-2.21,2.1-3.79,2.63c-1.98,0.67-4.52,0.56-6.19,1.97c-0.94,0.79-1.23,1.97-2.68,2.08c-0.91,0.07-1.61-0.49-2.62-0.21
		c-0.66,0.18-1.22,0.54-1.68,1.04c-0.65,0.7-0.72,1.94-1.31,2.55c-1.53,1.59-2.85-1.73-4.63-1.13c-1.2,0.4-0.89,2.31-1.61,2.96
		c-1.75-1.12-4.04-2.3-5.84-1.58c-1.35,0.54-1.89,1.62-3.46,1.81c-1.78,0.21-3.83-0.22-5.61-0.41c-0.05-0.01-0.1-0.01-0.15-0.01
		v10.41c1.16,0.1,2.34,0,3.5-0.07c0.97-0.06,1.99,0,2.93-0.21c1.15,0.07,1.8,0.07,3.04-0.12c1.94-0.29,3.24,0.53,5.05,0.69
		c1.03,0.09,2.68-0.2,3.38-1.1c0.04-0.02,0.09-0.02,0.14-0.04c1.96-0.77,2.51-2.73,4.32-3.71c2.45-1.31,5.53-0.78,8.15-1.59
		c2.09-0.65,3.98-1.81,5.61-3.28c1.42-1.28,2.36-2.55,4.4-2.82c0.83-0.11,1.68-0.1,2.51-0.31c1.63-0.42,2.85-1.35,3.69-2.83
		c0.47-0.85,0.71-1.81,0.89-2.74c0.08-0.59,0.16-1.19,0.25-1.79c0.9-1.56,2.13-2.27,3.67-2.13c3.91-1.13,5.67-4.86,6.46-8.66
		c3-0.99,6.38-4.36,7.68-7.07c0.64-1.35,0.99-2.88,0.69-4.37c-0.05-0.27-0.21-0.59-0.36-0.93c0.17-0.73,0.04-1.51-0.3-2.17
		c0.25-1.31,1.19-1.86,2.22-2.82c2.89-2.7,3.49-5.5,2.87-9.32c-0.28-1.69-0.24-3.16,0.61-4.66c0.31-0.55,0.88-1.02,1.19-1.58
		c0.58-1.02,0.87-1.98,0.81-3.03c0.58-1.01,0.51-2.46,0.58-3.58C73.02,1.94,73.39,0.54,73.35-0.74z M16.62,63.03
		c0.16,0.11,0.31,0.22,0.47,0.34c-0.13,0.04-0.26,0.09-0.39,0.15c-0.1,0.05-0.18,0.12-0.26,0.19C16.5,63.48,16.57,63.24,16.62,63.03
		z"/>
	<path class="st3" d="M144.9-0.74h-2.45c-0.36,1.89-0.63,3.8-0.49,5.73c0.07,0.97,0.26,1.9,0.4,2.85c0.31,1.96,0.06,3.12-0.83,4.91
		c-0.64,1.29-1.33,2.55-1.1,4.06c0.21,1.43,1.75,2.22,1.72,3.61c-0.02,0.95-1.69,2.92-2.13,3.82c-0.37,0.75-0.71,1.51-1.02,2.29
		c-0.83,2.1-1.42,4.3-1.53,6.56c-0.1,1.92,0.32,3.75,0.59,5.64c0.47,3.21-0.26,5.14-2.6,7.14c-2.15,1.83-4.56,3.49-4.85,6.53
		c-0.18,1.84,0.51,3.5,0.86,5.27c0.68,3.46-1.64,4.36-3.82,6.13c-1.26,1.02-2.25,2.23-2.9,3.74c-0.69,1.61-0.32,4.26-1.62,5.52
		c-0.41,0.4-1.32,0.46-1.81,0.93c-0.41,0.39-0.7,0.95-0.91,1.46c-0.43,1.05-0.25,6.4-1.91,5.91c-0.5-0.15-0.91,0.02-1.18,0.31
		c-0.04,0.03-0.08,0.06-0.12,0.09c-3.13,0.88-5.46,2.18-6.08,5.62c-0.26,1.47-0.01,3.53-1.69,4.24c-0.69,0.29-1.64,0.12-2.37,0.27
		c-0.28,0.06-0.55,0.13-0.81,0.21c-0.71,0.23-1.33,0.57-1.84,1.13l-0.01,0.01c-0.14,0.16-0.27,0.34-0.39,0.53
		c-0.69,1.1-0.72,2.49-0.83,3.74c-0.06,0.73,0.04,1.67-0.31,2.34c-0.9,1.76-2.42,1.33-3.89,1.83c-1.7,0.56-2.55,1.78-3.74,3.04
		c-1.47,1.57-3.27,2.76-4.73,4.35c-3.45,3.76-5.59,8.41-11.22,8.94c-1.37,0.13-2.76,0.09-3.78,1.18c-1.24,1.34-0.36,3.34-2.35,3.66
		c-0.54,0.09-1.57-0.32-2.2-0.25c-0.76,0.07-1.48,0.31-2.16,0.65c-1.82,0.9-2.71,2.52-4.16,3.84c-1.53,1.42-1.83,0.28-3.63,0.48
		c-1.35,0.15-2.29,0.91-2.99,2.04c-0.21,0.04-0.41,0.14-0.59,0.32c-1.04,1.02-1.91,2.08-3.22,2.69c-1.97,0.91-3.96,0.7-6.03,0.72
		c-1.81,0.01-3.38,0.36-4.45,1.94c-0.5,0.74-0.59,1.64-1.04,2.38c-1,1.68-2.35,0.59-3.98,0.27c-1.91-0.38-3.95-0.41-5.65,0.64
		c-1.58,0.97-2.54,2.32-4.51,2.6c-1.53,0.21-3.08-0.16-4.59-0.33c-2.81-0.31-5.52-0.07-8.3,0.37c-1.94,0.31-3.41,1.51-5.17,1.7
		c-1.61,0.17-2.89,0.32-4.14,1.13c-1.03-0.77-1.76-1.91-3.21-1.99c-0.5-0.03-0.95,0.18-1.42,0.25c-0.84,0.13-1.81,0.09-2.76,0.09
		v2.44c1.21-0.04,2.66-0.13,3.68-0.06c1.28,0.09,1.98,1.26,3.16,1.81c0.52,0.25,1.05,0.2,1.48-0.2c1.73-1.54,4.07-0.59,5.97-1.67
		c2.62-1.49,5.97-1.75,9.01-1.58c2.41,0.14,4.85,0.85,7.27,0.41c2.98-0.55,4.53-3.39,7.72-3.33c1.84,0.04,4.19,1.75,6,0.86
		c1.75-0.85,1.23-3.1,2.41-4.25c2.05-1.97,6.62-0.75,9.27-1.72c1.76-0.64,2.97-2.16,4.26-3.44c0.08-0.08,0.14-0.16,0.2-0.25
		c0.29-0.06,0.57-0.23,0.77-0.55c1.05-1.71,2.95,0.25,4.34-0.25c1.29-0.47,2.19-2.19,3.08-3.17c0.81-0.89,1.81-2,3.06-2.3
		c2.26-0.54,1.75,0.58,3.24,0.48c1.01-0.07,1.7-0.33,2.32-1.16c0.36-0.49,0.43-1.01,0.67-1.56c0.61-1.43,0.92-2.07,2.48-2.47
		c1.59-0.4,2.92-0.26,4.48-1.05c3.58-1.82,5.56-5.32,8.12-8.23c1.44-1.64,3.23-2.84,4.74-4.39c0.76-0.78,1.32-1.62,2.24-2.23
		c1.07-0.7,1.94-0.65,3.12-1.01c2.49-0.76,3.31-2.56,3.56-5.02c0.07-0.74,0.05-1.48,0.19-2.21c0.38-1.91,1.54-1.7,3.23-2.17
		c1.12-0.31,2.08-0.4,2.93-1.26c0.86-0.88,1.19-2.14,1.39-3.31c0.25-1.48,0.21-2.82,1.32-3.94c0.94-0.96,2.18-1.24,3.44-1.59
		c0.09-0.02,0.16-0.06,0.23-0.09c0.09-0.02,0.17-0.06,0.26-0.1c3.17,0.47,3.55-3,3.9-5.45c-0.17-1.18,0.27-2.17,1.32-3
		c0.28-0.09,0.56-0.2,0.83-0.31c0.37-0.32,0.81-0.55,1.12-0.98c0.99-1.43,0.55-3.39,1.04-4.97c1.26-4.08,6.72-4.78,7.31-9.18
		c0.26-1.96-0.58-3.76-0.9-5.65c-0.47-2.79,0.97-4.2,2.9-5.8c2.67-2.21,4.78-4.27,4.66-8.02c-0.1-3.14-1.15-6.01-0.59-9.2
		c0.48-2.76,1.67-5.34,3.03-7.76c0.67-1.2,2.04-2.76,1.7-4.28c-0.2-0.88-0.91-1.05-1.25-1.73c-0.91-1.81-0.29-2.76,0.53-4.39
		c0.77-1.53,1.07-2.84,0.85-4.56C144.56,5.3,144.22,2.54,144.9-0.74z"/>
	<path class="st3" d="M64.95-0.74H62.2c0.12,1.59-0.69,3.16-0.3,4.76c0.1,0.4,0.58,0.89,0.52,1.31c-0.07,0.56-1.38,1.83-1.68,2.32
		c-0.48,0.8-0.78,1.44-0.58,2.4c0.1,0.49,0.37,0.75,0.57,1.19c0.77,1.68,0.81,1.77-0.15,3.2c-0.77,1.15-1.5,1.97-1.69,3.41
		c-0.29,2.14,0.02,3.44-1.72,5.18c-0.63,0.63-1.29,1.05-1.52,1.99c-0.53,2.11,1.3,2.89-1.72,4.72c-2.08,1.26-4.07,1.15-4.4,4.13
		c-0.21,1.91,0.95,3.9-1.03,5.24c-0.94,0.64-2.43,0.59-3.49,1.04c-1.18,0.5-2.02,1.21-2.55,2.39c-0.29,0.64-0.25,1.67-0.62,2.22
		c-0.59,0.88-1.72,1.31-2.51,1.92c-0.86,0.65-1.4,1.15-1.87,2.18c-0.31,0.7-0.37,1.67-0.75,2.33c-0.89,1.59-1.99,1.79-3.41,1.91
		c-0.33-0.23-0.77-0.3-1.23-0.03c-1.31,0.75-2.89-0.14-4.26,0.71c-1.01,0.63-1.07,1.47-1.68,2.36c-0.3,0.44-0.36,0.64-0.36,0.72
		c-0.03-0.08-0.2-0.26-0.87-0.39c-0.68-0.12-1.18-0.51-1.91-0.55c-1-0.04-1.81,0.26-2.49,1.01c-0.51,0.56-0.8,2.98-1.16,3.11
		c-0.59,0.23-2.67-2.27-3.68-2.36c-1.92-0.17-2.31,2.13-2.53,3.92c-2.44-1.01-4.56-2.18-7-0.13c-0.74,0.62-0.27,1.53-1.92,1.4
		C3.85,62.86,3,62.2,2.55,62.12c-1.14-0.2-2.4,0.04-3.6,0.22v2.67c0.47,0.06,0.93,0.13,1.39,0.1c0.83-0.07,1.12-0.3,1.93-0.2
		c1.27,0.15,2.18,1.01,3.52,0.67c1.29-0.32,1.16-1,1.91-1.87c1.72-2.04,4.12,0.14,6.11,0.8c0.59,0.2,1.39-0.23,1.51-0.86
		c0.11-0.59,0.21-2.19,0.51-3.17c1.44,0.93,2.95,2.9,4.72,2.14c2.21-0.94,0.4-4.5,3.4-3.83c1.53,0.34,2.74,1.45,3.93-0.26
		c0.93-1.34,0.55-2.27,2.93-2.73c0.68-0.13,1.14-0.11,1.65-0.24c0.12,0.03,0.26,0.06,0.42,0.04c3.34-0.24,4.95-1.11,6.3-4.14
		c0.68-1.51,1.24-1.81,2.77-3.02c0.53-0.42,0.89-0.5,1.35-1.08c1.24-1.58,0.76-4.01,2.8-4.99c2.4-1.14,5.24-0.78,5.94-3.98
		c0.47-2.1-1.09-4.44,1.37-5.95c1.24-0.76,2.68-0.61,3.86-1.62c1.13-0.97,1.19-1.84,1.23-3.19c0.02-0.91-0.51-1.76,0.15-2.68
		c0.43-0.59,1.37-0.86,1.85-1.48c0.81-1.05,0.82-2.17,0.85-3.42c0.02-1.53,0.05-2.62,0.95-3.86c0.45-0.61,0.92-1.12,1.23-1.83
		c0.5-1.11,0.52-2.04,0.15-3.17c-0.26-0.77-1.01-1.34-0.83-2.29c0.21-1.1,1.72-1.87,1.99-3.05c0.21-0.93-0.17-1.19-0.39-2
		C64.07,2.32,64.98,0.8,64.95-0.74z"/>
	<path class="st4" d="M120.09-0.74h-3.37c-0.17,1.34-0.9,2.66-0.98,4.04c-0.07,1.16,0.29,1.76,0.58,2.82
		c0.59,2.1-0.04,3.12-0.56,5.02c-0.81,2.99-0.31,5.98-0.84,8.99c-0.47,2.65-2.01,4.95-3.09,7.36c-0.91,2.04-1.53,4.09-1.51,6.34
		c0.02,3.11,1.11,5.7-1,8.41c-1.33,1.72-2.74,2.95-3.55,5.04c-0.88,2.28-1.08,4.76-2.06,7c-2.02,4.55-6.18,7.73-8.17,12.31
		c-0.97,2.24-1.26,4.97-3.8,5.99c-1.9,0.75-3.82,0.81-5.39,2.29c-1.33,1.25-1.92,2.98-2.6,4.62c-0.42,1.01-0.8,2.25-1.68,2.98
		c-1.09,0.9-2.74,0.91-4.03,1.36c-3.37,1.18-5.78,4.09-7.28,7.25c-0.49,0.04-0.95,0.32-1.21,0.95c-1.68,3.9-4.83,6.92-9.02,7.95
		c-2.8,0.69-5.98,0.53-7.92,3.04c-1.28,1.65-1.54,3.31-4,3.44c-1.62,0.09-3.21-0.05-4.82,0.33c-4.17,0.97-5.89,4.29-9.37,6.19
		c-2.43,1.33-4.76,1.05-7.23,0.18c-1.56-0.55-3.06-1.23-4.75-0.93c-3.8,0.67-4.49,5.43-8.85,5.32c-1.98-0.05-3.57-1.38-5.51-1.61
		c-1.7-0.18-2.14,0.54-3.58,1.12c-1.51,0.59-3.74,0.24-5.57,0.05v3.53c1.92,0.23,4.04,0.53,5.79,0.21c0.79-0.14,0.91-0.42,1.56-0.67
		c1.55-0.61,1.89-0.55,3.55,0.07c1.52,0.57,2.95,0.96,4.59,0.86c1.68-0.12,3.34-0.69,4.73-1.64c2.29-1.54,2.78-3.89,6.13-3.17
		c1.76,0.38,3.26,1.25,5.13,1.29c1.87,0.05,3.8-0.38,5.46-1.23c1.85-0.94,3.08-2.4,4.6-3.76c2.05-1.83,4.25-2.39,6.96-2.49
		c3.41-0.13,5.75-0.36,7.46-3.58c1.27-2.41,2.89-2.33,5.39-2.78c1.72-0.31,3.36-0.85,4.91-1.65c3.38-1.77,6.02-4.73,7.52-8.22
		c0.01-0.02,0.01-0.04,0.02-0.06c1.29-1.63,2.34-3.47,3.87-4.89c1.91-1.78,4.09-1.68,6.32-2.74c3.51-1.68,3.36-5.2,5.41-7.98
		c1.3-1.76,3.55-1.64,5.39-2.47c1.34-0.61,2.4-1.58,3.16-2.84c0.88-1.46,1.27-3.16,1.95-4.71c0.84-1.94,2.09-3.62,3.38-5.27
		c2.36-3,4.67-5.89,5.72-9.62c0.58-2.09,0.81-4.39,2.03-6.22c0.94-1.42,2.37-2.45,3.26-3.92c2.24-3.7,0.04-7.7,1-11.6
		c0.94-3.87,3.68-7,4.29-10.99c0.38-2.48-0.02-5.03,0.5-7.48c0.37-1.74,1.24-3.36,1.32-5.17c0.05-1.04-0.26-1.78-0.48-2.75
		c-0.36-1.6-0.21-2.82,0.01-4.38C119.96,0.26,120.06-0.24,120.09-0.74z"/>
	<path class="st4" d="M89.99,7c0.55-2.21,0.37-4.99,0.39-7.74H87c0,0.42-0.01,0.85-0.02,1.27c-0.06,1.32-0.15,2.65-0.31,3.96
		c-0.2,1.61-0.48,1.95-1.34,3.23c-0.8,1.19-1.02,2.41-0.79,3.82c0.28,1.7,2.03,4.04,1.55,5.8c-0.47,1.68-2.87,2.54-4.03,3.71
		c-0.97,0.98-1.63,2.16-1.8,3.55c-0.2,1.66,0.53,3.08,0.64,4.69c0.16,2.22-1.52,2.62-2.32,4.44c-0.76,1.76-0.5,3.66-1.44,5.4
		c-0.83,1.53-2.02,2.83-2.87,4.35c-0.72,1.29-1.25,2.66-1.31,4.14c-0.05,1.1,0.42,2.43-0.36,3.4c-0.45,0.56-1.4,0.91-2.03,1.24
		c-3.23,1.71-5.58,3.88-6.23,7.63c-0.23,1.31-0.23,2.65-1.85,3.12c-0.73,0.21-1.74-0.02-2.5,0.01c-1.53,0.06-2.98,0.3-4.25,1.2
		c-1.51,1.07-2.3,2.73-3.27,4.25c-1.53,2.43-3.37,3.23-6,4.08c-1.59,0.51-2.69,1.29-3.71,2.6c-1.54,1.99-2.69,3.73-5.49,2.93
		c-0.14-0.04-0.28-0.06-0.41-0.07c-2.08-1.35-4.67-0.56-5.79,2.18c-0.47,1.14,0.53,0.74-1.26,1.08c-1.01,0.2-2.05,0.62-3.06,0.86
		c-2.04,0.49-4.14,0.83-5.83,2.18c-1.29,1.02-1.85,1.97-3.72,1.96c-1.3-0.01-2.43-0.62-3.69-0.75c-1.84-0.18-2.65,0.51-3.93,1.69
		c-1.32,1.22-1.31,0.93-2.89,0.46c-1.14-0.33-2.28-0.46-3.46-0.5c-1.43-0.04-2.86,0.09-4.29,0.2v3.66c0.69-0.04,1.38-0.09,2.08-0.12
		c1.05-0.06,2.16-0.17,3.22-0.03c1.38,0.17,2.54,0.94,3.91,1.07c1.55,0.15,2.62-0.44,3.61-1.55c1.16-1.31,1.2-1.14,2.95-0.81
		c1.02,0.19,1.95,0.36,3,0.31c1.94-0.1,3.2-0.72,4.66-1.89c2.06-1.66,3.85-1.92,6.39-2.61c1.57-0.42,4.25-0.89,5.36-2.25
		c0.5-0.61,0.27-1.28,0.61-1.86c-0.2-0.48-0.06-0.69,0.44-0.62c0.19,0.43,0.55,0.78,1.13,0.95c1.96,0.55,3.94,0.48,5.76-0.48
		c2.32-1.21,3.02-4.12,5.38-5.07c2.14-0.86,4.14-1.21,5.91-2.85c1.74-1.61,2.4-4.28,4.15-5.75c1.79-1.49,4.5-0.44,6.6-1.05
		c1.42-0.41,2.52-1.3,3.14-2.66c0.99-2.19,0.38-4.5,2.21-6.43c1.32-1.4,3.3-1.86,4.83-2.99c3.46-2.54,1.46-6.05,3.34-9.34
		c0.99-1.75,2.36-3.22,3.19-5.07c0.73-1.64,0.48-3.98,1.61-5.35c1.11-1.35,2.1-1.97,2.23-3.89c0.12-1.87-1.11-3.88-0.7-5.69
		c0.44-1.95,2.79-2.74,4.1-4.11c1-1.04,1.64-2.3,1.72-3.76c0.11-1.91-1.03-3.38-1.36-5.17C88.04,9.88,89.51,8.91,89.99,7z"/>
	<path class="st5" d="M71.7,76.92c-0.43,0.39-0.87,0.76-1.31,1.13c-0.27,0.23-0.55,0.46-0.81,0.69c-0.86,0.73-1.73,1.44-2.62,2.14
		c-0.36,0.29-0.72,0.57-1.08,0.85c-0.47,0.37-0.95,0.74-1.43,1.1c-0.01,0.01-0.02,0.02-0.04,0.02l-0.01,0.01
		c-0.38,0.28-0.76,0.56-1.14,0.84c-0.28,0.2-0.56,0.4-0.83,0.61c-0.56,0.4-1.12,0.8-1.68,1.19c0.9-0.55,1.8-1.11,2.69-1.67
		c2.74-1.74,6.1-3.43,8.19-5.95C71.85,77.6,71.85,77.21,71.7,76.92z M12.55,99.61c-0.13,0.02-0.25,0.04-0.38,0.06
		c0.13-0.01,0.26-0.02,0.39-0.03C12.56,99.64,12.56,99.62,12.55,99.61z M71.7,76.92c-0.43,0.39-0.87,0.76-1.31,1.13
		c-0.27,0.23-0.54,0.47-0.81,0.69c-0.86,0.73-1.73,1.44-2.62,2.14c-0.36,0.29-0.72,0.57-1.08,0.85c-0.47,0.37-0.95,0.74-1.43,1.1
		c-0.01,0.01-0.02,0.02-0.04,0.03c-0.01,0-0.01,0-0.01,0c-0.38,0.28-0.76,0.56-1.14,0.84c-0.28,0.2-0.56,0.4-0.83,0.61
		c-0.56,0.4-1.12,0.8-1.68,1.19c0.9-0.55,1.8-1.11,2.69-1.67c2.74-1.74,6.1-3.43,8.19-5.95C71.85,77.6,71.85,77.21,71.7,76.92z
		 M12.55,99.61c-0.13,0.02-0.25,0.04-0.38,0.06c0.13-0.01,0.26-0.02,0.39-0.03C12.56,99.64,12.56,99.62,12.55,99.61z M71.7,76.92
		c-0.43,0.39-0.87,0.76-1.31,1.13c-0.27,0.23-0.54,0.47-0.81,0.69c-0.86,0.73-1.73,1.44-2.62,2.14c-0.36,0.29-0.72,0.57-1.08,0.85
		c-0.47,0.37-0.95,0.74-1.43,1.1c-0.01,0.01-0.02,0.02-0.04,0.03c-0.01,0-0.01,0-0.01,0c-0.38,0.28-0.76,0.56-1.14,0.84
		c-0.28,0.2-0.56,0.4-0.83,0.61c-0.56,0.4-1.12,0.8-1.68,1.19c0.9-0.55,1.8-1.11,2.69-1.67c2.74-1.74,6.1-3.43,8.19-5.95
		C71.85,77.6,71.85,77.21,71.7,76.92z M12.55,99.61c-0.13,0.02-0.25,0.04-0.38,0.06c0.13-0.01,0.26-0.02,0.39-0.03
		C12.56,99.64,12.56,99.62,12.55,99.61z M71.7,76.92c-0.43,0.39-0.87,0.76-1.31,1.13c-0.27,0.23-0.54,0.47-0.81,0.69
		c-0.86,0.73-1.73,1.44-2.62,2.14c-0.36,0.29-0.72,0.57-1.08,0.85c-0.47,0.37-0.95,0.74-1.43,1.1c-0.01,0.01-0.02,0.02-0.04,0.03
		c-0.01,0-0.01,0-0.01,0c-0.38,0.28-0.76,0.56-1.14,0.84c-0.28,0.2-0.56,0.4-0.83,0.61c-0.56,0.4-1.12,0.8-1.68,1.19
		c0.9-0.55,1.8-1.11,2.69-1.67c2.74-1.74,6.1-3.43,8.19-5.95C71.85,77.6,71.85,77.21,71.7,76.92z M12.55,99.61
		c-0.13,0.02-0.25,0.04-0.38,0.06c0.13-0.01,0.26-0.02,0.39-0.03C12.56,99.64,12.56,99.62,12.55,99.61z M71.7,76.92
		c-0.43,0.39-0.87,0.76-1.31,1.13c-0.27,0.23-0.54,0.47-0.81,0.69c-0.86,0.73-1.73,1.44-2.62,2.14c-0.36,0.29-0.72,0.57-1.08,0.85
		c-0.47,0.37-0.95,0.74-1.43,1.1c-0.01,0.01-0.02,0.02-0.04,0.03c-0.01,0-0.01,0-0.01,0c-0.38,0.28-0.76,0.56-1.14,0.84
		c-0.28,0.2-0.56,0.4-0.83,0.61c-0.56,0.4-1.12,0.8-1.68,1.19c0.9-0.55,1.8-1.11,2.69-1.67c2.74-1.74,6.1-3.43,8.19-5.95
		C71.85,77.6,71.85,77.21,71.7,76.92z M12.55,99.61c-0.13,0.02-0.25,0.04-0.38,0.06c0.13-0.01,0.26-0.02,0.39-0.03
		C12.56,99.64,12.56,99.62,12.55,99.61z M71.7,76.92c-0.43,0.39-0.87,0.76-1.31,1.13c-0.27,0.23-0.54,0.47-0.81,0.69
		c-0.86,0.73-1.73,1.44-2.62,2.14c-0.36,0.29-0.72,0.57-1.08,0.85c-0.47,0.37-0.95,0.74-1.43,1.1c-0.01,0.01-0.02,0.02-0.04,0.03
		c-0.01,0-0.01,0-0.01,0c-0.38,0.28-0.76,0.56-1.14,0.84c-0.28,0.2-0.56,0.4-0.83,0.61c-0.56,0.4-1.12,0.8-1.68,1.19
		c0.9-0.55,1.8-1.11,2.69-1.67c2.74-1.74,6.1-3.43,8.19-5.95C71.85,77.6,71.85,77.21,71.7,76.92z M12.55,99.61
		c-0.13,0.02-0.25,0.04-0.38,0.06c0.13-0.01,0.26-0.02,0.39-0.03C12.56,99.64,12.56,99.62,12.55,99.61z M12.55,99.61
		c-0.13,0.02-0.25,0.04-0.38,0.06c0.13-0.01,0.26-0.02,0.39-0.03C12.56,99.64,12.56,99.62,12.55,99.61z M71.7,76.92
		c-0.43,0.39-0.87,0.76-1.31,1.13c-0.27,0.23-0.54,0.47-0.81,0.69c-0.86,0.73-1.73,1.44-2.62,2.14c-0.36,0.29-0.72,0.57-1.08,0.85
		c-0.47,0.37-0.95,0.74-1.43,1.1c-0.01,0.01-0.02,0.02-0.04,0.03c-0.01,0-0.01,0-0.01,0c-0.38,0.28-0.76,0.56-1.14,0.84
		c-0.28,0.2-0.56,0.4-0.83,0.61c-0.56,0.4-1.12,0.8-1.68,1.19c0.9-0.55,1.8-1.11,2.69-1.67c2.74-1.74,6.1-3.43,8.19-5.95
		C71.85,77.6,71.85,77.21,71.7,76.92z M12.55,99.61c-0.13,0.02-0.25,0.04-0.38,0.06c0.13-0.01,0.26-0.02,0.39-0.03
		C12.56,99.64,12.56,99.62,12.55,99.61z M71.7,76.92c-0.43,0.39-0.87,0.76-1.31,1.13c-0.27,0.23-0.54,0.47-0.81,0.69
		c-0.86,0.73-1.73,1.44-2.62,2.14c-0.36,0.29-0.72,0.57-1.08,0.85c-0.47,0.37-0.95,0.74-1.43,1.1c-0.01,0.01-0.02,0.02-0.04,0.03
		c-0.01,0-0.01,0-0.01,0c-0.38,0.28-0.76,0.56-1.14,0.84c-0.28,0.2-0.56,0.4-0.83,0.61c-0.56,0.4-1.12,0.8-1.68,1.19
		c0.9-0.55,1.8-1.11,2.69-1.67c2.74-1.74,6.1-3.43,8.19-5.95C71.85,77.6,71.85,77.21,71.7,76.92z M12.55,99.61
		c-0.13,0.02-0.25,0.04-0.38,0.06c0.13-0.01,0.26-0.02,0.39-0.03C12.56,99.64,12.56,99.62,12.55,99.61z M71.7,76.92
		c-0.43,0.39-0.87,0.76-1.31,1.13c-0.27,0.23-0.54,0.47-0.81,0.69c-0.86,0.73-1.73,1.44-2.62,2.14c-0.36,0.29-0.72,0.57-1.08,0.85
		c-0.47,0.37-0.95,0.74-1.43,1.1c-0.01,0.01-0.02,0.02-0.04,0.03c-0.01,0-0.01,0-0.01,0c-0.38,0.28-0.76,0.56-1.14,0.84
		c-0.28,0.2-0.56,0.4-0.83,0.61c-0.56,0.4-1.12,0.8-1.68,1.19c0.9-0.55,1.8-1.11,2.69-1.67c2.74-1.74,6.1-3.43,8.19-5.95
		C71.85,77.6,71.85,77.21,71.7,76.92z M12.55,99.61c-0.13,0.02-0.25,0.04-0.38,0.06c0.13-0.01,0.26-0.02,0.39-0.03
		C12.56,99.64,12.56,99.62,12.55,99.61z M71.7,76.92c-0.43,0.39-0.87,0.76-1.31,1.13c-0.27,0.23-0.54,0.47-0.81,0.69
		c-0.86,0.73-1.73,1.44-2.62,2.14c-0.36,0.29-0.72,0.57-1.08,0.85c-0.47,0.37-0.95,0.74-1.43,1.1c-0.01,0.01-0.02,0.02-0.04,0.03
		c-0.01,0-0.01,0-0.01,0c-0.38,0.28-0.76,0.56-1.14,0.84c-0.28,0.2-0.56,0.4-0.83,0.61c-0.56,0.4-1.12,0.8-1.68,1.19
		c0.9-0.55,1.8-1.11,2.69-1.67c2.74-1.74,6.1-3.43,8.19-5.95C71.85,77.6,71.85,77.21,71.7,76.92z M12.55,99.61
		c-0.13,0.02-0.25,0.04-0.38,0.06c0.13-0.01,0.26-0.02,0.39-0.03C12.56,99.64,12.56,99.62,12.55,99.61z M71.7,76.92
		c-0.43,0.39-0.87,0.76-1.31,1.13c-0.27,0.23-0.54,0.47-0.81,0.69c-0.86,0.73-1.73,1.44-2.62,2.14c-0.36,0.29-0.72,0.57-1.08,0.85
		c-0.47,0.37-0.95,0.74-1.43,1.1c-0.01,0.01-0.02,0.02-0.04,0.03c-0.01,0-0.01,0-0.01,0c-0.38,0.28-0.76,0.56-1.14,0.84
		c-0.28,0.2-0.56,0.4-0.83,0.61c-0.56,0.4-1.12,0.8-1.68,1.19c0.9-0.55,1.8-1.11,2.69-1.67c2.74-1.74,6.1-3.43,8.19-5.95
		C71.85,77.6,71.85,77.21,71.7,76.92z M12.55,99.61c-0.13,0.02-0.25,0.04-0.38,0.06c0.13-0.01,0.26-0.02,0.39-0.03
		C12.56,99.64,12.56,99.62,12.55,99.61z M71.7,76.92c-0.43,0.39-0.87,0.76-1.31,1.13c-0.27,0.23-0.54,0.47-0.81,0.69
		c-0.86,0.73-1.73,1.44-2.62,2.14c-0.36,0.29-0.72,0.57-1.08,0.85c-0.47,0.37-0.95,0.74-1.43,1.1c-0.01,0.01-0.02,0.02-0.04,0.03
		c-0.01,0-0.01,0-0.01,0c-0.38,0.28-0.76,0.56-1.14,0.84c-0.28,0.2-0.56,0.4-0.83,0.61c-0.56,0.4-1.12,0.8-1.68,1.19
		c0.9-0.55,1.8-1.11,2.69-1.67c2.74-1.74,6.1-3.43,8.19-5.95C71.85,77.6,71.85,77.21,71.7,76.92z M12.55,99.61
		c-0.13,0.02-0.25,0.04-0.38,0.06c0.13-0.01,0.26-0.02,0.39-0.03C12.56,99.64,12.56,99.62,12.55,99.61z M71.7,76.92
		c-0.43,0.39-0.87,0.76-1.31,1.13c-0.27,0.23-0.54,0.47-0.81,0.69c-0.86,0.73-1.73,1.44-2.62,2.14c-0.36,0.29-0.72,0.57-1.08,0.85
		c-0.47,0.37-0.95,0.74-1.43,1.1c-0.01,0.01-0.02,0.02-0.04,0.03c-0.01,0-0.01,0-0.01,0c-0.38,0.28-0.76,0.56-1.14,0.84
		c-0.28,0.2-0.56,0.4-0.83,0.61c-0.56,0.4-1.12,0.8-1.68,1.19c0.9-0.55,1.8-1.11,2.69-1.67c2.74-1.74,6.1-3.43,8.19-5.95
		C71.85,77.6,71.85,77.21,71.7,76.92z M12.55,99.61c-0.13,0.02-0.25,0.04-0.38,0.06c0.13-0.01,0.26-0.02,0.39-0.03
		C12.56,99.64,12.56,99.62,12.55,99.61z M71.7,76.92c-0.43,0.39-0.87,0.76-1.31,1.13c-0.27,0.23-0.54,0.47-0.81,0.69
		c-0.86,0.73-1.73,1.44-2.62,2.14c-0.36,0.29-0.72,0.57-1.08,0.85c-0.47,0.37-0.95,0.74-1.43,1.1c-0.01,0.01-0.02,0.02-0.04,0.03
		c-0.01,0-0.01,0-0.01,0c-0.38,0.28-0.76,0.56-1.14,0.84c-0.28,0.2-0.56,0.4-0.83,0.61c-0.56,0.4-1.12,0.8-1.68,1.19
		c0.9-0.55,1.8-1.11,2.69-1.67c2.74-1.74,6.1-3.43,8.19-5.95C71.85,77.6,71.85,77.21,71.7,76.92z M12.55,99.61
		c-0.13,0.02-0.25,0.04-0.38,0.06c0.13-0.01,0.26-0.02,0.39-0.03C12.56,99.64,12.56,99.62,12.55,99.61z M71.7,76.92
		c-0.43,0.39-0.87,0.76-1.31,1.13c-0.27,0.23-0.54,0.47-0.81,0.69c-0.86,0.73-1.73,1.44-2.62,2.14c-0.36,0.29-0.72,0.57-1.08,0.85
		c-0.47,0.37-0.95,0.74-1.43,1.1c-0.01,0.01-0.02,0.02-0.04,0.03c-0.01,0-0.01,0-0.01,0c-0.38,0.28-0.76,0.56-1.14,0.84
		c-0.28,0.2-0.56,0.4-0.83,0.61c-0.56,0.4-1.12,0.8-1.68,1.19c0.9-0.55,1.8-1.11,2.69-1.67c2.74-1.74,6.1-3.43,8.19-5.95
		C71.85,77.6,71.85,77.21,71.7,76.92z M12.55,99.61c-0.13,0.02-0.25,0.04-0.38,0.06c0.13-0.01,0.26-0.02,0.39-0.03
		C12.56,99.64,12.56,99.62,12.55,99.61z M71.7,76.92c-0.43,0.39-0.87,0.76-1.31,1.13c-0.27,0.23-0.54,0.47-0.81,0.69
		c-0.86,0.73-1.73,1.44-2.62,2.14c-0.36,0.29-0.72,0.57-1.08,0.85c-0.47,0.37-0.95,0.74-1.43,1.1c-0.01,0.01-0.02,0.02-0.04,0.03
		c-0.01,0-0.01,0-0.01,0c-0.38,0.28-0.76,0.56-1.14,0.84c-0.28,0.2-0.56,0.4-0.83,0.61c-0.56,0.4-1.12,0.8-1.68,1.19
		c0.9-0.55,1.8-1.11,2.69-1.67c2.74-1.74,6.1-3.43,8.19-5.95C71.85,77.6,71.85,77.21,71.7,76.92z M12.55,99.61
		c-0.13,0.02-0.25,0.04-0.38,0.06c0.13-0.01,0.26-0.02,0.39-0.03C12.56,99.64,12.56,99.62,12.55,99.61z M71.7,76.92
		c-0.43,0.39-0.87,0.76-1.31,1.13c-0.27,0.23-0.54,0.47-0.81,0.69c-0.86,0.73-1.73,1.44-2.62,2.14c-0.36,0.29-0.72,0.57-1.08,0.85
		c-0.47,0.37-0.95,0.74-1.43,1.1c-0.01,0.01-0.02,0.02-0.04,0.03c-0.01,0-0.01,0-0.01,0c-0.38,0.28-0.76,0.56-1.14,0.84
		c-0.28,0.2-0.56,0.4-0.83,0.61c-0.56,0.4-1.12,0.8-1.68,1.19c0.9-0.55,1.8-1.11,2.69-1.67c2.74-1.74,6.1-3.43,8.19-5.95
		C71.85,77.6,71.85,77.21,71.7,76.92z M12.55,99.61c-0.13,0.02-0.25,0.04-0.38,0.06c0.13-0.01,0.26-0.02,0.39-0.03
		C12.56,99.64,12.56,99.62,12.55,99.61z M71.7,76.92c-0.43,0.39-0.87,0.76-1.31,1.13c-0.27,0.23-0.54,0.47-0.81,0.69
		c-0.86,0.73-1.73,1.44-2.62,2.14c-0.36,0.29-0.72,0.57-1.08,0.85c-0.47,0.37-0.95,0.74-1.43,1.1c-0.01,0.01-0.02,0.02-0.04,0.03
		c-0.01,0-0.01,0-0.01,0c-0.38,0.28-0.76,0.56-1.14,0.84c-0.28,0.2-0.56,0.4-0.83,0.61c-0.56,0.4-1.12,0.8-1.68,1.19
		c0.9-0.55,1.8-1.11,2.69-1.67c2.74-1.74,6.1-3.43,8.19-5.95C71.85,77.6,71.85,77.21,71.7,76.92z M12.55,99.61
		c-0.13,0.02-0.25,0.04-0.38,0.06c0.13-0.01,0.26-0.02,0.39-0.03C12.56,99.64,12.56,99.62,12.55,99.61z M71.7,76.92
		c-0.43,0.39-0.87,0.76-1.31,1.13c-0.27,0.23-0.54,0.47-0.81,0.69c-0.86,0.73-1.73,1.44-2.62,2.14c-0.36,0.29-0.72,0.57-1.08,0.85
		c-0.47,0.37-0.95,0.74-1.43,1.1c-0.01,0.01-0.02,0.02-0.04,0.03c-0.01,0-0.01,0-0.01,0c-0.38,0.28-0.76,0.56-1.14,0.84
		c-0.28,0.2-0.56,0.4-0.83,0.61c-0.56,0.4-1.12,0.8-1.68,1.19c0.9-0.55,1.8-1.11,2.69-1.67c2.74-1.74,6.1-3.43,8.19-5.95
		C71.85,77.6,71.85,77.21,71.7,76.92z M12.55,99.61c-0.13,0.02-0.25,0.04-0.38,0.06c0.13-0.01,0.26-0.02,0.39-0.03
		C12.56,99.64,12.56,99.62,12.55,99.61z M71.7,76.92c-0.43,0.39-0.87,0.76-1.31,1.13c-0.27,0.23-0.54,0.47-0.81,0.69
		c-0.86,0.73-1.73,1.44-2.62,2.14c-0.36,0.29-0.72,0.57-1.08,0.85c-0.47,0.37-0.95,0.74-1.43,1.1c-0.01,0.01-0.02,0.02-0.04,0.03
		c-0.01,0-0.01,0-0.01,0c-0.38,0.28-0.76,0.56-1.14,0.84c-0.28,0.21-0.56,0.41-0.83,0.61c-0.56,0.4-1.12,0.8-1.68,1.19
		c0.9-0.55,1.8-1.11,2.69-1.67c2.74-1.74,6.1-3.43,8.19-5.95C71.85,77.6,71.85,77.21,71.7,76.92z M113.66-0.74h-19.3
		c-0.18,3.87-0.57,7.8-0.78,11.62c-0.27,4.88-0.57,9.76-0.97,14.63c-0.09,0.12-0.18,0.25-0.26,0.38c-0.39,0.58-0.73,1.19-1.04,1.81
		c-0.66,1.32-1.22,2.71-1.85,4.02c-0.2,0.42-0.4,0.83-0.61,1.25c-0.31,0.65-0.63,1.3-0.96,1.94c-0.81,1.64-1.65,3.26-2.51,4.87
		c-2.83,5.31-5.88,10.5-9.32,15.44c-3.68,5.28-7.8,10.3-12.38,14.86c-0.48,0.48-0.97,0.96-1.46,1.43c-0.2,0.19-0.4,0.38-0.61,0.57
		c-0.45,0.42-0.9,0.84-1.35,1.24c-0.07,0.07-0.14,0.13-0.21,0.19c-0.28,0.26-0.56,0.5-0.84,0.75c-2.1,1.83-4.27,3.57-6.53,5.18
		c-0.02-0.05-0.03-0.09-0.06-0.13c-0.17-0.25-0.37-0.4-0.61-0.58c-0.72-0.53-1.73,0.2-1.73,0.99c0,0.51,0.41,0.99,0.89,1.13
		c-0.91,0.6-1.83,1.21-2.75,1.8c-2.96,1.13-5.81,2.82-8.73,3.96c-0.28,0.11-0.56,0.21-0.85,0.32c-0.36-0.02-0.74,0.1-0.98,0.37
		c-0.91,0.34-1.83,0.67-2.74,0.99c0.04-0.12,0.07-0.25,0.07-0.4c0-1.45-2.24-1.45-2.24,0c0,0.47,0.23,0.78,0.56,0.94
		c-0.36,0.12-0.72,0.25-1.08,0.37c-0.57-0.58-1.79-0.37-1.89,0.61c-0.46,0.14-0.91,0.29-1.37,0.43c-2.03,0.61-4.07,1.19-6.12,1.72
		c-0.21-0.62-1.27-0.55-1.27,0.22c0,0.04,0.01,0.07,0.02,0.1c-2.4,0.59-4.8,1.11-7.23,1.53c-2.21,0.33-4.44,0.62-6.65,0.84
		c-0.06-0.34-0.28-0.66-0.68-0.78c-1.45-0.43-3.08-0.12-4.58-0.03c-1.19,0.06-2.52-0.01-3.7,0.27v19.26
		c2.17-0.07,4.33-0.17,6.5-0.36c1.76-0.15,4.14,0.08,5.62-1c0.1-0.07,0.18-0.18,0.26-0.29c6.65,0.81,13.74-2,19.98-4.48
		c0.02-0.01,0.04-0.01,0.06-0.02c0.74-0.29,1.45-0.58,2.16-0.85c2.76-1.08,5.5-2.24,8.2-3.49c0.06-0.02,0.12-0.06,0.17-0.08
		c0.35-0.13,0.7-0.26,1.05-0.39c1.68-0.63,3.37-1.36,4.74-2.4c0.7-0.33,1.4-0.67,2.11-1.02c0.39-0.19,0.77-0.39,1.16-0.59
		c1.22-0.64,2.41-1.35,3.47-2.15c3.25-0.44,6.11-2.24,8.77-4.22c0.4,0.59,1.54,0.44,1.54-0.46c0-0.24-0.09-0.42-0.21-0.56
		c0.51-0.39,1.01-0.78,1.5-1.16c2.52-1.94,4.96-3.96,7.33-6.08c2.08-1.86,4.55-3.73,5.79-6.28c0.09-0.18,0.08-0.36,0.02-0.5
		c0,0,0,0-0.01,0c-0.09-0.21-0.31-0.35-0.56-0.32c-0.07,0.01-0.14,0.03-0.21,0.06c-0.18,0.09-0.35,0.19-0.52,0.28
		c0.19-0.2,0.37-0.39,0.56-0.58c0.54-0.55,1.07-1.11,1.59-1.67c0.14-0.15,0.29-0.31,0.43-0.46c0.23-0.24,0.47-0.49,0.7-0.74
		c0.29-0.29,0.58-0.6,0.88-0.9c0.32-0.32,0.65-0.66,0.98-0.99c0.13-0.13,0.26-0.27,0.39-0.4c0.48-0.48,0.96-0.97,1.42-1.48
		c-0.46,0.54-0.93,1.07-1.4,1.6c-0.1,0.12-0.2,0.23-0.31,0.34c-0.28,0.32-0.58,0.64-0.86,0.95c-0.32,0.34-0.64,0.69-0.97,1.02
		c-0.36,0.38-0.73,0.75-1.1,1.12c-0.13,0.13-0.26,0.27-0.4,0.4l-0.24,0.24c-0.27,0.27-0.02,0.64,0.26,0.66c0.1,0,0.2-0.03,0.29-0.11
		c0.2-0.18,0.4-0.37,0.59-0.56c0.19-0.17,0.38-0.35,0.57-0.53c0.29-0.28,0.58-0.55,0.86-0.83c0.51-0.5,1.01-0.99,1.5-1.49
		c4.14-4.19,7.94-8.71,11.23-13.61c2.17-3.24,4.1-6.65,5.82-10.15c1.32-2.7,2.81-5.61,3.52-8.59c0.58-0.02,1.15-0.41,1.15-1.16
		c0-0.8-0.64-1.18-1.25-1.16c-0.07-0.02-0.14-0.04-0.21-0.03c0.43-0.83,0.86-1.67,1.26-2.51c0.29-0.63,0.58-1.26,0.85-1.9
		c1.02-2.44,1.8-4.94,2.08-7.43c0.01-0.09-0.01-0.17-0.06-0.23c1.37-4.71,2.4-9.51,3.07-14.34c0.07-0.5,0.14-1,0.2-1.49
		c0.04-0.32-0.51-0.39-0.56-0.07c-0.06,0.37-0.12,0.74-0.19,1.11c-0.22,1.26-0.47,2.51-0.75,3.75c-0.18,0.79-0.36,1.57-0.56,2.36
		v0.01c-0.2,0.78-0.41,1.56-0.63,2.35c0.15-0.61,0.29-1.23,0.43-1.83c0.04-0.17,0.08-0.34,0.12-0.5c0.2-0.82,0.38-1.64,0.55-2.46
		c0.12-0.58,0.24-1.15,0.36-1.73c0.05-0.12,0.08-0.26,0.08-0.42v-0.01c0.12-0.57,0.23-1.13,0.33-1.7v-0.01
		c0.07-0.38,0.14-0.75,0.21-1.13c0.1-0.5,0.19-1,0.28-1.49c0.12,0.17,0.42,0.17,0.48-0.08c0.04-0.17,0.09-0.34,0.13-0.52h0.01
		c0.14-0.81,0.31-1.65,0.5-2.5C112.49,2.99,113.05,1.04,113.66-0.74z M81.72,54.69c0.62-0.93,1.24-1.87,1.85-2.82
		c0.06,0.71,0.58,1.11,1.16,1.18c-0.05,0.09-0.1,0.17-0.16,0.25c-0.39,0.63-0.78,1.26-1.18,1.87c-0.13,0.2-0.26,0.4-0.39,0.59
		c0.01,0.01,0,0.01-0.01,0.01c-0.28,0.43-0.56,0.87-0.85,1.29c-0.24,0.36-0.48,0.72-0.72,1.08c-0.37,0.34-0.74,0.67-1.1,1.02
		c0.01-0.06,0-0.12-0.02-0.18c-0.06-0.38-0.43-0.67-0.85-0.75h-0.01c-0.06-0.01-0.12-0.02-0.18-0.02c0.58-0.81,1.14-1.62,1.7-2.44
		C81.22,55.42,81.47,55.05,81.72,54.69z M24.23,94.24c0.97-0.17,1.94-0.36,2.9-0.55c-0.91,0.28-1.82,0.56-2.74,0.82
		C24.34,94.42,24.3,94.32,24.23,94.24z M10.08,99.59c0.8-0.12,1.59-0.25,2.38-0.39c0.35-0.06,0.7-0.12,1.05-0.18
		c0.42-0.07,0.85-0.15,1.27-0.23c-0.42,0.09-0.85,0.17-1.27,0.26c-0.35,0.07-0.7,0.13-1.05,0.2C11.66,99.38,10.87,99.51,10.08,99.59
		z M78.68,68.94c-2.6,2.94-5.4,5.67-8.53,7.98c-0.98,0.44-1.93,1-2.85,1.62c3.87-2.9,7.82-6.05,10.98-9.63
		c0.56-0.64,1.1-1.29,1.61-1.96c0.06-0.07,0.11-0.14,0.17-0.21c0.04-0.06,0.07-0.12,0.09-0.18c1.3-1.43,2.56-2.89,3.78-4.36
		c0.8-0.96,1.61-1.96,2.43-2.99c-2.02,2.76-4.1,5.54-6.34,8.19C79.57,67.93,79.13,68.44,78.68,68.94z M102.11,14.73
		c-0.34,1.26-0.69,2.51-1.07,3.75c0.25-1.23,0.48-2.46,0.72-3.63c0.01-0.04,0.02-0.07,0.02-0.12
		C101.84,14.86,102.05,14.89,102.11,14.73z M102.64,12.78c0.62-2.3,1.24-4.59,1.86-6.89c0.05-0.17,0.09-0.34,0.14-0.51
		c-0.54,2.35-1.07,4.69-1.59,7.04C102.86,12.44,102.7,12.55,102.64,12.78z M94.63,45.65c0.01-0.01,0.01-0.01,0.01-0.02
		c0.95-1.69,1.81-3.42,2.59-5.2c-0.33,0.81-0.66,1.61-0.97,2.42v0.01c-0.29,0.77-0.58,1.54-0.85,2.31
		c-0.47,0.88-0.94,1.75-1.44,2.59c-0.49,0.82-0.99,1.64-1.5,2.44c0.72-1.34,1.35-2.7,1.89-4.07C94.46,45.96,94.55,45.81,94.63,45.65
		z M102.61,25.73h0.04c-0.77,2.46-1.65,4.88-2.48,7.26c-0.26,0.77-0.56,1.53-0.86,2.3c-0.06,0.15-0.11,0.3-0.17,0.45
		c0.06-0.15,0.11-0.3,0.17-0.45C100.48,32.13,101.53,28.92,102.61,25.73z M88.05,51.05c0.32-0.5,0.64-1,0.95-1.51
		c2.32-3.77,4.39-7.7,6.25-11.71c1.27-2.74,2.93-5.8,3.6-8.83c0.59-1.54,1.14-3.09,1.65-4.66c-0.01,0.17-0.03,0.32-0.04,0.48
		c0,0.01,0,0.01,0,0.01c-0.03,0.31-0.05,0.62-0.06,0.93c-0.01,0.28,0.12,0.47,0.31,0.56c0.09,0.05,0.2,0.08,0.3,0.09
		c-0.8,2.4-1.61,4.79-2.51,7.16c-1.26,3.33-2.83,6.48-4.44,9.6c-1.77,2.79-3.15,5.8-4.82,8.65v0.01c-0.12,0.22-0.25,0.44-0.39,0.66
		c-0.2,0.32-0.4,0.64-0.6,0.97c-1.69,2.68-3.53,5.26-5.47,7.78c-1.07,1.39-2.16,2.79-3.3,4.15c-0.13-0.05-0.26-0.08-0.4-0.06
		c2.33-2.5,4.45-5.15,6.14-7.95c0.16-0.26,0.1-0.5-0.05-0.66c-0.21-0.22-0.6-0.29-0.89-0.06c-0.04,0.04-0.09,0.07-0.13,0.11
		c0.95-1.31,1.87-2.64,2.76-3.99C87.32,52.2,87.69,51.63,88.05,51.05z M103.42,5.76c0.25-0.01,0.5-0.11,0.7-0.26
		c-0.74,2.85-1.46,5.7-2.2,8.56C102.49,11.31,103.01,8.54,103.42,5.76z M107.81,10.28c-0.04,0.25-0.07,0.49-0.12,0.73
		C107.73,10.76,107.77,10.52,107.81,10.28L107.81,10.28c0.25-1.75,0.5-3.5,0.72-5.25c0.08,0.05,0.16,0.1,0.25,0.13V5.2
		c-0.15,0.07-0.28,0.2-0.31,0.4C108.29,7.16,108.06,8.73,107.81,10.28z M103.94,28.2c-0.59,1.61-1.19,3.22-1.8,4.83
		c-0.39,1.02-0.79,2.11-1.21,3.22c-0.26-0.02-0.53,0.08-0.72,0.33c-0.1,0.14-0.19,0.29-0.29,0.43c0.31-0.8,0.6-1.6,0.9-2.4
		c0.01-0.01,0.01-0.02,0.01-0.04c0.29-0.79,0.58-1.57,0.86-2.37c0.66-1.86,1.34-3.74,1.97-5.64c0-0.01,0.01-0.02,0.01-0.03
		c0.28-0.87,0.56-1.75,0.81-2.63c0.07,0.01,0.15,0.01,0.22-0.01c-0.17,0.63-0.33,1.26-0.5,1.88c-0.11,0.43-0.23,0.86-0.34,1.29
		c-0.01,0.01-0.01,0.02-0.01,0.04c-0.03,0.13-0.07,0.28-0.1,0.41C103.69,27.8,103.79,28.04,103.94,28.2z M88.77,58.78
		c0.86-1.13,1.7-2.27,2.52-3.42c0.85-1.19,1.68-2.41,2.48-3.63c-0.25,0.45-0.51,0.89-0.78,1.32c-0.5,0.81-1,1.61-1.53,2.4
		c-0.66,1-1.33,2-2.02,2.98C89.19,58.48,88.95,58.59,88.77,58.78z M87.72,66.22c0.37-0.56,0.72-1.12,1-1.7
		c1.16-1.44,2.27-2.92,3.36-4.41C90.71,62.21,89.25,64.24,87.72,66.22z M73.98,77.81c-0.17,0.1-0.33,0.22-0.5,0.34v-0.02
		c-0.09-0.35-0.56-0.58-0.88-0.36c-0.86,0.62-1.73,1.23-2.59,1.84c-0.01,0.01-0.01,0.01-0.01,0.01c-3.55,2.52-7.1,4.97-10.94,7.09
		c-0.25,0.13-0.48,0.27-0.73,0.4c0,0-0.01,0.01-0.01,0.01c-1.59,0.86-3.2,1.68-4.81,2.49c2.44-1.29,4.84-2.66,7.19-4.09
		c0.01-0.01,0.02-0.02,0.04-0.02c0.9-0.55,1.8-1.11,2.69-1.67c2.74-1.74,6.1-3.43,8.19-5.95c0.22-0.26,0.23-0.66,0.07-0.94
		c-0.06-0.12-0.15-0.22-0.26-0.28c1.69-1.22,3.3-2.53,4.85-3.93c0.03-0.02,0.06-0.05,0.09-0.08c0.02-0.02,0.06-0.05,0.08-0.07
		c4.23-3.81,7.98-8.18,11.47-12.68c0.25-0.32,0.5-0.64,0.74-0.97c-0.1,0.16-0.17,0.35-0.17,0.58c0,0.09,0.01,0.17,0.02,0.25
		c-0.32,0.45-0.64,0.9-0.97,1.35c-4.2,5.75-8.98,11-14.28,15.74c-0.02,0.02-0.05,0.04-0.07,0.07c0,0,0,0.01-0.01,0.01
		c-0.32,0.42,0.32,1,0.77,0.61c1.68-1.44,3.33-2.93,4.93-4.47c-0.78,0.86-1.57,1.72-2.36,2.56c-0.59,0.64-1.19,1.28-1.8,1.91
		c-0.18-0.02-0.37,0.02-0.56,0.15c-0.06,0.04-0.11,0.07-0.17,0.11C73.99,77.8,73.99,77.81,73.98,77.81z M58.36,93.31
		c0.02-0.1,0.05-0.2,0.05-0.31c0-0.04-0.01-0.07-0.01-0.1c0.86-0.47,1.72-0.96,2.57-1.47c0.01,0.02,0.01,0.04,0.02,0.06
		C60.13,92.13,59.25,92.76,58.36,93.31z M56.51,94.32c0.1-0.13,0.13-0.29,0.13-0.44c0.03-0.01,0.06-0.03,0.09-0.05
		c0.12,0.08,0.26,0.13,0.41,0.16C56.93,94.1,56.72,94.23,56.51,94.32z M43.34,96.23c-0.95,0.01-1.89,0.2-2.84,0.48
		c0.78-0.29,1.54-0.61,2.28-0.96c0.23-0.1,0.34-0.29,0.38-0.51c0.18,0.34,0.61,0.6,1.07,0.4c5.21-2.3,10.42-4.61,15.46-7.24
		c0.14-0.07,0.28-0.14,0.42-0.22c0.01-0.01,0.02-0.01,0.02-0.01c0.18-0.09,0.36-0.18,0.53-0.28c-0.22,0.15-0.44,0.32-0.67,0.47
		c-5.04,3.41-10.36,6.31-16.21,8.06C43.67,96.31,43.51,96.23,43.34,96.23z M29.35,103.78c0.06-0.17,0.06-0.37-0.01-0.55
		c-0.05-0.18-0.16-0.35-0.3-0.47c0.35-0.16,0.68-0.34,0.99-0.53c0,0,0,0,0-0.01c2.23-0.56,4.44-1.17,6.63-1.86
		c2.27-0.71,4.86-1.24,6.79-2.68c0.02,0.01,0.05,0.02,0.07,0.03c0.11,0.04,0.24,0.06,0.39,0.02c0.44-0.12,0.88-0.26,1.32-0.39
		c-1.21,0.74-2.43,1.46-3.65,2.12c-0.42,0.23-0.85,0.45-1.28,0.68c-0.35,0.18-0.7,0.37-1.05,0.55c-1.75,0.91-3.53,1.78-5.34,2.59
		c-0.15-0.25-0.45-0.41-0.85-0.33C31.83,103.2,30.59,103.48,29.35,103.78z M18.87,106.57c-0.01-0.09-0.04-0.17-0.07-0.24
		c0.5-0.06,1.01-0.12,1.52-0.17C19.84,106.29,19.36,106.43,18.87,106.57z M11.45,110.61c-0.1-0.23-0.3-0.4-0.62-0.45
		c-0.24-0.04-0.48-0.06-0.72-0.07c0.53-0.07,1.07-0.13,1.6-0.18h0.01c0.53-0.07,1.05-0.13,1.58-0.18c0.1-0.01,0.2-0.02,0.3-0.04
		c0.65-0.02,1.3-0.04,1.94-0.06C14.19,110.06,12.83,110.43,11.45,110.61z M9.31,106.97c-1.66,0.42-3.31,0.87-4.96,1.36
		c0.18-0.34,0.12-0.78-0.1-1.14c0.61-0.05,1.21-0.11,1.8-0.2C7.14,107,8.22,106.99,9.31,106.97z M17.18,102.36
		c0.04,0.31,0.19,0.55,0.39,0.71c-0.06,0.01-0.13,0.02-0.19,0.04c-1.19,0.23-2.39,0.45-3.58,0.67c-1.35,0.06-2.6,0.27-3.84,0.64
		c-0.61,0.09-1.22,0.17-1.83,0.25c-0.25,0.03-0.4,0.18-0.48,0.36c-0.14,0.03-0.28,0.07-0.42,0.1c-0.1-0.25-0.25-0.48-0.48-0.61
		c0.24-0.34,0.25-0.83,0.07-1.23c0.39,0,0.78-0.01,1.17-0.02h0.01c0.29,0,0.57-0.01,0.86-0.02
		C11.64,103.14,14.42,102.83,17.18,102.36z M19.5,101.93c1.27-0.25,2.55-0.53,3.82-0.83c0.5-0.12,0.99-0.23,1.49-0.34
		c1.79-0.4,3.62-0.79,5.47-1.2c2.68-0.59,5.37-1.24,7.95-2.06c-0.91,0.34-1.81,0.7-2.68,0.99c-2.88,0.91-5.78,1.76-8.71,2.53
		c-0.93,0.24-1.87,0.48-2.8,0.7c-0.31,0.06-0.6,0.1-0.85,0.16c-1.26,0.29-2.52,0.56-3.79,0.82c0.07-0.15,0.11-0.32,0.11-0.51
		C19.53,102.1,19.52,102.01,19.5,101.93z M6.83,101.75c0.41-0.37,0.45-0.99,0.2-1.46c-0.04-0.09-0.09-0.16-0.15-0.23
		c0.47-0.06,0.93-0.12,1.4-0.18c1.29-0.08,2.6-0.11,3.89-0.2c0.01,0.01,0.01,0.01,0.01,0c0.13-0.01,0.26-0.02,0.39-0.03h0.01
		c0.38-0.02,0.75-0.06,1.13-0.1c0.03-0.01,0.07-0.01,0.1-0.01c0.33-0.04,0.67-0.09,1.02-0.15c0.15-0.03,0.3-0.06,0.45-0.07
		c0.86-0.15,1.76-0.32,2.65-0.43c-0.94,0.23-1.89,0.47-2.83,0.71c-0.13,0.03-0.26,0.06-0.38,0.1c-0.18,0.04-0.34,0.09-0.51,0.14
		c-0.01,0-0.01,0-0.01,0c-0.38,0.09-0.75,0.2-1.13,0.29h-0.02c-0.94,0.13-1.89,0.26-2.85,0.37c-0.28,0.03-0.41,0.28-0.4,0.5
		C8.8,101.25,7.82,101.5,6.83,101.75z M41.47,91.05c0.83-0.31,1.65-0.62,2.46-0.94c1.15-0.46,2.35-0.89,3.5-1.4
		c0.42-0.18,0.85-0.38,1.25-0.59c0.08,0.02,0.17,0.02,0.27-0.02c0.22-0.11,0.44-0.21,0.66-0.33c1.97-0.98,3.89-2.03,5.78-3.16
		c0,0,0,0.01,0.01,0c0.13-0.08,0.28-0.16,0.41-0.25c1.02-0.61,2.03-1.24,3.03-1.89c-1.48,1.09-2.98,2.16-4.5,3.19
		c-0.01,0.01-0.01,0.01-0.02,0.01c-1.42,0.97-2.85,1.91-4.31,2.82c-0.47,0.29-0.94,0.59-1.41,0.88c-0.25,0.09-0.5,0.18-0.74,0.28
		c-2.35,0.93-4.64,2.11-6.95,3.01c-3.04,1.18-6.13,2.22-9.25,3.18h-0.01c-0.04,0.01-0.08,0.02-0.12,0.04
		c-0.1,0.03-0.21,0.07-0.32,0.1c-1.8,0.55-3.61,1.07-5.43,1.54c-0.64,0.17-1.28,0.33-1.92,0.48c-0.12,0.03-0.23,0.06-0.35,0.09
		c-0.12-0.14-0.31-0.25-0.55-0.26c-0.99-0.07-1.99-0.02-2.99,0.08h-0.01c-0.8,0.07-1.59,0.2-2.39,0.34c0.1-0.04,0.18-0.1,0.25-0.17
		c0.92-0.11,1.84-0.23,2.75-0.36c1.21-0.17,2.41-0.35,3.61-0.56c0.36-0.06,0.7-0.12,1.05-0.19c0.01,0,0.01,0,0.01,0
		c1.95-0.34,3.88-0.75,5.78-1.23c1.01-0.25,2.01-0.52,3-0.81c0.06-0.02,0.12-0.04,0.17-0.07c0.29-0.15,0.44-0.47,0.45-0.78
		c0.01-0.23-0.06-0.45-0.2-0.62c0.17-0.06,0.34-0.1,0.5-0.15c0.37-0.12,0.74-0.24,1.12-0.36h0.01c0.52-0.17,1.04-0.35,1.56-0.53
		c0.95-0.32,1.89-0.66,2.84-1c0.07,0.02,0.15,0.02,0.24-0.02c0.15-0.07,0.29-0.15,0.43-0.22c0.1-0.04,0.2-0.07,0.3-0.12
		C41.44,91.06,41.46,91.05,41.47,91.05z M47.59,85.87c0.03,0.07,0.07,0.13,0.11,0.2c-0.5,0.17-0.99,0.37-1.49,0.57
		C46.67,86.38,47.13,86.13,47.59,85.87z M57.4,81.86c0.05,0.01,0.09,0.01,0.14,0.01c-2.07,1.51-4.2,2.93-6.41,4.21
		c-0.02-0.09-0.07-0.19-0.12-0.28C53.16,84.55,55.29,83.23,57.4,81.86z M83.51,48.96c-0.2,0.35-0.4,0.69-0.59,1.04
		c-0.36,0.62-0.72,1.25-1.09,1.87c-1.63,2.73-3.31,5.42-5.1,8.06c-0.01,0.01-0.01,0.01-0.01,0.01c0,0.01-0.01,0.02-0.01,0.03
		c-0.25,0.22-0.5,0.43-0.75,0.65c-0.01,0.01-0.01,0.01-0.01,0.01c-0.43,0.39-0.86,0.77-1.29,1.15c0.28-0.36,0.56-0.72,0.83-1.09
		c0.42-0.55,0.83-1.11,1.25-1.67c1.67-2.27,3.28-4.58,4.82-6.94c0.05-0.07,0.1-0.15,0.15-0.23c0.4-0.62,0.8-1.25,1.18-1.88
		C83.1,49.63,83.3,49.3,83.51,48.96z M93.22,37.17c-0.15,0.35-0.3,0.7-0.46,1.04c-1.65,3.53-3.47,6.98-5.4,10.37
		c-0.44,0.78-0.89,1.56-1.35,2.33c-0.37-0.46-1.04-0.6-1.59-0.41c0.31-0.49,0.61-0.98,0.91-1.48c1.87-3.11,3.63-6.27,5.27-9.51
		c-0.29,0.84-0.62,1.67-1,2.48c-0.26,0.54,0.53,1.02,0.82,0.48c0.89-1.68,1.6-3.44,2.18-5.24C92.79,37.34,93.05,37.34,93.22,37.17z
		 M94.04,21.33c-0.09,0.75-0.17,1.48-0.26,2.22c-0.09,0.12-0.15,0.26-0.2,0.41C93.74,23.08,93.89,22.2,94.04,21.33z M98.04,21.06
		c0.34-1.4,0.74-2.85,1.12-4.34c0.09,0.06,0.19,0.09,0.3,0.1c-0.93,3.64-2.17,7.31-2.5,11c-0.01,0.14,0.03,0.26,0.1,0.36
		c-1.49,2.55-2.44,5.56-3.58,8.34c1.33-4.07,2.6-8.18,3.72-12.31c0.04-0.06,0.07-0.12,0.09-0.19c0.13-0.53,0.25-1.05,0.37-1.57
		C97.8,21.98,97.93,21.52,98.04,21.06z M95.24,14.21c-0.1,0.4-0.2,0.8-0.29,1.21c-0.03,0.12-0.06,0.23-0.08,0.36
		c0.02-0.12,0.03-0.23,0.04-0.35c0.05-0.39,0.09-0.77,0.13-1.16C95.11,14.25,95.18,14.23,95.24,14.21z M97.99,8.86
		c0.04-0.7,0.07-1.4,0.1-2.1c0.01-0.05,0.01-0.1,0.01-0.15c0.01-0.2,0.02-0.39,0.03-0.59c0.1-0.01,0.2-0.03,0.29-0.06
		c-0.04,1.16-0.1,2.32-0.18,3.47c-0.07,0.35-0.16,0.7-0.23,1.05c-0.36,0.81-0.66,1.65-0.95,2.5c-0.02-0.26-0.04-0.51-0.06-0.77
		c-0.07-0.63-0.87-0.75-1.1-0.15c-0.05,0.14-0.1,0.29-0.15,0.44c-0.11-0.18-0.27-0.31-0.45-0.4c0.01-0.02,0.01-0.05,0.01-0.07
		c0.09-0.86,0.18-1.74,0.28-2.62C96.04,10.44,97.92,10.25,97.99,8.86z M71.7,76.92c-0.43,0.39-0.87,0.76-1.31,1.13
		c-0.27,0.23-0.54,0.47-0.81,0.69c-0.86,0.73-1.73,1.44-2.62,2.14c-0.36,0.29-0.72,0.57-1.08,0.85c-0.47,0.37-0.95,0.74-1.43,1.1
		c-0.01,0.01-0.02,0.02-0.04,0.03c-0.01,0-0.01,0-0.01,0c-0.38,0.28-0.76,0.56-1.14,0.84c-0.28,0.2-0.56,0.4-0.83,0.61
		c-0.56,0.4-1.12,0.8-1.68,1.19c0.9-0.55,1.8-1.11,2.69-1.67c2.74-1.74,6.1-3.43,8.19-5.95C71.85,77.6,71.85,77.21,71.7,76.92z
		 M12.55,99.61c-0.13,0.02-0.25,0.04-0.38,0.06c0.13-0.01,0.26-0.02,0.39-0.03C12.56,99.64,12.56,99.62,12.55,99.61z M71.7,76.92
		c-0.43,0.39-0.87,0.76-1.31,1.13c-0.27,0.23-0.54,0.47-0.81,0.69c-0.86,0.73-1.73,1.44-2.62,2.14c-0.36,0.29-0.72,0.57-1.08,0.85
		c-0.47,0.37-0.95,0.74-1.43,1.1c-0.01,0.01-0.02,0.02-0.04,0.03c-0.01,0-0.01,0-0.01,0c-0.38,0.28-0.76,0.56-1.14,0.84
		c-0.28,0.2-0.56,0.4-0.83,0.61c-0.56,0.4-1.12,0.8-1.68,1.19c0.9-0.55,1.8-1.11,2.69-1.67c2.74-1.74,6.1-3.43,8.19-5.95
		C71.85,77.6,71.85,77.21,71.7,76.92z M12.55,99.61c-0.13,0.02-0.25,0.04-0.38,0.06c0.13-0.01,0.26-0.02,0.39-0.03
		C12.56,99.64,12.56,99.62,12.55,99.61z M71.7,76.92c-0.43,0.39-0.87,0.76-1.31,1.13c-0.27,0.23-0.54,0.47-0.81,0.69
		c-0.86,0.73-1.73,1.44-2.62,2.14c-0.36,0.29-0.72,0.57-1.08,0.85c-0.47,0.37-0.95,0.74-1.43,1.1c-0.01,0.01-0.02,0.02-0.04,0.03
		c-0.01,0-0.01,0-0.01,0c-0.38,0.28-0.76,0.56-1.14,0.84c-0.28,0.2-0.56,0.4-0.83,0.61c-0.56,0.4-1.12,0.8-1.68,1.19
		c0.9-0.55,1.8-1.11,2.69-1.67c2.74-1.74,6.1-3.43,8.19-5.95C71.85,77.6,71.85,77.21,71.7,76.92z M12.55,99.61
		c-0.13,0.02-0.25,0.04-0.38,0.06c0.13-0.01,0.26-0.02,0.39-0.03C12.56,99.64,12.56,99.62,12.55,99.61z M71.7,76.92
		c-0.43,0.39-0.87,0.76-1.31,1.13c-0.27,0.23-0.54,0.47-0.81,0.69c-0.86,0.73-1.73,1.44-2.62,2.14c-0.36,0.29-0.72,0.57-1.08,0.85
		c-0.47,0.37-0.95,0.74-1.43,1.1c-0.01,0.01-0.02,0.02-0.04,0.03c-0.01,0-0.01,0-0.01,0c-0.38,0.28-0.76,0.56-1.14,0.84
		c-0.28,0.2-0.56,0.4-0.83,0.61c-0.56,0.4-1.12,0.8-1.68,1.19c0.9-0.55,1.8-1.11,2.69-1.67c2.74-1.74,6.1-3.43,8.19-5.95
		C71.85,77.6,71.85,77.21,71.7,76.92z M12.55,99.61c-0.13,0.02-0.25,0.04-0.38,0.06c0.13-0.01,0.26-0.02,0.39-0.03
		C12.56,99.64,12.56,99.62,12.55,99.61z M71.7,76.92c-0.43,0.39-0.87,0.76-1.31,1.13c-0.27,0.23-0.54,0.47-0.81,0.69
		c-0.86,0.73-1.73,1.44-2.62,2.14c-0.36,0.29-0.72,0.57-1.08,0.85c-0.47,0.37-0.95,0.74-1.43,1.1c-0.01,0.01-0.02,0.02-0.04,0.03
		c-0.01,0-0.01,0-0.01,0c-0.38,0.28-0.76,0.56-1.14,0.84c-0.28,0.2-0.56,0.4-0.83,0.61c-0.56,0.4-1.12,0.8-1.68,1.19
		c0.9-0.55,1.8-1.11,2.69-1.67c2.74-1.74,6.1-3.43,8.19-5.95C71.85,77.6,71.85,77.21,71.7,76.92z M12.55,99.61
		c-0.13,0.02-0.25,0.04-0.38,0.06c0.13-0.01,0.26-0.02,0.39-0.03C12.56,99.64,12.56,99.62,12.55,99.61z M71.7,76.92
		c-0.43,0.39-0.87,0.76-1.31,1.13c-0.27,0.23-0.54,0.47-0.81,0.69c-0.86,0.73-1.73,1.44-2.62,2.14c-0.36,0.29-0.72,0.57-1.08,0.85
		c-0.47,0.37-0.95,0.74-1.43,1.1c-0.01,0.01-0.02,0.02-0.04,0.03c-0.01,0-0.01,0-0.01,0c-0.38,0.28-0.76,0.56-1.14,0.84
		c-0.28,0.2-0.56,0.4-0.83,0.61c-0.56,0.4-1.12,0.8-1.68,1.19c0.9-0.55,1.8-1.11,2.69-1.67c2.74-1.74,6.1-3.43,8.19-5.95
		C71.85,77.6,71.85,77.21,71.7,76.92z M12.55,99.61c-0.13,0.02-0.25,0.04-0.38,0.06c0.13-0.01,0.26-0.02,0.39-0.03
		C12.56,99.64,12.56,99.62,12.55,99.61z M71.7,76.92c-0.43,0.39-0.87,0.76-1.31,1.13c-0.27,0.23-0.54,0.47-0.81,0.69
		c-0.86,0.73-1.73,1.44-2.62,2.14c-0.36,0.29-0.72,0.57-1.08,0.85c-0.47,0.37-0.95,0.74-1.43,1.1c-0.01,0.01-0.02,0.02-0.04,0.03
		c-0.01,0-0.01,0-0.01,0c-0.38,0.28-0.76,0.56-1.14,0.84c-0.28,0.2-0.56,0.4-0.83,0.61c-0.56,0.4-1.12,0.8-1.68,1.19
		c0.9-0.55,1.8-1.11,2.69-1.67c2.74-1.74,6.1-3.43,8.19-5.95C71.85,77.6,71.85,77.21,71.7,76.92z M12.55,99.61
		c-0.13,0.02-0.25,0.04-0.38,0.06c0.13-0.01,0.26-0.02,0.39-0.03C12.56,99.64,12.56,99.62,12.55,99.61z M71.7,76.92
		c-0.43,0.39-0.87,0.76-1.31,1.13c-0.27,0.23-0.54,0.47-0.81,0.69c-0.86,0.73-1.73,1.44-2.62,2.14c-0.36,0.29-0.72,0.57-1.08,0.85
		c-0.47,0.37-0.95,0.74-1.43,1.1c-0.01,0.01-0.02,0.02-0.04,0.03c-0.01,0-0.01,0-0.01,0c-0.38,0.28-0.76,0.56-1.14,0.84
		c-0.28,0.2-0.56,0.4-0.83,0.61c-0.56,0.4-1.12,0.8-1.68,1.19c0.9-0.55,1.8-1.11,2.69-1.67c2.74-1.74,6.1-3.43,8.19-5.95
		C71.85,77.6,71.85,77.21,71.7,76.92z M12.55,99.61c-0.13,0.02-0.25,0.04-0.38,0.06c0.13-0.01,0.26-0.02,0.39-0.03
		C12.56,99.64,12.56,99.62,12.55,99.61z M71.7,76.92c-0.43,0.39-0.87,0.76-1.31,1.13c-0.27,0.23-0.54,0.47-0.81,0.69
		c-0.86,0.73-1.73,1.44-2.62,2.14c-0.36,0.29-0.72,0.57-1.08,0.85c-0.47,0.37-0.95,0.74-1.43,1.1c-0.01,0.01-0.02,0.02-0.04,0.03
		c-0.01,0-0.01,0-0.01,0c-0.38,0.28-0.76,0.56-1.14,0.84c-0.28,0.2-0.56,0.4-0.83,0.61c-0.56,0.4-1.12,0.8-1.68,1.19
		c0.9-0.55,1.8-1.11,2.69-1.67c2.74-1.74,6.1-3.43,8.19-5.95C71.85,77.6,71.85,77.21,71.7,76.92z M12.55,99.61
		c-0.13,0.02-0.25,0.04-0.38,0.06c0.13-0.01,0.26-0.02,0.39-0.03C12.56,99.64,12.56,99.62,12.55,99.61z M71.7,76.92
		c-0.43,0.39-0.87,0.76-1.31,1.13c-0.27,0.23-0.54,0.47-0.81,0.69c-0.86,0.73-1.73,1.44-2.62,2.14c-0.36,0.29-0.72,0.57-1.08,0.85
		c-0.47,0.37-0.95,0.74-1.43,1.1c-0.01,0.01-0.02,0.02-0.04,0.03c-0.01,0-0.01,0-0.01,0c-0.38,0.28-0.76,0.56-1.14,0.84
		c-0.28,0.2-0.56,0.4-0.83,0.61c-0.56,0.4-1.12,0.8-1.68,1.19c0.9-0.55,1.8-1.11,2.69-1.67c2.74-1.74,6.1-3.43,8.19-5.95
		C71.85,77.6,71.85,77.21,71.7,76.92z M12.55,99.61c-0.13,0.02-0.25,0.04-0.38,0.06c0.13-0.01,0.26-0.02,0.39-0.03
		C12.56,99.64,12.56,99.62,12.55,99.61z M71.7,76.92c-0.43,0.39-0.87,0.76-1.31,1.13c-0.27,0.23-0.54,0.47-0.81,0.69
		c-0.86,0.73-1.73,1.44-2.62,2.14c-0.36,0.29-0.72,0.57-1.08,0.85c-0.47,0.37-0.95,0.74-1.43,1.1c-0.01,0.01-0.02,0.02-0.04,0.03
		c-0.01,0-0.01,0-0.01,0c-0.38,0.28-0.76,0.56-1.14,0.84c-0.28,0.2-0.56,0.4-0.83,0.61c-0.56,0.4-1.12,0.8-1.68,1.19
		c0.9-0.55,1.8-1.11,2.69-1.67c2.74-1.74,6.1-3.43,8.19-5.95C71.85,77.6,71.85,77.21,71.7,76.92z M12.55,99.61
		c-0.13,0.02-0.25,0.04-0.38,0.06c0.13-0.01,0.26-0.02,0.39-0.03C12.56,99.64,12.56,99.62,12.55,99.61z M71.7,76.92
		c-0.43,0.39-0.87,0.76-1.31,1.13c-0.27,0.23-0.54,0.47-0.81,0.69c-0.86,0.73-1.73,1.44-2.62,2.14c-0.36,0.29-0.72,0.57-1.08,0.85
		c-0.47,0.37-0.95,0.74-1.43,1.1c-0.01,0.01-0.02,0.02-0.04,0.03c-0.01,0-0.01,0-0.01,0c-0.38,0.28-0.76,0.56-1.14,0.84
		c-0.28,0.2-0.56,0.4-0.83,0.61c-0.56,0.4-1.12,0.8-1.68,1.19c0.9-0.55,1.8-1.11,2.69-1.67c2.74-1.74,6.1-3.43,8.19-5.95
		C71.85,77.6,71.85,77.21,71.7,76.92z M12.55,99.61c-0.13,0.02-0.25,0.04-0.38,0.06c0.13-0.01,0.26-0.02,0.39-0.03
		C12.56,99.64,12.56,99.62,12.55,99.61z M71.7,76.92c-0.43,0.39-0.87,0.76-1.31,1.13c-0.27,0.23-0.54,0.47-0.81,0.69
		c-0.86,0.73-1.73,1.44-2.62,2.14c-0.36,0.29-0.72,0.57-1.08,0.85c-0.47,0.37-0.95,0.74-1.43,1.1c-0.01,0.01-0.02,0.02-0.04,0.03
		c-0.01,0-0.01,0-0.01,0c-0.38,0.28-0.76,0.56-1.14,0.84c-0.28,0.2-0.56,0.4-0.83,0.61c-0.56,0.4-1.12,0.8-1.68,1.19
		c0.9-0.55,1.8-1.11,2.69-1.67c2.74-1.74,6.1-3.43,8.19-5.95C71.85,77.6,71.85,77.21,71.7,76.92z M12.55,99.61
		c-0.13,0.02-0.25,0.04-0.38,0.06c0.13-0.01,0.26-0.02,0.39-0.03C12.56,99.64,12.56,99.62,12.55,99.61z M71.7,76.92
		c-0.43,0.39-0.87,0.76-1.31,1.13c-0.27,0.23-0.54,0.47-0.81,0.69c-0.86,0.73-1.73,1.44-2.62,2.14c-0.36,0.29-0.72,0.57-1.08,0.85
		c-0.47,0.37-0.95,0.74-1.43,1.1c-0.01,0.01-0.02,0.02-0.04,0.03c-0.01,0-0.01,0-0.01,0c-0.38,0.28-0.76,0.56-1.14,0.84
		c-0.28,0.2-0.56,0.4-0.83,0.61c-0.56,0.4-1.12,0.8-1.68,1.19c0.9-0.55,1.8-1.11,2.69-1.67c2.74-1.74,6.1-3.43,8.19-5.95
		C71.85,77.6,71.85,77.21,71.7,76.92z M12.55,99.61c-0.13,0.02-0.25,0.04-0.38,0.06c0.13-0.01,0.26-0.02,0.39-0.03
		C12.56,99.64,12.56,99.62,12.55,99.61z M12.55,99.61c-0.13,0.02-0.25,0.04-0.38,0.06c0.13-0.01,0.26-0.02,0.39-0.03
		C12.56,99.64,12.56,99.62,12.55,99.61z M71.7,76.92c-0.43,0.39-0.87,0.76-1.31,1.13c-0.27,0.23-0.54,0.47-0.81,0.69
		c-0.86,0.73-1.73,1.44-2.62,2.14c-0.36,0.29-0.72,0.57-1.08,0.85c-0.47,0.37-0.95,0.74-1.43,1.1c-0.01,0.01-0.02,0.02-0.04,0.03
		c-0.01,0-0.01,0-0.01,0c-0.38,0.28-0.76,0.56-1.14,0.84c-0.28,0.2-0.56,0.4-0.83,0.61c-0.56,0.4-1.12,0.8-1.68,1.19
		c0.9-0.55,1.8-1.11,2.69-1.67c2.74-1.74,6.1-3.43,8.19-5.95C71.85,77.6,71.85,77.21,71.7,76.92z M12.55,99.61
		c-0.13,0.02-0.25,0.04-0.38,0.06c0.13-0.01,0.26-0.02,0.39-0.03C12.56,99.64,12.56,99.62,12.55,99.61z M71.7,76.92
		c-0.43,0.39-0.87,0.76-1.31,1.13c-0.27,0.23-0.54,0.47-0.81,0.69c-0.86,0.73-1.73,1.44-2.62,2.14c-0.36,0.29-0.72,0.57-1.08,0.85
		c-0.47,0.37-0.95,0.74-1.43,1.1c-0.01,0.01-0.02,0.02-0.04,0.03c-0.01,0-0.01,0-0.01,0c-0.38,0.28-0.76,0.56-1.14,0.84
		c-0.28,0.2-0.56,0.4-0.83,0.61c-0.56,0.4-1.12,0.8-1.68,1.19c0.9-0.55,1.8-1.11,2.69-1.67c2.74-1.74,6.1-3.43,8.19-5.95
		C71.85,77.6,71.85,77.21,71.7,76.92z M12.55,99.61c-0.13,0.02-0.25,0.04-0.38,0.06c0.13-0.01,0.26-0.02,0.39-0.03
		C12.56,99.64,12.56,99.62,12.55,99.61z M71.7,76.92c-0.43,0.39-0.87,0.76-1.31,1.13c-0.27,0.23-0.54,0.47-0.81,0.69
		c-0.86,0.73-1.73,1.44-2.62,2.14c-0.36,0.29-0.72,0.57-1.08,0.85c-0.47,0.37-0.95,0.74-1.43,1.1c-0.01,0.01-0.02,0.02-0.04,0.03
		c-0.01,0-0.01,0-0.01,0c-0.38,0.28-0.76,0.56-1.14,0.84c-0.28,0.2-0.56,0.4-0.83,0.61c-0.56,0.4-1.12,0.8-1.68,1.19
		c0.9-0.55,1.8-1.11,2.69-1.67c2.74-1.74,6.1-3.43,8.19-5.95C71.85,77.6,71.85,77.21,71.7,76.92z M12.55,99.61
		c-0.13,0.02-0.25,0.04-0.38,0.06c0.13-0.01,0.26-0.02,0.39-0.03C12.56,99.64,12.56,99.62,12.55,99.61z M71.7,76.92
		c-0.43,0.39-0.87,0.76-1.31,1.13c-0.27,0.23-0.54,0.47-0.81,0.69c-0.86,0.73-1.73,1.44-2.62,2.14c-0.36,0.29-0.72,0.57-1.08,0.85
		c-0.47,0.37-0.95,0.74-1.43,1.1c-0.01,0.01-0.02,0.02-0.04,0.03c-0.01,0-0.01,0-0.01,0c-0.38,0.28-0.76,0.56-1.14,0.84
		c-0.28,0.2-0.56,0.4-0.83,0.61c-0.56,0.4-1.12,0.8-1.68,1.19c0.9-0.55,1.8-1.11,2.69-1.67c2.74-1.74,6.1-3.43,8.19-5.95
		C71.85,77.6,71.85,77.21,71.7,76.92z M12.55,99.61c-0.13,0.02-0.25,0.04-0.38,0.06c0.13-0.01,0.26-0.02,0.39-0.03
		C12.56,99.64,12.56,99.62,12.55,99.61z M71.7,76.92c-0.43,0.39-0.87,0.76-1.31,1.13c-0.27,0.23-0.55,0.46-0.81,0.69
		c-0.86,0.73-1.73,1.44-2.62,2.14c-0.36,0.29-0.72,0.57-1.08,0.85c-0.47,0.37-0.95,0.74-1.43,1.1c-0.01,0.01-0.02,0.02-0.04,0.02
		l-0.01,0.01c-0.38,0.28-0.76,0.56-1.14,0.84c-0.28,0.2-0.56,0.4-0.83,0.61c-0.56,0.4-1.12,0.8-1.68,1.19
		c0.9-0.55,1.8-1.11,2.69-1.67c2.74-1.74,6.1-3.43,8.19-5.95C71.85,77.6,71.85,77.21,71.7,76.92z"/>
	<path class="st1" d="M43.35,98.1c-11.13,5.42-24.04,7.77-36.29,8.82c-0.72,0.06-0.71-1.05,0-1.12c12.47-1.31,24.05-4.82,35.99-8.39
		C43.46,97.28,43.74,97.91,43.35,98.1z"/>
	<path class="st1" d="M77.13,71.91C68.1,80.7,57.81,88.45,46.36,93.8c0,0.1-0.05,0.19-0.16,0.24c-1.07,0.44-2.15,0.85-3.23,1.25
		c-0.48,0.2-0.95,0.4-1.43,0.59c-0.07,0.03-0.13,0.02-0.18,0c-5.32,1.91-10.77,3.52-16.11,5.31c-0.44,0.15-0.63-0.55-0.19-0.69
		c6.41-2.16,12.82-4.62,19.34-6.47c4.63-2.15,8.99-4.71,13.18-7.53c-10.25,6-21.96,9.78-33.44,12.55c-0.37,0.09-0.52-0.47-0.16-0.57
		c11.95-3.05,23-7.85,34.26-12.78c0.14-0.06,0.27,0.05,0.27,0.16c6.36-4.37,12.34-9.3,18.33-14.25
		C77.04,71.45,77.33,71.72,77.13,71.91z"/>
	<path class="st1" d="M99.45,35.66c-1.79,5.64-5.39,11.06-8.68,15.93c-3.4,5.03-7.28,9.69-11.43,14.12c-0.12,0.13-0.28,0.1-0.37,0
		c-1.37,1.37-2.75,2.69-4.09,3.99c-3.08,2.97-6.32,5.76-9.67,8.42c1.46-0.87,2.91-1.75,4.37-2.64c0.28-0.17,0.49,0.24,0.25,0.42
		c-3.95,2.96-8.15,5.64-12.5,8.11c0,0-0.01,0.01-0.01,0.01c0,0-0.01,0-0.01,0.01c-8.32,4.72-17.2,8.61-25.99,11.95
		c-0.31,0.12-0.44-0.38-0.14-0.5c10.89-4.22,20.9-9.61,30.83-15.46c4.4-3.54,8.58-7.33,12.6-11.32c4.86-4.83,8.93-10.35,13.59-15.33
		c0.63-0.92,1.26-1.85,1.88-2.79c3.21-4.9,5.59-10.28,8.75-15.18C99.03,35.09,99.57,35.28,99.45,35.66z"/>
	<path class="st1" d="M84.75,67.46c-7.09,8.09-16.05,14.79-24.87,20.88c-0.37,0.25-0.71-0.34-0.35-0.6
		c8.87-6.26,16.7-13.54,24.93-20.57C84.67,67.01,84.93,67.26,84.75,67.46z"/>
	<path class="st1" d="M84.65,53.63c-5.37,7.3-12.35,13.72-18.98,19.86c-0.36,0.33-0.9-0.2-0.54-0.54
		c6.72-6.24,12.62-13.19,19.13-19.62C84.45,53.13,84.82,53.39,84.65,53.63z"/>
	<path class="st1" d="M102.13,36.4c-1.57,6.97-6.26,13.15-10.27,18.91c-0.26,0.38-0.88,0.02-0.62-0.36
		c4.13-6.04,7.53-12.03,10.43-18.74C101.78,35.93,102.19,36.13,102.13,36.4z"/>
	<path class="st1" d="M104.29,25.94c-2.34,6.55-5.34,12.89-8.22,19.22c-0.11,0.24-0.47,0.03-0.36-0.21
		c2.83-6.35,5.35-12.84,8.29-19.13C104.08,25.66,104.35,25.77,104.29,25.94z"/>
	<path class="st1" d="M107.89,10.44c-0.62,5.7-2.53,11.17-4.91,16.35c-0.15,0.33-0.63,0.04-0.48-0.28
		c2.31-5.22,3.69-10.58,4.98-16.13C107.53,10.16,107.91,10.2,107.89,10.44z"/>
	<path class="st1" d="M104.62,8.15c0.3,6.44-2.1,13.41-4.35,19.35c-0.14,0.38-0.76,0.22-0.62-0.17c2.25-6.33,2.9-12.79,4.55-19.24
		C104.26,7.85,104.61,7.91,104.62,8.15z"/>
	<path class="st1" d="M101.51,8.75c-0.16,7.73-2.31,15.61-4.7,22.91c-0.12,0.37-0.7,0.21-0.58-0.16c2.36-7.53,3.38-15.09,4.72-22.82
		C101,8.36,101.51,8.43,101.51,8.75z"/>
	<path class="st1" d="M27.28,94.98c-7.14,3.64-15.19,5.11-23.14,5.5c-0.52,0.03-0.51-0.77,0-0.8c7.97-0.56,15.41-2.65,22.97-5.11
		C27.35,94.49,27.51,94.86,27.28,94.98z"/>
	<path class="st1" d="M30.93,92.59c-6.83,3.16-14.57,4.3-22.03,4.76c-0.67,0.04-0.67-1,0-1.05c7.52-0.52,14.55-2.41,21.82-4.2
		C31,92.03,31.21,92.45,30.93,92.59z"/>
	<path class="st4" d="M8.45,109.24c0.23,0.17,0.46,0.32,0.6,0.57c0.14,0.24,0.14,0.47,0.17,0.73c0.04,0.45-0.35,0.86-0.75,0.99
		c-0.46,0.14-0.84,0.07-1.26-0.18c-0.55-0.33-0.8-1.11-0.44-1.67C7.1,109.17,7.89,108.84,8.45,109.24z"/>
	<path class="st4" d="M11.7,109.17c0.01,0.05,0.02,0.1,0.03,0.14c0.09,0.39-0.57,0.4-0.47,0c0.01-0.05,0.02-0.1,0.03-0.14
		C11.35,108.98,11.66,108.98,11.7,109.17z"/>
	<path class="st4" d="M9.2,103.87c0,0.98-1.52,0.98-1.52,0C7.68,102.89,9.2,102.89,9.2,103.87z"/>
	<path class="st4" d="M5.35,100.82L5.25,101c-0.3,0.57-1.11-0.23-0.53-0.53l0.19-0.1C5.2,100.22,5.5,100.53,5.35,100.82z"/>
	<path class="st4" d="M8.32,96.67c0,0.04-0.06,0.04-0.06,0C8.26,96.63,8.32,96.63,8.32,96.67z"/>
	<path class="st4" d="M15.33,98.97c0,1.17-1.82,1.18-1.82,0C13.5,97.79,15.33,97.79,15.33,98.97z"/>
	<path class="st4" d="M18.12,105.4c0,0.04-0.06,0.04-0.06,0C18.06,105.36,18.12,105.36,18.12,105.4z"/>
	<path class="st4" d="M20.49,99.43c0,1.32-2.05,1.32-2.05,0C18.44,98.11,20.49,98.1,20.49,99.43z"/>
	<circle class="st4" cx="21.77" cy="95.75" r="0.9"/>
	<path class="st4" d="M25.8,97.62c0.04,0.23,0.09,0.47,0.13,0.7c0.1,0.57-0.43,1-0.96,0.74c-0.21-0.1-0.42-0.21-0.63-0.31
		c-0.64-0.32-0.62-1.24-0.1-1.65C24.75,96.71,25.67,96.92,25.8,97.62z"/>
	<path class="st4" d="M28.27,105.25c0,1.28-1.98,1.28-1.98,0C26.29,103.97,28.27,103.97,28.27,105.25z"/>
	<path class="st4" d="M31.02,106.85c0.1,0.02,0.19,0.05,0.29,0.07c0.16,0.04,0.16,0.29,0,0.33c-0.1,0.02-0.19,0.05-0.29,0.07
		C30.63,107.41,30.62,106.75,31.02,106.85z"/>
	<path class="st4" d="M37.57,102.64c0,0.04-0.06,0.04-0.06,0C37.51,102.6,37.57,102.6,37.57,102.64z"/>
	<path class="st4" d="M38.95,97.44c0,0.04-0.06,0.04-0.06,0C38.89,97.4,38.95,97.4,38.95,97.44z"/>
	<path class="st4" d="M37.67,92.08c0,1.35-2.1,1.35-2.1,0C35.57,90.73,37.67,90.72,37.67,92.08z"/>
	<path class="st4" d="M39.41,90.39c0,0.04-0.06,0.04-0.06,0C39.35,90.35,39.41,90.35,39.41,90.39z"/>
	<path class="st4" d="M40.74,100.81c0,0.96-1.49,0.96-1.49,0C39.24,99.84,40.74,99.84,40.74,100.81z"/>
	<path class="st4" d="M42.96,102.18c0,1.06-1.65,1.06-1.65,0C41.31,101.12,42.96,101.12,42.96,102.18z"/>
	<path class="st4" d="M51.07,97.9c0,0.59-0.52,1.15-1.12,1.12c-0.61-0.03-1.12-0.49-1.12-1.12c0-0.59,0.52-1.15,1.12-1.12
		C50.55,96.8,51.07,97.27,51.07,97.9z"/>
	<path class="st4" d="M51.94,93.45c0,0.2-0.32,0.2-0.32,0C51.63,93.25,51.94,93.25,51.94,93.45z"/>
	<path class="st4" d="M50.01,88.71c0,1.66-2.58,1.67-2.58,0C47.43,87.04,50.01,87.04,50.01,88.71z"/>
	<path class="st4" d="M53.33,83.8c0,1.2-1.87,1.2-1.87,0C51.46,82.6,53.33,82.6,53.33,83.8z"/>
	<path class="st4" d="M55.67,83.9l0.1,0.19c0.17,0.32-0.17,0.66-0.49,0.49l-0.19-0.1C54.47,84.15,55.34,83.27,55.67,83.9z"/>
	<path class="st4" d="M60.67,89.47c0,0.79-1.23,0.8-1.23,0C59.44,88.68,60.67,88.68,60.67,89.47z"/>
	<path class="st4" d="M64.95,86.26c0,1.17-1.82,1.18-1.82,0C63.13,85.08,64.95,85.08,64.95,86.26z"/>
	<path class="st4" d="M66.21,81.81c0,0.04-0.06,0.04-0.06,0C66.15,81.77,66.21,81.77,66.21,81.81z"/>
	<path class="st4" d="M69.43,78.29c0,0.63-0.98,0.63-0.98,0C68.45,77.66,69.43,77.66,69.43,78.29z"/>
	<path class="st4" d="M80.73,75.84c0,1.58-2.46,1.58-2.46,0C78.28,74.26,80.73,74.26,80.73,75.84z"/>
	<path class="st4" d="M83.43,71.55c0,1.5-2.33,1.5-2.33,0C81.1,70.06,83.43,70.05,83.43,71.55z"/>
	<path class="st4" d="M80.02,67.57c0,1.84-2.86,1.84-2.86,0C77.16,65.73,80.02,65.73,80.02,67.57z"/>
	<path class="st4" d="M75.52,64.97c0,0.56-0.49,1.1-1.07,1.07c-0.58-0.03-1.07-0.47-1.07-1.07c0-0.56,0.49-1.1,1.07-1.07
		C75.03,63.92,75.52,64.37,75.52,64.97z"/>
	<path class="st4" d="M64.94,71.4c0,1.76-2.73,1.76-2.73,0C62.21,69.64,64.94,69.64,64.94,71.4z"/>
	<path class="st4" d="M61.61,72.16c0,1.8-2.8,1.8-2.8,0C58.81,70.36,61.61,70.36,61.61,72.16z"/>
	<path class="st4" d="M76.8,59.45c0,1.64-2.56,1.65-2.56,0C74.25,57.81,76.8,57.81,76.8,59.45z"/>
	<path class="st4" d="M78.88,55.01c0,1.37-2.13,1.37-2.13,0C76.76,53.64,78.88,53.64,78.88,55.01z"/>
	<path class="st4" d="M83.15,50.72c0,1.53-2.38,1.54-2.38,0C80.77,49.19,83.15,49.19,83.15,50.72z"/>
	<path class="st4" d="M89.33,52.25c0,1.6-2.48,1.6-2.48,0C86.84,50.66,89.33,50.65,89.33,52.25z"/>
	<path class="st4" d="M95.46,55.32c0,0.62-0.96,0.62-0.96,0C94.49,54.7,95.46,54.7,95.46,55.32z"/>
	<path class="st4" d="M99.1,47.81c0,1.16-1.81,1.17-1.81,0C97.29,46.65,99.1,46.65,99.1,47.81z"/>
	<path class="st4" d="M104.2,41.84c0,0.04-0.06,0.04-0.06,0C104.13,41.8,104.2,41.8,104.2,41.84z"/>
	<path class="st4" d="M106.82,34.13c0.07,0.08,0.15,0.16,0.22,0.24c0.27,0.28,0.22,0.76-0.12,0.96c-0.31,0.18-0.83,0.03-0.9-0.36
		c-0.02-0.11-0.04-0.22-0.06-0.33C105.89,34.16,106.44,33.73,106.82,34.13z"/>
	<path class="st4" d="M105.65,30.81c0,0.53-0.82,0.53-0.82,0C104.83,30.28,105.65,30.28,105.65,30.81z"/>
	<path class="st4" d="M109.25,26.57c-0.03,0.06-0.06,0.13-0.08,0.19c-0.12,0.28-0.55,0.3-0.74,0.1c-0.2-0.2-0.19-0.62,0.1-0.74
		c0.06-0.03,0.13-0.06,0.19-0.08C109.09,25.87,109.42,26.2,109.25,26.57z"/>
	<path class="st4" d="M110.8,22.23c0,1.05-1.64,1.05-1.64,0C109.17,21.18,110.8,21.18,110.8,22.23z"/>
	<path class="st4" d="M110.2,15.8c0,1.85-2.87,1.85-2.87,0C107.32,13.95,110.2,13.95,110.2,15.8z"/>
	<path class="st4" d="M112.67,10.44c0,1.49-2.31,1.49-2.31,0C110.36,8.95,112.67,8.95,112.67,10.44z"/>
	<path class="st4" d="M112.85,6.31c0,1.72-2.67,1.72-2.67,0C110.18,4.59,112.85,4.58,112.85,6.31z"/>
	<path class="st4" d="M111.51,2.48c0,1.37-2.13,1.37-2.13,0C109.38,1.11,111.51,1.11,111.51,2.48z"/>
	<path class="st4" d="M112.98,0.49c0,1.49-2.31,1.49-2.31,0C110.67-1,112.98-1,112.98,0.49z"/>
	<path class="st4" d="M96.64,5.54c0,0.18-0.03,0.33-0.08,0.47c0.35,0.19,0.6,0.54,0.6,1.06c0,1.63-2.53,1.63-2.53,0
		c0-0.13,0.02-0.24,0.05-0.35c-0.43-0.19-0.75-0.58-0.75-1.18C93.92,3.79,96.64,3.79,96.64,5.54z"/>
	<path class="st4" d="M96.33,16.57c0,1.54-2.4,1.55-2.4,0C93.93,15.02,96.33,15.02,96.33,16.57z"/>
	<path class="st4" d="M91.59,21.93c0,1.55-2.41,1.55-2.41,0C89.17,20.38,91.59,20.37,91.59,21.93z"/>
	<path class="st4" d="M93.37,26.98c0,1.48-2.3,1.48-2.3,0C91.07,25.5,93.37,25.5,93.37,26.98z"/>
	<path class="st4" d="M89.35,33.87c0,1.43-2.23,1.43-2.23,0C87.12,32.44,89.35,32.44,89.35,33.87z"/>
	<path class="st4" d="M83.97,41.99c0,1.41-2.2,1.42-2.2,0C81.78,40.58,83.97,40.58,83.97,41.99z"/>
	<path class="st4" d="M83.91,45.06c0,0.74-1.15,0.74-1.15,0C82.76,44.32,83.91,44.32,83.91,45.06z"/>
	<path class="st5" d="M13.49,109.13c0,1.37-2.13,1.37-2.13,0C11.36,107.76,13.49,107.76,13.49,109.13z"/>
	<path class="st5" d="M19.98,104.43c0,0.79-1.23,0.8-1.23,0C18.75,103.64,19.98,103.63,19.98,104.43z"/>
	<path class="st5" d="M14.84,99.12c0,1.53-2.38,1.54-2.38,0C12.46,97.59,14.84,97.58,14.84,99.12z"/>
	<path class="st5" d="M18.69,94.42c0,1.5-2.33,1.5-2.33,0C16.36,92.93,18.69,92.92,18.69,94.42z"/>
	<path class="st5" d="M81.59,75.64c0,1.24-1.92,1.24-1.92,0C79.67,74.4,81.59,74.4,81.59,75.64z"/>
	<path class="st5" d="M83.62,72.78c0,1.75-2.71,1.75-2.71,0C80.91,71.03,83.62,71.03,83.62,72.78z"/>
	<path class="st5" d="M93.83,64.61c0,1.48-2.3,1.48-2.3,0C91.53,63.13,93.83,63.13,93.83,64.61z"/>
	<path class="st5" d="M83.56,55.83c0,1.66-2.58,1.67-2.58,0C80.97,54.16,83.56,54.16,83.56,55.83z"/>
	<path class="st5" d="M98.25,48.68c0,1.65-2.57,1.66-2.57,0C95.68,47.03,98.25,47.02,98.25,48.68z"/>
	<path class="st5" d="M101.12,44.6c0,1.67-2.6,1.68-2.6,0C98.53,42.92,101.12,42.92,101.12,44.6z"/>
	<path class="st5" d="M106.18,34.18c0,1.61-2.5,1.61-2.5,0C103.68,32.57,106.18,32.57,106.18,34.18z"/>
	<path class="st5" d="M94.49,28.26c0,1.28-2,1.29-2,0C92.5,26.97,94.49,26.97,94.49,28.26z"/>
	<path class="st5" d="M101.78,12.94c0,1.47-2.28,1.47-2.28,0C99.5,11.47,101.78,11.47,101.78,12.94z"/>
	<path class="st5" d="M107.22,15.8c0,1.63-2.53,1.63-2.53,0C104.69,14.18,107.22,14.17,107.22,15.8z"/>
	<path class="st5" d="M114.65,7.84c0,1.74-2.7,1.74-2.7,0C111.95,6.1,114.65,6.1,114.65,7.84z"/>
	<path class="st5" d="M111.41,5.8c0,1.51-2.34,1.51-2.34,0C109.07,4.29,111.41,4.29,111.41,5.8z"/>
	<path class="st5" d="M98.1,6.61c0,1.72-2.67,1.72-2.67,0C95.43,4.89,98.1,4.89,98.1,6.61z"/>
	<circle class="st5" cx="59.37" cy="73.38" r="0.9"/>
	<path class="st5" d="M59.76,69.92c0,1-1.55,1-1.55,0C58.21,68.92,59.76,68.92,59.76,69.92z"/>
	<path class="st5" d="M60.89,95.44c0,0.88-1.36,0.88-1.36,0C59.53,94.57,60.89,94.57,60.89,95.44z"/>
	<path class="st5" d="M56.91,97.28c0,1.01-1.57,1.01-1.57,0C55.34,96.28,56.91,96.27,56.91,97.28z"/>
	<path class="st5" d="M50.52,99.32c0,0.41-0.63,0.41-0.63,0C49.89,98.92,50.52,98.92,50.52,99.32z"/>
	<path class="st5" d="M39,102.59c0,1.35-2.1,1.35-2.1,0C36.9,101.24,39,101.24,39,102.59z"/>
</g>
</svg>
