<?xml version="1.0" encoding="utf-8"?>
<!-- Generator: Adobe Illustrator 25.2.3, SVG Export Plug-In . SVG Version: 6.00 Build 0)  -->
<svg version="1.1" id="Layer_1" xmlns="http://www.w3.org/2000/svg" xmlns:xlink="http://www.w3.org/1999/xlink" x="0px" y="0px"
	 viewBox="0 0 156 104" style="enable-background:new 0 0 156 104;" xml:space="preserve">
<style type="text/css">
	.st0{fill:#9E8D85;}
	.st1{fill:#9EC900;}
	.st2{fill:#7F6F6A;}
	.st3{fill:#544745;}
	.st4{fill:#C8D60D;}
	.st5{fill:#80AF00;}
</style>
<g>
	<path class="st0" d="M156.42,18.52v66.86c-19.07,1.8-38.31,2.17-57.4,0.57c-0.43,0.18-0.9,0.3-1.42,0.34
		c-12.38,1.1-24.79,0.72-37.19,0.27c-10.81-0.39-21.61-0.84-32.42-0.34c-5.34,0.25-10.67,0.67-16,0.1c-2.65-0.29-5.27-0.72-7.9-1.19
		c-1.35-0.24-3.03-0.35-4.51-0.75v-66.8c0.63-0.13,1.3-0.12,1.97,0.05c4.02,1.04,7.68,0.65,11.7-0.18
		c4.18-0.86,8.38-1.59,12.63-2.05c8.11-0.89,16.3-0.82,24.43-0.42c14.87,0.73,29.68,2.68,44.58,2.93
		c15.18,0.26,30.39-2.58,45.56-1.04c3.77,0.38,7.47,1.18,11.24,1.63C153.33,18.68,154.87,18.64,156.42,18.52z"/>
	<path class="st1" d="M155.96,38.14c-5.94,0.23-11.74,1.73-17.68,1.98c-2.96,0.13-5.7-0.16-8.56-0.91c-2.59-0.68-5.2-1.45-7.9-1.35
		c-2.67,0.1-4.95,1.06-7.44,1.88c-2.75,0.91-4.86,0.49-7.6-0.25c-2.71-0.74-5.45-1.45-8.3-1.32c-2.71,0.12-5.4,1.15-8.12,0.95
		c-2.55-0.19-4.94-1.36-7.54-1.39c-2.88-0.03-5.1,1.3-7.77,2.05c-2.87,0.81-6,0.39-8.94,0.24c-2.96-0.15-5.92-0.3-8.88-0.45
		c-0.31-0.02-0.62,0.02-0.93,0.09c-4.19-0.42-8.52,0.15-12.69-0.1c-2.49-0.16-4.96-0.62-7.47-0.47c-2.75,0.17-5.39,1.04-8.16,0.9
		c-2.79-0.14-5.5-0.72-8.31-0.73c-2.82-0.01-5.64,0.04-8.45-0.02c-3.53-0.07-7.88-1.03-11.63-0.47v28.1
		c2.74-0.12,5.48-0.67,8.22-0.87c4.29-0.3,8.37,0.4,12.63,0.78c3.91,0.35,7.88-0.47,11.7,0.61c3.99,1.12,7.4,2.21,11.57,1.13
		c1.79-0.47,3.52-1.26,5.36-1.53c1.99-0.3,4.12-0.09,6.11,0.07c4.23,0.33,8.17,0.45,12.37-0.32c6.05-1.1,12.19,0.32,18.23,0.18
		c2.67,1.37,5.76,1.4,8.64,0.53c1.62-0.48,3.16-1.27,4.8-1.65c1.7-0.4,3.23-0.16,4.93,0.17c3.99,0.78,7.44,1.13,11.35-0.25
		c1.42-0.5,2.93-1.31,4.47-1.13c1.65,0.19,3.35,1.23,4.87,1.84c3.28,1.33,6.57,1.62,9.99,0.59c2.87-0.87,5.93-3.19,9.04-2.71
		c3.76,0.59,7.24,2.14,11.08,2.56c0.49,0.05,0.98,0.09,1.47,0.12V38.12C156.26,38.13,156.11,38.14,155.96,38.14z M1.1,54.72
		c-0.16,0.06-0.31,0.11-0.47,0.17c-0.02-0.2-0.04-0.39-0.06-0.59c0.18,0.1,0.35,0.2,0.53,0.3C1.09,54.64,1.09,54.68,1.1,54.72z"/>
	<path class="st2" d="M156.42,82.27v10.46c-1.22-0.13-2.44-0.4-3.64,0.12c-1.39,0.6-2.04,1.25-3.58,0.46
		c-0.43-0.22-0.96-0.96-1.4-1.1c-1.42-0.45-1.75,0.26-2.88,0.88c-0.94,0.51-1.92,0.88-3.01,0.72c-2.06-0.31-3.1-2.19-5.29-2.3
		c-1.76-0.08-3.61,0.69-5.33,1c-1.37,0.25-2.79,0.42-4.16,0.1c-0.76-0.18-1.42-0.5-2.09-0.89c-1.32-0.76-1.18-0.91-2.28,0.09
		c-0.99,0.88-1.32,1.9-2.77,2.25c-1.61,0.39-2.95-0.34-4.26-1.2c-2.46-1.6-4.1-2.68-7.14-1.61c-1.67,0.59-3.19,1.53-4.88,2.07
		c-3.95,1.27-7.26-0.31-10.43-2.54c-1.19,1.27-2.55,2.55-4.27,2.49c-1.48-0.06-3.13-0.98-4.13-2.21c-1.99-0.35-3.4-0.15-5.48,1.01
		c-0.99,0.55-1.76,0.93-2.92,0.93c-1.49-0.01-2.74-0.8-4.17-1.05c-1.92-0.33-3.47,0.89-5.34,0.75c-2.23-0.17-3.22-1.89-4.86-3.08
		c-3.45-2.5-5.94,2.74-9.24,3.39c-0.92,0.18-1.89,0.13-2.76-0.21c-1.38-0.56-1.87-1.84-3.45-1.75c-1.15,0.07-1.94,0.77-3.18,0.53
		c-1.14-0.23-1.15-0.37-2.17-0.16c-1.05,0.21-1.62,0.42-2.66-0.03c-1.65-0.7-2.54-1.06-4.15,0.15c-1.88,1.4-4.14,2.31-6.3,1.13
		c-0.17-0.1-0.31-0.21-0.4-0.34c-2.63-0.34-3.96-3.6-6.92-3.46c-2.92,0.13-4.29,3.49-7.09,3.67c-1.83,0.12-3.28-1.1-5.2-0.95
		c-1.61,0.12-3.19,0.51-4.8,0.63c-1.36,0.1-2.79,0.21-4.18,0.12v-9.88c2.49-0.07,4.83,0.32,7.24,1.17c1.9,0.67,3,0.5,4.85-0.08
		c0.93-0.28,1.89-0.48,2.86-0.29c0.63,0.12,1.03,0.48,1.61,0.62c1.53,0.37,2.76,0.1,4.14-0.37c1-0.34,1.94-0.67,3-0.76
		c3.08-0.28,5.8,2.04,8.75,1.38c0.08-0.02,0.16-0.03,0.23-0.04c1.16-1.02,2.51-1.62,4.26-1.77c2.99-0.25,5.71,1.3,8.65,1.33
		c2.7,0.02,4.71-2.16,7.46-1.78c1.49,0.21,2.43,0.85,3.95,0.75c1.4-0.08,2.61-0.52,4.01-0.37c3.49,0.38,6.27,2.58,9.93,2.32
		c3.31-0.24,5.61-2.27,8.58-3.39c2.47-0.94,4.79-0.58,7.16,0.48c1.65,0.73,3.16,1.68,4.97,1.97c1.29,0.2,2.49-0.02,3.72,0.26
		c1.81-0.75,3.01-2.1,5.45-1.59c1.48,0.31,2.78,1.17,4.23,1.56c2.26,0.61,3.86-0.04,5.71-1.28c2.06-1.38,3.98-2.21,6.4-1.22
		c2.41,0.99,3.91,3.41,6.71,2.62c1.15-0.32,2.02-0.69,3.23-0.42c1.22,0.27,1.85,1.24,2.93,1.7c1.45,0.61,2.93-0.4,4.42-0.55
		c1.42-0.13,2.81,0.32,4.23,0.25c1.94-0.1,3.76-0.93,5.59-1.47c1.71-0.51,2.81-0.41,4.53-0.53
		C151.12,82.75,153.72,82.32,156.42,82.27z"/>
	<path class="st2" d="M156.42,11.6v10.78c-3.2,0.1-6.7-0.46-9.33-1.5c-1.43-0.56-2.57-1.08-4.14-1.13
		c-1.67-0.05-3.12,0.74-4.74,0.88c-0.68,0.06-1.24,0.01-1.71-0.2c-0.29,0.26-0.7,0.38-1.19,0.23c-3.07-0.94-5.7-0.59-8.83-0.31
		c-1.37,0.12-2.64,0.04-4.01-0.01c-2.13-0.09-2.8,0.15-4.45,1.04c-2.21,1.19-3.69-0.02-5.9-0.47c-3.11-0.63-6.76,0.27-9.89,0.56
		c-3.22,0.29-6.44,0.45-9.66-0.04c-1.33-0.2-2.63-0.69-3.96-0.82c-1.51-0.15-2.84,0.47-4.34,0.59c-1.26,0.1-2.48-0.17-3.71-0.39
		c-1.87-0.32-3.46-0.2-5.34-0.04c-1.62,0.14-2.92,0.08-4.18-0.49c-0.36,0.34-0.85,0.52-1.4,0.32c-5.58-1.99-10.99-2.71-16.67-0.56
		c-2.08,0.79-3.81,1.39-6.06,1.15c-2.5-0.26-4.79-1.49-7.33-1.48c-2.73,0.02-5.28,1.13-8.05,0.89c-2.68-0.23-5.05-1.23-7.74-0.41
		c-1.86,0.56-3.15,1.16-5.16,0.93c-1.02-0.12-1.99-0.41-3-0.56c-2.23-0.35-3.77,0.2-5.73,1.21c-0.39,0.2-0.82,0.13-1.15-0.08
		c-1.68,0.59-3.85,0.56-5.51,0.55c-1.12-0.01-2.42-0.07-3.66-0.29v-9.56c0.61-0.2,1.24,0.01,1.79,0.4c0.49-0.91,1.46-1.37,2.42-1.19
		c0.02-0.01,0.04-0.03,0.06-0.05c2.05-1.62,4.39-0.96,6.69-0.48c3.53,0.74,6.7-1.16,10.18-0.56c1.97,0.34,3.28,1.08,5.34,0.56
		c1.43-0.36,2.27-0.72,3.77-0.5c1.98,0.29,3.61,1.12,5.67,1.18c1.62,0.04,3.23-0.21,4.86-0.17c1.8,0.04,3.53,0.59,5.32,0.67
		c1.88,0.08,3.26-0.69,5.02-1.1c3.49-0.8,6.78,1.23,10.38,0.45c0.57-0.13,1.05,0.04,1.38,0.36c1.24-0.97,2.68-1.72,4.28-1.51
		c1.11,0.14,2.05,0.75,3.09,1.11c2,0.7,3.58,0.67,5.56-0.08c2.17-0.81,4.16-1.92,6.54-1.18c2.03,0.63,3.26,2.6,5.21,3.27
		c1.98,0.68,5.58-1.68,7.88-1.79c3.24-0.14,6.48-0.03,9.72-0.23c3.34-0.2,6.63-0.64,9.96-0.99c2.02-0.21,3.74-0.02,5.31,1.33
		c0.06,0.06,0.1,0.11,0.15,0.17c1.19,0.12,2.06-0.35,3.39-0.77c1.57-0.5,3.58-0.39,5.23-0.35c1.64,0.04,3.29,0.23,4.86,0.7
		c2.37,0.7,3.82,1.15,6.3,0.38c1.49-0.46,2.71-0.46,4.21-0.02c2.25,0.67,3.71,0.1,6-0.25c1.69-0.26,3.38-0.2,5.07-0.17
		C155.63,11.63,156.03,11.62,156.42,11.6z"/>
	<path class="st3" d="M156.42,10.61v2.51c-1.21,0.2-2.41,0.25-3.67,0.07c-1.14-0.17-2.41-0.68-3.58-0.43
		c-0.85,0.18-1.52,0.77-2.35,0.99c-1.13,0.29-2.04,0.36-3.16-0.06c-1.3-0.5-1.27-0.88-2.81-0.7c-1.16,0.13-1.72,0.53-2.75,0.9
		c-2.55,0.92-4.78-0.35-7.08-1.38c-2.25-1.02-3.17-1.02-5.43-0.02c-1.16,0.51-2.25,0.98-3.56,0.96c-1.78-0.03-2.96-1.23-4.61-1.49
		c-1.39-0.22-2.68,0.89-4.09,0.96c-1.84,0.08-3.71-0.48-5.55-0.53c-2.6-0.09-5.05,0.41-7.6,0.82c-1.7,0.28-3.23,0.24-4.88-0.19
		c-1.28-0.34-1.49-0.6-2.9-0.07c-1.29,0.48-1.51,0.95-2.54,1.72c-1.59,1.19-3.48,1.59-5.02,0.25c-0.13-0.06-0.26-0.16-0.37-0.29
		c-0.95-1.09-1.95-2.37-3.27-3.06c-2.32-1.22-3.2-0.05-5.04,1.07c-1.22,0.75-2.13,1.43-3.61,1.24c-1.46-0.19-2.6-1.1-3.82-1.84
		c-2.6-1.56-3.6-0.65-5.88,0.89c-2.98,2.02-4.82,1-7.64-0.69c-2.43-1.45-3.84-0.08-6.03,0.83c-1.88,0.78-3.69,0.77-5.67,0.46
		c-2.86-0.45-5.21-0.69-8.09-0.48c-1.86,0.13-3.71,0.23-5.5-0.43c-1.51-0.56-2.17-1.49-4.14-0.88c-0.56,0.18-1.14,0.88-1.74,1.1
		c-1.22,0.43-2.48,0.26-3.71-0.02c-1.04-0.23-2.04-0.7-3.1-0.84c-1.64-0.22-2.22,0.3-3.61,0.83c-1.54,0.59-2.62,0.7-4.17,0.17
		c-0.78-0.27-1.61-1.01-2.43-1.15c-1.68-0.26-1.87,0.67-3,1.19c-1.27,0.58-2.93,0.5-4.47,0.4v-2.46c0.91,0.04,1.83,0.07,2.65-0.08
		C3.47,10.62,3.9,9.78,5.02,9.4c1.39-0.48,2.49,0.07,3.8,0.51c1.68,0.56,2.6,1.14,4.33,0.39c0.87-0.38,1.6-0.75,2.56-0.85
		c1.58-0.17,3.02,0.37,4.53,0.76c1.94,0.5,2.74,0.13,4.49-0.78c0.42-0.22,0.81-0.56,1.29-0.68c1.7-0.44,2.85,0.7,4.26,1.34
		c2.65,1.17,5.45,0.26,8.2,0.26c2.8,0.01,5.66,1.32,8.42,0.8c2.03-0.39,3.59-1.98,5.66-2.22c1.61-0.19,2.92,0.55,4.23,1.39
		c0.89,0.57,2.1,1.51,3.25,1.34c1.01-0.15,1.99-1.24,2.77-1.79c1.18-0.84,2.4-1.48,3.9-1.34c1.49,0.14,2.68,1.02,3.9,1.78
		c1.61,1,2.86,1.3,4.45,0.01c0.5-0.41,0.98-0.89,1.56-1.21c3.76-2.02,7.24,1.06,9.55,3.71c0.09,0.06,0.17,0.11,0.24,0.19
		c1.24,1.2,3.47-2.02,4.53-2.57c0.8-0.41,1.64-0.55,2.52-0.48c1.83,0.14,3.38,1.07,5.27,0.96c2.07-0.11,4.13-0.79,6.22-0.95
		c1.76-0.13,3.52-0.09,5.27,0.12c0.83,0.1,1.84,0.4,2.69,0.36c1.42-0.06,1.72-0.74,2.84-0.96c3.32-0.66,5.5,2.48,8.93,0.67
		c2.09-1.1,3.71-1.37,5.99-0.51c1.43,0.55,2.75,1.48,4.23,1.88c1.87,0.5,2.9-0.45,4.49-1.07c1.01-0.39,1.9-0.51,2.96-0.22
		c0.62,0.18,1.12,0.69,1.7,0.88c1.38,0.45,2.26,0.11,3.54-0.38C150.52,9.63,153.37,11.01,156.42,10.61z"/>
	<path class="st3" d="M156.42,91.26v2.52c-0.31,0.04-0.64,0.06-0.97,0.05c-0.53-0.01-1.49-0.36-2.14-0.45
		c0.09,0.26-0.83,1.16-1.18,1.36c-0.75,0.43-1.63,0.39-2.41,0.13c-0.64-0.22-1.07-0.59-1.6-0.98c-1.49-1.08-1.72-0.74-3.23,0.05
		c-1.24,0.64-2.36,1.35-3.84,1.23c-1.34-0.12-1.75-0.83-2.78-1.48c-3.22-2.02-4.34-0.66-7.41,0.41c-1.23,0.42-2.21,0.63-3.44,0.13
		c-1.7-0.69-2.31-2.6-4.21-1.04c-0.86,0.7-1.32,1.73-2.43,2.16c-2.8,1.07-4.94-2.34-7.48-2.84c-2.54-0.5-5.17-0.34-7.33,1
		c-1.4,0.88-2.76,1.31-4.42,1.56c-1.34,0.2-2.54,0.27-3.8-0.31c-1.37-0.62-3.1-3.18-4.72-2.6c-0.04,0.05-0.07,0.1-0.12,0.15
		l-2.25,2.38c-0.28,0.3-0.8,0.45-1.19,0.31c-2.32-0.83-4.27-3.22-6.85-2.7c-1.67,0.34-3.13,1.62-4.72,2.21
		c-1.49,0.55-2.62,0.48-4.09,0.08c-1.6-0.43-2.75-0.87-4.45-0.46c-0.72,0.17-1.3,0.45-2.06,0.42c-3.12-0.09-5.53-4.72-8.64-3.42
		c-2.75,1.15-4.45,5.21-8.07,3.5c-0.98-0.47-1.4-1.61-2.28-2.1c-1-0.56-1.64,0.12-2.49,0.13c-1.4,0.02-1.67-0.17-3.04,0.42
		c-0.91,0.4-1.61,0.53-2.57,0.14c-0.78-0.31-1.34-1.1-2.1-1.38C36.62,91.31,35.62,92,34.53,93c-2.27,2.08-4.5,3.41-7.43,1.57
		c-1.96-1.23-3.14-3.79-5.5-4.24c-2.29-0.44-2.95,1.51-4.5,2.85c-2.98,2.57-4.91-0.33-8.12-0.42c-3.27-0.09-6.22,1.48-9.41,0.67
		v-2.56c3.97,1.39,8.09-1.58,12.13-0.04c1.43,0.55,2.08,1.6,3.91,0.4c0.66-0.42,1.13-1.31,1.69-1.87c0.99-0.99,2.06-1.76,3.51-1.84
		c1.51-0.08,2.87,0.72,4.01,1.64c0.63,0.51,1.16,1.11,1.73,1.69c1.27,1.3,1.78,1.9,3.72,1.58c3.19-0.53,4.98-4.84,8.74-2.91
		c0.75,0.39,1.39,1.34,2.27,1.28c0.68-0.04,0.8-0.54,1.38-0.77c1.27-0.49,1.61,0.2,2.79,0.12c0.48-0.03,1.04-0.57,1.64-0.61
		c0.67-0.05,1.15,0.06,1.78,0.39c0.57,0.3,0.94,0.87,1.45,1.21c2.35,1.57,3.93,0.35,5.51-1c2.1-1.78,4.31-2.32,6.78-0.9
		c1.29,0.74,2.44,2.23,3.9,2.61c1.86,0.48,3.38-1.15,5.25-0.94c2.03,0.22,3.1,2.02,5.31,1.24c1.46-0.51,2.73-1.47,4.18-2
		c3.55-1.3,5.27,0.93,8.18,2.2c0.51-0.53,1.01-1.07,1.51-1.6c0.09-0.22,0.25-0.42,0.5-0.58c1.12-0.72,2.16-0.83,3.42-0.38
		c1.51,0.54,2.32,2.11,3.74,2.66c2.88,1.11,4.89-0.88,7.19-1.94c1.27-0.58,2.54-0.64,3.93-0.67c1.7-0.04,3.49,0,5.13,0.48
		c1.43,0.42,2.36,1.52,3.63,2.1c2.33,1.07,2.29-0.75,3.84-1.82c0.81-0.56,1.59-0.85,2.58-0.69c1.27,0.2,1.88,1.29,2.97,1.75
		c1.78,0.75,4.96-1.23,6.78-1.57c1.1-0.21,2.25-0.35,3.31,0.08c0.81,0.34,0.93,0.74,1.61,1.24c2.22,1.64,2.87,1.1,4.44,0.1
		c1.04-0.66,1.8-1.26,3.11-1.01c0.97,0.18,2.7,2.07,3.46,1.94c0.57-0.1,0.7-1.29,1.71-1.54c0.41-0.1,0.75,0.09,1.16,0.11
		C154.54,91.09,155.41,91.31,156.42,91.26z"/>
	<path class="st4" d="M156.42,35.7v3.43c-4.32-0.56-7.88,0.21-12.15,1.6c-2.91,0.96-5.61,1.29-8.63,0.67
		c-3.39-0.7-6.65-2.49-10.16-2.42c-3.3,0.07-6.27,1.87-9.5,2.38c-3.47,0.54-6.33-0.72-9.65-1.46c-3.96-0.87-7.55,0.48-11.43,1.1
		c-3.5,0.55-6.35-0.12-9.67-1.13c-4.18-1.26-7.71-0.64-11.74,0.67c-0.16,0.12-0.34,0.22-0.57,0.29c-3.05,0.89-6.13,1.64-9.3,0.89
		c-3.53-0.84-5.97-2.3-9.73-1.3c-2.62,0.69-5.15,1.66-7.9,1.35c-3.47-0.38-6.51-1.65-10.1-1.26c-2,0.22-3.9,1.06-5.84,1.61
		c-0.32,0.1-0.66,0.18-0.98,0.25c-1.02,0.23-2.06,0.32-3.13,0.16c-3.92-0.59-6.93-3.09-11.11-2.02c-2.49,0.64-4.8,1.89-7.41,1.03
		c-0.88-0.29-1.65-0.69-2.39-1.1c-0.8-0.36-1.59-0.73-2.46-0.97c-0.99-0.28-1.98-0.28-2.98-0.26v-3.49
		c1.72-0.14,3.54,0.26,5.04,0.89c2.2,0.92,3.87,1.66,6.31,1.64c0.5-0.01,0.88-0.02,1.22,0c0.93-0.32,1.84-0.7,2.8-0.89
		c3.05-0.63,6.05,0.23,8.93,1.18c2.26,0.74,3.93,0.74,6.17,0.04c1.62-0.51,3.15-1.04,4.83-1.29c3.11-0.44,6.03-0.12,9.06,0.61
		c3.76,0.9,6.35-0.18,9.96-0.99c2.61-0.59,4.91-0.39,7.44,0.47c3.85,1.31,6.71,1.3,10.65,0.14c0.44-0.13,0.82-0.09,1.15,0.06
		c2.82-1.62,6.27-2.14,9.47-1.76c3.93,0.47,7.31,2.41,11.36,1.84c3.62-0.5,7.09-1.89,10.81-1.57c3.91,0.34,7.41,2.57,11.42,1.64
		c3.28-0.76,6.31-2.39,9.76-2.3c3.39,0.09,6.48,1.53,9.73,2.32c4.33,1.06,7.43-0.75,11.52-1.65
		C150.25,35.39,153.35,35.28,156.42,35.7z"/>
	<path class="st4" d="M156.42,65.51v3.46c-2.46,0.06-4.94,0.47-7.37,0.01c-3.23-0.61-5.78-3.11-9.21-2.66
		c-3.17,0.41-4.89,3.39-7.98,3.9c-3.12,0.5-5.83-1.21-8.65-2.2c-4.14-1.45-6.62,0.18-10.48,1.18c-2.7,0.7-5.2,0.14-7.82-0.61
		c-1.62-0.46-3.48-1.17-5.2-0.83c-1.19,0.23-2.24,1.02-3.38,1.44c-2.22,0.8-4.67,0.86-7,0.4c-0.25,0.15-0.55,0.26-0.91,0.26
		c-4.55,0.09-8.9-0.53-13.31-1.64c-2.6-0.65-4.54-0.82-7.12,0.04c-1.84,0.62-3.53,1.19-5.47,1.38c-3.99,0.4-7.95-0.53-11.93-0.65
		c-2.3-0.07-4.37,0.21-6.5,1.07c-1.62,0.65-3.11,1.33-4.88,1.4c-3.68,0.15-6.81-1.87-10.25-2.82c-4.08-1.13-7.64,1.21-11.7,0.81
		c-4.03-0.39-7.11-2.86-11.2-1.35c-2.18,0.81-4.31,0.97-6.48,0.83v-3.47c1.45,0.14,2.89,0.1,4.33-0.32
		c1.38-0.41,2.55-1.11,4.02-1.26c4.09-0.4,7.67,2.56,11.74,1.92c3.66-0.58,6.52-1.71,10.24-0.66c3.45,0.97,6.89,3.39,10.59,2.44
		c1.98-0.51,3.65-1.58,5.7-1.94c1.78-0.32,3.57-0.35,5.37-0.24c3.93,0.23,7.99,1.22,11.92,0.45c2.1-0.42,4.01-1.46,6.13-1.8
		c1.66-0.26,3.33-0.05,4.97,0.29c4.67,0.97,9,1.95,13.82,1.86c0.47-0.01,0.85,0.13,1.13,0.37c1.45-0.03,2.92,0.02,4.33-0.31
		c1.47-0.36,2.63-1.23,4.03-1.73c2.36-0.84,4.74-0.39,7.08,0.26c1.61,0.44,3.25,1.1,4.94,1.11c1.63,0.02,3.11-0.66,4.6-1.24
		c2.71-1.05,5.2-1.4,8.06-0.69c1.7,0.43,3.27,1.2,4.91,1.83c0.86,0.32,1.67,0.65,2.59,0.74c1.6,0.14,2.66-0.78,3.89-1.62
		c2.14-1.48,4.39-2.42,7.05-2.36c2.8,0.06,4.75,1.46,7.27,2.39C150.84,65.9,153.66,65.61,156.42,65.51z"/>
	<path class="st5" d="M67.91,50.45L67.91,50.45c0.04,0.06,0.07,0.12,0.09,0.18c0.02,0.03,0.03,0.06,0.04,0.1
		c0.02,0.05,0.03,0.1,0.04,0.15c0.02,0.16,0.01,0.32-0.04,0.48c-0.02,0.04-0.04,0.09-0.06,0.13c-0.02,0.04-0.04,0.09-0.07,0.12
		c-0.05,0.07-0.11,0.14-0.18,0.2c0.65-0.02,1.29-0.04,1.94-0.06c0.65-0.02,1.3-0.04,1.95-0.06c0.65-0.02,1.3-0.03,1.95-0.04
		c0.65-0.02,1.29-0.02,1.94-0.03c-0.02-0.15-0.02-0.3,0.01-0.45c0.01-0.07,0.03-0.15,0.06-0.21c0.06-0.15,0.13-0.3,0.24-0.42
		c0-0.01,0.01-0.01,0.01-0.01C73.18,50.49,70.55,50.46,67.91,50.45z M67.91,50.45L67.91,50.45c0.04,0.06,0.07,0.12,0.09,0.18
		c0.02,0.03,0.03,0.06,0.04,0.1c0.02,0.05,0.03,0.1,0.04,0.15c0.02,0.16,0.01,0.32-0.04,0.48c-0.02,0.04-0.04,0.09-0.06,0.13
		c-0.02,0.04-0.04,0.09-0.07,0.12c-0.05,0.07-0.11,0.14-0.18,0.2c0.65-0.02,1.29-0.04,1.94-0.06c0.65-0.02,1.3-0.04,1.95-0.06
		c0.65-0.02,1.3-0.03,1.95-0.04c0.65-0.02,1.29-0.02,1.94-0.03c-0.02-0.15-0.02-0.3,0.01-0.45c0.01-0.07,0.03-0.15,0.06-0.21
		c0.06-0.15,0.13-0.3,0.24-0.42c0-0.01,0.01-0.01,0.01-0.01C73.18,50.49,70.55,50.46,67.91,50.45z M67.91,50.45L67.91,50.45
		c0.04,0.06,0.07,0.12,0.09,0.18c0.02,0.03,0.03,0.06,0.04,0.1c0.02,0.05,0.03,0.1,0.04,0.15c0.02,0.16,0.01,0.32-0.04,0.48
		c-0.02,0.04-0.04,0.09-0.06,0.13c-0.02,0.04-0.04,0.09-0.07,0.12c-0.05,0.07-0.11,0.14-0.18,0.2c0.65-0.02,1.29-0.04,1.94-0.06
		c0.65-0.02,1.3-0.04,1.95-0.06c0.65-0.02,1.3-0.03,1.95-0.04c0.65-0.02,1.29-0.02,1.94-0.03c-0.02-0.15-0.02-0.3,0.01-0.45
		c0.01-0.07,0.03-0.15,0.06-0.21c0.06-0.15,0.13-0.3,0.24-0.42c0-0.01,0.01-0.01,0.01-0.01C73.18,50.49,70.55,50.46,67.91,50.45z
		 M67.91,50.45L67.91,50.45c0.04,0.06,0.07,0.12,0.09,0.18c0.02,0.03,0.03,0.06,0.04,0.1c0.02,0.05,0.03,0.1,0.04,0.15
		c0.02,0.16,0.01,0.32-0.04,0.48c-0.02,0.04-0.04,0.09-0.06,0.13c-0.02,0.04-0.04,0.09-0.07,0.12c-0.05,0.07-0.11,0.14-0.18,0.2
		c0.65-0.02,1.29-0.04,1.94-0.06c0.65-0.02,1.3-0.04,1.95-0.06c0.65-0.02,1.3-0.03,1.95-0.04c0.65-0.02,1.29-0.02,1.94-0.03
		c-0.02-0.15-0.02-0.3,0.01-0.45c0.01-0.07,0.03-0.15,0.06-0.21c0.06-0.15,0.13-0.3,0.24-0.42c0-0.01,0.01-0.01,0.01-0.01
		C73.18,50.49,70.55,50.46,67.91,50.45z M67.91,50.45L67.91,50.45c0.04,0.06,0.07,0.12,0.09,0.18c0.02,0.03,0.03,0.06,0.04,0.1
		c0.02,0.05,0.03,0.1,0.04,0.15c0.02,0.16,0.01,0.32-0.04,0.48c-0.02,0.04-0.04,0.09-0.06,0.13c-0.02,0.04-0.04,0.09-0.07,0.12
		c-0.05,0.07-0.11,0.14-0.18,0.2c0.65-0.02,1.29-0.04,1.94-0.06c0.65-0.02,1.3-0.04,1.95-0.06c0.65-0.02,1.3-0.03,1.95-0.04
		c0.65-0.02,1.29-0.02,1.94-0.03c-0.02-0.15-0.02-0.3,0.01-0.45c0.01-0.07,0.03-0.15,0.06-0.21c0.06-0.15,0.13-0.3,0.24-0.42
		c0-0.01,0.01-0.01,0.01-0.01C73.18,50.49,70.55,50.46,67.91,50.45z M67.91,50.45L67.91,50.45c0.04,0.06,0.07,0.12,0.09,0.18
		c0.02,0.03,0.03,0.06,0.04,0.1c0.02,0.05,0.03,0.1,0.04,0.15c0.02,0.16,0.01,0.32-0.04,0.48c-0.02,0.04-0.04,0.09-0.06,0.13
		c-0.02,0.04-0.04,0.09-0.07,0.12c-0.05,0.07-0.11,0.14-0.18,0.2c0.65-0.02,1.29-0.04,1.94-0.06c0.65-0.02,1.3-0.04,1.95-0.06
		c0.65-0.02,1.3-0.03,1.95-0.04c0.65-0.02,1.29-0.02,1.94-0.03c-0.02-0.15-0.02-0.3,0.01-0.45c0.01-0.07,0.03-0.15,0.06-0.21
		c0.06-0.15,0.13-0.3,0.24-0.42c0-0.01,0.01-0.01,0.01-0.01C73.18,50.49,70.55,50.46,67.91,50.45z M67.91,50.45L67.91,50.45
		c0.04,0.06,0.07,0.12,0.09,0.18c0.02,0.03,0.03,0.06,0.04,0.1c0.02,0.05,0.03,0.1,0.04,0.15c0.02,0.16,0.01,0.32-0.04,0.48
		c-0.02,0.04-0.04,0.09-0.06,0.13c-0.02,0.04-0.04,0.09-0.07,0.12c-0.05,0.07-0.11,0.14-0.18,0.2c0.65-0.02,1.29-0.04,1.94-0.06
		c0.65-0.02,1.3-0.04,1.95-0.06c0.65-0.02,1.3-0.03,1.95-0.04c0.65-0.02,1.29-0.02,1.94-0.03c-0.02-0.15-0.02-0.3,0.01-0.45
		c0.01-0.07,0.03-0.15,0.06-0.21c0.06-0.15,0.13-0.3,0.24-0.42c0-0.01,0.01-0.01,0.01-0.01C73.18,50.49,70.55,50.46,67.91,50.45z
		 M67.91,50.45L67.91,50.45c0.04,0.06,0.07,0.12,0.09,0.18c0.02,0.03,0.03,0.06,0.04,0.1c0.02,0.05,0.03,0.1,0.04,0.15
		c0.02,0.16,0.01,0.32-0.04,0.48c-0.02,0.04-0.04,0.09-0.06,0.13c-0.02,0.04-0.04,0.09-0.07,0.12c-0.05,0.07-0.11,0.14-0.18,0.2
		c0.65-0.02,1.29-0.04,1.94-0.06c0.65-0.02,1.3-0.04,1.95-0.06c0.65-0.02,1.3-0.03,1.95-0.04c0.65-0.02,1.29-0.02,1.94-0.03
		c-0.02-0.15-0.02-0.3,0.01-0.45c0.01-0.07,0.03-0.15,0.06-0.21c0.06-0.15,0.13-0.3,0.24-0.42c0-0.01,0.01-0.01,0.01-0.01
		C73.18,50.49,70.55,50.46,67.91,50.45z M67.91,50.45L67.91,50.45c0.04,0.06,0.07,0.12,0.09,0.18c0.02,0.03,0.03,0.06,0.04,0.1
		c0.02,0.05,0.03,0.1,0.04,0.15c0.02,0.16,0.01,0.32-0.04,0.48c-0.02,0.04-0.04,0.09-0.06,0.13c-0.02,0.04-0.04,0.09-0.07,0.12
		c-0.05,0.07-0.11,0.14-0.18,0.2c0.65-0.02,1.29-0.04,1.94-0.06c0.65-0.02,1.3-0.04,1.95-0.06c0.65-0.02,1.3-0.03,1.95-0.04
		c0.65-0.02,1.29-0.02,1.94-0.03c-0.02-0.15-0.02-0.3,0.01-0.45c0.01-0.07,0.03-0.15,0.06-0.21c0.06-0.15,0.13-0.3,0.24-0.42
		c0-0.01,0.01-0.01,0.01-0.01C73.18,50.49,70.55,50.46,67.91,50.45z M67.91,50.45L67.91,50.45c0.04,0.06,0.07,0.12,0.09,0.18
		c0.02,0.03,0.03,0.06,0.04,0.1c0.02,0.05,0.03,0.1,0.04,0.15c0.02,0.16,0.01,0.32-0.04,0.48c-0.02,0.04-0.04,0.09-0.06,0.13
		c-0.02,0.04-0.04,0.09-0.07,0.12c-0.05,0.07-0.11,0.14-0.18,0.2c0.65-0.02,1.29-0.04,1.94-0.06c0.65-0.02,1.3-0.04,1.95-0.06
		c0.65-0.02,1.3-0.03,1.95-0.04c0.65-0.02,1.29-0.02,1.94-0.03c-0.02-0.15-0.02-0.3,0.01-0.45c0.01-0.07,0.03-0.15,0.06-0.21
		c0.06-0.15,0.13-0.3,0.24-0.42c0-0.01,0.01-0.01,0.01-0.01C73.18,50.49,70.55,50.46,67.91,50.45z M67.91,50.45L67.91,50.45
		c0.04,0.06,0.07,0.12,0.09,0.18c0.02,0.03,0.03,0.06,0.04,0.1c0.02,0.05,0.03,0.1,0.04,0.15c0.02,0.16,0.01,0.32-0.04,0.48
		c-0.02,0.04-0.04,0.09-0.06,0.13c-0.02,0.04-0.04,0.09-0.07,0.12c-0.05,0.07-0.11,0.14-0.18,0.2c0.65-0.02,1.29-0.04,1.94-0.06
		c0.65-0.02,1.3-0.04,1.95-0.06c0.65-0.02,1.3-0.03,1.95-0.04c0.65-0.02,1.29-0.02,1.94-0.03c-0.02-0.15-0.02-0.3,0.01-0.45
		c0.01-0.07,0.03-0.15,0.06-0.21c0.06-0.15,0.13-0.3,0.24-0.42c0-0.01,0.01-0.01,0.01-0.01C73.18,50.49,70.55,50.46,67.91,50.45z
		 M67.91,50.45L67.91,50.45c0.04,0.06,0.07,0.12,0.09,0.18c0.02,0.03,0.03,0.06,0.04,0.1c0.02,0.05,0.03,0.1,0.04,0.15
		c0.02,0.16,0.01,0.32-0.04,0.48c-0.02,0.04-0.04,0.09-0.06,0.13c-0.02,0.04-0.04,0.09-0.07,0.12c-0.05,0.07-0.11,0.14-0.18,0.2
		c0.65-0.02,1.29-0.04,1.94-0.06c0.65-0.02,1.3-0.04,1.95-0.06c0.65-0.02,1.3-0.03,1.95-0.04c0.65-0.02,1.29-0.02,1.94-0.03
		c-0.02-0.15-0.02-0.3,0.01-0.45c0.01-0.07,0.03-0.15,0.06-0.21c0.06-0.15,0.13-0.3,0.24-0.42c0-0.01,0.01-0.01,0.01-0.01
		C73.18,50.49,70.55,50.46,67.91,50.45z M67.91,50.45L67.91,50.45c0.04,0.06,0.07,0.12,0.09,0.18c0.02,0.03,0.03,0.06,0.04,0.1
		c0.02,0.05,0.03,0.1,0.04,0.15c0.02,0.16,0.01,0.32-0.04,0.48c-0.02,0.04-0.04,0.09-0.06,0.13c-0.02,0.04-0.04,0.09-0.07,0.12
		c-0.05,0.07-0.11,0.14-0.18,0.2c0.65-0.02,1.29-0.04,1.94-0.06c0.65-0.02,1.3-0.04,1.95-0.06c0.65-0.02,1.3-0.03,1.95-0.04
		c0.65-0.02,1.29-0.02,1.94-0.03c-0.02-0.15-0.02-0.3,0.01-0.45c0.01-0.07,0.03-0.15,0.06-0.21c0.06-0.15,0.13-0.3,0.24-0.42
		c0-0.01,0.01-0.01,0.01-0.01C73.18,50.49,70.55,50.46,67.91,50.45z M67.91,50.45L67.91,50.45c0.04,0.06,0.07,0.12,0.09,0.18
		c0.02,0.03,0.03,0.06,0.04,0.1c0.02,0.05,0.03,0.1,0.04,0.15c0.02,0.16,0.01,0.32-0.04,0.48c-0.02,0.04-0.04,0.09-0.06,0.13
		c-0.02,0.04-0.04,0.09-0.07,0.12c-0.05,0.07-0.11,0.14-0.18,0.2c0.65-0.02,1.29-0.04,1.94-0.06c0.65-0.02,1.3-0.04,1.95-0.06
		c0.65-0.02,1.3-0.03,1.95-0.04c0.65-0.02,1.29-0.02,1.94-0.03c-0.02-0.15-0.02-0.3,0.01-0.45c0.01-0.07,0.03-0.15,0.06-0.21
		c0.06-0.15,0.13-0.3,0.24-0.42c0-0.01,0.01-0.01,0.01-0.01C73.18,50.49,70.55,50.46,67.91,50.45z M67.91,50.45L67.91,50.45
		c0.04,0.06,0.07,0.12,0.09,0.18c0.02,0.03,0.03,0.06,0.04,0.1c0.02,0.05,0.03,0.1,0.04,0.15c0.02,0.16,0.01,0.32-0.04,0.48
		c-0.02,0.04-0.04,0.09-0.06,0.13c-0.02,0.04-0.04,0.09-0.07,0.12c-0.05,0.07-0.11,0.14-0.18,0.2c0.65-0.02,1.29-0.04,1.94-0.06
		c0.65-0.02,1.3-0.04,1.95-0.06c0.65-0.02,1.3-0.03,1.95-0.04c0.65-0.02,1.29-0.02,1.94-0.03c-0.02-0.15-0.02-0.3,0.01-0.45
		c0.01-0.07,0.03-0.15,0.06-0.21c0.06-0.15,0.13-0.3,0.24-0.42c0-0.01,0.01-0.01,0.01-0.01C73.18,50.49,70.55,50.46,67.91,50.45z
		 M67.91,50.45L67.91,50.45c0.04,0.06,0.07,0.12,0.09,0.18c0.02,0.03,0.03,0.06,0.04,0.1c0.02,0.05,0.03,0.1,0.04,0.15
		c0.02,0.16,0.01,0.32-0.04,0.48c-0.02,0.04-0.04,0.09-0.06,0.13c-0.02,0.04-0.04,0.09-0.07,0.12c-0.05,0.07-0.11,0.14-0.18,0.2
		c0.65-0.02,1.29-0.04,1.94-0.06c0.65-0.02,1.3-0.04,1.95-0.06c0.65-0.02,1.3-0.03,1.95-0.04c0.65-0.02,1.29-0.02,1.94-0.03
		c-0.02-0.15-0.02-0.3,0.01-0.45c0.01-0.07,0.03-0.15,0.06-0.21c0.06-0.15,0.13-0.3,0.24-0.42c0-0.01,0.01-0.01,0.01-0.01
		C73.18,50.49,70.55,50.46,67.91,50.45z M67.91,50.45L67.91,50.45c0.04,0.06,0.07,0.12,0.09,0.18c0.02,0.03,0.03,0.06,0.04,0.1
		c0.02,0.05,0.03,0.1,0.04,0.15c0.02,0.16,0.01,0.32-0.04,0.48c-0.02,0.04-0.04,0.09-0.06,0.13c-0.02,0.04-0.04,0.09-0.07,0.12
		c-0.05,0.07-0.11,0.14-0.18,0.2c0.65-0.02,1.29-0.04,1.94-0.06c0.65-0.02,1.3-0.04,1.95-0.06c0.65-0.02,1.3-0.03,1.95-0.04
		c0.65-0.02,1.29-0.02,1.94-0.03c-0.02-0.15-0.02-0.3,0.01-0.45c0.01-0.07,0.03-0.15,0.06-0.21c0.06-0.15,0.13-0.3,0.24-0.42
		c0-0.01,0.01-0.01,0.01-0.01C73.18,50.49,70.55,50.46,67.91,50.45z M67.91,50.45L67.91,50.45c0.04,0.06,0.07,0.12,0.09,0.18
		c0.02,0.03,0.03,0.06,0.04,0.1c0.02,0.05,0.03,0.1,0.04,0.15c0.02,0.16,0.01,0.32-0.04,0.48c-0.02,0.04-0.04,0.09-0.06,0.13
		c-0.02,0.04-0.04,0.09-0.07,0.12c-0.05,0.07-0.11,0.14-0.18,0.2c0.65-0.02,1.29-0.04,1.94-0.06c0.65-0.02,1.3-0.04,1.95-0.06
		c0.65-0.02,1.3-0.03,1.95-0.04c0.65-0.02,1.29-0.02,1.94-0.03c-0.02-0.15-0.02-0.3,0.01-0.45c0.01-0.07,0.03-0.15,0.06-0.21
		c0.06-0.15,0.13-0.3,0.24-0.42c0-0.01,0.01-0.01,0.01-0.01C73.18,50.49,70.55,50.46,67.91,50.45z M67.91,50.45L67.91,50.45
		c0.04,0.06,0.07,0.12,0.09,0.18c0.02,0.03,0.03,0.06,0.04,0.1c0.02,0.05,0.03,0.1,0.04,0.15c0.02,0.16,0.01,0.32-0.04,0.48
		c-0.02,0.04-0.04,0.09-0.06,0.13c-0.02,0.04-0.04,0.09-0.07,0.12c-0.05,0.07-0.11,0.14-0.18,0.2c0.65-0.02,1.29-0.04,1.94-0.06
		c0.65-0.02,1.3-0.04,1.95-0.06c0.65-0.02,1.3-0.03,1.95-0.04c0.65-0.02,1.29-0.02,1.94-0.03c-0.02-0.15-0.02-0.3,0.01-0.45
		c0.01-0.07,0.03-0.14,0.06-0.21c0.06-0.15,0.13-0.3,0.24-0.42c0-0.01,0.01-0.01,0.01-0.01C73.18,50.49,70.55,50.46,67.91,50.45z
		 M152.88,43.5c0.25-0.63-0.07-1.5-0.95-1.5c-0.92,0-1.23,0.96-0.91,1.59c-0.22,0.01-0.43,0.02-0.65,0.02
		c-0.27-0.01-0.54-0.02-0.81-0.02c-0.75,0-1.5,0.04-2.24,0.15c-0.26,0.04-0.51,0.09-0.77,0.14c-0.01,0-0.01,0.01-0.01,0.01
		c0.01-0.24-0.13-0.48-0.44-0.47c-3.62,0.13-7.24,0.29-10.85,0.48c-0.4,0.02-0.8,0.04-1.2,0.07c-0.34,0.02-0.67,0.04-1,0.06
		c-0.36,0.02-0.72,0.04-1.07,0.06c0-0.04,0-0.08-0.01-0.12c-0.06-0.17-0.12-0.34-0.18-0.51c-0.17-0.52-1.01-0.46-0.99,0.13
		c0.01,0.18,0.02,0.37,0.08,0.56c-1.15,0.06-2.31,0.12-3.47,0.2c-0.12-0.01-0.23-0.01-0.36-0.02c-0.21-0.01-0.42-0.02-0.62-0.03
		h-0.01c-0.78-0.04-1.57-0.07-2.36-0.09c-0.18-0.15-0.42-0.25-0.72-0.25c-0.28,0-0.51,0.09-0.69,0.21h-0.2
		c-2.73-1.05-5.92-0.78-8.8-0.82c-3.79-0.05-7.57-0.02-11.35,0.12c-1.2,0.04-2.41,0.1-3.61,0.17c0,0,0,0-0.01,0
		c-0.45,0.02-0.9,0.05-1.35,0.08c-2.54,0.15-5.07,0.35-7.59,0.57c-0.51,0.05-1.04,0.09-1.55,0.14c-0.35,0.03-0.69,0.07-1.04,0.1
		c0.11-0.58-0.22-1.26-0.99-1.26c-0.85,0-1.16,0.84-0.94,1.45l-1.47,0.15c-0.04-0.05-0.09-0.09-0.15-0.09
		c-2.23-0.4-4.55-0.47-6.86-0.47c-0.49-0.01-0.98,0-1.47,0.01c-1.29,0.01-2.56,0.02-3.82,0.01c-4.42-0.07-8.84-0.15-13.26-0.22
		c-0.24,0-0.39,0.15-0.44,0.32c-3.15-0.01-6.29,0.03-9.36-0.01c-0.3-0.01-0.39,0.3-0.29,0.5c-0.27-0.05-0.54-0.1-0.81-0.15
		c-0.04-0.02-0.07-0.05-0.12-0.06c-1.11-0.36-2.3-0.58-3.52-0.69c-0.51-0.06-1.04-0.09-1.57-0.1c-1.62-0.07-3.28-0.01-4.89,0.06
		c-0.05-0.39-0.33-0.75-0.84-0.75c-0.54,0-0.81,0.4-0.85,0.81c-0.51,0.02-1.02,0.03-1.52,0.04c-1,0.02-2.01,0.04-3.01,0.07
		c-0.12,0-0.23,0-0.35-0.01c0.58-0.6,0.38-1.83-0.58-2c-0.07-0.01-0.15-0.02-0.23-0.02c-0.31,0-0.56,0.1-0.75,0.26
		c-0.48,0.43-0.51,1.27-0.08,1.75c-0.89-0.01-1.78-0.02-2.68-0.02c-0.01,0-0.01,0-0.01,0c-0.44-0.01-0.88-0.01-1.32-0.02h-0.01
		c-0.32,0-0.64-0.01-0.96-0.01c-0.76-0.01-1.52-0.02-2.27-0.02h-0.02c-0.3,0.01-0.4,0.31-0.31,0.53c-0.56,0.04-1.13,0.07-1.7,0.11
		c-0.61,0.05-0.62,1,0,0.96c0.1,0,0.2-0.01,0.29-0.01c-0.2,0.01-0.4,0.02-0.6,0.04c-0.25,0.02-0.5,0.03-0.75,0.05
		c-0.31,0.02-0.62,0.04-0.94,0.06c-0.32,0.02-0.65,0.04-0.97,0.06c-0.15,0.01-0.25,0.1-0.29,0.2c-0.08,0.19,0.01,0.45,0.26,0.47
		c-0.14,0.01-0.28,0.01-0.42,0.02c-1.56,0.06-3.12,0.13-4.67,0.2c-0.64,0.02-1.28,0.05-1.92,0.08c-0.17,0-0.32,0.01-0.49,0.02
		c-0.2,0.01-0.41,0.02-0.61,0.02c0.18-0.09,0.32-0.21,0.44-0.38h0.31c0,0,0,0,0.01-0.01c0.17,0,0.34,0,0.51-0.01
		c0.54-0.01,1.07-0.03,1.61-0.07c0.83-0.05,1.65-0.13,2.46-0.25c0.22-0.03,0.39-0.12,0.5-0.25c0.04-0.04,0.07-0.07,0.09-0.12
		c0.54-0.06,1.07-0.17,1.59-0.37c0.08-0.02,0.16-0.06,0.24-0.09c0.3-0.13,0.35-0.42,0.26-0.68c0.55,0.02,1.08,0.05,1.62,0.07h0.01
		c0.12,0.01,0.25,0.01,0.37,0.02c0.38,0.02,0.69-0.47,0.46-0.8c-0.68-0.97-1.94-0.93-3.09-0.92c0.09-0.06,0.17-0.12,0.23-0.19
		c0.44-0.29,0.45-0.94-0.02-1.27c-0.04-0.04-0.09-0.07-0.1-0.08c-0.13-0.08-0.3-0.12-0.46-0.11c-0.28,0.01-0.5,0.11-0.7,0.3
		c-0.31,0.29-0.32,0.81-0.07,1.13c0.06,0.08,0.14,0.15,0.23,0.2c-2.24-0.07-4.47-0.05-6.71,0.04c-0.2,0.01-0.35,0.08-0.45,0.19
		c-0.81,0.01-1.62,0.01-2.4-0.04c-0.04-0.18-0.17-0.34-0.41-0.32c-0.42,0.02-0.52,0.02-0.73,0.08c-0.18-0.43-0.58-0.78-1.17-0.83
		c-0.97-0.08-1.92-0.04-2.88,0.1c-0.24,0.04-0.49,0.06-0.74,0.08v19.32c0.74,0.01,1.49,0.04,2.23,0.02
		c1.38-0.02,2.93,0.23,4.15-0.47c1.38,0.25,2.81,0.29,4.23,0.26c0.8-0.01,1.59-0.04,2.38-0.07c0.66-0.03,1.3-0.06,1.95-0.07
		c0.25-0.01,0.49-0.01,0.74-0.01c0.12,0.09,0.26,0.15,0.45,0.15c0.2,0,0.35-0.06,0.47-0.16c1.62-0.01,3.3-0.01,4.93-0.14
		c0.97-0.08,1.93-0.21,2.85-0.41c0.34-0.08,0.67-0.16,0.99-0.26c3.4,0.12,6.79,0.24,10.19,0.34c0.7,0.02,1.41,0.05,2.11,0.06h0.01
		c0.3,0.01,0.6,0.02,0.9,0.03c4.06,0.11,8.53,0.68,12.79,0.51c0.77-0.03,1.53-0.08,2.29-0.17c0.86-0.09,1.7-0.23,2.53-0.42
		c0.31-0.07,0.4-0.41,0.29-0.66c2.55,0.06,5.1,0.12,7.65,0.18c0.1,0.21,0.3,0.38,0.61,0.37c1.87-0.07,3.74-0.14,5.61-0.21
		c0.55,0.01,1.08,0.02,1.63,0.04c5.7,0.13,12.2,0.83,17.8-0.46c0.13,0.03,0.26,0.06,0.39,0.08c0.63,0.15,1.28,0.26,1.94,0.34
		c1.36,0.18,2.76,0.27,4.17,0.29c0.05,0.45,0.36,0.86,0.94,0.86c0.58,0,0.89-0.42,0.94-0.86c0.1,0,0.21-0.01,0.32-0.01h0.01
		c0.67-0.01,1.34-0.04,2.02-0.07c1.05-0.05,2.1-0.12,3.14-0.19c0.09,0.4,0.4,0.75,0.94,0.75c0.59,0,0.91-0.42,0.96-0.88
		c1.03-0.07,2.03-0.14,3.02-0.19c0.01,0,0.01,0,0.01,0c0.18-0.01,0.31-0.09,0.39-0.2c0.13,0,0.26,0,0.39-0.01h0.01
		c3.36,0.19,6.71,0.29,10.07,0.32c0.46,0.01,0.91,0.01,1.37,0.01c1.22,0.01,2.44,0,3.68-0.02c0.15,0,0.31,0,0.46-0.01
		c0.31,0,0.63-0.01,0.94-0.01c0.78-0.02,1.56-0.03,2.34-0.06c0.23-0.01,0.45-0.01,0.67-0.02c0.43-0.01,0.56-0.45,0.42-0.74
		c0.1-0.01,0.2-0.01,0.3-0.01c-0.52,0.82-0.15,2.21,1.12,2.21c1.31,0,1.67-1.47,1.07-2.28h0.02c0.05,0.06,0.12,0.11,0.21,0.13
		c1.91,0.32,3.84,0.4,5.77,0.39c3.22,0.62,6.59,0.83,9.94,0.89c0.56,0.01,1.12,0.01,1.68,0.02c0.8,0,1.59,0,2.37-0.01
		c0.61,0,1.21-0.01,1.81-0.02h0.16c0.59-0.01,1.17-0.02,1.76-0.02h0.01c0.45-0.01,0.89,0.47,1.33,0.47V42.81
		C155.22,42.8,154.05,43.4,152.88,43.5z M89.52,55.48c-0.72-0.11-1.44-0.19-2.16-0.25c0.67-0.07,1.33-0.17,1.99-0.26
		c0.07,0.24,0.27,0.43,0.59,0.43c7.01-0.05,14.02-0.08,21.02-0.05c1.43,0.01,2.85,0.01,4.27,0.02c-1.8,0.06-3.6,0.11-5.39,0.18
		c-6.63,0.23-13.26,0.59-19.89,0.88C90.14,56.05,90.08,55.56,89.52,55.48z M15.28,51.21c-1.74,0.08-3.49,0.17-5.23,0.26
		c-0.09-0.38-0.32-0.72-0.69-0.89c-0.02-0.12-0.06-0.25-0.12-0.36c0.06-0.03,0.1-0.07,0.15-0.11c1.91-0.06,3.82-0.11,5.73-0.2
		C14.98,50.35,15.03,50.85,15.28,51.21z M131.9,55.18c0.64-0.01,1.27-0.02,1.91-0.04c-0.39,0.04-0.78,0.09-1.16,0.15
		C132.4,55.25,132.14,55.22,131.9,55.18z M129.29,53.76c-1.92-0.29-3.95-0.23-5.92-0.18c0.28-0.06,0.56-0.11,0.83-0.18
		c0.09-0.02,0.15-0.06,0.21-0.11c1.64,0.01,3.28,0.02,4.93,0.05C129.27,53.46,129.26,53.61,129.29,53.76z M66.24,55.29
		c-0.49,0.02-0.99,0.02-1.48,0.04c-5.51,0.17-11.01,0.48-16.5,0.83c-0.02-0.02-0.04-0.04-0.06-0.06c1.26-0.04,2.52-0.09,3.76-0.21
		c0.45-0.04,0.68-0.37,0.67-0.69C57.16,55.23,61.7,55.27,66.24,55.29z M34.64,55.73c-0.52,0.01-1.04,0.02-1.56,0.03
		c-3.76,0.04-7.52,0.1-11.29,0.18c-0.18-0.07-0.36-0.13-0.54-0.18c0.34-0.09,0.67-0.2,0.99-0.31c0.11-0.04,0.2-0.1,0.28-0.17
		c2.85,0.1,5.7,0.21,8.56,0.3C32.25,55.62,33.44,55.67,34.64,55.73z M58.4,53.79c1.86,0.01,3.73,0.03,5.6,0.05
		c-2.11,0.06-4.21,0.11-6.32,0.17C57.92,53.95,58.16,53.87,58.4,53.79z M128.57,48.8c1.3,0.01,2.59,0,3.88-0.05
		c-0.09,0.28,0.02,0.6,0.35,0.64c-1.2,0.18-2.4,0.37-3.59,0.58c-0.07-0.05-0.16-0.09-0.27-0.1c-0.42-0.06-0.83-0.12-1.26-0.17
		c0.17-0.02,0.34-0.04,0.51-0.06C128.59,49.58,128.7,49.12,128.57,48.8z M91.48,51.5c-0.45-0.13-0.92-0.23-1.39-0.31
		c4.29-0.05,8.57-0.06,12.86-0.04C99.13,51.25,95.31,51.36,91.48,51.5z M136.26,50.96h-0.07c-0.1,0.04-0.17,0.08-0.29,0.12
		c-0.15,0.05-0.22,0.18-0.23,0.3c-2.17,0.1-4.33,0.29-6.28,0.38c-0.9,0.04-1.8,0.09-2.7,0.13c-0.01-0.15-0.11-0.3-0.29-0.36
		c-0.1-0.04-0.21-0.06-0.32-0.09c0.89-0.05,1.78-0.12,2.67-0.21c0.19-0.02,0.35-0.12,0.47-0.26c0.04-0.05,0.08-0.1,0.11-0.15
		c1.1-0.15,2.2-0.3,3.3-0.45c0.03,0.01,0.07,0.03,0.1,0.03c1.91,0.04,3.82,0.01,5.71-0.04C137.71,50.53,136.97,50.72,136.26,50.96z
		 M97.72,49.64h0.04c0.6,0.01,1.2,0.01,1.8,0.01C94.14,49.8,88.73,50,83.31,50.22c-0.28,0.01-0.44,0.2-0.5,0.4
		c-1.69-0.09-3.39-0.07-5.07-0.08h-0.31l-1.62-0.02c-2.64-0.04-5.27-0.07-7.91-0.08H67.9c-0.28-0.01-0.56-0.01-0.83-0.01h-0.61
		c-1.91-0.01-3.81-0.01-5.72-0.01c-0.05-0.24-0.17-0.45-0.37-0.57c2.27-0.03,4.53-0.06,6.79-0.08c6.13-0.06,12.5,0.34,18.65-0.18
		C89.79,49.6,93.76,49.61,97.72,49.64z M42.2,51.72c2.32,0.06,4.66,0.2,7,0.29c-2.62,0.01-5.24,0.01-7.85,0.03
		c-0.31,0-0.48,0.2-0.53,0.43h-0.02c-4.77-0.12-9.55-0.26-14.32-0.4c0.23-0.28,0.04-0.76-0.29-0.88c-0.51-0.17-1.06-0.28-1.62-0.36
		c0.69,0.01,1.38,0.03,2.08,0.05c0.07,0.32,0.31,0.59,0.72,0.6C32.3,51.53,37.25,51.6,42.2,51.72z M17.55,50
		c-0.02-0.07-0.04-0.13-0.07-0.2c0.56-0.04,1.12-0.07,1.68-0.12c3.5-0.06,7-0.09,10.5-0.1C25.6,49.73,21.56,49.89,17.55,50z
		 M17.56,50.77c1,0,2,0.01,3,0.01c-1.05,0.07-2.09,0.18-3.1,0.28C17.51,50.96,17.55,50.87,17.56,50.77z M21.59,53.11
		c0.05,0.02,0.1,0.04,0.15,0.04c6.35,0.25,12.7,0.48,19.05,0.75c0.32,0.01,0.64,0.03,0.96,0.04c-3.52-0.01-7.03,0.08-10.47,0.07
		h-0.2c-2.9-0.02-5.8-0.02-8.69-0.03c-0.1-0.06-0.22-0.1-0.36-0.11c-1.29-0.1-2.62-0.04-3.95,0.09c-2.55-0.01-5.09-0.01-7.63-0.03
		c-0.04-0.2-0.15-0.39-0.31-0.52c-0.14-0.11-0.32-0.18-0.55-0.19c-0.16,0-0.32-0.01-0.49-0.01c0.13-0.02,0.23-0.07,0.34-0.12
		c2.2,0.04,4.4,0.06,6.61,0.01C17.77,53.06,19.7,53.19,21.59,53.11z M1.59,54.85c0.67,0.02,1.34,0.04,2.01,0.06
		c-0.53,0.15-1.05,0.3-1.58,0.45c-0.06,0.02-0.09,0.05-0.14,0.07c-0.1,0.01-0.19,0.01-0.29,0.02V54.85z M69.72,57.16
		c0.53-0.01,1.06-0.02,1.59-0.02c-2.78,0.19-5.56,0.44-8.34,0.7c0.04-0.21,0.02-0.42-0.02-0.62C65.2,57.21,67.46,57.2,69.72,57.16z
		 M131.18,54.61c0.04-0.15-0.01-0.32-0.13-0.43c3.42-0.09,6.8-0.16,10.19-0.5c2.35-0.07,4.7-0.09,7.05-0.02
		C142.6,53.76,136.83,53.89,131.18,54.61z M144.92,45.57c0.89-0.05,1.78-0.08,2.67-0.09c0.7-0.01,1.4-0.01,2.11-0.01
		c-0.07,0.07-0.13,0.16-0.17,0.25c-0.63-0.04-1.28-0.09-1.93-0.11c-0.94-0.04-1.9-0.06-2.85-0.03
		C144.81,45.58,144.86,45.58,144.92,45.57z M133.34,45.66c0.26-0.02,0.39-0.33,0.28-0.51h0.03c3.59-0.27,7.19-0.5,10.78-0.7
		c-0.1,0.01-0.21,0.02-0.32,0.03c-0.2,0.02-0.33,0.13-0.42,0.27c-1.81,0.07-3.57,0.29-5.11,0.83c-0.06,0.02-0.09,0.06-0.12,0.09
		c-1.93,0.03-3.86,0.15-5.78,0.28c0-0.08-0.01-0.15-0.03-0.23C132.88,45.69,133.11,45.68,133.34,45.66z M130.96,45.79
		c0,0.09,0.02,0.17,0.05,0.25c-0.7,0.04-1.42,0.09-2.11,0.12c-0.98,0.04-1.97,0.08-2.95,0.12c-0.01-0.16-0.04-0.32-0.1-0.47
		C127.55,45.85,129.26,45.85,130.96,45.79z M88.26,45.58c0.53-0.02,1.06-0.04,1.59-0.06c2.52-0.09,5.04-0.14,7.55-0.17
		c0.45-0.01,0.91-0.01,1.35-0.02c0.99-0.01,1.97-0.02,2.95-0.02c3.58-0.02,7.17,0,10.76,0.06c2.44,0.05,5.17,0.43,7.71,0.2
		c0.29,0.01,0.58,0.03,0.86,0.04c0.04,0.06,0.09,0.1,0.17,0.1c0.4,0.04,0.8,0.06,1.21,0.07c0.1,0.17,0.25,0.3,0.43,0.39
		c-1.72-0.18-3.47-0.23-5.24-0.2c-1.21-0.01-2.43,0.04-3.59,0.03c-2.71-0.01-5.41,0.01-8.11,0.07c0,0,0,0-0.01,0
		c-0.34,0.01-0.67,0.01-1.01,0.02c-0.01,0-0.01,0-0.01,0c-0.4,0.01-0.8,0.02-1.21,0.03c-5.22,0.15-10.45,0.39-15.67,0.68
		c0.09-0.45-0.16-0.96-0.75-0.92c-0.17,0-0.34,0.01-0.5,0.01c-0.02-0.09-0.06-0.18-0.12-0.25C87.17,45.62,87.72,45.6,88.26,45.58z
		 M87.45,47.94c0.09,0.08,0.2,0.13,0.35,0.13c5.15-0.09,10.3-0.18,15.44-0.26c0.14,0.01,0.28,0.01,0.42,0.01
		c0.21,0,0.42,0.01,0.64,0.01c0.74,0.01,1.48,0.01,2.21,0.02c0.94,0.01,1.88,0.01,2.82,0.03h0.01c0.01-0.01,0.01-0.01,0.02,0
		c0.01-0.01,0.01,0,0.01,0c0.01-0.01,0.01-0.01,0.01,0c0.9,0,1.81,0.01,2.71,0.02c-1.64,0.05-3.27,0.1-4.87,0.13
		c-0.01,0-0.01,0-0.01,0c-0.26,0.01-0.53,0.01-0.8,0.01c-0.12,0.01-0.23,0.01-0.34,0.01l-1.64,0.02h-0.01
		c-5.27,0.07-10.54,0.17-15.82,0.26c-0.1-0.11-0.25-0.18-0.44-0.17c-0.94-0.07-1.89-0.12-2.84-0.15
		C86.04,47.97,86.75,47.96,87.45,47.94z M66.89,48.28c3.16-0.04,6.32-0.11,9.47-0.24h0.43c1.93-0.06,3.87-0.15,5.79-0.25
		c0.02,0.07,0.07,0.13,0.13,0.18c-1.24,0.01-2.49,0.04-3.74,0.1h-0.02c-3.95,0.17-7.9,0.5-11.78,0.65
		c-4.29,0.17-8.58,0.31-12.88,0.45c0.05-0.06,0.08-0.14,0.08-0.23c0.01-0.17-0.07-0.36-0.26-0.39c-0.41-0.08-0.83-0.14-1.24-0.2
		c4.65,0,9.3-0.01,13.95-0.07H66.89z M55.85,46.85c1.36,0.01,2.72,0.01,4.08,0.02c-1.38,0.06-2.76,0.12-4.15,0.18
		C55.82,47,55.84,46.93,55.85,46.85z M54.68,45.38c-1.59,0.04-3.17,0.07-4.75,0.11c-0.04-0.09-0.1-0.17-0.21-0.2
		c-0.23-0.07-0.47-0.12-0.7-0.18C50.9,45.16,52.78,45.26,54.68,45.38z M22.7,47.32c0.09,0.14,0.24,0.25,0.47,0.24
		c2.31-0.08,4.63-0.14,6.94-0.18c0.78-0.02,1.57-0.03,2.35-0.04c2.48-0.04,4.96-0.04,7.44-0.02c1.27,0.01,2.58,0.07,3.9,0.15
		c-0.24,0.01-0.48,0.01-0.71,0.02c-0.31,0.01-0.45,0.27-0.42,0.51c-2.19,0.07-4.37,0.18-6.49,0.23c-1.44,0.04-2.88,0.07-4.31,0.12
		c-0.36,0.01-0.72,0.01-1.08,0.02c0,0,0,0-0.01,0c-1.88,0.06-3.76,0.12-5.64,0.18c0.02-0.21-0.07-0.45-0.31-0.48
		c-4.42-0.66-9.06-0.38-13.68,0.18h-0.01c-0.39,0.04-0.77,0.09-1.15,0.15H9.97c-0.45,0.06-0.89,0.12-1.34,0.18
		c-0.3,0.01-0.6,0.01-0.9,0.01c0.17-0.26,0.19-0.62,0.07-0.91c0.47-0.01,0.94-0.03,1.42-0.04c0.8-0.02,1.59-0.04,2.39-0.07
		C15.31,47.47,19.01,47.39,22.7,47.32z M4.44,43.96c0.94,0.17,1.88,0.32,2.82,0.47c-0.01,0-0.01,0-0.02,0.01
		c-0.31-0.01-0.63-0.01-0.95-0.02c-0.66-0.08-1.32-0.13-1.98-0.17C4.37,44.16,4.41,44.07,4.44,43.96z M32.49,57.76
		c-0.64,0.05-1.27,0.1-1.9,0.15h-0.01c-1.42,0.11-2.81,0.21-4.2,0.28c-2.38,0.12-4.77,0.26-7.16,0.4c-0.61,0.04-1.22,0.07-1.83,0.1
		c-0.02,0-0.06,0.01-0.08,0.01c-0.02-0.02-0.04-0.05-0.07-0.07c-0.91-0.49-1.9-0.65-2.9-0.68c-1.69-0.25-3.46-0.12-5.16-0.14
		c-2.46-0.04-4.91-0.13-7.36-0.26c-0.09-0.01-0.17,0.01-0.24,0.04c-0.01-0.15-0.01-0.31-0.01-0.46c0.1,0,0.21,0.01,0.31,0.01
		c0.11,0.05,0.23,0.09,0.37,0.1c3.22,0.22,6.97,0.56,10.46,0.23c0.03,0,0.06,0,0.09-0.01c0.32-0.03,0.64-0.07,0.95-0.12
		c0.37,0.02,0.75,0.05,1.13,0.07h0.09c0.66,0.04,1.34,0.07,2,0.07c0.37,0.01,0.75,0.01,1.12,0c0.08,0.02,0.17,0.04,0.26,0.04h1.18
		c3.8-0.02,7.59-0.02,11.39,0h0.01c0.43,0,0.86,0.01,1.29,0.01h0.01c0.28,0,0.55,0.01,0.83,0.01c0.69,0,1.37,0.01,2.06,0.03
		C34.26,57.64,33.37,57.7,32.49,57.76z M52.37,57.65c-0.3-0.01-0.38,0.3-0.26,0.5c-1.21,0.02-2.41,0.04-3.62,0.06
		c-0.4,0.01-0.51,0.44-0.35,0.7c-0.5,0.02-1,0.06-1.51,0.09c-1.92,0.02-3.85,0.1-5.73,0.15c1.32-0.16,2.64-0.38,3.92-0.68
		c0.48-0.11,0.32-0.73-0.09-0.8c0.84-0.04,1.67-0.1,2.5-0.18c4.38-0.13,8.76-0.2,13.14-0.26c-0.05,0.21-0.05,0.43-0.01,0.65
		C57.7,57.81,55.04,57.74,52.37,57.65z M59.63,59.42c2.83-0.13,5.68-0.27,8.52-0.49c0.4,0.02,0.81,0.04,1.22,0.05
		c-1.68,0.09-3.37,0.18-5.05,0.27c-0.2,0.01-0.34,0.09-0.45,0.2c-1.44,0.03-2.87,0.05-4.31,0.06h-0.01
		c-0.72,0.01-1.44,0.02-2.16,0.02C58.14,59.49,58.89,59.46,59.63,59.42z M117.51,57.43c-0.24,0.13-0.43,0.29-0.54,0.47
		c-0.4,0.02-0.78,0.04-1.18,0.06h-0.01c-0.06,0.01-0.12,0.01-0.17,0.01c-0.01,0-0.01,0-0.01,0c-0.8,0.04-1.6,0.07-2.4,0.11
		c-0.73,0.03-1.46,0.07-2.19,0.1c-1.4,0.06-2.81,0.11-4.21,0.16c-2.64,0.09-5.27,0.15-7.91,0.18c-0.26,0.01-0.51,0.01-0.76,0.01
		h-0.01c-1.65,0.01-3.3,0.01-4.96,0.01c-0.06-0.14-0.19-0.26-0.36-0.28c-3.15-0.34-6.31-0.24-9.47-0.05
		c0.47-0.09,0.93-0.2,1.38-0.34c0.15-0.05,0.22-0.21,0.2-0.36c0.08,0.07,0.18,0.13,0.33,0.13c2.48-0.05,4.96-0.07,7.44-0.1
		c-0.14,0.3-0.01,0.74,0.43,0.74c0.43,0,0.57-0.45,0.42-0.75c4-0.04,8-0.06,12.01-0.12c1.43-0.01,2.87-0.04,4.3-0.07
		c0.51-0.01,1.02-0.02,1.53-0.04c0,0,0,0,0.01,0c0.48-0.01,0.94-0.02,1.42-0.03c1.77-0.04,3.54-0.08,5.31-0.12
		c-0.23,0.08-0.42,0.17-0.59,0.26C117.52,57.43,117.51,57.43,117.51,57.43z M131.59,58.6c-0.09,0.02-0.16,0.07-0.21,0.13
		c-1.41-0.02-2.82-0.05-4.24-0.07c0.13-0.09,0.21-0.23,0.23-0.39c1.62,0.04,3.23,0.1,4.84,0.2C132,58.52,131.8,58.55,131.59,58.6z
		 M140.77,56.77c-3.2,0.06-6.89-0.13-9.94,0.94c-0.18,0.06-0.21,0.33-0.04,0.4c-1.15-0.04-2.3-0.08-3.46-0.1
		c-0.05-0.12-0.15-0.21-0.31-0.24c-0.5-0.08-0.99-0.13-1.49-0.17c1.59-0.15,3.17-0.31,4.77-0.43c4.24-0.32,8.48-0.58,12.73-0.71
		c0.18-0.01,0.29-0.09,0.36-0.21c0.03-0.06,0.05-0.12,0.06-0.18c1.3-0.01,2.59,0.02,3.89,0.07c0,0,0.01-0.01,0.01,0
		c0.01-0.01,0.01-0.01,0.01,0c0.01-0.01,0.02-0.01,0.02,0h0.01c0.01-0.01,0.01-0.01,0.01,0h0.01c0.01-0.01,0.01-0.01,0.01,0
		c0.29,0.01,0.57,0.02,0.86,0.03c-0.28,0.13-0.47,0.36-0.58,0.62C145.4,56.75,143.09,56.73,140.77,56.77z M141.86,54.99
		c-0.86-0.01-1.75-0.02-2.65-0.03c3.28-0.15,6.57-0.34,9.86-0.46c0.06,0.16,0.15,0.32,0.28,0.43c-0.02,0.15-0.01,0.32,0.02,0.48
		C146.87,55.17,144.37,55.01,141.86,54.99z M147.11,51.15c0-0.01-0.01-0.01-0.01-0.02c1.42-0.1,2.85-0.07,3.82,0.39
		C149.67,51.35,148.4,51.23,147.11,51.15z M67.91,50.45L67.91,50.45c0.04,0.06,0.07,0.12,0.09,0.18c0.02,0.03,0.03,0.06,0.04,0.1
		c0.02,0.05,0.03,0.1,0.04,0.15c0.02,0.16,0.01,0.32-0.04,0.48c-0.02,0.04-0.04,0.09-0.06,0.13c-0.02,0.04-0.04,0.09-0.07,0.12
		c-0.05,0.07-0.11,0.14-0.18,0.2c0.65-0.02,1.29-0.04,1.94-0.06c0.65-0.02,1.3-0.04,1.95-0.06c0.65-0.02,1.3-0.03,1.95-0.04
		c0.65-0.02,1.29-0.02,1.94-0.03c-0.02-0.15-0.02-0.3,0.01-0.45c0.01-0.07,0.03-0.15,0.06-0.21c0.06-0.15,0.13-0.3,0.24-0.42
		c0-0.01,0.01-0.01,0.01-0.01C73.18,50.49,70.55,50.46,67.91,50.45z M67.91,50.45L67.91,50.45c0.04,0.06,0.07,0.12,0.09,0.18
		c0.02,0.03,0.03,0.06,0.04,0.1c0.02,0.05,0.03,0.1,0.04,0.15c0.02,0.16,0.01,0.32-0.04,0.48c-0.02,0.04-0.04,0.09-0.06,0.13
		c-0.02,0.04-0.04,0.09-0.07,0.12c-0.05,0.07-0.11,0.14-0.18,0.2c0.65-0.02,1.29-0.04,1.94-0.06c0.65-0.02,1.3-0.04,1.95-0.06
		c0.65-0.02,1.3-0.03,1.95-0.04c0.65-0.02,1.29-0.02,1.94-0.03c-0.02-0.15-0.02-0.3,0.01-0.45c0.01-0.07,0.03-0.15,0.06-0.21
		c0.06-0.15,0.13-0.3,0.24-0.42c0-0.01,0.01-0.01,0.01-0.01C73.18,50.49,70.55,50.46,67.91,50.45z M67.91,50.45L67.91,50.45
		c0.04,0.06,0.07,0.12,0.09,0.18c0.02,0.03,0.03,0.06,0.04,0.1c0.02,0.05,0.03,0.1,0.04,0.15c0.02,0.16,0.01,0.32-0.04,0.48
		c-0.02,0.04-0.04,0.09-0.06,0.13c-0.02,0.04-0.04,0.09-0.07,0.12c-0.05,0.07-0.11,0.14-0.18,0.2c0.65-0.02,1.29-0.04,1.94-0.06
		c0.65-0.02,1.3-0.04,1.95-0.06c0.65-0.02,1.3-0.03,1.95-0.04c0.65-0.02,1.29-0.02,1.94-0.03c-0.02-0.15-0.02-0.3,0.01-0.45
		c0.01-0.07,0.03-0.15,0.06-0.21c0.06-0.15,0.13-0.3,0.24-0.42c0-0.01,0.01-0.01,0.01-0.01C73.18,50.49,70.55,50.46,67.91,50.45z
		 M67.91,50.45L67.91,50.45c0.04,0.06,0.07,0.12,0.09,0.18c0.02,0.03,0.03,0.06,0.04,0.1c0.02,0.05,0.03,0.1,0.04,0.15
		c0.02,0.16,0.01,0.32-0.04,0.48c-0.02,0.04-0.04,0.09-0.06,0.13c-0.02,0.04-0.04,0.09-0.07,0.12c-0.05,0.07-0.11,0.14-0.18,0.2
		c0.65-0.02,1.29-0.04,1.94-0.06c0.65-0.02,1.3-0.04,1.95-0.06c0.65-0.02,1.3-0.03,1.95-0.04c0.65-0.02,1.29-0.02,1.94-0.03
		c-0.02-0.15-0.02-0.3,0.01-0.45c0.01-0.07,0.03-0.15,0.06-0.21c0.06-0.15,0.13-0.3,0.24-0.42c0-0.01,0.01-0.01,0.01-0.01
		C73.18,50.49,70.55,50.46,67.91,50.45z M67.91,50.45L67.91,50.45c0.04,0.06,0.07,0.12,0.09,0.18c0.02,0.03,0.03,0.06,0.04,0.1
		c0.02,0.05,0.03,0.1,0.04,0.15c0.02,0.16,0.01,0.32-0.04,0.48c-0.02,0.04-0.04,0.09-0.06,0.13c-0.02,0.04-0.04,0.09-0.07,0.12
		c-0.05,0.07-0.11,0.14-0.18,0.2c0.65-0.02,1.29-0.04,1.94-0.06c0.65-0.02,1.3-0.04,1.95-0.06c0.65-0.02,1.3-0.03,1.95-0.04
		c0.65-0.02,1.29-0.02,1.94-0.03c-0.02-0.15-0.02-0.3,0.01-0.45c0.01-0.07,0.03-0.15,0.06-0.21c0.06-0.15,0.13-0.3,0.24-0.42
		c0-0.01,0.01-0.01,0.01-0.01C73.18,50.49,70.55,50.46,67.91,50.45z M67.91,50.45L67.91,50.45c0.04,0.06,0.07,0.12,0.09,0.18
		c0.02,0.03,0.03,0.06,0.04,0.1c0.02,0.05,0.03,0.1,0.04,0.15c0.02,0.16,0.01,0.32-0.04,0.48c-0.02,0.04-0.04,0.09-0.06,0.13
		c-0.02,0.04-0.04,0.09-0.07,0.12c-0.05,0.07-0.11,0.14-0.18,0.2c0.65-0.02,1.29-0.04,1.94-0.06c0.65-0.02,1.3-0.04,1.95-0.06
		c0.65-0.02,1.3-0.03,1.95-0.04c0.65-0.02,1.29-0.02,1.94-0.03c-0.02-0.15-0.02-0.3,0.01-0.45c0.01-0.07,0.03-0.15,0.06-0.21
		c0.06-0.15,0.13-0.3,0.24-0.42c0-0.01,0.01-0.01,0.01-0.01C73.18,50.49,70.55,50.46,67.91,50.45z M67.91,50.45L67.91,50.45
		c0.04,0.06,0.07,0.12,0.09,0.18c0.02,0.03,0.03,0.06,0.04,0.1c0.02,0.05,0.03,0.1,0.04,0.15c0.02,0.16,0.01,0.32-0.04,0.48
		c-0.02,0.04-0.04,0.09-0.06,0.13c-0.02,0.04-0.04,0.09-0.07,0.12c-0.05,0.07-0.11,0.14-0.18,0.2c0.65-0.02,1.29-0.04,1.94-0.06
		c0.65-0.02,1.3-0.04,1.95-0.06c0.65-0.02,1.3-0.03,1.95-0.04c0.65-0.02,1.29-0.02,1.94-0.03c-0.02-0.15-0.02-0.3,0.01-0.45
		c0.01-0.07,0.03-0.15,0.06-0.21c0.06-0.15,0.13-0.3,0.24-0.42c0-0.01,0.01-0.01,0.01-0.01C73.18,50.49,70.55,50.46,67.91,50.45z
		 M67.91,50.45L67.91,50.45c0.04,0.06,0.07,0.12,0.09,0.18c0.02,0.03,0.03,0.06,0.04,0.1c0.02,0.05,0.03,0.1,0.04,0.15
		c0.02,0.16,0.01,0.32-0.04,0.48c-0.02,0.04-0.04,0.09-0.06,0.13c-0.02,0.04-0.04,0.09-0.07,0.12c-0.05,0.07-0.11,0.14-0.18,0.2
		c0.65-0.02,1.29-0.04,1.94-0.06c0.65-0.02,1.3-0.04,1.95-0.06c0.65-0.02,1.3-0.03,1.95-0.04c0.65-0.02,1.29-0.02,1.94-0.03
		c-0.02-0.15-0.02-0.3,0.01-0.45c0.01-0.07,0.03-0.15,0.06-0.21c0.06-0.15,0.13-0.3,0.24-0.42c0-0.01,0.01-0.01,0.01-0.01
		C73.18,50.49,70.55,50.46,67.91,50.45z M67.91,50.45L67.91,50.45c0.04,0.06,0.07,0.12,0.09,0.18c0.02,0.03,0.03,0.06,0.04,0.1
		c0.02,0.05,0.03,0.1,0.04,0.15c0.02,0.16,0.01,0.32-0.04,0.48c-0.02,0.04-0.04,0.09-0.06,0.13c-0.02,0.04-0.04,0.09-0.07,0.12
		c-0.05,0.07-0.11,0.14-0.18,0.2c0.65-0.02,1.29-0.04,1.94-0.06c0.65-0.02,1.3-0.04,1.95-0.06c0.65-0.02,1.3-0.03,1.95-0.04
		c0.65-0.02,1.29-0.02,1.94-0.03c-0.02-0.15-0.02-0.3,0.01-0.45c0.01-0.07,0.03-0.15,0.06-0.21c0.06-0.15,0.13-0.3,0.24-0.42
		c0-0.01,0.01-0.01,0.01-0.01C73.18,50.49,70.55,50.46,67.91,50.45z M67.91,50.45L67.91,50.45c0.04,0.06,0.07,0.12,0.09,0.18
		c0.02,0.03,0.03,0.06,0.04,0.1c0.02,0.05,0.03,0.1,0.04,0.15c0.02,0.16,0.01,0.32-0.04,0.48c-0.02,0.04-0.04,0.09-0.06,0.13
		c-0.02,0.04-0.04,0.09-0.07,0.12c-0.05,0.07-0.11,0.14-0.18,0.2c0.65-0.02,1.29-0.04,1.94-0.06c0.65-0.02,1.3-0.04,1.95-0.06
		c0.65-0.02,1.3-0.03,1.95-0.04c0.65-0.02,1.29-0.02,1.94-0.03c-0.02-0.15-0.02-0.3,0.01-0.45c0.01-0.07,0.03-0.15,0.06-0.21
		c0.06-0.15,0.13-0.3,0.24-0.42c0-0.01,0.01-0.01,0.01-0.01C73.18,50.49,70.55,50.46,67.91,50.45z M67.91,50.45L67.91,50.45
		c0.04,0.06,0.07,0.12,0.09,0.18c0.02,0.03,0.03,0.06,0.04,0.1c0.02,0.05,0.03,0.1,0.04,0.15c0.02,0.16,0.01,0.32-0.04,0.48
		c-0.02,0.04-0.04,0.09-0.06,0.13c-0.02,0.04-0.04,0.09-0.07,0.12c-0.05,0.07-0.11,0.14-0.18,0.2c0.65-0.02,1.29-0.04,1.94-0.06
		c0.65-0.02,1.3-0.04,1.95-0.06c0.65-0.02,1.3-0.03,1.95-0.04c0.65-0.02,1.29-0.02,1.94-0.03c-0.02-0.15-0.02-0.3,0.01-0.45
		c0.01-0.07,0.03-0.15,0.06-0.21c0.06-0.15,0.13-0.3,0.24-0.42c0-0.01,0.01-0.01,0.01-0.01C73.18,50.49,70.55,50.46,67.91,50.45z
		 M67.91,50.45L67.91,50.45c0.04,0.06,0.07,0.12,0.09,0.18c0.02,0.03,0.03,0.06,0.04,0.1c0.02,0.05,0.03,0.1,0.04,0.15
		c0.02,0.16,0.01,0.32-0.04,0.48c-0.02,0.04-0.04,0.09-0.06,0.13c-0.02,0.04-0.04,0.09-0.07,0.12c-0.05,0.07-0.11,0.14-0.18,0.2
		c0.65-0.02,1.29-0.04,1.94-0.06c0.65-0.02,1.3-0.04,1.95-0.06c0.65-0.02,1.3-0.03,1.95-0.04c0.65-0.02,1.29-0.02,1.94-0.03
		c-0.02-0.15-0.02-0.3,0.01-0.45c0.01-0.07,0.03-0.15,0.06-0.21c0.06-0.15,0.13-0.3,0.24-0.42c0-0.01,0.01-0.01,0.01-0.01
		C73.18,50.49,70.55,50.46,67.91,50.45z M67.91,50.45L67.91,50.45c0.04,0.06,0.07,0.12,0.09,0.18c0.02,0.03,0.03,0.06,0.04,0.1
		c0.02,0.05,0.03,0.1,0.04,0.15c0.02,0.16,0.01,0.32-0.04,0.48c-0.02,0.04-0.04,0.09-0.06,0.13c-0.02,0.04-0.04,0.09-0.07,0.12
		c-0.05,0.07-0.11,0.14-0.18,0.2c0.65-0.02,1.29-0.04,1.94-0.06c0.65-0.02,1.3-0.04,1.95-0.06c0.65-0.02,1.3-0.03,1.95-0.04
		c0.65-0.02,1.29-0.02,1.94-0.03c-0.02-0.15-0.02-0.3,0.01-0.45c0.01-0.07,0.03-0.15,0.06-0.21c0.06-0.15,0.13-0.3,0.24-0.42
		c0-0.01,0.01-0.01,0.01-0.01C73.18,50.49,70.55,50.46,67.91,50.45z M67.91,50.45L67.91,50.45c0.04,0.06,0.07,0.12,0.09,0.18
		c0.02,0.03,0.03,0.06,0.04,0.1c0.02,0.05,0.03,0.1,0.04,0.15c0.02,0.16,0.01,0.32-0.04,0.48c-0.02,0.04-0.04,0.09-0.06,0.13
		c-0.02,0.04-0.04,0.09-0.07,0.12c-0.05,0.07-0.11,0.14-0.18,0.2c0.65-0.02,1.29-0.04,1.94-0.06c0.65-0.02,1.3-0.04,1.95-0.06
		c0.65-0.02,1.3-0.03,1.95-0.04c0.65-0.02,1.29-0.02,1.94-0.03c-0.02-0.15-0.02-0.3,0.01-0.45c0.01-0.07,0.03-0.15,0.06-0.21
		c0.06-0.15,0.13-0.3,0.24-0.42c0-0.01,0.01-0.01,0.01-0.01C73.18,50.49,70.55,50.46,67.91,50.45z M67.91,50.45L67.91,50.45
		c0.04,0.06,0.07,0.12,0.09,0.18c0.02,0.03,0.03,0.06,0.04,0.1c0.02,0.05,0.03,0.1,0.04,0.15c0.02,0.16,0.01,0.32-0.04,0.48
		c-0.02,0.04-0.04,0.09-0.06,0.13c-0.02,0.04-0.04,0.09-0.07,0.12c-0.05,0.07-0.11,0.14-0.18,0.2c0.65-0.02,1.29-0.04,1.94-0.06
		c0.65-0.02,1.3-0.04,1.95-0.06c0.65-0.02,1.3-0.03,1.95-0.04c0.65-0.02,1.29-0.02,1.94-0.03c-0.02-0.15-0.02-0.3,0.01-0.45
		c0.01-0.07,0.03-0.15,0.06-0.21c0.06-0.15,0.13-0.3,0.24-0.42c0-0.01,0.01-0.01,0.01-0.01C73.18,50.49,70.55,50.46,67.91,50.45z
		 M67.91,50.45L67.91,50.45c0.04,0.06,0.07,0.12,0.09,0.18c0.02,0.03,0.03,0.06,0.04,0.1c0.02,0.05,0.03,0.1,0.04,0.15
		c0.02,0.16,0.01,0.32-0.04,0.48c-0.02,0.04-0.04,0.09-0.06,0.13c-0.02,0.04-0.04,0.09-0.07,0.12c-0.05,0.07-0.11,0.14-0.18,0.2
		c0.65-0.02,1.29-0.04,1.94-0.06c0.65-0.02,1.3-0.04,1.95-0.06c0.65-0.02,1.3-0.03,1.95-0.04c0.65-0.02,1.29-0.02,1.94-0.03
		c-0.02-0.15-0.02-0.3,0.01-0.45c0.01-0.07,0.03-0.15,0.06-0.21c0.06-0.15,0.13-0.3,0.24-0.42c0-0.01,0.01-0.01,0.01-0.01
		C73.18,50.49,70.55,50.46,67.91,50.45z M67.91,50.45L67.91,50.45c0.04,0.06,0.07,0.12,0.09,0.18c0.02,0.03,0.03,0.06,0.04,0.1
		c0.02,0.05,0.03,0.1,0.04,0.15c0.02,0.16,0.01,0.32-0.04,0.48c-0.02,0.04-0.04,0.09-0.06,0.13c-0.02,0.04-0.04,0.09-0.07,0.12
		c-0.05,0.07-0.11,0.14-0.18,0.2c0.65-0.02,1.29-0.04,1.94-0.06c0.65-0.02,1.3-0.04,1.95-0.06c0.65-0.02,1.3-0.03,1.95-0.04
		c0.65-0.02,1.29-0.02,1.94-0.03c-0.02-0.15-0.02-0.3,0.01-0.45c0.01-0.07,0.03-0.15,0.06-0.21c0.06-0.15,0.13-0.3,0.24-0.42
		c0-0.01,0.01-0.01,0.01-0.01C73.18,50.49,70.55,50.46,67.91,50.45z M67.91,50.45L67.91,50.45c0.04,0.06,0.07,0.12,0.09,0.18
		c0.02,0.03,0.03,0.06,0.04,0.1c0.02,0.05,0.03,0.1,0.04,0.15c0.02,0.16,0.01,0.32-0.04,0.48c-0.02,0.04-0.04,0.09-0.06,0.13
		c-0.02,0.04-0.04,0.09-0.07,0.12c-0.05,0.07-0.11,0.14-0.18,0.2c0.65-0.02,1.29-0.04,1.94-0.06c0.65-0.02,1.3-0.04,1.95-0.06
		c0.65-0.02,1.3-0.03,1.95-0.04c0.65-0.02,1.29-0.02,1.94-0.03c-0.02-0.15-0.02-0.3,0.01-0.45c0.01-0.07,0.03-0.15,0.06-0.21
		c0.06-0.15,0.13-0.3,0.24-0.42c0-0.01,0.01-0.01,0.01-0.01C73.18,50.49,70.55,50.46,67.91,50.45z"/>
	<path class="st1" d="M13.68,48.08c-3.88,0.42-7.74,0.92-11.65,1.09c-0.29,0.01-0.3,0.47,0,0.46c3.92-0.16,7.85-0.45,11.68-1.29
		C13.85,48.3,13.82,48.06,13.68,48.08z"/>
	<path class="st1" d="M18.67,46.33c-5.5-0.95-11.6-0.47-17.07,0.54c-0.48,0.09-0.37,0.86,0.11,0.85c5.58-0.21,11.31-0.15,16.86-0.68
		C18.94,47,19.1,46.41,18.67,46.33z"/>
	<path class="st1" d="M31.13,53.91c-9.58-0.74-19.2-0.67-28.79-0.27c-0.26,0.01-0.26,0.41,0,0.4c9.6-0.13,19.19,0.12,28.79,0.26
		C31.38,54.3,31.37,53.93,31.13,53.91z"/>
	<path class="st1" d="M78.31,54.07c-11.06-0.12-22.19,0.86-33.23,1.33c-11.08,0.48-22.16,0.95-33.24,1.52
		c-0.37,0.02-0.37,0.58,0,0.57c11.09-0.22,22.16-0.61,33.24-1.08c11.04-0.47,22.24-0.53,33.23-1.75
		C78.68,54.61,78.7,54.07,78.31,54.07z"/>
	<path class="st1" d="M85.2,48.35c-8.61-0.66-17.37-0.13-25.98,0.3c-8.67,0.44-17.3,1.24-25.93,2.15c-0.29,0.03-0.3,0.48,0,0.46
		c8.63-0.65,17.28-1.06,25.93-1.42c8.65-0.36,17.36-0.22,25.98-0.9C85.58,48.91,85.58,48.38,85.2,48.35z"/>
	<path class="st1" d="M92.86,52.19c-13.54-1.22-27.49-0.25-41.05,0.27c-0.58,0.02-0.58,0.92,0,0.9c13.64-0.36,27.43,0.34,41.05-0.57
		C93.25,52.77,93.24,52.22,92.86,52.19z"/>
	<path class="st1" d="M136.51,50.97c-14.61-0.27-29.38,1.41-43.95,2.36c-0.32,0.02-0.33,0.51,0,0.5
		c14.59-0.53,29.45-0.35,43.95-2.09C136.99,51.69,137.02,50.98,136.51,50.97z"/>
	<path class="st1" d="M146.86,47.11c-6.6-1.07-13.96-0.02-20.61,0.27c-0.25,0.01-0.38,0.2-0.39,0.4c-9.28-0.74-18.91,0.2-28.1,1.1
		c-0.48,0.05-0.49,0.8,0,0.76c10.16-0.84,20.32-0.43,30.48-1.01c0.27-0.02,0.36-0.26,0.27-0.44c6.06,0.07,12.48,0.6,18.35-0.41
		C147.19,47.72,147.19,47.17,146.86,47.11z"/>
	<path class="st1" d="M150.44,48.16c-4.1,0.08-8.15,0.26-12.17,1.12c-0.28,0.06-0.21,0.5,0.07,0.49c4.04-0.1,8.06-0.5,12.1-0.65
		C151.06,49.1,151.07,48.15,150.44,48.16z"/>
	<path class="st1" d="M148.3,55.35c-14.07-0.06-28.46-0.27-42.43,1.59c-0.43,0.06-0.47,0.7,0,0.7c14.13,0.03,28.29-1.25,42.43-1.54
		C148.79,56.11,148.79,55.36,148.3,55.35z"/>
	<path class="st1" d="M82.45,57.77c-7.55,0.46-15.25,0.54-22.74,1.62c-0.28,0.04-0.2,0.48,0.06,0.48
		c7.55,0.02,15.16-0.98,22.67-1.59C82.77,58.26,82.78,57.75,82.45,57.77z"/>
	<path class="st4" d="M8.93,45.21c-1.26,0-1.26,1.95,0,1.95C10.18,47.16,10.18,45.21,8.93,45.21z"/>
	<path class="st4" d="M12.6,43.86c-0.04,0-0.04,0.06,0,0.06C12.64,43.92,12.64,43.86,12.6,43.86z"/>
	<path class="st4" d="M18.57,45.2c-1.27,0-1.27,1.97,0,1.97C19.84,47.17,19.84,45.2,18.57,45.2z"/>
	<path class="st4" d="M22.86,43c-1.54,0-1.55,2.4,0,2.4C24.41,45.39,24.41,43,22.86,43z"/>
	<path class="st4" d="M25.62,43.91c-1.75,0-1.75,2.71,0,2.71C27.37,46.62,27.37,43.91,25.62,43.91z"/>
	<path class="st4" d="M31.29,46.03c-1.58,0-1.58,2.46,0,2.46C32.87,48.48,32.87,46.03,31.29,46.03z"/>
	<path class="st4" d="M42.93,41.44c-1.76,0-1.77,2.74,0,2.74C44.69,44.19,44.69,41.44,42.93,41.44z"/>
	<path class="st4" d="M11.38,59.95c-1.6,0-1.6,2.48,0,2.48C12.97,62.44,12.98,59.95,11.38,59.95z"/>
	<path class="st4" d="M18.27,56.34c-1.72,0-1.72,2.67,0,2.67C19.99,59.01,19.99,56.34,18.27,56.34z"/>
	<path class="st4" d="M22.56,59.55c-1.92,0-1.92,2.99,0,2.99C24.48,62.53,24.48,59.55,22.56,59.55z"/>
	<path class="st4" d="M31.59,57.36c-1.58,0-1.58,2.46,0,2.46C33.17,59.82,33.18,57.36,31.59,57.36z"/>
	<path class="st4" d="M36.19,60.22c-1.65,0-1.66,2.57,0,2.57C37.84,62.79,37.84,60.22,36.19,60.22z"/>
	<path class="st4" d="M43.08,61.14c-1.45,0-1.45,2.25,0,2.25C44.53,63.39,44.53,61.14,43.08,61.14z"/>
	<path class="st4" d="M51.2,58.3c-1.56,0-1.56,2.43,0,2.43C52.76,60.72,52.76,58.3,51.2,58.3z"/>
	<path class="st4" d="M69.88,60.85c-1.63,0-1.63,2.53,0,2.53C71.51,63.38,71.51,60.85,69.88,60.85z"/>
	<path class="st4" d="M78.46,56.68c-1.47,0-1.47,2.28,0,2.28C79.93,58.97,79.93,56.68,78.46,56.68z"/>
	<path class="st4" d="M59.01,51.4c-1.37,0-1.37,2.13,0,2.13C60.38,53.53,60.38,51.4,59.01,51.4z"/>
	<path class="st4" d="M63.3,45.22c-0.45,0-0.45,0.7,0,0.7C63.75,45.92,63.75,45.22,63.3,45.22z"/>
	<path class="st4" d="M70.04,45.21c-1.06,0-1.06,1.65,0,1.65C71.1,46.86,71.1,45.21,70.04,45.21z"/>
	<path class="st4" d="M76.01,43.71c-1.02,0-1.02,1.58,0,1.58C77.03,45.29,77.03,43.71,76.01,43.71z"/>
	<path class="st4" d="M82.9,42.93c-0.65,0-0.65,1.01,0,1.01C83.55,43.93,83.55,42.93,82.9,42.93z"/>
	<path class="st4" d="M89.03,43.96c-1.28,0-1.29,2,0,2C90.31,45.96,90.31,43.96,89.03,43.96z"/>
	<path class="st4" d="M90.71,59.26c-1.3,0-1.3,2.02,0,2.02C92.01,61.29,92.02,59.26,90.71,59.26z"/>
	<path class="st4" d="M98.52,58.45c-1.17,0-1.18,1.82,0,1.82C99.7,60.27,99.7,58.45,98.52,58.45z"/>
	<path class="st4" d="M108.33,58.53c-1.06,0-1.06,1.65,0,1.65C109.39,60.18,109.39,58.53,108.33,58.53z"/>
	<path class="st4" d="M115.68,57.37c-0.39,0-0.39,0.6,0,0.6C116.07,57.97,116.07,57.37,115.68,57.37z"/>
	<path class="st4" d="M119.66,59.57c-0.91,0-0.92,1.42,0,1.42C120.57,60.99,120.58,59.57,119.66,59.57z"/>
	<path class="st4" d="M124.25,60.04c-0.3,0-0.31,0.47,0,0.47C124.56,60.51,124.56,60.04,124.25,60.04z"/>
	<path class="st4" d="M127.16,60.09c-0.04,0-0.04,0.06,0,0.06C127.2,60.15,127.2,60.09,127.16,60.09z"/>
	<path class="st4" d="M133.4,60.17c-0.09-0.03-0.19-0.06-0.28-0.08c-0.83-0.24-0.84,1.24,0,1c0.09-0.03,0.19-0.06,0.28-0.08
		C133.81,60.88,133.81,60.29,133.4,60.17z"/>
	<path class="st4" d="M138.8,60.87c-1.01,0-1.01,1.57,0,1.57C139.81,62.44,139.81,60.87,138.8,60.87z"/>
	<path class="st4" d="M148.15,59.06c-1.37,0-1.37,2.13,0,2.13C149.51,61.19,149.52,59.06,148.15,59.06z"/>
	<path class="st4" d="M154.12,58.97c-1.48,0-1.48,2.3,0,2.3C155.6,61.27,155.6,58.97,154.12,58.97z"/>
	<path class="st4" d="M149.48,44.43c0.32-0.7-0.02-1.73-1.02-1.73c-1.22,0-1.46,1.52-0.73,2.12c-0.36,0.72-0.01,1.81,1.03,1.81
		C150.03,46.63,150.27,45.03,149.48,44.43z"/>
	<path class="st4" d="M141.56,45.25c-1.4,0-1.41,2.18,0,2.18C142.97,47.43,142.97,45.25,141.56,45.25z"/>
	<path class="st4" d="M134.67,43.52c-0.87,0-0.87,1.35,0,1.35C135.54,44.87,135.54,43.52,134.67,43.52z"/>
	<path class="st4" d="M126.7,44.23c-0.93,0-0.93,1.45,0,1.45C127.64,45.69,127.64,44.23,126.7,44.23z"/>
	<path class="st4" d="M119.05,44.81c-0.19,0-0.19,0.3,0,0.3C119.24,45.11,119.24,44.81,119.05,44.81z"/>
	<path class="st4" d="M109.41,43.53c-0.04,0.03-0.07,0.05-0.11,0.08c-0.31,0.24-0.31,0.62,0,0.86c0.04,0.03,0.07,0.05,0.11,0.08
		c0.37,0.28,0.89-0.1,0.89-0.51C110.29,43.64,109.78,43.25,109.41,43.53z"/>
	<path class="st4" d="M105.42,45.99c-1.64,0-1.64,2.54,0,2.54C107.05,48.53,107.05,45.99,105.42,45.99z"/>
	<path class="st4" d="M98.06,43.43c-1.38,0-1.38,2.14,0,2.14C99.44,45.57,99.44,43.43,98.06,43.43z"/>
	<path class="st4" d="M84.43,54.59c-1.4,0-1.41,2.18,0,2.18C85.84,56.77,85.84,54.59,84.43,54.59z"/>
	<path class="st4" d="M51.66,51.57c-1.15,0-1.16,1.79,0,1.79C52.81,53.36,52.81,51.57,51.66,51.57z"/>
	<path class="st5" d="M10.41,45.85c-1.68,0-1.68,2.61,0,2.61C12.09,48.46,12.09,45.85,10.41,45.85z"/>
	<path class="st5" d="M17.35,44.38c-1.73,0-1.73,2.69,0,2.69C19.08,47.07,19.08,44.38,17.35,44.38z"/>
	<path class="st5" d="M43.49,54.85c-1.66,0-1.67,2.58,0,2.58C45.15,57.43,45.15,54.85,43.49,54.85z"/>
	<path class="st5" d="M52.07,59.57c-1.63,0-1.63,2.53,0,2.53C53.69,62.1,53.69,59.57,52.07,59.57z"/>
	<path class="st5" d="M59.42,60.44c-1.56,0-1.56,2.43,0,2.43C60.98,62.87,60.98,60.44,59.42,60.44z"/>
	<path class="st5" d="M67.18,50.09c-1.21,0-1.21,1.88,0,1.88C68.39,51.98,68.39,50.09,67.18,50.09z"/>
	<path class="st5" d="M70.44,52.76c-1.72,0-1.72,2.67,0,2.67C72.16,55.43,72.17,52.76,70.44,52.76z"/>
	<path class="st5" d="M76.77,50.12c-1.71,0-1.71,2.66,0,2.66C78.48,52.77,78.49,50.12,76.77,50.12z"/>
	<path class="st5" d="M82.29,41.3c-1.49,0-1.49,2.31,0,2.31C83.78,43.61,83.78,41.3,82.29,41.3z"/>
	<path class="st5" d="M88.82,51.73c-1.47,0-1.47,2.28,0,2.28C90.29,54.01,90.29,51.73,88.82,51.73z"/>
	<path class="st5" d="M99.03,58.79c-1.59,0-1.59,2.47,0,2.47C100.62,61.26,100.63,58.79,99.03,58.79z"/>
	<path class="st5" d="M107.2,61.97c-0.65,0-0.65,1.01,0,1.01C107.85,62.97,107.85,61.97,107.2,61.97z"/>
	<path class="st5" d="M110.67,60.45c-1.28,0-1.29,2,0,2C111.96,62.45,111.96,60.45,110.67,60.45z"/>
	<path class="st5" d="M112.1,57.05c-1.46,0-1.46,2.27,0,2.27C113.56,59.32,113.57,57.05,112.1,57.05z"/>
	<path class="st5" d="M115.98,49.8c-1.32,0-1.32,2.05,0,2.05C117.3,51.86,117.31,49.8,115.98,49.8z"/>
	<path class="st5" d="M119.66,46.43c-1.46,0-1.46,2.27,0,2.27C121.12,48.7,121.12,46.43,119.66,46.43z"/>
	<path class="st5" d="M127.83,54.53c-1.55,0-1.55,2.41,0,2.41C129.38,56.94,129.38,54.53,127.83,54.53z"/>
	<path class="st5" d="M126.6,59.36c-1.64,0-1.65,2.56,0,2.56C128.25,61.91,128.25,59.36,126.6,59.36z"/>
	<path class="st5" d="M152.33,59.36c-1.38,0-1.38,2.14,0,2.14C153.71,61.5,153.71,59.36,152.33,59.36z"/>
	<path class="st5" d="M17.76,61.43c-1.07,0-1.07,1.67,0,1.67C18.83,63.1,18.83,61.43,17.76,61.43z"/>
	<path class="st5" d="M28.78,61.82c-1.37,0-1.37,2.13,0,2.13C30.15,63.94,30.15,61.82,28.78,61.82z"/>
	<path class="st5" d="M33.48,63.7c-0.53,0-0.53,0.82,0,0.82C34.01,64.51,34.01,63.7,33.48,63.7z"/>
</g>
</svg>
