<?xml version="1.0" encoding="utf-8"?>
<!-- Generator: Adobe Illustrator 25.2.3, SVG Export Plug-In . SVG Version: 6.00 Build 0)  -->
<svg version="1.1" id="Layer_1" xmlns="http://www.w3.org/2000/svg" xmlns:xlink="http://www.w3.org/1999/xlink" x="0px" y="0px"
	 viewBox="0 0 156 208" style="enable-background:new 0 0 156 208;" xml:space="preserve">
<style type="text/css">
	.st0{fill:#A08B82;}
	.st1{fill:#7F6F69;}
	.st2{fill:#826C6C;}
	.st3{fill:#493E3C;}
	.st4{fill:#99837C;}
	.st5{fill:#BFA399;}
</style>
<g>
	<path class="st0" d="M137.88,208.45H68.9c-0.03-1.01-0.07-2.01-0.12-2.97c-0.31-5.2-0.94-10.24-2.19-15.3
		c-1.77-7.23-4.15-14.65-7.06-21.68c-0.87-0.11-1.69-0.51-2.32-1.3c-2.13-2.7-4.41-5.27-6.84-7.69c-1.07-1.08-2.19-2.13-3.33-3.14
		c-2.55-2.28-5.25-4.39-8.09-6.31c-1.02-0.69-2.06-1.35-3.1-1.97c-1.49-0.9-3-1.74-4.53-2.53c-0.81-0.42-1.62-0.82-2.44-1.21
		c-0.57-0.27-1.14-0.54-1.72-0.8c-3.93-1.8-7.98-3.35-12.09-4.83c-5.59-0.26-11.17-0.38-16.77-0.33V70.29
		c1.19-0.09,2.37-0.14,3.44-0.33c4.07-0.73,8.01-2.19,11.81-3.8c6.86-2.92,13.59-6.35,20.88-7.99c1.17-2.05,3.26-3.3,5.27-4.56
		c1.01-0.63,2-1.29,2.97-1.98c3.68-2.6,7.05-5.62,9.81-9.21c3.69-4.81,6.56-10.31,9.46-15.61c2.84-5.17,5.33-10.59,5.75-16.54
		c0.06-0.91,0.33-1.65,0.74-2.27c0.18-2.81,0.29-5.62,0.32-8.44l69.23,0c0.09,0.29,0.15,0.59,0.23,0.88
		c-0.2,0.24-0.34,0.56-0.34,0.96V208.45z"/>
	<path class="st1" d="M-1.7,73.06v-9.71c1.92,0.28,3.8,0.83,5.4-0.51c1.21-1.01,1.47-1.21,2.82-0.88c0.01,0,0.01,0.01,0.01,0.01
		c0.15,0.04,0.32,0.08,0.51,0.13c0.87,0.25,1.46,0.36,2.1,0.23c0,0,0.01,0,0.01,0c0.32-0.07,0.64-0.19,1.04-0.38
		c0.54-0.27,0.97-0.74,1.53-0.99c1.05-0.48,2.16-0.55,3.3-0.51c1.27,0.04,2.34,0.34,3.33,0.06c0.01,0.01,0.01,0.01,0.01,0
		c0.17-0.06,0.32-0.12,0.48-0.2c0.02-0.01,0.04-0.02,0.06-0.02c0.29-0.15,0.56-0.37,0.85-0.67c0.77-0.81,1.08-2.31,1.98-2.98
		c2.07-1.55,4.7,1.48,6.94,0.06c0.08-0.06,0.16-0.12,0.24-0.18c0.45-0.39,0.73-0.96,0.97-1.56c0.29-0.7,0.54-1.45,0.99-2
		c0.49-0.6,1.1-1.02,1.79-1.35c0.03-0.02,0.07-0.03,0.1-0.05c1.42-0.67,3.04-0.74,4.45-1.43c1.21-0.6,2.45-1.3,3.63-1.97
		c1.04-0.59,1.97-1.38,2.85-2.29c0.73-0.74,1.42-1.56,2.09-2.38c0.51-0.62,1.01-1.25,1.51-1.85c0.01,0,0.01-0.01,0.01-0.01
		c0.01-0.02,0.03-0.04,0.04-0.06c0.04-0.1,0.09-0.2,0.13-0.3c0.01-0.01,0.01-0.01,0.01-0.02c0.77-1.55,1.86-2.65,3.05-3.98
		c0.48-0.54,0.89-1.1,1.26-1.68c1.1-1.75,1.84-3.66,3.03-5.42c0.25-0.36,0.54-0.7,0.85-1.03c0.01,0,0.01,0,0.01-0.01
		c0.64-0.68,1.32-1.32,1.78-2.1c0.82-1.39,0.78-3.02,0.97-4.56c0.01-0.09,0.02-0.18,0.04-0.26c0-0.01,0-0.01,0-0.01
		c0.22-1.55,0.7-2.87,1.42-4.21C59.91,18,59.91,18,59.91,18c0.12-0.21,0.23-0.42,0.36-0.64c0.59-1.03,1.3-2.05,1.62-3.2
		c0.42-1.53,0.04-3.04,0.16-4.59c0.09-1.16,0.46-2.22,0.68-3.34c0.19-0.96,0.18-1.8,0.11-2.62c0-0.01,0-0.01,0-0.01
		c-0.06-0.79-0.18-1.56-0.21-2.43c-0.03-0.62-0.18-1.12,0.01-1.53c0.01-0.03-0.02-0.06,0-0.09h7.96c0.09,0.98,2.13,1.98,1.78,2.9
		c-0.19,0.51-0.77,1.01-0.91,1.48c-0.27,0.89,0.18,1.34,0.32,2.33c0.12,0.86-0.04,1.79-0.58,2.49c-0.4,0.5-1.37,0.75-1.51,1.34
		c-0.11,0.44,0.46,1.35,0.52,1.8c0.2,1.42-0.43,1.66-0.97,2.79c-0.55,1.14,0.15,2.44-0.18,3.75c-0.23,0.91-0.7,1.35-1.19,2.1
		c-0.74,1.13-0.91,1.72-0.81,3.13c0.09,1.39,0.09,2.46-0.76,3.68c-1.37,1.95-3.23,1.23-3.3,4.22c-0.04,1.79,0.89,3.09-0.04,4.83
		c-1.56,2.93-5.65,2.63-6.55,6.08c-0.39,1.5-0.24,2.92-1.53,4.03c-0.34,0.29-0.76,0.41-1.12,0.65c-1,0.23-1.69,0.89-2.08,1.98
		c-0.04,0.31-0.08,0.61-0.12,0.92c-0.28,0.58-0.59,1.1-0.94,1.57c-0.07,0.1-0.15,0.19-0.23,0.28c-1.1,1.34-2.56,2.07-4.52,1.78
		c-0.21,0.09-0.46,0.13-0.74,0.07c-1.02-0.19-3.28,2.55-3.68,3.24c-0.5,0.85-0.64,1.87-1.23,2.66c-0.79,1.07-1.93,1.62-3.22,1.82
		c-1.38,0.21-2.6-0.42-3.85,0.59c-0.47,0.38-0.77,1.07-1.18,1.53c-0.88,1.02-1.76,1.7-3.14,1.75c-0.75,0.02-1.54-0.47-2.22-0.41
		c-1.63,0.14-1.5,1.21-2.38,2.16c-1.07,1.15-2.54,1.68-4.09,1.65c-2.41-0.03-4.83-2.11-7.04-0.27c-1.42,1.17-1.8,2.85-3.55,3.75
		c-0.36,0.19-0.88,0.26-1.24,0c-2.83-2.09-3.77,0.7-6.19,1.51C0.87,74.16-0.42,73.18-1.7,73.06z"/>
	<path class="st1" d="M71.21,208.45h-9.19c0.32-0.72,1.75-1.61,1.98-2.52c0.01-0.02,0.02-0.06,0.02-0.09v-0.01
		c0.21-0.83,0.33-1.67,0.28-2.41c-0.02-0.02-0.05-0.04-0.07-0.06c-0.34-0.29-0.42-0.8-0.29-1.23c-0.7-1.37-2.11-2.35-2.75-3.82
		c-0.71-1.64-0.1-1.87,0.47-3.12c0,0,0,0,0-0.01c0.02-0.07,0.06-0.14,0.09-0.21c0.52-0.19,0.6-0.49,0.24-0.9
		c-0.06-0.35-0.23-0.63-0.51-0.85c-0.29-0.45-0.73-0.81-1-1.29c-0.09-0.14-0.15-0.28-0.21-0.42c-0.34-0.72-0.45-1.48-0.62-2.27
		c-0.06-0.24-0.12-0.44-0.21-0.63c-0.01-0.01-0.01-0.01-0.01-0.01c-0.24-0.55-0.59-0.93-0.78-1.54c-0.12-0.37-0.19-0.75-0.25-1.11
		c0-0.01,0-0.01-0.01-0.02v-0.02c-0.08-0.44-0.15-0.86-0.29-1.26c0-0.01,0-0.01-0.01-0.02c-0.17-0.5-0.47-0.94-1.05-1.32
		c-0.24-0.08-0.47-0.25-0.63-0.53c-1.19-2.02-0.61-3.97-1.29-6.08c-0.48-1.5-1.68-1.87-2.6-2.63c-0.34-0.28-0.64-0.61-0.85-1.07
		c-0.26-0.55-0.26-0.98-0.25-1.37c0.01-0.17,0.02-0.34,0.02-0.5c-0.04-0.03-0.09-0.06-0.13-0.09c-0.72-0.56-1.23-1.13-1.76-1.83
		c-0.1,0.01-0.19,0.01-0.29,0.01h-0.01c-0.1-0.01-0.2-0.04-0.29-0.12c-0.87-0.69-1.02-1.44-1-2.34c-0.15-0.1-0.31-0.2-0.47-0.28
		c-0.7-0.33-1.36-0.2-2-0.78c-1.12-1.04-0.82-2.51-0.97-3.83v-0.01c0-0.01,0-0.01,0-0.01c-0.1-0.81-0.36-1.57-1.23-2.13
		c-0.27-0.18-0.57-0.31-0.88-0.39c-0.02-0.01-0.05-0.02-0.07-0.02c-0.62-0.18-1.3-0.23-1.98-0.3c0,0-0.01,0-0.01,0
		c-0.01,0-0.01,0-0.01,0c-1.15-0.12-2.26-0.32-2.99-1.32c-0.42-0.59-0.34-1.19-0.59-1.81c-0.42-1.09,0.07-0.6-0.8-0.95h-0.01
		c-0.06-0.03-0.12-0.06-0.19-0.09c-1.08-0.49-1.84-1.15-2.73-1.58c-0.63-0.31-1.23-0.28-1.81-0.8c-0.29-0.26-0.44-0.65-0.66-0.95
		c-0.05-0.07-0.1-0.14-0.17-0.2c-0.67-0.65-1.56-1.04-2.54-1.15c-1.51-0.17-1.61-0.13-2.57-1.19c-0.01-0.01-0.01-0.01-0.01-0.01
		c-0.06-0.07-0.11-0.13-0.18-0.2c-0.16-0.18-0.26-0.36-0.32-0.53c-0.22-0.54-0.17-0.92-1.35-0.72c0,0-0.01,0-0.01,0
		c-0.07,0.01-0.17,0.03-0.25,0.05c-0.44,0.09-0.93,0.59-1.34,0.79c-0.39,0.18-0.75,0.29-1.13,0.37c-0.34,0.39-0.88,0.55-1.42,0.16
		c-0.07-0.04-0.13-0.09-0.19-0.15c-1.64-1.24-2.24-2.81-3.86-3.74c-0.07-0.04-0.13-0.09-0.21-0.12c-0.39-0.21-0.83-0.37-1.35-0.5
		c-0.88-0.21-1.75-0.42-2.62-0.64h-0.01c-0.01,0-0.02,0-0.02-0.01l-0.33-0.09c-0.01,0-0.01,0-0.02-0.01
		c-0.77-0.2-1.53-0.4-2.29-0.63c-0.03,0.06-0.07,0.12-0.11,0.17c-0.41,0.62-1.02,1.04-1.94,1.18c-0.18,0.03-0.34,0.04-0.5,0.04
		c-0.01,0-0.01,0-0.01,0c-0.55-0.01-1.02-0.19-1.61-0.31c-0.71-0.15-1.3-0.24-1.88-0.29c-0.01,0-0.01,0-0.01,0
		c-0.61-0.05-1.24-0.05-2.02-0.01c-0.67,0.03-1.38,0.04-1.98-0.15v-9.31c1.41-0.14,2.82-1.04,4.14-0.81
		c0.85,0.15,0.96,0.56,1.8,0.36c0.36-0.09,0.75-0.62,1.12-0.78c1.34-0.58,1.65,0.1,2.77,0.5c0.81,0.29,3.33,0.07,4.19,0.67
		c0.37,0.26,0.47,0.74,0.74,1.07c0,1.04,0.67,1.53,2.01,1.48c0.17-0.05,0.34-0.08,0.53-0.09c0.03-0.02,0.07-0.04,0.1-0.06
		c0.15-0.1,0.29-0.19,0.45-0.28c1-0.36,1.89-1.36,3.03-0.81c0.41,0.2,0.56,0.65,0.86,0.89c0.92,0.76,1.32,0.93,1.67,0.93
		c0.35,0,0.66-0.18,1.4-0.12c1.69,0.13,2.07,0.91,3.3,1.92c0.35-0.01,0.7,0.11,0.98,0.41c0.03,0.04,0.07,0.08,0.1,0.13
		c1.04,1.44,2.87,1.38,4.54,1.51c0.5,0.03,0.97,0.09,1.42,0.2c0.86,0.23,1.54,0.56,2.16,1.05c0.34,0.26,0.64,0.57,0.96,0.93
		c0.32,0.38,0.67,1.23,1.04,1.68c0.08,0.1,0.17,0.18,0.25,0.23c0.74,0.4,2.13-0.27,2.93-0.15c0.94,0.13,1.59,0.52,2.22,1.23
		c1.19,1.34,0.99,3.19,2.99,3.79c1.18,0.36,2.24-0.07,3.29,0.79c1.13,0.93,0.67,1.82,1.05,2.98c0.83,2.54,2.92,2.55,4.94,3.55
		c2.89,1.43,2.81,3.61,3.31,6.44c0.39,2.17,1.37,4.23,2.85,5.88c1.02,1.14,2.14,1.95,2.65,3.45c0.29,0.86,0.26,1.71,0.7,2.54
		c0.59,1.15,1.35,1.42,2.36,2.13c0.97,0.69,1.76,1.38,2.17,2.54c0.52,1.46,0.06,2.84,0.17,4.34c0.13,1.7,1.27,2.84,1.28,4.53
		c0.01,0.21-0.04,0.4-0.12,0.55c0.23,0.46,0.36,0.89,0.45,1.46c0.21,1.42,0.53,2.24,1.15,3.52c0.77,1.56,0.43,1.69-0.07,3.25
		c-0.55,1.72-0.17,1.27,0.5,2.48c0.47,0.83,0.72,1.37,0.8,2.34C73.63,204.89,71.37,206.63,71.21,208.45z"/>
	<path class="st2" d="M2.58,64.83c-0.12-0.01-0.25-0.01-0.39-0.01c-0.01,0-0.01,0-0.01,0c-0.97-0.01-2.53,0.01-3.88-0.18V51.62h5.44
		c0.07,0,0.13-0.01,0.19-0.01c0.83-0.09,0.34-0.15,0.87-0.27c0.48-0.12,0.89-0.33,1.42-0.37c1.49-0.1,3.54-0.38,5.04,0.28
		c0.21,0.09,0.43,0.23,0.66,0.37c0.99,0.65,2.05,1.56,2.6,0.29c0.04-0.1,0.07-0.2,0.09-0.29c0.1-0.61-0.16-1.27,0.21-1.87
		c0.87-1.42,1.83-0.52,2.95-0.64c0.14-0.14,0.34-0.25,0.59-0.29c1.46-0.25,1.91-2.22,3.27-2.78c0.59-0.25,1.02-0.09,1.6-0.19
		c0.15-0.02,0.25-0.02,0.33-0.02c0.03-0.05,0.06-0.1,0.09-0.15c0.73-1.2,0.97-1.81,2.42-2.16c0.32,0.04,0.66,0.09,0.99,0.13
		c0.81-0.28,1.44-0.74,1.9-1.38c0.5-0.45,0.79-1.03,1.39-1.4c0.67-0.41,1.28-0.55,2.06-0.43c0.22,0,0.42,0.06,0.61,0.17
		c0.21,0.18,0.38,0.29,0.5,0.32c0.08-0.04,0.17-0.08,0.25-0.12c0.04-0.15,0-0.44-0.13-0.87c0.58-1.18,0.68-1.78,1.89-2.54
		c0.94-0.59,2.05-0.77,2.99-1.3c1.21-0.69,1.02-1.38,1.05-2.68c0.03-1.13,0.17-2.3,1.08-3.09c0.62-0.55,1.27-0.39,1.91-0.75
		c1.56-0.86,0.96-1.1,1.3-2.29c0.43-1.5,0.8-1.72,1.89-2.82c1.48-1.5,1.72-2.52,1.77-4.45c0.01-0.64-0.03-1.26,0.24-1.86
		c0.25-0.53,0.77-0.81,1.05-1.26c0.57-0.03,0.72-0.29,0.44-0.77c-0.2-0.4-0.34-0.81-0.42-1.24c-0.15-1.18,0.27-1.71,1.06-2.49
		c0.31-0.16,0.62-0.31,0.94-0.43c0.77-0.78,0.87-1.57,0.32-2.36c-0.09-0.79-0.48-1.45-0.42-2.28c0.06-0.74,0.53-1.32,0.61-2
		c0.36-2.95-0.37-2.36-1.65-3.94c-0.57-0.7-0.67-1.25-0.69-1.83h13.64c-0.01,0.03,0.01,0.06,0,0.09c-0.18,1.31,0.19,2.63,0.21,3.96
		c0,0.01,0,0.01,0,0.01c0.02,0.86-0.01,1.71-0.2,2.57c-0.5,2.29-0.84,4.59-1.37,6.87c-0.38,1.64-0.85,3.3-1.37,4.96
		c0,0.01,0,0.01-0.01,0.01c-0.43,1.41-0.91,2.82-1.42,4.21c0,0.01,0,0.01,0,0.01c-0.64,1.79-1.31,3.55-1.98,5.25
		c-0.23,0.59-0.51,1.14-0.82,1.68c0,0.01,0,0.01-0.01,0.01c-0.59,1.04-1.27,2.02-1.84,3.07c-0.66,1.23-1.28,2.33-2.05,3.38
		c-0.37,0.51-0.77,1.01-1.23,1.51c-0.94,1.01-1.86,1.89-2.55,3.11c-0.2,0.34-0.36,0.7-0.53,1.05c-0.01,0.01-0.01,0.01-0.01,0.02
		c-0.06,0.12-0.12,0.24-0.18,0.36c0,0,0,0.01-0.01,0.01c-0.17,0.32-0.35,0.64-0.58,0.93c-0.29,0.38-0.6,0.69-0.93,0.93
		c-0.42,0.32-0.89,0.53-1.43,0.67c-0.2,0.56-0.4,1.15-0.66,1.71c-0.51,1.15-1.2,2.21-2.3,2.77c-2.33,1.21-4.99,1.65-7.32,2.96
		c-0.11,0.06-0.21,0.12-0.32,0.19c-2.02,1.22-3.06,3.38-4.83,4.72c-0.08,0.06-0.16,0.12-0.24,0.18c-0.1,0.07-0.2,0.15-0.31,0.22
		c-0.63,0.38-1.43,0.64-2.18,0.59c-1.06-0.06-2.37-1.14-3.38-0.99c-1.61,0.25-1.94,2.31-3.03,3.21c-0.26,0.22-0.55,0.4-0.86,0.55
		c-0.02,0.01-0.04,0.02-0.06,0.02c-0.15,0.07-0.31,0.14-0.48,0.2c0,0.01-0.01,0.01-0.01,0c-0.34,0.13-0.69,0.22-1.05,0.29
		c-1.32,0.28-2.68,0.21-4,0.49c-1.32,0.28-2.57,0.95-3.92,1.04c-0.08,0.01-0.16,0.01-0.23,0.01c-0.01,0-0.01,0-0.01,0
		c-0.89-0.01-1.73-0.36-2.61-0.37c0,0-0.01-0.01-0.01-0.01c-0.21,0-0.43,0.02-0.65,0.06c-1.52,0.32-0.69,0.6-1.36,1.59
		c-0.29,0.42-0.63,0.67-1.01,0.8c-0.04,0.05-0.07,0.09-0.12,0.13H3.38C3.19,64.74,2.92,64.84,2.58,64.83z"/>
	<path class="st2" d="M62.64,208.45H49.21c-0.07-0.79-0.09-1.58,0.07-2.33c0.17-0.8,0.74-1.24,1.04-1.89
		c0.9-2.03-0.2-2.48-0.55-4.23c-0.21-1.04,0.13-1.8,0.35-2.78c0.3-1.35,0.58-3.81,0.31-5.21c-0.45-2.32-1.84-1.77-3.16-3.06
		c-1.2-1.19-1.26-2.82-1.04-4.38c-0.15-0.09-0.31-0.17-0.46-0.25c-0.5-0.26-0.66-0.7-0.59-1.13c-0.07-0.2-0.06-0.45,0.04-0.72
		c-0.18,0.49-1.3-0.37-1.66-0.98c-0.72-1.18,0.1-2.34-0.28-3.42c-0.53-1.53-2.48-1.04-3.43-2.03c-0.85-0.87-0.52-1.64-0.73-2.68
		c-0.38-1.89-1.46-1.1-2.82-1.82c-1.07-0.56-1.13-1.32-1.56-2.32c-0.46-1.07,0.77-1.45-1.3-2.2c-0.47-0.17-1.25,0.1-1.78-0.02
		c-0.92-0.21-1.59-0.59-2.05-1.42c-0.25-0.46-0.23-0.84-0.37-1.32c-0.55-1.81-0.64-1.98-2.49-2.19c-1.56-0.17-3.57,0.86-5.07,0.17
		c-1.05-0.48-1-1.37-1.62-2.22c-1.58-2.16-4.09-0.53-6.03-1.35c-1.22-0.51-1.85-1.59-3.14-2c-1.39-0.45-2.49,0.25-3.87-0.08
		c-0.43-0.1-0.8-0.48-1.19-0.58c-1.85-0.48-2.55,0.2-3.98,0.71c-1.17,0.42-2.35-0.75-3.56-0.64v-12.92c0.34-0.04,0.71-0.04,1.1,0
		c0.22-0.01,0.43,0.01,0.63,0.09c0.74,0.13,1.51,0.34,2.27,0.55c0.01,0,0.01,0,0.01,0c1.32,0.37,2.59,0.73,3.49,0.61
		c0.01,0,0.01,0,0.01,0c0.48-0.07,0.85-0.28,1.07-0.69c0.29-0.57,0.86-0.69,1.37-0.53c0.29,0.09,0.56,0.28,0.74,0.53
		c0.52,0.69,1.02,1.03,1.52,1.18c0.03-0.01,0.07-0.02,0.1-0.03c0.61-0.16,1.21-0.15,1.76-0.04c0.76-0.16,1.54-0.34,2.4-0.03
		c0.08,0.03,0.16,0.07,0.23,0.1c0.07,0.04,0.14,0.08,0.21,0.12c0.92,0.62,1.15,1.84,1.98,2.63c0.59,0.56,1.21,0.94,1.87,1.11
		c0.06,0.02,0.12,0.03,0.17,0.04c0.35-0.29,0.85-0.41,1.37-0.18c0.04,0.02,0.09,0.04,0.13,0.06c0.12-0.04,0.23-0.07,0.35-0.13
		c0.51-0.24,0.81-0.83,1.46-0.99c0.31-0.07,0.58-0.08,0.85-0.04c0.01,0,0.01,0,0.01,0c0.51,0.09,0.94,0.35,1.35,0.72
		c0.01,0.01,0.02,0.02,0.04,0.03c0.21,0.19,0.34,0.44,0.47,0.7c0,0,0,0,0.01,0.01c0.12,0.23,0.23,0.47,0.4,0.66
		c3.06,3.4,1.57,0.55,3.52,1.25c0.43,0.15,0.81,0.36,1.23,0.57c0.04,0.02,0.08,0.04,0.12,0.06c1.08,0.56,2.24,1.04,3.37,1.48
		c0.99,0.38,1.62,1.07,2.02,1.93h0.01c0.5,1.04,0.67,2.32,0.8,3.57c0.23,0.07,0.4,0.21,0.54,0.37c0.95,0.2,2.02,0.12,3.04,0.15
		c0.01,0,0.01,0,0.01,0c0.01,0,0.01,0,0.01,0c0.69,0.02,1.37,0.08,1.98,0.3c0.02,0.01,0.05,0.02,0.07,0.02
		c0.26,0.1,0.51,0.24,0.75,0.42c0.66,0.49,1.07,1.26,1.35,2.1c0,0.01,0,0.01,0,0.01v0.01c0.26,0.78,0.4,1.62,0.51,2.32
		c0.42,2.68,1.15,0.96,2.89,1.93c1.12,0.63,1.08,1.96,1.34,3.11h0.01c0.17,0.81,0.49,1.53,1.45,1.84c0.33,0.1,0.57,0.31,0.71,0.57
		c0.1,0.18,0.17,0.39,0.19,0.61c0.19,0.3,0.37,0.6,0.56,0.9c0.26,0.22,0.37,0.58,0.35,0.93c-0.01,0.2-0.06,0.39-0.16,0.56
		c-0.15,0.26,1.79,1.61,2,1.86c0.56,0.69,0.81,1.29,0.98,2.14c0.19,0.97-0.32,2.08-0.08,3.01c0.36,1.42,1.2,1.41,2.1,2.18
		c0.35,0.3,0.58,0.56,0.74,0.82c0.01,0.01,0.01,0.01,0.01,0.02c0.24,0.4,0.29,0.79,0.29,1.26v0.02c0.01,0.01,0.01,0.01,0.01,0.02
		c0.01,0.32-0.01,0.7,0.02,1.15c0.09,1.48-0.36,0.41,0.82,1.34c0.06,0.05,0.13,0.1,0.19,0.17c0.01,0,0.01,0.01,0.01,0.01
		c0.31,0.28,0.59,0.62,0.74,0.99c0.21,0.49,0.12,1.06,0.16,1.57c-0.03,0.11-0.06,0.23-0.07,0.34c-0.12,0.7,0.01,1.39,0.39,2.06
		c0.32,0.23,0.59,0.5,0.81,0.81c0.1,0.26,0.17,0.53,0.21,0.8c0,0.01,0,0.01,0,0.01c0.06,0.34,0.07,0.69,0.05,1.04
		c-0.21,0.68-0.39,1.37-0.52,2.08c-0.01,0.05-0.02,0.1-0.03,0.15c0.1,0.88,0.52,1.52,1.24,1.9c0.87,1.08,1.59,1.95,1.26,3.49
		c-0.25,1.14-1.19,1.7-1.26,2.95C62.38,207.38,62.55,207.91,62.64,208.45z"/>
	<path class="st3" d="M62.75,208.45H60.3c0.04-0.29,1.15-0.58,1.23-0.88c-0.01,0-0.02-0.01-0.03-0.01c-0.87-0.36-1.19-1.3-0.54-2.05
		c1.58-1.83,1.61-2.38-0.21-3.93c-0.53-0.45-0.81-0.55-1.02-1.21c-0.44-1.36,0.23-3.29,0.95-4.8c-0.59-0.32-1.09-0.8-1.43-1.53
		c-0.88-1.87,1.05-3.96-1.86-4.64c-0.81-0.19-1.08-1.12-0.74-1.8c1.04-1.25,0.98-2.54-0.18-3.85c-0.35-0.04-0.69-0.14-1-0.29
		c-0.64-0.47-1.08-0.53-1.46-1.31c-0.74-1.52,1.61-6-1.68-5.89c-0.76,0.03-1.44-0.81-1.18-1.55c0.87-2.51-2-2.23-2.91-3.78
		c-0.61-1.03-0.69-2.4-0.63-3.67c-1.33,0.38-2.56,0.85-3.69-0.55c-1.68-2.07,0.51-6.64-3.04-6.81c-1.93-0.09-3.36,0.6-4.91-1.18
		c-0.94-1.07-1.18-2.44-0.91-3.75c-1.25-0.34-2.88-0.02-4.06-0.89c-0.72-0.54-1.24-1.21-1.58-1.98c-0.84,0.31-1.76,0.34-2.68-0.02
		c-1.29-0.51-2.43-3.63-3.72-3.21c-1.24,0.41-1.26,2.35-3.12,2.19c-2.17-0.19-3.8-3.34-5.02-4.8c-0.12-0.13-0.19-0.28-0.23-0.42
		c-1.04,0.01-3.63,0.73-4.39,0.47c-1.02-0.34-1.73-1.04-2.41-1.79c-0.21,0.46-0.41,1.05-0.46,1.17c-0.27,0.61-1.15,0.74-1.68,0.43
		c-2.33-1.31-4.86-1.4-7.41-1.16v-2.43c2.55-0.21,5.04-0.11,7.41,0.88c0.39-0.86,0.82-1.56,1.89-1.81c0.42-0.1,0.89-0.01,1.19,0.31
		c0.59,0.64,1.13,1.43,1.86,1.72c0.01,0.01,0.01,0.01,0.02,0.01c0.1,0.04,0.21,0.07,0.33,0.09c0.01,0.01,0.01,0.01,0.02,0.01h0.01
		c0.26,0.04,0.54,0.02,0.86-0.09c0.71-0.24,1.05-0.81,1.87-0.92c1.53-0.19,2.76,0.7,3.42,1.98c0.13,0.25,0.17,0.5,0.14,0.72
		c0.58,0.77,1.18,1.59,1.87,2.17c1.04,0.87,0.86,0.67,1.72,0.01c0.75-0.57,0.94-1.42,1.95-1.75c0.83-0.28,1.67-0.09,2.37,0.4
		c0.94,0.64,2.4,4.69,4.06,3.05c0.59-0.58,1.91-0.41,2.05,0.54c0.53,3.71,3.85,1.88,5.81,3.39c0.4,0.31,0.79,0.85,0.56,1.38
		c-0.8,1.34-0.07,2.35,2.21,3.01c0.29-0.14,0.6-0.25,0.92-0.34c0.47,0,0.88-0.17,1.38-0.1c0.94,0.13,1.73,0.72,2.3,1.47
		c0.93,1.22,0.85,2.58,1.02,4.01c-0.17,0.66-0.02,1.24,0.45,1.72c0.17,0.81,0.55,0.97,1.16,0.45c0.43,0.03,1.32-0.31,1.78-0.34
		c0.61-0.04,1.29,0.6,1.23,1.23c-0.17,1.71-0.4,3.15,1.28,4.14c0.61,0.36,1.24,0.23,1.8,0.83c0.82,0.88,0.86,2.11,0.64,3.26
		c0.93,0.25,1.75,0.78,2.31,1.68c0.41,0.65,0.6,1.38,0.62,2.15c0.01,0.73-0.76,2.02-0.57,2.65c0.41,1.32,2.79,1.49,3.44,3.06
		c0.55,1.34,0.26,2.66-0.26,3.91c0.76,0.29,1.47,0.69,1.94,1.35c0.67,0.94,0.29,4.75,1.07,4.85c0.9,0.11,1.56,0.96,1.06,1.84
		c-1.03,1.81-1.95,3.51-0.2,4.93c0.66,0.53,1.52,0.94,1.93,1.71c0.72,1.36-0.18,2.63-1.19,3.72v0.01c-0.02,0.02-0.04,0.04-0.06,0.06
		c0.01,0.01,0.02,0.02,0.03,0.03c0.29,0.28,0.45,0.67,0.27,1.11C64.08,207.53,62.85,207.99,62.75,208.45z"/>
	<path class="st3" d="M-1.7,64.74v-2.38c2.23,0.36,5.12,0.62,5.5-1.74c0.13-0.83,1.17-1.06,1.8-0.73c1.5,0.78,1.72,2.13,3.54,1.28
		c1.7-0.79,3.08-1.42,5-1.6c1.04-0.1,2.09-0.1,3.13-0.16c0.58-0.04,1.37,0.05,1.86-0.31c0.85-0.62,0.23-0.09,0.5-0.9
		c0.38-1.19,0.11-2.17,1.51-2.79c1.21-0.54,2.29,0.01,3.41,0.46c1.47,0.59,2.99,0.95,4.27-0.34c0.66-0.67,0.77-1.69,1.2-2.47
		c0.34-0.62,0.67-1.08,1.08-1.43c0.42-0.34,0.92-0.58,1.61-0.77c1.44-0.39,2.5-0.31,3.73-1.26c0.5-0.39,0.97-0.85,1.54-1.13
		c1.29-0.64,3.01-0.06,3.8-1.06c0.8-1.02,0.32-2.17,1.48-3.06c0.91-0.7,1.44-0.64,2.27-1.64c0.86-1.02,0.65-1.19,1.03-2.3
		c0.39-1.11,1.16-1.92,2.02-2.69c0.62-0.56,1.39-1.01,1.95-1.64c1-1.12,1.16-2.46,1.59-3.84c0.47-1.54,1.25-2.63,2.38-3.75
		c1.48-1.45,1.6-2.96,1.68-4.93c0.02-0.43-0.01-0.86,0.07-1.3c0.34-1.71,1.49-3.56,2.4-4.99c1.01-1.58,2.12-2.93,1.79-5.02
		c-0.07-0.45-0.45-0.8-0.51-1.28c-0.15-1.34,0.78-2.06,1.28-3.18c1.19-2.65-1.31-5.49-0.91-8.25h2.51
		c-0.77,2.22,1.42,4.72,1.23,7.03c-0.15,1.82-1.62,3.12-1.26,4.77c0.36,1.64,0.85,2.52-0.03,4.23c-1.34,2.6-4.23,5.01-3.99,8.17
		c0.14,1.89,0.53,2.87-0.72,4.59c-0.61,0.85-1.45,1.46-2.16,2.22c-1.08,1.16-1.32,2.32-1.75,3.77c-0.53,1.81-1.29,2.95-2.69,4.2
		c-0.62,0.56-1.38,1-1.91,1.64c-0.8,0.97-0.69,1.92-0.99,3.04c-0.4,1.45-1.19,1.68-2.27,2.5c-0.97,0.74-0.5-0.13-1.27,1.15
		c-0.59,0.99-0.26,0.62-0.48,1.19c-0.27,0.67-0.25,1.07-0.75,1.61c-1.09,1.13-2.4,0.53-3.74,0.78c-0.87,0.17-1.59,0.66-2.3,1.19
		c-0.79,0.58-1.57,1.19-2.54,1.42c-1.59,0.36-2.36,0.53-3.35,2.09c-0.31,0.5-0.45,1.07-0.82,1.57c-0.81,1.07-2,1.78-3.3,2.08
		c-1.92,0.45-2.73-0.57-4.42-0.8c-1.85-0.25-0.89,1.9-1.93,2.93c-0.9,0.89-2.5,0.85-3.66,0.93c-2.32,0.16-4.94-0.1-7,1.19
		c-1.17,0.73-2.06,1.96-3.62,1.45c-0.74-0.24-1.16-0.85-1.61-1.42c-0.51,0.75-1.24,1.23-2.1,1.49H3.38
		c-0.37,0.13-0.77,0.21-1.19,0.26c-0.01,0-0.01,0-0.01,0C0.94,64.99-0.44,64.89-1.7,64.74z"/>
	<path class="st4" d="M115.52,15.77c0.42-0.25,0.76-0.59,1.01-1.01c0.12-0.17,0.17-0.29,0.26-0.5c0.14-0.34,0.27-0.77,0.23-1.15
		c-0.08-0.71-0.24-1.41-0.79-1.91c-0.18-0.14-0.36-0.28-0.55-0.42c-0.42-0.24-0.88-0.37-1.36-0.37c-0.55-0.06-1.2,0.17-1.65,0.5
		c-0.42,0.25-0.76,0.59-1.01,1.01c-0.26,0.44-0.38,0.92-0.39,1.43c0.03,0.75,0.29,1.46,0.83,2c0.51,0.51,1.27,0.83,2,0.83
		C114.6,16.15,115.08,16.02,115.52,15.77z"/>
	<path class="st4" d="M124.92,16.7c0-3.68-5.72-3.69-5.72,0C119.2,20.38,124.92,20.39,124.92,16.7z"/>
	<path class="st4" d="M123.07,29.35c0.47-0.47,0.83-1.25,0.8-1.93c-0.03-0.71-0.26-1.44-0.8-1.93c-0.5-0.46-1.23-0.88-1.93-0.8
		c-0.55,0.06-1.12,0.08-1.64,0.3c-0.5,0.21-0.8,0.41-1.24,0.78c-0.42,0.35-0.71,1.11-0.68,1.65c0.03,0.59,0.22,1.25,0.68,1.65
		c0.43,0.37,0.74,0.57,1.24,0.78c0.52,0.22,1.08,0.24,1.64,0.3C121.79,30.22,122.63,29.79,123.07,29.35z"/>
	<path class="st4" d="M97.8,33.24c0-3.08-4.79-3.08-4.79,0C93.01,36.32,97.8,36.33,97.8,33.24z"/>
	<path class="st4" d="M89.21,22.52c0-2.28-3.54-2.28-3.54,0C85.67,24.8,89.21,24.8,89.21,22.52z"/>
	<path class="st4" d="M101.67,26.03c0.44-0.44,0.74-1.26,0.5-1.87c-0.17-0.42-0.33-0.82-0.59-1.2c-0.42-0.62-1.09-1.11-1.88-1.08
		c-0.58,0.03-1.12,0.22-1.54,0.64c-0.39,0.39-0.64,0.98-0.64,1.54c0,0.81,0.43,1.44,1.08,1.88c0.38,0.26,0.78,0.42,1.2,0.59
		C100.41,26.77,101.23,26.47,101.67,26.03z"/>
	<path class="st4" d="M113.8,43.96c0-2.77-4.31-2.78-4.31,0C109.49,46.73,113.8,46.74,113.8,43.96z"/>
	<path class="st4" d="M87.26,50.39c0-3.31-5.15-3.32-5.15,0C82.11,53.71,87.26,53.71,87.26,50.39z"/>
	<path class="st4" d="M75.93,64.18c0-4.11-6.39-4.12-6.39,0C69.54,68.29,75.93,68.3,75.93,64.18z"/>
	<path class="st4" d="M83.2,10.27c0-2.18-2.05-3.03-3.66-2.58c-0.77-0.5-2.08-0.15-2.08,1.05c0,0.32,0.1,0.58,0.25,0.78
		c-0.06,0.23-0.1,0.48-0.1,0.75C77.6,13.87,83.2,13.88,83.2,10.27z"/>
	<path class="st4" d="M103.64,10.98c0-0.94-0.77-1.39-1.51-1.34c-0.01-3.13-4.88-3.13-4.88,0.01c0,2.17,2.34,2.84,3.78,2.01
		C101.63,12.73,103.64,12.51,103.64,10.98z"/>
	<path class="st4" d="M137.01,48.86c0-3.87-6.01-3.87-6.01,0C131,52.73,137.01,52.73,137.01,48.86z"/>
	<path class="st4" d="M132.28,36.92c0-3.3-5.12-3.3-5.12,0C127.15,40.21,132.28,40.22,132.28,36.92z"/>
	<path class="st4" d="M118.49,64.18c0-2.89-4.5-2.9-4.5,0C113.99,67.07,118.49,67.08,118.49,64.18z"/>
	<path class="st4" d="M102.84,61.73c0-2.46-3.83-2.47-3.83,0C99.01,64.19,102.84,64.2,102.84,61.73z"/>
	<path class="st4" d="M94.87,75.82c0-3.65-5.67-3.66-5.67,0C89.2,79.47,94.87,79.47,94.87,75.82z"/>
	<path class="st4" d="M79.29,36c0-3.7-5.74-3.7-5.74,0C73.54,39.69,79.29,39.7,79.29,36z"/>
	<path class="st4" d="M66.58,57.13c0-2.71-4.21-2.71-4.21,0C62.36,59.84,66.58,59.85,66.58,57.13z"/>
	<path class="st4" d="M51.54,63.87c0-2.68-4.16-2.68-4.16,0C47.38,66.55,51.54,66.56,51.54,63.87z"/>
	<path class="st4" d="M51.75,79.19c0-4.13-6.41-4.13-6.41,0C45.33,83.32,51.75,83.32,51.75,79.19z"/>
	<path class="st4" d="M41.9,78.88c0-4.07-6.32-4.07-6.32,0C35.58,82.95,41.9,82.95,41.9,78.88z"/>
	<path class="st4" d="M31.38,72.14c0-3.54-5.5-3.55-5.5,0C25.88,75.68,31.38,75.69,31.38,72.14z"/>
	<path class="st4" d="M22.36,81.39c0.59-0.48,0.98-1.21,0.98-2.2c0-2.01-1.64-2.97-3.2-2.87c-0.22-1.88-3.25-1.82-3.25,0.21
		c0,0.66,0.32,1.12,0.77,1.36c-0.17,0.37-0.27,0.8-0.27,1.29c0,1.68,1.15,2.63,2.43,2.83C20.46,82.94,22.22,82.72,22.36,81.39z"/>
	<path class="st4" d="M11.91,79.8c0-3.71-5.77-3.72-5.77,0C6.14,83.51,11.91,83.52,11.91,79.8z"/>
	<path class="st4" d="M14.88,99.71c0-3.99-6.2-3.99-6.2,0C8.68,103.7,14.88,103.71,14.88,99.71z"/>
	<path class="st4" d="M18.16,104c0-3.08-4.79-3.08-4.79,0C13.37,107.08,18.16,107.08,18.16,104z"/>
	<path class="st4" d="M31.92,95.73c0-3.83-5.96-3.84-5.96,0C25.96,99.56,31.92,99.57,31.92,95.73z"/>
	<path class="st4" d="M24.33,95.93c0-0.27-0.1-0.48-0.25-0.63c0.75-0.3,1.33-0.97,1.33-2.03c0-2.96-4.59-2.96-4.59,0
		c0,1.27,0.86,2,1.83,2.17c-0.08,0.13-0.14,0.29-0.14,0.48C22.51,97.11,24.33,97.11,24.33,95.93z"/>
	<path class="st4" d="M7.79,88.38c0-1.28-1.12-2.5-2.44-2.44C4.03,86,2.91,87.01,2.91,88.38c0,1.28,1.12,2.5,2.44,2.44
		C6.67,90.76,7.79,89.75,7.79,88.38z"/>
	<path class="st4" d="M7.11,109.82c0-3.05-4.74-3.05-4.74,0C2.37,112.87,7.11,112.87,7.11,109.82z"/>
	<path class="st4" d="M11.84,120.85c0-3.62-5.62-3.62-5.62,0C6.21,124.47,11.84,124.47,11.84,120.85z"/>
	<path class="st4" d="M8.56,129.73c0-3.34-5.19-3.35-5.19,0C3.37,133.07,8.56,133.08,8.56,129.73z"/>
	<path class="st4" d="M22.06,135.86c0-4.16-6.46-4.16-6.46,0C15.6,140.01,22.06,140.02,22.06,135.86z"/>
	<path class="st4" d="M36.94,139.23c0-3.6-5.6-3.61-5.6,0C31.34,142.83,36.94,142.84,36.94,139.23z"/>
	<path class="st4" d="M47.6,126.67c0-3.91-6.08-3.92-6.08,0C41.52,130.58,47.6,130.59,47.6,126.67z"/>
	<path class="st4" d="M32.05,117.78c0-3.22-5-3.22-5,0C27.05,121,32.05,121.01,32.05,117.78z"/>
	<path class="st4" d="M24.28,112.88c0-3.08-4.79-3.08-4.79,0C19.5,115.96,24.28,115.97,24.28,112.88z"/>
	<path class="st4" d="M45.38,102.32c0.6,1.2,2.8,0.98,2.8-0.67c0-1.22-1.21-1.65-2.08-1.31c0,0,0-0.01,0-0.01
		c0-3.96-6.15-3.96-6.15,0C39.95,103.44,43.75,104.1,45.38,102.32z"/>
	<path class="st4" d="M57.89,107.98c0-3.76-5.84-3.76-5.84,0C52.05,111.74,57.89,111.75,57.89,107.98z"/>
	<path class="st4" d="M57.34,127.28c0-3.83-5.96-3.84-5.96,0C51.38,131.11,57.34,131.12,57.34,127.28z"/>
	<path class="st4" d="M61.6,93.28c0-3.4-5.29-3.41-5.29,0C56.31,96.68,61.6,96.69,61.6,93.28z"/>
	<path class="st4" d="M87.34,103.08c0-3.02-4.69-3.02-4.69,0C82.65,106.1,87.34,106.1,87.34,103.08z"/>
	<path class="st4" d="M83.12,114.11c0-3.11-4.83-3.12-4.83,0C78.29,117.22,83.12,117.22,83.12,114.11z"/>
	<path class="st4" d="M74.1,138.31c0-3.33-5.17-3.33-5.17,0C68.93,141.63,74.1,141.64,74.1,138.31z"/>
	<path class="st4" d="M70.04,145.4c-0.01,0.05-0.02,0.1-0.02,0.16c0,1.52,2.37,1.53,2.37,0c0-1.37-1.91-1.51-2.3-0.41
		c0.02-0.13,0.04-0.26,0.04-0.41c0-2.96-4.59-2.96-4.59,0C65.54,147.45,69.4,147.67,70.04,145.4z"/>
	<path class="st4" d="M56.31,139.84c0-3.3-5.12-3.3-5.12,0C51.19,143.13,56.31,143.14,56.31,139.84z"/>
	<path class="st4" d="M59.89,145.05c0-3.96-6.15-3.96-6.15,0C53.74,149,59.89,149.01,59.89,145.05z"/>
	<path class="st4" d="M73.75,88.99c0-4.07-6.32-4.07-6.32,0C67.44,93.06,73.75,93.06,73.75,88.99z"/>
	<path class="st4" d="M87.19,89.91c0-4.4-6.84-4.41-6.84,0C80.34,94.31,87.19,94.32,87.19,89.91z"/>
	<path class="st4" d="M113.39,107.68c0-4.22-6.56-4.23-6.56,0C106.83,111.9,113.39,111.9,113.39,107.68z"/>
	<path class="st4" d="M102.73,121.46c0-3.51-5.46-3.52-5.46,0C97.27,124.97,102.73,124.98,102.73,121.46z"/>
	<path class="st4" d="M89.6,130.96c0-3.96-6.15-3.96-6.15,0C83.45,134.91,89.6,134.92,89.6,130.96z"/>
	<path class="st4" d="M94.12,140.15c0-3.46-5.38-3.47-5.38,0C88.73,143.61,94.12,143.62,94.12,140.15z"/>
	<path class="st4" d="M107.85,141.98c0-3-4.67-3.01-4.67,0C103.18,144.99,107.85,144.99,107.85,141.98z"/>
	<path class="st4" d="M111.1,149.64c0-4.03-6.27-4.04-6.27,0C104.83,153.68,111.1,153.68,111.1,149.64z"/>
	<path class="st4" d="M94.24,149.64c0-3.62-5.62-3.62-5.62,0C88.61,153.26,94.24,153.27,94.24,149.64z"/>
	<path class="st4" d="M79.63,147.5c0-3.74-5.82-3.75-5.82,0C73.81,151.24,79.63,151.25,79.63,147.5z"/>
	<path class="st4" d="M66.49,157.3c0-4.17-6.49-4.18-6.49,0C60,161.47,66.49,161.48,66.49,157.3z"/>
	<path class="st4" d="M69.74,168.02c0-3.63-5.65-3.64-5.65,0C64.1,171.65,69.74,171.66,69.74,168.02z"/>
	<path class="st4" d="M78.41,174.15c0-3.36-5.22-3.36-5.22,0C73.19,177.5,78.41,177.51,78.41,174.15z"/>
	<path class="st4" d="M89.79,174.15c0-3.42-5.31-3.42-5.31,0C84.48,177.57,89.79,177.57,89.79,174.15z"/>
	<path class="st4" d="M85.39,183.95c0-4.07-6.32-4.07-6.32,0C79.08,188.01,85.39,188.02,85.39,183.95z"/>
	<path class="st4" d="M79.62,194.67c0-2.94-4.57-2.95-4.57,0C75.05,197.61,79.62,197.62,79.62,194.67z"/>
	<path class="st4" d="M85.91,205.39c0-1.97-3.06-1.97-3.06,0C82.85,207.36,85.91,207.37,85.91,205.39z"/>
	<path class="st4" d="M103.29,199.57c0-2.65-4.12-2.65-4.12,0C99.17,202.22,103.29,202.22,103.29,199.57z"/>
	<path class="st4" d="M106.64,195.59c0-1.61-1.18-2.46-2.43-2.55c-0.82-0.61-2.3-0.28-2.4,1c-0.3,0.4-0.48,0.92-0.48,1.55
		C101.33,199.01,106.64,199.01,106.64,195.59z"/>
	<path class="st4" d="M115.42,199.26c0-3.28-5.1-3.29-5.1,0C110.32,202.54,115.42,202.55,115.42,199.26z"/>
	<path class="st4" d="M122.83,202.33c0-3.36-5.22-3.36-5.22,0C117.61,205.68,122.83,205.69,122.83,202.33z"/>
	<path class="st4" d="M129.83,194.67c0-3.7-5.74-3.7-5.74,0C124.09,198.37,129.83,198.37,129.83,194.67z"/>
	<path class="st4" d="M128.42,183.34c0-3.06-4.76-3.07-4.76,0C123.66,186.4,128.42,186.41,128.42,183.34z"/>
	<path class="st4" d="M116.14,179.97c0-3.82-5.93-3.83-5.93,0C110.21,183.79,116.14,183.79,116.14,179.97z"/>
	<path class="st4" d="M108.71,170.47c0-1-0.77-1.5-1.55-1.5c0.13-0.27,0.2-0.58,0.2-0.95c0-2.66-3.95-2.76-4.28-0.32
		c-0.53,0.07-1.01,0.45-1.01,1.14c0,1.1,1.22,1.41,1.92,0.93c0.48,0.29,1.09,0.39,1.65,0.29c-0.03,0.13-0.05,0.26-0.05,0.41
		C105.59,172.48,108.71,172.48,108.71,170.47z"/>
	<path class="st4" d="M101.71,164.96c0-2.59-4.02-2.59-4.02,0C97.69,167.54,101.71,167.55,101.71,164.96z"/>
	<path class="st4" d="M102.47,181.82c0.55-0.6,0.89-1.33,0.89-2.16c0-0.78-0.34-1.6-0.89-2.16c-0.53-0.53-1.4-0.93-2.16-0.89
		c-0.79,0.04-1.61,0.29-2.16,0.89c-0.55,0.6-0.89,1.33-0.89,2.16c0,0.78,0.34,1.6,0.89,2.16c0.53,0.53,1.4,0.93,2.16,0.89
		C101.1,182.68,101.92,182.42,102.47,181.82z"/>
	<path class="st4" d="M130.51,171.7c0-3.79-5.89-3.79-5.89,0C124.63,175.48,130.51,175.49,130.51,171.7z"/>
	<path class="st4" d="M137.88,162.78c-1.46-0.26-3.14,0.56-3.14,2.49c0,1.92,1.68,2.74,3.14,2.49V162.78z"/>
	<path class="st4" d="M137.88,150.86c-1.13-0.73-3.05-0.22-3.05,1.54c0,1.75,1.92,2.26,3.05,1.54V150.86z"/>
	<path class="st4" d="M129.37,150.87c0-2.09-1.75-3.06-3.37-2.91c-1-2.64-5.64-2.29-5.64,1.07c0,1.96,1.58,2.89,3.1,2.81
		C124.37,154.73,129.37,154.41,129.37,150.87z"/>
	<path class="st4" d="M124.85,132.79c0-3.99-6.2-3.99-6.2,0C118.65,136.78,124.85,136.79,124.85,132.79z"/>
	<path class="st4" d="M125.2,120.23c0-4.05-6.29-4.06-6.29,0C118.91,124.28,125.2,124.29,125.2,120.23z"/>
	<path class="st4" d="M110.4,91.55c0.48-0.13,0.89-0.38,1.24-0.72c0.35-0.35,0.59-0.77,0.72-1.24c0.13-0.5,0.13-1,0-1.5
		c-0.01-0.06-0.02-0.12-0.03-0.19c-0.17-0.98-1.14-1.8-2.06-2.06c-1.01-0.28-2.12,0.01-2.86,0.76c-0.74,0.74-1.04,1.85-0.76,2.86
		c0.25,0.92,1.07,1.89,2.06,2.06c0.06,0.01,0.12,0.02,0.19,0.03C109.4,91.69,109.9,91.69,110.4,91.55z"/>
	<path class="st4" d="M102.66,86.4c0.52,0.42,1.52,0.2,1.52-0.67c0-0.91-1.09-1.11-1.58-0.61c-0.79-3.41-6.51-3.14-6.51,0.82
		C96.09,90.01,102.19,90.18,102.66,86.4z"/>
	<path class="st4" d="M130.19,81.95c0-4.16-6.46-4.16-6.46,0C123.73,86.1,130.19,86.11,130.19,81.95z"/>
	<path class="st4" d="M125.4,71.22c0-3.91-6.08-3.92-6.08,0C119.32,75.14,125.4,75.14,125.4,71.22z"/>
	<path class="st4" d="M131.67,65.71c0-2.91-4.52-2.92-4.52,0C127.15,68.62,131.67,68.63,131.67,65.71z"/>
	<path class="st4" d="M137.88,66.87c-0.55,0.51-0.91,1.24-0.91,2.21c0,0.97,0.37,1.7,0.91,2.2V66.87z"/>
	<path class="st4" d="M133.16,88.68c0-3.65-5.67-3.66-5.67,0C127.49,92.33,133.16,92.34,133.16,88.68z"/>
	<path class="st4" d="M137.88,104.4c-1.66-0.43-3.7,0.45-3.7,2.67c0,2.21,2.05,3.1,3.7,2.67V104.4z"/>
	<path class="st4" d="M131.28,110.43c0-3.2-4.98-3.21-4.98,0C126.31,113.64,131.28,113.64,131.28,110.43z"/>
	<path class="st4" d="M137.88,121.71c-0.52,0.29-0.91,0.81-0.91,1.59c0,0.25,0.05,0.48,0.12,0.68c-1.05,0.21-1.96,1-1.96,2.39
		c0,1.72,1.41,2.53,2.74,2.43V121.71z"/>
	<path class="st4" d="M119.4,103.57c1.71-1,1.77-3.64,0-4.63c-0.82-0.46-1.87-0.58-2.71-0.09c-0.37,0.21-0.7,0.57-0.92,0.93
		c-0.3,0.5-0.33,0.91-0.4,1.48c0,0.48,0.12,0.93,0.37,1.35c0.24,0.4,0.56,0.72,0.96,0.96C117.52,104.06,118.57,104.06,119.4,103.57z
		"/>
	<path class="st4" d="M110.67,24.66c0-2.69-4.19-2.7-4.19,0C106.48,27.36,110.67,27.36,110.67,24.66z"/>
	<path class="st4" d="M71.5,114.41c0-3.93-6.1-3.93-6.1,0C65.4,118.34,71.5,118.35,71.5,114.41z"/>
	<path class="st4" d="M71.5,126.97c0-3.93-6.1-3.93-6.1,0C65.4,130.9,71.5,130.91,71.5,126.97z"/>
	<path class="st5" d="M98.85,45.08c0-4.56-7.08-4.57-7.08,0C91.76,49.64,98.85,49.65,98.85,45.08z"/>
	<path class="st5" d="M114.87,53.05c0-2.26-2.19-3.12-3.84-2.56c-0.12-0.63-0.42-1.23-0.86-1.68c-0.54-0.54-1.44-0.95-2.22-0.92
		c-0.81,0.04-1.65,0.3-2.22,0.92c-0.56,0.61-0.92,1.37-0.92,2.22c0,0.8,0.35,1.65,0.92,2.22c0.54,0.54,1.44,0.95,2.22,0.92
		c0.47-0.02,0.95-0.13,1.38-0.33C110.09,56.65,114.87,56.4,114.87,53.05z"/>
	<path class="st5" d="M126.19,49.37c0-4-6.22-4.01-6.22,0C119.97,53.38,126.19,53.38,126.19,49.37z"/>
	<path class="st5" d="M131.96,48.76c0-1.97-3.06-1.97-3.06,0C128.9,50.73,131.96,50.73,131.96,48.76z"/>
	<path class="st5" d="M133.07,38.55c0-0.1-0.01-0.2-0.01-0.29c0.11,0.13,0.24,0.24,0.37,0.35c0.22,0.19,0.63,0.08,0.61-0.25
		c-0.01-0.18-0.02-0.37-0.05-0.55c0-0.01-0.02-0.12-0.04-0.18c0.18-0.37,0.17-0.78-0.08-1.12c-0.28-0.36-0.76-0.49-1.18-0.31
		c-0.16,0.07-0.29,0.18-0.39,0.3c-1.65-1.69-5.32-1.01-5.32,2.04C126.97,42.48,133.07,42.48,133.07,38.55z"/>
	<path class="st5" d="M130.69,22.42c0-4.02-6.25-4.03-6.25,0C124.45,26.44,130.69,26.44,130.69,22.42z"/>
	<path class="st5" d="M129.23,15.68c0-3.71-5.77-3.72-5.77,0C123.46,19.39,129.23,19.4,129.23,15.68z"/>
	<path class="st5" d="M129.73,9.55c0-3.57-5.55-3.58-5.55,0C124.18,13.12,129.73,13.13,129.73,9.55z"/>
	<path class="st5" d="M100.71,24.66c0-3.8-5.91-3.81-5.91,0C94.8,28.47,100.71,28.47,100.71,24.66z"/>
	<path class="st5" d="M88.76,16.7c0-3.4-5.29-3.41-5.29,0C83.47,20.1,88.76,20.11,88.76,16.7z"/>
	<path class="st5" d="M76.53,28.14c0-3.7-5.74-3.7-5.74,0C70.79,31.83,76.53,31.84,76.53,28.14z"/>
	<path class="st5" d="M77.11,39.78c0-4.17-6.49-4.18-6.49,0C70.62,43.95,77.11,43.96,77.11,39.78z"/>
	<path class="st5" d="M67.39,49.17c0-3.23-5.03-3.24-5.03,0C62.36,52.4,67.39,52.41,67.39,49.17z"/>
	<path class="st5" d="M92.78,62.85c0-3.06-3.53-3.84-5.34-2.35c-1.06-3.13-6.5-2.76-6.5,1.13c0,3.24,3.79,4.04,5.66,2.4
		C87.68,66.91,92.78,66.53,92.78,62.85z"/>
	<path class="st5" d="M101.05,75.72c0-4.23-6.58-4.24-6.58,0C94.47,79.95,101.05,79.96,101.05,75.72z"/>
	<path class="st5" d="M112.74,71.02c0-3.24-4.64-3.49-5.35-0.74c-0.73-0.58-2.12-0.27-2.12,0.95c0,1.28,1.54,1.56,2.23,0.85
		C108.46,74.48,112.74,74.14,112.74,71.02z"/>
	<path class="st5" d="M137.88,50.05c-0.6,0.47-1,1.19-1,2.19c0,0.99,0.41,1.71,1,2.18V50.05z"/>
	<path class="st5" d="M137.88,62.02c-0.72,0.5-1.22,1.32-1.22,2.47c0,1.14,0.5,1.96,1.22,2.46V62.02z"/>
	<path class="st5" d="M137.88,76.97v-2.09c-0.98-2.94-6.08-2.6-6.08,1.04C131.8,79.55,136.9,79.91,137.88,76.97z"/>
	<path class="st5" d="M137.88,134.78c-0.26,0.22-0.43,0.54-0.43,0.98c0,0.44,0.17,0.76,0.43,0.98V134.78z"/>
	<path class="st5" d="M137.88,129.48c-1.66-0.8-4.13-0.01-4.13,2.4c0,2.4,2.47,3.19,4.13,2.4V129.48z"/>
	<path class="st5" d="M137.88,116.64v-3.01c-1.33-2.43-5.88-1.93-5.88,1.51C132,118.56,136.55,119.06,137.88,116.64z"/>
	<path class="st5" d="M124.59,117.17c0-3.26-5.07-3.27-5.07,0C119.52,120.44,124.59,120.44,124.59,117.17z"/>
	<path class="st5" d="M121.95,94.3c0-1.97-3.06-1.97-3.06,0C118.89,96.27,121.95,96.27,121.95,94.3z"/>
	<path class="st5" d="M114.89,100.22c0-3.13-4.86-3.13-4.86,0C110.03,103.35,114.89,103.35,114.89,100.22z"/>
	<path class="st5" d="M109.29,107.37c0-1.97-3.06-1.97-3.06,0C106.23,109.34,109.29,109.34,109.29,107.37z"/>
	<path class="st5" d="M98.34,102.06c0-1.7-1.74-2.28-2.93-1.74c0.45-0.46,0.75-1.1,0.75-1.94c0-3.73-5.79-3.73-5.79,0
		c0,2.52,2.65,3.34,4.37,2.44c-0.26,0.31-0.42,0.72-0.42,1.24C94.32,104.65,98.34,104.65,98.34,102.06z"/>
	<path class="st5" d="M117.53,82.25c0-3.63-5.65-3.64-5.65,0C111.88,85.89,117.53,85.89,117.53,82.25z"/>
	<path class="st5" d="M73.82,95.73c0-3.62-5.62-3.62-5.62,0C68.19,99.35,73.82,99.35,73.82,95.73z"/>
	<path class="st5" d="M76.72,81.43c0-3.42-5.31-3.42-5.31,0C71.41,84.85,76.72,84.86,76.72,81.43z"/>
	<path class="st5" d="M73.83,75.51c0-3.63-5.65-3.64-5.65,0C68.18,79.15,73.83,79.15,73.83,75.51z"/>
	<path class="st5" d="M61.17,74.29c0-3.37-5.24-3.38-5.24,0C55.93,77.66,61.17,77.67,61.17,74.29z"/>
	<path class="st5" d="M52.77,66.94c0-3.08-4.79-3.08-4.79,0C47.99,70.02,52.77,70.02,52.77,66.94z"/>
	<path class="st5" d="M42.65,79.19c0-2.93-4.55-2.93-4.55,0C38.1,82.11,42.65,82.12,42.65,79.19z"/>
	<path class="st5" d="M28.94,81.23c0-3.42-5.31-3.42-5.31,0C23.63,84.65,28.94,84.65,28.94,81.23z"/>
	<path class="st5" d="M22.28,86.54c0-3.26-5.07-3.27-5.07,0C17.21,89.8,22.28,89.81,22.28,86.54z"/>
	<path class="st5" d="M15.58,86.13c0-3.83-5.96-3.84-5.96,0C9.62,89.97,15.58,89.97,15.58,86.13z"/>
	<path class="st5" d="M9.39,82.05c0-2.97-4.62-2.98-4.62,0C4.78,85.02,9.39,85.02,9.39,82.05z"/>
	<path class="st5" d="M14.49,102.47c0-3.74-5.82-3.75-5.82,0C8.67,106.21,14.49,106.22,14.49,102.47z"/>
	<path class="st5" d="M11.88,112.07c0-3.02-4.69-3.02-4.69,0C7.19,115.08,11.88,115.09,11.88,112.07z"/>
	<path class="st5" d="M19.03,124.93c0-3.02-4.69-3.02-4.69,0C14.34,127.95,19.03,127.95,19.03,124.93z"/>
	<path class="st5" d="M29.44,133.1c0-4.33-6.72-4.33-6.72,0C22.71,137.43,29.44,137.43,29.44,133.1z"/>
	<path class="st5" d="M41.4,133.1c0-4.48-6.96-4.49-6.96,0c0,0.01,0,0.01,0,0.02c-0.66,0.08-1.27,0.55-1.27,1.41
		c0,1.38,1.55,1.76,2.41,1.13C37.56,137.29,41.4,136.44,41.4,133.1z"/>
	<path class="st5" d="M34.49,113.29c0-3.99-6.2-3.99-6.2,0C28.29,117.28,34.49,117.29,34.49,113.29z"/>
	<path class="st5" d="M37.08,102.47c0-3.65-5.67-3.66-5.67,0C31.41,106.12,37.08,106.12,37.08,102.47z"/>
	<path class="st5" d="M51.48,107.78c0-2.73-4.24-2.73-4.24,0C47.24,110.5,51.48,110.51,51.48,107.78z"/>
	<path class="st5" d="M68.94,106.96c0-3.91-6.08-3.92-6.08,0C62.86,110.87,68.94,110.88,68.94,106.96z"/>
	<path class="st5" d="M69.49,114.93c0-3.57-5.55-3.58-5.55,0C63.94,118.5,69.49,118.5,69.49,114.93z"/>
	<path class="st5" d="M59.06,126.16c0-1.97-3.06-1.97-3.06,0C55.99,128.13,59.06,128.13,59.06,126.16z"/>
	<path class="st5" d="M66.26,149.44c0-2.3-2.12-3.24-3.85-2.81c-0.16-3.77-6.09-3.72-6.09,0.16c0,2.34,2.17,3.29,3.92,2.84
		C60.43,153.31,66.26,153.26,66.26,149.44z"/>
	<path class="st5" d="M72.13,138.21c0-2.23-3.47-2.24-3.47,0C68.66,140.44,72.13,140.44,72.13,138.21z"/>
	<path class="st5" d="M73.08,129.22c0-3.73-5.79-3.73-5.79,0C67.29,132.95,73.08,132.95,73.08,129.22z"/>
	<path class="st5" d="M87.25,119.62c0-3.82-5.93-3.83-5.93,0C81.31,123.44,87.25,123.45,87.25,119.62z"/>
	<path class="st5" d="M103.72,133.1c0-4.27-6.63-4.27-6.63,0C97.1,137.37,103.72,137.37,103.72,133.1z"/>
	<path class="st5" d="M113.79,132.08c0-3.82-5.93-3.83-5.93,0C107.86,135.9,113.79,135.9,113.79,132.08z"/>
	<path class="st5" d="M77.45,157.81c0-0.13-0.01-0.25-0.04-0.37c1.38-0.25,2.59-1.29,2.59-3.1c0-4.22-6.56-4.23-6.56,0
		c0,1.02,0.38,1.78,0.96,2.31c-0.27,0.28-0.45,0.66-0.45,1.16C73.96,160.05,77.45,160.06,77.45,157.81z"/>
	<path class="st5" d="M92.51,152.09c0-3.5-5.43-3.5-5.43,0C87.08,155.59,92.51,155.59,92.51,152.09z"/>
	<path class="st5" d="M92.88,168.02c0-3.45-5.36-3.45-5.36,0C87.52,171.47,92.88,171.48,92.88,168.02z"/>
	<path class="st5" d="M79.01,173.74c0-2.16-3.35-2.16-3.35,0C75.66,175.89,79.01,175.9,79.01,173.74z"/>
	<path class="st5" d="M83.84,184.56c0-4.17-6.49-4.18-6.49,0C77.36,188.73,83.84,188.74,83.84,184.56z"/>
	<path class="st5" d="M89.37,199.88c0-2.83-2.97-3.75-4.89-2.76c-0.01-0.49-0.13-0.98-0.4-1.44c-0.19-0.33-0.44-0.61-0.72-0.83
		c0-0.03,0.02-0.05,0.02-0.08c0-0.72-0.85-0.88-1.25-0.49c-0.09-0.02-0.18-0.04-0.27-0.05c-0.95-0.13-1.87,0.15-2.56,0.84
		c-0.38,0.38-0.64,0.83-0.78,1.35c-0.15,0.54-0.15,1.08,0,1.62c0.22,1.46,1.08,2.98,2.66,3.19c0.69,0.09,1.31-0.1,1.81-0.49
		C83.8,204.04,89.37,203.76,89.37,199.88z"/>
	<path class="st5" d="M101.87,201.72c0-4.25-6.6-4.26-6.6,0C95.27,205.97,101.87,205.97,101.87,201.72z"/>
	<path class="st5" d="M119.99,203.76c0-3.91-6.08-3.92-6.08,0C113.91,207.67,119.99,207.68,119.99,203.76z"/>
	<path class="st5" d="M132.74,202.12c0-3.5-5.43-3.5-5.43,0C127.3,205.62,132.74,205.63,132.74,202.12z"/>
	<path class="st5" d="M128.27,186.2c0-4.05-6.29-4.06-6.29,0C121.97,190.25,128.27,190.25,128.27,186.2z"/>
	<path class="st5" d="M120.99,176.8c0-3.88-6.03-3.89-6.03,0C114.96,180.68,120.99,180.69,120.99,176.8z"/>
	<path class="st5" d="M108.23,182.38c0.96-0.35,1.72-1.18,1.72-2.51c0-3.6-5.6-3.61-5.6,0c0,1.33,0.76,2.16,1.72,2.51
		C106.45,183.25,107.85,183.26,108.23,182.38z"/>
	<path class="st5" d="M107.08,157.61c0-4.37-6.8-4.38-6.8,0C100.28,161.98,107.08,161.99,107.08,157.61z"/>
	<path class="st5" d="M117.96,157.61c0-3.4-5.29-3.41-5.29,0C112.67,161.01,117.96,161.01,117.96,157.61z"/>
	<path class="st5" d="M127.82,163.74c1.61,2.56,6.54,1.95,6.54-1.85c0-4.33-6.42-4.52-6.99-0.57c-0.97-0.49-2.45-0.03-2.45,1.39
		C124.91,164.38,126.97,164.72,127.82,163.74z"/>
	<path class="st5" d="M137.88,153.25c-0.99,0.41-1.76,1.32-1.76,2.72c0,1.4,0.77,2.3,1.76,2.71V153.25z"/>
	<path class="st5" d="M128.42,142.09c0-3.73-5.79-3.73-5.79,0C122.63,145.81,128.42,145.82,128.42,142.09z"/>
	<path class="st5" d="M137.88,93.55c-0.51-0.36-1.16-0.61-1.76-0.58c-1.61,0.07-2.98,1.31-2.98,2.98c0,0.76,0.33,1.57,0.87,2.11
		c0.52,0.52,1.36,0.91,2.11,0.87c0.65-0.03,1.26-0.26,1.76-0.62V93.55z"/>
	<g>
		<path class="st5" d="M109.53,4.71c0.02,0.01,0.03,0.01,0.05,0.02C109.61,4.74,109.61,4.74,109.53,4.71z"/>
		<path class="st5" d="M109.07,6.73c0.06-0.02,0.12-0.04,0.19-0.05c0.12-0.02,0.12-0.03,0.01-0.03c0.12-0.01,0.23-0.03,0.35-0.05
			c0.04-0.02,0.07-0.03,0.1-0.04c0.65-0.07,0.94-0.87,0.49-1.36c-0.03-0.03-0.04-0.05-0.05-0.06c-0.03-0.03-0.06-0.08-0.11-0.15
			c-0.14-0.14-0.29-0.2-0.46-0.27c-0.06-0.02-0.26-0.09-0.32-0.1c-0.16-0.03-0.31-0.04-0.47-0.03c-0.65,0.05-1.16,0.54-1.06,1.23
			C107.81,6.45,108.44,6.92,109.07,6.73z"/>
	</g>
	<path class="st5" d="M121.82,5.9c0.45-0.17,0.64-0.7,0.29-1.08c-0.11-0.11-0.22-0.23-0.32-0.34c-0.01-0.02-0.05-0.07-0.07-0.09
		c-0.04-0.08-0.11-0.21-0.04-0.02c-0.15-0.36-0.36-0.65-0.76-0.76c-0.34-0.09-0.68-0.02-0.95,0.2c-0.63,0.49-0.52,1.37,0.11,1.8
		C120.57,5.92,121.24,6.12,121.82,5.9z"/>
	<path class="st5" d="M122.79,9.35c0-1.21-1.88-1.21-1.88,0C120.91,10.56,122.79,10.56,122.79,9.35z"/>
	<path class="st5" d="M103.06,25.48c0-1.3-2.02-1.3-2.02,0C101.03,26.78,103.06,26.79,103.06,25.48z"/>
	<path class="st5" d="M102.14,30.99c0-0.91-1.41-0.91-1.41,0C100.73,31.9,102.14,31.9,102.14,30.99z"/>
	<path class="st5" d="M111.56,30.59c0-0.68-1.06-0.68-1.06,0C110.5,31.27,111.56,31.27,111.56,30.59z"/>
	<path class="st5" d="M117.36,30.99c0-0.79-1.23-0.8-1.23,0C116.13,31.79,117.36,31.79,117.36,30.99z"/>
	<path class="st5" d="M125.49,30.99c0-0.21-0.33-0.21-0.33,0C125.16,31.21,125.49,31.21,125.49,30.99z"/>
	<path class="st5" d="M128.59,32.14c0.44-0.15,0.87-0.27,1.33-0.37c0.36-0.08,0.36-0.65,0-0.73c-0.46-0.1-0.89-0.22-1.33-0.37
		c-0.48-0.16-0.97,0.27-0.97,0.74C127.62,31.88,128.11,32.31,128.59,32.14z"/>
	<path class="st5" d="M137.66,45.9c0-1.42-2.21-1.43-2.21,0C135.45,47.32,137.66,47.33,137.66,45.9z"/>
	<path class="st5" d="M134.87,48.76c0-0.45-0.7-0.45-0.7,0C134.16,49.21,134.87,49.21,134.87,48.76z"/>
	<path class="st5" d="M115.5,40.39c0-1.55-2.41-1.55-2.41,0C113.09,41.94,115.5,41.94,115.5,40.39z"/>
	<path class="st5" d="M86.37,25.28c0-1.38-2.14-1.38-2.14,0C84.23,26.65,86.37,26.66,86.37,25.28z"/>
	<path class="st5" d="M79.45,22.62c0-1.4-2.18-1.41-2.18,0C77.26,24.03,79.45,24.03,79.45,22.62z"/>
	<path class="st5" d="M73.28,23.23c0-0.04-0.06-0.04-0.06,0C73.22,23.27,73.28,23.27,73.28,23.23z"/>
	<path class="st5" d="M69.81,47.74c0-0.04-0.06-0.04-0.06,0C69.75,47.78,69.81,47.78,69.81,47.74z"/>
	<path class="st5" d="M93.67,49.17c0-2.11-3.27-2.11-3.27,0C90.4,51.28,93.67,51.28,93.67,49.17z"/>
	<path class="st5" d="M94.97,57.54c0-1.4-2.18-1.41-2.18,0C92.78,58.95,94.97,58.95,94.97,57.54z"/>
	<path class="st5" d="M74.86,60.2c0-1.54-2.4-1.55-2.4,0C72.46,61.74,74.86,61.74,74.86,60.2z"/>
	<path class="st5" d="M67.29,62.85c0-1-1.55-1-1.55,0C65.74,63.85,67.29,63.85,67.29,62.85z"/>
	<path class="st5" d="M55.18,62.44c0-1.71-2.66-1.71-2.66,0C52.52,64.15,55.18,64.15,55.18,62.44z"/>
	<path class="st5" d="M56.06,58.56c0-1.53-2.38-1.54-2.38,0C53.68,60.1,56.06,60.1,56.06,58.56z"/>
	<path class="st5" d="M59.8,63.87c0-0.04-0.06-0.04-0.06,0C59.74,63.91,59.8,63.91,59.8,63.87z"/>
	<path class="st5" d="M60.21,77.35c0-0.04-0.06-0.04-0.06,0C60.15,77.39,60.21,77.39,60.21,77.35z"/>
	<path class="st5" d="M54.29,83.07c0-0.04-0.06-0.04-0.06,0C54.23,83.11,54.29,83.11,54.29,83.07z"/>
	<path class="st5" d="M55.78,90.83c0-1.7-2.64-1.7-2.64,0C53.14,92.53,55.78,92.53,55.78,90.83z"/>
	<path class="st5" d="M58.13,98.59c0-1.3-2.02-1.3-2.02,0C56.11,99.89,58.13,99.89,58.13,98.59z"/>
	<path class="st5" d="M57.55,88.58c0-1.61-2.5-1.61-2.5,0C55.05,90.19,57.55,90.19,57.55,88.58z"/>
	<path class="st5" d="M62.16,80.82c0-1.23-1.91-1.23-1.91,0C60.25,82.05,62.16,82.05,62.16,80.82z"/>
	<path class="st5" d="M61.04,85.72c0-1.63-2.53-1.63-2.53,0C58.51,87.35,61.04,87.35,61.04,85.72z"/>
	<path class="st5" d="M47.81,86.95c0-1.69-2.63-1.69-2.63,0C45.18,88.64,47.81,88.64,47.81,86.95z"/>
	<path class="st5" d="M39.3,82.86c0-1.52-2.35-1.52-2.35,0C36.95,84.38,39.3,84.38,39.3,82.86z"/>
	<path class="st5" d="M34.41,76.33c0-1-1.55-1-1.55,0C32.86,77.33,34.41,77.33,34.41,76.33z"/>
	<path class="st5" d="M41.21,67.55c0-1.61-2.5-1.61-2.5,0C38.71,69.16,41.21,69.16,41.21,67.55z"/>
	<path class="st5" d="M35.12,70.82c0-1.64-2.56-1.65-2.56,0C32.56,72.46,35.12,72.46,35.12,70.82z"/>
	<path class="st5" d="M26.24,77.35c0-1.79-2.79-1.8-2.79,0C23.46,79.14,26.24,79.15,26.24,77.35z"/>
	<path class="st5" d="M15.98,79.8c0-0.8-0.51-1.28-1.11-1.43c-0.2-1.17-2.12-1.1-2.12,0.2c0,0.28,0.09,0.51,0.24,0.67
		c-0.06,0.16-0.1,0.34-0.1,0.55C12.89,81.79,15.98,81.79,15.98,79.8z"/>
	<path class="st5" d="M16.35,95.32c0-1.94-3.02-1.94-3.02,0C13.34,97.26,16.35,97.26,16.35,95.32z"/>
	<path class="st5" d="M22.07,103.69c0-1.41-2.2-1.42-2.2,0C19.87,105.11,22.07,105.11,22.07,103.69z"/>
	<path class="st5" d="M26.75,100.22c0-1.13-1.75-1.13-1.75,0C25,101.35,26.75,101.35,26.75,100.22z"/>
	<path class="st5" d="M20.7,117.58c0-2.01-3.13-2.02-3.13,0C17.57,119.59,20.7,119.6,20.7,117.58z"/>
	<path class="st5" d="M16.64,120.03c0-1.52-2.35-1.52-2.35,0C14.28,121.55,16.64,121.55,16.64,120.03z"/>
	<path class="st5" d="M21.92,130.85c0-2-3.12-2.01-3.12,0C18.8,132.86,21.92,132.86,21.92,130.85z"/>
	<path class="st5" d="M44.52,142.9c0-1.92-2.99-1.92-2.99,0C41.53,144.82,44.52,144.83,44.52,142.9z"/>
	<path class="st5" d="M48.68,145.15c0-1.76-2.73-1.76-2.73,0C45.95,146.9,48.68,146.91,48.68,145.15z"/>
	<path class="st5" d="M52.17,148.01c0-1.52-2.35-1.52-2.35,0C49.81,149.52,52.17,149.53,52.17,148.01z"/>
	<path class="st5" d="M54.04,129.63c0-0.77-1.19-0.77-1.19,0C52.85,130.4,54.04,130.4,54.04,129.63z"/>
	<path class="st5" d="M49.97,117.99c0-1.84-2.86-1.84-2.86,0C47.11,119.83,49.97,119.83,49.97,117.99z"/>
	<path class="st5" d="M57.37,116.15c0-1.64-2.54-1.64-2.54,0C54.83,117.79,57.37,117.79,57.37,116.15z"/>
	<path class="st5" d="M67.58,119.83c0-1.64-2.56-1.65-2.56,0C65.03,121.47,67.58,121.47,67.58,119.83z"/>
	<path class="st5" d="M72.68,108.19c0-1.64-2.54-1.64-2.54,0C70.14,109.82,72.68,109.82,72.68,108.19z"/>
	<path class="st5" d="M77.91,103.49c0-1.79-2.79-1.8-2.79,0C75.12,105.28,77.91,105.28,77.91,103.49z"/>
	<path class="st5" d="M88.55,115.54c0-2.09-3.25-2.09-3.25,0C85.31,117.63,88.55,117.63,88.55,115.54z"/>
	<path class="st5" d="M88.71,119.62c0-0.71-1.11-0.71-1.11,0C87.6,120.33,88.71,120.33,88.71,119.62z"/>
	<path class="st5" d="M76.8,136.57c0-1.15-1.78-1.15-1.78,0C75.01,137.72,76.8,137.72,76.8,136.57z"/>
	<path class="st5" d="M70.14,141.27c0-1.52-2.35-1.52-2.35,0C67.78,142.78,70.14,142.79,70.14,141.27z"/>
	<path class="st5" d="M71.85,147.8c0-0.04-0.06-0.04-0.06,0C71.79,147.84,71.85,147.84,71.85,147.8z"/>
	<path class="st5" d="M81.55,73.06c0-0.96-1.49-0.96-1.49,0C80.06,74.02,81.55,74.02,81.55,73.06z"/>
	<path class="st5" d="M91.68,86.56c0.52,0.59,1.77,0.38,1.77-0.64c0-1.28-2-1.29-2,0c0,0.01,0,0.02,0,0.03
		c-0.47-0.47-1.51-0.28-1.51,0.59C89.94,87.65,91.65,87.66,91.68,86.56z"/>
	<path class="st5" d="M97.09,90.83c0-1.51-2.34-1.51-2.34,0C94.75,92.33,97.09,92.34,97.09,90.83z"/>
	<path class="st5" d="M100.95,97.82c0.89-0.25,1.37-1.55,0.58-2.21c-0.16-0.14-0.32-0.25-0.48-0.34c-0.25-0.19-0.52-0.31-0.86-0.22
		c-0.33,0.09-0.5,0.33-0.62,0.62c-0.1,0.16-0.18,0.33-0.25,0.52C98.97,97.17,100.04,98.07,100.95,97.82z"/>
	<path class="st5" d="M86.53,73.95c0.41-0.18,0.48-0.76,0.29-1.11c-0.29-0.52-0.77-0.83-1.24-1.16c-0.72-0.51-1.77,0.02-1.98,0.81
		c-0.23,0.85,0.43,1.69,1.3,1.71C85.47,74.21,85.99,74.19,86.53,73.95z"/>
	<path class="st5" d="M110.47,67.75c0-0.59-0.92-0.59-0.92,0C109.55,68.34,110.47,68.34,110.47,67.75z"/>
	<path class="st5" d="M111.94,59.38c0-1.43-2.23-1.43-2.23,0C109.71,60.81,111.94,60.81,111.94,59.38z"/>
	<path class="st5" d="M120.08,66.53c0-1.4-2.18-1.41-2.18,0C117.9,67.93,120.08,67.93,120.08,66.53z"/>
	<path class="st5" d="M124.53,74.9c0-1.34-2.08-1.34-2.08,0C122.45,76.24,124.53,76.24,124.53,74.9z"/>
	<path class="st5" d="M128.61,78.58c0-1.6-2.48-1.6-2.48,0C126.12,80.17,128.61,80.18,128.61,78.58z"/>
	<path class="st5" d="M137.88,69.67v-1.39c-0.55-0.52-1.71-0.29-1.71,0.69C136.17,69.96,137.33,70.19,137.88,69.67z"/>
	<path class="st5" d="M137.88,162.12v-1.67c-0.72-1.12-2.89-0.85-2.89,0.83C134.99,162.96,137.16,163.24,137.88,162.12z"/>
	<path class="st5" d="M127.4,149.44c0-1.63-2.53-1.63-2.53,0C124.88,151.06,127.4,151.07,127.4,149.44z"/>
	<path class="st5" d="M127.79,133.1c0-0.8-1.25-0.81-1.25,0C126.54,133.9,127.79,133.91,127.79,133.1z"/>
	<path class="st5" d="M131.3,126.97c0-1.9-2.96-1.91-2.96,0C128.34,128.88,131.3,128.88,131.3,126.97z"/>
	<path class="st5" d="M122.91,126.97c0-2.15-3.35-2.16-3.35,0C119.57,129.13,122.91,129.13,122.91,126.97z"/>
	<path class="st5" d="M113.4,126.16c0-2-3.1-2-3.1,0C110.3,128.15,113.4,128.16,113.4,126.16z"/>
	<path class="st5" d="M112.45,111.45c0-1.03-1.61-1.04-1.61,0C110.84,112.49,112.45,112.49,112.45,111.45z"/>
	<path class="st5" d="M126.83,100.83c0-1.94-3.02-1.94-3.02,0C123.82,102.77,126.83,102.78,126.83,100.83z"/>
	<path class="st5" d="M128.53,106.14c0-1.76-2.73-1.76-2.73,0C125.8,107.9,128.53,107.9,128.53,106.14z"/>
	<path class="st5" d="M100.65,136.78c0-0.04-0.06-0.04-0.06,0C100.58,136.82,100.65,136.82,100.65,136.78z"/>
	<path class="st5" d="M105.41,142.9c0-2.23-3.46-2.23-3.46,0C101.95,145.13,105.41,145.13,105.41,142.9z"/>
	<path class="st5" d="M97.19,111.25c0-0.85-1.32-0.85-1.32,0C95.87,112.1,97.19,112.1,97.19,111.25z"/>
	<path class="st5" d="M104.57,112.47c0-2.2-3.42-2.2-3.42,0C101.15,114.67,104.57,114.68,104.57,112.47z"/>
	<path class="st5" d="M89.36,143.31c0-1.28-2-1.29-2,0C87.36,144.6,89.36,144.6,89.36,143.31z"/>
	<path class="st5" d="M79.73,147.19c0-0.98-1.52-0.98-1.52,0C78.21,148.17,79.73,148.17,79.73,147.19z"/>
	<path class="st5" d="M69.11,149.85c0-0.45-0.7-0.45-0.7,0C68.41,150.3,69.11,150.3,69.11,149.85z"/>
	<path class="st5" d="M84,165.57c0-1.49-2.31-1.49-2.31,0C81.69,167.06,84,167.06,84,165.57z"/>
	<path class="st5" d="M78.39,169.86c0-2.14-3.33-2.15-3.33,0C75.06,172,78.39,172.01,78.39,169.86z"/>
	<path class="st5" d="M79.13,176.6c0-1.52-2.37-1.53-2.37,0C76.76,178.12,79.13,178.12,79.13,176.6z"/>
	<path class="st5" d="M91.17,179.66c0-2.03-3.16-2.04-3.16,0C88.01,181.69,91.17,181.7,91.17,179.66z"/>
	<path class="st5" d="M95.76,182.52c0-2.16-3.36-2.17-3.36,0C92.4,184.68,95.76,184.69,95.76,182.52z"/>
	<path class="st5" d="M95.68,189.26c0-0.95-0.77-1.39-1.51-1.34c0.02-0.09,0.04-0.19,0.04-0.3c0-1.48-2.3-1.48-2.3,0
		c0,0.71,0.53,1.08,1.08,1.1c-0.06,0.16-0.1,0.33-0.1,0.53C92.89,191.05,95.68,191.05,95.68,189.26z"/>
	<path class="st5" d="M102.12,192.53c0-1.67-2.6-1.68-2.6,0C99.52,194.2,102.12,194.2,102.12,192.53z"/>
	<path class="st5" d="M109.01,187.01c0-0.81-1.26-0.81-1.26,0C107.74,187.83,109.01,187.83,109.01,187.01z"/>
	<path class="st5" d="M119.4,188.85c0-1.84-2.86-1.84-2.86,0C116.54,190.69,119.4,190.69,119.4,188.85z"/>
	<path class="st5" d="M123.78,191.3c0-1.95-3.03-1.95-3.03,0C120.75,193.25,123.78,193.25,123.78,191.3z"/>
	<path class="st5" d="M114.68,172.72c0-2.07-3.22-2.07-3.22,0C111.46,174.79,114.68,174.79,114.68,172.72z"/>
	<path class="st5" d="M114.74,162.71c0-1.1-1.71-1.1-1.71,0C113.03,163.81,114.74,163.81,114.74,162.71z"/>
	<path class="st5" d="M124.05,164.55c0-2.04-3.17-2.05-3.17,0C120.88,166.59,124.05,166.59,124.05,164.55z"/>
	<path class="st5" d="M117.19,150.66c0-1.1-1.71-1.1-1.71,0C115.48,151.76,117.19,151.76,117.19,150.66z"/>
	<path class="st5" d="M112.49,146.58c0-1.62-2.51-1.62-2.51,0C109.98,148.2,112.49,148.2,112.49,146.58z"/>
	<path class="st5" d="M115.47,144.33c0-1.51-2.34-1.51-2.34,0C113.13,145.84,115.47,145.84,115.47,144.33z"/>
	<path class="st5" d="M99.12,184.56c0-1.49-2.31-1.49-2.31,0C96.8,186.05,99.12,186.05,99.12,184.56z"/>
	<path class="st5" d="M125.51,175.53c0.53,1.4,3,1.21,3-0.57c0-1.87-2.72-1.99-3.07-0.35c-0.5-1.04-2.4-0.85-2.4,0.56
		C123.04,176.66,125.16,176.78,125.51,175.53z"/>
	<path class="st5" d="M128.92,182.11c0-1.74-2.7-1.74-2.7,0C126.22,183.85,128.92,183.85,128.92,182.11z"/>
	<path class="st5" d="M130.27,177.41c0-1.38-2.14-1.38-2.14,0C128.13,178.79,130.27,178.79,130.27,177.41z"/>
	<path class="st5" d="M121.41,159.44c0-2.06-3.2-2.06-3.2,0C118.21,161.5,121.41,161.51,121.41,159.44z"/>
	<path class="st5" d="M129.17,154.34c0-1.8-2.8-1.8-2.8,0C126.37,156.14,129.17,156.14,129.17,154.34z"/>
	<path class="st5" d="M114.04,181.91c0-0.46-0.72-0.46-0.72,0C113.33,182.37,114.04,182.37,114.04,181.91z"/>
	<path class="st5" d="M101.06,188.85c0-1.37-2.13-1.37-2.13,0C98.94,190.22,101.06,190.22,101.06,188.85z"/>
	<path class="st5" d="M93.92,196.2c0-1.37-2.13-1.37-2.13,0C91.79,197.57,93.92,197.57,93.92,196.2z"/>
	<path class="st5" d="M80.84,190.48c0-0.04-0.06-0.04-0.06,0C80.78,190.52,80.84,190.52,80.84,190.48z"/>
	<path class="st5" d="M75.6,184.56c0-1.97-3.06-1.97-3.06,0C72.54,186.53,75.6,186.53,75.6,184.56z"/>
	<path class="st5" d="M75.7,178.44c0-1.57-2.44-1.57-2.44,0C73.25,180.01,75.7,180.01,75.7,178.44z"/>
	<path class="st5" d="M98.63,193.34c0-2.18-3.39-2.18-3.39,0C95.24,195.52,98.63,195.53,98.63,193.34z"/>
	<path class="st5" d="M112.04,193.55c0-1.56-2.43-1.56-2.43,0C109.61,195.11,112.04,195.11,112.04,193.55z"/>
	<path class="st5" d="M115.35,192.93c0-0.04-0.06-0.04-0.06,0C115.29,192.97,115.35,192.97,115.35,192.93z"/>
	<path class="st4" d="M100.52,174.96c0-0.3-0.1-0.54-0.26-0.71c0.64-0.16,1.19-0.67,1.19-1.53c0-2.13-3.3-2.13-3.3,0
		c0,0.61,0.28,1.04,0.66,1.3c-0.32,0.17-0.55,0.48-0.55,0.95C98.26,176.41,100.52,176.42,100.52,174.96z"/>
	<path class="st4" d="M105.95,175.78c0-1.88-2.91-1.88-2.91,0C103.04,177.66,105.95,177.66,105.95,175.78z"/>
	<path class="st4" d="M118.54,167.41c0-0.46-0.72-0.46-0.72,0C117.82,167.87,118.54,167.87,118.54,167.41z"/>
	<path class="st4" d="M120.72,163.12c0-0.12-0.19-0.12-0.19,0C120.53,163.24,120.72,163.24,120.72,163.12z"/>
	<path class="st4" d="M126.23,164.55c0-0.91-1.41-0.91-1.41,0C124.82,165.45,126.23,165.46,126.23,164.55z"/>
	<path class="st4" d="M129.2,179.86c0-1.84-2.86-1.84-2.86,0C126.35,181.7,129.2,181.71,129.2,179.86z"/>
	<path class="st4" d="M122.38,185.79c0-1.99-3.09-1.99-3.09,0C119.29,187.77,122.38,187.78,122.38,185.79z"/>
	<path class="st4" d="M120.79,196.2c0-2.05-3.19-2.05-3.19,0C117.6,198.25,120.79,198.26,120.79,196.2z"/>
	<path class="st4" d="M90.03,191.91c0-1.88-2.93-1.89-2.93,0C87.1,193.8,90.03,193.8,90.03,191.91z"/>
	<path class="st4" d="M84.1,181.09c0-1.61-2.5-1.61-2.5,0C81.6,182.7,84.1,182.7,84.1,181.09z"/>
	<path class="st4" d="M79.1,158.83c0-1.49-2.31-1.49-2.31,0C76.79,160.32,79.1,160.32,79.1,158.83z"/>
	<path class="st4" d="M63.65,138.82c0-1.57-2.44-1.57-2.44,0C61.21,140.39,63.65,140.39,63.65,138.82z"/>
	<path class="st4" d="M60.15,131.06c0-1.01-1.57-1.01-1.57,0C58.58,132.07,60.15,132.07,60.15,131.06z"/>
	<path class="st4" d="M72.2,127.99c0-2.06-3.2-2.06-3.2,0C68.99,130.06,72.2,130.06,72.2,127.99z"/>
	<path class="st4" d="M81.02,127.79c0-1.33-2.07-1.33-2.07,0C78.96,129.12,81.02,129.12,81.02,127.79z"/>
	<path class="st4" d="M83.49,125.34c0-2.14-3.33-2.15-3.33,0C80.16,127.48,83.49,127.49,83.49,125.34z"/>
	<path class="st4" d="M49.95,111.86c0-0.24-0.37-0.24-0.37,0C49.58,112.1,49.95,112.1,49.95,111.86z"/>
	<path class="st4" d="M47.04,94.71c0-1.75-2.71-1.75-2.71,0C44.32,96.45,47.04,96.46,47.04,94.71z"/>
	<path class="st4" d="M45.04,113.7c0-2.07-3.22-2.07-3.22,0C41.83,115.77,45.04,115.77,45.04,113.7z"/>
	<path class="st4" d="M42.76,115.95c0-1.76-2.73-1.76-2.73,0C40.03,117.7,42.76,117.7,42.76,115.95z"/>
	<path class="st4" d="M34.4,116.15c0-2.3-3.58-2.3-3.58,0C30.82,118.45,34.4,118.45,34.4,116.15z"/>
	<path class="st4" d="M27.69,112.88c0-1.81-2.81-1.81-2.81,0C24.87,114.69,27.69,114.7,27.69,112.88z"/>
	<path class="st4" d="M21.24,105.53c0-1.66-2.58-1.67-2.58,0C18.66,107.19,21.24,107.2,21.24,105.53z"/>
	<path class="st4" d="M24.91,78.58c0-2.17-3.37-2.17-3.37,0C21.53,80.75,24.91,80.75,24.91,78.58z"/>
	<path class="st4" d="M42.66,68.37c0-1.63-2.53-1.63-2.53,0C40.13,69.99,42.66,69.99,42.66,68.37z"/>
	<path class="st4" d="M52.1,65.71c0-1.42-2.21-1.43-2.21,0C49.89,67.13,52.1,67.14,52.1,65.71z"/>
	<path class="st4" d="M45.42,60.81c0-0.02-0.01-0.03-0.01-0.04c0.46-0.05,0.89-0.38,0.89-0.98c0-1.32-2.05-1.32-2.05,0
		c0,0.27,0.09,0.48,0.22,0.64c-0.09,0.09-0.16,0.21-0.16,0.38C44.31,61.52,45.42,61.52,45.42,60.81z"/>
	<path class="st4" d="M43.54,62.44c0-1.19-1.85-1.19-1.85,0C41.69,63.63,43.54,63.64,43.54,62.44z"/>
	<path class="st4" d="M35.76,71.02c0-1.69-2.63-1.69-2.63,0C33.14,72.71,35.76,72.71,35.76,71.02z"/>
	<path class="st4" d="M62.47,44.68c0-1.64-2.54-1.64-2.54,0C59.93,46.31,62.47,46.31,62.47,44.68z"/>
	<path class="st4" d="M64.88,39.98c0-1.58-2.46-1.58-2.46,0C62.42,41.56,64.88,41.56,64.88,39.98z"/>
	<path class="st4" d="M68.9,34.06c0-1.76-2.73-1.76-2.73,0C66.17,35.81,68.9,35.82,68.9,34.06z"/>
	<path class="st4" d="M71.15,26.91c0-0.45-0.7-0.45-0.7,0C70.45,27.36,71.15,27.36,71.15,26.91z"/>
	<path class="st4" d="M74.95,18.33c0-1.4-2.17-1.4-2.17,0C72.78,19.73,74.95,19.73,74.95,18.33z"/>
	<path class="st4" d="M75.12,13.23c0-0.04-0.06-0.04-0.06,0C75.06,13.27,75.12,13.27,75.12,13.23z"/>
	<path class="st4" d="M87.17,6.9c0-1.36-2.11-1.36-2.11,0C85.06,8.26,87.17,8.26,87.17,6.9z"/>
	<path class="st4" d="M94.48,6.69c0-2.1-3.26-2.1-3.26,0C91.22,8.79,94.48,8.79,94.48,6.69z"/>
	<path class="st4" d="M115.02,8.12c0-1.46-2.27-1.46-2.27,0C112.75,9.58,115.02,9.58,115.02,8.12z"/>
	<path class="st4" d="M120.07,7.71c0-1.91-2.97-1.92-2.97,0C117.1,9.63,120.07,9.63,120.07,7.71z"/>
	<path class="st4" d="M111.71,16.09c0-1.93-3-1.93-3,0C108.71,18.02,111.71,18.02,111.71,16.09z"/>
	<path class="st4" d="M99.75,21.19c0-2.04-3.17-2.05-3.17,0C96.58,23.23,99.75,23.24,99.75,21.19z"/>
	<path class="st4" d="M96.89,28.75c0-1.77-2.76-1.78-2.76,0C94.13,30.52,96.89,30.52,96.89,28.75z"/>
	<path class="st4" d="M104.73,38.14c0-0.04-0.06-0.04-0.06,0C104.67,38.18,104.73,38.18,104.73,38.14z"/>
	<path class="st4" d="M104.53,36.51c0-0.04-0.06-0.04-0.06,0C104.46,36.55,104.53,36.55,104.53,36.51z"/>
	<path class="st4" d="M103.91,37.32c0-0.04-0.06-0.04-0.06,0C103.85,37.36,103.91,37.36,103.91,37.32z"/>
	<path class="st4" d="M99.62,38.96c0-0.04-0.06-0.04-0.06,0C99.56,39,99.62,39,99.62,38.96z"/>
	<path class="st4" d="M87.56,36.51c0-1.33-2.07-1.33-2.07,0C85.49,37.84,87.56,37.84,87.56,36.51z"/>
	<path class="st4" d="M85.35,37.94c0-1.9-2.96-1.91-2.96,0C82.39,39.84,85.35,39.84,85.35,37.94z"/>
	<path class="st4" d="M90.21,46.11c0-2.12-3.29-2.12-3.29,0C86.92,48.22,90.21,48.23,90.21,46.11z"/>
	<path class="st4" d="M102.52,38.35c0-1.93-3-1.93-3,0C99.52,40.28,102.52,40.28,102.52,38.35z"/>
	<path class="st4" d="M107.41,35.28c0-1.91-2.97-1.92-2.97,0C104.44,37.2,107.41,37.2,107.41,35.28z"/>
	<path class="st4" d="M107.89,39.16c0-2-3.12-2.01-3.12,0C104.77,41.17,107.89,41.17,107.89,39.16z"/>
	<path class="st4" d="M99.58,50.19c0-2.08-3.23-2.08-3.23,0C96.34,52.27,99.58,52.27,99.58,50.19z"/>
	<path class="st4" d="M98.15,56.11c0-2.08-3.23-2.08-3.23,0C94.92,58.19,98.15,58.19,98.15,56.11z"/>
	<path class="st4" d="M103.53,55.7c0-1.91-2.97-1.92-2.97,0C100.56,57.62,103.53,57.62,103.53,55.7z"/>
	<path class="st4" d="M116.29,51.21c0-1.77-2.76-1.78-2.76,0C113.53,52.99,116.29,52.99,116.29,51.21z"/>
	<path class="st4" d="M125.13,52.44c0-1.86-2.89-1.86-2.89,0C122.25,54.29,125.13,54.3,125.13,52.44z"/>
	<path class="st4" d="M129.95,58.15c0-0.98-0.75-1.48-1.51-1.51c-0.74-0.82-2.47-0.53-2.47,0.89c0,0.73,0.46,1.16,1,1.3
		C127.59,60.13,129.95,59.91,129.95,58.15z"/>
	<path class="st4" d="M123.75,39.16c0-0.6-0.93-0.6-0.93,0C122.82,39.76,123.75,39.76,123.75,39.16z"/>
	<path class="st4" d="M125.32,42.23c0-2.1-3.26-2.1-3.26,0C122.06,44.32,125.32,44.33,125.32,42.23z"/>
	<path class="st4" d="M137.88,48.25c-0.83-0.05-1.69,0.46-1.69,1.53c0,1.07,0.86,1.57,1.69,1.53V48.25z"/>
	<path class="st4" d="M127.19,85.93c0-0.04-0.06-0.04-0.06,0C127.13,85.97,127.19,85.97,127.19,85.93z"/>
	<path class="st4" d="M124.12,94.3c0-1.87-2.9-1.87-2.9,0C121.22,96.17,124.12,96.17,124.12,94.3z"/>
	<path class="st4" d="M129.03,95.73c0-2.14-3.33-2.15-3.33,0C125.7,97.87,129.03,97.88,129.03,95.73z"/>
	<path class="st4" d="M102.2,91.44c0-1.77-2.76-1.78-2.76,0C99.44,93.21,102.2,93.22,102.2,91.44z"/>
	<path class="st4" d="M102.07,105.94c0-1.35-2.1-1.35-2.1,0C99.97,107.29,102.07,107.29,102.07,105.94z"/>
	<path class="st4" d="M112.7,114.93c0-2.14-3.33-2.15-3.33,0C109.36,117.07,112.7,117.07,112.7,114.93z"/>
	<path class="st4" d="M118.75,112.68c0-2.05-3.19-2.05-3.19,0C115.56,114.73,118.75,114.73,118.75,112.68z"/>
	<path class="st4" d="M111.56,121.05c0-2-3.1-2-3.1,0C108.46,123.05,111.56,123.05,111.56,121.05z"/>
	<path class="st4" d="M134.55,129.02c0-2.14-3.33-2.15-3.33,0C131.21,131.16,134.55,131.16,134.55,129.02z"/>
	<path class="st2" d="M153.91,208.45h-11.28c-0.1-1.7,0.02-3.47,0.44-5.04c0.29-1.05,0.78-1.9,1.3-2.83
		c0.54-0.96,0.74-0.94,1.05-2.23c0.44-1.86,0.28-0.9-0.5-2c-0.02-0.04-0.06-0.07-0.08-0.11c-0.29-0.4-0.56-0.74-0.79-1.05
		c0,0-0.01,0-0.01-0.01v-0.01c-0.51-0.69-0.85-1.33-0.88-2.55c-0.06-1.98,0.36-4.4,1-6.28c0.69-2.01,2.08-3.34,1.81-5.16
		c0.01-0.01,0.01-0.01,0-0.01c-0.07-0.47-0.25-0.98-0.59-1.54c-0.42-0.7-0.93-1.38-1.35-2.09c0-0.01,0-0.01,0-0.01
		c-0.34-0.58-0.62-1.18-0.78-1.84c-0.34-1.45,0.05-2.71,0.76-3.97c0.36-0.63,1.09-1.35,1.42-2.08c0.08-0.18,0.13-0.36,0.15-0.53
		c0.12-1.11-0.69-1.7-1.1-2.61c-0.69-1.54-0.47-3.26-0.2-4.93c0.09-0.55,0.18-1.09,0.25-1.62c0.05-0.39,0.1-0.77,0.15-1.16
		c0.11-0.8,0.21-1.61,0.32-2.41c0.18-1.41,0.34-2.81,0.44-4.23c0.02-0.36,0.04-0.71,0.05-1.06v-0.02c0.04-1.05,0-2.06-0.1-3.08
		c0-0.01-0.01-0.03-0.01-0.04v-0.03c-0.17-1.68-0.52-3.33-1.07-5.02c-0.61-1.86-1.23-3.7-1.02-5.68c0.09-0.85,0.31-1.64,0.57-2.43
		v-0.01c0.33-1,0.73-1.98,1-3c0.01-0.01,0.01-0.01,0.01-0.02c0.23-0.88,0.38-1.76,0.31-2.73c-0.18-2.37-1.25-4.58-1.45-6.96
		c-0.18-2.14,0.34-4.1,0.99-6.13c0.43-1.32,0.75-2.56,0.93-3.81c0.13-0.91,0.18-1.84,0.15-2.81c0.01-0.02,0-0.03,0-0.04
		c-0.02-0.58-0.07-1.18-0.15-1.8c-0.27-2-0.4-4.01-0.45-6.02c-0.04-1.59-0.04-3.19-0.01-4.78c0.02-1.75,0.07-3.5,0.09-5.25
		c0,0,0-0.01,0-0.01c0.01-0.09,0.01-0.19,0.01-0.28c0-0.13,0.02-0.25,0.06-0.35c0,0,0-0.01,0-0.01c0.04-0.11,0.09-0.21,0.15-0.3
		c-0.62-4.31-3.01-7.43-1.13-11.88c0.45-1.06,1-2.05,1.45-3.04l0.01-0.01v-0.01c0.61-1.34,1.02-2.71,0.72-4.35
		c-0.25-1.35-0.74-2.63-0.94-3.96c0,0,0-0.01,0-0.01v-0.01c-0.1-0.64-0.13-1.29-0.04-1.96c0.1-0.72,0.41-1.35,0.55-2.06
		c0.41-2.02-0.36-2.56-0.97-4.25c-0.2-0.57-0.35-1.08-0.41-1.57v-0.01c-0.1-0.81-0.01-1.57,0.35-2.52c0.29-0.77,0.8-1.46,1.14-2.21
		c0.09-0.18,0.16-0.37,0.21-0.56c0.05-0.17,0.09-0.33,0.11-0.48c0.18-1.14-0.39-1.62-1.02-2.68c-1.01-1.68-0.96-3.06-0.86-5.01
		c0.04-0.67,0.01-1.35-0.04-2.04v-0.03c-0.01-0.2-0.03-0.4-0.06-0.6c0,0,0,0,0-0.01c0-0.01,0-0.01,0-0.01
		c-0.37-3.42-1.42-6.93-0.58-10.25c0.36-1.42,1.26-2.3,0.83-3.93c-0.13-0.52-0.73-1.56-0.91-2.08c-0.55-1.62-0.75-3.34-0.62-5.05
		c0,0,0-0.01,0-0.01v-0.01c0.02-0.35,0.06-0.7,0.12-1.05c0.06-0.36,0.14-0.7,0.21-1.02c0-0.01,0-0.01,0-0.01
		c0.2-0.81,0.34-1.53-0.16-2.45c-0.16-0.29-0.41-0.49-0.64-0.73c-0.01-0.01-0.01-0.01-0.01-0.01c-0.13-0.15-0.26-0.3-0.34-0.5
		c-0.59-1.39,0.13-2.49,0.58-3.76c1.13-3.23-0.61-4.47-1.03-7.35c-0.18-1.23-0.07-2.38,0.23-3.5h11.7l1.23,7.19
		c-0.69,1.74-0.42,3.08-0.07,4.91c0.02,0.13,0.05,0.27,0.07,0.4c0.29,1.57,0.44,3.09,0.2,4.71c-0.06,0.43-0.13,0.84-0.2,1.23
		c-0.28,1.61-0.53,2.97,0,4.55c0.11,0.33,0.25,0.67,0.44,1.02c1.46,2.78,1.69,4.59,0.51,7.53c-0.53,1.3-0.86,2.31-0.95,3.3
		c-0.04,0.37-0.04,0.74,0,1.11c0.07,0.78,0.31,1.61,0.72,2.63c0.56,1.4,1.11,2.71,1.14,4.25c0.02,2.11-1.04,4.12-0.96,6.22
		c0.07,1.9,1.35,3.48,1.51,5.37c0.23,2.67-1.45,4.81-2.41,7.15c-0.37,0.91-0.64,1.84-0.65,2.86c-0.01,1.35,0.27,2.65,0.65,3.93
		c0.77,2.65,1.94,5.22,1.77,8.06c-0.3,4.92-2.94,8.69-0.88,13.69c0.09,0.21,0.11,0.41,0.09,0.58c0.64,1.21,0.6,2.54,0.14,3.9
		c-0.32,0.95-0.84,1.75-1.12,2.7c-0.04,0.12-0.07,0.24-0.1,0.37c-0.21,0.96-0.13,1.77,0.1,2.57c0.21,0.74,0.55,1.46,0.91,2.26
		c1.89,4.21,1.27,7.39,0.44,11.77c-0.57,3-0.09,5.3,0.66,8.18c0.42,1.61,0.74,3.25,0.43,4.91c-0.33,1.83-1.4,3.33-2.13,5.02
		c-0.13,0.31-0.24,0.61-0.31,0.91c-0.28,1.05-0.22,2.02,0,2.99c0.21,0.96,0.59,1.91,0.96,2.93c0.57,1.56,1.02,3.13,0.72,4.8
		c-0.13,0.69-0.41,1.3-0.66,1.95c-0.58,1.54-0.51,2.74-0.26,4.37c0.28,1.78,0.07,3.23-0.39,4.98c-0.74,2.84-0.21,5.11,0.38,7.92
		c0.67,3.15,0.06,5.61-0.75,8.36c-0.25,0.83-0.5,1.68-0.75,2.59c-0.72,2.63,0.13,4.91,0.75,7.27c0.39,1.49,0.69,3.02,0.44,4.69
		c-0.1,0.69-0.26,1.37-0.44,2.05c-0.43,1.67-0.99,3.3-1.18,5.01c-0.29,2.54,0.28,5.01,0.86,7.47c0.11,0.45,0.21,0.91,0.32,1.35
		L153.91,208.45z"/>
	<path class="st1" d="M142.27,208.45h-10.11c-0.21-1.59,0.12-3.21,0.11-4.79v-0.01c0-0.67,0.03-1.34,0.11-1.99
		c0.03-0.26,0.06-0.51,0.09-0.75c0.15-1.49,0.09-2.52-0.81-3.97c-0.38-0.62-0.7-1.17-0.73-1.93c-0.02-0.88,0.48-1.33,0.7-2.08
		c0.59-1.92,0.24-2.74-0.39-4.42c-0.74-1.99-0.01-3.77,0.79-5.61c0.91-2.07,1.25-3.61,0.49-5.72c-0.45-1.25-1.08-2.42-1.41-3.71
		c-0.49-2-0.07-3.64,0.71-5.5c0.48-1.15,0.94-2.14,0.93-3.19c-0.01-0.57-0.16-1.16-0.53-1.8c-0.52-0.9-1.08-1.68-1.29-2.73
		c-0.12-0.62-0.13-1.21-0.05-1.76c0.1-0.75,0.36-1.45,0.73-2.12c0.13-0.23,0.27-0.45,0.42-0.67c0-0.13,0.02-0.28,0.08-0.44
		c1.05-2.73,0.31-4.48-0.85-6.95c-0.57-1.21-0.92-2.34-0.7-3.69c0.17-1.09,0.73-2,1.18-2.99c0.55-1.24,0.97-2.32,0.95-3.69
		c-0.02-1.27-0.55-2.03-0.87-3.2c-0.4-1.45-0.24-2.93,0.04-4.42c0.18-0.96,0.39-1.91,0.53-2.86c0.16-1.08,0.22-2.17-0.01-3.25
		c-0.62-2.95,0.42-3.73,1.52-6.29c0.04-0.09,0.08-0.18,0.12-0.27c0-0.01,0.01-0.01,0.01-0.01c-0.01-0.15,0.02-0.31,0.09-0.48
		c0.39-0.94-1.08-2.11-1.96-3.08c-0.23-0.26-0.42-0.5-0.52-0.72c-0.37-0.81-0.45-1.68-0.39-2.55c0,0,0,0,0-0.01
		c0.01-0.04,0.01-0.09,0.01-0.13c0-0.01,0-0.02,0.01-0.04c0.01-0.11,0.02-0.23,0.04-0.34c0.18-1.4,0.85-2.53,1.28-3.85
		c0.71-2.18,0.17-3.9-0.18-6.06c-0.5-3.1,0.22-6.26-0.1-9.38c-0.01-0.09-0.02-0.18-0.02-0.27c-0.15-1.46-0.32-2.87-0.26-4.28
		c0.05-1.17,0.26-2.33,0.77-3.49c0.69-1.56,1.48-2.66,1.5-4.07c0.01-0.56-0.12-1.18-0.42-1.89c-0.4-0.94-1.07-1.78-1.4-2.76
		c-0.02-0.07-0.04-0.13-0.06-0.2c-0.85-2.8,0.79-4.53,1.45-7.18c0.74-2.95-1.68-5.64-1.24-8.62c0.18-1.23,1.41-2.73,1.13-3.96
		c-0.26-1.13-0.97-1.44-0.98-2.65v-0.09c0-0.06,0.01-0.1,0.02-0.16v-0.02c-0.46-2.43,1.12-3.36,1.73-5.36
		c0.04-0.14,0.09-0.29,0.12-0.45c0.28-1.32-0.75-2.46-1.12-3.67c-0.32-1.07-0.3-2.17-0.2-3.27c0-0.02,0.01-0.05,0.01-0.07v-0.01
		c0.08-0.77,0.21-1.51,0.29-2.24c0.1-0.93,0.13-1.85-0.12-2.82c-0.28-1.09-0.81-2.04-0.85-3.18c-0.03-0.83,0.17-1.5,0.5-2.25
		c0.75-1.71,0.75-2.86-0.04-4.49c-0.88-1.86-1.04-3.05-0.34-5.04c0.39-1.12,1.24-2.3,1.21-3.52c-0.03-1.3-1.14-2.36-1.55-3.56
		c-0.74-2.13,0.67-3.7,0.59-5.76c-0.09-2.15-0.51-4.08-0.65-6.12h9.89c0.21,0.56,1.31,1.13,1.27,1.76
		c-0.09,1.27-0.81,2.39-0.57,3.75c0.21,1.19,0.78,2,0.67,3.29c-0.08,0.99-0.43,1.89-0.75,2.83c-0.44,1.35-0.39,2.38-0.12,3.49
		c0,0,0,0,0.01,0.01c0.11,0.48,0.26,0.97,0.43,1.51c0.18,0.57,0.32,1.11,0.36,1.67c0,0,0,0,0,0.01c0.02,0.37,0.01,0.75-0.09,1.15
		c-0.07,0.32-0.16,0.62-0.25,0.91v0.01c0,0.01,0,0.01,0,0.01c-0.3,1.05-0.6,2.02-0.39,3.25c0.27,1.61,1.05,3.23,1.57,4.77
		c0.13,0.39,0.06,0.72-0.11,0.97c-0.17,0.69-0.68,1.39-1.05,2.11c-0.7,1.34,0.02,2.02,0.12,3.34c0.04,0.54-0.12,0.98-0.18,1.51
		c-0.2,1.73-0.15,1.81,0.55,3.13c0.45,0.84,0.67,1.56,0.77,2.22c0,0.01,0,0.01,0,0.01c0,0.01,0,0.01,0,0.01
		c0.02,0.2,0.04,0.4,0.06,0.6v0.03c0.04,1.15-0.22,2.27-0.31,3.84c-0.1,1.91,1.27,2.84,1.78,4.48c0.15,0.47,0.21,0.94,0.21,1.4
		c0.01,0.35-0.02,0.7-0.09,1.04c-0.06,0.38-0.15,0.76-0.27,1.14c-0.18,0.59-0.45,1.16-0.69,1.73c-0.28,0.69-0.45,1.28-0.53,1.85
		v0.01c-0.16,1.07,0.01,2.03,0.37,3.29c0.26,0.87,0.76,1.5,0.66,2.47c-0.15,1.51-0.8,1.87-0.33,3.55c0.05,0.18,0.1,0.36,0.17,0.53
		v0.01c0,0.01,0,0.01,0,0.01c0.5,1.53,1.26,3.03,1.53,4.61c0.31,1.83-0.4,2.71-1.31,3.71v0.01l-0.01,0.01
		c-0.39,0.42-0.81,0.86-1.21,1.41c-2.44,3.36-1.37,7.68-0.12,11.3c0.7,0.81,0.89,1.64,0.86,2.51c0,0.01,0,0.01,0,0.01
		c-0.01,0.21-0.03,0.42-0.06,0.63c0,0.01,0,0.01,0,0.01c-0.09,0.63-0.27,1.29-0.43,1.98c-0.3,1.23,0.01,2.25,0.35,3.27
		c0.4,1.19,0.85,2.36,0.4,3.85c-0.1,0.32-0.24,0.62-0.39,0.93c-0.16,0.33-0.32,0.66-0.42,1.04c-0.38,1.37,0.01,2.32,0.36,3.64
		c0.29,1.07,0.57,2.06,0.67,3.14c0,0.01,0.01,0.02,0,0.04c0.03,0.27,0.04,0.55,0.04,0.83c0,0.69-0.07,1.34-0.19,1.97
		c-0.35,1.78-1.15,3.37-2.16,4.96c-2.43,3.81,0.56,7.42,1.32,11.3c0.25,1.26,0.26,2.33,0.07,3.37c0.01,0.01,0,0.02-0.01,0.02
		c-0.17,0.98-0.52,1.94-1,3v0.01c-0.01,0.01-0.01,0.02-0.02,0.04c-1.66,3.71,0.32,7.93,1.23,11.7c0.12,0.47,0.22,0.93,0.31,1.39
		v0.03c0,0.01,0.01,0.03,0.01,0.04c0.16,0.86,0.24,1.71,0.16,2.62c-0.01,0.15-0.03,0.3-0.06,0.45v0.02
		c-0.26,1.79-1.05,3.43-0.7,5.29c0.01,0.09,0.03,0.18,0.06,0.27c0.1,0.42,0,0.77-0.21,1.03c0.02,0.37,0.05,0.75,0.05,1.11
		c0.02,0.89-0.05,1.78-0.4,2.78c-0.05,0.14-0.11,0.29-0.17,0.43c-0.93,2.18-0.48,3.32,0.57,5.31c0.39,0.74,0.72,1.49,0.75,2.32
		c0.01,0.13,0.01,0.26-0.01,0.4c-0.07,0.83-0.45,1.47-0.89,2.14c-0.21,0.32-0.57,0.63-0.74,0.96c-0.69,1.33-0.43,2.46,0,3.79
		c0.06,0.2,0.14,0.4,0.24,0.6c0,0,0,0,0,0.01c0.52,1.14,1.42,2.38,1.94,3.63c0.01,0.01,0.01,0.01,0,0.01
		c0.35,0.82,0.53,1.65,0.33,2.46c-0.29,1.2-1.54,2.01-1.91,3.17c-0.5,1.53,0.06,3.33,0.03,4.91c-0.02,0.96-0.58,2.42-0.37,3.46v0.01
		c0,0.01,0.01,0.01,0.01,0.01c0.03,0.18,0.09,0.34,0.17,0.48c0.13,0.23,0.37,0.4,0.62,0.57c0.33,0.22,0.69,0.45,0.89,0.82
		c0.8,1.53-0.17,2.36-0.94,3.56C143.48,202.67,142.19,205.7,142.27,208.45z"/>
	<path class="st3" d="M142.89,208.45h-2.45c-0.12-1.79,1.1-3.58,1.38-5.39c0.2-1.26,0.4-2.68,1.11-3.77
		c0.71-1.08,1.48-2.27-0.14-2.96c-0.65-0.28-0.75-0.85-0.55-1.35c0.06-2.78-0.19-5.81,0.28-8.53c0.31-1.76,2.52-3.06,2.31-4.8
		c-0.25-1.97-2.49-3.41-3.09-5.32c-0.47-1.49-0.2-2.84,0.55-4.17c0.4-0.72,1.08-1.32,1.43-2.06c0.81-1.74-0.25-2.49-1.09-3.79
		c-0.68-1.05-0.74-2.03-0.28-3.21c0.48-1.23,1.38-1.82,1.57-3.29c0.13-1.1-0.25-2.32-0.37-3.4c0-0.02-0.01-0.03-0.01-0.05
		c-0.23-2.31,0.62-3.93,1.04-6.14c0.8-4.2-2.79-7.72-3.23-11.81c-0.18-1.69,0.21-3.12,0.85-4.65c0.67-1.62,1.46-2.89,1.45-4.72
		c-0.01-1.68-0.69-3.07-1.27-4.59c-0.69-1.78-1.35-3.56-0.89-5.5c0.64-2.66,2.43-4.64,2.58-7.54c0.13-2.52-1.1-4.55-1.3-6.95
		c-0.15-1.75,2.62-6.05,1.22-7.04c-0.44-0.31-0.58-0.76-0.53-1.18c-0.71-0.92-0.6-1.61-0.28-2.74c0.58-2.04,0.72,0.85,0.64-2.18
		c-0.04-1.4-0.09-1.17-0.53-2.19c-0.43-1-1.04-1.87-1.36-2.93c-0.57-1.92-0.61-3.99-0.13-5.94c0.55-2.26,2.11-3.79,3.01-5.86
		c1.3-3.01-0.91-4.56-1.15-7.34c-0.19-2.14,1.4-3.55,0.34-5.69c-0.6-1.2-1.29-1.88-1.2-3.32c0.07-1.23,0.67-2.36,1.18-3.45
		c0.45-0.98,1.08-1.92,1.04-3.01c0-0.09-0.01-0.17-0.02-0.26c-0.18-1.21-1.07-1.59-1.74-2.56c-0.64-0.92-0.81-1.83-0.58-2.93
		c0.19-0.9,0.91-1.72,1.06-2.6c0.18-1.08-0.5-1.78-0.77-2.73c-0.57-2.06,0.13-3.91-0.84-5.95c-0.56-1.19-1.32-2.16-0.77-3.52
		c0.21-0.51,0.62-0.78,0.96-1.19c0.17-0.21,0.69-0.29,0.8-0.53c0.47-0.98-0.09-2.7-0.51-3.54c-0.77-1.55-1.7-2.63-1.45-4.5
		c0.21-1.6,1.64-3.09,1.2-4.66c-0.36-1.27-1.39-1.89-1.32-3.35c0.06-1.24,0.79-2.13,1.17-3.25c0.72-2.14-0.91-2.49-1.04-4.4
		c-0.06-0.74,0.23-1.34,0.4-2.05c0.33-1.4-0.88-2.69-1.12-4.03h2.45c0.1,0.6,1.45,1.21,1.44,1.83c-0.01,1.15-0.53,2.25-0.55,3.35
		c-0.03,1.5,1.39,2.33,1.36,3.9c-0.02,1.57-1.3,2.67-1.53,4.12c-0.25,1.61,1.5,2.65,1.43,4.33c-0.09,2.24-1.95,3.82-1.14,6.11
		c0.56,1.56,1.89,2.65,2.16,4.36c0.23,1.45-0.22,2.33-1.09,3.42c-0.78,0.99-1.15,1.13-0.74,2.36c0.24,0.73,0.78,1.28,0.97,2.05
		c0.22,0.88,0.08,1.69,0.08,2.57c0,1.34,0.56,2.41,0.83,3.65c0.28,1.26,0.02,2.13-0.47,3.33c-1.09,2.65,0.79,2.89,1.64,5.02
		c0.21,0.53,0.29,1.09,0.27,1.65c-0.01,0.37-0.07,0.74-0.15,1.11c-0.37,1.58-1.49,2.89-1.9,4.44c-0.58,2.16,1.04,2.74,1.51,4.56
		c0.55,2.11-1.15,3.89-0.71,6.04c0.33,1.63,1.44,2.89,1.49,4.62c0.06,1.85-0.95,3.42-1.89,4.93c-1.52,2.43-2.46,4.89-1.73,7.78
		c0.53,2.1,2.22,3.77,2.54,5.93c0.05,0.37-1.01,4.12-1.4,3.66c0.25,0.3,0.34,0.64,0.3,0.95c0.88,0.74,1.32,1.65,1.32,2.9
		c0.01,0.69-0.2,1.31-0.42,1.95c-0.7,1.97-1.29,3.33-0.84,5.56c0.48,2.37,1.08,4.28,0.72,6.76c-0.37,2.55-2.51,5.04-2.6,7.48
		c-0.1,2.68,1.98,5.1,2.26,7.76c0.24,2.29-0.47,4.13-1.34,6.18c-1.21,2.86-0.99,4.73,0.2,7.53c0.8,1.9,1.81,3.76,2.16,5.82
		c0.38,2.29-0.43,3.82-0.94,5.99c-0.22,0.96-0.17,1.89-0.06,2.82c0.17,1.45,0.49,2.87,0.2,4.34c-0.16,0.83-0.58,1.35-0.85,2.11
		c-0.59,0.64-0.79,1.43-0.58,2.36c0.37,0.36,0.74,0.73,1.08,1.11c0.85,1.12,1.13,2.27,0.69,3.62c-0.47,1.45-1.87,2.4-2.37,3.8
		c-1,2.87,2.36,4.78,2.97,7.3c0.46,1.95-0.25,2.7-1.18,4.25c-1.63,2.71-1.29,6.14-1.32,9.3c1.56,0.86,2.78,2.34,1.85,4.23
		c-0.88,1.77-1.98,2.62-2.32,4.77C143.98,205.21,142.78,206.82,142.89,208.45z"/>
</g>
</svg>
