<?xml version="1.0" encoding="utf-8"?>
<!-- Generator: Adobe Illustrator 25.2.3, SVG Export Plug-In . SVG Version: 6.00 Build 0)  -->
<svg version="1.1" id="Layer_1" xmlns="http://www.w3.org/2000/svg" xmlns:xlink="http://www.w3.org/1999/xlink" x="0px" y="0px"
	 viewBox="0 0 208 208" style="enable-background:new 0 0 208 208;" xml:space="preserve">
<style type="text/css">
	.st0{fill:#A08B82;}
	.st1{fill:#7F6F69;}
	.st2{fill:#826C6C;}
	.st3{fill:#493E3C;}
	.st4{fill:#99837C;}
	.st5{fill:#BFA399;}
</style>
<g>
	<path class="st0" d="M208.45,67.5v70.36c-1.01,0.03-2.01,0.07-2.97,0.12c-5.2,0.31-10.24,0.94-15.3,2.19
		c-7.23,1.77-14.65,4.15-21.68,7.06c-0.11,0.87-0.51,1.69-1.3,2.32c-2.7,2.13-5.27,4.41-7.69,6.84c-1.08,1.07-2.13,2.19-3.14,3.33
		c-2.28,2.55-4.39,5.25-6.31,8.09c-0.69,1.02-1.35,2.06-1.97,3.1c-0.9,1.49-1.74,3-2.53,4.53c-0.42,0.81-0.82,1.62-1.21,2.44
		c-0.27,0.57-0.54,1.14-0.8,1.72c-1.8,3.93-3.35,7.98-4.83,12.09c-0.26,5.59-0.38,11.17-0.33,16.77H70.29
		c-0.09-1.19-0.14-2.37-0.33-3.44c-0.73-4.07-2.19-8.01-3.8-11.81c-2.92-6.86-6.35-13.59-7.99-20.88c-2.05-1.17-3.3-3.26-4.56-5.27
		c-0.63-1.01-1.29-2-1.98-2.97c-2.6-3.68-5.62-7.05-9.21-9.81c-4.81-3.69-10.31-6.56-15.61-9.46c-5.17-2.84-10.59-5.33-16.54-5.75
		c-0.91-0.06-1.65-0.33-2.27-0.74c-2.81-0.18-5.62-0.29-8.44-0.32V68.77c3.85-1.16,8.37-1.1,12.15-1.36
		c4.71-0.31,9.26-1.08,13.77-2.54c8.22-2.66,15.76-7.33,22.02-13.25c0.49-0.46,0.97-0.93,1.44-1.4c0.94-0.94,1.83-1.92,2.7-2.92
		c2.22-2.57,4.24-5.3,6.25-8.07c1.76-2.41,3.85-6.1,6.49-8.38c3.15-10.22,5.1-20.65,5.63-31.31h68.8c0.02,1.02,0.04,2.03,0.07,3.02
		c0.11,3.12,0.5,6.1,1.29,9.12c3.08,11.82,10.3,22.89,17.25,32.81c1.76,2.52,3.63,4.92,5.65,7.12c5.6,6.14,12.3,10.79,20.91,12.58
		C192.12,65.89,200.42,65.95,208.45,67.5z"/>
	<path class="st1" d="M208.45,133.9v10.84c-0.72-0.32-1.61-1.75-2.52-1.98c-0.02-0.01-0.06-0.02-0.09-0.02h-0.01
		c-0.83-0.21-1.67-0.33-2.41-0.28c-0.02,0.02-0.04,0.05-0.06,0.07c-0.29,0.34-0.8,0.42-1.23,0.29c-1.37,0.7-2.35,2.11-3.82,2.75
		c-1.64,0.71-1.87,0.1-3.12-0.47c0,0,0,0-0.01,0c-0.07-0.02-0.14-0.06-0.21-0.09c-0.19-0.52-0.49-0.6-0.9-0.24
		c-0.35,0.06-0.63,0.23-0.85,0.51c-0.45,0.29-0.81,0.73-1.29,1c-0.14,0.09-0.28,0.15-0.42,0.21c-0.72,0.34-1.48,0.45-2.27,0.62
		c-0.24,0.06-0.44,0.12-0.63,0.21c-0.01,0.01-0.01,0.01-0.01,0.01c-0.55,0.24-0.93,0.59-1.54,0.78c-0.37,0.12-0.75,0.19-1.11,0.25
		c-0.01,0-0.01,0-0.02,0.01h-0.02c-0.44,0.08-0.86,0.15-1.26,0.29c-0.01,0-0.01,0-0.02,0.01c-0.5,0.17-0.94,0.47-1.32,1.05
		c-0.08,0.24-0.25,0.47-0.53,0.63c-2.02,1.19-3.97,0.61-6.08,1.29c-1.5,0.48-1.87,1.68-2.63,2.6c-0.28,0.34-0.61,0.64-1.07,0.85
		c-0.55,0.26-0.98,0.26-1.37,0.25c-0.17-0.01-0.34-0.02-0.5-0.02c-0.03,0.04-0.06,0.09-0.09,0.13c-0.56,0.72-1.13,1.23-1.83,1.76
		c0.01,0.1,0.01,0.19,0.01,0.29v0.01c-0.01,0.1-0.04,0.2-0.12,0.29c-0.69,0.87-1.44,1.02-2.34,1c-0.1,0.15-0.2,0.31-0.28,0.47
		c-0.33,0.7-0.2,1.36-0.78,2c-1.04,1.12-2.51,0.82-3.83,0.97h-0.01c-0.01,0-0.01,0-0.01,0c-0.81,0.1-1.57,0.36-2.13,1.23
		c-0.18,0.27-0.31,0.57-0.39,0.88c-0.01,0.02-0.02,0.05-0.02,0.07c-0.18,0.62-0.23,1.3-0.3,1.98c0,0,0,0.01,0,0.01
		c0,0.01,0,0.01,0,0.01c-0.12,1.15-0.32,2.26-1.32,2.99c-0.59,0.42-1.19,0.34-1.81,0.59c-1.09,0.42-0.6-0.07-0.95,0.8v0.01
		c-0.03,0.06-0.06,0.12-0.09,0.19c-0.49,1.08-1.15,1.84-1.58,2.73c-0.31,0.63-0.28,1.23-0.8,1.81c-0.26,0.29-0.65,0.44-0.95,0.66
		c-0.07,0.05-0.14,0.1-0.2,0.17c-0.65,0.67-1.04,1.56-1.15,2.54c-0.17,1.51-0.13,1.61-1.19,2.57c-0.01,0.01-0.01,0.01-0.01,0.01
		c-0.07,0.06-0.13,0.11-0.2,0.18c-0.18,0.16-0.36,0.26-0.53,0.32c-0.54,0.22-0.92,0.17-0.72,1.35c0,0,0,0.01,0,0.01
		c0.01,0.07,0.03,0.17,0.05,0.25c0.09,0.44,0.59,0.93,0.79,1.34c0.18,0.39,0.29,0.75,0.37,1.13c0.39,0.34,0.55,0.88,0.16,1.42
		c-0.04,0.07-0.09,0.13-0.15,0.19c-1.24,1.64-2.81,2.24-3.74,3.86c-0.04,0.07-0.09,0.13-0.12,0.21c-0.21,0.39-0.37,0.83-0.5,1.35
		c-0.21,0.88-0.42,1.75-0.64,2.62v0.01c0,0.01,0,0.02-0.01,0.02l-0.09,0.33c0,0.01,0,0.01-0.01,0.02c-0.2,0.77-0.4,1.53-0.63,2.29
		c0.06,0.03,0.12,0.07,0.17,0.11c0.62,0.41,1.04,1.02,1.18,1.94c0.03,0.18,0.04,0.34,0.04,0.5c0,0.01,0,0.01,0,0.01
		c-0.01,0.55-0.19,1.02-0.31,1.61c-0.15,0.71-0.24,1.3-0.29,1.88c0,0.01,0,0.01,0,0.01c-0.05,0.61-0.05,1.24-0.01,2.02
		c0.03,0.67,0.04,1.38-0.15,1.98h-9.91c-0.14-1.41-0.43-2.82-0.21-4.14c0.15-0.85,0.56-0.96,0.36-1.8
		c-0.09-0.36-0.62-0.75-0.78-1.12c-0.58-1.34,0.1-1.65,0.5-2.77c0.29-0.81,0.07-3.33,0.67-4.19c0.26-0.37,0.74-0.47,1.07-0.74
		c1.04,0,1.53-0.67,1.48-2.01c-0.05-0.17-0.08-0.34-0.09-0.53c-0.02-0.03-0.04-0.07-0.06-0.1c-0.1-0.15-0.19-0.29-0.28-0.45
		c-0.36-1-1.36-1.89-0.81-3.03c0.2-0.41,0.65-0.56,0.89-0.86c0.76-0.92,0.93-1.32,0.93-1.67c0-0.35-0.18-0.66-0.12-1.4
		c0.13-1.69,0.91-2.07,1.92-3.3c-0.01-0.35,0.11-0.7,0.41-0.98c0.04-0.03,0.08-0.07,0.13-0.1c1.44-1.04,1.38-2.87,1.51-4.54
		c0.03-0.5,0.09-0.97,0.2-1.42c0.23-0.86,0.56-1.54,1.05-2.16c0.26-0.34,0.57-0.64,0.93-0.96c0.38-0.32,1.23-0.67,1.68-1.04
		c0.1-0.08,0.18-0.17,0.23-0.25c0.4-0.74-0.27-2.13-0.15-2.93c0.13-0.94,0.52-1.59,1.23-2.22c1.34-1.19,3.19-0.99,3.79-2.99
		c0.36-1.18-0.07-2.24,0.79-3.29c0.93-1.13,1.82-0.67,2.98-1.05c2.54-0.83,2.55-2.92,3.55-4.94c1.43-2.89,3.61-2.81,6.44-3.31
		c2.17-0.39,4.23-1.37,5.88-2.85c1.14-1.02,1.95-2.14,3.45-2.65c0.86-0.29,1.71-0.26,2.54-0.7c1.15-0.59,1.42-1.35,2.13-2.36
		c0.69-0.97,1.38-1.76,2.54-2.17c1.46-0.52,2.84-0.06,4.34-0.17c1.7-0.13,2.84-1.27,4.53-1.28c0.21-0.01,0.4,0.04,0.55,0.12
		c0.46-0.23,0.89-0.36,1.46-0.45c1.42-0.21,2.24-0.53,3.52-1.15c1.56-0.77,1.69-0.43,3.25,0.07c1.72,0.55,1.27,0.17,2.48-0.5
		c0.83-0.47,1.37-0.72,2.34-0.8C204.89,133.13,206.63,133.74,208.45,133.9z"/>
	<path class="st1" d="M208.45,64.36v9.93c-1.91,0.13-4.03-0.17-5.84-0.22c0,0,0-0.01-0.01,0c-0.09,0-0.17-0.01-0.26-0.01
		c-0.18-0.01-0.34-0.01-0.5-0.02h-0.01c-0.01-0.01-0.01-0.01-0.01,0c-0.01-0.01-0.02-0.01-0.02,0c-0.58-0.04-1.06-0.12-1.68-0.29
		c-0.32-0.12-0.63-0.29-0.91-0.5c-0.93-0.13-1.83-0.08-2.71,0.17c-1.76,0.2-3.45,0.16-5.14-0.41c-1.91-0.64-3.28-2.08-5.27-2.38
		c-1.81-0.27-3.65,0.65-5.43-0.05c-2.1-0.83-2.64-2.68-5.16-2.92c-1.91-0.18-3-0.68-4.69-1.53c-1.59-0.8-3.49-0.93-5.02-1.83
		c-1.13-0.66-1.51-1.46-2.1-2.55c-0.76-1.41-1.26-1.65-2.4-2.45c-0.35-0.24-0.68-0.53-0.93-0.88c-0.45-0.64-0.53-1.34-0.64-2.08
		c-0.25-1.7-0.6-1.72-2.04-2.44c-0.46-0.23-0.89-0.5-1.3-0.77c-0.75-0.5-1.46-1.05-2.24-1.51c-0.35-0.21-0.72-0.4-1.11-0.56
		c-1.15-0.47-1.84-0.8-2.53-1.95c-0.65-1.1-1.42-5.83-2.46-5.7c-0.58,0.07-0.94-0.21-1.09-0.62c-0.21-0.03-0.42-0.12-0.62-0.28
		c-1.54-1.27-0.77-3.17-1.95-4.69c-1.01-1.29-1.69-1.74-2.03-3.5c-0.37-1.9,0.25-2.68-1.97-4.29c-0.83-0.6-1.15-0.29-1.78-1.16
		c-0.92-1.27-0.41-2.91-0.46-4.36c-0.01-0.09,0-0.17,0.01-0.25c0-0.02-0.01-0.04-0.01-0.06c-0.31-1.95-1.15-2.61-2.42-3.88
		c-0.66-0.66-1.07-1.51-1.15-2.46c-0.07-1.05,0.36-1.6,0.7-2.52c0.33-0.89,0.84-1.51,0.1-2.52c-0.17-0.22-0.77-0.51-1.02-0.75
		c-2.03-1.98-0.17-3.74-0.13-6.05c0.02-1.32-0.35-2.75-0.33-4.13c0.01-0.78,1.02-1.57,1.04-2.35h9.89c0.05,0.8-0.15,1.67-0.69,2.58
		c-0.05,0.08-0.1,0.16-0.14,0.23c-0.79,1.22-1.13,0.76,0.38,1.84c0.08,0.06,0.15,0.11,0.23,0.17h0.01c0.34,0.25,0.66,0.5,0.81,0.89
		c0.03,0.07,0.06,0.15,0.07,0.23c0.01,0.06,0.02,0.12,0.03,0.18v0.01c0.08,0.75-0.33,1.65-0.26,2.41c0.17,1.73,0.97,1.32,1.43,2.74
		c0.28,0.9-0.25,1.58-0.37,2.42v0.01c0,0.02-0.01,0.04-0.01,0.06c-0.11,1,0.2,1.37,0.63,1.78c0.26,0.24,0.55,0.49,0.83,0.89
		c1.02,1.5,0.84,3.45,0.59,5.2c0.81,0.4,1.49,0.69,1.74,1.84c0.06,0.28,0.09,0.56,0.11,0.84c0,0,0,0,0,0.01
		c0.08,1.34-0.23,2.7-0.19,4.07c0.25,0.07,0.47,0.22,0.6,0.48c0.06,0.1,0.1,0.23,0.13,0.37c0.02,0.1,0.04,0.19,0.06,0.28
		c0.02,0.06,0.03,0.12,0.04,0.17c0.36,1.53,1.12,2.35,2.62,3.27c0.61,0.38,1.2,0.55,1.7,1.12c1.17,1.35,0.9,2.85,1.52,4.17
		c0.25,0.55,0.66,1.05,1.38,1.5c0.38,0.24,0.7,0.4,0.96,0.56c0.46,0.26,0.77,0.5,1.06,1.02c0.01,0.01,0.02,0.02,0.01,0.02
		c0.11,0.19,0.21,0.43,0.31,0.72c0.04,0.36,0.04,0.7-0.03,1.05c1.18,2.08,2.57,2.78,4.15,2.1c0.01-0.01,0.01-0.01,0.01-0.01
		c0.03-0.01,0.06-0.02,0.09-0.04c0.22-0.01,0.4-0.02,0.56-0.03h0.01c0.6-0.05,0.88-0.11,1.7,0.12c0.59,0.17,1.09,0.88,0.86,1.51
		c-0.33,0.89,0.5,1.23,1.37,1.43h0.01c0.3,0.07,0.61,0.13,0.86,0.19c0.22,0.05,0.4,0.1,0.53,0.17c0.31,0.15,0.56,0.34,0.78,0.57
		c0.24,0.25,0.45,0.52,0.66,0.82c0.37,0.51,0.77,1.29,1.22,2.14c1.19,2.28,2.72,5.09,4.9,4.72c1.33-0.22,2.25-1.54,3.68-0.53
		c0.69,0.48,0.79,1.27,0.91,1.97c0.15,0.86,0.31,1.62,1.57,1.61c0.02,0,0.04,0,0.07-0.01h0.01c1.72-0.04,2.45-1.08,4.07,0.23
		c0.68,0.55,0.83,0.91,1.17,1.19c0.01,0,0.01,0.01,0.02,0.01c0.17,0.13,0.39,0.25,0.75,0.36c0,0,0,0,0.01,0
		c0.19,0.06,0.42,0.12,0.71,0.17c2.08,0.41,1.97-0.51,3.5-1.22c1.26-0.58,2.07-0.13,2.87,0.91c0.04,0.06,0.09,0.12,0.13,0.2
		c0.53,0.86,1.45,2.97,2.35,2.87c0.1-0.01,0.33-0.22,0.59-0.47c0.37-0.37,0.81-0.83,1.05-0.94c0.65-0.32,1.25-0.12,1.67,0.44
		C204.33,64.6,206.49,64.51,208.45,64.36z"/>
	<path class="st1" d="M72.46,5.23c-1.4,2.31-0.2,3.36,0.01,5.69c0.13,1.41-0.26,2.2-0.89,3.42c-1.22,2.35-0.68,3-0.66,5.04
		c0.04,3.32-3.1,4.53-4.18,7.31c-0.99,2.53-0.48,5.61-3,7.35c-0.17,0.17-0.37,0.28-0.59,0.36c-0.21,0-0.37,0.02-0.49,0.07
		c-0.04,0.15-0.09,0.31-0.13,0.46c0.03,0.05,0.07,0.1,0.12,0.16c-0.05,0.26,0.32,1.16,0.33,1.52c0.04,1.23-0.41,2.1-1.18,3
		c-0.1,0.13-0.23,0.21-0.34,0.28c-0.99,1.16-2.19,1.8-3.34,2.85c-1.57,1.43-2.23,3.47-3.09,5.34c-0.59,1.26-1.24,2.5-2.18,3.53
		c-0.15,0.17-0.3,0.32-0.47,0.48c-0.26,0.25-0.51,0.46-0.75,0.64c-1.16,0.89-2.02,1.18-2.75,2.97c-0.46,1.12-0.58,2.24-1.58,3.06
		c-0.65,0.53-1.04,0.51-1.73,0.83c-1.43,0.65-1.76,0.13-3.52,1.72c-2.49,2.26-4.22,3.78-7.64,4.51c-1.54,0.33-2.83,0.32-4.1,1.29
		c-0.62,0.47-1.17,1.03-1.86,1.42c-1.31,0.73-2.26,0.59-3.72,0.56c-1.57-0.03-2.61-0.27-3.94,0.78c-0.59,0.46-0.99,1.07-1.61,1.49
		c-0.93,0.64-1.86,0.92-2.98,0.71c-1.62-0.3-2.79-2.08-4.55-1.24c-1.23,0.59-1.6,1.68-3.13,1.83c-0.53,0.06-1.04-0.1-1.57-0.1
		c-6.86-0.08-1.19,0.7-3.5,1.51c-1.21,0.42-2.54-0.97-3.87-1.02v-9.3c2.25-0.58,4.96-1.45,7.05-0.95c1.56,0.37,2.21,1.34,3.82,0.41
		c0.82-0.47,1.38-1.23,2.21-1.63c1.08-0.52,2.21,0.22,3.22,0.69c0.61,0.28,1.17,0.47,1.67,0.23c0.55-0.26,0.64-1.17,1.02-1.91
		c0.13-0.28,0.32-0.54,0.58-0.72c0.45-0.32,1.11-0.15,1.48,0.2c0.2,0.18,0.4,0.33,0.59,0.43c1.77,0.99,3.15-1.01,4.78-1.89
		c0.35-0.19,0.71-0.33,1.09-0.37c0.55-0.06,1.02,0.05,1.48,0.12c0.74,0.11,1.43,0.09,2.27-1.01c0.67-0.89,0.53-2.14,1.05-3.09
		c0.04-0.07,0.08-0.15,0.12-0.21c0.42-0.74,0.82-1.1,1.78-1.13c0.76-0.02,1.46,0.91,2.17,0.83c0.02,0,0.04-0.01,0.07-0.01
		c0.84-0.12,0.94-0.74,1-1.4c0.02-0.25,0.04-0.5,0.09-0.72c0.02-0.08,0.04-0.16,0.06-0.23c0.28-0.81,1.05-1.07,1.8-0.74
		c0.17,0.07,0.32,0.15,0.47,0.23c0.37,0.18,0.69,0.4,1.02,0.63c1.12-0.79,1.9-1.83,2.37-3.2c0.34-0.99,0.12-2.45,0.65-3.36
		c0.28-0.48,0.61-0.8,1-0.97c0.09-0.24,0.24-0.45,0.47-0.61c0.17-0.12,0.36-0.2,0.6-0.22c0.04-0.01,0.09-0.01,0.14-0.01
		c1.83-0.15,5.72,0.28,4.01-3.57c-0.02-0.04-0.04-0.09-0.06-0.13c-0.42-0.9,0.1-1.74,1.06-1.84c0.32-0.04,0.64-0.1,0.96-0.21
		c1.45-0.47,2.64-1.59,3.06-3.11c0.03-0.12,0.06-0.24,0.07-0.36c0.11-0.74-0.03-1.48,0.24-2.18c0.06-0.15,0.13-0.3,0.21-0.43
		c0.69-1.17,2.13-1.73,3.09-2.81c-0.62-0.86-0.68-1.99,0.04-3.01c0.8-1.13,1.51-0.81,1.92-2.24c0.39-1.36-0.48-2.38-0.15-3.69
		c0.5-1.95,2.22-2.09,1.82-4.64c-0.17-1.05-0.45-1.48,0.06-2.51c0.98-2.03,2.24-3.06,1.54-5.54C63.2,5.74,63.28,3.85,63,2.68
		c0-0.01,0-0.01,0-0.01c-0.04-0.17-0.09-0.31-0.15-0.44c-0.01-0.04-0.02-0.07-0.03-0.1c-0.05-0.1-0.09-0.21-0.11-0.34
		c-0.11-0.64-0.34-1.45-0.47-2.24h11.44c0.02,0.85,0.59,1.74,0.4,2.54C73.76,3.44,73.14,4.12,72.46,5.23z"/>
	<path class="st2" d="M208.45,52.84v12.15c-1.31,0.12-2.93-0.1-4.14-0.59c-1.17-0.48-1.92-0.38-3.16-0.58
		c-0.25-0.04-0.45-0.1-0.64-0.17c-0.77-0.29-1.13-0.82-1.83-1.51c-0.31-0.3-0.68-0.61-1.11-0.88c-0.75-0.48-1.66-0.81-2.58-0.65
		c-0.6,0.1-1.19,0.91-1.79,1.16c-1.19,0.5-1.55,0.21-2.59-0.42c-0.09-0.06-0.18-0.11-0.26-0.16c-0.01,0-0.01,0-0.01,0
		c-0.28-0.16-0.52-0.28-0.75-0.36c-0.01-0.01-0.01-0.01-0.02-0.01c-1.04-0.42-1.78-0.3-3.16-0.55c-0.77-0.14-1.46-0.45-2.08-0.88
		h-0.01c-0.29-0.19-0.58-0.41-0.85-0.65c-0.25-0.21-0.51-0.58-0.79-0.95c-0.32-0.43-0.66-0.85-1-1.02
		c-1.08-0.51-1.67,0.09-2.68,0.35c-2.98,0.75-3.84-1.63-5.33-3.85c-0.41-0.61-0.86-1.15-1.32-1.65c-0.88-0.95-1.81-1.78-2.68-2.81
		c-0.15-0.18-0.34-0.59-0.53-1.08h-0.01c-0.55-1.35-1.22-3.36-1.76-3.32c-0.28,0.02-0.51-0.04-0.7-0.16
		c-0.44,0.2-0.95,0.34-1.47,0.42h-0.01c-0.21,0.03-0.44,0.06-0.64,0.07c-0.01,0-0.01,0-0.01,0.01c-0.44,0.02-0.85,0.01-1.19-0.04
		c-1.8-0.28-2.06-1.52-2.66-2.91c-0.15-0.34-0.34-0.64-0.58-0.91c0.01-0.01,0-0.02-0.01-0.02c-0.3-0.37-0.67-0.7-1.06-1.02
		c-0.8-0.65-1.68-1.25-2.35-2.06c-0.21-0.25-0.39-0.51-0.55-0.81c-0.44-0.83-0.42-1.79-0.75-2.56c-0.72-1.7-1.99-1.67-3.54-2.3
		c-0.46-0.19-0.97-0.61-0.9-1.18c0.08-0.64,0.02-1.18-0.1-1.7c-0.01-0.06-0.02-0.12-0.04-0.17c-0.06-0.21-0.12-0.43-0.18-0.64
		c-0.12-0.37-0.25-0.74-0.34-1.15c-0.26-1.06-0.07-0.93-0.01-1.99c0.04-0.61,0.01-1.06-0.06-1.42c0-0.01,0-0.01,0-0.01
		c-0.32-1.57-1.53-1.23-2.25-3.14c-0.2-0.53-0.13-1-0.15-1.56c-0.03-1.38-0.07-2.26-0.64-3.53c-0.08-0.18-0.16-0.36-0.23-0.54
		c-0.26-0.64-0.47-1.24-0.62-1.83v-0.01c-0.16-0.61-0.26-1.22-0.31-1.89c-1.23-1.65-2.05-3.81-1.16-5.15
		c0.16-0.25,0.4-0.44,0.67-0.53V5.67c0.06-0.02,0.12-0.04,0.19-0.05c-0.07-0.12-0.18-0.23-0.29-0.36c-0.29-0.31-0.66-0.63-0.81-0.89
		h-0.01c-0.02-0.02-0.03-0.04-0.04-0.07c-0.31-0.59-0.45-1.28-0.57-1.94c-0.04-0.17-0.07-0.34-0.1-0.51
		c-0.17-0.8-0.28-1.54-0.31-2.29h12.98c0.36,2.04,0.69,3.29,0.22,4.07c-0.39,0.65-1.08,1.28-1.34,2.55
		c-0.45,2.22,0.47,1.49,1.34,2.51c0.74,0.85,0.73,2.16,0.74,3.2c0,0.41-0.16,0.7-0.4,0.91c-0.21,0.93-0.41,1.85-0.62,2.78
		c0.75-0.07,1.4-0.08,2.16,0.62c1.3,1.22,2.01,4.04,1.86,5.75c-0.14,1.52-0.18,1.42,1.11,2.24c0.4,0.25,0.85,0.36,1.22,0.67
		c1.21,1.01,1.18,2.02,0.91,3.46c-0.41,2.19,0.05,1.46,1.57,2.42c0.62,0.4,1.17,0.91,1.64,1.48c1.14,1.39,1.05,3.14,2.79,3.86
		c1.26,0.51,2.64,0.5,3.5,1.72c0.56,0.79,0.61,1.62,0.42,2.43c1.02,0.09,1.98,0.47,2.79,1.24c0.93,0.88,1.35,2.93,2.47,3.43
		c1.47,0.66,3.44-0.26,4.99,0.19c1.92,0.56,1.92,1.82,2.82,3.34c0.4,0.68,0.06,0.88,1.16,0.64c0.4-0.08,0.75-0.51,1.12-0.67
		c0.5-0.21,0.9-0.35,1.44-0.29c2.31,0.25,2.14,3.24,4.88,2.73c1.62-0.3,2.73-1.64,4.52-0.8c0.61,0.29,0.84,0.83,1.28,1.26
		c0.13,0.13,0.27,0.25,0.4,0.35c1.04,0.84,1.88,0.75,3.19,0L208.45,52.84z"/>
	<path class="st1" d="M73.55,208.45h-10.2c0.28-1.92,0.83-3.8-0.51-5.4c-1.01-1.21-1.21-1.47-0.88-2.82c0-0.01,0.01-0.01,0.01-0.01
		c0.04-0.15,0.08-0.32,0.13-0.51c0.25-0.87,0.36-1.46,0.23-2.1c0,0,0-0.01,0-0.01c-0.07-0.32-0.19-0.64-0.38-1.04
		c-0.27-0.54-0.74-0.97-0.99-1.53c-0.48-1.05-0.55-2.16-0.51-3.3c0.04-1.27,0.34-2.34,0.06-3.33c0.01-0.01,0.01-0.01,0-0.01
		c-0.06-0.17-0.12-0.32-0.2-0.48c-0.01-0.02-0.02-0.04-0.02-0.06c-0.15-0.29-0.37-0.56-0.67-0.85c-0.81-0.77-2.31-1.08-2.98-1.98
		c-1.55-2.07,1.48-4.7,0.06-6.94c-0.06-0.08-0.12-0.16-0.18-0.24c-0.39-0.45-0.96-0.73-1.56-0.97c-0.7-0.29-1.45-0.54-2-0.99
		c-0.6-0.49-1.02-1.1-1.35-1.79c-0.02-0.03-0.03-0.07-0.05-0.1c-0.67-1.42-0.74-3.04-1.43-4.45c-0.6-1.21-1.3-2.45-1.97-3.63
		c-0.59-1.04-1.38-1.97-2.29-2.85c-0.74-0.73-1.56-1.42-2.38-2.09c-0.62-0.51-1.25-1.01-1.85-1.51c0-0.01-0.01-0.01-0.01-0.01
		c-0.02-0.01-0.04-0.03-0.06-0.04c-0.1-0.04-0.2-0.09-0.3-0.13c-0.01-0.01-0.01-0.01-0.02-0.01c-1.55-0.77-2.65-1.86-3.98-3.05
		c-0.54-0.48-1.1-0.89-1.68-1.26c-1.75-1.1-3.66-1.84-5.42-3.03c-0.36-0.25-0.7-0.54-1.03-0.85c0-0.01,0-0.01-0.01-0.01
		c-0.68-0.64-1.32-1.32-2.1-1.78c-1.39-0.82-3.02-0.78-4.56-0.97c-0.09-0.01-0.18-0.02-0.26-0.04c-0.01,0-0.01,0-0.01,0
		c-1.55-0.22-2.87-0.7-4.21-1.42C18,146.85,18,146.85,18,146.85c-0.21-0.12-0.42-0.23-0.64-0.36c-1.03-0.59-2.05-1.3-3.2-1.62
		c-1.53-0.42-3.04-0.04-4.59-0.16c-1.16-0.09-2.22-0.46-3.34-0.68c-0.96-0.19-1.8-0.18-2.62-0.11c-0.01,0-0.01,0-0.01,0
		c-0.79,0.06-1.56,0.18-2.43,0.21c-0.62,0.03-1.12-0.06-1.53-0.25c-0.03-0.01-0.06-0.02-0.09-0.04v-8.9c0.98-0.09,1.98-0.9,2.9-0.55
		c0.51,0.19,1.01,0.77,1.48,0.91c0.89,0.27,1.34-0.18,2.33-0.32c0.86-0.12,1.79,0.04,2.49,0.58c0.5,0.4,0.75,1.37,1.34,1.51
		c0.44,0.11,1.35-0.46,1.8-0.52c1.42-0.2,1.66,0.43,2.79,0.97c1.14,0.55,2.44-0.15,3.75,0.18c0.91,0.23,1.35,0.7,2.1,1.19
		c1.13,0.74,1.72,0.91,3.13,0.81c1.39-0.09,2.46-0.09,3.68,0.76c1.95,1.37,1.23,3.23,4.22,3.3c1.79,0.04,3.09-0.89,4.83,0.04
		c2.93,1.56,2.63,5.65,6.08,6.55c1.5,0.39,2.92,0.24,4.03,1.53c0.29,0.34,0.41,0.76,0.65,1.12c0.23,1,0.89,1.69,1.98,2.08
		c0.31,0.04,0.61,0.08,0.92,0.12c0.58,0.28,1.1,0.59,1.57,0.94c0.1,0.07,0.19,0.15,0.28,0.23c1.34,1.1,2.07,2.56,1.78,4.52
		c0.09,0.21,0.13,0.46,0.07,0.74c-0.19,1.02,2.55,3.28,3.24,3.68c0.85,0.5,1.87,0.64,2.66,1.23c1.07,0.79,1.62,1.93,1.82,3.22
		c0.21,1.38-0.42,2.6,0.59,3.85c0.38,0.47,1.07,0.77,1.53,1.18c1.02,0.88,1.7,1.76,1.75,3.14c0.02,0.75-0.47,1.54-0.41,2.22
		c0.14,1.63,1.21,1.5,2.16,2.38c1.15,1.07,1.68,2.54,1.65,4.09c-0.03,2.41-2.11,4.83-0.27,7.04c1.17,1.42,2.85,1.8,3.75,3.55
		c0.19,0.36,0.26,0.88,0,1.24c-2.09,2.83,0.7,3.77,1.51,6.19C74.16,205.89,73.67,207.17,73.55,208.45z"/>
	<path class="st2" d="M64.83,204.18c-0.01,0.12-0.01,0.25-0.01,0.39c0,0.01,0,0.01,0,0.01c-0.01,0.97,0.01,2.53-0.18,3.88H51.62
		v-5.44c0-0.07-0.01-0.13-0.01-0.19c-0.09-0.83-0.15-0.34-0.27-0.87c-0.12-0.48-0.33-0.89-0.37-1.42c-0.1-1.49-0.38-3.54,0.28-5.04
		c0.09-0.21,0.23-0.43,0.37-0.66c0.65-0.99,1.56-2.05,0.29-2.6c-0.1-0.04-0.2-0.07-0.29-0.09c-0.61-0.1-1.27,0.16-1.87-0.21
		c-1.42-0.87-0.52-1.83-0.64-2.95c-0.14-0.14-0.25-0.34-0.29-0.59c-0.25-1.46-2.22-1.91-2.78-3.27c-0.25-0.59-0.09-1.02-0.19-1.6
		c-0.02-0.15-0.02-0.25-0.02-0.33c-0.05-0.03-0.1-0.06-0.15-0.09c-1.2-0.73-1.81-0.97-2.16-2.42c0.04-0.32,0.09-0.66,0.13-0.99
		c-0.28-0.81-0.74-1.44-1.38-1.9c-0.45-0.5-1.03-0.79-1.4-1.39c-0.41-0.67-0.55-1.28-0.43-2.06c0-0.22,0.06-0.42,0.17-0.61
		c0.18-0.21,0.29-0.38,0.32-0.5c-0.04-0.08-0.08-0.17-0.12-0.25c-0.15-0.04-0.44,0-0.87,0.13c-1.18-0.58-1.78-0.68-2.54-1.89
		c-0.59-0.94-0.77-2.05-1.3-2.99c-0.69-1.21-1.38-1.02-2.68-1.05c-1.13-0.03-2.3-0.17-3.09-1.08c-0.55-0.62-0.39-1.27-0.75-1.91
		c-0.86-1.56-1.1-0.96-2.29-1.3c-1.5-0.43-1.72-0.8-2.82-1.89c-1.5-1.48-2.52-1.72-4.45-1.77c-0.64-0.01-1.26,0.03-1.86-0.24
		c-0.53-0.25-0.81-0.77-1.26-1.05c-0.03-0.57-0.29-0.72-0.77-0.44c-0.4,0.2-0.81,0.34-1.24,0.42c-1.18,0.15-1.71-0.27-2.49-1.06
		c-0.16-0.31-0.31-0.62-0.43-0.94c-0.78-0.77-1.57-0.87-2.36-0.32c-0.79,0.09-1.45,0.48-2.28,0.42c-0.74-0.06-1.32-0.53-2-0.61
		c-2.95-0.36-2.36,0.37-3.94,1.65c-0.7,0.57-1.25-0.71-1.83-0.7v-12.51c0.03,0.01,0.06,0.01,0.09,0.01
		c1.31,0.18,2.63,0.06,3.96,0.04c0.01,0,0.01,0,0.01,0c0.86-0.02,1.71,0.01,2.57,0.2c2.29,0.5,4.59,0.84,6.87,1.37
		c1.64,0.38,3.3,0.85,4.96,1.37c0.01,0,0.01,0,0.01,0.01c1.41,0.43,2.82,0.91,4.21,1.42c0.01,0,0.01,0,0.01,0
		c1.79,0.64,3.55,1.31,5.25,1.98c0.59,0.23,1.14,0.51,1.68,0.82c0.01,0,0.01,0,0.01,0.01c1.04,0.59,2.02,1.27,3.07,1.84
		c1.23,0.66,2.33,1.28,3.38,2.05c0.51,0.37,1.01,0.77,1.51,1.23c1.01,0.94,1.89,1.86,3.11,2.55c0.34,0.2,0.7,0.36,1.05,0.53
		c0.01,0.01,0.01,0.01,0.02,0.01c0.12,0.06,0.24,0.12,0.36,0.18c0,0,0.01,0,0.01,0.01c0.32,0.17,0.64,0.35,0.93,0.58
		c0.38,0.29,0.69,0.6,0.93,0.93c0.32,0.42,0.53,0.89,0.67,1.43c0.56,0.2,1.15,0.4,1.71,0.66c1.15,0.51,2.21,1.2,2.77,2.3
		c1.21,2.33,1.65,4.99,2.96,7.32c0.06,0.11,0.12,0.21,0.19,0.32c1.22,2.02,3.38,3.06,4.72,4.83c0.06,0.08,0.12,0.16,0.18,0.24
		c0.07,0.1,0.15,0.2,0.22,0.31c0.38,0.63,0.64,1.43,0.59,2.18c-0.06,1.06-1.14,2.37-0.99,3.38c0.25,1.61,2.31,1.94,3.21,3.03
		c0.22,0.26,0.4,0.55,0.55,0.86c0.01,0.02,0.02,0.04,0.02,0.06c0.07,0.15,0.14,0.31,0.2,0.48c0.01,0,0.01,0.01,0,0.01
		c0.13,0.34,0.22,0.69,0.29,1.05c0.28,1.32,0.21,2.68,0.49,4c0.28,1.32,0.95,2.57,1.04,3.92c0.01,0.08,0.01,0.16,0.01,0.23
		c0,0.01,0,0.01,0,0.01c-0.01,0.89-0.36,1.73-0.37,2.61c0,0-0.01,0.01-0.01,0.01c0,0.21,0.02,0.43,0.06,0.65
		c0.32,1.52,0.6,0.69,1.59,1.36c0.42,0.29,0.67,0.63,0.8,1.01c0.05,0.04,0.09,0.07,0.13,0.12v0.01
		C64.74,203.57,64.84,203.84,64.83,204.18z"/>
	<path class="st2" d="M208.45,144.12v13.42c-0.79,0.07-1.58,0.09-2.33-0.07c-0.8-0.17-1.24-0.74-1.89-1.04
		c-2.03-0.9-2.48,0.2-4.23,0.55c-1.04,0.21-1.8-0.13-2.78-0.35c-1.35-0.3-3.81-0.58-5.21-0.31c-2.32,0.45-1.77,1.84-3.06,3.16
		c-1.19,1.2-2.82,1.26-4.38,1.04c-0.09,0.15-0.17,0.31-0.25,0.46c-0.26,0.5-0.7,0.66-1.13,0.59c-0.2,0.07-0.45,0.06-0.72-0.04
		c0.49,0.18-0.37,1.3-0.98,1.66c-1.18,0.72-2.34-0.1-3.42,0.28c-1.53,0.53-1.04,2.48-2.03,3.43c-0.87,0.85-1.64,0.52-2.68,0.73
		c-1.89,0.38-1.1,1.46-1.82,2.82c-0.56,1.07-1.32,1.13-2.32,1.56c-1.07,0.46-1.45-0.77-2.2,1.3c-0.17,0.47,0.1,1.25-0.02,1.78
		c-0.21,0.92-0.59,1.59-1.42,2.05c-0.46,0.25-0.84,0.23-1.32,0.37c-1.81,0.55-1.98,0.64-2.19,2.49c-0.17,1.56,0.86,3.57,0.17,5.07
		c-0.48,1.05-1.37,1-2.22,1.62c-2.16,1.58-0.53,4.09-1.35,6.03c-0.51,1.22-1.59,1.85-2,3.14c-0.45,1.39,0.25,2.49-0.08,3.87
		c-0.1,0.43-0.48,0.8-0.58,1.19c-0.48,1.85,0.2,2.55,0.71,3.98c0.42,1.17-0.44,2.35-0.34,3.56h-13.23c-0.04-0.34-0.04-0.71,0-1.1
		c-0.01-0.22,0.01-0.43,0.09-0.63c0.13-0.74,0.34-1.51,0.55-2.27c0-0.01,0-0.01,0-0.01c0.37-1.32,0.73-2.59,0.61-3.49
		c0-0.01,0-0.01,0-0.01c-0.07-0.48-0.28-0.85-0.69-1.07c-0.57-0.29-0.69-0.86-0.53-1.37c0.09-0.29,0.28-0.56,0.53-0.74
		c0.69-0.52,1.03-1.02,1.18-1.52c-0.01-0.03-0.02-0.07-0.03-0.1c-0.16-0.61-0.15-1.21-0.04-1.76c-0.16-0.76-0.34-1.54-0.03-2.4
		c0.03-0.08,0.07-0.16,0.1-0.23c0.04-0.07,0.08-0.14,0.12-0.21c0.62-0.92,1.84-1.15,2.63-1.98c0.56-0.59,0.94-1.21,1.11-1.87
		c0.02-0.06,0.03-0.12,0.04-0.17c-0.29-0.35-0.41-0.85-0.18-1.37c0.02-0.04,0.04-0.09,0.06-0.13c-0.04-0.12-0.07-0.23-0.13-0.35
		c-0.24-0.51-0.83-0.81-0.99-1.46c-0.07-0.31-0.08-0.58-0.04-0.85c0-0.01,0-0.01,0-0.01c0.09-0.51,0.35-0.94,0.72-1.35
		c0.01-0.01,0.02-0.02,0.03-0.04c0.19-0.21,0.44-0.34,0.7-0.47c0,0,0,0,0.01-0.01c0.23-0.12,0.47-0.23,0.66-0.4
		c3.4-3.06,0.55-1.57,1.25-3.52c0.15-0.43,0.36-0.81,0.57-1.23c0.02-0.04,0.04-0.08,0.06-0.12c0.56-1.08,1.04-2.24,1.48-3.37
		c0.38-0.99,1.07-1.62,1.93-2.02v-0.01c1.04-0.5,2.32-0.67,3.57-0.8c0.07-0.23,0.21-0.4,0.37-0.54c0.2-0.95,0.12-2.02,0.15-3.04
		c0-0.01,0-0.01,0-0.01c0-0.01,0-0.01,0-0.01c0.02-0.69,0.08-1.37,0.3-1.98c0.01-0.02,0.02-0.05,0.02-0.07
		c0.1-0.26,0.24-0.51,0.42-0.75c0.49-0.66,1.26-1.07,2.1-1.35c0.01,0,0.01,0,0.01,0h0.01c0.78-0.26,1.62-0.4,2.32-0.51
		c2.68-0.42,0.96-1.15,1.93-2.89c0.63-1.12,1.96-1.08,3.11-1.34v-0.01c0.81-0.17,1.53-0.49,1.84-1.45c0.1-0.33,0.31-0.57,0.57-0.71
		c0.18-0.1,0.39-0.17,0.61-0.19c0.3-0.19,0.6-0.37,0.9-0.56c0.22-0.26,0.58-0.37,0.93-0.35c0.2,0.01,0.39,0.06,0.56,0.16
		c0.26,0.15,1.61-1.79,1.86-2c0.69-0.56,1.29-0.81,2.14-0.98c0.97-0.19,2.08,0.32,3.01,0.08c1.42-0.36,1.41-1.2,2.18-2.1
		c0.3-0.35,0.56-0.58,0.82-0.74c0.01-0.01,0.01-0.01,0.02-0.01c0.4-0.24,0.79-0.29,1.26-0.29h0.02c0.01-0.01,0.01-0.01,0.02-0.01
		c0.32-0.01,0.7,0.01,1.15-0.02c1.48-0.09,0.41,0.36,1.34-0.82c0.05-0.06,0.1-0.13,0.17-0.19c0-0.01,0.01-0.01,0.01-0.01
		c0.28-0.31,0.62-0.59,0.99-0.74c0.49-0.21,1.06-0.12,1.57-0.16c0.11,0.03,0.23,0.06,0.34,0.07c0.7,0.12,1.39-0.01,2.06-0.39
		c0.23-0.32,0.5-0.59,0.81-0.81c0.26-0.1,0.53-0.17,0.8-0.21c0.01,0,0.01,0,0.01,0c0.34-0.06,0.69-0.07,1.04-0.05
		c0.68,0.21,1.37,0.39,2.08,0.52c0.05,0.01,0.1,0.02,0.15,0.03c0.88-0.1,1.52-0.52,1.9-1.24c1.08-0.87,1.95-1.59,3.49-1.26
		c1.14,0.25,1.7,1.19,2.95,1.26C207.38,144.38,207.91,144.21,208.45,144.12z"/>
	<path class="st2" d="M64.2,9.94c-0.15,1.36-1.01,1.56-1.54,2.6c-0.67,1.33-0.19,2.84-0.69,4.15c-0.51,1.32-1.38,1.62-1.48,3.17
		c-0.09,1.48,0.31,2.79-0.33,4.2c-0.42,0.94-1.38,1.16-1.79,1.89c-0.38,0.68,0.25,1.27,0.17,2.17c-0.07,0.86-0.54,1.53-1.23,2.03
		c-0.71,0.53-1.54,0.71-2.1,1.15c-0.53,0.39-0.81,1.02-0.53,2.35c0.02,0.1,0.04,0.18,0.08,0.27c0.21,0.64,0.62,1.04,0.3,1.87
		c-0.27,0.72-0.87,1.05-1.53,1.33c-0.65,0.29-1.29,0.44-1.91,0.61c-0.72,0.19-1.41,0.4-2.05,0.86c0.04,0.34,0.07,0.66,0.09,0.98
		c0.04,0.55,0.02,1.1-0.06,1.7c-0.07,0.56-0.32,1.01-0.9,1.18c-0.92,0.28-2.02,0.42-3.05,0.69c-0.25,0.07-0.5,0.15-0.74,0.23
		c-0.59,0.21-1.13,0.5-1.57,0.91c-1.38,1.29-1.61,3.65-1.8,5.4c-0.07,0.62-0.51,1.28-1.23,1.23c-0.34-0.02-0.64-0.04-0.9-0.02
		c-0.89,0.02-1.4,0.25-1.86,0.74c-0.18,0.2-0.37,0.43-0.56,0.72c-0.13,0.2-0.28,0.43-0.44,0.68c-0.16,0.25-0.34,0.5-0.56,0.72
		c-0.26,0.28-0.55,0.51-0.89,0.66c-0.56,0.24-1.16,0.23-1.74,0.09c-0.89-0.21-0.93-0.75-1.39-0.43c-0.11,0.08-0.24,0.21-0.43,0.41
		c-1.19,1.32-1.17,3.11-3.01,3.91c-0.02,0.01-0.06,0.02-0.08,0.04c-0.83,0.34-1.67,0.21-2.49,0.22c-0.41,0.01-0.81,0.05-1.22,0.2
		c-0.89,0.34-1.49,1.08-2.41,1.43c-0.4,0.15-0.78,0.22-1.15,0.25c-0.66,0.06-1.3-0.01-2.02,0.02c-0.26,0.01-0.47,0.04-0.64,0.07
		c-0.79,0.17-0.77,0.63-1.68,1.26c-0.37,0.25-0.69,0.37-1,0.41c-1.06,0.16-1.89-0.61-3.11-0.4c-0.77,0.13-0.91,0.76-1.45,1.22
		c-0.64,0.56-1.36,0.72-2.18,0.8c-3.22,0.29-6.31-1.37-9.32,0.5c-0.08,0.05-0.16,0.09-0.25,0.12V51.62h2.88
		c0.62,0.37,1.23,0.71,2.15,0.7c1.08-0.01,1.95-0.38,2.83-0.7c0.89-0.32,1.79-0.61,2.97-0.42c0.72,0.11,1.32,0.34,1.94,0.42
		c0.32,0.05,0.64,0.06,0.97,0c0.14-0.02,0.29-0.06,0.44-0.11c0.67-0.23,1.23-0.64,1.81-1.03c0.94-0.62,1.9-1.32,3.01-1.62
		c1.42-0.39,2.76,0.14,4.17-0.06c1.97-0.29,3.02-1.64,4.06-3.23c1.24-1.89,2.33-3.81,4.41-4.88c1.1-0.56,2.28-0.76,3.47-0.99
		c0.62-0.12,1.26-0.2,1.86-0.38c1.89-0.57,1.94-1.63,2.46-3.58c0.44-1.64,0.84-2.58,2.21-3.71c0.27-0.22,4.67-4.07,4.2-4.55
		c-0.62-0.64-0.35-1.46,0.21-1.86c0.26-1.34,0.64-2.65,1.51-3.72c0.39-0.48,0.89-0.96,1.44-1.27c0.36-0.21,1.42-0.33,1.64-0.57
		c1.01-1.07-0.42-3.08-0.22-4.48c0.13-0.96,0.56-1.75,1.23-2.44c0.17-0.17,0.3-0.3,0.42-0.4c0.55-0.49,0.64-0.43,0.9-1.69
		c0.35-1.7-0.13-0.95-0.13-2.3c0-0.99,0.43-1.41,0.54-2.27c0.1-0.85-1.08-2.62-1.3-3.69v-3.23h12.57c0.07,2.08-0.58,4.59-0.58,6.05
		C63.62,7.06,64.35,8.48,64.2,9.94z"/>
	<path class="st3" d="M64.79,11.19c-0.86,1.16-1.26,1.26-0.77,2.69c0.21,0.59,0.66,1.02,0.72,1.69c0.18,1.66-0.89,1.97-2.1,2.6
		c-1.19,0.62-1.05,0.81-0.74,2.19c0.21,0.96,0.53,1.8,0.45,2.81c-0.12,1.43-0.79,2.52-2.1,3.14c-0.66,0.31-1.58,0.1-1.45,0.72
		c0.06,0.28,1.13,1.09,1.35,1.48c0.25,0.43,0.23,1.15-0.19,1.48c-1.34,1.07-2.71,1.86-4.25,2.4c0.48,1.05,0.63,2.19,0.23,3.39
		c-0.64,1.94-2.06,2.24-3.58,3.13c-0.45,0.26-0.63,0.07-0.76,0.06c-0.13-0.01-0.2,0.16-0.41,1.15c-0.07,0.32,0.17,0.73,0.13,1.07
		c-0.09,0.72-0.12,1.29-0.54,1.91c-0.99,1.46-2.57,1.33-4.07,1.58c-4.4,0.73-2.46,3.71-4.67,6.21c-0.25,0.28-0.51,0.53-0.81,0.72
		c-0.21,0.13-0.44,0.25-0.69,0.33c-0.55,0.2-2.13-0.25-2.33-0.12c-0.39,0.26-0.26,1.24-0.44,1.68c-0.28,0.67-0.75,1.17-1.4,1.51
		c-1.17,0.62-2.38,0.43-3.53-0.02c-0.47,1.55-1.15,3.01-2.55,3.96c-1.51,1.01-3.55,0.14-4.82,1.13c-1.15,0.89-1.32,1.97-3.09,2.22
		c-1.3,0.18-2.49-0.23-3.63-0.78c-0.18,0.56-0.27,1.15-0.23,1.76c-0.02,1.01-1,1.42-1.84,1.06c-1-0.43-3.42-2.01-4.52-1.24
		c-0.29,0.2-0.5,1.24-0.76,1.56c-0.72,0.88-1.56,1.23-2.73,0.98c-1.33-0.28-1.89-1.26-3.42-1.3c-0.94-0.03-1.95,0.29-2.85,0.51
		c-1,0.23-1.94,0.18-2.89,0.25v-2.45c1.67-0.15,3.27-0.56,4.97-0.7c0.88-0.07,1.76-0.07,2.61,0.2c1.17,0.36,1.55,1.37,2.71,0.31
		c0.86-0.79,0.63-2,2.09-2.33c1.27-0.28,2.97,0.55,4.42,1.3c0.17-0.75,0.44-1.46,0.83-2.2c0.32-0.59,1.12-0.75,1.68-0.44
		c1.8,1.01,3.31,1.57,4.64-0.18c0.44-0.58,0.6-0.97,1.32-1.28c0.71-0.3,1.34-0.04,2.05-0.09c2.71-0.17,3.44-1.91,4.02-4.28
		c0.2-0.8,1.13-1.1,1.8-0.74c1.51,0.81,2.29,0.78,2.86-0.59c0.01-0.03,0.02-0.06,0.04-0.09c0.15-0.38,0.07-0.85,0.28-1.23
		c0.48-0.86,1.17-1,2.05-1.1c1.1-0.14,1.21,1.22,2.57-0.29c0.48-0.53,0.48-1.66,0.64-2.32c0.27-1.06,0.47-2.13,1.22-2.98
		c0.8-0.9,1.88-1.22,3.03-1.35c1.04-0.12,1.72,0.18,2.65-0.54c1.19-0.92,0.6-1.04,0.61-2.34c0.01-0.87,0.12-1.65,0.86-2.24
		c0.39-0.31,0.66-0.32,1.16-0.48c0.24-0.08,0.58-0.13,0.96-0.2c1.68-0.29,4.06-0.74,1.34-3.92c-0.56-0.66-0.42-1.83,0.54-2.05
		c1.43-0.33,2.66-0.81,3.83-1.57c-0.82-0.72-1.83-1.24-1.68-2.6c0.16-1.57,1.34-1.49,2.41-2.06c3.5-1.84,0.2-3.78,0.89-6.44
		c0.46-1.78,1.87-1.1,2.7-2.19c0.53-0.7-0.31-1.18-0.66-2.1c-0.2-0.53-0.36-1.09-0.24-1.67c0.15-0.72,0.53-1.06,1.05-1.56
		c1.19-1.16,1.46-0.65,1.37-2.37c-0.09-1.8-0.32-0.8-0.73-1.9c-0.56-1.51-0.22-1.48,0.36-2.74c0.09-0.2,0.15-0.4,0.19-0.61
		c0-0.01,0-0.01,0-0.01c0.17-0.97-0.18-2.05-0.35-3.12h2.33c0.22,1.51,1.23,3.01,0.42,4.52c-0.12,0.23-0.53,0.48-0.57,0.74
		c-0.01,0.06-0.02,0.1-0.02,0.13c0.03-0.06,0.1-0.07,0.21,0.32c0.17,0.6,0.73,1.12,0.88,1.8C66.25,8.65,65.72,9.94,64.79,11.19z"/>
	<path class="st3" d="M208.45,63.35v2.97c-2.04,0.18-4.03-0.64-5.65-1.95c-0.42,0.45-0.84,0.9-1.26,1.35
		c-0.59,0.63-1.47,0.35-1.92-0.25c-0.59-0.78-1.18-1.91-1.94-2.55c-0.42-1-1.21-1.32-2.36-0.96c-0.15,0.24-0.31,0.47-0.47,0.71
		c-0.94,0.75-1.29,1.72-2.67,1.78c-0.84,0.03-1.47-0.26-2.08-0.81c-0.45-0.42-0.62-1-1-1.47c-0.2-0.54-0.6-0.91-1.21-1.1l-0.55,0.4
		c-2.46,0.34-3.91,0.07-5.29-2.32c-0.31-0.53-0.42-1.61-1.02-1.84c-0.56-0.21-0.74,0.4-1.26,0.69c-0.79,0.44-1.59,0.47-2.46,0.18
		c-3.28-1.1-3.95-4.61-6.22-6.54c-0.04-0.04-0.09-0.08-0.13-0.12c-0.92-0.74-2.01-0.78-2.81-1.72c-0.67-0.78-0.86-1.84-1.14-2.8
		c-0.72-2.43-1.57-1-3.29-0.34c-0.84,0.32-1.66,0.39-2.5,0c-1.89-0.86-2.13-2.79-1.87-4.6c-1-0.4-1.76-1.46-2.95-2.17
		c-1.43-0.86-2.35-1.07-2.3-3.09c0.01-0.43,0.2-0.87,0.18-1.29c-0.04-1.53-0.28-1.37-1.4-1.57c-0.72-0.13-1.43,0.13-2.13-0.3
		c-1.52-0.93-1.24-3.03-0.94-4.75c-0.07,0.01-0.15,0.02-0.23,0.02c-0.64,0.07-1.25-0.61-1.23-1.23c0.06-1.23,0.92-2.55,0.89-3.68
		c-0.04-1.51-1.19-1.27-1.87-2c-1.13-1.22-1.05-2.11-0.76-3.69c0.13-0.69,0.61-1.25,0.07-1.92c-0.17-0.21-0.8-0.12-1.06-0.31
		c-0.59-0.43-1-0.76-1.3-1.47c-0.56-1.36-0.06-2.68,0.67-3.84c-0.8-0.72-1.93-1-2.13-2.29c-0.22-1.34,0.67-1.78,1.42-2.44
		l-1.99-1.41c-0.51-0.37-0.83-1.09-0.43-1.68c0.74-1.12,1.1-2.21,1.05-3.4h2.46c0.04,1.27-0.25,2.49-0.84,3.67
		c0.71,0.5,1.42,1,2.13,1.51c0.58,0.4,0.75,1.04,0.44,1.68c-0.36,0.72-1.41,1.21-1.17,2.06c0.1,0.33,1.4,1.18,1.65,1.62
		c0.2,0.35,0.25,0.89,0,1.24c-0.77,0.72-0.85,1.62-0.24,2.7c0.36,0.1,0.7,0.21,1.04,0.37c0.37,0.4,0.82,0.75,1.02,1.28
		c0.52,1.45-1.08,3.27-0.25,4.41c0.15,0.21,1.38,0.44,1.69,0.74c0.29,0.28,0.54,0.71,0.69,1.08c0.63,1.54-0.06,2.93-0.47,4.39
		c0.07-0.01,0.13-0.01,0.2-0.02c0.61-0.06,1.29,0.62,1.23,1.23c-0.1,0.89-0.9,3.48,0.06,4.03c0.39,0.21,1.55-0.15,2.03-0.06
		c0.94,0.17,1.73,0.66,2.13,1.57c0.56,1.28-0.66,3.45,0.36,4.48c0.06,0.06,3.63,2.02,3.2,2.23c0.93-0.45,2.1,0.29,1.79,1.38
		c-0.59,1.17-0.21,2.19,1.12,3.06c0.21-0.14,0.43-0.29,0.64-0.43c0.49-0.13,0.94-0.61,1.45-0.76c0.72-0.21,1.47-0.2,2.15,0.13
		c1.87,0.91,1.4,2.92,2.3,4.42c0.09,0.14,0.18,0.26,0.29,0.37c0.36,0.36,0.83,0.55,1.31,0.74c0.51,0.2,1.05,0.39,1.47,0.77
		c0.64,0.59,0.99,1.42,1.37,2.19c0.1,0.21,0.21,0.42,0.33,0.62c0.83,1.38,2.65,4.05,4.55,3.15c0.71-0.34,0.89-1.05,1.8-1.15
		c0.86-0.09,1.43,0.32,1.96,0.94c1.5,1.79,0.77,3.85,4.15,3.59c0.72-0.06,1.19-0.51,2.04-0.23c0.99,0.33,1.21,1.07,1.88,1.72
		c0.2,0.32,0.37,0.66,0.52,1c0.6-0.18,1.21-0.36,1.81-0.54c0.28-0.18,0.72-0.93,1.04-1.19c0.66-0.55,1.36-0.94,2.24-0.85
		c1.79,0.17,3.21,2.44,4.34,4.22c0.36-0.38,0.7-0.76,1.06-1.14c0.43-0.45,1.32-0.5,1.73,0C204.95,63.31,206.67,63.55,208.45,63.35z"
		/>
	<path class="st3" d="M208.45,144.13v2.45c-0.29-0.04-0.58-1.27-0.88-1.35c0,0.01-0.01,0.02-0.01,0.03
		c-0.36,0.87-1.3,1.19-2.05,0.54c-1.83-1.58-2.38-1.61-3.93,0.21c-0.45,0.53-0.55,0.81-1.21,1.02c-1.36,0.44-3.29-0.23-4.8-0.95
		c-0.32,0.59-0.8,1.09-1.53,1.43c-1.87,0.88-3.96-1.05-4.64,1.86c-0.19,0.81-1.12,1.08-1.8,0.74c-1.25-1.04-2.54-0.98-3.85,0.18
		c-0.04,0.35-0.14,0.69-0.29,1c-0.47,0.64-0.53,1.08-1.31,1.46c-1.52,0.74-6-1.61-5.89,1.68c0.03,0.76-0.81,1.44-1.55,1.18
		c-2.51-0.87-2.23,2-3.78,2.91c-1.03,0.61-2.4,0.69-3.67,0.63c0.38,1.33,0.85,2.56-0.55,3.69c-2.07,1.68-6.64-0.51-6.81,3.04
		c-0.09,1.93,0.6,3.36-1.18,4.91c-1.07,0.94-2.44,1.18-3.75,0.91c-0.34,1.25-0.02,2.88-0.89,4.06c-0.54,0.72-1.21,1.24-1.98,1.58
		c0.31,0.84,0.34,1.76-0.02,2.68c-0.51,1.29-3.63,2.43-3.21,3.72c0.41,1.24,2.35,1.26,2.19,3.12c-0.19,2.17-3.34,3.8-4.8,5.02
		c-0.13,0.12-0.28,0.19-0.42,0.23c0.01,1.04,0.73,3.63,0.47,4.39c-0.34,1.02-1.04,1.73-1.79,2.41c0.46,0.21,1.05,0.41,1.17,0.46
		c0.61,0.27,0.74,1.15,0.43,1.68c-1.31,2.33-1.02,4.86-0.78,7.41h-2.45c-0.21-2.55-0.47-5.04,0.52-7.41
		c-0.86-0.39-1.56-0.82-1.81-1.89c-0.1-0.42-0.01-0.89,0.31-1.19c0.64-0.59,1.43-1.13,1.72-1.86c0.01-0.01,0.01-0.01,0.01-0.02
		c0.04-0.1,0.07-0.21,0.09-0.33c0.01-0.01,0.01-0.01,0.01-0.02v-0.01c0.04-0.26,0.02-0.54-0.09-0.86c-0.24-0.71-0.81-1.05-0.92-1.87
		c-0.19-1.53,0.7-2.76,1.98-3.42c0.25-0.13,0.5-0.17,0.72-0.14c0.77-0.58,1.59-1.18,2.17-1.87c0.87-1.04,0.67-0.86,0.01-1.72
		c-0.57-0.75-1.42-0.94-1.75-1.95c-0.28-0.83-0.09-1.67,0.4-2.37c0.64-0.94,4.69-2.4,3.05-4.06c-0.58-0.59-0.41-1.91,0.54-2.05
		c3.71-0.53,1.88-3.85,3.39-5.81c0.31-0.4,0.85-0.79,1.38-0.56c1.34,0.8,2.35,0.07,3.01-2.21c-0.14-0.29-0.25-0.6-0.34-0.92
		c0-0.47-0.17-0.88-0.1-1.38c0.13-0.94,0.72-1.73,1.47-2.3c1.22-0.93,2.58-0.85,4.01-1.02c0.66,0.17,1.24,0.02,1.72-0.45
		c0.81-0.17,0.97-0.55,0.45-1.16c0.03-0.43-0.31-1.32-0.34-1.78c-0.04-0.61,0.6-1.29,1.23-1.23c1.71,0.17,3.15,0.4,4.14-1.28
		c0.36-0.61,0.23-1.24,0.83-1.8c0.88-0.82,2.11-0.86,3.26-0.64c0.25-0.93,0.78-1.75,1.68-2.31c0.65-0.41,1.38-0.6,2.15-0.62
		c0.73-0.01,2.02,0.76,2.65,0.57c1.32-0.41,1.49-2.79,3.06-3.44c1.34-0.55,2.66-0.26,3.91,0.26c0.29-0.76,0.69-1.47,1.35-1.94
		c0.94-0.67,4.75-0.29,4.85-1.07c0.11-0.9,0.96-1.56,1.84-1.06c1.81,1.03,3.51,1.95,4.93,0.2c0.53-0.66,0.94-1.52,1.71-1.93
		c1.36-0.72,2.63,0.18,3.72,1.19h0.01c0.02,0.02,0.04,0.04,0.06,0.06c0.01-0.01,0.02-0.02,0.03-0.03c0.28-0.29,0.67-0.45,1.11-0.27
		C207.53,142.68,207.99,144.04,208.45,144.13z"/>
	<path class="st3" d="M65.1,208.45h-2.45c0.36-2.23,0.33-5.12-2.03-5.5c-0.83-0.13-1.06-1.17-0.73-1.8c0.78-1.5,2.13-1.72,1.28-3.54
		c-0.79-1.7-1.42-3.08-1.6-5c-0.1-1.04-0.1-2.09-0.16-3.13c-0.04-0.58,0.05-1.37-0.31-1.86c-0.62-0.85-0.09-0.23-0.9-0.5
		c-1.19-0.38-2.17-0.11-2.79-1.51c-0.54-1.21,0.01-2.29,0.46-3.41c0.59-1.47,0.95-2.99-0.34-4.27c-0.67-0.66-1.69-0.77-2.47-1.2
		c-0.62-0.34-1.08-0.67-1.43-1.08c-0.34-0.42-0.58-0.92-0.77-1.61c-0.39-1.44-0.31-2.5-1.26-3.73c-0.39-0.5-0.85-0.97-1.13-1.54
		c-0.64-1.29-0.06-3.01-1.06-3.8c-1.02-0.8-2.17-0.32-3.06-1.48c-0.7-0.91-0.64-1.44-1.64-2.27c-1.02-0.86-1.19-0.65-2.3-1.03
		c-1.11-0.39-1.92-1.16-2.69-2.02c-0.56-0.62-1.01-1.39-1.64-1.95c-1.12-1-2.46-1.16-3.84-1.59c-1.54-0.47-2.63-1.25-3.75-2.38
		c-1.45-1.48-2.96-1.6-4.93-1.68c-0.43-0.02-0.86,0.01-1.3-0.07c-1.71-0.34-3.56-1.49-4.99-2.4c-1.58-1.01-2.93-2.12-5.02-1.79
		c-0.45,0.07-0.8,0.45-1.28,0.51c-1.34,0.15-2.06-0.78-3.18-1.28c-2.65-1.19-5.49,0.21-8.25-0.19v-2.45
		c2.22,0.77,4.72-0.37,7.03-0.18c1.82,0.15,3.12,1.62,4.77,1.26c1.64-0.36,2.52-0.85,4.23,0.03c2.6,1.34,5.01,4.23,8.17,3.99
		c1.89-0.14,2.87-0.53,4.59,0.72c0.85,0.61,1.46,1.45,2.22,2.16c1.16,1.08,2.32,1.32,3.77,1.75c1.81,0.53,2.95,1.29,4.2,2.69
		c0.56,0.62,1,1.38,1.64,1.91c0.97,0.8,1.92,0.69,3.04,0.99c1.45,0.4,1.68,1.19,2.5,2.27c0.74,0.97-0.13,0.5,1.15,1.27
		c0.99,0.59,0.62,0.26,1.19,0.48c0.67,0.27,1.07,0.25,1.61,0.75c1.13,1.09,0.53,2.4,0.78,3.74c0.17,0.87,0.66,1.59,1.19,2.3
		c0.58,0.79,1.19,1.57,1.42,2.54c0.36,1.59,0.53,2.36,2.09,3.35c0.5,0.31,1.07,0.45,1.57,0.82c1.07,0.81,1.78,2,2.08,3.3
		c0.45,1.92-0.57,2.73-0.8,4.42c-0.25,1.85,1.9,0.89,2.93,1.93c0.89,0.9,0.85,2.5,0.93,3.66c0.16,2.32-0.1,4.94,1.19,7
		c0.73,1.17,1.96,2.06,1.45,3.62c-0.24,0.74-0.85,1.16-1.42,1.61c0.75,0.51,1.23,1.24,1.49,2.1v0.01c0.13,0.37,0.21,0.77,0.26,1.19
		c0,0.01,0,0.01,0,0.01C64.99,205.82,65.24,207.2,65.1,208.45z"/>
	<path class="st4" d="M15.77,91.24c-0.25-0.42-0.59-0.76-1.01-1.01c-0.17-0.12-0.29-0.17-0.5-0.26c-0.34-0.14-0.77-0.27-1.15-0.23
		c-0.71,0.08-1.41,0.24-1.91,0.79c-0.14,0.18-0.28,0.36-0.42,0.55c-0.24,0.42-0.37,0.88-0.37,1.36c-0.06,0.55,0.17,1.2,0.5,1.65
		c0.25,0.42,0.59,0.76,1.01,1.01c0.44,0.26,0.92,0.38,1.43,0.39c0.75-0.03,1.46-0.29,2-0.83c0.51-0.51,0.83-1.27,0.83-2
		C16.15,92.16,16.02,91.68,15.77,91.24z"/>
	<path class="st4" d="M16.7,81.84c-3.68,0-3.69,5.72,0,5.72C20.38,87.56,20.39,81.84,16.7,81.84z"/>
	<path class="st4" d="M29.35,83.69c-0.47-0.47-1.25-0.83-1.93-0.8c-0.71,0.03-1.44,0.26-1.93,0.8c-0.46,0.5-0.88,1.23-0.8,1.93
		c0.06,0.55,0.08,1.12,0.3,1.64c0.21,0.5,0.41,0.8,0.78,1.24c0.35,0.42,1.11,0.71,1.65,0.68c0.59-0.03,1.25-0.22,1.65-0.68
		c0.37-0.43,0.57-0.74,0.78-1.24c0.22-0.52,0.24-1.08,0.3-1.64C30.22,84.97,29.79,84.13,29.35,83.69z"/>
	<path class="st4" d="M33.24,108.96c-3.08,0-3.08,4.79,0,4.79C36.32,113.74,36.33,108.96,33.24,108.96z"/>
	<path class="st4" d="M22.52,117.54c-2.28,0-2.28,3.54,0,3.54C24.8,121.09,24.8,117.54,22.52,117.54z"/>
	<path class="st4" d="M26.03,105.09c-0.44-0.44-1.26-0.74-1.87-0.5c-0.42,0.17-0.82,0.33-1.2,0.59c-0.62,0.42-1.11,1.09-1.08,1.88
		c0.03,0.58,0.22,1.12,0.64,1.54c0.39,0.39,0.98,0.64,1.54,0.64c0.81,0,1.44-0.43,1.88-1.08c0.26-0.38,0.42-0.78,0.59-1.2
		C26.77,106.35,26.47,105.53,26.03,105.09z"/>
	<path class="st4" d="M43.96,92.96c-2.77,0-2.78,4.31,0,4.31C46.73,97.27,46.74,92.96,43.96,92.96z"/>
	<path class="st4" d="M50.39,119.5c-3.31,0-3.32,5.15,0,5.15C53.71,124.65,53.71,119.5,50.39,119.5z"/>
	<path class="st4" d="M64.18,130.82c-4.11,0-4.12,6.39,0,6.39C68.29,137.21,68.3,130.82,64.18,130.82z"/>
	<path class="st4" d="M10.27,123.56c-2.18,0-3.03,2.05-2.58,3.66c-0.5,0.77-0.15,2.08,1.05,2.08c0.32,0,0.58-0.1,0.78-0.25
		c0.23,0.06,0.48,0.1,0.75,0.1C13.87,129.16,13.88,123.56,10.27,123.56z"/>
	<path class="st4" d="M10.98,103.12c-0.94,0-1.39,0.77-1.34,1.51c-3.13,0.01-3.13,4.88,0.01,4.88c2.17,0,2.84-2.34,2.01-3.78
		C12.73,105.12,12.51,103.12,10.98,103.12z"/>
	<path class="st4" d="M48.86,69.75c-3.87,0-3.87,6.01,0,6.01C52.73,75.76,52.73,69.75,48.86,69.75z"/>
	<path class="st4" d="M36.92,74.48c-3.3,0-3.3,5.12,0,5.12C40.21,79.6,40.22,74.48,36.92,74.48z"/>
	<path class="st4" d="M64.18,88.27c-2.89,0-2.9,4.5,0,4.5C67.07,92.77,67.08,88.27,64.18,88.27z"/>
	<path class="st4" d="M61.73,103.92c-2.46,0-2.47,3.83,0,3.83C64.19,107.75,64.2,103.92,61.73,103.92z"/>
	<path class="st4" d="M75.82,111.89c-3.65,0-3.66,5.67,0,5.67C79.47,117.56,79.47,111.89,75.82,111.89z"/>
	<path class="st4" d="M36,127.47c-3.7,0-3.7,5.74,0,5.74C39.69,133.22,39.7,127.47,36,127.47z"/>
	<path class="st4" d="M57.13,140.18c-2.71,0-2.71,4.21,0,4.21C59.84,144.4,59.85,140.18,57.13,140.18z"/>
	<path class="st4" d="M63.87,155.22c-2.68,0-2.68,4.16,0,4.16C66.55,159.38,66.56,155.22,63.87,155.22z"/>
	<path class="st4" d="M79.19,155.01c-4.13,0-4.13,6.41,0,6.41C83.32,161.43,83.32,155.01,79.19,155.01z"/>
	<path class="st4" d="M78.88,164.86c-4.07,0-4.07,6.32,0,6.32C82.95,171.18,82.95,164.86,78.88,164.86z"/>
	<path class="st4" d="M72.14,175.38c-3.54,0-3.55,5.5,0,5.5C75.68,180.88,75.69,175.38,72.14,175.38z"/>
	<path class="st4" d="M81.39,184.4c-0.48-0.59-1.21-0.98-2.2-0.98c-2.01,0-2.97,1.64-2.87,3.2c-1.88,0.22-1.82,3.25,0.21,3.25
		c0.66,0,1.12-0.32,1.36-0.77c0.37,0.17,0.8,0.27,1.29,0.27c1.68,0,2.63-1.15,2.83-2.43C82.94,186.3,82.72,184.54,81.39,184.4z"/>
	<path class="st4" d="M79.8,194.85c-3.71,0-3.72,5.77,0,5.77C83.51,200.62,83.52,194.85,79.8,194.85z"/>
	<path class="st4" d="M99.71,191.88c-3.99,0-3.99,6.2,0,6.2C103.7,198.08,103.71,191.88,99.71,191.88z"/>
	<path class="st4" d="M104,188.6c-3.08,0-3.08,4.79,0,4.79C107.08,193.39,107.08,188.6,104,188.6z"/>
	<path class="st4" d="M95.73,174.84c-3.83,0-3.84,5.96,0,5.96C99.56,180.8,99.57,174.84,95.73,174.84z"/>
	<path class="st4" d="M95.93,182.42c-0.27,0-0.48,0.1-0.63,0.25c-0.3-0.75-0.97-1.33-2.03-1.33c-2.96,0-2.96,4.59,0,4.59
		c1.27,0,2-0.86,2.17-1.83c0.13,0.08,0.29,0.14,0.48,0.14C97.11,184.25,97.11,182.42,95.93,182.42z"/>
	<path class="st4" d="M88.38,198.97c-1.28,0-2.5,1.12-2.44,2.44c0.06,1.32,1.07,2.44,2.44,2.44c1.28,0,2.5-1.12,2.44-2.44
		C90.76,200.09,89.75,198.97,88.38,198.97z"/>
	<path class="st4" d="M109.82,199.65c-3.05,0-3.05,4.74,0,4.74C112.87,204.39,112.87,199.65,109.82,199.65z"/>
	<path class="st4" d="M120.85,194.92c-3.62,0-3.62,5.62,0,5.62C124.47,200.55,124.47,194.92,120.85,194.92z"/>
	<path class="st4" d="M129.73,198.2c-3.34,0-3.35,5.19,0,5.19C133.07,203.39,133.08,198.2,129.73,198.2z"/>
	<path class="st4" d="M135.86,184.7c-4.16,0-4.16,6.46,0,6.46C140.01,191.16,140.02,184.7,135.86,184.7z"/>
	<path class="st4" d="M126.67,159.16c-3.91,0-3.92,6.08,0,6.08C130.58,165.24,130.59,159.16,126.67,159.16z"/>
	<path class="st4" d="M117.78,174.71c-3.22,0-3.22,5,0,5C121,179.71,121.01,174.71,117.78,174.71z"/>
	<path class="st4" d="M112.88,182.47c-3.08,0-3.08,4.79,0,4.79C115.96,187.26,115.97,182.47,112.88,182.47z"/>
	<path class="st4" d="M102.32,161.38c1.2-0.6,0.98-2.8-0.67-2.8c-1.22,0-1.65,1.21-1.31,2.08c0,0-0.01,0-0.01,0
		c-3.96,0-3.96,6.15,0,6.15C103.44,166.81,104.1,163.01,102.32,161.38z"/>
	<path class="st4" d="M107.98,148.87c-3.76,0-3.76,5.84,0,5.84C111.74,154.71,111.75,148.87,107.98,148.87z"/>
	<path class="st4" d="M127.28,149.42c-3.83,0-3.84,5.96,0,5.96C131.11,155.38,131.12,149.42,127.28,149.42z"/>
	<path class="st4" d="M93.28,145.16c-3.4,0-3.41,5.29,0,5.29C96.68,150.45,96.69,145.16,93.28,145.16z"/>
	<path class="st4" d="M103.08,119.42c-3.02,0-3.02,4.69,0,4.69C106.1,124.11,106.1,119.42,103.08,119.42z"/>
	<path class="st4" d="M114.11,123.64c-3.11,0-3.12,4.83,0,4.83C117.22,128.47,117.22,123.64,114.11,123.64z"/>
	<path class="st4" d="M138.31,132.66c-3.33,0-3.33,5.17,0,5.17C141.63,137.83,141.64,132.66,138.31,132.66z"/>
	<path class="st4" d="M145.4,136.72c0.05,0.01,0.1,0.02,0.16,0.02c1.52,0,1.53-2.37,0-2.37c-1.37,0-1.51,1.91-0.41,2.3
		c-0.13-0.02-0.26-0.04-0.41-0.04c-2.96,0-2.96,4.59,0,4.59C147.45,141.22,147.67,137.35,145.4,136.72z"/>
	<path class="st4" d="M139.84,150.45c-3.3,0-3.3,5.12,0,5.12C143.13,155.57,143.14,150.45,139.84,150.45z"/>
	<path class="st4" d="M145.05,146.87c-3.96,0-3.96,6.15,0,6.15C149,153.02,149.01,146.87,145.05,146.87z"/>
	<path class="st4" d="M88.99,133c-4.07,0-4.07,6.32,0,6.32C93.06,139.32,93.06,133,88.99,133z"/>
	<path class="st4" d="M89.91,119.57c-4.4,0-4.41,6.84,0,6.84C94.31,126.41,94.32,119.57,89.91,119.57z"/>
	<path class="st4" d="M107.68,93.37c-4.22,0-4.23,6.56,0,6.56C111.9,99.93,111.9,93.37,107.68,93.37z"/>
	<path class="st4" d="M121.46,104.03c-3.51,0-3.52,5.46,0,5.46C124.97,109.49,124.98,104.03,121.46,104.03z"/>
	<path class="st4" d="M130.96,117.16c-3.96,0-3.96,6.15,0,6.15C134.91,123.31,134.92,117.16,130.96,117.16z"/>
	<path class="st4" d="M140.15,112.64c-3.46,0-3.47,5.38,0,5.38C143.61,118.03,143.62,112.64,140.15,112.64z"/>
	<path class="st4" d="M141.98,98.91c-3,0-3.01,4.67,0,4.67C144.99,103.58,144.99,98.91,141.98,98.91z"/>
	<path class="st4" d="M149.64,95.66c-4.03,0-4.04,6.27,0,6.27C153.68,101.93,153.68,95.66,149.64,95.66z"/>
	<path class="st4" d="M149.64,112.52c-3.62,0-3.62,5.62,0,5.62C153.26,118.15,153.27,112.52,149.64,112.52z"/>
	<path class="st4" d="M147.5,127.13c-3.74,0-3.75,5.82,0,5.82C151.24,132.94,151.25,127.13,147.5,127.13z"/>
	<path class="st4" d="M157.3,140.27c-4.17,0-4.18,6.49,0,6.49C161.47,146.76,161.48,140.27,157.3,140.27z"/>
	<path class="st4" d="M168.02,137.02c-3.63,0-3.64,5.65,0,5.65C171.65,142.66,171.66,137.02,168.02,137.02z"/>
	<path class="st4" d="M174.15,128.35c-3.36,0-3.36,5.22,0,5.22C177.5,133.56,177.51,128.35,174.15,128.35z"/>
	<path class="st4" d="M174.15,116.97c-3.42,0-3.42,5.31,0,5.31C177.57,122.28,177.57,116.97,174.15,116.97z"/>
	<path class="st4" d="M183.95,121.36c-4.07,0-4.07,6.32,0,6.32C188.01,127.68,188.02,121.36,183.95,121.36z"/>
	<path class="st4" d="M194.67,127.14c-2.94,0-2.95,4.57,0,4.57C197.61,131.71,197.62,127.14,194.67,127.14z"/>
	<path class="st4" d="M205.39,120.85c-1.97,0-1.97,3.06,0,3.06C207.36,123.91,207.37,120.85,205.39,120.85z"/>
	<path class="st4" d="M199.57,103.47c-2.65,0-2.65,4.12,0,4.12C202.22,107.59,202.22,103.47,199.57,103.47z"/>
	<path class="st4" d="M195.59,100.12c-1.61,0-2.46,1.18-2.55,2.43c-0.61,0.82-0.28,2.3,1,2.4c0.4,0.3,0.92,0.48,1.55,0.48
		C199.01,105.43,199.01,100.12,195.59,100.12z"/>
	<path class="st4" d="M199.26,91.34c-3.28,0-3.29,5.1,0,5.1C202.54,96.44,202.55,91.34,199.26,91.34z"/>
	<path class="st4" d="M202.33,83.93c-3.36,0-3.36,5.22,0,5.22C205.68,89.15,205.69,83.93,202.33,83.93z"/>
	<path class="st4" d="M194.67,76.93c-3.7,0-3.7,5.74,0,5.74C198.37,82.67,198.37,76.93,194.67,76.93z"/>
	<path class="st4" d="M183.34,78.34c-3.06,0-3.07,4.76,0,4.76C186.4,83.1,186.41,78.34,183.34,78.34z"/>
	<path class="st4" d="M179.97,90.62c-3.82,0-3.83,5.93,0,5.93C183.79,96.55,183.79,90.62,179.97,90.62z"/>
	<path class="st4" d="M170.47,98.05c-1,0-1.5,0.77-1.5,1.55c-0.27-0.13-0.58-0.2-0.95-0.2c-2.66,0-2.76,3.95-0.32,4.28
		c0.07,0.53,0.45,1.01,1.14,1.01c1.1,0,1.41-1.22,0.93-1.92c0.29-0.48,0.39-1.09,0.29-1.65c0.13,0.03,0.26,0.05,0.41,0.05
		C172.48,101.17,172.48,98.05,170.47,98.05z"/>
	<path class="st4" d="M164.96,105.05c-2.59,0-2.59,4.02,0,4.02C167.54,109.07,167.55,105.05,164.96,105.05z"/>
	<path class="st4" d="M181.82,104.29c-0.6-0.55-1.33-0.89-2.16-0.89c-0.78,0-1.6,0.34-2.16,0.89c-0.53,0.53-0.93,1.4-0.89,2.16
		c0.04,0.79,0.29,1.61,0.89,2.16c0.6,0.55,1.33,0.89,2.16,0.89c0.78,0,1.6-0.34,2.16-0.89c0.53-0.53,0.93-1.4,0.89-2.16
		C182.68,105.66,182.42,104.84,181.82,104.29z"/>
	<path class="st4" d="M171.7,76.24c-3.79,0-3.79,5.89,0,5.89C175.48,82.13,175.49,76.24,171.7,76.24z"/>
	<path class="st4" d="M165.26,66.75c-3.39,0-3.39,5.26,0,5.26C168.65,72.02,168.66,66.75,165.26,66.75z"/>
	<path class="st4" d="M152.4,68.07c-2.48,0-2.48,3.85,0,3.85C154.88,71.93,154.88,68.07,152.4,68.07z"/>
	<path class="st4" d="M150.87,77.39c-2.09,0-3.06,1.75-2.91,3.37c-2.64,1-2.29,5.64,1.07,5.64c1.96,0,2.89-1.58,2.81-3.1
		C154.73,82.39,154.41,77.39,150.87,77.39z"/>
	<path class="st4" d="M132.79,81.91c-3.99,0-3.99,6.2,0,6.2C136.78,88.11,136.79,81.91,132.79,81.91z"/>
	<path class="st4" d="M120.23,81.56c-4.05,0-4.06,6.29,0,6.29C124.28,87.85,124.29,81.56,120.23,81.56z"/>
	<path class="st4" d="M91.55,96.36c-0.13-0.48-0.38-0.89-0.72-1.24c-0.35-0.35-0.77-0.59-1.24-0.72c-0.5-0.13-1-0.13-1.5,0
		c-0.06,0.01-0.12,0.02-0.19,0.03c-0.98,0.17-1.8,1.14-2.06,2.06c-0.28,1.01,0.01,2.12,0.76,2.86c0.74,0.74,1.85,1.04,2.86,0.76
		c0.92-0.25,1.89-1.07,2.06-2.06c0.01-0.06,0.02-0.12,0.03-0.19C91.69,97.36,91.69,96.86,91.55,96.36z"/>
	<path class="st4" d="M86.4,104.1c0.42-0.52,0.2-1.52-0.67-1.52c-0.91,0-1.11,1.09-0.61,1.58c-3.41,0.79-3.14,6.51,0.82,6.51
		C90.01,110.67,90.18,104.57,86.4,104.1z"/>
	<path class="st4" d="M81.95,76.57c-4.16,0-4.16,6.46,0,6.46C86.1,83.03,86.11,76.57,81.95,76.57z"/>
	<path class="st4" d="M71.22,81.36c-3.91,0-3.92,6.08,0,6.08C75.14,87.43,75.14,81.36,71.22,81.36z"/>
	<path class="st4" d="M65.71,75.09c-2.91,0-2.92,4.52,0,4.52C68.62,79.61,68.63,75.09,65.71,75.09z"/>
	<path class="st4" d="M71.84,61.67c-1.22,0-1.71,1.14-1.47,2.05c-0.37-0.16-0.8-0.25-1.29-0.25c-4.07,0-4.07,6.32,0,6.32
		c2.85,0,3.7-3.11,2.55-4.96c0.07,0.01,0.13,0.02,0.2,0.02C73.88,64.85,73.88,61.67,71.84,61.67z"/>
	<path class="st4" d="M61.12,55.72c-1.4,0-2.27,0.8-2.64,1.81c-0.16-0.05-0.33-0.09-0.52-0.09c-1.97,0-1.97,3.06,0,3.06
		c0.3,0,0.55-0.08,0.76-0.2c0.45,0.76,1.25,1.31,2.4,1.31C64.9,61.61,64.91,55.72,61.12,55.72z"/>
	<path class="st4" d="M68.47,39.92c-3.62,0-3.62,5.62,0,5.62C72.09,45.55,72.09,39.92,68.47,39.92z"/>
	<path class="st4" d="M73.98,44.67c-3.42,0-3.42,5.31,0,5.31C77.4,49.99,77.4,44.67,73.98,44.67z"/>
	<path class="st4" d="M79.19,53.42c-3.2,0-3.21,4.98,0,4.98C82.39,58.4,82.4,53.42,79.19,53.42z"/>
	<path class="st4" d="M87.46,56.53c-3.54,0-3.55,5.5,0,5.5C91,62.03,91.01,56.53,87.46,56.53z"/>
	<path class="st4" d="M88.68,73.6c-3.65,0-3.66,5.67,0,5.67C92.33,79.27,92.34,73.6,88.68,73.6z"/>
	<path class="st4" d="M108.32,67.08c0.81-1.72-0.01-4.27-2.48-4.27c-3.25,0-3.67,4.39-1.25,5.52c-0.8,1.71,0.02,4.24,2.48,4.24
		C110.29,72.58,110.71,68.22,108.32,67.08z"/>
	<path class="st4" d="M110.43,75.47c-3.2,0-3.21,4.98,0,4.98C113.64,80.45,113.64,75.47,110.43,75.47z"/>
	<path class="st4" d="M126.36,66.54c-0.57,0-1.03,0.16-1.4,0.41c-0.27-0.58-0.82-1.03-1.66-1.03c-2.48,0-2.48,3.85,0,3.85
		c0.25,0,0.48-0.05,0.68-0.12c0.21,1.05,1,1.96,2.39,1.96C129.63,71.62,129.63,66.54,126.36,66.54z"/>
	<path class="st4" d="M133.1,53.7c-2.45,0-2.45,3.81,0,3.81C135.55,57.5,135.55,53.7,133.1,53.7z"/>
	<path class="st4" d="M138,42.1c-2.4,0-2.41,3.73,0,3.73C140.4,45.83,140.41,42.1,138,42.1z"/>
	<path class="st4" d="M145.66,48.76c-3.28,0-3.29,5.1,0,5.1C148.94,53.86,148.94,48.76,145.66,48.76z"/>
	<path class="st4" d="M147.19,58.56c-3.68,0-3.69,5.72,0,5.72C150.87,64.28,150.88,58.56,147.19,58.56z"/>
	<path class="st4" d="M114.72,40.9c-0.47,0-0.83,0.18-1.08,0.45c-0.03-0.69-0.48-1.37-1.37-1.37c-1.84,0-1.84,2.86,0,2.86
		c0.42,0,0.74-0.16,0.97-0.39c0.01,0.76,0.5,1.51,1.48,1.51C116.69,43.96,116.7,40.9,114.72,40.9z"/>
	<path class="st4" d="M104.31,45.19c-3.54,0-3.55,5.5,0,5.5C107.85,50.7,107.85,45.19,104.31,45.19z"/>
	<path class="st4" d="M99.1,28.03c-1.97,0-1.97,3.06,0,3.06C101.07,31.1,101.07,28.03,99.1,28.03z"/>
	<path class="st4" d="M104.61,26.12c-3.65,0-3.66,5.67,0,5.67C108.26,31.79,108.27,26.12,104.61,26.12z"/>
	<path class="st4" d="M89.3,32.84c-3.64,0-4.02,5.08-1.13,6.13c0.08,0.78,0.63,1.51,1.64,1.51c1.28,0,1.82-1.15,1.61-2.13
		C93.16,36.64,92.46,32.84,89.3,32.84z"/>
	<path class="st4" d="M83.17,42.69c-4,0-4.01,6.22,0,6.22C87.17,48.91,87.18,42.69,83.17,42.69z"/>
	<path class="st4" d="M79.49,26.22c-3.13,0-3.13,4.86,0,4.86C82.62,31.07,82.63,26.22,79.49,26.22z"/>
	<path class="st4" d="M81.95,17.05c-3.88,0-3.89,6.03,0,6.03C85.83,23.08,85.83,17.05,81.95,17.05z"/>
	<path class="st4" d="M87.15,5.47c-3.02,0-3.02,4.69,0,4.69C90.17,10.16,90.18,5.47,87.15,5.47z"/>
	<path class="st4" d="M92.36,10.81c-4.03,0-4.04,6.27,0,6.27C96.39,17.08,96.4,10.81,92.36,10.81z"/>
	<path class="st4" d="M109.82,15.51c-3.5,0-3.5,5.43,0,5.43C113.32,20.95,113.32,15.51,109.82,15.51z"/>
	<path class="st4" d="M100.02,1.14c-3.46,0-3.47,5.38,0,5.38C103.48,6.53,103.49,1.14,100.02,1.14z"/>
	<path class="st4" d="M119.01,3.21c-3.17,0-3.18,4.93,0,4.93C122.18,8.14,122.19,3.21,119.01,3.21z"/>
	<path class="st4" d="M124.22,5.49c-3.79,0-3.79,5.89,0,5.89C128,11.37,128.01,5.49,124.22,5.49z"/>
	<path class="st4" d="M128.2,21.31c-3.53,0-3.53,5.48,0,5.48C131.73,26.79,131.73,21.31,128.2,21.31z"/>
	<path class="st4" d="M128.81,30.18c-3.54,0-3.55,5.5,0,5.5C132.35,35.69,132.36,30.18,128.81,30.18z"/>
	<path class="st4" d="M119.01,42.76c-3.13,0-3.13,4.86,0,4.86C122.14,47.62,122.14,42.76,119.01,42.76z"/>
	<path class="st4" d="M124.83,47.26c-3.63,0-3.64,5.65,0,5.65C128.46,52.91,128.47,47.26,124.83,47.26z"/>
	<path class="st4" d="M118.7,26.36c-2.94,0-2.95,4.57,0,4.57C121.64,30.93,121.65,26.36,118.7,26.36z"/>
	<path class="st4" d="M103.57,87.36c-1-1.71-3.64-1.77-4.63,0c-0.46,0.82-0.58,1.87-0.09,2.71c0.21,0.37,0.57,0.7,0.93,0.92
		c0.5,0.3,0.91,0.33,1.48,0.4c0.48,0,0.93-0.12,1.35-0.37c0.4-0.24,0.72-0.56,0.96-0.96C104.06,89.24,104.06,88.19,103.57,87.36z"/>
	<path class="st4" d="M24.66,96.09c-2.69,0-2.7,4.19,0,4.19C27.36,100.27,27.36,96.09,24.66,96.09z"/>
	<path class="st4" d="M114.41,135.26c-3.93,0-3.93,6.1,0,6.1C118.34,141.36,118.35,135.26,114.41,135.26z"/>
	<path class="st4" d="M126.97,135.26c-3.93,0-3.93,6.1,0,6.1C130.9,141.36,130.91,135.26,126.97,135.26z"/>
	<path class="st5" d="M45.08,107.91c-4.56,0-4.57,7.08,0,7.08C49.64,115,49.65,107.91,45.08,107.91z"/>
	<path class="st5" d="M53.05,91.88c-2.26,0-3.12,2.19-2.56,3.84c-0.63,0.12-1.23,0.42-1.68,0.86c-0.54,0.54-0.95,1.44-0.92,2.22
		c0.04,0.81,0.3,1.65,0.92,2.22c0.61,0.56,1.37,0.92,2.22,0.92c0.8,0,1.65-0.35,2.22-0.92c0.54-0.54,0.95-1.44,0.92-2.22
		c-0.02-0.47-0.13-0.95-0.33-1.38C56.65,96.67,56.4,91.88,53.05,91.88z"/>
	<path class="st5" d="M49.37,80.57c-4,0-4.01,6.22,0,6.22C53.38,86.79,53.38,80.57,49.37,80.57z"/>
	<path class="st5" d="M48.76,74.8c-1.97,0-1.97,3.06,0,3.06C50.73,77.86,50.73,74.8,48.76,74.8z"/>
	<path class="st5" d="M38.55,73.69c-0.1,0-0.2,0.01-0.29,0.01c0.13-0.11,0.24-0.24,0.35-0.37c0.19-0.22,0.08-0.63-0.25-0.61
		c-0.18,0.01-0.37,0.02-0.55,0.05c-0.01,0-0.12,0.02-0.18,0.04c-0.37-0.18-0.78-0.17-1.12,0.08c-0.36,0.28-0.49,0.76-0.31,1.18
		c0.07,0.16,0.18,0.29,0.3,0.39c-1.69,1.65-1.01,5.32,2.04,5.32C42.48,79.79,42.48,73.69,38.55,73.69z"/>
	<path class="st5" d="M22.42,76.07c-4.02,0-4.03,6.25,0,6.25C26.44,82.31,26.44,76.07,22.42,76.07z"/>
	<path class="st5" d="M15.68,77.53c-3.71,0-3.72,5.77,0,5.77C19.39,83.3,19.4,77.53,15.68,77.53z"/>
	<path class="st5" d="M9.55,77.02c-3.57,0-3.58,5.55,0,5.55C13.12,82.58,13.13,77.02,9.55,77.02z"/>
	<path class="st5" d="M24.66,106.05c-3.8,0-3.81,5.91,0,5.91C28.47,111.96,28.47,106.05,24.66,106.05z"/>
	<path class="st5" d="M16.7,118c-3.4,0-3.41,5.29,0,5.29C20.1,123.29,20.11,118,16.7,118z"/>
	<path class="st5" d="M28.14,130.23c-3.7,0-3.7,5.74,0,5.74C31.83,135.97,31.84,130.23,28.14,130.23z"/>
	<path class="st5" d="M39.78,129.65c-4.17,0-4.18,6.49,0,6.49C43.95,136.14,43.96,129.65,39.78,129.65z"/>
	<path class="st5" d="M49.17,139.37c-3.23,0-3.24,5.03,0,5.03C52.4,144.39,52.41,139.37,49.17,139.37z"/>
	<path class="st5" d="M62.85,113.98c-3.06,0-3.84,3.53-2.35,5.34c-3.13,1.06-2.76,6.5,1.13,6.5c3.24,0,4.04-3.79,2.4-5.66
		C66.91,119.07,66.53,113.98,62.85,113.98z"/>
	<path class="st5" d="M75.72,105.71c-4.23,0-4.24,6.58,0,6.58C79.95,112.29,79.96,105.71,75.72,105.71z"/>
	<path class="st5" d="M71.02,94.02c-3.24,0-3.49,4.64-0.74,5.35c-0.58,0.73-0.27,2.12,0.95,2.12c1.28,0,1.56-1.54,0.85-2.23
		C74.48,98.3,74.14,94.02,71.02,94.02z"/>
	<path class="st5" d="M52.23,63.99c-3.79,0-3.79,5.89,0,5.89C56.02,69.88,56.03,63.99,52.23,63.99z"/>
	<path class="st5" d="M64.48,63.78c-4.07,0-4.07,6.32,0,6.32C68.55,70.09,68.56,63.78,64.48,63.78z"/>
	<path class="st5" d="M75.92,68.71c-4.02,0-4.03,6.25,0,6.25C79.94,74.96,79.95,68.71,75.92,68.71z"/>
	<path class="st5" d="M83.68,61.84c-3.93,0-3.93,6.1,0,6.1C87.61,67.94,87.61,61.84,83.68,61.84z"/>
	<path class="st5" d="M73.88,45.66c-4.25,0-4.26,6.6,0,6.6C78.13,52.27,78.14,45.66,73.88,45.66z"/>
	<path class="st5" d="M85.31,29.55c-4.22,0-4.23,6.56,0,6.56C89.53,36.11,89.54,29.55,85.31,29.55z"/>
	<path class="st5" d="M91.65,25.66c-4.23,0-4.24,6.58,0,6.58C95.88,32.24,95.89,25.66,91.65,25.66z"/>
	<path class="st5" d="M86.74,12.4c-0.31,0-0.57,0.05-0.82,0.13c0.38-1.51-0.43-3.36-2.44-3.36c-3.39,0-3.39,5.26,0,5.26
		c0.29,0,0.55-0.05,0.8-0.12c-0.4,1.53,0.42,3.43,2.47,3.43C90.18,17.73,90.18,12.4,86.74,12.4z"/>
	<path class="st5" d="M98.79,3.28c-3.87,0-3.87,6.01,0,6.01C102.66,9.29,102.66,3.28,98.79,3.28z"/>
	<path class="st5" d="M113.7,10.45c-3.57,0-3.58,5.55,0,5.55C117.27,16,117.28,10.45,113.7,10.45z"/>
	<path class="st5" d="M111.25,17.19c-3.83,0-3.84,5.96,0,5.96C115.08,23.15,115.09,17.19,111.25,17.19z"/>
	<path class="st5" d="M101.24,25.91c-3.91,0-3.92,6.08,0,6.08C105.15,31.99,105.16,25.91,101.24,25.91z"/>
	<path class="st5" d="M105.33,37.3c-3.71,0-3.72,5.77,0,5.77C109.04,43.07,109.04,37.3,105.33,37.3z"/>
	<path class="st5" d="M93.48,44.39c-0.98,0-1.47,0.77-1.46,1.53c-0.24-0.07-0.5-0.11-0.78-0.11c-3.54,0-3.55,5.5,0,5.5
		c2.28,0,3.09-2.28,2.43-3.91C95.42,47.21,95.37,44.39,93.48,44.39z"/>
	<path class="st5" d="M101.65,56.6c-3.15,0-3.52,4.3-1.12,5.33c0.04,0.76,0.55,1.49,1.53,1.49c1.21,0,1.7-1.11,1.48-2.02
		C105.03,59.89,104.41,56.6,101.65,56.6z"/>
	<path class="st5" d="M114.52,51.55c-4.3,0-4.3,6.68,0,6.68C118.81,58.23,118.82,51.55,114.52,51.55z"/>
	<path class="st5" d="M132.49,28.24c-4.07,0-4.07,6.32,0,6.32C136.55,34.56,136.56,28.24,132.49,28.24z"/>
	<path class="st5" d="M125.95,12.71c-0.89,0-1.59,0.31-2.09,0.78c-0.17-0.06-0.35-0.1-0.57-0.1c-0.22,0-0.41,0.04-0.58,0.1
		c-0.14-0.02-0.29-0.03-0.44-0.03c-4.16,0-4.16,6.46,0,6.46c1.1,0,1.9-0.45,2.42-1.12c0.36,0.15,0.78,0.24,1.25,0.24
		C130.03,19.05,130.04,12.71,125.95,12.71z"/>
	<path class="st5" d="M128.61,54.9c-3.66,0-3.67,5.7,0,5.7C132.27,60.59,132.28,54.9,128.61,54.9z"/>
	<path class="st5" d="M135.96,66.63c0.04-0.1,0.08-0.21,0.11-0.32c1.46-0.12,1.42-2.43-0.11-2.43c-0.22,0-0.41,0.05-0.57,0.14
		c-0.32-0.25-0.74-0.41-1.26-0.41c-2.71,0-2.71,4.21,0,4.21c0.12,0,0.23-0.02,0.34-0.03c-0.08,0.73,0.34,1.52,1.29,1.52
		C137.42,69.31,137.49,66.84,135.96,66.63z"/>
	<path class="st5" d="M131.87,67.4c-3.6,0-3.61,5.6,0,5.6C135.48,73,135.48,67.4,131.87,67.4z"/>
	<path class="st5" d="M115.13,68.51c-4.02,0-4.03,6.25,0,6.25C119.15,74.76,119.16,68.51,115.13,68.51z"/>
	<path class="st5" d="M117.17,82.17c-3.26,0-3.27,5.07,0,5.07C120.44,87.24,120.44,82.17,117.17,82.17z"/>
	<path class="st5" d="M94.3,84.8c-1.97,0-1.97,3.06,0,3.06C96.27,87.87,96.27,84.8,94.3,84.8z"/>
	<path class="st5" d="M100.22,91.87c-3.13,0-3.13,4.86,0,4.86C103.35,96.73,103.35,91.87,100.22,91.87z"/>
	<path class="st5" d="M107.37,97.47c-1.97,0-1.97,3.06,0,3.06C109.34,100.53,109.34,97.47,107.37,97.47z"/>
	<path class="st5" d="M102.06,108.42c-1.7,0-2.28,1.74-1.74,2.93c-0.46-0.45-1.1-0.75-1.94-0.75c-3.73,0-3.73,5.79,0,5.79
		c2.52,0,3.34-2.65,2.44-4.37c0.31,0.26,0.72,0.42,1.24,0.42C104.65,112.44,104.65,108.42,102.06,108.42z"/>
	<path class="st5" d="M82.25,89.23c-3.63,0-3.64,5.65,0,5.65C85.89,94.88,85.89,89.23,82.25,89.23z"/>
	<path class="st5" d="M95.73,132.94c-3.62,0-3.62,5.62,0,5.62C99.35,138.57,99.35,132.94,95.73,132.94z"/>
	<path class="st5" d="M81.43,130.04c-3.42,0-3.42,5.31,0,5.31C84.85,135.35,84.86,130.04,81.43,130.04z"/>
	<path class="st5" d="M75.51,132.93c-3.63,0-3.64,5.65,0,5.65C79.15,138.58,79.15,132.93,75.51,132.93z"/>
	<path class="st5" d="M74.29,145.59c-3.37,0-3.38,5.24,0,5.24C77.66,150.83,77.67,145.59,74.29,145.59z"/>
	<path class="st5" d="M66.94,153.99c-3.08,0-3.08,4.79,0,4.79C70.02,158.77,70.02,153.99,66.94,153.99z"/>
	<path class="st5" d="M79.19,164.11c-2.93,0-2.93,4.55,0,4.55C82.11,168.66,82.12,164.11,79.19,164.11z"/>
	<path class="st5" d="M81.23,177.82c-3.42,0-3.42,5.31,0,5.31C84.65,183.13,84.65,177.82,81.23,177.82z"/>
	<path class="st5" d="M86.54,184.48c-3.26,0-3.27,5.07,0,5.07C89.8,189.55,89.81,184.48,86.54,184.48z"/>
	<path class="st5" d="M86.13,191.18c-3.83,0-3.84,5.96,0,5.96C89.97,197.14,89.97,191.18,86.13,191.18z"/>
	<path class="st5" d="M82.05,197.36c-2.97,0-2.98,4.62,0,4.62C85.02,201.98,85.02,197.36,82.05,197.36z"/>
	<path class="st5" d="M102.47,192.27c-3.74,0-3.75,5.82,0,5.82C106.21,198.09,106.22,192.27,102.47,192.27z"/>
	<path class="st5" d="M112.07,194.88c-3.02,0-3.02,4.69,0,4.69C115.08,199.57,115.09,194.88,112.07,194.88z"/>
	<path class="st5" d="M124.93,187.73c-3.02,0-3.02,4.69,0,4.69C127.95,192.42,127.95,187.73,124.93,187.73z"/>
	<path class="st5" d="M133.1,177.32c-4.33,0-4.33,6.72,0,6.72C137.43,184.04,137.43,177.32,133.1,177.32z"/>
	<path class="st5" d="M133.1,165.36c-4.48,0-4.49,6.96,0,6.96c0.01,0,0.01,0,0.02,0c0.08,0.66,0.55,1.27,1.41,1.27
		c1.38,0,1.76-1.55,1.13-2.41C137.29,169.2,136.44,165.36,133.1,165.36z"/>
	<path class="st5" d="M113.29,172.27c-3.99,0-3.99,6.2,0,6.2C117.28,178.47,117.29,172.27,113.29,172.27z"/>
	<path class="st5" d="M102.47,169.68c-3.65,0-3.66,5.67,0,5.67C106.12,175.35,106.12,169.68,102.47,169.68z"/>
	<path class="st5" d="M107.78,155.28c-2.73,0-2.73,4.24,0,4.24C110.5,159.52,110.51,155.28,107.78,155.28z"/>
	<path class="st5" d="M106.96,137.82c-3.91,0-3.92,6.08,0,6.08C110.87,143.9,110.88,137.82,106.96,137.82z"/>
	<path class="st5" d="M114.93,137.27c-3.57,0-3.58,5.55,0,5.55C118.5,142.82,118.5,137.27,114.93,137.27z"/>
	<path class="st5" d="M126.16,147.7c-1.97,0-1.97,3.06,0,3.06C128.13,150.76,128.13,147.7,126.16,147.7z"/>
	<path class="st5" d="M149.44,140.5c-2.3,0-3.24,2.12-2.81,3.85c-3.77,0.16-3.72,6.09,0.16,6.09c2.34,0,3.29-2.17,2.84-3.92
		C153.31,146.33,153.26,140.5,149.44,140.5z"/>
	<path class="st5" d="M138.21,134.63c-2.23,0-2.24,3.47,0,3.47C140.44,138.1,140.44,134.63,138.21,134.63z"/>
	<path class="st5" d="M129.22,133.68c-3.73,0-3.73,5.79,0,5.79C132.95,139.47,132.95,133.68,129.22,133.68z"/>
	<path class="st5" d="M119.62,119.51c-3.82,0-3.83,5.93,0,5.93C123.44,125.45,123.45,119.51,119.62,119.51z"/>
	<path class="st5" d="M133.1,103.03c-4.27,0-4.27,6.63,0,6.63C137.37,109.66,137.37,103.03,133.1,103.03z"/>
	<path class="st5" d="M132.08,92.97c-3.82,0-3.83,5.93,0,5.93C135.9,98.9,135.9,92.97,132.08,92.97z"/>
	<path class="st5" d="M157.81,129.31c-0.13,0-0.25,0.01-0.37,0.04c-0.25-1.38-1.29-2.59-3.1-2.59c-4.22,0-4.23,6.56,0,6.56
		c1.02,0,1.78-0.38,2.31-0.96c0.28,0.27,0.66,0.45,1.16,0.45C160.05,132.8,160.06,129.31,157.81,129.31z"/>
	<path class="st5" d="M152.09,114.25c-3.5,0-3.5,5.43,0,5.43C155.59,119.68,155.59,114.25,152.09,114.25z"/>
	<path class="st5" d="M168.02,113.88c-3.45,0-3.45,5.36,0,5.36C171.47,119.24,171.48,113.88,168.02,113.88z"/>
	<path class="st5" d="M173.74,127.75c-2.16,0-2.16,3.35,0,3.35C175.89,131.1,175.9,127.75,173.74,127.75z"/>
	<path class="st5" d="M184.56,122.91c-4.17,0-4.18,6.49,0,6.49C188.73,129.4,188.74,122.91,184.56,122.91z"/>
	<path class="st5" d="M199.88,117.39c-2.83,0-3.75,2.97-2.76,4.89c-0.49,0.01-0.98,0.13-1.44,0.4c-0.33,0.19-0.61,0.44-0.83,0.72
		c-0.03,0-0.05-0.02-0.08-0.02c-0.72,0-0.88,0.85-0.49,1.25c-0.02,0.09-0.04,0.18-0.05,0.27c-0.13,0.95,0.15,1.87,0.84,2.56
		c0.38,0.38,0.83,0.64,1.35,0.78c0.54,0.15,1.08,0.15,1.62,0c1.46-0.22,2.98-1.08,3.19-2.66c0.09-0.69-0.1-1.31-0.49-1.81
		C204.04,122.96,203.76,117.39,199.88,117.39z"/>
	<path class="st5" d="M201.72,104.88c-4.25,0-4.26,6.6,0,6.6C205.97,111.49,205.97,104.88,201.72,104.88z"/>
	<path class="st5" d="M203.76,86.77c-3.91,0-3.92,6.08,0,6.08C207.67,92.85,207.68,86.77,203.76,86.77z"/>
	<path class="st5" d="M202.12,74.02c-3.5,0-3.5,5.43,0,5.43C205.62,79.45,205.63,74.02,202.12,74.02z"/>
	<path class="st5" d="M186.2,78.49c-4.05,0-4.06,6.29,0,6.29C190.25,84.79,190.25,78.49,186.2,78.49z"/>
	<path class="st5" d="M176.8,85.77c-3.88,0-3.89,6.03,0,6.03C180.68,91.8,180.69,85.77,176.8,85.77z"/>
	<path class="st5" d="M182.38,98.53c-0.35-0.96-1.18-1.72-2.51-1.72c-3.6,0-3.61,5.6,0,5.6c1.33,0,2.16-0.76,2.51-1.72
		C183.25,100.31,183.26,98.91,182.38,98.53z"/>
	<path class="st5" d="M157.61,99.68c-4.37,0-4.38,6.8,0,6.8C161.98,106.48,161.99,99.68,157.61,99.68z"/>
	<path class="st5" d="M157.61,88.8c-3.4,0-3.41,5.29,0,5.29C161.01,94.09,161.01,88.8,157.61,88.8z"/>
	<path class="st5" d="M163.74,78.94c2.56-1.61,1.95-6.54-1.85-6.54c-4.33,0-4.52,6.42-0.57,6.99c-0.49,0.97-0.03,2.45,1.39,2.45
		C164.38,81.85,164.72,79.79,163.74,78.94z"/>
	<path class="st5" d="M158.83,66.35c-0.03,0-0.06,0.01-0.09,0.01c-0.39-1.06-1.31-1.89-2.77-1.89c-3.97,0-3.98,6.17,0,6.17
		c1.64,0,2.61-1.06,2.89-2.3C160.11,68.3,160.11,66.35,158.83,66.35z"/>
	<path class="st5" d="M142.09,78.33c-3.73,0-3.73,5.79,0,5.79C145.81,84.13,145.82,78.33,142.09,78.33z"/>
	<path class="st5" d="M141.27,51.78c-3.03,0-3.77,3.57-2.21,5.3c-1.45,0.54-1.26,3.08,0.58,3.08c1.28,0,1.76-1.24,1.45-2.17
		c0.06,0,0.12,0.01,0.19,0.01C145.27,58,145.28,51.78,141.27,51.78z"/>
	<path class="st5" d="M134.12,44.03c-3.73,0-3.73,5.79,0,5.79C137.85,49.82,137.85,44.03,134.12,44.03z"/>
	<path class="st5" d="M121.66,36.54c-3.9,0-3.9,6.05,0,6.05C125.56,42.6,125.57,36.54,121.66,36.54z"/>
	<path class="st5" d="M115.95,31.18c-3.43,0-3.44,5.34,0,5.34C119.38,36.52,119.39,31.18,115.95,31.18z"/>
	<path class="st5" d="M95.95,67.65c-0.76,0-1.57,0.33-2.11,0.87c-0.52,0.52-0.91,1.36-0.87,2.11c0.07,1.61,1.31,2.98,2.98,2.98
		c0.76,0,1.57-0.33,2.11-0.87c0.52-0.52,0.91-1.36,0.87-2.11C98.85,69.02,97.62,67.65,95.95,67.65z"/>
	<g>
		<path class="st5" d="M4.71,97.23c0.01-0.02,0.01-0.03,0.02-0.05C4.74,97.15,4.74,97.15,4.71,97.23z"/>
		<path class="st5" d="M6.73,97.68c-0.02-0.06-0.04-0.12-0.05-0.19c-0.02-0.12-0.03-0.12-0.03-0.01c-0.01-0.12-0.03-0.23-0.05-0.35
			c-0.02-0.04-0.03-0.07-0.04-0.1c-0.07-0.65-0.87-0.94-1.36-0.49c-0.03,0.03-0.05,0.04-0.06,0.05c-0.03,0.03-0.08,0.06-0.15,0.11
			c-0.14,0.14-0.2,0.29-0.27,0.46c-0.02,0.06-0.09,0.26-0.1,0.32c-0.03,0.16-0.04,0.31-0.03,0.47c0.05,0.65,0.54,1.16,1.23,1.06
			C6.45,98.95,6.92,98.31,6.73,97.68z"/>
	</g>
	<path class="st5" d="M5.9,84.94c-0.17-0.45-0.7-0.64-1.08-0.29c-0.11,0.11-0.23,0.22-0.34,0.32c-0.02,0.01-0.07,0.05-0.09,0.07
		c-0.08,0.04-0.21,0.11-0.02,0.04c-0.36,0.15-0.65,0.36-0.76,0.76c-0.09,0.34-0.02,0.68,0.2,0.95c0.49,0.63,1.37,0.52,1.8-0.11
		C5.92,86.19,6.12,85.52,5.9,84.94z"/>
	<path class="st5" d="M9.35,83.97c-1.21,0-1.21,1.88,0,1.88C10.56,85.85,10.56,83.97,9.35,83.97z"/>
	<path class="st5" d="M25.48,103.7c-1.3,0-1.3,2.02,0,2.02C26.78,105.73,26.79,103.7,25.48,103.7z"/>
	<path class="st5" d="M30.99,104.62c-0.91,0-0.91,1.41,0,1.41C31.9,106.03,31.9,104.62,30.99,104.62z"/>
	<path class="st5" d="M30.59,95.2c-0.68,0-0.68,1.06,0,1.06C31.27,96.26,31.27,95.2,30.59,95.2z"/>
	<path class="st5" d="M30.99,89.39c-0.79,0-0.8,1.23,0,1.23C31.79,90.63,31.79,89.39,30.99,89.39z"/>
	<path class="st5" d="M30.99,81.27c-0.21,0-0.21,0.33,0,0.33C31.21,81.6,31.21,81.27,30.99,81.27z"/>
	<path class="st5" d="M32.14,78.17c-0.15-0.44-0.27-0.87-0.37-1.33c-0.08-0.36-0.65-0.36-0.73,0c-0.1,0.46-0.22,0.89-0.37,1.33
		c-0.16,0.48,0.27,0.97,0.74,0.97C31.88,79.14,32.31,78.64,32.14,78.17z"/>
	<path class="st5" d="M45.9,69.1c-1.42,0-1.43,2.21,0,2.21C47.32,71.31,47.33,69.1,45.9,69.1z"/>
	<path class="st5" d="M43.2,64.05c-0.36,0.18-0.7,0.42-1.05,0.62c-0.6,0.34-0.62,1.19-0.1,1.6c0.54,0.42,1.33,0.15,1.52-0.5
		c0.11-0.38,0.27-0.76,0.37-1.15C44.04,64.17,43.59,63.86,43.2,64.05z"/>
	<path class="st5" d="M48.76,71.89c-0.45,0-0.45,0.7,0,0.7C49.21,72.6,49.21,71.89,48.76,71.89z"/>
	<path class="st5" d="M40.39,91.26c-1.55,0-1.55,2.41,0,2.41C41.94,93.67,41.94,91.26,40.39,91.26z"/>
	<path class="st5" d="M25.28,120.39c-1.38,0-1.38,2.14,0,2.14C26.65,122.53,26.66,120.39,25.28,120.39z"/>
	<path class="st5" d="M22.62,127.31c-1.4,0-1.41,2.18,0,2.18C24.03,129.49,24.03,127.31,22.62,127.31z"/>
	<path class="st5" d="M23.23,133.48c-0.04,0-0.04,0.06,0,0.06C23.27,133.54,23.27,133.48,23.23,133.48z"/>
	<path class="st5" d="M47.74,136.95c-0.04,0-0.04,0.06,0,0.06C47.78,137.01,47.78,136.95,47.74,136.95z"/>
	<path class="st5" d="M49.17,113.08c-2.11,0-2.11,3.27,0,3.27C51.28,116.36,51.28,113.08,49.17,113.08z"/>
	<path class="st5" d="M57.54,111.79c-1.4,0-1.41,2.18,0,2.18C58.95,113.97,58.95,111.79,57.54,111.79z"/>
	<path class="st5" d="M60.2,131.9c-1.54,0-1.55,2.4,0,2.4C61.74,134.3,61.74,131.9,60.2,131.9z"/>
	<path class="st5" d="M62.85,139.47c-1,0-1,1.55,0,1.55C63.85,141.02,63.85,139.47,62.85,139.47z"/>
	<path class="st5" d="M62.44,151.58c-1.71,0-1.71,2.66,0,2.66C64.15,154.24,64.15,151.58,62.44,151.58z"/>
	<path class="st5" d="M58.56,150.7c-1.53,0-1.54,2.38,0,2.38C60.1,153.08,60.1,150.7,58.56,150.7z"/>
	<path class="st5" d="M63.87,146.96c-0.04,0-0.04,0.06,0,0.06C63.91,147.02,63.91,146.96,63.87,146.96z"/>
	<path class="st5" d="M77.35,146.55c-0.04,0-0.04,0.06,0,0.06C77.39,146.61,77.39,146.55,77.35,146.55z"/>
	<path class="st5" d="M83.07,152.47c-0.04,0-0.04,0.06,0,0.06C83.11,152.53,83.11,152.47,83.07,152.47z"/>
	<path class="st5" d="M90.83,150.98c-1.7,0-1.7,2.64,0,2.64C92.53,153.62,92.53,150.98,90.83,150.98z"/>
	<path class="st5" d="M98.59,148.63c-1.3,0-1.3,2.02,0,2.02C99.89,150.65,99.89,148.63,98.59,148.63z"/>
	<path class="st5" d="M88.58,149.21c-1.61,0-1.61,2.5,0,2.5C90.19,151.71,90.19,149.21,88.58,149.21z"/>
	<path class="st5" d="M80.82,144.6c-1.23,0-1.23,1.91,0,1.91C82.05,146.51,82.05,144.6,80.82,144.6z"/>
	<path class="st5" d="M85.72,145.72c-1.63,0-1.63,2.53,0,2.53C87.35,148.25,87.35,145.72,85.72,145.72z"/>
	<path class="st5" d="M86.95,158.95c-1.69,0-1.69,2.63,0,2.63C88.64,161.57,88.64,158.95,86.95,158.95z"/>
	<path class="st5" d="M82.86,167.46c-1.52,0-1.52,2.35,0,2.35C84.38,169.81,84.38,167.46,82.86,167.46z"/>
	<path class="st5" d="M76.33,172.35c-1,0-1,1.55,0,1.55C77.33,173.9,77.33,172.35,76.33,172.35z"/>
	<path class="st5" d="M67.55,165.55c-1.61,0-1.61,2.5,0,2.5C69.16,168.04,69.16,165.55,67.55,165.55z"/>
	<path class="st5" d="M70.82,171.64c-1.64,0-1.65,2.56,0,2.56C72.46,174.2,72.46,171.64,70.82,171.64z"/>
	<path class="st5" d="M77.35,180.51c-1.79,0-1.8,2.79,0,2.79C79.14,183.3,79.15,180.51,77.35,180.51z"/>
	<path class="st5" d="M79.8,190.78c-0.8,0-1.28,0.51-1.43,1.11c-1.17,0.2-1.1,2.12,0.2,2.12c0.28,0,0.51-0.09,0.67-0.24
		c0.16,0.06,0.34,0.1,0.55,0.1C81.79,193.87,81.79,190.78,79.8,190.78z"/>
	<path class="st5" d="M95.32,190.41c-1.94,0-1.94,3.02,0,3.02C97.26,193.42,97.26,190.41,95.32,190.41z"/>
	<path class="st5" d="M103.69,184.69c-1.41,0-1.42,2.2,0,2.2C105.11,186.89,105.11,184.69,103.69,184.69z"/>
	<path class="st5" d="M100.22,180.01c-1.13,0-1.13,1.75,0,1.75C101.35,181.76,101.35,180.01,100.22,180.01z"/>
	<path class="st5" d="M117.58,186.06c-2.01,0-2.02,3.13,0,3.13C119.59,189.19,119.6,186.06,117.58,186.06z"/>
	<path class="st5" d="M120.03,190.12c-1.52,0-1.52,2.35,0,2.35C121.55,192.48,121.55,190.12,120.03,190.12z"/>
	<path class="st5" d="M130.85,184.84c-2,0-2.01,3.12,0,3.12C132.86,187.96,132.86,184.84,130.85,184.84z"/>
	<path class="st5" d="M142.9,162.24c-1.92,0-1.92,2.99,0,2.99C144.82,165.23,144.83,162.24,142.9,162.24z"/>
	<path class="st5" d="M145.15,158.08c-1.76,0-1.76,2.73,0,2.73C146.9,160.81,146.91,158.08,145.15,158.08z"/>
	<path class="st5" d="M148.01,154.59c-1.52,0-1.52,2.35,0,2.35C149.52,156.95,149.53,154.59,148.01,154.59z"/>
	<path class="st5" d="M129.63,152.72c-0.77,0-0.77,1.19,0,1.19C130.4,153.91,130.4,152.72,129.63,152.72z"/>
	<path class="st5" d="M117.99,156.79c-1.84,0-1.84,2.86,0,2.86C119.83,159.65,119.83,156.79,117.99,156.79z"/>
	<path class="st5" d="M116.15,149.39c-1.64,0-1.64,2.54,0,2.54C117.79,151.93,117.79,149.39,116.15,149.39z"/>
	<path class="st5" d="M119.83,139.17c-1.64,0-1.65,2.56,0,2.56C121.47,141.73,121.47,139.17,119.83,139.17z"/>
	<path class="st5" d="M108.19,134.08c-1.64,0-1.64,2.54,0,2.54C109.82,136.62,109.82,134.08,108.19,134.08z"/>
	<path class="st5" d="M103.49,128.85c-1.79,0-1.8,2.79,0,2.79C105.28,131.63,105.28,128.85,103.49,128.85z"/>
	<path class="st5" d="M115.54,118.2c-2.09,0-2.09,3.25,0,3.25C117.63,121.45,117.63,118.2,115.54,118.2z"/>
	<path class="st5" d="M119.62,118.05c-0.71,0-0.71,1.11,0,1.11C120.33,119.15,120.33,118.05,119.62,118.05z"/>
	<path class="st5" d="M136.57,129.96c-1.15,0-1.15,1.78,0,1.78C137.72,131.74,137.72,129.96,136.57,129.96z"/>
	<path class="st5" d="M141.27,136.62c-1.52,0-1.52,2.35,0,2.35C142.78,138.97,142.79,136.62,141.27,136.62z"/>
	<path class="st5" d="M147.8,134.91c-0.04,0-0.04,0.06,0,0.06C147.84,134.97,147.84,134.91,147.8,134.91z"/>
	<path class="st5" d="M73.06,125.21c-0.96,0-0.96,1.49,0,1.49C74.02,126.7,74.02,125.21,73.06,125.21z"/>
	<path class="st5" d="M86.56,115.08c0.59-0.52,0.38-1.77-0.64-1.77c-1.28,0-1.29,2,0,2c0.01,0,0.02,0,0.03,0
		c-0.47,0.47-0.28,1.51,0.59,1.51C87.65,116.82,87.66,115.11,86.56,115.08z"/>
	<path class="st5" d="M90.83,109.67c-1.51,0-1.51,2.34,0,2.34C92.33,112.01,92.34,109.67,90.83,109.67z"/>
	<path class="st5" d="M97.82,105.81c-0.25-0.89-1.55-1.37-2.21-0.58c-0.14,0.16-0.25,0.32-0.34,0.48c-0.19,0.25-0.31,0.52-0.22,0.86
		c0.09,0.33,0.33,0.5,0.62,0.62c0.16,0.1,0.33,0.18,0.52,0.25C97.17,107.79,98.07,106.71,97.82,105.81z"/>
	<path class="st5" d="M73.95,120.23c-0.18-0.41-0.76-0.48-1.11-0.29c-0.52,0.29-0.83,0.77-1.16,1.24c-0.51,0.72,0.02,1.77,0.81,1.98
		c0.85,0.23,1.69-0.43,1.71-1.3C74.21,121.28,74.19,120.76,73.95,120.23z"/>
	<path class="st5" d="M67.75,96.29c-0.59,0-0.59,0.92,0,0.92C68.34,97.21,68.34,96.29,67.75,96.29z"/>
	<path class="st5" d="M59.38,94.82c-1.43,0-1.43,2.23,0,2.23C60.81,97.05,60.81,94.82,59.38,94.82z"/>
	<path class="st5" d="M66.53,86.67c-1.4,0-1.41,2.18,0,2.18C67.93,88.86,67.93,86.67,66.53,86.67z"/>
	<path class="st5" d="M74.9,82.23c-1.34,0-1.34,2.08,0,2.08C76.24,84.31,76.24,82.23,74.9,82.23z"/>
	<path class="st5" d="M78.58,78.15c-1.6,0-1.6,2.48,0,2.48C80.17,80.63,80.18,78.15,78.58,78.15z"/>
	<path class="st5" d="M68.98,68.59c-1.28,0-1.29,2,0,2C70.26,70.59,70.26,68.59,68.98,68.59z"/>
	<path class="st5" d="M65.3,58.79c-1.55,0-1.55,2.41,0,2.41C66.85,61.2,66.86,58.79,65.3,58.79z"/>
	<path class="st5" d="M59.79,53.91c-2.04,0-2.05,3.17,0,3.17C61.83,57.09,61.83,53.91,59.79,53.91z"/>
	<path class="st5" d="M64.89,50.8c-1.32,0-1.32,2.05,0,2.05C66.21,52.85,66.22,50.8,64.89,50.8z"/>
	<path class="st5" d="M66.73,49.8c-1.29,0-1.3,2.01,0,2.01C68.02,51.81,68.03,49.8,66.73,49.8z"/>
	<path class="st5" d="M78.78,55.06c-1.62,0-1.62,2.51,0,2.51C80.4,57.57,80.4,55.06,78.78,55.06z"/>
	<path class="st5" d="M91.24,60.24c-2.05,0-2.05,3.19,0,3.19C93.29,63.42,93.29,60.24,91.24,60.24z"/>
	<path class="st5" d="M96.57,52.82c0.08-0.81-0.4-1.7-1.46-1.7c-1.87,0-1.95,2.76-0.26,3.02c0.03,0.64,0.45,1.26,1.28,1.26
		C97.69,55.4,97.83,53.23,96.57,52.82z"/>
	<path class="st5" d="M96.55,59.98c-1.86,0-1.86,2.89,0,2.89C98.4,62.86,98.41,59.98,96.55,59.98z"/>
	<path class="st5" d="M109.82,55.06c-0.82,0-0.82,1.28,0,1.28C110.64,56.34,110.64,55.06,109.82,55.06z"/>
	<path class="st5" d="M118.19,59.69c-1.17,0-1.18,1.82,0,1.82C119.37,61.52,119.37,59.69,118.19,59.69z"/>
	<path class="st5" d="M148.21,63.91c-2.06,0-2.06,3.2,0,3.2C150.27,67.11,150.28,63.91,148.21,63.91z"/>
	<path class="st5" d="M160.46,63.23c-0.04,0-0.04,0.06,0,0.06C160.5,63.29,160.5,63.23,160.46,63.23z"/>
	<path class="st5" d="M161.28,68.64c-2.01,0-2.02,3.13,0,3.13C163.3,71.77,163.3,68.64,161.28,68.64z"/>
	<path class="st5" d="M149.44,79.35c-1.63,0-1.63,2.53,0,2.53C151.06,81.88,151.07,79.35,149.44,79.35z"/>
	<path class="st5" d="M133.1,78.97c-0.8,0-0.81,1.25,0,1.25C133.9,80.22,133.91,78.97,133.1,78.97z"/>
	<path class="st5" d="M126.97,75.46c-1.9,0-1.91,2.96,0,2.96C128.88,78.42,128.88,75.46,126.97,75.46z"/>
	<path class="st5" d="M126.97,83.85c-2.15,0-2.16,3.35,0,3.35C129.13,87.19,129.13,83.85,126.97,83.85z"/>
	<path class="st5" d="M126.16,93.36c-2,0-2,3.1,0,3.1C128.15,96.46,128.16,93.36,126.16,93.36z"/>
	<path class="st5" d="M111.45,94.31c-1.03,0-1.04,1.61,0,1.61C112.49,95.92,112.49,94.31,111.45,94.31z"/>
	<path class="st5" d="M100.83,79.93c-1.94,0-1.94,3.02,0,3.02C102.77,82.94,102.78,79.93,100.83,79.93z"/>
	<path class="st5" d="M106.14,78.23c-1.76,0-1.76,2.73,0,2.73C107.9,80.96,107.9,78.23,106.14,78.23z"/>
	<path class="st5" d="M136.78,106.11c-0.04,0-0.04,0.06,0,0.06C136.82,106.17,136.82,106.11,136.78,106.11z"/>
	<path class="st5" d="M142.9,101.35c-2.23,0-2.23,3.46,0,3.46C145.13,104.81,145.13,101.35,142.9,101.35z"/>
	<path class="st5" d="M111.25,109.57c-0.85,0-0.85,1.32,0,1.32C112.1,110.89,112.1,109.57,111.25,109.57z"/>
	<path class="st5" d="M112.47,102.19c-2.2,0-2.2,3.42,0,3.42C114.67,105.61,114.68,102.19,112.47,102.19z"/>
	<path class="st5" d="M143.31,117.4c-1.28,0-1.29,2,0,2C144.6,119.39,144.6,117.4,143.31,117.4z"/>
	<path class="st5" d="M147.19,127.03c-0.98,0-0.98,1.52,0,1.52C148.17,128.55,148.17,127.03,147.19,127.03z"/>
	<path class="st5" d="M149.85,137.65c-0.45,0-0.45,0.7,0,0.7C150.3,138.35,150.3,137.65,149.85,137.65z"/>
	<path class="st5" d="M165.57,122.75c-1.49,0-1.49,2.31,0,2.31C167.06,125.07,167.06,122.75,165.57,122.75z"/>
	<path class="st5" d="M169.86,128.37c-2.14,0-2.15,3.33,0,3.33C172,131.7,172.01,128.37,169.86,128.37z"/>
	<path class="st5" d="M176.6,127.63c-1.52,0-1.53,2.37,0,2.37C178.12,130,178.12,127.63,176.6,127.63z"/>
	<path class="st5" d="M179.66,115.59c-2.03,0-2.04,3.16,0,3.16C181.69,118.75,181.7,115.59,179.66,115.59z"/>
	<path class="st5" d="M182.52,111c-2.16,0-2.17,3.36,0,3.36C184.68,114.36,184.69,111,182.52,111z"/>
	<path class="st5" d="M189.26,111.08c-0.95,0-1.39,0.77-1.34,1.51c-0.09-0.02-0.19-0.04-0.3-0.04c-1.48,0-1.48,2.3,0,2.3
		c0.71,0,1.08-0.53,1.1-1.08c0.16,0.06,0.33,0.1,0.53,0.1C191.05,113.87,191.05,111.08,189.26,111.08z"/>
	<path class="st5" d="M192.53,104.64c-1.67,0-1.68,2.6,0,2.6C194.2,107.24,194.2,104.64,192.53,104.64z"/>
	<path class="st5" d="M187.01,97.75c-0.81,0-0.81,1.26,0,1.26C187.83,99.02,187.83,97.75,187.01,97.75z"/>
	<path class="st5" d="M188.85,87.36c-1.84,0-1.84,2.86,0,2.86C190.69,90.21,190.69,87.36,188.85,87.36z"/>
	<path class="st5" d="M191.3,82.98c-1.95,0-1.95,3.03,0,3.03C193.25,86.01,193.25,82.98,191.3,82.98z"/>
	<path class="st5" d="M172.72,92.08c-2.07,0-2.07,3.22,0,3.22C174.79,95.3,174.79,92.08,172.72,92.08z"/>
	<path class="st5" d="M162.71,92.02c-1.1,0-1.1,1.71,0,1.71C163.81,93.72,163.81,92.02,162.71,92.02z"/>
	<path class="st5" d="M164.55,82.71c-2.04,0-2.05,3.17,0,3.17C166.59,85.88,166.59,82.71,164.55,82.71z"/>
	<path class="st5" d="M150.66,89.57c-1.1,0-1.1,1.71,0,1.71C151.76,91.27,151.76,89.57,150.66,89.57z"/>
	<path class="st5" d="M146.58,94.27c-1.62,0-1.62,2.51,0,2.51C148.2,96.78,148.2,94.27,146.58,94.27z"/>
	<path class="st5" d="M144.33,91.29c-1.51,0-1.51,2.34,0,2.34C145.84,93.63,145.84,91.29,144.33,91.29z"/>
	<path class="st5" d="M128.2,65.61c-1.97,0-1.97,3.06,0,3.06C130.17,68.67,130.17,65.61,128.2,65.61z"/>
	<path class="st5" d="M122.89,51.95c-2.2,0-2.2,3.42,0,3.42C125.09,55.37,125.09,51.95,122.89,51.95z"/>
	<path class="st5" d="M123.71,43.59c-1.66,0-1.67,2.58,0,2.58C125.37,46.17,125.37,43.59,123.71,43.59z"/>
	<path class="st5" d="M114.31,43.56c-0.91,0-0.92,1.42,0,1.42C115.23,44.98,115.23,43.56,114.31,43.56z"/>
	<path class="st5" d="M113.29,36.06c-1.89,0-1.9,2.94,0,2.94C115.19,39,115.19,36.06,113.29,36.06z"/>
	<path class="st5" d="M98.18,39.53c-1.89,0-1.9,2.94,0,2.94C100.07,42.47,100.08,39.53,98.18,39.53z"/>
	<path class="st5" d="M84.29,38.27c-1.93,0-1.93,3,0,3C86.22,41.28,86.23,38.27,84.29,38.27z"/>
	<path class="st5" d="M70.41,43.01c-0.04,0-0.04,0.06,0,0.06C70.45,43.07,70.45,43.01,70.41,43.01z"/>
	<path class="st5" d="M71.63,33.71c-1.76,0-1.77,2.74,0,2.74C73.4,36.45,73.4,33.71,71.63,33.71z"/>
	<path class="st5" d="M75.92,28.06c-1.94,0-1.94,3.02,0,3.02C77.86,31.07,77.86,28.06,75.92,28.06z"/>
	<path class="st5" d="M80.41,24.85c-1.87,0-1.87,2.9,0,2.9C82.28,27.75,82.28,24.85,80.41,24.85z"/>
	<path class="st5" d="M80.41,17.79c-0.69,0-0.69,1.08,0,1.08C81.11,18.87,81.11,17.79,80.41,17.79z"/>
	<path class="st5" d="M80.41,13.5c-1.76,0-1.76,2.73,0,2.73C82.17,16.23,82.17,13.5,80.41,13.5z"/>
	<path class="st5" d="M77.15,8.46c-1.66,0-1.67,2.58,0,2.58C78.81,11.05,78.81,8.46,77.15,8.46z"/>
	<path class="st5" d="M80.01,6.54c-1.25,0-1.25,1.94,0,1.94C81.25,8.48,81.25,6.54,80.01,6.54z"/>
	<path class="st5" d="M83.68,5.09c-1.54,0-1.55,2.4,0,2.4C85.22,7.48,85.23,5.09,83.68,5.09z"/>
	<path class="st5" d="M99,9.87c-1.96,0-1.96,3.04,0,3.04C100.96,12.91,100.96,9.87,99,9.87z"/>
	<path class="st5" d="M100.83,15.08c-2.08,0-2.08,3.23,0,3.23C102.91,18.31,102.92,15.08,100.83,15.08z"/>
	<path class="st5" d="M92.46,17.32c-1.57,0-1.57,2.44,0,2.44C94.03,19.76,94.04,17.32,92.46,17.32z"/>
	<path class="st5" d="M109.21,17.49c-0.04,0-0.04,0.06,0,0.06C109.25,17.55,109.25,17.49,109.21,17.49z"/>
	<path class="st5" d="M129.42,8.37c-1.52,0-1.53,2.37,0,2.37C130.95,10.74,130.95,8.37,129.42,8.37z"/>
	<path class="st5" d="M131.06,15.25c-1.61,0-1.61,2.5,0,2.5C132.67,17.74,132.67,15.25,131.06,15.25z"/>
	<path class="st5" d="M99.41,34.48c-1.29,0-1.3,2.01,0,2.01C100.7,36.49,100.7,34.48,99.41,34.48z"/>
	<path class="st5" d="M106.76,30.46c-1.48,0-1.48,2.3,0,2.3C108.24,32.76,108.24,30.46,106.76,30.46z"/>
	<path class="st5" d="M109.41,26.25c-1.64,0-1.64,2.54,0,2.54C111.05,28.79,111.05,26.25,109.41,26.25z"/>
	<path class="st5" d="M99.81,18.54c-1.84,0-1.84,2.86,0,2.86C101.65,21.4,101.66,18.54,99.81,18.54z"/>
	<path class="st5" d="M101.45,11.68c-1.99,0-1.99,3.09,0,3.09C103.43,14.77,103.44,11.68,101.45,11.68z"/>
	<path class="st5" d="M109,6.12c-1.78,0-1.79,2.77,0,2.77C110.79,8.9,110.79,6.12,109,6.12z"/>
	<path class="st5" d="M184.56,107.64c-1.49,0-1.49,2.31,0,2.31C186.05,109.95,186.05,107.64,184.56,107.64z"/>
	<path class="st5" d="M175.53,81.25c1.4-0.53,1.21-3-0.57-3c-1.87,0-1.99,2.72-0.35,3.07c-1.04,0.5-0.85,2.4,0.56,2.4
		C176.66,83.72,176.78,81.6,175.53,81.25z"/>
	<path class="st5" d="M182.11,77.84c-1.74,0-1.74,2.7,0,2.7C183.85,80.54,183.85,77.84,182.11,77.84z"/>
	<path class="st5" d="M177.41,76.48c-1.38,0-1.38,2.14,0,2.14C178.79,78.62,178.79,76.48,177.41,76.48z"/>
	<path class="st5" d="M159.44,85.35c-2.06,0-2.06,3.2,0,3.2C161.5,88.55,161.51,85.35,159.44,85.35z"/>
	<path class="st5" d="M154.34,77.58c-1.8,0-1.8,2.8,0,2.8C156.14,80.38,156.14,77.58,154.34,77.58z"/>
	<path class="st5" d="M181.91,92.72c-0.46,0-0.46,0.72,0,0.72C182.37,93.43,182.37,92.72,181.91,92.72z"/>
	<path class="st5" d="M188.85,105.69c-1.37,0-1.37,2.13,0,2.13C190.22,107.82,190.22,105.69,188.85,105.69z"/>
	<path class="st5" d="M196.2,112.84c-1.37,0-1.37,2.13,0,2.13C197.57,114.97,197.57,112.84,196.2,112.84z"/>
	<path class="st5" d="M190.48,125.92c-0.04,0-0.04,0.06,0,0.06C190.52,125.98,190.52,125.92,190.48,125.92z"/>
	<path class="st5" d="M184.56,131.16c-1.97,0-1.97,3.06,0,3.06C186.53,134.22,186.53,131.16,184.56,131.16z"/>
	<path class="st5" d="M178.44,131.06c-1.57,0-1.57,2.44,0,2.44C180.01,133.5,180.01,131.06,178.44,131.06z"/>
	<path class="st5" d="M193.34,108.13c-2.18,0-2.18,3.39,0,3.39C195.52,111.51,195.53,108.13,193.34,108.13z"/>
	<path class="st5" d="M193.55,94.72c-1.56,0-1.56,2.43,0,2.43C195.11,97.15,195.11,94.72,193.55,94.72z"/>
	<path class="st5" d="M192.93,91.41c-0.04,0-0.04,0.06,0,0.06C192.97,91.47,192.97,91.41,192.93,91.41z"/>
	<path class="st4" d="M174.96,106.24c-0.3,0-0.54,0.1-0.71,0.26c-0.16-0.64-0.67-1.19-1.53-1.19c-2.13,0-2.13,3.3,0,3.3
		c0.61,0,1.04-0.28,1.3-0.66c0.17,0.32,0.48,0.55,0.95,0.55C176.41,108.5,176.42,106.24,174.96,106.24z"/>
	<path class="st4" d="M175.78,100.81c-1.88,0-1.88,2.91,0,2.91C177.66,103.72,177.66,100.81,175.78,100.81z"/>
	<path class="st4" d="M167.41,88.22c-0.46,0-0.46,0.72,0,0.72C167.87,88.94,167.87,88.22,167.41,88.22z"/>
	<path class="st4" d="M163.12,86.04c-0.12,0-0.12,0.19,0,0.19C163.24,86.22,163.24,86.04,163.12,86.04z"/>
	<path class="st4" d="M164.55,80.53c-0.91,0-0.91,1.41,0,1.41C165.45,81.93,165.46,80.53,164.55,80.53z"/>
	<path class="st4" d="M179.86,77.56c-1.84,0-1.84,2.86,0,2.86C181.7,80.41,181.71,77.56,179.86,77.56z"/>
	<path class="st4" d="M185.79,84.38c-1.99,0-1.99,3.09,0,3.09C187.77,87.47,187.78,84.38,185.79,84.38z"/>
	<path class="st4" d="M196.2,85.97c-2.05,0-2.05,3.19,0,3.19C198.25,89.15,198.26,85.97,196.2,85.97z"/>
	<path class="st4" d="M191.91,116.73c-1.88,0-1.89,2.93,0,2.93C193.8,119.66,193.8,116.73,191.91,116.73z"/>
	<path class="st4" d="M181.09,122.66c-1.61,0-1.61,2.5,0,2.5C182.7,125.16,182.7,122.66,181.09,122.66z"/>
	<path class="st4" d="M158.83,127.66c-1.49,0-1.49,2.31,0,2.31C160.32,129.97,160.32,127.66,158.83,127.66z"/>
	<path class="st4" d="M138.82,143.11c-1.57,0-1.57,2.44,0,2.44C140.39,145.55,140.39,143.11,138.82,143.11z"/>
	<path class="st4" d="M131.06,146.61c-1.01,0-1.01,1.57,0,1.57C132.07,148.18,132.07,146.61,131.06,146.61z"/>
	<path class="st4" d="M127.99,134.56c-2.06,0-2.06,3.2,0,3.2C130.06,137.76,130.06,134.56,127.99,134.56z"/>
	<path class="st4" d="M127.79,125.74c-1.33,0-1.33,2.07,0,2.07C129.12,127.8,129.12,125.74,127.79,125.74z"/>
	<path class="st4" d="M125.34,123.27c-2.14,0-2.15,3.33,0,3.33C127.48,126.6,127.49,123.27,125.34,123.27z"/>
	<path class="st4" d="M111.86,156.81c-0.24,0-0.24,0.37,0,0.37C112.1,157.18,112.1,156.81,111.86,156.81z"/>
	<path class="st4" d="M94.71,159.72c-1.75,0-1.75,2.71,0,2.71C96.45,162.43,96.46,159.72,94.71,159.72z"/>
	<path class="st4" d="M113.7,161.72c-2.07,0-2.07,3.22,0,3.22C115.77,164.93,115.77,161.72,113.7,161.72z"/>
	<path class="st4" d="M115.95,164c-1.76,0-1.76,2.73,0,2.73C117.7,166.73,117.7,164,115.95,164z"/>
	<path class="st4" d="M116.15,172.36c-2.3,0-2.3,3.58,0,3.58C118.45,175.93,118.45,172.36,116.15,172.36z"/>
	<path class="st4" d="M112.88,179.07c-1.81,0-1.81,2.81,0,2.81C114.69,181.88,114.7,179.07,112.88,179.07z"/>
	<path class="st4" d="M105.53,185.52c-1.66,0-1.67,2.58,0,2.58C107.19,188.1,107.2,185.52,105.53,185.52z"/>
	<path class="st4" d="M78.58,181.85c-2.17,0-2.17,3.37,0,3.37C80.75,185.23,80.75,181.85,78.58,181.85z"/>
	<path class="st4" d="M68.37,164.1c-1.63,0-1.63,2.53,0,2.53C69.99,166.63,69.99,164.1,68.37,164.1z"/>
	<path class="st4" d="M65.71,154.66c-1.42,0-1.43,2.21,0,2.21C67.13,156.87,67.14,154.66,65.71,154.66z"/>
	<path class="st4" d="M60.81,161.34c-0.02,0-0.03,0.01-0.04,0.01c-0.05-0.46-0.38-0.89-0.98-0.89c-1.32,0-1.32,2.05,0,2.05
		c0.27,0,0.48-0.09,0.64-0.22c0.09,0.09,0.21,0.16,0.38,0.16C61.52,162.45,61.52,161.34,60.81,161.34z"/>
	<path class="st4" d="M62.44,163.21c-1.19,0-1.19,1.85,0,1.85C63.63,165.07,63.64,163.21,62.44,163.21z"/>
	<path class="st4" d="M71.02,171c-1.69,0-1.69,2.63,0,2.63C72.71,173.62,72.71,171,71.02,171z"/>
	<path class="st4" d="M44.68,144.29c-1.64,0-1.64,2.54,0,2.54C46.31,146.83,46.31,144.29,44.68,144.29z"/>
	<path class="st4" d="M39.98,141.88c-1.58,0-1.58,2.46,0,2.46C41.56,144.33,41.56,141.88,39.98,141.88z"/>
	<path class="st4" d="M34.06,137.86c-1.76,0-1.76,2.73,0,2.73C35.81,140.59,35.82,137.86,34.06,137.86z"/>
	<path class="st4" d="M26.91,135.61c-0.45,0-0.45,0.7,0,0.7C27.36,136.31,27.36,135.61,26.91,135.61z"/>
	<path class="st4" d="M18.33,131.81c-1.4,0-1.4,2.17,0,2.17C19.73,133.98,19.73,131.81,18.33,131.81z"/>
	<path class="st4" d="M13.23,131.64c-0.04,0-0.04,0.06,0,0.06C13.27,131.7,13.27,131.64,13.23,131.64z"/>
	<path class="st4" d="M6.9,119.59c-1.36,0-1.36,2.11,0,2.11C8.26,121.7,8.26,119.59,6.9,119.59z"/>
	<path class="st4" d="M6.69,112.27c-2.1,0-2.1,3.26,0,3.26C8.79,115.53,8.79,112.27,6.69,112.27z"/>
	<path class="st4" d="M8.12,91.74c-1.46,0-1.46,2.27,0,2.27C9.58,94,9.58,91.74,8.12,91.74z"/>
	<path class="st4" d="M7.71,86.69c-1.91,0-1.92,2.97,0,2.97C9.63,89.66,9.63,86.69,7.71,86.69z"/>
	<path class="st4" d="M16.09,95.05c-1.93,0-1.93,3,0,3C18.02,98.05,18.02,95.05,16.09,95.05z"/>
	<path class="st4" d="M21.19,107.01c-2.04,0-2.05,3.17,0,3.17C23.23,110.18,23.24,107.01,21.19,107.01z"/>
	<path class="st4" d="M28.75,109.87c-1.77,0-1.78,2.76,0,2.76C30.52,112.63,30.52,109.87,28.75,109.87z"/>
	<path class="st4" d="M38.14,102.03c-0.04,0-0.04,0.06,0,0.06C38.18,102.09,38.18,102.03,38.14,102.03z"/>
	<path class="st4" d="M36.51,102.23c-0.04,0-0.04,0.06,0,0.06C36.55,102.29,36.55,102.23,36.51,102.23z"/>
	<path class="st4" d="M37.32,102.85c-0.04,0-0.04,0.06,0,0.06C37.36,102.91,37.36,102.85,37.32,102.85z"/>
	<path class="st4" d="M38.96,107.13c-0.04,0-0.04,0.06,0,0.06C39,107.2,39,107.13,38.96,107.13z"/>
	<path class="st4" d="M36.51,119.2c-1.33,0-1.33,2.07,0,2.07C37.84,121.27,37.84,119.2,36.51,119.2z"/>
	<path class="st4" d="M37.94,121.41c-1.9,0-1.91,2.96,0,2.96C39.84,124.37,39.84,121.41,37.94,121.41z"/>
	<path class="st4" d="M46.11,116.55c-2.12,0-2.12,3.29,0,3.29C48.22,119.84,48.23,116.55,46.11,116.55z"/>
	<path class="st4" d="M38.35,104.24c-1.93,0-1.93,3,0,3C40.28,107.24,40.28,104.24,38.35,104.24z"/>
	<path class="st4" d="M35.28,99.35c-1.91,0-1.92,2.97,0,2.97C37.2,102.32,37.2,99.35,35.28,99.35z"/>
	<path class="st4" d="M39.16,98.87c-2,0-2.01,3.12,0,3.12C41.17,101.98,41.17,98.87,39.16,98.87z"/>
	<path class="st4" d="M50.19,107.18c-2.08,0-2.08,3.23,0,3.23C52.27,110.41,52.27,107.18,50.19,107.18z"/>
	<path class="st4" d="M56.11,108.61c-2.08,0-2.08,3.23,0,3.23C58.19,111.84,58.19,108.61,56.11,108.61z"/>
	<path class="st4" d="M55.7,103.23c-1.91,0-1.92,2.97,0,2.97C57.62,106.2,57.62,103.23,55.7,103.23z"/>
	<path class="st4" d="M51.21,90.47c-1.77,0-1.78,2.76,0,2.76C52.99,93.23,52.99,90.47,51.21,90.47z"/>
	<path class="st4" d="M52.44,81.63c-1.86,0-1.86,2.89,0,2.89C54.29,84.51,54.3,81.63,52.44,81.63z"/>
	<path class="st4" d="M58.15,76.81c-0.98,0-1.48,0.75-1.51,1.51c-0.82,0.74-0.53,2.47,0.89,2.47c0.73,0,1.16-0.46,1.3-1
		C60.13,79.17,59.91,76.81,58.15,76.81z"/>
	<path class="st4" d="M39.16,83.01c-0.6,0-0.6,0.93,0,0.93C39.76,83.94,39.76,83.01,39.16,83.01z"/>
	<path class="st4" d="M42.23,81.44c-2.1,0-2.1,3.26,0,3.26C44.32,84.7,44.33,81.44,42.23,81.44z"/>
	<path class="st4" d="M49.78,67.39c-2.04,0-2.05,3.17,0,3.17C51.82,70.56,51.83,67.39,49.78,67.39z"/>
	<path class="st4" d="M58.56,53.12c-0.7,0-0.7,1.09,0,1.09C59.27,54.21,59.27,53.12,58.56,53.12z"/>
	<path class="st4" d="M60.61,51.24c-2.06,0-2.06,3.2,0,3.2C62.67,54.45,62.67,51.24,60.61,51.24z"/>
	<path class="st4" d="M85.93,79.57c-0.04,0-0.04,0.06,0,0.06C85.97,79.63,85.97,79.57,85.93,79.57z"/>
	<path class="st4" d="M94.3,82.64c-1.87,0-1.87,2.9,0,2.9C96.17,85.54,96.17,82.64,94.3,82.64z"/>
	<path class="st4" d="M95.73,77.73c-2.14,0-2.15,3.33,0,3.33C97.87,81.06,97.88,77.73,95.73,77.73z"/>
	<path class="st4" d="M91.44,104.56c-1.77,0-1.78,2.76,0,2.76C93.21,107.32,93.22,104.56,91.44,104.56z"/>
	<path class="st4" d="M105.94,104.69c-1.35,0-1.35,2.1,0,2.1C107.29,106.78,107.29,104.69,105.94,104.69z"/>
	<path class="st4" d="M114.93,94.06c-2.14,0-2.15,3.33,0,3.33C117.07,97.4,117.07,94.06,114.93,94.06z"/>
	<path class="st4" d="M112.68,88.01c-2.05,0-2.05,3.19,0,3.19C114.73,91.2,114.73,88.01,112.68,88.01z"/>
	<path class="st4" d="M121.05,95.2c-2,0-2,3.1,0,3.1C123.05,98.3,123.05,95.2,121.05,95.2z"/>
	<path class="st4" d="M129.02,72.21c-2.14,0-2.15,3.33,0,3.33C131.16,75.54,131.16,72.21,129.02,72.21z"/>
	<path class="st4" d="M117.99,56.49c-0.04,0-0.04,0.06,0,0.06C118.03,56.55,118.03,56.49,117.99,56.49z"/>
	<path class="st4" d="M91.03,46.07c-1.88,0-1.89,2.93,0,2.93C92.92,49,92.92,46.07,91.03,46.07z"/>
	<path class="st4" d="M87.36,25.68c-1.85,0-1.85,2.87,0,2.87C89.2,28.55,89.21,25.68,87.36,25.68z"/>
	<path class="st4" d="M95.32,17.06c-1.38,0-1.38,2.14,0,2.14C96.7,19.2,96.7,17.06,95.32,17.06z"/>
	<path class="st4" d="M102.67,16.55c-2.29,0-2.3,3.56,0,3.56C104.96,20.11,104.97,16.55,102.67,16.55z"/>
	<path class="st4" d="M88.38,19c-1.76,0-1.77,2.74,0,2.74C90.14,21.75,90.15,19,88.38,19z"/>
	<path class="st4" d="M83.48,12.79c-0.04,0-0.04,0.06,0,0.06C83.52,12.85,83.52,12.79,83.48,12.79z"/>
	<path class="st4" d="M85.93,4.93c-1.75,0-1.75,2.71,0,2.71C87.67,7.64,87.68,4.93,85.93,4.93z"/>
	<path class="st4" d="M93.28,5.52c-0.45,0-0.45,0.7,0,0.7C93.73,6.23,93.73,5.52,93.28,5.52z"/>
	<path class="st4" d="M75.31,22.43c-2.09,0-2.09,3.25,0,3.25C77.4,25.67,77.4,22.43,75.31,22.43z"/>
	<path class="st4" d="M70.82,31.33c-1.93,0-1.93,3,0,3C72.75,34.33,72.75,31.33,70.82,31.33z"/>
	<path class="st4" d="M73.06,40.02c-1.79,0-1.8,2.79,0,2.79C74.85,42.8,74.86,40.02,73.06,40.02z"/>
</g>
</svg>
