<?xml version="1.0" encoding="utf-8"?>
<!-- Generator: Adobe Illustrator 25.2.3, SVG Export Plug-In . SVG Version: 6.00 Build 0)  -->
<svg version="1.1" id="Layer_1" xmlns="http://www.w3.org/2000/svg" xmlns:xlink="http://www.w3.org/1999/xlink" x="0px" y="0px"
	 viewBox="0 0 156 156" style="enable-background:new 0 0 156 156;" xml:space="preserve">
<style type="text/css">
	.st0{fill:#A08B82;}
	.st1{fill:#826C6C;}
	.st2{fill:#7F6F69;}
	.st3{fill:#493E3C;}
	.st4{fill:#99837C;}
	.st5{fill:#BFA399;}
</style>
<g>
	<path class="st0" d="M-0.42,140.71v-73.2c19.1,0.16,36.97-9.5,49.04-24.03c0,0,0,0,0.01-0.01c1.76-2.11,3.39-4.33,4.88-6.64
		c0-0.01,0-0.01,0.01-0.01c0.39-0.59,0.76-1.19,1.12-1.79c1.28-2.11,2.45-4.29,3.48-6.52V28.5c1.09-2.33,2.04-4.72,2.84-7.15
		c1.3-3.95,2.22-8.02,2.7-12.17c-0.01-0.01,0-0.01,0-0.01c0.06-0.5,0.12-0.98,0.15-1.48c0,0,0,0,0-0.01
		c0.21-2.26,0.29-4.54,0.23-6.83c-0.01-0.23-0.01-0.46-0.02-0.69c-0.01-0.01-0.01-0.01,0-0.02c-0.01-0.18-0.01-0.37-0.02-0.56h78.2
		c-0.92,16.45-3.95,32.79-9.41,48.35c-4.16,11.89-9.69,23.37-16.45,34.02c-1.14,1.82-2.33,3.61-3.57,5.38
		c-0.14,0.22-0.29,0.43-0.45,0.66c-0.14,0.2-0.28,0.39-0.42,0.59c-1.11,1.56-2.27,3.07-3.48,4.54c-0.36,0.45-0.73,0.88-1.09,1.32
		c-0.66,0.77-1.33,1.53-2,2.28c-1.89,2.09-3.88,4.08-5.93,6c-0.92,0.87-1.86,1.71-2.81,2.55c-2.08,1.82-4.22,3.59-6.41,5.3
		c-0.91,0.71-1.83,1.41-2.75,2.1c-1.54,1.16-3.1,2.29-4.67,3.4c-1.38,0.98-2.76,1.94-4.16,2.89c-0.15,0.1-0.3,0.2-0.45,0.31
		c-1.74,1.18-3.5,2.33-5.29,3.45c-2.35,1.46-4.74,2.87-7.18,4.22c-2.14,1.18-4.32,2.31-6.52,3.39c-0.88,0.43-1.77,0.85-2.65,1.26
		c-2.27,1.05-4.57,2.03-6.89,2.95c-1.27,0.5-2.54,0.98-3.83,1.44c-2.89,1.02-5.8,1.94-8.75,2.72c-1.13,0.3-2.27,0.58-3.4,0.84
		c-1.88,0.43-3.77,0.81-5.67,1.13c-2.15,0.37-4.32,0.66-6.49,0.86c-1.72,0.17-3.44,0.28-5.17,0.34
		C10.77,142.07,5.16,141.72-0.42,140.71z"/>
	<path class="st1" d="M-0.42,70.67V51.69c2.15-0.31,4.56,0.4,6.28,1.46c0.12,0.06,0.22,0.12,0.32,0.2c0.42,0.15,0.83,0.38,1.22,0.72
		c0.9,0.78,1.32,1.15,2.24,1.38c0.09-0.23,0.18-0.45,0.28-0.67c0.62-1.26,1.55-2.22,2.83-2.8c1.39-0.64,2.98-0.76,4.48-0.43
		c0.84,0.19,2.01,1.21,2.47,0.39c0.5-0.87,1.43-1.26,2.35-1.24c1.15-1.21,2.56-2.31,3.82-3.29c0.95-0.73,1.96-1.38,3.13-1.69
		c0.61-0.09,1.2-0.18,1.8-0.25c0.21,0.01,0.38,0.02,0.51,0.02c-0.04-0.09,1.46-1.56,1.85-1.77c1.16-0.63,2.26-0.57,3.48-0.86
		c2.51-0.6,4.2-3.42,5.01-5.85V37c0.04-0.57,0.24-1.16,0.67-1.75c0.02-0.04-0.15-2.03-0.07-2.46c0.18-0.88,0.51-1.64,1.06-2.36
		c0.96-1.23,2.65-1.65,3.53-2.83c1.07-1.44,1.39-3.75,2.08-5.54c-0.34-1.03-0.32-2.17,0.25-3.13c0.95-1.6,2.08-3.01,3.53-4.18
		c0.94-0.76,2.77-1.35,2.75-2.78c-0.02-1.3-1.75-2.47-2.36-3.62c-0.83-1.54-1.04-3.25-1.02-4.97V3.35c-0.34-0.41-0.57-0.94-0.63-1.6
		c-0.03-0.36-0.06-0.72-0.09-1.07c-0.03-0.41-0.13-0.78-0.01-1.1h15.1c0.77,1.78,0.65,4.22,0.73,5.98c0.01,0.38-0.03,0.72-0.12,1.04
		c0.42,2.14,0.28,3.87-0.68,5.58c0.65,4.42-0.64,8.65-1.96,12.85c-1.17,3.69-2.51,7.65-5.09,10.61c-0.89,1.76-1.9,3.45-3.01,5.12
		c-1.78,2.68-3.61,5.78-6.92,6.61c-0.04,0.01-0.08,0.01-0.12,0.02c-2.21,2.72-4.52,5.37-7.21,7.63c-3.4,2.87-7.34,4.59-11.41,6.28
		c-0.77,0.32-1.47,0.34-2.07,0.16c-1.77,1.11-3.55,2.2-5.28,3.36c-2.64,1.78-5.26,3.25-8.11,4.21c-0.01,0.01-0.02,0.01-0.02,0.01
		c-1.57,0.54-3.22,0.92-4.97,1.13c-1.11,0.13-2.15-0.43-2.89-1.26c-1.36,0.56-2.71,1.14-4.1,1.58C1.85,70.94,0.61,70.97-0.42,70.67z
		"/>
	<path class="st2" d="M-0.42,73.11v-9.46c2.48-0.43,5-0.94,7.45-1.02c1.49-0.05,2.51,0.51,3.91,0.7c1.93,0.27,1.54-0.67,2.81-1.47
		c2.06-1.29,4.66,0.06,6.88-0.77c1.47-0.55,2.19-2.12,3.36-3.1c0.92-0.77,1.96-1.33,3.01-1.89c0.57-0.3,1.12-0.22,1.54,0.05
		c1.44-1.68,3.44-3.09,5.39-3.91c1.19-0.5,2.63-0.43,3.75-0.95c1.29-0.59,1.98-2.16,2.92-3.23c0.88-1,1.5-1.6,2.06-2.82
		c0.35-0.77,0.94-1.34,1.63-1.82c2.9-2,6.18-1.42,7.4-5.45c0.84-2.78,2.72-4.06,4.08-6.52c1.52-2.76,0.78-6.21,2.35-9
		c0.87-1.54,2.35-2.68,2.94-4.39c0.56-1.62,0.49-3.6,0.64-5.3c0.12-1.44,0.18-2.91,0.45-4.33c0.39-2.07,1.82-4.18,1.49-6.36
		c-0.09-0.53,0.12-0.96,0.44-1.25c0.03-0.03,0.07-0.06,0.1-0.09c-0.05-0.2-0.09-0.4-0.13-0.61c-0.01-0.01-0.01-0.01,0-0.02
		c-0.04-0.18-0.07-0.37-0.1-0.56h9.03c0.04,0.09,0.06,0.19,0.06,0.29c0,0.04-0.01,0.09-0.01,0.12c0.42,1.15,0.56,2.39,0.12,3.59
		c-0.6,1.61-1.47,2.6-1.63,4.45c-0.08,0.89,0.04,1.76-0.17,2.63c-0.17,0.69-0.51,1.21-0.81,1.83c-0.93,1.98-0.65,2.96-0.81,4.94
		c-0.14,1.73-0.8,2.41-1.53,3.81c-0.93,1.78-0.37,3.94-1.5,5.67c-0.41,0.62-1.14,0.88-1.53,1.41c-0.78,1.08-0.58,2.25-0.95,3.44
		c-0.42,1.37-1.17,2.01-2.08,2.94c-0.5,0.5-0.3,0.12-0.65,0.73c-0.4,0.7-0.52,1.89-0.89,2.69c-0.11,0.24-0.27,0.4-0.45,0.51
		c-0.05,2.06-2.51,2.78-3.19,4.82c-0.31,0.94-0.16,1.64-1,2.36c-0.88,0.77-2.33,0.6-3.15,1.35c-1.75,1.6-1.03,4.19-3.52,5.36
		c-1.29,0.61-1.58-0.09-3.17,0.94c-0.53,0.34-0.9,0.92-1.41,1.3c-0.93,0.7-1.64,0.73-2.66,1.1c-1.34,0.49-1.82,1.76-2.95,2.53
		c-1.41,0.95-2.47,1.35-3.64,2.63c-0.73,0.79-1.42,1.5-2.45,1.87c-1.63,0.58-2.4,0.92-3.6,2.3c-0.84,0.94-1.67,1.66-2.92,2
		c-0.41,0.11-1.26,0.01-1.59,0.2c-0.77,0.45-0.43,0.73-0.97,1.29c-1.93,2.01-5.26,1.2-7.76,0.89c-0.43-0.05-0.75-0.25-0.97-0.52
		c-0.01,0.01-0.02,0.01-0.02,0.01c-0.4,0.18-0.76,0.39-1.09,0.66c-0.41,0.34-0.65,0.81-1.12,1.1c-1.32,0.83-3.06,0.4-4.52,0.81
		C5.26,72.51,2.66,73.22-0.42,73.11z"/>
	<path class="st1" d="M-0.42,156.33v-17.57c0.5,0.01,1,0.05,1.54,0.13c0.97,0.15,1.69,0.66,2.51,1.15c0.06,0.04,0.11,0.08,0.17,0.12
		c0.78-0.4,1.74-0.51,2.85-0.14c5.48,1.84,10.98-0.45,16.39-1.49c1.39-0.26,2.66,0.19,3.59,0.99c4.61-1.26,9.11-2.76,13.92-3.19
		c0.27-0.02,0.54-0.04,0.82-0.06c0.25-0.12,0.5-0.24,0.75-0.37c0.01-0.01,0.03-0.02,0.04-0.02c2.27-1.24,4.59-2.38,6.98-3.41
		c0.58-0.25,1.15-0.35,1.69-0.33c0.27-0.44,0.67-0.83,1.24-1.09c5.97-2.84,11.4-6.73,16.81-10.49c0.68-0.47,1.4-0.58,2.07-0.43
		c1.8-1.16,3.65-2.24,5.53-3.24c1.4-1.34,2.7-2.77,3.86-3.86c2.94-2.76,5.92-5.46,9.19-7.83c0.1-0.65,0.44-1.3,1.12-1.87
		c2.96-2.55,5.8-5.23,8.48-8.06c0.59-0.77,1.19-1.52,1.8-2.27c0.62-0.77,1.25-1.51,1.9-2.25c0.83-0.94,1.67-1.87,2.55-2.77
		c3.2-4.18,6.07-8.63,9.87-12.3c0.49-0.47,1.06-0.77,1.64-0.92c1.2-2.93,2.53-5.79,4.08-8.56c0.1-0.19,0.22-0.36,0.34-0.51
		c2.62-5.08,5.1-10.23,7.5-15.43c0.23-0.5,0.54-0.88,0.9-1.16c1.42-6.19,4.38-12.05,5.91-18.22c0.84-3.39,1.8-6.85,2.63-10.33
		c0.03-0.21,0.08-0.42,0.15-0.62c0.22-0.94,0.43-1.88,0.62-2.83c0.56-5.1,1-10.21,0.86-15.31c-0.02-0.91,0.23-1.63,0.65-2.19h15.48
		c0.01,0.04,0.01,0.09,0.01,0.13c0.01,0.24,0.01,0.47,0.01,0.71c0.01,0.02,0.01,0.04,0.02,0.06c0.1,0.3,0.18,0.61,0.2,0.9
		c0.17,1.9,0.3,4.07-0.2,5.98c-0.08,0.31-0.18,0.61-0.29,0.91c-0.66,1.67-2.37,2.33-3.09,3.78c-0.84,1.67,0.2,5.05,0.45,6.74
		c0.31,2.15,0.74,4.32,0.9,6.48c0.16,2.04-0.1,4.18-1.34,5.87c-0.3,0.4-1.96,1.92-3.3,2.54c0.48,0.69,0.89,1.43,1.15,2.23
		c0.65,2.03,0.6,4.22-0.21,6.18c-0.26,0.66-0.64,1.25-1.1,1.73c0.02,2.4-0.53,4.76-1.4,7.06c-0.53,1.4-1.2,2.5-2.35,3.45
		c-0.99,0.83-3.11,1.52-3.64,2.79c-0.46,1.11,0,2.76-0.3,3.97c-0.31,1.26-0.92,2.45-1.86,3.36c-0.86,0.83-2.16,1.11-2.98,1.89
		c-0.95,0.89-0.76,2.34-0.83,3.64c-0.33,5.86,1.79,13.66-2.67,18.39c-2.37,2.52-5.18,2.61-8.35,3.2c-2.85,0.53-3.86,2.96-5.02,5.37
		c-0.39,0.81-0.93,1.35-1.53,1.66c-0.54,4.86-4.14,10.71-7.88,13.39c-2.17,1.55-5,1.38-6.88,3.44c-1.69,1.85-2.04,4.49-3.38,6.55
		c-3.4,5.26-9.27,3.88-14.05,6.62c-2.44,1.4-3.88,3.98-5.92,5.85c-2.24,2.06-4.72,3.21-7.73,3.48c-1.89,3.1-4.34,5.63-8.19,6.03
		c-0.89,0.1-2.37-0.2-3.17,0.14c-0.83,0.36-1.37,1.4-2,2c-1.58,1.51-3.52,2.47-5.66,2.9c-1.99,0.39-4.68-0.11-6.33,0.68
		c-2.17,1.04-3.84,3.03-6.14,4c-2.64,1.13-4.71,0.67-7.41,0.1c-2.37-0.5-4.46-0.39-6.77,0.36c-0.76,0.24-1.45,0.26-2.06,0.12
		c-3.44,3.01-10.52,1.62-14.59,1.69c-2.16,0.04-4.38,0.28-6.57,0.4c-1.14,0.07-2.28,0.1-3.4,0.04c-0.17-0.01-0.33-0.02-0.49-0.04
		C-0.36,156.34-0.39,156.34-0.42,156.33z"/>
	<path class="st2" d="M-0.42,144.67v-9.73c1-0.12,2.03-0.09,2.96-0.03c1.38,0.09,2.73,0.37,3.98,0.98c0.7,0.34,1.5,1.18,2.28,1.57
		c0.79-0.26,1.66-0.28,2.5,0.04c0.09-0.11,0.25-0.23,0.48-0.37c0.2-0.17,0.39-0.33,0.59-0.5c0.79-0.64,1.53-1.11,2.46-1.53
		c1.67-0.75,3.46-1.05,5.28-0.88c1.16,0.1,3.36,1.14,4.26,0.72c1.41-0.65,2.26-2.11,3.84-2.65c1.75-0.6,3.18-0.05,4.92-0.21
		c1.38-0.12,2.37-1.3,3.71-1.86c1.72-0.71,3.3-0.54,5.1-0.61c1.82-0.07,2.41-1.32,4.09-1.93c0.89-0.32,1.77-0.39,2.71-0.31
		c0.21,0.02,1.54,0.34,1.32,0.4c0.45-0.12,1.58-1.41,1.97-1.68c0.72-0.5,1.49-0.92,2.33-1.19c1.28-0.41,3.21-0.11,4.35-0.77
		c1.2-0.68,1.75-2.49,3-3.31c1.19-0.78,2.53-1.04,3.92-1.2c0.47-0.06,1.69,0.04,2.12-0.25c0.28-0.18,0.9-1.51,1.17-1.79
		c1.82-1.88,4.41-1.78,6.57-2.98c0.01-0.01,0.02-0.01,0.03-0.02c0.39-0.68,1.01-1.26,1.89-1.62c2.33-0.93,2.85-4.04,4.58-5.62
		c1.14-1.03,2.1-0.85,3.39-1.34c0.98-0.37,0.94-0.78,1.54-1.75c0.6-0.97,1.3-1.81,2.29-2.39c0.52-0.3,1.02-0.47,1.6-0.6
		c0.24-0.04,0.5-0.07,0.75-0.1c0.07-0.29,0.16-0.61,0.18-0.67c0.2-0.5,0.51-0.96,0.86-1.37c0.76-0.89,1.74-1.45,2.87-1.73
		c0.44-0.11,1.04-0.06,1.55-0.12c0.03-0.09,0.07-0.23,0.1-0.43c0.16-0.92,0.98-2.09,1.64-2.72c0.64-0.6,1.43-0.82,2.16-1.13
		c0.31-0.13,0.6-0.28,0.87-0.48c0.58-0.43,0.78-1.09,1.03-1.77c0.1-0.27,0.2-0.53,0.34-0.79c0.54-1.02,1.04-1.65,1.38-2.72
		c0.34-1.06,0.51-1.97,1.24-2.86c0.73-0.91,1.64-1.16,2.54-1.78c0.4-0.28,0.5-0.35,0.76-0.59c0.31-0.29,0.59-0.62,0.88-0.94
		c-0.18-0.99,0.09-2.05,1.08-2.92c0.51-0.45,1.05-0.97,1.71-1.22c0.22-1.04,1.05-2.9,1.17-3.07c0.42-0.62,1.8-2.31,2.7-2.28
		c-0.08-0.52-0.06-1.04,0.06-1.56c0.28-1.32,1.2-2.51,2.45-3.04c0.09-0.04,1.31-0.34,1.29-0.31c0.05-0.08-0.15-1.53-0.12-1.77
		c0.25-2.07,1.36-3.19,2.89-3.76c0.03-0.26,0.07-0.52,0.1-0.78c0.13-0.94,0.34-1.55,0.89-2.29c0,0,0.81-0.96,1.09-1.05
		c-0.07-0.55-0.34-1.3-0.37-1.65c-0.11-1.57,0.23-3.01,1.22-4.24c0.42-0.51,1.09-0.85,1.48-1.36c0.24-0.31,0.43-0.8,0.62-1.26
		c-0.18-0.59-0.18-1.28,0.07-2.04c0.4-1.23,0.97-1.97,1.77-2.96c0.25-0.24,0.51-0.48,0.76-0.72l-0.44,0.06
		c-0.02-0.53-0.32-1.12-0.42-1.66c-0.4-2.27-0.03-4.7,1.8-6.26c0.21-0.19,0.84-0.53,1.39-0.78c-0.01-0.14-0.01-0.29-0.04-0.47
		c-0.11-0.84-0.17-1.57-0.04-2.41c0.18-1.23,0.66-2.17,1.45-3.13c0.15-0.19,0.62-0.54,0.86-0.83c-0.23-0.01-0.55-1.02-0.57-1.08
		c-0.75-2.69,0.43-5.88,1.27-8.4c0.45-1.33,1.02-2.74,1.05-4.16c0.03-1.46-0.71-2.2-1.29-3.45c-0.6-1.29-0.79-2.62-0.45-4.01
		c0.04-0.16,0.23-0.93,0.37-1.24c-0.18-0.18-0.46-0.66-0.53-0.75c-0.94-1.41-1.36-3.05-0.89-4.59h9.77c0.06,0.3,0.09,0.58,0.12,0.86
		c0.17,1.33,0.24,2.65,0.26,3.96c0.17,1.27,0.04,2.65-0.06,3.58c-0.03,0.22-0.1,0.42-0.19,0.58c-0.04,0.27-0.09,0.53-0.16,0.81
		c-0.1,0.41-0.32,0.67-0.59,0.81c0.02,0.21,0.05,0.42,0.06,0.63c0.09,0.32,0.17,0.64,0.22,1c0.31,2.17-0.09,4.29-0.69,6.36
		c0.01,0.2,0.03,0.39,0.06,0.59c0.43,3.04,0.49,5.52-1.22,8.1c0.02,0.09,0.04,0.21,0.04,0.38c0.02,0.8-0.45,0.99-0.6,1.73
		c-0.15,0.77,0.27,1.03-0.04,1.63c-0.07,0.13-0.19,0.3-0.43,0.62c-0.17,0.23-0.33,0.45-0.51,0.66c-0.28,0.17-0.45,0.37-0.48,0.58
		c-0.03,0.16,0.01,0.32,0.1,0.5c0,0.01,0,0.01,0,0.01c0.04,0.07,0.1,0.15,0.16,0.23c-0.05,1.76,0.17,3.36-0.59,4.77
		c-0.15,0.28-0.86,0.59-1.14,1.37c-0.18,0.48-0.17,0.94-0.13,1.26c-0.2,0.47-0.49,1.24-0.71,2.23c-0.44,2-0.15,2.63-0.75,3.7
		c-0.1,0.17-0.29,0.37-0.51,0.58c0,0.02,0,0.03-0.01,0.05c-0.32,0.99-0.64,1.97-0.99,2.93c-0.19,0.78-0.51,1.54-0.92,2.25
		c-0.72,1.58-1.61,3.08-2.79,4.46c-0.01,0-0.01,0-0.01,0.01c0.09,0.91,0.09,1.73-0.24,2.61c-0.21,0.56-0.72,1-1.11,1.44
		c-0.17,0.58-0.37,1.16-0.6,1.72c-0.01,0.59,0.02,1.22-0.19,1.78c-0.39,1.02-0.97,1.66-1.69,2.09c-0.24,0.45-0.5,0.91-0.75,1.35
		c-0.03,0.18-0.06,0.32-0.07,0.39c-0.18,0.77-0.48,1.5-0.91,2.17c-0.32,0.49-0.66,0.86-1.02,1.15c-0.64,1.16-1.28,2.32-1.93,3.48
		c-0.04,0.11-0.09,0.22-0.15,0.33c-0.04,0.07-0.1,0.15-0.15,0.22c-0.59,1.1-1.18,2.19-1.74,3.31c-0.27,0.53-0.72,0.72-1.16,0.67
		c-0.32,1.37-1.18,2.39-2.19,3.5c-1.83,2.03-3.34,4.18-4.8,6.5c-1.6,2.54-3.29,4.93-5.4,6.94c-0.33,0.48-0.73,0.92-1.22,1.31
		c-0.18,0.13-0.56,0.34-0.97,0.53c-0.37,0.27-0.75,0.53-1.16,0.78c-0.26,0.16-0.51,0.21-0.74,0.21c-0.31,0.61-0.48,1.37-0.79,2.02
		c-0.09,0.13-0.17,0.28-0.24,0.43c-0.02,0.04-0.06,0.09-0.09,0.13c-0.61,0.8-1.42,1.41-2.34,1.79c-0.03,1.16-0.61,1.82-1.7,2.45
		c-1.22,0.7-2.37,1.22-3.42,1.94c-0.06,0.04-0.1,0.07-0.15,0.11c-0.01,0-0.01,0.01-0.01,0.01c-0.61,0.43-1.19,0.94-1.73,1.6
		c-0.97,1.2-1.79,2.33-3.08,3.26c-1.27,0.91-2.7,1.33-4.05,2.09c-0.13,0.07-0.28,0.12-0.43,0.17c-1.01,1.41-2.15,2.53-3.48,3.42
		c-1.58,1.57-4.06,2.35-6.08,3.34c-2.13,1.05-3.39,3.34-5.35,4.72c-1.71,1.21-3.85,1.63-5.89,2c-0.1,0.02-0.2,0.02-0.3,0.02
		c-0.02,0.03-0.05,0.07-0.08,0.1c-0.69,0.77-1.45,1.34-2.38,1.79c-0.76,0.38-1.61,0.51-2.46,0.62c-0.31,0.3-0.63,0.59-0.98,0.88
		c-1.01,0.81-1.99,0.64-3.17,0.67c-0.56-0.01-1.82,0.04-3.1,0.85c-0.76,0.48-1.25,1.04-1.54,1.45c-0.03,0.15-0.06,0.31-0.08,0.39
		c-0.29,1.5-1.93,2.56-3.37,2.57c-1.52,0.01-3.79,0.25-5.7-0.07c-0.16,0.19-0.33,0.36-0.51,0.5c-0.18,0.14-0.36,0.24-0.55,0.34
		c-0.09,0.12-0.25,0.26-0.48,0.34c-0.27,0.09-0.49,0.02-0.61,0c-0.77-0.1-1.19,1.52-2.66,2.31c-0.39,0.21-0.77,0.42-1.26,0.37
		c-1-0.1-1.25-1.15-2.19-1.46c-0.48-0.16-1.24-0.17-2.45,0.61c-0.07,0.12-0.19,0.29-0.37,0.46c-0.33,0.32-0.6,0.3-1.06,0.66
		c-0.69,0.51-1.25,0.87-2.05,1.21c-2.04,0.85-4.22,0.67-4.22,0.67c-1.45-0.12-1.26-0.47-2.68-0.55c-0.57-0.03-1.76-0.08-3.07,0.43
		c-0.61,0.23-0.87,0.12-2.22,1.3c-2.62,2.3-5.32,1.67-8.41,0.65C4.31,145.09,1.93,145.25-0.42,144.67z"/>
	<path class="st3" d="M-0.42,145.44v-2.45c1.86,0.04,3.53-0.23,5.31,0.43c2.18,0.8,6,3.05,8.45,2.05c1.49-0.61,1.8-2.57,3-3.6
		c0.19-0.16,0.4-0.3,0.64-0.4c1.34-0.6,3-0.22,4.38,0.03c0.05,0.01,0.1,0.02,0.15,0.03c1.11,0.21,2.25,0.55,3.4,0.52
		c1.42-0.02,2.26-0.59,3.08-1.38c0.33-0.32,0.66-0.67,1.02-1.04c0.73-0.75,1.36-1.29,2.49-1.15c0.94,0.11,1.58,0.63,2.15,1.06
		c0.84,0.63,1.55,1.05,2.89-0.34c0.18-0.2,0.35-0.36,0.51-0.5c0.57-0.54,1.03-0.84,1.69-1.25c0.08-0.25,0.26-0.47,0.59-0.62
		c0.4-0.18,0.81-0.35,1.22-0.5c0.53-0.19,1.07-0.34,1.61-0.45c0.72-0.14,1.45-0.21,2.21-0.18c0.46,0.02,0.95,0.15,1.43,0.28
		c0.51,0.13,1.02,0.26,1.48,0.25c2.23-0.06,2-0.65,2.35-1.69c0.05-0.18,0.13-0.37,0.24-0.58c1.37-2.6,4.21-1.97,6.65-2.36
		c0.84-0.13,1.63-0.39,2.29-0.94c0.12-0.1,0.24-0.21,0.36-0.32c1.06-0.95,1.83-1.97,3.2-2.6c1.07-0.49,2.19-0.64,3.31-0.78
		c0.97-0.12,1.93-0.21,2.87-0.5c2.09-0.64,3.18-2.19,4.3-3.72c0.91-1.23,1.83-2.45,3.31-3.18c0.79-0.39,1.61-0.48,2.42-0.58
		c1-0.1,1.97-0.2,2.88-0.85c0.81-0.58,1.06-1.3,1.28-2.05c0.22-0.71,0.42-1.43,1.05-2.09c1.02-1.07,2.29-0.94,3.57-1.3
		c0.02-0.01,0.04-0.01,0.05-0.02c1.52-0.43,2.23-1.19,2.75-2.1c0.53-0.92,0.85-2.03,1.6-3.16c0.76-1.15,1.79-2.08,3.2-2.24
		c0.51-0.06,1,0.11,1.51,0.1h0.1c2.22-0.06,2.16-0.83,2.81-2.55c0.04-0.1,0.07-0.2,0.12-0.31c0.54-1.37,1.05-2.84,2.11-3.9
		c0.86-0.86,2.42-1.21,3.7-1.79c1.04-0.47,1.88-1.1,2-2.28c0.01-0.05,0.01-0.1,0.01-0.15c0.03-0.7,0.54-1.09,1.08-1.16
		c0.45-0.61,0.52-1.62,0.95-2.24c0.52-0.74,1.31-1.13,1.97-1.72c0.2-0.18,0.39-0.38,0.56-0.58c0.33-0.39,0.61-0.81,0.86-1.24
		c0.9-1.55,1.48-3.33,2.74-4.65c0.26-0.27,0.54-0.51,0.83-0.73c0.55-0.42,1.15-0.78,1.75-1.18c1.68-1.11,2.15-2.32,2.59-4.24
		c0.45-1.97,1.09-3.3,2.56-4.68c1.64-1.56,2.22-2.61,2.86-4.65c0.3-0.95,0.67-1.73,1.25-2.52c1.14-1.54,2.4-2.47,2.82-4.45
		c0.26-1.25,0.07-2.57,0.37-3.82c0.23-0.94,0.62-1.73,1.22-2.47c1.13-1.41,2.07-2.25,2.2-4.26c0.07-1.11-0.12-1.86,0.46-2.91
		c0.81-1.49,1.96-2.36,2.28-4.19c0.07-0.41,0.29-0.66,0.57-0.79c1.02-1.93-0.14-4.01,1.07-5.78c0.27-0.4,0.78-0.57,1.04-0.94
		c0.6-0.84,0.73-1.48,0.65-2.09c0,0,0-0.01,0-0.01c-0.02-0.17-0.06-0.34-0.1-0.5c-0.13-0.51-0.37-1.04-0.52-1.68
		c-0.31-1.3-0.43-2.66,0.2-3.89c0.29-0.58,0.81-0.91,1.12-1.43c0.95-1.59,0.92-2.8,0.48-4.53c-0.46-1.81,0.02-3.05,0.38-4.78
		c0.48-2.31-0.62-4.75,0.41-6.96c0.21-0.45,0.61-0.79,0.83-1.22c0.49-0.97,0.32-1.76,0.11-2.96c-0.32-1.85-0.21-3.54-0.17-5.42h2.39
		c-0.06,1.08-0.27,2.24-0.15,3.28c0.13,1.15,0.68,2.04,0.87,3.13c0.26,1.46-0.18,2.24-0.89,3.34c-1.25,1.95-0.79,2.88-0.75,5.06
		c0.02,0.99-0.07,1.47-0.28,2.41c-0.43,1.95-0.44,2.9,0.06,4.83c0.18,0.69,0.41,1.37,0.38,2.08c-0.07,1.74-1.06,2.18-1.91,3.49
		c-1.8,2.77,0.44,4.31,0.26,7.02c-0.13,2.09-2,2.25-2.4,4.19c-0.13,0.64,0.15,1.49,0.04,2.19c-0.17,1.05-0.58,1.88-1.16,2.75
		c-0.07,0.1-0.14,0.18-0.21,0.25c-0.31,1.3-0.89,2.09-1.51,3.29c-0.87,1.69-0.57,3.34-0.99,5.04c-0.24,0.98-0.9,1.69-1.58,2.38
		c-1.41,1.45-2.02,2.63-2.18,4.71c-0.2,2.61-0.83,4.09-2.49,6.08c-1.39,1.67-1.66,2.98-2.36,4.93c-0.33,0.92-0.75,1.7-1.42,2.39
		c-1.32,1.37-2.67,1.95-3.23,3.96c-0.29,1.03-0.4,2.11-0.82,3.11c-1.17,2.82-4.12,3.28-5.73,5.67c-1.41,2.08-2.02,4.22-3.86,6.01
		c-0.87,0.85-1.44,1.66-2.03,2.7c-0.38,0.67-0.59,1.08-1.12,1.47c-0.21,1.13-0.7,2.11-1.69,2.88c-1.87,1.46-3.99,1.07-5.32,3.09
		c-0.09,0.13-0.17,0.28-0.24,0.43c-0.02,0.04-0.05,0.09-0.07,0.14c-0.77,1.6-1.08,3.86-2.39,5.17c-1.03,1.03-1.94,0.72-3.26,0.8
		c-3.97,0.23-3.12,2.79-4.9,5.18c-0.97,1.3-2.11,1.71-3.66,2.03c-1.59,0.32-2.25,0.12-3.03,1.83c-0.31,0.67-0.23,1.49-0.59,2.16
		c-0.69,1.32-1.75,1.9-3.16,2.18c-2.69,0.51-4.32,0.1-6.15,2.58c-0.95,1.29-1.72,2.68-3.03,3.65c-1.5,1.12-3.28,1.43-5.09,1.69
		c-2.85,0.4-4.43,1.26-6.55,3.23c-1.06,0.99-2.13,1.65-3.6,1.85c-1.16,0.15-2.76-0.39-3.84,0.09c-1.58,0.69-1.07,1.67-1.72,2.84
		c-0.62,1.11-1.55,1.68-2.83,1.74c-2.73,0.13-4.65-1.13-7.35-0.21c-0.09,0.13-0.21,0.24-0.37,0.34c-1.03,0.65-1.5,0.68-2.32,1.78
		c-0.35,0.46-0.56,0.96-1.07,1.33c-1.21,0.86-2.67,0.76-3.96,0.21c-1.04-0.44-1.49-1.49-2.74-0.99c-0.62,0.24-1.35,1.58-1.99,2.02
		c-1.41,0.97-3.04,1.19-4.72,1.08c-2.72-0.2-4.85-1.78-6.98,0.66c-1.28,1.46-1.64,2.55-3.86,2.87c-1.86,0.26-4.03-0.32-5.79-0.86
		c-1.04-0.31-1.94-0.83-2.95-1.2C2.63,145.25,1.39,145.48-0.42,145.44z"/>
	<path class="st3" d="M-0.42,65.25v-2.4c1.12,0.09,2.33,0.21,3.29-0.01c1.07-0.23,1.8-1.22,2.81-1.49c0.95-0.25,2.17,0.16,3.06,0.43
		c1.78,0.55,2.61,1.09,3.94-0.34c1.3-1.39,1.58-1.5,3.64-1.4c1.31,0.07,2.96,0.32,4.23-0.07c1.5-0.47,1.8-1.64,2.56-2.79
		c0.53-0.8,1.08-1.07,2-1.21c1.76-0.26,2.69,0.23,4-1.35c1.35-1.63,1.88-2.87,4.1-3.52c1.03-0.31,2.02-0.25,3.07-0.4
		c0.77-0.12,1.77-0.01,2.27-0.85c0.16-0.26-0.07-0.75,0.05-1.05c0.32-0.75,0.42-1.18,1.13-1.65c0.24-0.16,0.81-0.23,1.27-0.37
		c0.1-0.29,0.34-0.53,0.73-0.63c0-0.01,0.01-0.02,0.01-0.04c-0.42-0.17,0.06-2.53,0.26-2.82c0.42-0.64,1.17-1.03,1.88-1.25
		c2.04-0.61,4.14-0.65,5.79-2.19c1.55-1.45,0.99-3.08,1.59-4.81c0.37-1.07,0.92-1.43,1.75-2.07c1.1-0.85,2.5-1.27,2.73-3.07
		c0.1-0.81-0.13-1.67-0.12-2.49c0.04-3,1.59-5.27,3.36-7.56c0.12-0.14,0.24-0.24,0.37-0.31c0.01-0.02,0.02-0.04,0.04-0.05
		c1.48-1.49,0.95-2.68,1.23-4.47c0.21-1.29,0.9-2.12,0.87-3.57c-0.02-1.09-0.51-2.12-0.55-3.2c-0.06-1.46,0.46-2.03,1.2-3.16
		c1.09-1.67,0.44-3.54,0.29-5.51h2.51c0.23,1.8,1.22,4.16,0.37,5.77c-0.22,0.42-0.61,0.64-0.84,1c-0.32,0.51-0.53,0.95-0.66,1.33
		c0,0.01,0,0.01,0,0.01c-0.18,0.56-0.2,1.02-0.15,1.48c0,0-0.01,0.01,0,0.01c0.06,0.65,0.25,1.31,0.27,2.27
		c0.04,1.96-0.55,4.04-0.75,5.96c-0.2,1.95-0.73,2.47-2.06,3.82c-0.06,0.05-0.1,0.09-0.16,0.13c-0.05,0.04-0.1,0.07-0.16,0.1
		c-0.03,0.05-0.05,0.09-0.09,0.13c-1.74,2.25-2.6,3.96-2.6,6.83v0.1c0.01,1.42,0.18,2.77-0.43,4.1c-0.52,1.15-1.29,1.59-2.29,2.24
		c-0.26,0.06-0.51,0.12-0.77,0.18c-0.04,0.01-0.08,0.02-0.12,0.03c-0.5,0.55-0.83,1.13-1.01,1.76c-0.01,0.01-0.01,0.01-0.01,0.01
		c-0.11,0.4-0.16,0.83-0.14,1.27c-0.1,0.43-0.13,0.88-0.29,1.31c-0.66,1.74-2.56,3.2-4.46,4.06c-0.01,0.01-0.01,0.01-0.01,0.01
		c-0.72,0.32-1.42,0.56-2.07,0.7c-1.19,0.24-1.89,0.29-2.32,1.67c-0.11,0.36,0.06,0.83-0.08,1.23c-0.09,0.24-0.19,0.44-0.32,0.62
		c-0.21,0.42-0.53,0.73-1.03,1.01c-1.51,0.83-1.28,0.29-1.89,2.01c-0.7,1.93-2.21,2.33-4.13,2.42c-1.94,0.09-3.77,0.16-5.03,1.82
		c-0.71,0.94-0.97,2.09-1.98,2.8c-0.94,0.67-1.87,0.51-2.92,0.66c-2.11,0.31-1.63,1.02-2.65,2.32c-1.38,1.73-3.89,1.83-5.91,1.82
		c-1.63-0.01-2.76-0.54-3.62,0.82c-0.51,0.8-0.59,1.35-1.56,1.76c-0.89,0.38-1.73,0.17-2.62-0.07c-1.95-0.51-2.94-1.4-4.99-0.6
		C3.48,65.26,1.65,65.29-0.42,65.25z"/>
	<path class="st4" d="M117.74,14.86c0.1,0.2,0.24,0.4,0.4,0.58c0.14,0.18,0.3,0.34,0.49,0.46c0.47,0.36,1.07,0.62,1.68,0.6
		c0.49-0.02,0.96-0.15,1.4-0.38c0.26-0.14,0.46-0.33,0.63-0.54c0.22-0.21,0.41-0.46,0.54-0.72c0.27-0.46,0.4-0.97,0.41-1.5
		c0-0.54-0.14-1.04-0.41-1.5c-0.53-0.91-1.52-1.47-2.57-1.47s-2.04,0.57-2.57,1.47c-0.27,0.46-0.4,0.97-0.41,1.5
		C117.33,13.9,117.47,14.4,117.74,14.86z"/>
	<path class="st4" d="M117.62,28.74c0.23,0.4,0.6,0.69,1.02,0.87c0.36,0.15,0.71,0.2,1.1,0.15c0.5-0.07,0.83-0.27,1.22-0.59
		c0.48-0.38,0.73-0.97,0.96-1.52c0.24-0.55,0.38-1.06,0.22-1.67c-0.14-0.5-0.53-1.05-0.99-1.29c-1.09-0.58-2.28-0.23-2.96,0.78
		c-0.14,0.2-0.29,0.41-0.41,0.62c-0.3,0.49-0.4,1.02-0.46,1.58C117.29,27.99,117.45,28.45,117.62,28.74z"/>
	<path class="st4" d="M103.19,16.28c2.57,0,2.57-3.99,0-3.99C100.62,12.28,100.62,16.28,103.19,16.28z"/>
	<path class="st4" d="M94.33,31.45c2,0,2-3.11,0-3.11C92.33,28.34,92.33,31.45,94.33,31.45z"/>
	<path class="st4" d="M78.74,28.21c2.17,0,2.17-3.37,0-3.37C76.57,24.84,76.57,28.21,78.74,28.21z"/>
	<path class="st4" d="M75.38,32.88c2.66,0,2.66-4.14,0-4.14C72.72,28.74,72.72,32.88,75.38,32.88z"/>
	<path class="st4" d="M87.91,11.46c3.86,0,3.86-6,0-6C84.05,5.46,84.05,11.46,87.91,11.46z"/>
	<path class="st4" d="M90.05,44.22c3.46,0,3.46-5.38,0-5.38C86.59,38.84,86.59,44.22,90.05,44.22z"/>
	<path class="st4" d="M108.08,50.92c3.01,0,3.02-4.69,0-4.69C105.07,46.23,105.06,50.92,108.08,50.92z"/>
	<path class="st4" d="M106.55,63.87c3.92,0,3.92-6.1,0-6.1C102.63,57.77,102.63,63.87,106.55,63.87z"/>
	<path class="st4" d="M100.44,66.33c1.97,0,1.97-3.06,0-3.06C98.47,63.27,98.47,66.33,100.44,66.33z"/>
	<path class="st4" d="M94.33,74.57c1.86,0,2.6-1.72,2.25-3.12c3.34-0.12,3.32-5.37-0.11-5.37c-2.15,0-2.97,2.09-2.44,3.66
		C91.22,70.06,91.31,74.57,94.33,74.57z"/>
	<path class="st4" d="M107.47,7.99c2.93,0,2.94-4.57,0-4.57C104.53,3.42,104.53,7.99,107.47,7.99z"/>
	<path class="st4" d="M107.44,32.72c0.29,1.04,1.36,1.95,2.48,1.89c0.3-0.02,0.6-0.06,0.9-0.11c0.69-0.12,1.44-0.87,1.56-1.56
		c0.05-0.3,0.09-0.6,0.11-0.9c0.02-0.43-0.15-0.92-0.35-1.3c-0.26-0.49-0.73-0.84-1.23-1.05c-0.91-0.38-2.11-0.23-2.8,0.53
		C107.49,30.89,107.19,31.83,107.44,32.72z"/>
	<path class="st4" d="M123.36,46.9c3.36,0,3.37-5.24,0-5.24C120,41.67,119.99,46.9,123.36,46.9z"/>
	<path class="st4" d="M91.27,82.23c3.52,0,3.52-5.48,0-5.48C87.75,76.76,87.75,82.23,91.27,82.23z"/>
	<path class="st4" d="M75.99,73.79c2.5,0,2.51-3.9,0-3.9C73.49,69.89,73.48,73.79,75.99,73.79z"/>
	<path class="st4" d="M71.4,86.53c3.53,0,3.54-5.5,0-5.5C67.87,81.03,67.87,86.53,71.4,86.53z"/>
	<path class="st4" d="M75.38,100.32c1.97,0,1.97-3.06,0-3.06C73.41,97.25,73.41,100.32,75.38,100.32z"/>
	<path class="st4" d="M65.29,107.06c2.37,0,2.37-3.68,0-3.68C62.93,103.37,62.92,107.06,65.29,107.06z"/>
	<path class="st4" d="M55.82,108.57c3.92,0,3.92-6.1,0-6.1C51.9,102.47,51.89,108.57,55.82,108.57z"/>
	<path class="st4" d="M35.65,122.97h0.61c0.8,0,1.57-0.7,1.53-1.53c-0.04-0.83-0.67-1.53-1.53-1.53h-0.61c-0.8,0-1.57,0.7-1.53,1.53
		C34.16,122.27,34.79,122.97,35.65,122.97z"/>
	<path class="st4" d="M15.78,114.71c1.97,0,1.97-3.06,0-3.06C13.81,111.64,13.81,114.71,15.78,114.71z"/>
	<path class="st4" d="M9.97,124.74c2.66,0,2.66-4.14,0-4.14C7.32,120.6,7.31,124.74,9.97,124.74z"/>
	<path class="st4" d="M5.39,133.49c4.07,0,4.08-6.34,0-6.34C1.32,127.15,1.31,133.49,5.39,133.49z"/>
	<path class="st4" d="M9.67,111.09c3.57,0,3.96-4.95,1.17-6.03c-0.09-0.39-0.45-0.68-0.88-0.7c-0.36-0.02-0.72-0.05-1.07,0.07
		c-0.26,0.09-0.45,0.36-0.4,0.63C5.71,106.15,6.09,111.09,9.67,111.09z"/>
	<path class="st4" d="M11.2,98.58c3.27,0,3.28-5.1,0-5.1C7.92,93.48,7.92,98.58,11.2,98.58z"/>
	<path class="st4" d="M23.12,94.18c3.92,0,3.92-6.1,0-6.1C19.2,88.08,19.19,94.18,23.12,94.18z"/>
	<path class="st4" d="M29.84,119.93c2.78,0,2.79-4.33,0-4.33C27.06,115.6,27.05,119.93,29.84,119.93z"/>
	<path class="st4" d="M29.23,127.49c3.84,0,3.85-5.98,0-5.98C25.39,121.51,25.38,127.49,29.23,127.49z"/>
	<path class="st4" d="M57.04,119.43c4.1,0,4.11-6.39,0-6.39C52.94,113.04,52.93,119.43,57.04,119.43z"/>
	<path class="st4" d="M44.2,102.65c3.78,0,3.79-5.88,0-5.88C40.42,96.76,40.42,102.65,44.2,102.65z"/>
	<path class="st4" d="M40.84,95.82c2.49,0,2.49-3.88,0-3.88C38.35,91.95,38.35,95.82,40.84,95.82z"/>
	<path class="st4" d="M46.34,79.95c3.73,0,3.74-5.81,0-5.81C42.61,74.14,42.6,79.95,46.34,79.95z"/>
	<path class="st4" d="M59.79,76.15c3.96,0,3.97-6.17,0-6.17C55.83,69.98,55.82,76.15,59.79,76.15z"/>
	<path class="st4" d="M60.1,64.67c4.16,0,4.17-6.48,0-6.48C55.93,58.19,55.93,64.67,60.1,64.67z"/>
	<path class="st4" d="M65.9,45.88c2.84,0,2.85-4.43,0-4.43C63.06,41.46,63.06,45.88,65.9,45.88z"/>
	<path class="st4" d="M64.68,53.61c4.12,0,4.12-6.41,0-6.41C60.56,47.2,60.56,53.61,64.68,53.61z"/>
	<path class="st4" d="M41.76,70.66c3.99,0,4-6.22,0-6.22C37.76,64.44,37.76,70.66,41.76,70.66z"/>
	<path class="st4" d="M30.76,78.06c3.66,0,3.66-5.69,0-5.69C27.1,72.36,27.09,78.06,30.76,78.06z"/>
	<path class="st4" d="M20.06,85.46c3.73,0,3.74-5.81,0-5.81C16.33,79.65,16.32,85.46,20.06,85.46z"/>
	<path class="st4" d="M11.2,84.24c3.73,0,3.74-5.81,0-5.81C7.46,78.43,7.46,84.24,11.2,84.24z"/>
	<path class="st4" d="M4.47,89.43c3.72,0,3.72-5.79,0-5.79C0.75,83.64,0.75,89.43,4.47,89.43z"/>
	<path class="st4" d="M53.07,94.68c3.78,0,3.79-5.88,0-5.88C49.29,88.8,49.28,94.68,53.07,94.68z"/>
	<path class="st4" d="M90.97,93.75c3.36,0,3.37-5.24,0-5.24C87.6,88.51,87.59,93.75,90.97,93.75z"/>
	<path class="st4" d="M83.02,17.74c2.87,0,2.88-4.47,0-4.47C80.15,13.27,80.14,17.74,83.02,17.74z"/>
	<path class="st5" d="M25.87,114.59c3,0,3-4.66,0-4.66C22.87,109.92,22.87,114.59,25.87,114.59z"/>
	<path class="st5" d="M21.59,125.53c3.29,0,3.29-5.12,0-5.12C18.3,120.41,18.29,125.53,21.59,125.53z"/>
	<path class="st5" d="M14.34,123.04c-0.34,0.59-0.07,1.55,0.83,1.55c0.89,0,1.17-0.96,0.83-1.55c1.08-0.72,0.81-2.82-0.83-2.82
		C13.54,120.22,13.26,122.32,14.34,123.04z"/>
	<path class="st5" d="M16.39,99.4c1.97,0,1.97-3.06,0-3.06C14.43,96.34,14.42,99.4,16.39,99.4z"/>
	<path class="st5" d="M29.23,109.11c2.64,0,2.65-4.11,0-4.11C26.59,104.99,26.58,109.11,29.23,109.11z"/>
	<path class="st5" d="M41.45,119.6c1.97,0,1.97-3.06,0-3.06C39.49,116.54,39.48,119.6,41.45,119.6z"/>
	<path class="st5" d="M48.18,116.84c3.92,0,3.92-6.1,0-6.1C44.26,110.74,44.25,116.84,48.18,116.84z"/>
	<path class="st5" d="M50.32,99.64c3.86,0,3.86-6,0-6C46.46,93.64,46.45,99.64,50.32,99.64z"/>
	<path class="st5" d="M64.38,111.12c2.87,0,2.88-4.47,0-4.47C61.5,106.65,61.5,111.12,64.38,111.12z"/>
	<path class="st5" d="M75.07,103.7c2.78,0,2.79-4.33,0-4.33C72.29,99.38,72.29,103.7,75.07,103.7z"/>
	<path class="st5" d="M75.68,86.54c3.93,0,3.94-6.12,0-6.12C71.75,80.41,71.74,86.54,75.68,86.54z"/>
	<path class="st5" d="M79.66,79.11c3.44,0,3.45-5.36,0-5.36C76.22,73.75,76.21,79.11,79.66,79.11z"/>
	<path class="st5" d="M101.66,79.38c3,0,3-4.66,0-4.66C98.67,74.71,98.66,79.38,101.66,79.38z"/>
	<path class="st5" d="M105.02,68.01c2.95,0,2.95-4.59,0-4.59C102.07,63.42,102.07,68.01,105.02,68.01z"/>
	<path class="st5" d="M101.66,51.6c3.89,0,3.89-6.05,0-6.05C97.77,45.55,97.77,51.6,101.66,51.6z"/>
	<path class="st5" d="M85.46,44c3.96,0,3.97-6.17,0-6.17C81.5,37.83,81.49,44,85.46,44z"/>
	<path class="st5" d="M74.77,45.51c1.97,0,1.97-3.06,0-3.06C72.8,42.45,72.8,45.51,74.77,45.51z"/>
	<path class="st5" d="M76.29,32.65c1.97,0,1.97-3.06,0-3.06C74.33,29.59,74.33,32.65,76.29,32.65z"/>
	<path class="st5" d="M79.82,20.16c0.19,0.34,0.54,0.59,1.06,0.59c0.25,0,0.45-0.06,0.62-0.16c4.17-0.01,4.17-6.51-0.01-6.51
		C77.97,14.09,77.41,18.7,79.82,20.16z"/>
	<path class="st5" d="M80.27,8.32c3.75,0,3.75-5.84,0-5.84C76.52,2.48,76.51,8.32,80.27,8.32z"/>
	<path class="st5" d="M94.63,9.26c3.78,0,3.79-5.88,0-5.88C90.85,3.38,90.85,9.26,94.63,9.26z"/>
	<path class="st5" d="M104.41,18.3c2.81,0,2.82-4.38,0-4.38C101.6,13.93,101.6,18.3,104.41,18.3z"/>
	<path class="st5" d="M116.58,20.28c0.09-0.03,0.19-0.06,0.28-0.09c0.81-0.27,1.5-1.03,1.46-1.93c-0.04-0.91-0.6-1.64-1.46-1.93
		c-0.09-0.03-0.19-0.06-0.28-0.09c-1.3-0.43-2.64,0.71-2.64,2.02C113.94,19.57,115.28,20.71,116.58,20.28z"/>
	<path class="st5" d="M123.06,18.23c3.1,0,3.11-4.83,0-4.83C119.95,13.39,119.95,18.23,123.06,18.23z"/>
	<path class="st5" d="M125.81,12.75c1.97,0,1.97-3.06,0-3.06C123.84,9.69,123.84,12.75,125.81,12.75z"/>
	<path class="st5" d="M128.25,17.84c2.61,0,2.62-4.07,0-4.07C125.64,13.78,125.64,17.84,128.25,17.84z"/>
	<path class="st5" d="M121.67,35.88c0.61,0.56,1.56,0.61,2.16,0c0.1-0.1,0.2-0.2,0.31-0.31c0.57-0.57,0.61-1.61,0-2.17
		c-0.3-0.28-0.68-0.43-1.06-0.44c0.01-0.02,0.01-0.04-0.02-0.04c-0.03,0-0.03,0.02-0.02,0.04c-0.38,0-0.76,0.14-1.06,0.44
		l-0.31,0.31C121.1,34.28,121.06,35.32,121.67,35.88z"/>
	<path class="st5" d="M105.02,31.44c4.35,0,4.36-6.77,0-6.77C100.68,24.67,100.67,31.44,105.02,31.44z"/>
	<path class="st5" d="M91.58,23.79c2.78,0,2.79-4.33,0-4.33C88.8,19.46,88.79,23.79,91.58,23.79z"/>
	<path class="st5" d="M86.08,58.67c3.53,0,3.54-5.5,0-5.5c-0.09,0-0.17,0.02-0.25,0.03c0.78-0.06,0.77-1.3-0.05-1.3
		c-0.83,0-0.84,1.28-0.02,1.3C82.56,53.54,82.65,58.67,86.08,58.67z"/>
	<path class="st5" d="M74.77,67.38c4.44,0,4.5-6.81,0.18-7c-0.2-0.35-0.57-0.6-1.1-0.6c-0.87,0-1.3,0.69-1.29,1.37
		C70.46,62.97,71.19,67.38,74.77,67.38z"/>
	<path class="st5" d="M42.37,69.34c4.26,0,4.26-6.63,0-6.63C38.11,62.71,38.11,69.34,42.37,69.34z"/>
	<path class="st5" d="M40.23,90.44c2.96,0,4.03-2.95,3.2-5.07c3.12-1,2.77-6.4-1.06-6.4c-2.58,0-3.58,2.46-3,4.36
		C35.63,84.17,35.91,90.44,40.23,90.44z"/>
	<path class="st5" d="M84.24,98.02c2.95,0,2.95-4.59,0-4.59C81.29,93.43,81.29,98.02,84.24,98.02z"/>
	<path class="st5" d="M8.14,119.98c4.03,0,4.03-6.27,0-6.27C4.11,113.72,4.11,119.98,8.14,119.98z"/>
	<path class="st5" d="M19.45,95.25c3.72,0,3.72-5.79,0-5.79C15.73,89.46,15.72,95.25,19.45,95.25z"/>
	<path class="st5" d="M35.65,110.9c1,0,1.01-1.56,0-1.56C34.64,109.33,34.64,110.9,35.65,110.9z"/>
	<path class="st5" d="M38.4,103.68c1.17,0,1.17-1.82,0-1.82C37.23,101.85,37.22,103.68,38.4,103.68z"/>
	<path class="st5" d="M32.28,94.83c0.04,0,0.04-0.06,0-0.06C32.25,94.77,32.25,94.83,32.28,94.83z"/>
	<path class="st5" d="M38.09,92.35c1.17,0,1.17-1.82,0-1.82C36.92,90.52,36.92,92.35,38.09,92.35z"/>
	<path class="st5" d="M58.87,105.51c1.17,0,1.17-1.82,0-1.82C57.7,103.69,57.7,105.51,58.87,105.51z"/>
	<path class="st5" d="M71.1,89.61c1.19,0,1.19-1.85,0-1.85C69.91,87.75,69.91,89.61,71.1,89.61z"/>
	<path class="st5" d="M64.68,72.75c1.17,0,1.17-1.82,0-1.82C63.51,70.93,63.51,72.75,64.68,72.75z"/>
	<path class="st5" d="M69.88,85.65c0.04,0,0.04-0.06,0-0.06C69.84,85.59,69.84,85.65,69.88,85.65z"/>
	<path class="st5" d="M64.99,93.92c0.04,0,0.04-0.06,0-0.06C64.95,93.86,64.95,93.92,64.99,93.92z"/>
	<path class="st5" d="M57.04,84.69c1.17,0,1.17-1.82,0-1.82C55.87,82.87,55.87,84.69,57.04,84.69z"/>
	<path class="st5" d="M63.46,77.69c0.04,0,0.04-0.06,0-0.06C63.42,77.63,63.42,77.69,63.46,77.69z"/>
	<path class="st5" d="M74.16,90.85c0.04,0,0.04-0.06,0-0.06C74.12,90.79,74.12,90.85,74.16,90.85z"/>
	<path class="st5" d="M88.52,87.18c0.04,0,0.04-0.06,0-0.06C88.48,87.12,88.48,87.18,88.52,87.18z"/>
	<path class="st5" d="M95.86,73.4c0.04,0,0.04-0.06,0-0.06C95.82,73.34,95.82,73.4,95.86,73.4z"/>
	<path class="st5" d="M94.02,57.79c0.04,0,0.04-0.06,0-0.06C93.98,57.73,93.98,57.79,94.02,57.79z"/>
	<path class="st5" d="M87.3,51.05c0.04,0,0.04-0.06,0-0.06C87.26,50.99,87.26,51.05,87.3,51.05z"/>
	<path class="st5" d="M95.24,70.95c0.04,0,0.04-0.06,0-0.06C95.2,70.89,95.2,70.95,95.24,70.95z"/>
	<path class="st5" d="M104.74,75.68l0.1,0.59c0.08,0.49,0.91,0.49,0.99,0l0.1-0.59c0.06-0.39-0.17-0.78-0.59-0.78
		C104.9,74.9,104.67,75.29,104.74,75.68z"/>
	<path class="st5" d="M107.16,76.77c0.04,0,0.04-0.06,0-0.06C107.12,76.71,107.12,76.77,107.16,76.77z"/>
	<path class="st5" d="M115.11,56.56c0.04,0,0.04-0.06,0-0.06C115.07,56.5,115.07,56.56,115.11,56.56z"/>
	<path class="st5" d="M112.97,45.85c0.04,0,0.04-0.06,0-0.06C112.93,45.78,112.93,45.85,112.97,45.85z"/>
	<path class="st5" d="M111.44,36.05c0.04,0,0.04-0.06,0-0.06C111.4,35.99,111.4,36.05,111.44,36.05z"/>
	<path class="st5" d="M123.06,30.23c0.04,0,0.04-0.06,0-0.06C123.02,30.17,123.02,30.23,123.06,30.23z"/>
	<path class="st5" d="M115.72,23.8c0.04,0,0.04-0.06,0-0.06C115.68,23.74,115.68,23.8,115.72,23.8z"/>
	<path class="st5" d="M101.36,17.68c0.04,0,0.04-0.06,0-0.06C101.32,17.62,101.32,17.68,101.36,17.68z"/>
	<path class="st5" d="M113.28,38.5c0.04,0,0.04-0.06,0-0.06C113.24,38.44,113.24,38.5,113.28,38.5z"/>
	<path class="st5" d="M112.05,47.07c0.04,0,0.04-0.06,0-0.06C112.01,47.01,112.01,47.07,112.05,47.07z"/>
	<path class="st5" d="M111.75,45.54c0.04,0,0.04-0.06,0-0.06C111.71,45.48,111.71,45.54,111.75,45.54z"/>
	<path class="st5" d="M92.19,33.26c1.17,0,1.17-1.82,0-1.82C91.02,31.43,91.01,33.26,92.19,33.26z"/>
	<path class="st5" d="M80.88,30.23c0.04,0,0.04-0.06,0-0.06C80.84,30.17,80.84,30.23,80.88,30.23z"/>
	<path class="st5" d="M71.94,34.79c0,0.1,0.16,0.1,0.16,0c0-0.2,0.01-0.41,0.01-0.61c0-0.12-0.19-0.12-0.19,0
		C71.93,34.38,71.93,34.59,71.94,34.79z"/>
	<path class="st5" d="M75.99,27.17c0.04,0,0.04-0.06,0-0.06C75.95,27.11,75.95,27.17,75.99,27.17z"/>
	<path class="st5" d="M90.35,19.51c0.04,0,0.04-0.06,0-0.06C90.31,19.45,90.31,19.51,90.35,19.51z"/>
	<path class="st5" d="M101.66,13.97c1.17,0,1.17-1.82,0-1.82C100.49,12.14,100.49,13.97,101.66,13.97z"/>
	<path class="st5" d="M107.16,11.55c0.04,0,0.04-0.06,0-0.06C107.12,11.49,107.12,11.55,107.16,11.55z"/>
	<path class="st5" d="M116.64,9.07c1.17,0,1.17-1.82,0-1.82C115.47,7.24,115.47,9.07,116.64,9.07z"/>
	<path class="st5" d="M122.14,2.98c0.04,0,0.04-0.06,0-0.06C122.1,2.92,122.1,2.98,122.14,2.98z"/>
	<path class="st5" d="M127.95,3.9c0.04,0,0.04-0.06,0-0.06C127.91,3.84,127.91,3.9,127.95,3.9z"/>
	<path class="st5" d="M128.25,10.9c1.17,0,1.17-1.82,0-1.82C127.08,9.08,127.08,10.9,128.25,10.9z"/>
	<path class="st5" d="M119.69,30.23c0.04,0,0.04-0.06,0-0.06C119.65,30.17,119.65,30.23,119.69,30.23z"/>
	<path class="st5" d="M121.2,37.57c0.03,0.03,0.07-0.02,0.04-0.04c-0.2-0.2-0.41-0.41-0.61-0.61c-0.03-0.03-0.07,0.02-0.04,0.04
		L121.2,37.57z"/>
	<path class="st5" d="M102.88,44.93c0.04,0,0.04-0.06,0-0.06C102.85,44.87,102.85,44.93,102.88,44.93z"/>
	<path class="st5" d="M63.15,70.86c0.7,0,0.7-1.09,0-1.09C62.45,69.76,62.45,70.86,63.15,70.86z"/>
	<path class="st5" d="M54.29,60.54c0.04,0,0.04-0.06,0-0.06C54.25,60.48,54.25,60.54,54.29,60.54z"/>
	<path class="st5" d="M54.6,61.77c0.04,0,0.04-0.06,0-0.06C54.56,61.71,54.56,61.77,54.6,61.77z"/>
	<path class="st5" d="M50.93,65.98c0.73,0,0.73-1.13,0-1.13C50.2,64.84,50.2,65.98,50.93,65.98z"/>
	<path class="st5" d="M60.55,82.09c0.14,0.28,0.29,0.56,0.43,0.85c0.17,0.33,0.61,0.45,0.93,0.31c0.36-0.16,0.5-0.5,0.43-0.88
		c-0.06-0.32-0.11-0.64-0.17-0.96c-0.09-0.53-0.75-0.76-1.2-0.58C60.47,81.04,60.31,81.61,60.55,82.09z"/>
	<path class="st5" d="M66.82,90.24c0.04,0,0.04-0.06,0-0.06C66.78,90.18,66.78,90.24,66.82,90.24z"/>
	<path class="st5" d="M61.32,100.61c1.17,0,1.17-1.82,0-1.82C60.15,98.79,60.15,100.61,61.32,100.61z"/>
	<path class="st5" d="M68.65,89.02c0.04,0,0.04-0.06,0-0.06C68.61,88.96,68.61,89.02,68.65,89.02z"/>
	<path class="st5" d="M55.82,98.04c0.62,0,0.62-0.96,0-0.96C55.2,97.08,55.2,98.04,55.82,98.04z"/>
	<path class="st5" d="M33.2,102.77c1.59,0,1.59-2.47,0-2.47C31.62,100.31,31.61,102.77,33.2,102.77z"/>
	<path class="st5" d="M20.37,99.7c1.17,0,1.17-1.82,0-1.82C19.19,97.87,19.19,99.7,20.37,99.7z"/>
	<path class="st5" d="M11.2,107.69c0.04,0,0.04-0.06,0-0.06C11.16,107.63,11.16,107.69,11.2,107.69z"/>
	<path class="st5" d="M19.45,128.21c0.04,0,0.04-0.06,0-0.06C19.41,128.15,19.41,128.21,19.45,128.21z"/>
	<path class="st5" d="M23.42,129.74c0.04,0,0.04-0.06,0-0.06C23.38,129.68,23.38,129.74,23.42,129.74z"/>
	<path class="st4" d="M12.42,91.15c1.21,0,1.21-1.88,0-1.88C11.21,89.27,11.21,91.15,12.42,91.15z"/>
	<path class="st4" d="M14.86,100.93c1.58,0,1.58-2.45,0-2.45C13.29,98.48,13.29,100.93,14.86,100.93z"/>
	<path class="st4" d="M19.14,109.2c1.17,0,1.47-1.34,0.92-2.05c0.17,0.1,0.37,0.17,0.61,0.17c1.53,0,1.53-2.38,0-2.38
		c-1.13,0-1.42,1.29-0.89,1.97c-0.17-0.11-0.38-0.18-0.64-0.18C17.56,106.74,17.55,109.2,19.14,109.2z"/>
	<path class="st4" d="M28.31,104.38c1.29,0,1.29-2.01,0-2.01C27.02,102.37,27.02,104.38,28.31,104.38z"/>
	<path class="st4" d="M35.65,90.24c0.04,0,0.04-0.06,0-0.06C35.61,90.18,35.61,90.24,35.65,90.24z"/>
	<path class="st4" d="M46.04,111.35c0.41,0,0.42-0.65,0-0.65C45.62,110.71,45.62,111.35,46.04,111.35z"/>
	<path class="st4" d="M77.49,106.45c0.02,0.04,0.07,0,0.05-0.03c-0.1-0.2-0.2-0.41-0.31-0.61c-0.02-0.04-0.07,0-0.05,0.03
		C77.29,106.05,77.39,106.25,77.49,106.45z"/>
	<path class="st4" d="M81.81,103.1c0.31-0.2,0.61-0.41,0.92-0.61c0.03-0.02,0-0.07-0.03-0.05c-0.31,0.2-0.61,0.41-0.92,0.61
		C81.75,103.07,81.78,103.12,81.81,103.1z"/>
	<path class="st4" d="M94.94,92.69c0.04,0,0.04-0.06,0-0.06C94.9,92.63,94.9,92.69,94.94,92.69z"/>
	<path class="st4" d="M102.3,84.41l0.92-1.84c0.02-0.04-0.04-0.07-0.05-0.03l-0.92,1.84C102.23,84.41,102.28,84.44,102.3,84.41z"/>
	<path class="st4" d="M83.94,103.41c0.04,0,0.04-0.06,0-0.06C83.9,103.35,83.9,103.41,83.94,103.41z"/>
	<path class="st4" d="M78.13,107.69c0.04,0,0.04-0.06,0-0.06C78.09,107.63,78.09,107.69,78.13,107.69z"/>
	<path class="st4" d="M72.02,110.86c0.96,0,0.96-1.49,0-1.49C71.06,109.37,71.06,110.86,72.02,110.86z"/>
	<path class="st4" d="M84.55,98.24c1.66,0,1.66-2.58,0-2.58C82.89,95.66,82.88,98.24,84.55,98.24z"/>
	<path class="st4" d="M89.04,98.69c0.62,0.09,1.15,0,1.56-0.53c0.54-0.7,0.35-1.73-0.42-2.18c-0.71-0.42-1.59-0.14-2.03,0.53
		C87.68,97.24,88.11,98.55,89.04,98.69z"/>
	<path class="st4" d="M97.75,87.7c0.49,0.53,1.59,0.46,1.9-0.25c0.21-0.48,0.23-0.92-0.09-1.35c-0.44-0.57-1.29-0.64-1.81-0.12
		C97.27,86.46,97.31,87.22,97.75,87.7z"/>
	<path class="st4" d="M104.11,78.27c1.58,0,1.58-2.45,0-2.45C102.53,75.82,102.53,78.27,104.11,78.27z"/>
	<path class="st4" d="M110.83,68.12c1.12,0,1.13-1.75,0-1.75C109.71,66.37,109.7,68.12,110.83,68.12z"/>
	<path class="st4" d="M119.08,55.82c0.75,0,1.47-0.66,1.43-1.44c-0.03-0.78-0.63-1.44-1.43-1.44c-0.75,0-1.47,0.66-1.43,1.44
		C117.68,55.17,118.28,55.82,119.08,55.82z"/>
	<path class="st4" d="M119.49,51.01c0.22,0.45,0.58,0.83,1.12,0.83c0.85,0,1.4-0.96,0.97-1.7c-0.4-0.69-1.56-0.78-1.94,0
		C119.49,50.45,119.33,50.67,119.49,51.01z"/>
	<path class="st4" d="M116.03,45.2c1.96,0,1.97-3.06,0-3.06C114.06,42.14,114.06,45.2,116.03,45.2z"/>
	<path class="st4" d="M124.28,38.46c1.57,0,1.57-2.44,0-2.44C122.71,36.02,122.71,38.46,124.28,38.46z"/>
	<path class="st4" d="M128.86,29.85c1.51,0,1.51-2.35,0-2.35C127.35,27.49,127.35,29.85,128.86,29.85z"/>
	<path class="st4" d="M127.64,24.19c1.71,0,1.72-2.67,0-2.67C125.93,21.52,125.92,24.19,127.64,24.19z"/>
	<path class="st4" d="M129.78,18.22c1.12,0,1.13-1.75,0-1.75C128.66,16.47,128.65,18.22,129.78,18.22z"/>
	<path class="st4" d="M94.02,12.96c1.46,0,1.46-2.27,0-2.27C92.56,10.7,92.56,12.96,94.02,12.96z"/>
	<path class="st4" d="M81.19,15.16c1.53,0,1.53-2.38,0-2.38C79.65,12.78,79.65,15.16,81.19,15.16z"/>
	<path class="st4" d="M73.85,32.06c1.6,0,1.61-2.5,0-2.5C72.25,29.56,72.24,32.06,73.85,32.06z"/>
	<path class="st4" d="M66.51,38.81c1.62,0,1.63-2.53,0-2.53C64.89,36.29,64.89,38.81,66.51,38.81z"/>
	<path class="st4" d="M61.01,47.43c1.68,0,1.68-2.61,0-2.61C59.34,44.82,59.33,47.43,61.01,47.43z"/>
	<path class="st4" d="M77.21,54.76c2.06,0,2.06-3.2,0-3.2C75.16,51.56,75.15,54.76,77.21,54.76z"/>
	<path class="st4" d="M81.49,54.13c2.03,0,2.03-3.16,0-3.16C79.46,50.97,79.46,54.13,81.49,54.13z"/>
	<path class="st4" d="M96.03,49.75c0.2,0.48,0.63,0.81,1.15,0.88c0.6,0.08,1.14-0.2,1.47-0.71c0.01-0.02,0.02-0.04,0.04-0.05
		c-0.01,0.02,0.05-0.06,0.18-0.24c0.06-0.11,0.1-0.21,0.13-0.32c0.23-0.43,0.02-0.91-0.35-1.16c-0.25-0.22-0.58-0.29-0.89-0.4
		c-0.47-0.17-1.09,0.04-1.44,0.38C95.92,48.56,95.81,49.21,96.03,49.75z"/>
	<path class="st4" d="M102.27,37.71c0.88,0,1.73-0.78,1.69-1.69c-0.04-0.92-0.74-1.69-1.69-1.69c-0.88,0-1.73,0.78-1.69,1.69
		C100.62,36.94,101.33,37.71,102.27,37.71z"/>
	<path class="st4" d="M110.22,42.77c1.98,0,1.99-3.09,0-3.09C108.24,39.68,108.23,42.77,110.22,42.77z"/>
	<path class="st4" d="M44.51,68.24c2.06,0,2.06-3.2,0-3.2C42.45,65.04,42.45,68.24,44.51,68.24z"/>
	<path class="st4" d="M27.39,70.22c1.85,0,1.86-2.88,0-2.88C25.54,67.34,25.54,70.22,27.39,70.22z"/>
	<path class="st4" d="M6.31,83.15c1.95,0,1.95-3.03,0-3.03C4.36,80.12,4.36,83.15,6.31,83.15z"/>
	<path class="st4" d="M2.94,103.35c1.94,0,1.94-3.01,0-3.01C1.01,100.34,1.01,103.35,2.94,103.35z"/>
	<path class="st4" d="M3.25,113.08c1.84,0,1.85-2.87,0-2.87C1.41,110.21,1.4,113.08,3.25,113.08z"/>
</g>
</svg>
