<?xml version="1.0" encoding="utf-8"?>
<!-- Generator: Adobe Illustrator 25.2.3, SVG Export Plug-In . SVG Version: 6.00 Build 0)  -->
<svg version="1.1" id="Layer_1" xmlns="http://www.w3.org/2000/svg" xmlns:xlink="http://www.w3.org/1999/xlink" x="0px" y="0px"
	 viewBox="0 0 156 104" style="enable-background:new 0 0 156 104;" xml:space="preserve">
<style type="text/css">
	.st0{fill:#826C6C;}
	.st1{fill:#A08B82;}
	.st2{fill:#7F6F69;}
	.st3{fill:#493E3C;}
	.st4{fill:#99837C;}
	.st5{fill:#BFA399;}
</style>
<g>
	<path class="st0" d="M156.42,88.21v16.15c-2.74,0.07-5.29-0.89-7.41-2.58c-0.38-0.31-0.73-0.64-1.09-0.96
		c-0.11,0.04-0.25,0.1-0.42,0.2c-1.19,0.62-2.49,0.96-3.84,0.86c-1.58-0.11-2.67-0.94-4.12-1.42c-1.49-0.5-2.19,0.12-3.74,0.46
		c-2.1,0.47-4.18,0.42-6.07-0.42c-0.47,0.3-1,0.48-1.56,0.47c-1.23-0.02-2.08-0.2-3.18-0.74c-0.55-0.26-1.4-1.01-2.02-1
		c-1.29,0.02-2.7,1.74-3.97,2.13c-1.71,0.53-3.52,0.35-5.18-0.27c-1.29-0.48-3.29-2.28-4.64-1.56c-0.8,0.43-1.56,0.48-2.21,0.28
		c-0.69,0.44-1.54,0.63-2.44,0.38c-1.39-0.39-1.73-0.51-3.05,0.07c-1.06,0.47-1.96,1.05-3.12,1.3c-2.24,0.48-3.92-0.32-6.02-0.88
		c-1.2-0.31-2.84,0.4-4.62,0.07c-2.06-0.39-4.01-2.68-5.93-1.15c-0.35,0.28-0.74,0.44-1.13,0.53c-0.43,0.7-1.09,1.26-1.94,1.49
		c-1.84,0.51-3.45,0.37-5.29-0.07c-0.26-0.06-1.57-0.32-1.94-0.48c-0.32,0.14-0.94,0.35-1.05,0.37c-1.35,0.34-2.78,0.24-4.12-0.1
		c-1.38-0.36-2.29-1.08-3.12-0.7c-1.37,0.61-2.17,1.54-3.74,1.79c-1.65,0.26-3.38-0.25-5.04-0.35c-2.41-0.15-4.58-1.04-6.91-1.32
		c-0.62,0.83-1.62,1.38-3,1.3c-3.14-0.2-5.57-1.48-8.36-2.81c-1.32-0.63-2.52-1.16-3.95-0.68c-1.13,0.39-2.12,1.02-3.3,1.31
		c-2.73,0.67-5.97,1.02-8.67,0.12c-1.19-0.4-2.22-1.21-3.39-1.58c-1.31-0.42-2.83-0.11-4.16,0.39c-0.45,0.61-1.14,1.1-2.13,1.33
		c-3.44,0.81-6.24,3.28-9.66,3.95c-0.04,0.01-0.08,0.01-0.12,0.01c-0.4,0.22-0.8,0.22-1.2,0.28V87.36C0.49,87,1.49,86.79,2.5,86.73
		c0.66-0.04,1.33-0.05,2-0.04c0.73,0.01,1.46,0.04,2.19,0.09c0.22,0.02,0.43,0.03,0.66,0.05c2.96-0.56,6.33,0.01,9.18,0.23
		c0.85,0.06,1.7,0.1,2.54,0.13c1.84-0.1,3.7-0.19,5.48-0.04c1.33-0.06,2.66-0.14,4-0.25c4.06-0.33,8.1-0.57,12.17-0.54
		c3.37,0.03,7.6-0.42,10.94,0.61c0.63-0.03,1.26-0.06,1.89-0.1c5.31-0.37,10.59-1,15.9-1.23c0.75-0.51,1.75-0.75,2.94-0.5
		c3.92,0.8,8.06,0.21,12.03,0.37c4.34,0.17,8.67,0.7,13,1.11c0.36,0.04,0.69,0.12,0.98,0.26c7.27,0.18,14.56-0.24,21.74,1.05
		c0.07-0.01,0.13-0.02,0.2-0.02c7.22-0.43,14.44-0.79,21.66-1.03c1.51-0.05,2.57,0.64,3.16,1.61
		C148.89,88.24,152.66,88.11,156.42,88.21z"/>
	<path class="st1" d="M156.42,13.83v75.29c-14.86,0.06-29.71,0.06-44.56,0.08c-0.01,0-0.01,0-0.01,0c-0.88,0-1.78,0.01-2.66,0.01
		h-0.15c-18.29,0.04-36.56,0.06-54.85,0.09c-0.01,0-0.01,0-0.01,0c-0.7-0.01-1.4,0-2.1,0h-0.31c-1.61,0-3.23,0.01-4.85,0.01
		c-10.1,0.01-20.19,0.02-30.29,0.04c-0.01,0-0.01,0-0.01,0c-0.93,0.01-1.86,0.01-2.79,0.01c-0.43,0-0.88,0.01-1.33,0.02H12.5
		c-3.97,0.11-8.82,0.59-12.92-0.39V14.74c10.7-0.75,21.5-0.44,32.21-0.51c21.56-0.14,43.13-0.23,64.7-0.28
		c2.1-0.01,4.19-0.01,6.29-0.01c0,0,0,0,0.01,0c15.02-0.04,30.04-0.06,45.07-0.09c0.94,0,1.87,0,2.8-0.01c0.01,0,0.01,0,0.01,0
		C152.58,13.84,154.5,13.83,156.42,13.83z"/>
	<path class="st2" d="M156.42,82.86v9.2c-3.38-0.05-6.08,0.32-7.96,0.7c-3.59,0.71-5.01,1.57-7.02,0.78c-0.6-0.23-2-0.83-3.99-1.29
		c-1.98-0.47-2.75,0.14-4.49,0.8c-2.14,0.8-4.19,0.18-6.3-0.47c-0.3-0.09-0.53-0.25-0.7-0.46c-1.73,0.39-3.39,1.32-5.22,1.36
		c-1.81,0.04-3.59-0.37-5.27-1.04c-2.99-1.16-4.85-2.35-7.95-0.92c-3.87,1.79-3.79,1.45-4.82,1.5c-0.73,0.03-0.75-0.1-5.71-1.49
		c-2.04-0.58-2.2-0.6-2.45-0.61c-1.98-0.11-2.48,0.81-5.22,1.46c-0.99,0.24-2.59,0.61-4.58,0.37c-1.91-0.22-3.06-0.61-3.06-0.61
		c-1.22-0.41-1.67-0.78-2.45-0.61c-0.3,0.07-0.79,0.25-1.48,0.16c-0.27-0.03-0.49-0.1-0.64-0.15c-2.57,1.38-5.37,1.31-8.42,0.88
		c-1.73-0.25-3.19-0.39-4.78,0.36c-0.92,0.42-1.72,0.85-2.75,0.94c-1.45,0.12-2.65-0.48-3.82-1.28c-1.37-0.95-3.31-2.69-5.26-3.12
		c-0.05-0.02-0.1-0.02-0.15-0.04c-0.06,0.01-0.1,0.02-0.16,0.04c-0.83,0.19-1.65,0.37-2.47,0.5c-1.32,0.85-2.28,2.25-3.88,2.85
		c-1.77,0.67-3.72,0.71-5.56,0.3c-2.28-0.51-5.95-3.52-8.03-1.57c-0.51,0.48-1.25,0.51-1.81,0.22c-0.31,0.12-0.66,0.22-1.04,0.31
		c-0.8,0.2-1.53,0.26-2.34,0.26c-1.39,0.01-2.65,0.25-4.01,0.32c-1.94,0.1-3.2-0.93-4.94-1.57c-3.27-1.21-4.69,0.88-7.6,1.47
		c-2.51,0.51-4.97-0.55-7.49-0.23c-0.84,0.11-1.94,0.45-3.01,0.62v-9.97c1.09-0.04,2.11,0.22,3.23,0.47
		c0.68,0.15,1.4,0.29,2.19,0.37c1.21,0.12,2.41-0.18,3.63-0.17c0.35,0,0.7,0.02,1.05,0.09c1.92,0.35,3.39,0.94,5.42,0.6
		c1.31-0.21,2.52-0.5,3.87-0.37c1.32,0.13,2.49,0.86,3.78,1.03c1.89,0.26,3.89-1,5.73-1.32c1.49-0.26,2.95-0.28,4.46-0.15
		c0.4,0.03,0.72,0.2,0.95,0.43c2.18-0.33,4.27,0.47,6.38-0.09c1.98-0.52,2.96-0.15,4.9,0.36c2.79,0.73,5.65-0.42,8.48-0.51
		c2.47-0.08,5.16,0.83,7.56,0.34c2.14-0.43,3.97-1.28,6.22-1.23c0.28,0.01,0.55,0.03,0.83,0.08h0.01c0.45,0.07,0.91,0.17,1.37,0.3
		c0,0,0,0,0.01,0c1.85,0.52,3.72,1.34,5.46,1c2.16-0.42,3.82-1.24,6.1-1.26c2.52-0.01,5.05,0.5,7.52,1c0.28,0.06,0.5,0.17,0.67,0.3
		c2.27,0.18,4.43-1.41,6.75-1.13c0.97,0.12,1.7,0.51,2.57,0.93c1.89,0.89,3.09,1.17,5.15,0.78c2.22-0.42,4.37-1.11,6.66-0.74
		c2.81,0.46,4.62,2.06,7.45,0.66c4.64-2.32,8.17-1.49,12.85,0.18c2.02,0.72,3.43,0.78,5.47-0.07c1.1-0.45,2.17-0.85,3.35-1.07
		c2.36-0.45,4.68-0.26,6.99,0.36c0.02,0.01,0.04,0.02,0.06,0.02c2.65,0.21,4.91-0.58,7.53-0.94
		C154.84,82.99,155.63,82.87,156.42,82.86z"/>
	<path class="st0" d="M156.42-0.37v15.08c-0.28,0.07-0.58,0.12-0.89,0.14c-1.05,0.07-2.08,0.1-3.1,0.05
		c-14.03,0.25-28.07,0.23-42.11,0.29c-14.76,0.06-29.95-1.22-44.63,0.73c-0.69,0.47-1.53,0.78-2.47,0.88
		c-5.5,0.57-10.31,0.2-15.7-0.94c-4.98-1.05-10.18-0.93-15.25-1c-5.21-0.08-10.45-0.01-15.63,0.63C11.13,16.16,6,17.72,0.42,16.59
		c-0.31-0.06-0.58-0.15-0.84-0.27V-0.35c0.03-0.01,0.06-0.01,0.09-0.01c0.29-0.04,0.59-0.04,0.89,0c0.09,0.01,0.18,0.02,0.28,0.04
		c2.15,0.42,4.23,1.34,5.62,3c2-0.97,4.01-2.07,6.3-2.14c2.48-0.07,4.69,1.12,7.18,0.88c2.4-0.24,4.65-1.23,7.08-1.18
		c2.38,0.04,4.14,1.43,6.34,2.04c2.49,0.69,4.37-0.02,6.74-0.55c2.13-0.48,3.9,0.6,5.87,0.35c1.96-0.24,3.39-1.7,5.6-1.67
		c0.89,0.02,1.63,0.28,2.21,0.69c2.72-1.23,5.81,1.11,8.79,1.03c2.38-0.06,4.25-1.4,6.76-1.14c1.89,0.2,3.39,1.13,5.15,1.73
		c2.19,0.74,4.05,0.07,6.27-0.15c2.39-0.23,4.74,0.32,7.08-0.26c3.79-0.95,7.04-1.04,10.15,1.02c0.4,0.04,0.81,0.14,1.24,0.34
		c3.65,1.65,5.62,0.53,8.88-1.16c3.63-1.88,6.35-1.09,10-0.05c1.64,0.47,2.48-0.67,4.08-1.18c1.85-0.59,3.71-0.5,5.56,0.06
		c1.92,0.58,2.89,1.16,4.88,0.7c1.82-0.42,3.58-0.99,5.47-0.98c1.86,0.01,3.53,0.98,5.31,1.04c1.72,0.06,3.45-1.07,5.01-1.67
		c0.75-0.29,1.58-0.56,2.44-0.76H156.42z"/>
	<path class="st2" d="M156.42,11.3v10.12c-2.43-0.12-4.72-0.96-7.12-1.53c-3.35-0.81-5.96-0.64-9.31-0.09
		c-2.66,0.43-4.99-0.06-7.59-0.53c-1.87-0.33-3.39-0.28-5.19,0.29c-1.12,0.36-2.11,0.58-3.3,0.53c-1.38-0.07-2.67-0.53-4.02-0.74
		c-1.78-0.29-3.25,0.1-4.94,0.59c-2.38,0.69-4.37,0.91-6.76,0.13c-1.48-0.48-2.83-1.15-4.42-1.01c-1.09,0.1-2.08,0.58-3.19,0.64
		c-2.77,0.17-5.64-1.8-8.2-0.11c-2.86,1.87-6.05-1.14-9.26-0.32c-1.62,0.41-3.09,1.3-4.8,1.38c-2.25,0.09-4.1-1.1-6.4-0.66
		c-1.48,0.28-2.9,0.77-4.42,0.56c-0.72-0.1-1.29-0.47-1.97-0.6c-2.07-0.41-2.73,0.18-4.57,0.51c-1.68,0.29-2.92-0.2-4.55-0.56
		c-1.97-0.43-3.68,0.42-5.52,0.04c-0.08,0.06-0.17,0.1-0.26,0.13c-1.18,0.42-1.92-0.18-3.12-0.11c-1.19,0.08-2.21,0.49-3.43,0.26
		c-1.48-0.27-2.8-1.6-4.36-1.46c-0.87,0.07-1.52,0.39-2.31,0.53c-0.14,0.34-0.43,0.64-0.94,0.79c-1.68,0.5-2.71,0.43-4.36,0.04
		c-1.2-0.29-2.19-0.55-3.55-0.2c-0.71,0.18-1.25,0.48-2,0.5c-1.56,0.06-2.87-0.81-4.31-1.23c-1.91-0.57-3.14,0.37-4.9,0.74
		c-3.82,0.8-7.47-2.04-11.24-1.81c-2.21,0.13-2.96,2.11-4.76,2.9c-0.59,0.26-1.18,0.38-1.77,0.39v-9.56
		c1.41-0.33,2.61-1.05,4.21-1.24c1.63-0.19,2.36,0.89,3.83,1.27c2.37,0.62,3.93-1.58,6.05-1.9c0.96-0.14,1.7,0.23,2.57,0.55
		c1.34,0.5,2.43,1.08,3.94,0.77c0.89-0.19,1.59-0.78,2.42-1.06c1.21-0.4,1.89-0.35,3.04,0.09c1.92,0.74,3.22,1.57,5.36,1.68
		c2.04,0.1,4.09-0.21,6.1-0.55c1.68-0.29,3.41-0.74,5.13-0.81c1.91-0.08,3.75,0.59,5.64,0.34c3.29-0.44,5.83-2.33,9.29-1.5
		c1.7,0.41,3.25,1.27,4.93,1.76c1.81,0.51,3.61,0.47,5.45,0.29c1.21-0.4,2.39-0.86,3.65-1.12c1.41-0.29,2.53,0.06,3.65,0.53
		c0.81,0.04,1.62,0.16,2.44,0.37c1.72-0.53,3.27-0.33,5.03,0.07c2.81,0.63,4.92,0.88,7.57-0.34c1.21-0.55,2.32-1.07,3.69-0.88
		c1.84,0.24,2.8,1.75,4.4,2.44c3.83,1.67,8.28-2.33,12.49-1.4c2.22,0.49,3.96,1.37,6.32,1.21c2.49-0.16,5.12-0.75,7.54-1.34
		c1.84-0.45,3.97-1.72,5.91-1.65c1.9,0.07,3.53,1.48,5.33,1.93c3.01,0.75,4.11-1.16,6.71-1.57c1.52-0.24,2.86,0.29,4.2,0.96
		c2.59,1.31,3.97,1.59,6.89,1.05C154.3,11.62,155.38,11.35,156.42,11.3z"/>
	<path class="st3" d="M156.42,10.57c0,0.82,0,1.63,0,2.45c-0.75-0.31-2.05-0.01-3.68,0.09c-0.83,0.05-1.53,0.23-2.08,0.41
		c0,0,0,0-0.01,0c-0.1,0.04-0.21,0.07-0.32,0.1c-1,0.28-1.72,0.2-2.48-0.09c-0.39-0.15-0.78-0.36-1.24-0.6
		c-1.16-0.64-2.33-1.47-3.65-1.76c-0.7-0.31-1.43-0.33-2.21-0.07c-0.16,0.32-0.36,0.62-0.58,0.89c-1.03,0.78-1.54,1.37-2.89,0.96
		c-0.18,0.13-0.4,0.21-0.69,0.22c-1.49,0.04-2.55-0.42-3.78-1.26c-0.72-0.5-1.81-1.64-2.7-1.72c-0.98-0.09-2,1.08-2.75,1.51
		c-2.88,1.62-6.74,1.16-9.92,1.3c-1.88,0.09-3.82,0.29-5.69,0.04c-2.05-0.28-3.82-1.43-5.92-0.8c-1.08,0.32-2.06,0.89-3.04,1.38
		c-0.01,0-0.01,0-0.01,0c-1.23,0.62-2.48,1.13-3.97,0.94c-0.89-0.11-1.64-0.47-2.32-0.93c-2.02-1.32-3.46-3.39-6.38-1.97
		c-1.22,0.59-2.37,1.3-3.76,1.38c-1.85,0.11-3.57-0.78-5.41-0.71c-1.49,0.06-2.83,0.36-4.33,0.07c-1.76-0.33-3.47-1.21-5.26-1.29
		c-2.16-0.1-3.38,1.39-5.3,1.92c-1.5,0.42-2.97,0.21-4.4-0.33c-0.07-0.03-0.15-0.07-0.21-0.11l-5.52-1.95
		c-2.1-0.75-3.34,0.06-5.21,0.91c-2.51,1.15-4.77,0.73-7.36,0.23c-2.26-0.43-3.51,0.66-5.55,1.2c-1.44,0.38-3.01,0.4-4.48,0.43
		c-2.59,0.07-5.29-0.01-7.69-1.08c-1.38-0.62-1.75-1.49-2.99-0.96c-0.87,0.37-1.17,1.07-2.24,1.26c-2.98,0.52-5.38-2.52-8.3-1.19
		c-1.93,0.88-3.19,2.62-5.52,1.73c-1.19-0.45-1.02-0.77-2.42-0.82c-1.08-0.04-1.42,0.2-2.4,0.44c-0.74,0.19-1.45,0.23-2.16,0.2
		v-2.47C1.24,10.51,2.13,9.7,3.8,9.49c1.18-0.15,1.67,0.35,2.69,0.77c2.96,1.21,4-1.58,6.86-1.76c1.16-0.07,2.18,0.34,3.23,0.77
		c0.85,0.34,1.96,1.07,2.9,0.99c0.87-0.08,1.49-1.02,2.18-1.41c1.94-1.1,2.65,0.03,4.36,0.98c2.89,1.59,7.95,1.68,11.12,0.81
		c1.27-0.35,2.3-1.17,3.6-1.42c1.5-0.29,2.8,0.17,4.25,0.47c2.04,0.42,3.85,0.22,5.67-0.89c1.04-0.63,1.75-1.34,3.03-1.33
		c2.74,0.02,6.1,1.97,8.67,2.87c0.06,0.02,0.12,0.06,0.17,0.09c3.38,1.11,5.81-2.14,9.32-1.73c1.87,0.21,3.58,1.08,5.43,1.36
		c1.84,0.28,3.6-0.4,5.44-0.13c2.22,0.32,3.61,0.9,5.8-0.17c1.06-0.51,2.11-1.16,3.32-1.26c2.95-0.23,3.99,2.32,6.4,3.31
		c2.9,1.19,5.68-2.03,8.6-2.29c1.58-0.14,2.87,0.57,4.36,0.93c2.03,0.48,4.22,0.2,6.28,0.11c1.99-0.09,4.08-0.01,6.05-0.28
		c2.38-0.33,3.06-1.75,4.99-2.4c3.36-1.13,5.05,2.93,8.12,2.84c0.02,0,0.05,0.01,0.07,0.01c0.26-0.25,0.63-0.36,1.08-0.19
		c0.18,0.06,2.27-2.14,3.03-2.27c1.56-0.27,3.58,0.77,4.93,1.39c1.88,0.87,2.55,1.64,3.9,1.53c0.95-0.08,0.85-0.45,1.89-0.52
		c1.24-0.08,1.81,0.42,3.68,0.61C155.71,11.33,156.14,10.57,156.42,10.57z"/>
	<path class="st3" d="M156.42,90.77v2.51c-1.65-0.16-3.39-0.25-5.04-0.38c-2.17-0.18-3.44,0.94-5.43,1.42
		c-4.28,1.02-7.33-3.53-11.62-1.49c-3.13,1.49-4.63,0.85-7.87,0.01c-2.87-0.75-5.43,2.14-8.13,0.77c-0.18,0.05-0.38,0.07-0.6,0.02
		c-2.41-0.48-4.74-2.45-7.18-2.51c-2.55-0.06-4.38,2.44-6.84,2.85c-1.81,0.3-3.44-0.36-5.04-1.09c-1.37-0.63-2.73-1.53-4.31-1.54
		c-1.4-0.01-2.7,0.75-3.96,1.24c-1.95,0.75-3.74,1.08-5.83,0.76c-1.5-0.23-2.81-0.86-4.25-1.24c-1.97-0.51-2.81-0.4-4.4,0.58
		c-1.6,0.99-3.16,1.1-4.99,0.73c-1.75-0.36-3.41-1.37-5.28-0.91c-1.3,0.32-2.43,1.27-3.47,2.07c-0.46,0.36-0.92,0.29-1.25,0.01
		c-2.65,0.4-4.56-0.93-6.62-2.6c-2.03-1.64-4.34-2.68-6.36-0.59c-0.75,0.78-1.37,1.68-2.29,2.29c-2.13,1.4-4.58,0.89-6.78-0.07
		c-2-0.88-3.81-2.25-6.08-1.74c-1.32,0.29-2.36,1.27-3.75,1.36c-1.34,0.09-2.44-0.8-3.79-0.66c-1.29,0.14-2.29,0.86-3.66,0.75
		c-2.84-0.24-5.71-3.24-8.53-1.86c-2.49,1.21-3.42,2.74-6.35,1.75C6.1,93,5.49,92.58,4.85,92.49c-1.24-0.16-2.6,0.62-3.84,0.77
		c-0.49,0.06-0.97,0.07-1.43,0.02v-2.53c1.53,0.09,2.71-0.58,4.34-0.72c1.16-0.1,1.99,0.37,3.07,0.65c2.25,0.56,3.04-0.34,4.83-1.35
		c0.22-0.13,0.45-0.24,0.68-0.34h0.01c0.69-0.29,1.41-0.44,2.17-0.42c0.67,0.02,1.32,0.17,1.95,0.39c0,0,0,0,0.01,0
		c2.06,0.73,3.96,2.17,6.18,1.86c1.16-0.17,2.13-0.88,3.35-0.78c1.6,0.13,2.4,0.86,4.05,0.15c2.47-1.06,4.13-1.3,6.72-0.25
		c1.57,0.64,3.25,1.96,4.97,2.03c2.03,0.09,3.03-0.99,4.3-2.35c0.23-0.25,0.47-0.48,0.72-0.7c1.25-1.12,2.7-1.79,4.5-1.42
		c0.98,0.2,1.88,0.75,2.76,1.42c0,0,0,0,0.01,0c2.07,1.57,4.01,3.73,6.51,3.19c0.23-0.06,0.44-0.04,0.62,0.02
		c1.76-1.31,3.63-2.39,5.92-2.21c1.35,0.11,2.59,0.68,3.9,0.98c1.92,0.43,2.87-0.2,4.47-1.07c1.94-1.07,3.32-0.84,5.35-0.12
		c3.73,1.32,6.29,1.42,9.94-0.01c2.25-0.89,4.16-1.05,6.44-0.17c1.1,0.43,2.11,1.06,3.21,1.48c2.13,0.81,3.4,0.4,5.36-0.72
		c1.12-0.64,2.14-1.21,3.27-1.46c0.74-0.17,1.51-0.21,2.37-0.06c0.1,0.02,0.19,0.04,0.29,0.06c0.01,0,0.01,0,0.01,0
		c2.1,0.45,3.92,1.72,5.99,2.29c0.33-0.23,0.76-0.27,1.19,0.04c1.3,0.94,4.16-1.04,5.73-1.08c1.23-0.03,2.4,0.42,3.55,0.78
		c1.02,0.32,2.26,0.8,3.36,0.55c1.07-0.25,2.05-1.19,3.11-1.55c1-0.34,1.98-0.4,3.02-0.21c2.07,0.39,3.83,1.94,5.9,2.18
		c2.31,0.28,3.55-1.28,5.65-1.62c1.3-0.21,2.46,0.36,3.74,0.38C154.25,90.61,155.31,90.75,156.42,90.77z"/>
	<path class="st4" d="M7.85,34.61c-3.87,0-3.87,6.01,0,6.01C11.72,40.62,11.72,34.61,7.85,34.61z"/>
	<path class="st4" d="M8.77,29.05c-2.74,0-2.75,4.26,0,4.26C11.51,33.31,11.52,29.05,8.77,29.05z"/>
	<path class="st4" d="M24.39,28.62c-3.7,0-3.7,5.74,0,5.74C28.09,34.36,28.1,28.62,24.39,28.62z"/>
	<path class="st4" d="M28.07,47.77c-3.88,0-3.89,6.03,0,6.03C31.95,53.8,31.96,47.77,28.07,47.77z"/>
	<path class="st4" d="M17.04,64.6c-4.3,0-4.3,6.68,0,6.68C21.34,71.28,21.35,64.6,17.04,64.6z"/>
	<path class="st4" d="M9.69,45.78c-3.68,0-3.69,5.72,0,5.72C13.37,51.5,13.38,45.78,9.69,45.78z"/>
	<path class="st4" d="M6.32,68.18c-2.85,0-2.85,4.43,0,4.43C9.17,72.61,9.18,68.18,6.32,68.18z"/>
	<path class="st4" d="M5.71,80.82c-3.93,0-3.93,6.1,0,6.1C9.64,86.92,9.64,80.82,5.71,80.82z"/>
	<path class="st4" d="M24.39,77c-4.11,0-4.12,6.39,0,6.39C28.51,83.39,28.51,77,24.39,77z"/>
	<path class="st4" d="M36.77,74.08c-0.19-0.51-0.64-0.9-1.34-0.9c-0.7,0-1.15,0.4-1.34,0.9c-2.5,1.21-2.06,5.79,1.34,5.79
		C38.82,79.86,39.27,75.29,36.77,74.08z"/>
	<path class="st4" d="M44.92,61.57c-3.46,0-3.47,5.38,0,5.38C48.38,66.96,48.39,61.57,44.92,61.57z"/>
	<path class="st4" d="M42.16,35.04c-3.71,0-3.72,5.77,0,5.77C45.87,40.81,45.88,35.04,42.16,35.04z"/>
	<path class="st4" d="M49.82,32.8c-3.83,0-3.84,5.96,0,5.96C53.65,38.76,53.66,32.8,49.82,32.8z"/>
	<path class="st4" d="M63.6,31.41c-4.05,0-4.06,6.29,0,6.29C67.65,37.7,67.66,31.41,63.6,31.41z"/>
	<path class="st4" d="M75.86,28.77c-3.9,0-3.9,6.05,0,6.05C79.75,34.82,79.76,28.77,75.86,28.77z"/>
	<path class="st4" d="M66.67,25.62c-3.62,0-3.62,5.62,0,5.62C70.28,31.24,70.29,25.62,66.67,25.62z"/>
	<path class="st4" d="M54.41,25.68c-3.93,0-3.93,6.1,0,6.1C58.34,31.78,58.35,25.68,54.41,25.68z"/>
	<path class="st4" d="M63.6,56.45c-4.14,0-4.15,6.44,0,6.44C67.75,62.89,67.75,56.45,63.6,56.45z"/>
	<path class="st4" d="M55.64,70.96c-3.6,0-3.61,5.6,0,5.6C59.24,76.56,59.25,70.96,55.64,70.96z"/>
	<path class="st4" d="M74.02,66.55c-4.16,0-4.16,6.46,0,6.46C78.18,73.01,78.18,66.55,74.02,66.55z"/>
	<path class="st4" d="M58.7,43.11c-2.79,0-2.79,4.33,0,4.33C61.49,47.44,61.49,43.11,58.7,43.11z"/>
	<path class="st4" d="M89.33,36.76c-4.65,0-4.66,7.23,0,7.23C93.98,43.99,93.99,36.76,89.33,36.76z"/>
	<path class="st4" d="M85.35,62.93c-3.3,0-3.3,5.12,0,5.12C88.65,68.05,88.65,62.93,85.35,62.93z"/>
	<path class="st4" d="M95.46,69.55c-2.66,0-2.67,4.14,0,4.14C98.12,73.69,98.13,69.55,95.46,69.55z"/>
	<path class="st4" d="M112.92,74.99c-1.32,0-1.75,1.38-1.3,2.28c-1.72,0.08-1.7,2.79,0.08,2.79c1.17,0,1.58-1.18,1.22-2.01
		c0,0,0,0,0,0C114.89,78.05,114.89,74.99,112.92,74.99z"/>
	<path class="st4" d="M111.69,53.23c-3.96,0-3.96,6.15,0,6.15C115.65,59.38,115.66,53.23,111.69,53.23z"/>
	<path class="st4" d="M115.06,37.56c1.1-1.96,0.19-5.09-2.75-5.09c-4.27,0-4.27,6.63,0,6.63c0.44,0,0.84-0.07,1.19-0.2
		c0.02,0.64,0.44,1.26,1.27,1.26C116.34,40.16,116.44,37.85,115.06,37.56z"/>
	<path class="st4" d="M116.9,22.43c-2.2,0-2.21,3.42,0,3.42C119.1,25.85,119.11,22.43,116.9,22.43z"/>
	<path class="st4" d="M123.64,31.49c-1.97,0-1.97,3.06,0,3.06C125.61,34.55,125.62,31.49,123.64,31.49z"/>
	<path class="st4" d="M134.98,32.99c-3.99,0-3.99,6.2,0,6.2C138.96,39.18,138.97,32.99,134.98,32.99z"/>
	<path class="st4" d="M97.3,24.87c-4.19,0-4.2,6.51,0,6.51C101.49,31.38,101.49,24.87,97.3,24.87z"/>
	<path class="st4" d="M136.81,49.75c-4.5,0-4.5,6.99,0,6.99C141.31,56.73,141.32,49.75,136.81,49.75z"/>
	<path class="st4" d="M126.4,65.33c-3.76,0-3.76,5.84,0,5.84C130.16,71.17,130.16,65.33,126.4,65.33z"/>
	<path class="st4" d="M137.85,77.58c0.77-0.82,0.43-2.55-1.03-2.55c-1.02,0-1.49,0.85-1.42,1.63c-3.96,0.21-3.9,6.45,0.2,6.45
		C138.76,83.12,139.51,79.37,137.85,77.58z"/>
	<path class="st4" d="M149.14,69.41c1-0.6,0.78-2.51-0.69-2.51c-1.6,0-1.72,2.28-0.38,2.64c-3.39,0.95-3.07,6.73,0.99,6.73
		C153.46,76.28,153.49,69.49,149.14,69.41z"/>
	<path class="st4" d="M154.27,54.4c-0.08,0-0.15,0.01-0.23,0.02c0.45-1.92-0.59-4.24-3.14-4.24c-4.33,0-4.33,6.72,0,6.72
		c0.93,0,1.66-0.31,2.19-0.8c0.14,0.48,0.53,0.87,1.18,0.87C155.93,56.97,155.93,54.4,154.27,54.4z"/>
	<path class="st4" d="M145.7,34.76c-3.28,0-3.29,5.1,0,5.1C148.98,39.86,148.98,34.76,145.7,34.76z"/>
	<path class="st4" d="M146.31,22.1c-3.8,0-3.81,5.91,0,5.91C150.11,28.01,150.12,22.1,146.31,22.1z"/>
	<path class="st5" d="M11.84,24.78c-2.73,0-2.73,4.24,0,4.24C14.56,29.01,14.57,24.78,11.84,24.78z"/>
	<path class="st5" d="M6.32,23.61c-3.05,0-3.05,4.74,0,4.74C9.37,28.35,9.38,23.61,6.32,23.61z"/>
	<path class="st5" d="M6.63,48.87c-4.05,0-4.06,6.29,0,6.29C10.68,55.16,10.68,48.87,6.63,48.87z"/>
	<path class="st5" d="M6.93,64.57H6.32c-0.8,0-1.57,0.7-1.53,1.53c0.04,0.83,0.67,1.53,1.53,1.53h0.61c0.8,0,1.57-0.7,1.53-1.53
		C8.43,65.27,7.79,64.57,6.93,64.57z"/>
	<path class="st5" d="M18.27,58.16c-3.91,0-3.92,6.08,0,6.08C22.18,64.24,22.19,58.16,18.27,58.16z"/>
	<path class="st5" d="M26.23,45.81c-2.46,0-2.47,3.83,0,3.83C28.7,49.64,28.7,45.81,26.23,45.81z"/>
	<path class="st5" d="M34.2,59.37c-1.97,0-1.97,3.06,0,3.06C36.17,62.43,36.17,59.37,34.2,59.37z"/>
	<path class="st5" d="M32.36,24.71c-4.39,0-4.4,6.82,0,6.82C36.75,31.53,36.75,24.71,32.36,24.71z"/>
	<path class="st5" d="M49.51,40.93c-4.02,0-4.03,6.25,0,6.25C53.53,47.17,53.54,40.93,49.51,40.93z"/>
	<path class="st5" d="M44.31,67.64c-1.97,0-1.97,3.06,0,3.06C46.28,70.7,46.28,67.64,44.31,67.64z"/>
	<path class="st5" d="M25.93,77.99c-3.23,0-3.24,5.03,0,5.03C29.16,83.01,29.16,77.99,25.93,77.99z"/>
	<path class="st5" d="M59.27,73.5c-0.06-0.05-0.11-0.09-0.17-0.14c-0.38-0.3-0.74-0.55-1.2-0.7c-0.58-0.19-1.23-0.09-1.78,0.14
		c-0.96,0.4-1.73,1.41-1.68,2.49c0.04,0.95,0.51,1.86,1.35,2.36c0.53,0.31,1.14,0.4,1.74,0.32c0.25,0,0.48-0.06,0.69-0.19
		c0.34-0.11,0.63-0.3,0.88-0.56c0.06-0.05,0.11-0.09,0.17-0.14c0.46-0.36,0.77-1.23,0.74-1.79C59.99,74.67,59.79,73.91,59.27,73.5z"
		/>
	<path class="st5" d="M72.18,67.66c-3.91,0-3.92,6.08,0,6.08C76.09,73.74,76.1,67.66,72.18,67.66z"/>
	<path class="st5" d="M65.13,48.89c-4.02,0-4.03,6.25,0,6.25C69.15,55.14,69.16,48.89,65.13,48.89z"/>
	<path class="st5" d="M81.68,44.15c-3.82,0-3.83,5.93,0,5.93C85.49,50.08,85.5,44.15,81.68,44.15z"/>
	<path class="st5" d="M82.9,56.3c-1.97,0-1.97,3.06,0,3.06C84.87,59.37,84.88,56.3,82.9,56.3z"/>
	<path class="st5" d="M99.62,58.36c0.75-0.15,1.37-1,1.34-1.75c-0.03-0.59-0.34-1.22-0.85-1.55c-0.2-0.47-0.62-0.83-1.28-0.83
		c-0.78,0-1.23,0.5-1.36,1.09c-0.32,0.36-0.52,0.8-0.52,1.29c0,0.23,0.05,0.46,0.13,0.67c-0.22-0.04-0.46-0.07-0.71-0.07
		c-4.34,0-4.35,6.75,0,6.75c3.15,0,4.02-3.55,2.59-5.5c0.12-0.01,0.24-0.02,0.36-0.04C99.43,58.4,99.52,58.38,99.62,58.36z"/>
	<path class="st5" d="M104.34,46.81c-1.97,0-1.97,3.06,0,3.06C106.31,49.87,106.32,46.81,104.34,46.81z"/>
	<path class="st5" d="M85.66,27.52c-1.37,0-2.26,0.74-2.67,1.7c-0.22-0.45-0.65-0.8-1.31-0.8c-1.97,0-1.97,3.06,0,3.06
		c0.47,0,0.82-0.18,1.07-0.44c0.18,1.35,1.15,2.57,2.91,2.57C89.58,33.62,89.59,27.52,85.66,27.52z"/>
	<path class="st5" d="M87.5,65.71c-4.05,0-4.06,6.29,0,6.29C91.55,72.01,91.55,65.71,87.5,65.71z"/>
	<path class="st5" d="M93.32,77.2c-3.85,0-3.86,5.98,0,5.98C97.17,83.19,97.17,77.2,93.32,77.2z"/>
	<path class="st5" d="M116.29,74.72c-3.9,0-3.9,6.05,0,6.05C120.19,80.77,120.19,74.72,116.29,74.72z"/>
	<path class="st5" d="M121.8,70.1c-0.45,0-0.84,0.08-1.19,0.22c0.3-0.83-0.12-1.95-1.26-1.95c-1.81,0-1.81,2.81,0,2.81
		c0.05,0,0.1-0.01,0.15-0.01c-1.34,1.75-0.58,5.03,2.3,5.03C125.73,76.2,125.74,70.1,121.8,70.1z"/>
	<path class="st5" d="M118.43,54.41c-3.22,0-3.22,5,0,5C121.65,59.42,121.66,54.41,118.43,54.41z"/>
	<path class="st5" d="M129.77,45.27c-4.34,0-4.35,6.75,0,6.75C134.11,52.02,134.12,45.27,129.77,45.27z"/>
	<path class="st5" d="M124.32,32.42c0.49-1.76-0.45-3.98-2.82-3.98c-2.63,0-3.5,2.74-2.61,4.54c-1.16,2.07-0.19,5.38,2.91,5.38
		C125.2,38.37,126.04,34.38,124.32,32.42z"/>
	<path class="st5" d="M140.8,43.07c-4.42,0-4.43,6.87,0,6.87c0.31,0,0.6-0.04,0.86-0.1c-0.02,0.2,0.1,0.42,0.36,0.42
		c0.37,0,0.46-0.42,0.28-0.64C145.14,48.26,144.64,43.07,140.8,43.07z"/>
	<path class="st5" d="M145.39,28.69c-1.28,0-2.15,0.64-2.61,1.51c-0.03-0.69-0.48-1.35-1.37-1.35c-1.83,0-1.83,2.84,0,2.84
		c0.45,0,0.79-0.17,1.02-0.44c-0.26,1.71,0.72,3.66,2.96,3.66C149.39,34.91,149.4,28.69,145.39,28.69z"/>
	<path class="st5" d="M143.25,64.8c-2.46,0-2.47,3.83,0,3.83C145.71,68.63,145.71,64.8,143.25,64.8z"/>
	<path class="st5" d="M140.8,72.82c-3.19,0-3.19,4.95,0,4.95C143.98,77.77,143.99,72.82,140.8,72.82z"/>
	<path class="st5" d="M145.39,54.48c-3.53,0-3.53,5.48,0,5.48C148.92,59.96,148.92,54.48,145.39,54.48z"/>
	<path class="st5" d="M153.66,30.07c-2.22,0-2.22,3.45,0,3.45C155.88,33.52,155.88,30.07,153.66,30.07z"/>
	<path class="st5" d="M1.73,29.27c-1.28,0-1.28,1.98,0,1.98C3,31.26,3,29.27,1.73,29.27z"/>
	<path class="st5" d="M5.1,33.91c-0.04,0-0.04,0.06,0,0.06C5.14,33.97,5.14,33.91,5.1,33.91z"/>
	<path class="st5" d="M2.65,47.08c-0.04,0-0.04,0.06,0,0.06C2.69,47.14,2.69,47.08,2.65,47.08z"/>
	<path class="st5" d="M1.73,51.98c-0.04,0-0.04,0.06,0,0.06C1.77,52.04,1.77,51.98,1.73,51.98z"/>
	<path class="st5" d="M0.5,51.06c-0.04,0-0.04,0.06,0,0.06C0.54,51.13,0.54,51.06,0.5,51.06z"/>
	<path class="st5" d="M0.81,67.91c-0.04,0-0.04,0.06,0,0.06C0.85,67.97,0.85,67.91,0.81,67.91z"/>
	<path class="st5" d="M9.69,66.99c-0.04,0-0.04,0.06,0,0.06C9.73,67.05,9.73,66.99,9.69,66.99z"/>
	<path class="st5" d="M12.75,64.24c-0.04,0-0.04,0.06,0,0.06C12.79,64.3,12.79,64.24,12.75,64.24z"/>
	<path class="st5" d="M14.9,55.66c-0.04,0-0.04,0.06,0,0.06C14.94,55.72,14.94,55.66,14.9,55.66z"/>
	<path class="st5" d="M4.18,57.26c-0.74,0-0.74,1.15,0,1.15C4.92,58.41,4.92,57.26,4.18,57.26z"/>
	<path class="st5" d="M3.83,59.22c0.03-0.61-0.69-1.24-1.3-0.99c-0.12,0.05-0.23,0.1-0.33,0.16c-0.04,0.01-0.12,0.05-0.27,0.12
		c-0.22,0.14-0.37,0.33-0.53,0.53c-0.49,0.58-0.51,1.4,0.13,1.9c0.6,0.46,1.47,0.3,1.87-0.36c0.07-0.12,0.16-0.25,0.23-0.38
		c0.1-0.2,0.14-0.37,0.15-0.56C3.79,59.51,3.82,59.37,3.83,59.22z"/>
	<path class="st5" d="M10.61,57.3c-1.47,0-1.47,2.28,0,2.28C12.08,59.59,12.08,57.3,10.61,57.3z"/>
	<path class="st5" d="M25.62,60.51c-0.71-0.04-1.43,0.04-2.14,0.08c-0.79,0.05-1.4,0.75-1.18,1.55c0.21,0.78,1.11,1.11,1.8,0.73
		c0.63-0.34,1.28-0.66,1.88-1.07C26.54,61.41,26.33,60.54,25.62,60.51z"/>
	<path class="st5" d="M28.68,55.97c-0.04,0-0.04,0.06,0,0.06C28.72,56.03,28.72,55.97,28.68,55.97z"/>
	<path class="st5" d="M32.97,49.84c-0.04,0-0.04,0.06,0,0.06C33.01,49.9,33.01,49.84,32.97,49.84z"/>
	<path class="st5" d="M39.71,55.97c-0.04,0-0.04,0.06,0,0.06C39.75,56.03,39.75,55.97,39.71,55.97z"/>
	<path class="st5" d="M45.84,58.72c-0.04,0-0.04,0.06,0,0.06C45.88,58.78,45.88,58.72,45.84,58.72z"/>
	<path class="st5" d="M50.43,58.38c-0.87,0-0.87,1.35,0,1.35C51.3,59.73,51.3,58.38,50.43,58.38z"/>
	<path class="st5" d="M37.71,46.66c-0.13-0.06-0.25-0.12-0.38-0.18c-0.68-0.33-1.34,0.33-1.01,1.01c0.06,0.13,0.12,0.25,0.18,0.38
		c0.25,0.52,1.01,0.56,1.39,0.18C38.26,47.67,38.22,46.91,37.71,46.66z"/>
	<path class="st5" d="M31.77,41.01c-0.22,0.19-0.45,0.37-0.67,0.56c-0.48,0.4,0.28,1.16,0.68,0.68c0.19-0.22,0.37-0.45,0.56-0.67
		C32.67,41.18,32.17,40.68,31.77,41.01z"/>
	<path class="st5" d="M54.72,67.03c-1.96,0-1.96,3.04,0,3.04C56.68,70.08,56.68,67.03,54.72,67.03z"/>
	<path class="st5" d="M61.77,70.86c-2.16,0-2.17,3.36,0,3.36C63.93,74.22,63.93,70.86,61.77,70.86z"/>
	<path class="st5" d="M70.34,75.59c-1.2,0-1.2,1.87,0,1.87C71.54,77.45,71.55,75.59,70.34,75.59z"/>
	<path class="st5" d="M69.12,80.91c-1.45,0-1.45,2.25,0,2.25C70.57,83.16,70.57,80.91,69.12,80.91z"/>
	<path class="st5" d="M65.13,79.56c-2,0-2.01,3.12,0,3.12C67.14,82.67,67.14,79.56,65.13,79.56z"/>
	<path class="st5" d="M58.09,78.42c-1.88,0-1.89,2.93,0,2.93C59.97,81.35,59.98,78.42,58.09,78.42z"/>
	<path class="st5" d="M67.89,63.86c-1.7,0-1.7,2.64,0,2.64C69.59,66.51,69.59,63.86,67.89,63.86z"/>
	<path class="st5" d="M78,49.72c-0.59,0-0.59,0.92,0,0.92C78.59,50.64,78.59,49.72,78,49.72z"/>
	<path class="st5" d="M78.92,40.59c-1.69,0-1.69,2.63,0,2.63C80.61,43.22,80.61,40.59,78.92,40.59z"/>
	<path class="st5" d="M68.2,42.88c-1.9,0-1.91,2.96,0,2.96C70.1,45.83,70.1,42.88,68.2,42.88z"/>
	<path class="st5" d="M87.5,47.49c-1.88,0-1.89,2.93,0,2.93C89.38,50.42,89.38,47.49,87.5,47.49z"/>
	<path class="st5" d="M104.34,53.74c-2.12,0-2.12,3.29,0,3.29C106.46,57.03,106.46,53.74,104.34,53.74z"/>
	<path class="st5" d="M107.71,37.92c-1.58,0-1.58,2.46,0,2.46C109.29,40.38,109.3,37.92,107.71,37.92z"/>
	<path class="st5" d="M103.12,30.3c-1.92,0-1.92,2.99,0,2.99C105.04,33.29,105.04,30.3,103.12,30.3z"/>
	<path class="st5" d="M111.08,32.17c-1.88,0-1.89,2.93,0,2.93C112.97,35.1,112.97,32.17,111.08,32.17z"/>
	<path class="st5" d="M115.68,44.33c-0.04,0-0.04,0.06,0,0.06C115.72,44.39,115.72,44.33,115.68,44.33z"/>
	<path class="st5" d="M119.05,62.7c-0.04,0-0.04,0.06,0,0.06C119.09,62.77,119.09,62.7,119.05,62.7z"/>
	<path class="st5" d="M105.26,69.28c-1.82,0-1.82,2.83,0,2.83C107.08,72.11,107.09,69.28,105.26,69.28z"/>
	<path class="st5" d="M114.45,68.9c-1.52,0-1.53,2.37,0,2.37C115.98,71.27,115.98,68.9,114.45,68.9z"/>
	<path class="st5" d="M129.77,69.94c-0.98,0-0.98,1.52,0,1.52C130.75,71.46,130.75,69.94,129.77,69.94z"/>
	<path class="st5" d="M140.19,67.35c-0.02-0.31-0.16-0.64-0.45-0.79c-0.38-0.19-0.74-0.22-1.13-0.07c-0.05,0.02-0.1,0.04-0.15,0.06
		c-0.04,0-0.07-0.01-0.11-0.01c-1.8,0-1.8,2.8,0,2.8c0.64,0,1.05-0.35,1.23-0.81C139.91,68.21,140.22,67.85,140.19,67.35z"/>
	<path class="st5" d="M131.91,58.43c-2,0-2,3.1,0,3.1C133.91,61.53,133.91,58.43,131.91,58.43z"/>
	<path class="st5" d="M134.98,60.83c-2.06,0-2.06,3.2,0,3.2C137.04,64.03,137.04,60.83,134.98,60.83z"/>
	<path class="st5" d="M141.47,33.02c0-0.07-0.11-0.07-0.11,0c0,0.2-0.01,0.41-0.01,0.61c0,0.09,0.15,0.09,0.14,0
		C141.47,33.43,141.47,33.23,141.47,33.02z"/>
	<path class="st5" d="M134.06,29.97c-1.17,0-1.18,1.82,0,1.82C135.23,31.79,135.23,29.97,134.06,29.97z"/>
	<path class="st5" d="M130.69,26.74c-1.38,0-1.38,2.14,0,2.14C132.06,28.88,132.07,26.74,130.69,26.74z"/>
	<path class="st5" d="M149.68,37.51c-1.71,0-1.71,2.66,0,2.66C151.39,40.17,151.39,37.51,149.68,37.51z"/>
	<path class="st5" d="M150.6,46.16c-2.01,0-2.02,3.13,0,3.13C152.61,49.29,152.61,46.16,150.6,46.16z"/>
	<path class="st5" d="M154.89,47.49c-1.09,0-1.09,1.69,0,1.69C155.98,49.19,155.98,47.49,154.89,47.49z"/>
	<path class="st5" d="M154.58,62.09c-0.04,0-0.04,0.06,0,0.06C154.62,62.15,154.62,62.09,154.58,62.09z"/>
	<path class="st5" d="M152.84,72.54c-0.01-0.13-0.19-0.13-0.2,0c-0.01,0.1-0.01,0.2-0.02,0.31c-0.01,0.16,0.26,0.16,0.24,0
		C152.86,72.74,152.85,72.64,152.84,72.54z"/>
	<path class="st5" d="M149.33,75.91c-0.03-0.34-0.5-0.34-0.53,0c-0.02,0.2-0.03,0.41-0.05,0.61c-0.03,0.41,0.67,0.41,0.63,0
		C149.36,76.31,149.35,76.11,149.33,75.91z"/>
	<path class="st5" d="M149.68,73.73c-0.04,0-0.04,0.06,0,0.06C149.72,73.79,149.72,73.73,149.68,73.73z"/>
	<path class="st5" d="M151.21,74.06c-0.65,0-1.26,0.57-1.23,1.23c0.03,0.67,0.54,1.23,1.23,1.23c0.65,0,1.26-0.57,1.23-1.23
		C152.41,74.62,151.9,74.06,151.21,74.06z"/>
	<path class="st5" d="M152,78.94c-0.12-0.23-0.24-0.46-0.37-0.68c-0.26-0.45-0.74-0.75-1.27-0.6c-0.53,0.14-0.78,0.65-0.79,1.16
		c0,0.26,0.01,0.52,0.02,0.78c0.03,0.83,0.81,1.47,1.64,1.25C152.05,80.61,152.39,79.67,152,78.94z"/>
	<path class="st5" d="M46.45,26.44c-0.56,0-1.1,0.49-1.07,1.07c0.03,0.58,0.47,1.07,1.07,1.07c0.56,0,1.1-0.49,1.07-1.07
		C47.49,26.93,47.05,26.44,46.45,26.44z"/>
	<circle class="st4" cx="21.02" cy="33.63" r="0.88"/>
	<path class="st4" d="M16.43,35.57c-1.85,0-1.85,2.87,0,2.87C18.28,38.44,18.28,35.57,16.43,35.57z"/>
	<path class="st4" d="M18.87,25.11c-0.76-0.21-1.51,0.38-1.53,1.16c-0.01,0.47-0.08,0.94,0.18,1.34c0.05,0.11,0.11,0.21,0.2,0.3
		c0.17,0.19,0.49,0.27,0.73,0.19c0.12-0.04,0.22-0.09,0.32-0.16c0.42-0.21,0.6-0.66,0.82-1.07C19.97,26.21,19.63,25.32,18.87,25.11z
		"/>
	<path class="st4" d="M24.7,53.54c-1.98,0-1.98,3.07,0,3.07C26.68,56.61,26.68,53.54,24.7,53.54z"/>
	<path class="st4" d="M19.19,74.64c-1.63,0-1.63,2.53,0,2.53C20.81,77.17,20.82,74.64,19.19,74.64z"/>
	<path class="st4" d="M51.04,77.08c-1.64,0-1.65,2.56,0,2.56C52.69,79.64,52.69,77.08,51.04,77.08z"/>
	<path class="st4" d="M48.9,72.87c-1.54,0-1.55,2.4,0,2.4C50.44,75.27,50.45,72.87,48.9,72.87z"/>
	<path class="st4" d="M39.1,54.91c-1.79,0-1.8,2.79,0,2.79C40.89,57.7,40.89,54.91,39.1,54.91z"/>
	<path class="st4" d="M47.06,50.22c-1.91,0-1.92,2.97,0,2.97C48.97,53.19,48.98,50.22,47.06,50.22z"/>
	<path class="st4" d="M74.94,58.59c-1.78,0-1.79,2.77,0,2.77C76.72,61.36,76.72,58.59,74.94,58.59z"/>
	<path class="st4" d="M72.79,51.16c-1.88,0-1.89,2.93,0,2.93C74.68,54.09,74.68,51.16,72.79,51.16z"/>
	<path class="st4" d="M83.21,55.17c-1.85,0-1.85,2.87,0,2.87C85.06,58.04,85.06,55.17,83.21,55.17z"/>
	<path class="st4" d="M83.82,68.25c-1.57,0-1.57,2.44,0,2.44C85.39,70.69,85.39,68.25,83.82,68.25z"/>
	<path class="st4" d="M97.6,74.86c-1.75,0-1.75,2.71,0,2.71C99.35,77.57,99.35,74.86,97.6,74.86z"/>
	<path class="st4" d="M145.7,26.39c-1.84,0-1.84,2.86,0,2.86C147.53,29.24,147.54,26.39,145.7,26.39z"/>
	<path class="st4" d="M107.71,52.39c-1.49,0-1.49,2.31,0,2.31C109.2,54.7,109.2,52.39,107.71,52.39z"/>
	<path class="st4" d="M102.81,55.71c-1.95,0-1.95,3.03,0,3.03C104.76,58.74,104.76,55.71,102.81,55.71z"/>
	<path class="st4" d="M89.64,49.62c-1.9,0-1.91,2.96,0,2.96C91.54,52.57,91.55,49.62,89.64,49.62z"/>
	<path class="st4" d="M95.15,47.98c-1.64,0-1.65,2.56,0,2.56C96.8,50.53,96.8,47.98,95.15,47.98z"/>
	<path class="st4" d="M97.91,44.71c-1.91,0-1.92,2.97,0,2.97C99.82,47.68,99.83,44.71,97.91,44.71z"/>
</g>
</svg>
