<?xml version="1.0" encoding="utf-8"?>
<!-- Generator: Adobe Illustrator 25.2.3, SVG Export Plug-In . SVG Version: 6.00 Build 0)  -->
<svg version="1.1" id="Layer_1" xmlns="http://www.w3.org/2000/svg" xmlns:xlink="http://www.w3.org/1999/xlink" x="0px" y="0px"
	 viewBox="0 0 156 208" style="enable-background:new 0 0 156 208;" xml:space="preserve">
<style type="text/css">
	.st0{fill:#A08B82;}
	.st1{fill:#7F6F69;}
	.st2{fill:#826C6C;}
	.st3{fill:#493E3C;}
	.st4{fill:#99837C;}
	.st5{fill:#BFA399;}
</style>
<g>
	<path class="st0" d="M18.12-0.45l68.98,0c0.03,1.01,0.07,2.01,0.12,2.97c0.31,5.2,0.94,10.24,2.19,15.3
		c1.77,7.23,4.15,14.65,7.06,21.68c0.87,0.11,1.69,0.51,2.32,1.3c2.13,2.7,4.41,5.27,6.84,7.69c1.07,1.08,2.19,2.13,3.33,3.14
		c2.55,2.28,5.25,4.39,8.09,6.31c1.02,0.69,2.06,1.35,3.1,1.97c1.49,0.9,3,1.74,4.53,2.53c0.81,0.42,1.62,0.82,2.44,1.21
		c0.57,0.27,1.14,0.54,1.72,0.8c3.93,1.8,7.98,3.35,12.09,4.83c5.59,0.26,11.17,0.38,16.77,0.33v68.11
		c-1.19,0.09-2.37,0.14-3.44,0.33c-4.07,0.73-8.01,2.19-11.81,3.8c-6.86,2.92-13.59,6.35-20.88,7.99c-1.17,2.05-3.26,3.3-5.27,4.56
		c-1.01,0.63-2,1.29-2.97,1.98c-3.68,2.6-7.05,5.62-9.81,9.21c-3.69,4.81-6.56,10.31-9.46,15.61c-2.84,5.17-5.33,10.59-5.75,16.54
		c-0.06,0.91-0.33,1.65-0.74,2.27c-0.18,2.81-0.29,5.62-0.32,8.44H18.01c-0.09-0.29-0.15-0.59-0.23-0.88
		c0.2-0.24,0.34-0.56,0.34-0.96V-0.45z"/>
	<path class="st1" d="M157.7,134.94v9.71c-1.92-0.28-3.8-0.83-5.4,0.51c-1.21,1.01-1.47,1.21-2.82,0.88c-0.01,0-0.01-0.01-0.01-0.01
		c-0.15-0.04-0.32-0.08-0.51-0.13c-0.87-0.25-1.46-0.36-2.1-0.23c0,0-0.01,0-0.01,0c-0.32,0.07-0.64,0.19-1.04,0.38
		c-0.54,0.27-0.97,0.74-1.53,0.99c-1.05,0.48-2.16,0.55-3.3,0.51c-1.27-0.04-2.34-0.34-3.33-0.06c-0.01-0.01-0.01-0.01-0.01,0
		c-0.17,0.06-0.32,0.12-0.48,0.2c-0.02,0.01-0.04,0.02-0.06,0.02c-0.29,0.15-0.56,0.37-0.85,0.67c-0.77,0.81-1.08,2.31-1.98,2.98
		c-2.07,1.55-4.7-1.48-6.94-0.06c-0.08,0.06-0.16,0.12-0.24,0.18c-0.45,0.39-0.73,0.96-0.97,1.56c-0.29,0.7-0.54,1.45-0.99,2
		c-0.49,0.6-1.1,1.02-1.79,1.35c-0.03,0.02-0.07,0.03-0.1,0.05c-1.42,0.67-3.04,0.74-4.45,1.43c-1.21,0.6-2.45,1.3-3.63,1.97
		c-1.04,0.59-1.97,1.38-2.85,2.29c-0.73,0.74-1.42,1.56-2.09,2.38c-0.51,0.62-1.01,1.25-1.51,1.85c-0.01,0-0.01,0.01-0.01,0.01
		c-0.01,0.02-0.03,0.04-0.04,0.06c-0.04,0.1-0.09,0.2-0.13,0.3c-0.01,0.01-0.01,0.01-0.01,0.02c-0.77,1.55-1.86,2.65-3.05,3.98
		c-0.48,0.54-0.89,1.1-1.26,1.68c-1.1,1.75-1.84,3.66-3.03,5.42c-0.25,0.36-0.54,0.7-0.85,1.03c-0.01,0-0.01,0-0.01,0.01
		c-0.64,0.68-1.32,1.32-1.78,2.1c-0.82,1.39-0.78,3.02-0.97,4.56c-0.01,0.09-0.02,0.18-0.04,0.26c0,0.01,0,0.01,0,0.01
		c-0.22,1.55-0.7,2.87-1.42,4.21C96.09,190,96.09,190,96.09,190c-0.12,0.21-0.23,0.42-0.36,0.64c-0.59,1.03-1.3,2.05-1.62,3.2
		c-0.42,1.53-0.04,3.04-0.16,4.59c-0.09,1.16-0.46,2.22-0.68,3.34c-0.19,0.96-0.18,1.8-0.11,2.62c0,0.01,0,0.01,0,0.01
		c0.06,0.79,0.18,1.56,0.21,2.43c0.03,0.62,0.18,1.12-0.01,1.53c-0.01,0.03,0.02,0.06,0,0.09H85.4c-0.09-0.98-2.13-1.98-1.78-2.9
		c0.19-0.51,0.77-1.01,0.91-1.48c0.27-0.89-0.18-1.34-0.32-2.33c-0.12-0.86,0.04-1.79,0.58-2.49c0.4-0.5,1.37-0.75,1.51-1.34
		c0.11-0.44-0.46-1.35-0.52-1.8c-0.2-1.42,0.43-1.66,0.97-2.79c0.55-1.14-0.15-2.44,0.18-3.75c0.23-0.91,0.7-1.35,1.19-2.1
		c0.74-1.13,0.91-1.72,0.81-3.13c-0.09-1.39-0.09-2.46,0.76-3.68c1.37-1.95,3.23-1.23,3.3-4.22c0.04-1.79-0.89-3.09,0.04-4.83
		c1.56-2.93,5.65-2.63,6.55-6.08c0.39-1.5,0.24-2.92,1.53-4.03c0.34-0.29,0.76-0.41,1.12-0.65c1-0.23,1.69-0.89,2.08-1.98
		c0.04-0.31,0.08-0.61,0.12-0.92c0.28-0.58,0.59-1.1,0.94-1.57c0.07-0.1,0.15-0.19,0.23-0.28c1.1-1.34,2.56-2.07,4.52-1.78
		c0.21-0.09,0.46-0.13,0.74-0.07c1.02,0.19,3.28-2.55,3.68-3.24c0.5-0.85,0.64-1.87,1.23-2.66c0.79-1.07,1.93-1.62,3.22-1.82
		c1.38-0.21,2.6,0.42,3.85-0.59c0.47-0.38,0.77-1.07,1.18-1.53c0.88-1.02,1.76-1.7,3.14-1.75c0.75-0.02,1.54,0.47,2.22,0.41
		c1.63-0.14,1.5-1.21,2.38-2.16c1.07-1.15,2.54-1.68,4.09-1.65c2.41,0.03,4.83,2.11,7.04,0.27c1.42-1.17,1.8-2.85,3.55-3.75
		c0.36-0.19,0.88-0.26,1.24,0c2.83,2.09,3.77-0.7,6.19-1.51C155.13,133.84,156.42,134.82,157.7,134.94z"/>
	<path class="st1" d="M84.79-0.45h9.19C93.66,0.26,92.24,1.15,92,2.06c-0.01,0.02-0.02,0.06-0.02,0.09v0.01
		c-0.21,0.83-0.33,1.67-0.28,2.41c0.02,0.02,0.05,0.04,0.07,0.06c0.34,0.29,0.42,0.8,0.29,1.23c0.7,1.37,2.11,2.35,2.75,3.82
		c0.71,1.64,0.1,1.87-0.47,3.12c0,0,0,0,0,0.01c-0.02,0.07-0.06,0.14-0.09,0.21c-0.52,0.19-0.6,0.49-0.24,0.9
		c0.06,0.35,0.23,0.63,0.51,0.85c0.29,0.45,0.73,0.81,1,1.29c0.09,0.14,0.15,0.28,0.21,0.42c0.34,0.72,0.45,1.48,0.62,2.27
		c0.06,0.24,0.12,0.44,0.21,0.63c0.01,0.01,0.01,0.01,0.01,0.01c0.24,0.55,0.59,0.93,0.78,1.54c0.12,0.37,0.19,0.75,0.25,1.11
		c0,0.01,0,0.01,0.01,0.02v0.02c0.08,0.44,0.15,0.86,0.29,1.26c0,0.01,0,0.01,0.01,0.02c0.17,0.5,0.47,0.94,1.05,1.32
		c0.24,0.08,0.47,0.25,0.63,0.53c1.19,2.02,0.61,3.97,1.29,6.08c0.48,1.5,1.68,1.87,2.6,2.63c0.34,0.28,0.64,0.61,0.85,1.07
		c0.26,0.55,0.26,0.98,0.25,1.37c-0.01,0.17-0.02,0.34-0.02,0.5c0.04,0.03,0.09,0.06,0.13,0.09c0.72,0.56,1.23,1.13,1.76,1.83
		c0.1-0.01,0.19-0.01,0.29-0.01h0.01c0.1,0.01,0.2,0.04,0.29,0.12c0.87,0.69,1.02,1.44,1,2.34c0.15,0.1,0.31,0.2,0.47,0.28
		c0.7,0.33,1.36,0.2,2,0.78c1.12,1.04,0.82,2.51,0.97,3.83v0.01c0,0.01,0,0.01,0,0.01c0.1,0.81,0.36,1.57,1.23,2.13
		c0.27,0.18,0.57,0.31,0.88,0.39c0.02,0.01,0.05,0.02,0.07,0.02c0.62,0.18,1.3,0.23,1.98,0.3c0,0,0.01,0,0.01,0
		c0.01,0,0.01,0,0.01,0c1.15,0.12,2.26,0.32,2.99,1.32c0.42,0.59,0.34,1.19,0.59,1.81c0.42,1.09-0.07,0.6,0.8,0.95h0.01
		c0.06,0.03,0.12,0.06,0.19,0.09c1.08,0.49,1.84,1.15,2.73,1.58c0.63,0.31,1.23,0.28,1.81,0.8c0.29,0.26,0.44,0.65,0.66,0.95
		c0.05,0.07,0.1,0.14,0.17,0.2c0.67,0.65,1.56,1.04,2.54,1.15c1.51,0.17,1.61,0.13,2.57,1.19c0.01,0.01,0.01,0.01,0.01,0.01
		c0.06,0.07,0.11,0.13,0.18,0.2c0.16,0.18,0.26,0.36,0.32,0.53c0.22,0.54,0.17,0.92,1.35,0.72c0,0,0.01,0,0.01,0
		c0.07-0.01,0.17-0.03,0.25-0.05c0.44-0.09,0.93-0.59,1.34-0.79c0.39-0.18,0.75-0.29,1.13-0.37c0.34-0.39,0.88-0.55,1.42-0.16
		c0.07,0.04,0.13,0.09,0.19,0.15c1.64,1.24,2.24,2.81,3.86,3.74c0.07,0.04,0.13,0.09,0.21,0.12c0.39,0.21,0.83,0.37,1.35,0.5
		c0.88,0.21,1.75,0.42,2.62,0.64h0.01c0.01,0,0.02,0,0.02,0.01l0.33,0.09c0.01,0,0.01,0,0.02,0.01c0.77,0.2,1.53,0.4,2.29,0.63
		c0.03-0.06,0.07-0.12,0.11-0.17c0.41-0.62,1.02-1.04,1.94-1.18c0.18-0.03,0.34-0.04,0.5-0.04c0.01,0,0.01,0,0.01,0
		c0.55,0.01,1.02,0.19,1.61,0.31c0.71,0.15,1.3,0.24,1.88,0.29c0.01,0,0.01,0,0.01,0c0.61,0.05,1.24,0.05,2.02,0.01
		c0.67-0.03,1.38-0.04,1.98,0.15v9.31c-1.41,0.14-2.82,1.04-4.14,0.81c-0.85-0.15-0.96-0.56-1.8-0.36
		c-0.36,0.09-0.75,0.62-1.12,0.78c-1.34,0.58-1.65-0.1-2.77-0.5c-0.81-0.29-3.33-0.07-4.19-0.67c-0.37-0.26-0.47-0.74-0.74-1.07
		c0-1.04-0.67-1.53-2.01-1.48c-0.17,0.05-0.34,0.08-0.53,0.09c-0.03,0.02-0.07,0.04-0.1,0.06c-0.15,0.1-0.29,0.19-0.45,0.28
		c-1,0.36-1.89,1.36-3.03,0.81c-0.41-0.2-0.56-0.65-0.86-0.89c-0.92-0.76-1.32-0.93-1.67-0.93c-0.35,0-0.66,0.18-1.4,0.12
		c-1.69-0.13-2.07-0.91-3.3-1.92c-0.35,0.01-0.7-0.11-0.98-0.41c-0.03-0.04-0.07-0.08-0.1-0.13c-1.04-1.44-2.87-1.38-4.54-1.51
		c-0.5-0.03-0.97-0.09-1.42-0.2c-0.86-0.23-1.54-0.56-2.16-1.05c-0.34-0.26-0.64-0.57-0.96-0.93c-0.32-0.38-0.67-1.23-1.04-1.68
		c-0.08-0.1-0.17-0.18-0.25-0.23c-0.74-0.4-2.13,0.27-2.93,0.15c-0.94-0.13-1.59-0.52-2.22-1.23c-1.19-1.34-0.99-3.19-2.99-3.79
		c-1.18-0.36-2.24,0.07-3.29-0.79c-1.13-0.93-0.67-1.82-1.05-2.98c-0.83-2.54-2.92-2.55-4.94-3.55c-2.89-1.43-2.81-3.61-3.31-6.44
		c-0.39-2.17-1.37-4.23-2.85-5.88c-1.02-1.14-2.14-1.95-2.65-3.45c-0.29-0.86-0.26-1.71-0.7-2.54c-0.59-1.15-1.35-1.42-2.36-2.13
		c-0.97-0.69-1.76-1.38-2.17-2.54c-0.52-1.46-0.06-2.84-0.17-4.34c-0.13-1.7-1.27-2.84-1.28-4.53c-0.01-0.21,0.04-0.4,0.12-0.55
		c-0.23-0.46-0.36-0.89-0.45-1.46c-0.21-1.42-0.53-2.24-1.15-3.52c-0.77-1.56-0.43-1.69,0.07-3.25c0.55-1.72,0.17-1.27-0.5-2.47
		c-0.47-0.83-0.72-1.37-0.8-2.34C82.37,3.11,84.63,1.37,84.79-0.45z"/>
	<path class="st2" d="M153.42,143.17c0.12,0.01,0.25,0.01,0.39,0.01c0.01,0,0.01,0,0.01,0c0.97,0.01,2.53-0.01,3.88,0.18v13.02
		h-5.44c-0.07,0-0.13,0.01-0.19,0.01c-0.83,0.09-0.34,0.15-0.87,0.27c-0.48,0.12-0.89,0.33-1.42,0.37c-1.49,0.1-3.54,0.38-5.04-0.28
		c-0.21-0.09-0.43-0.23-0.66-0.37c-0.99-0.65-2.05-1.56-2.6-0.29c-0.04,0.1-0.07,0.2-0.09,0.29c-0.1,0.61,0.16,1.27-0.21,1.87
		c-0.87,1.42-1.83,0.52-2.95,0.64c-0.14,0.14-0.34,0.25-0.59,0.29c-1.46,0.25-1.91,2.22-3.27,2.78c-0.59,0.25-1.02,0.09-1.6,0.19
		c-0.15,0.02-0.25,0.02-0.33,0.02c-0.03,0.05-0.06,0.1-0.09,0.15c-0.73,1.2-0.97,1.81-2.42,2.16c-0.32-0.04-0.66-0.09-0.99-0.13
		c-0.81,0.28-1.44,0.74-1.9,1.38c-0.5,0.45-0.79,1.03-1.39,1.4c-0.67,0.41-1.28,0.55-2.06,0.43c-0.22,0-0.42-0.06-0.61-0.17
		c-0.21-0.18-0.38-0.29-0.5-0.32c-0.08,0.04-0.17,0.08-0.25,0.12c-0.04,0.15,0,0.44,0.13,0.87c-0.58,1.18-0.68,1.78-1.89,2.54
		c-0.94,0.59-2.05,0.77-2.99,1.3c-1.21,0.69-1.02,1.38-1.05,2.68c-0.03,1.13-0.17,2.3-1.08,3.09c-0.62,0.55-1.27,0.39-1.91,0.75
		c-1.56,0.86-0.96,1.1-1.3,2.29c-0.43,1.5-0.8,1.72-1.89,2.82c-1.48,1.5-1.72,2.52-1.77,4.45c-0.01,0.64,0.03,1.26-0.24,1.86
		c-0.25,0.53-0.77,0.81-1.05,1.26c-0.57,0.03-0.72,0.29-0.44,0.77c0.2,0.4,0.34,0.81,0.42,1.24c0.15,1.18-0.27,1.71-1.06,2.49
		c-0.31,0.16-0.62,0.31-0.94,0.43c-0.77,0.78-0.87,1.57-0.32,2.36c0.09,0.79,0.48,1.45,0.42,2.28c-0.06,0.74-0.53,1.32-0.61,2
		c-0.36,2.95,0.37,2.36,1.65,3.94c0.57,0.7,0.67,1.25,0.69,1.83H93.37c0.01-0.03-0.01-0.06,0-0.09c0.18-1.31-0.19-2.63-0.21-3.96
		c0-0.01,0-0.01,0-0.01c-0.02-0.86,0.01-1.71,0.2-2.57c0.5-2.29,0.84-4.59,1.37-6.87c0.38-1.64,0.85-3.3,1.37-4.96
		c0-0.01,0-0.01,0.01-0.01c0.43-1.41,0.91-2.82,1.42-4.21c0-0.01,0-0.01,0-0.01c0.64-1.79,1.31-3.55,1.98-5.25
		c0.23-0.59,0.51-1.14,0.82-1.68c0-0.01,0-0.01,0.01-0.01c0.59-1.04,1.27-2.02,1.84-3.07c0.66-1.23,1.28-2.33,2.05-3.38
		c0.37-0.51,0.77-1.01,1.23-1.51c0.94-1.01,1.86-1.89,2.55-3.11c0.2-0.34,0.36-0.7,0.53-1.05c0.01-0.01,0.01-0.01,0.01-0.02
		c0.06-0.12,0.12-0.24,0.18-0.36c0,0,0-0.01,0.01-0.01c0.17-0.32,0.35-0.64,0.58-0.93c0.29-0.38,0.6-0.69,0.93-0.93
		c0.42-0.32,0.89-0.53,1.43-0.67c0.2-0.56,0.4-1.15,0.66-1.71c0.51-1.15,1.2-2.21,2.3-2.77c2.33-1.21,4.99-1.65,7.32-2.96
		c0.11-0.06,0.21-0.12,0.32-0.19c2.02-1.22,3.06-3.38,4.83-4.72c0.08-0.06,0.16-0.12,0.24-0.18c0.1-0.07,0.2-0.15,0.31-0.22
		c0.63-0.38,1.43-0.64,2.18-0.59c1.06,0.06,2.37,1.14,3.38,0.99c1.61-0.25,1.94-2.31,3.03-3.21c0.26-0.22,0.55-0.4,0.86-0.55
		c0.02-0.01,0.04-0.02,0.06-0.02c0.15-0.07,0.31-0.14,0.48-0.2c0-0.01,0.01-0.01,0.01,0c0.34-0.13,0.69-0.22,1.05-0.29
		c1.32-0.28,2.68-0.21,4-0.49c1.32-0.28,2.57-0.95,3.92-1.04c0.08-0.01,0.16-0.01,0.23-0.01c0.01,0,0.01,0,0.01,0
		c0.89,0.01,1.73,0.36,2.61,0.37c0,0,0.01,0.01,0.01,0.01c0.21,0,0.43-0.02,0.65-0.06c1.52-0.32,0.69-0.6,1.36-1.59
		c0.29-0.42,0.63-0.67,1.01-0.8c0.04-0.05,0.07-0.09,0.12-0.13h0.01C152.81,143.26,153.08,143.16,153.42,143.17z"/>
	<path class="st2" d="M93.36-0.45h13.42c0.07,0.79,0.09,1.58-0.07,2.33c-0.17,0.8-0.74,1.24-1.04,1.89c-0.9,2.03,0.2,2.47,0.55,4.23
		c0.21,1.04-0.13,1.8-0.35,2.78c-0.3,1.35-0.58,3.81-0.31,5.21c0.45,2.32,1.84,1.77,3.16,3.06c1.2,1.19,1.26,2.82,1.04,4.38
		c0.15,0.09,0.31,0.17,0.46,0.25c0.5,0.26,0.66,0.7,0.59,1.13c0.07,0.2,0.06,0.45-0.04,0.72c0.18-0.49,1.3,0.37,1.66,0.98
		c0.72,1.18-0.1,2.34,0.28,3.42c0.53,1.53,2.48,1.04,3.43,2.03c0.85,0.87,0.52,1.64,0.73,2.68c0.38,1.89,1.46,1.1,2.82,1.82
		c1.07,0.56,1.13,1.32,1.56,2.32c0.46,1.07-0.77,1.45,1.3,2.2c0.47,0.17,1.25-0.1,1.78,0.02c0.92,0.21,1.59,0.59,2.05,1.42
		c0.25,0.46,0.23,0.84,0.37,1.32c0.55,1.81,0.64,1.98,2.49,2.19c1.56,0.17,3.57-0.86,5.07-0.17c1.05,0.48,1,1.37,1.62,2.22
		c1.58,2.16,4.09,0.53,6.03,1.35c1.22,0.51,1.85,1.59,3.14,2c1.39,0.45,2.49-0.25,3.87,0.08c0.43,0.1,0.8,0.48,1.19,0.58
		c1.85,0.48,2.55-0.2,3.98-0.71c1.17-0.42,2.35,0.75,3.56,0.64v12.92c-0.34,0.04-0.71,0.04-1.1,0c-0.22,0.01-0.43-0.01-0.63-0.09
		c-0.74-0.13-1.51-0.34-2.27-0.55c-0.01,0-0.01,0-0.01,0c-1.32-0.37-2.59-0.73-3.49-0.61c-0.01,0-0.01,0-0.01,0
		c-0.48,0.07-0.85,0.28-1.07,0.69c-0.29,0.57-0.86,0.69-1.37,0.53c-0.29-0.09-0.56-0.28-0.74-0.53c-0.52-0.69-1.02-1.03-1.52-1.18
		c-0.03,0.01-0.07,0.02-0.1,0.03c-0.61,0.16-1.21,0.15-1.76,0.04c-0.76,0.16-1.54,0.34-2.4,0.03c-0.08-0.03-0.16-0.07-0.23-0.1
		c-0.07-0.04-0.14-0.08-0.21-0.12c-0.92-0.62-1.15-1.84-1.98-2.63c-0.59-0.56-1.21-0.94-1.87-1.11c-0.06-0.02-0.12-0.03-0.17-0.04
		c-0.35,0.29-0.85,0.41-1.37,0.18c-0.04-0.02-0.09-0.04-0.13-0.06c-0.12,0.04-0.23,0.07-0.35,0.13c-0.51,0.24-0.81,0.83-1.46,0.99
		c-0.31,0.07-0.58,0.08-0.85,0.04c-0.01,0-0.01,0-0.01,0c-0.51-0.09-0.94-0.35-1.35-0.72c-0.01-0.01-0.02-0.02-0.04-0.03
		c-0.21-0.19-0.34-0.44-0.47-0.7c0,0,0,0-0.01-0.01c-0.12-0.23-0.23-0.47-0.4-0.66c-3.06-3.4-1.57-0.55-3.52-1.25
		c-0.43-0.15-0.81-0.36-1.23-0.57c-0.04-0.02-0.08-0.04-0.12-0.06c-1.08-0.56-2.24-1.04-3.37-1.48c-0.99-0.38-1.62-1.07-2.02-1.93
		h-0.01c-0.5-1.04-0.67-2.32-0.8-3.57c-0.23-0.07-0.4-0.21-0.54-0.37c-0.95-0.2-2.02-0.12-3.04-0.15c-0.01,0-0.01,0-0.01,0
		c-0.01,0-0.01,0-0.01,0c-0.69-0.02-1.37-0.08-1.98-0.3c-0.02-0.01-0.05-0.02-0.07-0.02c-0.26-0.1-0.51-0.24-0.75-0.42
		c-0.66-0.49-1.07-1.26-1.35-2.1c0-0.01,0-0.01,0-0.01v-0.01c-0.26-0.78-0.4-1.62-0.51-2.32c-0.42-2.68-1.15-0.96-2.89-1.93
		c-1.12-0.63-1.08-1.96-1.34-3.11h-0.01c-0.17-0.81-0.49-1.53-1.45-1.84c-0.33-0.1-0.57-0.31-0.71-0.57
		c-0.1-0.18-0.17-0.39-0.19-0.61c-0.19-0.3-0.37-0.6-0.56-0.9c-0.26-0.22-0.37-0.58-0.35-0.93c0.01-0.2,0.06-0.39,0.16-0.56
		c0.15-0.26-1.79-1.61-2-1.86c-0.56-0.69-0.81-1.29-0.98-2.14c-0.19-0.97,0.32-2.08,0.08-3.01c-0.36-1.42-1.2-1.41-2.1-2.18
		c-0.35-0.3-0.58-0.56-0.74-0.82c-0.01-0.01-0.01-0.01-0.01-0.02c-0.24-0.4-0.29-0.79-0.29-1.26v-0.02
		c-0.01-0.01-0.01-0.01-0.01-0.02c-0.01-0.32,0.01-0.7-0.02-1.15c-0.09-1.48,0.36-0.41-0.82-1.34c-0.06-0.05-0.13-0.1-0.19-0.17
		c-0.01,0-0.01-0.01-0.01-0.01c-0.31-0.28-0.59-0.62-0.74-0.99c-0.21-0.49-0.12-1.06-0.16-1.57c0.03-0.11,0.06-0.23,0.07-0.34
		c0.12-0.7-0.01-1.39-0.39-2.06c-0.32-0.23-0.59-0.5-0.81-0.81c-0.1-0.26-0.17-0.53-0.21-0.8c0-0.01,0-0.01,0-0.01
		c-0.06-0.34-0.07-0.69-0.05-1.04c0.21-0.68,0.39-1.37,0.52-2.08c0.01-0.05,0.02-0.1,0.03-0.15c-0.1-0.88-0.52-1.52-1.24-1.9
		c-0.87-1.08-1.59-1.95-1.26-3.49c0.25-1.14,1.19-1.7,1.26-2.95C93.62,0.62,93.45,0.09,93.36-0.45z"/>
	<path class="st3" d="M93.25-0.45h2.45c-0.04,0.29-1.15,0.58-1.23,0.88c0.01,0,0.02,0.01,0.03,0.01c0.87,0.36,1.19,1.3,0.54,2.05
		c-1.58,1.83-1.61,2.38,0.21,3.93c0.53,0.45,0.81,0.55,1.02,1.21c0.44,1.36-0.23,3.29-0.95,4.8c0.59,0.32,1.09,0.8,1.43,1.53
		c0.88,1.87-1.05,3.96,1.86,4.64c0.81,0.19,1.08,1.12,0.74,1.8c-1.04,1.25-0.98,2.54,0.18,3.85c0.35,0.04,0.69,0.14,1,0.29
		c0.64,0.47,1.08,0.53,1.46,1.31c0.74,1.52-1.61,6,1.68,5.89c0.76-0.03,1.44,0.81,1.18,1.55c-0.87,2.51,2,2.23,2.91,3.78
		c0.61,1.03,0.69,2.4,0.63,3.67c1.33-0.38,2.56-0.85,3.69,0.55c1.68,2.07-0.51,6.64,3.04,6.81c1.93,0.09,3.36-0.6,4.91,1.18
		c0.94,1.07,1.18,2.44,0.91,3.75c1.25,0.34,2.88,0.02,4.06,0.89c0.72,0.54,1.24,1.21,1.58,1.98c0.84-0.31,1.76-0.34,2.68,0.02
		c1.29,0.51,2.43,3.63,3.72,3.21c1.24-0.41,1.26-2.35,3.12-2.19c2.17,0.19,3.8,3.34,5.02,4.8c0.12,0.13,0.19,0.28,0.23,0.42
		c1.04-0.01,3.63-0.73,4.39-0.47c1.02,0.34,1.73,1.04,2.41,1.79c0.21-0.46,0.41-1.05,0.46-1.17c0.27-0.61,1.15-0.74,1.68-0.43
		c2.33,1.31,4.86,1.4,7.41,1.16v2.43c-2.55,0.21-5.04,0.11-7.41-0.88c-0.39,0.86-0.82,1.56-1.89,1.81c-0.42,0.1-0.89,0.01-1.19-0.31
		c-0.59-0.64-1.13-1.43-1.86-1.72c-0.01-0.01-0.01-0.01-0.02-0.01c-0.1-0.04-0.21-0.07-0.33-0.09c-0.01-0.01-0.01-0.01-0.02-0.01
		h-0.01c-0.26-0.04-0.54-0.02-0.86,0.09c-0.71,0.24-1.05,0.81-1.87,0.92c-1.53,0.19-2.76-0.7-3.42-1.98
		c-0.13-0.25-0.17-0.5-0.14-0.72c-0.58-0.77-1.18-1.59-1.87-2.17c-1.04-0.87-0.86-0.67-1.72-0.01c-0.75,0.57-0.94,1.42-1.95,1.75
		c-0.83,0.28-1.67,0.09-2.37-0.4c-0.94-0.64-2.4-4.69-4.06-3.05c-0.59,0.58-1.91,0.41-2.05-0.54c-0.53-3.71-3.85-1.88-5.81-3.39
		c-0.4-0.31-0.79-0.85-0.56-1.38c0.8-1.34,0.07-2.35-2.21-3.01c-0.29,0.14-0.6,0.25-0.92,0.34c-0.47,0-0.88,0.17-1.38,0.1
		c-0.94-0.13-1.73-0.72-2.3-1.47c-0.93-1.22-0.85-2.58-1.02-4.01c0.17-0.66,0.02-1.24-0.45-1.72c-0.17-0.81-0.55-0.97-1.16-0.45
		c-0.43-0.03-1.32,0.31-1.78,0.34c-0.61,0.04-1.29-0.6-1.23-1.23c0.17-1.71,0.4-3.15-1.28-4.14c-0.61-0.36-1.24-0.23-1.8-0.83
		c-0.82-0.88-0.86-2.11-0.64-3.26c-0.93-0.25-1.75-0.78-2.31-1.68c-0.41-0.65-0.6-1.38-0.62-2.15c-0.01-0.73,0.76-2.02,0.57-2.65
		c-0.41-1.32-2.79-1.49-3.44-3.06c-0.55-1.34-0.26-2.66,0.26-3.91c-0.76-0.29-1.47-0.69-1.94-1.35c-0.67-0.94-0.29-4.75-1.07-4.85
		c-0.9-0.11-1.56-0.96-1.06-1.84c1.03-1.81,1.95-3.51,0.2-4.93c-0.66-0.53-1.52-0.94-1.93-1.71c-0.72-1.36,0.18-2.63,1.19-3.72V2.15
		c0.02-0.02,0.04-0.04,0.06-0.06C92.01,2.08,92.01,2.08,92,2.06c-0.29-0.28-0.45-0.67-0.27-1.11C91.92,0.47,93.15,0.01,93.25-0.45z"
		/>
	<path class="st3" d="M157.7,143.26v2.38c-2.23-0.36-5.12-0.62-5.5,1.74c-0.13,0.83-1.17,1.06-1.8,0.73
		c-1.5-0.78-1.72-2.13-3.54-1.28c-1.7,0.79-3.08,1.42-5,1.6c-1.04,0.1-2.09,0.1-3.13,0.16c-0.58,0.04-1.37-0.05-1.86,0.31
		c-0.85,0.62-0.23,0.09-0.5,0.9c-0.38,1.19-0.11,2.17-1.51,2.79c-1.21,0.54-2.29-0.01-3.41-0.46c-1.47-0.59-2.99-0.95-4.27,0.34
		c-0.66,0.67-0.77,1.69-1.2,2.48c-0.34,0.62-0.67,1.08-1.08,1.43c-0.42,0.34-0.92,0.58-1.61,0.77c-1.44,0.39-2.5,0.31-3.73,1.26
		c-0.5,0.39-0.97,0.85-1.54,1.13c-1.29,0.64-3.01,0.06-3.8,1.06c-0.8,1.02-0.32,2.17-1.48,3.06c-0.91,0.7-1.44,0.64-2.27,1.64
		c-0.86,1.02-0.65,1.19-1.03,2.3c-0.39,1.11-1.16,1.92-2.02,2.69c-0.62,0.56-1.39,1.01-1.95,1.64c-1,1.12-1.16,2.46-1.59,3.84
		c-0.47,1.54-1.25,2.63-2.38,3.75c-1.48,1.45-1.6,2.96-1.68,4.93c-0.02,0.43,0.01,0.86-0.07,1.3c-0.34,1.71-1.49,3.56-2.4,4.99
		c-1.01,1.58-2.12,2.93-1.79,5.02c0.07,0.45,0.45,0.8,0.51,1.28c0.15,1.34-0.78,2.06-1.28,3.18c-1.19,2.65,1.31,5.49,0.91,8.25
		h-2.51c0.77-2.22-1.42-4.72-1.23-7.03c0.15-1.82,1.62-3.12,1.26-4.77c-0.36-1.64-0.85-2.52,0.03-4.23c1.34-2.6,4.23-5.01,3.99-8.17
		c-0.14-1.89-0.53-2.87,0.72-4.59c0.61-0.85,1.45-1.46,2.16-2.22c1.08-1.16,1.32-2.32,1.75-3.77c0.53-1.81,1.29-2.95,2.69-4.2
		c0.62-0.56,1.38-1,1.91-1.64c0.8-0.97,0.69-1.92,0.99-3.04c0.4-1.45,1.19-1.68,2.27-2.5c0.97-0.74,0.5,0.13,1.27-1.15
		c0.59-0.99,0.26-0.62,0.48-1.19c0.27-0.67,0.25-1.07,0.75-1.61c1.09-1.13,2.4-0.53,3.74-0.78c0.87-0.17,1.59-0.66,2.3-1.19
		c0.79-0.58,1.57-1.19,2.54-1.42c1.59-0.36,2.36-0.53,3.35-2.09c0.31-0.5,0.45-1.07,0.82-1.57c0.81-1.07,2-1.78,3.3-2.08
		c1.92-0.45,2.73,0.57,4.42,0.8c1.85,0.25,0.89-1.9,1.93-2.93c0.9-0.89,2.5-0.85,3.66-0.93c2.32-0.16,4.94,0.1,7-1.19
		c1.17-0.73,2.06-1.96,3.62-1.45c0.74,0.24,1.16,0.85,1.61,1.42c0.51-0.75,1.24-1.23,2.1-1.49h0.01c0.37-0.13,0.77-0.21,1.19-0.26
		c0.01,0,0.01,0,0.01,0C155.06,143.01,156.44,143.11,157.7,143.26z"/>
	<path class="st4" d="M40.48,192.23c-0.42,0.25-0.76,0.59-1.01,1.01c-0.12,0.17-0.17,0.29-0.26,0.5c-0.14,0.34-0.27,0.77-0.23,1.15
		c0.08,0.71,0.24,1.41,0.79,1.91c0.18,0.14,0.36,0.28,0.55,0.42c0.42,0.24,0.88,0.37,1.36,0.37c0.55,0.06,1.2-0.17,1.65-0.5
		c0.42-0.25,0.76-0.59,1.01-1.01c0.26-0.44,0.38-0.92,0.39-1.43c-0.03-0.75-0.29-1.46-0.83-2c-0.51-0.51-1.27-0.83-2-0.83
		C41.4,191.85,40.92,191.98,40.48,192.23z"/>
	<path class="st4" d="M31.08,191.3c0,3.68,5.72,3.69,5.72,0C36.8,187.62,31.08,187.61,31.08,191.3z"/>
	<path class="st4" d="M32.93,178.65c-0.47,0.47-0.83,1.25-0.8,1.93c0.03,0.71,0.26,1.44,0.8,1.93c0.5,0.46,1.23,0.88,1.93,0.8
		c0.55-0.06,1.12-0.08,1.64-0.3c0.5-0.21,0.8-0.41,1.24-0.78c0.42-0.35,0.71-1.11,0.68-1.65c-0.03-0.59-0.22-1.25-0.68-1.65
		c-0.43-0.37-0.74-0.57-1.24-0.78c-0.52-0.22-1.08-0.24-1.64-0.3C34.21,177.78,33.37,178.21,32.93,178.65z"/>
	<path class="st4" d="M58.2,174.76c0,3.08,4.79,3.08,4.79,0C62.99,171.68,58.2,171.67,58.2,174.76z"/>
	<path class="st4" d="M66.79,185.48c0,2.28,3.54,2.28,3.54,0C70.33,183.2,66.79,183.2,66.79,185.48z"/>
	<path class="st4" d="M54.33,181.97c-0.44,0.44-0.74,1.26-0.5,1.87c0.17,0.42,0.33,0.82,0.59,1.2c0.42,0.62,1.09,1.11,1.88,1.08
		c0.58-0.03,1.12-0.22,1.54-0.64c0.39-0.39,0.64-0.98,0.64-1.54c0-0.81-0.43-1.44-1.08-1.88c-0.38-0.26-0.78-0.42-1.2-0.59
		C55.59,181.23,54.77,181.53,54.33,181.97z"/>
	<path class="st4" d="M42.2,164.04c0,2.77,4.31,2.78,4.31,0C46.51,161.27,42.2,161.26,42.2,164.04z"/>
	<path class="st4" d="M68.74,157.61c0,3.31,5.15,3.32,5.15,0C73.89,154.29,68.74,154.29,68.74,157.61z"/>
	<path class="st4" d="M80.07,143.82c0,4.11,6.39,4.12,6.39,0C86.46,139.71,80.07,139.7,80.07,143.82z"/>
	<path class="st4" d="M72.8,197.73c0,2.18,2.05,3.03,3.66,2.58c0.77,0.5,2.08,0.15,2.08-1.05c0-0.32-0.1-0.58-0.25-0.78
		c0.06-0.23,0.1-0.48,0.1-0.75C78.4,194.13,72.8,194.12,72.8,197.73z"/>
	<path class="st4" d="M52.36,197.02c0,0.94,0.77,1.39,1.51,1.34c0.01,3.13,4.88,3.13,4.88-0.01c0-2.17-2.34-2.84-3.78-2.01
		C54.37,195.27,52.36,195.49,52.36,197.02z"/>
	<path class="st4" d="M18.99,159.14c0,3.87,6.01,3.87,6.01,0C25,155.27,18.99,155.27,18.99,159.14z"/>
	<path class="st4" d="M23.72,171.08c0,3.3,5.12,3.3,5.12,0C28.85,167.79,23.72,167.78,23.72,171.08z"/>
	<path class="st4" d="M37.51,143.82c0,2.89,4.5,2.9,4.5,0C42.01,140.93,37.51,140.92,37.51,143.82z"/>
	<path class="st4" d="M53.16,146.27c0,2.46,3.83,2.47,3.83,0C56.99,143.81,53.16,143.8,53.16,146.27z"/>
	<path class="st4" d="M61.13,132.18c0,3.65,5.67,3.66,5.67,0C66.8,128.53,61.13,128.53,61.13,132.18z"/>
	<path class="st4" d="M76.71,172c0,3.7,5.74,3.7,5.74,0C82.46,168.31,76.71,168.3,76.71,172z"/>
	<path class="st4" d="M89.42,150.87c0,2.71,4.21,2.71,4.21,0C93.64,148.16,89.42,148.15,89.42,150.87z"/>
	<path class="st4" d="M104.46,144.13c0,2.68,4.16,2.68,4.16,0C108.62,141.45,104.46,141.44,104.46,144.13z"/>
	<path class="st4" d="M104.25,128.81c0,4.13,6.41,4.13,6.41,0C110.67,124.68,104.25,124.68,104.25,128.81z"/>
	<path class="st4" d="M114.1,129.12c0,4.07,6.32,4.07,6.32,0C120.42,125.05,114.1,125.05,114.1,129.12z"/>
	<path class="st4" d="M124.62,135.86c0,3.54,5.5,3.55,5.5,0C130.12,132.32,124.62,132.31,124.62,135.86z"/>
	<path class="st4" d="M133.64,126.61c-0.59,0.48-0.98,1.21-0.98,2.2c0,2.01,1.64,2.97,3.2,2.87c0.22,1.88,3.25,1.82,3.25-0.21
		c0-0.66-0.32-1.12-0.77-1.36c0.17-0.37,0.27-0.8,0.27-1.29c0-1.68-1.15-2.63-2.43-2.83C135.54,125.06,133.78,125.28,133.64,126.61z
		"/>
	<path class="st4" d="M144.09,128.2c0,3.71,5.77,3.72,5.77,0C149.86,124.49,144.09,124.48,144.09,128.2z"/>
	<path class="st4" d="M141.12,108.29c0,3.99,6.2,3.99,6.2,0C147.32,104.3,141.12,104.29,141.12,108.29z"/>
	<path class="st4" d="M137.84,104c0,3.08,4.79,3.08,4.79,0C142.63,100.92,137.84,100.92,137.84,104z"/>
	<path class="st4" d="M124.08,112.27c0,3.83,5.96,3.84,5.96,0C130.04,108.44,124.08,108.43,124.08,112.27z"/>
	<path class="st4" d="M131.67,112.07c0,0.27,0.1,0.48,0.25,0.63c-0.75,0.3-1.33,0.97-1.33,2.03c0,2.96,4.59,2.96,4.59,0
		c0-1.27-0.86-2-1.83-2.17c0.08-0.13,0.14-0.29,0.14-0.48C133.49,110.89,131.67,110.89,131.67,112.07z"/>
	<path class="st4" d="M148.21,119.62c0,1.28,1.12,2.5,2.44,2.44c1.32-0.06,2.44-1.07,2.44-2.44c0-1.28-1.12-2.5-2.44-2.44
		C149.33,117.24,148.21,118.25,148.21,119.62z"/>
	<path class="st4" d="M148.89,98.18c0,3.05,4.74,3.05,4.74,0C153.63,95.13,148.89,95.13,148.89,98.18z"/>
	<path class="st4" d="M144.16,87.15c0,3.62,5.62,3.62,5.62,0C149.79,83.53,144.16,83.53,144.16,87.15z"/>
	<path class="st4" d="M147.44,78.27c0,3.34,5.19,3.35,5.19,0C152.63,74.93,147.44,74.92,147.44,78.27z"/>
	<path class="st4" d="M133.94,72.14c0,4.16,6.46,4.16,6.46,0C140.4,67.99,133.94,67.98,133.94,72.14z"/>
	<path class="st4" d="M119.06,68.77c0,3.6,5.6,3.61,5.6,0C124.66,65.17,119.06,65.16,119.06,68.77z"/>
	<path class="st4" d="M108.4,81.33c0,3.91,6.08,3.92,6.08,0C114.48,77.42,108.4,77.41,108.4,81.33z"/>
	<path class="st4" d="M123.95,90.22c0,3.22,5,3.22,5,0C128.95,87,123.95,86.99,123.95,90.22z"/>
	<path class="st4" d="M131.72,95.12c0,3.08,4.79,3.08,4.79,0C136.5,92.04,131.72,92.03,131.72,95.12z"/>
	<path class="st4" d="M110.62,105.68c-0.6-1.2-2.8-0.98-2.8,0.67c0,1.22,1.21,1.65,2.08,1.31c0,0,0,0.01,0,0.01
		c0,3.96,6.15,3.96,6.15,0C116.05,104.56,112.25,103.9,110.62,105.68z"/>
	<path class="st4" d="M98.11,100.02c0,3.76,5.84,3.76,5.84,0C103.95,96.26,98.11,96.25,98.11,100.02z"/>
	<path class="st4" d="M98.66,80.72c0,3.83,5.96,3.84,5.96,0C104.62,76.89,98.66,76.88,98.66,80.72z"/>
	<path class="st4" d="M94.4,114.72c0,3.4,5.29,3.41,5.29,0C99.69,111.32,94.4,111.31,94.4,114.72z"/>
	<path class="st4" d="M68.66,104.92c0,3.02,4.69,3.02,4.69,0C73.35,101.9,68.66,101.9,68.66,104.92z"/>
	<path class="st4" d="M72.88,93.89c0,3.11,4.83,3.12,4.83,0C77.71,90.78,72.88,90.78,72.88,93.89z"/>
	<path class="st4" d="M81.9,69.69c0,3.33,5.17,3.33,5.17,0C87.07,66.37,81.9,66.36,81.9,69.69z"/>
	<path class="st4" d="M85.96,62.6c0.01-0.05,0.02-0.1,0.02-0.16c0-1.52-2.37-1.53-2.37,0c0,1.37,1.91,1.51,2.3,0.41
		c-0.02,0.13-0.04,0.26-0.04,0.41c0,2.96,4.59,2.96,4.59,0C90.46,60.55,86.6,60.33,85.96,62.6z"/>
	<path class="st4" d="M99.69,68.16c0,3.3,5.12,3.3,5.12,0C104.81,64.87,99.69,64.86,99.69,68.16z"/>
	<path class="st4" d="M96.11,62.95c0,3.96,6.15,3.96,6.15,0C102.26,59,96.11,58.99,96.11,62.95z"/>
	<path class="st4" d="M82.25,119.01c0,4.07,6.32,4.07,6.32,0C88.56,114.94,82.25,114.94,82.25,119.01z"/>
	<path class="st4" d="M68.81,118.09c0,4.4,6.84,4.41,6.84,0C75.66,113.69,68.81,113.68,68.81,118.09z"/>
	<path class="st4" d="M42.61,100.32c0,4.22,6.56,4.23,6.56,0C49.17,96.1,42.61,96.1,42.61,100.32z"/>
	<path class="st4" d="M53.27,86.54c0,3.51,5.46,3.52,5.46,0C58.73,83.03,53.27,83.02,53.27,86.54z"/>
	<path class="st4" d="M66.4,77.04c0,3.96,6.15,3.96,6.15,0C72.55,73.09,66.4,73.08,66.4,77.04z"/>
	<path class="st4" d="M61.88,67.85c0,3.46,5.38,3.47,5.38,0C67.27,64.39,61.88,64.38,61.88,67.85z"/>
	<path class="st4" d="M48.15,66.02c0,3,4.67,3.01,4.67,0C52.82,63.01,48.15,63.01,48.15,66.02z"/>
	<path class="st4" d="M44.9,58.36c0,4.03,6.27,4.04,6.27,0C51.17,54.32,44.9,54.32,44.9,58.36z"/>
	<path class="st4" d="M61.76,58.36c0,3.62,5.62,3.62,5.62,0C67.39,54.74,61.76,54.73,61.76,58.36z"/>
	<path class="st4" d="M76.37,60.5c0,3.74,5.82,3.75,5.82,0C82.19,56.76,76.37,56.75,76.37,60.5z"/>
	<path class="st4" d="M89.51,50.7c0,4.17,6.49,4.18,6.49,0C96,46.53,89.51,46.52,89.51,50.7z"/>
	<path class="st4" d="M86.26,39.98c0,3.63,5.65,3.64,5.65,0C91.9,36.35,86.26,36.34,86.26,39.98z"/>
	<path class="st4" d="M77.59,33.85c0,3.36,5.22,3.36,5.22,0C82.81,30.5,77.59,30.49,77.59,33.85z"/>
	<path class="st4" d="M66.21,33.85c0,3.42,5.31,3.42,5.31,0C71.52,30.43,66.21,30.43,66.21,33.85z"/>
	<path class="st4" d="M70.61,24.05c0,4.07,6.32,4.07,6.32,0C76.92,19.99,70.61,19.98,70.61,24.05z"/>
	<path class="st4" d="M76.38,13.33c0,2.94,4.57,2.95,4.57,0C80.95,10.39,76.38,10.38,76.38,13.33z"/>
	<path class="st4" d="M70.09,2.61c0,1.97,3.06,1.97,3.06,0C73.15,0.64,70.09,0.63,70.09,2.61z"/>
	<path class="st4" d="M52.71,8.43c0,2.65,4.12,2.65,4.12,0C56.83,5.78,52.71,5.78,52.71,8.43z"/>
	<path class="st4" d="M49.36,12.41c0,1.61,1.18,2.46,2.43,2.55c0.82,0.61,2.3,0.28,2.4-1c0.3-0.4,0.48-0.92,0.48-1.55
		C54.67,8.99,49.36,8.99,49.36,12.41z"/>
	<path class="st4" d="M40.58,8.74c0,3.28,5.1,3.29,5.1,0C45.68,5.46,40.58,5.45,40.58,8.74z"/>
	<path class="st4" d="M33.17,5.67c0,3.36,5.22,3.36,5.22,0C38.39,2.32,33.17,2.31,33.17,5.67z"/>
	<path class="st4" d="M26.17,13.33c0,3.7,5.74,3.7,5.74,0C31.91,9.63,26.17,9.63,26.17,13.33z"/>
	<path class="st4" d="M27.58,24.66c0,3.06,4.76,3.07,4.76,0C32.34,21.6,27.58,21.59,27.58,24.66z"/>
	<path class="st4" d="M39.86,28.03c0,3.82,5.93,3.83,5.93,0C45.79,24.21,39.86,24.21,39.86,28.03z"/>
	<path class="st4" d="M47.29,37.53c0,1,0.77,1.5,1.55,1.5c-0.13,0.27-0.2,0.58-0.2,0.95c0,2.66,3.95,2.76,4.28,0.32
		c0.53-0.07,1.01-0.45,1.01-1.14c0-1.1-1.22-1.41-1.92-0.93c-0.48-0.29-1.09-0.39-1.65-0.29c0.03-0.13,0.05-0.26,0.05-0.41
		C50.41,35.52,47.29,35.52,47.29,37.53z"/>
	<path class="st4" d="M54.29,43.04c0,2.59,4.02,2.59,4.02,0C58.31,40.46,54.29,40.45,54.29,43.04z"/>
	<path class="st4" d="M53.53,26.18c-0.55,0.6-0.89,1.33-0.89,2.16c0,0.78,0.34,1.6,0.89,2.16c0.53,0.53,1.4,0.93,2.16,0.89
		c0.79-0.04,1.61-0.29,2.16-0.89c0.55-0.6,0.89-1.33,0.89-2.16c0-0.78-0.34-1.6-0.89-2.16c-0.53-0.53-1.4-0.93-2.16-0.89
		C54.9,25.32,54.08,25.58,53.53,26.18z"/>
	<path class="st4" d="M25.49,36.3c0,3.79,5.89,3.79,5.89,0C31.37,32.52,25.49,32.51,25.49,36.3z"/>
	<path class="st4" d="M18.12,45.22c1.46,0.26,3.14-0.56,3.14-2.49c0-1.92-1.68-2.74-3.14-2.49V45.22z"/>
	<path class="st4" d="M18.12,57.14c1.13,0.73,3.05,0.22,3.05-1.54c0-1.75-1.92-2.26-3.05-1.54V57.14z"/>
	<path class="st4" d="M26.63,57.13c0,2.09,1.75,3.06,3.37,2.91c1,2.64,5.64,2.29,5.64-1.07c0-1.96-1.58-2.89-3.1-2.81
		C31.63,53.27,26.63,53.59,26.63,57.13z"/>
	<path class="st4" d="M31.15,75.21c0,3.99,6.2,3.99,6.2,0C37.35,71.22,31.15,71.21,31.15,75.21z"/>
	<path class="st4" d="M30.8,87.77c0,4.05,6.29,4.06,6.29,0C37.09,83.72,30.8,83.71,30.8,87.77z"/>
	<path class="st4" d="M45.6,116.45c-0.48,0.13-0.89,0.38-1.24,0.72c-0.35,0.35-0.59,0.77-0.72,1.24c-0.13,0.5-0.13,1,0,1.5
		c0.01,0.06,0.02,0.12,0.03,0.19c0.17,0.98,1.14,1.8,2.06,2.06c1.01,0.28,2.12-0.01,2.86-0.76c0.74-0.74,1.04-1.85,0.76-2.86
		c-0.25-0.92-1.07-1.89-2.06-2.06c-0.06-0.01-0.12-0.02-0.19-0.03C46.6,116.31,46.1,116.31,45.6,116.45z"/>
	<path class="st4" d="M53.34,121.6c-0.52-0.42-1.52-0.2-1.52,0.67c0,0.91,1.09,1.11,1.58,0.61c0.79,3.41,6.51,3.14,6.51-0.82
		C59.91,117.99,53.81,117.82,53.34,121.6z"/>
	<path class="st4" d="M25.81,126.05c0,4.16,6.46,4.16,6.46,0C32.27,121.9,25.81,121.89,25.81,126.05z"/>
	<path class="st4" d="M30.6,136.78c0,3.91,6.08,3.92,6.08,0C36.68,132.86,30.6,132.86,30.6,136.78z"/>
	<path class="st4" d="M24.33,142.29c0,2.91,4.52,2.92,4.52,0C28.85,139.38,24.33,139.37,24.33,142.29z"/>
	<path class="st4" d="M18.12,141.13c0.55-0.51,0.91-1.24,0.91-2.21c0-0.97-0.37-1.7-0.91-2.2V141.13z"/>
	<path class="st4" d="M22.84,119.32c0,3.65,5.67,3.66,5.67,0C28.51,115.67,22.84,115.66,22.84,119.32z"/>
	<path class="st4" d="M18.12,103.6c1.66,0.43,3.7-0.45,3.7-2.67c0-2.21-2.05-3.1-3.7-2.67V103.6z"/>
	<path class="st4" d="M24.72,97.57c0,3.2,4.98,3.21,4.98,0C29.69,94.36,24.72,94.36,24.72,97.57z"/>
	<path class="st4" d="M18.12,86.29c0.52-0.29,0.91-0.81,0.91-1.59c0-0.25-0.05-0.48-0.12-0.68c1.05-0.21,1.96-1,1.96-2.39
		c0-1.72-1.41-2.53-2.74-2.43V86.29z"/>
	<path class="st4" d="M36.6,104.43c-1.71,1-1.77,3.64,0,4.63c0.82,0.46,1.87,0.58,2.71,0.09c0.37-0.21,0.7-0.57,0.92-0.93
		c0.3-0.5,0.33-0.91,0.4-1.48c0-0.48-0.12-0.93-0.37-1.35c-0.24-0.4-0.56-0.72-0.96-0.96C38.48,103.94,37.43,103.94,36.6,104.43z"/>
	<path class="st4" d="M45.33,183.34c0,2.69,4.19,2.7,4.19,0C49.52,180.64,45.33,180.64,45.33,183.34z"/>
	<path class="st4" d="M84.5,93.59c0,3.93,6.1,3.93,6.1,0C90.6,89.66,84.5,89.65,84.5,93.59z"/>
	<path class="st4" d="M84.5,81.03c0,3.93,6.1,3.93,6.1,0C90.6,77.1,84.5,77.09,84.5,81.03z"/>
	<path class="st5" d="M57.15,162.92c0,4.56,7.08,4.57,7.08,0C64.24,158.36,57.15,158.35,57.15,162.92z"/>
	<path class="st5" d="M41.13,154.95c0,2.26,2.19,3.12,3.84,2.56c0.12,0.63,0.42,1.23,0.86,1.68c0.54,0.54,1.44,0.95,2.22,0.92
		c0.81-0.04,1.65-0.3,2.22-0.92c0.56-0.61,0.92-1.37,0.92-2.22c0-0.8-0.35-1.65-0.92-2.22c-0.54-0.54-1.44-0.95-2.22-0.92
		c-0.47,0.02-0.95,0.13-1.38,0.33C45.91,151.35,41.13,151.6,41.13,154.95z"/>
	<path class="st5" d="M29.81,158.63c0,4,6.22,4.01,6.22,0C36.03,154.62,29.81,154.62,29.81,158.63z"/>
	<path class="st5" d="M24.04,159.24c0,1.97,3.06,1.97,3.06,0C27.1,157.27,24.04,157.27,24.04,159.24z"/>
	<path class="st5" d="M22.93,169.45c0,0.1,0.01,0.2,0.01,0.29c-0.11-0.13-0.24-0.24-0.37-0.35c-0.22-0.19-0.63-0.08-0.61,0.25
		c0.01,0.18,0.02,0.37,0.05,0.55c0,0.01,0.02,0.12,0.04,0.18c-0.18,0.37-0.17,0.78,0.08,1.12c0.28,0.36,0.76,0.49,1.18,0.31
		c0.16-0.07,0.29-0.18,0.39-0.3c1.65,1.69,5.32,1.01,5.32-2.04C29.03,165.52,22.93,165.52,22.93,169.45z"/>
	<path class="st5" d="M25.31,185.58c0,4.02,6.25,4.03,6.25,0C31.55,181.56,25.31,181.56,25.31,185.58z"/>
	<path class="st5" d="M26.77,192.32c0,3.71,5.77,3.72,5.77,0C32.54,188.61,26.77,188.6,26.77,192.32z"/>
	<path class="st5" d="M26.27,198.45c0,3.57,5.55,3.58,5.55,0C31.82,194.88,26.27,194.87,26.27,198.45z"/>
	<path class="st5" d="M55.29,183.34c0,3.8,5.91,3.81,5.91,0C61.2,179.53,55.29,179.53,55.29,183.34z"/>
	<path class="st5" d="M67.24,191.3c0,3.4,5.29,3.41,5.29,0C72.53,187.9,67.24,187.89,67.24,191.3z"/>
	<path class="st5" d="M79.47,179.86c0,3.7,5.74,3.7,5.74,0C85.21,176.17,79.47,176.16,79.47,179.86z"/>
	<path class="st5" d="M78.89,168.22c0,4.17,6.49,4.18,6.49,0C85.38,164.05,78.89,164.04,78.89,168.22z"/>
	<path class="st5" d="M88.61,158.83c0,3.23,5.03,3.24,5.03,0C93.64,155.6,88.61,155.59,88.61,158.83z"/>
	<path class="st5" d="M63.22,145.15c0,3.06,3.53,3.84,5.34,2.35c1.06,3.13,6.5,2.76,6.5-1.13c0-3.24-3.79-4.04-5.66-2.4
		C68.32,141.09,63.22,141.47,63.22,145.15z"/>
	<path class="st5" d="M54.95,132.28c0,4.23,6.58,4.24,6.58,0C61.53,128.05,54.95,128.04,54.95,132.28z"/>
	<path class="st5" d="M43.26,136.98c0,3.24,4.64,3.49,5.35,0.74c0.73,0.58,2.12,0.27,2.12-0.95c0-1.28-1.54-1.56-2.23-0.85
		C47.54,133.52,43.26,133.86,43.26,136.98z"/>
	<path class="st5" d="M18.12,157.95c0.6-0.47,1-1.19,1-2.19c0-0.99-0.41-1.71-1-2.18V157.95z"/>
	<path class="st5" d="M18.12,145.98c0.72-0.5,1.22-1.32,1.22-2.47c0-1.14-0.5-1.96-1.22-2.46V145.98z"/>
	<path class="st5" d="M18.12,131.03v2.09c0.98,2.94,6.08,2.6,6.08-1.04C24.2,128.45,19.1,128.09,18.12,131.03z"/>
	<path class="st5" d="M18.12,73.22c0.26-0.22,0.43-0.54,0.43-0.98c0-0.44-0.17-0.76-0.43-0.98V73.22z"/>
	<path class="st5" d="M18.12,78.52c1.66,0.8,4.13,0.01,4.13-2.4c0-2.4-2.47-3.19-4.13-2.4V78.52z"/>
	<path class="st5" d="M18.12,91.36v3.01C19.45,96.8,24,96.31,24,92.87C24,89.44,19.45,88.94,18.12,91.36z"/>
	<path class="st5" d="M31.41,90.83c0,3.26,5.07,3.27,5.07,0C36.48,87.56,31.41,87.56,31.41,90.83z"/>
	<path class="st5" d="M34.05,113.7c0,1.97,3.06,1.97,3.06,0C37.11,111.73,34.05,111.73,34.05,113.7z"/>
	<path class="st5" d="M41.11,107.78c0,3.13,4.86,3.13,4.86,0C45.97,104.65,41.11,104.65,41.11,107.78z"/>
	<path class="st5" d="M46.71,100.63c0,1.97,3.06,1.97,3.06,0C49.77,98.66,46.71,98.66,46.71,100.63z"/>
	<path class="st5" d="M57.66,105.94c0,1.7,1.74,2.28,2.93,1.74c-0.45,0.46-0.75,1.1-0.75,1.94c0,3.73,5.79,3.73,5.79,0
		c0-2.52-2.65-3.34-4.37-2.44c0.26-0.31,0.42-0.72,0.42-1.24C61.68,103.35,57.66,103.35,57.66,105.94z"/>
	<path class="st5" d="M38.47,125.75c0,3.63,5.65,3.64,5.65,0C44.12,122.11,38.47,122.11,38.47,125.75z"/>
	<path class="st5" d="M82.18,112.27c0,3.62,5.62,3.62,5.62,0C87.81,108.65,82.18,108.65,82.18,112.27z"/>
	<path class="st5" d="M79.28,126.57c0,3.42,5.31,3.42,5.31,0C84.59,123.15,79.28,123.14,79.28,126.57z"/>
	<path class="st5" d="M82.17,132.49c0,3.63,5.65,3.64,5.65,0C87.82,128.85,82.17,128.85,82.17,132.49z"/>
	<path class="st5" d="M94.83,133.71c0,3.37,5.24,3.38,5.24,0C100.07,130.34,94.83,130.33,94.83,133.71z"/>
	<path class="st5" d="M103.23,141.06c0,3.08,4.79,3.08,4.79,0C108.01,137.98,103.23,137.98,103.23,141.06z"/>
	<path class="st5" d="M113.35,128.81c0,2.93,4.55,2.93,4.55,0C117.9,125.89,113.35,125.88,113.35,128.81z"/>
	<path class="st5" d="M127.06,126.77c0,3.42,5.31,3.42,5.31,0C132.37,123.35,127.06,123.35,127.06,126.77z"/>
	<path class="st5" d="M133.72,121.46c0,3.26,5.07,3.27,5.07,0C138.79,118.2,133.72,118.19,133.72,121.46z"/>
	<path class="st5" d="M140.42,121.87c0,3.83,5.96,3.84,5.96,0C146.38,118.03,140.42,118.03,140.42,121.87z"/>
	<path class="st5" d="M146.61,125.95c0,2.97,4.62,2.98,4.62,0C151.22,122.98,146.61,122.98,146.61,125.95z"/>
	<path class="st5" d="M141.51,105.53c0,3.74,5.82,3.75,5.82,0C147.33,101.79,141.51,101.78,141.51,105.53z"/>
	<path class="st5" d="M144.12,95.93c0,3.02,4.69,3.02,4.69,0C148.81,92.92,144.12,92.91,144.12,95.93z"/>
	<path class="st5" d="M136.97,83.07c0,3.02,4.69,3.02,4.69,0C141.66,80.05,136.97,80.05,136.97,83.07z"/>
	<path class="st5" d="M126.56,74.9c0,4.33,6.72,4.33,6.72,0C133.29,70.57,126.56,70.57,126.56,74.9z"/>
	<path class="st5" d="M114.6,74.9c0,4.48,6.96,4.49,6.96,0c0-0.01,0-0.01,0-0.02c0.66-0.08,1.27-0.55,1.27-1.41
		c0-1.38-1.55-1.76-2.41-1.13C118.44,70.71,114.6,71.56,114.6,74.9z"/>
	<path class="st5" d="M121.51,94.71c0,3.99,6.2,3.99,6.2,0C127.71,90.72,121.51,90.71,121.51,94.71z"/>
	<path class="st5" d="M118.92,105.53c0,3.65,5.67,3.66,5.67,0C124.59,101.88,118.92,101.88,118.92,105.53z"/>
	<path class="st5" d="M104.52,100.22c0,2.73,4.24,2.73,4.24,0C108.76,97.5,104.52,97.49,104.52,100.22z"/>
	<path class="st5" d="M87.06,101.04c0,3.91,6.08,3.92,6.08,0C93.14,97.13,87.06,97.12,87.06,101.04z"/>
	<path class="st5" d="M86.51,93.07c0,3.57,5.55,3.58,5.55,0C92.06,89.5,86.51,89.5,86.51,93.07z"/>
	<path class="st5" d="M96.94,81.84c0,1.97,3.06,1.97,3.06,0C100.01,79.87,96.94,79.87,96.94,81.84z"/>
	<path class="st5" d="M89.74,58.56c0,2.3,2.12,3.24,3.85,2.81c0.16,3.77,6.09,3.72,6.09-0.16c0-2.34-2.17-3.29-3.92-2.84
		C95.57,54.69,89.74,54.74,89.74,58.56z"/>
	<path class="st5" d="M83.87,69.79c0,2.23,3.47,2.24,3.47,0C87.34,67.56,83.87,67.56,83.87,69.79z"/>
	<path class="st5" d="M82.92,78.78c0,3.73,5.79,3.73,5.79,0C88.71,75.05,82.92,75.05,82.92,78.78z"/>
	<path class="st5" d="M68.75,88.38c0,3.82,5.93,3.83,5.93,0C74.69,84.56,68.75,84.55,68.75,88.38z"/>
	<path class="st5" d="M52.28,74.9c0,4.27,6.63,4.27,6.63,0C58.9,70.63,52.28,70.63,52.28,74.9z"/>
	<path class="st5" d="M42.21,75.92c0,3.82,5.93,3.83,5.93,0C48.14,72.1,42.21,72.1,42.21,75.92z"/>
	<path class="st5" d="M78.55,50.19c0,0.13,0.01,0.25,0.04,0.37c-1.38,0.25-2.59,1.29-2.59,3.1c0,4.22,6.56,4.23,6.56,0
		c0-1.02-0.38-1.78-0.96-2.31c0.27-0.28,0.45-0.66,0.45-1.16C82.04,47.95,78.55,47.94,78.55,50.19z"/>
	<path class="st5" d="M63.49,55.91c0,3.5,5.43,3.5,5.43,0C68.92,52.41,63.49,52.41,63.49,55.91z"/>
	<path class="st5" d="M63.12,39.98c0,3.45,5.36,3.45,5.36,0C68.48,36.53,63.12,36.52,63.12,39.98z"/>
	<path class="st5" d="M76.99,34.26c0,2.16,3.35,2.16,3.35,0C80.34,32.11,76.99,32.1,76.99,34.26z"/>
	<path class="st5" d="M72.16,23.44c0,4.17,6.49,4.18,6.49,0C78.64,19.27,72.16,19.26,72.16,23.44z"/>
	<path class="st5" d="M66.63,8.12c0,2.83,2.97,3.75,4.89,2.76c0.01,0.49,0.13,0.98,0.4,1.44c0.19,0.33,0.44,0.61,0.72,0.83
		c0,0.03-0.02,0.05-0.02,0.08c0,0.72,0.85,0.88,1.25,0.49c0.09,0.02,0.18,0.04,0.27,0.05c0.95,0.13,1.87-0.15,2.56-0.84
		c0.38-0.38,0.64-0.83,0.78-1.35c0.15-0.54,0.15-1.08,0-1.62c-0.22-1.46-1.08-2.98-2.66-3.19c-0.69-0.09-1.31,0.1-1.81,0.49
		C72.2,3.96,66.63,4.24,66.63,8.12z"/>
	<path class="st5" d="M54.13,6.28c0,4.25,6.6,4.26,6.6,0C60.73,2.03,54.13,2.03,54.13,6.28z"/>
	<path class="st5" d="M36.01,4.24c0,3.91,6.08,3.92,6.08,0C42.09,0.33,36.01,0.32,36.01,4.24z"/>
	<path class="st5" d="M23.26,5.88c0,3.5,5.43,3.5,5.43,0C28.7,2.38,23.26,2.37,23.26,5.88z"/>
	<path class="st5" d="M27.73,21.8c0,4.05,6.29,4.06,6.29,0C34.03,17.75,27.73,17.75,27.73,21.8z"/>
	<path class="st5" d="M35.01,31.2c0,3.88,6.03,3.89,6.03,0C41.04,27.32,35.01,27.31,35.01,31.2z"/>
	<path class="st5" d="M47.77,25.62c-0.96,0.35-1.72,1.18-1.72,2.51c0,3.6,5.6,3.61,5.6,0c0-1.33-0.76-2.16-1.72-2.51
		C49.55,24.75,48.15,24.74,47.77,25.62z"/>
	<path class="st5" d="M48.92,50.39c0,4.37,6.8,4.38,6.8,0C55.72,46.02,48.92,46.01,48.92,50.39z"/>
	<path class="st5" d="M38.04,50.39c0,3.4,5.29,3.41,5.29,0C43.33,46.99,38.04,46.99,38.04,50.39z"/>
	<path class="st5" d="M28.18,44.26c-1.61-2.56-6.54-1.95-6.54,1.85c0,4.33,6.42,4.52,6.99,0.57c0.97,0.49,2.45,0.03,2.45-1.39
		C31.09,43.62,29.03,43.28,28.18,44.26z"/>
	<path class="st5" d="M18.12,54.75c0.99-0.41,1.76-1.32,1.76-2.72c0-1.4-0.77-2.3-1.76-2.71V54.75z"/>
	<path class="st5" d="M27.58,65.91c0,3.73,5.79,3.73,5.79,0C33.37,62.19,27.58,62.18,27.58,65.91z"/>
	<path class="st5" d="M18.12,114.45c0.51,0.36,1.16,0.61,1.76,0.58c1.61-0.07,2.98-1.31,2.98-2.98c0-0.76-0.33-1.57-0.87-2.11
		c-0.52-0.52-1.36-0.91-2.11-0.87c-0.65,0.03-1.26,0.26-1.76,0.62V114.45z"/>
	<g>
		<path class="st5" d="M46.47,203.29c-0.02-0.01-0.03-0.01-0.05-0.02C46.39,203.26,46.39,203.26,46.47,203.29z"/>
		<path class="st5" d="M46.93,201.27c-0.06,0.02-0.12,0.04-0.19,0.05c-0.12,0.02-0.12,0.03-0.01,0.03
			c-0.12,0.01-0.23,0.03-0.35,0.05c-0.04,0.02-0.07,0.03-0.1,0.04c-0.65,0.07-0.94,0.87-0.49,1.36c0.03,0.03,0.04,0.05,0.05,0.06
			c0.03,0.03,0.06,0.08,0.11,0.15c0.14,0.14,0.29,0.2,0.46,0.27c0.06,0.02,0.26,0.09,0.32,0.1c0.16,0.03,0.31,0.04,0.47,0.03
			c0.65-0.05,1.16-0.54,1.06-1.23C48.19,201.55,47.56,201.08,46.93,201.27z"/>
	</g>
	<path class="st5" d="M34.18,202.1c-0.45,0.17-0.64,0.7-0.29,1.08c0.11,0.11,0.22,0.23,0.32,0.34c0.01,0.02,0.05,0.07,0.07,0.09
		c0.04,0.08,0.11,0.21,0.04,0.02c0.15,0.36,0.36,0.65,0.76,0.76c0.34,0.09,0.68,0.02,0.95-0.2c0.63-0.49,0.52-1.37-0.11-1.8
		C35.43,202.08,34.76,201.88,34.18,202.1z"/>
	<path class="st5" d="M33.21,198.65c0,1.21,1.88,1.21,1.88,0C35.09,197.44,33.21,197.44,33.21,198.65z"/>
	<path class="st5" d="M52.94,182.52c0,1.3,2.02,1.3,2.02,0C54.97,181.22,52.94,181.21,52.94,182.52z"/>
	<path class="st5" d="M53.86,177.01c0,0.91,1.41,0.91,1.41,0C55.27,176.1,53.86,176.1,53.86,177.01z"/>
	<path class="st5" d="M44.44,177.41c0,0.68,1.06,0.68,1.06,0C45.5,176.73,44.44,176.73,44.44,177.41z"/>
	<path class="st5" d="M38.64,177.01c0,0.79,1.23,0.8,1.23,0C39.87,176.21,38.64,176.21,38.64,177.01z"/>
	<path class="st5" d="M30.51,177.01c0,0.21,0.33,0.21,0.33,0C30.84,176.79,30.51,176.79,30.51,177.01z"/>
	<path class="st5" d="M27.41,175.86c-0.44,0.15-0.87,0.27-1.33,0.37c-0.36,0.08-0.36,0.65,0,0.73c0.46,0.1,0.89,0.22,1.33,0.37
		c0.48,0.16,0.97-0.27,0.97-0.74C28.38,176.12,27.89,175.69,27.41,175.86z"/>
	<path class="st5" d="M18.34,162.1c0,1.42,2.21,1.43,2.21,0C20.55,160.68,18.34,160.67,18.34,162.1z"/>
	<path class="st5" d="M21.13,159.24c0,0.45,0.7,0.45,0.7,0C21.84,158.79,21.13,158.79,21.13,159.24z"/>
	<path class="st5" d="M40.5,167.61c0,1.55,2.41,1.55,2.41,0C42.91,166.06,40.5,166.06,40.5,167.61z"/>
	<path class="st5" d="M69.63,182.72c0,1.38,2.14,1.38,2.14,0C71.77,181.35,69.63,181.34,69.63,182.72z"/>
	<path class="st5" d="M76.55,185.38c0,1.4,2.18,1.41,2.18,0C78.74,183.97,76.55,183.97,76.55,185.38z"/>
	<path class="st5" d="M82.72,184.77c0,0.04,0.06,0.04,0.06,0C82.78,184.73,82.72,184.73,82.72,184.77z"/>
	<path class="st5" d="M86.19,160.26c0,0.04,0.06,0.04,0.06,0C86.25,160.22,86.19,160.22,86.19,160.26z"/>
	<path class="st5" d="M62.33,158.83c0,2.11,3.27,2.11,3.27,0C65.6,156.72,62.33,156.72,62.33,158.83z"/>
	<path class="st5" d="M61.03,150.46c0,1.4,2.18,1.41,2.18,0C63.22,149.05,61.03,149.05,61.03,150.46z"/>
	<path class="st5" d="M81.14,147.8c0,1.54,2.4,1.55,2.4,0C83.54,146.26,81.14,146.26,81.14,147.8z"/>
	<path class="st5" d="M88.71,145.15c0,1,1.55,1,1.55,0C90.26,144.15,88.71,144.15,88.71,145.15z"/>
	<path class="st5" d="M100.82,145.56c0,1.71,2.66,1.71,2.66,0C103.48,143.85,100.82,143.85,100.82,145.56z"/>
	<path class="st5" d="M99.94,149.44c0,1.53,2.38,1.54,2.38,0C102.32,147.9,99.94,147.9,99.94,149.44z"/>
	<path class="st5" d="M96.2,144.13c0,0.04,0.06,0.04,0.06,0C96.26,144.09,96.2,144.09,96.2,144.13z"/>
	<path class="st5" d="M95.79,130.65c0,0.04,0.06,0.04,0.06,0C95.85,130.61,95.79,130.61,95.79,130.65z"/>
	<path class="st5" d="M101.71,124.93c0,0.04,0.06,0.04,0.06,0C101.77,124.89,101.71,124.89,101.71,124.93z"/>
	<path class="st5" d="M100.22,117.17c0,1.7,2.64,1.7,2.64,0C102.86,115.47,100.22,115.47,100.22,117.17z"/>
	<path class="st5" d="M97.87,109.41c0,1.3,2.02,1.3,2.02,0C99.89,108.11,97.87,108.11,97.87,109.41z"/>
	<path class="st5" d="M98.45,119.42c0,1.61,2.5,1.61,2.5,0C100.95,117.81,98.45,117.81,98.45,119.42z"/>
	<path class="st5" d="M93.84,127.18c0,1.23,1.91,1.23,1.91,0C95.75,125.95,93.84,125.95,93.84,127.18z"/>
	<path class="st5" d="M94.96,122.28c0,1.63,2.53,1.63,2.53,0C97.49,120.65,94.96,120.65,94.96,122.28z"/>
	<path class="st5" d="M108.19,121.05c0,1.69,2.63,1.69,2.63,0C110.82,119.36,108.19,119.36,108.19,121.05z"/>
	<path class="st5" d="M116.7,125.14c0,1.52,2.35,1.52,2.35,0C119.05,123.62,116.7,123.62,116.7,125.14z"/>
	<path class="st5" d="M121.59,131.67c0,1,1.55,1,1.55,0C123.14,130.67,121.59,130.67,121.59,131.67z"/>
	<path class="st5" d="M114.79,140.45c0,1.61,2.5,1.61,2.5,0C117.29,138.84,114.79,138.84,114.79,140.45z"/>
	<path class="st5" d="M120.88,137.18c0,1.64,2.56,1.65,2.56,0C123.44,135.54,120.88,135.54,120.88,137.18z"/>
	<path class="st5" d="M129.76,130.65c0,1.79,2.79,1.8,2.79,0C132.54,128.86,129.76,128.85,129.76,130.65z"/>
	<path class="st5" d="M140.02,128.2c0,0.8,0.51,1.28,1.11,1.43c0.2,1.17,2.12,1.1,2.12-0.2c0-0.28-0.09-0.51-0.24-0.67
		c0.06-0.16,0.1-0.34,0.1-0.55C143.11,126.21,140.02,126.21,140.02,128.2z"/>
	<path class="st5" d="M139.65,112.68c0,1.94,3.02,1.94,3.02,0C142.66,110.74,139.65,110.74,139.65,112.68z"/>
	<path class="st5" d="M133.93,104.31c0,1.41,2.2,1.42,2.2,0C136.13,102.89,133.93,102.89,133.93,104.31z"/>
	<path class="st5" d="M129.25,107.78c0,1.13,1.75,1.13,1.75,0C131,106.65,129.25,106.65,129.25,107.78z"/>
	<path class="st5" d="M135.3,90.42c0,2.01,3.13,2.02,3.13,0C138.43,88.41,135.3,88.4,135.3,90.42z"/>
	<path class="st5" d="M139.36,87.97c0,1.52,2.35,1.52,2.35,0C141.72,86.45,139.36,86.45,139.36,87.97z"/>
	<path class="st5" d="M134.08,77.15c0,2,3.12,2.01,3.12,0C137.2,75.14,134.08,75.14,134.08,77.15z"/>
	<path class="st5" d="M111.48,65.1c0,1.92,2.99,1.92,2.99,0C114.47,63.18,111.48,63.17,111.48,65.1z"/>
	<path class="st5" d="M107.32,62.85c0,1.76,2.73,1.76,2.73,0C110.05,61.1,107.32,61.09,107.32,62.85z"/>
	<path class="st5" d="M103.83,59.99c0,1.52,2.35,1.52,2.35,0C106.19,58.48,103.83,58.47,103.83,59.99z"/>
	<path class="st5" d="M101.96,78.37c0,0.77,1.19,0.77,1.19,0C103.15,77.6,101.96,77.6,101.96,78.37z"/>
	<path class="st5" d="M106.03,90.01c0,1.84,2.86,1.84,2.86,0C108.89,88.17,106.03,88.17,106.03,90.01z"/>
	<path class="st5" d="M98.63,91.85c0,1.64,2.54,1.64,2.54,0C101.17,90.21,98.63,90.21,98.63,91.85z"/>
	<path class="st5" d="M88.42,88.17c0,1.64,2.56,1.65,2.56,0C90.97,86.53,88.42,86.53,88.42,88.17z"/>
	<path class="st5" d="M83.32,99.81c0,1.64,2.54,1.64,2.54,0C85.86,98.18,83.32,98.18,83.32,99.81z"/>
	<path class="st5" d="M78.09,104.51c0,1.79,2.79,1.8,2.79,0C80.88,102.72,78.09,102.72,78.09,104.51z"/>
	<path class="st5" d="M67.45,92.46c0,2.09,3.25,2.09,3.25,0C70.69,90.37,67.45,90.37,67.45,92.46z"/>
	<path class="st5" d="M67.29,88.38c0,0.71,1.11,0.71,1.11,0C68.4,87.67,67.29,87.67,67.29,88.38z"/>
	<path class="st5" d="M79.2,71.43c0,1.15,1.78,1.15,1.78,0C80.99,70.28,79.2,70.28,79.2,71.43z"/>
	<path class="st5" d="M85.86,66.73c0,1.52,2.35,1.52,2.35,0C88.22,65.22,85.86,65.21,85.86,66.73z"/>
	<path class="st5" d="M84.15,60.2c0,0.04,0.06,0.04,0.06,0C84.21,60.16,84.15,60.16,84.15,60.2z"/>
	<path class="st5" d="M74.45,134.94c0,0.96,1.49,0.96,1.49,0C75.94,133.98,74.45,133.98,74.45,134.94z"/>
	<path class="st5" d="M64.32,121.44c-0.52-0.59-1.77-0.38-1.77,0.64c0,1.28,2,1.29,2,0c0-0.01,0-0.02,0-0.03
		c0.47,0.47,1.51,0.28,1.51-0.59C66.06,120.35,64.35,120.34,64.32,121.44z"/>
	<path class="st5" d="M58.91,117.17c0,1.51,2.34,1.51,2.34,0C61.25,115.67,58.91,115.66,58.91,117.17z"/>
	<path class="st5" d="M55.05,110.18c-0.89,0.25-1.37,1.55-0.58,2.21c0.16,0.14,0.32,0.25,0.48,0.34c0.25,0.19,0.52,0.31,0.86,0.22
		c0.33-0.09,0.5-0.33,0.62-0.62c0.1-0.16,0.18-0.33,0.25-0.52C57.03,110.83,55.96,109.93,55.05,110.18z"/>
	<path class="st5" d="M69.47,134.05c-0.41,0.18-0.48,0.76-0.29,1.11c0.29,0.52,0.77,0.83,1.24,1.16c0.72,0.51,1.77-0.02,1.98-0.81
		c0.23-0.85-0.43-1.69-1.3-1.71C70.53,133.79,70.01,133.81,69.47,134.05z"/>
	<path class="st5" d="M45.53,140.25c0,0.59,0.92,0.59,0.92,0C46.45,139.66,45.53,139.66,45.53,140.25z"/>
	<path class="st5" d="M44.06,148.62c0,1.43,2.23,1.43,2.23,0C46.29,147.19,44.06,147.19,44.06,148.62z"/>
	<path class="st5" d="M35.92,141.47c0,1.4,2.18,1.41,2.18,0C38.1,140.07,35.92,140.07,35.92,141.47z"/>
	<path class="st5" d="M31.47,133.1c0,1.34,2.08,1.34,2.08,0C33.55,131.76,31.47,131.76,31.47,133.1z"/>
	<path class="st5" d="M27.39,129.42c0,1.6,2.48,1.6,2.48,0C29.88,127.83,27.39,127.82,27.39,129.42z"/>
	<path class="st5" d="M18.12,138.33v1.39c0.55,0.52,1.71,0.29,1.71-0.69C19.83,138.04,18.67,137.81,18.12,138.33z"/>
	<path class="st5" d="M18.12,45.88v1.67c0.72,1.12,2.89,0.85,2.89-0.83C21.01,45.04,18.84,44.76,18.12,45.88z"/>
	<path class="st5" d="M28.6,58.56c0,1.63,2.53,1.63,2.53,0C31.12,56.94,28.6,56.93,28.6,58.56z"/>
	<path class="st5" d="M28.21,74.9c0,0.8,1.25,0.81,1.25,0C29.46,74.1,28.21,74.09,28.21,74.9z"/>
	<path class="st5" d="M24.7,81.03c0,1.9,2.96,1.91,2.96,0C27.66,79.12,24.7,79.12,24.7,81.03z"/>
	<path class="st5" d="M33.09,81.03c0,2.15,3.35,2.16,3.35,0C36.43,78.87,33.09,78.87,33.09,81.03z"/>
	<path class="st5" d="M42.6,81.84c0,2,3.1,2,3.1,0C45.7,79.85,42.6,79.84,42.6,81.84z"/>
	<path class="st5" d="M43.55,96.55c0,1.03,1.61,1.04,1.61,0C45.16,95.51,43.55,95.51,43.55,96.55z"/>
	<path class="st5" d="M29.17,107.17c0,1.94,3.02,1.94,3.02,0C32.18,105.23,29.17,105.22,29.17,107.17z"/>
	<path class="st5" d="M27.47,101.86c0,1.76,2.73,1.76,2.73,0C30.2,100.1,27.47,100.1,27.47,101.86z"/>
	<path class="st5" d="M55.35,71.22c0,0.04,0.06,0.04,0.06,0C55.42,71.18,55.35,71.18,55.35,71.22z"/>
	<path class="st5" d="M50.59,65.1c0,2.23,3.46,2.23,3.46,0C54.05,62.87,50.59,62.87,50.59,65.1z"/>
	<path class="st5" d="M58.81,96.75c0,0.85,1.32,0.85,1.32,0C60.13,95.9,58.81,95.9,58.81,96.75z"/>
	<path class="st5" d="M51.43,95.53c0,2.2,3.42,2.2,3.42,0C54.85,93.33,51.43,93.32,51.43,95.53z"/>
	<path class="st5" d="M66.64,64.69c0,1.28,2,1.29,2,0C68.64,63.4,66.64,63.4,66.64,64.69z"/>
	<path class="st5" d="M76.27,60.81c0,0.98,1.52,0.98,1.52,0C77.79,59.83,76.27,59.83,76.27,60.81z"/>
	<path class="st5" d="M86.89,58.15c0,0.45,0.7,0.45,0.7,0C87.59,57.7,86.89,57.7,86.89,58.15z"/>
	<path class="st5" d="M72,42.43c0,1.49,2.31,1.49,2.31,0C74.31,40.94,72,40.94,72,42.43z"/>
	<path class="st5" d="M77.61,38.14c0,2.14,3.33,2.15,3.33,0C80.94,36,77.61,35.99,77.61,38.14z"/>
	<path class="st5" d="M76.87,31.4c0,1.52,2.37,1.53,2.37,0C79.24,29.88,76.87,29.88,76.87,31.4z"/>
	<path class="st5" d="M64.83,28.34c0,2.03,3.16,2.04,3.16,0C67.99,26.31,64.83,26.3,64.83,28.34z"/>
	<path class="st5" d="M60.24,25.48c0,2.16,3.36,2.17,3.36,0C63.6,23.32,60.24,23.31,60.24,25.48z"/>
	<path class="st5" d="M60.32,18.74c0,0.95,0.77,1.39,1.51,1.34c-0.02,0.09-0.04,0.19-0.04,0.3c0,1.48,2.3,1.48,2.3,0
		c0-0.71-0.53-1.08-1.08-1.1c0.06-0.16,0.1-0.33,0.1-0.53C63.11,16.95,60.32,16.95,60.32,18.74z"/>
	<path class="st5" d="M53.88,15.47c0,1.67,2.6,1.68,2.6,0C56.48,13.8,53.88,13.8,53.88,15.47z"/>
	<path class="st5" d="M46.99,20.99c0,0.81,1.26,0.81,1.26,0C48.26,20.17,46.99,20.17,46.99,20.99z"/>
	<path class="st5" d="M36.6,19.15c0,1.84,2.86,1.84,2.86,0C39.46,17.31,36.6,17.31,36.6,19.15z"/>
	<path class="st5" d="M32.22,16.7c0,1.95,3.03,1.95,3.03,0C35.25,14.75,32.22,14.75,32.22,16.7z"/>
	<path class="st5" d="M41.32,35.28c0,2.07,3.22,2.07,3.22,0C44.54,33.21,41.32,33.21,41.32,35.28z"/>
	<path class="st5" d="M41.26,45.29c0,1.1,1.71,1.1,1.71,0C42.97,44.19,41.26,44.19,41.26,45.29z"/>
	<path class="st5" d="M31.95,43.45c0,2.04,3.17,2.05,3.17,0C35.12,41.41,31.95,41.41,31.95,43.45z"/>
	<path class="st5" d="M38.81,57.34c0,1.1,1.71,1.1,1.71,0C40.52,56.24,38.81,56.24,38.81,57.34z"/>
	<path class="st5" d="M43.51,61.42c0,1.62,2.51,1.62,2.51,0C46.02,59.8,43.51,59.8,43.51,61.42z"/>
	<path class="st5" d="M40.53,63.67c0,1.51,2.34,1.51,2.34,0C42.87,62.16,40.53,62.16,40.53,63.67z"/>
	<path class="st5" d="M56.88,23.44c0,1.49,2.31,1.49,2.31,0C59.2,21.95,56.88,21.95,56.88,23.44z"/>
	<path class="st5" d="M30.49,32.47c-0.53-1.4-3-1.21-3,0.57c0,1.87,2.72,1.99,3.07,0.35c0.5,1.04,2.4,0.85,2.4-0.56
		C32.96,31.34,30.84,31.22,30.49,32.47z"/>
	<path class="st5" d="M27.08,25.89c0,1.74,2.7,1.74,2.7,0C29.78,24.15,27.08,24.15,27.08,25.89z"/>
	<path class="st5" d="M25.73,30.59c0,1.38,2.14,1.38,2.14,0C27.87,29.21,25.73,29.21,25.73,30.59z"/>
	<path class="st5" d="M34.59,48.56c0,2.06,3.2,2.06,3.2,0C37.79,46.5,34.59,46.49,34.59,48.56z"/>
	<path class="st5" d="M26.83,53.66c0,1.8,2.8,1.8,2.8,0C29.63,51.86,26.83,51.86,26.83,53.66z"/>
	<path class="st5" d="M41.96,26.09c0,0.46,0.72,0.46,0.72,0C42.67,25.63,41.96,25.63,41.96,26.09z"/>
	<path class="st5" d="M54.94,19.15c0,1.37,2.13,1.37,2.13,0C57.06,17.78,54.94,17.78,54.94,19.15z"/>
	<path class="st5" d="M62.08,11.8c0,1.37,2.13,1.37,2.13,0C64.21,10.43,62.08,10.43,62.08,11.8z"/>
	<path class="st5" d="M75.16,17.52c0,0.04,0.06,0.04,0.06,0C75.22,17.48,75.16,17.48,75.16,17.52z"/>
	<path class="st5" d="M80.4,23.44c0,1.97,3.06,1.97,3.06,0C83.46,21.47,80.4,21.47,80.4,23.44z"/>
	<path class="st5" d="M80.3,29.56c0,1.57,2.44,1.57,2.44,0C82.75,27.99,80.3,27.99,80.3,29.56z"/>
	<path class="st5" d="M57.37,14.66c0,2.18,3.39,2.18,3.39,0C60.76,12.48,57.37,12.47,57.37,14.66z"/>
	<path class="st5" d="M43.96,14.45c0,1.56,2.43,1.56,2.43,0C46.39,12.89,43.96,12.89,43.96,14.45z"/>
	<path class="st5" d="M40.65,15.07c0,0.04,0.06,0.04,0.06,0C40.71,15.03,40.65,15.03,40.65,15.07z"/>
	<path class="st4" d="M55.48,33.04c0,0.3,0.1,0.54,0.26,0.71c-0.64,0.16-1.19,0.67-1.19,1.53c0,2.13,3.3,2.13,3.3,0
		c0-0.61-0.28-1.04-0.66-1.3c0.32-0.17,0.55-0.48,0.55-0.95C57.74,31.59,55.48,31.58,55.48,33.04z"/>
	<path class="st4" d="M50.05,32.22c0,1.88,2.91,1.88,2.91,0C52.96,30.34,50.05,30.34,50.05,32.22z"/>
	<path class="st4" d="M37.46,40.59c0,0.46,0.72,0.46,0.72,0C38.18,40.13,37.46,40.13,37.46,40.59z"/>
	<path class="st4" d="M35.28,44.88c0,0.12,0.19,0.12,0.19,0C35.47,44.76,35.28,44.76,35.28,44.88z"/>
	<path class="st4" d="M29.77,43.45c0,0.91,1.41,0.91,1.41,0C31.18,42.55,29.77,42.54,29.77,43.45z"/>
	<path class="st4" d="M26.8,28.14c0,1.84,2.86,1.84,2.86,0C29.65,26.3,26.8,26.29,26.8,28.14z"/>
	<path class="st4" d="M33.62,22.21c0,1.99,3.09,1.99,3.09,0C36.71,20.23,33.62,20.22,33.62,22.21z"/>
	<path class="st4" d="M35.21,11.8c0,2.05,3.19,2.05,3.19,0C38.4,9.75,35.21,9.74,35.21,11.8z"/>
	<path class="st4" d="M65.97,16.09c0,1.88,2.93,1.89,2.93,0C68.9,14.2,65.97,14.2,65.97,16.09z"/>
	<path class="st4" d="M71.9,26.91c0,1.61,2.5,1.61,2.5,0C74.4,25.3,71.9,25.3,71.9,26.91z"/>
	<path class="st4" d="M76.9,49.17c0,1.49,2.31,1.49,2.31,0C79.21,47.68,76.9,47.68,76.9,49.17z"/>
	<path class="st4" d="M92.35,69.18c0,1.57,2.44,1.57,2.44,0C94.79,67.61,92.35,67.61,92.35,69.18z"/>
	<path class="st4" d="M95.85,76.94c0,1.01,1.57,1.01,1.57,0C97.42,75.93,95.85,75.93,95.85,76.94z"/>
	<path class="st4" d="M83.8,80.01c0,2.06,3.2,2.06,3.2,0C87.01,77.94,83.8,77.94,83.8,80.01z"/>
	<path class="st4" d="M74.98,80.21c0,1.33,2.07,1.33,2.07,0C77.04,78.88,74.98,78.88,74.98,80.21z"/>
	<path class="st4" d="M72.51,82.66c0,2.14,3.33,2.15,3.33,0C75.84,80.52,72.51,80.51,72.51,82.66z"/>
	<path class="st4" d="M106.05,96.14c0,0.24,0.37,0.24,0.37,0C106.42,95.9,106.05,95.9,106.05,96.14z"/>
	<path class="st4" d="M108.96,113.29c0,1.75,2.71,1.75,2.71,0C111.68,111.55,108.96,111.54,108.96,113.29z"/>
	<path class="st4" d="M110.96,94.3c0,2.07,3.22,2.07,3.22,0C114.17,92.23,110.96,92.23,110.96,94.3z"/>
	<path class="st4" d="M113.24,92.05c0,1.76,2.73,1.76,2.73,0C115.97,90.3,113.24,90.3,113.24,92.05z"/>
	<path class="st4" d="M121.6,91.85c0,2.3,3.58,2.3,3.58,0C125.18,89.55,121.6,89.55,121.6,91.85z"/>
	<path class="st4" d="M128.31,95.12c0,1.81,2.81,1.81,2.81,0C131.13,93.31,128.31,93.3,128.31,95.12z"/>
	<path class="st4" d="M134.76,102.47c0,1.66,2.58,1.67,2.58,0C137.34,100.81,134.76,100.8,134.76,102.47z"/>
	<path class="st4" d="M131.09,129.42c0,2.17,3.37,2.17,3.37,0C134.47,127.25,131.09,127.25,131.09,129.42z"/>
	<path class="st4" d="M113.34,139.63c0,1.63,2.53,1.63,2.53,0C115.87,138.01,113.34,138.01,113.34,139.63z"/>
	<path class="st4" d="M103.9,142.29c0,1.42,2.21,1.43,2.21,0C106.11,140.87,103.9,140.86,103.9,142.29z"/>
	<path class="st4" d="M110.58,147.19c0,0.02,0.01,0.03,0.01,0.04c-0.46,0.05-0.89,0.38-0.89,0.98c0,1.32,2.05,1.32,2.05,0
		c0-0.27-0.09-0.48-0.22-0.64c0.09-0.09,0.16-0.21,0.16-0.38C111.69,146.48,110.58,146.48,110.58,147.19z"/>
	<path class="st4" d="M112.46,145.56c0,1.19,1.85,1.19,1.85,0C114.31,144.37,112.46,144.36,112.46,145.56z"/>
	<path class="st4" d="M120.24,136.98c0,1.69,2.63,1.69,2.63,0C122.86,135.29,120.24,135.29,120.24,136.98z"/>
	<path class="st4" d="M93.53,163.32c0,1.64,2.54,1.64,2.54,0C96.07,161.69,93.53,161.69,93.53,163.32z"/>
	<path class="st4" d="M91.12,168.02c0,1.58,2.46,1.58,2.46,0C93.58,166.44,91.12,166.44,91.12,168.02z"/>
	<path class="st4" d="M87.1,173.94c0,1.76,2.73,1.76,2.73,0C89.83,172.19,87.1,172.18,87.1,173.94z"/>
	<path class="st4" d="M84.85,181.09c0,0.45,0.7,0.45,0.7,0C85.55,180.64,84.85,180.64,84.85,181.09z"/>
	<path class="st4" d="M81.05,189.67c0,1.4,2.17,1.4,2.17,0C83.22,188.27,81.05,188.27,81.05,189.67z"/>
	<path class="st4" d="M80.88,194.77c0,0.04,0.06,0.04,0.06,0C80.94,194.73,80.88,194.73,80.88,194.77z"/>
	<path class="st4" d="M68.83,201.1c0,1.36,2.11,1.36,2.11,0C70.94,199.74,68.83,199.74,68.83,201.1z"/>
	<path class="st4" d="M61.52,201.31c0,2.1,3.26,2.1,3.26,0C64.78,199.21,61.52,199.21,61.52,201.31z"/>
	<path class="st4" d="M40.98,199.88c0,1.46,2.27,1.46,2.27,0C43.25,198.42,40.98,198.42,40.98,199.88z"/>
	<path class="st4" d="M35.93,200.29c0,1.91,2.97,1.92,2.97,0C38.9,198.37,35.93,198.37,35.93,200.29z"/>
	<path class="st4" d="M44.29,191.91c0,1.93,3,1.93,3,0C47.29,189.98,44.29,189.98,44.29,191.91z"/>
	<path class="st4" d="M56.25,186.81c0,2.04,3.17,2.05,3.17,0C59.42,184.77,56.25,184.76,56.25,186.81z"/>
	<path class="st4" d="M59.11,179.25c0,1.77,2.76,1.78,2.76,0C61.87,177.48,59.11,177.48,59.11,179.25z"/>
	<path class="st4" d="M51.27,169.86c0,0.04,0.06,0.04,0.06,0C51.33,169.82,51.27,169.82,51.27,169.86z"/>
	<path class="st4" d="M51.47,171.49c0,0.04,0.06,0.04,0.06,0C51.54,171.45,51.47,171.45,51.47,171.49z"/>
	<path class="st4" d="M52.09,170.68c0,0.04,0.06,0.04,0.06,0C52.15,170.64,52.09,170.64,52.09,170.68z"/>
	<path class="st4" d="M56.38,169.04c0,0.04,0.06,0.04,0.06,0C56.44,169,56.38,169,56.38,169.04z"/>
	<path class="st4" d="M68.44,171.49c0,1.33,2.07,1.33,2.07,0C70.51,170.16,68.44,170.16,68.44,171.49z"/>
	<path class="st4" d="M70.65,170.06c0,1.9,2.96,1.91,2.96,0C73.61,168.16,70.65,168.16,70.65,170.06z"/>
	<path class="st4" d="M65.79,161.89c0,2.12,3.29,2.12,3.29,0C69.08,159.78,65.79,159.77,65.79,161.89z"/>
	<path class="st4" d="M53.48,169.65c0,1.93,3,1.93,3,0C56.48,167.72,53.48,167.72,53.48,169.65z"/>
	<path class="st4" d="M48.59,172.72c0,1.91,2.97,1.92,2.97,0C51.56,170.8,48.59,170.8,48.59,172.72z"/>
	<path class="st4" d="M48.11,168.84c0,2,3.12,2.01,3.12,0C51.23,166.83,48.11,166.83,48.11,168.84z"/>
	<path class="st4" d="M56.42,157.81c0,2.08,3.23,2.08,3.23,0C59.66,155.73,56.42,155.73,56.42,157.81z"/>
	<path class="st4" d="M57.85,151.89c0,2.08,3.23,2.08,3.23,0C61.08,149.81,57.85,149.81,57.85,151.89z"/>
	<path class="st4" d="M52.47,152.3c0,1.91,2.97,1.92,2.97,0C55.44,150.38,52.47,150.38,52.47,152.3z"/>
	<path class="st4" d="M39.71,156.79c0,1.77,2.76,1.78,2.76,0C42.47,155.01,39.71,155.01,39.71,156.79z"/>
	<path class="st4" d="M30.87,155.56c0,1.86,2.89,1.86,2.89,0C33.75,153.71,30.87,153.7,30.87,155.56z"/>
	<path class="st4" d="M26.05,149.85c0,0.98,0.75,1.48,1.51,1.51c0.74,0.82,2.47,0.53,2.47-0.89c0-0.73-0.46-1.16-1-1.3
		C28.41,147.87,26.05,148.09,26.05,149.85z"/>
	<path class="st4" d="M32.25,168.84c0,0.6,0.93,0.6,0.93,0C33.18,168.24,32.25,168.24,32.25,168.84z"/>
	<path class="st4" d="M30.68,165.77c0,2.1,3.26,2.1,3.26,0C33.94,163.68,30.68,163.67,30.68,165.77z"/>
	<path class="st4" d="M18.12,159.75c0.83,0.05,1.69-0.46,1.69-1.53c0-1.07-0.86-1.57-1.69-1.53V159.75z"/>
	<path class="st4" d="M28.81,122.07c0,0.04,0.06,0.04,0.06,0C28.87,122.03,28.81,122.03,28.81,122.07z"/>
	<path class="st4" d="M31.88,113.7c0,1.87,2.9,1.87,2.9,0C34.78,111.83,31.88,111.83,31.88,113.7z"/>
	<path class="st4" d="M26.97,112.27c0,2.14,3.33,2.15,3.33,0C30.3,110.13,26.97,110.12,26.97,112.27z"/>
	<path class="st4" d="M53.8,116.56c0,1.77,2.76,1.78,2.76,0C56.56,114.79,53.8,114.78,53.8,116.56z"/>
	<path class="st4" d="M53.93,102.06c0,1.35,2.1,1.35,2.1,0C56.03,100.71,53.93,100.71,53.93,102.06z"/>
	<path class="st4" d="M43.3,93.07c0,2.14,3.33,2.15,3.33,0C46.64,90.93,43.3,90.93,43.3,93.07z"/>
	<path class="st4" d="M37.25,95.32c0,2.05,3.19,2.05,3.19,0C40.44,93.27,37.25,93.27,37.25,95.32z"/>
	<path class="st4" d="M44.44,86.95c0,2,3.1,2,3.1,0C47.54,84.95,44.44,84.95,44.44,86.95z"/>
	<path class="st4" d="M21.45,78.98c0,2.14,3.33,2.15,3.33,0C24.79,76.84,21.45,76.84,21.45,78.98z"/>
	<path class="st2" d="M2.09-0.45h11.28c0.1,1.7-0.02,3.47-0.44,5.04c-0.29,1.05-0.78,1.9-1.3,2.83c-0.54,0.96-0.74,0.94-1.05,2.23
		c-0.44,1.86-0.28,0.9,0.5,2c0.02,0.04,0.06,0.07,0.08,0.11c0.29,0.4,0.56,0.74,0.79,1.05c0,0,0.01,0,0.01,0.01v0.01
		c0.51,0.69,0.85,1.33,0.88,2.55c0.06,1.98-0.36,4.4-1,6.28c-0.69,2.01-2.08,3.34-1.81,5.16c-0.01,0.01-0.01,0.01,0,0.01
		c0.07,0.47,0.25,0.98,0.59,1.54c0.42,0.7,0.93,1.38,1.35,2.09c0,0.01,0,0.01,0,0.01c0.34,0.58,0.62,1.18,0.78,1.84
		c0.34,1.45-0.05,2.71-0.76,3.97c-0.36,0.63-1.09,1.35-1.42,2.08c-0.08,0.18-0.13,0.36-0.15,0.53c-0.12,1.11,0.69,1.7,1.1,2.61
		c0.69,1.54,0.47,3.26,0.2,4.93c-0.09,0.55-0.18,1.09-0.25,1.62c-0.05,0.39-0.1,0.77-0.15,1.16c-0.11,0.8-0.21,1.61-0.32,2.41
		c-0.18,1.41-0.34,2.81-0.44,4.23c-0.02,0.36-0.04,0.71-0.05,1.06v0.02c-0.04,1.05,0,2.06,0.1,3.08c0,0.01,0.01,0.03,0.01,0.04v0.03
		c0.17,1.68,0.52,3.33,1.07,5.02c0.61,1.86,1.23,3.7,1.02,5.68c-0.09,0.85-0.31,1.64-0.57,2.43v0.01c-0.33,1-0.73,1.98-1,3
		c-0.01,0.01-0.01,0.01-0.01,0.02c-0.23,0.88-0.38,1.76-0.31,2.73c0.18,2.37,1.25,4.58,1.45,6.96c0.18,2.14-0.34,4.1-0.99,6.13
		c-0.43,1.32-0.75,2.56-0.93,3.81c-0.13,0.91-0.18,1.84-0.15,2.81c-0.01,0.02,0,0.03,0,0.04c0.02,0.58,0.07,1.18,0.15,1.8
		c0.27,2,0.4,4.01,0.45,6.02c0.04,1.59,0.04,3.19,0.01,4.78c-0.02,1.75-0.07,3.5-0.09,5.25c0,0,0,0.01,0,0.01
		c-0.01,0.09-0.01,0.19-0.01,0.28c0,0.13-0.02,0.25-0.06,0.35c0,0,0,0.01,0,0.01c-0.04,0.11-0.09,0.21-0.15,0.3
		c0.62,4.31,3.01,7.43,1.13,11.88c-0.45,1.06-1,2.05-1.45,3.04l-0.01,0.01v0.01c-0.61,1.34-1.02,2.71-0.72,4.35
		c0.25,1.35,0.74,2.63,0.94,3.96c0,0,0,0.01,0,0.01v0.01c0.1,0.64,0.13,1.29,0.04,1.96c-0.1,0.72-0.41,1.35-0.55,2.06
		c-0.41,2.02,0.36,2.56,0.97,4.25c0.2,0.57,0.35,1.08,0.41,1.57v0.01c0.1,0.81,0.01,1.57-0.35,2.52c-0.29,0.77-0.8,1.46-1.14,2.21
		c-0.09,0.18-0.16,0.37-0.21,0.56c-0.05,0.17-0.09,0.33-0.11,0.48c-0.18,1.14,0.39,1.62,1.02,2.68c1.01,1.68,0.96,3.06,0.86,5.01
		c-0.04,0.67-0.01,1.35,0.04,2.04v0.03c0.01,0.2,0.03,0.4,0.06,0.6c0,0,0,0,0,0.01s0,0.01,0,0.01c0.37,3.42,1.42,6.93,0.58,10.25
		c-0.36,1.42-1.26,2.3-0.83,3.93c0.13,0.52,0.73,1.56,0.91,2.08c0.55,1.62,0.75,3.34,0.62,5.05c0,0,0,0.01,0,0.01v0.01
		c-0.02,0.35-0.06,0.7-0.12,1.05c-0.06,0.36-0.14,0.7-0.21,1.02c0,0.01,0,0.01,0,0.01c-0.2,0.81-0.34,1.53,0.16,2.45
		c0.16,0.29,0.41,0.49,0.64,0.73c0.01,0.01,0.01,0.01,0.01,0.01c0.13,0.15,0.26,0.3,0.34,0.5c0.59,1.39-0.13,2.49-0.58,3.76
		c-1.13,3.23,0.61,4.47,1.03,7.35c0.18,1.23,0.07,2.38-0.23,3.5H2.09l-1.23-7.19c0.69-1.74,0.42-3.08,0.07-4.91
		c-0.02-0.13-0.05-0.27-0.07-0.4c-0.29-1.57-0.44-3.09-0.2-4.71c0.06-0.43,0.13-0.84,0.2-1.23c0.28-1.61,0.53-2.97,0-4.55
		c-0.11-0.33-0.25-0.67-0.44-1.02c-1.46-2.78-1.69-4.59-0.51-7.53c0.53-1.3,0.86-2.31,0.95-3.3c0.04-0.37,0.04-0.74,0-1.11
		c-0.07-0.78-0.31-1.61-0.72-2.63c-0.56-1.4-1.11-2.71-1.14-4.25c-0.02-2.11,1.04-4.12,0.96-6.22c-0.07-1.9-1.35-3.48-1.51-5.37
		c-0.23-2.67,1.45-4.81,2.41-7.15c0.37-0.91,0.64-1.84,0.65-2.86c0.01-1.35-0.27-2.65-0.65-3.93c-0.77-2.65-1.94-5.22-1.77-8.06
		c0.3-4.92,2.94-8.69,0.88-13.69c-0.09-0.21-0.11-0.41-0.09-0.58c-0.64-1.21-0.6-2.54-0.14-3.9c0.32-0.95,0.84-1.75,1.12-2.7
		c0.04-0.12,0.07-0.24,0.1-0.37c0.21-0.96,0.13-1.77-0.1-2.57c-0.21-0.74-0.55-1.46-0.91-2.26c-1.89-4.21-1.27-7.39-0.44-11.77
		c0.57-3,0.09-5.3-0.66-8.18c-0.42-1.61-0.74-3.25-0.43-4.91c0.33-1.83,1.4-3.33,2.13-5.02c0.13-0.31,0.24-0.61,0.31-0.91
		c0.28-1.05,0.22-2.02,0-2.99c-0.21-0.96-0.59-1.91-0.96-2.93c-0.57-1.56-1.02-3.13-0.72-4.8c0.13-0.69,0.41-1.3,0.66-1.95
		c0.58-1.54,0.51-2.74,0.26-4.37c-0.28-1.78-0.07-3.23,0.39-4.98c0.74-2.84,0.21-5.11-0.38-7.92c-0.67-3.15-0.06-5.61,0.75-8.36
		c0.25-0.83,0.5-1.68,0.75-2.59c0.72-2.63-0.13-4.91-0.75-7.27C0.47,25.53,0.17,24,0.42,22.33c0.1-0.69,0.26-1.37,0.44-2.05
		c0.43-1.67,0.99-3.3,1.18-5.01c0.29-2.54-0.28-5.01-0.86-7.47C1.07,7.34,0.96,6.89,0.86,6.44L2.09-0.45z"/>
	<path class="st1" d="M13.73-0.45h10.11c0.21,1.59-0.12,3.21-0.11,4.79v0.01c0,0.67-0.03,1.34-0.11,1.99
		c-0.03,0.26-0.06,0.51-0.09,0.75c-0.15,1.49-0.09,2.52,0.81,3.97c0.38,0.62,0.7,1.17,0.73,1.93c0.02,0.88-0.48,1.33-0.7,2.08
		c-0.59,1.92-0.24,2.74,0.39,4.42c0.74,1.99,0.01,3.77-0.79,5.61c-0.91,2.07-1.25,3.61-0.49,5.72c0.45,1.25,1.08,2.42,1.41,3.71
		c0.49,2,0.07,3.64-0.71,5.5c-0.48,1.15-0.94,2.14-0.93,3.19c0.01,0.57,0.16,1.16,0.53,1.8c0.52,0.9,1.08,1.68,1.29,2.73
		c0.12,0.62,0.13,1.21,0.05,1.76c-0.1,0.75-0.36,1.45-0.73,2.12c-0.13,0.23-0.27,0.45-0.42,0.67c0,0.13-0.02,0.28-0.08,0.44
		c-1.05,2.73-0.31,4.48,0.85,6.95c0.57,1.21,0.92,2.34,0.7,3.69c-0.17,1.09-0.73,2-1.18,2.99c-0.55,1.24-0.97,2.32-0.95,3.69
		c0.02,1.27,0.55,2.03,0.87,3.2c0.4,1.45,0.24,2.93-0.04,4.42c-0.18,0.96-0.39,1.91-0.53,2.86c-0.16,1.08-0.22,2.17,0.01,3.25
		c0.62,2.95-0.42,3.73-1.52,6.29c-0.04,0.09-0.08,0.18-0.12,0.27c0,0.01-0.01,0.01-0.01,0.01c0.01,0.15-0.02,0.31-0.09,0.48
		c-0.39,0.94,1.08,2.11,1.96,3.08c0.23,0.26,0.42,0.5,0.52,0.72c0.37,0.81,0.45,1.68,0.39,2.55c0,0,0,0,0,0.01
		c-0.01,0.04-0.01,0.09-0.01,0.13c0,0.01,0,0.02-0.01,0.04c-0.01,0.11-0.02,0.23-0.04,0.34c-0.18,1.4-0.85,2.53-1.28,3.85
		c-0.71,2.18-0.17,3.9,0.18,6.06c0.5,3.1-0.22,6.26,0.1,9.38c0.01,0.09,0.02,0.18,0.02,0.27c0.15,1.46,0.32,2.87,0.26,4.28
		c-0.05,1.17-0.26,2.33-0.77,3.49c-0.69,1.56-1.48,2.66-1.5,4.07c-0.01,0.56,0.12,1.18,0.42,1.89c0.4,0.94,1.07,1.78,1.4,2.76
		c0.02,0.07,0.04,0.13,0.06,0.2c0.85,2.8-0.79,4.53-1.45,7.18c-0.74,2.95,1.68,5.64,1.24,8.62c-0.18,1.23-1.41,2.73-1.13,3.96
		c0.26,1.13,0.97,1.44,0.98,2.65v0.09c0,0.06-0.01,0.1-0.02,0.16v0.02c0.46,2.43-1.12,3.36-1.73,5.36
		c-0.04,0.14-0.09,0.29-0.12,0.45c-0.28,1.32,0.75,2.46,1.12,3.67c0.32,1.07,0.3,2.17,0.2,3.27c0,0.02-0.01,0.05-0.01,0.07v0.01
		c-0.08,0.77-0.21,1.51-0.29,2.24c-0.1,0.93-0.13,1.85,0.12,2.82c0.28,1.09,0.81,2.04,0.85,3.18c0.03,0.83-0.17,1.5-0.5,2.25
		c-0.75,1.71-0.75,2.86,0.04,4.49c0.88,1.86,1.04,3.05,0.34,5.04c-0.39,1.12-1.24,2.3-1.21,3.52c0.03,1.3,1.14,2.36,1.55,3.56
		c0.74,2.13-0.67,3.7-0.59,5.76c0.09,2.15,0.51,4.08,0.65,6.12h-9.89c-0.21-0.56-1.31-1.13-1.27-1.76c0.09-1.27,0.81-2.39,0.57-3.75
		c-0.21-1.19-0.78-2-0.67-3.29c0.08-0.99,0.43-1.89,0.75-2.83c0.44-1.35,0.39-2.38,0.12-3.49c0,0,0,0-0.01-0.01
		c-0.11-0.48-0.26-0.97-0.43-1.51c-0.18-0.57-0.32-1.11-0.36-1.67c0,0,0,0,0-0.01c-0.02-0.37-0.01-0.75,0.09-1.15
		c0.07-0.32,0.16-0.62,0.25-0.91v-0.01c0-0.01,0-0.01,0-0.01c0.3-1.05,0.6-2.02,0.39-3.25c-0.27-1.61-1.05-3.23-1.57-4.77
		c-0.13-0.39-0.06-0.72,0.11-0.97c0.17-0.69,0.68-1.39,1.05-2.11c0.7-1.34-0.02-2.02-0.12-3.34c-0.04-0.54,0.12-0.98,0.18-1.51
		c0.2-1.73,0.15-1.81-0.55-3.13c-0.45-0.84-0.67-1.56-0.77-2.22c0-0.01,0-0.01,0-0.01s0-0.01,0-0.01c-0.02-0.2-0.04-0.4-0.06-0.6
		v-0.03c-0.04-1.15,0.22-2.27,0.31-3.84c0.1-1.91-1.27-2.84-1.78-4.48c-0.15-0.47-0.21-0.94-0.21-1.4c-0.01-0.35,0.02-0.7,0.09-1.04
		c0.06-0.38,0.15-0.76,0.27-1.14c0.18-0.59,0.45-1.16,0.69-1.73c0.28-0.69,0.45-1.28,0.53-1.85v-0.01c0.16-1.07-0.01-2.03-0.37-3.29
		c-0.26-0.87-0.76-1.5-0.66-2.47c0.15-1.51,0.8-1.87,0.33-3.55c-0.05-0.18-0.1-0.36-0.17-0.53v-0.01c0-0.01,0-0.01,0-0.01
		c-0.5-1.53-1.26-3.03-1.53-4.61c-0.31-1.83,0.4-2.71,1.31-3.71v-0.01l0.01-0.01c0.39-0.42,0.81-0.86,1.21-1.41
		c2.44-3.36,1.37-7.68,0.12-11.3c-0.7-0.81-0.89-1.64-0.86-2.51c0-0.01,0-0.01,0-0.01c0.01-0.21,0.03-0.42,0.06-0.63
		c0-0.01,0-0.01,0-0.01c0.09-0.63,0.27-1.29,0.43-1.98c0.3-1.23-0.01-2.25-0.35-3.27c-0.4-1.19-0.85-2.36-0.4-3.85
		c0.1-0.32,0.24-0.62,0.39-0.93c0.16-0.33,0.32-0.66,0.42-1.04c0.38-1.37-0.01-2.32-0.36-3.64c-0.29-1.07-0.57-2.06-0.67-3.14
		c0-0.01-0.01-0.02,0-0.04c-0.03-0.27-0.04-0.55-0.04-0.83c0-0.69,0.07-1.34,0.19-1.97c0.35-1.78,1.15-3.37,2.16-4.96
		c2.43-3.81-0.56-7.42-1.32-11.3c-0.25-1.26-0.26-2.33-0.07-3.37c-0.01-0.01,0-0.02,0.01-0.02c0.17-0.98,0.52-1.94,1-3V73.2
		c0.01-0.01,0.01-0.02,0.02-0.04c1.66-3.71-0.32-7.93-1.23-11.7c-0.12-0.47-0.22-0.93-0.31-1.39v-0.03c0-0.01-0.01-0.03-0.01-0.04
		c-0.16-0.86-0.24-1.71-0.16-2.62c0.01-0.15,0.03-0.3,0.06-0.45v-0.02c0.26-1.79,1.05-3.43,0.7-5.29c-0.01-0.09-0.03-0.18-0.06-0.27
		c-0.1-0.42,0-0.77,0.21-1.03c-0.02-0.37-0.05-0.75-0.05-1.11c-0.02-0.89,0.05-1.78,0.4-2.78c0.05-0.14,0.11-0.29,0.17-0.43
		c0.93-2.18,0.48-3.32-0.57-5.31c-0.39-0.74-0.72-1.49-0.75-2.32c-0.01-0.13-0.01-0.26,0.01-0.4c0.07-0.83,0.45-1.47,0.89-2.14
		c0.21-0.32,0.57-0.63,0.74-0.96c0.69-1.33,0.43-2.46,0-3.79c-0.06-0.2-0.14-0.4-0.24-0.6c0,0,0,0,0-0.01
		c-0.52-1.14-1.42-2.38-1.94-3.63c-0.01-0.01-0.01-0.01,0-0.01C9.68,26,9.5,25.17,9.7,24.36c0.29-1.2,1.54-2.01,1.91-3.17
		c0.5-1.53-0.06-3.33-0.03-4.91c0.02-0.96,0.58-2.42,0.37-3.46v-0.01c0-0.01-0.01-0.01-0.01-0.01c-0.03-0.18-0.09-0.34-0.17-0.48
		c-0.13-0.23-0.37-0.4-0.62-0.57c-0.33-0.22-0.69-0.45-0.89-0.82c-0.8-1.53,0.17-2.36,0.94-3.56C12.52,5.33,13.81,2.3,13.73-0.45z"
		/>
	<path class="st3" d="M13.11-0.45h2.45c0.12,1.79-1.1,3.58-1.38,5.39c-0.2,1.26-0.4,2.68-1.12,3.77c-0.71,1.08-1.48,2.27,0.14,2.96
		c0.65,0.28,0.75,0.85,0.55,1.35c-0.06,2.78,0.19,5.81-0.28,8.53c-0.31,1.76-2.52,3.06-2.31,4.8c0.25,1.97,2.49,3.41,3.09,5.32
		c0.47,1.49,0.2,2.84-0.55,4.17c-0.4,0.72-1.08,1.32-1.43,2.06c-0.81,1.74,0.25,2.49,1.09,3.79c0.68,1.05,0.74,2.03,0.28,3.21
		c-0.48,1.23-1.38,1.82-1.57,3.29c-0.13,1.1,0.25,2.32,0.37,3.4c0,0.02,0.01,0.03,0.01,0.05c0.23,2.31-0.62,3.93-1.04,6.14
		c-0.8,4.2,2.79,7.72,3.23,11.81c0.18,1.69-0.21,3.12-0.85,4.65c-0.67,1.62-1.46,2.89-1.45,4.72c0.01,1.68,0.69,3.07,1.27,4.59
		c0.69,1.78,1.35,3.56,0.89,5.5c-0.64,2.66-2.43,4.64-2.58,7.54c-0.13,2.52,1.1,4.55,1.3,6.95c0.15,1.75-2.62,6.05-1.22,7.04
		c0.44,0.31,0.58,0.76,0.53,1.18c0.71,0.92,0.6,1.61,0.28,2.74c-0.58,2.04-0.72-0.85-0.64,2.18c0.04,1.4,0.09,1.17,0.53,2.19
		c0.43,1,1.04,1.87,1.36,2.93c0.57,1.92,0.61,3.99,0.13,5.94c-0.55,2.26-2.11,3.79-3.01,5.86c-1.3,3.01,0.91,4.56,1.15,7.34
		c0.19,2.14-1.4,3.55-0.34,5.69c0.6,1.2,1.29,1.88,1.2,3.32c-0.07,1.23-0.67,2.36-1.18,3.45c-0.45,0.98-1.08,1.92-1.04,3.01
		c0,0.09,0.01,0.17,0.02,0.26c0.18,1.21,1.07,1.59,1.74,2.56c0.64,0.92,0.81,1.83,0.58,2.93c-0.19,0.9-0.91,1.72-1.06,2.6
		c-0.18,1.08,0.5,1.78,0.77,2.73c0.57,2.06-0.13,3.91,0.84,5.95c0.56,1.19,1.32,2.16,0.77,3.52c-0.21,0.51-0.62,0.78-0.96,1.19
		c-0.17,0.21-0.69,0.29-0.8,0.53c-0.47,0.98,0.09,2.7,0.51,3.54c0.77,1.55,1.7,2.63,1.45,4.5c-0.21,1.6-1.64,3.09-1.2,4.66
		c0.36,1.27,1.39,1.89,1.32,3.35c-0.06,1.24-0.79,2.13-1.17,3.25c-0.72,2.14,0.91,2.49,1.04,4.4c0.06,0.74-0.23,1.34-0.4,2.05
		c-0.33,1.4,0.88,2.69,1.12,4.03h-2.45c-0.1-0.6-1.45-1.21-1.44-1.83c0.01-1.15,0.53-2.25,0.55-3.35c0.03-1.5-1.39-2.33-1.36-3.9
		c0.02-1.57,1.3-2.67,1.53-4.12c0.25-1.61-1.5-2.65-1.43-4.33c0.09-2.24,1.95-3.82,1.14-6.11c-0.56-1.56-1.89-2.65-2.16-4.36
		c-0.23-1.45,0.22-2.33,1.09-3.42c0.78-0.99,1.15-1.13,0.74-2.36c-0.24-0.73-0.78-1.28-0.97-2.05c-0.22-0.88-0.08-1.69-0.08-2.57
		c0-1.34-0.56-2.41-0.83-3.65c-0.28-1.26-0.02-2.13,0.47-3.33c1.09-2.65-0.79-2.89-1.64-5.02c-0.21-0.53-0.29-1.09-0.27-1.65
		c0.01-0.37,0.07-0.74,0.15-1.11c0.37-1.58,1.49-2.89,1.9-4.44c0.58-2.16-1.04-2.74-1.51-4.56c-0.55-2.11,1.15-3.89,0.71-6.04
		c-0.33-1.63-1.44-2.89-1.49-4.62c-0.06-1.85,0.95-3.42,1.89-4.93c1.52-2.43,2.46-4.89,1.73-7.78c-0.53-2.1-2.22-3.77-2.54-5.93
		c-0.05-0.37,1.01-4.12,1.4-3.66c-0.25-0.3-0.34-0.64-0.3-0.95c-0.88-0.74-1.32-1.65-1.32-2.9c-0.01-0.69,0.2-1.31,0.42-1.95
		c0.7-1.97,1.29-3.33,0.84-5.56c-0.48-2.37-1.08-4.28-0.72-6.76c0.37-2.55,2.51-5.04,2.6-7.48c0.1-2.68-1.98-5.1-2.26-7.76
		c-0.24-2.29,0.47-4.13,1.34-6.18c1.21-2.86,0.99-4.73-0.2-7.53c-0.8-1.9-1.81-3.76-2.16-5.82c-0.38-2.29,0.43-3.82,0.94-5.99
		c0.22-0.96,0.17-1.89,0.06-2.82c-0.17-1.45-0.49-2.87-0.2-4.34c0.16-0.83,0.58-1.35,0.85-2.11c0.59-0.64,0.79-1.43,0.58-2.36
		c-0.37-0.36-0.74-0.73-1.08-1.11c-0.85-1.12-1.13-2.27-0.69-3.62c0.47-1.45,1.87-2.4,2.37-3.8c1-2.87-2.36-4.78-2.97-7.3
		c-0.46-1.95,0.25-2.7,1.18-4.25c1.63-2.71,1.29-6.14,1.32-9.3c-1.56-0.86-2.78-2.34-1.85-4.23c0.88-1.77,1.98-2.62,2.32-4.77
		C12.02,2.79,13.22,1.18,13.11-0.45z"/>
</g>
</svg>
