<?xml version="1.0" encoding="utf-8"?>
<!-- Generator: Adobe Illustrator 25.2.3, SVG Export Plug-In . SVG Version: 6.00 Build 0)  -->
<svg version="1.1" id="Layer_1" xmlns="http://www.w3.org/2000/svg" xmlns:xlink="http://www.w3.org/1999/xlink" x="0px" y="0px"
	 viewBox="0 0 208 156" style="enable-background:new 0 0 208 156;" xml:space="preserve">
<style type="text/css">
	.st0{fill:#A08B82;}
	.st1{fill:#7F6F69;}
	.st2{fill:#826C6C;}
	.st3{fill:#493E3C;}
	.st4{fill:#99837C;}
	.st5{fill:#BFA399;}
</style>
<g>
	<path class="st0" d="M208.45,18.12V87.1c-1.01,0.03-2.01,0.07-2.97,0.12c-5.2,0.31-10.24,0.94-15.3,2.19
		c-7.23,1.77-14.65,4.15-21.68,7.06c-0.11,0.87-0.51,1.69-1.3,2.32c-2.7,2.13-5.27,4.41-7.69,6.84c-1.08,1.07-2.13,2.19-3.14,3.33
		c-2.28,2.55-4.39,5.25-6.31,8.09c-0.69,1.02-1.35,2.06-1.97,3.1c-0.9,1.49-1.74,3-2.53,4.53c-0.42,0.81-0.82,1.62-1.21,2.44
		c-0.27,0.57-0.54,1.14-0.8,1.72c-1.8,3.93-3.35,7.98-4.83,12.09c-0.26,5.59-0.38,11.17-0.33,16.77H70.29
		c-0.09-1.19-0.14-2.37-0.33-3.44c-0.73-4.07-2.19-8.01-3.8-11.81c-2.92-6.86-6.35-13.59-7.99-20.88c-2.05-1.17-3.3-3.26-4.56-5.27
		c-0.63-1.01-1.29-2-1.98-2.97c-2.6-3.68-5.62-7.05-9.21-9.81c-4.81-3.69-10.31-6.56-15.61-9.46c-5.17-2.84-10.59-5.33-16.54-5.75
		c-0.91-0.06-1.65-0.33-2.27-0.74c-2.81-0.18-5.62-0.29-8.44-0.32V18.01c0.29-0.09,0.59-0.15,0.88-0.23
		c0.24,0.2,0.56,0.34,0.96,0.34H208.45z"/>
	<path class="st1" d="M73.06,157.7h-9.71c0.28-1.92,0.83-3.8-0.51-5.4c-1.01-1.21-1.21-1.47-0.88-2.82c0-0.01,0.01-0.01,0.01-0.01
		c0.04-0.15,0.08-0.32,0.13-0.51c0.25-0.87,0.36-1.46,0.23-2.1c0,0,0-0.01,0-0.01c-0.07-0.32-0.19-0.64-0.38-1.04
		c-0.27-0.54-0.74-0.97-0.99-1.53c-0.48-1.05-0.55-2.16-0.51-3.3c0.04-1.27,0.34-2.34,0.06-3.33c0.01-0.01,0.01-0.01,0-0.01
		c-0.06-0.17-0.12-0.32-0.2-0.48c-0.01-0.02-0.02-0.04-0.02-0.06c-0.15-0.29-0.37-0.56-0.67-0.85c-0.81-0.77-2.31-1.08-2.98-1.98
		c-1.55-2.07,1.48-4.7,0.06-6.94c-0.06-0.08-0.12-0.16-0.18-0.24c-0.39-0.45-0.96-0.73-1.56-0.97c-0.7-0.29-1.45-0.54-2-0.99
		c-0.6-0.49-1.02-1.1-1.35-1.79c-0.02-0.03-0.03-0.07-0.05-0.1c-0.67-1.42-0.74-3.04-1.43-4.45c-0.6-1.21-1.3-2.45-1.97-3.63
		c-0.59-1.04-1.38-1.97-2.29-2.85c-0.74-0.73-1.56-1.42-2.38-2.09c-0.62-0.51-1.25-1.01-1.85-1.51c0-0.01-0.01-0.01-0.01-0.01
		c-0.02-0.01-0.04-0.03-0.06-0.04c-0.1-0.04-0.2-0.09-0.3-0.13c-0.01-0.01-0.01-0.01-0.02-0.01c-1.55-0.77-2.65-1.86-3.98-3.05
		c-0.54-0.48-1.1-0.89-1.68-1.26c-1.75-1.1-3.66-1.84-5.42-3.03c-0.36-0.25-0.7-0.54-1.03-0.85c0-0.01,0-0.01-0.01-0.01
		c-0.68-0.64-1.32-1.32-2.1-1.78c-1.39-0.82-3.02-0.78-4.56-0.97c-0.09-0.01-0.18-0.02-0.26-0.04c-0.01,0-0.01,0-0.01,0
		c-1.55-0.22-2.87-0.7-4.21-1.42C18,96.09,18,96.09,18,96.09c-0.21-0.12-0.42-0.23-0.64-0.36c-1.03-0.59-2.05-1.3-3.2-1.62
		c-1.53-0.42-3.04-0.04-4.59-0.16c-1.16-0.09-2.22-0.46-3.34-0.68c-0.96-0.19-1.8-0.18-2.62-0.11c-0.01,0-0.01,0-0.01,0
		c-0.79,0.06-1.56,0.18-2.43,0.21c-0.62,0.03-1.12,0.18-1.53-0.01c-0.03-0.01-0.06,0.02-0.09,0V85.4c0.98-0.09,1.98-2.13,2.9-1.78
		c0.51,0.19,1.01,0.77,1.48,0.91c0.89,0.27,1.34-0.18,2.33-0.32c0.86-0.12,1.79,0.04,2.49,0.58c0.5,0.4,0.75,1.37,1.34,1.51
		c0.44,0.11,1.35-0.46,1.8-0.52c1.42-0.2,1.66,0.43,2.79,0.97c1.14,0.55,2.44-0.15,3.75,0.18c0.91,0.23,1.35,0.7,2.1,1.19
		c1.13,0.74,1.72,0.91,3.13,0.81c1.39-0.09,2.46-0.09,3.68,0.76c1.95,1.37,1.23,3.23,4.22,3.3c1.79,0.04,3.09-0.89,4.83,0.04
		c2.93,1.56,2.63,5.65,6.08,6.55c1.5,0.39,2.92,0.24,4.03,1.53c0.29,0.34,0.41,0.76,0.65,1.12c0.23,1,0.89,1.69,1.98,2.08
		c0.31,0.04,0.61,0.08,0.92,0.12c0.58,0.28,1.1,0.59,1.57,0.94c0.1,0.07,0.19,0.15,0.28,0.23c1.34,1.1,2.07,2.56,1.78,4.52
		c0.09,0.21,0.13,0.46,0.07,0.74c-0.19,1.02,2.55,3.28,3.24,3.68c0.85,0.5,1.87,0.64,2.66,1.23c1.07,0.79,1.62,1.93,1.82,3.22
		c0.21,1.38-0.42,2.6,0.59,3.85c0.38,0.47,1.07,0.77,1.53,1.18c1.02,0.88,1.7,1.76,1.75,3.14c0.02,0.75-0.47,1.54-0.41,2.22
		c0.14,1.63,1.21,1.5,2.16,2.38c1.15,1.07,1.68,2.54,1.65,4.09c-0.03,2.41-2.11,4.83-0.27,7.04c1.17,1.42,2.85,1.8,3.75,3.55
		c0.19,0.36,0.26,0.88,0,1.24c-2.09,2.83,0.7,3.77,1.51,6.19C74.16,155.13,73.18,156.42,73.06,157.7z"/>
	<path class="st1" d="M208.45,84.79v9.19c-0.72-0.32-1.61-1.75-2.52-1.98c-0.02-0.01-0.06-0.02-0.09-0.02h-0.01
		c-0.83-0.21-1.67-0.33-2.41-0.28c-0.02,0.02-0.04,0.05-0.06,0.07c-0.29,0.34-0.8,0.42-1.23,0.29c-1.37,0.7-2.35,2.11-3.82,2.75
		c-1.64,0.71-1.87,0.1-3.12-0.47c0,0,0,0-0.01,0c-0.07-0.02-0.14-0.06-0.21-0.09c-0.19-0.52-0.49-0.6-0.9-0.24
		c-0.35,0.06-0.63,0.23-0.85,0.51c-0.45,0.29-0.81,0.73-1.29,1c-0.14,0.09-0.28,0.15-0.42,0.21c-0.72,0.34-1.48,0.45-2.27,0.62
		c-0.24,0.06-0.44,0.12-0.63,0.21c-0.01,0.01-0.01,0.01-0.01,0.01c-0.55,0.24-0.93,0.59-1.54,0.78c-0.37,0.12-0.75,0.19-1.11,0.25
		c-0.01,0-0.01,0-0.02,0.01h-0.02c-0.44,0.08-0.86,0.15-1.26,0.29c-0.01,0-0.01,0-0.02,0.01c-0.5,0.17-0.94,0.47-1.32,1.05
		c-0.08,0.24-0.25,0.47-0.53,0.63c-2.02,1.19-3.97,0.61-6.08,1.29c-1.5,0.48-1.87,1.68-2.63,2.6c-0.28,0.34-0.61,0.64-1.07,0.85
		c-0.55,0.26-0.98,0.26-1.37,0.25c-0.17-0.01-0.34-0.02-0.5-0.02c-0.03,0.04-0.06,0.09-0.09,0.13c-0.56,0.72-1.13,1.23-1.83,1.76
		c0.01,0.1,0.01,0.19,0.01,0.29v0.01c-0.01,0.1-0.04,0.2-0.12,0.29c-0.69,0.87-1.44,1.02-2.34,1c-0.1,0.15-0.2,0.31-0.28,0.47
		c-0.33,0.7-0.2,1.36-0.78,2c-1.04,1.12-2.51,0.82-3.83,0.97h-0.01c-0.01,0-0.01,0-0.01,0c-0.81,0.1-1.57,0.36-2.13,1.23
		c-0.18,0.27-0.31,0.57-0.39,0.88c-0.01,0.02-0.02,0.05-0.02,0.07c-0.18,0.62-0.23,1.3-0.3,1.98c0,0,0,0.01,0,0.01
		c0,0.01,0,0.01,0,0.01c-0.12,1.15-0.32,2.26-1.32,2.99c-0.59,0.42-1.19,0.34-1.81,0.59c-1.09,0.42-0.6-0.07-0.95,0.8v0.01
		c-0.03,0.06-0.06,0.12-0.09,0.19c-0.49,1.08-1.15,1.84-1.58,2.73c-0.31,0.63-0.28,1.23-0.8,1.81c-0.26,0.29-0.65,0.44-0.95,0.66
		c-0.07,0.05-0.14,0.1-0.2,0.17c-0.65,0.67-1.04,1.56-1.15,2.54c-0.17,1.51-0.13,1.61-1.19,2.57c-0.01,0.01-0.01,0.01-0.01,0.01
		c-0.07,0.06-0.13,0.11-0.2,0.18c-0.18,0.16-0.36,0.26-0.53,0.32c-0.54,0.22-0.92,0.17-0.72,1.35c0,0,0,0.01,0,0.01
		c0.01,0.07,0.03,0.17,0.05,0.25c0.09,0.44,0.59,0.93,0.79,1.34c0.18,0.39,0.29,0.75,0.37,1.13c0.39,0.34,0.55,0.88,0.16,1.42
		c-0.04,0.07-0.09,0.13-0.15,0.19c-1.24,1.64-2.81,2.24-3.74,3.86c-0.04,0.07-0.09,0.13-0.12,0.21c-0.21,0.39-0.37,0.83-0.5,1.35
		c-0.21,0.88-0.42,1.75-0.64,2.62v0.01c0,0.01,0,0.02-0.01,0.02l-0.09,0.33c0,0.01,0,0.01-0.01,0.02c-0.2,0.77-0.4,1.53-0.63,2.29
		c0.06,0.03,0.12,0.07,0.17,0.11c0.62,0.41,1.04,1.02,1.18,1.94c0.03,0.18,0.04,0.34,0.04,0.5c0,0.01,0,0.01,0,0.01
		c-0.01,0.55-0.19,1.02-0.31,1.61c-0.15,0.71-0.24,1.3-0.29,1.88c0,0.01,0,0.01,0,0.01c-0.05,0.61-0.05,1.24-0.01,2.02
		c0.03,0.67,0.04,1.38-0.15,1.98h-9.31c-0.14-1.41-1.04-2.82-0.81-4.14c0.15-0.85,0.56-0.96,0.36-1.8
		c-0.09-0.36-0.62-0.75-0.78-1.12c-0.58-1.34,0.1-1.65,0.5-2.77c0.29-0.81,0.07-3.33,0.67-4.19c0.26-0.37,0.74-0.47,1.07-0.74
		c1.04,0,1.53-0.67,1.48-2.01c-0.05-0.17-0.08-0.34-0.09-0.53c-0.02-0.03-0.04-0.07-0.06-0.1c-0.1-0.15-0.19-0.29-0.28-0.45
		c-0.36-1-1.36-1.89-0.81-3.03c0.2-0.41,0.65-0.56,0.89-0.86c0.76-0.92,0.93-1.32,0.93-1.67c0-0.35-0.18-0.66-0.12-1.4
		c0.13-1.69,0.91-2.07,1.92-3.3c-0.01-0.35,0.11-0.7,0.41-0.98c0.04-0.03,0.08-0.07,0.13-0.1c1.44-1.04,1.38-2.87,1.51-4.54
		c0.03-0.5,0.09-0.97,0.2-1.42c0.23-0.86,0.56-1.54,1.05-2.16c0.26-0.34,0.57-0.64,0.93-0.96c0.38-0.32,1.23-0.67,1.68-1.04
		c0.1-0.08,0.18-0.17,0.23-0.25c0.4-0.74-0.27-2.13-0.15-2.93c0.13-0.94,0.52-1.59,1.23-2.22c1.34-1.19,3.19-0.99,3.79-2.99
		c0.36-1.18-0.07-2.24,0.79-3.29c0.93-1.13,1.82-0.67,2.98-1.05c2.54-0.83,2.55-2.92,3.55-4.94c1.43-2.89,3.61-2.81,6.44-3.31
		c2.17-0.39,4.23-1.37,5.88-2.85c1.14-1.02,1.95-2.14,3.45-2.65c0.86-0.29,1.71-0.26,2.54-0.7c1.15-0.59,1.42-1.35,2.13-2.36
		c0.69-0.97,1.38-1.76,2.54-2.17c1.46-0.52,2.84-0.06,4.34-0.17c1.7-0.13,2.84-1.27,4.53-1.28c0.21-0.01,0.4,0.04,0.55,0.12
		c0.46-0.23,0.89-0.36,1.46-0.45c1.42-0.21,2.24-0.53,3.52-1.15c1.56-0.77,1.69-0.43,3.25,0.07c1.72,0.55,1.27,0.17,2.48-0.5
		c0.83-0.47,1.37-0.72,2.34-0.8C204.89,82.37,206.63,84.63,208.45,84.79z"/>
	<path class="st2" d="M64.83,153.42c-0.01,0.12-0.01,0.25-0.01,0.39c0,0.01,0,0.01,0,0.01c-0.01,0.97,0.01,2.53-0.18,3.88H51.62
		v-5.44c0-0.07-0.01-0.13-0.01-0.19c-0.09-0.83-0.15-0.34-0.27-0.87c-0.12-0.48-0.33-0.89-0.37-1.42c-0.1-1.49-0.38-3.54,0.28-5.04
		c0.09-0.21,0.23-0.43,0.37-0.66c0.65-0.99,1.56-2.05,0.29-2.6c-0.1-0.04-0.2-0.07-0.29-0.09c-0.61-0.1-1.27,0.16-1.87-0.21
		c-1.42-0.87-0.52-1.83-0.64-2.95c-0.14-0.14-0.25-0.34-0.29-0.59c-0.25-1.46-2.22-1.91-2.78-3.27c-0.25-0.59-0.09-1.02-0.19-1.6
		c-0.02-0.15-0.02-0.25-0.02-0.33c-0.05-0.03-0.1-0.06-0.15-0.09c-1.2-0.73-1.81-0.97-2.16-2.42c0.04-0.32,0.09-0.66,0.13-0.99
		c-0.28-0.81-0.74-1.44-1.38-1.9c-0.45-0.5-1.03-0.79-1.4-1.39c-0.41-0.67-0.55-1.28-0.43-2.06c0-0.22,0.06-0.42,0.17-0.61
		c0.18-0.21,0.29-0.38,0.32-0.5c-0.04-0.08-0.08-0.17-0.12-0.25c-0.15-0.04-0.44,0-0.87,0.13c-1.18-0.58-1.78-0.68-2.54-1.89
		c-0.59-0.94-0.77-2.05-1.3-2.99c-0.69-1.21-1.38-1.02-2.68-1.05c-1.13-0.03-2.3-0.17-3.09-1.08c-0.55-0.62-0.39-1.27-0.75-1.91
		c-0.86-1.56-1.1-0.96-2.29-1.3c-1.5-0.43-1.72-0.8-2.82-1.89c-1.5-1.48-2.52-1.72-4.45-1.77c-0.64-0.01-1.26,0.03-1.86-0.24
		c-0.53-0.25-0.81-0.77-1.26-1.05c-0.03-0.57-0.29-0.72-0.77-0.44c-0.4,0.2-0.81,0.34-1.24,0.42c-1.18,0.15-1.71-0.27-2.49-1.06
		c-0.16-0.31-0.31-0.62-0.43-0.94c-0.78-0.77-1.57-0.87-2.36-0.32c-0.79,0.09-1.45,0.48-2.28,0.42c-0.74-0.06-1.32-0.53-2-0.61
		c-2.95-0.36-2.36,0.37-3.94,1.65c-0.7,0.57-1.25,0.67-1.83,0.69V93.37c0.03,0.01,0.06-0.01,0.09,0c1.31,0.18,2.63-0.19,3.96-0.21
		c0.01,0,0.01,0,0.01,0c0.86-0.02,1.71,0.01,2.57,0.2c2.29,0.5,4.59,0.84,6.87,1.37c1.64,0.38,3.3,0.85,4.96,1.37
		c0.01,0,0.01,0,0.01,0.01c1.41,0.43,2.82,0.91,4.21,1.42c0.01,0,0.01,0,0.01,0c1.79,0.64,3.55,1.31,5.25,1.98
		c0.59,0.23,1.14,0.51,1.68,0.82c0.01,0,0.01,0,0.01,0.01c1.04,0.59,2.02,1.27,3.07,1.84c1.23,0.66,2.33,1.28,3.38,2.05
		c0.51,0.37,1.01,0.77,1.51,1.23c1.01,0.94,1.89,1.86,3.11,2.55c0.34,0.2,0.7,0.36,1.05,0.53c0.01,0.01,0.01,0.01,0.02,0.01
		c0.12,0.06,0.24,0.12,0.36,0.18c0,0,0.01,0,0.01,0.01c0.32,0.17,0.64,0.35,0.93,0.58c0.38,0.29,0.69,0.6,0.93,0.93
		c0.32,0.42,0.53,0.89,0.67,1.43c0.56,0.2,1.15,0.4,1.71,0.66c1.15,0.51,2.21,1.2,2.77,2.3c1.21,2.33,1.65,4.99,2.96,7.32
		c0.06,0.11,0.12,0.21,0.19,0.32c1.22,2.02,3.38,3.06,4.72,4.83c0.06,0.08,0.12,0.16,0.18,0.24c0.07,0.1,0.15,0.2,0.22,0.31
		c0.38,0.63,0.64,1.43,0.59,2.18c-0.06,1.06-1.14,2.37-0.99,3.38c0.25,1.61,2.31,1.94,3.21,3.03c0.22,0.26,0.4,0.55,0.55,0.86
		c0.01,0.02,0.02,0.04,0.02,0.06c0.07,0.15,0.14,0.31,0.2,0.48c0.01,0,0.01,0.01,0,0.01c0.13,0.34,0.22,0.69,0.29,1.05
		c0.28,1.32,0.21,2.68,0.49,4c0.28,1.32,0.95,2.57,1.04,3.92c0.01,0.08,0.01,0.16,0.01,0.23c0,0.01,0,0.01,0,0.01
		c-0.01,0.89-0.36,1.73-0.37,2.61c0,0-0.01,0.01-0.01,0.01c0,0.21,0.02,0.43,0.06,0.65c0.32,1.52,0.6,0.69,1.59,1.36
		c0.42,0.29,0.67,0.63,0.8,1.01c0.05,0.04,0.09,0.07,0.13,0.12v0.01C64.74,152.81,64.84,153.08,64.83,153.42z"/>
	<path class="st2" d="M208.45,93.36v13.42c-0.79,0.07-1.58,0.09-2.33-0.07c-0.8-0.17-1.24-0.74-1.89-1.04
		c-2.03-0.9-2.48,0.2-4.23,0.55c-1.04,0.21-1.8-0.13-2.78-0.35c-1.35-0.3-3.81-0.58-5.21-0.31c-2.32,0.45-1.77,1.84-3.06,3.16
		c-1.19,1.2-2.82,1.26-4.38,1.04c-0.09,0.15-0.17,0.31-0.25,0.46c-0.26,0.5-0.7,0.66-1.13,0.59c-0.2,0.07-0.45,0.06-0.72-0.04
		c0.49,0.18-0.37,1.3-0.98,1.66c-1.18,0.72-2.34-0.1-3.42,0.28c-1.53,0.53-1.04,2.48-2.03,3.43c-0.87,0.85-1.64,0.52-2.68,0.73
		c-1.89,0.38-1.1,1.46-1.82,2.82c-0.56,1.07-1.32,1.13-2.32,1.56c-1.07,0.46-1.45-0.77-2.2,1.3c-0.17,0.47,0.1,1.25-0.02,1.78
		c-0.21,0.92-0.59,1.59-1.42,2.05c-0.46,0.25-0.84,0.23-1.32,0.37c-1.81,0.55-1.98,0.64-2.19,2.49c-0.17,1.56,0.86,3.57,0.17,5.07
		c-0.48,1.05-1.37,1-2.22,1.62c-2.16,1.58-0.53,4.09-1.35,6.03c-0.51,1.22-1.59,1.85-2,3.14c-0.45,1.39,0.25,2.49-0.08,3.87
		c-0.1,0.43-0.48,0.8-0.58,1.19c-0.48,1.85,0.2,2.55,0.71,3.98c0.42,1.17-0.75,2.35-0.64,3.56h-12.92c-0.04-0.34-0.04-0.71,0-1.1
		c-0.01-0.22,0.01-0.43,0.09-0.63c0.13-0.74,0.34-1.51,0.55-2.27c0-0.01,0-0.01,0-0.01c0.37-1.32,0.73-2.59,0.61-3.49
		c0-0.01,0-0.01,0-0.01c-0.07-0.48-0.28-0.85-0.69-1.07c-0.57-0.29-0.69-0.86-0.53-1.37c0.09-0.29,0.28-0.56,0.53-0.74
		c0.69-0.52,1.03-1.02,1.18-1.52c-0.01-0.03-0.02-0.07-0.03-0.1c-0.16-0.61-0.15-1.21-0.04-1.76c-0.16-0.76-0.34-1.54-0.03-2.4
		c0.03-0.08,0.07-0.16,0.1-0.23s0.08-0.14,0.12-0.21c0.62-0.92,1.84-1.15,2.63-1.98c0.56-0.59,0.94-1.21,1.11-1.87
		c0.02-0.06,0.03-0.12,0.04-0.17c-0.29-0.35-0.41-0.85-0.18-1.37c0.02-0.04,0.04-0.09,0.06-0.13c-0.04-0.12-0.07-0.23-0.13-0.35
		c-0.24-0.51-0.83-0.81-0.99-1.46c-0.07-0.31-0.08-0.58-0.04-0.85c0-0.01,0-0.01,0-0.01c0.09-0.51,0.35-0.94,0.72-1.35
		c0.01-0.01,0.02-0.02,0.03-0.04c0.19-0.21,0.44-0.34,0.7-0.47c0,0,0,0,0.01-0.01c0.23-0.12,0.47-0.23,0.66-0.4
		c3.4-3.06,0.55-1.57,1.25-3.52c0.15-0.43,0.36-0.81,0.57-1.23c0.02-0.04,0.04-0.08,0.06-0.12c0.56-1.08,1.04-2.24,1.48-3.37
		c0.38-0.99,1.07-1.62,1.93-2.02v-0.01c1.04-0.5,2.32-0.67,3.57-0.8c0.07-0.23,0.21-0.4,0.37-0.54c0.2-0.95,0.12-2.02,0.15-3.04
		c0-0.01,0-0.01,0-0.01c0-0.01,0-0.01,0-0.01c0.02-0.69,0.08-1.37,0.3-1.98c0.01-0.02,0.02-0.05,0.02-0.07
		c0.1-0.26,0.24-0.51,0.42-0.75c0.49-0.66,1.26-1.07,2.1-1.35c0.01,0,0.01,0,0.01,0h0.01c0.78-0.26,1.62-0.4,2.32-0.51
		c2.68-0.42,0.96-1.15,1.93-2.89c0.63-1.12,1.96-1.08,3.11-1.34v-0.01c0.81-0.17,1.53-0.49,1.84-1.45c0.1-0.33,0.31-0.57,0.57-0.71
		c0.18-0.1,0.39-0.17,0.61-0.19c0.3-0.19,0.6-0.37,0.9-0.56c0.22-0.26,0.58-0.37,0.93-0.35c0.2,0.01,0.39,0.06,0.56,0.16
		c0.26,0.15,1.61-1.79,1.86-2c0.69-0.56,1.29-0.81,2.14-0.98c0.97-0.19,2.08,0.32,3.01,0.08c1.42-0.36,1.41-1.2,2.18-2.1
		c0.3-0.35,0.56-0.58,0.82-0.74c0.01-0.01,0.01-0.01,0.02-0.01c0.4-0.24,0.79-0.29,1.26-0.29h0.02c0.01-0.01,0.01-0.01,0.02-0.01
		c0.32-0.01,0.7,0.01,1.15-0.02c1.48-0.09,0.41,0.36,1.34-0.82c0.05-0.06,0.1-0.13,0.17-0.19c0-0.01,0.01-0.01,0.01-0.01
		c0.28-0.31,0.62-0.59,0.99-0.74c0.49-0.21,1.06-0.12,1.57-0.16c0.11,0.03,0.23,0.06,0.34,0.07c0.7,0.12,1.39-0.01,2.06-0.39
		c0.23-0.32,0.5-0.59,0.81-0.81c0.26-0.1,0.53-0.17,0.8-0.21c0.01,0,0.01,0,0.01,0c0.34-0.06,0.69-0.07,1.04-0.05
		c0.68,0.21,1.37,0.39,2.08,0.52c0.05,0.01,0.1,0.02,0.15,0.03c0.88-0.1,1.52-0.52,1.9-1.24c1.08-0.87,1.95-1.59,3.49-1.26
		c1.14,0.25,1.7,1.19,2.95,1.26C207.38,93.62,207.91,93.45,208.45,93.36z"/>
	<path class="st3" d="M208.45,93.25v2.45c-0.29-0.04-0.58-1.15-0.88-1.23c0,0.01-0.01,0.02-0.01,0.03c-0.36,0.87-1.3,1.19-2.05,0.54
		c-1.83-1.58-2.38-1.61-3.93,0.21c-0.45,0.53-0.55,0.81-1.21,1.02c-1.36,0.44-3.29-0.23-4.8-0.95c-0.32,0.59-0.8,1.09-1.53,1.43
		c-1.87,0.88-3.96-1.05-4.64,1.86c-0.19,0.81-1.12,1.08-1.8,0.74c-1.25-1.04-2.54-0.98-3.85,0.18c-0.04,0.35-0.14,0.69-0.29,1
		c-0.47,0.64-0.53,1.08-1.31,1.46c-1.52,0.74-6-1.61-5.89,1.68c0.03,0.76-0.81,1.44-1.55,1.18c-2.51-0.87-2.23,2-3.78,2.91
		c-1.03,0.61-2.4,0.69-3.67,0.63c0.38,1.33,0.85,2.56-0.55,3.69c-2.07,1.68-6.64-0.51-6.81,3.04c-0.09,1.93,0.6,3.36-1.18,4.91
		c-1.07,0.94-2.44,1.18-3.75,0.91c-0.34,1.25-0.02,2.88-0.89,4.06c-0.54,0.72-1.21,1.24-1.98,1.58c0.31,0.84,0.34,1.76-0.02,2.68
		c-0.51,1.29-3.63,2.43-3.21,3.72c0.41,1.24,2.35,1.26,2.19,3.12c-0.19,2.17-3.34,3.8-4.8,5.02c-0.13,0.12-0.28,0.19-0.42,0.23
		c0.01,1.04,0.73,3.63,0.47,4.39c-0.34,1.02-1.04,1.73-1.79,2.41c0.46,0.21,1.05,0.41,1.17,0.46c0.61,0.27,0.74,1.15,0.43,1.68
		c-1.31,2.33-1.4,4.86-1.16,7.41h-2.43c-0.21-2.55-0.11-5.04,0.88-7.41c-0.86-0.39-1.56-0.82-1.81-1.89
		c-0.1-0.42-0.01-0.89,0.31-1.19c0.64-0.59,1.43-1.13,1.72-1.86c0.01-0.01,0.01-0.01,0.01-0.02c0.04-0.1,0.07-0.21,0.09-0.33
		c0.01-0.01,0.01-0.01,0.01-0.02v-0.01c0.04-0.26,0.02-0.54-0.09-0.86c-0.24-0.71-0.81-1.05-0.92-1.87
		c-0.19-1.53,0.7-2.76,1.98-3.42c0.25-0.13,0.5-0.17,0.72-0.14c0.77-0.58,1.59-1.18,2.17-1.87c0.87-1.04,0.67-0.86,0.01-1.72
		c-0.57-0.75-1.42-0.94-1.75-1.95c-0.28-0.83-0.09-1.67,0.4-2.37c0.64-0.94,4.69-2.4,3.05-4.06c-0.58-0.59-0.41-1.91,0.54-2.05
		c3.71-0.53,1.88-3.85,3.39-5.81c0.31-0.4,0.85-0.79,1.38-0.56c1.34,0.8,2.35,0.07,3.01-2.21c-0.14-0.29-0.25-0.6-0.34-0.92
		c0-0.47-0.17-0.88-0.1-1.38c0.13-0.94,0.72-1.73,1.47-2.3c1.22-0.93,2.58-0.85,4.01-1.02c0.66,0.17,1.24,0.02,1.72-0.45
		c0.81-0.17,0.97-0.55,0.45-1.16c0.03-0.43-0.31-1.32-0.34-1.78c-0.04-0.61,0.6-1.29,1.23-1.23c1.71,0.17,3.15,0.4,4.14-1.28
		c0.36-0.61,0.23-1.24,0.83-1.8c0.88-0.82,2.11-0.86,3.26-0.64c0.25-0.93,0.78-1.75,1.68-2.31c0.65-0.41,1.38-0.6,2.15-0.62
		c0.73-0.01,2.02,0.76,2.65,0.57c1.32-0.41,1.49-2.79,3.06-3.44c1.34-0.55,2.66-0.26,3.91,0.26c0.29-0.76,0.69-1.47,1.35-1.94
		c0.94-0.67,4.75-0.29,4.85-1.07c0.11-0.9,0.96-1.56,1.84-1.06c1.81,1.03,3.51,1.95,4.93,0.2c0.53-0.66,0.94-1.52,1.71-1.93
		c1.36-0.72,2.63,0.18,3.72,1.19h0.01c0.02,0.02,0.04,0.04,0.06,0.06c0.01-0.01,0.02-0.02,0.03-0.03c0.28-0.29,0.67-0.45,1.11-0.27
		C207.53,91.92,207.99,93.15,208.45,93.25z"/>
	<path class="st3" d="M64.74,157.7h-2.38c0.36-2.23,0.62-5.12-1.74-5.5c-0.83-0.13-1.06-1.17-0.73-1.8c0.78-1.5,2.13-1.72,1.28-3.54
		c-0.79-1.7-1.42-3.08-1.6-5c-0.1-1.04-0.1-2.09-0.16-3.13c-0.04-0.58,0.05-1.37-0.31-1.86c-0.62-0.85-0.09-0.23-0.9-0.5
		c-1.19-0.38-2.17-0.11-2.79-1.51c-0.54-1.21,0.01-2.29,0.46-3.41c0.59-1.47,0.95-2.99-0.34-4.27c-0.67-0.66-1.69-0.77-2.47-1.2
		c-0.62-0.34-1.08-0.67-1.43-1.08c-0.34-0.42-0.58-0.92-0.77-1.61c-0.39-1.44-0.31-2.5-1.26-3.73c-0.39-0.5-0.85-0.97-1.13-1.54
		c-0.64-1.29-0.06-3.01-1.06-3.8c-1.02-0.8-2.17-0.32-3.06-1.48c-0.7-0.91-0.64-1.44-1.64-2.27c-1.02-0.86-1.19-0.65-2.3-1.03
		c-1.11-0.39-1.92-1.16-2.69-2.02c-0.56-0.62-1.01-1.39-1.64-1.95c-1.12-1-2.46-1.16-3.84-1.59c-1.54-0.47-2.63-1.25-3.75-2.38
		c-1.45-1.48-2.96-1.6-4.93-1.68c-0.43-0.02-0.86,0.01-1.3-0.07c-1.71-0.34-3.56-1.49-4.99-2.4c-1.58-1.01-2.93-2.12-5.02-1.79
		c-0.45,0.07-0.8,0.45-1.28,0.51c-1.34,0.15-2.06-0.78-3.18-1.28C5.15,93.6,2.31,96.1-0.45,95.7v-2.51
		c2.22,0.77,4.72-1.42,7.03-1.23c1.82,0.15,3.12,1.62,4.77,1.26c1.64-0.36,2.52-0.85,4.23,0.03c2.6,1.34,5.01,4.23,8.17,3.99
		c1.89-0.14,2.87-0.53,4.59,0.72c0.85,0.61,1.46,1.45,2.22,2.16c1.16,1.08,2.32,1.32,3.77,1.75c1.81,0.53,2.95,1.29,4.2,2.69
		c0.56,0.62,1,1.38,1.64,1.91c0.97,0.8,1.92,0.69,3.04,0.99c1.45,0.4,1.68,1.19,2.5,2.27c0.74,0.97-0.13,0.5,1.15,1.27
		c0.99,0.59,0.62,0.26,1.19,0.48c0.67,0.27,1.07,0.25,1.61,0.75c1.13,1.09,0.53,2.4,0.78,3.74c0.17,0.87,0.66,1.59,1.19,2.3
		c0.58,0.79,1.19,1.57,1.42,2.54c0.36,1.59,0.53,2.36,2.09,3.35c0.5,0.31,1.07,0.45,1.57,0.82c1.07,0.81,1.78,2,2.08,3.3
		c0.45,1.92-0.57,2.73-0.8,4.42c-0.25,1.85,1.9,0.89,2.93,1.93c0.89,0.9,0.85,2.5,0.93,3.66c0.16,2.32-0.1,4.94,1.19,7
		c0.73,1.17,1.96,2.06,1.45,3.62c-0.24,0.74-0.85,1.16-1.42,1.61c0.75,0.51,1.23,1.24,1.49,2.1v0.01c0.13,0.37,0.21,0.77,0.26,1.19
		c0,0.01,0,0.01,0,0.01C64.99,155.06,64.89,156.44,64.74,157.7z"/>
	<path class="st4" d="M15.77,40.48c-0.25-0.42-0.59-0.76-1.01-1.01c-0.17-0.12-0.29-0.17-0.5-0.26c-0.34-0.14-0.77-0.27-1.15-0.23
		c-0.71,0.08-1.41,0.24-1.91,0.79c-0.14,0.18-0.28,0.36-0.42,0.55c-0.24,0.42-0.37,0.88-0.37,1.36c-0.06,0.55,0.17,1.2,0.5,1.65
		c0.25,0.42,0.59,0.76,1.01,1.01c0.44,0.26,0.92,0.38,1.43,0.39c0.75-0.03,1.46-0.29,2-0.83c0.51-0.51,0.83-1.27,0.83-2
		C16.15,41.4,16.02,40.92,15.77,40.48z"/>
	<path class="st4" d="M16.7,31.08c-3.68,0-3.69,5.72,0,5.72C20.38,36.8,20.39,31.08,16.7,31.08z"/>
	<path class="st4" d="M29.35,32.93c-0.47-0.47-1.25-0.83-1.93-0.8c-0.71,0.03-1.44,0.26-1.93,0.8c-0.46,0.5-0.88,1.23-0.8,1.93
		c0.06,0.55,0.08,1.12,0.3,1.64c0.21,0.5,0.41,0.8,0.78,1.24c0.35,0.42,1.11,0.71,1.65,0.68c0.59-0.03,1.25-0.22,1.65-0.68
		c0.37-0.43,0.57-0.74,0.78-1.24c0.22-0.52,0.24-1.08,0.3-1.64C30.22,34.21,29.79,33.37,29.35,32.93z"/>
	<path class="st4" d="M33.24,58.2c-3.08,0-3.08,4.79,0,4.79C36.32,62.99,36.33,58.2,33.24,58.2z"/>
	<path class="st4" d="M22.52,66.79c-2.28,0-2.28,3.54,0,3.54C24.8,70.33,24.8,66.79,22.52,66.79z"/>
	<path class="st4" d="M26.03,54.33c-0.44-0.44-1.26-0.74-1.87-0.5c-0.42,0.17-0.82,0.33-1.2,0.59c-0.62,0.42-1.11,1.09-1.08,1.88
		c0.03,0.58,0.22,1.12,0.64,1.54c0.39,0.39,0.98,0.64,1.54,0.64c0.81,0,1.44-0.43,1.88-1.08c0.26-0.38,0.42-0.78,0.59-1.2
		C26.77,55.59,26.47,54.77,26.03,54.33z"/>
	<path class="st4" d="M43.96,42.2c-2.77,0-2.78,4.31,0,4.31C46.73,46.51,46.74,42.2,43.96,42.2z"/>
	<path class="st4" d="M50.39,68.74c-3.31,0-3.32,5.15,0,5.15C53.71,73.89,53.71,68.74,50.39,68.74z"/>
	<path class="st4" d="M64.18,80.07c-4.11,0-4.12,6.39,0,6.39C68.29,86.46,68.3,80.07,64.18,80.07z"/>
	<path class="st4" d="M10.27,72.8c-2.18,0-3.03,2.05-2.58,3.66c-0.5,0.77-0.15,2.08,1.05,2.08c0.32,0,0.58-0.1,0.78-0.25
		c0.23,0.06,0.48,0.1,0.75,0.1C13.87,78.4,13.88,72.8,10.27,72.8z"/>
	<path class="st4" d="M10.98,52.36c-0.94,0-1.39,0.77-1.34,1.51c-3.13,0.01-3.13,4.88,0.01,4.88c2.17,0,2.84-2.34,2.01-3.78
		C12.73,54.37,12.51,52.36,10.98,52.36z"/>
	<path class="st4" d="M48.86,18.99c-3.87,0-3.87,6.01,0,6.01C52.73,25,52.73,18.99,48.86,18.99z"/>
	<path class="st4" d="M36.92,23.72c-3.3,0-3.3,5.12,0,5.12C40.21,28.85,40.22,23.72,36.92,23.72z"/>
	<path class="st4" d="M64.18,37.51c-2.89,0-2.9,4.5,0,4.5C67.07,42.01,67.08,37.51,64.18,37.51z"/>
	<path class="st4" d="M61.73,53.16c-2.46,0-2.47,3.83,0,3.83C64.19,56.99,64.2,53.16,61.73,53.16z"/>
	<path class="st4" d="M75.82,61.13c-3.65,0-3.66,5.67,0,5.67C79.47,66.8,79.47,61.13,75.82,61.13z"/>
	<path class="st4" d="M36,76.71c-3.7,0-3.7,5.74,0,5.74C39.69,82.46,39.7,76.71,36,76.71z"/>
	<path class="st4" d="M57.13,89.42c-2.71,0-2.71,4.21,0,4.21C59.84,93.64,59.85,89.42,57.13,89.42z"/>
	<path class="st4" d="M63.87,104.46c-2.68,0-2.68,4.16,0,4.16C66.55,108.62,66.56,104.46,63.87,104.46z"/>
	<path class="st4" d="M79.19,104.25c-4.13,0-4.13,6.41,0,6.41C83.32,110.67,83.32,104.25,79.19,104.25z"/>
	<path class="st4" d="M78.88,114.1c-4.07,0-4.07,6.32,0,6.32C82.95,120.42,82.95,114.1,78.88,114.1z"/>
	<path class="st4" d="M72.14,124.62c-3.54,0-3.55,5.5,0,5.5C75.68,130.12,75.69,124.62,72.14,124.62z"/>
	<path class="st4" d="M81.39,133.64c-0.48-0.59-1.21-0.98-2.2-0.98c-2.01,0-2.97,1.64-2.87,3.2c-1.88,0.22-1.82,3.25,0.21,3.25
		c0.66,0,1.12-0.32,1.36-0.77c0.37,0.17,0.8,0.27,1.29,0.27c1.68,0,2.63-1.15,2.83-2.43C82.94,135.54,82.72,133.78,81.39,133.64z"/>
	<path class="st4" d="M79.8,144.09c-3.71,0-3.72,5.77,0,5.77C83.51,149.86,83.52,144.09,79.8,144.09z"/>
	<path class="st4" d="M99.71,141.12c-3.99,0-3.99,6.2,0,6.2C103.7,147.32,103.71,141.12,99.71,141.12z"/>
	<path class="st4" d="M104,137.84c-3.08,0-3.08,4.79,0,4.79C107.08,142.63,107.08,137.84,104,137.84z"/>
	<path class="st4" d="M95.73,124.08c-3.83,0-3.84,5.96,0,5.96C99.56,130.04,99.57,124.08,95.73,124.08z"/>
	<path class="st4" d="M95.93,131.67c-0.27,0-0.48,0.1-0.63,0.25c-0.3-0.75-0.97-1.33-2.03-1.33c-2.96,0-2.96,4.59,0,4.59
		c1.27,0,2-0.86,2.17-1.83c0.13,0.08,0.29,0.14,0.48,0.14C97.11,133.49,97.11,131.67,95.93,131.67z"/>
	<path class="st4" d="M88.38,148.21c-1.28,0-2.5,1.12-2.44,2.44c0.06,1.32,1.07,2.44,2.44,2.44c1.28,0,2.5-1.12,2.44-2.44
		C90.76,149.33,89.75,148.21,88.38,148.21z"/>
	<path class="st4" d="M109.82,148.89c-3.05,0-3.05,4.74,0,4.74C112.87,153.63,112.87,148.89,109.82,148.89z"/>
	<path class="st4" d="M120.85,144.16c-3.62,0-3.62,5.62,0,5.62C124.47,149.79,124.47,144.16,120.85,144.16z"/>
	<path class="st4" d="M129.73,147.44c-3.34,0-3.35,5.19,0,5.19C133.07,152.63,133.08,147.44,129.73,147.44z"/>
	<path class="st4" d="M135.86,133.94c-4.16,0-4.16,6.46,0,6.46C140.01,140.4,140.02,133.94,135.86,133.94z"/>
	<path class="st4" d="M139.23,119.06c-3.6,0-3.61,5.6,0,5.6C142.83,124.66,142.84,119.06,139.23,119.06z"/>
	<path class="st4" d="M126.67,108.4c-3.91,0-3.92,6.08,0,6.08C130.58,114.48,130.59,108.4,126.67,108.4z"/>
	<path class="st4" d="M117.78,123.95c-3.22,0-3.22,5,0,5C121,128.95,121.01,123.95,117.78,123.95z"/>
	<path class="st4" d="M112.88,131.72c-3.08,0-3.08,4.79,0,4.79C115.96,136.5,115.97,131.72,112.88,131.72z"/>
	<path class="st4" d="M102.32,110.62c1.2-0.6,0.98-2.8-0.67-2.8c-1.22,0-1.65,1.21-1.31,2.08c0,0-0.01,0-0.01,0
		c-3.96,0-3.96,6.15,0,6.15C103.44,116.05,104.1,112.25,102.32,110.62z"/>
	<path class="st4" d="M107.98,98.11c-3.76,0-3.76,5.84,0,5.84C111.74,103.95,111.75,98.11,107.98,98.11z"/>
	<path class="st4" d="M127.28,98.66c-3.83,0-3.84,5.96,0,5.96C131.11,104.62,131.12,98.66,127.28,98.66z"/>
	<path class="st4" d="M93.28,94.4c-3.4,0-3.41,5.29,0,5.29C96.68,99.69,96.69,94.4,93.28,94.4z"/>
	<path class="st4" d="M103.08,68.66c-3.02,0-3.02,4.69,0,4.69C106.1,73.35,106.1,68.66,103.08,68.66z"/>
	<path class="st4" d="M114.11,72.88c-3.11,0-3.12,4.83,0,4.83C117.22,77.71,117.22,72.88,114.11,72.88z"/>
	<path class="st4" d="M138.31,81.9c-3.33,0-3.33,5.17,0,5.17C141.63,87.07,141.64,81.9,138.31,81.9z"/>
	<path class="st4" d="M145.4,85.96c0.05,0.01,0.1,0.02,0.16,0.02c1.52,0,1.53-2.37,0-2.37c-1.37,0-1.51,1.91-0.41,2.3
		c-0.13-0.02-0.26-0.04-0.41-0.04c-2.96,0-2.96,4.59,0,4.59C147.45,90.46,147.67,86.6,145.4,85.96z"/>
	<path class="st4" d="M139.84,99.69c-3.3,0-3.3,5.12,0,5.12C143.13,104.81,143.14,99.69,139.84,99.69z"/>
	<path class="st4" d="M145.05,96.11c-3.96,0-3.96,6.15,0,6.15C149,102.26,149.01,96.11,145.05,96.11z"/>
	<path class="st4" d="M88.99,82.25c-4.07,0-4.07,6.32,0,6.32C93.06,88.56,93.06,82.25,88.99,82.25z"/>
	<path class="st4" d="M89.91,68.81c-4.4,0-4.41,6.84,0,6.84C94.31,75.66,94.32,68.81,89.91,68.81z"/>
	<path class="st4" d="M107.68,42.61c-4.22,0-4.23,6.56,0,6.56C111.9,49.17,111.9,42.61,107.68,42.61z"/>
	<path class="st4" d="M121.46,53.27c-3.51,0-3.52,5.46,0,5.46C124.97,58.73,124.98,53.27,121.46,53.27z"/>
	<path class="st4" d="M130.96,66.4c-3.96,0-3.96,6.15,0,6.15C134.91,72.55,134.92,66.4,130.96,66.4z"/>
	<path class="st4" d="M140.15,61.88c-3.46,0-3.47,5.38,0,5.38C143.61,67.27,143.62,61.88,140.15,61.88z"/>
	<path class="st4" d="M141.98,48.15c-3,0-3.01,4.67,0,4.67C144.99,52.82,144.99,48.15,141.98,48.15z"/>
	<path class="st4" d="M149.64,44.9c-4.03,0-4.04,6.27,0,6.27C153.68,51.17,153.68,44.9,149.64,44.9z"/>
	<path class="st4" d="M149.64,61.76c-3.62,0-3.62,5.62,0,5.62C153.26,67.39,153.27,61.76,149.64,61.76z"/>
	<path class="st4" d="M147.5,76.37c-3.74,0-3.75,5.82,0,5.82C151.24,82.19,151.25,76.37,147.5,76.37z"/>
	<path class="st4" d="M157.3,89.51c-4.17,0-4.18,6.49,0,6.49C161.47,96,161.48,89.51,157.3,89.51z"/>
	<path class="st4" d="M168.02,86.26c-3.63,0-3.64,5.65,0,5.65C171.65,91.9,171.66,86.26,168.02,86.26z"/>
	<path class="st4" d="M174.15,77.59c-3.36,0-3.36,5.22,0,5.22C177.5,82.81,177.51,77.59,174.15,77.59z"/>
	<path class="st4" d="M174.15,66.21c-3.42,0-3.42,5.31,0,5.31C177.57,71.52,177.57,66.21,174.15,66.21z"/>
	<path class="st4" d="M183.95,70.61c-4.07,0-4.07,6.32,0,6.32C188.01,76.92,188.02,70.61,183.95,70.61z"/>
	<path class="st4" d="M194.67,76.38c-2.94,0-2.95,4.57,0,4.57C197.61,80.95,197.62,76.38,194.67,76.38z"/>
	<path class="st4" d="M205.39,70.09c-1.97,0-1.97,3.06,0,3.06C207.36,73.15,207.37,70.09,205.39,70.09z"/>
	<path class="st4" d="M199.57,52.71c-2.65,0-2.65,4.12,0,4.12C202.22,56.83,202.22,52.71,199.57,52.71z"/>
	<path class="st4" d="M195.59,49.36c-1.61,0-2.46,1.18-2.55,2.43c-0.61,0.82-0.28,2.3,1,2.4c0.4,0.3,0.92,0.48,1.55,0.48
		C199.01,54.67,199.01,49.36,195.59,49.36z"/>
	<path class="st4" d="M199.26,40.58c-3.28,0-3.29,5.1,0,5.1C202.54,45.68,202.55,40.58,199.26,40.58z"/>
	<path class="st4" d="M202.33,33.17c-3.36,0-3.36,5.22,0,5.22C205.68,38.39,205.69,33.17,202.33,33.17z"/>
	<path class="st4" d="M194.67,26.17c-3.7,0-3.7,5.74,0,5.74C198.37,31.91,198.37,26.17,194.67,26.17z"/>
	<path class="st4" d="M183.34,27.58c-3.06,0-3.07,4.76,0,4.76C186.4,32.34,186.41,27.58,183.34,27.58z"/>
	<path class="st4" d="M179.97,39.86c-3.82,0-3.83,5.93,0,5.93C183.79,45.79,183.79,39.86,179.97,39.86z"/>
	<path class="st4" d="M170.47,47.29c-1,0-1.5,0.77-1.5,1.55c-0.27-0.13-0.58-0.2-0.95-0.2c-2.66,0-2.76,3.95-0.32,4.28
		c0.07,0.53,0.45,1.01,1.14,1.01c1.1,0,1.41-1.22,0.93-1.92c0.29-0.48,0.39-1.09,0.29-1.65c0.13,0.03,0.26,0.05,0.41,0.05
		C172.48,50.41,172.48,47.29,170.47,47.29z"/>
	<path class="st4" d="M164.96,54.29c-2.59,0-2.59,4.02,0,4.02C167.54,58.31,167.55,54.29,164.96,54.29z"/>
	<path class="st4" d="M181.82,53.53c-0.6-0.55-1.33-0.89-2.16-0.89c-0.78,0-1.6,0.34-2.16,0.89c-0.53,0.53-0.93,1.4-0.89,2.16
		c0.04,0.79,0.29,1.61,0.89,2.16c0.6,0.55,1.33,0.89,2.16,0.89c0.78,0,1.6-0.34,2.16-0.89c0.53-0.53,0.93-1.4,0.89-2.16
		C182.68,54.9,182.42,54.08,181.82,53.53z"/>
	<path class="st4" d="M171.7,25.49c-3.79,0-3.79,5.89,0,5.89C175.48,31.37,175.49,25.49,171.7,25.49z"/>
	<path class="st4" d="M162.78,18.12c-0.26,1.46,0.56,3.14,2.49,3.14c1.92,0,2.74-1.68,2.49-3.14H162.78z"/>
	<path class="st4" d="M150.86,18.12c-0.73,1.13-0.22,3.05,1.54,3.05c1.75,0,2.26-1.92,1.54-3.05H150.86z"/>
	<path class="st4" d="M150.87,26.63c-2.09,0-3.06,1.75-2.91,3.37c-2.64,1-2.29,5.64,1.07,5.64c1.96,0,2.89-1.58,2.81-3.1
		C154.73,31.63,154.41,26.63,150.87,26.63z"/>
	<path class="st4" d="M132.79,31.15c-3.99,0-3.99,6.2,0,6.2C136.78,37.35,136.79,31.15,132.79,31.15z"/>
	<path class="st4" d="M120.23,30.8c-4.05,0-4.06,6.29,0,6.29C124.28,37.09,124.29,30.8,120.23,30.8z"/>
	<path class="st4" d="M91.55,45.6c-0.13-0.48-0.38-0.89-0.72-1.24c-0.35-0.35-0.77-0.59-1.24-0.72c-0.5-0.13-1-0.13-1.5,0
		c-0.06,0.01-0.12,0.02-0.19,0.03c-0.98,0.17-1.8,1.14-2.06,2.06c-0.28,1.01,0.01,2.12,0.76,2.86c0.74,0.74,1.85,1.04,2.86,0.76
		c0.92-0.25,1.89-1.07,2.06-2.06c0.01-0.06,0.02-0.12,0.03-0.19C91.69,46.6,91.69,46.1,91.55,45.6z"/>
	<path class="st4" d="M86.4,53.34c0.42-0.52,0.2-1.52-0.67-1.52c-0.91,0-1.11,1.09-0.61,1.58c-3.41,0.79-3.14,6.51,0.82,6.51
		C90.01,59.91,90.18,53.81,86.4,53.34z"/>
	<path class="st4" d="M81.95,25.81c-4.16,0-4.16,6.46,0,6.46C86.1,32.27,86.11,25.81,81.95,25.81z"/>
	<path class="st4" d="M71.22,30.6c-3.91,0-3.92,6.08,0,6.08C75.14,36.68,75.14,30.6,71.22,30.6z"/>
	<path class="st4" d="M65.71,24.33c-2.91,0-2.92,4.52,0,4.52C68.62,28.85,68.63,24.33,65.71,24.33z"/>
	<path class="st4" d="M66.87,18.12c0.51,0.55,1.24,0.91,2.21,0.91c0.97,0,1.7-0.37,2.2-0.91H66.87z"/>
	<path class="st4" d="M88.68,22.84c-3.65,0-3.66,5.67,0,5.67C92.33,28.51,92.34,22.84,88.68,22.84z"/>
	<path class="st4" d="M104.4,18.12c-0.43,1.66,0.45,3.7,2.67,3.7c2.21,0,3.1-2.05,2.67-3.7H104.4z"/>
	<path class="st4" d="M110.43,24.72c-3.2,0-3.21,4.98,0,4.98C113.64,29.69,113.64,24.72,110.43,24.72z"/>
	<path class="st4" d="M121.71,18.12c0.29,0.52,0.81,0.91,1.59,0.91c0.25,0,0.48-0.05,0.68-0.12c0.21,1.05,1,1.96,2.39,1.96
		c1.72,0,2.53-1.41,2.43-2.74H121.71z"/>
	<path class="st4" d="M103.57,36.6c-1-1.71-3.64-1.77-4.63,0c-0.46,0.82-0.58,1.87-0.09,2.71c0.21,0.37,0.57,0.7,0.93,0.92
		c0.5,0.3,0.91,0.33,1.48,0.4c0.48,0,0.93-0.12,1.35-0.37c0.4-0.24,0.72-0.56,0.96-0.96C104.06,38.48,104.06,37.43,103.57,36.6z"/>
	<path class="st4" d="M24.66,45.33c-2.69,0-2.7,4.19,0,4.19C27.36,49.52,27.36,45.33,24.66,45.33z"/>
	<path class="st4" d="M114.41,84.5c-3.93,0-3.93,6.1,0,6.1C118.34,90.6,118.35,84.5,114.41,84.5z"/>
	<path class="st4" d="M126.97,84.5c-3.93,0-3.93,6.1,0,6.1C130.9,90.6,130.91,84.5,126.97,84.5z"/>
	<path class="st5" d="M45.08,57.15c-4.56,0-4.57,7.08,0,7.08C49.64,64.24,49.65,57.15,45.08,57.15z"/>
	<path class="st5" d="M53.05,41.13c-2.26,0-3.12,2.19-2.56,3.84c-0.63,0.12-1.23,0.42-1.68,0.86c-0.54,0.54-0.95,1.44-0.92,2.22
		c0.04,0.81,0.3,1.65,0.92,2.22c0.61,0.56,1.37,0.92,2.22,0.92c0.8,0,1.65-0.35,2.22-0.92c0.54-0.54,0.95-1.44,0.92-2.22
		c-0.02-0.47-0.13-0.95-0.33-1.38C56.65,45.91,56.4,41.13,53.05,41.13z"/>
	<path class="st5" d="M49.37,29.81c-4,0-4.01,6.22,0,6.22C53.38,36.03,53.38,29.81,49.37,29.81z"/>
	<path class="st5" d="M48.76,24.04c-1.97,0-1.97,3.06,0,3.06C50.73,27.1,50.73,24.04,48.76,24.04z"/>
	<path class="st5" d="M38.55,22.93c-0.1,0-0.2,0.01-0.29,0.01c0.13-0.11,0.24-0.24,0.35-0.37c0.19-0.22,0.08-0.63-0.25-0.61
		c-0.18,0.01-0.37,0.02-0.55,0.05c-0.01,0-0.12,0.02-0.18,0.04c-0.37-0.18-0.78-0.17-1.12,0.08c-0.36,0.28-0.49,0.76-0.31,1.18
		c0.07,0.16,0.18,0.29,0.3,0.39c-1.69,1.65-1.01,5.32,2.04,5.32C42.48,29.03,42.48,22.93,38.55,22.93z"/>
	<path class="st5" d="M22.42,25.31c-4.02,0-4.03,6.25,0,6.25C26.44,31.55,26.44,25.31,22.42,25.31z"/>
	<path class="st5" d="M15.68,26.77c-3.71,0-3.72,5.77,0,5.77C19.39,32.54,19.4,26.77,15.68,26.77z"/>
	<path class="st5" d="M9.55,26.27c-3.57,0-3.58,5.55,0,5.55C13.12,31.82,13.13,26.27,9.55,26.27z"/>
	<path class="st5" d="M24.66,55.29c-3.8,0-3.81,5.91,0,5.91C28.47,61.2,28.47,55.29,24.66,55.29z"/>
	<path class="st5" d="M16.7,67.24c-3.4,0-3.41,5.29,0,5.29C20.1,72.53,20.11,67.24,16.7,67.24z"/>
	<path class="st5" d="M28.14,79.47c-3.7,0-3.7,5.74,0,5.74C31.83,85.21,31.84,79.47,28.14,79.47z"/>
	<path class="st5" d="M39.78,78.89c-4.17,0-4.18,6.49,0,6.49C43.95,85.38,43.96,78.89,39.78,78.89z"/>
	<path class="st5" d="M49.17,88.61c-3.23,0-3.24,5.03,0,5.03C52.4,93.64,52.41,88.61,49.17,88.61z"/>
	<path class="st5" d="M62.85,63.22c-3.06,0-3.84,3.53-2.35,5.34c-3.13,1.06-2.76,6.5,1.13,6.5c3.24,0,4.04-3.79,2.4-5.66
		C66.91,68.32,66.53,63.22,62.85,63.22z"/>
	<path class="st5" d="M75.72,54.95c-4.23,0-4.24,6.58,0,6.58C79.95,61.53,79.96,54.95,75.72,54.95z"/>
	<path class="st5" d="M71.02,43.26c-3.24,0-3.49,4.64-0.74,5.35c-0.58,0.73-0.27,2.12,0.95,2.12c1.28,0,1.56-1.54,0.85-2.23
		C74.48,47.54,74.14,43.26,71.02,43.26z"/>
	<path class="st5" d="M50.05,18.12c0.47,0.6,1.19,1,2.19,1c0.99,0,1.71-0.41,2.18-1H50.05z"/>
	<path class="st5" d="M62.02,18.12c0.5,0.72,1.32,1.22,2.47,1.22c1.14,0,1.96-0.5,2.46-1.22H62.02z"/>
	<path class="st5" d="M76.97,18.12h-2.09c-2.94,0.98-2.6,6.08,1.04,6.08C79.55,24.2,79.91,19.1,76.97,18.12z"/>
	<path class="st5" d="M134.78,18.12c0.22,0.26,0.54,0.43,0.98,0.43c0.44,0,0.76-0.17,0.98-0.43H134.78z"/>
	<path class="st5" d="M129.48,18.12c-0.8,1.66-0.01,4.13,2.4,4.13c2.4,0,3.19-2.47,2.4-4.13H129.48z"/>
	<path class="st5" d="M116.64,18.12h-3.01c-2.43,1.33-1.93,5.88,1.51,5.88C118.56,24,119.06,19.45,116.64,18.12z"/>
	<path class="st5" d="M117.17,31.41c-3.26,0-3.27,5.07,0,5.07C120.44,36.48,120.44,31.41,117.17,31.41z"/>
	<path class="st5" d="M94.3,34.05c-1.97,0-1.97,3.06,0,3.06C96.27,37.11,96.27,34.05,94.3,34.05z"/>
	<path class="st5" d="M100.22,41.11c-3.13,0-3.13,4.86,0,4.86C103.35,45.97,103.35,41.11,100.22,41.11z"/>
	<path class="st5" d="M107.37,46.71c-1.97,0-1.97,3.06,0,3.06C109.34,49.77,109.34,46.71,107.37,46.71z"/>
	<path class="st5" d="M102.06,57.66c-1.7,0-2.28,1.74-1.74,2.93c-0.46-0.45-1.1-0.75-1.94-0.75c-3.73,0-3.73,5.79,0,5.79
		c2.52,0,3.34-2.65,2.44-4.37c0.31,0.26,0.72,0.42,1.24,0.42C104.65,61.68,104.65,57.66,102.06,57.66z"/>
	<path class="st5" d="M82.25,38.47c-3.63,0-3.64,5.65,0,5.65C85.89,44.12,85.89,38.47,82.25,38.47z"/>
	<path class="st5" d="M95.73,82.18c-3.62,0-3.62,5.62,0,5.62C99.35,87.81,99.35,82.18,95.73,82.18z"/>
	<path class="st5" d="M81.43,79.28c-3.42,0-3.42,5.31,0,5.31C84.85,84.59,84.86,79.28,81.43,79.28z"/>
	<path class="st5" d="M75.51,82.17c-3.63,0-3.64,5.65,0,5.65C79.15,87.82,79.15,82.17,75.51,82.17z"/>
	<path class="st5" d="M74.29,94.83c-3.37,0-3.38,5.24,0,5.24C77.66,100.07,77.67,94.83,74.29,94.83z"/>
	<path class="st5" d="M66.94,103.23c-3.08,0-3.08,4.79,0,4.79C70.02,108.01,70.02,103.23,66.94,103.23z"/>
	<path class="st5" d="M79.19,113.35c-2.93,0-2.93,4.55,0,4.55C82.11,117.9,82.12,113.35,79.19,113.35z"/>
	<path class="st5" d="M81.23,127.06c-3.42,0-3.42,5.31,0,5.31C84.65,132.37,84.65,127.06,81.23,127.06z"/>
	<path class="st5" d="M86.54,133.72c-3.26,0-3.27,5.07,0,5.07C89.8,138.79,89.81,133.72,86.54,133.72z"/>
	<path class="st5" d="M86.13,140.42c-3.83,0-3.84,5.96,0,5.96C89.97,146.38,89.97,140.42,86.13,140.42z"/>
	<path class="st5" d="M82.05,146.61c-2.97,0-2.98,4.62,0,4.62C85.02,151.22,85.02,146.61,82.05,146.61z"/>
	<path class="st5" d="M102.47,141.51c-3.74,0-3.75,5.82,0,5.82C106.21,147.33,106.22,141.51,102.47,141.51z"/>
	<path class="st5" d="M112.07,144.12c-3.02,0-3.02,4.69,0,4.69C115.08,148.81,115.09,144.12,112.07,144.12z"/>
	<path class="st5" d="M124.93,136.97c-3.02,0-3.02,4.69,0,4.69C127.95,141.66,127.95,136.97,124.93,136.97z"/>
	<path class="st5" d="M133.1,126.56c-4.33,0-4.33,6.72,0,6.72C137.43,133.29,137.43,126.56,133.1,126.56z"/>
	<path class="st5" d="M133.1,114.6c-4.48,0-4.49,6.96,0,6.96c0.01,0,0.01,0,0.02,0c0.08,0.66,0.55,1.27,1.41,1.27
		c1.38,0,1.76-1.55,1.13-2.41C137.29,118.44,136.44,114.6,133.1,114.6z"/>
	<path class="st5" d="M113.29,121.51c-3.99,0-3.99,6.2,0,6.2C117.28,127.71,117.29,121.51,113.29,121.51z"/>
	<path class="st5" d="M102.47,118.92c-3.65,0-3.66,5.67,0,5.67C106.12,124.59,106.12,118.92,102.47,118.92z"/>
	<path class="st5" d="M107.78,104.52c-2.73,0-2.73,4.24,0,4.24C110.5,108.76,110.51,104.52,107.78,104.52z"/>
	<path class="st5" d="M106.96,87.06c-3.91,0-3.92,6.08,0,6.08C110.87,93.14,110.88,87.06,106.96,87.06z"/>
	<path class="st5" d="M114.93,86.51c-3.57,0-3.58,5.55,0,5.55C118.5,92.06,118.5,86.51,114.93,86.51z"/>
	<path class="st5" d="M126.16,96.94c-1.97,0-1.97,3.06,0,3.06C128.13,100.01,128.13,96.94,126.16,96.94z"/>
	<path class="st5" d="M149.44,89.74c-2.3,0-3.24,2.12-2.81,3.85c-3.77,0.16-3.72,6.09,0.16,6.09c2.34,0,3.29-2.17,2.84-3.92
		C153.31,95.57,153.26,89.74,149.44,89.74z"/>
	<path class="st5" d="M138.21,83.87c-2.23,0-2.24,3.47,0,3.47C140.44,87.34,140.44,83.87,138.21,83.87z"/>
	<path class="st5" d="M129.22,82.92c-3.73,0-3.73,5.79,0,5.79C132.95,88.71,132.95,82.92,129.22,82.92z"/>
	<path class="st5" d="M119.62,68.75c-3.82,0-3.83,5.93,0,5.93C123.44,74.69,123.45,68.75,119.62,68.75z"/>
	<path class="st5" d="M133.1,52.28c-4.27,0-4.27,6.63,0,6.63C137.37,58.9,137.37,52.28,133.1,52.28z"/>
	<path class="st5" d="M132.08,42.21c-3.82,0-3.83,5.93,0,5.93C135.9,48.14,135.9,42.21,132.08,42.21z"/>
	<path class="st5" d="M157.81,78.55c-0.13,0-0.25,0.01-0.37,0.04c-0.25-1.38-1.29-2.59-3.1-2.59c-4.22,0-4.23,6.56,0,6.56
		c1.02,0,1.78-0.38,2.31-0.96c0.28,0.27,0.66,0.45,1.16,0.45C160.05,82.04,160.06,78.55,157.81,78.55z"/>
	<path class="st5" d="M152.09,63.49c-3.5,0-3.5,5.43,0,5.43C155.59,68.92,155.59,63.49,152.09,63.49z"/>
	<path class="st5" d="M168.02,63.12c-3.45,0-3.45,5.36,0,5.36C171.47,68.48,171.48,63.12,168.02,63.12z"/>
	<path class="st5" d="M173.74,76.99c-2.16,0-2.16,3.35,0,3.35C175.89,80.34,175.9,76.99,173.74,76.99z"/>
	<path class="st5" d="M184.56,72.16c-4.17,0-4.18,6.49,0,6.49C188.73,78.64,188.74,72.16,184.56,72.16z"/>
	<path class="st5" d="M199.88,66.63c-2.83,0-3.75,2.97-2.76,4.89c-0.49,0.01-0.98,0.13-1.44,0.4c-0.33,0.19-0.61,0.44-0.83,0.72
		c-0.03,0-0.05-0.02-0.08-0.02c-0.72,0-0.88,0.85-0.49,1.25c-0.02,0.09-0.04,0.18-0.05,0.27c-0.13,0.95,0.15,1.87,0.84,2.56
		c0.38,0.38,0.83,0.64,1.35,0.78c0.54,0.15,1.08,0.15,1.62,0c1.46-0.22,2.98-1.08,3.19-2.66c0.09-0.69-0.1-1.31-0.49-1.81
		C204.04,72.2,203.76,66.63,199.88,66.63z"/>
	<path class="st5" d="M201.72,54.13c-4.25,0-4.26,6.6,0,6.6C205.97,60.73,205.97,54.13,201.72,54.13z"/>
	<path class="st5" d="M203.76,36.01c-3.91,0-3.92,6.08,0,6.08C207.67,42.09,207.68,36.01,203.76,36.01z"/>
	<path class="st5" d="M202.12,23.26c-3.5,0-3.5,5.43,0,5.43C205.62,28.7,205.63,23.26,202.12,23.26z"/>
	<path class="st5" d="M186.2,27.73c-4.05,0-4.06,6.29,0,6.29C190.25,34.03,190.25,27.73,186.2,27.73z"/>
	<path class="st5" d="M176.8,35.01c-3.88,0-3.89,6.03,0,6.03C180.68,41.04,180.69,35.01,176.8,35.01z"/>
	<path class="st5" d="M182.38,47.77c-0.35-0.96-1.18-1.72-2.51-1.72c-3.6,0-3.61,5.6,0,5.6c1.33,0,2.16-0.76,2.51-1.72
		C183.25,49.55,183.26,48.15,182.38,47.77z"/>
	<path class="st5" d="M157.61,48.92c-4.37,0-4.38,6.8,0,6.8C161.98,55.72,161.99,48.92,157.61,48.92z"/>
	<path class="st5" d="M157.61,38.04c-3.4,0-3.41,5.29,0,5.29C161.01,43.33,161.01,38.04,157.61,38.04z"/>
	<path class="st5" d="M163.74,28.18c2.56-1.61,1.95-6.54-1.85-6.54c-4.33,0-4.52,6.42-0.57,6.99c-0.49,0.97-0.03,2.45,1.39,2.45
		C164.38,31.09,164.72,29.03,163.74,28.18z"/>
	<path class="st5" d="M153.25,18.12c0.41,0.99,1.32,1.76,2.72,1.76c1.4,0,2.3-0.77,2.71-1.76H153.25z"/>
	<path class="st5" d="M142.09,27.58c-3.73,0-3.73,5.79,0,5.79C145.81,33.37,145.82,27.58,142.09,27.58z"/>
	<path class="st5" d="M93.55,18.12c-0.36,0.51-0.61,1.16-0.58,1.76c0.07,1.61,1.31,2.98,2.98,2.98c0.76,0,1.57-0.33,2.11-0.87
		c0.52-0.52,0.91-1.36,0.87-2.11c-0.03-0.65-0.26-1.26-0.62-1.76H93.55z"/>
	<g>
		<path class="st5" d="M4.71,46.47c0.01-0.02,0.01-0.03,0.02-0.05C4.74,46.39,4.74,46.39,4.71,46.47z"/>
		<path class="st5" d="M6.73,46.93c-0.02-0.06-0.04-0.12-0.05-0.19c-0.02-0.12-0.03-0.12-0.03-0.01c-0.01-0.12-0.03-0.23-0.05-0.35
			c-0.02-0.04-0.03-0.07-0.04-0.1c-0.07-0.65-0.87-0.94-1.36-0.49c-0.03,0.03-0.05,0.04-0.06,0.05c-0.03,0.03-0.08,0.06-0.15,0.11
			c-0.14,0.14-0.2,0.29-0.27,0.46c-0.02,0.06-0.09,0.26-0.1,0.32C4.6,46.9,4.59,47.05,4.6,47.21c0.05,0.65,0.54,1.16,1.23,1.06
			C6.45,48.19,6.92,47.56,6.73,46.93z"/>
	</g>
	<path class="st5" d="M5.9,34.18c-0.17-0.45-0.7-0.64-1.08-0.29C4.71,34,4.59,34.11,4.48,34.21c-0.02,0.01-0.07,0.05-0.09,0.07
		c-0.08,0.04-0.21,0.11-0.02,0.04c-0.36,0.15-0.65,0.36-0.76,0.76c-0.09,0.34-0.02,0.68,0.2,0.95c0.49,0.63,1.37,0.52,1.8-0.11
		C5.92,35.43,6.12,34.76,5.9,34.18z"/>
	<path class="st5" d="M9.35,33.21c-1.21,0-1.21,1.88,0,1.88C10.56,35.09,10.56,33.21,9.35,33.21z"/>
	<path class="st5" d="M25.48,52.94c-1.3,0-1.3,2.02,0,2.02C26.78,54.97,26.79,52.94,25.48,52.94z"/>
	<path class="st5" d="M30.99,53.86c-0.91,0-0.91,1.41,0,1.41C31.9,55.27,31.9,53.86,30.99,53.86z"/>
	<path class="st5" d="M30.59,44.44c-0.68,0-0.68,1.06,0,1.06C31.27,45.5,31.27,44.44,30.59,44.44z"/>
	<path class="st5" d="M30.99,38.64c-0.79,0-0.8,1.23,0,1.23C31.79,39.87,31.79,38.64,30.99,38.64z"/>
	<path class="st5" d="M30.99,30.51c-0.21,0-0.21,0.33,0,0.33C31.21,30.84,31.21,30.51,30.99,30.51z"/>
	<path class="st5" d="M32.14,27.41c-0.15-0.44-0.27-0.87-0.37-1.33c-0.08-0.36-0.65-0.36-0.73,0c-0.1,0.46-0.22,0.89-0.37,1.33
		c-0.16,0.48,0.27,0.97,0.74,0.97C31.88,28.38,32.31,27.89,32.14,27.41z"/>
	<path class="st5" d="M45.9,18.34c-1.42,0-1.43,2.21,0,2.21C47.32,20.55,47.33,18.34,45.9,18.34z"/>
	<path class="st5" d="M48.76,21.13c-0.45,0-0.45,0.7,0,0.7C49.21,21.84,49.21,21.13,48.76,21.13z"/>
	<path class="st5" d="M40.39,40.5c-1.55,0-1.55,2.41,0,2.41C41.94,42.91,41.94,40.5,40.39,40.5z"/>
	<path class="st5" d="M25.28,69.63c-1.38,0-1.38,2.14,0,2.14C26.65,71.77,26.66,69.63,25.28,69.63z"/>
	<path class="st5" d="M22.62,76.55c-1.4,0-1.41,2.18,0,2.18C24.03,78.74,24.03,76.55,22.62,76.55z"/>
	<path class="st5" d="M23.23,82.72c-0.04,0-0.04,0.06,0,0.06C23.27,82.78,23.27,82.72,23.23,82.72z"/>
	<path class="st5" d="M47.74,86.19c-0.04,0-0.04,0.06,0,0.06C47.78,86.25,47.78,86.19,47.74,86.19z"/>
	<path class="st5" d="M49.17,62.33c-2.11,0-2.11,3.27,0,3.27C51.28,65.6,51.28,62.33,49.17,62.33z"/>
	<path class="st5" d="M57.54,61.03c-1.4,0-1.41,2.18,0,2.18C58.95,63.22,58.95,61.03,57.54,61.03z"/>
	<path class="st5" d="M60.2,81.14c-1.54,0-1.55,2.4,0,2.4C61.74,83.54,61.74,81.14,60.2,81.14z"/>
	<path class="st5" d="M62.85,88.71c-1,0-1,1.55,0,1.55C63.85,90.26,63.85,88.71,62.85,88.71z"/>
	<path class="st5" d="M62.44,100.82c-1.71,0-1.71,2.66,0,2.66C64.15,103.48,64.15,100.82,62.44,100.82z"/>
	<path class="st5" d="M58.56,99.94c-1.53,0-1.54,2.38,0,2.38C60.1,102.32,60.1,99.94,58.56,99.94z"/>
	<path class="st5" d="M63.87,96.2c-0.04,0-0.04,0.06,0,0.06C63.91,96.26,63.91,96.2,63.87,96.2z"/>
	<path class="st5" d="M77.35,95.79c-0.04,0-0.04,0.06,0,0.06C77.39,95.85,77.39,95.79,77.35,95.79z"/>
	<path class="st5" d="M83.07,101.71c-0.04,0-0.04,0.06,0,0.06C83.11,101.77,83.11,101.71,83.07,101.71z"/>
	<path class="st5" d="M90.83,100.22c-1.7,0-1.7,2.64,0,2.64C92.53,102.86,92.53,100.22,90.83,100.22z"/>
	<path class="st5" d="M98.59,97.87c-1.3,0-1.3,2.02,0,2.02C99.89,99.89,99.89,97.87,98.59,97.87z"/>
	<path class="st5" d="M88.58,98.45c-1.61,0-1.61,2.5,0,2.5C90.19,100.95,90.19,98.45,88.58,98.45z"/>
	<path class="st5" d="M80.82,93.84c-1.23,0-1.23,1.91,0,1.91C82.05,95.75,82.05,93.84,80.82,93.84z"/>
	<path class="st5" d="M85.72,94.96c-1.63,0-1.63,2.53,0,2.53C87.35,97.49,87.35,94.96,85.72,94.96z"/>
	<path class="st5" d="M86.95,108.19c-1.69,0-1.69,2.63,0,2.63C88.64,110.82,88.64,108.19,86.95,108.19z"/>
	<path class="st5" d="M82.86,116.7c-1.52,0-1.52,2.35,0,2.35C84.38,119.05,84.38,116.7,82.86,116.7z"/>
	<path class="st5" d="M76.33,121.59c-1,0-1,1.55,0,1.55C77.33,123.14,77.33,121.59,76.33,121.59z"/>
	<path class="st5" d="M67.55,114.79c-1.61,0-1.61,2.5,0,2.5C69.16,117.29,69.16,114.79,67.55,114.79z"/>
	<path class="st5" d="M70.82,120.88c-1.64,0-1.65,2.56,0,2.56C72.46,123.44,72.46,120.88,70.82,120.88z"/>
	<path class="st5" d="M77.35,129.76c-1.79,0-1.8,2.79,0,2.79C79.14,132.54,79.15,129.76,77.35,129.76z"/>
	<path class="st5" d="M79.8,140.02c-0.8,0-1.28,0.51-1.43,1.11c-1.17,0.2-1.1,2.12,0.2,2.12c0.28,0,0.51-0.09,0.67-0.24
		c0.16,0.06,0.34,0.1,0.55,0.1C81.79,143.11,81.79,140.02,79.8,140.02z"/>
	<path class="st5" d="M95.32,139.65c-1.94,0-1.94,3.02,0,3.02C97.26,142.66,97.26,139.65,95.32,139.65z"/>
	<path class="st5" d="M103.69,133.93c-1.41,0-1.42,2.2,0,2.2C105.11,136.13,105.11,133.93,103.69,133.93z"/>
	<path class="st5" d="M100.22,129.25c-1.13,0-1.13,1.75,0,1.75C101.35,131,101.35,129.25,100.22,129.25z"/>
	<path class="st5" d="M117.58,135.3c-2.01,0-2.02,3.13,0,3.13C119.59,138.43,119.6,135.3,117.58,135.3z"/>
	<path class="st5" d="M120.03,139.36c-1.52,0-1.52,2.35,0,2.35C121.55,141.72,121.55,139.36,120.03,139.36z"/>
	<path class="st5" d="M130.85,134.08c-2,0-2.01,3.12,0,3.12C132.86,137.2,132.86,134.08,130.85,134.08z"/>
	<path class="st5" d="M142.9,111.48c-1.92,0-1.92,2.99,0,2.99C144.82,114.47,144.83,111.48,142.9,111.48z"/>
	<path class="st5" d="M145.15,107.32c-1.76,0-1.76,2.73,0,2.73C146.9,110.05,146.91,107.32,145.15,107.32z"/>
	<path class="st5" d="M148.01,103.83c-1.52,0-1.52,2.35,0,2.35C149.52,106.19,149.53,103.83,148.01,103.83z"/>
	<path class="st5" d="M129.63,101.96c-0.77,0-0.77,1.19,0,1.19C130.4,103.15,130.4,101.96,129.63,101.96z"/>
	<path class="st5" d="M117.99,106.03c-1.84,0-1.84,2.86,0,2.86C119.83,108.89,119.83,106.03,117.99,106.03z"/>
	<path class="st5" d="M116.15,98.63c-1.64,0-1.64,2.54,0,2.54C117.79,101.17,117.79,98.63,116.15,98.63z"/>
	<path class="st5" d="M119.83,88.42c-1.64,0-1.65,2.56,0,2.56C121.47,90.97,121.47,88.42,119.83,88.42z"/>
	<path class="st5" d="M108.19,83.32c-1.64,0-1.64,2.54,0,2.54C109.82,85.86,109.82,83.32,108.19,83.32z"/>
	<path class="st5" d="M103.49,78.09c-1.79,0-1.8,2.79,0,2.79C105.28,80.88,105.28,78.09,103.49,78.09z"/>
	<path class="st5" d="M115.54,67.45c-2.09,0-2.09,3.25,0,3.25C117.63,70.69,117.63,67.45,115.54,67.45z"/>
	<path class="st5" d="M119.62,67.29c-0.71,0-0.71,1.11,0,1.11C120.33,68.4,120.33,67.29,119.62,67.29z"/>
	<path class="st5" d="M136.57,79.2c-1.15,0-1.15,1.78,0,1.78C137.72,80.99,137.72,79.2,136.57,79.2z"/>
	<path class="st5" d="M141.27,85.86c-1.52,0-1.52,2.35,0,2.35C142.78,88.22,142.79,85.86,141.27,85.86z"/>
	<path class="st5" d="M147.8,84.15c-0.04,0-0.04,0.06,0,0.06C147.84,84.21,147.84,84.15,147.8,84.15z"/>
	<path class="st5" d="M73.06,74.45c-0.96,0-0.96,1.49,0,1.49C74.02,75.94,74.02,74.45,73.06,74.45z"/>
	<path class="st5" d="M86.56,64.32c0.59-0.52,0.38-1.77-0.64-1.77c-1.28,0-1.29,2,0,2c0.01,0,0.02,0,0.03,0
		c-0.47,0.47-0.28,1.51,0.59,1.51C87.65,66.06,87.66,64.35,86.56,64.32z"/>
	<path class="st5" d="M90.83,58.91c-1.51,0-1.51,2.34,0,2.34C92.33,61.25,92.34,58.91,90.83,58.91z"/>
	<path class="st5" d="M97.82,55.05c-0.25-0.89-1.55-1.37-2.21-0.58c-0.14,0.16-0.25,0.32-0.34,0.48c-0.19,0.25-0.31,0.52-0.22,0.86
		c0.09,0.33,0.33,0.5,0.62,0.62c0.16,0.1,0.33,0.18,0.52,0.25C97.17,57.03,98.07,55.96,97.82,55.05z"/>
	<path class="st5" d="M73.95,69.47c-0.18-0.41-0.76-0.48-1.11-0.29c-0.52,0.29-0.83,0.77-1.16,1.24c-0.51,0.72,0.02,1.77,0.81,1.98
		c0.85,0.23,1.69-0.43,1.71-1.3C74.21,70.53,74.19,70.01,73.95,69.47z"/>
	<path class="st5" d="M67.75,45.53c-0.59,0-0.59,0.92,0,0.92C68.34,46.45,68.34,45.53,67.75,45.53z"/>
	<path class="st5" d="M59.38,44.06c-1.43,0-1.43,2.23,0,2.23C60.81,46.29,60.81,44.06,59.38,44.06z"/>
	<path class="st5" d="M66.53,35.92c-1.4,0-1.41,2.18,0,2.18C67.93,38.1,67.93,35.92,66.53,35.92z"/>
	<path class="st5" d="M74.9,31.47c-1.34,0-1.34,2.08,0,2.08C76.24,33.55,76.24,31.47,74.9,31.47z"/>
	<path class="st5" d="M78.58,27.39c-1.6,0-1.6,2.48,0,2.48C80.17,29.88,80.18,27.39,78.58,27.39z"/>
	<path class="st5" d="M69.67,18.12h-1.39c-0.52,0.55-0.29,1.71,0.69,1.71C69.96,19.83,70.19,18.67,69.67,18.12z"/>
	<path class="st5" d="M162.12,18.12h-1.67c-1.12,0.72-0.85,2.89,0.83,2.89C162.96,21.01,163.24,18.84,162.12,18.12z"/>
	<path class="st5" d="M149.44,28.6c-1.63,0-1.63,2.53,0,2.53C151.06,31.12,151.07,28.6,149.44,28.6z"/>
	<path class="st5" d="M133.1,28.21c-0.8,0-0.81,1.25,0,1.25C133.9,29.46,133.91,28.21,133.1,28.21z"/>
	<path class="st5" d="M126.97,24.7c-1.9,0-1.91,2.96,0,2.96C128.88,27.66,128.88,24.7,126.97,24.7z"/>
	<path class="st5" d="M126.97,33.09c-2.15,0-2.16,3.35,0,3.35C129.13,36.43,129.13,33.09,126.97,33.09z"/>
	<path class="st5" d="M126.16,42.6c-2,0-2,3.1,0,3.1C128.15,45.7,128.16,42.6,126.16,42.6z"/>
	<path class="st5" d="M111.45,43.55c-1.03,0-1.04,1.61,0,1.61C112.49,45.16,112.49,43.55,111.45,43.55z"/>
	<path class="st5" d="M100.83,29.17c-1.94,0-1.94,3.02,0,3.02C102.77,32.18,102.78,29.17,100.83,29.17z"/>
	<path class="st5" d="M106.14,27.47c-1.76,0-1.76,2.73,0,2.73C107.9,30.2,107.9,27.47,106.14,27.47z"/>
	<path class="st5" d="M136.78,55.35c-0.04,0-0.04,0.06,0,0.06C136.82,55.42,136.82,55.35,136.78,55.35z"/>
	<path class="st5" d="M142.9,50.59c-2.23,0-2.23,3.46,0,3.46C145.13,54.05,145.13,50.59,142.9,50.59z"/>
	<path class="st5" d="M111.25,58.81c-0.85,0-0.85,1.32,0,1.32C112.1,60.13,112.1,58.81,111.25,58.81z"/>
	<path class="st5" d="M112.47,51.43c-2.2,0-2.2,3.42,0,3.42C114.67,54.85,114.68,51.43,112.47,51.43z"/>
	<path class="st5" d="M143.31,66.64c-1.28,0-1.29,2,0,2C144.6,68.64,144.6,66.64,143.31,66.64z"/>
	<path class="st5" d="M147.19,76.27c-0.98,0-0.98,1.52,0,1.52C148.17,77.79,148.17,76.27,147.19,76.27z"/>
	<path class="st5" d="M149.85,86.89c-0.45,0-0.45,0.7,0,0.7C150.3,87.59,150.3,86.89,149.85,86.89z"/>
	<path class="st5" d="M165.57,72c-1.49,0-1.49,2.31,0,2.31C167.06,74.31,167.06,72,165.57,72z"/>
	<path class="st5" d="M169.86,77.61c-2.14,0-2.15,3.33,0,3.33C172,80.94,172.01,77.61,169.86,77.61z"/>
	<path class="st5" d="M176.6,76.87c-1.52,0-1.53,2.37,0,2.37C178.12,79.24,178.12,76.87,176.6,76.87z"/>
	<path class="st5" d="M179.66,64.83c-2.03,0-2.04,3.16,0,3.16C181.69,67.99,181.7,64.83,179.66,64.83z"/>
	<path class="st5" d="M182.52,60.24c-2.16,0-2.17,3.36,0,3.36C184.68,63.6,184.69,60.24,182.52,60.24z"/>
	<path class="st5" d="M189.26,60.32c-0.95,0-1.39,0.77-1.34,1.51c-0.09-0.02-0.19-0.04-0.3-0.04c-1.48,0-1.48,2.3,0,2.3
		c0.71,0,1.08-0.53,1.1-1.08c0.16,0.06,0.33,0.1,0.53,0.1C191.05,63.11,191.05,60.32,189.26,60.32z"/>
	<path class="st5" d="M192.53,53.88c-1.67,0-1.68,2.6,0,2.6C194.2,56.48,194.2,53.88,192.53,53.88z"/>
	<path class="st5" d="M187.01,46.99c-0.81,0-0.81,1.26,0,1.26C187.83,48.26,187.83,46.99,187.01,46.99z"/>
	<path class="st5" d="M188.85,36.6c-1.84,0-1.84,2.86,0,2.86C190.69,39.46,190.69,36.6,188.85,36.6z"/>
	<path class="st5" d="M191.3,32.22c-1.95,0-1.95,3.03,0,3.03C193.25,35.25,193.25,32.22,191.3,32.22z"/>
	<path class="st5" d="M172.72,41.32c-2.07,0-2.07,3.22,0,3.22C174.79,44.54,174.79,41.32,172.72,41.32z"/>
	<path class="st5" d="M162.71,41.26c-1.1,0-1.1,1.71,0,1.71C163.81,42.97,163.81,41.26,162.71,41.26z"/>
	<path class="st5" d="M164.55,31.95c-2.04,0-2.05,3.17,0,3.17C166.59,35.12,166.59,31.95,164.55,31.95z"/>
	<path class="st5" d="M150.66,38.81c-1.1,0-1.1,1.71,0,1.71C151.76,40.52,151.76,38.81,150.66,38.81z"/>
	<path class="st5" d="M146.58,43.51c-1.62,0-1.62,2.51,0,2.51C148.2,46.02,148.2,43.51,146.58,43.51z"/>
	<path class="st5" d="M144.33,40.53c-1.51,0-1.51,2.34,0,2.34C145.84,42.87,145.84,40.53,144.33,40.53z"/>
	<path class="st5" d="M184.56,56.88c-1.49,0-1.49,2.31,0,2.31C186.05,59.2,186.05,56.88,184.56,56.88z"/>
	<path class="st5" d="M175.53,30.49c1.4-0.53,1.21-3-0.57-3c-1.87,0-1.99,2.72-0.35,3.07c-1.04,0.5-0.85,2.4,0.56,2.4
		C176.66,32.96,176.78,30.84,175.53,30.49z"/>
	<path class="st5" d="M182.11,27.08c-1.74,0-1.74,2.7,0,2.7C183.85,29.78,183.85,27.08,182.11,27.08z"/>
	<path class="st5" d="M177.41,25.73c-1.38,0-1.38,2.14,0,2.14C178.79,27.87,178.79,25.73,177.41,25.73z"/>
	<path class="st5" d="M159.44,34.59c-2.06,0-2.06,3.2,0,3.2C161.5,37.79,161.51,34.59,159.44,34.59z"/>
	<path class="st5" d="M154.34,26.83c-1.8,0-1.8,2.8,0,2.8C156.14,29.63,156.14,26.83,154.34,26.83z"/>
	<path class="st5" d="M181.91,41.96c-0.46,0-0.46,0.72,0,0.72C182.37,42.67,182.37,41.96,181.91,41.96z"/>
	<path class="st5" d="M188.85,54.94c-1.37,0-1.37,2.13,0,2.13C190.22,57.06,190.22,54.94,188.85,54.94z"/>
	<path class="st5" d="M196.2,62.08c-1.37,0-1.37,2.13,0,2.13C197.57,64.21,197.57,62.08,196.2,62.08z"/>
	<path class="st5" d="M190.48,75.16c-0.04,0-0.04,0.06,0,0.06C190.52,75.22,190.52,75.16,190.48,75.16z"/>
	<path class="st5" d="M184.56,80.4c-1.97,0-1.97,3.06,0,3.06C186.53,83.46,186.53,80.4,184.56,80.4z"/>
	<path class="st5" d="M178.44,80.3c-1.57,0-1.57,2.44,0,2.44C180.01,82.75,180.01,80.3,178.44,80.3z"/>
	<path class="st5" d="M193.34,57.37c-2.18,0-2.18,3.39,0,3.39C195.52,60.76,195.53,57.37,193.34,57.37z"/>
	<path class="st5" d="M193.55,43.96c-1.56,0-1.56,2.43,0,2.43C195.11,46.39,195.11,43.96,193.55,43.96z"/>
	<path class="st5" d="M192.93,40.65c-0.04,0-0.04,0.06,0,0.06C192.97,40.71,192.97,40.65,192.93,40.65z"/>
	<path class="st4" d="M174.96,55.48c-0.3,0-0.54,0.1-0.71,0.26c-0.16-0.64-0.67-1.19-1.53-1.19c-2.13,0-2.13,3.3,0,3.3
		c0.61,0,1.04-0.28,1.3-0.66c0.17,0.32,0.48,0.55,0.95,0.55C176.41,57.74,176.42,55.48,174.96,55.48z"/>
	<path class="st4" d="M175.78,50.05c-1.88,0-1.88,2.91,0,2.91C177.66,52.96,177.66,50.05,175.78,50.05z"/>
	<path class="st4" d="M167.41,37.46c-0.46,0-0.46,0.72,0,0.72C167.87,38.18,167.87,37.46,167.41,37.46z"/>
	<path class="st4" d="M163.12,35.28c-0.12,0-0.12,0.19,0,0.19C163.24,35.47,163.24,35.28,163.12,35.28z"/>
	<path class="st4" d="M164.55,29.77c-0.91,0-0.91,1.41,0,1.41C165.45,31.18,165.46,29.77,164.55,29.77z"/>
	<path class="st4" d="M179.86,26.8c-1.84,0-1.84,2.86,0,2.86C181.7,29.65,181.71,26.8,179.86,26.8z"/>
	<path class="st4" d="M185.79,33.62c-1.99,0-1.99,3.09,0,3.09C187.77,36.71,187.78,33.62,185.79,33.62z"/>
	<path class="st4" d="M196.2,35.21c-2.05,0-2.05,3.19,0,3.19C198.25,38.4,198.26,35.21,196.2,35.21z"/>
	<path class="st4" d="M191.91,65.97c-1.88,0-1.89,2.93,0,2.93C193.8,68.9,193.8,65.97,191.91,65.97z"/>
	<path class="st4" d="M181.09,71.9c-1.61,0-1.61,2.5,0,2.5C182.7,74.4,182.7,71.9,181.09,71.9z"/>
	<path class="st4" d="M158.83,76.9c-1.49,0-1.49,2.31,0,2.31C160.32,79.21,160.32,76.9,158.83,76.9z"/>
	<path class="st4" d="M138.82,92.35c-1.57,0-1.57,2.44,0,2.44C140.39,94.79,140.39,92.35,138.82,92.35z"/>
	<path class="st4" d="M131.06,95.85c-1.01,0-1.01,1.57,0,1.57C132.07,97.42,132.07,95.85,131.06,95.85z"/>
	<path class="st4" d="M127.99,83.8c-2.06,0-2.06,3.2,0,3.2C130.06,87.01,130.06,83.8,127.99,83.8z"/>
	<path class="st4" d="M127.79,74.98c-1.33,0-1.33,2.07,0,2.07C129.12,77.04,129.12,74.98,127.79,74.98z"/>
	<path class="st4" d="M125.34,72.51c-2.14,0-2.15,3.33,0,3.33C127.48,75.84,127.49,72.51,125.34,72.51z"/>
	<path class="st4" d="M111.86,106.05c-0.24,0-0.24,0.37,0,0.37C112.1,106.42,112.1,106.05,111.86,106.05z"/>
	<path class="st4" d="M94.71,108.96c-1.75,0-1.75,2.71,0,2.71C96.45,111.68,96.46,108.96,94.71,108.96z"/>
	<path class="st4" d="M113.7,110.96c-2.07,0-2.07,3.22,0,3.22C115.77,114.17,115.77,110.96,113.7,110.96z"/>
	<path class="st4" d="M115.95,113.24c-1.76,0-1.76,2.73,0,2.73C117.7,115.97,117.7,113.24,115.95,113.24z"/>
	<path class="st4" d="M116.15,121.6c-2.3,0-2.3,3.58,0,3.58C118.45,125.18,118.45,121.6,116.15,121.6z"/>
	<path class="st4" d="M112.88,128.31c-1.81,0-1.81,2.81,0,2.81C114.69,131.13,114.7,128.31,112.88,128.31z"/>
	<path class="st4" d="M105.53,134.76c-1.66,0-1.67,2.58,0,2.58C107.19,137.34,107.2,134.76,105.53,134.76z"/>
	<path class="st4" d="M78.58,131.09c-2.17,0-2.17,3.37,0,3.37C80.75,134.47,80.75,131.09,78.58,131.09z"/>
	<path class="st4" d="M68.37,113.34c-1.63,0-1.63,2.53,0,2.53C69.99,115.87,69.99,113.34,68.37,113.34z"/>
	<path class="st4" d="M65.71,103.9c-1.42,0-1.43,2.21,0,2.21C67.13,106.11,67.14,103.9,65.71,103.9z"/>
	<path class="st4" d="M60.81,110.58c-0.02,0-0.03,0.01-0.04,0.01c-0.05-0.46-0.38-0.89-0.98-0.89c-1.32,0-1.32,2.05,0,2.05
		c0.27,0,0.48-0.09,0.64-0.22c0.09,0.09,0.21,0.16,0.38,0.16C61.52,111.69,61.52,110.58,60.81,110.58z"/>
	<path class="st4" d="M62.44,112.46c-1.19,0-1.19,1.85,0,1.85C63.63,114.31,63.64,112.46,62.44,112.46z"/>
	<path class="st4" d="M71.02,120.24c-1.69,0-1.69,2.63,0,2.63C72.71,122.86,72.71,120.24,71.02,120.24z"/>
	<path class="st4" d="M44.68,93.53c-1.64,0-1.64,2.54,0,2.54C46.31,96.07,46.31,93.53,44.68,93.53z"/>
	<path class="st4" d="M39.98,91.12c-1.58,0-1.58,2.46,0,2.46C41.56,93.58,41.56,91.12,39.98,91.12z"/>
	<path class="st4" d="M34.06,87.1c-1.76,0-1.76,2.73,0,2.73C35.81,89.83,35.82,87.1,34.06,87.1z"/>
	<path class="st4" d="M26.91,84.85c-0.45,0-0.45,0.7,0,0.7C27.36,85.55,27.36,84.85,26.91,84.85z"/>
	<path class="st4" d="M18.33,81.05c-1.4,0-1.4,2.17,0,2.17C19.73,83.22,19.73,81.05,18.33,81.05z"/>
	<path class="st4" d="M13.23,80.88c-0.04,0-0.04,0.06,0,0.06C13.27,80.94,13.27,80.88,13.23,80.88z"/>
	<path class="st4" d="M6.9,68.83c-1.36,0-1.36,2.11,0,2.11C8.26,70.94,8.26,68.83,6.9,68.83z"/>
	<path class="st4" d="M6.69,61.52c-2.1,0-2.1,3.26,0,3.26C8.79,64.78,8.79,61.52,6.69,61.52z"/>
	<path class="st4" d="M8.12,40.98c-1.46,0-1.46,2.27,0,2.27C9.58,43.25,9.58,40.98,8.12,40.98z"/>
	<path class="st4" d="M7.71,35.93c-1.91,0-1.92,2.97,0,2.97C9.63,38.9,9.63,35.93,7.71,35.93z"/>
	<path class="st4" d="M16.09,44.29c-1.93,0-1.93,3,0,3C18.02,47.29,18.02,44.29,16.09,44.29z"/>
	<path class="st4" d="M21.19,56.25c-2.04,0-2.05,3.17,0,3.17C23.23,59.42,23.24,56.25,21.19,56.25z"/>
	<path class="st4" d="M28.75,59.11c-1.77,0-1.78,2.76,0,2.76C30.52,61.87,30.52,59.11,28.75,59.11z"/>
	<path class="st4" d="M38.14,51.27c-0.04,0-0.04,0.06,0,0.06C38.18,51.33,38.18,51.27,38.14,51.27z"/>
	<path class="st4" d="M36.51,51.47c-0.04,0-0.04,0.06,0,0.06C36.55,51.54,36.55,51.47,36.51,51.47z"/>
	<path class="st4" d="M37.32,52.09c-0.04,0-0.04,0.06,0,0.06C37.36,52.15,37.36,52.09,37.32,52.09z"/>
	<path class="st4" d="M38.96,56.38c-0.04,0-0.04,0.06,0,0.06C39,56.44,39,56.38,38.96,56.38z"/>
	<path class="st4" d="M36.51,68.44c-1.33,0-1.33,2.07,0,2.07C37.84,70.51,37.84,68.44,36.51,68.44z"/>
	<path class="st4" d="M37.94,70.65c-1.9,0-1.91,2.96,0,2.96C39.84,73.61,39.84,70.65,37.94,70.65z"/>
	<path class="st4" d="M46.11,65.79c-2.12,0-2.12,3.29,0,3.29C48.22,69.08,48.23,65.79,46.11,65.79z"/>
	<path class="st4" d="M38.35,53.48c-1.93,0-1.93,3,0,3C40.28,56.48,40.28,53.48,38.35,53.48z"/>
	<path class="st4" d="M35.28,48.59c-1.91,0-1.92,2.97,0,2.97C37.2,51.56,37.2,48.59,35.28,48.59z"/>
	<path class="st4" d="M39.16,48.11c-2,0-2.01,3.12,0,3.12C41.17,51.23,41.17,48.11,39.16,48.11z"/>
	<path class="st4" d="M50.19,56.42c-2.08,0-2.08,3.23,0,3.23C52.27,59.66,52.27,56.42,50.19,56.42z"/>
	<path class="st4" d="M56.11,57.85c-2.08,0-2.08,3.23,0,3.23C58.19,61.08,58.19,57.85,56.11,57.85z"/>
	<path class="st4" d="M55.7,52.47c-1.91,0-1.92,2.97,0,2.97C57.62,55.44,57.62,52.47,55.7,52.47z"/>
	<path class="st4" d="M51.21,39.71c-1.77,0-1.78,2.76,0,2.76C52.99,42.47,52.99,39.71,51.21,39.71z"/>
	<path class="st4" d="M52.44,30.87c-1.86,0-1.86,2.89,0,2.89C54.29,33.75,54.3,30.87,52.44,30.87z"/>
	<path class="st4" d="M58.15,26.05c-0.98,0-1.48,0.75-1.51,1.51c-0.82,0.74-0.53,2.47,0.89,2.47c0.73,0,1.16-0.46,1.3-1
		C60.13,28.41,59.91,26.05,58.15,26.05z"/>
	<path class="st4" d="M39.16,32.25c-0.6,0-0.6,0.93,0,0.93C39.76,33.18,39.76,32.25,39.16,32.25z"/>
	<path class="st4" d="M42.23,30.68c-2.1,0-2.1,3.26,0,3.26C44.32,33.94,44.33,30.68,42.23,30.68z"/>
	<path class="st4" d="M48.25,18.12c-0.05,0.83,0.46,1.69,1.53,1.69c1.07,0,1.57-0.86,1.53-1.69H48.25z"/>
	<path class="st4" d="M85.93,28.81c-0.04,0-0.04,0.06,0,0.06C85.97,28.87,85.97,28.81,85.93,28.81z"/>
	<path class="st4" d="M94.3,31.88c-1.87,0-1.87,2.9,0,2.9C96.17,34.78,96.17,31.88,94.3,31.88z"/>
	<path class="st4" d="M95.73,26.97c-2.14,0-2.15,3.33,0,3.33C97.87,30.3,97.88,26.97,95.73,26.97z"/>
	<path class="st4" d="M91.44,53.8c-1.77,0-1.78,2.76,0,2.76C93.21,56.56,93.22,53.8,91.44,53.8z"/>
	<path class="st4" d="M105.94,53.93c-1.35,0-1.35,2.1,0,2.1C107.29,56.03,107.29,53.93,105.94,53.93z"/>
	<path class="st4" d="M114.93,43.3c-2.14,0-2.15,3.33,0,3.33C117.07,46.64,117.07,43.3,114.93,43.3z"/>
	<path class="st4" d="M112.68,37.25c-2.05,0-2.05,3.19,0,3.19C114.73,40.44,114.73,37.25,112.68,37.25z"/>
	<path class="st4" d="M121.05,44.44c-2,0-2,3.1,0,3.1C123.05,47.54,123.05,44.44,121.05,44.44z"/>
	<path class="st4" d="M129.02,21.45c-2.14,0-2.15,3.33,0,3.33C131.16,24.79,131.16,21.45,129.02,21.45z"/>
	<path class="st2" d="M208.45,2.09v11.28c-1.7,0.1-3.47-0.02-5.04-0.44c-1.05-0.29-1.9-0.78-2.83-1.3
		c-0.96-0.54-0.94-0.74-2.23-1.05c-1.86-0.44-0.9-0.28-2,0.5c-0.04,0.02-0.07,0.06-0.11,0.08c-0.4,0.29-0.74,0.56-1.05,0.79
		c0,0,0,0.01-0.01,0.01h-0.01c-0.69,0.51-1.33,0.85-2.55,0.88c-1.98,0.06-4.4-0.36-6.28-1c-2.01-0.69-3.34-2.08-5.16-1.81
		c-0.01-0.01-0.01-0.01-0.01,0c-0.47,0.07-0.98,0.25-1.54,0.59c-0.7,0.42-1.38,0.93-2.09,1.35c-0.01,0-0.01,0-0.01,0
		c-0.58,0.34-1.18,0.62-1.84,0.78c-1.45,0.34-2.71-0.05-3.97-0.76c-0.63-0.36-1.35-1.09-2.08-1.42c-0.18-0.08-0.36-0.13-0.53-0.15
		c-1.11-0.12-1.7,0.69-2.61,1.1c-1.54,0.69-3.26,0.47-4.93,0.2c-0.55-0.09-1.09-0.18-1.62-0.25c-0.39-0.05-0.77-0.1-1.16-0.15
		c-0.8-0.11-1.61-0.21-2.41-0.32c-1.41-0.18-2.81-0.34-4.23-0.44c-0.36-0.02-0.71-0.04-1.06-0.05h-0.02c-1.05-0.04-2.06,0-3.08,0.1
		c-0.01,0-0.03,0.01-0.04,0.01h-0.03c-1.68,0.17-3.33,0.52-5.02,1.07c-1.86,0.61-3.7,1.23-5.68,1.02c-0.85-0.09-1.64-0.31-2.43-0.57
		h-0.01c-1-0.33-1.98-0.73-3-1c-0.01-0.01-0.01-0.01-0.02-0.01c-0.88-0.23-1.76-0.38-2.73-0.31c-2.37,0.18-4.58,1.25-6.96,1.45
		c-2.14,0.18-4.1-0.34-6.13-0.99c-1.32-0.43-2.56-0.75-3.81-0.93c-0.91-0.13-1.84-0.18-2.81-0.15c-0.02-0.01-0.03,0-0.04,0
		c-0.58,0.02-1.18,0.07-1.8,0.15c-2,0.27-4.01,0.4-6.02,0.45c-1.59,0.04-3.19,0.04-4.78,0.01c-1.75-0.02-3.5-0.07-5.25-0.09
		c0,0-0.01,0-0.01,0c-0.09-0.01-0.19-0.01-0.28-0.01c-0.13,0-0.25-0.02-0.35-0.06c0,0-0.01,0-0.01,0c-0.11-0.04-0.21-0.09-0.3-0.15
		c-4.31,0.62-7.43,3.01-11.88,1.13c-1.06-0.45-2.05-1-3.04-1.45l-0.01-0.01h-0.01c-1.34-0.61-2.71-1.02-4.35-0.72
		c-1.35,0.25-2.63,0.74-3.96,0.94c0,0-0.01,0-0.01,0h-0.01c-0.64,0.1-1.29,0.13-1.96,0.04c-0.72-0.1-1.35-0.41-2.06-0.55
		c-2.02-0.41-2.56,0.36-4.25,0.97c-0.57,0.2-1.08,0.35-1.57,0.41h-0.01c-0.81,0.1-1.57,0.01-2.52-0.35
		c-0.77-0.29-1.46-0.8-2.21-1.14c-0.18-0.09-0.37-0.16-0.56-0.21c-0.17-0.05-0.33-0.09-0.48-0.11c-1.14-0.18-1.62,0.39-2.68,1.02
		c-1.68,1.01-3.06,0.96-5.01,0.86c-0.67-0.04-1.35-0.01-2.04,0.04h-0.03c-0.2,0.01-0.4,0.03-0.6,0.06c0,0,0,0-0.01,0
		c-0.01,0-0.01,0-0.01,0c-3.42,0.37-6.93,1.42-10.25,0.58c-1.42-0.36-2.3-1.26-3.93-0.83c-0.52,0.13-1.56,0.73-2.08,0.91
		c-1.62,0.55-3.34,0.75-5.05,0.62c0,0-0.01,0-0.01,0h-0.01c-0.35-0.02-0.7-0.06-1.05-0.12c-0.36-0.06-0.7-0.14-1.02-0.21
		c-0.01,0-0.01,0-0.01,0c-0.81-0.2-1.53-0.34-2.45,0.16c-0.29,0.16-0.49,0.41-0.73,0.64c-0.01,0.01-0.01,0.01-0.01,0.01
		c-0.15,0.13-0.3,0.26-0.5,0.34c-1.39,0.59-2.49-0.13-3.76-0.58c-3.23-1.13-4.47,0.61-7.35,1.03c-1.23,0.18-2.38,0.07-3.5-0.23V2.09
		l7.19-1.23c1.74,0.69,3.08,0.42,4.91,0.07c0.13-0.02,0.27-0.05,0.4-0.07c1.57-0.29,3.09-0.44,4.71-0.2
		c0.43,0.06,0.84,0.13,1.23,0.2c1.61,0.28,2.97,0.53,4.55,0c0.33-0.11,0.67-0.25,1.02-0.44c2.78-1.46,4.59-1.69,7.53-0.51
		c1.3,0.53,2.31,0.86,3.3,0.95c0.37,0.04,0.74,0.04,1.11,0c0.78-0.07,1.61-0.31,2.63-0.72c1.4-0.56,2.71-1.11,4.25-1.14
		c2.11-0.02,4.12,1.04,6.22,0.96c1.9-0.07,3.48-1.35,5.37-1.51c2.67-0.23,4.81,1.45,7.15,2.41c0.91,0.37,1.84,0.64,2.86,0.65
		c1.35,0.01,2.65-0.27,3.93-0.65c2.65-0.77,5.22-1.94,8.06-1.77c4.92,0.3,8.69,2.94,13.69,0.88c0.21-0.09,0.41-0.11,0.58-0.09
		c1.21-0.64,2.54-0.6,3.9-0.14c0.95,0.32,1.75,0.84,2.7,1.12c0.12,0.04,0.24,0.07,0.37,0.1c0.96,0.21,1.77,0.13,2.57-0.1
		c0.74-0.21,1.46-0.55,2.26-0.91c4.21-1.89,7.39-1.27,11.77-0.44c3,0.57,5.3,0.09,8.18-0.66c1.61-0.42,3.25-0.74,4.91-0.43
		c1.83,0.33,3.33,1.4,5.02,2.13c0.31,0.13,0.61,0.24,0.91,0.31c1.05,0.28,2.02,0.22,2.99,0c0.96-0.21,1.91-0.59,2.93-0.96
		c1.56-0.57,3.13-1.02,4.8-0.72c0.69,0.13,1.3,0.41,1.95,0.66c1.54,0.58,2.74,0.51,4.37,0.26c1.78-0.28,3.23-0.07,4.98,0.39
		c2.84,0.74,5.11,0.21,7.92-0.38c3.15-0.67,5.61-0.06,8.36,0.75c0.83,0.25,1.68,0.5,2.59,0.75c2.63,0.72,4.91-0.13,7.27-0.75
		c1.49-0.39,3.02-0.69,4.69-0.44c0.69,0.1,1.37,0.26,2.05,0.44c1.67,0.43,3.3,0.99,5.01,1.18c2.54,0.29,5.01-0.28,7.47-0.86
		c0.45-0.11,0.91-0.21,1.35-0.32L208.45,2.09z"/>
	<path class="st1" d="M208.45,13.73v10.11c-1.59,0.21-3.21-0.12-4.79-0.11h-0.01c-0.67,0-1.34-0.03-1.99-0.11
		c-0.26-0.03-0.51-0.06-0.75-0.09c-1.49-0.15-2.52-0.09-3.97,0.81c-0.62,0.38-1.17,0.7-1.93,0.73c-0.88,0.02-1.33-0.48-2.08-0.7
		c-1.92-0.59-2.74-0.24-4.42,0.39c-1.99,0.74-3.77,0.01-5.61-0.79c-2.07-0.91-3.61-1.25-5.72-0.49c-1.25,0.45-2.42,1.08-3.71,1.41
		c-2,0.49-3.64,0.07-5.5-0.71c-1.15-0.48-2.14-0.94-3.19-0.93c-0.57,0.01-1.16,0.16-1.8,0.53c-0.9,0.52-1.68,1.08-2.73,1.29
		c-0.62,0.12-1.21,0.13-1.76,0.05c-0.75-0.1-1.45-0.36-2.12-0.73c-0.23-0.13-0.45-0.27-0.67-0.42c-0.13,0-0.28-0.02-0.44-0.08
		c-2.73-1.05-4.48-0.31-6.95,0.85c-1.21,0.57-2.34,0.92-3.69,0.7c-1.09-0.17-2-0.73-2.99-1.18c-1.24-0.55-2.32-0.97-3.69-0.95
		c-1.27,0.02-2.03,0.55-3.2,0.87c-1.45,0.4-2.93,0.24-4.42-0.04c-0.96-0.18-1.91-0.39-2.86-0.53c-1.08-0.16-2.17-0.22-3.25,0.01
		c-2.95,0.62-3.73-0.42-6.29-1.52c-0.09-0.04-0.18-0.08-0.27-0.12c-0.01,0-0.01-0.01-0.01-0.01c-0.15,0.01-0.31-0.02-0.48-0.09
		c-0.94-0.39-2.11,1.08-3.08,1.96c-0.26,0.23-0.5,0.42-0.72,0.52c-0.81,0.37-1.68,0.45-2.55,0.39c0,0,0,0-0.01,0
		c-0.04-0.01-0.09-0.01-0.13-0.01c-0.01,0-0.02,0-0.04-0.01c-0.11-0.01-0.23-0.02-0.34-0.04c-1.4-0.18-2.53-0.85-3.85-1.28
		c-2.18-0.71-3.9-0.17-6.06,0.18c-3.1,0.5-6.26-0.22-9.38,0.1c-0.09,0.01-0.18,0.02-0.27,0.02c-1.46,0.15-2.87,0.32-4.28,0.26
		c-1.17-0.05-2.33-0.26-3.49-0.77c-1.56-0.69-2.66-1.48-4.07-1.5c-0.56-0.01-1.18,0.12-1.89,0.42c-0.94,0.4-1.78,1.07-2.76,1.4
		c-0.07,0.02-0.13,0.04-0.2,0.06c-2.8,0.85-4.53-0.79-7.18-1.45c-2.95-0.74-5.64,1.68-8.62,1.24c-1.23-0.18-2.73-1.41-3.96-1.13
		c-1.13,0.26-1.44,0.97-2.65,0.98h-0.09c-0.06,0-0.1-0.01-0.16-0.02h-0.02C48.93,23.66,48,22.09,46,21.48
		c-0.14-0.04-0.29-0.09-0.45-0.12c-1.32-0.28-2.46,0.75-3.67,1.12c-1.07,0.32-2.17,0.3-3.27,0.2c-0.02,0-0.05-0.01-0.07-0.01h-0.01
		c-0.77-0.08-1.51-0.21-2.24-0.29c-0.93-0.1-1.85-0.13-2.82,0.12c-1.09,0.28-2.04,0.81-3.18,0.85c-0.83,0.03-1.5-0.17-2.25-0.5
		c-1.71-0.75-2.86-0.75-4.49,0.04c-1.86,0.88-3.05,1.04-5.04,0.34c-1.12-0.39-2.3-1.24-3.52-1.21c-1.3,0.03-2.36,1.14-3.56,1.55
		c-2.13,0.74-3.7-0.67-5.76-0.59c-2.15,0.09-4.08,0.51-6.12,0.65v-9.89c0.56-0.21,1.13-1.31,1.76-1.27
		c1.27,0.09,2.39,0.81,3.75,0.57c1.19-0.21,2-0.78,3.29-0.67c0.99,0.08,1.89,0.43,2.83,0.75c1.35,0.44,2.38,0.39,3.49,0.12
		c0,0,0,0,0.01-0.01c0.48-0.11,0.97-0.26,1.51-0.43c0.57-0.18,1.11-0.32,1.67-0.36c0,0,0,0,0.01,0c0.37-0.02,0.75-0.01,1.15,0.09
		c0.32,0.07,0.62,0.16,0.91,0.25h0.01c0.01,0,0.01,0,0.01,0c1.05,0.3,2.02,0.6,3.25,0.39c1.61-0.27,3.23-1.05,4.77-1.57
		c0.39-0.13,0.72-0.06,0.97,0.11c0.69,0.17,1.39,0.68,2.11,1.05c1.34,0.7,2.02-0.02,3.34-0.12c0.54-0.04,0.98,0.12,1.51,0.18
		c1.73,0.2,1.81,0.15,3.13-0.55c0.84-0.45,1.56-0.67,2.22-0.77c0.01,0,0.01,0,0.01,0c0.01,0,0.01,0,0.01,0
		c0.2-0.02,0.4-0.04,0.6-0.06h0.03c1.15-0.04,2.27,0.22,3.84,0.31c1.91,0.1,2.84-1.27,4.48-1.78c0.47-0.15,0.94-0.21,1.4-0.21
		c0.35-0.01,0.7,0.02,1.04,0.09c0.38,0.06,0.76,0.15,1.14,0.27c0.59,0.18,1.16,0.45,1.73,0.69c0.69,0.28,1.28,0.45,1.85,0.53h0.01
		c1.07,0.16,2.03-0.01,3.29-0.37c0.87-0.26,1.5-0.76,2.47-0.66c1.51,0.15,1.87,0.8,3.55,0.33c0.18-0.05,0.36-0.1,0.53-0.17h0.01
		c0.01,0,0.01,0,0.01,0c1.53-0.5,3.03-1.26,4.61-1.53c1.83-0.31,2.71,0.4,3.71,1.31h0.01l0.01,0.01c0.42,0.39,0.86,0.81,1.41,1.21
		c3.36,2.44,7.68,1.37,11.3,0.12c0.81-0.7,1.64-0.89,2.51-0.86c0.01,0,0.01,0,0.01,0c0.21,0.01,0.42,0.03,0.63,0.06
		c0.01,0,0.01,0,0.01,0c0.63,0.09,1.29,0.27,1.98,0.43c1.23,0.3,2.25-0.01,3.27-0.35c1.19-0.4,2.36-0.85,3.85-0.4
		c0.32,0.1,0.62,0.24,0.93,0.39c0.33,0.16,0.66,0.32,1.04,0.42c1.37,0.38,2.32-0.01,3.64-0.36c1.07-0.29,2.06-0.57,3.14-0.67
		c0.01,0,0.02-0.01,0.04,0c0.27-0.03,0.55-0.04,0.83-0.04c0.69,0,1.34,0.07,1.97,0.19c1.78,0.35,3.37,1.15,4.96,2.16
		c3.81,2.43,7.42-0.56,11.3-1.32c1.26-0.25,2.33-0.26,3.37-0.07c0.01-0.01,0.02,0,0.02,0.01c0.98,0.17,1.94,0.52,3,1h0.01
		c0.01,0.01,0.02,0.01,0.04,0.02c3.71,1.66,7.93-0.32,11.7-1.23c0.47-0.12,0.93-0.22,1.39-0.31h0.03c0.01,0,0.03-0.01,0.04-0.01
		c0.86-0.16,1.71-0.24,2.62-0.16c0.15,0.01,0.3,0.03,0.45,0.06h0.02c1.79,0.26,3.43,1.05,5.29,0.7c0.09-0.01,0.18-0.03,0.27-0.06
		c0.42-0.1,0.77,0,1.03,0.21c0.37-0.02,0.75-0.05,1.11-0.05c0.89-0.02,1.78,0.05,2.78,0.4c0.14,0.05,0.29,0.11,0.43,0.17
		c2.18,0.93,3.32,0.48,5.31-0.57c0.74-0.39,1.49-0.72,2.32-0.75c0.13-0.01,0.26-0.01,0.4,0.01c0.83,0.07,1.47,0.45,2.14,0.89
		c0.32,0.21,0.63,0.57,0.96,0.74c1.33,0.69,2.46,0.43,3.79,0c0.2-0.06,0.4-0.14,0.6-0.24c0,0,0,0,0.01,0
		c1.14-0.52,2.38-1.42,3.63-1.94c0.01-0.01,0.01-0.01,0.01,0c0.82-0.35,1.65-0.53,2.46-0.33c1.2,0.29,2.01,1.54,3.17,1.91
		c1.53,0.5,3.33-0.06,4.91-0.03c0.96,0.02,2.42,0.58,3.46,0.37h0.01c0.01,0,0.01-0.01,0.01-0.01c0.18-0.03,0.34-0.09,0.48-0.17
		c0.23-0.13,0.4-0.37,0.57-0.62c0.22-0.33,0.45-0.69,0.82-0.89c1.53-0.8,2.36,0.17,3.56,0.94C202.67,12.52,205.7,13.81,208.45,13.73
		z"/>
	<path class="st3" d="M208.45,13.11v2.45c-1.79,0.12-3.58-1.1-5.39-1.38c-1.26-0.2-2.68-0.4-3.77-1.12
		c-1.08-0.71-2.27-1.48-2.96,0.14c-0.28,0.65-0.85,0.75-1.35,0.55c-2.78-0.06-5.81,0.19-8.53-0.28c-1.76-0.31-3.06-2.52-4.8-2.31
		c-1.97,0.25-3.41,2.49-5.32,3.09c-1.49,0.47-2.84,0.2-4.17-0.55c-0.72-0.4-1.32-1.08-2.06-1.43c-1.74-0.81-2.49,0.25-3.79,1.09
		c-1.05,0.68-2.03,0.74-3.21,0.28c-1.23-0.48-1.82-1.38-3.29-1.57c-1.1-0.13-2.32,0.25-3.4,0.37c-0.02,0-0.03,0.01-0.05,0.01
		c-2.31,0.23-3.93-0.62-6.14-1.04c-4.2-0.8-7.72,2.79-11.81,3.23c-1.69,0.18-3.12-0.21-4.65-0.85c-1.62-0.67-2.89-1.46-4.72-1.45
		c-1.68,0.01-3.07,0.69-4.59,1.27c-1.78,0.69-3.56,1.35-5.5,0.89c-2.66-0.64-4.64-2.43-7.54-2.58c-2.52-0.13-4.55,1.1-6.95,1.3
		c-1.75,0.15-6.05-2.62-7.04-1.22c-0.31,0.44-0.76,0.58-1.18,0.53c-0.92,0.71-1.61,0.6-2.74,0.28c-2.04-0.58,0.85-0.72-2.18-0.64
		c-1.4,0.04-1.17,0.09-2.19,0.53c-1,0.43-1.87,1.04-2.93,1.36c-1.92,0.57-3.99,0.61-5.94,0.13c-2.26-0.55-3.79-2.11-5.86-3.01
		c-3.01-1.3-4.56,0.91-7.34,1.15c-2.14,0.19-3.55-1.4-5.69-0.34c-1.2,0.6-1.88,1.29-3.32,1.2c-1.23-0.07-2.36-0.67-3.45-1.18
		c-0.98-0.45-1.92-1.08-3.01-1.04c-0.09,0-0.17,0.01-0.26,0.02c-1.21,0.18-1.59,1.07-2.56,1.74c-0.92,0.64-1.83,0.81-2.93,0.58
		c-0.9-0.19-1.72-0.91-2.6-1.06c-1.08-0.18-1.78,0.5-2.73,0.77c-2.06,0.57-3.91-0.13-5.95,0.84c-1.19,0.56-2.16,1.32-3.52,0.77
		c-0.51-0.21-0.78-0.62-1.19-0.96c-0.21-0.17-0.29-0.69-0.53-0.8c-0.98-0.47-2.7,0.09-3.54,0.51c-1.55,0.77-2.63,1.7-4.5,1.45
		c-1.6-0.21-3.09-1.64-4.66-1.2c-1.27,0.36-1.89,1.39-3.35,1.32c-1.24-0.06-2.13-0.79-3.25-1.17c-2.14-0.72-2.49,0.91-4.4,1.04
		c-0.74,0.06-1.34-0.23-2.05-0.4c-1.4-0.33-2.69,0.88-4.03,1.12v-2.45c0.6-0.1,1.21-1.45,1.83-1.44c1.15,0.01,2.25,0.53,3.35,0.55
		c1.5,0.03,2.33-1.39,3.9-1.36c1.57,0.02,2.67,1.3,4.12,1.53c1.61,0.25,2.65-1.5,4.33-1.43c2.24,0.09,3.82,1.95,6.11,1.14
		c1.56-0.56,2.65-1.89,4.36-2.16c1.45-0.23,2.33,0.22,3.42,1.09c0.99,0.78,1.13,1.15,2.36,0.74c0.73-0.24,1.28-0.78,2.05-0.97
		c0.88-0.22,1.69-0.08,2.57-0.08c1.34,0,2.41-0.56,3.65-0.83c1.26-0.28,2.13-0.02,3.33,0.47c2.65,1.09,2.89-0.79,5.02-1.64
		c0.53-0.21,1.09-0.29,1.65-0.27c0.37,0.01,0.74,0.07,1.11,0.15c1.58,0.37,2.89,1.49,4.44,1.9c2.16,0.58,2.74-1.04,4.56-1.51
		c2.11-0.55,3.89,1.15,6.04,0.71c1.63-0.33,2.89-1.44,4.62-1.49c1.85-0.06,3.42,0.95,4.93,1.89c2.43,1.52,4.89,2.46,7.78,1.73
		c2.1-0.53,3.77-2.22,5.93-2.54c0.37-0.05,4.12,1.01,3.66,1.4c0.3-0.25,0.64-0.34,0.95-0.3c0.74-0.88,1.65-1.32,2.9-1.32
		c0.69-0.01,1.31,0.2,1.95,0.42c1.97,0.7,3.33,1.29,5.56,0.84c2.37-0.48,4.28-1.08,6.76-0.72c2.55,0.37,5.04,2.51,7.48,2.6
		c2.68,0.1,5.1-1.98,7.76-2.26c2.29-0.24,4.13,0.47,6.18,1.34c2.86,1.21,4.73,0.99,7.53-0.2c1.9-0.8,3.76-1.81,5.82-2.16
		c2.29-0.38,3.82,0.43,5.99,0.94c0.96,0.22,1.89,0.17,2.82,0.06c1.45-0.17,2.87-0.49,4.34-0.2c0.83,0.16,1.35,0.58,2.11,0.85
		c0.64,0.59,1.43,0.79,2.36,0.58c0.36-0.37,0.73-0.74,1.11-1.08c1.12-0.85,2.27-1.13,3.62-0.69c1.45,0.47,2.4,1.87,3.8,2.37
		c2.87,1,4.78-2.36,7.3-2.97c1.95-0.46,2.7,0.25,4.25,1.18c2.71,1.63,6.14,1.29,9.3,1.32c0.86-1.56,2.34-2.78,4.23-1.85
		c1.77,0.88,2.62,1.98,4.77,2.32C205.21,12.02,206.82,13.22,208.45,13.11z"/>
</g>
</svg>
