<?xml version="1.0" encoding="utf-8"?>
<!-- Generator: Adobe Illustrator 25.2.3, SVG Export Plug-In . SVG Version: 6.00 Build 0)  -->
<svg version="1.1" id="Layer_1" xmlns="http://www.w3.org/2000/svg" xmlns:xlink="http://www.w3.org/1999/xlink" x="0px" y="0px"
	 viewBox="0 0 416 416" style="enable-background:new 0 0 416 416;" xml:space="preserve">
<style type="text/css">
	.st0{display:none;}
	.st1{display:inline;fill:#3A656A;}
	.st2{display:inline;fill:#2A555A;}
	.st3{display:inline;fill:#65A6B4;}
	.st4{display:inline;fill:#AEE3EE;}
	.st5{display:inline;fill:#224A4C;}
	.st6{display:inline;fill:#182421;}
	.st7{display:inline;}
	.st8{fill:#2A555A;}
	.st9{fill:#65A6B4;}
	.st10{display:inline;fill:#F6F36D;}
	.st11{display:inline;fill:#BDB295;}
	.st12{display:inline;fill:#FFEFC8;}
	.st13{fill:#182421;}
	.st14{fill:#4C3535;}
	.st15{fill:#777676;}
	.st16{fill:#B7B7B7;}
	.st17{fill:#595959;}
	.st18{fill:#D1D1D1;}
	.st19{fill:#664C4C;}
	.st20{fill:#332424;}
	.st21{fill:#212021;}
	.st22{fill:#4C4C4C;}
</style>
<g>
	<g>
		<path class="st14" d="M238.11,166.74c-1.27,0.79-2.17,1.6-2.87,2.49c-1.45-0.34-2.9-0.69-4.36-1.03
			c-2.44-0.57-5.92,0.41-6.47,3.32c-3.52,18.57-7.96,36.93-13.51,55c-4.39,14.29-10.63,27.98-11.11,42.91
			c-1.28,3.64-2.56,7.28-3.79,10.94c-4.57,13.64-4.57,27.3-5.22,41.29c-0.47,2.91-0.69,5.86-0.54,8.84c0.07,1.3,0.59,2.32,1.35,3.06
			c-0.51,2,0.25,4.29,2.66,4.89c7.99,1.98,15.03,0.72,22.6-1.9c0.04-0.01,0.08-0.01,0.12-0.02c0-0.01,0-0.01-0.01-0.02
			c0.35-0.12,0.68-0.23,1.03-0.35c1.88-0.68,2.51-2.22,2.32-3.77c3.06-3.8,3.06-9.94,1.91-14.91c-0.7-3.04-1.89-5.93-3.09-8.82
			c-0.96-5.02-1.74-9.99-2.87-14.99c1-5.63,2.19-11.22,3.07-16.59c1.2-0.48,2.22-1.42,2.69-2.91c1.69-5.3,2.75-10.59,3.49-16.09
			c0.13-0.94,0.01-1.73-0.26-2.41c0.45-1.76,0.94-3.51,1.44-5.26c3.59-7.87,7.32-15.67,10.62-23.68
			c6.39-15.49,10.15-31.88,16.26-47.48c0.96-2.44-0.73-5.98-3.36-6.55c-1.49-0.32-2.97-0.68-4.45-1.01
			c-0.07-0.47-0.11-0.95-0.2-1.42C245.01,167.14,240.93,164.99,238.11,166.74z M209.87,329c-2.77,0.24-5.65,0.07-7.01-1.46
			C197.9,321.96,213.1,318.7,209.87,329z"/>
		<path class="st15" d="M328.74,117.22c-2.74,0.06-5.67,0-8.67-0.06c-7.08-1.83-16.63-3.35-21.39,0.92
			c-3.44,0.63-6.7,1.66-9.68,3.21c-13.34-2.64-26.4-6.31-39.23-10.87c-2.02-0.72-4.87,0.17-5.94,2.1
			c-8.28,14.84-8.14,32.13-15.2,47.4c-1.94,4.19,3.15,7.34,6.73,6.01c6.09,2.41,12.26,3.56,18.8,4.9
			c6.47,1.33,12.33,4.03,18.41,6.31c0.71,0.93,1.45,1.8,2.23,2.62c0.62,0.69,1.28,1.35,1.94,2c0.05,0.33,0.15,0.66,0.38,1
			c4.8,7.3,11.42,13.84,19.63,17.19c1.99,0.81,4.3,1.03,6.32,0.61c0.83,0.25,1.69,0.39,2.57,0.35c5.69-0.24,6.59-5.98,7.69-10.53
			c0.18-0.75,0.38-1.52,0.58-2.28c7.91-5.33,8.2-21.32,10.79-29.22c1.73-5.26,2.53-10.14,3.13-15.63c0.83-7.55,4.6-13.71,5.43-21.15
			C333.51,119.71,331.15,117.17,328.74,117.22z"/>
		<path class="st16" d="M290.91,120.61c-1.65,10.86-4.11,21.65-7.29,32.16c-1.76,5.83-4.8,11.76-6.51,17.8
			c-0.15,0.32-0.24,0.66-0.27,1.03c-0.39,1.54-0.68,3.08-0.84,4.63c-0.09,0.36-0.13,0.73-0.1,1.12c-0.03,0.5-0.05,1-0.04,1.5
			c0.01,1.23,0.64,2.29,1.52,2.98c0.76,1.64,1.69,3.11,2.79,4.53c0.13,0.6,0.45,1.2,1.06,1.75c0.92,0.83,1.84,1.67,2.76,2.5
			c0.47,0.42,0.97,0.69,1.48,0.85c0.94,0.69,1.9,1.37,2.88,2.04c0.04,0.97,0.54,1.88,1.65,2.15c1.32,0.31,2.43,1.27,3.76,1.62
			c1.35,0.36,2.51,0.31,3.67-0.49c0.51-0.35,0.38-1.09,0.08-1.51c-0.59-0.82-1.36-1.22-2.24-1.65c-0.04-0.02-0.09-0.04-0.14-0.06
			c0.31-0.32,0.55-0.7,0.67-1.11c1.24-0.4,1.56-1.63,1.18-2.69c1.39-0.54,2.52-1.94,2.49-3.4c0.43-0.21,0.82-0.5,1.15-0.85
			c0.58-0.12,1.12-0.42,1.58-0.82c0.03,0.03,0.07,0.05,0.1,0.08c1.03,0.81,2.09,0.8,2.94,0.33c2.78,0.68,4.82-3.4,2.23-5.55
			c-0.05-0.04-0.09-0.08-0.14-0.12c0.34-0.9,0.17-1.97-0.89-2.67c-0.62-0.41-1.23-0.83-1.84-1.24c0.02-0.53-0.17-1.06-0.72-1.37
			c-2.06-1.16-4.09-2.36-6.1-3.59c0.71-0.82,0.96-1.99,0.26-3.28c-0.25-0.46-0.56-0.9-0.85-1.34c-0.06-0.85-0.44-1.7-1.26-2.37
			c-0.75-0.61-0.23-2.6-0.13-3.36c0.15-1.1-0.39-1.92-1.19-2.4c0.06-0.31,0.06-0.64-0.05-0.99c-0.27-0.83-0.54-1.65-0.81-2.48
			c1.1-1.22,1.65-2.77,0.16-2.99l0.03-0.08c1.45-0.22,2.33-1.5,2.12-3l-0.04-0.26c0.98-0.45,1.57-1.46,1.42-2.79
			c-0.04-0.32-0.07-0.64-0.11-0.97c1.24-0.43,2.11-1.86,1.78-3.15c-1.6-6.28,2.82-12.39,0.63-18.97c-0.17-0.52-0.44-0.93-0.77-1.26
			C299.17,115.65,291.67,115.6,290.91,120.61z"/>
		<path class="st16" d="M299.48,161.05c0.04,0.08,0.08,0.17,0.12,0.25c0.91,1.94,3.94-0.29,2.01-1.81
			c-0.07-0.06-0.14-0.11-0.21-0.17C300.29,158.45,298.96,159.93,299.48,161.05z"/>
		<path class="st16" d="M299.11,154.13c-0.04,0.12,0.14,0.17,0.18,0.06C299.33,154.07,299.15,154.02,299.11,154.13z"/>
		<path class="st16" d="M306.6,157.54c-1.11,3.45,4.26,5.19,5.37,1.73C313.08,155.81,307.71,154.08,306.6,157.54z"/>
		<path class="st16" d="M298.21,151.25c0.02,0.19,0.08,0.37,0.15,0.55c0.49,1.38,2.67,1.01,2.3-0.51c-0.07-0.29-0.17-0.55-0.28-0.82
			C299.88,149.21,297.96,150,298.21,151.25z"/>
		<path class="st16" d="M303.8,142.49c-0.17,0.09-0.31,0.22-0.42,0.38c-0.95,1.1,0.04,2.94,1.52,2.21c0.29-0.14,0.52-0.3,0.77-0.51
			C307.09,143.39,305.23,141.47,303.8,142.49z"/>
		<path class="st16" d="M311.48,138.84c-0.06,0.11-0.1,0.23-0.13,0.35c-0.03,0.02-0.04,0.03-0.1,0.08c-0.85,0.66-0.64,2.05,0.2,2.6
			c0.88,0.58,2.15,0.15,2.47-0.87c0.31-1,0.17-2.13-0.73-2.76C312.51,137.78,311.77,138.2,311.48,138.84z"/>
		<path class="st16" d="M303.94,130.12c-0.19,0.02-0.4,0.26-0.38,0.46c0.05,0.67,0.4,0.9,0.87,1.37c0.83,0.81,1.98-0.54,1.03-1.2
			C304.92,130.36,304.61,130.04,303.94,130.12z"/>
		<path class="st16" d="M302.89,127.98c-0.03,0.2-0.04,0.4-0.05,0.61c-0.07,1.31,1.74,1.89,2.45,0.79c0.11-0.17,0.22-0.34,0.31-0.52
			C306.8,126.74,303.16,125.55,302.89,127.98z"/>
		<path class="st16" d="M307.01,125.58c-0.33,1.03,1.27,1.55,1.61,0.52C308.95,125.06,307.35,124.54,307.01,125.58z"/>
		<path class="st16" d="M299.13,137.47c-0.73,2.28,2.81,3.43,3.55,1.14C303.42,136.33,299.87,135.18,299.13,137.47z"/>
		<path class="st16" d="M302.28,168.59c-0.46,1.44,1.78,2.16,2.24,0.72C304.99,167.86,302.75,167.14,302.28,168.59z"/>
		<path class="st16" d="M299.26,189.51c-0.47,1.47,1.81,2.21,2.28,0.73C302.02,188.77,299.74,188.03,299.26,189.51z"/>
		<path class="st16" d="M297.48,193.91c-0.52,1.6,1.98,2.41,2.49,0.8C300.49,193.11,298,192.3,297.48,193.91z"/>
		<path class="st16" d="M327.96,118.9l-0.01,0c-0.01,0.03-0.01,0.05-0.02,0.08c-0.02,0.05-0.02,0.11-0.04,0.17
			c-1.69,7.51-2.8,15.25-4.18,22.92c-1.69,6.56-3.52,13.09-4.83,19.49c-4.05,12.29-8.83,23.74-14.69,35.4
			c-1.8,3.59,3.45,7.08,5.27,3.46c1.61-3.2,3.12-6.37,4.55-9.53c2.6-4.25,4.5-9.2,5.97-14.19c1.84-4.71,3.59-9.5,5.32-14.46
			c4.63-13.26,6.45-28.41,8.68-42.26C334.56,116.41,328.98,115.74,327.96,118.9z"/>
		<path class="st17" d="M238.27,154.55c-0.23,0.71,0.87,1.06,1.1,0.35C239.6,154.19,238.5,153.84,238.27,154.55z"/>
		<path class="st17" d="M243.35,141.64c-0.23,0.08-0.43,0.23-0.6,0.41c-0.65-0.14-1.43,0.05-1.72,0.67
			c-0.25,0.52-0.38,1.03-0.58,1.57c-0.36,1.01,0.85,2.13,1.81,1.54c0.51-0.31,0.96-0.65,1.3-1.12c0.82,0.23,1.69-0.34,1.83-1.3
			c0.01-0.08,0.02-0.16,0.03-0.25C245.58,142.04,244.29,141.3,243.35,141.64z"/>
		<path class="st17" d="M252.67,112.84c-2.79,0.13-4.57,3.15-3.34,5.37c-0.06,0.29-0.1,0.55-0.14,0.79
			c-1.79,1.03-2.11,3.52-0.81,5.21c-0.12,0.26-0.24,0.52-0.38,0.84c-0.35,0.78,0.12,1.75-0.06,2.51c-0.34,1.38-1.11,2.67-2.07,4.16
			c-1.82,2.83-2.74,4.4-0.55,7.47c0.87,1.22,2.02,1.51,3.06,1.23c-1.4,1.06-2.08,2.92-1.73,4.64c-0.69,0.38-1.2,1.02-1.54,1.75
			c-0.98-1.1-3.11-1.2-3.7,0.63c-0.33,1.03,0.1,1.85,0.79,2.32c-0.6-0.06-1.22,0.2-1.46,0.94c-0.57,1.77,2.18,2.65,2.75,0.88
			c0.2-0.63-0.02-1.14-0.41-1.46c0.56,0.12,1.14,0.03,1.62-0.3c0.18,0.97,0.65,1.87,1.5,2.43c-0.12,0.22-0.23,0.45-0.31,0.68
			c-0.74,0.33-1.33,0.9-1.73,1.58c-1.37-1.2-3.89-1.16-4.62,1.1c-0.15,0.45-0.17,0.87-0.12,1.26c-1.36-0.5-3.07-0.11-3.64,1.68
			c-1.11,3.45,4.26,5.19,5.37,1.73c0.15-0.45,0.17-0.87,0.12-1.26c0.27,0.1,0.55,0.16,0.83,0.18c-0.05,0.11-0.11,0.21-0.15,0.32
			c-0.02,0.01-0.05,0.02-0.07,0.04c-1.06,0.73-1.21,2.1-1.13,3.26c-2.64,1.12-3.32,5.67,0.19,6.81c5.57,1.8,11.07,3.42,16.84,4.46
			c1.76,0.32,3.18-0.46,3.98-1.6c1.2,0.36,2.4,0.72,3.61,1.06c3.56,0.99,5.38-3.07,3.47-5.35c0.4-0.54,0.61-1.2,0.64-1.88
			c1.4-1.06,1.97-2.88,1.24-4.49c1.2-1.54,1.31-4.1-0.19-5.37c0.08-0.15,0.18-0.27,0.26-0.43c0.32-0.66,0.31-1.36,0.12-2.02
			c0.76-0.78,1.31-1.86,1.26-2.86c-0.02-0.28-0.08-0.54-0.12-0.81c0.06-0.04,0.12-0.06,0.18-0.1c0.2-0.14,0.39-0.3,0.58-0.47
			c0.82,0.71,2.31,0.68,2.74-0.66c0.31-0.98-0.24-1.71-0.98-2c0.04-0.11,0.09-0.22,0.12-0.33c0.05-0.01,0.11-0.01,0.16-0.02
			c2.58-0.42,4.06-3.5,3.48-5.92c0.68-0.95,1.08-2.07,0.99-3.14c0.47-1.03,0.61-2.18,0.33-3.22c1.07,0.51,2.51,0.28,2.98-1.17
			c0.58-1.81-1.15-2.96-2.58-2.68c-0.03-0.27-0.07-0.54-0.16-0.81c0.57-1.05,0.73-2.27,0.41-3.4c0.56-0.73,0.86-1.67,0.89-2.61
			c1.51-2.01,1.41-5.17-1.71-5.85C270.85,116.11,261.56,112.42,252.67,112.84z"/>
		<path class="st17" d="M273.67,153.3c-0.01,0.01-0.02,0.01-0.02,0.01c-1.62-0.57-2.83,1.95-1.01,2.83
			c-0.03,0.6-0.14,1.34-0.15,1.55c-0.02,0.44,0.6,0.44,0.67,0.03c0.08-0.46,0.15-0.91,0.23-1.37c0.69,0.03,1.31-0.34,1.78-0.9
			C275.94,154.5,274.8,152.98,273.67,153.3z"/>
		<path class="st17" d="M273.64,151.33c-0.04,0.12,0.14,0.17,0.18,0.06C273.86,151.27,273.68,151.21,273.64,151.33z"/>
		<path class="st17" d="M276.05,147.46c-0.04,0.12,0.14,0.17,0.18,0.06C276.27,147.4,276.09,147.34,276.05,147.46z"/>
		<path class="st18" d="M292.97,126.06c0.1,1.31,0.91,3.21,0.82,4.4c-0.08,1.12-0.49,0.92-0.85,1.86c-0.94,2.43-0.71,4.82-1.71,7.38
			c-0.9,2.3-1.34,4.45-2.09,6.89c-0.25,0.8-1.93,3.12-2.13,4.21c-0.04,0.22,0,0.53,0.05,0.87c-0.07,0.06-0.14,0.09-0.21,0.16
			c-0.91,0.94-1.04,1.83-1,2.79c-0.39,0.26-0.73,0.63-1.01,1.14c-0.42,0.77-0.57,1.53-0.45,2.41c0.04,0.28,0.11,0.56,0.2,0.82
			c-0.53,0.87-0.7,1.94-0.33,3.11c0.08,0.24,0.22,0.5,0.38,0.75c-0.18,0.94-0.35,1.88-0.37,2.83c-0.01,0.79,0.18,1.52,0.43,2.24
			c-1.35,0.24-2.51,1.41-1.91,2.81c-1.28,0.34-2.22,1.7-1.48,3.15c0,0.01,0.02,0.03,0.02,0.04c-2.11-0.97-4.38,2.12-2.69,4.01
			c2.47,2.76,5.5,6.29,9.09,7.86c0.54,0.42,1.08,0.85,1.63,1.25c0.86,0.7,2.12-0.14,2.1-1.19c0.15-0.13,0.3-0.26,0.41-0.44
			c0.95-1.39,0.83-2.89,0.19-4.41c1.16,0,2.81,1.39,3.48,2.09c1.87,1.95,5.78-0.37,4.1-2.82c-1.43-2.09-3.37-4.11-5.56-5.53
			c-0.78-1.28-1.35-2.75-1.88-4.12c-0.43-1.1-1.36-1.36-2.21-1.11c-0.54-1.64-0.85-3.07-0.78-4.83c0.37-0.32,0.55-0.83,0.63-1.29
			c0.09-0.47,0.14-1.25,0.07-1.77c0.48-0.54,0.81-1.21,0.85-1.95c0.01-0.23-0.03-0.48-0.08-0.72c0.59-0.51,1.05-1.27,0.99-2.03
			c-0.09-1.28-1.02-2.72-0.62-3.96c0.17-0.52-0.01-1.2-0.45-1.56c0.1-0.26,0.21-0.52,0.33-0.76c0.65-1.29,1-2.46,1.17-3.94
			c0.4-3.49,1.34-4.23,2.38-7.12c0.49-1.36,0.11-2.69,0.32-3.97c0.16-0.98-0.09-1.16,0.23-1.88c0.1-0.24,0.89-0.16,0.99-0.47
			c0.85-2.66-0.12-4.98-1.5-7.55C294.16,125.05,292.9,125.19,292.97,126.06z"/>
		<path class="st18" d="M329.28,121.07c-1.45,14.87-4.4,28.61-9.5,42.64c-2.07,5.69-3.02,11.29-4.57,17.06
			c-1.65,6.14-5.51,11.45-7.44,17.5c-0.27,0.84,0.85,1.67,1.51,0.98c9.28-9.63,10.03-22.32,14.49-34.26
			c5.29-14.18,9.4-28.54,10.26-43.72C334.2,118.21,329.58,118.04,329.28,121.07z"/>
		<path class="st16" d="M245.13,114.32c-4.82,14.65-14.34,30.74-13.81,46.46c0.02,0.55,0.83,0.96,1.14,0.37
			c0.3-0.58,0.58-1.18,0.86-1.78c0.05,0.23,0.17,0.44,0.46,0.6l0.24,0.14c1.03,0.58,1.99-0.6,1.31-1.53
			c-0.06-0.08-0.11-0.15-0.17-0.23c-0.04-0.05-0.09-0.07-0.13-0.11c0.16-0.16,0.26-0.37,0.25-0.63c-0.01-0.39-0.07-0.68-0.21-1.04
			c-0.07-0.19-0.22-0.33-0.39-0.41c1.02-2.65,1.86-5.43,2.59-8.22c0.34,0.04,0.71-0.13,0.78-0.61c0.11-0.83,0.19-1.73,0-2.56
			c0.4-1.7,0.77-3.39,1.11-5.03c1.85-8.76,4.32-16.56,8.07-24.73C247.83,113.73,245.59,112.93,245.13,114.32z"/>
		<path class="st14" d="M248.38,99.9c-3.38,0.11-4.72,4.15-2,6.21c3.06,2.31,6.87,2.44,10.55,3.26c3.91,0.88,7.77,1.94,11.59,3.13
			c5.04,1.57,7.57-6.25,2.52-7.82C264,102.49,255.83,99.66,248.38,99.9z"/>
		<path class="st19" d="M249.27,97.73c-2.56-0.25-3.56,2.65-3.98,5.06c-0.52,0.99-0.54,2.23,0.06,3.25
			c1.19,2.01,4.24,1.91,5.03-0.41c0.28-0.82,0.51-1.64,0.75-2.48c0.11-0.38,0.25-0.78,0.28-1.18c0.06-0.24,0.08-0.35,0.06-0.33
			c0.07-0.15,0.15-0.3,0.22-0.45C252.44,99.52,250.78,97.88,249.27,97.73z"/>
		<path class="st19" d="M199.16,309.97c-0.87,2.72,3.35,4.08,4.23,1.36C204.26,308.61,200.03,307.24,199.16,309.97z"/>
		<path class="st19" d="M200.64,307.13c-0.04,0.12,0.14,0.17,0.18,0.06C200.86,307.07,200.68,307.01,200.64,307.13z"/>
		<path class="st19" d="M226.63,172.16c0.02,1.27,0,2.54-0.04,3.8c-2.45,4.53-3.08,9.95-3.66,15.15c-0.64,2.24-1.1,4.56-1.71,6.7
			c-0.87,3.02-1.66,6.06-2.43,9.11c-1.4,3.4-2.27,7-3.61,10.51c0,0,0,0,0,0c-1.06,1.92-2.05,3.92-2.95,6
			c-0.35,0.31-0.6,0.74-0.67,1.31c-0.76,1.8-1.4,3.64-2,5.5c-0.69,1.53-1.36,3.07-1.99,4.62c-4.49,11.09-5.45,21.38-7.18,33.02
			c-0.05,0.32,0.09,0.58,0.31,0.78c-0.27,3.18-0.54,6.25-1.28,8.73c-0.1,0.33-0.07,0.61,0.02,0.86c-0.78,3.11-1.5,6.22-2.1,9.34
			c-2.52,6.6-3.96,13.49-4.95,20.47c-0.05,0.04-0.1,0.05-0.15,0.09c-4.59,4.48-2.8,13.54-2.23,19.33c0.3,3.1,0.9,5.45,2.17,7.29
			c0.1,0.69,0.54,1.42,1.11,1.72c0.01,0,0.02,0.01,0.02,0.01c0.18,0.45,0.47,0.86,0.88,1.17c-0.02,0.04-0.05,0.07-0.07,0.11
			c5.01,2.46,10.84,2.77,16.31,2.04c3.59-0.48,9.82-2.11,9.19-6.7c0.49-0.99-0.46-2.19-1.6-1.93c-0.19-0.03-0.39-0.04-0.59,0
			c-1.36,0.23-2.27,0.93-3.49,1.51c-1.32,0.63-2.78,0.99-4.25,1.21c-0.31,0-0.63-0.02-0.94-0.03c-0.37-0.84-1.14-1.48-2.35-1.51
			c-3.61-0.1-6.95-0.26-9.39-2.66c-0.55-3.21-0.04-7.15-0.07-9.75c-0.03-2.59,0.19-5.31-0.37-7.78c0.55-0.16,1.02-0.54,1.18-1.22
			c0.88-4.01,1.75-8.03,2.64-12.06c0.04,0.33,0.07,0.66,0.1,1c0.06,0.55,0.48,0.95,0.98,1.18c-0.35,0.3-0.63,0.71-0.81,1.26
			c-1.11,3.45,4.26,5.19,5.37,1.73c0.47-1.47-0.23-2.62-1.28-3.2c-0.22-0.32-0.58-0.53-0.96-0.61c0.15-0.34,0.22-0.72,0.18-1.12
			c-0.14-1.25-0.17-2.28-1.02-3.28c-0.43-0.51-1.3-0.57-1.84-0.17c0.13-0.57,0.26-1.13,0.39-1.7c0.4,1.17,2.17,1.82,3.11,0.49
			c0.65-0.91,1.37-1.74,1.44-2.9c0.07-1.18-1.19-1.85-2.19-1.4c-0.93,0.42-1.45,1.32-1.99,2.15c1.43-6.24,2.97-12.45,4.75-18.57
			c1.38,0.55,3.13,0.17,3.72-1.65c0.59-1.82-0.63-3.16-2.08-3.51c2.91-8.15,7.34-17.72,5.02-25.82c-0.04-0.12-0.12-0.2-0.19-0.3
			c0-0.02,0.01-0.05,0.01-0.07c1.25-3.24,2.45-6.52,3.58-9.79c1.17,1.66,4.24,1.91,5.06-0.62c0.8-2.5-1.79-4.09-3.7-3.46
			c1.08-3.38,2.08-6.75,2.86-10.1c2.23-6.7,4.62-13.34,6.67-20.11c1.51-4.98,3.87-9.75,2.32-14.74c0.65-2.54,1.78-4.91,1.81-7.55
			c0.01-0.46-0.1-0.84-0.26-1.16c0.11-0.39,0.22-0.77,0.33-1.16C234.34,170.53,226.53,167.15,226.63,172.16z"/>
		<path class="st19" d="M207.19,281.37c-0.13,0.41,0.5,0.61,0.63,0.2C207.95,281.17,207.32,280.96,207.19,281.37z"/>
		<path class="st19" d="M211.02,262.37c-1.11,3.45,4.26,5.19,5.37,1.73C217.5,260.64,212.13,258.91,211.02,262.37z"/>
		<path class="st19" d="M215.07,250.57c-0.39,1.22,1.51,1.84,1.9,0.61C217.36,249.96,215.46,249.35,215.07,250.57z"/>
		<path class="st19" d="M216.99,245.05c-0.46,1.44,1.78,2.16,2.24,0.72C219.69,244.33,217.45,243.61,216.99,245.05z"/>
		<path class="st19" d="M224.35,237.97c-0.36,1.12,1.37,1.67,1.73,0.56C226.45,237.41,224.71,236.85,224.35,237.97z"/>
		<path class="st19" d="M219.87,223.09c-0.73,2.26,2.78,3.39,3.51,1.13C224.1,221.96,220.6,220.83,219.87,223.09z"/>
		<path class="st19" d="M226.79,210.39c-0.6,1.85,2.28,2.78,2.87,0.92C230.26,209.47,227.39,208.54,226.79,210.39z"/>
		<path class="st19" d="M231.4,196.84l-0.06-0.01c-0.43-0.17-1.1,0.13-1.19,0.61c-0.06,0.33-0.09,0.58-0.02,0.91
			c0.19,1,1.51,1.28,2.15,0.54C232.91,198.15,232.44,196.82,231.4,196.84z"/>
		<path class="st19" d="M230.19,192.58c-0.04,0.12,0.14,0.17,0.18,0.06C230.41,192.52,230.23,192.46,230.19,192.58z"/>
		<path class="st19" d="M233.38,183.35c-0.83,0.68-1.21,1.91-1.68,2.85c-0.56,1.11,1.18,1.81,1.47,0.7c0.28-1.07,0.84-2.3,0.65-3.41
			C233.78,183.28,233.52,183.23,233.38,183.35z"/>
		<path class="st19" d="M232.33,179.34c-0.59,1.82,2.24,2.74,2.83,0.91C235.74,178.42,232.91,177.51,232.33,179.34z"/>
		<path class="st19" d="M205.11,309.44c-0.62,0.94-0.11,2.09,0.88,2.5c0.1,0.04,0.19,0.08,0.29,0.12c1.45,0.59,2.83-1.52,1.69-2.6
			c-0.08-0.07-0.15-0.14-0.23-0.22C206.97,308.51,205.73,308.49,205.11,309.44z"/>
		<path class="st19" d="M209.01,313.97c-0.31,0.97-0.1,1.79,0.37,2.41c-0.12-0.02-0.22-0.06-0.35-0.08
			c-0.71-0.12-1.05,1.01-0.43,1.35c0.19,0.1,0.35,0.22,0.51,0.33c0.06,0.08,0.11,0.16,0.19,0.25c0.22,0.25,0.52,0.43,0.83,0.59
			c1.18,1.28,1.46,2.95,0.95,4.89c-0.46,1.77-0.67,3.28-1.7,4.81c0.02,0.01,0.04,0.03,0.06,0.04c-0.96,1.74,0.22,4.43,2.56,3.75
			c1.9-0.56,2.81-1.94,3.19-3.61c0.77-1.54,1.23-3.23,1.15-4.96c-0.09-2.11,0.01-4.73-1.27-6.47c-0.29-0.4-0.74-0.59-1.21-0.65
			c0.21-0.26,0.39-0.55,0.51-0.92C215.49,312.24,210.13,310.51,209.01,313.97z"/>
		<path class="st20" d="M250.15,174.64c-0.03,0-0.07,0-0.1-0.01c-2.27-1.23-4.86-2-7.26-2.72c-2.93-0.88-4.21,3.34-1.44,4.47
			c1.78,0.67,3.78,1.31,5.55,2.25c-2.3,6.12-4.12,12.59-6.06,18.94c-2.14,3.19-2.63,7.53-3.74,11.24c-0.8,2.64-1.57,5.28-2.32,7.93
			c-0.42-0.9-1.36-1.57-2.4-1.22c-0.09,0.03-0.17,0.06-0.26,0.09c-1.49,0.5-1.97,1.99-1.05,3.27c0.05,0.07,0.11,0.15,0.16,0.22
			c0.68,0.95,1.94,0.89,2.81,0.31c-0.58,2.08-1.16,4.15-1.7,6.24c-2.76,4.77-3.87,10.59-5.3,15.93c-0.26,0.03-0.51,0.12-0.68,0.38
			c-3.91,6-5.14,14.1-6.96,21.17c-0.24-0.03-0.49,0-0.69,0.21c-7.32,7.66-8.01,18.84-6.24,29.19c-0.2,1.46,0.04,2.99,0.45,4.5
			c-1.29-1.43-4.09-1.52-4.86,0.87c-1.11,3.45,4.26,5.19,5.37,1.73c0.07-0.21,0.11-0.41,0.13-0.6c0.08,0.23,0.16,0.45,0.24,0.67
			c0.27,0.75,0.59,1.46,0.92,2.15c0.29,0.95,0.6,1.89,0.91,2.8c0.14,0.4,0.4,0.67,0.71,0.84c-0.3,0.13-0.54,0.37-0.62,0.78
			c-0.63,3.27,0.88,6.2,1.7,9.35c0.76,2.91,1.36,5.86,1.42,8.83c-0.38,0.75-0.53,1.54-0.75,2.47c-0.29,1.23-0.77,2.38-1.21,3.56
			c-0.76,2,2.17,4.1,3.67,2.38c0.15-0.17,0.25-0.31,0.37-0.46c0,0,0.01,0.01,0.01,0.01c0.01-0.02,0.03-0.05,0.04-0.07
			c0.46-0.58,0.74-1.07,0.9-1.73c0.98-2.12,1.75-4.79,0.69-6.58c-0.06-0.09-0.13-0.18-0.2-0.26c0.09-0.78,0.12-1.56,0.14-2.35
			c0.8,0.01,1.58-0.58,1.35-1.62c-0.63-2.83-1.25-5.67-1.9-8.49c0.09-0.16,0.12-0.37,0.03-0.61c-0.21-0.58-0.4-1.18-0.6-1.77
			c-0.15-0.63-0.29-1.26-0.45-1.89c-0.88-3.37-1.38-6.96-2.85-10.13c-0.01-0.03-0.04-0.03-0.05-0.05c-0.38-1.98-0.65-4.03-1.53-5.78
			c0-0.18,0.01-0.36,0-0.54c0.67-0.11,1.3-0.57,1.43-1.44c1.33-9.46,4.3-18.48,7.04-27.59c0.75-2.5,1.63-5.02,2.33-7.55
			c1.13-3.28,2.25-6.56,3.32-9.86c1.51-4.64,3.6-9.39,4.52-14.23c0.31-0.23,0.6-0.51,0.8-0.94c2.97-6.35,5.36-12.76,7.4-19.47
			c1.13-3.73,2.83-7.5,2.37-11.24c2.13-4.75,4.34-9.9,5.04-14.8c0.33-0.11,0.66-0.27,0.96-0.56c0.51-0.34,1.03-0.68,1.54-1.02
			c1.6-0.73,1.72-2.77,0.74-4.01c-0.17-0.22-0.38-0.41-0.57-0.62c0.01-0.46-0.01-0.94-0.07-1.48
			C253.17,174.05,251.29,173.88,250.15,174.64z"/>
		<path class="st20" d="M268.76,106.8c-0.42,0.4-0.66,0.79-0.82,1.18c-0.66-0.16-1.4-0.39-1.66-0.42c-0.64-0.07-1.15-0.07-1.67-0.01
			c-1.97-0.61-3.96-1.17-5.93-1.72c-0.51-0.14-1.01-0.28-1.5-0.42c-0.04-0.03-0.07-0.07-0.12-0.1c-2.57-1.55-4.26-2.11-7.05-0.6
			c-0.44,0.24-0.65,0.93-0.24,1.3c2.21,2.05,4.81,2.84,7.63,3.79c3.53,1.19,7.09,2.43,10.72,3.26c0.66,0.15,1.23-0.01,1.67-0.32
			c0.5-0.07,0.99-0.19,1.43-0.45c0.57-0.34,1.09-0.93,1.22-1.61C274.33,108.86,271.53,104.13,268.76,106.8z"/>
		<path class="st20" d="M237.17,196.65c-0.04,0.12,0.14,0.17,0.18,0.06C237.39,196.59,237.21,196.53,237.17,196.65z"/>
		<path class="st20" d="M236.85,194.56c-0.04,0.12,0.14,0.17,0.18,0.06C237.07,194.5,236.89,194.44,236.85,194.56z"/>
		<path class="st20" d="M239.39,187.41c-0.17,0.01-0.35,0.04-0.52,0.07c-2.74,0.44-1.22,5,1.3,3.6c0.15-0.08,0.3-0.17,0.45-0.27
			C242.42,189.68,241.46,187.21,239.39,187.41z"/>
		<path class="st20" d="M239.48,182.63c-0.56,1.75,0.54,3.06,1.91,3.47c0.1,0.26,0.28,0.51,0.59,0.72c1.29,0.85,2.34-0.39,2.33-1.48
			c0.22-0.27,0.41-0.59,0.54-0.98C245.96,180.91,240.6,179.17,239.48,182.63z"/>
		<path class="st20" d="M227.9,219.37c-0.4,1.25,1.54,1.88,1.94,0.63C230.24,218.75,228.3,218.12,227.9,219.37z"/>
		<path class="st20" d="M218.13,241.11c-0.76,2.37,2.92,3.55,3.68,1.18C222.56,239.92,218.89,238.74,218.13,241.11z"/>
		<path class="st20" d="M220.61,250.14c-0.08,0.01-0.16,0.02-0.24,0.03c-1.38,0.17-1.05,2.19,0.2,2.32
			c0.08,0.01,0.17,0.02,0.25,0.02C222.45,252.67,222.42,249.92,220.61,250.14z"/>
		<path class="st20" d="M214.76,257.94c-1.11,3.45,4.26,5.19,5.37,1.73C221.24,256.21,215.88,254.48,214.76,257.94z"/>
		<path class="st20" d="M208.79,279.9c-0.58,1.8,2.21,2.7,2.79,0.9C212.16,279,209.37,278.1,208.79,279.9z"/>
		<path class="st20" d="M208.05,290.28c-0.04,0.12,0.14,0.17,0.18,0.06C208.27,290.22,208.09,290.16,208.05,290.28z"/>
		<path class="st20" d="M211.67,292.43c-0.04,0.12,0.14,0.17,0.18,0.06C211.89,292.38,211.71,292.32,211.67,292.43z"/>
		<path class="st20" d="M211.29,303.42c-0.04,0.12,0.14,0.17,0.18,0.06C211.51,303.36,211.33,303.31,211.29,303.42z"/>
		<path class="st20" d="M203.71,315.83c-3.61-0.07-5.81,3.31-5.75,6.64c0.07,3.42,2.18,6.6,4.14,9.21c2.43,3.22,6.99-2.69,2.68-4.13
			c-1.11-0.37-1.4-2.77-1.46-3.73c-0.11-1.67,0.13-2.15,1.52-2.83C207.28,319.8,206.44,315.89,203.71,315.83z"/>
		<g>
			<path class="st21" d="M289.83,114.77c-0.32-0.2-0.69-0.34-1.12-0.41c-4.11-0.65-8.19-1.37-12.27-2.14c0.71-2.5,1.43-5.5,0.89-7.4
				c-0.7-2.43-2.46-2.67-4.72-3.41c-4.42-1.46-8.91-2.71-13.38-4c-3.89-1.12-8.7-3.28-12.75-3.27c-0.96,0-2,0.41-2.5,1.28
				c-1.33,2.32-1.71,5.22-2.31,7.8c-0.11,0.45-0.11,0.87-0.03,1.26c-1.2,0.18-1.94,1.27-2.09,2.45c-0.08,0.26-0.13,0.54-0.13,0.85
				c0.03,9.3-5.6,17.98-7.92,26.88c-0.87,3.34-1.69,6.69-2.52,10.04c0,0,0,0.01-0.01,0.01c-2.9,7.59-4.49,15.7-6.44,23.58
				c-0.29,0.39-0.48,0.89-0.52,1.51c-1.36,22.7-11.06,43.42-17.43,64.96c-6.36,21.52-10.61,43.58-14.86,65.6
				c-0.06,0.32-0.06,0.63-0.03,0.92c-1.26,7.39-2.27,14.8-2.86,22.28c-0.38,4.81-1.9,11.22,0.16,15.86
				c3.78,8.47,17.98,3.86,24.98,3.29c3.76-0.31,7.29-0.25,9.85-3.37c2.91-3.55,4.43-10.2,5.08-14.56
				c2.03-13.55-8.38-25.69-4.72-39.08c0.25-0.91,0.07-1.7-0.35-2.32c11.2-35.51,23.45-70.67,36.73-105.47
				c1.07,0.27,2.14,0.53,3.2,0.78l7.22,2.32c0.3,0.1,0.58,0.13,0.85,0.14c5.25,8.84,12.64,15.94,22.08,20.36
				c5.47,2.56,16.11,7.52,20.56,1.42c3.46-4.73,5.19-11.78,7.3-17.22c3.02-7.81,5.72-15.75,8.09-23.78
				c4.14-14.03,7.16-28.33,9.36-42.79c0.05-0.35,0.03-0.65-0.02-0.94c0.54-1.39,0.15-3.06-1.72-3.48
				C320.18,111.32,304.66,108.8,289.83,114.77z M216.37,281.84c-0.3,0.96-0.1,1.78,0.36,2.4c-1.9,7.23-0.73,13.74,1.47,20.86
				c2.58,8.36,6.36,21.19,0.03,29.01c-3.13,3.87-11.29,3.33-15.77,3.7c-6.43,0.52-9.71-0.16-10.37-7.24
				c-0.89-9.61,1.85-20.85,3.5-30.31c0.04-0.24,0.05-0.47,0.04-0.68c4.32-22.36,8.72-44.76,15.42-66.55
				c6.31-20.56,15.05-40.35,16.57-62.02c0.08-0.15,0.14-0.33,0.19-0.51c8.55,1.2,16.88,3.64,25.25,5.94
				C239.81,211.21,227.57,246.35,216.37,281.84z M247.09,104.97c0.31-1.33,0.58-3.39,1.08-5.01c4.49,0.58,9.7,2.97,13.8,4.18
				c2.14,0.63,4.64,1.14,6.69,2.01c3.21,1.37,3,2.44,2.22,4.98c-2.71-0.55-5.43-1.12-8.13-1.72c-0.28-0.23-0.61-0.43-1.05-0.54
				c-4.89-1.22-9.79-2.45-14.68-3.67C247.03,105.12,247.07,105.05,247.09,104.97z M234.02,147.47c0.12-0.33,0.23-0.67,0.36-1
				c0.16-0.43,0.22-0.84,0.19-1.21c1-4,2.03-8,3.16-11.96c2.2-7.66,6.33-14.5,7.18-22.38c4.07,1.07,8.15,2.07,12.25,3.02
				c0.01,0.01,0.02,0.01,0.03,0.02c0.29,0.04,0.59,0.1,0.89,0.19c2.06,0.65,3.99,1.19,5.83,1.92c0.01-0.1,0.02-0.19,0.03-0.29
				c7.12,1.44,14.24,2.88,21.37,4.32c-1.77,17.95-7.96,37.67-13.93,54.69c-0.09-0.04-0.17-0.09-0.27-0.13
				c-6.48-2.23-12.91-4.58-19.56-6.06c0.02-0.06,0.04-0.12,0.06-0.18c-1.81-0.27-3.63-0.79-5.52-1.41
				c-0.03,0.09-0.06,0.18-0.09,0.26c-5.29-1.38-10.59-2.42-16.01-3.15C231.36,158.59,232.66,153.02,234.02,147.47z M315.66,180.61
				c-1.59,4.25-2.93,9.47-5.34,13.33c-1.87,2.99-3.41,5.49-7.84,5.33c-1.7-0.06-3.89-1.11-5.47-1.72
				c-8.74-3.37-15.79-9.48-20.88-17.14c0.12-0.2,0.23-0.42,0.28-0.67c0.26-1.24,0.51-2.48,0.77-3.71c0.05-0.24,0.07-0.5,0.07-0.75
				c6.01-17.25,11.97-36.77,13.75-54.87c13.07-5.74,26.93-3.7,40.45-0.78C328.23,140.44,323.03,160.87,315.66,180.61z"/>
			<path class="st21" d="M201.85,317.85c-2.94,2.48-3.24,6.93-0.86,9.86c0.36,0.44,0.77,0.71,1.19,0.86
				c0.67,1.39,2.2,2.26,3.74,2.46c1.83,0.24,3.66-0.47,5.01-1.72c2.82-2.62,3.52-7.3,0.91-10.33
				C209.39,316.15,204.81,315.35,201.85,317.85z M207.26,322.41c0.63,0.53,0.67,1.34,0.28,2.09c-0.14,0.28-0.33,0.49-0.55,0.67
				c-0.38-0.54-1.01-0.93-1.67-1.11c-0.04-0.05-0.06-0.1-0.1-0.15c-0.29-0.36-0.2-1.22,0.18-1.61c0.25-0.26,0.31-0.29,0.75-0.28
				C206.53,322.02,207,322.2,207.26,322.41z"/>
		</g>
		<path class="st22" d="M276.59,117.72c-0.55-0.17-1.1-0.34-1.65-0.52c-0.32-0.1-0.61-0.13-0.9-0.14
			c-4.81-1.22-9.68-2.21-14.54-3.18c-1.54-0.31-2.72,0.5-3.23,1.59c-2.58-0.14-3.77,3.28-1.38,4.47c-0.27,0.89,0.02,1.88,1.02,2.41
			c-0.19,0.64-0.15,1.33,0.15,1.91c-1.09,0.33-1.75,1.46-1.72,2.56c-0.15-0.03-0.3-0.07-0.45-0.1c-2.86-0.6-4.03,3.1-1.38,4.29
			c0.46,0.21,0.91,0.44,1.36,0.65c-0.11-0.03-0.22-0.06-0.33-0.09c-2.93-0.9-4.44,3.38-1.86,4.59c-0.48,1.34-0.04,3.01,1.73,3.7
			c0.14,0.05,0.28,0.11,0.42,0.17c-0.64,0.64-0.94,1.58-0.77,2.45c-3.1-0.06-4.34,4.65-0.98,5.84c0.9,0.32,1.77,0.67,2.63,1.02
			c-1.11-0.35-2.09-0.68-2.79-0.86c-2.35-0.61-3.87,1.36-3.66,3.17c-3.22-0.9-4.48,3.49-1.78,5.04c-1.01,1.49-0.79,3.92,1.42,4.8
			c0.31,0.12,0.61,0.23,0.92,0.34c0,0,0,0,0,0c-0.24-0.07-0.48-0.15-0.73-0.22c-1.86-0.52-3.36,1.97-1.91,3.18
			c-0.62,0.88-0.66,2.09,0.53,2.73c3.31,1.75,5.77,2.43,9.51,2.38c0.72-0.01,1.26-0.34,1.63-0.79c0.14-0.01,0.27-0.01,0.41-0.03
			c0.99-0.1,1.53-0.83,1.67-1.66c0.16,0.01,0.31,0.04,0.48,0.05c0.93,0.08,1.58-0.3,2.01-0.85c0.98-0.15,1.72-0.89,2.05-1.81
			c0.17,0,0.33,0.01,0.5,0.02c3.02,0.03,3.97-3.08,2.57-5.06c0.75-1.1,0.76-2.73-0.27-3.69c0.71-0.31,1.37-0.71,1.98-1.24
			c0.97-0.84,1.17-2.15,0.75-3.25c0.1,0.01,0.19,0.02,0.29,0.03c2.8,0.21,4.22-3.63,2.14-5.33c0.97-1.17,1.08-3.07-0.29-4.04
			c0.55-0.81,0.66-1.95,0.32-2.96c1.03-1.23,0.68-3.56-1.11-4.35c-0.45-0.2-0.89-0.39-1.34-0.59c0.82-0.82,1.01-2.18,0.25-3.27
			c1.52-0.8,1.71-3.13,0.27-4.35c1.51,0.38,3.02,0.73,4.54,1.07c1.32,0.29,2.28-0.41,2.67-1.34c2.54-0.3,3.45-4.09,0.68-5.23
			C278.89,119.88,278.44,118.3,276.59,117.72z"/>
		<path class="st17" d="M308.83,167.95c-0.32,1.01,1.24,1.51,1.56,0.5C310.72,167.45,309.15,166.95,308.83,167.95z"/>
		<path class="st17" d="M303.3,164.19c-1.11,3.45,4.26,5.19,5.37,1.73C309.78,162.46,304.41,160.73,303.3,164.19z"/>
		<path class="st17" d="M312.8,166.25c-0.04,0.12,0.14,0.17,0.18,0.06C313.01,166.19,312.83,166.13,312.8,166.25z"/>
		<path class="st17" d="M314.31,150.15c-0.66,2.07,2.55,3.1,3.21,1.03C318.19,149.11,314.98,148.08,314.31,150.15z"/>
		<path class="st17" d="M308.4,150.12c-0.09-0.01-0.17-0.02-0.26-0.03c-0.83-0.09-1.32,0.75-1.23,1.46c0.01,0.1,0.03,0.2,0.04,0.29
			c0.16,1.17,1.76,1.42,2.46,0.61C310.2,151.54,309.53,150.25,308.4,150.12z"/>
		<path class="st17" d="M309.09,144.72c-0.1,0.03-0.19,0.05-0.29,0.08c-1,0.27-1.47,1.49-0.74,2.3c0.68,0.75,2.11,0.54,2.37-0.51
			c0.03-0.1,0.05-0.2,0.08-0.31C310.73,145.44,310.03,144.46,309.09,144.72z"/>
		<path class="st17" d="M315.53,140.59c-1.11,3.45,4.26,5.19,5.37,1.73C322.01,138.86,316.65,137.13,315.53,140.59z"/>
		<path class="st17" d="M319.57,134.4c-0.15,0.23-0.16,0.63-0.36,0.82c-1.24,1.18,1.03,2.79,1.73,1.12
			c0.32-0.76,0.26-1.93-0.68-2.18C320,134.09,319.72,134.17,319.57,134.4z"/>
		<path class="st17" d="M317.71,129.86c-0.42,0.68,0.22,1.39,0.69,1.81c1.5,1.3,3.04-1.19,1.26-1.94
			C319.11,129.49,318.14,129.18,317.71,129.86z"/>
		<path class="st17" d="M310.07,124.53c-0.41-0.17-0.85,0.2-0.87,0.61c-0.03,0.06-0.07,0.11-0.12,0.15
			c-0.74,0.67-0.34,1.48,0.28,1.82c-0.36,0.3-0.66,0.72-0.84,1.28c-1.11,3.45,4.26,5.19,5.37,1.73c0.7-2.18-1.18-3.67-2.94-3.61
			c0,0,0,0,0-0.01C311.26,125.64,310.89,124.87,310.07,124.53z"/>
		<path class="st17" d="M305.47,120.33c-0.81-0.02-1.39,0.84-1.01,1.58c0.38,0.74,1.42,0.77,1.88,0.1c0.17-0.25,0.24-0.47,0.29-0.77
			c0.04-0.25-0.14-0.59-0.36-0.7C305.99,120.4,305.77,120.34,305.47,120.33z"/>
		<path class="st17" d="M315.62,121.38c-0.04,0.12,0.14,0.17,0.18,0.06C315.84,121.32,315.66,121.26,315.62,121.38z"/>
		<path class="st17" d="M318.01,122.15c-0.66,2.07,2.55,3.1,3.21,1.03C321.89,121.11,318.68,120.08,318.01,122.15z"/>
		<path class="st17" d="M303.53,186.85c-0.77,2.39,2.95,3.59,3.72,1.2C308.02,185.66,304.3,184.46,303.53,186.85z"/>
	</g>
</g>
</svg>
