<?xml version="1.0" encoding="utf-8"?>
<!-- Generator: Adobe Illustrator 25.2.3, SVG Export Plug-In . SVG Version: 6.00 Build 0)  -->
<svg version="1.1" id="Layer_1" xmlns="http://www.w3.org/2000/svg" xmlns:xlink="http://www.w3.org/1999/xlink" x="0px" y="0px"
	 viewBox="0 0 416 416" style="enable-background:new 0 0 416 416;" xml:space="preserve">
<style type="text/css">
	.st0{display:none;}
	.st1{display:inline;fill:#3A656A;}
	.st2{display:inline;fill:#2A555A;}
	.st3{display:inline;fill:#65A6B4;}
	.st4{display:inline;fill:#AEE3EE;}
	.st5{display:inline;fill:#224A4C;}
	.st6{display:inline;fill:#182421;}
	.st7{fill:#3A656A;}
	.st8{fill:#2A555A;}
	.st9{fill:#65A6B4;}
	.st10{fill:#AEE3EE;}
	.st11{fill:#F6F36D;}
	.st12{fill:#BDB295;}
	.st13{fill:#FFEFC8;}
	.st14{fill:#182421;}
	.st15{display:inline;fill:#4C3535;}
	.st16{display:inline;fill:#777676;}
	.st17{display:inline;fill:#B7B7B7;}
	.st18{display:inline;fill:#595959;}
	.st19{display:inline;fill:#D1D1D1;}
	.st20{display:inline;fill:#664C4C;}
	.st21{display:inline;fill:#332424;}
	.st22{display:inline;}
	.st23{fill:#212021;}
	.st24{display:inline;fill:#4C4C4C;}
</style>
<g>
	<g>
		<path class="st7" d="M255.34,150.72c-0.61-5.35-1.95-10.55-4.63-14.51c-4.93-7.29-14.09-7.91-22.04-8.16
			c-0.53-0.88-1-1.78-1.43-2.69c0.49-11.56-1-22.7-4.33-33.39c1.29-4.34,2.71-8.63,3.42-13.13c1.23-7.79,0.63-15.64,0.8-23.49
			c0.12-5.52-7.17-5.23-8.66-0.79c-1.91,5.71-4.01,11.28-6.55,16.67c-0.43-0.68-0.89-1.34-1.37-1.98c-2.8-3.66-6.73-6.09-11.22-7.5
			c-8.67-7.32-20.88-6.4-32.35-2.27c-4.48,1.61-9.55,2.38-12.44,5.82c-1.39-3.33-2.58-6.79-3.57-10.42
			c-1.38-5.07-9.76-3.68-8.99,1.7c1.24,8.79,2.98,17.75,6.97,25.46c-4.52,8.87-4.21,19.52-4.28,29.61
			c-5.45-5.99-10.9-11.99-16.38-17.96c-0.3-0.32-0.64-0.58-1.01-0.78c-0.91-1.87-1.68-3.85-2.27-5.96c-1.53-5.5-9.51-3.73-9.38,1.78
			c0.2,8.26-2.74,15.04-0.97,23.43c1.31,6.22,4.05,11.32,7.8,16.13c-0.22,1.03-0.1,2.18,0.53,3.29c1.15,2.04,2.37,4.02,3.61,5.97
			c-0.29,0.41-0.55,0.89-0.73,1.46c-4.21,13.2-5.41,27.06-3.08,40.8c1.27,7.5,3.23,17.02,7.59,24.09
			c5.16,11.52,16.09,16.8,28.52,20.45c0.6,0.81,1.42,1.46,2.5,1.77c18.67,5.41,43.35,8.3,60.66-3c6.83,1.02,13.25-5.62,17.29-10.38
			c3.42-4.03,6.93-8.06,9.92-12.42C261.39,186.74,263.48,167.21,255.34,150.72z"/>
		<path class="st8" d="M257.83,159.24c-1.1-4.97-4.67-13.02-11.05-9.6c-2.47,1.32-3.34,3.41-3.38,5.79
			c-1.62,0.17-3.17,1.22-3.42,2.98c-0.98,6.86-1.94,13.6-4.71,19.97c-0.08,0.18-0.13,0.36-0.17,0.53
			c-1.47,3.73-2.68,7.69-4.29,10.48c-3.6,6.23-8.07,12.3-13.23,17.49c-5.45,3.83-11.33,7.33-17.39,9.68
			c-0.12-0.1-0.21-0.21-0.37-0.29c-8.25-4-18.17-0.44-26.99,0.02c-9.86,0.51-19.33-1.72-29.07-1.82c-1.48-0.01-2.03,2.01-1.03,2.98
			c5.51,5.35,13.2,7.19,20.69,7.9c0.27,0.42,0.67,0.75,1.22,0.88c11.57,2.77,22.39,5.68,34.4,4.2c6.72-0.83,14.99-2.33,19.93-7.35
			c5.85,0.69,12.32-4.1,16.71-7.37c3.38-2.51,6.33-5.06,8.28-8.24C258.76,204.44,260.34,170.57,257.83,159.24z"/>
		<path class="st8" d="M227.47,174.91c-0.88,0.1-1.18,0.57-1.78,1.26c-1.36,1.53-2.63,3.14-3.88,4.76c-2.33,3.01-4.54,6.1-6.66,9.27
			c-0.31,0.46,0.46,1.02,0.78,0.56c1.85-2.67,3.77-5.28,5.77-7.83c0.95-1.21,1.92-2.4,2.89-3.58c0.79-0.95,2.05-3.21,3.23-3.44
			c0.12-0.02,0.18-0.16,0.18-0.27c0-0.07,0-0.14,0-0.21C228.01,175.14,227.73,174.88,227.47,174.91z"/>
		<path class="st8" d="M219.8,193.56c-4.17,0.2-3.86,6.9,0.31,6.7C224.29,200.06,223.98,193.36,219.8,193.56z"/>
		<path class="st8" d="M219.18,172.97c-2.13,0.1-1.97,3.53,0.16,3.42C221.47,176.29,221.31,172.86,219.18,172.97z"/>
		<path class="st8" d="M229.36,163.96c-3.92,0.19-3.63,6.49,0.3,6.3C233.58,170.07,233.29,163.77,229.36,163.96z"/>
		<path class="st8" d="M232.13,172.04c-2.07,0.1-1.92,3.42,0.16,3.32C234.36,175.26,234.21,171.94,232.13,172.04z"/>
		<path class="st8" d="M208.32,196.68c-1.42,0.07-1.32,2.35,0.11,2.28C209.84,198.9,209.74,196.62,208.32,196.68z"/>
		<path class="st8" d="M142.51,208.72c-0.96,0.05-0.89,1.58,0.07,1.54C143.54,210.21,143.47,208.67,142.51,208.72z"/>
		<path class="st8" d="M144.92,187.23c-2.04,0.1-1.89,3.37,0.15,3.27C147.11,190.41,146.96,187.13,144.92,187.23z"/>
		<path class="st8" d="M159.27,194.08c-0.13,0.01-0.12,0.22,0.01,0.21C159.41,194.29,159.4,194.08,159.27,194.08z"/>
		<path class="st8" d="M167.47,201.11c-0.13,0.01-0.12,0.22,0.01,0.21C167.61,201.31,167.6,201.1,167.47,201.11z"/>
		<path class="st8" d="M173.28,191.11c-0.13,0.06-0.25,0.13-0.37,0.2c-0.21,0.12-0.25,0.38-0.2,0.6c0.03,0.17,0.08,0.34,0.13,0.51
			c0.29,1.04,1.74,0.99,2.08,0.04C175.3,191.37,174.17,190.67,173.28,191.11z"/>
		<path class="st8" d="M168.79,185.49c-0.13,0.01-0.12,0.22,0.01,0.21C168.93,185.7,168.92,185.49,168.79,185.49z"/>
		<path class="st8" d="M162.44,195.71c-0.11,0.02-0.23,0.04-0.34,0.06c-1.7,0.28-2.91,1.89-2.09,3.65c0.72,1.55,2.92,2.03,4.05,0.63
			c0.08-0.1,0.15-0.19,0.23-0.29C165.45,198.32,164.59,195.36,162.44,195.71z"/>
		<path class="st8" d="M163.15,186.39c-0.02-0.35-0.12-0.68-0.31-0.97c-0.17-0.27-0.44-0.55-0.73-0.69
			c-0.99-0.47-2.08-0.13-2.63,0.85c-0.55,0.99-0.36,2,0.11,2.97C160.75,190.92,164.47,188.61,163.15,186.39z"/>
		<path class="st8" d="M173.96,208.26c-3.15,0.15-2.92,5.21,0.24,5.06C177.35,213.17,177.12,208.11,173.96,208.26z"/>
		<path class="st8" d="M248.87,138.9c-1.36-0.93-2.52-1.63-3.86-2.18c-2-1.96-4.43-3.91-6.97-5.14c-2.82-2.21-7.06-4.38-8.77-1.52
			c0.01-0.12,0.02-0.24,0.03-0.36c0.11-1.15-0.32-2.17-0.99-2.91c-0.53-1.95-2.38-3.5-5.02-2.9c-0.86,0.19-1.53,0.53-2.17,0.92
			c-2.32,0.91-4.66,1.57-7.03,2.13c-0.19-0.03-0.36-0.04-0.55-0.08c-2.69-0.55-5.43-2.48-8.16-1.77c-0.17-0.11-0.33-0.22-0.52-0.29
			c-0.04-0.16-0.06-0.31-0.11-0.47c-1.14-3.85-6.04-3.01-7.08,0.34c-0.46,1.48-0.49,2.41-0.16,3.67c-2.05,1.45-4.1,2.89-6.34,4.1
			c-1.03,0.56-2.05,1.16-3.1,1.64c-0.03,0-0.08,0.01-0.11,0.02c-3.98,0.45-8.13,0.52-12.13,0.67c-3.14,0.12-2.86,5.24-0.05,5.12
			c1.76,0.36,3.68,0.69,5.67,0.92c2.5,0.62,4.34,0.74,6.42,0.26c3.44-0.17,6.77-0.91,9.48-2.66c2.95-1.9,5.77-4.5,7.06-7.66
			c0.05-0.06,0.1-0.11,0.15-0.16c0.14,0.18,0.28,0.36,0.44,0.52c-0.01,0.03-0.03,0.06-0.03,0.09c-0.16,0.75-0.14,1.36,0.1,2.1
			c0.56,1.76,2.11,2.66,3.82,2.72c2.44,0.08,4.91-0.24,7.36-0.8c1.05-0.02,2.1-0.13,3.1-0.38c1.22-0.3,2.32-0.97,3.4-1.61
			c0.29,0.04,0.58,0.08,0.87,0.11c1.12,1.06,2.85,1.75,4.7,2.33c0.27,0.65,0.75,1.25,1.5,1.66c2.49,1.38,4.83,1.99,7.61,1.99
			c1,0.71,2.01,1.52,2.92,2.3c0.92,1.86,2.16,2.87,4.38,3.36c0.94,0.21,1.91-0.13,2.65-0.76
			C250.29,144.61,251.22,140.52,248.87,138.9z"/>
		<path class="st8" d="M222.18,92.75c-0.1-0.27-0.28-0.49-0.49-0.67c-0.52-7.82-3.92-15.71-9.13-16.8
			c-0.45-0.74-0.95-1.47-1.47-2.19c-2.28-6.19-6.31-11.27-12.85-13.3c-0.88-0.28-1.66-0.2-2.31,0.09c-0.63-0.25-1.26-0.5-1.87-0.76
			c-0.19-0.7-0.6-1.33-1.29-1.63c-2.01-0.89-4.59-1.22-6.73-1.41c-1.48-0.13-2.78-0.24-4.09,0.49c-1.18,0.65-0.53,2.87,0.83,2.65
			c0.2-0.05,0.39-0.08,0.59-0.1c0.47,1.01,0.9,1.79,2.05,2.38c0.76,0.39,1.59,0.46,2.42,0.52c0.23,0.33,0.5,0.63,0.87,0.81
			c0.08,0.04,0.17,0.08,0.25,0.12c0.14,0.58,0.5,1.1,1.24,1.42c1.38,0.6,2.69,1.24,4.17,1.57c0.03,0.01,0.06,0.01,0.08,0.02
			c0.12,0.19,0.26,0.38,0.42,0.55c4.34,4.66,8.16,8.94,11.39,13.97c1.33,6.17,1.03,13.06-0.17,17.36c-0.4,1.43,0.06,2.55,0.9,3.25
			c-2.4,2.08-5.41,3.48-8.41,4.91c-3.58,1.7-3.22,7.92,1.36,7.58c5.14-0.38,9.51-2.07,13.84-4.43c2.57-0.03,5.24-2.26,6.99-3.89
			c0.34-0.31,0.58-0.65,0.76-1.01c0.07-0.02,0.15-0.04,0.21-0.07c1.41-0.51,2.55-1.72,2.95-3.22
			C225.49,97.83,223.2,95.47,222.18,92.75z"/>
		<g>
			<path class="st8" d="M133.2,128.27c-0.2,0.38-0.44,0.76-0.68,1.14c0.02-0.07,0.04-0.15,0.07-0.22c0.29-0.87-0.97-1.22-1.39-0.53
				c-0.79,1.32-1.85,2.68-2.38,4.12c-0.6,1.62,1.59,2.4,2.12,1.14c0,0,0,0,0.01,0c0.28-0.5,0.49-1.06,0.69-1.62
				c0.06-0.01,0.11-0.03,0.16-0.08c0.97-0.95,1.35-2.55,1.66-3.87c0.19-0.8,0.42-1.59,0.64-2.39
				C133.86,126.77,133.58,127.55,133.2,128.27z"/>
			<path class="st8" d="M134.49,124.35c-0.13,0.54-0.25,1.09-0.4,1.63C134.24,125.44,134.37,124.9,134.49,124.35z"/>
			<path class="st8" d="M144,111.78c-0.37-0.75-1-1.41-1.91-1.73c-2.24-0.8-4.19-2.02-6.27-3.15c-0.41-0.35-0.84-0.69-1.25-1.05
				c-0.51-0.45-1.05-0.61-1.55-0.58c-0.01-0.02-0.03-0.04-0.04-0.06c-0.89-1.39-1.52-3-2.5-4.3c-0.21-0.28-0.66-0.09-0.56,0.28
				c0.41,1.49,1.23,2.96,2.19,4.35c-1.14,0.67-1.73,2.39-0.52,3.7c0.64,0.76,1.3,1.47,1.98,2.16c0.81,0.91,1.7,1.71,2.68,2.4
				c0.07,0.06,0.13,0.12,0.2,0.17c-0.49,1.15-0.67,2.42-0.48,3.71c-0.16,0.2-0.29,0.42-0.43,0.63c-0.62-1.75-1.91-2.97-3.71-3.3
				c-0.12-0.02-0.23,0-0.35-0.01c-0.54-0.27-1.1-0.51-1.71-0.68c-1.77-0.49-2.51,1.59-1.84,2.81l-0.06,0.01
				c0.21,0.44,0.45,0.85,0.72,1.24c0.08,0.27,0.21,0.54,0.42,0.81c0.91,1.15,1.41,2.63,2.36,3.71c0.4,0.45,1.03,0.58,1.38,0.95
				c0.54,0.57,0.18,1.95,0.18,2.75c0,0.39,0.57,0.52,0.72,0.17c0.33-0.74,0.37-1.45,0.57-2.23c0.08-0.32,0.22-0.6,0.37-0.87
				c-0.04,0.23-0.09,0.46-0.14,0.7c0.06-0.26,0.13-0.52,0.19-0.79c0.02-0.04,0.05-0.09,0.07-0.13c0.13,0.16,0.27,0.3,0.46,0.39
				c-0.1-0.05-0.14,0.42-0.15,0.91c-0.1,0.05-0.19,0.12-0.21,0.24c-0.03,0.13-0.06,0.26-0.09,0.4c-0.06,0.25,0.07,0.46,0.26,0.59
				c0.12,0.08,0.24,0.16,0.35,0.24c0.39,0.27,0.8-0.15,0.82-0.54c-0.04-0.55-0.09-1.1-0.13-1.64c0.23,0,0.44-0.06,0.63-0.18
				c0.32-0.44,0.71-0.65,1.08-1.21c0.56-0.85,0.82-1.82,1.12-2.78c0.34-0.12,0.66-0.32,0.92-0.58c0.01,0.01,0.02,0.02,0.02,0.04
				c0.58-0.58,1.05-1.7,1.65-2.49c0.4,1.32,2.16,2.28,3.24,0.9c1.01-1.29,1.47-2.89,1.27-4.55
				C145.84,112.15,144.82,111.59,144,111.78z"/>
		</g>
		<path class="st8" d="M134.01,102.7c-2.47-2.33-5-4.58-7.47-6.9c-2.2-2.06-5.08,1.31-3.07,3.49c2.31,2.5,4.57,5.07,6.89,7.56
			c1.81,1.95,4.13,5.1,7.03,4.78c0.96-0.11,1.48-0.8,1.55-1.77C139.16,106.91,135.91,104.48,134.01,102.7z"/>
		<path class="st8" d="M145.45,125.6c-0.59,0.03-1.07,0.21-1.47,0.47c-0.4,0.04-0.8,0.12-1.18,0.23c0.05-1.61,0.09-3.22,0.13-4.84
			c0.04-1.44-2.12-1.33-2.16,0.1c-0.05,1.65-0.09,3.3-0.14,4.95c-0.04,1.29,1.68,1.32,2.07,0.29c0.18-0.03,0.36-0.03,0.54-0.04
			c-1.32,1.86-0.41,5.28,2.5,5.13C149.67,131.71,149.38,125.41,145.45,125.6z"/>
		<path class="st8" d="M136.96,134.25c-2.9,0.14-2.69,4.8,0.22,4.66C140.08,138.77,139.87,134.11,136.96,134.25z"/>
		<path class="st8" d="M152.04,141.84c-0.78,0.7-1.11,1.73-0.81,2.71c-0.3,1.26-2.04,1.52-3.09,1.47c-0.16-0.01-0.14,0.24,0.01,0.25
			c0.59,0.04,1.17,0,1.74-0.18c0.57-0.17,1.15-0.54,1.74-0.63c0.76-0.12,1.32,0.09,2.01-0.4c0.7-0.51,0.98-1.45,0.89-2.3
			C154.38,141.41,152.98,141,152.04,141.84z"/>
		<path class="st8" d="M153.17,124.95c-0.4-0.34-0.71-0.7-1.23-0.81c-0.31-0.07-0.54,0.18-0.56,0.48c-0.02,0.48,0.19,0.84,0.38,1.27
			C152.4,127.33,154.18,125.82,153.17,124.95z"/>
		<path class="st8" d="M153.89,118.04c-0.29-1.08-1.85-1.46-2.53-0.56c-0.22,0.29-0.42,0.59-0.61,0.9c-0.61,1.02,0.13,2.4,1.19,2.64
			c1.04,0.24,2.35-0.68,2.17-1.88C154.04,118.77,153.98,118.4,153.89,118.04z"/>
		<path class="st8" d="M155.87,107.07c-0.42,0.02-0.78,0.12-1.1,0.27c0.57-0.94,1.02-2,0.32-2.99c-0.3-0.42-0.87-0.71-1.38-0.5
			c-0.07,0.03-0.1,0.07-0.15,0.1c-0.1-0.29-0.21-0.57-0.28-0.86c-0.32-1.2-0.41-2.44-0.72-3.64c-0.4-1.56-2.33-1.11-2.76,0.13
			c-0.31,0.91-0.26,1.78,0.03,2.63c0.21,2.05,0.85,4.16,1.71,5.86c0.4,0.79,1.18,0.91,1.85,0.66c-0.87,1.91,0.11,4.78,2.78,4.65
			C160.09,113.18,159.8,106.88,155.87,107.07z"/>
		<path class="st8" d="M160.75,103.42c-0.36-0.88-0.82-1.34-1.77-1.43c-1.21-0.11-2.27,0.91-2.21,2.18
			C156.92,107.36,161.89,106.21,160.75,103.42z"/>
		<path class="st8" d="M175.9,80.42c-0.69-0.72-1.84-1.07-2.87-1.55c-0.58-1.18-1.46-2.16-2.8-2.82c-1.53-0.75-3.14,1.17-2.19,2.49
			l0,0c0.74,1.23,1.32,3.68,2.4,4.92c-1.3,4.22-3.29,7.5-6.71,10.6l0.01,0.01c-0.31,0.36-0.48,0.76-0.54,1.17
			c-0.53,0-1.05-0.02-1.56-0.04c-0.82-0.03-1.51,1.01-1.19,1.79c1.93,4.76,7.93,3.76,11.18,1.03c2.44-2.05,4.65-6.72,3.65-10.15
			c0.4-0.76,0.78-1.52,1.07-2.32C176.94,83.92,177.19,81.77,175.9,80.42z"/>
		<path class="st8" d="M179.49,70.95c-1.7,0.08-1.57,2.81,0.13,2.73C181.32,73.6,181.19,70.87,179.49,70.95z"/>
		<path class="st8" d="M183.97,78.85c-3.92,0.19-3.63,6.49,0.3,6.3C188.19,84.96,187.9,78.66,183.97,78.85z"/>
		<path class="st8" d="M181.7,96.4c-0.8,0.14-1.39,0.41-2.1,0.8c-2.49,1.4,0.18,5.6,2.39,3.79c0.62-0.51,1.11-0.95,1.54-1.64
			C184.29,98.15,183.12,96.14,181.7,96.4z"/>
		<path class="st8" d="M188.11,94.2c-3.92,0.19-3.63,6.49,0.3,6.3C192.33,100.31,192.04,94.01,188.11,94.2z"/>
		<path class="st8" d="M192.81,85.05c-3.58,0.17-3.32,5.93,0.27,5.75C196.67,90.63,196.4,84.88,192.81,85.05z"/>
		<path class="st9" d="M147.62,211.03c-2.74-4.87-6.04-9.16-8.57-14.06c0.96-0.52,0.7-2.36-0.62-2.29
			c-0.17,0.01-0.31,0.05-0.44,0.11c-0.3-0.67-0.59-1.35-0.86-2.05c-0.59-1.58-1.46-4.05-2.69-5.96c1.2-0.8,1.97-2.37,1.58-4.08
			c-1.07-4.64-2.38-8.98-3.17-13.46c-0.07-5.18,0.6-10.59,0.25-15.74c0.91-4.86,2.12-9.63,1.97-14.67c-0.06-2.08-1.3-3.3-2.8-3.73
			c0.41-0.58,0.58-1.32,0.28-2.04c-2.79-6.6-8.97-10.69-11.62-17.55c-1.52-3.94-1.92-7.99-1.89-12.08c0.94-0.45,1.58-1.37,1.22-2.52
			c-0.22-4.69,0.04-9.36-0.29-14.05c-0.17-2.4-3.44-2.67-4.03-0.37c-0.84,3.22-1.04,6.25-0.93,9.37
			c-2.28,14.78,0.84,31.06,13.75,39.66c-0.98,0.57-1.73,1.53-1.9,2.9c-2.09,12.52-7.41,28.43-1.83,40.57
			c0.39,2.85,0.88,5.7,1.54,8.5c-1.28,4.1,1.9,10.46,3.34,13.5c2.92,6.14,6.95,12.18,12.83,15.6c0.01-0.02,0.01-0.04,0.02-0.06
			C145.97,218.08,149.65,214.64,147.62,211.03z"/>
		<path class="st9" d="M150.42,202.33c-1.39,0.07-1.29,2.3,0.1,2.23C151.91,204.5,151.81,202.27,150.42,202.33z"/>
		<path class="st9" d="M142.84,179.43c-2.19,0.11-2.03,3.63,0.17,3.52C145.2,182.85,145.04,179.32,142.84,179.43z"/>
		<path class="st9" d="M144.17,169.24c-0.65,0.26-1.33,0.45-2,0.67c-1.55,0.49-1.95,2.63-0.77,3.73c1.18,1.1,3.2,0.49,3.52-1.15
			c0.14-0.71,0.26-1.43,0.45-2.12C145.57,169.68,144.82,168.98,144.17,169.24z"/>
		<path class="st9" d="M152.65,166.21c-0.49,0-0.35,0.07-0.62-0.11c-0.77-0.5-1.87-0.05-2.27,0.73c-0.46,0.92-0.03,1.81,0.71,2.35
			c0.93,0.67,2.19,0.72,3.11,0.02C154.84,168.25,154.24,166.2,152.65,166.21z"/>
		<path class="st9" d="M232.08,156.34c-8.25,1.26-15.77,8.93-21.81,14.48c-7.59,6.98-13.62,14.96-18.65,24.05
			c-1.08,1.95,1.79,3.39,2.94,1.59c5.07-7.94,11.15-15.35,18.08-21.62c6.39-5.79,15.25-8.78,21.08-14.88
			C234.93,158.7,233.89,156.06,232.08,156.34z"/>
		<path class="st9" d="M198.88,157.62c-0.34-1.3-2.36-1.2-2.57,0.12c-0.04,0.22-0.07,0.45-0.09,0.68c-0.28,2.46,3.34,2.3,2.82-0.14
			C198.99,158.06,198.94,157.84,198.88,157.62z"/>
		<path class="st9" d="M208.51,149.77c-0.35,0.02-0.66,0.1-0.95,0.21c-0.03-0.1-0.07-0.2-0.1-0.3c-0.99-2.5-4.52-0.83-3.27,1.61
			c0.33,0.64,0.86,1.34,1.53,1.6c0,1.63,1.05,3.28,3.09,3.18C212.73,155.88,212.44,149.58,208.51,149.77z"/>
		<path class="st9" d="M169.97,152.26c-1.82,0.09-1.69,3.01,0.14,2.93C171.93,155.1,171.79,152.17,169.97,152.26z"/>
		<path class="st9" d="M188.57,106.18c-4.33-1.85-10.09,1.46-14.21,2.9c-1.43,0.5-1.1,3.03,0.5,2.81c4.2-0.59,11.04-0.28,14.02-3.85
			C189.34,107.51,189.28,106.49,188.57,106.18z"/>
		<path class="st9" d="M181.96,56.47c-3.99-1.39-8.5,0.43-12.28,1.85c-4,1.51-8.17,3.6-10.71,7.25c-2.16,3.11,1.05,8.31,4.6,5.59
			c4.48-3.44,10.7-6.95,16.57-6.31C185.46,65.44,187.07,58.26,181.96,56.47z"/>
		<path class="st9" d="M187.02,69.84C187.02,69.84,187.02,69.83,187.02,69.84c-0.06-1.81-2.51-2.34-3.31-0.76
			c-0.83,1.64,1.03,3.29,2.51,2.36c0.31-0.19,0.52-0.45,0.68-0.78C187.03,70.4,187.05,70.12,187.02,69.84z"/>
		<path class="st9" d="M193.8,76.93c-2.19,0.11-2.03,3.63,0.17,3.52C196.16,80.35,196,76.83,193.8,76.93z"/>
		<path class="st9" d="M166.1,106.33c-2.47,0.12-2.29,4.09,0.19,3.97C168.76,110.18,168.57,106.21,166.1,106.33z"/>
		<path class="st9" d="M164.4,99.23c-3.92,0.19-3.63,6.49,0.3,6.3C168.62,105.34,168.33,99.04,164.4,99.23z"/>
		<path class="st9" d="M174.06,101.28c-0.07-0.02-0.13-0.04-0.2-0.06c-1.25-0.4-2.59,1.11-2.08,2.36c0.03,0.07,0.05,0.13,0.08,0.2
			c0.53,1.32,2.17,1.85,3.18,0.7C176.05,103.34,175.38,101.71,174.06,101.28z"/>
		<path class="st9" d="M155.47,128.49c-0.4,0.15-0.8,0.28-1.22,0.39c-1.6,0.43-2.01,2.59-1.02,3.8c1.03,1.26,3.04,1.07,3.79-0.42
			c0.19-0.39,0.4-0.75,0.62-1.12C158.49,129.74,156.89,127.97,155.47,128.49z"/>
		<path class="st9" d="M163.99,148.76c-1.27,0.06-1.17,2.09,0.1,2.03C165.35,150.73,165.25,148.69,163.99,148.76z"/>
		<path class="st9" d="M175.43,144.65c-3.92,0.19-3.63,6.49,0.3,6.3C179.64,150.76,179.35,144.46,175.43,144.65z"/>
		<path class="st9" d="M189.53,153.64c-3.77,0.18-3.49,6.23,0.28,6.05C193.58,159.51,193.31,153.46,189.53,153.64z"/>
		<path class="st9" d="M198.61,148.35c-1.14-0.82-2.73-0.67-3.68,0.4c-1.1,1.25-0.84,2.94,0.19,4.1c-0.04-0.03-0.07-0.06-0.11-0.09
			c0.28,0.51,1,0.92,1.58,0.84c0.48-0.07,0.77,0.04,1.3-0.14c0.67-0.23,1.29-0.77,1.62-1.41
			C200.16,150.77,199.75,149.17,198.61,148.35z"/>
		<g>
			<path class="st9" d="M175.45,186.25c0.03,0.03,0.06,0.05,0.09,0.09C175.44,186.2,175.42,186.2,175.45,186.25z"/>
			<path class="st9" d="M176.04,187.12c0.14,0.29-0.49-0.68-0.59-0.87c-1.46-1.78-4.51-1.27-4.69,1.33
				c-0.16,2.36,2.17,3.47,3.93,2.48c0.21-0.02,0.42-0.05,0.64-0.12c0.45-0.14,0.82-0.57,0.91-1.04
				C176.37,188.23,176.35,187.74,176.04,187.12z"/>
		</g>
		<path class="st9" d="M181.11,207.52c-0.13,0.01-0.12,0.22,0.01,0.21C181.25,207.72,181.24,207.51,181.11,207.52z"/>
		<path class="st9" d="M202.15,203.81c-3.92,0.19-3.63,6.49,0.3,6.3C206.37,209.92,206.08,203.62,202.15,203.81z"/>
		<path class="st9" d="M208.5,197.15c-0.23,0.09-0.47,0.18-0.7,0.27c-1.13,0.43-0.19,2.18,0.68,1.47c0.2-0.16,0.4-0.33,0.6-0.49
			C209.64,197.94,209.27,196.86,208.5,197.15z"/>
		<path class="st9" d="M213.34,187.01c-3.92,0.19-3.63,6.49,0.3,6.3C217.55,193.12,217.27,186.82,213.34,187.01z"/>
		<path class="st9" d="M215.62,177.39c-3,0.14-2.78,4.96,0.23,4.81C218.84,182.06,218.62,177.25,215.62,177.39z"/>
		<path class="st9" d="M167.09,163.96c-3.27,0.16-3.03,5.42,0.25,5.26C170.61,169.06,170.37,163.8,167.09,163.96z"/>
		<path class="st10" d="M222.44,162.31c-5.41,1.16-10.08,6.71-13.95,10.56c-4.97,4.96-9.13,10.34-13.1,16.17
			c-1.11,1.62,1.02,3.77,2.28,2.14c4.02-5.22,8.49-10.21,13.08-14.9c4.08-4.16,9.94-7.52,12.64-12.81
			C223.75,162.78,223.09,162.17,222.44,162.31z"/>
		<path class="st10" d="M144.2,214.89c-2.37-5.17-5.51-9.54-8.42-14.4c-4.47-7.47-6.43-14.34-7.32-23.03
			c-1.29-12.68-0.7-24.66,1.54-37.08c0.45-2.48-2.9-4.83-4.58-2.46c-7.37,10.4-5.3,27.79-4.21,39.9
			c1.42,15.88,7.8,28.68,19.21,39.61C142.01,218.94,145.24,217.15,144.2,214.89z"/>
		<path class="st10" d="M128.69,130c-6.32-7.26-9.67-14.01-10.17-24.09c-0.36-7.2,1.62-13.9,1.78-20.98
			c0.06-2.71-3.62-2.67-4.32-0.39c-4.62,15.17-3.83,38.82,11.39,47.4C128.61,132.62,129.53,130.96,128.69,130z"/>
		<path class="st10" d="M184.59,58.27c-5.85-3.41-16.02,1.43-21.39,4.17c-1.72,0.88-0.33,3.88,1.46,3.15
			c3.71-1.51,7.43-2.52,11.38-3.11c2.94-0.44,6.04-0.12,8.66-1.64C185.69,60.27,185.48,58.79,184.59,58.27z"/>
		<path class="st11" d="M197.6,119.06c-4.3-0.51-8.53,0.1-12.82,0.48c-3.94,0.35-8.11,0.35-11.87,1.74
			c-0.6-0.25-1.21-0.48-1.84-0.64c-2.47-0.63-3.46,2.21-2.53,3.87c-0.03,0.01-0.06,0.01-0.09,0.02c2.81,4.28,9.58,8.05,14.56,8.56
			c5.72,0.59,11.27-4.36,15.77-7.32C201.17,124.2,200.76,119.43,197.6,119.06z"/>
		<path class="st11" d="M226.46,112.25c0.09-0.47,0.1-0.96-0.01-1.44c-0.47-1.93-2.52-3.07-4.35-2.41c-0.7,0.25-1.29,0.68-1.77,1.27
			c-0.19,0.24-0.42,0.55-0.55,0.83c-0.08,0.18-0.12,0.24-0.12,0.24c-0.14,0.12-0.27,0.25-0.38,0.4c-3.71,0.41-7.58,1.23-10.38,3.44
			c-0.73,0.58-1.19,1.24-1.43,1.99c-0.87,0.16-1.72,0.46-2.53,1.06c-1.21,0.9-1.46,3.27,0.18,3.94c3.37,1.37,7.94,2.55,11.57,1.9
			c4-0.71,7.08-3.79,9.6-6.87C227.35,115.3,227.28,113.51,226.46,112.25z"/>
		<path class="st12" d="M195.18,174.21c-1.3-1.92-3.75-2.26-5.96-2.6c-0.68-0.51-1.48-0.78-2.4-0.59c-1.16,0.24-2.35,1.19-2.54,2.49
			c-0.29,2,0.14,3.97,0.83,5.84c0.61,1.66,1.39,3.66,3.08,4.41c1.96,0.87,4.41-0.31,4.86-2.32c1.01-0.44,1.89-1.22,2.38-2.28
			C196.13,177.62,196.15,175.65,195.18,174.21z"/>
		<path class="st12" d="M239.65,142.56l-0.12-0.15c-0.83-1.01-2.22-1.91-3.56-1.3c-0.25,0.11-0.47,0.23-0.67,0.36
			c-0.53-0.64-1.27-1.05-2.15-1.04c-2.14,0-2.99,1.88-3.61,3.65c-0.35,0.98,0.12,2.19,0.73,2.93c0.72,0.87,1.57,1.14,2.64,1.21
			c1.01,0.07,2.07,0.22,3.09,0.18c1.72-0.07,2.89-0.95,3.82-2.39C240.4,145.12,240.33,143.39,239.65,142.56z"/>
		<path class="st12" d="M159.95,74.44c-4.53-5.35-7.55-13.05-10.8-19.35c-0.58-1.12-1.55-1.62-2.57-1.67
			c-1.32-0.63-2.96-0.46-3.59,1.21c-2.29,6.15-1.77,14.67,1.04,20.61c3.05,6.43,6.73,13.52,12.7,17.44
			c2.41,1.59,5.47-0.39,6.11-2.92C164.48,83.32,164.11,79.35,159.95,74.44z"/>
		<path class="st12" d="M226.82,50.98c-0.89-2.8-5.4-3.63-6.58-0.57c-0.88,2.27-1.24,3.13-1.02,5.13c-1.7,3.76-2.93,8.11-3.83,11.64
			c-1.41,5.49,1.89,10.31,2.56,15.8c0.56,4.58,6.53,5.23,7.81,0.71C228.78,72.96,230.25,61.73,226.82,50.98z"/>
		<path class="st13" d="M189.36,174.11c-0.38-1.22-1.06-2-2.03-2.72c-0.73-0.55-1.87-0.73-2.51,0.12c-0.71,0.94-1.25,1.67-1.43,2.89
			c-0.19,1.33-0.13,2.8,0.23,4.08c0.27,0.98,1.26,2.01,2.27,2.13c0.59,0.07,1.06,0.04,1.65-0.08c1-0.2,1.88-1.36,2.06-2.34
			C189.83,176.92,189.75,175.36,189.36,174.11z"/>
		<path class="st13" d="M231.68,140.37c-2.13,0.1-1.97,3.53,0.16,3.42C233.97,143.69,233.81,140.27,231.68,140.37z"/>
		<path class="st13" d="M160.78,87.31c-3.52-4.17-7.94-7.81-10.79-12.55c-3.83-6.36-3.7-14.68-2.73-21.93
			c0.33-2.44-2.8-3.85-4.03-1.53c-3.44,6.51-3.5,15.58-0.89,22.47c2.68,7.08,8.78,12.27,12.96,18.35
			C158.3,96.47,164.29,91.46,160.78,87.31z"/>
		<path class="st13" d="M226.3,49.7c-1.27-2.49-4.37-1.13-5.1,0.94c-1.48,4.22-3.75,8.19-5.71,12.19c-1.73,3.52-4.66,7.04-2.43,10.9
			c0.47,0.82,1.49,1.36,2.41,1.28c5.08-0.45,6.76-7.67,8.79-11.74C226.52,58.73,228.81,54.6,226.3,49.7z"/>
		<g>
			<path class="st14" d="M133.04,110.98c-3.2-1.81-6.41-3.62-9.61-5.43c-2.14-1.21-5,1-4.13,3.5c2.08,5.98,4.99,11.52,8.79,16.52
				c2.27,2.99,7.19-0.13,4.89-3.16c-1.78-2.35-3.36-4.79-4.74-7.35l2.06,1.16C133.55,118.07,136.3,112.83,133.04,110.98z"/>
			<path class="st14" d="M231.02,124.11c0-0.14,0.01-0.27,0-0.41c-0.87-9.34-2.38-20.61-5.35-31.42c0.51-0.24,0.95-0.68,1.24-1.41
				c6.47-16.51,5.73-33.84-2.23-49.7c-1.08-2.16-4.96-1.65-5.25,0.87c-0.92,8.05-3.85,15.16-7.37,22.19
				c-1.92-2.23-4.03-4.23-6.36-5.92c-8.15-5.94-18.37-7.28-28.02-5.53C170.56,54.07,160.41,57,155,63.12
				c-3.02-5.32-4.02-11.07-5.94-17.3c-0.63-2.05-3.42-2.91-4.86-1.17c-9.15,11.08-6.32,26.85,1.1,39.02c-1,0.27-1.99,1.1-2.13,2.17
				c-0.19,1.43-0.2,2.8,0.01,4.18c-0.15,0.27-0.28,0.57-0.35,0.92c-0.87,4.27-1.11,8.53-0.77,12.78
				c-9.58-7.16-16.9-16.53-21.64-27.92c-0.87-2.09-4.2-3.15-5.29-0.55c-4.76,11.34-6.41,23.45-4.03,35.66
				c1.69,8.69,5.23,19.93,13.24,24.38c0,0.01-0.01,0.01-0.01,0.02c-6.53,12.71-6.61,26.55-5.25,40.57
				c1.19,12.22,2.75,25.46,10.44,35.37c16.35,21.04,52.1,25.02,75.96,20.66c25.51-4.66,51.07-21.35,56.07-49.26
				C265.7,159.5,257.63,126.7,231.02,124.11z M223.12,52.56c3.24,10.31,3.27,21.24,0.01,31.7c-1.92-5.32-4.3-10.35-7.2-14.8
				C218.79,63.94,221.38,58.43,223.12,52.56z M223.79,112.28c-0.95,0.18-1.76,0.85-1.96,2.17c-0.14,1.43-0.47,2.82-0.98,4.16
				c-1.08,0.85-2.27,1.29-3.58,1.3c-0.66,0.26-1.66,0.8-2.29,0.96c-2.97,0.73-6.6-0.58-9.68-2.05c6.22-1.84,12.29-4.49,18.23-8.23
				C223.64,111.16,223.7,111.72,223.79,112.28z M145.37,54.07c1.34,4.9,2.75,9.57,5.87,14.07c1.74,2.5,3.73,4.8,5.99,6.8
				c0.9,0.8,2.93,1.8,3.54,2.8c1.85,3.07,1.29,11.32-1.72,13.34C149.63,83.47,140.85,66.51,145.37,54.07z M251.99,193.95
				c-10.07,21.16-34.96,31.69-56.6,33.29c-19.74,1.46-48.58-2.85-61.58-20.14c-7.23-9.63-8.3-22.74-9.26-34.49
				c-0.97-11.91-0.69-23.66,4.84-34.43c0.57-1.11,0.4-2.16-0.13-2.95c0.85-1.51,0.53-3.97-1.57-4.77
				c-7.67-2.9-10.45-16.56-11.43-23.97c-1.01-7.64-0.34-15.1,1.79-22.31c5.94,11.27,14.27,20.48,25.05,27.45
				c0.31,0.2,0.61,0.31,0.9,0.38c1.8,1.41,5.27-0.31,4.58-3.32c-1.01-4.44-1.2-8.89-0.63-13.34c0.97-0.61,1.54-1.74,0.97-3.19
				c-0.03-0.08-0.06-0.15-0.09-0.23c0.27-0.61,0.35-1.3,0.2-1.98c0.15-0.13,0.27-0.28,0.39-0.43c2.47,3.02,5.2,5.65,8.03,7.7
				c1.36,0.98,2.65,0.47,3.4-0.58c0.39-0.05,0.79-0.19,1.19-0.44c6.3-3.99,13.28-11.3,7.31-19c-2.9-3.74-7.55-5.68-10.8-9.17
				c4.76-6.86,17.7-9.68,25.05-10.01c11.02-0.49,20.36,4.15,26.46,13.73c6.09,9.57,9.95,21.21,12.37,32.93
				c-0.41,0.04-0.84,0.17-1.27,0.45c-16.94,10.9-34.73,12.2-54.24,11.05c-1.39-0.08-2.51,1.15-2.75,2.5
				c-1.5,0.66-2.51,2.41-1.27,4.16c4.63,6.57,10.45,13,18.76,13.76c9.21,0.85,14.52-6.43,19.78-13.11
				c5.16,2.54,10.7,4.27,16.21,2.72c2.03-0.57,4.16-0.49,5.98-1.94c0.59-0.47,1.08-1.01,1.49-1.58c0.04,0.4,0.1,0.81,0.13,1.2
				c0.16,1.75,1.47,2.65,2.8,2.75c-0.03,1.54,0.94,3.24,2.84,3.4c9.63,0.85,16.26,6.57,20.41,14.49c-2.24,0.16-4.56,0.24-6.89,0.36
				c0.31-0.94,0.14-2.01-0.83-2.86c-3.16-2.78-8.03-5.98-12.4-5.81c-5.25,0.21-5.41,7.65-5.01,11.58c0.05,0.49,0.19,0.91,0.39,1.26
				c-6.32,3.53-12.08,9.3-17.52,13.71c-3.75,3.04-7.43,6.16-10.8,9.53c-0.48-0.63-1.21-1.08-2.18-1.12
				c-2.99-0.13-5.33-2.92-7.95-4.14c-2.33-1.09-4.5-1.33-6.96-0.65c-1.39,0.39-2.51,2.28-1.9,3.73c2.52,6.03,4.54,12.21,6.09,18.58
				c0.12,0.51,0.34,0.9,0.6,1.21c-0.73,1.78-1.35,3.63-1.85,5.58c-0.94,3.72,4.67,5.12,5.61,1.41c3.52-13.88,14.42-22.68,24.9-31.09
				c4.75-3.81,9.48-8.45,14.75-11.47c6.6-3.78,14.97-3.34,22.33-3.88c0.79-0.06,1.4-0.38,1.84-0.85
				C258.68,163.85,257.45,182.48,251.99,193.95z M196.1,120.96c-3.38,4.5-7.44,9.56-12.56,9.77c-5.7,0.23-10.19-3.87-13.65-8.24
				c0.06-0.07,0.13-0.13,0.19-0.21C179.05,122.68,187.71,122.42,196.1,120.96z M238.41,145.39c-2.23,0.28-4.43,0.7-6.54,1.36
				c-0.08-1.22-0.07-2.43,0.14-3.65c0.03-0.19,0.12-0.42,0.19-0.63c0.31,0.05,0.67,0.09,0.86,0.15
				C235,143.2,236.79,144.17,238.41,145.39z M194.04,176.84c-1.56,1.85-3,3.78-4.31,5.82c-0.94-3.33-2-6.61-3.21-9.84
				c1.3,0.74,2.52,1.79,3.64,2.46C191.45,176.06,192.7,176.55,194.04,176.84z"/>
		</g>
	</g>
</g>
</svg>
