<?xml version="1.0" encoding="utf-8"?>
<!-- Generator: Adobe Illustrator 25.2.3, SVG Export Plug-In . SVG Version: 6.00 Build 0)  -->
<svg version="1.1" id="Layer_1" xmlns="http://www.w3.org/2000/svg" xmlns:xlink="http://www.w3.org/1999/xlink" x="0px" y="0px"
	 viewBox="0 0 416 416" style="enable-background:new 0 0 416 416;" xml:space="preserve">
<style type="text/css">
	.st0{display:none;}
	.st1{display:inline;fill:#3A656A;}
	.st2{display:inline;fill:#2A555A;}
	.st3{display:inline;fill:#65A6B4;}
	.st4{display:inline;fill:#AEE3EE;}
	.st5{display:inline;fill:#224A4C;}
	.st6{display:inline;fill:#182421;}
	.st7{fill:#3A656A;}
	.st8{fill:#2A555A;}
	.st9{fill:#65A6B4;}
	.st10{fill:#AEE3EE;}
	.st11{fill:#224A4C;}
	.st12{fill:#182421;}
	.st13{display:inline;}
	.st14{display:inline;fill:#F6F36D;}
	.st15{display:inline;fill:#BDB295;}
	.st16{display:inline;fill:#FFEFC8;}
	.st17{display:inline;fill:#4C3535;}
	.st18{display:inline;fill:#777676;}
	.st19{display:inline;fill:#B7B7B7;}
	.st20{display:inline;fill:#595959;}
	.st21{display:inline;fill:#D1D1D1;}
	.st22{display:inline;fill:#664C4C;}
	.st23{display:inline;fill:#332424;}
	.st24{fill:#212021;}
	.st25{display:inline;fill:#4C4C4C;}
</style>
<g>
	<g>
		<path class="st7" d="M257.82,316.96c-6.84-13.42-12.91-21.62-28.59-19.46c-8.16,1.13-24.94,3.57-33.09,10.58
			c-1.35-0.49-2.85-0.47-4.08,0.4c-10.93,7.69-2.11,28.2,1.62,38.19c4.64,12.39,13.83,19.87,27.06,19.75
			c12.11-0.12,30.14-5.44,38.98-14.33C269.71,342.04,263.3,327.73,257.82,316.96z"/>
		<path class="st8" d="M263.09,325.85c-4.43-9.52-9.47-23.06-19.62-27.36c-1.16-0.49-2.3-0.29-3.31,0.24
			c-0.25-0.15-0.5-0.29-0.78-0.43c-6.02-2.93-12.05-0.44-17.53,2.32c-3.37,1.69-2.98,6.2-0.5,8.28c-0.67,0.98-1.25,2.02-1.72,3.05
			c-1.95,4.35,3.56,10.38,7.16,5.88c0.49-0.61,0.92-1.2,1.33-1.79c-0.01,0.34-0.02,0.67-0.03,1.07c-0.04,2.74-0.16,5.48-0.34,8.22
			c-0.09,1.61,0.7,2.81,1.81,3.52c-0.51,2.48-1.11,5.05-1.79,7.57c-1.1-1.67-3.61-2.02-5.17,0.02c-3.59,4.72-3.49,9.8,0.45,12.88
			c-0.48,0.89-0.98,1.68-1.48,2.33c-2.85,1.15-7.63,1.05-9.38,1.78c-3.26,1.36-3.38,7.24-0.13,8.75c0.11,0.05,0.22,0.08,0.34,0.13
			c0.23,1.52,1.01,2.92,2.39,3.56c10.3,4.8,19.32,1.48,27.99-5.24c0.93-0.72,1.94-1.46,3-2.22c0.98,0.41,2.13,0.5,3.41,0.12
			c7.78-2.29,13.62-7.6,15.53-15.65C267.66,338.72,266.64,333.48,263.09,325.85z"/>
		<path class="st8" d="M226.81,326.82c-1.03-0.18-2.17,0.63-2.13,1.78c0.07,1.93-0.31,4.51,0.88,6.14c0.24,0.33,0.77,0.27,1.03,0.03
			c1.32-1.27,1.37-3.82,1.7-5.55C228.51,328.12,227.98,327.02,226.81,326.82z"/>
		<path class="st8" d="M211.26,321.41c-0.31-0.2-0.71-0.2-1.03-0.03c-1.15,0.62-1.2,2.24-1.24,3.42c-0.07,2.17,3.23,2.29,3.3,0.12
			C212.34,323.72,212.39,322.15,211.26,321.41z"/>
		<path class="st8" d="M218.09,322.98c-0.13,0.03-0.08,0.24,0.05,0.21C218.26,323.16,218.22,322.95,218.09,322.98z"/>
		<path class="st8" d="M219.48,325.47c-0.97-0.17-2.06,0.6-2.02,1.68c0.05,1.43,0.56,2.66,1.12,3.95c0.14,0.32,0.59,0.28,0.76,0.02
			c0.65-1.05,1.33-2.15,1.55-3.39C221.07,326.69,220.61,325.66,219.48,325.47z"/>
		<path class="st8" d="M213.93,343.15c-2.26-0.07-2.84,3.34-0.62,4.03C216.11,348.05,216.9,343.24,213.93,343.15z"/>
		<path class="st8" d="M213.73,310.84c-3.28,0.79-2.02,6.01,1.26,5.22C218.27,315.26,217.01,310.04,213.73,310.84z"/>
		<path class="st8" d="M203.68,333.88c-2.12,0.51-1.31,3.9,0.82,3.38C206.62,336.75,205.81,333.37,203.68,333.88z"/>
		<path class="st8" d="M198.04,320.85c-1.09,0.26-0.67,2,0.42,1.74C199.55,322.32,199.14,320.58,198.04,320.85z"/>
		<path class="st9" d="M217.78,301.05c-6.56,0.74-16.45,3.02-22.32,6.56c-5.08,3.07-7.01,7.78-7.05,13.73
			c-0.11,14.83,6.32,30.66,17.75,40.05l0.03-0.06c4.05,4.11,10.87-2.32,6.43-6.3c-7.97-7.17-14.74-20.46-13.73-31.6
			c0.67-7.49,4.63-7.01,10.76-8.82c4.69-1.39,8.42-2.94,12.05-6.32C225.05,305.17,221.56,300.62,217.78,301.05z"/>
		<path class="st9" d="M204.7,327.81c-1.27,0.31-0.79,2.34,0.49,2.03C206.46,329.53,205.97,327.5,204.7,327.81z"/>
		<path class="st9" d="M210.12,319.41c-1.91,0.46-1.18,3.51,0.74,3.04C212.77,321.99,212.04,318.94,210.12,319.41z"/>
		<path class="st9" d="M210.01,331.17c-1.1-0.04-2.36,0.95-2.27,2.18c0.07,0.99,0.2,1.96,0.75,2.81c0.57,0.87,1.26,1.08,2.22,1.2
			c0.64,0.08,1.36-0.48,1.51-1.11c0.07-0.29,0.27-1,0.18-1.57c-0.06-0.4-0.23-0.78-0.24-1.18
			C212.11,332.29,211.26,331.21,210.01,331.17z"/>
		<path class="st9" d="M216.79,341.12c-0.13,0.03-0.08,0.24,0.05,0.21C216.97,341.29,216.92,341.08,216.79,341.12z"/>
		<path class="st9" d="M202.62,323.63c-2.52,0.61-1.55,4.62,0.97,4.01C206.11,327.02,205.14,323.01,202.62,323.63z"/>
		<path class="st10" d="M213.45,303.7c-7.15-0.39-15.33,4.05-21.56,7.37c-4.58,2.44-7.56,5.43-7.55,10.93
			c0.04,15.65,7.42,31.25,21.11,38.23c1.78,0.91,3.17-1.45,1.58-2.66c-8.52-6.5-16.71-22.5-15.74-33.41
			c0.91-10.22,17.38-9.89,23.48-16.99C215.86,305.9,215.23,303.8,213.45,303.7z"/>
		<path class="st11" d="M261.64,326.07c-1.14-4.1-3.51-8.17-5.69-11.29c-2.66-7.54-7.8-13.91-15.12-18.13
			c-3.89-2.24-8.47,2.99-5,6.39c7.67,7.52,11.67,16.45,10.33,27.37c-0.9,7.33-5.57,14.03-5.64,21.26c0,0.45,0.13,0.87,0.32,1.25
			c-6.11,2.79-13.31,3.76-18.94,7.38c-1.47,0.95-1.56,3.76,0.46,4.19c11.48,2.45,27.94-2.1,35.36-11.59
			C262.52,346.79,266.51,333.36,261.64,326.07z"/>
		<path class="st12" d="M203.53,366.9c16.81,10.11,46.1-0.13,58.78-13.02c16.97-17.26-3.46-44.66-15.44-58.87
			c-0.67-0.79-1.51-1.14-2.34-1.18c-7.72-3.97-19.75,1.76-27.28,3.69c-7.81,2-15.65,4.1-23.32,6.61c-3.57,1.17-8.17,2.01-10.36,5.52
			c-4.67,7.47-0.26,21.93,2.2,29.62C188.95,349.18,194.35,361.38,203.53,366.9z M192.16,311.35c2.42-2.09,8.67-2.7,11.59-3.55
			c3.88-1.13,7.77-2.22,11.67-3.25c4.49-1.19,22.36-8.01,26.38-5.14c0.35,0.25,0.71,0.4,1.07,0.5
			c10.13,12.14,27.99,35.57,14.87,49.45c-9.75,10.31-29.19,16.4-43.05,14.53c-11.84-1.59-17.85-12.67-21.79-23.1
			C190.1,333.44,184.73,317.75,192.16,311.35z"/>
	</g>
</g>
</svg>
