<?xml version="1.0" encoding="utf-8"?>
<!-- Generator: Adobe Illustrator 25.2.3, SVG Export Plug-In . SVG Version: 6.00 Build 0)  -->
<svg version="1.1" id="Layer_1" xmlns="http://www.w3.org/2000/svg" xmlns:xlink="http://www.w3.org/1999/xlink" x="0px" y="0px"
	 viewBox="0 0 416 416" style="enable-background:new 0 0 416 416;" xml:space="preserve">
<style type="text/css">
	.st0{fill:#3A656A;}
	.st1{fill:#2A555A;}
	.st2{fill:#65A6B4;}
	.st3{fill:#AEE3EE;}
	.st4{fill:#224A4C;}
	.st5{fill:#182421;}
	.st6{display:none;}
	.st7{display:inline;fill:#3A656A;}
	.st8{display:inline;fill:#2A555A;}
	.st9{display:inline;fill:#65A6B4;}
	.st10{display:inline;fill:#AEE3EE;}
	.st11{display:inline;fill:#224A4C;}
	.st12{display:inline;fill:#182421;}
	.st13{display:inline;}
	.st14{display:inline;fill:#F6F36D;}
	.st15{display:inline;fill:#BDB295;}
	.st16{display:inline;fill:#FFEFC8;}
	.st17{display:inline;fill:#4C3535;}
	.st18{display:inline;fill:#777676;}
	.st19{display:inline;fill:#B7B7B7;}
	.st20{display:inline;fill:#595959;}
	.st21{display:inline;fill:#D1D1D1;}
	.st22{display:inline;fill:#664C4C;}
	.st23{display:inline;fill:#332424;}
	.st24{fill:#212021;}
	.st25{display:inline;fill:#4C4C4C;}
</style>
<g>
	<g>
		<path class="st0" d="M243.41,276.44c0.49-2.66,0.52-5.55,0.46-7.89c-0.12-4.6-0.99-8.66-2.46-12.46c0.35-2.61,0.45-5.26-0.16-8.08
			c-1.24-5.73-4.07-11.5-6.38-16.83c-0.83-1.91-1.74-4.16-2.79-6.46c-0.04-0.17-0.07-0.33-0.12-0.5
			c-2.23-8.68-5.52-19.11-16.46-17.39c-8.94,1.41-11.37,9.8-10.93,17.86c0.58,10.81,1.42,20.43,5.95,29.35
			c-0.97,1.02-1.64,2.38-1.78,3.96c-0.63,7.24-0.22,15.88,3.1,22.64c-4.64-0.4-9.07-0.59-9.91-0.42c-2.98,0.62-5.77,1.84-7.5,4.3
			c-2.85,1.11-5.27,3.61-6.36,7.57c-3.02,10.93,8.46,24.7,18.9,25.38c6.32,0.41,14.98-1.64,20.88-6.16
			c5.23-1.32,10.04-7.12,12.29-11.51c2.04-3.96,3.16-9,3.47-14.5c0.19-0.57,0.28-1.2,0.21-1.87c-0.04-0.38-0.08-0.77-0.12-1.15
			C243.7,280.38,243.59,278.42,243.41,276.44z"/>
		<path class="st1" d="M242.67,272.41c-0.23-8.66-1.8-17.53-3.04-24.18c-2.05-11.03-6.82-34.82-17.6-40.7
			c-1.53-0.83-3.19-0.51-4.37,0.6c-1.32-0.56-2.77-0.88-4.37-0.82c-3.21,0.11-5.8,3.98-3.8,6.95c4.46,6.62,7.32,14.26,10.6,21.54
			c2.73,6.06,5.36,12.03,7.44,18.2c0.74,4.35,1.93,8.76,2.72,13c-0.56,0.46-0.95,1.17-0.99,2.11c-0.28,6.82,2.09,12.59,0.99,19.25
			c-1.65-0.39-3.43,0.11-4.32,1.98c-1.1,2.3-1.22,4.73-2.17,7.06c-1.06,2.63-3.12,4.04-5.58,5.26c-4.46,2.22-11.92,5.66-16.5,2.8
			c-1.03-0.65-2.06-0.51-2.84,0.04c-0.04-0.07-0.09-0.12-0.13-0.18c-0.9-1.78-3.26-0.71-3.38,0.98c-0.27,3.72,2.26,6.44,5.32,8.05
			c8.75,7.27,25.1,2.64,32.52-4.51c4.7-4.52,10.01-11.5,11.36-18.02C245.85,285.44,244.65,278.72,242.67,272.41z"/>
		<path class="st1" d="M209.1,295.82c-1.15,0.01-1.71,1.26-1.22,2.23c0.05,0.09,0.09,0.18,0.14,0.27c0.43,0.86,1.81,0.84,2.22-0.03
			c0.04-0.09,0.09-0.18,0.13-0.28C210.83,297.04,210.24,295.8,209.1,295.82z"/>
		<path class="st1" d="M215.31,298.03c-0.93-0.44-1.54-0.23-2.48,0.09c-2.27,0.76-0.88,4.26,1.32,3.12
			c0.88-0.45,1.41-0.73,1.77-1.71C216.11,299.02,215.79,298.26,215.31,298.03z"/>
		<path class="st1" d="M218.96,289.03c-0.03-0.48-0.55-0.86-0.99-0.57c-0.18,0.12-0.36,0.24-0.54,0.37
			c-0.65,0.44-0.68,1.44,0.02,1.85c0.66,0.38,1.61-0.12,1.56-0.94C218.99,289.5,218.98,289.27,218.96,289.03z"/>
		<path class="st1" d="M207.64,289.17c-0.91,0.01-0.89,1.45,0.02,1.44C208.56,290.6,208.55,289.16,207.64,289.17z"/>
		<path class="st1" d="M201.21,300.36c-1.59,0.02-1.57,2.55,0.03,2.53C202.83,302.87,202.8,300.34,201.21,300.36z"/>
		<path class="st1" d="M224.84,264.89c-0.24-0.86-1.37-1.44-2.15-0.87c-0.44,0.33-0.73,0.62-0.98,1.11
			c-1.25,2.37,2.76,3.76,3.16,1.32C224.97,265.89,225,265.45,224.84,264.89z"/>
		<path class="st1" d="M222.73,247.73c-1.42,0.02-1.85,1.51-1.37,2.51c-0.21-0.04-0.44-0.06-0.68-0.06
			c-3.97,0.05-3.9,6.36,0.07,6.31c3.01-0.03,3.69-3.66,2.12-5.4C224.87,250.93,224.81,247.7,222.73,247.73z"/>
		<path class="st2" d="M223.57,278.13c-0.86-10.13-3.56-20.23-5.48-30.2c-0.15-0.79-0.28-1.58-0.43-2.37
			c0.5,0.63,1.26,1.05,2.3,1.04c3.97-0.05,3.9-6.36-0.07-6.31c-1.54,0.02-2.46,0.98-2.8,2.14c-0.66-3.7-1.29-7.41-1.92-11.12
			c-0.61-3.56-3.81-12.71-2.12-15.77c0.93-1.68,0.21-3.46-1.21-4.51c-0.26-0.19-0.52-0.39-0.78-0.58c-1.47-1.09-3.89-0.54-5.07,0.73
			c-6.02,6.43,0.29,23.73,1.48,31.14c1.94,11.97,1.28,28.58,9.43,38.19c-3.4-1.78-7.81-2.59-11.04-2.4
			c-5.59,0.32-11.73,1.89-15.8,6.01c-8,8.09-2.36,21.33,5.82,26.83c3.16,2.12,6-1.99,4.66-4.88c-2.57-5.55-8.72-13.62,0.57-15.73
			c3.29-0.74,5.88-0.89,9.07,0.23c3.16,1.11,5.11,1.9,8.43,1.01c3.81-1.02,4.11-5.46,2.01-8.16c-0.42-0.54-0.93-1.03-1.49-1.48
			C221.28,282.26,223.78,280.59,223.57,278.13z"/>
		<path class="st2" d="M226.76,269.7c-2.44,0.03-2.4,3.9,0.04,3.88C229.24,273.55,229.2,269.68,226.76,269.7z"/>
		<path class="st2" d="M221.34,247.51c-1.97,0.02-1.94,3.15,0.03,3.13C223.34,250.62,223.31,247.49,221.34,247.51z"/>
		<path class="st2" d="M205.99,295.84c-1.87,0.02-1.84,3,0.03,2.98C207.9,298.8,207.87,295.82,205.99,295.84z"/>
		<path class="st3" d="M212.1,244.2c-1.85-5.82-4.55-11.88-4.53-18.09c0.02-4.93,1.79-9.59,1.98-14.48
			c0.03-0.71-0.88-1.29-1.47-0.84c-6.34,4.84-7.29,15.19-5.56,22.66c1.67,7.22,4.66,14.45,6.98,21.49
			c2.42,7.35,3.89,14.42,5.78,21.9c0.33,1.31,2.02,0.85,2.14-0.32C218.54,265.77,215.34,254.35,212.1,244.2z"/>
		<path class="st3" d="M219.64,282.18c-3.94-3.12-9.98-2.81-14.84-3.02c-4.71-0.2-8.52,1.69-11.41,5.52
			c-5.17,6.87-7.93,19.19-0.42,25.53c0.89,0.75,2.64,0.04,2.14-1.31c-1.49-3.98-2.45-7.17-1.62-11.5c0.71-3.71,2.46-7.43,5.34-9.9
			c6.07-5.2,13.74,1.46,20.38-1.54C220.5,285.39,220.75,283.06,219.64,282.18z"/>
		<path class="st4" d="M244.75,259.64c-1.63-7.89-4.84-15.11-8.81-22c-0.61-3.42-1.76-6.82-2.63-9.69
			c-2.09-6.88-4.79-15.44-10.54-19.94c-1.28-1-4-0.54-3.71,1.62c0.96,7.09,4.93,13.58,6.79,20.51c1.66,6.22,1,13.95,5.18,18.94
			c0.6,0.72,1.49,0.82,2.28,0.55c1.22,4.63,2.03,9.38,2.48,14.18c0.48,5.13-0.05,10.69,3.32,14.71c-1.14,5.19-3.25,10.77-5.51,15.35
			c-1.4,2.83-3.5,5.54-4.7,8.49c-3.3,1.9-6.23,5.5-9.3,7.44c-4.98,3.15-9.89,2.63-15.38,3.05c-1.76,0.13-3.21,0.35-4.56,1.52
			c-1.48,1.28,0.45,3.52,2.03,2.63c-1.31,0.73,0.87,0.85,1.89,1.16c1.54,0.48,3.54,0.59,5.16,0.68c4.23,0.22,8.74-0.34,12.68-1.98
			c3.58-1.49,6.1-4.05,9.27-6.22c2.96-2.03,5.52-2.7,6.27-6.44c0.02-0.11,0.01-0.23,0.02-0.34c1.4-2.03,2.46-4.41,3.35-6.64
			c2.57-6.44,3.04-11.91,2.46-18.5C247.66,274.12,246,265.71,244.75,259.64z"/>
		<path class="st5" d="M215.86,322.55c51.43-9.62,33.09-77.82,14.31-111.15c0.83-1.13,0.97-2.71-0.4-3.91
			c-10.36-9.14-26.26-12.52-29.85,4.81c-1.89,9.1,0.6,19.34,2.14,28.34c2.06,11.96,4.67,23.79,7.67,35.54
			c-11.87-1.22-24.3,3.84-25.72,17.93C182.19,312.17,199.29,325.65,215.86,322.55z M193.82,287.23c6.29-7.06,16.57-6.15,24.27-2.22
			c3.58,1.82,6.66-3.7,3.08-5.53c-1.47-0.75-3.04-1.36-4.66-1.88c-3.17-12.13-5.94-24.36-8.12-36.72
			c-1.21-6.86-2.79-14.07-2.78-21.07c0.01-6.98-0.3-7.19,6.84-10.03c5.1-2.03,6.88-2.34,9.47-0.61c0.05,0.44,0.19,0.89,0.48,1.35
			c7.33,11.81,11.83,25.16,16.02,38.42c4.88,15.44,6.67,29.5,1.94,45.22c-2.78,9.23-7.81,14.72-16.23,18.78
			c-7.91,3.81-17.02,5.77-24.76,0.52C191.17,307.9,186.54,295.41,193.82,287.23z"/>
	</g>
</g>
</svg>
