<?xml version="1.0" encoding="utf-8"?>
<!-- Generator: Adobe Illustrator 25.2.3, SVG Export Plug-In . SVG Version: 6.00 Build 0)  -->
<svg version="1.1" id="Layer_1" xmlns="http://www.w3.org/2000/svg" xmlns:xlink="http://www.w3.org/1999/xlink" x="0px" y="0px"
	 viewBox="0 0 416 416" style="enable-background:new 0 0 416 416;" xml:space="preserve">
<style type="text/css">
	.st0{display:none;}
	.st1{display:inline;fill:#3A656A;}
	.st2{display:inline;fill:#2A555A;}
	.st3{display:inline;fill:#65A6B4;}
	.st4{display:inline;fill:#AEE3EE;}
	.st5{display:inline;fill:#224A4C;}
	.st6{display:inline;fill:#182421;}
	.st7{fill:#3A656A;}
	.st8{fill:#2A555A;}
	.st9{fill:#65A6B4;}
	.st10{fill:#AEE3EE;}
	.st11{fill:#224A4C;}
	.st12{fill:#182421;}
	.st13{display:inline;}
	.st14{display:inline;fill:#F6F36D;}
	.st15{display:inline;fill:#BDB295;}
	.st16{display:inline;fill:#FFEFC8;}
	.st17{display:inline;fill:#4C3535;}
	.st18{display:inline;fill:#777676;}
	.st19{display:inline;fill:#B7B7B7;}
	.st20{display:inline;fill:#595959;}
	.st21{display:inline;fill:#D1D1D1;}
	.st22{display:inline;fill:#664C4C;}
	.st23{display:inline;fill:#332424;}
	.st24{fill:#212021;}
	.st25{display:inline;fill:#4C4C4C;}
</style>
<g>
	<g>
		<path class="st7" d="M190.25,318.18c-1.73-9.57-8.37-12.99-17.09-14.69c-7.98-1.56-15.94,0.11-23.92,1.39
			c-2.18,0.19-4.35,0.49-6.53,0.88c-1.77,0.18-3.55,0.3-5.33,0.3c-6.86,0.01-15.04,0.44-14.43,9.74c0.06,0.88,0.31,1.75,0.71,2.55
			c-0.92,2.07-1.7,4.18-2.41,6.32c-0.78,0.67-1.39,1.6-1.68,2.82c-2.17,9.4-4.04,19.62,0.95,28.47c5.02,8.92,13.56,11.2,22.86,12.71
			c19.01,3.09,38.03,1.83,45.27-19.65C191.8,339.69,192,327.84,190.25,318.18z"/>
		<path class="st8" d="M179.89,302.36c-2.32-1.29-4.49-0.36-5.73,1.31c-0.35,0.11-0.68,0.27-0.99,0.47c-2.08-0.46-4.64,0.06-7.74,2
			c-0.76,0.47-1.22,1.29-1.42,2.18c-0.78,0.39-1.42,1.12-1.75,2.04c-0.57,1.57-1.14,3.14-1.71,4.71c-0.7,1.92,0.57,3.39,2.15,3.83
			c-0.06,0.28-0.13,0.55-0.19,0.85c-0.29,1.46,0.16,2.58,0.94,3.29c-0.38,0.31-0.75,0.64-1.1,1.06c-1.52,1.82-1.33,4.56,0.8,5.84
			c1.05,0.63,3.58,1.22,4.04,2.18c0.08,0.16,0.09,0.36,0.13,0.54c-0.21,0.17-0.41,0.35-0.61,0.58
			c-4.99,6.37-10.31,12.37-16.03,18.02c-1.44,1.19-2.73,2.56-3.75,3.64c-0.4,0.42-0.67,0.87-0.87,1.32
			c-0.27-0.09-0.55-0.19-0.81-0.28c-3.55-1.22-6.99,0.15-9.38,2.86c-0.27,0.3-0.47,0.62-0.63,0.94c-0.44,0.11-0.89,0.22-1.34,0.31
			c-0.03,0-0.05,0.02-0.07,0.02c-0.3,0.04-0.54,0.07-0.69,0.09c0.01,0.04,0.02,0.08,0.03,0.12c-2.43,0.97-3.01,4.61,0.03,5.53
			c3.79,1.15,9.58,1.68,15,0.85c0.27,0.14,0.56,0.26,0.85,0.31c7.78,1.3,15.18,1.35,22.95-0.06c1.17-0.21,2.02-0.9,2.57-1.81
			c2.25-1.42,4.24-3.02,5.95-4.83c0.83-0.37,1.54-1.02,1.97-2.04c0.08-0.18,0.16-0.38,0.23-0.56c2.48-3.35,4.22-7.26,5.19-11.78
			c0.18-0.85,0.15-1.65-0.05-2.38C192.48,328.22,194.23,310.32,179.89,302.36z"/>
		<path class="st8" d="M142.8,343.83c-0.03-0.04-0.06-0.07-0.09-0.11c-2.34-0.94-4.06,2.41-2.66,4.17c1.49,1.87,4.6,0.86,4.57-1.65
			c0-0.01-0.01-0.02-0.01-0.03C144.96,344.92,143.97,343.96,142.8,343.83z"/>
		<path class="st8" d="M153.35,335.91c-1.59,0.02-2.18,1.57-1.81,2.77c-0.37-0.16-0.8-0.26-1.29-0.25c-3.97,0.05-3.9,6.36,0.07,6.31
			c2.69-0.03,3.52-2.95,2.54-4.81c0.17,0.04,0.33,0.11,0.54,0.11C155.98,340.01,155.94,335.88,153.35,335.91z"/>
		<path class="st8" d="M159.55,336.77c-0.13,0-0.13,0.21,0,0.21C159.69,336.99,159.68,336.77,159.55,336.77z"/>
		<path class="st8" d="M152.8,318.82c-0.13,0-0.13,0.21,0,0.21C152.93,319.03,152.93,318.82,152.8,318.82z"/>
		<path class="st8" d="M156.55,314.32c-3.97,0.05-3.9,6.36,0.07,6.31C160.58,320.58,160.52,314.27,156.55,314.32z"/>
		<path class="st8" d="M160.2,332.7c-1.25,0.01-1.23,2,0.02,1.99C161.47,334.67,161.45,332.68,160.2,332.7z"/>
		<path class="st8" d="M135.58,322.46c-2.47,0.03-2.43,3.95,0.04,3.93C138.09,326.36,138.05,322.44,135.58,322.46z"/>
		<path class="st9" d="M163.01,305.86c-4.07-0.18-9.02-0.67-13.54,0c-0.92-0.07-1.88-0.05-2.83-0.03c-3.08-3.53-10-2.05-13.75-0.38
			c-1.23,0.55-2.3,1.27-3.26,2.1c-1.06,0.63-1.87,1.42-2.48,2.37c-0.03,0.03-0.06,0.06-0.1,0.08c-0.74,0.6-1.03,1.39-1.03,2.19
			c-1.05,1.98-1.81,4.16-2.34,6.39c-0.06,0.24-0.01,0.51,0.1,0.74c-1.71,3.86-2.71,8.15-3.41,12.38c-0.65,0.58-1.13,1.39-1.21,2.49
			c-0.38,4.1-0.72,8.6-0.07,12.82c0.04,0.98,0.08,1.95,0.13,2.93c-0.03,0.88,0.46,1.46,1.11,1.73c0.11,0.27,0.25,0.52,0.37,0.79
			c0.59,1.83,1.64,3.59,2.95,4.98c-0.17,0.7-0.15,1.46,0.17,2.1c0.84,1.7,2.31,2.66,4.06,2.88c0.11,0.11,0.24,0.22,0.34,0.34
			c1.94,2.53,6.71,1.19,5.52-2.46c-0.37-1.13-0.78-2.14-1.31-3.03c0.2-0.94-0.03-1.94-0.93-2.73c-0.91-1.26-1.99-2.63-2.56-4.02
			c-0.61-1.48-0.5-3.07-1.15-4.49c-0.41-1.84-0.77-3.69-0.99-5.55c0.11-0.71,0.26-1.39,0.39-2.09c0.85-2.4,1.45-4.86,1.95-7.34
			c0.43-0.91,0.86-1.82,1.25-2.75c0.35,1.18,1.29,2.15,2.85,2.13c3.97-0.05,3.9-6.36-0.07-6.31c-0.49,0.01-0.92,0.11-1.29,0.28
			c0.59-1.69,1.12-3.4,1.55-5.16c0.05-0.22,0.07-0.43,0.09-0.64c1.4-1.41,3.15-2.52,5.38-3.18c6.02-1.77,14.2,0.92,18.94-3.95
			c0.59-0.61,0.66-1.65,0.2-2.37c1.83,0.03,3.56,0.11,5.01,0.13C165.18,309.26,165.12,305.96,163.01,305.86z"/>
		<path class="st9" d="M134.08,338.08c-0.22-0.6-0.46-1.13-0.81-1.66c-0.65-0.97-2.41-0.96-2.66,0.39
			c-0.11,0.62-0.18,1.18-0.14,1.81C130.63,341.5,134.99,340.57,134.08,338.08z"/>
		<path class="st9" d="M142.37,323.01c-0.45-0.74-1.06-1.13-1.79-1.57c-1.86-1.12-3.51,1.86-1.66,2.98
			c0.74,0.45,1.36,0.76,2.23,0.82C142.25,325.3,142.92,323.91,142.37,323.01z"/>
		<path class="st9" d="M144.38,327.97c0.03,0.11,0.05,0.22,0.08,0.33c0.39,1.55,2.72,1.52,3.07-0.03c0.03-0.11,0.05-0.22,0.08-0.33
			C148.24,325.16,143.69,325.19,144.38,327.97z"/>
		<path class="st9" d="M142.93,336.34c-1.03-1.06-2.46-0.64-3.76-0.47c-2.63,0.34-2.14,4.11,0.53,3.7c1.29-0.2,2.75-0.19,3.47-1.49
			C143.48,337.52,143.38,336.79,142.93,336.34z"/>
		<path class="st9" d="M151.17,328.16c-3.97,0.05-3.9,6.36,0.07,6.31C155.21,334.43,155.15,328.12,151.17,328.16z"/>
		<path class="st10" d="M159.7,301.52c-9.14,1.66-20.25,0.2-29.07,3.72c-6.26,2.51-8.09,8.4-9.94,14.46
			c-4.32,14.12-6.74,33.91,6.77,43.71c1.38,1,2.98-0.96,2.2-2.3c-7.29-12.5-8.09-23.95-4.01-37.99c2.34-8.06,7.89-13.46,16.31-13.98
			c6.26-0.39,12.39-0.41,18.64-1.34C165.06,307.14,164.22,300.7,159.7,301.52z"/>
		<path class="st11" d="M190.49,334.24c1.12-8.59-1.98-19.68-3.73-25.69c-0.55-1.88-2.16-2.43-3.56-2.06
			c-3.62-3.22-8.17-3.82-12.97-2.6c-2.28,0.58-1.53,3.77,0.57,3.95c4.99,0.42,8.21,6.73,9.04,11.09c0.45,2.34,0.5,5.61,2,7.47
			c-0.08,1.06-0.17,2.12-0.29,3.18c-0.21,1.94-0.59,3.88-0.82,5.8c-1.93,6.39-2.91,12.43-8.52,17.61
			c-8.05,7.42-16.6,8.41-26.76,9.74c-1.79,0.23-3.1,2.02-2.08,3.8c6.73,11.72,27.18,2.08,34.78-3.91
			C185.27,357,194.85,343.76,190.49,334.24z"/>
		<path class="st12" d="M194.28,330.52c0.11-8.08,0.11-23.19-6.53-28.96c-3.12-2.7-7.76-2.15-11.52-2.21
			c-8.06-0.14-16.17,0.17-24.23,0.57c-7.76,0.38-20.94-1.55-27.16,4.52c-0.78,0.28-1.48,0.86-1.89,1.81
			c-7.31,17.11-18.86,49.33,2.41,60.81c15.89,8.58,46.88,9.72,60.01-4.9C192.53,354.18,194.14,340.94,194.28,330.52z M187.93,334.08
			c-0.73,11.13-3.24,23.49-14.1,28.5c-12.72,5.87-33.08,5.79-45.42-1.18c-16.6-9.39-6.36-37.05-0.21-51.64
			c0.31-0.2,0.61-0.45,0.87-0.79c3.01-3.93,22.09-2.69,26.73-2.88c4.04-0.16,8.07-0.27,12.11-0.33c3.04-0.05,9.19-1.31,12.12-0.03
			C189,309.65,188.44,326.23,187.93,334.08z"/>
	</g>
</g>
</svg>
