<?xml version="1.0" encoding="utf-8"?>
<!-- Generator: Adobe Illustrator 25.2.3, SVG Export Plug-In . SVG Version: 6.00 Build 0)  -->
<svg version="1.1" id="Layer_1" xmlns="http://www.w3.org/2000/svg" xmlns:xlink="http://www.w3.org/1999/xlink" x="0px" y="0px"
	 viewBox="0 0 416 416" style="enable-background:new 0 0 416 416;" xml:space="preserve">
<style type="text/css">
	.st0{display:none;}
	.st1{display:inline;fill:#3A656A;}
	.st2{display:inline;fill:#2A555A;}
	.st3{display:inline;fill:#65A6B4;}
	.st4{display:inline;fill:#AEE3EE;}
	.st5{display:inline;fill:#224A4C;}
	.st6{display:inline;fill:#182421;}
	.st7{display:inline;}
	.st8{fill:#2A555A;}
	.st9{fill:#65A6B4;}
	.st10{display:inline;fill:#F6F36D;}
	.st11{display:inline;fill:#BDB295;}
	.st12{display:inline;fill:#FFEFC8;}
	.st13{fill:#182421;}
	.st14{display:inline;fill:#4C3535;}
	.st15{display:inline;fill:#777676;}
	.st16{display:inline;fill:#B7B7B7;}
	.st17{display:inline;fill:#595959;}
	.st18{display:inline;fill:#D1D1D1;}
	.st19{display:inline;fill:#664C4C;}
	.st20{display:inline;fill:#332424;}
	.st21{fill:#212021;}
	.st22{display:inline;fill:#4C4C4C;}
	.st23{fill:#3A656A;}
	.st24{fill:#AEE3EE;}
	.st25{fill:#224A4C;}
</style>
<g>
	<g>
		<path class="st23" d="M224.23,259.74c-11.37-4.24-21.17,2.79-26.99,11.89c-0.28,0.45-0.53,0.87-0.76,1.29
			c-2.15-1.11-4.23-2.36-6.26-3.77c-0.12-0.2-0.24-0.4-0.36-0.59c0.37-1.3,0.16-2.8-0.98-4.28c-2.37-3.07-4.74-6.14-7.11-9.21
			c-0.35-0.46-0.74-0.82-1.13-1.13c-5.44-6.87-10.86-13.75-16.31-20.61c-4.76-5.99-10.92-14.25-19.7-11.59
			c-6.34,1.92-8.41,9.12-7.71,15.21c-0.96,4.17,1.87,8.12,4.09,11.75c2.77,4.54,5.48,9.07,8.69,13.18
			c3.49,6.57,7.55,12.73,12.49,18.39c-0.12,0.95,0.06,1.97,0.66,2.98c1.51,2.54,6.02,7.26,11.67,11.99
			c2.36,2.47,4.94,4.77,7.81,6.92c0.86,0.65,1.84,0.89,2.78,0.85c8.82,5.54,17.77,8.62,21.98,3.48c6.53-0.67,14.98-2.21,17.88-7.93
			c4.52-3.12,8.03-7.27,9.29-13C236.46,275.54,235.41,263.91,224.23,259.74z"/>
		<path class="st8" d="M226.45,264.7c-1.38-0.73-2.79-0.61-4.19-0.72c-0.8-0.26-1.62-0.47-2.48-0.57c0,0.02-0.01,0.04-0.01,0.06
			c-1.95-0.25-3.85,1.04-3.62,3.28c0,0,0,0,0,0.01c-1.86,0.44-3.6,1.01-4.99,1.54c-3.45,1.31-2.84,6.18,0.71,7
			c0.85,0.2,1.99,0.46,3.19,0.66c-0.52,0.66-0.9,1.46-1.1,2.41c-0.42,2.03,0.44,4.18,0.63,6.22c-0.28,0.38-0.58,0.75-0.92,1.1
			c-1.85,1.9-4.5,2.74-5.88,5.11c-1.1,1.88-1.15,3.98-0.47,5.88c-1.02,1.2-1.98,2.47-2.93,3.55c-0.32,0.36-0.42,0.78-0.41,1.2
			c-0.08,0.01-0.16,0.02-0.24,0.03c-2.83,0.13-3.09,4.82-0.14,5.05c2.87,0.23,5.69-0.03,8.37-1.03c1.41-0.52,3.38-1.72,4.31-3.28
			c3.14-0.38,6.22-2.21,8.59-4.04c4.06-3.14,8.28-7.57,8.39-13.03c0.01-0.63-0.03-1.25-0.12-1.86c0.02-0.11,0.06-0.24,0.08-0.35
			c0.69-3.66-0.16-7.75-2.11-11.25c-0.13-0.86-0.35-1.72-0.71-2.56C229.6,267.29,228.24,265.65,226.45,264.7z"/>
		<path class="st8" d="M142.63,224.92c-5.77,1.11-5.01,8.9,0.92,9.09c4.61,0.14,10.32,5.23,15.03,10.3
			c-0.76,1.59-0.59,3.63,1.26,5.38c4.02,3.81,7.79,7.79,11.36,11.92c1.58,2.33,3.2,4.61,4.94,6.78c1.49,2.13,3.01,4.24,4.64,6.26
			c0.46,0.56,0.96,0.99,1.47,1.31c0.81,1.18,1.62,2.38,2.41,3.58c1.08,1.65,2.67,2.11,4.14,1.81c3.29,0.9,7.11-2.24,6.48-6.19
			c-0.26-1.62-1.48-2.86-2.84-3.91c-0.08-0.72-0.31-1.43-0.68-1.98c-3.09-4.59-6.15-8.41-10.2-11.77
			c-4.72-6.97-9.74-13.83-15.15-19.93C160.41,230.84,152.24,223.08,142.63,224.92z"/>
		<path class="st9" d="M203.03,263.86c-4.21,3.58-9.87,13.21-5.94,18.63c1.86,2.56,6.06,1.77,6.54-1.38
			c0.55-3.56,2.47-7.68,5.23-9.99c3.02-2.51,5.94-1.83,9.35-2.88c1.92-0.59,2.91-2.91,2.21-4.77
			C217.65,256.11,207.14,260.37,203.03,263.86z"/>
		<path class="st9" d="M169.01,272.92c-1.22,1.46,1.1,3.41,2.33,1.94C172.56,273.4,170.24,271.46,169.01,272.92z"/>
		<path class="st9" d="M137.51,229.37c-3.25,5.72-0.53,11.3,2.3,16.89c5.22,10.31,11.15,20.61,18.37,29.7
			c10.78,13.57,25.48,29.94,43.97,30.45c4.2,0.12,4.41-5.8,1.19-7.46c-15.02-7.76-28.06-13.2-38.4-27.61
			c-0.33-0.46-0.67-0.93-1.02-1.41c0.83,0.48,1.89,0.52,2.66-0.41c1.26-1.51-0.08-3.35-1.6-3.54c0.17-0.37,0.16-0.83-0.11-1.21
			c-0.17-0.24-0.34-0.46-0.54-0.68c-0.38-0.42-0.9-0.38-1.19,0.09c-0.15,0.25-0.28,0.49-0.4,0.75c-0.27,0.63,0.04,1.33,0.61,1.62
			c-0.05,0.05-0.12,0.07-0.17,0.13c-0.43,0.51-0.55,1.07-0.47,1.58c-2.79-3.85-5.97-8.25-8.9-12.89c0.12-0.08,0.25-0.15,0.36-0.28
			c1.07-1.28-0.66-2.91-1.87-2.18c-0.48-0.8-0.95-1.61-1.4-2.42c0.68-0.07,1.35-0.38,1.91-1.05c0.63-0.75,0.8-1.56,0.68-2.31
			c0.35,0.25,0.7,0.5,1.06,0.65c0.49,0.2,1.09,0.22,1.6,0.23c0.4,0,0.78-0.45,0.7-0.84c-0.1-0.5-0.23-1.11-0.51-1.54
			c-0.35-0.54-0.94-1.01-1.38-1.48c-1-1.06-2.39-0.11-2.69,0.99c-1.15-0.95-2.86-1.21-4.11,0.07c-2.36-5.03-3.94-10.04-3.96-14.64
			C144.17,226.75,139.02,226.72,137.51,229.37z"/>
		<path class="st9" d="M176.5,280.08c-0.58,0.7,0.52,1.62,1.11,0.92C178.19,280.31,177.08,279.38,176.5,280.08z"/>
		<path class="st9" d="M190.18,287.47c-2.54,3.04,2.3,7.1,4.84,4.05C197.57,288.48,192.73,284.42,190.18,287.47z"/>
		<path class="st9" d="M202.15,288.93c-0.09,0.1,0.08,0.24,0.16,0.14C202.4,288.96,202.23,288.83,202.15,288.93z"/>
		<path class="st24" d="M140.86,227.41c-0.4-1.98-2.82-2.46-3.81-0.69c-4.04,7.24,1,16.16,4.02,23.22
			c4.08,9.51,8.82,18.37,15.26,26.56c5.99,7.63,12.97,16.15,21.29,21.34c7.11,4.44,18.7,10.12,27.03,10.58
			c3.19,0.18,4.15-4.61,0.79-5.02c-6.83-0.84-16.08-5.07-22.39-8.33c-9.14-4.72-16.25-13.58-22.47-21.48
			C149.76,259.81,144.22,244.2,140.86,227.41z"/>
		<path class="st24" d="M210.58,261.27c-4.12,0.05-8.3,2.99-9.59,6.82c-0.57,1.67,1.59,3.34,2.83,1.79
			c2.13-2.67,5.61-2.68,8.43-4.16C214.57,264.5,212.76,261.25,210.58,261.27z"/>
		<path class="st25" d="M224.03,270.07c-0.03,4.36,1.42,8.66,0.71,13c-0.84,5.09-4.39,8.88-8.05,12.2
			c-2.15,1.95-1.51,7.16,2.38,6.36c7.36-1.53,12.5-6.64,14.93-13.68c2.03-5.89,2.17-17.41-2.09-22.69
			C227.73,260.09,224.06,265.72,224.03,270.07z"/>
		<path class="st25" d="M151.61,221.96c-1.84-0.58-3.7-1.02-5.6-1.34c-3.15-0.52-4.64,4.04-1.59,5.37c1.5,0.66,2.96,1.39,4.36,2.25
			c0.3,0.18,0.57,0.33,0.85,0.48c3.45,7.07,11.89,12.25,16.7,18.02c7.84,9.4,14.47,19.83,24.23,27.45c2.8,2.19,6.51-1.1,4.52-4.11
			c-6.87-10.4-15.73-21.88-24.59-30.69c-3.97-3.95-8.48-7.1-12.11-11.46c-0.65-0.78-1.15-1.45-1.62-2.06
			c-0.06-0.1-0.09-0.21-0.16-0.3C155.16,223.69,153.92,222.68,151.61,221.96z"/>
		<path class="st13" d="M226.91,258.45c-11.8-7.82-23.58-1.4-30.14,8.58c-7.2-9.76-14.7-19.27-22.66-28.44
			c-5.98-6.89-12.34-15.3-20.58-19.6c-15.69-8.19-23.13,6.26-22.6,20.08c0.07,1.82,1.37,2.71,2.77,2.78
			c13.93,35.66,55.12,93.04,95.09,59.28C241.66,290.26,242.05,268.47,226.91,258.45z M232.18,282.61
			c-0.83,9.32-8.1,15.13-16.06,18.85c-8.46,3.95-15.9,4.37-24.8,0.68c-15.16-6.29-24.92-16.58-33.78-30.13
			c-7.61-11.64-15.09-23.58-19.6-36.73c-0.17-0.51-0.43-0.91-0.74-1.22c0.29-3.1,1.66-4.28,6.46-6.95
			c6.72-3.73,6.68-3.36,12.09,1.05c5.42,4.42,10.01,10.21,14.55,15.49c8.19,9.52,15.9,19.4,23.29,29.54
			c-0.62,1.58-1.15,3.19-1.49,4.8c-0.85,3.93,5.37,5.04,6.22,1.12c1.83-8.45,7.62-17,17.06-17.4
			C226.32,261.23,233.06,272.73,232.18,282.61z"/>
	</g>
</g>
</svg>
