<?xml version="1.0" encoding="utf-8"?>
<!-- Generator: Adobe Illustrator 25.2.3, SVG Export Plug-In . SVG Version: 6.00 Build 0)  -->
<svg version="1.1" id="Layer_1" xmlns="http://www.w3.org/2000/svg" xmlns:xlink="http://www.w3.org/1999/xlink" x="0px" y="0px"
	 viewBox="0 0 416 416" style="enable-background:new 0 0 416 416;" xml:space="preserve">
<style type="text/css">
	.st0{display:none;}
	.st1{display:inline;fill:#3A656A;}
	.st2{display:inline;fill:#2A555A;}
	.st3{display:inline;fill:#65A6B4;}
	.st4{display:inline;fill:#AEE3EE;}
	.st5{display:inline;fill:#224A4C;}
	.st6{display:inline;fill:#182421;}
	.st7{fill:#3A656A;}
	.st8{fill:#2A555A;}
	.st9{fill:#65A6B4;}
	.st10{fill:#AEE3EE;}
	.st11{fill:#224A4C;}
	.st12{fill:#182421;}
	.st13{display:inline;}
	.st14{display:inline;fill:#F6F36D;}
	.st15{display:inline;fill:#BDB295;}
	.st16{display:inline;fill:#FFEFC8;}
	.st17{display:inline;fill:#4C3535;}
	.st18{display:inline;fill:#777676;}
	.st19{display:inline;fill:#B7B7B7;}
	.st20{display:inline;fill:#595959;}
	.st21{display:inline;fill:#D1D1D1;}
	.st22{display:inline;fill:#664C4C;}
	.st23{display:inline;fill:#332424;}
	.st24{fill:#212021;}
	.st25{display:inline;fill:#4C4C4C;}
</style>
<g>
	<g>
		<path class="st7" d="M258.25,266.02c-0.58-9.77-3.53-18.59-8.9-26.68c-1.14-1.72-2.43-3.79-3.86-5.85
			c-2.43-6.56-6.19-12.5-11.8-17c-5.23-4.19-11.87-6.49-18.82-7.81c-5.34-2.15-11.06-3.49-17.15-4.12
			c-15.17-1.56-33.21,2.75-47.73,6.92c-11,3.15-15.17,10.28-16.3,21.07c-1.49,3-2.93,6.03-3.91,9.27
			c-1.31,4.32-1.96,8.78-2.22,13.27c-0.51,0.59-0.9,1.38-1.09,2.43c-1.37,7.8-1.94,15.39-1.7,23.28c-0.33,1.64-0.66,3.28-1.01,4.91
			c-1.54,7.19-4.39,14.38-2.7,21.79c3.1,13.58,11.81,22.71,25.43,24.29c7.17,0.83,19.65,2.75,23.45-4.61
			c0.37,0.07,0.76,0.11,1.18,0.1c3.7-0.06,7.44-0.43,11.18-1c4.66,0.2,9.15-0.72,13.61-1.93c0.83-0.11,1.66-0.2,2.48-0.32
			c4.33-0.64,8.21-2.16,12.11-3.68c8.8-1.94,16.96-2.82,25.24-7.44C252.88,303.36,259.37,284.99,258.25,266.02z"/>
		<path class="st8" d="M257.97,267.35c-0.09-0.96-0.19-1.91-0.32-2.87c0.08-13.78-4.55-27.18-14.86-34.7
			c-6.05-9.07-14.79-16.67-24.19-21.5c-2.15-1.1-4.55-0.32-5.9,1.29c-0.19-0.06-0.37-0.14-0.57-0.19c-5.06-1.52-8.56,5.29-4.96,8.95
			c3.17,3.22,4.97,7.39,4.17,12.03c-0.48,2.78-2.26,4.34-1.99,7.14c0.28,2.92,2.52,5.28,3.13,8.22c0.8,3.92,0.25,7.33-1.24,10.67
			c-1.47,1.36-2.37,3.37-2.2,5.59c0.16,2.08,1.31,3.63,2.79,4.47c-0.19,0.04-0.38,0.09-0.57,0.13c-0.76,2.36-1.74,4.62-2.94,6.78
			c-1.6,3.1-3.51,6.05-5.59,8.84c-7.7,2.92-14.79,9.29-19.84,15.21c-1.8,2.11-1.64,5.28-0.05,7.2c-3.73,1.47-7.54,2.7-11.41,3.79
			c-0.52,0.15-0.97,0.39-1.38,0.69c-3.17,0.04-7.13,0.34-10.98,1.21c-4.38-1.51-9.22-1.09-12.67,2.7c-1.14,1.26-1.45,2.76-1.14,4.26
			c-2.68,0.57-5.36,1.16-8.03,1.79c-1.13,0.27-1.94,0.83-2.5,1.54c-1.02-0.52-2.04-1.06-2.96-1.69c-2.34-1.61-4.48,2.29-2.16,3.89
			c1.43,0.98,2.98,1.99,4.62,2.72c0.55,1.41,1.62,2.64,3.11,3.18c4.61,1.69,9.79,2.11,15.13,1.78c10.46,1.91,23.04,0.13,31.96-2
			c2.77-0.66,5.44-1.57,8.1-2.55c5.62-1.13,11.23-2.27,16.73-4.4c14.29,1.09,29.92-9.17,39.11-19.59
			c4.71-5.34,7.46-11.46,8.82-17.93C259.26,278.58,259.84,272.85,257.97,267.35z"/>
		<path class="st8" d="M148.43,305.68c-0.11-0.48-0.52-0.83-0.96-0.97c-1.28-0.38-2.31,0.55-2.85,1.66
			c-0.75,1.54,0.77,2.83,2.18,2.19C147.95,308.03,148.74,307,148.43,305.68z"/>
		<path class="st8" d="M162.95,305.5c-1.97,0.02-1.94,3.15,0.03,3.13C164.95,308.6,164.92,305.47,162.95,305.5z"/>
		<path class="st8" d="M166.34,299.63c-3.97,0.05-3.9,6.36,0.07,6.31C170.37,305.89,170.31,299.58,166.34,299.63z"/>
		<path class="st8" d="M168.76,299.5c-0.09,0-0.09,0.15,0,0.15S168.85,299.5,168.76,299.5z"/>
		<path class="st8" d="M178.14,303.72c-0.23,0.03-0.46,0.06-0.69,0.09c-1.28,0.17-0.26,1.91,0.46,1.1c0.16-0.19,0.33-0.37,0.49-0.56
			C178.59,304.14,178.47,303.68,178.14,303.72z"/>
		<path class="st8" d="M181.72,289.81c-0.3,0.27-0.39,0.4-0.6,0.74c-0.6,0.96,1.07,1.79,1.47,0.61c0.13-0.37,0.15-0.54,0.17-0.93
			C182.79,289.66,182.08,289.49,181.72,289.81z"/>
		<path class="st8" d="M193.18,283.9c-0.28-0.14-0.61-0.21-0.87-0.37c-1.47-0.88-3.63,1.05-2.46,2.58c1.01,1.32,2.39,1.7,3.7,0.54
			C194.36,285.94,194.12,284.36,193.18,283.9z"/>
		<path class="st8" d="M191.96,275.03c-1.19,0.01-1.17,1.9,0.02,1.89C193.17,276.91,193.15,275.02,191.96,275.03z"/>
		<path class="st8" d="M198.24,274.32c-0.11-0.02-0.22-0.04-0.33-0.06c-2.7-0.54-2.67,3.91,0.04,3.31c0.11-0.02,0.22-0.05,0.33-0.07
			C199.81,277.15,199.78,274.63,198.24,274.32z"/>
		<path class="st8" d="M203.79,272.44c-0.07,0.03-0.13,0.06-0.2,0.08c-1.06,0.45-1.59,1.79-0.67,2.71c0.92,0.92,2.22,0.36,2.63-0.74
			c0.03-0.07,0.05-0.14,0.08-0.2C206.02,273.25,204.79,272.02,203.79,272.44z"/>
		<path class="st8" d="M199.75,261.24c-1.53,0.02-1.51,2.45,0.03,2.44C201.3,263.66,201.28,261.22,199.75,261.24z"/>
		<path class="st8" d="M202.08,254.04c-3,0.03-2.95,4.81,0.05,4.77C205.13,258.77,205.09,254,202.08,254.04z"/>
		<path class="st8" d="M207.56,250.02c-3.97,0.05-3.9,6.36,0.07,6.31C211.6,256.29,211.54,249.98,207.56,250.02z"/>
		<path class="st8" d="M199.15,238.45c-3.97,0.05-3.9,6.36,0.07,6.31C203.19,244.72,203.13,238.41,199.15,238.45z"/>
		<path class="st8" d="M199.42,231.03c-3.97,0.05-3.9,6.36,0.07,6.31C203.45,237.29,203.39,230.98,199.42,231.03z"/>
		<path class="st8" d="M205.88,222.34c-1.91,0.02-1.88,3.05,0.03,3.03C207.82,225.35,207.79,222.32,205.88,222.34z"/>
		<path class="st8" d="M200.62,214.07c-1.72,0.02-1.69,2.75,0.03,2.73C202.36,216.78,202.34,214.05,200.62,214.07z"/>
		<path class="st8" d="M202.97,208.04c-2.15,0.02-2.12,3.45,0.04,3.43C205.16,211.44,205.12,208.01,202.97,208.04z"/>
		<path class="st8" d="M173.99,246.53c-0.07,0.03-0.13,0.06-0.2,0.08c-1.77,0.77,0.47,3.01,1.18,1.18c0.03-0.07,0.05-0.14,0.08-0.2
			C175.28,247.01,174.56,246.29,173.99,246.53z"/>
		<path class="st8" d="M168.83,227.21c-1.87,0.02-1.84,3,0.03,2.98C170.74,230.17,170.71,227.19,168.83,227.21z"/>
		<path class="st8" d="M154.09,259.66c0.2-1.69-2.3-2.73-3.09-1.04c-0.5,1.07-0.28,2.28,0.81,2.83
			C152.9,262.01,154.58,261.03,154.09,259.66z"/>
		<path class="st8" d="M168.2,272.1c-0.53,0.24-1.02,0.44-1.48,0.8c-1.4,1.09,0.01,3.54,1.42,2.43c0.48-0.38,0.85-0.75,1.23-1.23
			C170,273.29,169.41,271.56,168.2,272.1z"/>
		<path class="st8" d="M154.74,247.86c-1.22,0.01-1.2,1.95,0.02,1.94C155.97,249.79,155.96,247.85,154.74,247.86z"/>
		<path class="st9" d="M205.58,207.58c-16.31-6.26-42.29-3.4-57.6,5c-16.23,8.91-17.15,36.12-19.89,52.84
			c-1.87,7.62-3.56,15.27-4.5,23.06c-1.53,12.56-4.3,29.02,9.93,34.43c5.08,1.93,8.64-4.64,6.46-8.8c-0.71-1.38-1.45-2.74-2.2-4.09
			c-0.18-0.86-0.59-1.68-1.21-2.34c-0.11-0.12-0.22-0.23-0.33-0.35c-0.55-0.58-1.25-0.95-2-1.15c-2.14-9.79,3.17-27.62,4.95-33.95
			c0.22-0.79,0.42-1.58,0.64-2.37c1.02-0.45,1.92-1.17,2.57-2.17c0.05,0,0.08,0.03,0.13,0.03c1.42-0.02,1.67-1.81,0.81-2.53
			c0.04-0.25,0.08-0.5,0.09-0.77c0.31-5.61,0.95-11.11,1.85-16.58c0.58-2.68,1.12-5.39,1.64-8.12c0.83,0.06,1.67-0.32,2.2-1.37
			c2.51-4.99,6.68-7.95,11.81-9.65c1.82-0.6,3.75-0.97,5.59-1.5c-0.5,1.83,0.46,4.15,2.88,4.12c3.42-0.04,3.84-4.73,1.34-6
			c0.5-0.34,0.97-0.72,1.42-1.18c0.65-0.68,0.48-1.83-0.31-2.3c-4.16-2.47-9.49-0.94-13.8,1.02c-2.68,0.91-5.25,2.23-7.58,3.9
			c1.92-2.35,4.59-4.24,8.6-5.61c15.63-5.35,30.91-1.69,46.63-4.13C210.89,216.22,209.4,209.05,205.58,207.58z"/>
		<path class="st9" d="M147.95,258.7c-0.13,0-0.13,0.21,0,0.21C148.09,258.91,148.08,258.7,147.95,258.7z"/>
		<path class="st9" d="M144.02,278.35c-0.81,0.01-0.8,1.3,0.01,1.29C144.85,279.64,144.84,278.34,144.02,278.35z"/>
		<path class="st9" d="M139.1,277.41c-1.63,8.98-4.16,20.81-0.5,29.51l0.05-0.02c0.44,1.2,2.18,1.47,2.6-0.02
			c2.51-8.99,0.8-19.66,1.77-28.98C143.25,275.64,139.51,275.16,139.1,277.41z"/>
		<path class="st9" d="M157.5,235.56c-1.09-2.27-4.03-0.47-5.11,0.81c-2,2.37-3.59,5.24-5.02,7.99c-0.83,1.58,1.51,2.95,2.36,1.38
			c0.99-1.84,2.06-3.62,3.24-5.34c1.22-1.78,2.18-2.89,4.11-3.74C157.53,236.46,157.73,236.04,157.5,235.56z"/>
		<path class="st9" d="M165.06,239.58c-0.12-0.72-0.19-1.43-0.24-2.16c-0.12-1.73-1.9-2.93-3.45-1.98
			c-1.54,0.95-1.36,3.09,0.04,4.03c0.6,0.4,1.16,0.82,1.72,1.28C164.06,241.54,165.26,240.77,165.06,239.58z"/>
		<path class="st9" d="M165.09,248.38c-3.97,0.05-3.9,6.36,0.07,6.31C169.13,254.65,169.07,248.34,165.09,248.38z"/>
		<path class="st9" d="M155.93,262.9c-1.84,0.02-1.81,2.95,0.03,2.93C157.81,265.82,157.78,262.88,155.93,262.9z"/>
		<path class="st9" d="M166.12,271.95c-0.09-0.14-0.21-0.26-0.35-0.35c-0.71-0.56-1.87-0.24-1.86,0.81
			c0.01,1.05,1.17,1.35,1.87,0.77c0.14-0.09,0.26-0.21,0.34-0.36C166.35,272.54,166.35,272.23,166.12,271.95z"/>
		<path class="st9" d="M169.26,250.24l-0.27,0.25c-0.75,0.7-0.39,1.97,0.48,2.33c0.98,0.41,1.86-0.34,1.93-1.34
			c0.01-0.12,0.02-0.24,0.03-0.35C171.52,249.93,170,249.55,169.26,250.24z"/>
		<path class="st9" d="M184.87,232.09c-0.08-0.06-0.17-0.11-0.25-0.17c-1.4-0.95-1.37,2.31,0.01,1.33c0.08-0.06,0.16-0.12,0.25-0.17
			C185.24,232.82,185.23,232.33,184.87,232.09z"/>
		<path class="st9" d="M186.53,220.22c-3.97,0.05-3.9,6.36,0.07,6.31C190.57,226.48,190.5,220.17,186.53,220.22z"/>
		<path class="st9" d="M158.22,282.68c-2.72,0.03-2.67,4.36,0.05,4.32C160.98,286.98,160.94,282.65,158.22,282.68z"/>
		<path class="st10" d="M193.57,204.01c-14.24-1.21-33.74,0.78-46.76,7.44c-10.24,5.24-14.31,19.34-17.17,29.82
			c-4.12,15.07-5.09,30.5-5.98,46.04c-0.62,10.9-3.84,28.39,6.2,35.73c1.36,1,2.84-0.93,2.13-2.23
			c-6.98-12.86-4.74-28.77-2.49-42.73c1.8-11.15,3.1-22.45,6.11-33.36c3.78-13.72,8.81-25.76,23.12-30.04
			c11.6-3.47,23.99-2.15,35.57-5.5C197.25,208.33,196.35,204.25,193.57,204.01z"/>
		<path class="st11" d="M261.87,268.44c-0.39-7.1-3.85-13.08-7.39-18.96c1.85-7.8-4.97-18.66-9.29-23.91
			c-3.8-4.62-8.42-7.52-13.67-10.12c-3.35-1.66-6.99-5.11-10.63-2.73c-0.98,0.64-1.24,1.86-0.71,2.9
			c3.93,7.66,12.41,10.7,17.46,17.48c1.7,2.28,3.05,4.81,4.24,7.41c-0.35,0.28-0.64,0.64-0.78,1.14c-1.71,6.1,2.34,12.18,3.48,18.12
			c1.14,5.95,1.08,11.89-0.1,17.68c-1.29-0.14-2.74,0.56-3.08,1.96c-0.31,1.12-0.68,2.19-1.04,3.26c-1.36,3.61-3.32,7.23-4.72,10.89
			c-1.02,1.81-2.15,3.54-3.35,5.22c-0.16,0-0.31,0.01-0.46,0.03c0-0.02,0.01-0.05,0.01-0.07c-0.1,0.04-0.19,0.1-0.29,0.14
			c-0.32,0.09-0.63,0.22-0.9,0.44c-1.04,0.49-2.08,1-3.08,1.55c-0.18-0.09-0.35-0.17-0.53-0.23c-5.08-1.81-19.84,5.14-23.22,11.2
			c-0.39,0.12-0.76,0.24-1.11,0.36c-6.86,2.3-13.81,3.62-21.02,4.16c-1.91,0.14-2.81,1.8-2.71,3.32c-2.96,0.48-5.93,0.95-8.89,1.4
			c-1.68-0.69-4.1-0.2-5.7,0.18c-5.91,1.42-11.84,2.47-17.78,3.73c-2.52,0.54-2.18,4.28,0.05,4.94c5.33,1.56,10.44,1.3,15.84,0.12
			c1.42-0.31,4.03-0.91,6.15-1.99c5.8-0.19,11.59-0.46,17.36-1.31c2.99-0.44,6.48-0.92,9.9-1.78c0.36,0.58,0.93,1.04,1.78,1.13
			c6.61,0.67,13.86-1.88,19.8-4.65c4.33-2.02,9.34-4.44,12.33-8.39c6.82,2.93,14.01-7.29,17.63-12.17
			c2.99-4.04,7.38-10.95,8.14-17.16C261.29,282.48,262.13,273.13,261.87,268.44z"/>
		<path class="st12" d="M247.1,225.01c-7.89-11.5-19.5-18.73-32.15-22.01c-17.45-4.53-35.98-2.35-53.55,0.54
			c-12.81,2.11-30.11,4.79-30.85,22.54c-0.01,0.18,0.01,0.35,0.03,0.52c-4.76,17.53-8.43,35.35-10.81,53.46
			c-1.76,13.39-5.15,30.53,2.12,42.7c7.55,12.63,22.3,14.24,34.8,12.91c16.65-1.78,33.52-4.52,50-7.7
			c13.57-2.62,29.05-6.47,39.08-17.74c8.8-9.88,17.53-26.42,17.91-40.61C264.1,253.68,255.53,237.28,247.1,225.01z M232.16,312.54
			c-13.22,7.52-28.87,9.2-43.38,11.42c-15.32,2.34-34.82,8.93-49.93,3.84c-19.59-6.6-15.11-30.37-12.83-47.58
			c2.46-18.65,6.41-36.97,11.45-54.98c0.24-0.86,0.18-1.63-0.07-2.27c4.83-14.69,37.57-14.76,48.2-15.36
			c15.6-0.88,32.24,0.52,45.61,10.26c12.28,8.95,23.29,28.58,25.71,44.6C259.65,280.55,246.55,304.36,232.16,312.54z"/>
	</g>
</g>
</svg>
