<?xml version="1.0" encoding="utf-8"?>
<!-- Generator: Adobe Illustrator 25.2.3, SVG Export Plug-In . SVG Version: 6.00 Build 0)  -->
<svg version="1.1" id="Layer_1" xmlns="http://www.w3.org/2000/svg" xmlns:xlink="http://www.w3.org/1999/xlink" x="0px" y="0px"
	 viewBox="0 0 52 52" style="enable-background:new 0 0 52 52;" xml:space="preserve">
<style type="text/css">
	.st0{display:none;}
	.st1{display:inline;}
	.st2{fill:#660000;}
	.st3{fill:#4C0000;}
	.st4{fill:#3A3028;}
	.st5{fill:#28201B;}
	.st6{fill:#51463D;}
	.st7{fill:#423933;}
	.st8{fill:#606060;}
	.st9{fill:#F15A29;}
	.st10{display:inline;fill:#423933;}
	.st11{display:inline;fill:#660000;}
	.st12{display:inline;fill:#3A3028;}
</style>
<g class="st0">
	<g class="st1">
		<path class="st2" d="M44.63,30.54c0.47-0.91,0.74-1.93,0.76-2.91c0-0.02,0-0.04,0-0.05c0.21-0.22,0.41-0.44,0.61-0.67
			c2.11-2.43,3.57-5.43,2.06-8.33c-0.89-1.69-3.04-3.29-5.31-3.97c0.02-0.18,0.04-0.35,0.05-0.53c0.16-1.82-1.3-2.82-2.8-2.86
			c-0.12-1.23-0.51-2.44-1.23-3.54c-1.16-1.76-3.26-2.6-5.32-2.23c-1.88,0.33-3.21,1.45-4.43,2.79c-0.31-0.5-0.63-0.96-0.96-1.39
			c-2.46-3.25-6.63-4.3-10.18-2.04c-1.6,1.01-2.75,2.55-3.49,4.28c-0.11,0.27-0.4,0.74-0.47,1.1c-0.71,0-1.64,0.34-2.19,0.55
			c-2.87,1.11-4.36,3.98-3.6,6.77c-2.62,1.06-4.7,3.47-2.34,6.25c0.09,0.11,0.2,0.21,0.31,0.29c-0.82,0.69-1.4,1.48-1.73,2.33
			c-0.05,0.14-0.1,0.29-0.15,0.43c-0.09,0.16-0.17,0.32-0.24,0.49c-0.07,0.07-0.14,0.13-0.21,0.21c-0.67,0.74-0.99,1.79-0.93,2.8
			c0.06,0.94,0.41,1.76,0.92,2.49c0.23,0.5,0.57,0.91,1.02,1.18c0.42,0.4,0.87,0.77,1.32,1.11c0.18,0.13,0.36,0.23,0.54,0.3
			c-0.03,0.3,0,0.63,0.09,0.97c0.48,1.63,0.74,3.86,2.09,5.02c0.28,0.24,0.59,0.42,0.91,0.57c-0.04,0.26-0.07,0.52-0.07,0.79
			c-0.01,1.71,0.67,3.4,1.98,4.5c2.28,1.93,6.97,1.5,8.73-1.11c0.39-0.2,0.55-0.36,0.5-0.47c0.13,0.06,0.26,0.12,0.39,0.17
			c0.7,0.28,1.42,0.54,2.19,0.53c0.25,0,0.49-0.03,0.73-0.08c0.29-0.06,0.58-0.15,0.85-0.27c0,0.01,0.01,0.02,0.02,0.03
			c-0.02,0.16-0.04,0.32-0.03,0.48c0.01,1.09,0.6,2.11,1.96,2.32c3.58,0.56,6.97-0.69,9.09-3.31c1.05,0.11,2.16-0.16,3.05-0.86
			c1.02-0.8,1.53-1.79,1.71-2.85c0.11-0.01,0.22-0.03,0.34-0.05c0.27-0.05,0.54-0.11,0.81-0.19c3.65-1.09,6.43-5.03,4.05-9.16
			C45.66,31.8,45.18,31.15,44.63,30.54z M17.37,26.82c-0.76-1.16-0.32-2.56,0.82-3.15c0.01,0,0.01-0.01,0.02-0.01
			c0-0.01-0.01-0.02-0.01-0.03c-0.17-0.36-0.2-0.79-0.05-1.2c0.24-0.67,0.88-1.05,1.56-1.08c0.02,0,0.03,0,0.05,0
			c0-0.01,0.01-0.02,0.01-0.03c0.38-1.17,0.95-2.3,2.16-2.8c1.04-0.42,1.95-0.06,2.74,0.54c0.69-0.81,2.3-0.92,3.21-0.63
			c1.36,0.43,2.53,1.52,2.69,2.93c0.04,0,0.08,0,0.12,0.01c1.41,0.31,3.22,1.77,3.48,3.25c0.27,1.52-0.91,2.73-2.38,2.78
			c-0.03,0-0.06,0-0.09-0.01c-0.02,0.04-0.04,0.09-0.05,0.13c0.69,0.83,1.07,2.1,0.45,3.09c-0.43,0.7-1.27,1.08-2.1,1.23
			c0.06,1.02-0.58,1.99-1.58,2.37c-1.03,0.38-2.07,0.13-2.92-0.45c-0.11,0.18-0.24,0.35-0.42,0.48c-0.52,0.37-1.14,0.27-1.73,0.17
			c-0.82-0.13-1.75-0.48-2.24-1.14c-0.77,0.18-1.74-0.19-2.23-0.72c-0.42-0.46-0.64-1.3-0.56-2.04
			C17.14,30.06,16.81,28.06,17.37,26.82z"/>
		<path class="st3" d="M48.73,25.12c0.67-1.53,0.5-3.46,0.25-5.05c-0.48-3.15-2.25-4.46-5.04-5.47c-0.27-2.11-1.28-4.27-3.49-4.23
			c-0.23-2.55-2.19-5.12-4.76-5.56c-2.34-0.4-5.22,0.72-6.57,2.73c-1.93-2.23-3.92-4.1-7.01-4.49c-2.64-0.33-5.27,0.63-7,2.67
			c-0.87,1.03-0.96,2.01-1.55,3.14c0.13,0.55-0.08,0.81-0.62,0.78c-0.46,0.01-0.92,0.05-1.37,0.12c-0.5,0.09-0.96,0.19-1.43,0.42
			c-2.23,1.13-2.69,4.21-2.58,6.5c-1.47,0.47-2.96,1.22-3.47,2.79c-0.45,1.39,0.09,3.22,1.01,4.41c-4.97,2.74-3.56,10.25,1.11,12.69
			c0.03,0.08,0.09,0.14,0.15,0.2c-0.03,2.37,0.49,4.9,2.81,5.63c-0.54,2.17,0.94,4.18,2.79,5.46c3.04,2.12,5.52,0.67,8.19-1.16
			c1.2,0.51,2.48,0.42,3.75,0.01c0.01,0,0.03-0.01,0.04-0.01c3.04,4.25,9.22,4.09,11.93-0.42c2.97,0.63,5.5-1.66,5.26-4.52
			c0-0.08-0.01-0.17-0.03-0.25c0.28,0.04,0.56,0.06,0.84,0.06c2.05,0,3.96-1.07,4.87-3.11c0.99-2.21,0.35-5.67-1.56-7.26
			c0.18-0.45,0.4-0.85,0.44-1.37c0.02-0.32,0.01-0.76-0.13-1.11C46.78,27.71,48.11,26.55,48.73,25.12z M40.38,39.96
			c-0.46-0.15-1.01,0.35-0.83,0.83c0.99,2.6-1.12,4.92-3.81,4.06c-0.27-0.09-0.63,0.06-0.76,0.31c-1.94,3.75-6.61,4.37-9.33,1.48
			c-0.29-0.3-0.55-0.64-0.79-1.02c-0.23-0.37-0.64-0.38-0.93-0.21c-0.1-0.03-0.22-0.03-0.36,0.01c-0.27,0.09-0.54,0.16-0.81,0.21
			c-0.85,0.16-1.67,0.1-2.47-0.38c-0.44-0.26-0.85,0.04-0.97,0.41c-1.4,1-2.99,2.25-4.82,1.9c-1.76-0.33-4.34-2.53-4.04-4.62
			c0.03-0.23,0.1-0.46,0.21-0.69c0.16-0.32,0.09-0.63-0.13-0.82c-0.11-0.11-0.27-0.18-0.45-0.19c-1.4-0.14-2.15-1.7-2.3-2.86
			c-0.03-0.26-0.05-0.51-0.06-0.77c-0.01-0.43,0-0.86,0.02-1.31c0-0.08,0-0.16-0.03-0.22c-0.04-0.13-0.11-0.23-0.21-0.3
			c-0.05-0.08-0.12-0.14-0.2-0.18c-1.83-0.81-3.3-2.22-3.82-4.2c-0.32-1.22-0.23-2.65,0.26-3.89c0.15-0.4,0.36-0.78,0.6-1.13
			c0.48-0.69,1.12-1.25,1.93-1.57c0.02-0.01,0.03-0.01,0.05-0.02c0.14-0.07,0.24-0.17,0.31-0.29c0.12-0.21,0.12-0.47,0.04-0.68
			c0-0.15-0.06-0.31-0.2-0.45c-0.82-0.8-1.45-2.52-1-3.62c0.49-1.21,1.88-1.61,3.02-1.93c0.36-0.1,0.5-0.41,0.47-0.7
			c0-0.02,0-0.05,0-0.08c-0.11-1.47-0.06-3.4,0.82-4.68c1.12-1.62,2.45-0.96,3.96-1.42c1.22-0.37,0.95-1.22,1.3-2.35
			c0.85-2.73,3.62-4.39,6.39-4.27c3.11,0.14,5.12,2.25,7,4.45c0.14,0.17,0.32,0.23,0.48,0.22c0.29,0.29,0.79,0.34,1.01-0.13
			c0.81-1.76,3-2.81,4.91-2.79c2.49,0.02,4.42,2.67,4.31,5.03c-0.02,0.45,0.45,0.75,0.85,0.65c2.29-0.54,2.55,2.02,2.66,3.25
			c0.02,0.2,0.1,0.35,0.23,0.46c0.08,0.13,0.19,0.24,0.37,0.3c0.87,0.3,1.78,0.6,2.56,1.11c1.55,1.01,1.85,2.83,1.98,4.54
			c0.14,1.91-0.39,3.28-1.34,4.5c-0.57,0.73-1.3,1.41-2.13,2.12c-0.14,0.12-0.21,0.26-0.22,0.4c-0.01,0.13,0.03,0.27,0.1,0.38
			c-0.02,0.19,0.02,0.4,0.15,0.54c0,0.03,0.01,0.04,0.02,0.09c0.01,0.1,0.01,0.2,0.01,0.31c-0.01,0.16-0.04,0.32-0.09,0.46
			c-0.13,0.34-0.32,0.64-0.43,0.99c-0.11,0.35,0.05,0.61,0.3,0.74c0.04,0.09,0.12,0.18,0.22,0.24c1.51,1.08,1.91,4.24,1.2,5.75
			C44.6,39.99,42.46,40.65,40.38,39.96z"/>
		<path class="st3" d="M31.25,20.79c-0.75-2.73-3.99-3.62-6.38-2.55c-0.09,0.04-0.15,0.08-0.17,0.11c-0.03-0.01-0.05-0.01-0.08-0.02
			c-0.08-0.02-0.21-0.14-0.3-0.17c-0.57-0.23-1.29-0.4-1.9-0.26c-1.31,0.29-2.18,1.67-2.73,2.83c-0.53,0.06-1.05,0.26-1.46,0.61
			c-0.34,0.28-0.58,0.63-0.75,1.03c-0.11,0.27-0.1,0.66-0.2,0.88c-0.13,0.27-0.54,0.59-0.72,0.89c-0.2,0.35-0.37,0.75-0.43,1.15
			c-0.1,0.58,0.04,1.07,0.39,1.46c-0.1,1.05-0.2,2.46,0.25,3.41c0.39,0.83,0.63,0.9,0.91,1.52c0.41,0.92,0.97,1.62,1.97,1.97
			c0.4,0.14,0.92,0.08,1.3,0.25c0.28,0.13,0.58,0.54,0.89,0.72c0.8,0.45,2.09,0.77,3.03,0.6c0.12,0,0.24-0.03,0.34-0.09
			c0.33-0.38,0.57-0.4,0.7-0.05c0.31,0.02,0.65,0.18,0.98,0.22c2.02,0.24,3.59-0.37,3.5-2.45c0.05-0.1,0.07-0.21,0.08-0.32
			c0.98-0.26,1.99-0.92,2.33-1.85c0.31-0.85,0.3-1.94-0.03-2.83C35.7,26.2,34.55,21.36,31.25,20.79z M31.8,26.81
			c-0.4,0.02-0.77,0.36-0.66,0.77c0.02,0.2,0.11,0.4,0.27,0.52c0.24,0.51,0.29,1.09,0.22,1.66c-0.11,0.84-0.96,1.48-1.8,1.54
			c-0.46,0.03-0.67,0.42-0.64,0.78c-0.11,0.12-0.18,0.27-0.16,0.44c0.3,2.44-2.37,0.98-3.37,1.02c-1.33,0.05-2.78,0.93-3.8-0.78
			c-0.12-0.19-0.35-0.35-0.58-0.33c-2.57,0.17-3.55-4.04-3.38-5.9c0.01-0.07,0-0.13-0.01-0.19c0,0,0,0,0,0
			c-0.01-0.04-0.02-0.07-0.03-0.11c-0.05-0.13-0.13-0.25-0.27-0.34c-0.72-0.47,0.86-1.79,1-2.23c0.14-0.42,0.05-0.82,0.39-1.19
			c0.33-0.35,0.77-0.44,1.22-0.42c0.43,0.02,0.65-0.3,0.65-0.63c0.57-1.2,1.44-2.29,2.92-2c0.37,0.07,0.45,0.38,0.88,0.39
			c0.52,0.01,0.98-0.54,1.46-0.68c1.62-0.49,3.66,0.73,3.94,2.43c0.05,0.3,0.24,0.45,0.46,0.48c0.06,0.02,0.13,0.03,0.2,0.04
			C33.12,22.15,34.16,25.9,31.8,26.81z"/>
	</g>
	<g class="st1">
		<path class="st4" d="M43.23,21.67c-0.59-0.2-1.17-0.39-1.76-0.59c0.13-0.68,0.13-1.34-0.04-2.02c-0.04-0.16-0.09-0.31-0.14-0.46
			c-0.14-0.4-0.33-0.77-0.58-1.12c-0.53-0.77-1.3-1.36-2.23-1.62c-0.32-0.09-0.67-0.13-1.04-0.14c0-0.13-0.01-0.26-0.02-0.36
			c-0.34-3.73-5.1-3.81-7.91-3.09c-0.09,0.02-0.17,0.05-0.25,0.08c-1.53-2.83-3.48-5.33-6.97-5.44c-2.99-0.1-5.33,2.54-5.4,5.13
			c-1.64-0.18-3.35,0.56-4.53,1.75c-1.28,1.29-1.61,2.54-1.49,3.92c-0.2,0.13-0.4,0.26-0.6,0.4c-0.72,0.51-1.4,1.11-1.88,1.87
			c-0.76,1.22-1.03,2.82-0.54,4.18c-0.01,0.06-0.02,0.12-0.03,0.18c-0.51,0.3-0.91,0.8-1.06,1.54c-0.01,0.07-0.03,0.13-0.04,0.2
			c-0.16,0.16-0.3,0.35-0.43,0.57c-0.79,1.37-0.98,2.71-0.51,4.23c0.1,0.33,0.24,0.62,0.42,0.86c0.4,1.07,1.08,2.04,2.03,2.81
			c0.19,0.15,0.4,0.28,0.62,0.4c-0.13,0.36-0.19,0.78-0.15,1.26c0.14,1.73,1.01,3.15,2.75,3.63c-0.24,0.78-0.2,1.99-0.19,2.58
			c0.03,1.7,1.38,3,3.06,3.06c1.87,0.07,3.1-0.62,4.17-1.58c0.2-0.18,0.41-0.38,0.6-0.58c0,0,0-0.01,0-0.01
			c0.28-0.29,0.56-0.59,0.84-0.9c2.61,2.21,5.53,4.18,8.94,2.29c0.94-0.51,1.36-1.39,1.44-2.35c0.33,0.32,0.75,0.59,1.25,0.82
			c1.63,0.74,3.45,0.44,4.79-0.74c0.69-0.61,1.15-1.41,1.46-2.27c0.25-0.69,0.11-1.12,0.74-1.46c0.68-0.37,1.12-0.88,1.34-1.43
			c0.77-0.27,1.46-0.8,1.91-1.55c1.37-2.26,0.59-5.24-0.37-7.92c0.29-0.07,0.62-0.08,0.97-0.09C45.9,27.53,46.55,22.78,43.23,21.67z
			 M30.69,21.37c1.41,0.31,3.22,1.77,3.48,3.25c0.27,1.52-0.91,2.73-2.38,2.78c-0.03,0-0.06,0-0.09-0.01
			c-0.02,0.04-0.04,0.09-0.05,0.13c0.69,0.83,1.07,2.1,0.45,3.09c-0.43,0.7-1.27,1.08-2.1,1.23c0.06,1.02-0.58,1.99-1.58,2.37
			c-1.03,0.38-2.07,0.13-2.92-0.45c-0.11,0.18-0.24,0.35-0.42,0.48c-0.52,0.37-1.14,0.27-1.73,0.17c-0.82-0.13-1.75-0.48-2.24-1.14
			c-0.77,0.18-1.74-0.19-2.23-0.72c-0.42-0.46-0.64-1.3-0.56-2.04c-1.2-0.44-1.53-2.44-0.96-3.68c-0.76-1.16-0.32-2.56,0.82-3.15
			c0.01,0,0.01-0.01,0.02-0.01c0-0.01-0.01-0.02-0.01-0.03c-0.17-0.36-0.2-0.79-0.05-1.2c0.24-0.67,0.88-1.05,1.56-1.08
			c0.02,0,0.03,0,0.05,0c0-0.01,0.01-0.02,0.01-0.03c0.38-1.17,0.95-2.3,2.16-2.8c1.04-0.42,1.95-0.06,2.74,0.54
			c0.69-0.81,2.3-0.92,3.21-0.63c1.36,0.43,2.53,1.52,2.69,2.93C30.61,21.36,30.65,21.36,30.69,21.37z"/>
		<path class="st5" d="M42.19,20.82c0.23-0.73,0.49-1.49,0.5-2.23c0.01-0.81-0.45-1.44-0.97-2.01c-0.96-1.05-2.65-1.53-4.09-1.23
			c-0.11-4.05-5.22-6.02-8.48-3.7c-1.03-3.2-3.28-5.78-7.02-5.55c-3.23,0.2-5.53,2.8-5.95,5.85c-1.28-0.49-2.74-0.28-3.92,0.55
			c-1.62,1.15-2.18,3.11-2.28,5c-2.75,0.96-3.89,3.82-2.58,6.43c-0.28,0.17-0.54,0.36-0.77,0.56c-0.11,0.09-0.21,0.19-0.31,0.29
			c-2.89,2.9-1.92,8.32,1.58,10.49c-0.08,0.27-0.15,0.54-0.19,0.81c-0.09,0.51-0.09,1.03,0,1.53c0.1,0.54,0.32,1.05,0.7,1.52
			c0.63,0.77,1.51,1.17,2.43,1.17c-0.13,0.38-0.24,0.76-0.32,1.13c-0.1,0.52-0.13,1.03-0.08,1.52c0.14,1.29,0.9,2.38,2.67,2.89
			c2.64,0.77,5.87,0.21,7.29-2.12c0.66,0.76,1.47,1.41,2.34,1.91c0.46,0.27,0.94,0.48,1.42,0.65c0.27,0.1,0.55,0.18,0.83,0.24
			c0.21,0.05,0.42,0.09,0.63,0.11c2.14,0.27,4.1-0.59,4.75-3.2c1.76,1.11,3.87,1.64,5.85,0.59c1.81-0.97,2.57-2.88,2.32-4.81
			c0.27,0.03,0.57-0.09,0.7-0.32c1.89-0.49,3.47-1.8,4-3.74c0.24-0.89,0.25-1.84,0.01-2.74c-0.35-1.35-1.3-2.15-0.92-3.68
			c0,0,0-0.01,0-0.01c0.6,0.02,1.2-0.09,1.74-0.31c0.48-0.19,0.92-0.46,1.29-0.81c0.23-0.21,0.44-0.45,0.61-0.72
			c0.2-0.3,0.35-0.63,0.45-0.99c0.09-0.33,0.14-0.69,0.14-1.06C46.54,22.91,44.28,20.43,42.19,20.82z M19.09,43.32
			c-0.18,0.23-0.37,0.42-0.6,0.58c-1.01,0.75-2.47,0.88-3.78,0.81c-0.66-0.04-1.55-0.14-2.1-0.56c-1.72-1.29-0.71-3.12-0.04-4.4
			c0.24-0.46-0.18-1.24-0.77-0.99c-2.56,1.07-3.17-2-2.35-3.76c0.31-0.66-0.47-1.25-0.95-0.94c-3.06-2.01-3.66-7.26-0.09-9.14
			c0.29-0.15,0.37-0.41,0.32-0.66c0.12-0.18,0.14-0.42,0-0.66c-1.23-2.1-0.2-4.36,2.08-4.93c0.29-0.08,0.5-0.36,0.5-0.65
			c0.04-2.59,2.07-6.61,5.14-4.38c0.54,0.39,1.05-0.19,0.96-0.72c0.02-0.06,0.04-0.13,0.05-0.22c0.09-2.96,2.41-5.46,5.48-5.22
			c2.76,0.21,4.18,2.21,4.91,4.58c0.1,0.32,0.19,0.65,0.27,0.99c0.11,0.49,0.79,0.67,1.13,0.3c0.09-0.1,0.19-0.19,0.29-0.28
			c2.5-2.18,7.42-0.73,6.67,3.11c-0.14,0.71,0.74,1.08,1.13,0.68c1.07-0.43,2.54-0.2,3.34,0.64c0.02,0.01,0.04,0.03,0.06,0.05
			c0.34,0.38,0.51,0.66,0.52,1.06c0,0.14-0.01,0.3-0.05,0.49c-0.13,0.66-0.35,1.32-0.53,1.97c-0.13,0.47,0.22,0.78,0.59,0.83
			c0.1,0.31,0.38,0.54,0.77,0.37c1.52-0.63,3.35,1.63,3.12,3.03c-0.27,1.6-1.81,2.25-3.29,2.06c-0.47-0.06-0.67,0.31-0.63,0.68
			c-0.1,0.08-0.18,0.2-0.22,0.36c-0.14,0.57-0.49,1.36-0.37,1.96c0.12,0.58,0.72,1.1,0.98,1.6c1.23,2.4-0.29,5.01-2.78,5.64
			c-0.12,0.03-0.21,0.09-0.28,0.15c-0.3-0.03-0.61,0.1-0.75,0.39c0,0,0,0.01,0,0.01c-0.4,0-0.81,0.33-0.69,0.84
			c0.42,1.73-0.27,3.47-2.09,4.08c-1.7,0.57-3.37-0.22-4.67-1.27c-0.47-0.38-1.1-0.13-1.15,0.48c-0.46,5.32-6.29,2.85-8.21,0.04
			c-0.11-0.16-0.26-0.25-0.41-0.28c-0.34-0.21-0.88-0.14-1.05,0.35C19.45,42.75,19.29,43.05,19.09,43.32
			C19.09,43.31,19.09,43.32,19.09,43.32z"/>
		<path class="st5" d="M34.53,23.98c-0.53-1.75-1.84-3.54-3.82-3.12c-0.49-2.74-3.42-2.78-5.81-2.46c-0.56,0.08-0.43,0.1-1.07-0.02
			c-0.28-0.05-0.56-0.16-0.86-0.18c-0.61-0.05-1.25,0.07-1.79,0.37c-0.93,0.5-1.41,1.34-1.61,2.31c-1.23,0.14-1.44,1.31-1.42,2.59
			c-1.57,0.68-2.08,1.89-1.38,3.48c-0.26,0.84-0.35,1.68,0.02,2.51c0.11,0.24,0.25,0.48,0.43,0.68c0.15,0.17,0.55,0.35,0.81,0.53
			c-0.5,1.5,1.08,3.02,2.61,3.01c0.09,0.22,0.22,0.47,0.28,0.56c0.33,0.43,0.82,0.62,1.34,0.73c1.13,0.24,2.31,0.21,3.24-0.42
			c0.84,0.69,1.91,0.98,3.03,0.58c1.04-0.37,1.86-1.27,1.99-2.32c0.83-0.16,1.48-0.83,1.89-1.65c0.52-1.05,0.51-2.16,0.11-3.2
			c0.71-0.32,1.35-0.77,1.82-1.4C34.99,25.68,34.82,24.93,34.53,23.98z M31.59,26.87c-0.08,0.03-0.14,0.07-0.2,0.11
			c-0.33,0.15-0.57,0.53-0.34,0.95c0.36,0.64,0.55,1.33,0.37,2.06c-0.14,0.57-0.65,1.65-1.41,1.49c-0.51-0.11-0.95,0.31-0.83,0.83
			c0.17,0.72-0.58,1.4-1.18,1.58c-0.75,0.22-1.53-0.12-2-0.73c-0.42-0.55-1.28-0.21-1.3,0.3c-0.86,0.54-2.13,0.33-2.77-0.43
			c-0.12-0.14-0.14-0.41-0.3-0.59c-0.15-0.17-0.44-0.25-0.66-0.17c-1.02,0.35-1.42-0.54-1.54-1.39c-0.03-0.19,0.11-0.37,0.03-0.6
			c-0.08-0.26-0.23-0.36-0.39-0.55c-0.75-0.9-1.31-1.03-1.07-2.12c0.25-0.18,0.38-0.51,0.19-0.86c-0.56-1.32-0.28-2.04,0.84-2.18
			c0.27-0.09,0.51-0.35,0.5-0.65c-0.01-0.27-0.23-1.83,0.46-1.72c0.45,0.07,0.82-0.18,0.85-0.65c0.03-0.46,3.08-1.55,3.24-1.58
			c0.12-0.03,0.29,0.07,0.44,0.03c1.22-0.32,4.74-1.39,4.92,1.36c0.02,0.37,0.29,0.58,0.58,0.64c0.13,0.23,0.39,0.37,0.71,0.26
			c1.45-0.49,2.16,0.95,2.51,2.08C33.63,25.65,32.8,26.44,31.59,26.87z"/>
	</g>
	<g class="st1">
		<path class="st6" d="M38.59,25.89c-1.01-0.89-0.39-2.52-0.78-3.79c-0.36-1.19-0.9-2.4-1.71-3.37c-0.32-0.39-0.69-0.74-1.12-1.03
			c-0.01-0.01-0.03-0.02-0.05-0.03c-0.98-0.66-2.45-1.21-3.7-0.98c-0.08-0.18-0.18-0.35-0.28-0.52c-0.08-0.14-0.17-0.27-0.26-0.41
			c-0.14-0.22-0.29-0.42-0.42-0.59c-1.96-2.62-5.89-3.57-8.46-1.18c-0.46,0.43-0.82,0.93-1.12,1.46c-1.22,0.34-2.25,1.32-2.23,2.8
			c0,0.12,0,0.25,0.01,0.39c-0.41-0.1-0.85-0.18-1.33-0.21c-2.24-0.14-3.59,2.44-2.72,4.31c-0.31,0.14-0.61,0.32-0.88,0.54
			c-2.16,1.77-3.74,5.11-0.59,6.97c0.18,0.11,0.32,0.18,0.45,0.24c-0.1,0.46-0.23,1.04-0.24,1.21c-0.02,0.77,0.27,1.4,0.57,2.04v0
			c0.01,0.04,0.03,0.07,0.05,0.11c0.27,0.58,0.51,1.17,0.51,1.85c-0.01,2.55,3.15,3.83,4.93,2.39c0.12,0.05,0.24,0.09,0.36,0.13
			c0.77,0.23,1.56,0.31,2.36,0.26c0.17-0.01,0.33-0.04,0.48-0.07c0.35,0.44,0.77,0.81,1.27,1.08c2.31,1.27,3.88-0.58,6.07-0.29
			c1.28,0.16,2.64-1.01,3-2.27c0.3,0.02,0.6,0.04,0.91,0.04c2.45,0.02,3.53-2.54,2.6-4.54c-0.04-0.09-0.08-0.17-0.12-0.25
			c0.68-0.44,1.11-1.07,1.81-1.53C39.5,29.65,40.15,27.26,38.59,25.89z M31.8,27.41c-0.03,0-0.06,0-0.09-0.01
			c-0.02,0.04-0.04,0.09-0.05,0.13c0.69,0.83,1.07,2.1,0.45,3.09c-0.43,0.7-1.27,1.08-2.1,1.23c0.06,1.02-0.58,1.99-1.58,2.37
			c-1.03,0.38-2.07,0.13-2.92-0.45c-0.11,0.18-0.24,0.35-0.42,0.48c-0.52,0.37-1.14,0.27-1.73,0.17c-0.82-0.13-1.75-0.48-2.24-1.14
			c-0.77,0.18-1.74-0.19-2.23-0.72c-0.42-0.46-0.64-1.3-0.56-2.04c-1.2-0.44-1.53-2.44-0.96-3.68c-0.76-1.16-0.32-2.56,0.82-3.15
			c0.01,0,0.01-0.01,0.02-0.01c0-0.01-0.01-0.02-0.01-0.03c-0.17-0.36-0.2-0.79-0.05-1.2c0.24-0.67,0.88-1.05,1.56-1.08
			c0.02,0,0.03,0,0.05,0c0-0.01,0.01-0.02,0.01-0.03c0.38-1.17,0.95-2.3,2.16-2.8c1.04-0.42,1.95-0.06,2.74,0.54
			c0.69-0.81,2.3-0.92,3.21-0.63c1.36,0.43,2.53,1.52,2.69,2.93c0.04,0,0.08,0,0.12,0.01c1.41,0.31,3.22,1.77,3.48,3.25
			C34.45,26.15,33.27,27.35,31.8,27.41z"/>
		<path class="st7" d="M40.4,28.31c-0.18-1.43-1.31-2.41-1.32-3.82c-0.01-1.39-0.32-2.23-0.93-3.51c-0.08-0.17-0.2-0.27-0.33-0.32
			c0.27-1.77-0.78-3.52-2.44-4.27c-1.16-0.53-3.03-0.75-4.41-0.21c-0.1,0.04-0.19,0.08-0.29,0.13c0.02-0.18,0.03-0.36,0.03-0.54
			c0-1.17-0.45-2.07-1.15-2.72c-0.47-0.45-1.06-0.78-1.7-1c-2.67-0.94-6.31-0.01-6.66,2.37c-1.96-0.13-3.46,1.33-3.42,3.28
			c-0.97-0.18-2.38,0.06-2.81,0.29c-1.53,0.82-1.57,2.89-1.23,4.46c-3.68,0.91-3.85,6.28-0.93,8.3c-0.38,0.52-0.52,1.21-0.3,1.83
			c0.21,0.6,0.67,1,1.22,1.2v0c0.04,0.02,0.09,0.03,0.13,0.05c-0.03,0.02-0.05,0.04-0.08,0.06c-0.09,0.08-0.16,0.19-0.18,0.36
			c-0.26,1.89-0.14,4.26,2.07,4.86c1.21,0.33,3.42,0.53,4.41-0.49c0.51,0.41,1.18,0.62,1.83,0.56c1.62,1.59,5.03,3.1,5.98,0.54
			c1.36,0.33,3.03,0.61,4.17-0.2c0.71-0.5,0.99-1.27,1.04-2.08c1.39,0.52,3.02,0.27,4.01-0.99c1.03-1.3,0.86-2.99-0.02-4.23
			C38.89,31.61,40.67,30.46,40.4,28.31z M14.04,31.38c0.15-0.13,0.21-0.29,0.22-0.44c0.28-0.29,0.34-0.79-0.13-1
			c-1.27-0.59-1.98-1.62-2.02-3.03c-0.04-1.42,0.57-3.04,2.2-3.22c0.28-0.03,0.47-0.21,0.57-0.42c0.23-0.14,0.37-0.39,0.28-0.72
			c-0.22-0.76-0.38-2.01-0.07-2.77c0.19-0.48,0.61-0.69,1.1-0.78c0.2-0.04,0.94-0.1,1.28-0.02c0.21,0.35,0.79,0.44,1.1,0.1
			c0.39-0.02,0.77-0.35,0.65-0.83c-0.13-2.05,0.7-2.84,2.49-2.38c0.52,0.15,0.93-0.34,0.83-0.83c-0.5-2.48,8.24-3.6,6.64,1.99
			c-0.11,0.37,0.09,0.65,0.37,0.77c0.16,0.47,0.9,0.72,1.23,0.16c0.68-1.14,3.15-0.78,4.18-0.28c0.05,0.02,0.1,0.05,0.14,0.07
			c0.43,0.25,0.78,0.59,1.02,0.98c0.4,0.64,0.52,1.43,0.25,2.22c-0.18,0.51,0.25,0.84,0.67,0.82c0.24,0.49,0.47,1,0.69,1.5
			c-0.01,0.57-0.06,1.12-0.16,1.67c0.04,0.36,0.08,0.56,0.23,0.94c0.26,0.64,0.87,1.24,1.04,1.9c0.59,2.38-1.24,2.97-2.91,3.36
			c-0.17-0.04-0.33,0.01-0.46,0.11c-0.67,0.22-0.46,1.2,0.17,1.29c2.16,1.81-0.56,5.19-2.83,3.19c-0.51-0.45-1.26-0.01-1.13,0.66
			c0.57,2.8-2.45,2.27-4.13,1.84c-0.52-0.13-0.85,0.31-0.84,0.72c-0.09,0.48-0.19,0.81-0.82,0.84c-0.36,0.02-0.78-0.12-1.11-0.25
			c-0.86-0.33-1.57-0.9-2.18-1.58c-0.24-0.27-0.53-0.26-0.77-0.13c-0.47,0.02-0.86-0.14-1.17-0.52c-0.03-0.04-0.07-0.07-0.11-0.09
			c-0.13-0.13-0.27-0.21-0.48-0.29c-0.33-0.12-0.77,0.13-0.83,0.47c-0.17,0.82-2.61,0.6-3.21,0.41c-1.38-0.43-1.28-2.05-1.12-3.2
			c0.05-0.33-0.12-0.58-0.35-0.72c0.25-0.1,0.43-0.39,0.43-0.64c0-0.4-0.31-0.63-0.68-0.67C13.65,32.49,13.65,31.73,14.04,31.38z"/>
		<path class="st7" d="M34.83,24.94c-0.22-1.93-1.83-3.05-3.5-3.71c-0.05-3.13-4.23-4.11-6.68-2.79c-0.02-0.01-0.03-0.03-0.04-0.04
			c-1.08-0.75-2.32-1.18-3.44-0.25c-0.49,0.41-0.84,0.98-1.19,1.51c-0.27,0.41-0.54,0.76-0.63,1.18c-0.52,0.08-1,0.34-1.34,0.77
			c-0.27,0.34-0.42,0.73-0.46,1.16c-0.02,0.2,0,0.37,0.06,0.52c-1.18,0.63-1.63,2.06-1.04,3.33c-0.74,1.6-0.11,3.32,1.42,4.1
			c-0.17,1.22,1.38,2.38,2.61,2.72c0.81,1.85,3.19,2.04,4.75,0.95c0.89,0.6,2.09,1.02,3.08,0.77c1.06-0.27,1.76-1.32,1.96-2.37
			c2.16-0.21,3.14-2.75,2.35-4.68C34.08,27.76,35,26.46,34.83,24.94z M31.6,26.87c-0.62-0.07-0.79,0.61-0.52,1.03
			c0.03,0.1,0.07,0.19,0.15,0.28c1.04,1.2,0.27,3.46-1.48,3.28c-0.36-0.04-0.69,0.34-0.68,0.67c0.03,1.05-0.89,1.93-1.88,1.65
			c-0.49-0.14-1.07-0.41-1.44-0.75c-0.39-0.36-0.89-0.14-1.09,0.21c-0.02,0.01-0.04,0.02-0.05,0.04C23.75,34,22.12,34,21.75,32.7
			c-0.09-0.3-0.35-0.47-0.65-0.5c-0.29-0.02-2.24-0.85-1.69-1.42c0.49-0.5-0.03-1.22-0.57-1.15c-1.17-0.42-1.55-1.6-0.93-2.66
			c0.12-0.2,0.13-0.48,0-0.68c-0.58-0.94-0.13-1.8,0.9-1.98c0.57-0.1,0.6-0.72,0.29-1.07c-0.06-0.12-0.12-0.23-0.2-0.32
			c-0.01-0.21,0.13-0.46,0.29-0.59c0.23-0.18,0.51-0.2,0.78-0.12c0.69,0.2,1.05-0.65,0.69-1.09c0-0.01,0-0.01,0-0.02
			c-0.04-0.17,0.48-0.73,0.57-0.88c0.2-0.3,0.39-0.62,0.64-0.87c0.7-0.7,1.37-0.25,2.06,0.22c0.11,0.08,0.21,0.11,0.32,0.12
			c0.19,0.21,0.48,0.3,0.79,0.1c1.64-1.09,5.16-0.71,4.93,1.84c-0.02,0.28,0.1,0.47,0.28,0.57c0.07,0.07,0.16,0.14,0.28,0.18
			c1.06,0.37,2.22,0.9,2.74,1.96C33.91,25.67,33.12,27.04,31.6,26.87z"/>
	</g>
	<g class="st1">
		<g>
			<path class="st8" d="M18.21,23.63c0,0.01-0.01,0.03-0.01,0.04c0.01,0,0.01-0.01,0.02-0.01C18.22,23.65,18.21,23.64,18.21,23.63z
				 M19.71,21.35c0.02,0,0.03,0,0.05,0c0-0.01,0.01-0.02,0.01-0.03C19.75,21.32,19.73,21.33,19.71,21.35z"/>
		</g>
		<path class="st9" d="M10.33,5.88c-0.83,0-0.84,1.3,0,1.3C11.16,7.18,11.17,5.88,10.33,5.88z"/>
		<circle class="st9" cx="27.77" cy="4.73" r="0.62"/>
		<path class="st9" d="M32.21,0.29c-0.86,0-0.86,1.34,0,1.34C33.07,1.63,33.07,0.29,32.21,0.29z"/>
		<path class="st9" d="M39.19,10.21c-0.77,0-0.77,1.19,0,1.19C39.95,11.4,39.95,10.21,39.19,10.21z"/>
		<path class="st9" d="M45.94,10.16c-0.03,0-0.03,0.04,0,0.04S45.97,10.16,45.94,10.16z"/>
		<path class="st9" d="M47.96,9.26c-0.46,0-0.46,0.72,0,0.72C48.42,9.98,48.42,9.26,47.96,9.26z"/>
		<path class="st9" d="M51.67,20.68c-0.03,0-0.03,0.04,0,0.04C51.7,20.73,51.7,20.68,51.67,20.68z"/>
		<path class="st9" d="M45.32,22.59c-0.03,0-0.03,0.04,0,0.04C45.35,22.64,45.35,22.59,45.32,22.59z"/>
		<path class="st9" d="M45.94,21.42c-0.75,0-0.75,1.16,0,1.16C46.68,22.58,46.68,21.42,45.94,21.42z"/>
		<path class="st9" d="M51.5,25.24c-0.03,0-0.03,0.04,0,0.04C51.53,25.28,51.53,25.24,51.5,25.24z"/>
		<path class="st9" d="M51.79,25.29c-0.03,0-0.03,0.04,0,0.04C51.82,25.34,51.82,25.29,51.79,25.29z"/>
		<path class="st9" d="M51.67,28.05c-0.03,0-0.03,0.04,0,0.04C51.7,28.09,51.7,28.05,51.67,28.05z"/>
		<path class="st9" d="M50.89,28.61c-0.76,0-0.76,1.18,0,1.18C51.65,29.79,51.65,28.61,50.89,28.61z"/>
		<path class="st9" d="M39.86,46.04c-0.77,0-0.77,1.19,0,1.19C40.63,47.23,40.63,46.04,39.86,46.04z"/>
		<path class="st9" d="M31.14,49.17c-0.5,0-0.5,0.77,0,0.77C31.64,49.94,31.64,49.17,31.14,49.17z"/>
		<path class="st9" d="M17.02,50.78c-0.6,0-0.6,0.93,0,0.93C17.62,51.71,17.62,50.78,17.02,50.78z"/>
		<path class="st9" d="M13.25,44.97c-0.4,0-0.4,0.62,0,0.62C13.66,45.6,13.66,44.97,13.25,44.97z"/>
		<path class="st9" d="M4.59,40.65c-0.03,0-0.03,0.04,0,0.04C4.62,40.69,4.62,40.65,4.59,40.65z"/>
		<path class="st9" d="M3.58,37.82c-0.7,0-0.7,1.09,0,1.09C4.28,38.91,4.28,37.82,3.58,37.82z"/>
		<path class="st9" d="M5.49,29.62c-0.54,0-0.54,0.83,0,0.83C6.03,30.46,6.03,29.62,5.49,29.62z"/>
		<path class="st9" d="M0.32,20.1c-0.92,0-0.92,1.42,0,1.42C1.23,21.53,1.23,20.1,0.32,20.1z"/>
		<path class="st9" d="M5.89,17.25c-0.03,0-0.03,0.04,0,0.04S5.92,17.25,5.89,17.25z"/>
		<circle class="st9" cx="5.15" cy="14.4" r="0.66"/>
	</g>
</g>
<g class="st0">
	<g class="st1">
		<path class="st4" d="M42.97,28.01c-0.02-0.04-0.04-0.09-0.05-0.13c-0.18-0.45-0.24-0.85-0.23-1.21c0.41-0.2,0.79-0.5,1.11-0.93
			c0.34-0.45,0.66-0.94,0.95-1.46c1.03-1.82,1.6-3.93,0.6-5.9c-0.58-1.14-1.43-1.86-2.62-2.3c-0.87-0.32-2.75-0.55-2.83-1.8
			c-0.14-2.04-2.49-4.01-4.47-2.66c-0.13-0.2-0.24-0.41-0.32-0.63c-0.22-0.66-0.31-2.1-1.73-2.84c-1.38-0.71-3.06-0.51-4.4,0.18
			c-0.15,0.08-1.8,1.16-1.75,1.51c-0.41-0.29-1.1-1.03-1.27-1.17c-2.11-1.57-5.56-3.24-8.17-1.98c-2.44,1.18-4.16,3.67-4.67,6.27
			c-2.69,1.01-5.47,3.31-4.4,6.48c0.03,0.07,0.06,0.13,0.09,0.2c-0.71,0.33-1.38,0.8-1.98,1.36c-0.9,0.85-1.39,1.94-1.27,3.18
			c0.06,0.62,0.26,1.08,0.5,1.67c0.02,0.03,0.03,0.07,0.05,0.1c-0.43,0.41-0.77,0.9-1.05,1.45v0c-0.37,0.75-0.59,1.59-0.66,2.46
			c-0.09,1.26,0.13,2.55,0.7,3.65c0.15,0.29,0.34,0.53,0.57,0.72v0.02c0.33,1.22,1.03,1.83,2.03,2.51c0.52,0.35,0.94,0.52,1.24,1.1
			c0.28,0.55,0.34,1.19,0.65,1.75c0.44,0.78,1.06,1.31,1.76,1.61c0,0.01,0,0.01,0.01,0.02c0.08,0.18,0.3,0.59,0.5,0.94
			c0.07,0.13,0.14,0.24,0.2,0.34c0.12,0.19,0.19,0.28,0.16,0.17c0.25,0.78,0.17,1.54,0.63,2.29c0.42,0.68,1.05,1.25,1.71,1.71
			c1.4,0.99,3.25,1.69,4.9,0.88c0.46-0.22,0.82-0.53,1.12-0.9c0.8-0.06,1.53-0.51,1.68-1.42c0.66,0.09,1.31-0.07,1.84-0.58
			l0.42-0.34c0,0,0,0,0.01-0.01c0.16-0.1,0.31-0.23,0.45-0.37c0.14,0.05,0.29,0.11,0.45,0.17c0.12,0.06,0.23,0.11,0.36,0.16
			c1.05,0.48,2.18,1.17,3.16,1.67c0.73,0.38,1.38,0.66,1.85,0.68c1.49,0.07,2.87-0.77,3.81-1.89c0.36-0.42,0.68-0.9,0.84-1.44
			c0.06-0.29,0.08-0.58,0.09-0.88c0-0.02,0-0.04,0-0.06c0.04,0,0.07-0.01,0.11-0.02c0,0,0,0,0.01,0c1.02,0.36,2.19,0.13,2.85-1.15
			c0.12-0.23,0.24-0.47,0.36-0.7c0.36-0.42,0.63-0.9,0.81-1.42c0.08-0.21,0.13-0.42,0.17-0.64c0.25,0.1,0.52,0.16,0.79,0.16
			c0.56,0.01,1.14-0.22,1.66-0.78c0.25-0.27,1.03-0.4,1.38-0.68c0.47-0.37,0.88-0.9,1.12-1.45c0.58-1.33,0.24-2.79-0.22-4.09
			C44.08,30.39,43.44,29.23,42.97,28.01z M36.2,28.86c-0.3,0.19-0.44,0.6-0.24,0.92c0.07,0.33,0.14,0.65,0.21,0.98
			c-0.37,0.13-0.68,0.62-0.4,0.99c1.48,2.01-0.02,4.67-2.56,4.09c-0.33-0.08-0.76,0.1-0.83,0.47c-0.19,1.11-0.53,1.63-1.6,2.04
			c-0.59,0.22-1.24,0.15-1.83,0.44c-0.67,0.32,0.05,0.56-1.21,0.98c-1.47,0.48-2.98-0.55-3.71-1.71c-0.18-0.29-0.48-0.36-0.73-0.29
			c-0.12-0.01-0.24,0-0.37,0.06c-0.57-0.02-1.13-0.04-1.7-0.06c-0.3-0.15-0.57-0.09-0.82,0.11c-2.34,1.17-3.56,0.45-3.67-2.16
			c0.05-0.33-0.08-0.77-0.47-0.83l-1.19-2.44c0.07-0.3-0.05-0.6-0.31-0.77c-2.2-1.35-3.44-4.99-0.16-6.11
			c0.43-0.14,0.61-0.59,0.4-0.99c-0.76-1.49,0.23-3.06,1.76-3.32c0.48-0.08,0.58-0.53,0.42-0.88c0.02-0.06,0.03-0.13,0.02-0.2
			c-0.05-0.81,0.46-1.35,1.03-1.84c0.7-0.61,1.25-0.56,2.1-0.32c0.37,0.1,0.65-0.09,0.77-0.37c0.27-0.06,0.49-0.27,0.45-0.63
			c-0.15-1.84,1.84-3.06,3.52-2.82c1.42,0.21,2.27,1.37,2.88,2.56c-0.34,0.41,0.03,1.23,0.72,1.11c1.28-0.23,1.93-1.84,3.44-1.02
			c0.46,0.25,0.91,0.66,1.25,1.06c0.5,0.59,0.5,1.28,0.74,1.98c0.04,0.09,0.08,0.17,0.14,0.23c0.06,0.17,0.21,0.3,0.45,0.34
			c0.26,0.41,0.53,0.82,0.79,1.23c-0.15,0.32-0.1,0.73,0.24,0.92c0.76,0.43,1.63,0.85,2.14,1.58C39.25,26.17,37.75,27.86,36.2,28.86
			z"/>
		<path class="st5" d="M43.81,26.96c2.24-1.9,3.57-4.74,2.86-7.72c-0.68-2.88-3.09-4.76-5.99-4.87c-0.01-1.46-0.51-2.89-1.95-3.52
			c-0.84-0.37-2.06-0.57-2.99-0.24c-0.42-1.88-1.39-3.63-3.55-3.76c-2-0.12-4.18,0.74-5.32,2.39c-1.63-2.73-4.72-4.51-7.97-4.03
			c-3.26,0.48-5.71,3.87-6.06,7.04c-3.08,0.8-5.85,3.84-5.13,7.08c-1.58,0.6-2.8,1.88-3.05,3.64c-0.13,1,0.12,2.5,0.85,3.43
			c-0.17,0.33-0.33,0.67-0.47,1.03v0c-0.3,0.77-0.53,1.61-0.66,2.46c-0.54,3.56,0.54,7.4,4.28,8.32c0.03,1.81,1.41,3.61,3.18,4
			c0.06,0.01,0.12,0.02,0.18,0.03c0,0.1,0.01,0.21,0.02,0.31c0.23,2.74,1.83,5.31,4.59,6.16c2.7,0.83,5.3-0.64,6.11-3.24
			c0.39-0.09,0.84,0.11,1.24,0.06c0.44-0.06,0.83-0.3,1.21-0.54c1.86,1.59,4.57,3.16,7.07,2.79c2.12-0.32,3.62-2.47,4.14-4.45
			c1.13-0.04,2.23-0.54,2.97-1.42c0.64-0.77,1.22-1.73,1.28-2.74c5.4-0.15,7.02-6.96,3.37-10.59C43.95,28.04,43.88,27.5,43.81,26.96
			z M9.99,38.21c0-0.16,0.02-0.32,0.05-0.48c0.13-0.55-0.38-0.9-0.8-0.83c-0.05,0-0.09,0.01-0.12,0.03
			c-4.26-1.02-4.15-6.42-2.48-9.76c0.09,0,0.17-0.01,0.25-0.04C7,27.1,7.1,27.04,7.16,26.96l0.08-0.09c0.17-0.19,0.2-0.42,0.15-0.62
			c-0.02-0.08-0.05-0.15-0.09-0.22c0.27-0.54-0.37-1.02-0.88-0.84c-0.07-0.82-0.5-1.99-0.31-2.56c0.39-1.2,1.45-1.93,2.61-2.22
			c0.33-0.09,0.59-0.49,0.47-0.83c-1.05-2.88,1.59-5.5,4.26-6.1c0.06-0.01,0.13-0.03,0.2-0.04c0.1-0.02,0.18-0.05,0.25-0.1
			c0.17-0.11,0.24-0.29,0.23-0.49c0.01-0.03,0.01-0.06,0.01-0.09c0.13-3.14,2.77-6.38,6.04-6.29c2.04,0.05,3.82,1.15,5.02,2.7
			c0.36,0.48,0.68,0.99,0.93,1.54c0,0,0,0,0,0.01c0.11,0.24,0.3,0.34,0.49,0.34h0c0.08,0,0.15-0.01,0.23-0.04
			c0.08,0.01,0.16,0.01,0.23,0c0.23-0.04,0.45-0.18,0.55-0.45c0.57-1.56,2.34-2.25,3.89-2.36c2.01-0.15,2.74,1.54,3,3.21
			c0.02,0.09,0.03,0.18,0.04,0.27c-0.19,0.7,0.8,1.26,1.18,0.6c0.01-0.01,0.02-0.01,0.02-0.02c0.06-0.05,0.11-0.13,0.14-0.21
			c0.58-0.61,2.21-0.18,2.74,0.29c0.65,0.56,0.7,1.51,0.67,2.31c-0.01,0.38,0.23,0.59,0.52,0.64c0.09,0.22,0.29,0.4,0.6,0.4
			c2.86,0.02,4.99,2.16,5.06,5.04c0.03,1.1-0.25,2.1-0.75,2.99v0c-0.39,0.7-0.9,1.34-1.5,1.9c-0.2,0.2-0.42,0.38-0.64,0.56
			c-0.03,0.02-0.05,0.04-0.08,0.06c-0.14,0.11-0.22,0.25-0.23,0.38c-0.01,0.1,0.01,0.21,0.06,0.3c0.03,0.06,0.07,0.11,0.11,0.16
			c0.05,0.39,0.1,0.79,0.15,1.18c0.02,0.17,0.04,0.33,0.06,0.5c0,0.05,0.02,0.1,0.04,0.15c0,0.16,0.05,0.32,0.2,0.45
			c2.75,2.58,2.11,7.28-1.26,8.24c-0.5,0.14-1.06,0.21-1.68,0.16c-0.05,0-0.11,0-0.16-0.01c-0.26-0.02-0.44,0.08-0.54,0.23
			c-0.15,0.22-0.14,0.55,0.01,0.8c0.02,0.13,0.01,0.26,0,0.39c-0.09,0.7-0.61,1.44-1.04,1.92c-0.58,0.63-1.37,0.88-2.2,0.84
			c-0.04,0-0.08,0-0.12,0c-0.17-0.01-0.3,0.03-0.4,0.1c-0.16,0.07-0.29,0.21-0.33,0.44c-0.01,0.05-0.02,0.09-0.03,0.14
			c-0.47,2.25-2.13,4.23-4.65,3.66c-0.37-0.09-0.73-0.19-1.09-0.32c-0.82-0.3-1.6-0.71-2.32-1.21c-0.45-0.32-0.89-0.66-1.3-1.04
			c-0.13-0.13-0.29-0.18-0.43-0.18c-0.16-0.06-0.36-0.06-0.55,0.06c-0.07,0.04-0.13,0.08-0.2,0.13c-0.16,0.1-0.32,0.22-0.49,0.3
			c-0.19,0.09-0.39,0.15-0.6,0.13c-0.44-0.05-0.82-0.15-1.25,0.01c-0.02,0-0.04,0.02-0.06,0.03c-0.29-0.04-0.6,0.1-0.68,0.48
			c-0.57,2.53-3.08,3.59-5.36,2.38c-1.35-0.72-2.19-1.94-2.58-3.34c-0.18-0.63-0.26-1.29-0.26-1.95c0.01-0.04,0.02-0.09,0.03-0.13
			c0.04-0.29-0.09-0.6-0.39-0.68c-0.07-0.03-0.15-0.04-0.25-0.03c-0.25,0.02-0.5-0.02-0.75-0.09C10.9,40.51,10,39.36,9.99,38.21z"/>
		<path class="st5" d="M38.87,23.03c-0.45-0.51-0.98-0.82-1.57-1.14c-1.11-0.6-1.49-1.21-2.08-2.28c-0.01-0.06-0.03-0.13-0.07-0.19
			c-1.4-2.69-3.64-4.31-6.44-3.12c-0.69-2.05-1.9-3.39-4.38-3.1c-2.12,0.25-3.52,1.4-4.08,3.29c-0.49,0.01-0.95,0.14-1.47,0.26
			c-0.61,0.14-1.24,0.24-1.78,0.58c-1.08,0.68-1.26,1.97-1.18,3.14c-1.79,1.19-1.53,3.29-2.92,4.97c-1.44,1.74-1.6,4-0.18,5.96
			c0.61,0.84,0.88,0.94,1.34,2.04c0.26,0.62,0.23,0.74,0.57,1.36c0.5,0.9,0.84,1.11,1.05,2.21c0.08,0.4,0.13,0.76,0.34,1.12
			c1.24,2.18,4.78,0.9,6.82,0.56c1.76,2.27,4.36,2.2,6.92,1.22c1.49-0.57,2.69-1.36,3.66-2.51c0.78-0.93,1.92-0.87,2.85-1.74
			c1.02-0.95,1.22-2.29,1.18-3.61c-0.02-0.78-0.31-2.06,0.08-2.79c0.17-0.32,0.81-0.61,1.08-0.88c0.49-0.49,0.88-1.04,1.09-1.7
			C40.12,25.4,39.76,24.03,38.87,23.03z M38.09,26.49c-0.53,1.11-1.67,1.57-2.14,2.65c-0.61,1.4,0.66,2.87,0.09,4.26
			c-0.58,1.42-1.17,1.39-2.47,1.83c-0.25,0.09-0.47,0.06-0.7,0.2c-0.67,0.4-0.35,0.64-0.7,1.21c-0.61,0.99-2.51,1.68-3.52,2.09
			c-1.78,0.74-3.54,0.87-4.81-0.9c-0.03-0.31-0.24-0.58-0.64-0.53c-0.79,0.09-1.57,0.18-2.35,0.3c-1.43,0.22-3.09,0.06-3.92-1.32
			c-0.22-0.36-0.24-0.96-0.46-1.37c-0.5-0.94-0.94-1.88-1.41-2.81c-0.33-0.66-0.95-1.11-1.33-1.74c-0.9-1.47-0.69-2.75,0.32-4.14
			c0.11-0.14,0.2-0.31,0.29-0.48c0.26,0.03,0.53-0.08,0.67-0.32c0.16-0.27,0.1-0.65-0.14-0.85c0-0.01-0.01-0.02-0.01-0.02
			c0.49-1.29,0.97-2.71,2.06-3.15c0.56-0.23,0.55-0.94,0.22-1.23c-0.03-0.7,0.06-1.42,0.74-1.77c0.3-0.16,0.68-0.2,1.01-0.27
			c0.36-0.08,0.78-0.23,1.18-0.27c0.22,0.52,1.22,0.41,1.31-0.32c0.2-1.54,1.18-2.51,2.62-2.88c2-0.52,3.19,1.07,3.63,2.8
			c0.11,0.42,0.62,0.62,0.99,0.4c2.4-1.42,4.14,0.02,5.27,2.1c0.01,0.07,0.03,0.14,0.07,0.21c0.42,0.76,0.8,1.91,1.52,2.43
			C36.98,23.66,39.31,23.96,38.09,26.49z"/>
	</g>
	<g class="st1">
		<path class="st6" d="M40.7,18.78c-0.56-0.34-1.19-0.43-1.75-0.71c-0.06-0.03-0.12-0.04-0.16-0.05c-0.03-0.22-0.08-0.45-0.15-0.66
			c-0.22-0.65-0.58-1.04-0.98-1.38c-0.11-0.09-0.23-0.18-0.35-0.27c-0.38-0.28-0.78-0.55-1.14-0.94c-0.78-0.86-0.98-1.93-2.2-2.63
			c-1.2-0.69-2.63-0.86-3.99-0.74c-1.18,0.1-2.01,0.46-2.99-0.11c-0.12-0.07-0.24-0.14-0.35-0.22h0c-0.18-0.11-0.34-0.23-0.49-0.34
			c-0.9-0.64-1.58-1.22-2.95-1.43c-2.88-0.44-6.73,0.76-7.63,3.78c-0.09,0.28-0.13,0.56-0.13,0.81c-0.05,0.01-0.1,0.02-0.16,0.04
			c-1.97,0.59-3.91,2.03-3.89,4.29c0,0.35,0.06,0.7,0.16,1.03c-0.06,0.17-0.13,0.34-0.19,0.51c-0.5,0.19-0.96,0.56-1.33,1.16
			c-0.28,0.46-0.43,0.89-0.48,1.31c-0.13,0.55-0.18,1.11-0.13,1.76c0.04,0.54,0.25,1.08,0.26,1.62v0.04
			c-0.16,0.07-0.33,0.14-0.49,0.21c-1.97,0.89-2.6,3.86-1.99,5.71c0.34,1.04,1.06,1.97,1.96,2.57c0.23,0.16,0.57,0.39,0.88,0.51
			c-0.14,0.89,0.31,2.12,0.76,2.72c0.42,0.54,0.99,0.81,1.55,1.09c0.01,0.84,0.25,1.68,0.65,2.47c0.12,0.23,0.25,0.46,0.39,0.68
			c0.72,1.1,1.73,2.03,2.82,2.56c1.51,0.73,3.24,0.28,4-1.16c0.06-0.01,0.13-0.02,0.22-0.04c0.47,0.02,0.95,0.02,1.42-0.01
			c0.05,0,0.87-0.1,1.47-0.23c0.34,0.27,0.67,0.53,1.01,0.79c0.1,0.07,0.21,0.13,0.31,0.19c0.24,0.15,0.5,0.28,0.76,0.41
			c0.12,0.06,0.23,0.11,0.36,0.16c0.26,0.11,0.52,0.21,0.78,0.3c0.19,0.06,0.39,0.12,0.59,0.17c1.43,0.36,3.04,0.4,4.26-0.47
			c0.74-0.53,1.17-1.28,1.53-2.07c1.04,0.1,2.15-0.41,2.83-1.36c0.38-0.54,0.62-1.12,0.76-1.77c0.04-0.21,0.06-0.42,0.09-0.63
			c0.69-0.01,1.7-0.27,2.15-0.34c0.21-0.04,0.39-0.07,0.56-0.11c0.26-0.05,0.48-0.12,0.7-0.23c0.24-0.11,0.47-0.26,0.72-0.49
			c2.09-1.87,1.89-5.51,0.04-7.44c-0.16-0.18-0.37-0.36-0.6-0.54c0.7-0.57,1.56-1.53,2.21-2.37c0.32-0.41,0.59-0.79,0.77-1.09
			c0.05-0.07,0.09-0.14,0.12-0.22C44.57,23.18,42.92,20.13,40.7,18.78z M36.2,28.86c-0.3,0.19-0.44,0.6-0.24,0.92
			c0.07,0.33,0.14,0.65,0.21,0.98c-0.37,0.13-0.68,0.62-0.4,0.99c1.48,2.01-0.02,4.67-2.56,4.09c-0.33-0.08-0.76,0.1-0.83,0.47
			c-0.19,1.11-0.53,1.63-1.6,2.04c-0.59,0.22-1.24,0.15-1.83,0.44c-0.67,0.32,0.05,0.56-1.21,0.98c-1.47,0.48-2.98-0.55-3.71-1.71
			c-0.18-0.29-0.48-0.36-0.73-0.29c-0.12-0.01-0.24,0-0.37,0.06c-0.57-0.02-1.13-0.04-1.7-0.06c-0.3-0.15-0.57-0.09-0.82,0.11
			c-2.34,1.17-3.56,0.45-3.67-2.16c0.05-0.33-0.08-0.77-0.47-0.83l-1.19-2.44c0.07-0.3-0.05-0.6-0.31-0.77
			c-2.2-1.35-3.44-4.99-0.16-6.11c0.43-0.14,0.61-0.59,0.4-0.99c-0.76-1.49,0.23-3.06,1.76-3.32c0.48-0.08,0.58-0.53,0.42-0.88
			c0.02-0.06,0.03-0.13,0.02-0.2c-0.05-0.81,0.46-1.35,1.03-1.84c0.7-0.61,1.25-0.56,2.1-0.32c0.37,0.1,0.65-0.09,0.77-0.37
			c0.27-0.06,0.49-0.27,0.45-0.63c-0.15-1.84,1.84-3.06,3.52-2.82c1.42,0.21,2.27,1.37,2.88,2.56c-0.34,0.41,0.03,1.23,0.72,1.11
			c1.28-0.23,1.93-1.84,3.44-1.02c0.46,0.25,0.91,0.66,1.25,1.06c0.5,0.59,0.5,1.28,0.74,1.98c0.04,0.09,0.08,0.17,0.14,0.23
			c0.06,0.17,0.21,0.3,0.45,0.34c0.26,0.41,0.53,0.82,0.79,1.23c-0.15,0.32-0.1,0.73,0.24,0.92c0.76,0.43,1.63,0.85,2.14,1.58
			C39.25,26.17,37.75,27.86,36.2,28.86z"/>
		<g>
			<path class="st7" d="M39.74,17.69c0-1.51-1.28-3.56-2.7-3.37c-0.24-0.83-0.68-1.5-1.25-2.04c-0.36-0.34-0.79-0.63-1.25-0.85
				c-2.14-1.08-5.13-0.99-7.26-0.18c-0.06-0.07-0.12-0.14-0.18-0.22c-0.58-0.71-1.21-1.35-1.89-1.85c-1.1-0.8-2.38-1.26-3.98-1.07
				c-2.14,0.25-4.78,1.53-5.61,3.65c0,0.05-0.27,1.14-0.28,1.44c-0.21-0.04-1.03,0.08-1.21,0.1c-0.01,0-0.02,0-0.03,0
				c-0.07,0.01-0.14,0.03-0.2,0.05c-0.15,0.04-0.3,0.09-0.45,0.14c-0.83,0.32-1.61,0.91-2.16,1.57c-0.9,1.08-1.44,2.66-0.86,3.91
				c-2.16,0.98-2.16,3.78-1.71,5.97c-0.54,0.36-0.99,0.81-1.34,1.31c-0.2,0.27-0.36,0.57-0.5,0.87c-1.22,2.66-0.37,6.27,2.46,7.6
				c-0.31,0.71-0.32,1.48-0.1,2.17c0.14,0.49,0.4,0.94,0.75,1.31c0.5,0.55,1.18,0.95,1.96,1.05c-0.09,0.53-0.07,1.05,0.04,1.56
				c0.21,1.08,0.81,2.09,1.62,2.89c2.02,2.02,5.36,2.72,7.08-0.01c0.98,0.23,1.84,0.1,2.79-0.36c0.21,0.25,0.43,0.48,0.67,0.7
				c0.11,0.11,0.23,0.21,0.35,0.31c1.23,1.01,2.76,1.59,4.41,1.63c0.16,0.01,0.32,0.01,0.48,0c0.01,0,0.03,0,0.05,0
				c2.22-0.09,3.25-1.52,3.87-3.38c0.69,0.33,1.32,0.3,1.87,0.04c0.11-0.05,0.22-0.11,0.32-0.18c0.04-0.02,0.08-0.05,0.11-0.08
				c0.16-0.12,0.31-0.26,0.45-0.41c0.66-0.71,1.13-1.75,1.37-2.74c0.67,0.15,1.3,0.13,1.88-0.01c0.11-0.03,0.22-0.06,0.33-0.1
				c0.34-0.12,0.66-0.28,0.95-0.48c0.4-0.27,0.77-0.61,1.08-1c1.84-2.25,2.09-6.18-0.54-8.05c0.31-0.54,0.94-0.85,1.51-1.29
				c0.12-0.09,0.22-0.18,0.33-0.28c0.09-0.09,0.18-0.19,0.27-0.3c0.71-0.93,1.37-2.2,1.51-3.42c0.02-0.18,0.03-0.36,0.03-0.54v0
				C44.72,21.02,42.56,17.88,39.74,17.69z M37.35,15.66c0.1,0.06,0.21,0.18,0.31,0.32c0.17,0.23,0.32,0.5,0.36,0.57
				c0.29,0.49,0.52,0.94,0.3,1.5c-0.17,0.43,0.12,0.73,0.48,0.8c0.11,0.12,0.27,0.2,0.49,0.18c1.92-0.09,3.02,1.47,3.66,3.06
				c0.58,1.43,0.47,2.85-0.31,4.11c-0.09,0.15-0.19,0.3-0.31,0.44c-0.03,0.05-0.07,0.1-0.11,0.15c-0.58,0.7-1.64,0.83-2.15,1.45
				c-0.38,0.46-0.3,0.89-0.4,1.44c-0.06,0.35,0.12,0.61,0.36,0.75c0.05,0.05,0.09,0.09,0.15,0.12c3.43,2.08,0.87,8.68-3.09,7.15
				c-0.45-0.18-0.81,0.26-0.85,0.65c-0.09,0.84-0.83,4.47-2.83,2.7c-0.37-0.33-0.99-0.22-1.13,0.3c-0.49,1.83-1.4,3.24-3.54,3.27
				c-1.71,0.02-3.43-1.04-4.41-2.38c-0.27-0.37-0.73-0.35-1.02-0.15c-0.14-0.03-0.3-0.02-0.45,0.06c-0.81,0.42-1.57,0.45-2.31,0.1
				c-0.26-0.09-0.63,0.06-0.76,0.31c-1.99,3.98-7.62-0.29-6.3-3.79c0.16-0.43-0.12-0.72-0.47-0.8c-0.12-0.05-0.26-0.07-0.41-0.05
				c-1.98-0.47-2.57-1.5-1.78-3.08c0.33-0.38,0.22-0.99-0.3-1.13c-3.38-0.95-3.95-6.53-0.55-7.96c0.65-0.27,0.53-1.19,0.03-1.34
				c-0.35-1.76-0.54-4.05,1.71-4.44c0.5-0.09,0.66-0.81,0.3-1.13c-1.29-1.16,0.17-2.94,1.08-3.6c0.86-0.62,1.54-0.53,2.52-0.76
				c0.76-0.18,0.76-0.19,1.1-0.8c0.32-0.58-0.13-0.98,0.4-1.91c0.54-0.96,1.87-1.67,2.9-2.02c2.86-0.97,4.77,0.42,6.48,2.64
				c0.24,0.31,0.56,0.41,0.92,0.24c2.45-1.17,7.56-1.08,8.37,2.21c0.04,0.18,0.14,0.3,0.25,0.37c0.05,0.25,0.25,0.49,0.49,0.58
				c0.04,0.02,0.09,0.04,0.13,0.05c0.29,0.11,0.51,0.01,0.65-0.16C37.32,15.69,37.34,15.67,37.35,15.66z"/>
			<path class="st7" d="M14.1,13.3c0.01,0,0.02-0.01,0.04-0.01C14.08,13.3,14.07,13.31,14.1,13.3z"/>
		</g>
	</g>
	<path class="st10" d="M39.8,25.37c-0.16-1.75-1.52-2.81-2.93-3.64c0.26-1.17-0.29-2.2-1.57-2.5c-0.2-0.72-0.27-1.39-0.77-2.02
		c-0.47-0.58-1.09-1.15-1.74-1.52c-0.59-0.34-1.26-0.5-1.94-0.4c-0.45,0.07-0.87,0.23-1.26,0.45c-0.14,0.08-0.31,0.21-0.48,0.35
		c-0.98-1.87-2.61-3.53-4.9-3.25c-2.02,0.24-3.93,1.68-4.01,3.76c-1.01-0.21-1.85-0.1-2.73,0.63c-0.89,0.74-1.65,1.66-1.62,2.86
		c-1.98,0.61-2.9,2.53-2.3,4.47c-3.34,1.67-2.68,5.96,0.12,8.02c-0.21,1.51,0.23,2.96,1.7,3.47c-0.03,3.01,2.97,4.69,5.56,3.07
		c0.78,0.31,1.45,0.31,2.22,0.05c1.32,1.68,3.9,2.82,5.88,1.54c0.32-0.21,0.51-0.68,0.79-0.85c0.54-0.33,1.67-0.15,2.36-0.44
		c1.08-0.45,1.24-1.18,1.4-2.17c3.07,0.19,5.21-2.87,3.69-5.65c0.48-0.5,0.45-1.23,0.14-1.94C38.8,28.64,39.97,27.22,39.8,25.37z
		 M36.2,28.86c-0.3,0.19-0.44,0.6-0.24,0.92c0.07,0.33,0.14,0.65,0.21,0.98c-0.37,0.13-0.68,0.62-0.4,0.99
		c1.48,2.01-0.02,4.67-2.56,4.09c-0.33-0.08-0.76,0.1-0.83,0.47c-0.19,1.11-0.53,1.63-1.6,2.04c-0.59,0.22-1.24,0.15-1.83,0.44
		c-0.67,0.32,0.05,0.56-1.21,0.98c-1.47,0.48-2.98-0.55-3.71-1.71c-0.18-0.29-0.48-0.36-0.73-0.29c-0.12-0.01-0.24,0-0.37,0.06
		c-0.57-0.02-1.13-0.04-1.7-0.06c-0.3-0.15-0.57-0.09-0.82,0.11c-2.34,1.17-3.56,0.45-3.67-2.16c0.05-0.33-0.08-0.77-0.47-0.83
		l-1.19-2.44c0.07-0.3-0.05-0.6-0.31-0.77c-2.2-1.35-3.44-4.99-0.16-6.11c0.43-0.14,0.61-0.59,0.4-0.99
		c-0.76-1.49,0.23-3.06,1.76-3.32c0.48-0.08,0.58-0.53,0.42-0.88c0.02-0.06,0.03-0.13,0.02-0.2c-0.05-0.81,0.46-1.35,1.03-1.84
		c0.7-0.61,1.25-0.56,2.1-0.32c0.37,0.1,0.65-0.09,0.77-0.37c0.27-0.06,0.49-0.27,0.45-0.63c-0.15-1.84,1.84-3.06,3.52-2.82
		c1.42,0.21,2.27,1.37,2.88,2.56c-0.34,0.41,0.03,1.23,0.72,1.11c1.28-0.23,1.93-1.84,3.44-1.02c0.46,0.25,0.91,0.66,1.25,1.06
		c0.5,0.59,0.5,1.28,0.74,1.98c0.04,0.09,0.08,0.17,0.14,0.23c0.06,0.17,0.21,0.3,0.45,0.34c0.26,0.41,0.53,0.82,0.79,1.23
		c-0.15,0.32-0.1,0.73,0.24,0.92c0.76,0.43,1.63,0.85,2.14,1.58C39.25,26.17,37.75,27.86,36.2,28.86z"/>
	<path class="st11" d="M14.74,4.65c-1.19-0.49-2.77,1.06-3.41,1.91c-0.97,1.29-1.35,2.86-0.91,4.42c0.09,0.33,0.57,0.25,0.58-0.08
		c0.07-1.48,0.4-2.97,1.46-4.07c0.72-0.75,1.9-0.92,2.48-1.73C15.06,4.93,14.91,4.72,14.74,4.65z"/>
	<path class="st11" d="M34.14,3.87c-1.34-0.52-2.66-0.22-3.7,0.73c-0.19,0.17,0.06,0.51,0.28,0.36c1.02-0.68,2.41-0.71,3.47-0.1
		c0.93,0.53,1.22,1.47,1.95,2.16c0.18,0.17,0.48,0.05,0.49-0.2C36.66,5.51,35.26,4.31,34.14,3.87z"/>
	<path class="st11" d="M48.54,16.98c-0.82-1.74-2.08-3.02-3.89-3.71c-0.32-0.12-0.54,0.4-0.23,0.55c1.31,0.64,2.28,1.73,2.96,3.01
		c0.41,0.76,0.78,1.64,0.76,2.52c-0.02,0.57-0.26,1-0.24,1.56c0.01,0.22,0.24,0.37,0.44,0.25C49.71,20.37,49.07,18.12,48.54,16.98z"
		/>
	<path class="st11" d="M44.55,40.06c-0.54,1.39-1.32,2.48-2.63,3.23c-0.87,0.49-2.14,0.7-2.78,1.5c-0.09,0.12-0.08,0.32,0.1,0.36
		c1.18,0.27,2.72-0.66,3.62-1.33c1.24-0.92,1.79-2.16,2.26-3.59C45.24,39.86,44.69,39.72,44.55,40.06z"/>
	<path class="st11" d="M24.2,51.55c-1.05-0.12-2.02,0.55-3.11,0.49c-1.43-0.08-2.73-0.71-3.71-1.74c-0.24-0.25-0.71,0.09-0.49,0.38
		c0.97,1.27,2.22,2.19,3.84,2.38c1.16,0.13,3.1,0.04,3.65-1.18C24.46,51.72,24.37,51.57,24.2,51.55z"/>
	<path class="st11" d="M3.06,34.21c-0.61-1.12-1.37-1.95-1.58-3.25C1.25,29.54,1.62,28,2.35,26.77c0.18-0.3-0.26-0.66-0.5-0.38
		c-1.96,2.27-2.48,6.72,0.51,8.52C2.81,35.18,3.3,34.65,3.06,34.21z"/>
</g>
<g class="st0">
	<g class="st1">
		<path class="st4" d="M20.39,7.92c-1.73-0.67-4.06,1.17-5.21,2.31c-1.29,1.28-2.33,3.05-1.89,4.87c-1.39,0.37-2.23,1.26-2.92,2.5
			c-0.52,0.93-1.57,2.76-0.52,3.63c0.18,0.15,0.4,0.16,0.57,0c0.31-0.28,0.39-0.55,0.5-0.95c0.17-0.63,0.37-1.19,0.68-1.77
			c0.5-0.93,1.16-1.94,2.14-2.39c0.23-0.1,0.3-0.3,0.28-0.5c0.08-0.07,0.14-0.16,0.14-0.3c0.05-1.71,1.87-3.32,3.2-4.18
			c1.09-0.7,2.73-1.1,3.42-2.24C21.03,8.5,20.79,8.07,20.39,7.92z"/>
		<path class="st4" d="M9.03,22.51c-0.74,0.61-0.83,1.6-0.93,2.5c-0.09,0.87-0.24,2.18,0.72,2.61c0.23,0.1,0.45,0.06,0.6-0.16
			c0.43-0.64,0.15-1.41,0.12-2.13c-0.02-0.75-0.15-1.75,0.12-2.46C9.81,22.49,9.29,22.3,9.03,22.51z"/>
		<path class="st4" d="M15.01,39.11c-0.17-0.44-0.44-0.66-0.76-0.98c-0.26-0.27-0.49-0.59-0.63-0.94c-0.07-0.17-0.19-0.32-0.34-0.4
			c0.04-0.14,0.02-0.31-0.06-0.42c-0.27-0.38-0.45-0.46-0.86-0.64c-0.88-0.4-1.47-0.76-2.06-1.55c-0.95-1.27-1.57-3.07-1.75-4.64
			c-0.06-0.51-0.82-0.71-0.96-0.13c-0.57,2.29-0.13,4.37,1.36,6.25c0.65,0.81,2.23,2.16,3.41,1.9c0.34,0.87,1.1,2.24,2.19,2.17
			C14.83,39.7,15.13,39.42,15.01,39.11z"/>
		<path class="st4" d="M25.03,42.65c-0.07-0.17-0.21-0.33-0.41-0.31c-1.1,0.07-1.53,1.15-2.53,1.46c-1.43,0.44-3.64,0.01-4.32-1.39
			c-0.42-0.87-1.97-0.24-1.59,0.67c0.93,2.24,3.04,2.98,5.36,2.88C23.07,45.89,25.88,44.67,25.03,42.65z"/>
		<path class="st4" d="M36.43,38.95c-0.17-0.34-0.66-0.37-0.91-0.12c-0.83,0.83-0.94,2.1-1.85,2.96c-1.32,1.25-3.22,1.49-4.85,0.7
			c-0.51-0.24-0.95,0.47-0.45,0.77c1.77,1.04,3.98,1.26,5.81,0.19C35.53,42.67,37.26,40.56,36.43,38.95z"/>
		<path class="st4" d="M39.43,35.99c-0.23-0.31-0.75-0.41-0.96,0c-0.23,0.44-0.2,0.93-0.57,1.31c-0.4,0.42-0.96,0.61-1.53,0.56
			c-0.41-0.04-0.48,0.6-0.1,0.7c0.85,0.24,1.75,0.28,2.48-0.29C39.37,37.81,39.95,36.7,39.43,35.99z"/>
		<path class="st4" d="M43.3,27.39c-0.57-0.98-1.56-1.67-2.06-2.68c-0.27-0.55-1.02-0.14-0.93,0.39c0.26,1.51,1.43,2.55,1.72,4.02
			c0.36,1.78-1.37,2.7-1.29,4.3c0.01,0.26,0.21,0.49,0.49,0.49c1.71-0.02,2.78-2.17,2.82-3.67C44.09,29.23,43.8,28.24,43.3,27.39z"
			/>
		<path class="st4" d="M29.11,8.96c-1.79-0.24-3.28,0.62-4.18,2.15c-0.3,0.5,0.45,1.13,0.84,0.65c0.87-1.1,2.46-1.39,3.74-0.91
			c0.89,0.33,1.57,1.33,2.55,1.29c0.31-0.01,0.5-0.23,0.53-0.53C32.77,10.05,30.32,9.12,29.11,8.96z"/>
		<path class="st4" d="M35.85,12.37c-0.86-0.48-1.61-0.31-2.44,0.15c-0.48,0.26-0.15,1.04,0.37,0.89c0.62-0.18,0.99-0.13,1.52,0.26
			c0.35,0.26,0.59,0.67,0.98,0.88c0.32,0.17,0.69,0.02,0.8-0.32C37.34,13.37,36.5,12.73,35.85,12.37z"/>
		<path class="st4" d="M41.34,15.65c-1.04-0.95-3.19-1.96-4.21-0.49c-0.27,0.39,0.26,0.91,0.65,0.65c0.37-0.25,1.21,0.33,1.52,0.53
			c0.51,0.33,0.93,0.73,1.25,1.24c0.56,0.89,0.46,1.99,1.18,2.78c0.1,0.12,0.34,0.16,0.47,0.06C43.79,19.23,42.49,16.7,41.34,15.65z
			"/>
	</g>
	<g class="st1">
		<path class="st2" d="M39.75,42.4c-0.33,0-0.33,0.52,0,0.52C40.09,42.92,40.09,42.4,39.75,42.4z"/>
		<path class="st2" d="M42.03,10.81c-0.01-0.01-0.02-0.03-0.03-0.04c-0.28-0.42-0.85-0.42-1.13,0c-0.01,0.01-0.02,0.03-0.03,0.04
			c-0.29,0.44,0.09,1.03,0.59,1.03S42.32,11.25,42.03,10.81z"/>
		<circle class="st2" cx="9.83" cy="12.73" r="0.66"/>
		<path class="st2" d="M30.98,6.41c-0.03,0-0.03,0.04,0,0.04C31.01,6.46,31.01,6.41,30.98,6.41z"/>
		<path class="st2" d="M29.07,5.67c-0.69,0-0.69,1.08,0,1.08C29.76,6.75,29.76,5.67,29.07,5.67z"/>
		<path class="st2" d="M5.55,38.89c-0.64,0-0.65,1,0,1C6.2,39.9,6.2,38.89,5.55,38.89z"/>
		<path class="st2" d="M5.33,25.22c-0.58,0-0.58,0.91,0,0.91C5.91,26.12,5.91,25.22,5.33,25.22z"/>
		<path class="st2" d="M24.12,47.47c-0.75,0-0.75,1.17,0,1.17C24.87,48.64,24.87,47.47,24.12,47.47z"/>
	</g>
</g>
<g class="st0">
	<path class="st12" d="M10.01,14.23c-0.73,0.33-1.02,1.07-1.32,1.76c-0.34,0.81-0.58,1.64-0.74,2.5c-0.1,0.55,0.71,0.79,0.84,0.23
		c0.21-0.83,0.49-1.63,0.88-2.4c0.32-0.62,0.73-1.13,0.77-1.85C10.46,14.24,10.19,14.14,10.01,14.23z"/>
	<path class="st12" d="M17.89,6.76c-1.01-0.19-2.28,0.53-3.06,1.13C13.96,8.57,13.58,9.6,13,10.5c-0.31,0.48,0.43,0.89,0.76,0.44
		c0.61-0.83,1-1.84,1.96-2.34c0.81-0.42,1.86-0.58,2.37-1.39C18.18,7.06,18.09,6.8,17.89,6.76z"/>
	<path class="st12" d="M27.33,6.59c-0.41,0.01-0.8,0.05-1.2,0.1c-0.36,0.04-0.36,0.61,0,0.57c0.43-0.05,0.84-0.11,1.26-0.21
		C27.65,7,27.6,6.58,27.33,6.59z"/>
	<path class="st12" d="M7.67,24.67c-0.1-0.78-0.02-1.57,0.14-2.33c0.11-0.54-0.69-0.96-0.94-0.4c-0.41,0.91-0.58,1.82-0.48,2.82
		c0.08,0.77,0.22,1.72,1.02,2.02c0.21,0.08,0.39-0.09,0.47-0.27C8.11,25.92,7.75,25.28,7.67,24.67z"/>
	<path class="st12" d="M11.26,38.76c-0.89-0.7-1.89-0.98-2.59-1.96c-0.69-0.98-1.03-2.15-1.36-3.29c-0.21-0.71-1.32-0.41-1.11,0.31
		c0.41,1.38,0.85,2.81,1.77,3.95c0.75,0.92,1.92,1.85,3.16,1.46C11.32,39.17,11.44,38.9,11.26,38.76z"/>
	<path class="st12" d="M25.22,44.4c-0.1-0.27-0.36-0.37-0.62-0.25c-1.01,0.46-1.4,1.14-2.66,1.11c-1.16-0.03-2.32-0.46-3.48-0.61
		c-1.05-0.13-1.04,1.51,0,1.65c1.72,0.22,3.45,0.99,5.18,0.38C24.57,46.36,25.63,45.48,25.22,44.4z"/>
	<path class="st12" d="M37.84,40.87c-0.09-0.17-0.3-0.23-0.47-0.19c-0.39,0.09-0.52,0.27-0.73,0.6c-0.33,0.5-0.67,0.95-1.13,1.35
		c-0.91,0.8-2.02,1.25-3.23,1.31c-0.68,0.03-0.69,1.06,0,1.07c1.41,0.02,2.77-0.41,3.91-1.25C36.96,43.19,38.37,41.91,37.84,40.87z"
		/>
	<path class="st12" d="M41.37,36.91c-0.12-0.35-0.48-0.49-0.81-0.33c-0.34,0.17-0.43,0.55-0.66,0.82c-0.21,0.25-0.46,0.44-0.75,0.59
		c-0.73,0.38-0.08,1.5,0.65,1.11c0.39-0.21,0.75-0.49,1.04-0.83C41.14,37.91,41.54,37.4,41.37,36.91z"/>
	<path class="st12" d="M45.73,27.71c-0.6-1.56-1.7-2.24-3.22-2.73c-0.45-0.14-0.64,0.47-0.3,0.71c1.13,0.82,2.1,1.68,2.41,3.11
		c0.27,1.23-0.24,2.56,0.23,3.7c0.15,0.35,0.56,0.42,0.79,0.1C46.53,31.38,46.26,29.07,45.73,27.71z"/>
	<path class="st12" d="M42.13,13.12c-0.7-0.37-3.01-1.27-3.91-0.61c0.1-0.15,0.14-0.35,0.05-0.56c-0.64-1.37-1.99-2.27-3.51-2.18
		c-0.38,0.02-0.52,0.64-0.1,0.71c1.17,0.2,2.18,0.92,2.67,2.02c0.15,0.33,0.48,0.34,0.72,0.18c-0.08,0.1-0.14,0.21-0.17,0.36
		c-0.04,0.19,0.09,0.44,0.32,0.42c1.35-0.11,3.02,0.6,4.04,1.4c0.93,0.73,1.4,1.89,2.34,2.57c0.15,0.1,0.38,0,0.42-0.17
		C45.37,15.55,43.48,13.84,42.13,13.12z"/>
	<path class="st12" d="M33.31,8.7c-0.32-1.11-1.86-1.67-2.94-1.71c-1.52-0.06-3.09,0.69-4.4,1.39c-0.57,0.3-0.07,1.07,0.49,0.84
		c1.14-0.48,2.57-0.97,3.83-0.84c0.96,0.1,1.67,0.94,2.63,0.83C33.17,9.18,33.39,8.97,33.31,8.7z"/>
</g>
<g>
	<path class="st4" d="M16.62,5.24c-1.46,0.07-2.74,1.32-3.73,2.29c-0.77,0.75-2.21,2-1.5,3.18c0.13,0.22,0.52,0.2,0.58-0.08
		c0.23-1.07,1.6-2.11,2.4-2.78c0.84-0.71,1.89-1.21,2.53-2.13C17.04,5.53,16.85,5.23,16.62,5.24z"/>
	<path class="st4" d="M7,15.62c-0.35,0.74-0.83,1.59-0.75,2.43c0.02,0.17,0.21,0.23,0.31,0.09c0.47-0.66,0.6-1.57,0.87-2.33
		C7.52,15.55,7.11,15.38,7,15.62z"/>
	<path class="st4" d="M4.89,25.85c-0.08-0.66-0.16-1.29-0.15-1.95c0.01-0.39-0.62-0.49-0.69-0.09c-0.2,1.12-0.64,2.77,0.26,3.67
		c0.12,0.13,0.38,0.11,0.46-0.06C5.02,26.88,4.96,26.42,4.89,25.85z"/>
	<path class="st4" d="M9.46,39.2c-0.34-0.83-1.28-1.25-2.01-1.7c-1.01-0.63-1.82-1.34-2.43-2.37c-0.38-0.65-1.4-0.06-1.01,0.59
		c0.56,0.96,1.29,1.75,2.21,2.39c0.8,0.55,1.98,1.51,3,1.41C9.36,39.5,9.53,39.36,9.46,39.2z"/>
	<path class="st4" d="M24.86,46.23c-1.35,0.47-2.03,1.87-3.29,2.57c-1.9,1.06-4.12,0.68-6.19,0.85c-0.37,0.03-0.44,0.51-0.09,0.64
		c2.04,0.76,4.38,0.98,6.42,0.11c1.43-0.61,3.43-1.97,3.74-3.57C25.53,46.49,25.24,46.1,24.86,46.23z"/>
	<path class="st4" d="M37.72,42.23c-0.52,0.37-0.83,0.99-1.27,1.45c-0.46,0.47-0.96,0.89-1.47,1.31c-0.84,0.69,0.36,1.88,1.19,1.19
		c0.55-0.46,1.1-0.92,1.59-1.45c0.49-0.52,1.03-1.12,1.07-1.86C38.86,42.33,38.17,41.91,37.72,42.23z"/>
	<path class="st4" d="M42.38,39.22c-0.18,0.2-0.29,0.44-0.47,0.65c-0.18,0.21-0.32,0.39-0.57,0.52c-0.27,0.15-0.16,0.62,0.16,0.6
		c0.76-0.05,1.68-0.58,1.65-1.44C43.15,39.17,42.66,38.91,42.38,39.22z"/>
	<path class="st4" d="M45.56,29.56c-0.03,0-0.03,0.04,0,0.04C45.59,29.6,45.59,29.56,45.56,29.56z"/>
	<path class="st4" d="M44.77,26.43c-0.32-0.25-0.74,0.14-0.46,0.45c0.84,0.93,1.54,2.15,1.96,3.32c0.33,0.92,0.45,1.97,0.92,2.82
		c0.06,0.1,0.22,0.11,0.27,0C48.67,30.71,46.5,27.78,44.77,26.43z"/>
	<path class="st4" d="M44.74,13.81c-1.23-1.12-2.77-1.65-4.33-2.14c-0.38-0.12-0.51,0.44-0.16,0.58c1.3,0.54,2.6,1.2,3.65,2.16
		c0.96,0.88,1.22,2,1.98,2.98c0.13,0.17,0.37,0.15,0.44-0.06C46.75,16.06,45.64,14.63,44.74,13.81z"/>
	<path class="st4" d="M33.08,6.09c-0.73-0.82-2.12-1.06-3.17-1.18c-1.12-0.13-2.18,0.08-3.14,0.67c-0.52,0.32-0.07,1.04,0.47,0.8
		c1.07-0.47,2.24-0.31,3.33-0.01c0.8,0.22,1.49,0.58,2.33,0.41C33.22,6.72,33.27,6.31,33.08,6.09z"/>
	<path class="st4" d="M37.42,8.13c-0.9-0.31-1.29,1.12-0.39,1.42c0.39,0.13,0.76,0.32,1.08,0.58c0.33,0.27,0.58,0.71,0.97,0.88
		c0.4,0.17,1.02-0.01,0.97-0.56C39.95,9.28,38.41,8.46,37.42,8.13z"/>
</g>
</svg>
